<?xml version="1.0" encoding="UTF-8"?>
<svg width="211px" height="298px" viewBox="0 0 211 298" version="1.1" xmlns="http://www.w3.org/2000/svg" xmlns:xlink="http://www.w3.org/1999/xlink">
    <!-- Generator: Sketch 64 (93537) - https://sketch.com -->
    <title>Banner2-Foreground</title>
    <desc>Created with Sketch.</desc>
    <defs>
        <linearGradient x1="13.9332689%" y1="15.3743266%" x2="86.0667311%" y2="84.6256734%" id="linearGradient-1">
            <stop stop-color="#E91E63" offset="0%"></stop>
            <stop stop-color="#FF9800" offset="100%"></stop>
        </linearGradient>
        <path d="M7.74662057,47.5182061 C13.3617328,48.3223564 32.0792014,47.5490854 38.3658671,43.771509 C37.8085932,40.529175 35.0209397,26.6797769 34.1079865,17.5806555 C34.2839001,16.1125987 34.375067,14.9649154 34.3853394,14.3627676 C34.4585297,10.2223586 34.0835897,5.45535562 31.2124735,4.02718469 C29.8077325,2.11652358 28.111514,0.939247547 26.86471,0.0926381143 C24.3248765,-0.174983105 16.3163116,3.54083459 13.7212643,9.48768687 C11.8786652,13.7091543 8.87400875,23.401417 7.99315648,37.9443143 C4.57632284,39.8717017 1.45995485,41.577787 0.019260618,42.2532732 C0.019260618,42.2532732 1.03365317,44.2694389 1.9196416,45.1688005 C2.82617469,45.1585074 5.00904473,44.6708707 7.76331311,43.8975998 C7.74276845,45.0787357 7.73634824,46.2856045 7.74662057,47.5182061 Z" id="path-2"></path>
        <linearGradient x1="30.6510327%" y1="5.62758203%" x2="73.6875563%" y2="84.2966497%" id="linearGradient-4">
            <stop stop-color="#E91E63" offset="0%"></stop>
            <stop stop-color="#FF9800" offset="100%"></stop>
        </linearGradient>
        <polygon id="path-5" points="21.3759345 1.53766179 2.27904228 0.00911399874 0.118307386 27.0894083 19.2086992 28.6218621"></polygon>
        <linearGradient x1="-10.9859395%" y1="-64.8400272%" x2="86.7346939%" y2="50%" id="linearGradient-7">
            <stop stop-color="#FF9800" offset="0%"></stop>
            <stop stop-color="#FFE0B2" offset="100%"></stop>
        </linearGradient>
        <polygon id="path-8" points="20.8627681 1.49470862 1.82401757 0.00126993086 0.0518555101 21.6827995 19.0919024 23.1762382"></polygon>
        <linearGradient x1="5.43233727%" y1="-12.3845794%" x2="90.0632224%" y2="50%" id="linearGradient-10">
            <stop stop-color="#AD1457" offset="0%"></stop>
            <stop stop-color="#BF360C" offset="100%"></stop>
        </linearGradient>
        <path d="M11.9425637,23.9724848 C8.97614839,23.9724848 6.26439345,22.8778044 4.17920392,21.0694229 C1.65151045,18.8737124 0.0516884949,15.6214195 0.0516884949,11.994497 C0.0516884949,6.47537745 3.75308901,1.82997037 8.79334761,0.439396077 C9.79560014,0.16255115 10.8508019,0.0152391703 11.9425637,0.0152391703 C18.5107847,0.0152391703 23.8334389,5.37942712 23.8334389,11.994497 C23.8334389,14.8023141 22.8753107,17.3866234 21.2679246,19.4299421 C19.6264997,21.5138987 17.3080816,23.0378157 14.6480152,23.6600818 C13.7781356,23.8658106 12.8729566,23.9724848 11.9425637,23.9724848 Z M6.24296163,15.997319 C6.05763947,16.2690842 5.96939082,16.604346 5.97191221,16.953577 C5.96939082,17.392973 6.11058866,17.8107803 6.40433059,18.1066742 C6.69429044,18.4012982 7.10401632,18.5448003 7.53895609,18.5448003 L11.9917308,18.5448003 C12.4808805,18.5448003 13.1074459,18.496543 13.7214044,18.3606604 C14.3189738,18.220968 14.9102397,18.0114294 15.3477009,17.596162 L16.5857034,16.6792719 L17.6699011,16.6792719 C17.7921885,16.6792719 17.9119545,16.6297446 18.0002032,16.5421194 C18.0884518,16.4532242 18.1363582,16.3325808 18.1363582,16.2093975 L18.1363582,9.86990264 C18.1363582,9.74671935 18.0884518,9.62480598 18.0002032,9.53591082 C17.9119545,9.44701566 17.7921885,9.40002822 17.6699011,9.40002822 L15.723388,9.40002822 C15.6414428,9.11048398 15.4926808,8.85395795 15.322487,8.63298998 C14.9329323,8.12882743 14.4236115,7.72752928 14.0365781,7.31480175 C13.8436918,7.11161281 13.6810621,6.91096374 13.5751637,6.71539438 C13.4705261,6.51728517 13.4137948,6.3293354 13.4137948,6.12233667 L13.4137948,3.45167208 C13.4137948,3.32848878 13.3646277,3.20784535 13.2751183,3.11895019 C13.1893911,3.03259489 13.069625,2.98179766 12.9448162,2.98179766 C12.5212227,2.98179766 12.1530998,3.18244673 11.866922,3.45421194 C11.4345036,3.86693947 11.1294154,4.45491745 10.9075331,5.11401157 C10.6906936,5.77056582 10.5658848,6.50077607 10.5658848,7.19923804 C10.5658848,7.6297446 10.6125305,8.05009172 10.7247324,8.43488077 C10.7461642,8.50726683 10.7688567,8.58092282 10.796592,8.65330888 L7.17839732,8.65330888 C6.30725708,8.65330888 5.60000718,9.36320023 5.60000718,10.2432623 C5.60000718,10.5924933 5.71346973,10.9163257 5.90131329,11.1779314 C5.49663019,11.4662057 5.23188424,11.9398899 5.23188424,12.4808805 C5.23188424,13.0193312 5.49663019,13.4930154 5.90131329,13.7800198 C5.71346973,14.0454353 5.60000718,14.3692677 5.60000718,14.7184987 C5.60000718,15.2429801 5.85340688,15.7077748 6.24296163,15.997319 Z M11.9967736,17.6012417 L7.54778096,17.6012417 C7.29690265,17.5987018 7.15570481,17.5301256 7.06493477,17.4412304 C6.97920751,17.3497954 6.90860859,17.2088331 6.9073479,16.953577 C6.90860859,16.6995908 6.97920751,16.5586285 7.06493477,16.4671935 C7.15570481,16.3782983 7.29690265,16.309722 7.55030235,16.3071822 L8.29033031,16.3071822 C8.54877278,16.3071822 8.75678746,16.0951037 8.75678746,15.8360378 C8.75678746,15.575702 8.54877278,15.3636235 8.29033031,15.3636235 L7.16452968,15.3636235 C6.81657786,15.3572739 6.53796426,15.0689996 6.53544287,14.7184987 C6.53544287,14.3959362 6.76615006,14.1317906 7.06745616,14.0797234 L7.19478636,14.0835332 L8.32184769,14.0835332 C8.58029016,14.0835332 8.78830483,13.8739946 8.78830483,13.6136588 C8.78830483,13.3545929 8.58029016,13.1425145 8.32184769,13.1425145 L7.29438126,13.1425145 C7.25782111,13.132355 7.21873956,13.1285452 7.17839732,13.1285452 C7.12670883,13.1285452 7.07628103,13.1310851 7.02459253,13.1348949 L6.82540272,13.1285452 L6.80901369,13.1285452 C6.4534977,13.1260054 6.16605924,12.8364611 6.16605924,12.4808805 C6.16605924,12.12276 6.4534977,11.8332157 6.80901369,11.8332157 L8.29033031,11.8332157 C8.54877278,11.8332157 8.75678746,11.6211373 8.75678746,11.3608015 C8.75930885,11.1004656 8.54877278,10.890927 8.29033031,10.890927 L7.17839732,10.8883872 C7.17209385,10.8883872 7.16452968,10.8883872 7.1582262,10.890927 C6.81405647,10.8769578 6.53796426,10.5924933 6.53544287,10.2432623 C6.53796426,9.88514181 6.82288133,9.59559757 7.17839732,9.59559757 L11.6210865,9.59559757 C11.8101907,9.59559757 11.9803846,9.47876393 12.0535049,9.30351348 C12.1253645,9.12826302 12.0875436,8.92507408 11.9513886,8.79046141 C11.8202763,8.6583886 11.701771,8.44885001 11.6223472,8.17327501 C11.5441841,7.89643008 11.5000598,7.55862847 11.5025812,7.19923804 C11.5000598,6.42077042 11.6954675,5.53435868 12.0030771,4.88796388 C12.148057,4.58318047 12.3157294,4.33173416 12.4783591,4.17045294 L12.4783591,6.12233667 C12.4770984,6.64173839 12.6762882,7.09129392 12.9359914,7.45703401 C13.3255461,8.00564414 13.8462132,8.42599125 14.23955,8.8272894 C14.4349577,9.02285876 14.5975874,9.21207845 14.7022251,9.38859884 C14.8081235,9.5638493 14.8535085,9.71243121 14.8535085,9.86990264 C14.8535085,9.99435586 14.9039363,10.1162692 14.9921849,10.2026245 C15.0779122,10.2915197 15.2001996,10.341047 15.322487,10.341047 L17.2009226,10.341047 L17.2009226,15.7369832 L16.43442,15.7369832 C16.3323037,15.7369832 16.2364909,15.7700014 16.1558064,15.8284182 L14.7677812,16.8545224 L14.7135713,16.9002399 C14.5055567,17.1224778 14.0403602,17.3243968 13.5184325,17.4386906 C12.9977654,17.5580641 12.4241492,17.6012417 11.9967736,17.6012417 Z" id="path-11"></path>
    </defs>
    <g id="Landing" stroke="none" stroke-width="1" fill="none" fill-rule="evenodd">
        <g transform="translate(-1025.000000, -174.000000)" id="Banner">
            <g transform="translate(0.000000, 134.000000)">
                <g id="Artwork">
                    <g id="Illustration" transform="translate(618.500000, 169.000000) scale(-1, 1) translate(-618.500000, -169.000000) ">
                        <g id="Banner2-Foreground" transform="translate(0.491971, 40.000000)">
                            <g id="Group-16" transform="translate(145.508029, 52.000000)" fill-rule="nonzero">
                                <g id="Group" transform="translate(22.000000, 0.000000)" fill="#FF9800">
                                    <polygon id="Path" points="4.46031466 7.04583039 1.72545506 8.48326513 2.2481586 5.43638352 0.0320022577 3.27889798 3.09355157 2.83620008 4.46031466 0.0626710879 5.82707775 2.83620008 8.88862706 3.27889798 6.67247072 5.43638352 7.19784112 8.48326513"></polygon>
                                </g>
                                <g id="Group" transform="translate(33.000000, 0.000000)" fill="#FF9800">
                                    <polygon id="Path" points="4.51498518 7.04583039 1.78012558 8.48326513 2.30282912 5.43638352 0.0880062086 3.27889798 3.1482221 2.83620008 4.51498518 0.0626710879 5.88574855 2.83620008 8.94329759 3.27889798 6.7298081 5.43638352 7.25251164 8.48326513"></polygon>
                                </g>
                                <g id="Group" transform="translate(44.000000, 0.000000)" fill="#BF360C">
                                    <polygon id="Path" points="4.43764639 7.04583039 1.70278679 8.48326513 2.22415691 5.43638352 0.0120008466 3.27889798 3.06954988 2.83620008 4.43764639 0.0626710879 5.80707634 2.83620008 8.86462537 3.27889798 6.65246931 5.43638352 7.17383942 8.48326513"></polygon>
                                </g>
                                <g id="Group" transform="translate(11.000000, 0.000000)" fill="#FFE0B2">
                                    <polygon id="Path" points="4.53898688 7.04583039 7.27384648 8.48326513 6.75114294 5.43638352 8.963299 3.27889798 5.90574996 2.83620008 4.53898688 0.0626710879 3.17089036 2.83620008 0.110674474 3.27889798 2.32283053 5.43638352 1.80146042 8.48326513"></polygon>
                                </g>
                                <g id="Group" fill="#FFE0B2">
                                    <polygon id="Path" points="4.4816495 7.04583039 7.21784253 8.48326513 6.69647241 5.43638352 8.90862847 3.27889798 5.85107944 2.83620008 4.4816495 0.0626710879 3.11355298 2.83620008 0.0560039509 3.27889798 2.26816001 5.43638352 1.7467899 8.48326513"></polygon>
                                </g>
                            </g>
                            <g id="Group-18" transform="translate(14.508029, 199.000000)" fill-rule="nonzero">
                                <g id="Group" transform="translate(12.000000, 28.000000) scale(-1, 1) rotate(90.000000) translate(-12.000000, -28.000000) translate(0.000000, 16.000000)" fill="#FFBF74">
                                    <path d="M11.6814825,0.126428672 C5.26259348,0.126428672 0.0592634401,5.32975871 0.0592634401,11.7486478 C0.0592634401,18.1649029 5.26259348,23.3682329 11.6814825,23.3682329 C18.0977376,23.3682329 23.3010677,18.1649029 23.3010677,11.7486478 C23.3010677,5.32975871 18.0977376,0.126428672 11.6814825,0.126428672" id="Path"></path>
                                </g>
                                <g id="Group" transform="translate(12.500000, 28.500000) scale(-1, 1) rotate(90.000000) translate(-12.500000, -28.500000) translate(3.000000, 19.000000)" fill="#FB920F">
                                    <path d="M9.1743846,0.0639775774 C14.2324519,0.0639775774 18.3474896,4.1777358 18.3474896,9.23708262 C18.3474896,14.2951499 14.2324519,18.4114672 9.1743846,18.4114672 C4.11631733,18.4114672 0.00127955155,14.2951499 0.00127955155,9.23708262 C0.00127955155,4.1777358 4.11631733,0.0639775774 9.1743846,0.0639775774" id="Path"></path>
                                </g>
                                <g id="Group" transform="translate(13.000000, 27.500000) scale(-1, 1) translate(-13.000000, -27.500000) translate(9.000000, 21.000000)" fill="#FFBF74">
                                    <path d="M3.86811533,5.83837484 C3.33079347,5.83837484 2.82206858,5.67225201 2.44428766,5.36769349 C2.06199144,5.06433875 1.85428719,4.65866199 1.85428719,4.22770566 C1.85428719,3.33930965 2.75734914,2.6146289 3.86811533,2.6146289 C4.97888152,2.6146289 5.88194346,3.33930965 5.88194346,4.22770566 L7.7091388,4.22770566 C7.7091388,2.78556688 6.45990311,1.57575931 4.781713,1.24712502 L4.781713,0.0926917243 L2.95451766,0.0926917243 L2.95451766,1.24712502 C1.27632755,1.57575931 0.0240816519,2.78556688 0.0240816519,4.22770566 C0.0240816519,5.04989329 0.424439114,5.8215218 1.15140398,6.40054413 C1.87535864,6.98197404 2.84163492,7.29977423 3.86811533,7.29977423 C4.97888152,7.29977423 5.88194346,8.02445499 5.88194346,8.91044342 C5.88194346,9.801247 4.97888152,10.5235202 3.86811533,10.5235202 C2.75734914,10.5235202 1.85428719,9.801247 1.85428719,8.91044342 L0.0240816519,8.91044342 C0.0240816519,10.3549898 1.27632755,11.5635936 2.95451766,11.8934316 L2.95451766,12.9575808 L4.781713,12.9575808 L4.781713,11.8934316 C6.45990311,11.5635936 7.7091388,10.3549898 7.7091388,8.91044342 C7.7091388,7.21791661 5.98730069,5.83837484 3.86811533,5.83837484" id="Path"></path>
                                </g>
                                <g id="Group" transform="translate(11.000000, 0.000000)" fill="#FB920F">
                                    <path d="M1.68389657,16.290927 L1.68389657,14.4359673 C1.68389657,14.1655073 1.33036835,13.94782 0.896396571,13.94782 C0.462424797,13.94782 0.108896571,14.1655073 0.108896571,14.4359673 L0.108896571,16.290927 C0.108896571,16.5640257 0.462424797,16.781713 0.896396571,16.781713 C1.33036835,16.781713 1.68389657,16.5640257 1.68389657,16.290927 Z M1.68389657,11.6548469 L1.68389657,9.7985678 C1.68389657,9.52678849 1.33036835,9.30910117 0.896396571,9.30910117 C0.462424797,9.30910117 0.108896571,9.52678849 0.108896571,9.7985678 L0.108896571,11.6548469 C0.108896571,11.9239876 0.462424797,12.1416749 0.896396571,12.1416749 C1.33036835,12.1416749 1.68389657,11.9239876 1.68389657,11.6548469 Z M1.68389657,7.0148088 L1.68389657,5.15984902 C1.68389657,4.88938902 1.33036835,4.66906307 0.896396571,4.66906307 C0.462424797,4.66906307 0.108896571,4.88938902 0.108896571,5.15984902 L0.108896571,7.0148088 C0.108896571,7.2852688 0.462424797,7.50559475 0.896396571,7.50559475 C1.33036835,7.50559475 1.68389657,7.2852688 1.68389657,7.0148088 Z M1.68389657,2.37872866 L1.68389657,0.523768873 C1.68389657,0.250670241 1.33036835,0.0329829265 0.896396571,0.0329829265 C0.462424797,0.0329829265 0.108896571,0.250670241 0.108896571,0.523768873 L0.108896571,2.37872866 C0.108896571,2.64786934 0.462424797,2.86687597 0.896396571,2.86687597 C1.33036835,2.86687597 1.68389657,2.64786934 1.68389657,2.37872866" id="Shape"></path>
                                </g>
                            </g>
                            <g id="Group-4" transform="translate(41.508029, 27.000000)" fill-rule="nonzero">
                                <g id="Group" fill="#B2EBF2">
                                    <path d="M71.7364188,45.6328489 C71.7364188,47.5342176 70.1573774,49.0885832 68.231974,49.0885832 L3.63614129,49.0885832 C1.70415314,49.0885832 0.130379568,47.5342176 0.130379568,45.6328489 L0.130379568,3.55710604 C0.130379568,1.65573734 1.70415314,0.0987724002 3.63614129,0.0987724002 L68.231974,0.0987724002 C70.1573774,0.0987724002 71.7364188,1.65573734 71.7364188,3.55710604 L71.7364188,45.6328489 Z" id="Path"></path>
                                </g>
                                <g id="Group" transform="translate(0.000000, 2.000000)" fill="#00BCD4">
                                    <path d="M68.231974,0.0785240581 L3.63614129,0.0785240581 C1.70810404,0.0785240581 0.130379568,1.85346409 0.130379568,4.022506 L0.130379568,8.55023282 L71.7364188,8.55023282 L71.7364188,4.022506 C71.7364188,1.85346409 70.1573774,0.0785240581 68.231974,0.0785240581" id="Path"></path>
                                </g>
                                <g id="Group" transform="translate(6.000000, 1.000000)" fill="#FFFFFF">
                                    <path d="M3.12910964,2.47424862 C3.12910964,2.80908706 2.85205305,3.08318047 2.51721462,3.08318047 L0.696345421,3.08318047 C0.361506985,3.08318047 0.0874135741,2.80908706 0.0874135741,2.47424862 L0.0874135741,0.653379427 C0.0874135741,0.318540991 0.361506985,0.0444475801 0.696345421,0.0444475801 L2.51721462,0.0444475801 C2.85205305,0.0444475801 3.12910964,0.318540991 3.12910964,0.653379427 L3.12910964,2.47424862 Z" id="Path"></path>
                                </g>
                                <g id="Group" transform="translate(16.000000, 1.000000)" fill="#FFFFFF">
                                    <path d="M0.0444475801,2.47424862 C0.0444475801,2.80908706 0.318540991,3.08318047 0.653379427,3.08318047 L2.46832228,3.08318047 C2.80316072,3.08318047 3.0802173,2.80908706 3.0802173,2.47424862 L3.0802173,0.653379427 C3.0802173,0.318540991 2.80316072,0.0444475801 2.46832228,0.0444475801 L0.653379427,0.0444475801 C0.318540991,0.0444475801 0.0444475801,0.318540991 0.0444475801,0.653379427 L0.0444475801,2.47424862 Z" id="Path"></path>
                                </g>
                                <g id="Group" transform="translate(10.000000, 1.000000)" fill="#FFFFFF">
                                    <path d="M3.17948356,2.47424862 C3.17948356,2.80908706 2.90539015,3.08318047 2.57055171,3.08318047 L0.751164103,3.08318047 C0.411880909,3.08318047 0.139269084,2.80908706 0.139269084,2.47424862 L0.139269084,0.653379427 C0.139269084,0.318540991 0.411880909,0.0444475801 0.751164103,0.0444475801 L2.57055171,0.0444475801 C2.90539015,0.0444475801 3.17948356,0.318540991 3.17948356,0.653379427 L3.17948356,2.47424862 Z" id="Path"></path>
                                </g>
                                <g id="Group" transform="translate(6.000000, 13.000000)" fill="url(#linearGradient-1)">
                                    <path d="M0.0944217111,3.89845257 C0.0944217111,1.75908941 1.84704388,0.0103475848 3.98511359,0.0103475848 L31.0207657,0.0103475848 C33.157542,0.0103475848 34.9062838,1.75908941 34.9062838,3.89845257 L34.9062838,30.9341047 C34.9062838,33.0721744 33.157542,34.8209162 31.0207657,34.8209162 L3.98511359,34.8209162 C1.84704388,34.8209162 0.0944217111,33.0721744 0.0944217111,30.9341047 L0.0944217111,3.89845257 Z" id="Path"></path>
                                </g>
                                <g id="Group" transform="translate(10.000000, 18.000000)" fill="#00BCD4">
                                    <path d="M14.5337757,0.0763839895 L14.5258876,0.0790179201 C14.4101958,1.66332722 13.0928875,2.91444429 11.4837205,2.91444429 C9.86535075,2.91444429 8.54804245,1.66332722 8.4323507,0.0790179201 L8.42840667,0.0763839895 C7.97747179,0.296317201 0.0539018364,4.45397676 0.0539018364,4.45397676 L2.06667529,8.64456046 C2.75688173,8.29688161 4.23983957,7.57386764 4.23983957,8.98960538 L4.23983957,23.4498848 L18.7197134,23.4498848 L18.7197134,8.98960538 C18.7197134,7.57386764 20.2026712,8.29688161 20.891563,8.64456046 L22.9082805,4.45397676 C22.9082805,4.45397676 14.9820812,0.296317201 14.5337757,0.0763839895" id="Path"></path>
                                </g>
                                <g id="Group" transform="translate(18.000000, 18.000000)" fill="#B2EBF2">
                                    <path d="M7.63757584,0.0632143361 L7.62868633,0.0658482668 C7.49830676,1.65015757 6.01375758,2.90127463 4.20029632,2.90127463 C2.37646395,2.90127463 0.891914774,1.65015757 0.761535205,0.0658482668 L0.757090447,0.0632143361 C0.684492733,0.0974554348 0.431141527,0.213348384 0.0518555101,0.387187809 C0.354099055,2.18484549 2.09199944,3.5637082 4.20029632,3.5637082 C6.2982221,3.5637082 8.03612248,2.18484549 8.33984761,0.387187809 C7.96648794,0.213348384 7.7057288,0.0974554348 7.63757584,0.0632143361" id="Path"></path>
                                </g>
                                <g id="Group" transform="translate(18.000000, 18.000000)" fill="#00BCD4">
                                    <path d="M3.84389257,3.26541555 C5.85884954,3.26541555 7.50834862,1.85790885 7.65321481,0.0755608861 L7.4787169,0.0755608861 C6.37740464,0.336320023 5.14439584,0.482997037 3.84389257,0.482997037 C2.53351206,0.482997037 1.30050327,0.336320023 0.200837214,0.0755608861 L0.0230468934,0.0755608861 C0.16791308,1.85790885 1.81741216,3.26541555 3.84389257,3.26541555" id="Path"></path>
                                </g>
                                <g id="Group" transform="translate(57.500000, 30.500000) scale(-1, 1) rotate(90.000000) translate(-57.500000, -30.500000) translate(55.000000, 28.000000)" fill="#E91E63">
                                    <path d="M2.14212643,0.102476365 C1.01488641,0.102476365 0.10371102,1.01365176 0.10371102,2.14212643 C0.10371102,3.26442783 1.01488641,4.17807253 2.14212643,4.17807253 C3.26566248,4.17807253 4.17683787,3.26442783 4.17683787,2.14212643 C4.17683787,1.01365176 3.26566248,0.102476365 2.14212643,0.102476365" id="Path"></path>
                                </g>
                                <g id="Group" transform="translate(53.500000, 30.500000) scale(-1, 1) rotate(90.000000) translate(-53.500000, -30.500000) translate(51.000000, 28.000000)" fill="#E91E63">
                                    <path d="M2.0495273,0.102476365 C0.922287287,0.102476365 0.011111895,1.01612107 0.011111895,2.13718781 C0.011111895,3.26689714 0.922287287,4.17807253 2.0495273,4.17807253 C3.17306336,4.17807253 4.08423875,3.26689714 4.08423875,2.13718781 C4.08423875,1.01612107 3.17306336,0.102476365 2.0495273,0.102476365" id="Path"></path>
                                </g>
                                <g id="Group" transform="translate(66.500000, 28.500000) scale(-1, 1) rotate(-90.000000) translate(-66.500000, -28.500000) translate(64.000000, 26.000000)" fill="#F8BBD0">
                                    <path d="M2.1100254,0.10618033 C3.23603076,0.10618033 4.14720615,1.01735572 4.14720615,2.13842246 C4.14720615,3.26319317 3.23603076,4.17436856 2.1100254,4.17436856 C0.985254692,4.17436856 0.0740793001,3.26319317 0.0740793001,2.13842246 C0.0740793001,1.01735572 0.985254692,0.10618033 2.1100254,0.10618033" id="Path"></path>
                                </g>
                                <g id="Group" transform="translate(47.500000, 30.500000) scale(-1, 1) rotate(90.000000) translate(-47.500000, -30.500000) translate(45.000000, 28.000000)" fill="#AD1457">
                                    <path d="M2.07668971,0.10371102 C0.949449697,0.10371102 0.0382743051,1.01488641 0.0382743051,2.14089177 C0.0382743051,3.26566248 0.949449697,4.17683787 2.07668971,4.17683787 C3.20022577,4.17683787 4.11140116,3.26566248 4.11140116,2.14089177 C4.11140116,1.01488641 3.20022577,0.10371102 2.07668971,0.10371102" id="Path"></path>
                                </g>
                                <g id="Group" transform="translate(45.000000, 16.000000)" fill="#FF9800">
                                    <path d="M20.3849302,0.0790179201 L3.29674051,0.0790179201 C1.54296599,0.0790179201 0.119373501,1.85059969 0.119373501,4.03781572 C0.119373501,6.22345139 1.54296599,7.99503316 3.29674051,7.99503316 L20.3849302,7.99503316 C22.1437844,7.99503316 23.566107,6.22345139 23.566107,4.03781572 C23.566107,1.85059969 22.1437844,0.0790179201 20.3849302,0.0790179201" id="Path"></path>
                                </g>
                                <g id="Group" transform="translate(52.000000, 20.000000)" fill="#FFFFFF">
                                    <path d="M12.2651616,0.191618456 L0.802525751,0.191618456 C0.40575702,0.191618456 0.0873148017,0.815517827 0.0873148017,1.59036059 C0.0873148017,2.36520336 0.40575702,2.99161846 0.802525751,2.99161846 L12.2651616,2.99161846 C12.6619303,2.99161846 12.9803725,2.36520336 12.9803725,1.59036059 C12.9803725,0.815517827 12.6619303,0.191618456 12.2651616,0.191618456" id="Path"></path>
                                </g>
                                <g id="Group" transform="translate(45.000000, 20.000000)" fill="#FFFFFF">
                                    <path d="M6.30826396,0.191618456 L0.954799868,0.191618456 C0.446122007,0.191618456 0.0378627534,0.815517827 0.0378627534,1.59036059 C0.0378627534,2.36520336 0.446122007,2.99161846 0.954799868,2.99161846 L6.30826396,2.99161846 C6.81364941,2.99161846 7.22520107,2.36520336 7.22520107,1.59036059 C7.22520107,0.815517827 6.81364941,0.191618456 6.30826396,0.191618456" id="Path"></path>
                                </g>
                            </g>
                            <g id="Group-3" transform="translate(21.508029, 58.000000)">
                                <g id="Group" transform="translate(0.000000, 1.000000)" fill="#FFE0B2" fill-rule="nonzero">
                                    <path d="M49.3368139,40.6372597 C49.3368139,42.3323907 47.9591988,43.7207463 46.2813677,43.7207463 L3.05804549,43.7207463 C1.38021433,43.7207463 0.00519854738,42.3323907 0.00519854738,40.6372597 L0.00519854738,3.13592687 C0.00519854738,1.44079583 1.38021433,0.0537512549 3.05804549,0.0537512549 L46.2813677,0.0537512549 C47.9591988,0.0537512549 49.3368139,1.44079583 49.3368139,3.13592687 L49.3368139,40.6372597 Z" id="Path"></path>
                                </g>
                                <g id="Group" fill="#FF9800" fill-rule="nonzero">
                                    <path d="M46.2813677,0.145995014 L3.06324404,0.145995014 C1.38021433,0.145995014 0.00519854738,1.73839424 0.00519854738,3.68449273 L0.00519854738,7.74977659 L49.3368139,7.74977659 L49.3368139,3.68449273 C49.3368139,1.73839424 47.9591988,0.145995014 46.2813677,0.145995014" id="Path"></path>
                                </g>
                                <g id="Group" transform="translate(3.000000, 2.000000)" fill="#FFFFFF" fill-rule="nonzero">
                                    <path d="M3.74742486,2.97502469 C3.74742486,3.36813885 3.42542684,3.69211232 3.03428813,3.69211232 L0.885000706,3.69211232 C0.489911105,3.69211232 0.16791308,3.36813885 0.16791308,2.97502469 L0.16791308,0.831663609 C0.16791308,0.434598561 0.489911105,0.112600536 0.885000706,0.112600536 L3.03428813,0.112600536 C3.42542684,0.112600536 3.74742486,0.434598561 3.74742486,0.831663609 L3.74742486,2.97502469 Z" id="Path"></path>
                                </g>
                                <g id="Group" transform="translate(11.000000, 2.000000)" fill="#FFFFFF" fill-rule="nonzero">
                                    <path d="M0.134330464,2.97502469 C0.134330464,3.36813885 0.458303937,3.69211232 0.855368985,3.69211232 L2.99477917,3.69211232 C3.39184422,3.69211232 3.71384225,3.36813885 3.71384225,2.97502469 L3.71384225,0.831663609 C3.71384225,0.434598561 3.39184422,0.112600536 2.99477917,0.112600536 L0.855368985,0.112600536 C0.458303937,0.112600536 0.134330464,0.434598561 0.134330464,0.831663609 L0.134330464,2.97502469 Z" id="Path"></path>
                                </g>
                                <g id="Group" transform="translate(7.000000, 2.000000)" fill="#FFFFFF" fill-rule="nonzero">
                                    <path d="M3.63087343,2.97502469 C3.63087343,3.36813885 3.30689996,3.69211232 2.9137858,3.69211232 L0.770424721,3.69211232 C0.373359673,3.69211232 0.0513616481,3.36813885 0.0513616481,2.97502469 L0.0513616481,0.831663609 C0.0513616481,0.434598561 0.373359673,0.112600536 0.770424721,0.112600536 L2.9137858,0.112600536 C3.30689996,0.112600536 3.63087343,0.434598561 3.63087343,0.831663609 L3.63087343,2.97502469 Z" id="Path"></path>
                                </g>
                                <g id="Group" transform="translate(24.000000, 23.000000) scale(-1, 1) rotate(90.000000) translate(-24.000000, -23.000000) translate(15.000000, 14.000000)" fill="#FF9800" fill-rule="nonzero">
                                    <path d="M9.01738218,0.0364311415 C4.10862318,0.0364311415 0.129532948,4.01282277 0.129532948,8.92158177 C0.129532948,13.8330394 4.10862318,17.8121296 9.01738218,17.8121296 C13.9274905,17.8121296 17.9052314,13.8330394 17.9052314,8.92158177 C17.9052314,4.01282277 13.9274905,0.0364311415 9.01738218,0.0364311415" id="Path"></path>
                                </g>
                                <g id="Group" transform="translate(19.000000, 16.000000)" fill="#BF360C" fill-rule="nonzero">
                                    <path d="M0.336418795,6.66701355 L3.54010159,10.0568823 C3.71729928,10.2429448 3.96511923,10.3529526 4.21293918,10.3529526 C4.46461126,10.3529526 4.71371525,10.2429448 4.8896289,10.0568823 L12.6734867,1.82531396 C13.0458586,1.43010089 13.0458586,0.794500494 12.6734867,0.399287428 C12.2959786,0.00679060251 11.6963313,0.00679060251 11.3252434,0.399287428 L4.21293918,7.91784253 L1.6859461,5.24098702 C1.31485819,4.84713207 0.708790744,4.84713207 0.336418795,5.24098702 C-0.0346691125,5.63484196 -0.0346691125,6.27180048 0.336418795,6.66701355" id="Path"></path>
                                </g>
                                <g id="Group" transform="translate(21.000000, 35.000000)" fill="#BF360C">
                                    <rect id="Rectangle" x="0" y="0" width="8" height="4"></rect>
                                </g>
                                <g id="Group" transform="translate(30.000000, 35.000000)" fill="#BF360C">
                                    <rect id="Rectangle" x="0" y="0" width="8" height="4"></rect>
                                </g>
                                <g id="Group" transform="translate(15.000000, 35.000000)" fill="#BF360C">
                                    <rect id="Rectangle" x="0" y="0" width="8" height="4"></rect>
                                </g>
                            </g>
                            <g id="Group-22" transform="translate(131.508029, 140.000000)">
                                <g id="Group" transform="translate(40.000000, 152.500000) scale(-1, 1) rotate(90.000000) translate(-40.000000, -152.500000) translate(35.000000, 113.000000)" fill="#B2EBF2" fill-rule="nonzero">
                                    <path d="M5.0277621,0.104040262 C2.32102794,0.104040262 0.127663327,17.70115 0.127663327,39.4130521 C0.127663327,61.1236536 2.32102794,78.7220639 5.0277621,78.7220639 C7.73313814,78.7220639 9.92786087,61.1236536 9.92786087,39.4130521 C9.92786087,17.70115 7.73313814,0.104040262 5.0277621,0.104040262" id="Path"></path>
                                </g>
                                <g id="Group" transform="translate(18.000000, 147.000000) scale(-1, 1) rotate(-90.000000) translate(-18.000000, -147.000000) translate(16.000000, 145.000000)" fill="#FFF3E0" fill-rule="nonzero">
                                    <path d="M1.94581628,0.0469168901 L3.93114153,0.0469168901 L3.93114153,3.44592211 C2.08014675,3.49036969 1.0864964,3.70519966 0.312120785,3.83607309 C-0.22717652,2.95082546 1.17539156,1.65814167 1.94581628,0.0469168901" id="Path"></path>
                                </g>
                                <g id="Group" transform="translate(16.000000, 67.000000)" fill="#AD1457">
                                    <path d="M25.1299704,0.0325125817 C26.0198109,14.1715841 17.9239311,29.6202625 13.1896712,43.2300292 C12.6105686,56.8528009 4.9114576,72.8841047 3.55936221,78.3033018 L0.0242441312,78.3033018 C0.00642020601,71.5315813 1.57166643,40.3182023 7.10459997,0.0325125817 L25.1299704,0.0325125817 Z" id="Path"></path>
                                </g>
                                <g id="Group" transform="translate(59.000000, 142.678563) scale(-1, 1) rotate(-90.000000) translate(-59.000000, -142.678563) translate(57.000000, 140.678563)" fill="#FFF3E0" fill-rule="nonzero">
                                    <path d="M1.94581628,0.0469168901 L3.93114153,0.0469168901 L3.93114153,3.44592211 C2.08014675,3.49036969 1.0864964,3.70519966 0.312120785,3.83607309 C-0.22717652,2.95082546 1.17539156,1.65814167 1.94581628,0.0469168901" id="Path"></path>
                                </g>
                                <g id="Group" transform="translate(9.000000, 146.000000)" fill="#AD1457" fill-rule="nonzero">
                                    <path d="M11.6755013,0.00987724002 C10.1627403,0.650251634 8.94905382,1.81905837 8.11790465,1.36964395 C7.67856639,1.81905837 1.20904963,5.12628757 0.549462631,5.76501576 C-0.125194017,6.42185222 -0.025502485,7.43920794 0.688567095,7.43920794 C1.73069137,7.43920794 10.3227104,6.90089836 10.3227104,6.90089836 C10.4977502,7.16923005 10.6391731,7.43920794 10.6391731,7.43920794 L12.6028644,7.43920794 C13.1894216,5.99548469 13.0294514,1.66760736 11.6755013,0.00987724002" id="Path"></path>
                                </g>
                                <g id="Group" transform="translate(33.000000, 65.000000)" fill="#AD1457">
                                    <path d="M18.1413007,0.0845327125 C21.3196046,13.8932764 19.4469542,29.1299727 18.8526478,38.4350736 C25.3366998,51.6767979 26.3432494,71.1882484 27.9076927,76.5528244 C26.9427576,77.1198438 24.8230214,78.3670265 24.8230214,78.3670265 C21.3729231,72.5407718 1.11318662,43.7008113 0.12484336,3.03667513 C3.81292428,2.43454212 18.1413007,0.0845327125 18.1413007,0.0845327125" id="Path"></path>
                                </g>
                                <g id="Group" transform="translate(49.000000, 143.000000)" fill="#AD1457" fill-rule="nonzero">
                                    <path d="M9.76266403,0.00814872301 C8.69213584,1.36355298 8.06756503,2.9145266 7.19639246,3.08564978 C7.08691971,3.38307817 5.89424298,5.13776986 4.71078501,6.90061027 C2.85896712,7.74264498 0.864258501,8.6512276 0.513945722,8.93235854 C-0.154414186,9.47424862 -0.0564648888,10.312209 0.651074738,10.312209 L5.00232821,10.312209 C7.41994732,8.4855369 11.0475283,5.71089671 11.0475283,5.71089671 C11.2941301,5.79781642 11.5096186,5.90510794 11.5096186,5.90510794 L13.1920418,4.73712431 C13.1816707,3.36406448 11.5107709,0.382989982 9.76266403,0.00814872301" id="Path"></path>
                                </g>
                                <g id="Clipped" transform="translate(15.000000, 21.000000)">
                                    <mask id="mask-3" fill="white">
                                        <use xlink:href="#path-2"></use>
                                    </mask>
                                    <g id="Path"></g>
                                    <g id="Group" mask="url(#mask-3)">
                                        <g transform="translate(-157785.021393, -593.784580)">
                                            <g transform="translate(78898.343512, 618.106791) scale(-1, 1) translate(-78898.343512, -618.106791) translate(0.843512, 0.106791)">
                                                <rect id="Rectangle" fill="#E91E63" x="0.0119408494" y="0" width="157794.801" height="1235.24176"></rect>
                                            </g>
                                            <g transform="translate(157820.262878, 0.106791)">
                                                <rect id="Rectangle" fill="#F8BBD0" x="0.0610198956" y="0" width="157794.801" height="1235.24176"></rect>
                                            </g>
                                            <g transform="translate(157774.934306, 580.571907)">
                                                <rect id="Rectangle" stroke="#979797" fill="url(#linearGradient-4)" x="0" y="0" width="69.0857143" height="85.9534884"></rect>
                                            </g>
                                        </g>
                                    </g>
                                </g>
                                <g id="Group" transform="translate(9.000000, 63.000000)" fill="#FFF3E0" fill-rule="nonzero">
                                    <path d="M0.143713842,5.30842387 C-0.001481586,3.37880626 -0.12593481,1.98967123 1.46232538,1.70678707 C3.20615211,1.39703683 4.78552279,0.608437985 5.9485678,0.180160858 C7.11457598,-0.249696628 10.2910964,1.94700155 8.14131508,3.761253 C5.89819388,5.65452236 3.5987724,5.49490617 2.61499929,5.30842387 C2.90539015,5.93266544 3.55432482,7.55253281 1.92013546,7.69792578 C0.28890927,7.84015804 0.25186962,6.80344292 0.143713842,5.30842387" id="Path"></path>
                                </g>
                                <g id="Group" transform="translate(31.000000, 5.000000)" fill="#FFF3E0" fill-rule="nonzero">
                                    <path d="M10.9415396,10.3047736 C10.7734469,11.5454647 10.7902562,15.1033289 11.0204138,16.7532395 C10.3674385,18.5295651 7.82665315,19.7090036 3.67735033,19.6360217 C4.68461331,18.6299151 5.65049963,16.5655719 4.84236181,14.9886431 C4.03551702,13.4104111 2.44639481,15.483877 1.29302051,12.9516682 C-0.0543068615,10.0024203 -0.390492194,4.21470063 1.00726298,2.6234361 C2.5718178,0.841897528 5.67506702,-1.31758266 9.79204433,1.19768394 C13.1513116,3.25029789 11.28419,7.78429401 10.9415396,10.3047736" id="Path"></path>
                                </g>
                                <g id="Group" transform="translate(29.000000, 0.000000)" fill="#FF9800" fill-rule="nonzero">
                                    <path d="M10.7880556,9.77115229 C9.82495414,9.77115229 10.3513616,7.47793495 9.65212361,6.92058082 C8.82755044,6.26331223 6.04247213,5.85041273 3.33127557,6.08755909 C0.620079018,6.32590924 -1.01851277,3.0804951 0.732220968,1.76355034 C2.48559334,0.450216947 4.03315225,2.31368174 5.32608297,1.9368959 C6.83802032,1.49871684 6.59790461,-0.176956928 8.82755044,0.0264833498 C10.889643,0.214274376 9.92786087,1.95374894 11.2326654,2.28117945 C12.5810075,2.61944405 14.592966,1.00997866 16.2130873,2.9637276 C17.4149852,4.41188532 15.5613447,5.22685022 15.7328559,6.82548152 C15.8384013,7.82342229 18.5139763,10.8003916 15.5613447,12.0089953 C12.6073938,13.2175991 13.3277409,10.4910179 13.5005715,9.36547552 C13.6707634,8.23632179 13.1206082,7.48395389 12.5058064,7.4514516 C11.8870467,7.42135689 12.158826,9.77115229 10.7880556,9.77115229" id="Path"></path>
                                </g>
                            </g>
                            <g id="Group-21" transform="translate(48.508029, 206.000000)">
                                <g id="Clipped" transform="translate(24.000000, 27.000000)">
                                    <mask id="mask-6" fill="white">
                                        <use xlink:href="#path-5"></use>
                                    </mask>
                                    <g id="Path"></g>
                                    <g id="Group" mask="url(#mask-6)">
                                        <g transform="translate(-82252.906717, -147960.031780)">
                                            <g transform="translate(123108.512604, 221859.891853) scale(-1, 1) rotate(118.970104) translate(-123108.512604, -221859.891853) translate(38790.012604, 221199.391853)">
                                                <rect id="Rectangle" fill="#E91E63" x="0.342855974" y="0.858930198" width="168636.404" height="1319.39866"></rect>
                                            </g>
                                            <g transform="translate(41418.732433, 74088.691293) rotate(-118.970104) translate(-41418.732433, -74088.691293) translate(-42900.267567, 73428.191293)">
                                                <rect id="Rectangle" fill="#F8BBD0" x="0.826199408" y="0.860091148" width="168636.404" height="1319.39866"></rect>
                                            </g>
                                        </g>
                                    </g>
                                </g>
                                <g id="Group" transform="translate(29.000000, 5.000000)" fill="url(#linearGradient-7)">
                                    <rect id="Rectangle" x="0" y="0" width="24" height="28"></rect>
                                </g>
                                <g id="Clipped" transform="translate(38.000000, 33.000000)">
                                    <mask id="mask-9" fill="white">
                                        <use xlink:href="#path-8"></use>
                                    </mask>
                                    <g id="Path"></g>
                                    <g id="Group" mask="url(#mask-9)">
                                        <g transform="translate(-56570.085129, -149637.171249)">
                                            <g transform="translate(28578.026132, 75697.913032) scale(-1, 1) rotate(-69.648337) translate(-28578.026132, -75697.913032) translate(-51930.473868, 75080.913032)">
                                                <rect id="Rectangle" fill="#00BCD4" x="0.269131316" y="0.845518485" width="161016.431" height="1232.25076"></rect>
                                            </g>
                                            <g transform="translate(84582.966541, 223599.395867) rotate(69.648337) translate(-84582.966541, -223599.395867) translate(4073.966541, 222982.395867)">
                                                <rect id="Rectangle" fill="#B2EBF2" x="0.800449338" y="0.84550745" width="161016.431" height="1232.25076"></rect>
                                            </g>
                                            <g transform="translate(56576.808821, 149647.294277) rotate(69.648309) translate(-56576.808821, -149647.294277) translate(56539.308821, 149610.794277)">
                                                <rect id="Rectangle" stroke="#979797" fill="url(#linearGradient-10)" x="0.841016204" y="0.152055428" width="74.0526316" height="72"></rect>
                                            </g>
                                        </g>
                                    </g>
                                </g>
                                <g id="Group" transform="translate(43.000000, 0.000000)" fill="#BF360C" fill-rule="nonzero">
                                    <path d="M5.45323107,4.57365599 L5.85823221,4.99294483 C6.48001819,4.52476365 6.90350485,3.84471568 6.97576647,3.06688303 C6.98080797,2.98984055 6.98416898,2.91576125 6.98416898,2.83871878 C6.98416898,1.38083815 5.71370898,0.145195428 4.03488684,0.026668548 C3.94750071,0.020742204 3.86347557,0.017779032 3.77608944,0.017779032 C2.11911383,0.017779032 0.722616136,1.13785805 0.586495422,2.61796247 L0.0873861374,8.09094116 C0.070581111,8.31466065 0.20334082,8.52356427 0.425167168,8.62579371 C0.652035025,8.72654155 0.924276453,8.69987301 1.11417325,8.55319599 L5.85823221,4.99294483 L5.45323107,4.57365599 L5.04991044,4.15584874 L1.45195428,6.85678002 L1.83006738,2.70537604 C1.9107315,1.80012699 2.76778785,1.11711585 3.77608944,1.11711585 L3.93573719,1.1215606 C4.9591633,1.19415832 5.73723602,1.95273035 5.73723602,2.83871878 L5.73219451,2.97946945 C5.68682094,3.45505856 5.42970404,3.86842105 5.04991044,4.15584874 L5.45323107,4.57365599 Z" id="Path"></path>
                                </g>
                                <g id="Group" transform="translate(44.000000, 0.000000)" fill="#BF360C" fill-rule="nonzero">
                                    <path d="M1.0124171,3.88560745 L1.35935516,3.56558487 C1.14452519,3.29223226 1.01612107,2.94020742 1.01612107,2.56151404 L1.02105969,2.43483844 C1.08032313,1.62278115 1.71246649,1.00540426 2.45325949,1.00540426 L2.5680824,1.0120714 C3.3199873,1.07474249 3.89163257,1.75745732 3.89163257,2.55751376 L3.8879286,2.68418936 L3.61013123,6.41911951 L1.35935516,3.56558487 L1.0124171,3.88560745 L0.661775081,4.20696345 L3.62988571,7.97122901 C3.74964724,8.12457316 3.94348808,8.18191054 4.12004374,8.12190631 C4.29536475,8.05923522 4.42253422,7.88988994 4.43488077,7.6885424 L4.8015733,2.76286158 C4.80527727,2.69352335 4.80774658,2.62418513 4.80774658,2.55751376 C4.80774658,1.24275434 3.8743474,0.130675885 2.64092705,0.0226682658 C2.57672499,0.0186679836 2.51499224,0.0160011288 2.45325949,0.0160011288 C1.23588966,0.0160011288 0.20742204,1.02407224 0.107414985,2.35616622 C0.102476365,2.42550444 0.100007055,2.49217581 0.100007055,2.56151404 C0.100007055,3.18422464 0.311133061,3.7615987 0.661775081,4.20696345 L1.0124171,3.88560745 Z" id="Path"></path>
                                </g>
                                <g id="Group" transform="translate(42.000000, 5.000000)" fill="#BF360C" fill-rule="nonzero">
                                    <path d="M2.44758008,0.55125101 L0.0725977141,26.3776184 C0.0488923381,26.6390763 0.271130238,26.8709108 0.574855369,26.8915183 C0.8785805,26.9147018 1.14230281,26.7176424 1.16897136,26.4536086 L3.54395372,0.62724122 C3.56914068,0.365783381 3.34542119,0.133948844 3.04169606,0.113341329 C2.73797093,0.0927338148 2.47276704,0.289793171 2.44758008,0.55125101" id="Path"></path>
                                </g>
                                <g id="Group" transform="translate(16.000000, 81.000000) scale(-1, 1) rotate(90.000000) translate(-16.000000, -81.000000) translate(10.000000, 75.000000)" fill="#AD1457" fill-rule="nonzero">
                                    <path d="M5.65813461,0.101594469 C2.57101736,0.101594469 0.0677296458,2.60488218 0.0677296458,5.69199944 C0.0677296458,8.77911669 2.57101736,11.2824044 5.65813461,11.2824044 C8.74525187,11.2824044 11.2485396,8.77911669 11.2485396,5.69199944 C11.2485396,2.60488218 8.74525187,0.101594469 5.65813461,0.101594469" id="Path"></path>
                                </g>
                                <g id="Group" transform="translate(14.500000, 80.500000) scale(-1, 1) rotate(90.000000) translate(-14.500000, -80.500000) translate(10.000000, 76.000000)" fill="#F8BBD0" fill-rule="nonzero">
                                    <path d="M4.11436433,0.0592634401 C1.85494568,0.0592634401 0.02222379,1.89346691 0.02222379,4.15140398 C0.02222379,6.41082263 1.85494568,8.24354452 4.11436433,8.24354452 C6.37526457,8.24354452 8.20650487,6.41082263 8.20650487,4.15140398 C8.20650487,1.89346691 6.37526457,0.0592634401 4.11436433,0.0592634401" id="Path"></path>
                                </g>
                                <g id="Group" transform="translate(5.000000, 74.000000)" fill="#FFE0B2">
                                    <rect id="Rectangle" x="0.0252766335" y="0.0395089601" width="70.0255871" height="7.82260947"></rect>
                                </g>
                                <g id="Group" transform="translate(5.000000, 74.000000)" fill="#B2EBF2" fill-rule="nonzero">
                                    <path d="M0.0573373783,0.0533370961 C0.565373219,0.961549316 5.72573727,10.1399746 8.06056865,8.47763511 C10.2540567,6.91900663 6.99916043,0.0533370961 6.99916043,0.0533370961 L0.0573373783,0.0533370961 Z" id="Path"></path>
                                </g>
                                <g id="Group" transform="translate(5.000000, 57.000000)" fill="#BF360C" fill-rule="nonzero">
                                    <path d="M1.08624422,18.643066 C0.503996096,18.643066 0.0331576379,18.1849866 0.0331576379,17.6232635 C0.0331576379,17.0615403 0.503996096,16.6047404 1.08624422,16.6047404 L68.7026257,16.6047404 L68.7026257,12.4551548 C68.5739741,11.4161589 63.5008555,4.99536924 62.4358321,4.5449671 C60.9397595,4.41701194 40.1008473,2.84444309 31.1257378,2.16883987 L30.592563,2.13045333 C30.0142938,2.08694857 29.5779393,1.59432123 29.6230337,1.03387765 C29.6654755,0.500304655 30.1164193,0.0946868145 30.670815,0.0946868145 L30.7596775,0.0985254692 C31.0647278,0.121557397 61.4119243,2.40427736 62.7355772,2.53223251 C64.2621548,2.67938094 70.8127778,10.2671216 70.8127778,12.4551548 L70.8127778,17.6232635 C70.8127778,18.1849866 70.3392867,18.643066 69.7557123,18.643066 L1.08624422,18.643066 Z" id="Path"></path>
                                </g>
                                <g id="Group" transform="translate(11.500000, 82.500000) scale(-1, 1) rotate(90.000000) translate(-11.500000, -82.500000) translate(10.000000, 81.000000)" fill="#AD1457" fill-rule="nonzero">
                                    <path d="M1.40100353,0.0533370961 C0.628793001,0.0533370961 0.00395089601,0.679497434 0.00395089601,1.4533371 C0.00395089601,2.22717676 0.628793001,2.8533371 1.40100353,2.8533371 C2.17321405,2.8533371 2.8039509,2.22717676 2.8039509,1.4533371 C2.8039509,0.679497434 2.17321405,0.0533370961 1.40100353,0.0533370961" id="Path"></path>
                                </g>
                                <g id="Group" transform="translate(74.000000, 81.000000) scale(-1, 1) rotate(90.000000) translate(-74.000000, -81.000000) translate(68.000000, 75.000000)" fill="#AD1457" fill-rule="nonzero">
                                    <path d="M5.7177367,0.101594469 C2.63061944,0.101594469 0.127331734,2.60488218 0.127331734,5.69199944 C0.127331734,8.77911669 2.63061944,11.2824044 5.7177367,11.2824044 C8.80485396,11.2824044 11.3081417,8.77911669 11.3081417,5.69199944 C11.3081417,2.60488218 8.80485396,0.101594469 5.7177367,0.101594469" id="Path"></path>
                                </g>
                                <g id="Group" transform="translate(74.500000, 80.500000) scale(-1, 1) rotate(90.000000) translate(-74.500000, -80.500000) translate(70.000000, 76.000000)" fill="#F8BBD0" fill-rule="nonzero">
                                    <path d="M4.17955411,0.0592634401 C1.92161705,0.0592634401 0.0874135741,1.89346691 0.0874135741,4.15140398 C0.0874135741,6.41082263 1.92161705,8.24354452 4.17955411,8.24354452 C6.44193594,8.24354452 8.27169465,6.41082263 8.27169465,4.15140398 C8.27169465,1.89346691 6.44193594,0.0592634401 4.17955411,0.0592634401" id="Path"></path>
                                </g>
                                <g id="Group" transform="translate(66.000000, 74.000000)" fill="#B2EBF2" fill-rule="nonzero">
                                    <path d="M0.116008184,0.0533370961 C0.626710879,0.961549316 5.78440807,10.1399746 8.12190631,8.47763511 C10.3127275,6.91900663 7.05916467,0.0533370961 7.05916467,0.0533370961 L0.116008184,0.0533370961 Z" id="Path"></path>
                                </g>
                                <g id="Group" transform="translate(73.500000, 82.500000) scale(-1, 1) rotate(90.000000) translate(-73.500000, -82.500000) translate(72.000000, 81.000000)" fill="#AD1457" fill-rule="nonzero">
                                    <path d="M1.48792324,0.0533370961 C0.715712713,0.0533370961 0.0908706082,0.679497434 0.0908706082,1.4533371 C0.0908706082,2.22717676 0.715712713,2.8533371 1.48792324,2.8533371 C2.26308113,2.8533371 2.89087061,2.22717676 2.89087061,1.4533371 C2.89087061,0.679497434 2.26308113,0.0533370961 1.48792324,0.0533370961" id="Path"></path>
                                </g>
                                <g id="Group" transform="translate(0.000000, 4.000000)" fill="#FF9800" fill-rule="nonzero">
                                    <path d="M6.43711352,47.1046564 L67.5983781,51.8009877 C69.5133426,46.7459644 80.5728301,17.5212361 83.7586467,8.98463384 L2.29314652,21.2068294 L6.43711352,47.1046564 Z M68.313316,53.9798081 L68.2317997,53.9771412 L5.43887316,49.1568012 C4.94710281,49.1221321 4.54620307,48.7527727 4.47003212,48.2660717 L0.025390317,20.4841118 C-0.0200449871,20.2054254 0.0494443015,19.9187385 0.215149528,19.6907224 C0.382191087,19.4613729 0.634757925,19.3106956 0.915387744,19.2666925 L84.5991999,6.71247354 C85.7243918,3.59892056 87.0620606,1.96147171 89.8549955,0.250684352 C90.3547838,-0.0546705235 91.0095867,0.100007055 91.3169432,0.601375758 C91.6242997,1.10141103 91.4679488,1.75212361 90.9668241,2.05881191 C88.534699,3.54825032 87.5484856,4.77500353 86.5676176,7.5231974 C86.528864,7.63387188 86.4714017,7.79388317 86.3938944,8.00056441 L86.3698404,8.06723578 C84.2677894,13.7809722 69.940969,51.620975 69.3075474,53.2957598 C69.1511965,53.7091223 68.7529694,53.9798081 68.313316,53.9798081" id="Shape"></path>
                                </g>
                                <g id="Group" transform="translate(9.000000, 20.000000)" fill="#FF9800" fill-rule="nonzero">
                                    <path d="M3.37307747,32.7901804 C3.03972062,32.7901804 2.75328065,32.5021652 2.71994497,32.1186132 L0.00617327501,0.882310009 C-0.028397065,0.470659002 0.233349795,0.108181323 0.593869056,0.0674377077 C0.958092282,0.0323139016 1.27539862,0.327353873 1.30996896,0.733385071 L4.02497531,31.9724982 C4.06201496,32.3813393 3.79779879,32.7466269 3.43727953,32.7873705 L3.37307747,32.7901804 Z" id="Path"></path>
                                </g>
                                <g id="Group" transform="translate(15.000000, 23.000000)" fill="#FF9800" fill-rule="nonzero">
                                    <path d="M1.53499155,32.720257 C0.757213773,32.720257 0.132355016,32.4061848 0.132355016,32.0208525 L0.132355016,0.754829079 C0.132355016,0.365537858 0.757213773,0.0527852503 1.53499155,0.0527852503 C2.30749626,0.0527852503 2.93235502,0.365537858 2.93235502,0.754829079 L2.93235502,32.0208525 C2.93235502,32.4061848 2.30749626,32.720257 1.53499155,32.720257" id="Path"></path>
                                </g>
                                <g id="Group" transform="translate(25.000000, 18.000000)" fill="#FF9800" fill-rule="nonzero">
                                    <path d="M0.741451484,33.9042342 L0.691406801,33.9042342 C0.305535958,33.8758181 0.0171205494,33.5516167 0.0408259254,33.1731665 L2.29020272,0.693610185 C2.31654203,0.317743213 2.65631908,0.0464990068 3.0356051,0.0553209924 C3.42015898,0.081373262 3.71120832,0.408157949 3.68486901,0.786608199 L1.43680918,33.2661645 C1.41046987,33.6278234 1.10493392,33.9042342 0.741451484,33.9042342" id="Path"></path>
                                </g>
                                <g id="Group" transform="translate(29.000000, 19.000000)" fill="#FF9800" fill-rule="nonzero">
                                    <path d="M0.930106768,37.1756032 L0.808287475,37.1689008 C0.332533747,37.116622 -0.00164620667,36.7573727 0.0609096468,36.3672922 L6.06462537,0.717158177 C6.13047364,0.327077748 6.57001082,0.0576407507 7.04576455,0.108579088 C7.52481069,0.163538874 7.85899064,0.521447721 7.79478858,0.910187668 L1.79271906,36.5603217 C1.73345562,36.9155496 1.3581205,37.1756032 0.930106768,37.1756032" id="Path"></path>
                                </g>
                                <g id="Group" transform="translate(39.000000, 18.000000)" fill="#FF9800" fill-rule="nonzero">
                                    <path d="M0.814131508,37.6380171 C0.770054325,37.6380171 0.723384366,37.6328655 0.676714407,37.625138 C0.30594751,37.549151 0.0635229999,37.1911108 0.138713489,36.8201913 L7.41404155,0.674867266 C7.49052843,0.303947853 7.85481339,0.059244073 8.2242839,0.137806865 C8.59634718,0.211217999 8.83877169,0.57312201 8.76487759,0.942753509 L1.48695675,37.0893655 C1.42213736,37.4126321 1.13563567,37.6380171 0.814131508,37.6380171" id="Path"></path>
                                </g>
                                <g id="Group" transform="translate(46.000000, 15.000000)" fill="#FF9800" fill-rule="nonzero">
                                    <path d="M0.849329759,41.3696237 C0.793791449,41.3696237 0.73825314,41.3615213 0.681360237,41.3493677 C0.295301256,41.2575402 0.0568929025,40.8713247 0.149005221,40.4864596 L9.6758572,0.672501146 C9.76526034,0.286285629 10.1553831,0.0513153485 10.5387329,0.14179241 C10.9261465,0.233619876 11.1645548,0.619835394 11.0724425,1.00470051 L1.5482997,40.8186589 C1.46837872,41.1481575 1.17307747,41.3696237 0.849329759,41.3696237" id="Path"></path>
                                </g>
                                <g id="Group" transform="translate(53.000000, 13.000000)" fill="#FF9800" fill-rule="nonzero">
                                    <path d="M0.645230704,43.4612142 C0.583837484,43.4612142 0.523648053,43.4544236 0.463458621,43.4326937 C0.126397806,43.3199697 -0.0662083745,42.917966 0.0325022929,42.5376923 L11.0363341,0.550038803 C11.1386562,0.167048822 11.49257,-0.0529666996 11.8296308,0.0624735431 C12.1690992,0.176555665 12.3617054,0.577201213 12.2629947,0.960191195 L1.25675533,42.9451284 C1.1748977,43.2588542 0.9208983,43.4612142 0.645230704,43.4612142" id="Path"></path>
                                </g>
                                <g id="Group" transform="translate(62.000000, 13.000000)" fill="#FF9800" fill-rule="nonzero">
                                    <path d="M0.674121631,43.8348039 C0.60959033,43.8348039 0.546211373,43.8230048 0.479375382,43.7994067 C0.160175909,43.6761721 -0.0126757914,43.2841812 0.0944922628,42.9184105 L12.5087014,0.502115381 C12.6170218,0.138966659 12.9604205,-0.0563732673 13.283077,0.0616172922 C13.6022765,0.18354087 13.7762805,0.576842735 13.6702648,0.94261347 L1.253751,43.3589086 C1.16847749,43.651263 0.931094492,43.8348039 0.674121631,43.8348039" id="Path"></path>
                                </g>
                                <g id="Group" transform="translate(2.000000, 23.000000)" fill="#FF9800" fill-rule="nonzero">
                                    <path d="M0.710103319,11.9989841 C0.366208551,11.9989841 0.066941348,11.736193 0.0210012072,11.3731621 C-0.0301892354,10.9789756 0.238888732,10.6200085 0.618223037,10.5685339 L77.1361215,0.0785663892 C77.518081,0.0284464512 77.8659135,0.304783406 77.9184165,0.696260759 C77.9682944,1.0904473 77.7018416,1.4534782 77.3198821,1.50495273 L0.801983601,11.9922111 L0.710103319,11.9989841 Z" id="Path"></path>
                                </g>
                                <g id="Group" transform="translate(5.000000, 38.000000)" fill="#FF9800" fill-rule="nonzero">
                                    <path d="M0.781193948,2.96198674 C0.395239044,2.96198674 0.0835572475,2.48723926 0.0782478436,1.89532007 C0.0769257199,1.30340088 0.391260127,0.820572595 0.778541337,0.818552393 L70.1628881,0.161986736 L70.1655407,0.161986736 C70.5541482,0.161986736 70.8684826,0.636734211 70.8698256,1.2286534 C70.8724615,1.81855239 70.5581271,2.30138068 70.1695196,2.30542108 L0.786499171,2.96198674 L0.781193948,2.96198674 Z" id="Path"></path>
                                </g>
                                <g id="Group" transform="translate(87.000000, 0.000000)" fill="#BF360C" fill-rule="nonzero">
                                    <path d="M6.91690772,0.328912093 L1.36355298,3.35282912 C0.149393255,4.01509807 -0.343604487,5.62410047 0.260759136,6.95011994 C0.867839001,8.27465782 2.34411599,8.81247354 3.55827572,8.15168619 L9.11163045,5.12925074 C10.3271483,4.4669818 10.8187879,2.85649781 10.2144243,1.53195993 C9.60734443,0.20742204 8.13106745,-0.330393679 6.91690772,0.328912093" id="Path"></path>
                                </g>
                            </g>
                            <g id="Group-19" transform="translate(28.508029, 125.000000)" fill-rule="nonzero">
                                <g id="Group" transform="translate(73.000000, 0.000000)" fill="#FF9800">
                                    <path d="M1.47473299,59.818074 C4.25293123,47.7466068 8.29798787,36.2827768 13.4399425,25.5336623 C13.6112103,25.1737244 13.4543238,24.7454111 13.0921775,24.576408 C12.7287238,24.4074049 12.2946712,24.5622169 12.1234034,24.9195746 C6.93699758,35.7615764 2.85794887,47.3260342 0.054910271,59.5007094 C-0.0339920726,59.8877394 0.21179676,60.2721892 0.604012982,60.3599161 C0.996229203,60.4476429 1.38583065,60.205104 1.47473299,59.818074 Z M16.2652067,19.9049553 C17.9739621,16.6590633 19.7846936,13.4802565 21.6908645,10.3788558 C21.9000464,10.0382693 21.7889185,9.59576497 21.446383,9.39192915 C21.1012327,9.18551312 20.6554136,9.29388153 20.4462316,9.63188777 C18.5230648,12.7629609 16.6966446,15.9662795 14.973508,19.2431339 C14.7878589,19.5953313 14.926442,20.0288049 15.2833588,20.2107091 C15.6402755,20.3939033 16.0795577,20.2571527 16.2652067,19.9049553 Z M25.3698526,4.65855167 C26.1399038,3.51423283 26.9243362,2.38023479 27.7231499,1.25913775 C27.9519427,0.932742414 27.8721921,0.485077659 27.5440379,0.258020031 C27.2145762,0.0296723036 26.7596054,0.110948614 26.5295052,0.434763753 C25.7267694,1.56489149 24.9358,2.71050043 24.1579045,3.86384997 C23.9356486,4.19540571 24.0271657,4.63920017 24.3631643,4.85980729 C24.6965481,5.08041442 25.1489041,4.99010741 25.3698526,4.65855167" id="Shape"></path>
                                </g>
                                <g id="Group" transform="translate(69.000000, 50.000000)" fill="#FF9800">
                                    <path d="M0.0880485396,1.08941019 L3.49214054,8.50059969 C3.58967123,8.71394807 3.78066883,8.86729223 4.01230422,8.91929589 C4.24393961,8.96996614 4.48505715,8.91262876 4.66386341,8.76461832 L10.9871031,3.52424862 C11.3054325,3.26156343 11.3474249,2.79219698 11.0792155,2.47884154 C10.8096515,2.16415267 10.335544,2.12681671 10.01586,2.3895019 L4.4552561,6.99516015 L1.46296035,0.476033583 C1.29228164,0.10267391 0.84526598,-0.0626710879 0.465979963,0.105340765 C0.0866939467,0.274686045 -0.0839847608,0.716050515 0.0880485396,1.08941019" id="Path"></path>
                                </g>
                                <g id="Group" transform="translate(0.000000, 27.000000)" fill="#E91E63">
                                    <path d="M4.14397776,4.41568001 C3.25985503,3.08011254 2.35905074,1.75732562 1.43878463,0.448597304 C1.20802304,0.118859115 0.72842816,0.0242830449 0.3697746,0.237718229 C0.00973091054,0.451153414 -0.091748585,0.892082387 0.137622878,1.22054252 C1.05093834,2.52032445 1.94479198,3.83033082 2.82057393,5.1543958 C3.04299474,5.48924621 3.51980935,5.59788088 3.88680369,5.39339208 C4.25101777,5.18890328 4.36639857,4.75053042 4.14397776,4.41568001 Z M12.7697349,18.893487 C10.7457055,15.0899953 8.58544335,11.3721334 6.29450899,7.74117911 C6.08181908,7.40121648 5.60778473,7.28491348 5.23801013,7.48173395 C4.86823553,7.67983247 4.74034356,8.11564923 4.95581372,8.45561185 C7.22728627,12.0558928 9.37225698,15.7469156 11.3796048,19.521012 C11.5658822,19.8737552 12.0301857,20.0181754 12.4152517,19.845638 C12.7975375,19.6743786 12.9574024,19.2475082 12.7697349,18.893487 Z M28.2224208,59.7925249 C25.456062,48.1443317 21.5219938,37.0073605 16.5592295,26.4634067 C16.3896336,26.1029952 15.9350611,25.93557 15.5430444,26.0914927 C15.1510277,26.2474155 14.9689207,26.6678955 15.1385165,27.0283071 C20.0651375,37.4891872 23.9658425,48.5392507 26.7099593,60.095424 C26.8017079,60.4788405 27.2145765,60.7216709 27.6316155,60.6398754 C28.0500447,60.5542457 28.3155595,60.1759414 28.2224208,59.7925249 Z M30.3201271,52.566402 L27.1937246,58.7918079 L21.5275544,54.3313959 C21.2022639,54.077063 20.7129381,54.1115705 20.4363023,54.4093573 C20.1596664,54.7084222 20.1971999,55.1582975 20.5211002,55.4126305 L26.9615728,60.4826746 C27.1464601,60.629651 27.3939033,60.6871634 27.6316155,60.6398754 C27.8679376,60.5913093 28.0681164,60.444333 28.170986,60.2424003 L31.7255486,53.1632537 C31.9048754,52.8079544 31.7352795,52.3861962 31.3488234,52.2200491 C30.9609771,52.05518 30.4994539,52.2111027 30.3201271,52.566402" id="Shape"></path>
                                </g>
                            </g>
                            <g id="Group-17" transform="translate(0.000000, 109.000000)">
                                <g id="Group" transform="translate(0.508029, 21.000000)" fill="#F8BBD0">
                                    <path d="M6.16460156,7.36637826 C5.02461373,7.3548623 4.10853058,6.36193029 4.11936468,5.15147453 C4.13019878,3.94101877 5.06433875,2.96600049 6.2031228,2.97751645 C7.34190684,2.98903242 8.25678619,3.98196442 8.24835967,5.19242018 C8.23752557,6.4041555 7.3033856,7.37789422 6.16460156,7.36637826 Z M8.85145777,0.990372898 C8.43133554,0.482390933 7.56701531,0.0614184743 6.93141491,0.0575798196 L5.52418601,0.0433968695 C4.88858561,0.0358274433 4.01704265,0.438886181 3.58729011,0.939190836 L0.890803584,4.07665123 C0.463458621,4.57695589 0.105933399,5.5378991 0.099914456,6.21606142 L0.00235549292,17.5093834 C-0.00361136588,18.1849866 0.512813955,18.7454302 1.14841435,18.7505484 L10.9809599,18.8491094 C11.6165603,18.8541921 12.1414121,18.306544 12.147431,17.6309408 L12.2473964,6.33505971 C12.2521606,5.65689739 11.9150998,4.68955642 11.49257,4.18157446 L8.85145777,0.990372898 Z" id="Shape"></path>
                                </g>
                                <g id="Group" transform="translate(4.608799, 32.605330) scale(-1, 1) rotate(89.483717) translate(-4.608799, -32.605330) translate(3.608799, 31.605330)" fill="#E91E63" fill-rule="nonzero">
                                    <path d="M1.03547828,0.0471139203 C0.525341233,0.0471139203 0.113002483,0.461571117 0.113002483,0.971063086 C0.113002483,1.48055505 0.525341233,1.8923724 1.03547828,1.8923724 C1.54561532,1.8923724 1.95663247,1.4779152 1.95663247,0.968423231 C1.95663247,0.461571117 1.54297212,0.0471139203 1.03547828,0.0471139203" id="Path"></path>
                                </g>
                                <g id="Group" transform="translate(1.500000, 32.225981) scale(-1, 1) rotate(89.410743) translate(-1.500000, -32.225981) translate(-0.000000, 31.225981)" fill="#E91E63" fill-rule="nonzero">
                                    <path d="M1.8727557,0.0741987933 C1.36466956,0.0728810796 0.952921834,0.486313374 0.950282425,0.994848305 C0.950282425,1.50470411 1.36203015,1.91681553 1.8727557,1.91945727 C2.37952213,1.9181364 2.79391242,1.50602498 2.79391242,0.996169175 C2.79522897,0.486313374 2.38216154,0.0741987933 1.8727557,0.0741987933" id="Path"></path>
                                </g>
                                <g id="Group" transform="translate(7.591430, 32.640590) scale(-1, 1) rotate(-90.515873) translate(-7.591430, -32.640590) translate(6.591430, 31.640590)" fill="#E91E63" fill-rule="nonzero">
                                    <path d="M1.01052367,0.00941902433 C1.51765311,0.00941902433 1.93233709,0.422852026 1.93233709,0.930066954 C1.93233709,1.4412445 1.52029441,1.8546775 1.01052367,1.8546775 C0.500752925,1.8546775 0.0873896021,1.4412445 0.0887070959,0.932708699 C0.0887070959,0.422852026 0.500752925,0.00941902433 1.01052367,0.00941902433" id="Path"></path>
                                </g>
                                <g id="Group" transform="translate(1.508029, 0.000000)" fill="#F8BBD0" fill-rule="nonzero">
                                    <path d="M1.98088049,25.7989558 C2.74982362,25.1325385 3.13503598,24.2568224 3.13503598,23.3823903 C3.13503598,22.5079582 2.74982362,21.6322421 1.98088049,20.9658247 L1.98088049,20.9632567 C1.42380415,20.4843093 1.14971074,19.8538451 1.14822915,19.2220968 C1.14971074,18.5903485 1.42380415,17.9637364 1.98088049,17.4796529 C2.74982362,16.8145195 3.13503598,15.9362354 3.13503598,15.0643714 C3.13503598,14.1912234 2.74982362,13.3142232 1.98088049,12.6478058 C1.42380415,12.1662904 1.14971074,11.5383942 1.14971074,10.906646 C1.14971074,10.2736137 1.42676732,9.64571751 1.98088049,9.16420206 C2.74982362,8.49778468 3.13503598,7.62078454 3.13503598,6.74763652 C3.13503598,5.87320446 2.74982362,4.99748836 1.98088049,4.33107098 L1.98088049,4.32850289 C1.42380415,3.84827148 1.14971074,3.21909129 1.14822915,2.58734302 C1.14971074,1.95559475 1.42380415,1.3276986 1.98088049,0.84361507 C2.19571046,0.659997178 2.19571046,0.356963454 1.98088049,0.17077748 C1.7675321,-0.0166925356 1.41639622,-0.0166925356 1.20304783,0.17077748 C0.434104699,0.837194864 0.0488923381,1.71547905 0.0488923381,2.58734302 C0.0488923381,3.46049104 0.434104699,4.33749118 1.20304783,5.00390856 L1.20304783,5.00134048 C1.76012417,5.48542402 2.03421758,6.11588825 2.03569917,6.74763652 C2.03421758,7.37938479 1.76012417,8.00856498 1.20304783,8.49008043 C0.434104699,9.15649781 0.0488923381,10.033498 0.0488923381,10.906646 C0.0488923381,11.7785099 0.434104699,12.6567941 1.20304783,13.3219275 C1.76012417,13.8034429 2.03421758,14.4326231 2.03569917,15.0643714 C2.03421758,15.6961197 1.76012417,16.3240158 1.20304783,16.8055313 C0.434104699,17.4719486 0.0488923381,18.3502328 0.0488923381,19.2220968 C0.0488923381,20.0965289 0.434104699,20.972245 1.20304783,21.6386623 C1.76012417,22.1214618 2.03421758,22.750642 2.03569917,23.3823903 C2.03421758,24.0141386 1.76012417,24.6433188 1.20304783,25.1261182 C0.988217864,25.3123042 0.988217864,25.6127699 1.20304783,25.7989558 C1.41935939,25.9864259 1.7675321,25.9864259 1.98088049,25.7989558" id="Path"></path>
                                </g>
                            </g>
                            <g id="Clipped" transform="translate(139.508029, 0.000000)">
                                <mask id="mask-12" fill="white">
                                    <use xlink:href="#path-11"></use>
                                </mask>
                                <g id="Shape"></g>
                                <g id="Group" mask="url(#mask-12)">
                                    <g transform="translate(-142937.884654, -143491.475818)">
                                        <g transform="translate(214147.744196, 215238.834409) scale(-1, 1) rotate(134.993376) translate(-214147.744196, -215238.834409) translate(113457.244196, 214445.834409)">
                                            <rect id="Rectangle" fill="#E91E63" x="0.558379707" y="0.783090028" width="201380.287" height="1584.79333"></rect>
                                        </g>
                                        <g transform="translate(71752.326466, 71767.962725) rotate(-134.993376) translate(-71752.326466, -71767.962725) translate(-28938.173534, 70974.962725)">
                                            <rect id="Rectangle" fill="#F8BBD0" x="0.0188115062" y="0.780734926" width="201380.287" height="1584.79333"></rect>
                                        </g>
                                        <g transform="translate(142947.879437, 143498.671511) rotate(-134.993406) translate(-142947.879437, -143498.671511) translate(142907.379437, 143462.171511)">
                                            <rect id="Rectangle" stroke="#979797" fill="#E91E63" x="0.0351943371" y="0.169378163" width="80.5527273" height="72"></rect>
                                        </g>
                                    </g>
                                </g>
                            </g>
                        </g>
                    </g>
                </g>
            </g>
        </g>
    </g>
</svg>