<?xml version="1.0" encoding="UTF-8"?>
<svg width="265px" height="225px" viewBox="0 0 265 225" version="1.1" xmlns="http://www.w3.org/2000/svg" xmlns:xlink="http://www.w3.org/1999/xlink">
    <!-- Generator: Sketch 64 (93537) - https://sketch.com -->
    <title>Banner1-Foreground</title>
    <desc>Created with Sketch.</desc>
    <defs>
        <linearGradient x1="50%" y1="0%" x2="50%" y2="100%" id="linearGradient-1">
            <stop stop-color="#FCDFEA" offset="0%"></stop>
            <stop stop-color="#F8BBD0" offset="100%"></stop>
        </linearGradient>
        <linearGradient x1="13.328791%" y1="15.1433596%" x2="118.556573%" y2="100%" id="linearGradient-2">
            <stop stop-color="#F8BBD0" offset="0%"></stop>
            <stop stop-color="#FFE0B2" offset="100%"></stop>
        </linearGradient>
        <linearGradient x1="23.3964056%" y1="-15.8892969%" x2="61.5496187%" y2="117.107876%" id="linearGradient-3">
            <stop stop-color="#FF9800" offset="0%"></stop>
            <stop stop-color="#E91E63" offset="100%"></stop>
        </linearGradient>
        <linearGradient x1="0.00162837014%" y1="50.0025745%" x2="99.9629178%" y2="50.0025745%" id="linearGradient-4">
            <stop stop-color="#E91E63" offset="0%"></stop>
            <stop stop-color="#F8BBD0" offset="100%"></stop>
        </linearGradient>
        <linearGradient x1="0%" y1="49.9991073%" x2="100.033595%" y2="49.9991073%" id="linearGradient-5">
            <stop stop-color="#FF9800" offset="0%"></stop>
            <stop stop-color="#FFE0B2" offset="100%"></stop>
        </linearGradient>
        <linearGradient x1="0%" y1="49.9985131%" x2="100%" y2="49.9985131%" id="linearGradient-6">
            <stop stop-color="#00BCD4" offset="0%"></stop>
            <stop stop-color="#B2EBF2" offset="100%"></stop>
        </linearGradient>
        <linearGradient x1="0%" y1="49.9969269%" x2="99.9717514%" y2="49.9969269%" id="linearGradient-7">
            <stop stop-color="#FF9800" offset="0%"></stop>
            <stop stop-color="#FFE0B2" offset="100%"></stop>
        </linearGradient>
        <linearGradient x1="0.00181728918%" y1="50.0019097%" x2="100.013624%" y2="50.0019097%" id="linearGradient-8">
            <stop stop-color="#FF9800" offset="0%"></stop>
            <stop stop-color="#FFE0B2" offset="100%"></stop>
        </linearGradient>
        <linearGradient x1="0%" y1="49.9975333%" x2="100.039795%" y2="49.9975333%" id="linearGradient-9">
            <stop stop-color="#00BCD4" offset="0%"></stop>
            <stop stop-color="#B2EBF2" offset="100%"></stop>
        </linearGradient>
        <path d="M45.539275,50.5726048 C46.4750136,43.8348982 47.9565996,36.4921514 49.1392691,29.9481638 C49.10028,28.9583392 49.0482945,28.0056662 48.9833127,27.0782033 C48.359487,18.6421382 46.6569627,12.7191129 43.0569687,7.72222379 C42.1992083,6.53071916 41.2374771,5.3975956 40.1587785,4.29100889 L40.1587785,4.31754574 C37.0916355,0.971248765 34.4403764,0.100840036 28.5400251,0.100840036 C23.2505031,0.100840036 18.7277669,0.294559052 15.5696494,2.41352665 C9.09745791,5.58866093 -0.220938264,24.9804652 0.0129963684,37.2391637 C2.80721558,43.4275575 15.1407692,51.8782179 15.1407692,51.8782179 L15.0887838,46.8773482 L7.00504259,35.5713226 C8.36966128,32.7822995 10.1631601,26.7809905 12.8014229,22.4143516 C13.8021433,31.2710258 14.9588201,41.8844396 15.062791,44.7544001 C23.3414777,44.5341442 40.3147349,44.5606811 42.8750195,44.5606811 L42.8750195,50.4253252 C43.5248379,50.4876868 44.5905401,50.5726048 45.539275,50.5726048 Z" id="path-10"></path>
        <linearGradient x1="29.9341537%" y1="5.11216999%" x2="91.0216179%" y2="72.2895893%" id="linearGradient-12">
            <stop stop-color="#FF9800" offset="0%"></stop>
            <stop stop-color="#FFDFAF" offset="67.7308726%"></stop>
            <stop stop-color="#FFE0B2" offset="100%"></stop>
        </linearGradient>
        <path d="M1.81828136,2.8533371 C1.53828136,1.88180221 1.53828136,0.951941747 1.53828136,0.0533370961 L1.25828136,0.0533370961 L1.81828136,2.8533371 Z" id="path-13"></path>
    </defs>
    <g id="Landing" stroke="none" stroke-width="1" fill="none" fill-rule="evenodd">
        <g transform="translate(-778.000000, -240.000000)" id="Banner">
            <g transform="translate(112.000000, 134.000000)">
                <g id="Artwork" transform="translate(665.000000, 0.000000)">
                    <g id="Illustration" transform="translate(618.500000, 169.000000) scale(-1, 1) translate(-618.500000, -169.000000) ">
                        <g id="Banner1-Foreground" transform="translate(970.039204, 106.000000)">
                            <g id="Group-12" transform="translate(0.000000, 65.999698)">
                                <path d="M45.0411894,31.4083941 L46.3436269,24.4054591 C46.3436269,24.4054591 46.7578537,22.7233299 45.6944453,22.3394086 C44.631037,21.9554873 39.1836156,21.0702256 39.1836156,21.0702256 C39.1836156,21.0702256 38.0373619,21.3776265 38.1066261,22.1362338 C38.1745321,22.8935218 36.0382086,35.9138618 36.0382086,35.9138618 C36.0382086,35.9138618 36.0816684,36.3070183 36.7254175,36.6856623 C37.3691667,37.0643063 42.2176568,37.5155127 42.2176568,37.5155127 C42.2176568,37.5155127 43.5920748,36.9706348 43.729245,36.6856623 C43.8664151,36.4020091 45.0411894,31.4083941 45.0411894,31.4083941" id="Path" fill="#BF360C"></path>
                                <g id="Group" transform="translate(1.960796, 35.000302)" fill="url(#linearGradient-1)">
                                    <path d="M11.9824211,0.0842857815 C11.9824211,0.0842857815 1.30207165,13.5726447 0.228864631,24.9327877 C-0.843049373,36.2929307 6.21942866,47.8413997 6.21942866,47.8413997 L11.9824211,47.8413997 L10.6868145,31.1475472 L11.9824211,0.0842857815 Z" id="Path"></path>
                                </g>
                                <g id="Group" transform="translate(35.960796, 18.000302)" fill="#FF9800">
                                    <path d="M9.05323127,10.3856639 L10.3746825,3.38272894 C10.3746825,3.38272894 10.7889093,1.70059969 9.72550092,1.31799774 C8.66345068,0.934076478 3.21059687,0.0474954141 3.21059687,0.0474954141 C3.21059687,0.0474954141 2.06841753,0.356215606 2.13768167,1.1135036 C2.2055877,1.87211091 0.0353111331,14.8766192 0.0353111331,14.8766192 C0.0353111331,14.8766192 0.0787709891,15.2697756 0.722520107,15.649739 C1.36626923,16.028383 6.21475942,16.4782701 6.21475942,16.4782701 C6.21475942,16.4782701 7.58510301,15.9333921 7.72634754,15.649739 C7.86759207,15.3647665 9.05323127,10.3856639 9.05323127,10.3856639" id="Path"></path>
                                </g>
                                <g id="Group" transform="translate(35.960796, 21.000302)" fill="#FFE0B2">
                                    <path d="M7.70987724,8.08945957 L8.81528856,2.64179588 C8.81528856,2.64179588 9.16464654,1.33159828 8.26458304,1.03198867 C7.36451954,0.733567983 2.74419359,0.0416124464 2.74419359,0.0416124464 C2.74419359,0.0416124464 1.78679272,0.285342489 1.8294624,0.873861374 C1.87213207,1.46356919 0.0626710879,11.6039279 0.0626710879,11.6039279 C0.0626710879,11.6039279 0.100007055,11.9071043 0.64671229,12.205525 C1.1920841,12.5051346 5.30570763,12.8463567 5.30570763,12.8463567 C5.30570763,12.8463567 6.46845633,12.4195319 6.58446451,12.205525 C6.69913927,11.992707 7.70987724,8.08945957 7.70987724,8.08945957" id="Path"></path>
                                </g>
                                <g id="Group" transform="translate(5.960796, 98.000302)" fill="#FFF3E0">
                                    <path d="M2.09557994,43.7630873 C2.72031537,46.8766403 2.54511782,50.2182094 4.12461197,52.9864047 C5.62261888,53.4651051 6.49996472,51.3729575 6.62762805,49.8355157 L10.2999859,5.22036828 C10.6069211,1.49077184 7.07037534,-1.41076619 3.471356,0.868061239 C0.169765063,2.95620855 1.07698956,8.41526034 1.0864964,11.608819 C1.11637505,22.353577 -1.68814378,24.8684211 2.09557994,43.7630873" id="Path"></path>
                                </g>
                                <g id="Group" transform="translate(16.960796, 98.000302)" fill="#FFF3E0">
                                    <path d="M3.8950896,40.3030382 C4.21696416,43.1037556 4.56328489,46.0019457 5.84535064,48.56353 C6.02190631,48.9235294 6.26500988,49.3056226 6.66972979,49.390099 C7.43163539,49.5395572 7.84042966,48.5739271 7.93821434,47.8409319 C9.61956752,35.2448516 10.5254339,22.5655945 10.650381,9.86814256 C10.650381,7.35334527 10.6205023,4.66959518 9.18632708,2.56938204 C7.75350995,0.469168901 2.94440525,-1.00072037 0.949326231,1.22555754 C-1.04575279,3.45183546 0.949326231,10.6297297 1.20736913,13.3030827 C1.97878157,22.3108657 2.87378298,31.3108509 3.8950896,40.3030382" id="Path"></path>
                                </g>
                                <g id="Group" transform="translate(15.960796, 9.000302)" fill="#FFF3E0">
                                    <path d="M13.691007,10.6360365 C13.6126476,12.4549303 13.3141903,19.9869992 12.0604393,21.1509871 C10.8942665,22.2173249 8.91108132,21.679599 8.00994779,23.0219608 C7.18141197,24.2835987 7.11572833,26.1688944 6.90484925,27.7260862 C6.81727106,28.3796901 5.56006303,26.9722283 5.09682047,27.3745462 C4.26828465,28.0945521 1.10740323,29.058032 1.28025493,27.9031582 C1.53607544,26.4201804 1.57295047,24.9007466 1.38857533,23.4047488 L0.560039509,17.1629616 C0.187832181,14.306374 -0.188984526,11.4068204 0.146347773,8.54111882 C0.481680071,5.67541722 1.60406378,2.80841361 3.69326466,1.14445784 C6.59025916,-1.19393384 9.22567142,0.751253896 11.0221768,3.6508075 C12.6481351,6.26912914 13.8154602,7.63362495 13.691007,10.6360365" id="Path"></path>
                                </g>
                                <g id="Group" transform="translate(0.960796, 0.000302)" fill="#FF9800">
                                    <path d="M11.9094116,1.15487074 C9.03174827,2.99114333 7.60053619,6.73534106 7.03541696,10.3573079 C6.4690278,13.9806798 6.57951178,17.7136379 5.83152251,21.2906463 C5.08353323,24.8676547 3.2180048,28.4811919 0.0977846762,29.7526737 C1.95442359,30.7614294 3.82884154,31.7701851 5.84422181,32.2197698 C7.86087202,32.6679496 10.0578524,32.5934871 11.8459151,31.4681204 L11.5817694,32.8449736 C13.6974742,32.714313 15.9046141,32.5569583 17.724425,31.3571291 C20.1284041,29.7667232 21.3729364,26.6898778 22.0625088,23.6931146 C23.3108509,18.2798336 23.2473543,12.592587 23.124171,7.0430256 C23.1533794,5.94013809 23.0124171,4.83865553 22.7050938,3.7891562 C21.2370538,-0.373717297 14.8924792,-0.75164945 11.9094116,1.15487074" id="Path"></path>
                                </g>
                                <g id="Group" transform="translate(22.960796, 3.000302)" fill="#FF9800">
                                    <path d="M8.32935304,1.0607244 C8.92149358,1.39515255 9.41041696,1.86871303 9.74858897,2.43545386 C10.0297199,3.05069955 10.1831875,3.71062075 10.2022012,4.37947705 C10.3475201,5.46317743 10.3638176,6.55964225 10.2510936,7.64717196 C10.1315789,8.74236033 9.625,9.76989721 8.81284394,10.5625685 C8.03735713,11.1778142 7.14371384,11.6449925 6.17809017,11.937298 L6.53935022,10.3468496 L4.58908918,11.9972908 C4.54291308,11.5735116 4.64884648,11.1471796 4.89059193,10.7872225 L3.03268308,11.6220165 C3.29615846,9.85924824 3.32467899,8.07350403 3.11552843,6.30435358 C2.9213172,4.63093638 2.03310639,4.37054195 0.886852688,3.31492332 C-0.133095809,2.39843701 -0.274340341,1.66958787 0.950684352,0.882022338 C3.06256173,-0.471007587 6.28538168,-0.131473663 8.32935304,1.0607244" id="Path"></path>
                                </g>
                                <g id="Group" transform="translate(1.960796, 73.000302)" fill="#AD1457">
                                    <path d="M34.3529893,27.7037534 C31.9415538,18.5576408 28.5012391,8.89142091 25.3374356,0 C25.34258,0.0844504021 25.3271468,0.168900804 25.2911361,0.245308311 C24.940031,1.0536193 22.626339,1.24262735 21.0007099,1.59785523 L20.9312606,1.59785523 L20.6586076,1.66487936 C15.9476271,2.87935657 13.4448785,2.20509383 8.76090612,0.886058981 C5.84274758,9.02546917 3.09949849,17.8351206 0.180053854,25.9664879 C0.0591605522,26.2225201 0.0205775834,26.5120643 0.0694493439,26.7935657 C0.171051162,27.0375335 0.342102324,27.2412869 0.558166949,27.3806971 L2.82684552,29.2050938 C3.04291014,28.5321716 3.28855504,27.8525469 3.48661428,27.1796247 C3.38115417,29.1769437 2.19408483,32.344504 2.1014857,34.3418231 L2.14264087,34.3806971 C2.35999159,34.541555 2.5953477,34.6742627 2.8448509,34.7747989 C4.327723,35.1983914 6.77131103,34.1300268 8.09213466,34.7747989 C9.71776375,34.3605898 11.6520566,35.7908847 12.8121178,34.6836461 C12.8622757,34.6380697 12.9111475,34.5884718 12.9548748,34.5348525 C12.6179169,35.6327078 12.6269196,37.2922252 13.7265342,37.4463807 C14.2255406,37.4423592 14.7103999,37.2747989 15.1116628,36.9651475 C17.2684507,35.733244 19.8869482,36.041555 22.3485416,36.002681 C24.5747789,35.9785523 27.0826719,35.4396783 28.3996372,33.6675603 C28.4150704,34.227882 28.7751781,34.7131367 29.2909038,34.8713137 C30.0715659,35.0442359 30.8329365,34.5723861 31.5351465,34.1635389 C31.7486389,34.036193 31.9711341,33.9262735 32.2000597,33.8324397 C32.8752616,33.5723861 33.3035326,32.8793566 33.2533747,32.1327078 C33.2417998,31.9544236 33.2417998,31.7761394 33.2533747,31.5978552 C33.4694393,31.9343164 33.86813,32.0871314 34.2410987,31.9772118 C34.6140674,31.8672922 34.8764316,31.5201072 34.8931509,31.116622 C34.8777177,29.9571046 34.6950917,28.8069705 34.3529893,27.7037534 Z" id="Path"></path>
                                </g>
                                <path d="M8.12430635,144.536759 C7.40998435,144.536759 6.52972472,144.536759 6.1773048,145.073217 C6.03349218,145.363855 5.9908225,145.683013 6.05245648,145.994023 L6.54710866,151.540587 C6.61506407,152.310641 6.73359095,153.168973 7.42104686,153.661971 C7.8524847,153.934953 8.37242262,154.084347 8.90816412,154.091137 C10.1250401,154.100644 11.3276928,153.871122 12.4260419,153.422942 C12.9048905,153.289846 13.3252659,153.034519 13.630275,152.690915 C13.8499448,152.302492 13.9305431,151.865178 13.8625877,151.43737 C13.8056948,149.974674 13.7156144,148.487532 13.6065696,147.013971 C13.5386142,146.078226 13.6065696,144.307237 12.3407026,144.043762 C11.2407731,143.819672 9.36172698,144.546266 8.12430635,144.536759" id="Path" fill="#68E1FD"></path>
                                <path d="M21.2176039,144.875364 C20.8307454,147.175155 20.9887812,149.511246 21.6834804,151.765664 C21.7443901,152.030128 21.8810252,152.281627 22.0802162,152.500716 C22.5526775,152.857223 23.2029292,153.028346 23.8531808,152.966119 C25.2392868,152.946674 26.6072846,152.719806 27.8847409,152.301073 C28.1119175,152.242735 28.3160471,152.14032 28.4773753,152.002903 C28.6436422,151.774739 28.7045519,151.507683 28.6485808,151.248406 L28.3637871,147.575739 C28.2930002,146.704567 28.5349926,145.294097 27.8320623,144.548674 C27.2410741,143.919926 26.3899853,143.957521 25.4681096,144.056046 C25.0713737,144.11568 21.2702825,144.721093 21.2176039,144.875364" id="Path" fill="#68E1FD"></path>
                                <path d="M5.46638692,157.562169 C5.500093,157.731514 5.58074684,157.884858 5.69510676,158.003533 C5.79983637,158.076872 5.91780765,158.122208 6.04179788,158.136876 C9.01034064,158.728918 12.0655562,158.496901 14.9341845,157.462162 C16.001945,157.074134 17.2081412,156.326081 17.2502738,155.067326 C17.2201791,154.405946 16.9854403,153.777902 16.5845787,153.285867 C15.4674628,151.729757 13.8989263,150.648348 12.1450062,150.221651 C11.4985717,150.005635 10.8003743,150.082974 10.204499,150.436333 C9.91920105,150.648348 9.70733425,150.96437 9.43046287,151.188386 C8.35909099,152.075115 6.50766408,151.275058 5.59158094,152.3338 C4.67549779,153.391208 5.08598971,156.274078 5.46638692,157.562169" id="Path" fill="#006064"></path>
                                <path d="M21.3399171,155.972794 C21.3572023,156.482163 21.5173782,156.971531 21.7950932,157.366225 C22.1903475,157.720917 22.687008,157.891596 23.1859732,157.844926 C26.0760537,157.959601 28.9580677,157.415562 31.6683824,156.246146 C32.3609415,155.995462 33.0004928,155.578099 33.5432471,155.019393 C34.0906108,154.446019 34.3326032,153.576625 34.1758844,152.740566 C33.9361967,151.759163 33.051196,151.208458 32.2399453,150.796428 C31.3157649,150.320395 30.3777563,149.881697 29.4259196,149.480336 C28.9096692,149.216317 28.3542391,149.074974 27.7907425,149.062973 C26.7236714,149.12031 25.9124207,150.020374 24.9444512,150.399067 C23.9753293,150.777761 23.2885319,150.476406 22.3366952,150.451071 C20.2716936,150.408401 21.1705224,154.398016 21.3399171,155.972794" id="Path" fill="#006064"></path>
                                <g id="Group" transform="translate(7.960796, 31.000302)" fill="url(#linearGradient-2)">
                                    <path d="M20.1594469,5.05395131 C20.3674615,5.17552852 20.538239,5.39253729 20.6640751,5.74811793 C21.4524764,7.9874916 23.0755044,13.0205264 24.5367433,15.3906282 C25.9196557,17.6208509 27.4515169,19.7334183 28.451785,21.0485437 C28.6777762,21.3452967 29.0385918,21.5008632 29.4058276,21.4590302 C29.7717793,21.4158899 30.0902215,21.1818865 30.2455905,20.8419932 L32.1228588,13.6440998 L38.2233385,23.4277965 C38.2233385,23.4277965 33.5519966,33.7566298 30.6924369,34.1318197 C27.7596868,34.5357697 23.3708339,28.4882843 20.3995626,23.7206277 L20.1889798,38.1830858 C20.1889798,39.2393695 20.1466065,40.3387935 19.6586708,41.2630417 C18.8189079,42.8592327 16.891562,43.4697333 15.1670947,43.8266212 C12.8506844,44.2998572 10.500889,44.5822301 8.13953718,44.6711253 C7.08662339,44.762635 6.0272894,44.6619743 5.00904473,44.3756796 C3.16387752,43.765179 1.82719063,42.0892438 1.1312403,40.2538202 C0.434005926,38.4183966 0.291477353,36.4234846 0.208014675,34.4599474 C-0.252956117,24.9024104 0.0706222661,15.0625005 3.61586003,6.19913014 C4.43251023,4.15192689 6.01830111,1.4053279 8.17163821,0.566053005 C10.7679695,-0.457548618 14.2310286,0.40656463 16.4305912,1.96876634 C17.2600818,2.56096498 17.9984055,3.2838918 18.8278961,3.88001228 C19.3427967,4.17937981 19.7947792,4.57810075 20.1594469,5.05395131 Z" id="Path"></path>
                                </g>
                                <g id="Group" transform="translate(36.960796, 29.000302)" fill="#FFF3E0">
                                    <path d="M1.06229716,15.9714971 L1.64604205,6.29353041 L0.0503739241,3.15753963 C0.0503739241,3.15753963 0.497812897,1.98756408 1.64604205,2.53896101 C2.79575279,3.08909035 3.29060251,5.58875641 5.16332722,3.60372748 C6.21821645,2.53515827 7.05383096,1.32208504 7.63757584,0.0164785288 C7.63757584,0.0164785288 8.01093552,0.0811250647 8.08501482,1.29546588 C8.13242557,1.95840976 8.13242557,2.62262123 8.08501482,3.28556512 L8.11612812,4.69131038 C8.11612812,4.69131038 7.71165514,7.12759748 7.05234937,7.99208645 C6.3930436,8.85657542 5.32926485,8.85657542 5.17962466,11.0368115 C5.02998448,13.2183152 5.4403838,21.8708104 5.4403838,21.8708104 L1.06229716,15.9714971 Z" id="Path"></path>
                                </g>
                                <g id="Group" transform="translate(18.408222, 33.944286) scale(-1, 1) rotate(75.521726) translate(-18.408222, -33.944286) translate(15.908222, 28.444286)" fill="#006064">
                                    <path d="M1.99644962,1.49590805 C1.99644962,1.49590805 -0.214762853,5.41060752 0.166346121,8.58845302 L1.99644962,10.6024338 C1.99644962,10.6024338 2.46080424,3.86659902 3.94621874,1.1743481 C5.43163324,-1.51790282 1.99644962,1.49590805 1.99644962,1.49590805" id="Path"></path>
                                </g>
                            </g>
                            <g id="Group-13" transform="translate(59.960796, 0.000000)">
                                <g id="Group" fill="url(#linearGradient-3)">
                                    <path d="M21.2311406,0.0523516853 L83.7223169,0.0523516853 C95.4378137,0.0523516853 104.940668,9.77405964 104.940668,21.7612868 L104.940668,162.118773 C104.940668,174.106 95.4378137,183.829016 83.7223169,183.829016 L21.2311406,183.829016 C9.51564372,183.829016 0.0140688281,174.106 0.0140688281,162.118773 L0.0140688281,21.7612868 C0.0140688281,9.77405964 9.51564372,0.0523516853 21.2311406,0.0523516853 Z" id="Path"></path>
                                </g>
                                <g id="Group" transform="translate(6.000000, 7.000000)" fill="#FFFFFF">
                                    <path d="M19.4459708,0.0259828349 L76.5221712,0.0259828349 C87.2142033,0.0259828349 95.890098,8.68995913 95.890098,19.3728017 L95.890098,144.480152 C95.890098,155.162994 87.2142033,163.826971 76.5221712,163.826971 L19.4459708,163.826971 C8.74093134,163.826971 0.068938893,155.162994 0.068938893,144.480152 L0.068938893,19.3728017 C0.068938893,8.68995913 8.74093134,0.0259828349 19.4459708,0.0259828349" id="Path"></path>
                                </g>
                                <g id="Group" transform="translate(17.000000, 25.000000)" fill="#F8BBD0">
                                    <path d="M10.6069211,6.29141279 C10.0500917,7.41889674 9.35745026,8.47574945 8.52899675,9.43319522 C6.87208974,11.1898205 4.45463525,12.0687871 2.53968534,13.5533512 C0.624735431,15.0379153 -0.787709891,17.7428304 0.529666996,19.7388171 C1.16798363,20.7028028 2.30880485,21.2613129 3.05577113,22.1442034 C5.06578947,24.4933463 3.72125018,28.0536843 4.37314802,31.0358924 C5.12011429,34.4601999 8.67839001,36.8891299 12.2909905,37.1428792 C15.9035911,37.3953205 19.475448,35.8362012 22.2460138,33.5773093 C23.2102794,32.6918027 24.242451,31.8651556 25.3289474,31.1012917 C26.4154438,30.4106751 27.6649146,29.9463401 28.7378298,29.2504915 C31.1960279,27.6469006 32.7171229,24.9982289 32.7986101,22.1350475 C32.8257725,20.5563084 32.4183364,19.006345 32.3096868,17.4380697 C32.1059687,15.0889268 32.5405672,12.7410919 32.2553619,10.391949 C31.9701566,8.04280608 30.7071046,5.58248436 28.3847185,4.85393614 C27.488359,4.5674872 26.5105122,4.57664311 25.5869903,4.35559347 C23.6041343,3.88602648 22.0830394,2.38838248 20.3853887,1.30275408 C14.9121631,-2.18172069 12.84782,2.18172069 10.6069211,6.29141279" id="Path"></path>
                                </g>
                                <g id="Group" transform="translate(59.000000, 32.000000)" fill="#F8BBD0">
                                    <path d="M30.6245656,23.536193 C30.179724,22.3337802 29.8877966,21.0790885 29.7765862,19.80563 C29.6653758,17.3994638 30.7774799,15.0603217 31.0277033,12.6474531 C31.291828,10.2359249 30.3048357,7.28552279 27.8443054,6.75603217 C26.6626949,6.5 25.4254791,6.88605898 24.2160659,6.75603217 C20.9770629,6.4383378 19.2950055,2.90482574 16.5842518,1.21045576 C13.4842617,-0.753351206 9.105352,-0.0455764075 6.25558534,2.28418231 C3.41971999,4.61394102 2.02958991,8.23324397 1.72376129,11.80563 C1.66815609,13.1260054 1.54304438,14.4423592 1.33452487,15.7479893 C1.07040016,17.0134048 0.514348128,18.2077748 0.236322113,19.4785523 C-0.347532519,22.3592493 0.54215073,25.3351206 2.62734584,27.4691689 C3.79505511,28.6394102 5.25469169,29.4812332 6.53361136,30.5308311 C8.42418826,32.1005362 9.88382484,34.1219839 11.8578096,35.6193029 C13.817893,37.116622 16.5842518,38.0268097 18.8084599,36.9436997 C19.6842419,36.5201072 20.3793069,35.8364611 21.213385,35.3552279 C23.0205541,34.3243968 25.2169596,34.3485255 27.2882534,33.9490617 C33.8635687,32.6836461 32.0842022,28.0670241 30.6245656,23.536193" id="Path"></path>
                                </g>
                                <g id="Group" transform="translate(16.000000, 116.000000)" fill="#F8BBD0">
                                    <path d="M26.4915175,30.6680401 C26.7110962,29.3852829 27.0856715,28.1346268 27.6152435,26.9468887 C28.7260531,24.7383378 30.805592,23.1885001 32.2522278,21.1776915 C33.6988636,19.1681671 34.2801012,16.0684916 32.4201409,14.4326231 C31.5289099,13.6390856 30.2631036,13.3951178 29.2814579,12.7120079 C26.6594306,10.9002258 26.969424,6.97619585 25.4582062,4.16286158 C23.7532427,0.934781995 19.6070812,-0.517468604 16.029241,0.210582757 C12.4384843,0.93991816 9.42896528,3.46177508 7.38817553,6.50495273 C6.69069043,7.65930577 5.92862337,8.76871737 5.10197436,9.83061944 C4.23657618,10.8257514 3.16451574,11.6282771 2.31203395,12.6246931 C0.387491724,14.9077184 -0.32290977,17.9765768 0.413324505,20.8695217 C0.839565401,22.4553125 1.6791308,23.8985749 2.27328478,25.4394243 C3.12576657,27.7442783 3.38409439,30.230182 4.33990731,32.4900945 C5.28280383,34.748723 7.22026245,36.8840835 9.68729309,36.9765345 C10.643106,37.0124877 11.5860025,36.7364188 12.5418155,36.7043178 C14.608438,36.6439678 16.5071474,37.7187103 18.4704388,38.3363341 C24.7478048,40.3509948 25.5098718,35.3894596 26.4915175,30.6680401" id="Path"></path>
                                </g>
                                <g id="Group" transform="translate(19.000000, 70.000000)" fill="#FFE0B2">
                                    <path d="M21.4673012,26.2448264 C21.6895571,25.1759251 22.0425517,24.1400146 22.526285,23.1634875 C23.5198994,21.343716 25.3110202,20.1217374 26.579186,18.4814358 C27.8473517,16.8424537 28.4618238,14.2638943 26.9714022,12.7951447 C26.265413,12.0931008 25.2325769,11.8476494 24.4350706,11.2313816 C22.3301769,9.60559592 22.7223931,6.32235335 21.5849661,3.89951037 C20.3037264,1.12828473 16.917593,-0.256008464 13.9236759,0.223017682 C10.9297587,0.700724198 8.34113165,2.73427597 6.53693703,5.20330605 C5.92246495,6.14552277 5.2426235,7.04947018 4.52356042,7.90986976 C3.7783496,8.71484482 2.85010454,9.33111262 2.10489372,10.1558822 C0.41836397,12.0020463 -0.274551355,14.5555328 0.222255859,17.0126862 C0.522954962,18.3679475 1.16357479,19.6097205 1.58193876,20.9280321 C2.20948472,22.8890042 2.32714958,24.9977749 3.03313878,26.9363132 C3.73912798,28.8748515 5.25569737,30.7276138 7.29522172,30.9031248 C8.09272804,30.9691063 8.87716049,30.7751206 9.6746668,30.784358 C11.3742704,30.8120702 12.9169876,31.7846385 14.5250741,32.3811118 C19.6500327,34.3143716 20.4606129,30.186565 21.4673012,26.2448264" id="Path"></path>
                                </g>
                                <g id="Group" transform="translate(56.000000, 84.000000)" fill="#B2EBF2">
                                    <path d="M5.21237282,8.7478356 C5.17022426,9.88271849 4.97353094,11.0096836 4.62229288,12.0983794 C3.84956915,14.1781182 2.00908171,15.88968 0.885119914,17.8744054 C-0.252891404,19.8604504 -0.407436151,22.5802104 1.6297446,23.5620161 C2.61321117,24.0357637 3.87766819,24.0027729 4.93138238,24.3815071 C7.74128686,25.3817876 7.9520297,28.7362903 9.82061618,30.8028328 C11.9280445,33.1715709 16.1569508,33.564821 19.5709848,32.2240757 C22.9709692,30.8833303 25.5560813,28.1490543 27.1296278,25.1957196 C27.6635097,24.0819508 28.2535896,22.9972139 28.9139172,21.9454678 C29.6163933,20.9359499 30.5577113,20.0491577 31.2601874,19.0356809 C32.8056349,16.8912801 33.0866253,14.150406 31.9907626,11.7711108 C31.3585341,10.5201004 30.3469685,9.47231317 29.5601952,8.29784135 C28.4221839,6.53877288 27.8321039,4.50654074 26.595746,2.78046306 C25.359388,1.05570501 23.181712,-0.332547077 20.7651942,0.0804975067 C19.8238762,0.24149252 18.9528058,0.662454891 18.0114878,0.880194049 C16.0024061,1.35394167 14.0214234,0.823449905 12.0123417,0.695445673 C5.59170993,0.269204776 5.53551184,4.57252231 5.21237282,8.7478356" id="Path"></path>
                                </g>
                                <g id="Group" transform="translate(56.000000, 123.000000)" fill="#F8BBD0">
                                    <path d="M25.351722,30.1384902 C25.5978552,28.8956526 25.999441,27.6888766 26.5564794,26.5490722 C27.7094192,24.4317405 29.7950744,22.9931399 31.2589194,21.0780108 C32.7227643,19.1628818 33.3963921,16.1659044 31.6475508,14.5147979 C30.7925617,13.7150029 29.5748499,13.4381012 28.6421346,12.7387636 C26.1419392,10.8893182 26.5564794,7.0783788 25.1962694,4.29390738 C23.6417438,1.10245492 19.6388403,-0.452058035 16.1282033,0.131367292 C12.6046119,0.713504705 9.61215009,3.11417757 7.52649488,5.9952426 C6.80104959,7.09383378 6.03674116,8.14992378 5.19470645,9.15964885 C4.32676298,10.0843716 3.25154942,10.846817 2.38360595,11.7908584 C0.427494546,13.9532671 -0.362722645,16.9193345 0.259087604,19.7604742 C0.621810248,21.3188509 1.39907306,22.7522998 1.90429389,24.2694633 C2.6815567,26.536193 2.83700926,28.9690638 3.69199835,31.2074594 C4.54698744,33.445855 6.37355505,35.5773537 8.757161,35.7434947 C9.68987637,35.8091784 10.6225917,35.5722021 11.5553071,35.5722021 C13.563236,35.5722021 15.3768493,36.6823845 17.2681888,37.353388 C23.3437931,39.5003417 24.2376453,34.713163 25.351722,30.1384902" id="Path"></path>
                                </g>
                                <g id="Group" transform="translate(24.000000, 86.000000)" fill="#AD1457">
                                    <path d="M4.33363906,0.0879253948 C4.33363906,0.0879253948 3.85212361,4.61996229 6.19951143,4.44799056 C8.54689925,4.27601883 10.0034835,0.965886322 10.0034835,0.965886322 L12.3267955,6.23623793 L10.7859461,10.2006388 L1.78160717,11.7470913 L0.0722273176,8.03224342 L4.33363906,0.0879253948 Z" id="Path"></path>
                                </g>
                                <g id="Group" transform="translate(65.000000, 119.000000)" fill="#FF9800">
                                    <path d="M1.53163577,7.20873901 L0.158480272,0.735854381 C0.114888035,0.451060627 0.376441462,0.190959974 0.746975484,0.144866187 C0.943140555,0.11852688 1.13930563,0.151451014 1.29187846,0.235407554 C1.44445129,0.319364094 1.55343189,0.446122007 1.575228,0.587695781 L2.9483835,7.09185833 C2.97017962,7.2317859 2.92658738,7.37500588 2.79581067,7.48530173 C2.68683007,7.59724378 2.51246112,7.66803067 2.31629605,7.68284653 C2.1419271,7.69930859 1.94576203,7.65815343 1.79318919,7.56925827 C1.66241248,7.48036311 1.55343189,7.35031278 1.53163577,7.20873901 Z" id="Path"></path>
                                </g>
                                <g id="Group" transform="translate(74.000000, 119.000000)" fill="#FF9800">
                                    <path d="M0.0400159614,7.04082593 L1.41081171,0.572879921 C1.4760877,0.278208927 1.84598497,0.0773717135 2.21588223,0.1234655 C2.60753816,0.1728517 2.89040078,0.449414421 2.82512479,0.744085415 L1.45432904,7.21203142 C1.41081171,7.36019002 1.3020184,7.49188655 1.14970776,7.57584309 C0.975638458,7.65979963 0.779810494,7.68778515 0.583982529,7.65486101 C0.214085263,7.58901275 -0.00350136407,7.32068106 0.0400159614,7.04082593" id="Path"></path>
                                </g>
                                <g id="Group" transform="translate(29.000000, 118.000000)" fill="#00BCD4">
                                    <path d="M0.100007055,1.80901651 C1.51260671,0.422252011 3.37523811,-0.161492874 5.18786599,0.213348384 C8.32558734,0.813390715 8.82562262,2.34090588 8.82562262,2.34090588 L6.52546035,3.1335544 C6.52546035,3.1335544 2.75019402,1.53788627 1.42510054,3.90990546 L0.100007055,1.80901651 Z" id="Path"></path>
                                </g>
                                <g id="Group" transform="translate(21.000000, 72.000000)" fill="url(#linearGradient-4)">
                                    <path d="M7.22845128,5.60552366 C7.18944884,6.57610495 7.20244965,7.62105046 7.74848374,8.4364926 C8.63253893,9.74940574 10.699668,9.8955699 12.01275,8.99422426 C13.3128311,8.09159648 13.9108685,6.42481222 13.9108685,4.85034218 C13.9108685,3.27458999 13.4038368,1.74243062 12.909806,0.244889071 L15.5619715,0.00128214173 C15.6139748,2.17964095 15.8219878,4.3503069 16.1860105,6.4978943 C16.2640154,7.16973657 16.4850292,7.81465386 16.8620527,8.37623194 C17.7981111,9.55964876 19.6182248,9.45835956 21.1263189,9.24167761 L20.7362946,24.8376497 L1.54709659,24.9017567 L0.143008928,13.3676097 C0.0520032466,12.9534779 0.0780048699,12.5226783 0.23401461,12.1252144 C0.494030843,11.7162112 0.858053569,11.38029 1.27407954,11.1443759 C2.84717775,9.93916271 3.96524755,8.24417134 4.42027596,6.33762659 C4.73229544,4.64263522 4.90130599,2.92841172 4.95330924,1.20777751 C5.36933521,0.784670741 6.31839446,0.866727811 7.592474,0.829545701 C7.54047075,2.40914432 7.30645615,4.00669292 7.22845128,5.60552366 Z" id="Path"></path>
                                </g>
                                <g id="Group" transform="translate(61.000000, 128.000000)" fill="url(#linearGradient-5)">
                                    <path d="M3.00268097,4.02578344 C2.7392879,6.36417512 4.60937867,8.32368485 5.37321857,10.5344805 C6.04487089,12.6944982 5.86049574,15.0263799 4.84643243,17.0522916 C3.83236913,19.0612774 2.38370726,20.8189771 0.592634401,22.1951909 C0.355580641,22.3332029 0.184375147,22.5610529 0.11852688,22.8266609 C0.11852688,22.9907128 0.15803584,23.1521608 0.23705376,23.2940788 C1.65937632,26.0998884 4.76741451,27.7273882 7.88862236,28.1948061 C11.0098302,28.662224 14.1837167,28.1388201 17.2917549,27.5919802 C19.6096138,27.1844543 22.0855087,26.6558423 23.6395278,24.9359006 C20.1759089,20.3580692 17.1073797,14.794624 18.2268002,9.18821273 C18.5560416,7.55680696 19.2408636,5.98008518 19.2408636,4.3200354 C19.2803725,-0.640583912 14.7500118,1.32413382 11.6814825,0.496061932 C8.59978364,-0.332009954 3.47678849,-0.111971985 3.00268097,4.02578344 Z" id="Path"></path>
                                </g>
                                <g id="Group" transform="translate(16.000000, 122.000000)" fill="url(#linearGradient-6)">
                                    <path d="M19.7233287,32.3362443 C22.2032758,31.3900687 24.5411425,30.0532823 26.6206814,28.3747113 C27.1502534,28.0738354 27.3698321,27.4285357 27.1631698,26.8531765 L25.2644604,14.930308 C26.0006947,18.8601699 26.9306748,22.7478036 28.0802336,26.5734146 L33.6084488,24.2561421 C33.1434588,20.39886 31.7743213,16.7210477 30.340602,13.1250525 C29.0877121,10.0067638 27.7573238,6.85020586 25.6132029,4.29144085 C24.2828147,2.70788334 20.7049744,-0.798376911 18.4187733,0.642660422 C16.2359032,2.02167509 17.1142178,7.55620858 17.1658834,9.73623942 C17.2046325,11.7262434 19.8137435,32.312491 19.7233287,32.3362443 Z M8.47315236,1.78941998 C7.19442967,3.12488682 6.41944622,4.86943934 5.72196112,6.59947592 C3.24201409,12.7093686 1.33038825,19.0462379 0.0258327816,25.526947 L5.32155301,26.9481899 C5.6057136,27.0590389 5.90279059,27.0761941 6.18695119,26.9956966 C6.70360682,26.7924734 6.81985434,26.1194615 6.84568712,25.5744538 L7.42692471,15.4185716 L7.49150666,28.0804335 C7.38817553,28.7481669 7.77566726,29.3908274 8.40857041,29.5834935 C10.2685307,30.573217 12.1930729,31.5880134 14.2726118,31.5497441 C14.4146921,31.5497441 13.7559562,13.542056 13.6784578,11.8977954 C13.5234612,8.58024244 13.4330464,5.26268945 13.123053,1.97416836 C12.8388924,-1.17315219 10.2039487,-0.00263926251 8.47315236,1.78941998 Z" id="Shape"></path>
                                </g>
                                <g id="Group" transform="translate(19.000000, 30.000000)" fill="url(#linearGradient-7)">
                                    <path d="M27.8734995,29.9981657 C27.8342779,29.9900169 27.7950562,29.9900169 27.7558346,29.9981657 C27.507431,30.036193 27.2721013,30.1584239 27.1021409,30.3444864 L26.8929589,30.5101771 C25.0103211,31.827554 22.5001373,31.6740864 20.7874598,30.1339777 C20.4736868,31.1797305 19.5715895,31.9239805 18.5256795,32.0231233 C17.4797696,32.120908 16.4730813,31.5532136 15.9762741,30.5821575 C15.2310633,31.8873113 13.6229768,32.3504304 12.3286632,31.636059 C12.041038,31.3970298 11.7011173,31.2408459 11.3481227,31.1824467 C10.9297587,31.1824467 10.6159857,31.5382743 10.2891389,31.7868104 C9.59622356,32.2295576 8.75949562,32.3327748 7.98813705,32.0706575 C7.21677848,31.8085403 6.6023064,31.2068929 6.3016073,30.4273317 C5.64791359,31.3440631 4.37974781,31.5287675 3.29461626,31.3196169 C2.52325769,31.1308382 1.764973,30.8985995 1.01976218,30.6269754 C0.719063073,30.5305489 0.41836397,30.4517779 0.104590992,30.3920206 C2.32714958,25.944176 5.73943071,21.6864682 7.62206858,17.1123183 C8.23654066,15.5708516 9.03404697,14.7614117 9.3216722,13.1275928 C9.50470644,12.1524623 8.40650102,8.98125088 8.62875688,7.65572527 C8.64183075,7.43842599 8.75949562,7.24149852 8.92945598,7.11926767 C7.98813705,7.65572527 7.04681812,7.73857062 6.17086856,8.28453506 C6.17086856,8.28453506 3.85679285,5.66064625 3.97445771,4.54291308 C5.96168657,3.46999788 7.80510281,1.88507126 9.79233167,0.81215606 C10.1584001,0.617944829 13.7798633,-0.16297446 14.5120002,0.164332581 C15.7017227,0.710297023 16.4861552,0.875987724 17.7150993,0.471267814 C18.2903498,0.316442077 18.891748,0.253968534 19.4800723,0.285205305 C20.5782778,0.285205305 23.8075247,1.06612459 25.7032364,3.40209186 C26.2392652,4.07571963 27.5728004,5.93362847 27.5728004,6.8164068 C27.5728004,7.69918513 26.2000436,9.30312544 25.3633157,9.18632708 C24.6965481,8.48961126 23.4545301,7.87981515 22.7223931,7.23606604 C22.3301769,9.95230704 22.1732904,10.9179307 21.7941481,13.6300974 C21.6764832,14.1679131 21.6503354,14.7220262 21.7287787,15.2679907 C21.8072219,15.6373995 21.9248868,15.9959433 22.0817733,16.3368315 C24.0036328,20.8946839 25.9254923,25.448462 27.8734995,29.9981657 Z" id="Path"></path>
                                </g>
                                <g id="Group" transform="translate(48.707389, 72.368231) scale(-1, 1) rotate(-80.524783) translate(-48.707389, -72.368231) translate(47.707389, 71.368231)" fill="#68E1FD">
                                    <path d="M0.254794504,0.400002175 C0.20752194,0.480749079 0.112976813,0.619172343 0.0657042488,0.769130879 L0.254794504,0.907554143 L1.90933424,1.92265808 C1.53115373,0.469213807 0.774792707,-0.442072681 0.254794504,0.400002175" id="Path"></path>
                                </g>
                                <g id="Group" transform="translate(62.000000, 132.000000)" fill="#FFE0B2">
                                    <path d="M7.6630406,14.6896171 C4.37530866,19.4193124 3.52524869,21.4929418 3.52524869,21.4929418 L1.43760142,19.8587398 C0.912564378,19.2958046 0.46253263,18.6509644 0.125008819,17.9489206 C0.0500035276,17.8072117 0,17.6460016 0,17.4821914 C0.0625044095,17.2169749 0.225015874,16.9894607 0.450031748,16.8516521 C2.15015169,15.4774663 3.53774958,13.7223567 4.4878166,11.7163315 C5.45038451,9.69340516 5.63789774,7.36365972 4.98785188,5.20812515 C4.40031043,3.43351436 3.15022224,1.8084129 2.81269843,0.0351021914 C2.91270548,0.202812662 4.63782718,2.89658083 5.50038803,2.96158489 C5.47538627,2.99018668 10.9507725,9.95602156 7.6630406,14.6896171" id="Path"></path>
                                </g>
                                <g id="Group" transform="translate(66.000000, 127.000000)" fill="#FFE0B2">
                                    <path d="M13.517003,4.86108367 C13.4824326,5.94412304 13.3441513,7.01679131 13.1021589,8.05241992 C13.1021589,8.05241992 13.517003,4.69514604 12.9177837,2.98243262 C12.3185645,1.2697192 10.7283289,1.62529984 10.4863365,1.53047834 C10.2558676,1.43417525 8.49278021,1.98236207 7.25977141,1.29638775 C6.01523917,0.608931847 5.28926203,0.705234937 3.45703401,0.502257655 C1.61328254,0.300761959 0.0576172334,2.09940737 0.0576172334,2.09940737 C0.806641268,0.906730634 2.01660317,0.311133061 3.29570575,0.114082122 C4.50566765,-0.0607450261 5.73867645,0.0607450261 6.91406801,0.471144349 C9.58750764,1.4504727 13.5515733,-0.785240581 13.517003,4.86108367" id="Path"></path>
                                </g>
                                <g id="Group" transform="translate(56.000000, 92.000000)" fill="url(#linearGradient-8)">
                                    <path d="M25.2828442,17.5857909 L26.3003403,17.5857909 C26.4548966,15.9061662 25.7207539,14.2935657 25.1282879,12.7238606 C23.8274385,9.31099196 22.5652283,5.50402145 22.4235516,1.84450402 C22.4879501,1.30831099 22.5909877,0.778820375 22.745544,0.261394102 C22.5523486,0.107238606 22.3076343,0.0388739946 22.0629201,0.0737265416 C15.7261094,0.150134048 9.37641905,0.247989276 3.02672868,0.367292225 C3.16840534,0.45844504 3.52903684,0.289544236 3.36160079,0.285522788 C3.19416473,0.280160858 3.09112716,0.467828418 3.03960837,0.627345845 C1.05613511,6.10455764 0.0386390895,11.9142091 0.0643984825,17.769437 C2.83353323,18.1018767 8.30740424,18.6313673 8.55211848,18.6208038 C14.2449443,18.347185 19.5900184,17.7024129 25.2828442,17.5857909 Z" id="Path"></path>
                                </g>
                                <g id="Group" transform="translate(58.318072, 102.967899) scale(-1, 1) rotate(-14.356762) translate(-58.318072, -102.967899) translate(55.818072, 94.967899)" fill="#FFE0B2">
                                    <path d="M2.47381096,1.012092 C2.47381096,1.012092 1.92751144,11.4881762 0.041477352,14.8404711 L2.47381096,15.190672 C2.47381096,15.190672 4.84110892,5.24835123 3.83955978,0.0161675082 L2.47381096,1.012092 Z" id="Path"></path>
                                </g>
                                <g id="Group" transform="translate(60.772333, 103.756520) scale(-1, 1) rotate(149.983664) translate(-60.772333, -103.756520) translate(56.272333, 97.256520)" fill="#FF9800">
                                    <path d="M0.115029372,12.6854361 L0.947485594,12.6854361 C0.947485594,12.6854361 6.57957222,1.58706454 8.7647698,1.20822277 L6.20236549,0.0352453139 C6.20236549,0.0352453139 3.49688277,2.75874014 0.115029372,12.6854361" id="Path"></path>
                                </g>
                                <g id="Group" transform="translate(64.054469, 103.527805) scale(-1, 1) rotate(-10.620672) translate(-64.054469, -103.527805) translate(61.554469, 95.527805)" fill="#FFE0B2">
                                    <path d="M3.37310227,1.028112 C3.37310227,1.028112 1.99434683,11.5705873 0.108313445,14.912466 L3.37310227,15.2066867 C3.37310227,15.2066867 5.74039934,5.26306779 4.75185771,0.033489732 L3.37310227,1.028112 Z" id="Path"></path>
                                </g>
                                <g id="Group" transform="translate(65.474722, 103.698470) scale(-1, 1) rotate(153.865042) translate(-65.474722, -103.698470) translate(60.474722, 97.198470)" fill="#FF9800">
                                    <path d="M0.94370941,12.5076627 L1.77616546,12.5076627 C1.77616546,12.5076627 7.36922955,1.39367107 9.5674338,1.01482938 L7.7984647,0.00588671169 C7.7984647,0.00588671169 4.32556211,3.73832364 0.94370941,12.5076627" id="Path"></path>
                                </g>
                                <g id="Group" transform="translate(69.710357, 102.958329) scale(-1, 1) rotate(-11.363217) translate(-69.710357, -102.958329) translate(66.710357, 94.958329)" fill="#FFE0B2">
                                    <path d="M3.48587255,1.04284436 C3.48587255,1.04284436 1.97704577,11.5670941 0.0389837825,14.8855395 L3.48587255,15.9218214 C3.48587255,15.9218214 5.80114123,5.3038376 4.87763518,0.0677499729 L3.48587255,1.04284436 Z" id="Path"></path>
                                </g>
                                <g id="Group" transform="translate(72.384242, 103.648575) scale(-1, 1) rotate(153.721676) translate(-72.384242, -103.648575) translate(67.384242, 97.148575)" fill="#FF9800">
                                    <path d="M0.0367209755,12.5258318 L0.869177026,12.5258318 C0.869177026,12.5258318 7.28169004,1.81020977 9.46688717,1.43136808 L6.91749051,0.0370744072 C6.91749051,0.0370744072 3.4315808,3.76300203 0.0367209755,12.5258318" id="Path"></path>
                                </g>
                                <g id="Group" transform="translate(76.559595, 103.050012) scale(-1, 1) rotate(-3.338194) translate(-76.559595, -103.050012) translate(73.559595, 95.550012)" fill="#FFE0B2">
                                    <path d="M3.5908165,0.0882243308 C3.5908165,0.0882243308 3.9290017,8.71565851 0.0398719915,14.1548346 L3.5908165,14.7003144 C3.5908165,14.7003144 6.51741912,5.22406677 4.86551453,0.16373228 L3.5908165,0.0882243308 Z" id="Path"></path>
                                </g>
                                <g id="Group" transform="translate(79.476219, 102.864510) scale(-1, 1) rotate(172.651628) translate(-79.476219, -102.864510) translate(75.476219, 95.864510)" fill="#FF9800">
                                    <path d="M0.0379136598,13.7945566 L1.3516336,13.7945566 C1.3516336,13.7945566 5.4748932,1.56616936 7.42596242,0.502548324 L4.56439424,0.0117464501 C4.56439424,0.0117464501 0.415120375,4.40162422 0.0379136598,13.7945566" id="Path"></path>
                                </g>
                                <g id="Group" transform="translate(69.673161, 94.205768) scale(-1, 1) rotate(94.454816) translate(-69.673161, -94.205768) translate(67.673161, 84.205768)" fill="#FF9800">
                                    <path d="M1.49846138,0.0621848246 C1.49846138,0.0621848246 3.47554469,14.7823342 3.00728812,19.4195653 L1.49846138,19.8661039 L0.00264177985,0.329066458 L1.49846138,0.0621848246 Z" id="Path"></path>
                                </g>
                                <g id="Group" transform="translate(61.000000, 42.000000)" fill="url(#linearGradient-9)">
                                    <path d="M23.2444382,1.63400977 C23.1390809,10.4342266 22.9151968,28.5801981 22.7439913,28.753364 C22.5596162,28.92653 17.0942101,28.800236 14.7236725,28.710398 C14.4339401,21.734283 14.1573774,14.75947 13.8939843,7.78335493 C11.6419736,14.249086 9.81139175,20.8541311 8.4417478,27.5555242 C8.45491745,27.8081122 8.33639057,28.0489821 8.12567612,28.1895981 C7.91496167,28.3315161 7.63839895,28.3510461 7.41451484,28.2429801 C4.96495932,27.7521262 2.42321622,26.7326603 0.0790179201,27.5555242 C0.526786134,23.8812807 1.10625088,20.2213592 1.83058182,16.5770617 C2.44955552,13.3142502 3.20022577,10.0709686 4.06942289,6.84721706 C4.28013734,6.09986916 4.43817318,5.34080326 4.54353041,4.57522737 C4.62254833,4.06614544 4.66205729,3.55185551 4.67522694,3.03756558 C4.67522694,2.31235168 4.42500353,1.16659184 4.97812897,0.572879921 C5.281031,0.235661967 6.45313014,0.105242821 8.08616716,0.105242821 C13.3145195,0.0859319881 23.2444382,1.37751581 23.2444382,1.63400977 Z" id="Path"></path>
                                </g>
                                <g id="Group" transform="translate(68.000000, 52.000000)" fill="#006064">
                                    <path d="M3.59531537,0.0839565401 L3.59531537,0.558064061 C3.59531537,0.558064061 2.52857344,4.3929025 0.223884107,4.68551573 L0.0526786134,4.33116975 C0.131696534,3.84718499 0.171205494,3.36073092 0.184375147,2.87180753 C0.184375147,2.18533935 -0.0658482668,1.09884295 0.487277174,0.535840271 C0.803348855,0.216064625 1.96227835,0.0925991252 3.59531537,0.0839565401" id="Path"></path>
                                </g>
                                <g id="Group" transform="translate(79.000000, 51.000000)" fill="#006064">
                                    <path d="M0.0740793001,0.146512394 C0.0740793001,0.146512394 -0.666713701,5.9987771 3.45209539,7.32891209 L3.45209539,0.826395748 L0.0740793001,0.146512394 Z" id="Path"></path>
                                </g>
                                <g id="Group" transform="translate(75.455712, 55.058912) scale(-1, 1) rotate(4.508105) translate(-75.455712, -55.058912) translate(73.955712, 51.558912)" fill="#006064">
                                    <path d="M1.93591569,0.0586695995 C1.93591569,0.0586695995 3.13257098,4.14651376 2.9114499,4.73625688 C2.63830032,5.34422606 2.30011513,5.92745987 1.93591569,6.4833546 L0.0889042673,0.0118025964 L1.93591569,0.0586695995 Z" id="Path"></path>
                                </g>
                                <g id="Group" transform="translate(43.000000, 174.678563)" fill="#FFFFFF">
                                    <path d="M2.46832228,0.00493862001 L21.5852265,0.00493862001 C22.8949485,0.00370396501 23.9528009,1.04328348 23.9528009,2.32485537 L23.9528009,2.32609002 C23.9528009,3.60642726 22.8949485,4.64600677 21.5852265,4.64600677 L2.46832228,4.64600677 C1.15860025,4.64600677 0.100747848,3.60642726 0.100747848,2.32485537 L0.100747848,2.32609002 C0.100747848,1.04328348 1.15860025,0.00370396501 2.46832228,0.00370396501" id="Path"></path>
                                </g>
                            </g>
                            <g id="Group-23" transform="translate(221.960796, 61.000000)">
                                <g id="Group" fill="#F8BBD0">
                                    <path d="M25.0029984,36.8060384 C35.2568082,36.8060384 43.5685057,28.5761167 43.5685057,18.4258801 C43.5685057,8.27564341 35.2568082,0.0457217868 25.0029984,0.0457217868 C18.4296952,0.0457217868 12.6712643,3.42778925 9.37103147,8.528458 C6.4782348,8.06048206 2.07792437,6.14016702 0,3.65774294 C0.964265557,7.05729227 3.65334415,11.6200576 7.14371384,13.4099311 C6.69553408,15.0048146 6.43749118,16.6871074 6.43749118,18.4258801 C6.43749118,28.5761167 14.7491887,36.8060384 25.0029984,36.8060384 Z M22.6127064,23.1849802 L16.5283265,29.2121875 C16.2702836,29.4717259 15.9307535,29.5618247 15.6455482,29.5618247 L15.631967,29.5618247 C15.2788557,29.5577904 14.9664879,29.454244 14.6812826,29.3009415 C14.3824961,29.1489838 14.0972908,28.936512 13.8256667,28.6769736 L13.8256667,28.6769736 C13.5676238,28.4174353 13.3503245,28.135036 13.2009313,27.8405339 C13.051538,27.5433423 12.9428884,27.2394269 12.9428884,26.8897897 C12.9293072,26.6114247 13.0243756,26.2617875 13.2959997,26.0022491 L19.3803796,19.9723523 C19.5297728,19.8230841 19.7199097,19.7491224 19.9236278,19.7491224 C20.1273458,19.7491224 20.3174827,19.8230841 20.466876,19.9723523 L20.996543,20.491429 L21.6212784,19.8714954 C20.2088331,18.1999607 19.4890292,16.1344117 19.4890292,14.0715523 C19.4890292,11.7679811 20.3718075,9.46172035 22.1509454,7.70412108 C23.9300833,5.95055608 26.2524693,5.0697393 28.5748554,5.0697393 L28.5884366,5.0697393 C30.9108226,5.0697393 33.2332087,5.95055608 35.0123466,7.70412108 C36.7779032,9.46172035 37.6742627,11.7720153 37.6742627,14.0715523 C37.6742627,16.3751235 36.7779032,18.6827289 35.0123466,20.4403282 C33.2332087,22.1938932 30.8972414,23.0773995 28.5748554,23.0773995 L28.5748554,23.0773995 C26.496931,23.0773995 24.4054254,22.3687118 22.721356,20.9567155 L22.0966206,21.5766491 L22.6127064,22.0970706 C22.7620996,22.2382702 22.8435868,22.4386392 22.8435868,22.6390083 C22.8435868,22.8434115 22.7620996,23.041091 22.6127064,23.1849802 Z M15.5504798,28.0086287 L20.9693806,22.6390083 L19.9236278,21.6021995 L14.504727,26.9677857 C14.5454706,27.1089853 14.6948638,27.3658342 14.9257443,27.5917536 C15.0887188,27.7477456 15.2516932,27.8674291 15.3875053,27.9373565 L15.5504798,28.0086287 Z M28.5748554,21.5403406 C30.5169677,21.5403406 32.4319176,20.8114815 33.9122689,19.3510739 L34.4555171,19.8943563 L33.9122689,19.3510739 C35.3926203,17.8906662 36.1260054,15.9851435 36.1260054,14.0715523 C36.1260054,12.157961 35.3926203,10.2524383 33.9122689,8.79203065 C32.4319176,7.33162299 30.5169677,6.60410868 28.5748554,6.60410868 C26.6463243,6.60410868 24.7177931,7.33162299 23.251023,8.79203065 C21.7706717,10.2524383 21.0372866,12.157961 21.0372866,14.0715523 C21.0372866,15.9851435 21.7706717,17.8906662 23.251023,19.3510739 C24.7177931,20.8114815 26.6463243,21.5403406 28.5748554,21.5403406" id="Shape"></path>
                                </g>
                                <g id="Group" transform="translate(20.000000, 6.000000)" fill="#E91E63">
                                    <path d="M9.00982525,17.9594959 L9.00982525,17.9594959 C11.2957008,17.9594959 13.594944,17.0799017 15.3461119,15.3367545 C17.083912,13.589597 17.9661797,11.2970376 17.9661797,9.00715172 C17.9661797,6.7199394 17.083912,4.4233697 15.3461119,2.67621219 C13.594944,0.933064989 11.3090685,0.057481081 9.02319295,0.057481081 L9.00982525,0.057481081 C6.72394971,0.057481081 4.43807416,0.933064989 2.68690634,2.67621219 C0.935738528,4.4233697 0.0668384663,6.71726586 0.0668384663,9.00715172 C0.0668384663,11.0564191 0.775326209,13.1096968 2.16556631,14.771301 L2.68690634,14.2553081 C2.83395097,14.1069267 3.03446637,14.0334044 3.22161407,14.0334044 C3.42212947,14.0334044 3.62264487,14.1069267 3.7696895,14.2553081 C4.06377875,14.5534076 4.06377875,15.0373181 3.7696895,15.3367545 L3.24834946,15.8500739 C4.90594342,17.2536817 6.96456819,17.9594959 9.00982525,17.9594959 Z M14.2633287,14.2553081 C12.8062501,15.7057028 10.9214054,16.4302318 9.00982525,16.4302318 C7.11161281,16.4302318 5.21340037,15.7057028 3.7696895,14.2553081 C2.31261093,12.8035766 1.5907555,10.9093745 1.5907555,9.00715172 C1.5907555,7.10492897 2.31261093,5.20939006 3.7696895,3.75899534 C5.21340037,2.30726386 7.11161281,1.58273488 9.00982525,1.58273488 C10.9214054,1.58273488 12.8062501,2.30726386 14.2633287,3.75899534 C15.7204073,5.20939006 16.4422627,7.10492897 16.4422627,9.00715172 C16.4422627,10.9093745 15.7204073,12.8035766 14.2633287,14.2553081 L14.7980364,14.7940261 L14.2633287,14.2553081 Z" id="Shape"></path>
                                </g>
                                <g id="Group" transform="translate(14.000000, 20.000000)" fill="#E91E63">
                                    <path d="M2.74340341,9.94008396 C3.02860872,9.94008396 3.36813885,9.84908988 3.62618174,9.58697263 L9.71056159,3.50123466 C9.85995485,3.35455764 9.94144208,3.15627205 9.94144208,2.94983773 C9.94144208,2.74611966 9.85995485,2.5437597 9.71056159,2.40115705 L9.1944758,1.87556441 L8.63764639,2.4242451 C8.48825314,2.57771271 8.29811627,2.65240934 8.09439819,2.65240934 C7.89068012,2.65240934 7.70054325,2.57771271 7.55114999,2.4242451 C7.23878228,2.12410047 7.23878228,1.63246084 7.55114999,1.32824185 L8.09439819,0.780919289 L7.5647312,0.255326654 C7.41533794,0.104575279 7.22520107,0.0298786511 7.021483,0.0298786511 C6.81776492,0.0298786511 6.62762805,0.104575279 6.4782348,0.255326654 L0.393854946,6.34513899 C0.122230845,6.60725624 0.02716241,6.96036757 0.0407436151,7.24149852 C0.0407436151,7.59460985 0.149393255,7.90154508 0.298786511,8.20168971 C0.448179766,8.4991181 0.665479046,8.78432341 0.923521942,9.04644067 L0.923521942,9.04644067 C1.19514604,9.30991604 1.48035135,9.52314096 1.77913786,9.67660858 C2.06434316,9.83143432 2.37671088,9.9360096 2.72982221,9.94008396 L2.74340341,9.94008396 Z M8.06723578,2.94983773 L2.64833498,8.37145478 L2.48536052,8.29947439 C2.34954847,8.22885212 2.18657401,8.1079794 2.02359955,7.95043742 C1.79271906,7.72227318 1.64332581,7.46287216 1.60258219,7.32026951 L7.021483,1.90272682 L8.06723578,2.94983773 Z" id="Shape"></path>
                                </g>
                            </g>
                            <g id="Group-11" transform="translate(173.960796, 68.000000)">
                                <g id="Group" transform="translate(68.000000, 12.000000)" fill="#E91E63">
                                    <path d="M0.977846762,3.67433329 C1.20008466,3.67433329 1.4075067,3.59284606 1.57048116,3.42542684 L2.17793142,2.82686609 L2.85946098,2.14385495 L3.43727953,1.57492592 C3.76322845,1.24305066 3.76322845,0.706716523 3.43727953,0.374841259 C3.27430507,0.211866798 3.05206717,0.130379568 2.82982926,0.130379568 C2.62240722,0.130379568 2.40016932,0.211866798 2.23719486,0.374841259 L1.65937632,0.948215042 L0.977846762,1.63122619 L0.385212361,2.22978693 C0.0444475801,2.5616622 0.0444475801,3.09799633 0.385212361,3.42542684 C0.548186821,3.59284606 0.755608861,3.67433329 0.977846762,3.67433329" id="Path"></path>
                                </g>
                                <g id="Group" transform="translate(31.500000, 149.500000) scale(-1, 1) rotate(-90.000000) translate(-31.500000, -149.500000) translate(27.000000, 118.000000)" fill="#B2EBF2" fill-rule="nonzero">
                                    <path d="M4.51142938,0.120564061 C6.98752998,0.120564061 8.98396712,14.0295083 8.98396712,31.1820146 C8.98396712,48.3384101 6.98752998,62.2460579 4.51142938,62.2460579 C2.04829265,62.2460579 0.0518555101,48.3384101 0.0518555101,31.1820146 C0.0518555101,14.0295083 2.04829265,0.120564061 4.51142938,0.120564061" id="Path"></path>
                                </g>
                                <g id="Group" transform="translate(43.000000, 75.000000)" fill="#E3BDB3" fill-rule="nonzero">
                                    <path d="M1.20173087,7.67654155 C1.5803584,7.47652744 2.40346174,7.32585015 3.29241334,7.78988288 C3.67104087,7.66054043 4.18136494,7.23384366 4.75753727,7.18984055 C5.03739241,6.83248201 6.38728188,4.97901792 6.14035088,4.26430083 C5.87695781,3.54958374 5.54771648,3.48691266 4.97154414,3.79626781 C4.39537181,4.10562297 3.40764781,5.22570199 2.38699967,4.55232115 C3.01255821,4.03228446 5.15262688,2.19082122 6.09096468,0.00933399182 C6.09096468,0.00933399182 6.00865434,0.469366446 5.99219228,0.734718499 C5.84403368,2.5401792 7.49024035,5.87374771 7.45731621,6.06576125 C7.42439208,6.2577748 6.74944734,7.47386059 6.63421288,7.50586285 C6.50251634,7.53919853 5.79464748,7.73521236 5.35017168,7.71254409 C4.36244767,7.3818541 3.53934434,7.92589248 3.47349607,8.16990969 C3.68750294,8.19124453 4.98800621,8.54860308 5.53125441,8.68194582 C4.59291661,8.70728094 3.40764781,8.84062368 2.96317201,8.66327783 C2.88086167,8.63394243 2.79855134,8.59660646 2.69977894,8.55260336 L2.716241,8.56327078 C2.14006867,8.49393255 0.115234467,8.27658389 0.115234467,8.27658389 C0.263393067,7.87522224 0.773717135,7.67920841 1.20173087,7.67654155" id="Path"></path>
                                </g>
                                <g id="Group" transform="translate(47.000000, 71.000000)" fill="#FFF3E0" fill-rule="nonzero">
                                    <path d="M4.88923381,1.96791661 C4.81515451,2.17706717 4.28425286,2.9281078 4.27190631,3.90052208 C4.24721321,4.86750388 4.03732186,7.38545929 3.91385636,7.74264498 C3.77804431,8.09847256 2.80266685,9.8966241 2.62981515,10.0202131 C2.46931,10.143802 1.71617045,10.4059193 1.5062791,10.3543107 C1.2840412,10.2972696 0.1728517,9.87353605 0.01234655,9.850448 C0.0617327501,9.63043248 0.580287851,8.99211585 1.41985325,9.38597079 C1.71617045,9.40498448 2.0248342,9.28411175 2.11126005,9.2542331 C2.1976859,9.22028009 2.6421617,8.12563497 2.65450825,7.95179554 C2.67920135,7.77931424 1.6050515,4.77107732 1.6791308,3.13454212 C1.7779032,1.29564696 2.30880485,0.818946663 2.2470721,0.0013581205 L4.90158036,0.0203718075 C4.88923381,0.942535629 4.95096656,1.76148229 4.88923381,1.96791661" id="Path"></path>
                                </g>
                                <g id="Clipped" transform="translate(7.000000, 23.000000)">
                                    <mask id="mask-11" fill="white">
                                        <use xlink:href="#path-10"></use>
                                    </mask>
                                    <g id="Path"></g>
                                    <g id="Group" mask="url(#mask-11)">
                                        <g transform="translate(-212805.801772, -23010.331301)">
                                            <g transform="translate(319240.028826, 11827.806866) scale(-1, 1) rotate(-174.107548) translate(-319240.028826, -11827.806866) translate(212302.528826, 10974.806866)">
                                                <rect id="Rectangle" fill="#00BCD4" x="0.222826237" y="-0.00145513138" width="213874.322" height="1705.83238"></rect>
                                            </g>
                                            <g transform="translate(106460.533140, 34247.681279) rotate(174.107548) translate(-106460.533140, -34247.681279) translate(-476.966860, 33394.681279)">
                                                <rect id="Rectangle" fill="#B2EBF2" x="0.0416975518" y="-0.000666466823" width="213874.322" height="1705.83238"></rect>
                                            </g>
                                            <g transform="translate(212830.360450, 23034.862312) rotate(174.107548) translate(-212830.360450, -23034.862312) translate(212784.360450, 22986.362312)">
                                                <rect id="Rectangle" stroke="#979797" fill="url(#linearGradient-12)" x="0.955347534" y="-0.00183691025" width="90.9090909" height="96.0869565"></rect>
                                            </g>
                                        </g>
                                    </g>
                                </g>
                                <g id="Group" transform="translate(13.000000, 144.000000)" fill="#00BCD4" fill-rule="nonzero">
                                    <path d="M18.2975871,7.78958657 L13.2689495,7.78958657 L13.2689495,6.26612107 L11.7718742,7.78958657 L0.0639775774,7.78958657 C0.0639775774,6.3751658 0.639775774,4.97812897 1.5738484,4.66837872 C2.49512552,4.35862847 6.99914697,4.03149429 7.79246893,3.53684211 C8.31708506,3.21919007 10.4155496,1.68150134 12.1813307,0.0885000706 L18.2975871,0.0885000706 L18.2975871,7.78958657 Z" id="Path"></path>
                                </g>
                                <g id="Group" transform="translate(33.000000, 144.000000)" fill="#00BCD4" fill-rule="nonzero">
                                    <path d="M17.8160717,7.78958657 L12.409341,7.78958657 L12.409341,6.26612107 L10.7997037,7.78958657 L0.0687879215,7.78958657 C0.0687879215,6.3751658 0.674121631,4.97812897 1.67842529,4.66837872 C2.66897136,4.35862847 5.66812474,4.03149429 6.53485255,3.53684211 C7.08515592,3.21919007 9.35515733,1.68150134 11.253704,0.0885000706 L17.8160717,0.0885000706 L17.8160717,7.78958657 Z" id="Path"></path>
                                </g>
                                <g id="Group" transform="translate(23.000000, 65.000000)" fill="#006064">
                                    <path d="M1.7165962,80.8125239 L7.91975063,80.8125239 C10.520654,66.3162648 11.4049611,57.6357761 9.51930618,48.2463024 C10.5856765,45.6379699 13.4076567,34.3870834 14.6170767,21.3650424 C15.8525058,33.4504906 17.7771742,51.8540161 18.6614814,58.4559489 L18.6614814,58.4559489 C19.4807659,66.3528913 21.0803215,75.3917968 21.6915338,80.8125239 L27.9467063,80.8125239 L27.9467063,0.0392427154 C27.9467063,0.0392427154 27.5825798,0.0392427154 26.932354,0.0418588964 C22.5758409,0.0601721636 5.3968744,0.139965685 0.11704065,0.23022393 C0.11704065,0.847642653 0.130045166,1.52000118 0.130045166,2.23291051 L0.169058716,7.84069454 L0.130045166,3.63779972 C0.260090333,23.1178837 1.30045166,70.4014315 1.7165962,80.8125239" id="Path"></path>
                                </g>
                                <g id="Clipped" transform="translate(22.000000, 67.000000)">
                                    <mask id="mask-14" fill="white">
                                        <use xlink:href="#path-13"></use>
                                    </mask>
                                    <g id="Path"></g>
                                    <g id="Group" mask="url(#mask-14)">
                                        <g transform="translate(-0.469122, -1233.482009)">
                                            <g transform="translate(23441.165781, 1234.182447) rotate(-180.000000) translate(-23441.165781, -1234.182447) translate(0.665781, 0.182447)">
                                                <rect id="Rectangle" fill="#FFFFFF" x="0.0196476083" y="0" width="46880.9399" height="2467.17652"></rect>
                                            </g>
                                        </g>
                                    </g>
                                </g>
                                <g id="Group" transform="translate(28.000000, 0.000000)" fill="#FFF3E0" fill-rule="nonzero">
                                    <path d="M7.72070928,0.23705376 C15.4298951,1.61986736 14.4619256,9.91148112 12.6181741,14.6828465 C12.330088,15.4427355 11.9613377,16.2934951 11.3160246,17.0257279 L11.1086026,23.6803537 L2.43144725,21.9854193 C2.43144725,21.9854193 2.80019754,19.263252 2.80019754,18.4440995 C1.49804807,18.2149476 0.1728517,17.855416 0.1728517,17.1969334 C0.195898594,13.9400781 -1.29062603,-1.37886271 7.72070928,0.23705376" id="Path"></path>
                                </g>
                                <g id="Group" transform="translate(34.567242, 24.356182) scale(-1, 1) rotate(-60.388397) translate(-34.567242, -24.356182) translate(30.067242, 17.856182)" fill="#00BCD4">
                                    <path d="M0.0806168674,0.117933614 L2.5649782,0.117933614 C3.69659828,1.2661756 7.15649416,6.28485231 8.84742072,10.5067897 C8.52224253,11.1420982 7.62475074,12.1927005 7.62475074,12.1927005 C7.62475074,12.1927005 2.60399958,6.60641214 0.0806168674,0.117933614" id="Path"></path>
                                </g>
                                <g id="Group" transform="translate(26.000000, 2.000000)" fill="#212121" fill-rule="nonzero">
                                    <path d="M4.88837905,5.63280478 C1.40209322,4.49068717 0,0.9632161 0,0.9632161 C1.61682821,1.76179096 1.71787998,0.0881543672 1.71787998,0.0881543672 C2.87997525,0.38632355 4.10522788,0.514665938 7.18730666,0.213903979 C14.6398742,-0.519851489 19.6798309,3.45228058 18.6945762,10.4761094 C16.9514333,22.7904967 10.4841204,21.8908036 9.42307692,16.3539315 C7.894669,8.31243827 6.8715199,9.33269543 6.47994432,10.4761094 C6.07573727,11.6143379 4.25680553,11.3278362 4.81259022,8.96841047 C5.36837492,6.60379921 5.82310786,5.93745591 4.88837905,5.63280478" id="Path"></path>
                                </g>
                            </g>
                        </g>
                    </g>
                </g>
            </g>
        </g>
    </g>
</svg>