<?xml version="1.0" encoding="UTF-8"?>
<svg width="468px" height="311px" viewBox="0 0 468 311" version="1.1" xmlns="http://www.w3.org/2000/svg" xmlns:xlink="http://www.w3.org/1999/xlink">
    <!-- Generator: Sketch 64 (93537) - https://sketch.com -->
    <title>Banner-Background</title>
    <desc>Created with Sketch.</desc>
    <defs>
        <path d="M0.0716223901,0.0325811737 L388,-1.25455202e-13 L388,10 L379.071622,19 L10.9585975,20.0009309 C10.0331912,20.0009309 8.75268704,19.4874516 8.10032938,18.8553768 L1.25528165,12.2218499 C0.59888879,11.5897751 0.0716223901,10.3503873 0.0716223901,9.45375335 L0.0716223901,0.0325811737 Z" id="path-1"></path>
        <linearGradient x1="-18.8795334%" y1="50%" x2="143.474656%" y2="50.9559248%" id="linearGradient-3">
            <stop stop-color="#F8BBD0" offset="0%"></stop>
            <stop stop-color="#FFE0B2" offset="100%"></stop>
        </linearGradient>
        <path d="M5.5499567,196.521013 L0.00129975567,196.521013 L0.00129975567,8.6606696 C0.00129975567,3.92714764 3.81088362,0.0903243957 8.50690085,0.0903243957 L324.948015,0.0903243957 C329.638834,0.0903243957 333.452317,3.92714764 333.452317,8.6606696 L333,198 L323,198 L327.90106,13.7999968 L5.5499567,13.7999968 L5.5499567,196.521013 Z" id="path-4"></path>
        <linearGradient x1="-51.485146%" y1="15.6188659%" x2="118.071147%" y2="68.1034973%" id="linearGradient-6">
            <stop stop-color="#E91E63" offset="0%"></stop>
            <stop stop-color="#F8BBD0" offset="100%"></stop>
        </linearGradient>
        <linearGradient x1="-0.00221454513%" y1="50.0006471%" x2="100%" y2="50.0006471%" id="linearGradient-7">
            <stop stop-color="#00BCD4" offset="0%"></stop>
            <stop stop-color="#B2EBF2" offset="100%"></stop>
        </linearGradient>
        <linearGradient x1="0%" y1="50%" x2="100%" y2="50%" id="linearGradient-8">
            <stop stop-color="#FF9800" offset="0%"></stop>
            <stop stop-color="#FFE0B2" offset="100%"></stop>
        </linearGradient>
        <linearGradient x1="0%" y1="50.0011105%" x2="100%" y2="50.0011105%" id="linearGradient-9">
            <stop stop-color="#FF9800" offset="0%"></stop>
            <stop stop-color="#FFE0B2" offset="100%"></stop>
        </linearGradient>
        <linearGradient x1="0%" y1="50.004082%" x2="100%" y2="50.004082%" id="linearGradient-10">
            <stop stop-color="#E91E63" offset="0%"></stop>
            <stop stop-color="#F8BBD0" offset="100%"></stop>
        </linearGradient>
        <path d="M53.2984267,92.3511177 L0.0693382249,92.3511177 L0.0693382249,90.6114959 L0.0653379427,90.6114959 L0.0653379427,0.0755800359 L53.302427,0.0755800359 L53.302427,5.38411679 L53.2984267,5.38411679 L53.2984267,90.6114959 L53.2944264,90.6114959 L53.2984267,90.615339 L53.2984267,92.3511177 Z M21.158826,0.919386301 L0.0693382249,0.919386301 L21.158826,0.919386301 Z" id="path-11"></path>
        <linearGradient x1="45.8838562%" y1="42.1429979%" x2="54.6777027%" y2="95.5004411%" id="linearGradient-13">
            <stop stop-color="#E91E63" offset="0%"></stop>
            <stop stop-color="#FF9800" offset="100%"></stop>
        </linearGradient>
        <linearGradient x1="14.7864201%" y1="-28.8343367%" x2="68.1388521%" y2="67.3712528%" id="linearGradient-14">
            <stop stop-color="#FF9800" offset="0%"></stop>
            <stop stop-color="#FFE0B2" offset="100%"></stop>
        </linearGradient>
    </defs>
    <g id="Landing" stroke="none" stroke-width="1" fill="none" fill-rule="evenodd">
        <g transform="translate(-350.000000, -134.000000)" id="Banner">
            <g transform="translate(0.000000, 134.000000)">
                <g id="Artwork">
                    <g id="Illustration" transform="translate(618.500000, 169.000000) scale(-1, 1) translate(-618.500000, -169.000000) ">
                        <g id="Banner-Background" transform="translate(419.000000, 0.000000)">
                            <g id="Group-15" transform="translate(0.000000, 81.000000)">
                                <g id="Group" transform="translate(206.000000, 219.500000) scale(-1, 1) rotate(90.000000) translate(-206.000000, -219.500000) translate(196.000000, 14.000000)" fill="#B2EBF2" fill-rule="nonzero">
                                    <path d="M9.81152003,0.0818263611 C4.39881388,0.0818263611 0.00792103339,91.8677366 0.00792103339,205.088755 C0.00792103339,318.315002 4.39881388,410.096468 9.81152003,410.096468 C15.2255463,410.096468 19.615119,318.315002 19.615119,205.088755 C19.615119,91.8677366 15.2255463,0.0818263611 9.81152003,0.0818263611" id="Path"></path>
                                </g>
                                <g id="Clipped" transform="translate(9.000000, 197.000000)">
                                    <mask id="mask-2" fill="white">
                                        <use xlink:href="#path-1"></use>
                                    </mask>
                                    <g id="Shape"></g>
                                    <g id="Group" mask="url(#mask-2)">
                                        <g transform="translate(-81331.683945, -850.738173)">
                                            <g transform="translate(40688.303117, 1132.327368) scale(-1, 1) rotate(0.380404) translate(-40688.303117, -1132.327368) translate(1.803117, 813.827368)">
                                                <rect id="Rectangle" fill="#E91E63" x="0.885137216" y="0.358039375" width="81371.5253" height="635.904692"></rect>
                                            </g>
                                            <g transform="translate(122373.677223, 589.560190) rotate(-0.380404) translate(-122373.677223, -589.560190) translate(81687.677223, 271.060190)">
                                                <rect id="Rectangle" fill="#F8BBD0" x="0.250662119" y="0.359051653" width="81371.5253" height="635.904692"></rect>
                                            </g>
                                            <g transform="translate(81530.165876, 861.923596) rotate(-0.380404) translate(-81530.165876, -861.923596) translate(81316.665876, 831.923596)">
                                                <g id="_Image15-link" transform="translate(0.007023, 0.884217)" fill="url(#linearGradient-3)" stroke="#979797">
                                                    <rect id="Rectangle" x="1.51309676e-12" y="2.52637417e-13" width="425.898876" height="58.8888889"></rect>
                                                </g>
                                            </g>
                                        </g>
                                    </g>
                                </g>
                                <g id="Group" transform="translate(48.000000, 17.000000)" fill="#FFFFFF">
                                    <rect id="Rectangle" x="0.0902890874" y="0.00907035666" width="319.896816" height="180.866799"></rect>
                                </g>
                                <g id="Clipped" transform="translate(43.000000, 0.000000)">
                                    <mask id="mask-5" fill="white">
                                        <use xlink:href="#path-4"></use>
                                    </mask>
                                    <g id="Path"></g>
                                    <g id="Group" mask="url(#mask-5)">
                                        <g transform="translate(-94310.915655, -19230.759076)">
                                            <g transform="translate(141741.543094, 28853.976249) scale(-1, 1) rotate(168.684873) translate(-141741.543094, -28853.976249) translate(93668.543094, 28475.476249)">
                                                <rect id="Rectangle" fill="#E91E63" x="0.865453205" y="0.374947114" width="96144.6262" height="756.246829"></rect>
                                            </g>
                                            <g transform="translate(47213.695947, 9803.953977) rotate(-168.684873) translate(-47213.695947, -9803.953977) translate(-859.304053, 9425.453977)">
                                                <rect id="Rectangle" fill="#F8BBD0" x="0.823473918" y="0.15725334" width="96144.6262" height="756.246829"></rect>
                                            </g>
                                            <g transform="translate(94496.926183, 19313.268564) rotate(-168.684873) translate(-94496.926183, -19313.268564) translate(94270.926183, 19154.268564)">
                                                <g id="_Image15-link" transform="translate(0.231669, 0.025271)" fill="url(#linearGradient-6)" stroke="#979797">
                                                    <rect id="Rectangle" x="-1.20412673e-11" y="-1.01801396e-12" width="450.563758" height="316.767045"></rect>
                                                </g>
                                            </g>
                                        </g>
                                    </g>
                                </g>
                                <g id="Group" transform="translate(62.000000, 91.000000)" fill="url(#linearGradient-7)" fill-rule="nonzero">
                                    <path d="M3.51693548,96.3666475 L3.51693548,3.40322552 L56.4140833,3.40322552 L56.4140833,96.3666475 L3.51693548,96.3666475 Z M0.0450549383,0.0245207755 L0.0450549383,99.7453523 L59.8833136,99.7453523 L59.8833136,0.0245207755 L0.0450549383,0.0245207755 Z" id="Shape"></path>
                                </g>
                                <g id="Group" transform="translate(62.000000, 75.000000)" fill="#FFE0B2" fill-rule="nonzero">
                                    <path d="M52.9263011,0.0529666996 L7.00471776,0.0529666996 C3.1631217,0.0529666996 0.0450549383,2.88307376 0.0450549383,6.37646836 C0.0450549383,9.86625159 3.1631217,12.6951549 7.00471776,12.6951549 L52.9263011,12.6951549 C56.7678971,12.6951549 59.8833136,9.86625159 59.8833136,6.37646836 C59.8833136,2.88307376 56.7678971,0.0529666996 52.9263011,0.0529666996" id="Path"></path>
                                </g>
                                <g id="Group" transform="translate(108.000000, 76.000000)" fill="#FF9800" fill-rule="nonzero">
                                    <path d="M0.0316071681,3.99002869 L1.84074126,3.99002869 C1.84074126,2.86270636 2.75283383,1.9506138 3.88467146,1.94609849 C5.015004,1.9506138 5.92860167,2.86270636 5.92860167,3.99002869 C5.92860167,5.12186633 5.015004,6.03395889 3.88467146,6.03395889 C2.75283383,6.03395889 1.84074126,5.12186633 1.84074126,3.99002869 L0.0316071681,3.99002869 C0.0361224778,6.11673957 1.75796059,7.84309299 3.88467146,7.84309299 C6.01138234,7.84309299 7.73623066,6.11673957 7.73623066,3.99002869 C7.73623066,1.86331781 6.01138234,0.142984808 3.88467146,0.142984808 C1.75796059,0.142984808 0.0361224778,1.86331781 0.0316071681,3.99002869" id="Path"></path>
                                </g>
                                <g id="Group" transform="translate(112.000000, 82.000000)" fill="#FF9800" fill-rule="nonzero">
                                    <path d="M0.297551856,1.34947792 L2.64463101,3.69532242 C2.93477494,3.98299704 3.40394384,3.98299704 3.69161846,3.69532242 C3.98052773,3.4051785 3.98052773,2.9360096 3.69161846,2.64586567 L1.3445393,0.300021166 C1.05809934,0.01234655 0.588930436,0.01234655 0.297551856,0.300021166 C0.011111895,0.590165091 0.011111895,1.05933399 0.297551856,1.34947792" id="Path"></path>
                                </g>
                                <g id="Group" transform="translate(136.000000, 76.000000)" fill="#F8BBD0" fill-rule="nonzero">
                                    <path d="M222.495232,111.703984 C222.495232,114.514572 220.178543,116.821228 217.337419,116.821228 L5.18010089,116.821228 C2.33766638,116.821228 0.0131108603,114.514572 0.0131108603,111.703984 L0.0131108603,5.20426325 C0.0131108603,2.38848019 2.33766638,0.085720333 5.18010089,0.085720333 L217.337419,0.085720333 C220.178543,0.085720333 222.495232,2.38848019 222.495232,5.20426325 L222.495232,111.703984 Z" id="Path"></path>
                                </g>
                                <g id="Group" transform="translate(136.000000, 73.000000)" fill="url(#linearGradient-8)" fill-rule="nonzero">
                                    <path d="M217.337419,0.111076619 L5.18403415,0.111076619 C2.34159964,0.111076619 0.0170441183,2.51276986 0.0170441183,5.44817271 L0.0170441183,11.5763511 L222.495232,11.5763511 L222.495232,5.44817271 C222.495232,2.51276986 220.178543,0.111076619 217.337419,0.111076619 Z" id="Path"></path>
                                </g>
                                <g id="Group" transform="translate(144.000000, 80.000000)" fill="#FFFFFF" fill-rule="nonzero">
                                    <path d="M3.79903344,3.07182165 C3.79903344,3.48666573 3.45950332,3.82372654 3.04712855,3.82372654 L0.800056441,3.82372654 C0.388916326,3.82372654 0.0481515451,3.48666573 0.0481515451,3.07182165 L0.0481515451,0.824749541 C0.0481515451,0.412374771 0.388916326,0.0728446451 0.800056441,0.0728446451 L3.04712855,0.0728446451 C3.45950332,0.0728446451 3.79903344,0.412374771 3.79903344,0.824749541 L3.79903344,3.07182165 Z" id="Path"></path>
                                </g>
                                <g id="Group" transform="translate(161.000000, 80.000000)" fill="#FFFFFF" fill-rule="nonzero">
                                    <path d="M0.0963030902,3.07182165 C0.0963030902,3.48666573 0.437067871,3.82372654 0.848207986,3.82372654 L3.09528009,3.82372654 C3.51135883,3.82372654 3.84718499,3.48666573 3.84718499,3.07182165 L3.84718499,0.824749541 C3.84718499,0.412374771 3.51135883,0.0728446451 3.09528009,0.0728446451 L0.848207986,0.0728446451 C0.437067871,0.0728446451 0.0963030902,0.412374771 0.0963030902,0.824749541 L0.0963030902,3.07182165 Z" id="Path"></path>
                                </g>
                                <g id="Group" transform="translate(150.000000, 80.000000)" fill="#FFFFFF" fill-rule="nonzero">
                                    <path d="M3.76322845,3.07182165 C3.76322845,3.48666573 3.42369832,3.82372654 3.01132355,3.82372654 L0.764251446,3.82372654 C0.349407366,3.82372654 0.01234655,3.48666573 0.01234655,3.07182165 L0.01234655,0.824749541 C0.01234655,0.412374771 0.349407366,0.0728446451 0.764251446,0.0728446451 L3.01132355,0.0728446451 C3.42369832,0.0728446451 3.76322845,0.412374771 3.76322845,0.824749541 L3.76322845,3.07182165 Z" id="Path"></path>
                                </g>
                                <rect id="Rectangle" fill="#FFFFFF" x="149" y="91" width="62" height="48"></rect>
                                <rect id="Rectangle" fill="#FFFFFF" x="149" y="140" width="62" height="48"></rect>
                                <rect id="Rectangle" fill="#FFFFFF" x="218" y="91" width="62" height="48"></rect>
                                <rect id="Rectangle" fill="#FFFFFF" x="218" y="140" width="62" height="48"></rect>
                                <rect id="Rectangle" fill="#FFFFFF" x="281" y="91" width="62" height="48"></rect>
                                <rect id="Rectangle" fill="#FFFFFF" x="281" y="140" width="62" height="48"></rect>
                                <g id="Group" transform="translate(235.000000, 148.000000)" fill="url(#linearGradient-9)" fill-rule="nonzero">
                                    <path d="M18.3115482,17.3037392 C18.2487233,14.5045294 20.5065749,7.15724566 20.5065749,7.15724566 C19.2795652,5.09635953 18.5731051,2.67850995 18.5731051,0.088598843 L17.1358243,0.088598843 L17.1358243,1.60890363 C17.1358243,4.6341047 15.2946687,7.08662339 12.3444606,7.08662339 C9.39681676,7.08662339 7.55566123,4.6341047 7.55566123,1.60890363 L7.55566123,0.088598843 L6.11581607,0.088598843 C6.11581607,2.67850995 5.40935597,5.09635953 4.18491062,7.15724566 C4.18491062,7.15724566 6.44276221,14.5045294 6.37609084,17.3037392 C6.37609084,20.507422 2.21682306,33.6726965 0.0628249449,37.1075067 C1.02955981,38.363299 2.84122608,37.3309299 4.68751018,37.5029914 C6.90817966,37.7071539 7.73387893,38.6316636 10.3020088,38.6316636 C12.8688566,38.6316636 13.6022416,37.6185551 16.3511535,37.6185551 C19.1039118,37.6185551 21.8989808,39.8990123 24.9645817,37.6185551 C22.5310767,32.007295 18.3115482,20.507422 18.3115482,17.3037392 Z" id="Path"></path>
                                </g>
                                <g id="Group" transform="translate(165.000000, 148.000000)" fill="url(#linearGradient-10)" fill-rule="nonzero">
                                    <path d="M12.2312332,0.092374188 L12.0220827,0.092374188 C11.3837661,0.395889377 0.0814872301,6.1468424 0.0814872301,6.1468424 L2.94983773,11.9413432 C3.93990758,11.4623171 6.05178496,10.4593973 6.05178496,12.4243283 L6.05178496,32.4207007 L26.6952166,32.4207007 L26.6952166,12.4243283 C26.6952166,10.4593973 28.8111683,11.4623171 29.7971638,11.9413432 L32.6695887,6.1468424 C32.6695887,6.1468424 21.3673099,0.395889377 20.7249189,0.092374188 L20.5198427,0.092374188 C19.2662974,0.414364215 17.8592846,0.595153697 16.3735008,0.595153697 C14.8877169,0.595153697 13.4847785,0.414364215 12.2312332,0.092374188 Z" id="Path"></path>
                                </g>
                                <g id="Group" transform="translate(175.000000, 150.000000)" fill="#AD1457" fill-rule="nonzero">
                                    <path d="M9.7241428,0 C9.55437773,2.05323127 7.67473896,3.67309863 5.37272471,3.67309863 C3.07478482,3.67309863 1.19514604,2.05323127 1.02538098,0 L1.02130662,0 C0.931670665,0.0395089601 0.608437985,0.19013687 0.131737689,0.416078736 C0.509295188,2.7409341 2.70809228,4.52871455 5.37272471,4.52871455 C8.04143149,4.52871455 10.2402286,2.7409341 10.6177861,0.416078736 C10.1410858,0.19013687 9.81785311,0.0395089601 9.7241428,0" id="Path"></path>
                                </g>
                                <g id="Group" transform="translate(294.000000, 153.000000)" fill="#006064" fill-rule="nonzero">
                                    <path d="M36.4436574,5.94393784 C34.6922252,7.71091435 32.9369409,7.95204247 31.1405672,7.95204247 C29.4276563,7.95204247 26.1520672,7.30125582 26.1520672,2.99076654 C26.1520672,-3.85675356 22.2948074,3.10744144 19.3697615,6.05931635 C16.4485678,9.01378404 7.44358685,11.9630662 2.29714971,15.031616 C-0.90781713,16.9476771 -0.120699873,18.6744656 1.6641174,19.708983 C2.74399605,20.3325455 4.18982644,20.702016 5.33775928,20.702016 L34.5728094,20.702016 C36.0520248,20.702016 37.1550162,20.3662516 37.7662198,19.708983 C38.1231833,19.3213631 38.3145054,18.8287357 38.3145054,18.2220262 C38.3145054,16.5704282 37.2628757,8.30595633 36.4436574,5.94393784" id="Path"></path>
                                </g>
                                <g id="Group" transform="translate(295.000000, 174.000000)" fill="#00BCD4" fill-rule="nonzero">
                                    <path d="M37.908051,0.0493862001 L0.0196197904,0.0493862001 C0.243285401,0.401168883 0.498342676,0.731559375 0.779559672,1.02867313 C1.87957592,2.17434376 3.35236819,2.8493862 4.52170769,2.8493862 L34.3019335,2.8493862 C35.8087334,2.8493862 36.9322934,2.23614342 37.5548948,1.02867313 C37.7026972,0.738690105 37.816492,0.408299613 37.908051,0.0493862001" id="Path"></path>
                                </g>
                                <g id="Group" transform="translate(312.000000, 160.000000)" fill="#00BCD4" fill-rule="nonzero">
                                    <path d="M0.298786511,1.29194299 L3.26195852,3.85508678 C3.51259348,4.06991675 3.86076619,4.00028221 4.03979117,3.69952025 C4.21881614,3.40320305 4.16078736,2.98687738 3.91015239,2.77056582 L0.948215042,0.213348384 C0.696345421,-0.001481586 0.349407366,0.0666713701 0.17038239,0.362988571 C-0.00864258501,0.665232115 0.0481515451,1.07711302 0.298786511,1.29194299" id="Path"></path>
                                </g>
                                <g id="Group" transform="translate(311.000000, 160.000000)" fill="#00BCD4" fill-rule="nonzero">
                                    <path d="M0.188161422,0.937103147 L1.89050374,3.48049245 C2.07125723,3.74594328 2.47424862,3.84224637 2.79723437,3.69161846 C3.12022012,3.54469451 3.23578383,3.20392973 3.05503034,2.9360096 L1.34824326,0.395089601 C1.17193453,0.127169465 0.763016791,0.0333356851 0.441512629,0.183963595 C0.122971638,0.330887541 0.00740793001,0.671652321 0.188161422,0.937103147" id="Path"></path>
                                </g>
                                <g id="Group" transform="translate(306.000000, 162.000000)" fill="#00BCD4" fill-rule="nonzero">
                                    <path d="M0.0888951602,0.887470016 L1.17934246,3.33060533 C1.3334274,3.67877804 1.83914209,3.86842105 2.30929872,3.75137576 C2.77155355,3.63136729 3.01848455,3.25652603 2.8643996,2.90539015 L1.77592776,0.462254833 C1.61394102,0.114082122 1.11612812,-0.0755608861 0.645971497,0.0414844081 C0.181741216,0.157048116 -0.0711161281,0.536334133 0.0888951602,0.887470016" id="Path"></path>
                                </g>
                                <g id="Group" transform="translate(325.000000, 164.000000)" fill="#00BCD4">
                                    <rect id="Rectangle" x="0.0964265557" y="0.016297446" width="10.4281925" height="10.4281925"></rect>
                                </g>
                                <g id="Group" transform="translate(338.000000, 181.500000) scale(-1, 1) rotate(90.000000) translate(-338.000000, -181.500000) translate(333.000000, 176.000000)" fill="#00BCD4" fill-rule="nonzero">
                                    <path d="M5.01825526,0.118156484 C2.2721356,0.118156484 0.0488923381,2.34139975 0.0488923381,5.08887752 C0.0488923381,7.83092282 2.2721356,10.0541661 5.01825526,10.0541661 C7.76165867,10.0541661 9.98490193,7.83092282 9.98490193,5.08887752 C9.98490193,2.34139975 7.76165867,0.118156484 5.01825526,0.118156484" id="Path"></path>
                                </g>
                                <g id="Group" transform="translate(335.000000, 179.000000)" fill="#FFFFFF" fill-rule="nonzero">
                                    <path d="M2.89087061,7.22355487 L2.89087061,0.826395748 C2.89087061,0.416490287 2.25861254,0.0872489535 1.48931332,0.0872489535 C0.713784957,0.0872489535 0.0908706082,0.416490287 0.0908706082,0.826395748 L0.0908706082,7.22355487 C0.0908706082,7.63510653 0.713784957,7.96434787 1.48931332,7.96434787 C2.25861254,7.96434787 2.89087061,7.63510653 2.89087061,7.22355487" id="Path"></path>
                                </g>
                                <g id="Group" transform="translate(333.000000, 178.000000)" fill="#FFFFFF" fill-rule="nonzero">
                                    <path d="M0.742439208,2.98569211 L7.13959833,2.98569211 C7.54950379,2.98569211 7.88039133,2.35343405 7.88039133,1.5872494 C7.88039133,0.808606462 7.54950379,0.185692112 7.13959833,0.185692112 L0.742439208,0.185692112 C0.332533747,0.185692112 0.00329241334,0.808606462 0.00329241334,1.5872494 C0.00329241334,2.35343405 0.332533747,2.98569211 0.742439208,2.98569211" id="Path"></path>
                                </g>
                                <g id="Group" transform="translate(272.000000, 181.500000) scale(-1, 1) rotate(90.000000) translate(-272.000000, -181.500000) translate(267.000000, 176.000000)" fill="#00BCD4" fill-rule="nonzero">
                                    <path d="M5.01553902,0.118156484 C2.26941936,0.118156484 0.0461760971,2.34139975 0.0461760971,5.08887752 C0.0461760971,7.83092282 2.26941936,10.0541661 5.01553902,10.0541661 C7.75894243,10.0541661 9.98218569,7.83092282 9.98218569,5.08887752 C9.98218569,2.34139975 7.75894243,0.118156484 5.01553902,0.118156484" id="Path"></path>
                                </g>
                                <g id="Group" transform="translate(268.000000, 179.000000)" fill="#FFFFFF" fill-rule="nonzero">
                                    <path d="M2.88494426,7.22355487 L2.88494426,0.826395748 C2.88494426,0.416490287 2.25338871,0.0872489535 1.48494426,0.0872489535 C0.710277597,0.0872489535 0.0849442641,0.416490287 0.0849442641,0.826395748 L0.0849442641,7.22355487 C0.0849442641,7.63510653 0.710277597,7.96434787 1.48494426,7.96434787 C2.25338871,7.96434787 2.88494426,7.63510653 2.88494426,7.22355487" id="Path"></path>
                                </g>
                                <g id="Group" transform="translate(267.000000, 178.000000)" fill="#FFFFFF" fill-rule="nonzero">
                                    <path d="M0.867616763,2.98569211 L7.00888952,2.98569211 C7.40239876,2.98569211 7.71847044,2.35343405 7.71847044,1.5872494 C7.71847044,0.808606462 7.40239876,0.185692112 7.00888952,0.185692112 L0.867616763,0.185692112 C0.472527162,0.185692112 0.156455482,0.808606462 0.156455482,1.5872494 C0.156455482,2.35343405 0.472527162,2.98569211 0.867616763,2.98569211" id="Path"></path>
                                </g>
                                <g id="Group" transform="translate(205.000000, 181.500000) scale(-1, 1) rotate(90.000000) translate(-205.000000, -181.500000) translate(200.000000, 176.000000)" fill="#00BCD4" fill-rule="nonzero">
                                    <path d="M5.01282277,0.118156484 C2.265345,0.118156484 0.0434598561,2.34139975 0.0434598561,5.08480316 C0.0434598561,7.83092282 2.265345,10.0541661 5.01282277,10.0541661 C7.75622619,10.0541661 9.97811133,7.83092282 9.97811133,5.08480316 C9.97811133,2.34139975 7.75622619,0.118156484 5.01282277,0.118156484" id="Path"></path>
                                </g>
                                <g id="Group" transform="translate(203.000000, 179.000000)" fill="#FFFFFF" fill-rule="nonzero">
                                    <path d="M2.87506702,7.22355487 L2.87506702,0.826395748 C2.87506702,0.416490287 2.24560966,0.0872489535 1.47041586,0.0872489535 C0.704524388,0.0872489535 0.0750670241,0.416490287 0.0750670241,0.826395748 L0.0750670241,7.22355487 C0.0750670241,7.63510653 0.704524388,7.96434787 1.47041586,7.96434787 C2.24560966,7.96434787 2.87506702,7.63510653 2.87506702,7.22355487" id="Path"></path>
                                </g>
                                <g id="Group" transform="translate(199.000000, 178.000000)" fill="#FFFFFF" fill-rule="nonzero">
                                    <path d="M0.864456046,2.98569211 L7.00414844,2.98569211 C7.39923804,2.98569211 7.71530972,2.35343405 7.71530972,1.5872494 C7.71530972,0.808606462 7.39923804,0.185692112 7.00414844,0.185692112 L0.864456046,0.185692112 C0.469366446,0.185692112 0.153294765,0.808606462 0.153294765,1.5872494 C0.153294765,2.35343405 0.469366446,2.98569211 0.864456046,2.98569211" id="Path"></path>
                                </g>
                                <g id="Group" transform="translate(290.500000, 129.500000) scale(-1, 1) rotate(90.000000) translate(-290.500000, -129.500000) translate(285.000000, 124.000000)" fill="#00BCD4" fill-rule="nonzero">
                                    <path d="M5.03591082,0.0950684352 C2.29250741,0.0950684352 0.0665479046,2.3183117 0.0665479046,5.06035699 C0.0665479046,7.80783477 2.29250741,10.031078 5.03591082,10.031078 C7.77931424,10.031078 10.0052737,7.80783477 10.0052737,5.06035699 C10.0052737,2.3183117 7.77931424,0.0950684352 5.03591082,0.0950684352" id="Path"></path>
                                </g>
                                <g id="Group" transform="translate(291.000000, 124.000000)" fill="#FFFFFF" fill-rule="nonzero">
                                    <path d="M2.91260054,7.19721556 L2.91260054,0.796764028 C2.91260054,0.385212361 2.2872672,0.0559710268 1.51260054,0.0559710268 C0.744156092,0.0559710268 0.112600536,0.385212361 0.112600536,0.796764028 L0.112600536,7.19721556 C0.112600536,7.60382861 0.744156092,7.93800856 1.51260054,7.93800856 C2.2872672,7.93800856 2.91260054,7.60382861 2.91260054,7.19721556" id="Path"></path>
                                </g>
                                <g id="Group" transform="translate(286.000000, 126.000000)" fill="#FFFFFF" fill-rule="nonzero">
                                    <path d="M0.765486101,2.95408494 L7.16264522,2.95408494 C7.57419689,2.95408494 7.90343822,2.32875161 7.90343822,1.55408494 C7.90343822,0.776307166 7.57419689,0.154084944 7.16264522,0.154084944 L0.765486101,0.154084944 C0.355580641,0.154084944 0.0246931,0.776307166 0.0246931,1.55408494 C0.0246931,2.32875161 0.355580641,2.95408494 0.765486101,2.95408494" id="Path"></path>
                                </g>
                                <g id="Group" transform="translate(224.000000, 128.500000) scale(-1, 1) rotate(90.000000) translate(-224.000000, -128.500000) translate(219.000000, 123.000000)" fill="#00BCD4" fill-rule="nonzero">
                                    <path d="M5.03319458,0.0950684352 C2.28979117,0.0950684352 0.0638316636,2.3183117 0.0638316636,5.06443135 C0.0638316636,7.80783477 2.28979117,10.031078 5.03319458,10.031078 C7.776598,10.031078 10.0025575,7.80783477 10.0025575,5.06443135 C10.0025575,2.3183117 7.776598,0.0950684352 5.03319458,0.0950684352" id="Path"></path>
                                </g>
                                <g id="Group" transform="translate(223.000000, 124.000000)" fill="#FFFFFF" fill-rule="nonzero">
                                    <path d="M2.91260054,7.19721556 L2.91260054,0.796764028 C2.91260054,0.385212361 2.28104498,0.0559710268 1.51260054,0.0559710268 C0.73793387,0.0559710268 0.112600536,0.385212361 0.112600536,0.796764028 L0.112600536,7.19721556 C0.112600536,7.60382861 0.73793387,7.93800856 1.51260054,7.93800856 C2.28104498,7.93800856 2.91260054,7.60382861 2.91260054,7.19721556" id="Path"></path>
                                </g>
                                <g id="Group" transform="translate(220.000000, 126.000000)" fill="#FFFFFF" fill-rule="nonzero">
                                    <path d="M0.762193688,2.95408494 L7.15935281,2.95408494 C7.56925827,2.95408494 7.8984996,2.32875161 7.8984996,1.55408494 C7.8984996,0.776307166 7.56925827,0.154084944 7.15935281,0.154084944 L0.762193688,0.154084944 C0.350642021,0.154084944 0.0214006867,0.776307166 0.0214006867,1.55408494 C0.0214006867,2.32875161 0.350642021,2.95408494 0.762193688,2.95408494" id="Path"></path>
                                </g>
                                <g id="Group" transform="translate(156.000000, 128.500000) scale(-1, 1) rotate(90.000000) translate(-156.000000, -128.500000) translate(151.000000, 123.000000)" fill="#00BCD4" fill-rule="nonzero">
                                    <path d="M5.02912022,0.0950684352 C2.28707493,0.0950684352 0.0597573021,2.3183117 0.0597573021,5.06035699 C0.0597573021,7.80783477 2.28707493,10.031078 5.02912022,10.031078 C7.77252363,10.031078 9.99984126,7.80783477 9.99984126,5.06035699 C9.99984126,2.3183117 7.77252363,0.0950684352 5.02912022,0.0950684352" id="Path"></path>
                                </g>
                                <g id="Group" transform="translate(157.000000, 124.000000)" fill="#FFFFFF" fill-rule="nonzero">
                                    <path d="M2.9027233,7.19721556 L2.9027233,0.796764028 C2.9027233,0.385212361 2.28050107,0.0559710268 1.5027233,0.0559710268 C0.734278852,0.0559710268 0.102723296,0.385212361 0.102723296,0.796764028 L0.102723296,7.19721556 C0.102723296,7.60382861 0.734278852,7.93800856 1.5027233,7.93800856 C2.28050107,7.93800856 2.9027233,7.60382861 2.9027233,7.19721556" id="Path"></path>
                                </g>
                                <g id="Group" transform="translate(154.000000, 126.000000)" fill="#FFFFFF" fill-rule="nonzero">
                                    <path d="M0.753962655,2.95408494 L7.15441419,2.95408494 C7.56596585,2.95408494 7.89520719,2.32875161 7.89520719,1.55408494 C7.89520719,0.776307166 7.56596585,0.154084944 7.15441419,0.154084944 L0.753962655,0.154084944 C0.347349607,0.154084944 0.0131696534,0.776307166 0.0131696534,1.55408494 C0.0131696534,2.32875161 0.347349607,2.95408494 0.753962655,2.95408494" id="Path"></path>
                                </g>
                                <g id="Group" transform="translate(306.000000, 85.000000)" fill="#FF9800">
                                    <path d="M14.7763511,17.4694958 C11.4408071,18.0908867 8.24107521,15.8943106 7.61905602,12.5675629 C6.99975307,9.24081515 9.1944758,6.0443153 12.5259454,5.42156766 C15.8560569,4.80424702 19.0598631,6.99675286 19.677808,10.3235006 C20.3011853,13.6502483 18.1064625,16.8508184 14.7763511,17.4694958 Z M17.9950967,1.25634926 C16.8176062,0.354111401 14.6609108,-0.165523337 13.2036475,0.105826396 L9.97946945,0.708222802 C8.52084803,0.980929284 6.6968922,2.2359218 5.92412163,3.5044818 L1.0797058,11.460456 C0.308293354,12.7249457 -0.101859038,14.9540838 0.169765063,16.4098751 L4.7099619,40.7540164 C4.981586,42.2098077 6.39674757,43.1785262 7.85536899,42.9071765 L30.3974531,38.7134664 C31.8560745,38.4421166 32.8257725,37.0283845 32.5541484,35.5725932 L28.018026,11.2284519 C27.7464019,9.77266062 26.5594045,7.83929378 25.3846303,6.93705592 L17.9950967,1.25634926 Z" id="Shape"></path>
                                </g>
                                <g id="Group" transform="translate(315.000000, 47.000000)" fill="#FF9800" fill-rule="nonzero">
                                    <path d="M1.60381685,1.32395305 C2.33843657,2.08950413 2.70389445,3.0866505 2.70389445,4.09151671 C2.70389445,5.09895621 2.33843657,6.09610257 1.60381685,6.86551358 L1.60752081,6.86551358 C0.582757161,7.92956525 0.0703753351,9.32943009 0.0703753351,10.725435 C0.0703753351,12.1188666 0.582757161,13.5225914 1.60381685,14.5866431 C2.33843657,15.3521942 2.70389445,16.3493405 2.70389445,17.3529201 C2.70389445,18.3616462 2.33843657,19.357506 1.60381685,20.123057 C0.582757161,21.1871087 0.0703753351,22.5908335 0.0703753351,23.988125 C0.0703753351,25.3841299 0.582757161,26.7878547 1.60381685,27.8519064 C2.33843657,28.6174575 2.70389445,29.6146038 2.70389445,30.6181834 C2.70389445,31.6230496 2.33843657,32.6240559 1.60381685,33.389607 C0.582757161,34.4536587 0.0703753351,35.8573834 0.0703753351,37.2533883 C0.0703753351,38.64682 0.582757161,40.0505447 1.60381685,41.1145964 C2.33843657,41.8801475 2.70389445,42.8760072 2.70389445,43.8808734 C2.70389445,44.8883129 2.33843657,45.8893192 1.60381685,46.6548703 C1.31737689,46.9533709 1.31737689,47.4422943 1.60752081,47.7446548 C1.89396077,48.0470153 2.36312967,48.0470153 2.6532736,47.7446548 C3.67062932,46.6806031 4.18301115,45.2768783 4.18301115,43.8808734 C4.18301115,42.4874418 3.67433329,41.0850037 2.6532736,40.0196654 C1.91494991,39.2554009 1.55319599,38.2582546 1.54949203,37.2533883 C1.55319599,36.2459488 1.91494991,35.2488025 2.6532736,34.4832514 C3.67433329,33.4153398 4.18671511,32.015475 4.18671511,30.6181834 C4.18671511,29.2260384 3.67433329,27.8223137 2.6532736,26.758262 C1.91494991,25.9927109 1.55319599,24.9917046 1.54949203,23.988125 C1.55319599,22.9832588 1.91494991,21.9822525 2.6532736,21.2141282 C3.67062932,20.1539364 4.18671511,18.748925 4.18301115,17.3529201 C4.18671511,15.9607751 3.67433329,14.5596236 2.6532736,13.495572 C1.91494991,12.7274476 1.55319599,11.7303012 1.54949203,10.725435 C1.55319599,9.72185544 1.91494991,8.72084915 2.6532736,7.95529806 C3.67433329,6.89124639 4.18671511,5.48752163 4.18671511,4.09151671 C4.18671511,2.69808508 3.67433329,1.29822024 2.6532736,0.230308645 C2.36312967,-0.0681919452 1.89396077,-0.0681919452 1.60381685,0.230308645 C1.31737689,0.532669157 1.31737689,1.02159254 1.60381685,1.32395305" id="Path"></path>
                                </g>
                                <g id="Group" transform="translate(316.000000, 107.000000)" fill="#FFFFFF" fill-rule="nonzero">
                                    <path d="M1.1748977,9.15458522 C1.52307041,10.782498 3.14837026,11.9190631 4.98405531,11.9190631 C5.22110907,11.9190631 5.45668125,11.9009608 5.69373501,11.8634632 C7.55905178,11.5596034 8.86284747,10.1411599 8.86284747,8.53910746 C8.86284747,8.33222417 8.84062368,8.12663391 8.79765768,7.91587157 C8.44504021,6.28795875 6.82418513,5.1501007 4.98850007,5.1501007 C4.75144631,5.1501007 4.51587414,5.169496 4.27437562,5.2069936 C4.14103288,5.22897495 4.01213489,5.24061213 3.88323691,5.24061213 C2.89946381,5.24061213 2.01347538,4.62513437 1.82827713,3.74329438 C1.80309017,3.62692253 1.78975589,3.51442975 1.78975589,3.40193697 C1.78975589,2.54207833 2.49499083,1.77014508 3.50543248,1.60463845 C3.63877522,1.58524315 3.7676732,1.57489898 3.89657119,1.57489898 C4.88034429,1.57489898 5.76633272,2.19037675 5.95597573,3.07221673 C6.04635248,3.4924484 6.5100889,3.77044781 6.99160435,3.69157356 C7.4731198,3.61269931 7.79166079,3.20669087 7.70128404,2.7864592 C7.35311133,1.15854638 5.72781149,0.0206883282 3.89657119,0.0206883282 C3.65951743,0.0206883282 3.41950049,0.0400836359 3.17800198,0.0814602922 C1.31712996,0.385320112 0.01481586,1.80376361 0.01481586,3.40193697 C0.01481586,3.60882025 0.0355580641,3.81828957 0.0785240581,4.02517285 C0.426696769,5.65308568 2.05199661,6.7896507 3.88323691,6.7896507 C4.12029067,6.7896507 4.36030761,6.77154842 4.60180612,6.73405082 C4.73070411,6.71206947 4.85960209,6.70043229 4.98850007,6.70043229 C5.97819952,6.70043229 6.86270636,7.31978911 7.04790461,8.2016291 C7.07309158,8.31412189 7.08642585,8.42661467 7.08642585,8.53910746 C7.08642585,9.40155214 6.38119091,10.1747784 5.37074926,10.340285 C5.23740652,10.3583873 5.10850854,10.3700245 4.98405531,10.3700245 C3.99583745,10.3700245 3.10540426,9.75454674 2.92020601,8.87270675 C2.82982926,8.44859602 2.36609285,8.17059661 1.8845774,8.24947086 C1.40306194,8.32834511 1.08452095,8.73435355 1.1748977,9.15846428 L1.1748977,9.15458522 Z" id="Path"></path>
                                </g>
                                <g id="Group" transform="translate(320.000000, 105.000000)" fill="#FFFFFF" fill-rule="nonzero">
                                    <path d="M2.90284042,2.40905884 L2.50564728,0.851911951 C2.38327969,0.365951743 1.75539356,0.0488923381 1.10343511,0.139269084 C0.451476662,0.22964583 0.0201810735,0.693382249 0.142548659,1.1748977 L0.533723727,2.73648935 C0.656091313,3.2180048 1.28397745,3.5350642 1.9359359,3.44468746 C2.58789434,3.35431071 3.01918993,2.89057429 2.90284042,2.40905884" id="Path"></path>
                                </g>
                                <g id="Group" transform="translate(321.000000, 116.000000)" fill="#FFFFFF" fill-rule="nonzero">
                                    <path d="M2.84741949,2.28016086 L2.45798083,0.723013969 C2.33552847,0.241498518 1.70519991,-0.0755608861 1.05278978,0.01481586 C0.400379652,0.100747848 -0.0292073256,0.564484267 0.0872227899,1.05044448 L0.4826837,2.60610978 C0.605136062,3.08762523 1.2334572,3.40616622 1.88586733,3.31578947 C2.53827746,3.22541273 2.96987186,2.76612107 2.84741949,2.28016086" id="Path"></path>
                                </g>
                                <g id="Group" transform="translate(172.000000, 86.000000)" fill="#00BCD4" fill-rule="nonzero">
                                    <path d="M17.9964548,17.4315068 C14.6704177,16.7816242 12.5028573,13.5647731 13.1493227,10.2420957 C13.7998624,6.92348843 17.018608,4.75404732 20.3460032,5.39985968 C23.667966,6.04838554 25.8396007,9.26523662 25.1931353,12.5879141 C24.5425956,15.9119483 21.3224919,18.0773192 17.9964548,17.4315068 Z M26.9627663,3.53704377 C26.2022189,2.26577027 24.3850536,0.993140022 22.9305066,0.709579551 L19.7104029,0.0800481711 C18.2572139,-0.2035123 16.0964442,0.297127957 14.910805,1.18986858 L7.47373712,6.80816479 C6.29081417,7.70226216 5.08887752,9.62341827 4.8091047,11.0764961 L0.0651897841,35.3799349 C-0.218657401,36.8330127 0.738817553,38.2589556 2.19608085,38.542516 L24.7001376,42.9234575 C26.158759,43.2070179 27.5807112,42.2505101 27.8645583,40.7933621 L32.6098314,16.4939935 C32.8936786,15.0368454 32.503898,12.8049939 31.7392761,11.5337204 L26.9627663,3.53704377 Z" id="Shape"></path>
                                </g>
                                <g id="Group" transform="translate(188.000000, 48.000000)" fill="#00BCD4" fill-rule="nonzero">
                                    <path d="M1.54825737,1.33681945 C2.28658106,2.10237054 2.64833498,3.10337683 2.65203894,4.1069564 C2.64833498,5.11182261 2.28658106,6.10768234 1.54825737,6.87709334 C0.527197686,7.94114502 0.01481586,9.3422965 0.01481586,10.7383014 C0.01481586,12.1343063 0.527197686,13.5341712 1.54825737,14.5982228 C2.28658106,15.3637739 2.64833498,16.3647802 2.64833498,17.3696464 C2.64833498,18.373226 2.2828771,19.3703724 1.54825737,20.1397834 C0.527197686,21.203835 0.01481586,22.6075598 0.01481586,23.9997048 C0.01481586,25.3969964 0.527197686,26.8007211 1.54825737,27.8647728 C2.28658106,28.6303239 2.64833498,29.6261836 2.65203894,30.6349097 C2.64833498,31.6397759 2.28658106,32.6356357 1.54825737,33.4050467 C0.527197686,34.4690983 0.01481586,35.8689632 0.01481586,37.2662547 C0.01481586,38.6583997 0.527197686,40.0621245 1.54825737,41.1261762 C2.2828771,41.8917273 2.64833498,42.8888736 2.64833498,43.8924532 C2.64833498,44.9011793 2.2828771,45.9021856 1.54825737,46.6677367 C1.26181741,46.9700972 1.26181741,47.4590206 1.55196134,47.7575212 C1.8384013,48.0598817 2.3075702,48.0598817 2.59771412,47.7575212 C3.61877381,46.6934695 4.13115564,45.2897448 4.13115564,43.8924532 C4.13115564,42.5003082 3.61877381,41.0965834 2.59771412,40.0363917 C1.85939043,39.2669807 1.49763652,38.2698343 1.49516721,37.2662547 C1.49763652,36.2613885 1.85939043,35.2603822 2.59771412,34.4961178 C3.61877381,33.4320661 4.13115564,32.0270547 4.13115564,30.6349097 C4.13115564,29.2389048 3.61877381,27.8351801 2.59771412,26.7737017 C1.85939043,26.0055773 1.49763652,25.0084309 1.49516721,23.9997048 C1.49763652,22.9961252 1.85939043,21.9951189 2.59771412,21.2295679 C3.61877381,20.1655162 4.13115564,18.7617914 4.13115564,17.3696464 C4.13115564,15.9723549 3.61877381,14.57249 2.59771412,13.5084384 C1.85939043,12.7390274 1.49763652,11.741881 1.49516721,10.7383014 C1.49763652,9.7334352 1.85939043,8.73628883 2.59771412,7.97073775 L2.59771412,7.96816447 C3.61877381,6.90411279 4.13115564,5.49910139 4.13115564,4.1069564 C4.13115564,2.71095148 3.61877381,1.31108664 2.59771412,0.247034971 C2.3075702,-0.0553255405 1.8384013,-0.0553255405 1.54825737,0.247034971 C1.26181741,0.549395483 1.26181741,1.03445894 1.54825737,1.33681945" id="Path"></path>
                                </g>
                                <g id="Group" transform="translate(186.040631, 115.788279) scale(-1, 1) rotate(78.922183) translate(-186.040631, -115.788279) translate(184.040631, 114.288279)" fill="#FFFFFF" fill-rule="nonzero">
                                    <path d="M1.55474626,0.0112045971 C0.747003863,0.0112045971 0.091444816,0.664738979 0.091444816,1.47710044 C0.091444816,2.28165074 0.747003863,2.93778884 1.55474626,2.94169443 C2.36248866,2.94169443 3.0180477,2.28425446 3.0180477,1.47710044 C3.0180477,0.668644563 2.36248866,0.0125064584 1.55474626,0.0112045971" id="Path"></path>
                                </g>
                                <g id="Group" transform="translate(181.527128, 114.485791) scale(-1, 1) rotate(78.994402) translate(-181.527128, -114.485791) translate(180.027128, 112.485791)" fill="#FFFFFF" fill-rule="nonzero">
                                    <path d="M1.46780095,0.0719908074 C0.660058069,0.0732926695 0.0057993382,0.730733034 0.0057993382,1.5391894 C0.00710005138,2.34764577 0.660058069,3.00118055 1.46780095,3.00118055 C2.27554384,3.00118055 2.92980257,2.34634391 2.932404,1.5391894 C2.932404,0.730733034 2.27554384,0.0719908074 1.46780095,0.0719908074" id="Path"></path>
                                </g>
                                <g id="Group" transform="translate(191.158128, 116.335331) scale(-1, 1) rotate(-101.006126) translate(-191.158128, -116.335331) translate(189.658128, 114.835331)" fill="#FFFFFF" fill-rule="nonzero">
                                    <path d="M1.51533032,0.0663920947 C2.32307301,0.0650921707 2.97603087,0.71992865 2.97733158,1.52838482 C2.97733158,2.33684099 2.32307301,2.99428119 1.51533032,2.99428119 C0.708888345,2.99167747 0.0546297744,2.33684099 0.0533290616,1.53229041 C0.0533290616,0.71992865 0.707587632,0.0663920947 1.51533032,0.0663920947" id="Path"></path>
                                </g>
                                <g id="Group" transform="translate(242.000000, 104.000000)" fill="#E91E63" fill-rule="nonzero">
                                    <path d="M13.4682986,16.4472838 C10.2535264,16.4472838 7.65311566,13.8509524 7.65311566,10.6459856 C7.65311566,7.44487089 10.2535264,4.84853958 13.4682986,4.84853958 C16.6830709,4.84853958 19.2834816,7.44487089 19.2834816,10.6459856 C19.2834816,13.8509524 16.6830709,16.4472838 13.4682986,16.4472838 Z M19.2912094,1.9196416 C18.3497036,0.8757161 16.4280529,0.0231127416 15.022878,0.0231127416 L11.9137193,0.0231127416 C10.5085444,0.0231127416 8.58689366,0.8757161 7.64538784,1.9196416 L1.74777481,8.48494426 C0.804981031,9.52886976 0.0399270591,11.5332581 0.0399270591,12.934147 L0.0399270591,36.367899 C0.0399270591,37.7687879 1.19008396,38.9167208 2.59525884,38.9167208 L24.3413384,38.9167208 C25.7465133,38.9167208 26.8966702,37.7687879 26.8966702,36.367899 L26.8966702,12.934147 C26.8966702,11.5332581 26.1316162,9.52886976 25.1888224,8.48494426 L19.2912094,1.9196416 Z" id="Shape"></path>
                                </g>
                                <g id="Group" transform="translate(253.000000, 122.000000)" fill="#FFFFFF" fill-rule="nonzero">
                                    <path d="M6.6031325,0.439382849 L0.13334274,11.5660011 C-0.0720050797,11.9187112 0.0786722167,12.3556865 0.469366446,12.5410699 C0.860060674,12.7288609 1.34409482,12.5928328 1.54944264,12.2365114 L8.0192324,1.10989311 C8.22458022,0.757183046 8.07390292,0.321411563 7.68187526,0.136028115 C7.29118104,-0.0493553337 6.80848032,0.0866727811 6.6031325,0.439382849" id="Path"></path>
                                </g>
                                <g id="Group" transform="translate(247.000000, 121.000000)" fill="#FFFFFF" fill-rule="nonzero">
                                    <path d="M0.0444475801,3.88340153 L2.01660317,3.88340153 C2.02154179,2.9137858 2.80513616,2.13019143 3.77475189,2.13019143 C4.74436762,2.13019143 5.527962,2.9137858 5.527962,3.88340153 C5.527962,4.85301726 4.74436762,5.64155026 3.77475189,5.64155026 C2.80513616,5.64155026 2.02154179,4.85301726 2.01660317,3.88340153 L0.0444475801,3.88340153 C0.0444475801,5.94609849 1.71699356,7.61370585 3.77475189,7.61370585 C5.83415644,7.61370585 7.50670241,5.94609849 7.50670241,3.88340153 C7.50670241,1.82399699 5.83415644,0.151451014 3.77475189,0.151451014 C1.71699356,0.151451014 0.0444475801,1.82399699 0.0444475801,3.88340153" id="Path"></path>
                                </g>
                                <g id="Group" transform="translate(258.000000, 130.000000)" fill="#FFFFFF" fill-rule="nonzero">
                                    <path d="M5.57405578,3.78298293 L7.55114999,3.78298293 C7.55114999,1.71863976 5.87860402,0.0510324068 3.82084568,0.0510324068 C1.76144114,0.0510324068 0.0888951602,1.71863976 0.0888951602,3.78298293 C0.0888951602,5.84238747 1.76144114,7.50834862 3.82084568,7.50834862 C5.87860402,7.50834862 7.55114999,5.84238747 7.55114999,3.78298293 L5.57405578,3.78298293 C5.57405578,4.75259865 4.79046141,5.53619303 3.82084568,5.53619303 C2.85122995,5.53619303 2.06763558,4.75259865 2.06269696,3.78298293 C2.06763558,2.8133672 2.85122995,2.0248342 3.82084568,2.0248342 C4.79046141,2.0248342 5.57405578,2.8133672 5.57405578,3.78298293" id="Path"></path>
                                </g>
                                <g id="Group" transform="translate(255.000000, 61.000000)" fill="#E91E63" fill-rule="nonzero">
                                    <path d="M1.64579512,1.36858651 C2.38041484,2.12820309 2.74587272,3.11634297 2.74587272,4.11341952 C2.74587272,5.11432607 2.38041484,6.10246596 1.64579512,6.86591254 C0.621031466,7.92171575 0.10864964,9.31072892 0.10864964,10.6971888 C0.10864964,12.0785419 0.621031466,13.4713851 1.64579512,14.5271883 C2.38041484,15.2868049 2.74216876,16.2762214 2.74587272,17.273298 C2.74216876,18.2729279 2.37671088,19.2623444 1.64579512,20.021961 C0.621031466,21.0815942 0.10864964,22.4706074 0.10864964,23.8557906 C0.10864964,25.2422504 0.621031466,26.6312636 1.64579512,27.6908968 C2.38041484,28.4505134 2.74587272,29.4386533 2.74587272,30.4357298 C2.74587272,31.4328064 2.38041484,32.4247762 1.64579512,33.1843928 C0.621031466,34.240196 0.10864964,35.6330392 0.10864964,37.019499 C0.10864964,38.4008522 0.621031466,39.7936954 1.64579512,40.8494986 C2.38041484,41.6091152 2.74216876,42.5985317 2.74216876,43.5943316 C2.74216876,44.5952382 2.37671088,45.5884847 1.64579512,46.3481013 C1.35565119,46.6481179 1.35565119,47.1332512 1.64579512,47.4294378 C1.93593904,47.7294545 2.4063426,47.7294545 2.69278256,47.4294378 C3.71384225,46.3736346 4.22624387,44.9807915 4.22624387,43.5943316 C4.22624387,42.2129784 3.71384225,40.8201353 2.69278256,39.7643321 C1.95816283,39.0047155 1.59270495,38.0152989 1.59270495,37.019499 C1.59270495,36.0185925 1.95816283,35.0291759 2.69278256,34.2695594 C3.71384225,33.2112028 4.22992804,31.820913 4.22624387,30.4357298 C4.22992804,29.0543766 3.71384225,27.6602568 2.69278256,26.6044536 C1.95816283,25.8461137 1.59270495,24.8528671 1.59270495,23.8557906 C1.59270495,22.8599907 1.95816283,21.8667441 2.69278256,21.1032976 C3.71384225,20.0513243 4.22624387,18.6584812 4.22624387,17.273298 C4.22624387,15.8906682 3.71384225,14.501655 2.69278256,13.4458518 C1.95816283,12.6824052 1.59270495,11.6929886 1.59270495,10.6971888 C1.59270495,9.70011221 1.95816283,8.70686566 2.69278256,7.94852575 C3.71384225,6.89272253 4.22992804,5.4986027 4.22624387,4.11341952 C4.22992804,2.73206635 3.71384225,1.34177651 2.69278256,0.2859733 C2.40263863,-0.0140433317 1.93593904,-0.0140433317 1.64579512,0.2859733 C1.35565119,0.583436599 1.35565119,1.06856988 1.64579512,1.36858651" id="Path"></path>
                                </g>
                                <g id="Group" transform="translate(44.000000, 14.000000)" fill="#FF9800">
                                    <rect id="Rectangle" x="0.0944511077" y="0.0250670241" width="17.6120282" height="16.845436"></rect>
                                </g>
                                <g id="Group" transform="translate(62.000000, 14.000000)" fill="#B2EBF2">
                                    <rect id="Rectangle" x="0.0302666855" y="0.0250670241" width="17.9572245" height="16.845436"></rect>
                                </g>
                                <g id="Group" transform="translate(79.000000, 14.000000)" fill="#FF9800">
                                    <rect id="Rectangle" x="0.101197615" y="0.0250670241" width="17.6159412" height="16.845436"></rect>
                                </g>
                                <g id="Group" transform="translate(97.000000, 14.000000)" fill="#B2EBF2">
                                    <rect id="Rectangle" x="0.0426485114" y="0.0250670241" width="17.9572245" height="16.845436"></rect>
                                </g>
                                <g id="Group" transform="translate(115.000000, 14.000000)" fill="#FF9800">
                                    <rect id="Rectangle" x="0.111992028" y="0.0250670241" width="17.6120282" height="16.845436"></rect>
                                </g>
                                <g id="Group" transform="translate(130.000000, 14.000000)" fill="#B2EBF2">
                                    <rect id="Rectangle" x="0.0490672976" y="0.0250670241" width="17.7943918" height="16.845436"></rect>
                                </g>
                                <g id="Group" transform="translate(149.000000, 14.000000)" fill="#FF9800">
                                    <rect id="Rectangle" x="0.12278644" y="0.0250670241" width="17.6120282" height="16.845436"></rect>
                                </g>
                                <g id="Group" transform="translate(165.000000, 14.000000)" fill="#B2EBF2">
                                    <rect id="Rectangle" x="0.0593692677" y="0.0250670241" width="17.6118933" height="16.845436"></rect>
                                </g>
                                <g id="Group" transform="translate(180.000000, 14.000000)" fill="#FF9800">
                                    <rect id="Rectangle" x="0.130882249" y="0.0250670241" width="17.6118933" height="16.845436"></rect>
                                </g>
                                <g id="Group" transform="translate(200.000000, 14.000000)" fill="#B2EBF2">
                                    <rect id="Rectangle" x="0.0661157754" y="0.0250670241" width="17.6120282" height="16.845436"></rect>
                                </g>
                                <g id="Group" transform="translate(214.000000, 14.000000)" fill="#FB920F">
                                    <rect id="Rectangle" x="0.00687879215" y="0.0250670241" width="17.9573621" height="16.845436"></rect>
                                </g>
                                <g id="Group" transform="translate(233.000000, 14.000000)" fill="#B2EBF2">
                                    <rect id="Rectangle" x="0.0769101877" y="0.0250670241" width="17.6118933" height="16.845436"></rect>
                                </g>
                                <g id="Group" transform="translate(250.000000, 14.000000)" fill="#FB920F">
                                    <rect id="Rectangle" x="0.0137575843" y="0.0250670241" width="17.9572245" height="16.845436"></rect>
                                </g>
                                <g id="Group" transform="translate(267.000000, 14.000000)" fill="#B2EBF2">
                                    <rect id="Rectangle" x="0.0850059969" y="0.0250670241" width="17.6120282" height="16.845436"></rect>
                                </g>
                                <g id="Group" transform="translate(281.000000, 14.000000)" fill="#FB920F">
                                    <rect id="Rectangle" x="0.0247636518" y="0.0250670241" width="17.9572245" height="16.845436"></rect>
                                </g>
                                <g id="Group" transform="translate(301.000000, 14.000000)" fill="#B2EBF2">
                                    <rect id="Rectangle" x="0.0958004092" y="0.0250670241" width="17.6120282" height="16.845436"></rect>
                                </g>
                                <g id="Group" transform="translate(317.000000, 14.000000)" fill="#FB920F">
                                    <rect id="Rectangle" x="0.0330182023" y="0.0250670241" width="17.9572245" height="16.845436"></rect>
                                </g>
                                <g id="Group" transform="translate(334.000000, 14.000000)" fill="#B2EBF2">
                                    <rect id="Rectangle" x="0.102546917" y="0.0250670241" width="17.6120282" height="16.845436"></rect>
                                </g>
                                <g id="Group" transform="translate(351.000000, 14.000000)" fill="#FB920F">
                                    <rect id="Rectangle" x="0.0357697192" y="0.0250670241" width="17.9573621" height="16.845436"></rect>
                                </g>
                                <g id="Group" transform="translate(29.000000, 46.000000)" fill="#FF9800" fill-rule="nonzero">
                                    <path d="M0.0179137217,0.105291379 L0.0179137217,16.5012135 C0.0179137217,21.6091294 4.14318791,25.7527304 9.23452352,25.7527304 C14.3245796,25.7527304 18.4498538,21.6091294 18.4498538,16.5012135 L18.4498538,0.105291379 L0.0179137217,0.105291379 Z" id="Path"></path>
                                </g>
                                <g id="Group" transform="translate(48.000000, 46.000000)" fill="#B2EBF2" fill-rule="nonzero">
                                    <path d="M0.0243114794,0.105291379 L0.0243114794,16.5012135 C0.0243114794,21.6091294 4.15342432,25.7527304 9.24092128,25.7527304 C14.3309773,25.7527304 18.4600902,21.6091294 18.4600902,16.5012135 L18.4600902,0.105291379 L0.0243114794,0.105291379 Z" id="Path"></path>
                                </g>
                                <g id="Group" transform="translate(68.000000, 46.000000)" fill="#FF9800" fill-rule="nonzero">
                                    <path d="M0.0345478918,0.105291379 L0.0345478918,16.5012135 C0.0345478918,21.6091294 4.15982208,25.7527304 9.25115769,25.7527304 C14.3412137,25.7527304 18.4703266,21.6091294 18.4703266,16.5012135 L18.4703266,0.105291379 L0.0345478918,0.105291379 Z" id="Path"></path>
                                </g>
                                <g id="Group" transform="translate(85.000000, 46.000000)" fill="#B2EBF2" fill-rule="nonzero">
                                    <path d="M0.0447843042,0.105291379 L0.0447843042,16.5012135 C0.0447843042,21.6091294 4.17005849,25.7527304 9.26011455,25.7527304 C14.3514502,25.7527304 18.4767243,21.6091294 18.4767243,16.5012135 L18.4767243,0.105291379 L0.0447843042,0.105291379 Z" id="Path"></path>
                                </g>
                                <g id="Group" transform="translate(104.000000, 46.000000)" fill="#FF9800" fill-rule="nonzero">
                                    <path d="M0.0511820619,0.105291379 L0.0511820619,16.5012135 C0.0511820619,21.6091294 4.17645625,25.7527304 9.26651231,25.7527304 C14.3578479,25.7527304 18.4869608,21.6091294 18.4869608,16.5012135 L18.4869608,0.105291379 L0.0511820619,0.105291379 Z" id="Path"></path>
                                </g>
                                <g id="Group" transform="translate(124.000000, 46.000000)" fill="#B2EBF2" fill-rule="nonzero">
                                    <path d="M0.0614184743,0.105291379 L0.0614184743,16.5012135 C0.0614184743,21.6091294 4.18669266,25.7527304 9.27674872,25.7527304 C14.3680843,25.7527304 18.4933585,21.6091294 18.4933585,16.5012135 L18.4933585,0.105291379 L0.0614184743,0.105291379 Z" id="Path"></path>
                                </g>
                                <g id="Group" transform="translate(141.000000, 46.000000)" fill="#FF9800" fill-rule="nonzero">
                                    <path d="M0.067816232,0.105291379 L0.067816232,16.5012135 C0.067816232,21.6091294 4.19692908,25.7527304 9.28698513,25.7527304 C14.3770412,25.7527304 18.5023154,21.6091294 18.5023154,16.5012135 L18.5023154,0.105291379 L0.067816232,0.105291379 Z" id="Path"></path>
                                </g>
                                <g id="Group" transform="translate(161.000000, 46.000000)" fill="#B2EBF2" fill-rule="nonzero">
                                    <path d="M0.0767730929,0.105291379 L0.0767730929,16.5012135 C0.0767730929,21.6091294 4.20204728,25.7527304 9.29338289,25.7527304 C14.3834389,25.7527304 18.5125518,21.6091294 18.5125518,16.5012135 L18.5125518,0.105291379 L0.0767730929,0.105291379 Z" id="Path"></path>
                                </g>
                                <g id="Group" transform="translate(179.000000, 46.000000)" fill="#FF9800" fill-rule="nonzero">
                                    <path d="M0.0870095052,0.105291379 L0.0870095052,16.5012135 C0.0870095052,21.6091294 4.21228369,25.7527304 9.3036193,25.7527304 C14.3936754,25.7527304 18.5189495,21.6091294 18.5189495,16.5012135 L18.5189495,0.105291379 L0.0870095052,0.105291379 Z" id="Path"></path>
                                </g>
                                <g id="Group" transform="translate(198.000000, 46.000000)" fill="#B2EBF2" fill-rule="nonzero">
                                    <path d="M0.093407263,0.105291379 L0.093407263,16.5012135 C0.093407263,21.6091294 4.22252011,25.7527304 9.31257616,25.7527304 C14.4039118,25.7527304 18.529186,21.6091294 18.529186,16.5012135 L18.529186,0.105291379 L0.093407263,0.105291379 Z" id="Path"></path>
                                </g>
                                <g id="Group" transform="translate(215.000000, 46.000000)" fill="#FF9800" fill-rule="nonzero">
                                    <path d="M0.103643675,0.105291379 L0.103643675,16.5012135 C0.103643675,21.6091294 4.23275652,25.7527304 9.32025347,25.7527304 C14.4103095,25.7527304 18.5394224,21.6091294 18.5394224,16.5012135 L18.5394224,0.105291379 L0.103643675,0.105291379 Z" id="Path"></path>
                                </g>
                                <g id="Group" transform="translate(235.000000, 46.000000)" fill="#B2EBF2" fill-rule="nonzero">
                                    <path d="M0.113880088,0.105291379 L0.113880088,16.5012135 C0.113880088,21.6091294 4.23915428,25.7527304 9.32921033,25.7527304 C14.4205459,25.7527304 18.5458201,21.6091294 18.5458201,16.5012135 L18.5458201,0.105291379 L0.113880088,0.105291379 Z" id="Path"></path>
                                </g>
                                <g id="Group" transform="translate(253.000000, 46.000000)" fill="#FF9800" fill-rule="nonzero">
                                    <path d="M0.120277845,0.105291379 L0.120277845,16.5012135 C0.120277845,21.6091294 4.24939069,25.7527304 9.33944675,25.7527304 C14.4269437,25.7527304 18.5560565,21.6091294 18.5560565,16.5012135 L18.5560565,0.105291379 L0.120277845,0.105291379 Z" id="Path"></path>
                                </g>
                                <g id="Group" transform="translate(272.000000, 46.000000)" fill="#B2EBF2" fill-rule="nonzero">
                                    <path d="M0.0025591031,0.105291379 L0.0025591031,16.5012135 C0.0025591031,21.6091294 4.12783329,25.7527304 9.21788935,25.7527304 C14.3079454,25.7527304 18.4344991,21.6091294 18.4344991,16.5012135 L18.4344991,0.105291379 L0.0025591031,0.105291379 Z" id="Path"></path>
                                </g>
                                <g id="Group" transform="translate(292.000000, 46.000000)" fill="#FF9800" fill-rule="nonzero">
                                    <path d="M0.00895686083,0.105291379 L0.00895686083,16.5012135 C0.00895686083,21.6091294 4.13679015,25.7527304 9.22812576,25.7527304 C14.3181818,25.7527304 18.443456,21.6091294 18.443456,16.5012135 L18.443456,0.105291379 L0.00895686083,0.105291379 Z" id="Path"></path>
                                </g>
                                <g id="Group" transform="translate(310.000000, 46.000000)" fill="#B2EBF2" fill-rule="nonzero">
                                    <path d="M0.0179137217,0.105291379 L0.0179137217,16.5012135 C0.0179137217,21.6091294 4.14702657,25.7527304 9.23452352,25.7527304 C14.3245796,25.7527304 18.4498538,21.6091294 18.4498538,16.5012135 L18.4498538,0.105291379 L0.0179137217,0.105291379 Z" id="Path"></path>
                                </g>
                                <g id="Group" transform="translate(329.000000, 46.000000)" fill="#FF9800" fill-rule="nonzero">
                                    <path d="M0.0243114794,0.105291379 L0.0243114794,16.5012135 C0.0243114794,21.6091294 4.15342432,25.7527304 9.24475993,25.7527304 C14.334816,25.7527304 18.4562515,21.6091294 18.4562515,16.5012135 L18.4562515,0.105291379 L0.0243114794,0.105291379 Z" id="Path"></path>
                                </g>
                                <g id="Group" transform="translate(349.000000, 46.000000)" fill="#B2EBF2" fill-rule="nonzero">
                                    <path d="M0.0307092371,0.105291379 L0.0307092371,16.5012135 C0.0307092371,21.6091294 4.15982208,25.7527304 9.25115769,25.7527304 C14.3450524,25.7527304 18.4664879,21.6091294 18.4664879,16.5012135 L18.4664879,0.105291379 L0.0307092371,0.105291379 Z" id="Path"></path>
                                </g>
                                <g id="Group" transform="translate(366.000000, 46.000000)" fill="#FF9800" fill-rule="nonzero">
                                    <path d="M0.0409456495,0.105291379 L0.0409456495,16.5012135 C0.0409456495,21.6091294 4.17005849,25.7527304 9.26011455,25.7527304 C14.3476115,25.7527304 18.4767243,21.6091294 18.4767243,16.5012135 L18.4767243,0.105291379 L0.0409456495,0.105291379 Z" id="Path"></path>
                                </g>
                                <g id="Group" transform="translate(46.748168, 38.655724) scale(-1, 1) rotate(-144.225767) translate(-46.748168, -38.655724) translate(29.248168, 32.655724)" fill="#FF9800" fill-rule="nonzero">
                                    <polygon id="Path" points="0.0679141985 11.0686847 20.6777097 11.0686847 34.4522591 1.13417726 15.2693456 0.105706434"></polygon>
                                </g>
                                <g id="Group" transform="translate(48.000000, 33.000000)" fill="#B2EBF2" fill-rule="nonzero">
                                    <polygon id="Path" points="15.2047913 0.0714808262 32.4299381 0.0714808262 19.0383201 11.8951753 0.0250729939 11.8951753"></polygon>
                                </g>
                                <g id="Group" transform="translate(67.000000, 33.000000)" fill="#FF9800" fill-rule="nonzero">
                                    <polygon id="Path" points="14.2953891 0.0714808262 32.6384456 0.0714808262 20.2804856 11.8951753 0.0379337106 11.8951753"></polygon>
                                </g>
                                <g id="Group" transform="translate(86.000000, 33.000000)" fill="#B2EBF2" fill-rule="nonzero">
                                    <polygon id="Path" points="11.4979604 0.0714808262 28.4916621 0.0714808262 18.8008774 11.8951753 0.0455699937 11.8951753"></polygon>
                                </g>
                                <g id="Group" transform="translate(104.000000, 33.000000)" fill="#FF9800" fill-rule="nonzero">
                                    <polygon id="Path" points="9.63787689 0.0714808262 26.4497447 0.0714808262 18.6085855 11.8951753 0.051518786 11.8951753"></polygon>
                                </g>
                                <g id="Group" transform="translate(123.000000, 33.000000)" fill="#B2EBF2" fill-rule="nonzero">
                                    <polygon id="Path" points="7.9201996 0.0714808262 24.7686946 0.0714808262 18.655581 11.8951753 0.0619572328 11.8951753"></polygon>
                                </g>
                                <g id="Group" transform="translate(141.000000, 33.000000)" fill="#FF9800" fill-rule="nonzero">
                                    <polygon id="Path" points="6.30694699 0.0714808262 23.4999294 0.0714808262 19.0433188 11.8951753 0.0697991628 11.8951753"></polygon>
                                </g>
                                <g id="Group" transform="translate(161.000000, 33.000000)" fill="#B2EBF2" fill-rule="nonzero">
                                    <polygon id="Path" points="4.47747953 0.0714808262 21.447439 0.0714808262 18.8095743 11.8951753 0.0780048699 11.8951753"></polygon>
                                </g>
                                <g id="Group" transform="translate(190.424211, 39.385210) scale(-1, 1) rotate(77.648004) translate(-190.424211, -39.385210) translate(181.924211, 29.885210)" fill="#FF9800" fill-rule="nonzero">
                                    <polygon id="Path" points="3.72163063 0.020577591 16.0549891 0.020577591 12.0474931 18.3403753 0.09004058 16.6206161"></polygon>
                                </g>
                                <g id="Group" transform="translate(368.115701, 39.354332) scale(-1, 1) rotate(-35.780434) translate(-368.115701, -39.354332) translate(350.615701, 33.354332)" fill="#FF9800" fill-rule="nonzero">
                                    <polygon id="Path" points="0.100002777 0.0910368387 20.7059031 0.0910368387 34.4791564 10.0255476 15.2962364 11.0527169"></polygon>
                                </g>
                                <g id="Group" transform="translate(352.500000, 39.000000) scale(-1, 1) translate(-352.500000, -39.000000) translate(336.000000, 33.000000)" fill="#B2EBF2" fill-rule="nonzero">
                                    <polygon id="Path" points="15.2839692 0.0714808262 32.5130749 0.0714808262 19.117498 11.8951753 0.104250869 11.8951753"></polygon>
                                </g>
                                <g id="Group" transform="translate(333.500000, 39.000000) scale(-1, 1) translate(-333.500000, -39.000000) translate(317.000000, 33.000000)" fill="#FF9800" fill-rule="nonzero">
                                    <polygon id="Path" points="14.298199 0.0714808262 32.6370406 0.0714808262 20.2790807 11.8951753 0.0379337106 11.8951753"></polygon>
                                </g>
                                <g id="Group" transform="translate(315.500000, 39.000000) scale(-1, 1) translate(-315.500000, -39.000000) translate(301.000000, 33.000000)" fill="#B2EBF2" fill-rule="nonzero">
                                    <polygon id="Path" points="11.5474364 0.0714808262 28.5424401 0.0714808262 18.8555614 11.8951753 0.0963479867 11.8951753"></polygon>
                                </g>
                                <g id="Group" transform="translate(297.500000, 39.000000) scale(-1, 1) translate(-297.500000, -39.000000) translate(284.000000, 33.000000)" fill="#FF9800" fill-rule="nonzero">
                                    <polygon id="Path" points="9.60696562 0.0714808262 26.4214094 0.0714808262 18.5763863 11.8951753 0.0231834537 11.8951753"></polygon>
                                </g>
                                <g id="Group" transform="translate(280.500000, 39.000000) scale(-1, 1) translate(-280.500000, -39.000000) translate(268.000000, 33.000000)" fill="#B2EBF2" fill-rule="nonzero">
                                    <polygon id="Path" points="7.94730589 0.0714808262 24.7945101 0.0714808262 18.6826873 11.8951753 0.0851911951 11.8951753"></polygon>
                                </g>
                                <g id="Group" transform="translate(265.000000, 39.000000) scale(-1, 1) translate(-265.000000, -39.000000) translate(253.000000, 33.000000)" fill="#FF9800" fill-rule="nonzero">
                                    <polygon id="Path" points="6.25426838 0.0714808262 23.4446169 0.0714808262 18.9919571 11.8951753 0.0171205494 11.8951753"></polygon>
                                </g>
                                <g id="Group" transform="translate(244.000000, 39.000000) scale(-1, 1) translate(-244.000000, -39.000000) translate(233.000000, 33.000000)" fill="#B2EBF2" fill-rule="nonzero">
                                    <polygon id="Path" points="4.47357929 0.0714808262 21.4435387 0.0714808262 18.805674 11.8951753 0.0780048699 11.8951753"></polygon>
                                </g>
                                <g id="Group" transform="translate(225.341776, 38.857537) scale(-1, 1) rotate(102.351996) translate(-225.341776, -38.857537) translate(217.341776, 29.357537)" fill="#FF9800" fill-rule="nonzero">
                                    <polygon id="Path" points="3.64302022 18.4395823 15.9763787 18.4395823 11.9675819 0.117180776 0.0101294538 1.83694007"></polygon>
                                </g>
                                <g id="Group" transform="translate(208.166598, 39.030890) scale(-1, 1) rotate(85.825199) translate(-208.166598, -39.030890) translate(201.166598, 29.530890)" fill="#B2EBF2" fill-rule="nonzero">
                                    <polygon id="Path" points="1.33275579 0.0556481039 13.413779 0.0556481039 12.049331 18.7621035 0.0970783414 17.0071935"></polygon>
                                </g>
                                <g id="Group" transform="translate(44.000000, 16.000000)" fill="#FF9800">
                                    <rect id="Rectangle" x="0.0944511077" y="0.0122230845" width="17.6079803" height="10.4281925"></rect>
                                </g>
                                <g id="Group" transform="translate(62.000000, 16.000000)" fill="#B2EBF2">
                                    <rect id="Rectangle" x="0.0261394102" y="0.0122230845" width="17.9613518" height="10.4281925"></rect>
                                </g>
                                <g id="Group" transform="translate(79.000000, 16.000000)" fill="#FF9800">
                                    <rect id="Rectangle" x="0.101197615" y="0.0122230845" width="17.6118933" height="10.4281925"></rect>
                                </g>
                                <g id="Group" transform="translate(97.000000, 16.000000)" fill="#B2EBF2">
                                    <rect id="Rectangle" x="0.0385212361" y="0.0122230845" width="17.9573621" height="10.4281925"></rect>
                                </g>
                                <g id="Group" transform="translate(115.000000, 16.000000)" fill="#FF9800">
                                    <rect id="Rectangle" x="0.107944123" y="0.0122230845" width="17.6118933" height="10.4281925"></rect>
                                </g>
                                <g id="Group" transform="translate(130.000000, 16.000000)" fill="#B2EBF2">
                                    <rect id="Rectangle" x="0.0449783561" y="0.0122230845" width="17.7943918" height="10.4281925"></rect>
                                </g>
                                <g id="Group" transform="translate(149.000000, 16.000000)" fill="#FF9800">
                                    <rect id="Rectangle" x="0.120087837" y="0.0122230845" width="17.6118933" height="10.4281925"></rect>
                                </g>
                                <g id="Group" transform="translate(165.000000, 16.000000)" fill="#B2EBF2">
                                    <rect id="Rectangle" x="0.0553213631" y="0.0122230845" width="17.6120282" height="10.4281925"></rect>
                                </g>
                                <g id="Group" transform="translate(180.000000, 16.000000)" fill="#FF9800">
                                    <rect id="Rectangle" x="0.126834345" y="0.0122230845" width="17.6158062" height="10.4281925"></rect>
                                </g>
                                <g id="Group" transform="translate(200.000000, 16.000000)" fill="#B2EBF2">
                                    <rect id="Rectangle" x="0.0661157754" y="0.0122230845" width="17.6120282" height="10.4281925"></rect>
                                </g>
                                <g id="Group" transform="translate(214.000000, 16.000000)" fill="#FF9800">
                                    <rect id="Rectangle" x="0.00275151686" y="0.0122230845" width="17.9572245" height="10.4281925"></rect>
                                </g>
                                <g id="Group" transform="translate(233.000000, 16.000000)" fill="#B2EBF2">
                                    <rect id="Rectangle" x="0.0742115846" y="0.0122230845" width="17.6120282" height="10.4281925"></rect>
                                </g>
                                <g id="Group" transform="translate(250.000000, 16.000000)" fill="#FF9800">
                                    <rect id="Rectangle" x="0.00963030902" y="0.0122230845" width="17.9612142" height="10.4281925"></rect>
                                </g>
                                <g id="Group" transform="translate(267.000000, 16.000000)" fill="#B2EBF2">
                                    <rect id="Rectangle" x="0.0850059969" y="0.0122230845" width="17.6120282" height="10.4281925"></rect>
                                </g>
                                <g id="Group" transform="translate(281.000000, 16.000000)" fill="#FF9800">
                                    <rect id="Rectangle" x="0.0206363765" y="0.0122230845" width="17.9572245" height="10.4281925"></rect>
                                </g>
                                <g id="Group" transform="translate(301.000000, 16.000000)" fill="#B2EBF2">
                                    <rect id="Rectangle" x="0.0917525046" y="0.0122230845" width="17.6118933" height="10.4281925"></rect>
                                </g>
                                <g id="Clipped" transform="translate(67.000000, 95.000000)">
                                    <mask id="mask-12" fill="white">
                                        <use xlink:href="#path-11"></use>
                                    </mask>
                                    <g id="Shape"></g>
                                    <g id="Group" mask="url(#mask-12)">
                                        <g transform="translate(-40074.069736, -21077.812459)">
                                            <g transform="translate(20080.848156, 10842.512856) scale(-1, 1) rotate(-28.128767) translate(-20080.848156, -10842.512856) translate(-2597.151844, 10672.012856)">
                                                <rect id="Rectangle" fill="#E91E63" x="0.215081333" y="0.028472151" width="45355.253" height="340.367509"></rect>
                                            </g>
                                            <g transform="translate(60120.266644, 31406.066029) rotate(28.128767) translate(-60120.266644, -31406.066029) translate(37441.766644, 31235.566029)">
                                                <rect id="Rectangle" fill="#FF9800" x="0.787936432" y="0.0288805809" width="45355.253" height="340.367509"></rect>
                                            </g>
                                            <g transform="translate(40120.369605, 21088.307598) rotate(28.128762) translate(-40120.369605, -21088.307598) translate(40090.869605, 20977.807598)">
                                                <g id="_Image40-link" transform="translate(0.091524, 0.000664)" fill="url(#linearGradient-13)" stroke="#979797">
                                                    <rect id="Rectangle" x="-3.86251031e-11" y="-1.78337666e-11" width="57.375" height="220.73494"></rect>
                                                </g>
                                            </g>
                                        </g>
                                    </g>
                                </g>
                                <g id="Group" transform="translate(112.000000, 141.000000)" fill="#00BCD4">
                                    <rect id="Rectangle" x="0.0855615916" y="0.118156484" width="10.4281925" height="10.4280567"></rect>
                                </g>
                                <g id="Group" transform="translate(104.000000, 141.000000)" fill="#B2EBF2">
                                    <rect id="Rectangle" x="0.0991427967" y="0.118156484" width="10.4281925" height="10.4280567"></rect>
                                </g>
                            </g>
                            <g id="Group-14" transform="translate(411.000000, 47.000000)" fill-rule="nonzero">
                                <g id="Group" transform="translate(0.000000, 3.000000)" fill="#F8BBD0">
                                    <path d="M12.9946381,0.034497907 C5.17962466,5.04730916 0.0107238606,13.7487428 0.0107238606,23.6483152 C0.0107238606,39.1843149 12.730563,51.7747241 28.4262735,51.7747241 C44.1219839,51.7747241 56.8418231,39.1843149 56.8418231,23.6483152 L28.4262735,23.6483152 L12.9946381,0.034497907 Z" id="Path"></path>
                                </g>
                                <g id="Group" transform="translate(28.000000, 12.000000)" fill="#FF9800">
                                    <path d="M0.00784432444,13.9226283 L27.7218426,13.9226283 C27.7218426,8.75897183 25.894115,3.97328442 22.7982216,0.027656272 L0.00784432444,13.9226283 Z" id="Path"></path>
                                </g>
                                <g id="Group" transform="translate(33.000000, 14.000000) scale(-1, 1) translate(-33.000000, -14.000000) translate(14.000000, 0.000000)" fill="#E91E63">
                                    <path d="M22.9237631,0.0313772977 C28.4800877,0.0313772977 33.6427086,1.6708411 37.9812982,4.47780187 L22.9237631,27.7453755 L0.122950686,11.9822056 C5.1299212,4.76281232 13.47618,0.0313772977 22.9237631,0.0313772977" id="Path"></path>
                                </g>
                            </g>
                            <g id="Group-6" transform="translate(96.000000, 0.000000)" fill-rule="nonzero">
                                <g id="Group" fill="url(#linearGradient-14)">
                                    <path d="M38.8754698,0.033732532 C35.9488997,6.16120139 29.7093686,10.3941783 22.4834043,10.3941783 C15.25744,10.3941783 9.01790891,6.16120139 6.09224797,0.033732532 L0,0.033732532 L0,61.91196 L6.09224797,61.91196 C9.01790891,55.7844911 15.25744,51.5515142 22.4834043,51.5515142 C29.7093686,51.5515142 35.9488997,55.7844911 38.8754698,61.91196 L44.9668086,61.91196 L44.9668086,0.033732532 L38.8754698,0.033732532 Z" id="Path"></path>
                                </g>
                                <g id="Group" transform="translate(21.500000, 30.500000) scale(-1, 1) rotate(90.000000) translate(-21.500000, -30.500000) translate(10.000000, 19.000000)" fill="#E91E63">
                                    <path d="M11.4724143,0.0349502339 C5.15428575,0.0349502339 0.0323289664,5.15690701 0.0323289664,11.4750355 C0.0323289664,17.7940378 5.15428575,22.9151209 11.4724143,22.9151209 C17.7914166,22.9151209 22.9124996,17.7940378 22.9124996,11.4750355 C22.9124996,5.15690701 17.7914166,0.0349502339 11.4724143,0.0349502339" id="Path"></path>
                                </g>
                                <g id="Group" transform="translate(3.000000, 46.000000)" fill="#FF9800">
                                    <path d="M0.0896063214,2.73797093 L3.3471129,2.73797093 L3.3471129,0.0711161281 L0.0896063214,0.0711161281 L0.0896063214,2.73797093 Z M6.60099901,2.73797093 L9.85488513,2.73797093 L9.85488513,0.0711161281 L6.60099901,0.0711161281 L6.60099901,2.73797093 Z M13.1123917,2.73797093 L16.3662778,2.73797093 L16.3662778,0.0711161281 L13.1123917,0.0711161281 L13.1123917,2.73797093 Z M19.6210691,2.73797093 L22.8776705,2.73797093 L22.8776705,0.0711161281 L19.6210691,0.0711161281 L19.6210691,2.73797093 Z M26.1315566,2.73797093 L29.3863479,2.73797093 L29.3863479,0.0711161281 L26.1315566,0.0711161281 L26.1315566,2.73797093 Z M32.6429493,2.73797093 L35.8977405,2.73797093 L35.8977405,0.0711161281 L32.6429493,0.0711161281 L32.6429493,2.73797093 Z" id="Shape"></path>
                                </g>
                                <g id="Group" transform="translate(42.000000, 46.000000)" fill="#B2EBF2">
                                    <polygon id="Path" points="0.137787498 2.73797093 2.75574996 2.73797093 2.75574996 0.0711161281"></polygon>
                                </g>
                                <g id="Group" transform="translate(19.000000, 26.000000)" fill="#FFFFFF">
                                    <path d="M4.89545647,0.2716241 L0.0844504021,8.75617328 C-0.0551149993,8.99734255 0.0453365317,9.29530596 0.305799351,9.42206387 C0.56626217,9.54882179 0.888951602,9.45581111 1.028517,9.21464183 L5.83952307,0.730092658 C5.97553267,0.488923381 5.87508113,0.190959974 5.61461832,0.0642020601 C5.3541555,-0.0625558534 5.03146606,0.0304548234 4.89545647,0.2716241" id="Path"></path>
                                </g>
                                <g id="Group" transform="translate(16.000000, 26.000000)" fill="#FFFFFF">
                                    <path d="M0.0721038521,2.48906448 L1.2593481,2.48906448 C1.2593481,1.80160858 1.81543672,1.24848314 2.50289262,1.24551997 C3.18837308,1.24848314 3.74446169,1.80160858 3.74446169,2.48906448 C3.74446169,3.17750811 3.18837308,3.73063355 2.50289262,3.73359673 C1.81543672,3.73063355 1.2593481,3.17750811 1.2593481,2.48906448 L0.0721038521,2.48906448 C0.0721038521,3.83039368 1.16156343,4.91689008 2.50289262,4.91689008 C3.84422181,4.91689008 4.93071822,3.83039368 4.93071822,2.48906448 C4.93071822,1.14773529 3.84422181,0.0612388881 2.50289262,0.0612388881 C1.16156343,0.0612388881 0.0721038521,1.14773529 0.0721038521,2.48906448" id="Path"></path>
                                </g>
                                <g id="Group" transform="translate(24.000000, 34.000000)" fill="#FFFFFF">
                                    <path d="M3.73952307,2.4940031 L4.9257796,2.4940031 C4.92281642,1.15267391 3.83632002,0.0661775081 2.49499083,0.0661775081 C1.15366163,0.0661775081 0.0701284041,1.15267391 0.0671652321,2.4940031 C0.0701284041,3.8353323 1.15366163,4.9218287 2.49499083,4.9218287 C3.83632002,4.9218287 4.92281642,3.8353323 4.9257796,2.4940031 L3.73952307,2.4940031 C3.73952307,3.17948356 3.18343446,3.73557217 2.49499083,3.73853535 C1.8104981,3.73557217 1.25440948,3.17948356 1.25440948,2.4940031 C1.25440948,1.8065472 1.8104981,1.25045859 2.49499083,1.25045859 C3.18343446,1.25045859 3.73952307,1.8065472 3.73952307,2.4940031" id="Path"></path>
                                </g>
                            </g>
                        </g>
                    </g>
                </g>
            </g>
        </g>
    </g>
</svg>