<?xml version="1.0" encoding="UTF-8"?>
<svg width="314px" height="218px" viewBox="0 0 314 218" version="1.1" xmlns="http://www.w3.org/2000/svg" xmlns:xlink="http://www.w3.org/1999/xlink">
    <!-- Generator: Sketch 64 (93537) - https://sketch.com -->
    <title>Artwork</title>
    <desc>Created with Sketch.</desc>
    <defs>
        <linearGradient x1="0%" y1="49.9994365%" x2="100%" y2="49.9994365%" id="linearGradient-1">
            <stop stop-color="#E91E63" offset="0%"></stop>
            <stop stop-color="#F8BBD0" offset="100%"></stop>
        </linearGradient>
        <linearGradient x1="0%" y1="49.9994368%" x2="100%" y2="49.9994368%" id="linearGradient-2">
            <stop stop-color="#00BCD4" offset="0%"></stop>
            <stop stop-color="#B2EBF2" offset="100%"></stop>
        </linearGradient>
        <linearGradient x1="31.7864048%" y1="37.1443708%" x2="100%" y2="70.9771801%" id="linearGradient-3">
            <stop stop-color="#F8BBD0" offset="0%"></stop>
            <stop stop-color="#FFE0B2" offset="100%"></stop>
        </linearGradient>
        <linearGradient x1="0.000194773519%" y1="49.99925%" x2="100%" y2="49.99925%" id="linearGradient-4">
            <stop stop-color="#E91E63" offset="0%"></stop>
            <stop stop-color="#F8BBD0" offset="100%"></stop>
        </linearGradient>
        <linearGradient x1="-0.000105839853%" y1="49.9997187%" x2="100%" y2="49.9997187%" id="linearGradient-5">
            <stop stop-color="#00BCD4" offset="0%"></stop>
            <stop stop-color="#B2EBF2" offset="100%"></stop>
        </linearGradient>
        <linearGradient x1="7.97846643%" y1="0%" x2="83.4282463%" y2="100%" id="linearGradient-6">
            <stop stop-color="#E91E63" offset="0%"></stop>
            <stop stop-color="#FF9800" offset="100%"></stop>
        </linearGradient>
        <linearGradient x1="0.000458870328%" y1="50.0000478%" x2="100.00057%" y2="50.0000478%" id="linearGradient-7">
            <stop stop-color="#E91E63" offset="0%"></stop>
            <stop stop-color="#F8BBD0" offset="100%"></stop>
        </linearGradient>
        <linearGradient x1="-0.000187223475%" y1="49.9994566%" x2="99.9997076%" y2="49.9994566%" id="linearGradient-8">
            <stop stop-color="#FF9800" offset="0%"></stop>
            <stop stop-color="#FFE0B2" offset="100%"></stop>
        </linearGradient>
    </defs>
    <g id="Utilities" stroke="none" stroke-width="1" fill="none" fill-rule="evenodd">
        <g id="404" transform="translate(-212.000000, -283.000000)">
            <g id="Container" transform="translate(212.000000, 210.000000)">
                <g id="Artwork" transform="translate(0.000000, 73.000000)">
                    <g id="Group-3" transform="translate(67.000000, 1.000000)">
                        <g id="Group" transform="translate(0.000000, 68.000000)" fill="#B2EBF2">
                            <path d="M8.42253422,9.42532101 C8.69920277,9.70308311 9.15029279,9.70308311 9.42641456,9.42532101 C9.70417666,9.14810569 9.70417666,8.69974954 9.42641456,8.42198744 L4.95160152,3.94772118 C4.67383942,3.66995908 4.22548328,3.66995908 3.9471744,3.94772118 C3.67269296,4.22548328 3.67269296,4.67493298 3.9471744,4.95105475 L8.42253422,9.42532101 Z M21.840412,22.8431988 C22.1165338,23.1209609 22.5665303,23.1209609 22.8431988,22.8431988 C23.1215077,22.5654367 23.1215077,22.1165338 22.8431988,21.8382249 L18.3689326,17.3650522 C18.0911705,17.0878369 17.6428143,17.0878369 17.365599,17.3650522 C17.0883837,17.6428143 17.0883837,18.092264 17.365599,18.3689326 L21.840412,22.8431988 Z M8.42253422,17.3650522 L3.9471744,21.8382249 C3.67269296,22.1165338 3.67269296,22.5654367 3.9471744,22.8431988 C4.2249365,23.1209609 4.67383942,23.1209609 4.95105475,22.8431988 L9.42586779,18.3689326 C9.70362989,18.0911705 9.70362989,17.6428143 9.42586779,17.3650522 C9.15029279,17.0878369 8.69865599,17.0878369 8.42253422,17.3650522 Z M18.3694793,9.42532101 L22.8437456,4.95105475 C23.1220545,4.6743862 23.1220545,4.22548328 22.8437456,3.94772118 C22.5659835,3.66995908 22.115987,3.66995908 21.8409588,3.94772118 L17.3661458,8.42198744 C17.0894772,8.69974954 17.0894772,9.14865246 17.3661458,9.42532101 C17.6439079,9.70198956 18.0928108,9.70198956 18.3694793,9.42532101 Z M0.744708621,14.105175 L7.07199802,14.105175 C7.46294271,14.105175 7.78061944,13.7885918 7.78061944,13.39546 C7.78061944,13.0039685 7.46294271,12.6868386 7.07199802,12.6868386 L0.744708621,12.6868386 C0.352123607,12.6868386 0.0349936503,13.0034218 0.0349936503,13.39546 C0.0349936503,13.7874982 0.352123607,14.105175 0.744708621,14.105175 Z M19.0097538,13.3949132 C19.0097538,13.7874982 19.3279773,14.1040814 19.7205623,14.1040814 L26.0483985,14.1040814 C26.4393432,14.1040814 26.7570199,13.7874982 26.7570199,13.3949132 C26.7570199,13.002875 26.4393432,12.6862918 26.0483985,12.6862918 L19.7205623,12.6862918 C19.3279773,12.6862918 19.0097538,13.002875 19.0097538,13.3949132 Z M13.3965535,26.7564731 C13.7891386,26.7564731 14.1062685,26.4387964 14.1062685,26.0478517 L14.1062685,19.7200155 C14.1062685,19.3279773 13.7891386,19.0103006 13.3965535,19.0103006 C13.0045153,19.0103006 12.686289,19.3279773 12.686289,19.7200155 L12.686289,26.0478517 C12.6851983,26.4387964 13.0045153,26.7564731 13.3965535,26.7564731 Z M13.3965535,7.78061944 C13.7891386,7.78061944 14.1062685,7.46294271 14.1062685,7.07199802 L14.1062685,0.744161846 C14.1062685,0.350483279 13.7891386,0.0349936503 13.3965535,0.0349936503 C13.0045153,0.0349936503 12.686289,0.350483279 12.686289,0.744161846 L12.686289,7.07199802 C12.6851983,7.46294271 13.0045153,7.78061944 13.3965535,7.78061944" id="Shape"></path>
                        </g>
                        <g id="Group" transform="translate(68.000000, 0.000000)" fill="#FF9800">
                            <path d="M8.41706646,9.4187597 C8.69373501,9.69542825 9.14427826,9.69542825 9.42040003,9.4187597 C9.69816213,9.1409976 9.69816213,8.69264146 9.42040003,8.41433258 L4.94558699,3.94006632 C4.66782489,3.66230422 4.21946875,3.66230422 3.94115987,3.94006632 C3.6672252,4.21782842 3.6672252,4.66837167 3.94115987,4.94449344 L8.41706646,9.4187597 Z M21.8349443,22.8366375 C22.111066,23.1143996 22.5610625,23.1143996 22.8377311,22.8366375 C23.1160399,22.5594222 23.1160399,22.1099725 22.8377311,21.8316636 L18.3634648,17.3584909 C18.0857027,17.0812756 17.6373466,17.0812756 17.3595845,17.3584909 C17.0829159,17.6357062 17.0829159,18.0857027 17.3595845,18.3623712 L21.8349443,22.8366375 Z M8.41706646,17.3584909 L3.94115987,21.8316636 C3.66667843,22.1099725 3.66667843,22.5594222 3.94115987,22.8366375 C4.21946875,23.1143996 4.66782489,23.1143996 4.94504021,22.8366375 L9.41985325,18.3623712 C9.69761535,18.0851559 9.69761535,17.6357062 9.41985325,17.3584909 C9.14427826,17.0812756 8.69373501,17.0812756 8.41706646,17.3584909 Z M18.3640116,9.4187597 L22.8382778,4.94449344 C23.1165867,4.66782489 23.1165867,4.21728164 22.8382778,3.94006632 C22.5610625,3.66230422 22.111066,3.66230422 21.8360378,3.94006632 L17.3612248,8.41433258 C17.0840095,8.69264146 17.0840095,9.14209115 17.3612248,9.4187597 C17.6384401,9.69488147 18.0867962,9.69488147 18.3640116,9.4187597 Z M0.739240864,14.0975201 L7.06653027,14.0975201 C7.45747495,14.0975201 7.77515169,13.7798434 7.77515169,13.3883519 C7.77515169,12.9963137 7.45747495,12.6791837 7.06653027,12.6791837 L0.739240864,12.6786369 C0.346655849,12.6786369 0.0289791167,12.9963137 0.0289791167,13.3878051 C0.0289791167,13.7798434 0.346655849,14.0975201 0.739240864,14.0975201 Z M19.004286,13.3878051 C19.004286,13.7798434 19.3225095,14.0975201 19.7150945,14.0975201 L26.0423839,14.0975201 C26.4338754,14.0975201 26.7515521,13.7798434 26.7515521,13.3883519 C26.7515521,12.9963137 26.4338754,12.6791837 26.0423839,12.6791837 L19.7150945,12.6786369 C19.3225095,12.6786369 19.004286,12.9957669 19.004286,13.3878051 Z M13.390539,26.749365 C13.7836708,26.749365 14.1008008,26.4311415 14.1008008,26.0407436 L14.1008008,19.7129074 C14.1008008,19.3203224 13.783124,19.0026457 13.390539,19.0026457 C12.9985008,19.0026457 12.6802773,19.3203224 12.6802773,19.7129074 L12.6802773,26.0407436 C12.6802773,26.4311415 12.9985008,26.749365 13.390539,26.749365 Z M13.390539,7.77296458 C13.7836708,7.77296458 14.1008008,7.4563814 14.1008008,7.06434316 L14.1008008,0.736506985 C14.1008008,0.34392197 13.783124,0.0273387893 13.390539,0.0273387893 C12.9985008,0.0273387893 12.6802773,0.34392197 12.6802773,0.736506985 L12.6802773,7.06434316 C12.6802773,7.4563814 12.9985008,7.77296458 13.390539,7.77296458" id="Shape"></path>
                        </g>
                        <g id="Group" transform="translate(220.000000, 63.000000)" fill="#E91E63">
                            <path d="M4.93683858,3.93569211 C4.65907648,3.65847679 4.21072033,3.65847679 3.93295823,3.93569211 C3.65847679,4.21345421 3.65847679,4.66345068 3.93295823,4.93957246 L8.40831805,9.41383872 C8.6849866,9.69160082 9.13607662,9.69160082 9.41219839,9.41383872 C9.68996049,9.13607662 9.68996049,8.68772047 9.41219839,8.40995837 L4.93683858,3.93569211 Z M18.3547164,17.3530231 C18.0769543,17.0763546 17.6285981,17.0763546 17.3513828,17.3530231 C17.0741675,17.631332 17.0741675,18.0807817 17.3513828,18.3574503 L21.8261959,22.8317165 C22.1017708,23.1094786 22.5517673,23.1094786 22.8289826,22.8317165 C23.1067447,22.5539544 23.1067447,22.1045047 22.8289826,21.8267426 L18.3547164,17.3530231 Z M8.40831805,17.3530231 L3.93241146,21.8267426 C3.65793001,22.1045047 3.65793001,22.5539544 3.93241146,22.8317165 C4.21072033,23.1094786 4.65907648,23.1094786 4.93683858,22.8317165 L9.41165162,18.3574503 C9.68941372,18.0796882 9.68941372,17.631332 9.41165162,17.3530231 C9.13498307,17.0774481 8.68443982,17.0774481 8.40831805,17.3530231 Z M18.3547164,9.41383872 L22.8289826,4.93957246 C23.1072915,4.66290391 23.1072915,4.21345421 22.8289826,3.93569211 C22.5512205,3.65847679 22.1017708,3.65847679 21.8261959,3.93569211 L17.3513828,8.40995837 C17.0747143,8.68772047 17.0747143,9.13717017 17.3513828,9.41383872 C17.6285981,9.69105404 18.0780478,9.69105404 18.3547164,9.41383872 Z M7.76640327,13.3839777 C7.76640327,12.9919395 7.44872654,12.6748095 7.05778185,12.6748095 L0.730492451,12.6748095 C0.337907436,12.6748095 0.0207774799,12.9919395 0.0207774799,13.3839777 C0.0207774799,13.7765627 0.337907436,14.0931459 0.730492451,14.0931459 L7.05778185,14.0931459 C7.44872654,14.0931459 7.76640327,13.7765627 7.76640327,13.3839777 Z M26.0341823,12.6742627 L19.7063461,12.6742627 C19.3137611,12.6742627 18.9955376,12.9913927 18.9955376,13.3828842 C18.9955376,13.7760159 19.3137611,14.0925991 19.7063461,14.0925991 L26.0341823,14.0925991 C26.425127,14.0925991 26.7428037,13.7760159 26.7428037,13.3828842 C26.7428037,12.9919395 26.425127,12.6742627 26.0341823,12.6742627 Z M13.3812438,18.9988183 C12.9892056,18.9988183 12.6709821,19.316495 12.6709821,19.7079865 L12.6709821,26.0358226 C12.6709821,26.4273141 12.9892056,26.7444441 13.3812438,26.7444441 C13.7743756,26.7444441 14.0915084,26.4273141 14.0915084,26.0358226 L14.0915084,19.7079865 C14.0925991,19.3159482 13.7743756,18.9988183 13.3812438,18.9988183 Z M13.3812438,0.022964583 C12.9892056,0.022964583 12.6709821,0.339000988 12.6709821,0.732679554 L12.6709821,7.05996896 C12.6709821,7.45146042 12.9892056,7.76913715 13.3812438,7.76913715 C13.7743756,7.76913715 14.0915084,7.45146042 14.0915084,7.05996896 L14.0915084,0.732679554 C14.0925991,0.339000988 13.7743756,0.022964583 13.3812438,0.022964583" id="Shape"></path>
                        </g>
                    </g>
                    <g id="Group-5" transform="translate(182.000000, 0.000000)">
                        <g id="Group" fill="url(#linearGradient-1)">
                            <path d="M46.0687762,6.95967466 L46.0687762,26.3724828 C46.0687762,30.2046 42.9722497,33.3099841 39.1511923,33.3099841 L28.5479516,33.3099841 L17.5401674,49.206646 L19.4053784,33.3099841 L6.94355863,33.3099841 C3.12415926,33.3099841 0.0270800997,30.2040456 0.0270800997,26.3724828 L0.0270800997,6.95967466 C0.0270800997,3.1275575 3.1236066,0.0216190611 6.94355863,0.0216190611 L39.150087,0.0210647262 C42.9722497,0.0205103913 46.0687762,3.1275575 46.0687762,6.95967466 Z" id="Path"></path>
                        </g>
                        <g id="Group" transform="translate(12.500000, 17.500000) scale(-1, 1) rotate(-90.000000) translate(-12.500000, -17.500000) translate(10.000000, 15.000000)" fill="#F8BBD0">
                            <path d="M2.46197263,0.0496684069 C3.8024552,0.0496684069 4.89008043,1.13672922 4.89008043,2.47777621 C4.89008043,3.81825878 3.8024552,4.90588401 2.46197263,4.90588401 C1.12092564,4.90588401 0.0333004092,3.81825878 0.0333004092,2.47777621 C0.0333004092,1.1356004 1.12092564,0.0496684069 2.46197263,0.0496684069" id="Path"></path>
                        </g>
                        <g id="Group" transform="translate(22.500000, 17.500000) scale(-1, 1) rotate(90.000000) translate(-22.500000, -17.500000) translate(20.000000, 15.000000)" fill="#F8BBD0">
                            <path d="M2.42923663,0.0496684069 C3.77028362,0.0496684069 4.85790885,1.13729364 4.85790885,2.47777621 C4.85790885,3.81825878 3.77028362,4.90588401 2.42923663,4.90588401 C1.08875406,4.90588401 0.00112882743,3.81825878 0.00112882743,2.47777621 C0.00112882743,1.13729364 1.08875406,0.0496684069 2.42923663,0.0496684069" id="Path"></path>
                        </g>
                        <g id="Group" transform="translate(33.500000, 17.500000) scale(-1, 1) rotate(-90.000000) translate(-33.500000, -17.500000) translate(31.000000, 15.000000)" fill="#F8BBD0">
                            <path d="M2.45350642,0.0496684069 C3.79398899,0.0496684069 4.88161422,1.13729364 4.88161422,2.47777621 C4.88161422,3.8188232 3.79398899,4.90588401 2.45350642,4.90588401 C1.11302385,4.90588401 0.0253986172,3.8188232 0.0253986172,2.47777621 C0.0253986172,1.13672922 1.11302385,0.0496684069 2.45350642,0.0496684069" id="Path"></path>
                        </g>
                    </g>
                    <g id="Group-4" transform="translate(125.000000, 37.000000)">
                        <g id="Group" fill="url(#linearGradient-2)">
                            <path d="M46.0488806,6.98295672 L46.0488806,26.3963192 C46.0488806,30.227882 42.9518014,33.3338205 39.1318494,33.3338205 L26.6700296,33.3343748 L28.5352406,49.2310367 L17.528009,33.3343748 L6.9242157,33.3343748 C3.10315837,33.3343748 0.00663186115,30.227882 0.00663186115,26.3963192 L0.00663186115,6.98351106 C0.00663186115,3.1513939 3.10315837,0.0454551651 6.9242157,0.0454551651 L39.1307441,0.0454551651 C42.9518014,0.0443467919 46.0488806,3.1513939 46.0488806,6.98295672 Z" id="Path"></path>
                        </g>
                        <g id="Group" transform="translate(10.000000, 15.000000)" fill="#89D4EE">
                            <path d="M2.44108932,4.87427684 C3.78213631,4.87427684 4.86919712,3.78665162 4.86919712,2.44560463 C4.86919712,1.10512205 3.78270072,0.0174968252 2.44108932,0.0174968252 C1.10117116,0.0174968252 0.0135459292,1.10512205 0.0135459292,2.44560463 C0.0135459292,3.78665162 1.10117116,4.87427684 2.44108932,4.87427684" id="Path"></path>
                        </g>
                        <g id="Group" transform="translate(22.500000, 17.500000) scale(-1, 1) rotate(90.000000) translate(-22.500000, -17.500000) translate(20.000000, 15.000000)" fill="#B2EBF2">
                            <path d="M2.46535911,0.0180612389 C3.80584168,0.0180612389 4.89346691,1.10568647 4.89346691,2.44616904 C4.89346691,3.7860872 3.80584168,4.87371243 2.46535911,4.87371243 C1.12487653,4.87371243 0.0372513052,3.7860872 0.0372513052,2.44616904 C0.0372513052,1.10568647 1.12487653,0.0180612389 2.46535911,0.0180612389" id="Path"></path>
                        </g>
                        <g id="Group" transform="translate(32.500000, 16.500000) scale(-1, 1) rotate(-90.000000) translate(-32.500000, -16.500000) translate(30.000000, 14.000000)" fill="#B2EBF2">
                            <path d="M2.43318753,0.0180612389 C3.7736701,0.0180612389 4.86129533,1.10568647 4.86129533,2.44616904 C4.86129533,3.78665162 3.7736701,4.87371243 2.43318753,4.87371243 C1.09214054,4.87371243 0.00451530972,3.78721603 0.00451530972,2.44616904 C0.00451530972,1.10455764 1.09214054,0.0180612389 2.43318753,0.0180612389" id="Path"></path>
                        </g>
                    </g>
                    <g id="Group" transform="translate(63.000000, 91.000000)" fill="url(#linearGradient-3)">
                        <path d="M135.194416,3.14524746 C109.990694,-0.0912542331 86.0574404,-0.469021624 63.3946566,2.01194529 C52.1145548,2.01194529 42.0096985,24.7798106 31,38 C25.058369,45.1345721 15.1762973,46.7175991 13.0333734,46.7175991 C5.8641028,46.7175991 0.0515854673,54.5670418 0.0515854673,64.2482803 L0.0515854673,126.281545 L220.74309,126.281545 C223.419857,67.6529951 211.505493,37.5591467 185,36 C168,35 173,8 135.194416,3.14524746 Z" id="Path"></path>
                    </g>
                    <g id="Group-7" transform="translate(97.000000, 60.000000)">
                        <g id="Group" transform="translate(162.000000, 17.000000)" fill="#FF9800">
                            <path d="M1.55608861,15.3988994 C1.44489911,14.9580923 1.37716947,14.4992239 1.37208974,14.0239876 C1.33653168,10.8057006 3.88542402,8.17553267 7.05630027,8.1399746 C7.70932694,8.13320164 8.33413292,8.24156907 8.9216876,8.43911387 L8.9216876,2.09115282 C8.9216876,-0.367433329 6.92874277,0.0677296458 4.47072104,0.0677296458 C2.01326372,0.0677296458 0.01975448,-0.367433329 0.01975448,2.09115282 L0.01975448,13.4211937 C0.01975448,14.7622407 0.616904191,15.2397347 1.55608861,15.3988994" id="Path"></path>
                        </g>
                        <g id="Group" transform="translate(139.000000, 58.000000)" fill="#BF360C">
                            <path d="M56.8752489,51.1478004 C55.7732311,50.6623286 53.3688287,47.8530136 53.3688287,47.8530136 L61.0979807,7.86386775 C62.6090808,5.26379829 61.3378643,3.67452866 56.9576219,1.02303351 C49.363161,-3.57427902 33.8742455,9.48801164 33.8742455,9.48801164 L33.3944782,9.69836429 L33.4145148,9.75372025 L25.7438032,15.2693882 L14.847185,23.1033637 L6.7980026,28.8908294 L0.296654281,33.5661938 L0.0194801123,32.9218504 C0.13803051,35.4189578 0.707962937,37.9492787 2.00589499,40.3118711 C2.75671417,41.6802705 4.30955741,42.846067 6.28261449,43.8502241 C7.11858959,44.2753579 8.0291457,44.6717066 8.98923694,45.0409308 C13.3327454,46.7132344 18.6441372,47.8430496 22.2924839,48.6960849 C24.4809354,49.2081276 26.073852,49.6199759 26.4918395,49.9886466 C27.390151,50.3611922 28.2060894,50.7542195 28.9580217,51.1522289 C27.3278146,54.5178713 26.3270934,59.1273621 26.7150259,65.4517806 C27.0634417,71.16673 25.9931486,85.6234926 27.3356067,90.474889 L26.4528793,97.9706396 L35.4532477,98.1284041 L41.6796482,98.2380089 C41.6796482,98.2380089 45.1259583,98.3797202 45.0903376,96.6885956 C45.037463,94.0885261 38.3669159,94.7743865 36.0064829,93.7873897 C35.846746,93.7209625 35.6563975,93.6030543 35.4532477,93.4563611 C34.2382453,92.5833976 32.4371698,90.562905 32.4371698,90.562905 L35.4532477,74.2539319 L39.747221,51.0348743 C39.9915573,50.3135861 40.2486948,49.5070497 40.5280953,48.5831588 C41.7375319,44.5787086 38.2316683,40.1734812 34.7029851,36.9373718 C38.7882429,32.7441578 42.323605,27.5146802 44.6751329,24.6610804 C44.9840318,24.285767 45.272894,23.9525241 45.5394933,23.6674409 C45.5912547,24.4772986 45.6541477,25.362994 45.7242761,26.3018311 C46.2680495,33.5279982 47.3132966,43.9271689 48.2711616,47.6670176 L47.2409419,55.1445008 L48.3440729,55.1849106 L62.4593622,55.7074709 C62.4593622,55.7074709 65.9012198,55.9161629 65.8995506,54.2250383 C65.9006632,51.622201 59.2156452,52.1785284 56.8752489,51.1478004" id="Path"></path>
                        </g>
                        <g id="Group" transform="translate(101.000000, 32.000000)" fill="url(#linearGradient-4)">
                            <path d="M77.4884436,23.5944423 C76.0894737,23.3760936 74.7674192,22.8560569 73.7691901,21.9087678 C71.6707351,19.9202942 68.3940243,8.84340165 68.3940243,8.84340165 C68.3940243,8.84340165 67.7792578,7.4094116 67.1990476,5.6209521 C63.3047834,3.8636059 57.894504,1.57344433 55.6221532,1.31898194 C55.0112883,1.25064378 54.4182588,1.26231127 53.8475236,1.34120573 C53.1675462,1.25508854 52.476979,1.26897841 51.7880838,1.41454424 L47.6430083,2.24626958 L47.6279596,5.69873536 L47.6156978,8.45948568 L46.3633131,8.45392973 L46.2050233,8.45392973 L33.2336179,8.39892585 L33.2475519,5.26981621 L33.2609285,2.14292895 L33.266502,0.837836884 C23.8627487,-0.0883395654 15.0704177,-0.483367433 1.41178919,1.23564273 C1.32762805,1.24675462 1.24402427,1.25508854 1.15874841,1.26620044 C0.245237759,1.38287534 -0.0579652886,1.78068118 0.0746860449,2.36794483 C2.59952025,1.13952483 8.12907436,1.06063038 10.9938973,4.45364752 C12.1654649,5.84319 13.6742345,10.3685092 14.8000988,14.1765557 C15.5865317,14.3254551 16.8762593,14.565472 18.4691901,14.8460473 L37.6434387,59.5714248 L37.9204459,60.2181371 L44.4315084,55.5255838 L52.4920277,49.7168407 L63.4034359,41.8540638 L71.0855087,36.3181177 L71.0654438,36.2625582 L66.0625935,22.4965871 C70.1235078,23.472767 74.1571116,23.9283547 77.4884436,23.5944423 Z" id="Path"></path>
                        </g>
                        <g id="Group" transform="translate(131.000000, 0.000000)" fill="#212121">
                            <path d="M25.6208198,5.63397771 C25.2030831,1.73601312 20.2372654,-2.45338295 14.6213313,1.79561168 C11.5413433,4.12487653 9.17435092,6.24308593 9.17435092,6.24308593 C5.90299139,5.81605404 2.81972273,5.48306759 0.69167137,10.0371631 C0.69167137,10.0371631 -0.955764075,15.4770354 0.967793142,21.8108861 C1.88145548,24.8312756 2.96297799,24.7601947 3.62621702,26.1030761 C3.62621702,26.1030761 3.58192818,23.9411246 4.02645689,22.0514675 C4.03848596,22.0028044 4.05215535,21.957422 4.06527797,21.9093058 C4.33483844,20.8348914 4.76624453,19.8681918 5.46502399,19.4734196 C6.51045929,18.8856357 7.4880944,21.3559687 7.69750952,21.9251623 C7.72320799,21.9984302 7.73961126,22.0438126 7.73961126,22.0438126 C7.73961126,22.0438126 7.74945322,21.9946028 7.76148229,21.9251623 C7.82436151,21.5801467 8.01081205,20.4876887 8.01299915,19.682288 C8.01792014,18.7161352 8.07587837,17.0987724 10.2733703,14.7536511 C10.5620679,14.4447227 10.7610943,14.0843975 10.8966947,13.6956399 L22.8360907,13.7459433 C22.835544,13.7432094 26.0347291,9.53084874 25.6208198,5.63397771" id="Path"></path>
                        </g>
                        <g id="Group" transform="translate(151.022931, 18.581960) scale(-1, 1) rotate(-174.576381) translate(-151.022931, -18.581960) translate(150.022931, 17.081960)" fill="#D7CCC8">
                            <path d="M0.695142524,0.0323938016 C1.05308403,0.0346125312 1.34342668,0.505537886 1.34398077,1.08407163 C1.34675122,1.65872259 1.05807084,2.12521048 0.695142524,2.12190009 C0.33830919,2.12132771 0.0451960954,1.65151172 0.0468513271,1.0724233 C0.0479665406,0.496662968 0.333876478,0.0268469776 0.695142524,0.0323938016" id="Path"></path>
                        </g>
                        <g id="Group" transform="translate(143.648054, 19.022450) scale(-1, 1) rotate(-174.584049) translate(-143.648054, -19.022450) translate(142.648054, 17.022450)" fill="#D7CCC8">
                            <path d="M0.676533678,1.00874887 C1.03281305,1.00985824 1.32814261,1.47911972 1.32592625,2.06042708 C1.3286967,2.6367423 1.0405703,3.10156631 0.676533678,3.09825598 C0.321916573,3.09601949 0.0265870152,2.62620333 0.0276920851,2.04988811 C0.0276920851,1.47301821 0.315821591,1.00375673 0.676533678,1.00874887" id="Path"></path>
                        </g>
                        <g id="Group" transform="translate(0.000000, 14.000000)" fill="#FFF3E0">
                            <path d="M31.6739269,81.8548516 L25.2753718,75.6778256 L25.0801185,75.4888176 L25.2759249,75.6783783 L31.6739269,81.8548516 Z M23.6773924,74.1359179 L25.0801185,75.4888176 L23.6773924,74.1359179 Z M6.26887541,57.6369526 C6.65219134,57.9989417 7.1406011,58.1056042 7.36406378,57.8663045 C7.58310145,57.6319787 7.45643573,57.141221 7.07201355,56.775916 C6.69146324,56.4117163 6.2013941,56.3061592 5.97848455,56.5454588 C5.75723437,56.7814425 5.88334697,57.2722003 6.26887541,57.6369526 Z M1.16961197,62.0327713 C1.55182165,62.3958657 2.04078454,62.5036334 2.26369409,62.2637811 C2.48328489,62.0289027 2.35661916,61.5386976 1.97109073,61.1728399 C1.59109355,60.8075349 1.10157754,60.7025305 0.879221109,60.9423828 C0.658524058,61.1778138 0.785189784,61.6691242 1.16961197,62.0327713 Z M174.480406,19.647994 C174.946691,18.8063003 175.212191,17.8363906 175.201129,16.8029255 C175.172919,14.3021612 173.557793,12.2015192 171.336441,11.4565401 C170.760638,11.2642162 170.148328,11.1570011 169.508362,11.1633425 C166.400903,11.1978976 163.902435,13.7732703 163.937835,16.9250623 C163.94226,17.3903979 164.008636,17.8397065 164.117601,18.2713301 C164.594395,20.1630685 165.998228,21.6707116 167.806948,22.2769743 C167.920339,22.673228 168.039261,23.0639551 168.160948,23.4392079 C168.737305,25.2187573 169.346296,26.6446075 169.346296,26.6446075 C169.346296,26.6446075 172.598121,37.6628921 174.681191,39.6408447 C175.671839,40.5831217 176.983299,41.1009595 178.372197,41.318153 C182.114644,41.90452 186.4163,40.2979516 186.499822,38.8444687 C186.716647,35.0543601 180.530492,24.8225036 174.480406,19.647994 Z M119.726519,43.3088166 C119.616447,43.3270542 119.511353,43.354687 119.403494,43.3784512 C118.759103,40.5273035 117.739692,37.7054466 117.739692,37.7054466 C117.739692,37.7054466 117.078154,35.0698344 116.158307,31.9500964 C115.041546,28.1633037 113.543683,23.6613753 112.381013,22.2786322 C109.537948,18.9035676 104.050391,18.9820446 101.544733,20.203965 C100.766485,20.5836391 100.272544,21.0732915 100.240463,21.6054983 C99.9450938,26.5130756 108.295075,42.2267179 115.188678,47.5233644 C115.004487,48.2611589 114.96245,49.0470345 115.09354,49.8472791 C115.605734,52.954306 118.506877,55.0654485 121.573405,54.5597691 C124.640485,54.0574056 126.72079,51.1327548 126.20749,48.0240699 C125.699167,44.9181483 122.794153,42.8075584 119.726519,43.3088166 Z M153.555671,0.0525022341 C153.679018,0.68860825 153.747052,1.34405719 153.74385,2.01608579 L153.71663,8.13729364 C153.696165,13.2349842 153.121467,17.4395842 148.762286,18.1613518 L148.753436,20.0840389 L148.738501,23.5182376 L148.726886,26.2643808 L147.484013,26.2588542 L147.326925,26.2588542 L134.454037,26.2041414 L134.467312,23.0915879 L134.48114,19.981245 L134.486671,18.6830582 L134.508796,13.244932 C134.372174,13.0155802 134.24219,12.7829124 134.124374,12.5436127 C134.124374,12.5436127 134.079571,10.3578618 134.529262,8.44843846 C134.541431,8.39925215 134.555259,8.35282912 134.568534,8.30474813 C134.841225,7.21822821 135.277641,6.241134 135.984535,5.84266968 C137.042111,5.24856545 138.031099,7.74546117 138.242946,8.32077513 C138.268943,8.39427826 138.285537,8.44014863 138.285537,8.44014863 C138.285537,8.44014863 138.295493,8.39040967 138.307662,8.32077513 C138.371271,7.97204976 138.559887,6.86729223 138.5621,6.05323127 C138.567078,5.07724237 138.625709,3.44248859 140.84872,1.07159823 C141.14077,0.759348102 141.342108,0.395701049 141.479283,0.00276327548 L153.555671,0.0525022341 Z M142.766959,5.09824326 C142.821719,5.67024129 143.151935,6.10794412 143.509807,6.06981092 C143.863254,6.03499365 144.113267,5.5420253 144.056295,4.96615869 C144.004854,4.39360801 143.674638,3.95977376 143.312894,3.99790697 C142.961106,4.03327689 142.711647,4.52735055 142.766959,5.09824326 Z M151.480897,4.99766003 C151.429457,4.42731998 151.098688,3.99182776 150.738603,4.02940831 C150.38405,4.06367292 150.136803,4.55719392 150.193221,5.13140257 C150.247981,5.70229528 150.575984,6.13999812 150.935516,6.10131226 C151.290622,6.06483703 151.535104,5.57076337 151.480897,4.99766003" id="Shape"></path>
                        </g>
                    </g>
                    <g id="Group-6" transform="translate(83.038380, 113.019754)">
                        <g id="Group" transform="translate(38.961620, 0.980246)" fill="#FF9800">
                            <path d="M2.2345139,25.093728 C2.61662198,25.093728 2.96881614,24.9925744 3.28319458,24.8285417 C3.98024552,24.4649358 4.45999718,23.7590483 4.45999718,22.937791 L4.45999718,20.1175215 C4.27430507,19.840853 4.0987724,19.5680119 3.94130097,19.3039191 C3.44518132,19.1387929 2.96825173,18.9796811 2.54607027,18.8380662 C1.68195287,18.5488218 1.0577113,18.3366728 1.06391985,18.3158953 C1.07520813,18.2819952 1.08593199,18.2344257 1.10229999,18.177561 C1.06053337,18.150769 1.02102441,18.1261641 0.980386623,18.0988253 C0.629321293,18.1425674 0.312120785,18.1376464 0.00846620573,18.1146818 L0.00846620573,22.937791 C0.00903061944,24.1275751 1.00522083,25.093728 2.2345139,25.093728 Z M1.7818541,8.7074044 C2.64371384,8.87089036 3.64103288,9.47234373 4.45999718,10.2099443 L4.45999718,2.16085791 C4.45999718,0.969980246 3.46380697,0.00492098208 2.2345139,0.00492098208 C1.00522083,0.00492098208 0.00903061944,0.969980246 0.00903061944,2.16085791 L0.00903061944,8.97587131 C0.570622266,8.72982221 1.17736701,8.59312826 1.7818541,8.7074044" id="Shape"></path>
                        </g>
                        <path d="M46.0318894,44.0125582 C45.9139269,43.6987442 45.7970933,43.3160717 45.6825173,42.8831664 L39.1539438,36.5752787 L37.5222238,35 L32,44.4691689 L46.5014816,44.8964301 C46.4252857,44.7812897 46.3434457,44.6768731 46.2740229,44.5527021 C46.1927473,44.4076478 46.1120361,44.2253422 46.0318894,44.0125582" id="Path" fill="#B2EBF2"></path>
                        <g id="Group" transform="translate(79.961620, 11.980246)" fill="#006064">
                            <path d="M69.8868507,47.5586083 C69.9920433,47.7160394 69.7994685,47.8529601 69.3953953,47.9710335 C68.5054325,48.2326796 66.5657699,48.4067407 64.3756487,48.5220424 C60.0343665,48.7509827 54.7240879,48.7520914 54.7240879,48.7520914 C54.5448709,48.5735955 48.9435038,43.7342518 42.9174702,38.108307 C42.49503,37.7141748 42.0709202,37.3167167 41.6456971,36.9159326 C41.3184312,36.6071681 40.9922785,36.2984035 40.6650126,35.9868673 C40.7562909,36.3011752 40.8453428,36.6110484 40.9304987,36.9159326 C41.0457097,37.3233687 41.1531286,37.7186095 41.2588778,38.108307 C42.5033786,42.726471 43.0638493,46.1045879 42.3542166,46.7648007 C42.2323268,46.8784394 41.6907797,46.9881977 40.8876425,47.0924127 L38.1420598,47.0824346 L38.110335,47.3618194 C33.4952182,47.7204741 26.7923898,47.9577294 26.7923898,47.9577294 C26.7923898,47.9577294 25.5946412,43.4204983 24.0735227,38.1088613 C24.0451374,38.009081 24.0161955,37.9081921 23.9872537,37.8073031 C23.8341956,37.9098551 23.6850336,38.0079723 23.5336453,38.1088613 C21.5950959,39.4021246 19.7723139,40.5634562 18.2222536,41.4936302 C18.1844065,47.3407547 12.7527946,52.1169042 5.98707336,52.1956197 C4.59229732,52.2128041 3.25373532,52.0176782 1.99754637,51.6634582 C2.97823088,51.7338588 3.55595535,51.7765426 3.55595535,51.7765426 L2.1416992,38.10997 L2.01813963,36.9175956 L0.897198313,26.0775766 C0.897198313,26.0775766 0.58106392,26.2167147 0.0328379035,26.442329 C5.29859053,16.9820496 12.6014063,6.12152029 17.4959237,2.23563265 C17.6478686,1.9584652 17.8120581,1.72675321 17.9929448,1.55934407 C20.5899221,-0.855338749 24.962929,-0.393023443 27.7608297,2.59262432 C28.7465234,3.64364329 31.1692928,9.13266746 33.7812975,15.9060856 C34.5259944,15.7691649 35.3007463,15.7381221 36.0882994,15.820718 C39.0264569,15.8711625 41.693006,17.5186458 42.8111644,20.1434216 C47.5437185,24.3813119 54.2749322,31.15473 59.8501403,36.9175956 C60.2402991,37.3200427 60.6237791,37.7175009 61.0005801,38.10997 C65.9307182,43.2286984 69.7070771,47.2908646 69.8868507,47.5586083" id="Path"></path>
                        </g>
                        <g id="Group" transform="translate(17.961620, 20.980246)" fill="url(#linearGradient-5)">
                            <path d="M21.3952856,15.6174804 L27.8342975,21.7945064 C26.7940595,17.8783924 25.9580844,9.67312215 25.9580844,9.67312215 C25.9580844,9.67312215 25.2150573,7.11875029 24.6095041,4.33336861 C24.299492,4.49916514 23.9521895,4.60140633 23.5753884,4.60140633 C22.3631689,4.60140633 21.3808146,3.62597009 21.3808146,2.42228729 L21.3808146,0.0331593058 C21.2310961,0.0281854099 21.088613,0.0259747895 20.9600442,0.0298433752 C16.8358262,0.165796529 13.5253202,2.94123042 12.7962075,5.36185974 L12.6642993,5.3032783 L11.946318,6.55227882 L19.691054,13.9810686 L21.3952856,15.6174804 Z M64.922205,29.1442665 L66.3359046,42.7699779 C66.3359046,42.7699779 65.7581801,42.7274235 64.7774956,42.6566836 C58.7920919,42.2283759 37.2159196,40.7400757 32.4933838,41.1877264 C27.7062854,41.6420088 22.9503551,41.4325526 18.6363451,40.7754457 C9.60369534,39.4026504 2.51070818,36.0629556 1.16268441,32.6873383 C0.478097612,31.5499741 0.0884953671,30.3319223 0.0278287318,29.1437138 C0.0077920449,28.7419336 0.0345076274,28.3462325 0.0918348149,27.9549527 C0.194801123,27.2657918 0.406856059,26.5981845 0.768629572,25.9830793 L2.48454917,23.0003998 L28.6418873,23.7658271 C29.1906699,24.5898358 29.8964066,25.1922299 30.6817334,25.5868256 C33.3583008,26.9314355 36.8235345,26.0223179 37.0478341,24.5533606 C37.4864149,21.6629745 34.9551134,13.5483397 31.7831946,6.90874136 C32.5123074,7.80459527 35.7242996,11.7289991 38.7977047,15.0692465 C38.7153317,15.0615093 38.6374112,15.0526669 38.5544816,15.046035 C39.47116,16.2834298 40.4039791,17.0974907 41.380211,17.7474131 C42.4454949,18.7830888 43.3772008,19.5772541 44.0211577,19.915479 C44.978466,20.4195005 45.954698,20.6588002 46.9042143,20.7046705 C51.0835332,22.0636494 60.0070944,18.6615046 62.8133437,17.5130873 C63.3615697,17.2881567 63.6771475,17.1494403 63.6771475,17.1494403 L64.7986454,27.9566107 L64.922205,29.1442665 Z" id="Shape"></path>
                        </g>
                        <g id="Group" transform="translate(116.961620, 58.980246)" fill="#B2EBF2">
                            <path d="M8.5802173,2.7656272 C7.57781854,2.38464795 5.34048257,0.0716805418 5.34048257,0.0716805418 L3.53605193,0.0649075773 L0.751799069,0.0547481304 L0.719627487,0.339212643 L0.0242697898,6.42077042 L13.7220262,6.47382531 C13.7220262,6.47382531 16.8234796,6.55453648 16.7771977,5.12149005 C16.706646,2.91463243 10.7120079,3.57386764 8.5802173,2.7656272" id="Path"></path>
                        </g>
                        <g id="Group" transform="translate(0.961620, 8.980246)" fill="#212121">
                            <path d="M17.5486242,45.3215306 C16.8717511,44.177561 16.4865387,42.9530302 16.4265557,41.7590571 C16.4067447,41.3551397 16.4331593,40.9573339 16.4898406,40.5639728 C16.5916467,39.8711461 16.8013123,39.1999877 17.1590095,38.5816107 L18.8555948,35.5830658 L18.6453789,35.5763987 L19.9292366,33.3545753 L12.8402286,25.0612124 C12.6107521,24.9828736 12.3823762,24.8984232 12.1584027,24.8028609 C12.1584027,24.8028609 7.73341329,19.8830694 8.41138705,17.9262646 C8.78394243,16.8517444 11.8810498,18.9935622 12.434655,19.3863676 C12.489135,19.4258149 12.5276563,19.453039 12.5276563,19.453039 C12.5276563,19.453039 12.5039932,19.411925 12.4704247,19.3558099 C12.3036828,19.0735678 11.7687879,18.1918389 11.28287,17.6212431 C11.2074785,17.5345703 11.1276845,17.439008 11.0440384,17.3328894 C10.4750247,16.6089495 9.76788486,15.3860854 9.84327642,12.7814572 C9.89775646,10.9246596 7.95903767,9.4517779 6.48697615,8.60338472 L6.51449132,8.59560639 C6.51449132,8.59560639 11.9283759,5.85596868 15.661634,5.62539685 C17.3868351,5.51983385 18.8864117,6.06320552 20.0051785,6.67713772 C21.3071963,7.39163257 22.0930295,8.2033565 22.0930295,8.2033565 C22.0930295,8.2033565 20.7051644,-0.362803372 12.4385071,0.0327800903 C10.7931,0.111674545 8.33049245,2.16181918 6.10836743,4.40531078 C4.64566107,5.88208163 3.28971356,7.43941372 2.33933964,8.57727177 C0.568463384,9.98070411 -0.630647665,11.7424951 0.385762664,15.2566319 C0.385762664,15.2566319 0.918456328,16.4367151 2.07739523,18.0268273 L1.44949908,18.075164 C1.44949908,18.075164 1.81710174,18.1796158 2.38501482,18.4346338 C3.01401157,19.2569141 3.8014957,20.1608667 4.75847326,21.0609302 C5.61144349,21.8637646 6.5926344,22.6610431 7.72570904,23.3849831 C7.7829406,23.4216523 7.83576972,23.4510988 7.89135036,23.4861013 C8.79990123,25.0239876 9.55161563,26.9657912 9.91316495,29.4315207 C10.2648088,31.8444687 9.5136447,36.0697668 9.52079865,40.5628616 C9.52079865,40.9595562 9.5296035,41.3579177 9.54281078,41.7573903 C9.70129815,46.3971621 10.8283195,51.1763881 14.9335826,54.4343957 C17.8034147,56.7117786 23.3856921,59.5130873 34.829801,53.4515486 C25.8945252,52.0725624 18.881459,48.7151034 17.5486242,45.3215306 Z M26.6368844,21.7448674 L24.7410893,20.7653538 C24.686059,20.8148017 24.6436856,20.8648053 24.5870044,20.9142532 L22.9504021,22.3404649 L24.9452519,24.6745185 L26.6368844,21.7448674 Z" id="Shape"></path>
                        </g>
                        <g id="Group" transform="translate(142.961620, 59.980246)" fill="#B2EBF2">
                            <path d="M8.59602088,2.31409623 C7.85212361,2.03076055 6.4320587,0.687455905 5.74629603,0.0107238606 C4.84436292,0.27656272 2.87681671,0.454353041 0.655848737,0.571751094 L0.0395089601,5.9669818 L13.7372654,6.0206011 C13.7372654,6.0206011 16.8387188,6.10074785 16.791308,4.66826584 C16.723014,2.46310145 10.7295047,3.12233667 8.59602088,2.31409623" id="Path"></path>
                        </g>
                        <path d="M71.8083364,36.1557076 C72.6745308,38.066789 68.8933653,41.9519543 64.5872838,41.744156 C63.6436518,41.6988382 62.6740229,41.4589859 61.722094,40.9549645 C61.0821278,40.6167396 60.156749,39.8225742 59.0980669,38.7868985 C58.2971412,38.0043389 57.4215437,37.0830629 56.5315648,36.1103899 C53.4772062,32.7701425 50.2845661,28.8462913 49.5599718,27.9493321 C52.7127868,34.5889304 55.227295,42.7035652 54.7919853,45.5939514 C54.570182,47.0629086 51.126423,47.9720262 48.4658897,46.6274164 C47.6859828,46.2328207 46.9840666,45.6304266 46.4381318,44.8064179 L20.4434486,44.0409905 L20.2316015,44.0349113 L21.5220432,41.8248436 L14.3972344,33.5748083 C14.1660279,33.496884 13.937034,33.4128804 13.711912,33.3178237 C13.711912,33.3178237 9.26423028,28.4240628 9.9451277,26.4776116 C10.3195936,25.4087766 13.4325836,27.5398147 13.9895809,27.9305418 C14.0443403,27.9692277 14.0830591,27.9963078 14.0830591,27.9963078 C14.0830591,27.9963078 14.0592747,27.955964 14.024981,27.8995932 C13.8579371,27.6188444 13.3202991,26.7417807 12.8313362,26.1742039 C12.7561112,26.0879897 12.675908,25.9929331 12.5918329,25.8873759 C12.0193481,25.1672664 11.3085819,23.9508725 11.3849132,21.3605781 C11.4396726,19.5130521 9.49101171,18.0479634 8.01140116,17.2040591 L8.03905743,17.1963219 C8.03905743,17.1963219 13.4801524,14.4711796 17.2325554,14.2423804 C18.9671568,14.1368233 20.4744236,14.67732 21.5983745,15.2885565 L24.4596924,18.6011712 C27.7889544,22.4553878 30.0385156,25.9691689 26.3596783,29.3005738 C26.3049189,29.3497601 26.2623282,29.3994991 26.2048032,29.4486854 L24.5603612,30.867351 L26.5654409,33.1890551 L28.2663017,30.2749048 L29.8382842,27.5823691 L29.8476873,27.5917643 L37.544981,35.0211067 L37.6417779,35.1145054 L32.2294455,44.3864 L46.4408974,44.8047599 C46.3662255,44.6920182 46.2865754,44.5903297 46.218541,44.4681929 C46.1383378,44.3256079 46.059794,44.1471003 45.9812502,43.939302 C45.865647,43.6314731 45.75115,43.256773 45.6388655,42.8328865 C44.6050741,38.9167725 43.7742797,30.7109496 43.7742797,30.7109496 C43.7742797,30.7109496 43.0358572,28.1571304 42.4340567,25.3717487 C43.1166135,25.0036804 43.5873233,24.2907554 43.5873233,23.4601148 L43.5873233,20.6100724 C43.405345,20.330429 43.233323,20.0546541 43.079001,19.7877216 C42.5928037,19.6202672 42.1254127,19.4594445 41.7116749,19.3168595 C40.8642867,19.024505 40.2530831,18.8095221 40.2591675,18.7890739 C40.27023,18.7542566 40.2807394,18.7067283 40.29678,18.6492522 C40.2558487,18.6221721 40.21713,18.5973026 40.1773049,18.5696698 C39.8332609,18.6138822 39.5224044,18.6083557 39.2248229,18.5856968 C39.0909666,18.5751964 38.9537914,18.5685645 38.828232,18.5475636 L38.828232,9.5448121 C38.956004,9.47241428 39.0909666,9.40996425 39.2248229,9.34917219 C39.7751827,9.09992474 40.3703457,8.96120832 40.9627431,9.07671323 C41.8073656,9.24250976 42.7841851,9.85043037 43.5867701,10.5959621 C44.3340426,11.2900969 44.9303118,12.1024999 45.1128432,12.7971873 C45.2428277,13.2907083 45.3130746,13.7516227 45.3031184,14.1589295 C45.301459,14.2202742 45.2959278,14.2738818 45.2920559,14.3319105 C45.2920559,14.3357791 45.9082376,15.5792531 46.4585974,16.6862213 C54.7615634,19.0200837 69.5034627,31.0745967 71.8083364,36.1557076 Z" id="Path" fill="#FFF3E0"></path>
                        <g id="Group" transform="translate(20.031775, 18.627267) scale(-1, 1) rotate(46.344872) translate(-20.031775, -18.627267) translate(19.031775, 17.627267)" fill="#D7CCC8">
                            <path d="M0.611730837,0.0411862283 C0.935318857,0.0445277537 1.20405206,0.476070697 1.20239746,1.00745648 C1.20017344,1.53662353 0.93975157,1.96539306 0.611730837,1.96151029 C0.290359173,1.95762751 0.0221800602,1.52608457 0.0227306553,0.994144101 C0.0216259711,0.46553173 0.284264193,0.0384262468 0.611730837,0.0411862283" id="Path"></path>
                        </g>
                        <g id="Group" transform="translate(14.940054, 23.068781) scale(-1, 1) rotate(46.325785) translate(-14.940054, -23.068781) translate(13.940054, 22.068781)" fill="#D7CCC8">
                            <path d="M0.602706611,0.0100066151 C0.925186458,0.0133347098 1.19447375,0.445432342 1.1922574,0.976818133 C1.19114922,1.50543051 0.931281437,1.93475473 0.602706611,1.92976259 C0.280780853,1.92698918 0.0126017363,1.49489154 0.0142640035,0.961841706 C0.0120476472,0.433229328 0.274131784,0.00501447299 0.602706611,0.0100066151" id="Path"></path>
                        </g>
                    </g>
                    <g id="Group-2" transform="translate(0.000000, 83.000000)">
                        <g id="Group" transform="translate(13.000000, 91.000000)" fill="url(#linearGradient-6)">
                            <path d="M39.7347961,16.6111542 C39.9619374,27.3691383 36.8582263,36.9571516 31.9169371,42.8501129 L8.98561921,43.337002 C3.79674051,37.6601289 0.289038615,28.210832 0.0607920606,17.4539532 C-0.0679765768,11.3587202 0.871537087,5.63824256 2.61019002,0.755258454 L11.9975895,0.555528903 L13.818588,0.516566718 L18.963807,0.40725154 L22.0636494,0.341375053 L36.4779996,0.03470674 C38.4227929,4.84131391 39.6060275,10.5164738 39.7347961,16.6111542 Z" id="Path"></path>
                        </g>
                        <g id="Group" transform="translate(0.000000, 36.000000)" fill="url(#linearGradient-7)">
                            <path d="M20.7824009,35.1285893 C22.5195075,38.6777286 24.1762382,42.2668707 25.7192395,45.9104611 C27.5121173,42.166308 29.5554184,35.2024834 24.6672428,28.4336726 C17.5006526,18.5051944 17.4416008,20.8886959 14.2298398,13.2142656 C11.0186257,5.53761288 7.67017074,-1.68400769 2.72895795,0.410028926 C-2.21061451,2.50406554 0.183169889,11.6763793 5.04400663,17.8651492 C9.90320305,24.0539191 8.38152603,30.3682535 11.0847855,37.7248836 C14.2090624,46.2338172 20.0759666,48.1539527 22.7300162,48.5856498 C23.598843,51.0169324 24.2921546,53.5032189 24.8832193,56.0239523 L26.6848455,55.9845051 C26.0751905,53.342652 25.3490722,50.7424686 24.447439,48.1961779 C24.6459186,47.8917119 24.9100113,47.4600148 25.2096444,46.9110872 C23.0367574,41.7162763 20.6331311,36.6281396 18.0698462,31.6244532 C17.9375265,31.7789086 17.7089742,31.8600254 17.4957316,31.7105704 C15.1752152,30.1132355 13.0362283,28.2453259 10.5615211,26.8874524 C10.0809052,26.6257672 10.4024093,25.8195993 10.8868527,26.0862847 C13.2877452,27.4035999 15.3846303,29.1659465 17.6160223,30.7388352 C14.3796564,24.4911722 10.8846656,18.3779632 7.19885001,12.3914297 C6.90960562,11.9197298 7.57995273,11.3852476 7.87083745,11.8552808 C12.2357486,18.9452254 16.3447686,26.20796 20.0622972,33.6657083 C20.1760265,32.2744991 20.2574961,30.8855122 20.0169148,29.4954141 C19.9223226,28.9437086 20.769825,28.834812 20.8660576,29.3854064 C21.1897488,31.2588719 20.9486207,33.1406713 20.8124735,35.0191372 C20.8091929,35.0619179 20.7933364,35.0941424 20.7824009,35.1285893 Z" id="Path"></path>
                        </g>
                        <g id="Group" transform="translate(23.000000, 0.000000)" fill="url(#linearGradient-8)">
                            <path d="M43.4060856,50.247954 C37.7136205,58.0846033 40.1238687,56.7178872 34.5999214,69.8965006 C30.8332157,78.8848831 22.6440263,80.9882884 17.8146606,81.4182541 C20.5087283,77.6795424 23.0764075,73.8579324 25.5531758,69.9771883 C25.5975226,69.9683458 25.6357717,69.9666878 25.6823359,69.9445816 C27.6402467,68.956987 29.6613518,68.0771601 31.3326715,66.6258878 C31.8215949,66.199238 31.1957508,65.4089413 30.7051644,65.8350383 C29.4645629,66.9088472 28.0310528,67.6582475 26.5748151,68.3778044 C31.7428793,60.1581652 36.4757907,51.662751 40.8827531,43.0131461 C41.1748876,42.4339636 40.2308553,42.079159 39.9387208,42.651157 C36.2158076,49.9572574 32.2545304,57.1456423 27.9989014,64.1538615 C28.2073313,60.9595151 28.6857223,57.7834062 28.5338346,54.5724801 C28.5055635,53.9247684 27.5060977,54.0811697 27.5360318,54.723355 C27.6929085,58.035417 27.134139,61.313767 26.9578605,64.6125653 C26.9395674,64.9176309 27.1579754,65.0983491 27.3946764,65.1414562 C24.0204398,70.640927 20.4654901,76.0320775 16.6749481,81.2635107 C16.3262714,82.3566624 15.7824689,83.4166549 15.3101756,84.3766168 C14.2491786,86.5391562 13.0584672,88.6889845 12.3195388,90.9869244 L9.21027435,91.053243 C9.20916568,91.0449532 9.20362233,91.040532 9.20306799,91.0322421 C7.670332,81.0374747 10.042331,71.2720592 10.9026588,61.3596374 C10.7280433,61.4452989 10.628263,61.4878533 10.628263,61.4878533 C10.628263,61.4878533 9.78789131,61.0241757 8.5805499,60.1073209 C8.48409563,53.5572527 8.68864521,47.014369 9.10827672,40.4825385 C9.32335866,40.5831217 9.6066238,40.5599102 9.76959826,40.3001623 C11.5251769,37.4998589 12.9597956,34.4972838 14.996422,31.8765933 C15.3922171,31.3698086 14.6654841,30.665726 14.2674716,31.1796952 C12.2923764,33.7208033 10.853323,36.5907413 9.1808946,39.3258313 C9.73966417,31.1537204 10.6421214,23.0015051 11.810105,14.8896336 C11.9010159,14.2529749 10.9242779,14.0020695 10.8311496,14.6442547 C9.44863835,24.2455317 8.42256445,33.9098114 7.91146768,43.5984079 C7.13373581,42.1731104 6.38926404,40.741181 5.99845794,39.1506397 C5.84102683,38.5189549 4.87371243,38.8085462 5.0289262,39.438573 C5.5594247,41.5801115 6.70412627,43.4613494 7.73906952,45.392879 C7.76235159,45.4354334 7.79394868,45.4625135 7.82221976,45.4923569 C7.61434417,50.0882367 7.50846621,54.6874324 7.55891068,59.289944 C3.85539922,56.1696534 -1.63196194,49.7571963 0.468967324,40.2432388 C3.54885202,26.2925662 4.7318027,28.7911199 4.59321897,19.1174451 C4.45463525,9.44155966 4.67747788,0.180165561 11.0057651,0.0464230281 C17.3346066,-0.0873195052 19.0596968,10.7872748 16.7176319,19.6728635 C14.3750126,28.5573468 18.9909593,34.5315484 19.5319902,43.6271459 C20.1051724,53.2549504 15.592332,58.1188679 12.7768651,60.1974037 C12.0395997,70.0860613 9.62103651,79.8420817 10.8389103,89.7738465 C11.3788325,88.2894149 12.0795118,86.8613541 12.7829628,85.4460044 C13.3672318,84.2743756 14.2253422,82.9010277 14.7569493,81.5005997 C14.2974057,81.4812568 14.0368683,81.4547293 14.0368683,81.4547293 C14.0368683,81.4547293 8.37932633,72.6128004 17.0496785,61.7371008 C22.7366002,54.6045341 29.9579209,52.3640704 33.1647483,43.7509407 C36.3721301,35.137811 44.0507771,27.2309746 49.1539842,30.9674757 C54.2544196,34.7061874 49.097442,42.4107521 43.4060856,50.247954 Z" id="Path"></path>
                        </g>
                    </g>
                </g>
            </g>
        </g>
    </g>
</svg>