<?xml version="1.0" encoding="UTF-8"?>
<svg width="553px" height="491px" viewBox="0 0 553 491" version="1.1" xmlns="http://www.w3.org/2000/svg" xmlns:xlink="http://www.w3.org/1999/xlink">
    <!-- Generator: Sketch 64 (93537) - https://sketch.com -->
    <title>Artwork</title>
    <desc>Created with Sketch.</desc>
    <defs>
        <linearGradient x1="0.000592120936%" y1="50.0001674%" x2="99.9998597%" y2="50.0001674%" id="linearGradient-1">
            <stop stop-color="#FF9800" offset="0%"></stop>
            <stop stop-color="#FFE0B2" offset="100%"></stop>
        </linearGradient>
        <linearGradient x1="0%" y1="50.0004009%" x2="99.9994665%" y2="50.0004009%" id="linearGradient-2">
            <stop stop-color="#00BCD4" offset="0%"></stop>
            <stop stop-color="#B2EBF2" offset="100%"></stop>
        </linearGradient>
        <linearGradient x1="34.2896318%" y1="47.9801852%" x2="78.5435519%" y2="55.262845%" id="linearGradient-3">
            <stop stop-color="#F8BBD0" offset="0%"></stop>
            <stop stop-color="#FFE0B2" offset="100%"></stop>
        </linearGradient>
        <linearGradient x1="0.000242057962%" y1="50.0012682%" x2="99.9998397%" y2="50.0012682%" id="linearGradient-4">
            <stop stop-color="#E91E63" offset="0%"></stop>
            <stop stop-color="#F8BBD0" offset="100%"></stop>
        </linearGradient>
        <linearGradient x1="20.631743%" y1="0%" x2="89.3012459%" y2="118.443649%" id="linearGradient-5">
            <stop stop-color="#F8BBD0" offset="0%"></stop>
            <stop stop-color="#E91E63" offset="100%"></stop>
        </linearGradient>
    </defs>
    <g id="Pricing" stroke="none" stroke-width="1" fill="none" fill-rule="evenodd">
        <g id="About" transform="translate(-67.000000, -1385.000000)">
            <g id="Artwork" transform="translate(67.000000, 1385.000000)">
                <g id="Group" transform="translate(276.500000, 178.000000) rotate(180.000000) translate(-276.500000, -178.000000) translate(-0.000000, 0.000000)" fill="#00BCD4">
                    <path d="M496.385382,14.8578682 L496.453092,1.99625849 C496.458733,0.888668193 497.359929,-0.00559795077 498.467032,2.6385159e-05 C499.575545,0.00570399102 500.465458,0.908446592 500.459843,2.01744963 L500.3893,14.8790594 C500.383659,15.9866497 499.486694,16.8809158 498.375361,16.8752915 C497.269669,16.8696139 496.381166,15.9668713 496.385382,14.8578682 Z M498.128555,63.497229 C499.237068,63.5042512 500.138263,62.6085723 500.145315,61.4981565 L500.2116,48.6365468 C500.218652,47.5289565 499.327328,46.6248011 498.218815,46.6191085 C497.113123,46.6120865 496.210517,47.5049399 496.204876,48.6153556 L496.137165,61.4769654 C496.132949,62.5859684 497.022862,63.4901238 498.128555,63.497229 Z M483.449966,31.6695067 C483.456976,30.5619164 482.565653,29.657761 481.45996,29.6521101 L468.62039,29.5814463 C467.514698,29.5758219 466.609271,30.4715008 466.603603,31.5790911 C466.597989,32.6866814 467.490722,33.5936623 468.596415,33.5993132 L481.437395,33.6671515 C482.543088,33.6727758 483.444283,32.777097 483.449966,31.6695067 Z M528.001992,29.8979273 L515.161012,29.830089 C514.055319,29.8244647 513.154124,30.7201436 513.147045,31.8277338 C513.141431,32.9339114 514.035575,33.8408922 515.141267,33.8479559 L527.978017,33.9143548 C529.08653,33.9214186 529.987725,33.0257397 529.994804,31.9181494 C530.000418,30.8105591 529.106274,29.9035783 528.001992,29.8979273 Z M478.839582,9.19276992 C478.061085,8.40445948 476.794616,8.39880851 476.006246,9.1786425 C475.219286,9.95847648 475.213645,11.2271194 475.992143,12.0168426 L485.023844,21.1587008 C485.411682,21.5542688 485.923629,21.7520527 486.435576,21.7549087 C486.947523,21.7577037 487.46229,21.564158 487.85577,21.1756537 C488.64273,20.3929942 488.649781,19.1243513 487.869873,18.3346281 L478.839582,9.19276992 Z M520.592161,54.3200108 C521.379121,53.5373513 521.386172,52.2687083 520.606264,51.4803979 L511.577384,42.337127 C510.796065,41.551642 509.526776,41.5431656 508.742637,42.3229995 C507.955677,43.1028335 507.948626,44.3714765 508.724303,45.1597869 L517.758825,54.3030578 C518.146663,54.6986258 518.661431,54.8964098 519.170557,54.8992658 C519.683914,54.9020608 520.198681,54.708515 520.592161,54.3200108 Z M484.912428,42.1916145 L475.782005,51.2388189 C474.997866,52.0186529 474.989404,53.2901213 475.767901,54.0798445 C476.158561,54.4711742 476.670507,54.6703709 477.182454,54.6732042 C477.695811,54.6746092 478.210579,54.4824762 478.601238,54.0939719 L487.731662,45.043942 C488.515801,44.2655208 488.524263,42.9940523 487.745765,42.2057419 C486.967267,41.4216697 485.696567,41.4160187 484.912428,42.1916145 Z M510.267195,21.8862633 C510.777731,21.8862633 511.293909,21.6941303 511.687389,21.3042133 L520.812171,12.2570089 C521.599131,11.4785877 521.607593,10.2057065 520.830506,9.41880876 C520.052008,8.63049832 518.781308,8.62484735 517.997169,9.40468133 L508.866745,18.4490603 C508.082606,19.2317197 508.072734,20.5003627 508.851232,21.2900859 C509.243301,21.6842411 509.753838,21.8834378 510.267195,21.8862633 Z M102.144024,42.4289138 C101.038332,42.4218915 100.135726,43.3175704 100.130084,44.4251607 L100.059542,57.2867705 C100.053927,58.3943608 100.948071,59.2985161 102.053763,59.3042086 C103.160866,59.3112308 104.060651,58.4155519 104.067703,57.3079616 L104.136835,44.4463519 C104.14245,43.3387616 103.251127,42.4346062 102.144024,42.4289138 Z M101.895807,89.0494384 C100.790115,89.0438142 99.887509,89.9352548 99.8818677,91.0470833 L99.8113251,103.908693 C99.8057103,105.016283 100.699854,105.923264 101.805547,105.928942 C102.91406,105.934566 103.812435,105.038887 103.819486,103.928472 L103.888619,91.0668617 C103.894233,89.9578587 103.00291,89.0551161 101.895807,89.0494384 Z M87.129764,74.0984089 C87.1353787,72.9908186 86.2412347,72.0838378 85.1355423,72.0781868 L72.2959721,72.0103485 C71.1902798,72.0047242 70.2876738,72.9004031 70.2819911,74.0079934 C70.2749809,75.1155836 71.169125,76.0183262 72.2748173,76.02539 L85.1143875,76.0946294 C86.2200798,76.0988526 87.1226858,75.2059992 87.129764,74.0984089 Z M131.676164,72.3268295 L118.838004,72.2589912 C117.732311,72.2533669 116.828295,73.147633 116.821217,74.2552233 C116.815602,75.3628136 117.709746,76.266969 118.815439,76.2740327 L131.655009,76.3432571 C132.763522,76.3503208 133.666128,75.4546419 133.671796,74.3470516 C133.67741,73.2394613 132.784677,72.3324805 131.676164,72.3268295 Z M82.5151643,51.6230849 C81.738077,50.8333617 80.4701976,50.8277107 79.6818277,51.6075447 C78.8976887,52.385966 78.8920475,53.6560217 79.6677245,54.4457449 L88.7022463,63.5890158 C89.0900848,63.983171 89.6006213,64.180955 90.1139785,64.1838112 C90.6259253,64.1866059 91.1378722,63.9944729 91.5341726,63.6045559 C92.3211322,62.8218965 92.3281838,61.5532535 91.5482758,60.7635303 L82.5151643,51.6230849 Z M115.252966,84.7632037 C114.474468,83.9748933 113.205178,83.9692423 112.416808,84.7490763 C111.632669,85.5274975 111.627028,86.7975532 112.402705,87.5858637 L121.434406,96.7291346 C121.825066,97.1247025 122.337012,97.3210738 122.848959,97.32393 C123.359496,97.3267248 123.877084,97.1345917 124.266333,96.743262 C125.054703,95.963428 125.063165,94.6933723 124.284667,93.9050619 L115.252966,84.7632037 Z M88.5865999,84.6219294 L79.4604072,93.6677211 C78.6734476,94.4475551 78.666396,95.7204363 79.4448936,96.5087467 C79.8341425,96.9014892 80.3474996,97.1006859 80.8608568,97.1021064 C81.3728036,97.1035114 81.8861608,96.9113784 82.2782302,96.5228741 L91.4058333,87.4728443 C92.1927929,86.694423 92.1984342,85.4243673 91.4199365,84.6346441 C90.6442595,83.8491592 89.3763802,83.8435082 88.5865999,84.6219294 Z M113.945597,64.3109578 C114.456134,64.3137528 114.970901,64.120207 115.365791,63.7317028 L124.490574,54.6844984 C125.277533,53.9046644 125.283175,52.6331959 124.504677,51.8462982 C123.729,51.0579878 122.45971,51.0495113 121.672751,51.8321708 L112.545148,60.8765497 C111.758188,61.654971 111.752547,62.9250267 112.531044,63.7161626 C112.917473,64.1131433 113.43083,64.3095146 113.945597,64.3109578 Z M31.8634547,253.588743 C30.7577624,253.581721 29.8551564,254.4774 29.8481048,255.58499 L29.778999,268.4466 C29.7719474,269.55419 30.6660915,270.458346 31.7717838,270.464038 C32.8802968,270.47106 33.7800821,269.575381 33.7857234,268.467791 L33.8562661,255.606181 C33.8618808,254.498591 32.9691471,253.594436 31.8634547,253.588743 Z M31.6138277,300.209268 C30.5081354,300.203644 29.6069397,301.095084 29.5998881,302.206913 L29.5293455,315.068523 C29.5237307,316.176113 30.4178748,317.081681 31.5235671,317.088771 C32.6320801,317.094396 33.5318655,316.198717 33.5375068,315.089714 L33.6080495,302.228104 C33.6136641,301.117688 32.7223407,300.214946 31.6138277,300.209268 Z M16.8477844,285.256826 C16.8533992,284.149235 15.9592551,283.242254 14.8535628,283.236604 L2.01399255,283.168765 C0.908300207,283.163141 0.00569421671,284.05882 2.63399464e-05,285.164997 C-0.00558835817,286.274 0.887145379,287.176743 1.99283772,287.183807 L14.8338183,287.253058 C15.9395106,287.258682 16.8407063,286.365829 16.8477844,285.256826 Z M61.3941841,283.486659 L48.5574346,283.418821 C47.4517422,283.413196 46.5463156,284.308875 46.5406329,285.416466 C46.5336227,286.522643 47.4277668,287.426798 48.5334591,287.433862 L61.3730293,287.503087 C62.4815423,287.51015 63.3841483,286.614471 63.389831,285.506881 C63.3968412,284.399291 62.5026971,283.49231 61.3941841,283.486659 Z M12.2345951,262.782914 C11.4575077,261.993191 10.188218,261.98754 9.40125845,262.767374 C8.61711949,263.545795 8.61006788,264.815851 9.38574491,265.605574 L18.4202667,274.748845 C18.8095156,275.143 19.3200521,275.340784 19.8319989,275.343641 C20.3439458,275.346435 20.8573029,275.154302 21.2536034,274.764385 C22.040563,273.981726 22.0462042,272.713083 21.2677066,271.92336 L12.2345951,262.782914 Z M44.9709861,295.923033 C44.1938987,295.134723 42.9231987,295.129072 42.1348288,295.908906 C41.3506899,296.68874 41.3450486,297.957383 42.1207256,298.745693 L51.1524268,307.888964 C51.5430859,308.284532 52.0550328,308.482316 52.5669796,308.485172 C53.0789265,308.487967 53.5951043,308.294421 53.9857634,307.903091 C54.772723,307.123257 54.7811849,305.853202 54.0026873,305.064891 L44.9709861,295.923033 Z M18.3060307,295.781759 L9.17842759,304.828963 C8.391468,305.607385 8.38582671,306.880266 9.16432438,307.668576 C9.55216289,308.061319 10.06552,308.260515 10.5788772,308.261936 C11.0922344,308.263341 11.6041812,308.071208 11.9962507,307.682704 L21.1238537,298.632674 C21.9108133,297.854252 21.917865,296.584197 21.137957,295.794474 C20.3636903,295.008989 19.0944006,295.003338 18.3060307,295.781759 Z M43.6636177,275.470787 C44.1755646,275.473582 44.6889217,275.280036 45.0852222,274.891532 L54.2085943,265.844328 C54.9955539,265.064494 55.0026055,263.793025 54.2241078,263.006128 C53.4470205,262.217817 52.1777308,262.209341 51.3907712,262.992 L42.2631681,272.036379 C41.4762085,272.8148 41.4705672,274.084856 42.2490649,274.875992 C42.6369034,275.27156 43.1502606,275.467931 43.6636177,275.470787 Z M252.982178,253.588743 C251.876486,253.581721 250.97388,254.4774 250.966828,255.58499 L250.897722,268.4466 C250.890671,269.55419 251.784815,270.458346 252.890507,270.464038 C253.99902,270.47106 254.898805,269.575381 254.904447,268.467791 L254.974989,255.606181 C254.980604,254.498591 254.08787,253.594436 252.982178,253.588743 Z M252.733961,300.209268 C251.628269,300.203644 250.725663,301.095084 250.720022,302.206913 L250.649479,315.068523 C250.643864,316.176113 251.536598,317.081681 252.64229,317.088771 C253.750803,317.094396 254.650589,316.198717 254.65764,315.089714 L254.726773,302.228104 C254.732387,301.117688 253.841064,300.214946 252.733961,300.209268 Z M237.966508,285.256826 C237.972122,284.149235 237.077978,283.242254 235.972286,283.236604 L223.132716,283.168765 C222.027023,283.163141 221.125828,284.05882 221.11875,285.164997 C221.113135,286.274 222.007279,287.176743 223.112971,287.183807 L235.952541,287.253058 C237.058234,287.258682 237.96084,286.365829 237.966508,285.256826 Z M282.512907,283.486659 L269.676158,283.418821 C268.570465,283.413196 267.665039,284.308875 267.659356,285.416466 C267.652346,286.522643 268.54649,287.426798 269.652182,287.433862 L282.491752,287.503087 C283.600265,287.51015 284.502871,286.614471 284.508554,285.506881 C284.515564,284.399291 283.62142,283.49231 282.512907,283.486659 Z M233.353318,262.782914 C232.576231,261.993191 231.306941,261.98754 230.519982,262.767374 C229.735843,263.545795 229.728791,264.815851 230.504468,265.605574 L239.53899,274.748845 C239.928239,275.143 240.438775,275.340784 240.950722,275.343641 C241.462669,275.346435 241.976026,275.154302 242.372327,274.764385 C243.159286,273.981726 243.164927,272.713083 242.38643,271.92336 L233.353318,262.782914 Z M266.089709,295.923033 C265.311212,295.134723 264.041922,295.129072 263.253552,295.908906 C262.469413,296.68874 262.463772,297.957383 263.239449,298.745693 L272.27115,307.888964 C272.661809,308.284532 273.173756,308.482316 273.685703,308.485172 C274.19765,308.487967 274.713827,308.294421 275.104487,307.903091 C275.891446,307.123257 275.899908,305.853202 275.122821,305.064891 L266.089709,295.923033 Z M239.424754,295.781759 L230.298561,304.828963 C229.510191,305.607385 229.50455,306.880266 230.283048,307.668576 C230.670886,308.061319 231.185654,308.260515 231.6976,308.261936 C232.210958,308.263341 232.722904,308.071208 233.116384,307.682704 L242.242577,298.632674 C243.030947,297.854252 243.036588,296.584197 242.25809,295.794474 C241.482413,295.008989 240.213124,295.003338 239.424754,295.781759 Z M264.782341,275.470787 C265.294288,275.473582 265.807645,275.280036 266.203945,274.891532 L275.327317,265.844328 C276.114277,265.064494 276.121329,263.793025 275.342831,263.006128 C274.565744,262.217817 273.296454,262.209341 272.509494,262.992 L263.381891,272.036379 C262.594932,272.8148 262.58929,274.084856 263.367788,274.875992 C263.755627,275.27156 264.268984,275.467931 264.782341,275.470787 Z M521.472202,292.499931 C520.36651,292.494307 519.463904,293.389985 519.458262,294.497576 L519.38772,307.359186 C519.382105,308.466776 520.276249,309.370931 521.381941,309.376609 C522.490454,309.382233 523.388829,308.487967 523.395881,307.380377 L523.466412,294.518767 C523.470628,293.411177 522.579305,292.507021 521.472202,292.499931 Z M521.223985,339.120441 C520.118293,339.114816 519.215687,340.00767 519.210046,341.118086 L519.139503,353.979695 C519.133888,355.087286 520.026622,355.994267 521.132314,355.999959 C522.242238,356.006981 523.140613,355.111302 523.147664,354.000887 L523.21677,341.139277 C523.223822,340.030274 522.331088,339.126118 521.223985,339.120441 Z M506.456547,324.169411 C506.463557,323.061821 505.569413,322.15484 504.46372,322.147776 L491.62415,322.081377 C490.518458,322.074314 489.615852,322.969993 489.610169,324.077583 C489.603159,325.185173 490.497303,326.089329 491.602995,326.09498 L504.442566,326.165643 C505.548258,326.171268 506.450864,325.277001 506.456547,324.169411 Z M551.002931,322.397832 L538.166182,322.331433 C537.060489,322.324369 536.156473,323.220048 536.149395,324.327638 C536.14378,325.435229 537.037924,326.339384 538.142206,326.345035 L550.981777,326.415699 C552.0917,326.421323 552.992896,325.527057 552.999974,324.419467 C553.005588,323.311876 552.111444,322.403483 551.002931,322.397832 Z M501.843342,301.694087 C501.066255,300.905777 499.798376,300.898713 499.010006,301.67996 C498.225867,302.456968 498.220225,303.728437 498.995902,304.516747 L508.030424,313.660018 C508.418263,314.055586 508.93021,314.251957 509.442157,314.254813 C509.954103,314.257608 510.46746,314.065475 510.862351,313.675558 C511.64931,312.892899 511.656362,311.624256 510.877864,310.835945 L501.843342,301.694087 Z M534.581144,334.835619 C533.802646,334.047308 532.533356,334.040245 531.744986,334.820079 C530.960847,335.599913 530.953796,336.869968 531.730883,337.658279 L540.762584,346.80155 C541.153244,347.195705 541.66378,347.393489 542.177137,347.396345 C542.687674,347.39914 543.205262,347.207007 543.594511,346.814264 C544.38147,346.035843 544.391343,344.765787 543.612845,343.976064 L534.581144,334.835619 Z M507.914778,334.692932 L498.788585,343.740136 C498.000215,344.518557 497.994574,345.791439 498.773072,346.581162 C499.16232,346.972491 499.675678,347.171688 500.189035,347.173109 C500.700982,347.174514 501.212928,346.983793 501.606408,346.593876 L510.734011,337.543847 C511.520971,336.765425 511.526612,335.49537 510.748115,334.705646 C509.972438,333.920161 508.704558,333.91451 507.914778,334.692932 Z M533.273775,314.383373 C533.784312,314.386168 534.299079,314.192622 534.693969,313.802705 L543.818752,304.756913 C544.605711,303.977079 544.611353,302.704198 543.832855,301.918713 C543.055768,301.130403 541.787888,301.120514 540.999518,301.903173 L531.873326,310.947552 C531.086366,311.727386 531.079314,312.997442 531.859222,313.788578 C532.245651,314.182733 532.760418,314.379104 533.273775,314.383373" id="Shape"></path>
                </g>
                <g id="Group-4" transform="translate(84.000000, 36.000000)">
                    <g id="Group" transform="translate(0.500000, -0.501498)" fill="url(#linearGradient-1)">
                        <path d="M95.492257,69.4446572 C96.0482549,56.6664113 91.4026857,21.6606664 77.046299,17.0157028 C60.0416469,11.5112984 64.3502477,58.9797013 61.6468419,38.7790119 C58.9541579,18.5875144 37.7649706,-6.85867484 9.41367249,1.82458828 C-18.9314989,10.5109154 24.8514214,42.7943317 37.8063258,55.8789736 C50.7551034,68.9620835 49.9325941,77.5227882 49.9325941,77.5227882 C49.9325941,77.5227882 30.6258349,58.6365377 10.5838719,66.6641134 C-5.79738861,73.228648 37.7098303,92.4948296 54.1630795,99.3228648 C47.0775525,97.0478744 35.5762075,95.3611643 30.0805588,105.588663 C23.4790409,117.875144 63.3470008,129.901187 79.6225758,134.233627 C76.1916246,134.438912 71.4051412,135.935657 65.2064539,140.58828 C55.9964941,147.499043 71.3775711,150.363845 83.552853,151.534278 C88.4006033,127.04098 99.4026224,104.715435 114.867942,86.2520107 C116.592607,78.386825 117.222126,69.6576025 115.272304,61.0463424 C110.9974,42.1233244 100.892942,58.5691306 95.492257,69.4446572 Z" id="Path"></path>
                    </g>
                    <g id="Group" transform="translate(335.500000, 162.498502)" fill="url(#linearGradient-2)">
                        <path d="M68.5848676,99.1017339 C75.7431992,96.9027445 87.3421333,95.3401433 92.7652519,105.634296 C99.2819403,117.998628 59.0080349,129.613095 42.5674712,133.777987 C46.0240153,134.017207 50.8239997,135.567541 57.0183241,140.292148 C58.8352848,141.675333 59.6805263,142.891371 59.7854103,143.960197 C55.3910801,141.069614 50.1823566,139.278527 44.557182,139.048507 C44.0620679,139.023972 43.5731235,139.011704 43.0826367,139.014771 C41.5757007,139.023972 40.1026977,139.157383 38.6620855,139.384336 C33.8435921,140.126533 29.4184136,142.000428 25.6549297,144.720796 C26.015854,143.225667 26.2163674,141.664599 26.207113,140.059061 C26.1361621,129.047246 16.974238,120.176149 5.74856748,120.245155 C4.68584599,120.252822 3.64163344,120.341763 2.62364188,120.502777 C1.73675529,118.924841 0.886886585,117.320836 0.0832902184,115.69843 C3.43186548,111.973642 6.57530002,108.081707 9.51513625,104.044093 C14.7115204,109.155133 19.212277,114.362781 19.212277,114.362781 C19.212277,114.362781 15.598407,108.784034 12.1680839,100.268701 C18.3253905,91.2381234 23.4785871,81.5374214 27.4826872,71.3245419 C27.6400132,70.9243075 27.7834575,70.5210061 27.9346138,70.1223051 C33.4209713,55.7522009 36.684714,40.4114133 37.3757143,24.5783832 C39.8605391,20.5591704 42.8528174,17.5888479 46.4219575,16.4816859 C63.6059634,11.1559607 58.7566218,58.6197812 61.6933732,38.4332429 C64.623955,18.2497715 86.2331394,-6.99260215 114.687546,2.00270579 C143.137325,10.9964803 98.7050784,42.8434893 85.5205454,55.8012718 C72.3406395,68.7590543 73.0779122,77.3357262 73.0779122,77.3357262 C73.0779122,77.3357262 92.720522,58.6366493 112.816601,66.8866931 C129.238656,73.62474 85.2259448,92.4449606 68.5848676,99.1017339 Z" id="Path"></path>
                    </g>
                </g>
                <g id="Group-3" transform="translate(95.000000, 70.000000)">
                    <path d="M203.848752,100.154318 L203.934569,84.4057964 C204.645627,82.5836534 205.646318,80.6099204 207.054642,78.7280602 C208.138086,77.2764706 209.455995,75.8800048 211.075797,74.6596284 C219.259092,68.5010914 235.360567,64.5306572 235.360567,64.5306572 L235.43106,64.4985017 C233.857232,68.8639888 232.416727,75.3440804 235.798849,79.0741142 C241.237522,85.0749363 241.341729,89.1617427 241.329469,91.6116828 C241.315677,93.6527891 241.76162,96.4212215 241.908736,97.2986063 C241.940917,97.4731645 241.962372,97.6002552 241.962372,97.6002552 C241.962372,97.6002552 241.994553,97.4746957 242.037462,97.2986063 C242.291849,96.3017869 243.237372,92.8014349 244.489385,90.1355939 L244.452607,97.3123872 L244.43575,100.622869 C244.42349,102.539947 245.263274,104.24878 246.582715,105.444657 C245.660179,107.272925 244.493983,108.84548 243.018231,110.099543 C239.366398,113.206374 233.982893,114.28741 226.68842,113.419212 C226.746653,113.183406 226.7819,112.947599 226.7819,112.698011 C226.78803,111.897187 226.489201,111.171392 226.009544,110.603312 C225.830247,110.384349 225.627963,110.185291 225.39503,110.024514 C224.872464,109.655492 224.238029,109.43806 223.553023,109.434997 C221.758521,109.42581 220.295029,110.871275 220.285835,112.664324 C220.27664,114.454312 221.723275,115.913558 223.516244,115.924276 C224.202783,115.927338 224.83875,115.7145 225.365914,115.353134 C225.534484,115.23523 225.692326,115.106609 225.837909,114.961143 C225.885415,114.967268 225.937519,114.973393 225.988089,114.981049 C227.840824,115.221449 229.592417,115.353134 231.226011,115.353134 C236.672347,115.353134 240.917239,114.019448 244.071026,111.335232 C245.664776,109.977046 246.929049,108.303431 247.926676,106.380228 C248.818563,106.848779 249.81619,107.141241 250.895036,107.147366 C250.99771,107.147366 251.094255,107.121335 251.196929,107.118273 C251.523341,107.101429 251.852819,107.084586 252.166971,107.021806 C252.160841,107.62051 252.151647,107.972689 252.151647,107.972689 C251.852819,108.571393 251.526406,109.151723 251.180072,109.721334 L251.031424,138.111546 L259.455314,138.15442 L259.176408,138.658189 L243.664926,166.766658 L225.710716,166.671723 L214.387426,166.610475 L207.520507,137.91402 L207.50978,137.880333 L225.24485,137.972206 L225.330667,122.072095 L219.410804,122.038408 C206.571919,121.969503 204.127658,112.483641 203.848752,100.154318 Z M172.718517,206.423533 C170.537837,204.579953 167.895889,202.538847 165.045528,200.444148 C159.300365,196.219532 152.749131,191.798922 147.552586,188.378193 C142.146094,184.824248 138.212289,182.355934 138.212289,182.355934 C138.212289,182.355934 124.358921,171.931438 114.649303,167.749697 C112.802698,163.900228 111.139988,160.401408 111.055703,160.435094 C110.963756,160.471843 110.838095,160.519311 110.687914,160.58056 C110.602097,160.477968 110.52241,160.381502 110.433527,160.278911 C110.569916,150.387277 100.707053,148.64782 99.5086752,148.248174 C99.2726775,148.16855 96.1587346,148.283391 95.9426588,148.242049 C95.5166371,148.162426 95.0706935,148.254298 94.6140227,148.473262 C89.5308786,144.573263 83.4654325,138.385633 81.9099935,140.765138 C79.7737551,144.025089 89.0650131,148.695288 91.2150436,151.794462 C91.7100257,152.504944 90.0580421,152.906122 89.5783846,153.416016 C89.2458424,153.778913 83.2846032,160.107415 84.9687682,165.385505 C86.3449103,169.697399 92.3276039,174.869835 96.3518235,175.442509 C97.7294981,175.638504 98.9968361,175.682909 100.097137,175.528257 C100.262642,175.505289 100.406692,175.474664 100.563002,175.448634 C100.572197,175.445571 104.132084,176.724134 107.30426,177.861825 C116.232327,199.594325 153.515357,235.683474 168.001629,240.326111 C171.255025,241.362741 175.887628,237.706206 178.693548,232.132592 C181.629727,226.309391 182.572185,218.394553 177.844569,211.53472 C176.918968,210.197972 175.08922,208.426359 172.718517,206.423533 Z M309.615541,230.509507 C308.2961,227.629296 306.233419,224.971111 303.211423,222.896318 C299.608628,220.423409 288.863073,217.374765 278.508293,214.84214 C274.062649,213.754979 269.702822,212.767347 265.998885,211.960398 C260.014659,210.651211 255.755974,209.815169 255.755974,209.815169 C255.755974,209.815169 239.087491,205.028598 228.524298,204.590671 C227.128234,203.272297 225.808793,202.021297 224.75753,201.033665 C223.467205,199.822475 222.58911,199.012464 222.555396,199.046151 C222.481839,199.116586 222.380697,199.202334 222.262698,199.309519 C222.242776,199.298801 222.224387,199.289613 222.209062,199.280426 C222.110985,199.226834 222.015973,199.173241 221.916364,199.12118 C220.722584,195.864291 218.730396,194.002336 216.600287,192.935081 C212.655755,190.959817 208.226968,191.754516 207.405573,191.791266 C207.161914,191.803515 204.29163,193.023892 204.07249,193.060641 C203.648,193.140264 203.263355,193.385258 202.915488,193.752749 C196.77342,191.927543 188.89355,188.318475 188.288232,191.093033 C187.460707,194.901158 197.812422,195.940852 200.92943,198.066175 C201.645085,198.554631 200.247489,199.520827 199.982375,200.166998 C199.79848,200.620237 196.499111,208.663697 199.962453,212.990904 C200.278138,213.387488 200.659719,213.770291 201.081143,214.142375 C204.423421,217.082304 210.672762,219.114223 214.188207,218.313399 C215.544427,218.004094 216.742805,217.59526 217.717445,217.056273 C217.866093,216.97665 217.987156,216.893964 218.123544,216.81281 C218.132739,216.809748 221.914831,216.730125 225.281629,216.656627 C232.63127,224.461217 246.556664,232.934947 260.973974,239.774874 C262.480375,240.486888 263.992905,241.188183 265.502371,241.86651 C281.229928,248.905495 296.785851,253.718096 304.320919,253.300075 C305.831917,253.214327 307.261695,252.174633 308.443215,250.50408 C311.506587,246.195248 312.890392,237.669457 309.615541,230.509507 Z M0.5,418.37788 C2.29603404,418.983448 4.01238056,419.691078 5.6352475,420.498502 C5.362471,420.18778 5.10961638,419.931491 4.89047571,419.752315 C3.40399702,418.534376 1.90985607,418.185097 0.5,418.37788 Z" id="Shape" fill="#FFF3E0"></path>
                    <path d="M214.5,165.498502 L219.15597,184.902007 L222.246794,197.766586 C222.261975,197.777174 222.280192,197.78625 222.299927,197.796838 C222.415301,197.690957 222.517013,197.604739 222.588363,197.536672 C222.623279,197.501883 223.494661,198.303556 224.771371,199.498502 L243.5,165.651273 L225.715621,165.557493 L214.5,165.498502 Z" id="Path" fill="#B2EBF2"></path>
                    <path d="M260.983814,66.0783666 C258.423567,60.3766776 255.255855,57.6701409 251.729186,56.5018627 C251.732254,59.7196171 251.82276,62.9742161 251.94548,66.2011816 C252.005306,67.7962422 252.072803,69.3851619 252.138765,70.9571946 C252.174047,71.7861963 252.209329,72.6121275 252.243077,73.4334532 C253.388975,73.4534106 254.447436,73.7865465 255.375507,74.3238623 C257.323688,75.4537608 258.649065,77.5462223 258.636793,79.9687493 L258.534015,99.4840616 C258.530947,99.5915247 258.504869,99.6974527 258.498733,99.8049159 C259.009555,98.7886213 259.518843,97.5497245 260.014326,95.9515935 C264.970683,79.925764 260.983814,66.0783666 260.983814,66.0783666 Z M250.235069,63.8354566 C250.161437,61.6125041 250.116951,59.3834109 250.107747,57.1604584 C250.107747,56.9869821 250.104679,56.8073651 250.104679,56.6308185 C250.104679,56.4435255 250.101611,56.2531622 250.101611,56.0612636 C248.501648,55.7373389 246.838791,55.680537 245.134516,55.7511556 C235.082207,54.0916172 214.920832,51.487938 209.002656,56.0781507 C200.840237,62.4092668 198.928871,70.0345465 199.26175,76.4700554 C201.782113,76.7724875 203.839209,78.4934335 204.626151,80.8253843 C204.797959,81.3243205 204.899203,81.8478197 204.943689,82.3912763 C204.955961,82.5754989 204.994311,82.7474399 204.994311,82.9347329 L204.994311,83.1542648 C205.706088,81.328926 206.707791,79.3485333 208.117537,77.4633222 C209.202076,76.0079638 210.519783,74.606337 212.142756,73.3843272 C220.334322,67.2082651 236.45207,63.2290573 236.45207,63.2290573 L236.522634,63.1968183 C234.947215,67.5721047 233.50372,74.0690211 236.890794,77.8102747 C242.334964,83.825142 242.439276,87.9240945 242.427004,90.3803956 C242.413198,92.4252663 242.858058,95.2024217 243.006857,96.0820845 C243.039071,96.2555608 243.060547,96.3845166 243.060547,96.3845166 C243.060547,96.3845166 243.092761,96.257096 243.135713,96.0820845 C243.390357,95.0811418 244.335301,91.5717016 245.590114,88.9004742 L245.637668,79.8981307 C245.653008,76.841571 247.782202,74.3054401 250.62624,73.6253517 C250.592492,72.7610408 250.552608,71.8951946 250.518859,71.0262781 C250.414547,68.6574827 250.314837,66.2487725 250.235069,63.8354566 Z M208.573136,136.770712 L208.58234,136.804486 L204.649161,136.750755 L204.616947,137.142228 C197.913363,135.478084 186.824069,139.354434 180.827659,148.805053 C175.779262,156.746581 168.253453,187.817255 168.253453,187.817255 C168.253453,187.817255 167.204196,192.722181 166.0629,199.498502 C160.31193,195.262917 153.754076,190.829294 148.552278,187.401219 C131.366865,171.068352 131.563217,157.641596 133.221472,149.371537 C139.043006,120.402536 176.18117,114.507413 187.620216,106.433859 C189.204839,105.313171 190.632994,104.16485 191.946099,103.004248 C192.248297,106.300297 194.977285,108.902441 198.350553,108.922399 C201.940115,108.942356 204.866989,106.043921 204.885397,102.45158 L204.905339,98.9452105 C205.184528,111.308081 207.631259,120.817037 220.48312,120.887655 L226.407432,120.919894 L226.321527,136.862824 L208.573136,136.770712 Z" id="Shape" fill="#FF9800"></path>
                    <g id="Group" transform="translate(236.500000, 248.498502)"></g>
                    <path d="M395.5,289.516152 L236.5,290.498502 C236.5,290.489448 236.503054,290.478885 236.503054,290.469831 C249.05894,288.677156 261.291119,285.27741 272.932378,280.324918 C286.925099,274.387058 299.612301,266.425649 310.746622,256.902438 C310.99551,258.003998 311.204699,259.120647 311.31311,260.265968 C314.011183,254.269258 319.685228,249.829821 326.53195,248.752405 C327.538192,248.592452 328.571919,248.50644 329.623969,248.498502 C340.73844,248.430991 349.809889,257.160475 349.877073,267.996503 C349.887762,269.576411 349.687735,271.112559 349.330435,272.58382 C353.056126,269.906879 357.438395,268.062898 362.208502,267.332549 C363.633121,267.109219 365.092859,266.977937 366.583136,266.968883 C367.070224,266.965865 367.554259,266.977937 368.042874,267.002081 C373.613088,267.231447 378.769507,268.990925 383.118183,271.835363 C389.312909,275.890009 393.853977,282.164372 395.5,289.516152 Z" id="Path" fill="url(#linearGradient-3)"></path>
                    <g id="Group" transform="translate(86.454128, 85.174779) scale(-1, 1) rotate(-25.660634) translate(-86.454128, -85.174779) translate(83.384361, 48.345688)" fill="#E91E63">
                        <path d="M0.900820649,3.73746149 C1.03712519,3.01418572 1.1826188,2.28631286 1.34189602,1.55384291 C6.91506713,24.3569503 7.01308388,48.6066091 0.900820649,72.2295312 C0.632806099,72.1283952 0.377043644,72.0303239 0.115155142,71.9322526 C5.94868324,49.1919721 5.98850255,25.8249549 0.900820649,3.73746149" id="Path"></path>
                    </g>
                    <g id="Group" transform="translate(292.710433, 268.392701) scale(-1, 1) rotate(121.179854) translate(-292.710433, -268.392701) translate(290.408107, 245.374519)" fill="#E91E63">
                        <path d="M0.980660861,0.248913399 C1.23948616,0.196813062 1.51668959,0.138583273 1.7755149,0.0864829355 C3.872153,15.120495 3.54747274,30.2878227 0.980660861,45.03988 C0.697331388,45.1256923 0.420127957,45.2268282 0.135266973,45.301914 C2.72198849,30.6617192 3.09567709,15.4867297 0.980660861,0.248913399" id="Path"></path>
                    </g>
                    <g id="Group" transform="translate(336.500000, 196.498502)" fill="#E91E63">
                        <path d="M0.0381620637,29.8191054 C0.158754185,30.1261465 0.274766859,30.4361977 0.39535898,30.7372184 C6.60508999,21.6539203 11.7630745,11.8150604 15.7426145,1.40727153 C15.7288762,1.16796011 15.7136113,0.942194629 15.7044525,0.687832181 C15.5975987,0.466582005 15.4861655,0.243826725 15.3762587,0.0180612389 C11.4516721,10.5417431 6.30742589,20.5446592 0.0381620637,29.8191054" id="Path"></path>
                    </g>
                    <g id="Group" transform="translate(351.500000, 154.498502)" fill="#E91E63">
                        <path d="M0.109637364,40.7080217 C0.109637364,41.2419571 0.11852688,41.7455552 0.130379568,42.2157824 C0.189643008,42.3386482 0.24446169,42.4569635 0.302243545,42.5767955 C5.17369832,29.2314449 8.16798363,14.9501905 8.95026104,0.0576407507 C8.64357274,0.62798081 8.34577395,1.21500635 8.05834627,1.82175109 C7.17828418,15.2808664 4.45809228,28.3486313 0.109637364,40.7080217" id="Path"></path>
                    </g>
                    <g id="Group" transform="translate(328.920998, 237.004126) scale(-1, 1) rotate(138.042752) translate(-328.920998, -237.004126) translate(327.386115, 229.331399)" fill="#E91E63">
                        <path d="M1.24727013,0.44779126 C1.59805901,0.337461073 1.95297482,0.233260341 2.30995409,0.125994882 C2.27900213,5.0019762 1.93646711,9.8825546 1.24727013,14.7416799 C0.879973543,14.7524065 0.512676952,14.7661977 0.13918997,14.7753919 C0.828386943,10.018935 1.19981046,5.23796021 1.24727013,0.44779126" id="Path"></path>
                    </g>
                    <g id="Group" transform="translate(351.500000, 196.498502)" fill="#E91E63">
                        <path d="M0.570122024,2.24519543 C1.13620898,1.89446474 1.6657742,1.53934992 2.23186115,1.18861923 C1.51968724,0.846656806 0.844035067,0.500310251 0.131861154,0.145195428 C0.223165502,0.894882276 0.405774198,1.54373405 0.570122024,2.24519543" id="Path"></path>
                    </g>
                    <g id="Group" transform="translate(351.500000, 194.498502)" fill="#E91E63">
                        <path d="M2.20667419,2.21408212 C2.12853466,1.55703987 2.06016256,0.85985677 2.06016256,0.114082122 C1.4155114,0.502814517 0.751325355,0.887321559 0.106674192,1.27394128 C0.819697448,1.58873001 1.52295326,1.90563142 2.20667419,2.21408212" id="Path"></path>
                    </g>
                    <g id="Group" transform="translate(199.500000, 290.498502)" fill="#E91E63">
                        <path d="M16.7021307,0.365760055 L15.9239923,0.365760055 C14.3857768,0.346115805 12.8535817,0.257716681 11.3304172,0.13657714 L0.0948215042,0.00888951602 C5.28893279,1.35124659 10.5598043,2.03224725 15.9179719,2.10427617 C21.2761394,2.16648296 26.5530314,1.60007376 31.7531631,0.37558218 L20.6710879,0.247894556 C19.3526175,0.323197514 18.0281266,0.365760055 16.7021307,0.365760055" id="Path"></path>
                    </g>
                    <g id="Group" transform="translate(334.567121, 228.569422) scale(-1, 1) rotate(135.503842) translate(-334.567121, -228.569422) translate(332.264796, 225.500331)" fill="#E91E63">
                        <path d="M2.70228497,0.132131434 C3.04745948,0.136728521 3.38879871,0.133663796 3.73205558,0.135196159 C3.42331616,1.78095353 3.08005929,3.42364618 2.70228497,5.06327411 C2.32642829,5.19812201 1.94481869,5.34063173 1.56129146,5.47854436 C1.98700669,3.70406853 2.36669865,1.92039852 2.70228497,0.132131434" id="Path"></path>
                    </g>
                    <g id="Group" transform="translate(70.500000, 118.498502)" fill="#E91E63">
                        <path d="M119.464716,171.056458 C119.529012,170.823836 119.600962,170.559076 119.677505,170.27136 C119.654542,170.268299 119.630049,170.265238 119.608617,170.259117 C50.45845,157.882729 0.540391154,97.8372785 0.916981024,27.4768962 C0.964437471,18.1215288 1.92734409,8.97276609 3.69088689,0.108658774 C3.41227162,0.0841722898 3.13977977,0.062746616 2.85504108,0.0367297265 C1.10680681,8.91920191 0.153085313,18.0863295 0.105628866,27.4738354 C-0.277084416,99.0860892 51.3004192,158.859128 119.464716,171.056458" id="Path"></path>
                    </g>
                    <g id="Group" transform="translate(317.363071, 248.513954) scale(-1, 1) rotate(-47.759842) translate(-317.363071, -248.513954) translate(315.828187, 237.772135)" fill="#E91E63">
                        <path d="M1.12320516,1.85026258 C1.48658848,1.76904727 1.8499718,1.69242905 2.21335512,1.60968138 C1.32939458,7.66252039 0.978260132,13.7659274 1.12320516,19.8892552 C0.770029242,20.0179738 0.431143675,20.1727426 0.0861336704,20.309123 C-0.0873920717,14.1459538 0.257617933,7.98431689 1.12320516,1.85026258" id="Path"></path>
                    </g>
                    <g id="Group" transform="translate(102.500000, 1.498502)" fill="#E91E63">
                        <path d="M112.842599,0.908432781 L113.628388,0.911491477 C193.261083,1.33665025 257.698804,66.3630028 257.277573,145.870753 C257.260723,148.859099 257.130524,151.829093 256.931397,154.785323 C257.230088,154.175113 257.536438,153.583255 257.853511,153.006691 C257.982178,150.642319 258.075615,148.268771 258.08996,145.873811 C258.513696,65.7940853 193.840085,0.530683796 113.631451,0.102466324 C68.1139245,-0.140700027 27.3800576,20.555968 0.579002056,53.1387296 C0.40591414,53.8666993 0.220572212,54.585493 0.0306350294,55.2935811 C26.5406578,22.1831944 67.3082232,0.908432781 112.842599,0.908432781" id="Path"></path>
                    </g>
                    <g id="Group" transform="translate(86.693596, 84.199423) scale(-1, 1) rotate(154.961390) translate(-86.693596, -84.199423) translate(83.623829, 47.370332)" fill="#E91E63">
                        <path d="M5.05318921,0.417634834 C-0.803311365,24.1049153 -0.441874614,48.3545734 5.37940119,71.0933206 C5.2752584,71.5852094 5.16498956,72.0786306 5.05318921,72.5720518 C-1.14483846,49.2908477 -1.66555243,24.4006616 4.30428001,0.151003523 C4.55544792,0.239880627 4.81121037,0.330290095 5.05318921,0.417634834" id="Path"></path>
                    </g>
                    <g id="Group" transform="translate(236.500000, 256.498502)" fill="#E91E63">
                        <path d="M74.8835627,1.02658879 C74.8173934,0.725977141 74.7404525,0.429874663 74.6604339,0.130766069 C63.3224134,9.777394 50.459423,17.7511181 36.4530899,23.6265728 C25.0181239,28.4318501 12.8383693,31.8392832 0.120027904,33.6459592 C0.101562073,33.9180128 0.0677080484,34.1840541 0.060013952,34.4621199 C12.7137249,32.6764866 25.0412062,29.2900964 36.7731644,24.3570592 C50.8764431,18.4410218 63.6640313,10.5123895 74.8835627,1.02658879" id="Path"></path>
                    </g>
                    <g id="Group" transform="translate(329.335938, 237.748552) scale(-1, 1) rotate(137.937271) translate(-329.335938, -237.748552) translate(327.801054, 230.075824)" fill="#E91E63">
                        <path d="M1.20975527,0.401314828 C1.57388344,0.28485517 1.94001232,0.166863148 2.31214332,0.0565329464 C2.28013205,5.04744222 1.90600035,10.027625 1.20975527,14.9802251 C0.853629912,14.9940164 0.497504554,15.0032106 0.141379196,15.0170019 C0.821618644,10.1548112 1.16573978,5.27729681 1.20975527,0.401314828" id="Path"></path>
                    </g>
                    <g id="Group" transform="translate(357.355391, 174.977699) scale(-1, 1) rotate(167.522457) translate(-357.355391, -174.977699) translate(355.820507, 151.192244)" fill="#E91E63">
                        <path d="M0.681685152,0.88958698 C0.912943415,0.595373116 1.13501261,0.30422398 1.3570818,0.0192042998 C3.57317919,15.2171892 3.42921709,30.8856098 0.681685152,46.4804769 C0.48718317,45.9211641 0.304933281,45.34806 0.131872462,44.7611647 C2.59148021,29.8972351 2.68490242,15.140571 0.681685152,0.88958698" id="Path"></path>
                    </g>
                    <g id="Group" transform="translate(352.961610, 198.577141) scale(-1, 1) rotate(-179.408422) translate(-352.961610, -198.577141) translate(351.426726, 196.275323)" fill="#E91E63">
                        <path d="M0.534361071,1.53894002 C1.11139963,1.93735465 1.63897775,2.33730165 2.19403389,2.73571628 C1.64447336,3.06364217 1.10590403,3.39769751 0.534361071,3.73634995 C0.363997305,3.61682556 0.193633539,3.49270408 0.0232697723,3.3685826 C0.13318188,2.6836159 0.292554435,2.06454086 0.534361071,1.53894002" id="Path"></path>
                    </g>
                    <g id="Group" transform="translate(344.043015, 212.395528) scale(-1, 1) rotate(150.952669) translate(-344.043015, -212.395528) translate(341.740689, 194.748255)" fill="#E91E63">
                        <path d="M2.57743386,0.659160192 C2.82553871,0.4522911 3.07364356,0.250019099 3.31868539,0.0477470983 C4.28506911,10.9060759 4.05381089,21.867073 2.57743386,32.7208047 C2.26041099,33.143737 1.91582091,33.6586112 1.54672665,34.2424418 C3.1992275,23.0408636 3.53616002,11.770329 2.57743386,0.659160192" id="Path"></path>
                    </g>
                    <g id="Group" transform="translate(318.333415, 249.881222) scale(-1, 1) rotate(131.940613) translate(-318.333415, -249.881222) translate(316.798532, 239.906676)" fill="#E91E63">
                        <path d="M1.15431419,0.540828364 C1.50598948,0.39678619 1.84997787,0.252744017 2.19204454,0.0949105715 C2.3400172,6.34082439 2.0037157,12.5698822 1.15431419,18.7422426 C0.785343405,18.8234579 0.418294339,18.9108026 0.0550887194,18.9966149 C0.910255391,12.8671607 1.27538273,6.70705928 1.15431419,0.540828364" id="Path"></path>
                    </g>
                    <g id="Group" transform="translate(335.249107, 229.112936) scale(-1, 1) rotate(134.824695) translate(-335.249107, -229.112936) translate(332.946781, 226.043845)" fill="#E91E63">
                        <path d="M2.70874493,0.0492228049 C3.0548938,0.0522875321 3.40299832,0.0568846228 3.75305848,0.0568846228 C3.4381999,1.57239219 3.08422846,3.0817703 2.70874493,4.58501895 C2.33521705,4.71067277 1.95973353,4.83632658 1.58229436,4.96504512 C1.99493511,3.33154556 2.36650735,1.69038418 2.70874493,0.0492228049" id="Path"></path>
                    </g>
                    <g id="Group" transform="translate(193.500000, 290.498502)" fill="#E91E63">
                        <path d="M38.4655489,0.848948779 C33.1686235,1.40454353 27.796597,1.65937632 22.3387407,1.63122619 C16.8854824,1.60011288 11.5149886,1.29046141 6.22572656,0.683011147 L6.22266121,0.683011147 L0.0919605105,0.650416255 C2.09976499,0.958586144 4.11523284,1.24156907 6.12457,1.46380697 C11.3663191,2.06681247 16.8180447,2.38535346 22.3356753,2.41498518 L23.1372644,2.41498518 C28.3698175,2.41498518 33.5548576,2.15126288 38.5483133,1.63122619 C40.4396345,1.43862001 42.3217596,1.20749259 44.1992867,0.946733456 C44.2069501,0.674121631 44.2406689,0.408917737 44.259061,0.142232256 C42.3432171,0.414844081 40.4105137,0.653379427 38.4655489,0.848948779" id="Path"></path>
                    </g>
                    <g id="Group" transform="translate(102.500000, -0.501498)" fill="#E91E63">
                        <path d="M113.174989,0.922196914 C193.383623,1.35041439 258.055702,66.6138159 257.629875,146.693542 C257.617621,149.09003 257.527248,151.462049 257.395517,153.826422 C257.691145,153.29115 257.989837,152.772701 258.302314,152.269545 C258.381965,150.417505 258.432513,148.560876 258.443809,146.699659 C258.870594,66.3002995 193.705291,0.538330537 113.179585,0.110113064 L112.384606,0.107054368 C67.5487082,0.107054368 27.2896842,20.5024408 0.451866684,52.4841686 C0.344644081,52.9781481 0.235889727,53.4705982 0.122540118,53.9584602 C26.9205321,21.3756986 67.6559308,0.679030564 113.174989,0.922196914" id="Path"></path>
                    </g>
                    <g id="Group" transform="translate(69.500000, 118.498502)" fill="#E91E63" stroke="#E91E63" stroke-width="0.5">
                        <path d="M0.87105543,27.52893 C0.918511877,18.1414241 1.87223338,8.9742965 3.62046765,0.0918243162 C3.36328432,0.0688682371 3.09538502,0.0413209423 2.83207829,0.0153040527 C1.06700463,8.92685394 0.110221425,18.118468 0.059703272,27.5228084 C-0.319948304,98.6529845 50.1277857,159.354979 120.018885,171.898181 C120.075527,171.691576 120.141353,171.44212 120.231674,171.113083 C52.0658457,158.915753 0.488342148,99.1411837 0.87105543,27.52893 Z" id="Path"></path>
                    </g>
                    <g id="Group" transform="translate(190.500000, 56.498502)" fill="url(#linearGradient-4)">
                        <path d="M33.2267548,58.6814753 C33.9212771,58.6844819 34.5676334,58.4747805 35.1021204,58.1146411 C35.2730319,57.9991534 35.4330673,57.8699895 35.5806727,57.7256298 C35.6288387,57.7332277 35.6816659,57.739306 35.7329393,57.7453843 C37.6098586,57.9839576 39.3873385,58.1161607 41.0436266,58.1161607 C46.5656227,58.1161607 50.867932,56.7926105 54.0670851,54.1272753 C55.6829759,52.7794119 56.9632586,51.1200356 57.9762978,49.2099293 C58.8805752,49.676439 59.8920607,49.9651583 60.9858945,49.9712366 C61.0884414,49.9712366 61.1878808,49.9454038 61.2919815,49.9423647 C61.6229283,49.9271689 61.9569827,49.9104536 62.2754996,49.8466314 C62.4339812,49.8177595 62.5784792,49.7584961 62.7307458,49.7220262 C62.8130941,49.6992326 62.8892274,49.6749194 62.9700219,49.6490866 C65.5336949,48.8695445 67.4152754,46.6144946 67.5706495,43.8838176 C67.5784182,43.7774473 67.6032781,43.6725966 67.6048318,43.5662264 L67.7090408,24.249384 C67.7229162,21.8545332 66.3820375,19.7818324 64.4072325,18.6619053 C63.4687728,18.1300539 62.393584,17.8003061 61.2344931,17.7805516 C61.198757,16.9660592 61.163021,16.1485276 61.1288387,15.3294765 C61.0620278,13.7719117 60.9936632,12.2006708 60.9330673,10.621832 C60.8072142,7.42920407 60.7170972,4.20618467 60.7139898,1.01963508 C60.7139898,0.703563404 60.7077748,0.382932998 60.7077748,0.0638221663 L59.0608092,0.0547047139 C59.0608092,0.229455883 59.0639166,0.410285355 59.0639166,0.585036524 C59.0639166,0.773463872 59.0670241,0.96189122 59.0670241,1.14879899 C59.0670241,1.32355016 59.0701316,1.50134048 59.0701316,1.6730525 C59.0794541,3.87035851 59.1245126,6.07830155 59.1990921,8.28016628 C59.2798867,10.6689388 59.3808798,13.0531526 59.4849805,15.399377 C59.5191628,16.2564175 59.5580063,17.1149776 59.5937424,17.9720181 C56.7131063,18.6436704 54.5549598,21.1570481 54.5409761,24.1794836 L54.4928101,33.0902736 L54.4539666,40.2125235 L54.4384292,43.4978455 C54.4244455,45.4003538 55.2774494,47.0977196 56.6136668,48.2829884 C55.6798684,50.0973614 54.4959176,51.6579653 53.0012186,52.9024975 C49.2970997,55.985716 43.838807,57.0585362 36.4445528,56.196937 C36.5020412,55.9644419 36.5377772,55.7289078 36.5377772,55.481217 C36.5455459,54.686479 36.2425664,53.9662003 35.7562454,53.4024378 C35.572904,53.1851386 35.3678101,52.9875938 35.1331952,52.8280383 C34.6018157,52.4618207 33.9585669,52.2475605 33.2640446,52.2445214 C31.4446137,52.2338844 29.9623446,53.6683635 29.952923,55.4477863 C29.9390385,57.2211308 31.4057702,58.6723253 33.2267548,58.6814753 Z M6.64535096,52.9086772 C10.282659,52.9283303 13.2456434,50.059372 13.2642883,46.5035656 L13.284487,43.0328554 L13.3714965,27.4040225 L13.3714965,27.1867233 C13.3714965,27.0013351 13.3342067,26.8311426 13.320223,26.6487936 C13.2767183,26.1108639 13.1726176,25.5926887 12.9985986,25.0988267 C12.2030831,22.7905917 10.1195162,21.0871476 7.56516573,20.7877913 C7.31967463,20.7573998 7.07729101,20.7117111 6.8240312,20.7117111 C3.18827687,20.692058 0.223738728,23.5610164 0.205093834,27.1168228 L0.100993176,46.4351847 C0.0978856934,46.6464057 0.139836705,46.8469896 0.158481599,47.0506127 C0.463014867,50.3146606 3.22867414,52.8888214 6.64535096,52.9086772 Z" id="Shape"></path>
                    </g>
                    <g id="Group" transform="translate(165.500000, 138.498502)" fill="url(#linearGradient-5)">
                        <path d="M144.710061,92.3806989 C143.389748,89.5142427 141.325703,86.8658202 138.301709,84.7998371 C134.696532,82.3374293 123.943873,79.3017302 113.582247,76.7798586 C111.338788,71.0240756 108.971117,64.8276512 106.790529,58.9605642 C104.754087,63.9509425 102.759049,69.0419516 101.06457,73.910353 C95.0763872,72.6067253 90.8148869,71.775758 90.8148869,71.775758 C90.8148869,71.775758 74.135384,67.0079875 63.5636736,66.5719202 C62.1682201,65.2591443 60.8479064,64.0149803 59.7959492,63.0300172 L78.7143116,28.911565 L94.2360482,0.923974707 L103.608589,1.05357512 C109.929533,1.08711876 115.479144,5.10778097 118.826699,11.2310193 C127.214755,21.9787053 142.511072,65.7790707 144.710061,92.3806989 Z M97.0484237,107.155146 C96.6282542,105.195893 96.2801576,103.325073 96.0394035,101.608248 C81.6125612,94.7973654 67.6764278,86.3580915 60.3234613,78.5881656 C56.9544378,78.6613517 53.1698452,78.7406366 53.159111,78.7436861 C53.0226326,78.8260204 52.9030223,78.9083548 52.7542761,78.9861151 C51.7789921,79.5212885 50.5798222,79.9283863 49.2211719,80.2379026 C45.7034023,81.0353263 39.448397,79.0105104 36.1054425,76.0830658 C35.6837395,75.7140858 35.3034401,75.3329081 34.9860127,74.9380081 C31.5219144,70.6291755 34.8203985,62.6183453 35.0059478,62.1685556 C35.2727708,61.5251277 36.6712912,60.5630352 35.9551628,60.0766525 C32.8360943,57.9588293 22.4760021,56.9250754 23.3056069,53.1331198 C23.9113257,50.3688192 31.7964047,53.9625624 37.9410005,55.7800176 C38.2906306,55.4140871 38.673997,55.1716581 39.1003003,55.0923731 C39.3180524,55.05578 42.1886996,53.8405856 42.4355876,53.8268632 C43.257525,53.7933195 47.68924,53.00047 51.6363799,54.9658221 C53.7694302,56.0285455 55.7614017,57.8841185 56.9559713,61.1271782 C57.0556465,61.1759689 57.1491879,61.2293338 57.2488632,61.2842234 L54.1267276,48.3165586 L49.4235893,28.7575692 L42.5521309,0.182965289 L38.6203257,0.129600413 L38.5881229,0.51687694 C31.8868792,-1.13438479 20.8014579,2.71550982 14.8071417,12.1016291 C9.7589737,19.9889578 2.23732599,50.8475784 2.23732599,50.8475784 C2.23732599,50.8475784 1.18690221,55.7190292 0.0460039615,62.4475777 C2.89978304,64.533382 5.5419439,66.5658214 7.7255986,68.4015731 C10.099403,70.3958948 11.9303607,72.1584604 12.8519734,73.494107 C17.5827141,80.3263358 16.6411663,88.2060409 13.7015132,94.0045158 C13.7091805,93.998417 13.7122475,93.9923182 13.7183813,93.9892687 C17.5290428,89.338901 21.3964425,82.834485 25.0261551,75.3603529 C25.029222,75.3573035 25.029222,75.3542541 25.0338224,75.3512047 C25.3098462,74.774864 25.5690018,74.2122457 25.8480925,73.6343804 C26.1379175,74.3159261 26.4246755,75.0096695 26.7145004,75.7034129 L26.7145004,75.7064623 C30.4500221,84.7540958 33.7745751,95.14195 33.8757838,103.605619 C34.0153291,115.377911 26.7513036,142.755617 24.6550564,150.421863 C24.5783832,150.708508 24.5047768,150.973808 24.4419047,151.204039 C24.3514303,151.531852 24.2854913,151.78038 24.2287531,151.986216 C24.142879,152.285059 24.0922746,152.461926 24.0922746,152.461926 L27.2374121,152.478697 L33.3697402,152.512241 L33.3728071,152.510716 L44.8201262,152.57018 L54.3352789,152.620495 L65.627718,152.679959 C67.5736856,152.478697 69.5073854,152.233219 71.4257506,151.954197 C84.099842,150.121495 96.2372205,146.664975 107.632402,141.790475 C107.541927,141.544997 107.448386,141.279697 107.359445,141.029644 C103.895347,131.423967 99.3286868,117.826596 97.0484237,107.155146 Z" id="Shape"></path>
                    </g>
                </g>
            </g>
        </g>
    </g>
</svg>