<?xml version="1.0" encoding="UTF-8"?>
<svg width="147px" height="103px" viewBox="0 0 147 103" version="1.1" xmlns="http://www.w3.org/2000/svg" xmlns:xlink="http://www.w3.org/1999/xlink">
    <!-- Generator: Sketch 64 (93537) - https://sketch.com -->
    <title>Artwork</title>
    <desc>Created with Sketch.</desc>
    <defs>
        <linearGradient x1="60.8330168%" y1="83.6920336%" x2="39.1662282%" y2="16.3079664%" id="linearGradient-1">
            <stop stop-color="#00BCD4" offset="0%"></stop>
            <stop stop-color="#B2EBF2" offset="100%"></stop>
        </linearGradient>
        <linearGradient x1="0%" y1="49.9993164%" x2="100.004179%" y2="49.9993164%" id="linearGradient-2">
            <stop stop-color="#FF9800" offset="0%"></stop>
            <stop stop-color="#FFE0B2" offset="100%"></stop>
        </linearGradient>
        <linearGradient x1="-0.00338808868%" y1="50.0013153%" x2="100.002816%" y2="50.0013153%" id="linearGradient-3">
            <stop stop-color="#00BCD4" offset="0%"></stop>
            <stop stop-color="#B2EBF2" offset="100%"></stop>
        </linearGradient>
        <linearGradient x1="0.00218286644%" y1="50.0003922%" x2="99.9993828%" y2="50.0003922%" id="linearGradient-4">
            <stop stop-color="#E91E63" offset="0%"></stop>
            <stop stop-color="#F8BBD0" offset="100%"></stop>
        </linearGradient>
        <linearGradient x1="26.4472869%" y1="6.01477606%" x2="73.5527131%" y2="93.984734%" id="linearGradient-5">
            <stop stop-color="#E91E63" offset="0%"></stop>
            <stop stop-color="#FF9800" offset="100%"></stop>
        </linearGradient>
        <linearGradient x1="40.3242757%" y1="-64.8400272%" x2="55.8281429%" y2="71.5124479%" id="linearGradient-6">
            <stop stop-color="#E91E63" offset="0%"></stop>
            <stop stop-color="#F8BBD0" offset="100%"></stop>
        </linearGradient>
    </defs>
    <g id="Landing" stroke="none" stroke-width="1" fill="none" fill-rule="evenodd">
        <g transform="translate(-348.000000, -944.000000)" id="How-It-Works">
            <g transform="translate(108.000000, 769.000000)">
                <g id="Feature-1" transform="translate(76.000000, 175.000000)">
                    <g id="Image">
                        <g id="Artwork" transform="translate(164.000000, 0.000000)">
                            <g id="Group-25" transform="translate(0.500000, 73.000000)">
                                <g id="Group" transform="translate(27.500000, 23.777778) scale(-1, 1) translate(-27.500000, -23.777778) translate(-0.000000, 17.777778)" fill="#B2EBF2">
                                    <path d="M27.4998371,0.186618877 C12.3221267,0.186618877 0,2.74257645 0,5.89048423 C0,9.0387153 12.3221267,11.5940263 27.4998371,11.5940263 C42.6775476,11.5940263 55,9.0387153 55,5.89048423 C55,2.74257645 42.6775476,0.18694217 27.4998371,0.186618877" id="Path"></path>
                                </g>
                                <g id="Group" transform="translate(8.979592, 8.888889)" fill="url(#linearGradient-1)">
                                    <path d="M0.251256252,0.0290269911 C-0.597541345,11.5531456 0.761371065,17.2251003 6.87286581,17.2251003 C9.24934704,17.2251003 6.36313111,9.93247193 2.45896626,5.34136951 C0.336402093,2.82005281 1.77970011,1.82950674 0.251256252,0.0290269911 Z" id="Path"></path>
                                </g>
                                <g id="Group" transform="translate(13.469388, 3.333333)" fill="url(#linearGradient-2)">
                                    <path d="M4.9403712,12.5231031 C4.9403712,11.048468 4.29055212,4.14100334 2.15483834,0.0274560859 C3.36176399,7.16777615 0.0199560564,6.70241287 0.0199560564,15.0845126 C0.0199560564,17.6459221 1.87711655,21.836972 3.64073303,22.0698274 C5.31122125,22.3026828 5.68331855,20.5173422 5.96187184,19.8966261 C6.79711595,18.3441408 8.00404161,7.16777615 7.44693503,6.08134925 C5.96187184,7.94419255 5.12621198,12.212745 4.9403712,12.5231031 Z" id="Path"></path>
                                </g>
                                <g id="Group" transform="translate(16.836735, 13.333333)" fill="#F8BBD0">
                                    <path d="M0.0166854805,12.8224534 C0.0166854805,13.5101402 3.30954565,14.1116256 4.86944405,7.06427903 C5.995908,1.56470875 6.77624524,1.04903986 7.38274305,0.017317239 C2.9630309,0.017317239 0.0166854805,11.0176123 0.0166854805,12.8224534" id="Path"></path>
                                </g>
                                <g id="Group" transform="translate(10.102041, 12.222222)" fill="url(#linearGradient-3)">
                                    <path d="M4.7335053,9.43600437 C4.57456956,9.13231843 4.09704964,8.82897219 4.01758178,8.52528626 C3.93775755,8.29803135 4.01758178,8.07043674 4.09704964,7.7670905 C4.09704964,7.08430669 3.77846546,6.55302615 3.46059399,6.0220853 C3.22147767,5.71873906 2.66484624,5.33930149 2.50555415,5.03595524 C2.26679419,4.42892307 2.74467047,3.97407355 2.10750209,3.29128974 C1.86874213,3.06369513 1.47069008,2.91185217 1.39122221,2.68425756 C1.23228648,2.45666296 1.31211071,2.15297702 1.23228648,1.92572211 C1.07299439,1.16718666 0.436538733,0.636245813 0.0388430383,0.0288739424 C-0.0409811872,0.939592054 0.197778773,1.77387914 0.118310906,2.68425756 C0.0388430383,3.36704137 0.5160066,3.97407355 0.5160066,4.58110573 C0.595830826,5.26388954 0.276890282,5.79483039 0.675298693,6.55302615 C0.834234428,6.93246372 1.15281861,7.16005832 1.31211071,7.46340456 C1.47069008,7.84284214 1.55051431,8.29803135 1.78963063,8.75322056 C1.94856636,9.0565668 2.18732632,9.2841614 2.42572992,9.51141631 C2.9036062,10.2702915 2.42572992,12.2425516 3.85864604,12.3183032 C4.17651751,13.0014267 4.49545805,13.15293 4.81332952,13.0014267 C5.5296094,12.6219891 5.13155735,11.9392053 4.97262162,11.4082645 C4.65403743,10.6493893 5.05244584,10.0423572 4.7335053,9.43600437 Z" id="Path"></path>
                                </g>
                                <g id="Group" transform="translate(7.857143, 0.000000)" fill="url(#linearGradient-4)">
                                    <path d="M11.0893226,21.0447914 C10.2553088,21.0447914 9.25516416,21.9131607 8.75453187,22.8603442 C8.75453187,22.3079383 8.67165314,21.7555324 8.67165314,21.2819407 C9.25516416,20.7295348 10.2553088,20.8083489 10.8388198,20.0191472 C11.4227041,19.2299454 10.6719423,18.5195578 9.83867517,18.9927961 C9.42166826,19.2299454 9.00466135,19.9399796 8.67165314,20.5715531 L8.67165314,18.2827619 C9.33878954,17.8091702 10.8388198,17.730356 10.8388198,16.6255442 C10.8388198,15.835989 10.0051793,15.3627507 9.42166826,16.0731383 C9.08828673,16.3883949 8.75453187,16.9411543 8.58765444,17.4935602 C8.58802776,16.8619867 8.50477571,16.3095808 8.42115033,15.6780073 C9.17116545,15.0464339 10.9224452,15.0464339 11.1722013,13.9416221 C11.3390787,13.0736061 10.1720567,12.9156244 9.58817237,13.3892162 C9.00466135,13.8631613 8.67165314,14.6520097 8.42115033,15.3627507 C8.33789828,14.889159 8.25464623,14.494028 8.17102085,14.0204362 C8.67165314,13.3892162 9.83867517,12.9156244 10.0051793,12.0476085 C10.1720567,11.1792392 9.33878954,10.2324091 8.50477571,11.1792392 C8.08814213,11.6531843 7.9212647,12.4420327 7.9212647,13.1524203 C7.75401394,12.679182 7.67113522,12.2055902 7.50463111,11.7316451 C7.58750984,11.416035 7.75401394,11.100425 8.00414342,10.7056474 C8.25464623,10.3112233 8.67165314,9.91679908 8.58765444,9.36439319 C8.42115033,8.49567042 7.75401394,9.04807632 7.50463111,9.60048221 C7.33738036,9.99561323 7.42100573,10.8636291 7.42100573,11.3372209 C7.2541283,10.7844616 6.75349601,9.67964979 6.50411319,9.12724389 C6.75349601,8.25922798 9.00466135,6.364861 7.17050292,6.364861 C6.42048781,6.364861 6.169985,7.86445038 6.25361038,8.73281972 C6.08673295,8.41650285 5.75335141,7.78563623 5.75335141,7.78563623 C5.92022884,7.07524861 7.0876242,4.70728989 5.92022884,4.70728989 C5.00296297,4.70728989 5.1698404,6.12806512 5.25346578,6.83809932 C5.25346578,6.91726689 5.25346578,7.07524861 5.33671783,7.15406276 C5.08658835,6.75928517 4.83645886,6.28569342 4.502704,5.89126925 C4.66995476,5.65411995 4.83645886,5.25969578 4.91933759,4.86527161 C5.00296297,4.62812231 5.1698404,3.44484981 4.41945195,3.91808812 C4.1696958,4.07571642 4.08607042,4.94443919 4.1696958,5.49684508 C3.91919299,5.18088163 3.75231556,4.94443919 3.5025594,4.62812231 C2.16828661,2.49731289 3.08555249,0.366503462 1.25139406,0.0508934413 C-0.749641791,-0.344237582 -0.41588693,3.04971878 3.00230044,4.39167987 C3.25205659,4.70728989 4.1696958,6.04925098 4.25294785,6.20687927 C3.33568197,5.25969578 1.41789817,3.44484981 0.834387152,4.62812231 C0.334128189,5.65411995 3.33568197,6.12806512 4.41945195,6.52284272 C4.75320681,7.07524861 5.50322193,8.41650285 5.58647398,8.574838 C5.1698404,8.1800604 4.75320681,7.62765451 4.25294785,7.39085864 C3.75231556,7.15406276 2.66854558,7.07524861 2.75179763,7.70682208 C2.83542301,8.65365215 4.25294785,8.65365215 4.91933759,8.73281972 C5.42034321,8.81163387 5.67009936,8.96926217 5.75335141,8.96926217 C6.08673295,9.67964979 6.42048781,10.3900374 6.67061729,11.1792392 C6.08673295,10.3112233 4.33582657,8.49567042 3.66906351,9.60048221 C2.83542301,11.0216109 5.67009936,10.8636291 6.75349601,11.416035 C7.00399882,12.2055902 7.2541283,12.9156244 7.42100573,13.7051796 C7.00399882,12.994792 6.67061729,12.284051 6.00385422,11.8104592 C5.33671783,11.3372209 4.25294785,11.1792392 4.33582657,12.3632185 C4.41945195,13.2315879 6.00385422,13.2315879 6.75349601,13.626012 C7.0876242,13.7839938 7.33738036,14.0204362 7.50463111,14.0996038 C7.67113522,14.8099914 7.75401394,15.5991932 7.83763932,16.3095808 C6.42048781,15.3627507 5.25346578,12.3632185 4.1696958,13.8631613 C3.25205659,15.2044156 6.33686243,15.2044156 7.83763932,16.5463767 C7.9212647,17.2564109 7.9212647,17.8879843 7.9212647,18.5983719 C7.75401394,18.045966 7.42100573,17.5723743 7.0876242,17.099136 C6.83712139,16.704005 5.67009936,15.6780073 5.1698404,16.5463767 C4.75320681,17.414746 6.42048781,17.9671519 6.92074677,18.2039478 C7.42100573,18.4403902 7.67113522,18.6775395 7.9212647,19.0719637 L7.9212647,21.4399224 C7.50463111,20.3347572 4.41945195,16.3883949 3.5025594,18.7563537 C2.91904839,20.255943 6.25361038,20.3347572 7.0876242,20.8083489 C7.58750984,21.123959 7.83763932,21.4399224 7.9212647,21.7555324 C7.9212647,22.1499566 7.9212647,22.5450876 8.00414342,22.8603442 C7.2541283,21.8343466 5.50322193,19.9399796 4.83645886,21.5187366 C4.00244504,23.4127501 6.67061729,22.7023625 7.17050292,22.9395118 C7.58750984,23.1763077 8.17102085,23.2551218 8.17102085,23.8075277 C8.25464623,24.2814729 8.33789828,24.675897 8.42115033,25.1494888 C8.50477571,25.4647454 9.00466135,25.3074705 8.9214093,24.9911536 C8.83815725,24.3599336 8.67165314,23.8075277 8.67165314,23.1763077 C9.42166826,22.7023625 11.0893226,22.5450876 11.5892082,22.1499566 C12.33997,21.6763649 12.0894672,20.9663307 11.0893226,21.0447914 Z" id="Path"></path>
                                </g>
                            </g>
                            <g id="Group-27" transform="translate(66.500000, 0.000000)">
                                <g id="Group" transform="translate(40.000000, 37.000000) scale(-1, 1) translate(-40.000000, -37.000000) translate(3.000000, 0.000000)" fill="#BF360C">
                                    <path d="M36.7820064,0.0318549391 C16.4885105,0.0318549391 0.0129703131,16.5855637 0.0129703131,36.9752586 C0.0129703131,57.3642296 16.4885105,73.9183003 36.7820064,73.9183003 C57.0755023,73.9183003 73.5517631,57.3645916 73.5517631,36.9752586 C73.5517631,16.5855637 57.0758626,0.0318549391 36.7820064,0.0318549391" id="Path"></path>
                                </g>
                                <g id="Group" fill="url(#linearGradient-5)">
                                    <ellipse id="Oval" cx="36.8047045" cy="36.9752586" rx="36.7693964" ry="36.9434037"></ellipse>
                                </g>
                                <g id="Group" transform="translate(35.710145, 14.575758)" fill="#AD1457">
                                    <path d="M4.41400973,0.0153733666 L4.32935749,0.0153733666 C2.05130521,0.0153733666 0.278520991,1.77393652 0.278520991,4.03457133 L0.0249421783,40.6265584 C0.0256980019,42.804327 1.79772639,44.6465063 4.0765345,44.6465063 L4.16080883,44.6465063 C6.43961693,44.6465063 8.21164533,42.8879432 8.21164533,40.6265584 L8.38019399,4.1185624 C8.46484623,1.85755264 6.60816559,0.0989894824 4.41400973,0.0153733666" id="Path"></path>
                                </g>
                                <g id="Group" transform="translate(32.362319, 14.575758)" fill="#FFFFFF">
                                    <path d="M4.30819443,0.0239974503 L4.2239201,0.0239974503 C1.94511199,0.0239974503 0.173083601,1.7825606 0.173083601,4.04319541 L0.00415702971,40.5523163 C0.00415702971,42.729335 1.77618542,44.5715143 4.05499353,44.5715143 C4.05499353,44.5715143 4.13964577,44.5715143 4.13964577,44.5715143 C6.41807596,44.5715143 8.19048227,42.8129511 8.19048227,40.5523163 L8.35903093,4.04319541 C8.2747566,1.86617672 6.50235029,0.107988526 4.30819443,0.0239974503" id="Path"></path>
                                </g>
                                <g id="Group" transform="translate(14.507246, 33.636364)" fill="#FFFFFF">
                                    <path d="M40.5853515,0.0941647318 L3.99491827,0.00911271598 C1.76499861,0.00911271598 0.029959113,1.87494131 0.029959113,4.07945919 C0.029959113,6.28397706 1.76499861,8.14942597 3.99491827,8.14942597 C3.99491827,8.14904627 40.5853515,8.23447798 40.5853515,8.23447798 C42.8156411,8.23447798 44.5499408,6.36864938 44.5499408,4.16413151 C44.5499408,1.95961363 42.7327912,0.0941647318 40.5853515,0.0941647318" id="Path"></path>
                                </g>
                            </g>
                            <g id="Group-28" transform="translate(60.500000, 49.000000)">
                                <g id="Group" transform="translate(65.807692, 12.375000)" fill="#3CB6D5">
                                    <path d="M9.37599981,13.7257506 C8.95780646,11.7900195 8.53886366,9.34887266 7.20034516,7.7500854 C7.03284299,8.67573875 6.78140236,9.68543961 6.61427491,10.6958943 C6.53071119,11.3694051 6.61427491,12.1265865 6.53071119,12.7156729 C5.86107721,10.1908554 5.10825424,8.08665236 3.76936102,5.89840182 C2.6815337,4.04671823 1.76083382,1.43747633 0.171249427,0.00640720964 C-0.164129648,2.11061024 0.087310977,4.71985214 0.338002151,6.82367827 C0.756944951,9.76986402 1.09119985,12.7997204 1.5093932,15.7459061 C2.09508872,20.2064547 3.26722922,24.4148608 4.60574772,28.7076913 C4.85718834,29.6333446 5.10825424,31.0640368 5.61001131,32.4110584 L10.3798887,32.4110584 C10.4638271,31.9056427 10.4638271,31.4850282 10.5477656,31.0640368 C11.0495227,28.118228 11.2170248,24.836229 10.7152678,21.8059958 C10.3798887,19.028282 9.96169533,16.3349925 9.37599981,13.7257506" id="Path"></path>
                                </g>
                                <g id="Group" transform="translate(53.538462, 41.625000)" fill="#143549">
                                    <polygon id="Path" points="0.118982753 2.08836161 18.2356521 2.08836161 18.9259839 0.0146438902 0.0324498417 0.0146438902"></polygon>
                                </g>
                                <g id="Group" transform="translate(63.576923, 29.250000)" fill="#FF9800">
                                    <polygon id="Path" points="0.0152837928 0.862441795 13.297232 0.862441795 13.3709929 0.0114293777 0.164134644 0.0114293777"></polygon>
                                </g>
                                <g id="Group" transform="translate(63.576923, 29.250000)" fill="#BF360C">
                                    <polygon id="Path" points="0.0232579455 0.338928672 13.3045416 0.338928672 13.3045416 0.00142867222 0.0976833711 0.00142867222"></polygon>
                                </g>
                                <g id="Group" transform="translate(63.576923, 25.875000)" fill="#FF9800">
                                    <path d="M0.0285740473,0.909587978 L13.236429,0.909587978 L13.3846154,0.0059528009 C13.3846154,0.0059528009 0.102999473,0.0059528009 0.102999473,0.0059528009 L0.0285740473,0.909587978 Z" id="Path"></path>
                                </g>
                                <g id="Group" transform="translate(63.576923, 25.875000)" fill="#BF360C">
                                    <path d="M0.00332256364,0.356787075 L13.2108453,0.356787075 L13.2849385,0.0192870749 C13.2849385,0.0192870749 0.0774157329,0.0192870749 0.0774157329,0.0192870749 L0.00332256364,0.356787075 Z" id="Path"></path>
                                </g>
                                <g id="Group" transform="translate(68.038462, 5.625000)" fill="#FF9800">
                                    <polygon id="Path" points="0.0115087484 32.6269141 0.867877669 32.6269141 3.30655195 0.00262884043 2.3837864 0.00262884043"></polygon>
                                </g>
                                <g id="Group" transform="translate(70.269231, 5.625000)" fill="#FF9800">
                                    <polygon id="Path" points="0.0299030728 32.6269141 1.01387155 32.6269141 3.61480935 0.00262884043 2.63084087 0.00262884043"></polygon>
                                </g>
                                <g id="Group" transform="translate(55.769231, 6.750000)" fill="#BF360C">
                                    <path d="M3.2990329,31.1821787 C3.13056843,33.0500914 -1.34053902,34.5929283 0.430604248,34.5929283 L18.0604487,34.5929283 C19.8319697,34.5929283 21.350794,33.0500914 21.5188807,31.1821787 L26.1584526,0.000363619366 C26.1588304,0.000363619366 4.7328695,0.000363619366 4.7328695,0.000363619366 L3.2990329,31.1821787 Z M6.92592938,29.5582546 L9.45667365,3.41111327 C9.54090588,2.84241258 9.96244478,2.43661337 10.4685936,2.43661337 L19.9162019,2.43661337 C20.4223508,2.43661337 20.7600352,2.84241258 20.7600352,3.41111327 L18.2292909,29.5582546 C18.1446809,30.1269553 17.723142,30.5327545 17.2169932,30.5327545 L7.85437258,30.5327545 C7.26361377,30.5327545 6.92592938,30.0455046 6.92592938,29.5582546" id="Shape"></path>
                                </g>
                                <g id="Group" transform="translate(60.230769, 4.500000)" fill="#FF9800">
                                    <path d="M24.7442576,0.00293354029 L0.704075718,0.00330023282 C0.704075718,0.00293354029 0.0290846729,6.63640151 0.0290846729,6.63640151 C-0.0551475616,7.20990864 0.366769057,7.61913751 0.87291791,7.61913751 L24.5757932,7.61913751 C25.081942,7.61913751 25.5034809,7.20990864 25.5880909,6.63640151 L26.093862,1.47740423 C26.178472,0.658213101 25.5880909,0.00330023282 24.7442576,0.00293354029" id="Path"></path>
                                </g>
                                <g id="Group" transform="translate(14.500000, 29.250000)" fill="#FF9800">
                                    <polygon id="Path" points="0.0946406023 0.871013828 45.4063384 0.871013828 45.4063384 0.0202395231 0.0143394852 0.0202395231"></polygon>
                                </g>
                                <g id="Group" transform="translate(36.829153, 30.308310) scale(-1, 1) rotate(179.999846) translate(-36.829153, -30.308310) translate(13.329153, 29.808310)" fill="#BF360C">
                                    <rect id="Rectangle" x="0.557092916" y="0.0114008165" width="45.7296136" height="1"></rect>
                                </g>
                                <g id="Group" transform="translate(15.615385, 25.875000)" fill="#FF9800">
                                    <polygon id="Path" points="0.103882479 0.913159659 45.3927434 0.913159659 45.3927434 0.00904825737 0.0248183398 0.00904825737"></polygon>
                                </g>
                                <g id="Group" transform="translate(15.615385, 25.875000)" fill="#BF360C">
                                    <rect id="Rectangle" x="0.0329729371" y="0.0223825314" width="45.2892155" height="1"></rect>
                                </g>
                                <g id="Group" transform="translate(18.127963, 23.997136) scale(-1, 1) rotate(92.495315) translate(-18.127963, -23.997136) translate(1.627963, 22.997136)" fill="#FF9800">
                                    <polygon id="Path" points="0.534248861 0.0222262623 32.074328 0.0222262623 32.119914 1.08489948 0.583452788 1.16658721"></polygon>
                                </g>
                                <g id="Group" transform="translate(21.400980, 24.024436) scale(-1, 1) rotate(92.055113) translate(-21.400980, -24.024436) translate(5.400980, 23.024436)" fill="#FF9800">
                                    <path d="M0.027468261,0.0207039552 L31.5577787,0.0207039552 L31.5954052,1.08374347 C31.5954052,1.08410978 0.0679891419,1.16469858 0.0679891419,1.16469858 L0.027468261,0.0207039552 Z" id="Path"></path>
                                </g>
                                <g id="Group" transform="translate(25.154487, 24.037796) scale(-1, 1) rotate(91.614694) translate(-25.154487, -24.037796) translate(9.154487, 23.037796)" fill="#FF9800">
                                    <polygon id="Path" points="0.025330034 0.0228557546 31.5480388 0.0228557546 31.5777059 1.08589514 0.0575296585 1.16758286"></polygon>
                                </g>
                                <g id="Group" transform="translate(47.961538, 5.625000)" fill="#FF9800">
                                    <polygon id="Path" points="0.0116858061 32.4472955 1.03968263 32.4472955 1.90938989 0.0223379045 0.802425351 0.0223379045"></polygon>
                                </g>
                                <g id="Group" transform="translate(52.423077, 5.625000)" fill="#FF9800">
                                    <path d="M0.0208928048,32.4472955 L0.969921905,32.4472955 C0.969921905,32.4472955 2.07688654,0.0223379045 2.07688654,0.0223379045 C2.07724056,0.0223379045 1.04924374,0.0223379045 1.04924374,0.0223379045 L0.0208928048,32.4472955 Z" id="Path"></path>
                                </g>
                                <g id="Group" transform="translate(53.538462, 5.625000)" fill="#FF9800">
                                    <path d="M0.0138498442,32.4472955 L0.927624795,32.4472955 C0.928254334,32.4472955 2.1228034,0.0223379045 2.1228034,0.0223379045 L1.13883492,0.0223379045 L0.0138498442,32.4472955 Z" id="Path"></path>
                                </g>
                                <g id="Group" transform="translate(28.427249, 24.058143) scale(-1, 1) rotate(91.173597) translate(-28.427249, -24.058143) translate(12.427249, 23.058143)" fill="#FF9800">
                                    <polygon id="Path" points="0.015777013 0.0208038694 31.5323256 0.0208038694 31.5540332 1.08457555 0.0389317921 1.16553063"></polygon>
                                </g>
                                <g id="Group" transform="translate(31.651031, 24.057894) scale(-1, 1) rotate(90.881215) translate(-31.651031, -24.057894) translate(15.651031, 23.057894)" fill="#FF9800">
                                    <path d="M0.0227335453,0.0279154466 L31.5367654,0.0279154466 L31.5515989,1.0096336 C31.5515989,1.0096336 0.0400996382,1.17300909 0.0400996382,1.17300909 L0.0227335453,0.0279154466 Z" id="Path"></path>
                                </g>
                                <g id="Group" transform="translate(34.887033, 24.079088) scale(-1, 1) rotate(90.292956) translate(-34.887033, -24.079088) translate(18.887033, 23.079088)" fill="#FF9800">
                                    <polygon id="Path" points="0.0131255737 0.0217175184 31.5238949 0.0217175184 31.52896 1.0851232 0.0189142702 1.16681093"></polygon>
                                </g>
                                <g id="Group" transform="translate(37.923077, 5.625000)" fill="#FF9800">
                                    <polygon id="Path" points="0.0099152294 32.4472955 0.642365219 32.4472955 0.748127666 0.0223379045 0.00967915251 0.0223379045"></polygon>
                                </g>
                                <g id="Group" transform="translate(40.153846, 5.625000)" fill="#FF9800">
                                    <polygon id="Path" points="0.00637407604 32.4472955 0.691469212 32.4472955 0.955403176 0.0223379045 0.217426816 0.0223379045"></polygon>
                                </g>
                                <g id="Group" transform="translate(46.846154, 5.625000)" fill="#FF9800">
                                    <polygon id="Path" points="0 32.4472955 0.632686067 32.4472955 1.05455547 0.0223379045 0.36898818 0.0223379045"></polygon>
                                </g>
                                <g id="Group" transform="translate(18.301565, 27.558955) scale(-1, 1) rotate(92.863315) translate(-18.301565, -27.558955) translate(17.301565, 26.558955)" fill="#FF9800">
                                    <path d="M0.0283884221,0.0137873245 L1.64632971,0.0137873245 C1.64632971,0.0137873245 1.69878979,1.07572817 1.69878979,1.07572817 L0.0804867105,1.07572817 L0.0283884221,0.0137873245 Z" id="Path"></path>
                                </g>
                                <g id="Group" transform="translate(21.532987, 27.542610) scale(-1, 1) rotate(92.863444) translate(-21.532987, -27.542610) translate(20.032987, 26.542610)" fill="#FF9800">
                                    <polygon id="Path" points="0.538998427 0.0134490491 2.15693828 0.0134490491 2.20939831 1.07538895 0.591458462 1.07502263"></polygon>
                                </g>
                                <g id="Group" transform="translate(23.918269, 26.879808) scale(-1, 1) rotate(90.000000) translate(-23.918269, -26.879808) translate(22.918269, 26.379808)" fill="#FF9800">
                                    <rect id="Rectangle" x="0.0210108433" y="0.00714336108" width="1.05441382" height="1"></rect>
                                </g>
                                <g id="Group" transform="translate(50.192308, 25.875000)" fill="#FF9800">
                                    <polygon id="Path" points="0.00613799915 1.07483773 0.691469212 1.07483773 0.744114359 0.0114293777 0.00613799915 0.0114293777"></polygon>
                                </g>
                                <g id="Group" transform="translate(52.423077, 25.875000)" fill="#FF9800">
                                    <polygon id="Path" points="0.0122759983 1.07483773 0.750488435 1.07483773 0.750488435 0.0114293777 0.0651572218 0.0114293777"></polygon>
                                </g>
                                <g id="Group" transform="translate(54.653846, 25.875000)" fill="#FF9800">
                                    <polygon id="Path" points="0.0198304588 1.07483773 0.705397749 1.07483773 0.757806819 0.0114293777 0.0727116823 0.0114293777"></polygon>
                                </g>
                                <g id="Group" transform="translate(28.477136, 27.540135) scale(-1, 1) rotate(92.853970) translate(-28.477136, -27.540135) translate(26.977136, 26.540135)" fill="#FF9800">
                                    <path d="M0.541848665,0.0134254771 L2.15978974,0.0134254771 C2.15978974,0.0137917898 2.21188802,1.07536618 2.21188802,1.07536618 L0.59828847,1.15705392 L0.541848665,0.0134254771 Z" id="Path"></path>
                                </g>
                                <g id="Group" transform="translate(31.709592, 27.569159) scale(-1, 1) rotate(92.853970) translate(-31.709592, -27.569159) translate(30.709592, 26.569159)" fill="#FF9800">
                                    <polygon id="Path" points="0.0185768326 0.0140333317 1.63651791 0.0140333317 1.68861619 1.07597403 0.0746548439 1.15766178"></polygon>
                                </g>
                                <g id="Group" transform="translate(35.072115, 26.879808) scale(-1, 1) rotate(90.000000) translate(-35.072115, -26.879808) translate(34.072115, 26.379808)" fill="#FF9800">
                                    <rect id="Rectangle" x="0.0179418437" y="0.00452412869" width="1.05441382" height="1"></rect>
                                </g>
                                <g id="Group" transform="translate(37.923077, 25.875000)" fill="#FF9800">
                                    <rect id="Rectangle" x="0.0099152294" y="0.0114293777" width="1" height="1.0635036"></rect>
                                </g>
                                <g id="Group" transform="translate(42.384615, 25.875000)" fill="#FF9800">
                                    <rect id="Rectangle" x="0.0174696899" y="0.0114293777" width="1" height="1.0635036"></rect>
                                </g>
                                <g id="Group" transform="translate(46.846154, 25.875000)" fill="#FF9800">
                                    <polygon id="Path" points="0.010859537 1.07483773 0.696662904 1.07483773 0.749071974 0.0114293777 0.010859537 0.0114293777"></polygon>
                                </g>
                                <g id="Group" transform="translate(17.517945, 10.375221) scale(-1, 1) rotate(92.196205) translate(-17.517945, -10.375221) translate(15.017945, 9.375221)" fill="#FF9800">
                                    <path d="M0.00772074003,0.0327680713 L4.21212114,0.0327680713 C4.21212114,0.0331343838 4.25553634,1.17712825 4.25553634,1.17712825 C4.25553634,1.17749456 0.0511359408,1.17712825 0.0511359408,1.17712825 L0.00772074003,0.0327680713 Z" id="Path"></path>
                                </g>
                                <g id="Group" transform="translate(20.906166, 10.349167) scale(-1, 1) rotate(92.199656) translate(-20.906166, -10.349167) translate(18.406166, 9.349167)" fill="#FF9800">
                                    <polygon id="Path" points="0.033746511 0.0371223015 4.23814821 0.0371223015 4.27830729 1.09942882 0.0771617252 1.18111652"></polygon>
                                </g>
                                <g id="Group" transform="translate(24.785587, 10.378402) scale(-1, 1) rotate(92.196159) translate(-24.785587, -10.378402) translate(22.285587, 9.378402)" fill="#FF9800">
                                    <polygon id="Path" points="0.00482670166 0.0371635243 4.20922697 0.0371635243 4.24938603 1.09983599 0.0482419011 1.18115736"></polygon>
                                </g>
                                <g id="Group" transform="translate(50.192308, 9.000000)" fill="#FF9800">
                                    <polygon id="Path" points="0.0101513063 3.69994356 0.748363743 3.69994356 0.800772813 0.013334274 0.0627964529 0.013334274"></polygon>
                                </g>
                                <g id="Group" transform="translate(52.423077, 9.000000)" fill="#FF9800">
                                    <path d="M0.00377723025,3.69994356 L0.74175359,3.69994356 L0.794398798,0.013334274 C0.794634813,0.013334274 0.1093036,0.013334274 0.1093036,0.013334274 L0.00377723025,3.69994356 Z" id="Path"></path>
                                </g>
                                <g id="Group" transform="translate(54.653846, 9.000000)" fill="#FF9800">
                                    <polygon id="Path" points="0.0167614592 3.69994356 0.754737819 3.69994356 0.860264189 0.013334274 0.122287829 0.013334274"></polygon>
                                </g>
                                <g id="Group" transform="translate(28.136753, 10.394423) scale(-1, 1) rotate(91.091378) translate(-28.136753, -10.394423) translate(25.636753, 9.394423)" fill="#FF9800">
                                    <path d="M0.00842766212,0.0317544589 L4.21066095,0.0317544589 C4.21066095,0.0317544589 4.23200677,1.17648195 4.23200677,1.17648195 C4.23200677,1.17721457 0.0301352813,1.17648195 0.0301352813,1.17648195 L0.00842766212,0.0317544589 Z" id="Path"></path>
                                </g>
                                <g id="Group" transform="translate(31.448727, 10.373956) scale(-1, 1) rotate(91.102129) translate(-31.448727, -10.373956) translate(28.948727, 9.373956)" fill="#FF9800">
                                    <polygon id="Path" points="0.0286155156 0.0317945619 4.23048529 0.0317945619 4.2521929 1.17688789 0.0503231259 1.17688789"></polygon>
                                </g>
                                <g id="Group" transform="translate(33.399038, 11.581731) scale(-1, 1) rotate(90.000000) translate(-33.399038, -11.581731) translate(31.399038, 11.081731)" fill="#FF9800">
                                    <rect id="Rectangle" x="0.025181535" y="0.0202395231" width="3.65519423" height="1"></rect>
                                </g>
                                <g id="Group" transform="translate(37.923077, 9.000000)" fill="#FF9800">
                                    <rect id="Rectangle" x="0.0099152294" y="0.013334274" width="1" height="3.68670453"></rect>
                                </g>
                                <g id="Group" transform="translate(42.384615, 9.000000)" fill="#FF9800">
                                    <polygon id="Path" points="0.0228994584 3.69994356 0.761111895 3.69994356 0.813757042 0.013334274 0.0757806819 0.013334274"></polygon>
                                </g>
                                <g id="Group" transform="translate(46.846154, 9.000000)" fill="#FF9800">
                                    <polygon id="Path" points="0.00944307562 3.69994356 0.694774289 3.69994356 0.747655512 0.013334274 0.0620882222 0.013334274"></polygon>
                                </g>
                                <g id="Group" transform="translate(10.038462, 6.750000)" fill="#FF9800">
                                    <path d="M3.2045287,31.3447165 C3.2847942,33.1311785 4.64464955,34.5114776 6.16467759,34.5114776 L48.4165837,34.5114776 C49.9369701,34.5114776 51.2968255,33.1315421 51.377091,31.3447165 L54.5776781,0.000363619366 L0.00358328156,0.000363619366 L3.2045287,31.3447165 Z M5.76550003,2.51770049 L48.7365708,2.51770049 C49.2167305,2.51770049 49.5367176,3.00495044 49.5367176,3.5732875 L48.2564111,29.8018796 C48.2564111,30.2891295 47.8565168,30.6952924 47.3759988,30.6952924 L7.0454482,30.6952924 C6.56600513,30.6952924 6.2449431,30.2891295 6.16467759,29.8018796 C6.16539425,29.8018796 4.88508775,3.5732875 4.88508775,3.5732875 C4.96535325,3.00495044 5.28498197,2.51770049 5.76550003,2.51770049" id="Shape"></path>
                                </g>
                                <g id="Group" transform="translate(18.438284, 32.173526) scale(-1, 1) rotate(92.498797) translate(-18.438284, -32.173526) translate(17.438284, 31.173526)" fill="#FF9800">
                                    <polygon id="Path" points="0.00567415989 0.0291936153 1.86529252 0.0291936153 1.91485822 1.17355416 0.0548780698 1.17355416"></polygon>
                                </g>
                                <g id="Group" transform="translate(21.670032, 32.164929) scale(-1, 1) rotate(92.490556) translate(-21.670032, -32.164929) translate(20.670032, 31.164929)" fill="#FF9800">
                                    <polygon id="Path" points="0.0146334531 0.0335869189 1.87461312 0.0335869189 1.92019909 1.09589317 0.0602194165 1.09589317"></polygon>
                                </g>
                                <g id="Group" transform="translate(25.387091, 32.174847) scale(-1, 1) rotate(92.490888) translate(-25.387091, -32.174847) translate(24.387091, 31.174847)" fill="#FF9800">
                                    <path d="M0.00486031799,0.0337440265 L1.86447866,0.0337440265 C1.86447866,0.0337440265 1.91006464,1.09605054 1.91006464,1.09605054 L0.050446293,1.09641686 L0.00486031799,0.0337440265 Z" id="Path"></path>
                                </g>
                                <g id="Group" transform="translate(50.192308, 32.625000)" fill="#FF9800">
                                    <polygon id="Path" points="0.0188861512 1.86048839 0.704217364 1.86048839 0.757098588 0.026073268 0.0715312978 0.026073268"></polygon>
                                </g>
                                <g id="Group" transform="translate(52.423077, 32.625000)" fill="#FF9800">
                                    <polygon id="Path" points="0.00141646134 1.86048839 0.686511598 1.86048839 0.739392821 0.026073268 0.0540616079 0.026073268"></polygon>
                                </g>
                                <g id="Group" transform="translate(53.538462, 32.625000)" fill="#FF9800">
                                    <path d="M0.00920699873,1.86048839 L0.694302135,1.86048839 C0.694538212,1.86048839 0.747183358,0.026073268 0.747183358,0.026073268 L0.0613799915,0.026073268 L0.00920699873,1.86048839 Z" id="Path"></path>
                                </g>
                                <g id="Group" transform="translate(27.822115, 33.072115) scale(-1, 1) rotate(90.000000) translate(-27.822115, -33.072115) translate(26.822115, 32.572115)" fill="#FF9800">
                                    <rect id="Rectangle" x="0.00389526869" y="0.0211919712" width="1.8185239" height="1"></rect>
                                </g>
                                <g id="Group" transform="translate(32.283654, 33.072115) scale(-1, 1) rotate(90.000000) translate(-32.283654, -33.072115) translate(31.283654, 32.572115)" fill="#FF9800">
                                    <path d="M0.0113316907,0.0183346268 L1.82971394,0.0183346268 L1.82971394,0.762911759 C1.82971394,0.763149076 0.0113316907,0.70981198 0.0113316907,0.70981198 L0.0113316907,0.0183346268 Z" id="Path"></path>
                                </g>
                                <g id="Group" transform="translate(35.629808, 33.072115) scale(-1, 1) rotate(90.000000) translate(-35.629808, -33.072115) translate(34.629808, 32.572115)" fill="#FF9800">
                                    <rect id="Rectangle" x="0.0184139975" y="0.0211919712" width="1.8185239" height="1"></rect>
                                </g>
                                <g id="Group" transform="translate(37.923077, 32.625000)" fill="#FF9800">
                                    <rect id="Rectangle" x="0.0099152294" y="0.026073268" width="1" height="1.83420083"></rect>
                                </g>
                                <g id="Group" transform="translate(42.384615, 32.625000)" fill="#FF9800">
                                    <rect id="Rectangle" x="0.0122759983" y="0.026073268" width="1" height="1.83420083"></rect>
                                </g>
                                <g id="Group" transform="translate(46.846154, 32.625000)" fill="#FF9800">
                                    <polygon id="Path" points="0.00566584537 1.86048839 0.690997059 1.86048839 0.743878282 0.026073268 0.00566584537 0.026073268"></polygon>
                                </g>
                                <g id="Group" transform="translate(16.730769, 41.625000)" fill="#006064">
                                    <polygon id="Path" points="0.339459682 1.92906466 13.3207424 1.92906466 13.6419014 0.892205799 28.3061291 0.892205799 28.7069499 1.92906466 41.6089297 1.92906466 41.929371 0.0146438902 0.0186595174 0.0146438902"></polygon>
                                </g>
                                <g id="Group" transform="translate(7.807692, 3.375000)" fill="#FFE0B2">
                                    <path d="M57.0573118,0.0121913362 L1.607863,0.0121913362 C0.729155493,0.0121913362 0.00966005806,0.777959644 0.00966005806,1.71440666 L0.00966005806,6.81876676 C0.00966005806,7.41461832 0.408942458,7.83979117 0.888367561,7.83979117 C0.888367561,7.83979117 47.0169337,7.83979117 56.0186767,7.83979117 L57.5367369,7.83979117 C57.7542671,7.83979117 57.9549816,7.75254692 58.1095426,7.60167913 L58.1095426,7.60167913 C58.1149093,7.59634542 58.120276,7.59101171 58.1256427,7.585678 L58.1256427,7.585678 C58.1306516,7.58034429 58.1360183,7.57501058 58.1410272,7.56929589 L58.1410272,7.56929589 C58.1460361,7.56396218 58.151045,7.5582475 58.156054,7.55253281 L58.156054,7.55253281 C58.1610629,7.5471991 58.1660718,7.54148441 58.1710807,7.53538874 L58.1710807,7.53538874 C58.1757319,7.52967405 58.1807408,7.52395936 58.1853919,7.51786369 L58.1853919,7.51786369 C58.1900431,7.51214901 58.1946942,7.50605334 58.1993453,7.49995767 L58.1993453,7.49995767 C58.2039965,7.493862 58.2086476,7.48776633 58.2132987,7.48128969 C58.2175921,7.47519402 58.2222432,7.46909835 58.2265366,7.4626217 L58.2265366,7.4626217 C58.23083,7.45614505 58.2351233,7.44966841 58.2394167,7.44319176 C58.24371,7.43671511 58.2480034,7.43023846 58.251939,7.42376182 L58.251939,7.42376182 C58.2562323,7.41690419 58.2601679,7.41042754 58.2641035,7.40356992 L58.2641035,7.40356992 C58.2680391,7.39709327 58.2719747,7.39023564 58.2759102,7.38337802 C58.2798458,7.37652039 58.2834236,7.36928178 58.2873592,7.36242416 L58.2873592,7.36242416 C58.290937,7.35556653 58.2945148,7.34832792 58.2980926,7.34108932 C58.3016704,7.33423169 58.3052482,7.32699309 58.3084682,7.31975448 C58.312046,7.31251587 58.315266,7.30489629 58.318486,7.29765768 C58.3217061,7.29041908 58.3249261,7.28279949 58.3281461,7.27556089 C58.3313661,7.2679413 58.3342284,7.26032172 58.3370906,7.25270213 C58.3403106,7.24508255 58.3431729,7.23746296 58.3460351,7.22984338 C58.3485396,7.22184281 58.3514018,7.21422323 58.354264,7.20622266 C58.3567685,7.19860308 58.359273,7.19060251 58.3617774,7.18260195 C58.3642819,7.17460138 58.3667863,7.16660082 58.368933,7.15860025 C58.3714375,7.15059969 58.3735842,7.14259913 58.3757308,7.13421758 C58.3778775,7.12621702 58.3800242,7.11783547 58.3818131,7.10983491 C58.3839598,7.10145337 58.3861065,7.09307182 58.3878954,7.08469028 C58.3896843,7.07630873 58.3914732,7.06792719 58.3929043,7.05954565 C58.3946932,7.05078312 58.3961243,7.04240158 58.3975554,7.03363906 C58.3993443,7.02525751 58.4004177,7.01649499 58.4018488,7.00811345 C58.4032799,6.99935092 58.4043532,6.9905884 58.4054266,6.98182588 C58.4064999,6.97306336 58.4075733,6.96430083 58.4086466,6.95515733 C58.4097199,6.94639481 58.4104355,6.93763228 58.411151,6.92848878 C58.4118666,6.91972626 58.4125822,6.91058276 58.4132977,6.90143925 C58.4136555,6.89229575 58.4143711,6.88353323 58.4147288,6.87438973 C58.4150866,6.86524623 58.4158022,6.85610272 58.4158022,6.84657824 C58.4158022,6.83743474 58.4158022,6.82829124 58.4158022,6.81876676 L58.4158022,1.3738112 C58.4158022,0.608042895 57.8565922,0.0121913362 57.0573118,0.0121913362" id="Path"></path>
                                </g>
                                <g id="Group" fill="#B2EBF2">
                                    <path d="M74.1998024,0.488311505 L61.6769187,12.2292956 C60.2314866,14.0080878 58.0642373,15.0755224 55.8966285,15.0755224 C55.8966285,15.0751241 3.07527255,15.0755224 3.07527255,15.0755224 C3.07527255,15.0751241 7.08876386,10.1832465 7.08876386,10.1832465 C6.92843989,10.0056063 6.8482779,9.73874764 6.8482779,9.47228729 L6.8482779,6.18116333 C6.8482779,6.18076504 0.586296848,13.8300493 0.586296848,13.8300493 C0.0244440133,14.5418051 -0.136239427,15.6092397 0.185127454,16.4986358 C0.58701579,17.3884302 1.30919259,17.9221475 2.19205284,17.9221475 L55.8966285,17.9221475 C58.7867736,17.9221475 61.6769187,16.5874559 63.6033226,14.0969079 C63.6033226,14.0969079 76.1269252,2.35592378 76.1269252,2.35592378 C76.6078971,1.73338635 76.5280946,0.843990277 76.0460443,0.310272971 C75.4841915,-0.134225919 74.6811337,-0.0454058006 74.1998024,0.488311505" id="Path"></path>
                                </g>
                                <g id="Group" fill="#00BCD4">
                                    <path d="M74.1998024,0.49229447 L61.6769187,12.2332786 C60.2314866,14.0128673 58.0642373,15.0799037 55.8966285,15.0799037 L3.07527255,15.0799037 L7.08876386,10.1880261 C6.92843989,10.0099876 6.8482779,9.7431289 6.8482779,9.47627025 L6.8482779,6.1851463 L0.586296848,13.8348288 C0.0244440133,14.5461864 -0.136239427,15.613621 0.185127454,16.5026188 C0.58701579,17.3924131 1.30919259,17.9261304 2.19205284,17.9261304 L55.8966285,17.9261304 C58.7867736,17.9261304 61.6769187,16.5918372 63.6033226,14.1012892 C63.6033226,14.1012892 76.1269252,2.36030504 76.1269252,2.36030504 C76.6078971,1.73776762 76.5280946,0.848371538 76.0460443,0.315052529 C75.4841915,-0.130242954 74.6811337,-0.0410245392 74.1998024,0.49229447" id="Path"></path>
                                </g>
                            </g>
                            <g id="Group-24" transform="translate(25.500000, 21.000000)">
                                <g id="Group" transform="translate(1.127660, 2.938829)" fill="#212121">
                                    <path d="M10.4826037,0.0172702647 L2.5676651,0.0172702647 C2.72698063,1.59514445 1.12809715,3.43560516 0.408850187,4.75050032 C-0.390949566,6.06539548 -0.550623107,10.8861544 6.48503703,10.8861544 C13.5206972,10.8861544 13.3606656,6.15331682 12.7208974,4.75050032 C12.0818452,3.34807632 10.3225722,1.59514445 10.4826037,0.0172702647" id="Path"></path>
                                </g>
                                <g id="Group" transform="translate(1.127660, 2.938829)" fill="#212121">
                                    <path d="M10.6258087,0.00785012034 L9.34663033,0.00785012034 C10.9455138,3.25151984 9.18659878,7.54632068 9.18659878,7.54632068 C9.18659878,7.54632068 8.30696225,5.44248843 7.98725716,5.88091765 C6.628242,7.9847499 4.06952721,9.3871739 1.75103876,7.72137836 C0.631533914,6.93283377 0.552055156,5.44248843 0.711728697,4.30304346 C0.631533914,4.47849365 0.471860374,4.65355133 0.392023603,4.82900152 C-0.407418137,6.14350417 -0.567449691,10.9646556 6.46821045,10.9646556 C13.5038706,10.9646556 13.344197,6.23142552 12.7044288,4.82900152 C12.2250502,3.33865618 10.4657772,1.58572431 10.6258087,0.00785012034" id="Path"></path>
                                </g>
                                <g id="Group" transform="translate(2.255319, 36.319111)" fill="#FFF3E0">
                                    <path d="M9.45550589,34.1322846 C9.27769305,33.7221846 8.92246517,33.3120847 8.65594481,32.3285057 C7.67857089,29.2129209 8.65594481,26.6711824 7.76767621,22.4897783 C7.59026116,21.6695785 7.14592797,20.931986 7.2342377,20.0299129 C7.2342377,19.1282071 7.41205053,18.4721206 7.32334301,17.8160341 C7.2342377,17.1603147 7.05682265,16.5042283 6.96811513,15.7666358 C6.61248945,11.8312183 6.70159477,6.99372776 6.87900981,3.22242367 C6.87900981,3.22205653 0.0385857834,0.0242315099 0.0385857834,0.0242315099 C0.128088889,3.95964901 1.81552078,13.6346301 1.90462609,14.04473 C2.70418717,17.6522878 2.3485615,18.226134 2.79329248,21.3417188 C3.23722789,24.6214169 5.4573027,29.704894 6.43507441,33.1483384 C6.7899045,34.2960308 7.14592797,39.7077347 7.05682265,40.6913137 C7.05682265,41.2651599 6.61248945,42.2491061 7.50075806,42.2491061 C8.30071693,42.2491061 10.3433767,41.4292734 10.6102948,40.6094406 C10.8768152,39.7077347 10.0772541,38.1495752 9.81033598,36.673656 C9.45550589,35.4440904 9.63331872,34.7064979 9.45550589,34.1322846" id="Path"></path>
                                </g>
                                <g id="Group" transform="translate(3.382979, 36.319111)" fill="#FFF3E0">
                                    <path d="M7.57599039,32.6648096 C6.76683756,30.5331711 6.22673107,26.1880208 4.96769088,22.5800958 C3.88828342,19.3826379 3.07832507,16.1029398 3.88828342,12.8236088 C4.78805815,9.29792407 4.06831892,5.77223938 4.78765538,2.24692183 C4.78805815,2.24692183 0.0205409628,0.032675824 0.0205409628,0.032675824 C0.110760093,3.96882761 1.81928488,13.6438087 1.90950401,14.0535415 C2.7190596,17.6610993 2.35898861,18.2349455 2.80887597,21.3505302 C3.25836057,24.6298612 5.50739461,29.7129712 6.49658293,33.1567827 C6.85625116,34.3044751 7.21632216,39.716179 7.12610303,40.699758 C7.12610303,41.2736043 6.67661843,42.2575504 7.57599039,42.2575504 C7.93565862,42.2575504 10.7239936,40.6178849 9.19510157,38.3221329 C7.84624502,35.8626347 8.65539784,35.3710287 7.57599039,32.6648096" id="Path"></path>
                                </g>
                                <g id="Group" transform="translate(9.021277, 75.262773)" fill="#006064">
                                    <path d="M3.75304134,0.0354825439 C3.64377497,0.596609145 3.42573002,1.22744482 2.88134935,1.64852527 C2.00965736,2.34938401 0.375539751,2.06897772 0.1579826,1.50816512 L0.1579826,2.34938401 C0.1579826,2.84017354 -0.386885868,3.68170644 0.702363273,3.68170644 C1.68332164,3.68170644 4.18815564,2.98053369 4.51546696,2.27936094 C4.62424554,1.78825741 4.18815564,0.947038517 3.75304134,0.0354825439 C3.75304134,-0.0348545343 3.75304134,0.0354825439 3.75304134,0.0354825439" id="Path"></path>
                                </g>
                                <g id="Group" transform="translate(0.127660, 8.389534)" fill="#FFF3E0">
                                    <path d="M9.54877073,4.2458834 C7.79005194,4.7779344 8.17220345,2.56118759 7.943118,0.610466276 C7.943118,0.610466276 5.57213497,1.58562841 5.57213497,1.58562841 C5.87826709,3.4478069 6.10735254,4.7779344 4.80714708,5.3099854 C4.04284406,5.66455372 2.81934285,6.01912203 2.20742103,6.19660471 C1.06028163,6.55117303 0.601768305,15.0631949 0.372340426,17.6349071 L2.43719134,18.6104663 C2.8960471,16.7482878 3.66035012,14.7086266 3.66035012,12.4922768 L13.3723404,7.17176684 C12.6843992,3.97946085 11.6139641,3.53634972 9.54877073,4.2458834" id="Path"></path>
                                </g>
                                <g id="Group" transform="translate(15.500000, 18.000000) scale(-1, 1) rotate(40.380912) translate(-15.500000, -18.000000) translate(12.500000, 13.000000)" fill="#FFF3E0">
                                    <path d="M3.05229329,0.0210625801 C3.05229329,0.0210625801 5.33582663,7.55037582 5.41702868,9.39375691 L3.05229329,9.2618798 C2.64116219,7.90869027 0.539053254,3.83789036 0.0181896514,0.983692995 L3.05229329,0.0210625801" id="Path"></path>
                                </g>
                                <g id="Group" transform="translate(13.531915, 14.065590)" fill="#F0BF97">
                                    <path d="M3.93527255,8.41807654 C3.21566758,6.9281237 3.37534113,4.64923377 3.45589392,4.38625474 C3.61556746,3.86029667 4.25497765,2.72085171 4.09566212,2.1073648 C3.69540423,0.529098111 1.77681566,1.23050636 1.45711056,0.0910613959 L1.45711056,0.00353255415 L0.0179006212,0.617019458 C0.0179006212,0.617019458 3.1354728,8.41807654 4.25497765,9.99595073 L5.21480895,9.03156345 C4.97458262,8.85689827 4.09566212,8.68144808 3.93527255,8.41807654" id="Path"></path>
                                </g>
                                <g id="Group" transform="translate(5.638298, 9.614886)" fill="#FFF3E0">
                                    <path d="M4.54275599,2.8897863 C2.54055958,3.31055275 2.97561628,1.55746387 2.71481616,0.0147582262 C2.71481616,0.0147582262 0.01559343,0.785954048 0.01559343,0.785954048 C0.102916638,1.06667435 0.102916638,1.34676664 0.18985001,1.62748695 C0.886486495,2.53904292 2.36591316,3.87136534 3.67186293,3.80134227 C4.36888925,3.73100519 4.97820252,3.10016952 5.76177238,3.03014645 C6.28415228,2.95980937 6.8938554,3.03014645 7.50316867,3.16987859 C6.80614235,2.53904292 5.84831592,2.60938 4.54275599,2.8897863" id="Path"></path>
                                </g>
                                <g id="Group" transform="translate(3.510638, 1.826153)" fill="#FFF3E0">
                                    <path d="M5.62031769,0.389758475 C4.96748204,0.0392506017 4.12794291,-0.0486707461 3.10211798,0.0392506017 C0.677478842,0.389758475 -0.0689173914,2.23021919 0.0238078261,4.15860125 L0.0238078261,4.50950163 C0.0238078261,4.94793085 0.0238078261,5.4734964 0.116950725,5.91192562 C0.210511305,6.52541253 0.303654204,7.0517631 0.677478842,7.57772116 C0.956489857,8.01575787 2.54242522,9.94413993 3.75495363,9.94413993 C5.06104262,9.94413993 6.7397032,8.01575787 6.92640668,7.40187846 C7.11311016,6.96384175 7.20625306,6.43827619 7.29939596,5.73686794 C7.29939596,5.4734964 7.39253886,5.12338104 7.39253886,4.77208815 L7.39253886,4.15860125 C7.39253886,2.58111957 6.92640668,1.09077422 5.62031769,0.389758475" id="Path"></path>
                                </g>
                                <g id="Group" transform="translate(4.510638, 32.981083)" fill="#FFF3E0">
                                    <path d="M5.53606544,0.109901685 C3.31519504,4.28176964 3.84823576,6.8999941 3.93694328,12.3811575 C4.02604859,16.0628639 3.93694328,17.0442859 3.75952823,19.5804505 C3.67042292,20.3984854 3.49261008,20.9710731 3.40350477,21.6257208 C3.31519504,22.2803685 3.49261008,23.0163435 3.49261008,23.8347447 C3.5817154,24.7344732 3.1373822,25.4708144 2.95956936,26.2892157 C2.07090297,30.3790237 3.04867468,33.4064488 2.07090297,36.5152011 C1.71607288,37.578683 1.36124279,37.4149295 1.18303216,37.9058237 C0.916511803,38.4784115 1.18303216,39.2151191 0.916511803,40.4419883 C0.650389235,41.9963644 -0.238277157,43.5507406 0.116950725,44.3691418 C0.294763562,44.9417296 1.71607288,46.4140458 2.51563396,46.4140458 C3.40350477,46.4140458 3.31519504,44.9417296 3.40350477,44.3691418 C3.49261008,43.7961877 3.58131761,39.4598336 3.58131761,39.1330592 C3.67042292,37.9058237 7.31260264,28.7429539 7.75653804,25.4708144 C8.20126903,22.3624285 7.93435088,20.9710731 8.73430975,17.3714266 C9.71128587,12.544911 10.510847,8.12722958 10.6886598,3.79124178 C10.6886598,3.79087544 10.1552213,0.0282068761 10.1552213,0.0282068761 C10.1552213,0.0282068761 5.53606544,0.109901685 5.53606544,0.109901685" id="Path"></path>
                                </g>
                                <g id="Group" transform="translate(4.510638, 75.262773)" fill="#006064">
                                    <path d="M2.66202185,2.60918755 C1.03966704,2.60918755 0.678784926,0.229888907 0.589169905,0 C0.228287795,0.997559787 -0.132190644,1.99511957 0.04784674,2.53221429 C0.228287795,3.06965263 1.67060522,4.45070423 2.48198446,4.45070423 C3.38297872,4.45070423 3.2933637,3.06965263 3.38297872,2.53221429 L3.38297872,2.07174921 C3.20334501,2.30198175 2.93248159,2.60918755 2.66202185,2.60918755" id="Path"></path>
                                </g>
                                <g id="Group" transform="translate(1.127660, 10.000000)" fill="url(#linearGradient-6)">
                                    <path d="M2.24744288,16.7699373 C1.80719367,18.07763 0.0961860043,20.343999 0.0961860043,23.9631792 C0.0961860043,29.7085253 2.32845976,41.1168108 2.32845976,41.1168108 C2.32845976,41.1168108 7.33254526,42.6154184 10.8745345,41.3666409 C12.3373203,33.9552638 14.2620746,26.211277 13.6460015,20.5483376 C13.6460015,20.4036599 13.3529617,18.0407148 13.2784951,17.3288855 C13.3360688,17.2927161 13.3829552,17.2558009 13.4150172,17.2177671 C14.3389545,16.0521419 13.4150172,9.30747555 13.0299284,5.72670204 C12.7992889,3.56138372 14.5699388,2.81189348 14.2620746,2.3957586 C11.6443673,-1.2685402 9.02666004,0.397117962 9.02666004,0.397117962 C7.94861834,1.39681116 6.48617737,2.81189348 6.48617737,2.81189348 L3.40615671,1.81294604 C3.40615671,1.81294604 0.403705416,1.89609844 0.0189613987,4.97683892 C-0.13514306,5.97653211 2.32845976,5.97653211 1.86649114,7.30846203 C1.25076281,9.22357739 2.48256422,9.97344051 3.0986373,10.5562531 C3.32927686,12.1383859 3.40615671,13.1377063 3.25274176,13.9703489 C2.94763562,15.2071942 2.11436833,15.7090917 2.24744288,16.7699373 Z" id="Path"></path>
                                </g>
                                <g id="Group" transform="translate(3.382979, 0.826153)" fill="#212121">
                                    <path d="M6.84939821,1.73441344 C6.84939821,1.73441344 6.08220145,0.0161555477 4.12048432,0.0161555477 C1.56188886,0.0161555477 0.0274953541,2.0775265 0.0274953541,3.88156265 C0.0274953541,5.4274947 0.368132241,6.11487479 0.197431918,7.4892503 C2.92672769,4.31083863 4.63220341,3.19418256 4.63220341,3.19418256 C4.46150308,3.70962147 3.6091471,5.08438164 3.6091471,5.08438164 C4.97322217,4.48277982 6.08220145,3.45190201 6.08220145,3.45190201 C7.3611173,4.48277982 7.53181762,6.45875716 7.53181762,6.45875716 C8.38493736,5.59943588 8.81111535,4.3966169 8.55487392,3.27996083 C8.21423704,2.0775265 6.84939821,1.73441344 6.84939821,1.73441344" id="Path"></path>
                                </g>
                                <g id="Group" transform="translate(7.526495, 4.556139) scale(-1, 1) rotate(124.995752) translate(-7.526495, -4.556139) translate(6.026495, 1.056139)" fill="#212121">
                                    <path d="M2.02814734,0.0392494701 C1.05079578,3.87636899 1.11773266,5.80525431 1.11773266,5.80525431 C1.42571545,5.39404378 2.02814734,3.9890443 2.02814734,3.9890443 C2.15507136,4.59227383 1.77393352,5.7458371 1.15833371,6.56753355 C-0.595192997,4.22816231 1.96084469,0.0848992728 2.02814734,0.0392494701" id="Path"></path>
                                </g>
                                <g id="Group" transform="translate(11.939051, 4.270033) scale(-1, 1) rotate(-13.095688) translate(-11.939051, -4.270033) translate(10.939051, 2.270033)" fill="#212121">
                                    <path d="M0.569829362,0.0151504967 C-0.0311390996,0.790109817 0.0701805985,2.14293735 1.04899472,2.61791242 C0.681024987,3.11462548 0.569829362,3.58706445 0.569829362,3.58706445 C-0.0406492517,2.61573862 -0.179278008,1.42087381 0.299887351,0.451359483 C0.318176105,0.372378122 0.453147111,0.154635928 0.569829362,0.0151504967" id="Path"></path>
                                </g>
                                <g id="Group" transform="translate(4.510638, 6.389534)" fill="#D7CCC8">
                                    <path d="M6.74972755,0.239860427 C6.46988117,0.161084469 6.09647422,0.0819552563 5.81704552,0.0819552563 C5.25693508,0.0819552563 4.60409943,0.0819552563 4.32425305,0.47689481 C4.23111015,0.555317513 4.04440668,0.555317513 3.95126378,0.555317513 L3.20528522,0.555317513 C3.11214233,0.555317513 2.92502117,0.47689481 2.92502117,0.47689481 C2.64559247,0.0819552563 1.99233913,0.00317929874 1.52620696,0.00317929874 C1.43264638,0.00317929874 1.24677826,0.00317929874 1.15321768,0.00317929874 C1.15321768,0.0819552563 1.06007478,0.0819552563 0.966514205,0.161084469 L1.52620696,0.161084469 C2.45930667,0.161084469 2.92502117,0.397765597 2.92502117,0.871127854 C2.92543885,1.42326607 2.27218551,1.89662832 1.52620696,1.89662832 C0.779810726,1.89662832 0.220117971,1.42326607 0.220117971,0.950257067 C0.220535653,1.02903302 0.126975073,1.02903302 0.0334144928,1.10745573 C0.220535653,1.6599472 0.779810726,2.05453349 1.52620696,2.05453349 C2.36574609,2.05453349 3.01858175,1.58117124 3.11214233,0.950257067 C3.20528522,0.792351896 3.48471392,0.713222683 3.6714174,0.713222683 C3.85812088,0.713222683 4.13754957,0.792351896 4.23111015,0.950257067 C4.23111015,1.58117124 4.88394581,2.13330945 5.72348494,2.13330945 C6.28359538,2.13330945 6.84287045,1.89662832 7.12271683,1.50239528 C7.12271683,1.26571415 7.21585973,0.950257067 7.21585973,0.63409347 L7.21585973,0.239860427 C7.12271683,0.31898964 6.93643103,0.239860427 6.74972755,0.239860427 Z M7.21585973,1.02903302 C7.21585973,1.58117124 6.56260639,2.05453349 5.81704552,2.05453349 C5.07064929,2.05453349 4.41781363,1.50239528 4.51137421,0.950257067 C4.51137421,0.47689481 4.97750639,0.239860427 5.90977074,0.31898964 C6.84287045,0.31898964 7.21585973,0.47689481 7.21585973,1.02903302" id="Shape"></path>
                                </g>
                                <g id="Group" transform="translate(0.500000, 25.000000)" fill="#FFF3E0">
                                    <path d="M11.5006054,2.1785654 C10.8079973,2.03883325 11.4237256,1.6177528 10.8079973,1.6177528 C10.1146996,1.6177528 9.49897125,1.54772973 8.88324292,1.96849618 C8.575034,2.1785654 8.26716984,2.03883325 7.95896092,2.03883325 C6.65027965,1.96849618 4.80240516,0.91658005 2.33914709,0.566150679 C1.4920897,0.425790527 1.03012108,0.215407302 0.183408438,0.00502407701 C-0.0475758731,1.0569402 -0.0475758731,2.1785654 0.337512897,2.4595997 C1.41520985,3.16045845 3.33996419,3.3008186 4.64899021,3.37115568 C5.95732672,3.44117875 6.34241549,3.23048152 8.11306538,3.5812249 C9.49897125,3.79160812 10.3460286,3.79160812 10.8079973,3.8619452 C11.2696211,3.93196827 11.5781748,3.8619452 11.5781748,3.51120182 C11.8084696,3.51120182 12.0397987,3.37115568 12.0397987,3.09012137 C12.3476628,3.09012137 12.4245427,2.88005215 12.3476628,2.66966892 C12.8096315,2.66966892 13.1947202,2.739692 13.1174956,2.38926263 C13.2712553,2.31892555 11.9629188,2.24890247 11.5006054,2.1785654" id="Path"></path>
                                </g>
                                <g id="Group" transform="translate(12.404255, 25.192351)" fill="#E8D7B9">
                                    <path d="M1.4639128,0.121048856 L0.0250608696,0.436623693 L1.38407603,0.699916729 C1.54410758,0.64716392 1.62394435,0.489376502 1.78433392,0.384341892 C2.26371255,0.384341892 2.66325442,0.279071778 2.66325442,0.0162497491 C2.02348622,0.121048856 1.70378112,0.121048856 1.4639128,0.121048856" id="Path"></path>
                                </g>
                                <g id="Group" transform="translate(16.914894, 20.741646)" fill="#FFF3E0">
                                    <path d="M12.3924807,6.03190686 C11.6998725,5.6950425 12.4697053,5.35893175 11.8536322,5.10609507 C11.1606793,4.85401201 10.4680711,4.85401201 9.77511816,5.19049957 C9.08216523,5.44295944 4.5397036,1.82449357 2.30708509,0.141678972 C1.53725231,-0.447268456 -0.310622186,1.06711396 0.0741218313,1.65606139 C1.92199632,4.76998432 6.77197736,5.86385149 8.542972,6.78890967 C9.92922262,7.46226159 10.7759353,7.71509827 11.2375591,7.96718133 C11.6998725,8.22001801 12.0077367,8.13561351 12.1614964,7.79874915 C12.3924807,7.88277684 12.7003449,7.71509827 12.7775695,7.46226159 C13.0857784,7.54666608 13.2395381,7.29382941 13.2395381,7.04174634 C13.701162,7.21017853 14.0865955,7.29382941 14.0865955,6.95734185 C14.0865955,6.70488198 12.7775695,6.28436673 12.3924807,6.03190686" id="Path"></path>
                                </g>
                                <g id="Group" transform="translate(16.914894, 21.854322)" fill="#FFF3E0">
                                    <path d="M12.426956,5.58828086 C12.3500761,5.5025026 12.1959716,5.5025026 12.0422119,5.5025026 C11.6567784,5.41633968 11.1951545,5.5025026 10.8104105,5.67405913 C10.1943374,5.93177858 9.50138451,6.18988269 9.1166405,6.0179415 C7.88449433,5.41633968 6.26760415,4.12774242 5.1133721,3.52652526 C3.88122594,2.92530809 2.95763345,1.89481495 1.87993649,1.03549367 C1.72548728,0.949330752 0.955654495,0.176941712 0.647445578,0.00500052665 C0.339581413,0.176557056 -0.199267063,0.606217693 0.108597102,1.12127194 C1.95647159,4.30006827 6.80645263,5.41672433 8.57744727,6.36105456 C9.1166405,6.61915867 10.964515,7.39193236 11.2720344,7.56387355 C11.7343478,7.82197765 12.0422119,7.73581473 12.1959716,7.39193236 C12.426956,7.47771063 12.7348201,7.30653875 12.8120447,7.04843465 C13.1202536,7.13459757 13.2740134,6.87649346 13.2740134,6.61915867 C13.7356372,6.79109985 14.1210707,6.87649346 14.1210707,6.5333804 C14.1210707,6.27527629 12.8120447,5.84600031 12.426956,5.58828086" id="Path"></path>
                                </g>
                                <g id="Group" transform="translate(28.191489, 26.305027)" fill="#FFF3E0">
                                    <path d="M0.00358012423,0.108096157 L0.803021865,0.528705605 C1.12308497,0.581458413 1.44279007,0.528705605 1.84233193,0.371153689 C2.32242659,0.4761883 2.72196845,0.371153689 2.96147876,0.160613462 C2.24223181,0.108096157 1.92252671,0.055578852 1.68265839,0.00306154693 L0.00358012423,0.108096157" id="Path"></path>
                                </g>
                                <g id="Group" transform="translate(25.936170, 25.192351)" fill="#006064">
                                    <polygon id="Path" points="0.178337922 3.60037919 26.3592613 0.0238643658 0.00763759836 2.68882322"></polygon>
                                </g>
                                <g id="Group" transform="translate(29.319149, 29.643055)" fill="#FFF3E0">
                                    <path d="M1.60711777,0.295792534 C1.04754435,0.190757924 0.96770758,0.138240619 0.40777615,0.0329705054 C-0.0716024846,-0.0722996083 -0.0716024846,0.138240619 0.248102609,0.243510733 C0.647644473,0.401062648 0.96770758,0.453815457 1.44708621,0.558850067 C1.68731255,0.611602875 1.76679131,0.558850067 1.8473441,0.506332762 C1.92753889,0.453815457 1.8473441,0.348309839 1.60711777,0.295792534" id="Path"></path>
                                </g>
                                <g id="Group" transform="translate(29.319149, 29.643055)" fill="#FFF3E0">
                                    <path d="M1.91787255,0.402711173 C1.35794112,0.29744106 0.958041244,0.139889144 0.398109814,0.0346190307 C-0.08126882,-0.070651083 -0.08126882,0.0873718393 0.238794286,0.192170946 C0.63833615,0.350193868 1.19790957,0.507981287 1.67800423,0.665768706 C1.91787255,0.718286011 1.99735131,0.665768706 2.07754609,0.613015897 C2.15738286,0.507981287 2.15738286,0.455463982 1.91787255,0.402711173" id="Path"></path>
                                </g>
                                <g id="Group" transform="translate(29.319149, 29.643055)" fill="#FFF3E0">
                                    <path d="M1.68838659,0.417076893 C1.20864994,0.31180678 0.888944847,0.154254865 0.4092082,0.0489847509 C-0.0701704349,-0.0565208664 -0.0701704349,0.101502056 0.169339876,0.259289475 C0.489402982,0.417076893 1.0489764,0.574864312 1.44851826,0.732416227 C1.68838659,0.785169036 1.76822336,0.732416227 1.84841814,0.679898922 C1.84841814,0.522347007 1.84841814,0.417076893 1.68838659,0.417076893" id="Path"></path>
                                </g>
                                <g id="Group" transform="translate(28.191489, 29.643055)" fill="#FFF3E0">
                                    <path d="M1.00959503,0.352784408 C0.689531927,0.247749798 0.529858386,0.142479684 0.263497143,0.037445074 C-0.0563272879,-0.0675895361 -0.0563272879,0.089962379 0.156809441,0.195232493 C0.369707496,0.352784408 0.5830829,0.458054522 0.849444143,0.563324635 C1.00959503,0.616077444 1.06281955,0.563324635 1.11604406,0.510571827 C1.11604406,0.458054522 1.16950725,0.405537217 1.00959503,0.352784408" id="Path"></path>
                                </g>
                                <g id="Group" transform="translate(7.165208, 26.345484) scale(-1, 1) rotate(87.709289) translate(-7.165208, -26.345484) translate(6.165208, 19.845484)" fill="#E91E63">
                                    <path d="M1.05265571,0.0325229058 C1.29735927,0.0419427025 1.53255268,0.294828013 1.52267675,0.536844327 L1.05265571,12.1786261 C1.04277978,12.4210047 0.788200286,12.6539635 0.543496722,12.6441814 L1.05265571,0.0325229058" id="Path"></path>
                                </g>
                                <g id="Group" transform="translate(11.276596, 14.065590)" fill="#E91E63">
                                    <path d="M2.56480858,0.680941867 L0.0265194387,11.0941713 C0.0265194387,11.2595958 0.0265194387,11.7554991 0.618660621,11.7554991 L10.940405,11.5900747 L10.940405,0.0196140864 C10.940405,0.0196140864 3.41039982,0.0196140864 3.41039982,0.0196140864 C3.0724664,0.0196140864 2.73377529,0.267565744 2.56480858,0.680941867" id="Path"></path>
                                </g>
                                <g id="Group" transform="translate(13.531915, 14.065590)" fill="#F8BBD0">
                                    <path d="M14.2813542,0.0107322359 L2.64041322,0.011102313 C2.49138458,0.0107322359 2.41653612,0.0936295067 2.41653612,0.259053971 L0.0287364638,11.4161384 C-0.0461120001,11.5811928 0.103584928,11.8295146 0.252947711,11.8295146 L11.147409,11.8295146 C11.7441918,11.8295146 12.2667945,11.4161384 12.415489,10.7551807 L14.5797457,0.507005629 C14.5797457,0.1761567 14.5052313,0.011102313 14.2813542,0.0107322359" id="Path"></path>
                                </g>
                            </g>
                            <g id="Group-26" transform="translate(52.500000, 79.000000)" fill="#006064">
                                <g id="Group" transform="translate(15.454371, 11.285678) scale(-1, 1) rotate(104.787692) translate(-15.454371, -11.285678) translate(4.454371, 10.785678)">
                                    <polygon id="Path" points="0.0355517022 0.0347684782 21.1063191 0.0347684782 21.273084 0.903892556 0.202316634 0.903389591"></polygon>
                                </g>
                                <g id="Group" transform="translate(23.395403, 10.784796) scale(-1, 1) rotate(104.788401) translate(-23.395403, -10.784796) translate(12.395403, 10.284796)">
                                    <path d="M0.547460489,0.0301897284 L21.6182313,0.0301897284 C21.6182313,0.0301897284 21.7641963,0.79067342 21.7641963,0.79067342 L0.693425442,0.79067342 L0.547460489,0.0301897284 Z" id="Path"></path>
                                </g>
                                <g id="Group" transform="translate(17.800700, 4.547419) scale(-1, 1) rotate(98.134194) translate(-17.800700, -4.547419) translate(16.800700, 0.547419)">
                                    <polygon id="Path" points="0.0102363682 0.0193030965 0.586067931 0.0193030965 1.70452404 7.6992319 1.12869248 7.69959007"></polygon>
                                </g>
                                <g id="Group" transform="translate(18.945133, 8.701410) scale(-1, 1) rotate(99.465167) translate(-18.945133, -8.701410) translate(17.945133, 4.701410)">
                                    <polygon id="Path" points="0.00464050168 0.0247039562 0.500556593 0.0247039562 1.80037493 7.67777472 1.30482375 7.67777472"></polygon>
                                </g>
                                <g id="Group" transform="translate(20.089016, 12.850809) scale(-1, 1) rotate(99.403950) translate(-20.089016, -12.850809) translate(19.089016, 8.850809)">
                                    <polygon id="Path" points="0.0190294205 0.0192378425 0.51458053 0.0192378425 1.80637061 7.6740984 1.31045459 7.67302389"></polygon>
                                </g>
                                <g id="Group" transform="translate(21.222357, 17.114632) scale(-1, 1) rotate(98.079557) translate(-21.222357, -17.114632) translate(20.222357, 13.114632)">
                                    <polygon id="Path" points="0.00637113342 0.032425093 0.582567912 0.032425093 1.69372636 7.71450699 1.11752958 7.71379064"></polygon>
                                </g>
                                <g id="Group">
                                    <path d="M0.00912762805,20.5826072 L0.718304642,20.5826072 L6.56752698,0.00221179625 C6.56792366,0.00221179625 5.85874665,0.00221179625 5.85874665,0.00221179625 L0.00912762805,20.5826072 Z" id="Path"></path>
                                </g>
                                <g id="Group" transform="translate(7.875000, 0.000000)">
                                    <path d="M0.00357168054,20.5826072 L0.711954988,20.5826072 L6.56157401,0.00221179625 C6.56157401,0.00221179625 5.85279385,0.00221179625 5.85279385,0.00221179625 L0.00357168054,20.5826072 Z" id="Path"></path>
                                </g>
                                <g id="Group" transform="translate(3.375000, 17.600000)">
                                    <path d="M0.0278114858,0.344434881 L8.36554254,0.344434881 C8.36592352,0.344434881 8.45050092,0.0144348808 8.45050092,0.0144348808 L0.11276986,0.0144348808 L0.0278114858,0.344434881 Z" id="Path"></path>
                                </g>
                                <g id="Group" transform="translate(3.375000, 13.200000)">
                                    <polygon id="Path" points="0 0.381360237 8.33773106 0.381360237 8.33773106 0.0174615493 0.0849583745 0.0174615493"></polygon>
                                </g>
                                <g id="Group" transform="translate(4.500000, 8.800000)">
                                    <polygon id="Path" points="0.0099054607 0.332328207 8.26229716 0.332328207 8.34763652 0.00232820658 0.0952448144 0.00232820658"></polygon>
                                </g>
                                <g id="Group" transform="translate(6.750000, 4.400000)">
                                    <polygon id="Path" points="0.0198109214 0.335354875 8.2725836 0.335354875 8.35754198 0.00535487512 0.105150275 0.00535487512"></polygon>
                                </g>
                                <g id="Group" transform="translate(20.750000, 0.500000) scale(-1, 1) translate(-20.750000, -0.500000) translate(16.750000, 0.000000)">
                                    <polyline id="Path" points="0.00777832651 0.00279384789 7.82460756 0.00279384789 7.82460756 0.834662057 0.00777832651 0.834662057 0.00777832651 0.00279384789"></polyline>
                                </g>
                                <g id="Group" transform="translate(9.750000, 0.500000) scale(-1, 1) translate(-9.750000, -0.500000) translate(3.750000, 0.000000)">
                                    <polyline id="Path" points="0.0325533169 0.00279384789 11.9811173 0.00279384789 11.9811173 0.834662057 0.0325533169 0.834662057 0.0325533169 0.00279384789"></polyline>
                                </g>
                            </g>
                        </g>
                    </g>
                </g>
            </g>
        </g>
    </g>
</svg>