<?xml version="1.0" encoding="UTF-8"?>
<svg width="175px" height="129px" viewBox="0 0 175 129" version="1.1" xmlns="http://www.w3.org/2000/svg" xmlns:xlink="http://www.w3.org/1999/xlink">
    <!-- Generator: Sketch 64 (93537) - https://sketch.com -->
    <title>Artwork</title>
    <desc>Created with Sketch.</desc>
    <defs>
        <linearGradient x1="0.000189879576%" y1="49.9997576%" x2="99.9999606%" y2="49.9997576%" id="linearGradient-1">
            <stop stop-color="#FF9800" offset="0%"></stop>
            <stop stop-color="#FFE0B2" offset="100%"></stop>
        </linearGradient>
        <linearGradient x1="99.9346144%" y1="47.4515824%" x2="0.0646107564%" y2="52.551319%" id="linearGradient-2">
            <stop stop-color="#E91E63" offset="0%"></stop>
            <stop stop-color="#F8BBD0" offset="100%"></stop>
        </linearGradient>
        <linearGradient x1="23.9687553%" y1="7.31348725%" x2="76.0276642%" y2="92.6860262%" id="linearGradient-3">
            <stop stop-color="#E91E63" offset="0%"></stop>
            <stop stop-color="#F8BBD0" offset="100%"></stop>
        </linearGradient>
        <linearGradient x1="-0.00165763511%" y1="49.9958425%" x2="100.003447%" y2="49.9958425%" id="linearGradient-4">
            <stop stop-color="#E91E63" offset="0%"></stop>
            <stop stop-color="#F8BBD0" offset="100%"></stop>
        </linearGradient>
        <linearGradient x1="11.6098827%" y1="81.9906239%" x2="88.3871904%" y2="18.0060994%" id="linearGradient-5">
            <stop stop-color="#E91E63" offset="0%"></stop>
            <stop stop-color="#F8BBD0" offset="100%"></stop>
        </linearGradient>
        <linearGradient x1="-0.000722679577%" y1="50.0004786%" x2="100.000797%" y2="50.0004786%" id="linearGradient-6">
            <stop stop-color="#E91E63" offset="0%"></stop>
            <stop stop-color="#F8BBD0" offset="100%"></stop>
        </linearGradient>
        <linearGradient x1="7.06474099e-05%" y1="50.0008458%" x2="99.9990722%" y2="50.0008458%" id="linearGradient-7">
            <stop stop-color="#00BCD4" offset="0%"></stop>
            <stop stop-color="#B2EBF2" offset="100%"></stop>
        </linearGradient>
        <linearGradient x1="98.53791%" y1="61.6073948%" x2="1.46384503%" y2="38.3949808%" id="linearGradient-8">
            <stop stop-color="#00BCD4" offset="0%"></stop>
            <stop stop-color="#B2EBF2" offset="100%"></stop>
        </linearGradient>
        <linearGradient x1="4.19656237e-05%" y1="49.9989462%" x2="100.001876%" y2="49.9989462%" id="linearGradient-9">
            <stop stop-color="#E91E63" offset="0%"></stop>
            <stop stop-color="#F8BBD0" offset="100%"></stop>
        </linearGradient>
        <linearGradient x1="78.6637616%" y1="74.3482316%" x2="21.3362384%" y2="25.6512131%" id="linearGradient-10">
            <stop stop-color="#FF9800" offset="0%"></stop>
            <stop stop-color="#FFE0B2" offset="100%"></stop>
        </linearGradient>
        <linearGradient x1="0%" y1="50.0002507%" x2="100%" y2="50.0002507%" id="linearGradient-11">
            <stop stop-color="#E91E63" offset="0%"></stop>
            <stop stop-color="#FF9800" offset="100%"></stop>
        </linearGradient>
        <linearGradient x1="7.29023484%" y1="33.9612883%" x2="92.7097652%" y2="66.0387117%" id="linearGradient-12">
            <stop stop-color="#E91E63" offset="0%"></stop>
            <stop stop-color="#FF9800" offset="100%"></stop>
        </linearGradient>
        <linearGradient x1="0%" y1="50.0019212%" x2="100%" y2="50.0019212%" id="linearGradient-13">
            <stop stop-color="#E91E63" offset="0%"></stop>
            <stop stop-color="#F8BBD0" offset="100%"></stop>
        </linearGradient>
        <linearGradient x1="99.5264979%" y1="53.740231%" x2="0.473502094%" y2="46.259769%" id="linearGradient-14">
            <stop stop-color="#E91E63" offset="0%"></stop>
            <stop stop-color="#FF9800" offset="100%"></stop>
        </linearGradient>
        <linearGradient x1="0%" y1="50.0019215%" x2="100.001401%" y2="50.0019215%" id="linearGradient-15">
            <stop stop-color="#00BCD4" offset="0%"></stop>
            <stop stop-color="#B2EBF2" offset="100%"></stop>
        </linearGradient>
        <linearGradient x1="0%" y1="49.9990393%" x2="100%" y2="49.9990393%" id="linearGradient-16">
            <stop stop-color="#E91E63" offset="0%"></stop>
            <stop stop-color="#F8BBD0" offset="100%"></stop>
        </linearGradient>
        <linearGradient x1="0%" y1="50%" x2="100%" y2="50%" id="linearGradient-17">
            <stop stop-color="#00BCD4" offset="0%"></stop>
            <stop stop-color="#B2EBF2" offset="100%"></stop>
        </linearGradient>
        <linearGradient x1="0%" y1="50%" x2="100%" y2="50%" id="linearGradient-18">
            <stop stop-color="#FF9800" offset="0%"></stop>
            <stop stop-color="#FFE0B2" offset="100%"></stop>
        </linearGradient>
        <linearGradient x1="0.000356465763%" y1="50.0001678%" x2="100%" y2="50.0001678%" id="linearGradient-19">
            <stop stop-color="#00BCD4" offset="0%"></stop>
            <stop stop-color="#B2EBF2" offset="100%"></stop>
        </linearGradient>
    </defs>
    <g id="Landing" stroke="none" stroke-width="1" fill="none" fill-rule="evenodd">
        <g transform="translate(-429.000000, -3473.000000)" id="Mangement">
            <g transform="translate(158.000000, 2979.000000)">
                <g id="Slider" transform="translate(0.000000, 165.000000)">
                    <g id="Item" transform="translate(271.000000, 41.000000)">
                        <g id="Artwork" transform="translate(0.000000, 288.000000)">
                            <g id="Group" transform="translate(111.000000, 0.000000)" fill="url(#linearGradient-1)" fill-rule="nonzero">
                                <path d="M15.5182743,76.7918451 L16.8755899,75.9436875 C17.0046199,75.860998 17.1316494,75.7729084 17.2623465,75.6898815 C11.2659524,74.6459692 6.79357936,69.5205727 6.51084697,63.3678019 C6.41082371,61.3140657 6.79457959,59.2653922 7.62977376,57.3908727 C9.20413977,53.8402886 12.2521817,51.1787005 15.9527087,50.122638 L15.8853597,55.5295161 L18.8193751,49.6443891 C18.8313779,49.6427016 18.8437141,49.6427016 18.8557169,49.6443891 C22.2895152,49.4820478 25.646629,50.7075393 28.1878864,53.0508574 C30.7294773,55.3938379 32.2471634,58.6632779 32.4072006,62.1392728 C32.4182032,62.3897037 32.4072006,62.6360846 32.4072006,62.8750402 C33.4281047,61.6961248 34.3549868,60.4328323 34.9687962,59.048037 C36.2114184,56.2433455 36.2407585,53.0670578 36.1370678,49.2066413 C35.9410222,41.5560099 35.6156132,33.8483398 35.1905144,26.1626076 C28.8620431,25.4511407 23.9825754,20.1890535 23.681172,13.7504134 C23.6631678,13.3477664 23.6685024,12.952207 23.681172,12.5586727 C23.681172,12.4611328 23.681172,12.3619055 23.6958421,12.2643657 C23.7211813,11.8836567 23.7558561,11.5066602 23.8138695,11.1350639 C23.8138695,11.0726249 23.8355413,11.0138985 23.8465438,10.9511221 C23.8998895,10.6362271 23.963571,10.3247072 24.0372548,10.0168999 C24.0662616,9.90282221 24.0936012,9.78705697 24.1246085,9.67297926 C24.2152962,9.33850884 24.3063174,9.00910103 24.4316798,8.68374332 C24.4696887,8.57506574 24.5150326,8.47010075 24.5550419,8.36378573 C24.6477301,8.12449256 24.7477533,7.88924949 24.8531112,7.65569395 C24.9094576,7.53216602 24.9638036,7.41100065 25.0238175,7.28781023 C25.0384876,7.25642199 25.0511572,7.22537125 25.0674943,7.19398301 C27.8901505,1.55017424 34.2909719,-1.24854334 40.2846987,0.540012799 L40.1976784,7.57637957 L43.1043542,1.76482933 C47.998492,4.60057154 50.5014072,10.3290948 49.2814569,15.9020269 L49.296127,15.9020269 C49.2761223,15.9958541 49.2471156,16.0859688 49.2251105,16.1781084 C49.1854346,16.3509125 49.1417577,16.5220291 49.0944134,16.6928081 C49.0327324,16.9118508 48.9637164,17.1271809 48.8926998,17.3421735 C48.8383539,17.5021523 48.785675,17.6658437 48.725661,17.824135 C48.6383074,18.0556654 48.5439521,18.2817958 48.4385943,18.5082637 C48.3805808,18.6405668 48.3279019,18.774895 48.2568854,18.9055106 C48.0911802,19.2436936 47.9094713,19.574789 47.7117586,19.8984591 C47.6447431,20.0108493 47.568392,20.1175018 47.4973755,20.2295545 C47.3593434,20.4465721 47.2196442,20.6619022 47.0686091,20.8714947 C46.9759209,21.0000852 46.8762311,21.1232757 46.7782083,21.2501787 C46.6361752,21.4341205 46.4911415,21.6180624 46.3401064,21.7854663 C46.2330815,21.9086568 46.1240562,22.0301596 46.0113633,22.1533501 C45.8533266,22.3224416 45.6899553,22.486133 45.520916,22.6481368 C45.4098902,22.7564769 45.2975307,22.8651544 45.1811703,22.9680944 C44.9904593,23.1392109 44.7904128,23.3029023 44.5886993,23.4628811 C44.4870089,23.543883 44.3889862,23.62826 44.2836283,23.7055494 C43.9772238,23.9360673 43.6604835,24.1524099 43.3334074,24.3549147 C43.2717264,24.3913656 43.2063779,24.4227539 43.1516985,24.4595422 C42.8793019,24.6232336 42.6069052,24.7757872 42.3141705,24.9192281 C42.1924755,24.9799796 42.065446,25.0333058 41.9400835,25.0903447 C41.7056957,25.1969972 41.4693074,25.2999371 41.2279179,25.3937644 C41.0878854,25.4470906 40.9441853,25.4967043 40.8008187,25.546318 C40.5627633,25.629345 40.3210404,25.7046092 40.073983,25.7727859 C39.9286159,25.8132868 39.7852492,25.8534503 39.638215,25.8885511 C39.37282,25.9530151 39.1020904,26.0063414 38.8296937,26.0522425 C38.8113561,26.0522425 38.795019,26.0522425 38.7770148,26.0633802 C38.9560565,29.3051446 39.1154268,32.5485964 39.2547926,35.7940734 C40.816489,32.5485964 43.6311433,30.0982884 47.0349346,29.0209628 C50.4390593,27.9436373 54.1309176,28.3348091 57.240974,30.102001 L54.9501081,36.4562641 L59.6628703,31.8749305 C62.1854568,34.2155485 63.6881395,37.4735132 63.8415085,40.9343202 C63.901189,42.148674 63.7904966,43.3653903 63.5124319,44.5483559 C62.3011504,49.785805 58.0531628,53.7434238 52.7966074,54.531505 C47.540052,55.3199237 42.3408433,52.7788259 39.6815584,48.121553 C39.6815584,48.4509609 39.7052306,48.7817187 39.7142327,49.1111265 C39.7999193,52.5172572 39.9069442,56.7543327 38.230221,60.5394849 C37.0946237,63.1048832 35.2651984,65.1886576 33.4574448,67.0554143 C32.2818382,68.2711181 31.0628881,69.446321 29.8129309,70.5847355 C28.5839785,72.2554001 26.9796055,73.6054321 25.1328428,74.5241288 C23.0800323,76.1252668 20.9542047,77.6248148 18.756027,79.0224354 L17.4207166,79.8942186 C16.1870965,80.668462 14.9224692,81.4629558 13.681514,82.2851253 C13.8995647,82.2631873 14.1159483,82.2392242 14.3373331,82.229774 C19.97331,81.9624676 25.1331763,85.4151745 27.0986332,90.7690639 L18.999417,97.442947 L27.9014865,95.352085 C27.8964853,99.8618669 25.6049526,104.053379 21.8324089,106.452048 C18.0598652,108.851055 13.3351001,109.121399 9.31949992,107.16824 C9.51921301,107.422046 9.72092657,107.674165 9.92097308,107.925945 C10.3187322,108.428157 10.7148243,108.926657 11.1019143,109.421443 C16.3704725,116.176329 17.8384804,122.591343 15.2275401,127.481496 L12.0554693,125.745355 C14.5990606,120.985818 10.7838403,114.894473 8.27125622,111.683422 C7.89150127,111.197748 7.50274423,110.708699 7.11031966,110.212225 C3.74387037,105.982237 -0.0716833315,101.178486 0.0246724025,95.2913335 C0.161037438,86.4266859 8.68001792,81.0805592 15.5182743,76.7918451 Z" id="Path"></path>
                            </g>
                            <g id="Group" transform="translate(84.000000, 124.500000) scale(-1, 1) rotate(-90.000000) translate(-84.000000, -124.500000) translate(80.000000, 41.000000)" fill="#B2EBF2" fill-rule="nonzero">
                                <path d="M3.70997198,0.0205187358 C5.74798928,0.0205187358 7.40059263,37.4002062 7.40059263,83.5105821 C7.40059263,129.620891 5.74798928,167.000309 3.70997198,167.000309 C1.67163216,167.000309 0.0193513274,129.620891 0.0193513274,83.5105821 C0.0193513274,37.4002062 1.67163216,0.0205187358 3.70997198,0.0205187358" id="Path"></path>
                            </g>
                            <g id="Group-40" transform="translate(148.000000, 99.000000)">
                                <g id="Group" transform="translate(1.000000, 2.000000)" stroke="#F8BBD0" stroke-width="0.5">
                                    <path d="M2.26539539,22.5392049 C2.79271906,21.5158882 2.19508557,20.2625554 1.5132738,19.348965 C0.831462033,18.4353746 0.000322522123,17.4921377 0.0177387168,16.3243368 C0.0422503981,14.6532263 1.72065553,13.6670531 3.06331512,12.7814054 C4.05765083,12.1233886 4.97490375,11.3437188 5.79636759,10.4584119 C6.14082122,10.1176471 6.42593078,9.71554466 6.63815034,9.27016509 C6.91390675,8.61657824 6.90713379,7.87371102 6.88939507,7.15708269 C6.83069604,4.77275152 6.71942591,2.3908057 6.55558467,0.0115860025" id="Path"></path>
                                </g>
                                <g id="Group" transform="translate(6.000000, 0.000000)" fill="url(#linearGradient-2)" fill-rule="nonzero">
                                    <path d="M5.19215465,2.47280937 C5.15050092,1.59198533 4.66386341,0.792436856 3.9005503,0.350839565 L3.32112318,1.49851841 L3.33771695,0.110737971 C2.5334274,-0.13004092 1.66242416,0.0348807676 1.00172146,0.553012558 C0.341018767,1.07114435 -0.0264145619,1.87814308 0.016255115,2.71663609 C0.0596020883,3.63945252 0.592295753,4.46914068 1.41317906,4.89278961 C2.23440102,5.3167772 3.21919007,5.27038239 3.9967264,4.7712149 C4.77426273,4.27204741 5.22669677,3.39596444 5.18301115,2.47280937 L5.19215465,2.47280937 Z" id="Path"></path>
                                </g>
                                <g id="Group" transform="translate(1.000000, 16.000000)" fill="url(#linearGradient-3)" fill-rule="nonzero">
                                    <path d="M4.90802879,3.79252152 C4.34925921,4.87822774 3.10642021,5.42446733 1.92860167,5.10173557 C0.751121772,4.77934246 -0.039960491,3.67636518 0.0321715818,2.45723155 C0.104642303,1.23843657 1.02034711,0.236376464 2.2279667,0.0551996614 C3.43558628,-0.125977141 4.60493862,0.563172005 5.03163539,1.70746437 L3.41526739,3.02311274 L5.19418654,2.6099619 C5.19418654,3.02108085 5.0963172,3.42678143 4.90802879,3.79252152 Z" id="Path"></path>
                                </g>
                                <g id="Group" transform="translate(2.000000, 10.000000)" fill="url(#linearGradient-4)" fill-rule="nonzero">
                                    <path d="M2.71494285,5.1819952 C2.02850289,5.21484408 1.3573021,4.97338789 0.849668407,4.51045576 C0.342034711,4.04718499 0.0396218428,3.40104417 0.00982079865,2.7146042 C-0.0108367433,2.30958092 0.0656977565,1.90523494 0.232989982,1.53543107 C0.54691689,0.834767885 1.15512911,0.309185833 1.8937209,0.0999012276 L1.88085226,1.16833639 L2.46772965,0.0057570199 C3.89716382,-0.0609566812 5.10986313,1.04371384 5.17657683,2.47314802 C5.24329053,3.90224354 4.13862001,5.1152815 2.70952448,5.1819952 L2.71494285,5.1819952 Z" id="Path"></path>
                                </g>
                                <g id="Group" transform="translate(8.000000, 6.000000)" fill="url(#linearGradient-5)" fill-rule="nonzero">
                                    <path d="M2.73695499,5.18876817 C1.31023,5.25582052 0.0988852829,4.15385918 0.0318329335,2.72713419 C-0.0355580641,1.3004092 1.06674192,0.0890644843 2.49346691,0.0216734867 C2.97773388,-0.00203188937 3.45895301,0.111753916 3.88090871,0.350162269 L3.42339495,1.60519261 L4.36449838,0.701001834 C4.86942289,1.16257937 5.17081981,1.80567236 5.2023141,2.48906448 C5.21416678,2.72848878 5.191816,2.96825173 5.13593904,3.20124171 C4.87043883,4.32555383 3.89106815,5.13695499 2.73695499,5.18876817 Z" id="Path"></path>
                                </g>
                                <g id="Group" transform="translate(0.000000, 23.000000)" fill="#AD1457" fill-rule="nonzero">
                                    <path d="M0.0303170796,1.18068294 C0.0303170796,1.18068294 1.97577053,1.1154226 2.56276079,0.657894737 C3.14975105,0.200366869 5.55060574,-0.345350642 5.70348122,0.389092705 C5.85635671,1.12318329 8.62972445,4.0412022 6.43109113,4.05284323 C4.23245782,4.06413151 1.32395331,3.66833639 0.738575662,3.28382955 C0.153520531,2.8993227 0.0303170796,1.18068294 0.0303170796,1.18068294" id="Path"></path>
                                </g>
                                <g id="Group" transform="translate(0.000000, 24.000000)" fill="#BF360C" fill-opacity="0.2" fill-rule="nonzero">
                                    <path d="M6.46979379,2.12699309 C4.27277309,2.14251446 1.36265597,1.81938761 0.777278316,1.51178214 C0.332520309,1.27501058 0.153520531,0.421617045 0.0954665484,0.0279384789 L0.0303170796,0.0279384789 C0.0303170796,0.0279384789 0.153520531,1.40115705 0.733415308,1.71948638 C1.31331008,2.03781572 4.22729747,2.34683223 6.42560826,2.33469733 C7.06033179,2.33469733 7.27996936,2.1317906 7.26771352,1.8394243 C7.18482533,2.01326372 6.9422887,2.12388881 6.46979379,2.12699309" id="Path"></path>
                                </g>
                            </g>
                            <g id="Group-39" transform="translate(12.000000, 58.000000)">
                                <g id="Group" transform="translate(14.000000, 6.000000)" stroke="#F8BBD0" stroke-width="0.5">
                                    <path d="M11.2044401,54.3467812 C9.93917502,51.8776989 11.3787498,48.8540506 13.0239782,46.6533175 C14.6692065,44.4525844 16.6838437,42.1635252 16.6403462,39.3583322 C16.5776586,35.3280373 12.5202389,32.9489666 9.2787169,30.8126238 C6.87324209,29.2271385 4.65423075,27.3470085 2.66805889,25.211677 C1.87167113,24.3537013 1.0995908,23.4387519 0.636150698,22.3441164 C-0.0332627816,20.7677334 -0.0156718875,18.9766036 0.0278255962,17.2498642 C0.167273411,11.4941784 0.436574009,5.74894335 0.836367057,0.015170495" id="Path"></path>
                                </g>
                                <g id="Group" transform="translate(7.000000, 0.000000)" fill="url(#linearGradient-6)" fill-rule="nonzero">
                                    <path d="M0.0140077222,5.94727863 C0.115063432,3.83344664 1.28470824,1.91605629 3.11805226,0.858806778 L4.51015303,3.61199123 L4.46812987,0.278820375 C7.06322716,-0.485601036 9.85476609,0.51495055 11.3732699,2.754185 C12.8914402,4.99308593 12.7883833,7.95671973 11.1177957,10.084893 C9.44720808,12.2127327 6.5926344,13.0165091 4.05723668,12.072989 C1.52183896,11.1294688 -0.113062329,8.65510474 0.0140077222,5.95294842 L0.0140077222,5.94727863 Z" id="Path"></path>
                                </g>
                                <g id="Group" transform="translate(18.000000, 40.000000)" fill="url(#linearGradient-7)" fill-rule="nonzero">
                                    <path d="M0.697717973,9.05265723 C1.98342676,11.5580384 4.79230858,12.8861039 7.54415896,12.2894416 C10.2963429,11.6931129 12.3034493,9.32113858 12.4361892,6.50825455 C12.4795464,5.64844722 12.3414703,4.78897341 12.0309658,3.985864 C11.1011198,1.57420116 8.77683851,-0.0113395846 6.19208025,0.00356306029 C3.60732199,0.0186769629 1.3013841,1.63056557 0.3995536,4.05290096 L4.28336134,7.21164232 L0.0106637664,6.21742756 C0.00900496428,7.20397142 0.244801621,8.17617404 0.697717973,9.05265723 Z" id="Path"></path>
                                </g>
                                <g id="Group" transform="translate(16.000000, 23.000000)" fill="url(#linearGradient-8)" fill-rule="nonzero">
                                    <path d="M5.93527201,12.4568672 C9.09134523,12.6012802 11.8545352,10.3560424 12.3584797,7.23665611 C12.8627577,4.11760329 10.9480355,1.11628205 7.90702567,0.258809344 L7.93971035,2.81955437 L6.5402722,0.0333517195 L6.52392986,0.0333517195 C3.09270495,-0.126736534 0.181433354,2.52505869 0.0213451005,5.95628359 C-0.138743153,9.3875085 2.51305207,12.2987801 5.94427697,12.4588684 L5.93527201,12.4568672 Z" id="Path"></path>
                                </g>
                                <g id="Group" transform="translate(0.000000, 13.000000)" fill="url(#linearGradient-9)" fill-rule="nonzero">
                                    <path d="M5.94827918,12.4555332 C8.5884013,12.5842708 11.0214092,11.0300807 12.0142899,8.58039689 C13.0075041,6.1310466 12.3438049,3.32116423 10.3593776,1.57520171 C8.37528381,-0.171094321 5.50403428,-0.471926831 3.20043101,0.824454507 L4.29103224,3.83578126 L2.03912413,1.6602486 C0.823453955,2.76652514 0.0977205382,4.31104327 0.0220121349,5.95294842 C-0.0070038611,6.52826558 0.0463588902,7.1045833 0.180099286,7.66489218 C0.815116026,10.3720513 3.17074798,12.3284631 5.94827918,12.4555332 Z" id="Path"></path>
                                </g>
                            </g>
                            <g id="Group-38" transform="translate(35.000000, 28.000000)" fill-rule="nonzero">
                                <g id="Group" transform="translate(0.000000, 65.000000)" fill="url(#linearGradient-10)">
                                    <polygon id="Path" points="45.4973882 28.8773767 21.5704431 33.8725439 21.0265581 33.8172005 0 31.652696 0 4.45565384 25.7395622 0.0152788557 44.409951 2.23546635 44.4152734 2.35566001 44.4169366 2.41473825"></polygon>
                                </g>
                                <g id="Group" transform="translate(25.000000, 66.000000)" fill="url(#linearGradient-11)">
                                    <polygon id="Path" points="45.50138 28.8879021 21.5744349 33.8830694 21.03055 33.8277259 0.003991816 31.6628819 0.003991816 4.46583974 25.743554 0.0256345245 44.4139428 2.24565225 44.4192652 2.36618545 44.4212611 2.42526369"></polygon>
                                </g>
                                <g id="Group" transform="translate(9.000000, 39.000000)" fill="url(#linearGradient-12)">
                                    <polygon id="Path" points="45.5057045 28.8766977 21.5787593 33.8718649 21.0352071 33.8165214 0.00831628334 31.6516774 0.00831628334 4.45463525 25.7478785 0.0145997954 44.4182672 2.23478729 44.4235897 2.35498095 44.4255856 2.41405919"></polygon>
                                </g>
                                <g id="Group" transform="translate(45.000000, 55.000000)" fill="url(#linearGradient-13)">
                                    <polygon id="Path" points="24.0097563 14.1948921 11.3981334 16.65218 11.1105512 16.6243545 0.0275487647 15.5596256 0.0275487647 2.18862706 13.5949794 0.00479751658 23.4366076 1.09767179 23.4403032 1.15684116 23.4403032 1.18466676"></polygon>
                                </g>
                                <g id="Group" transform="translate(10.000000, 28.000000)" fill="url(#linearGradient-14)">
                                    <polygon id="Path" points="24.0067326 14.1939326 11.3951098 16.6496214 11.1078635 16.6233949 0.0248610803 15.5586661 0.0248610803 2.18766756 13.5919558 0.00383801326 23.4339199 1.09671229 23.4372795 1.15588166 23.4372795 1.18370726"></polygon>
                                </g>
                                <g id="Group" transform="translate(33.000000, 27.000000)" fill="url(#linearGradient-15)">
                                    <polygon id="Path" points="23.9845593 14.2051268 11.3732723 16.6604957 11.0856901 16.6345892 0.00268768436 15.5695405 0.00268768436 2.19886177 13.5697824 0.0150322186 23.4117465 1.1079065 23.4154421 1.16707587 23.4154421 1.19490146"></polygon>
                                </g>
                                <g id="Group" transform="translate(39.000000, 13.000000)" fill="url(#linearGradient-16)">
                                    <polygon id="Path" points="23.9902706 14.1916937 11.3786477 16.6473825 11.0914014 16.6211561 0.00839901362 15.5564273 0.00839901362 2.18542872 13.5754937 0.00159917219 23.4174579 1.09447345 23.4211534 1.15364282 23.4211534 1.18178825"></polygon>
                                </g>
                                <g id="Group" transform="translate(16.000000, 14.000000)" fill="url(#linearGradient-17)">
                                    <polygon id="Path" points="23.9892627 14.212483 11.3776398 16.6681718 11.0900576 16.6419453 0.00705517144 15.5772165 0.00705517144 2.20621796 13.5744858 0.0227082451 23.416114 1.11526269 23.4198096 1.17443206 23.4198096 1.20257749"></polygon>
                                </g>
                                <g id="Group" transform="translate(27.000000, 15.000000)" fill="#000000" fill-opacity="0.1">
                                    <polygon id="Path" points="12.8087279 13.1705134 0.288825891 15.6465158 0.00333517195 15.6203915 0.00333517195 1.79773831 12.2434162 0.0228990707"></polygon>
                                </g>
                                <g id="Group" transform="translate(16.000000, 14.000000)" fill="#000000" fill-opacity="0.05">
                                    <polygon id="Path" points="23.6071681 1.04388317 23.6034429 1.04670523 11.178778 2.57231551 0.00711161281 1.92944829 13.6830817 0.00282206858 23.6034429 0.966840694 23.6071681 1.01904896"></polygon>
                                </g>
                                <g id="Group" transform="translate(23.000000, 0.000000)" fill="url(#linearGradient-18)">
                                    <polygon id="Path" points="23.9946381 14.2150416 11.3830152 16.6723296 11.0957689 16.644504 0.0127665007 15.5794553 0.0127665007 2.20877663 13.5798612 0.0249470862 23.4218253 1.11782136 23.4255209 1.17699073 23.4255209 1.20481633"></polygon>
                                </g>
                            </g>
                            <g id="Group-41" transform="translate(81.000000, 12.000000)" fill-rule="nonzero">
                                <g id="Group" transform="translate(24.000000, 11.000000)" fill="#FFF3E0">
                                    <path d="M1.5062791,3.59773428 C1.37557029,4.74010764 0.485630967,5.6609083 0.15540191,6.76103126 C-0.339777057,8.4220202 0.514274964,10.2055675 1.69131273,11.5062993 C3.60716805,13.5933399 6.29608203,14.8427906 9.15817694,14.9753472 C9.57433799,15.0105021 9.99379145,14.9656716 10.3925027,14.8437582 C10.7474249,14.702171 11.0674474,14.4873712 11.3308405,14.2145175 C12.2135365,13.3446754 12.688961,12.1407003 12.8772871,10.9264045 C13.0656131,9.71178617 12.9938385,8.47652644 12.9204177,7.25158741 C12.9200884,6.9977625 12.8726777,6.74651777 12.7804901,6.50978653 C12.660317,6.28466609 12.4950379,6.08534742 12.2942006,5.92440888 C11.6577772,5.35160959 10.9564931,4.85234534 10.2041767,4.43596928 C9.88119091,4.26019472 9.53482903,4.08442017 9.32872395,3.7802818 C9.18682094,3.53839021 9.09496261,3.27134189 9.05775834,2.99494043 L8.82630168,1.84192384 C8.78514651,1.50940354 8.6695828,1.19010663 8.48718311,0.90693221 C8.07991158,0.369287831 7.29960961,0.295430265 6.61577536,0.268983451 L4.10432247,0.172226814 C3.32369127,0.142554778 2.29744603,-0.0770827874 1.5349231,0.0738575662 C0.817506232,0.212864601 1.05982785,0.855973714 1.18889046,1.43941623 C1.37557029,2.14509464 1.48224449,2.86915681 1.5062791,3.59773428 Z" id="Path"></path>
                                </g>
                                <g id="Group" transform="translate(29.000000, 63.000000)" fill="#006064">
                                    <path d="M13.0455294,5.83902886 L11.9801044,17.6428288 C11.7018955,20.7388147 11.4184187,23.8474414 10.8731951,26.9038419 C10.6937585,27.9566834 10.4639481,29.0045351 10.2022012,30.0430725 C9.47359014,32.9271596 8.4170547,35.7457143 8.07628992,38.7023194 C8.06542496,38.7874781 8.05653544,38.8836144 8.04731668,38.9614548 C7.97751752,39.6141167 7.91660787,40.2737643 7.68877287,40.8828489 C7.50933634,41.3342567 7.25614976,41.7457464 7.07144537,42.1914992 C6.71257232,43.0833374 6.65528432,44.0696487 6.6105075,45.0356681 C5.31724754,44.2978475 3.90085132,43.8065214 2.43210573,43.585641 C1.71435963,43.4785272 0.933728423,43.404346 0.458303937,42.8604611 C-0.0796764028,42.2693396 -0.016791308,41.3651933 0.0727623348,40.5711546 C0.354922158,38.1058755 0.636094257,35.6419271 0.915949391,33.1789766 C1.00912469,32.1194822 1.1892197,31.0693019 1.45425897,30.0394134 C1.55105592,29.6971151 1.66760736,29.3598067 1.78613424,29.0228309 C1.94943794,28.5587823 2.11438785,28.0947337 2.23818259,27.6180443 C2.40971732,26.8519483 2.52857344,26.0748748 2.59343399,25.2921462 C2.88217864,22.8125631 3.23018673,20.3383025 3.53539344,17.8603827 L3.55152627,17.7299834 C4.00884248,13.9740172 4.35685057,10.2000878 4.25643196,6.41717687 C4.24227459,5.85699203 4.21889845,5.29680718 4.18301115,4.73495908 C4.13263722,3.92096127 4.05921641,3.48951249 4.72132073,2.9802233 C5.45849207,2.41837519 6.42909553,2.02484867 7.27228258,1.65693629 C7.72630638,1.45767814 12.7245191,-0.336975801 12.8338272,0.0582139833 C13.0659423,0.897825949 13.1867739,1.76438267 13.1927002,2.63592917 C13.2029067,3.7054032 13.1538498,4.77487724 13.0455294,5.83902886 Z" id="Path"></path>
                                </g>
                                <g id="Group" transform="translate(22.000000, 48.000000)" fill="#006064">
                                    <path d="M0.0364116329,14.8151683 C0.110905157,17.2508755 0.496734845,19.6666926 0.882564533,22.0730702 L1.67827563,27.0331478 C2.11321092,29.7517005 2.5681893,32.5238556 3.84259645,34.9578772 C4.79631399,36.7803594 6.16859829,38.3344923 7.41193863,39.9675118 C10.4665072,43.9829733 12.7617763,48.5334475 15.6580043,52.6665646 C16.5008167,53.8680678 17.7040708,55.1686849 19.140159,54.9171918 C20.0831869,54.7536876 20.7673247,53.9601021 21.5065811,53.3499111 C22.3801262,52.6301554 23.432389,52.1028964 24.1205355,51.199072 C24.8083479,50.2952477 24.9429707,48.7960656 24.0113006,48.1531738 C23.6926153,47.9347186 23.3047813,47.8521237 22.9443395,47.7122181 C21.5009022,47.1610234 20.5655575,45.7356711 19.9719477,44.2954855 C19.3786719,42.8552998 19.0162258,41.3102692 18.2245233,39.9712202 C16.5024869,37.0632048 12.9802461,35.5272765 11.4987269,32.4871093 C10.6686084,30.7859911 10.588436,28.8131525 10.5266365,26.9266172 L10.3646214,22.0932975 C10.3462486,21.5643529 10.3335546,21.0148439 10.5466796,20.5317479 C11.1125631,19.2459642 12.8239099,19.1246002 14.2108924,18.961096 C15.7836077,18.7756788 17.3075515,18.2908972 18.7015491,17.5320354 C19.5006008,17.0964736 20.2796093,16.5419077 20.7038549,15.7334889 C21.0933592,14.9988998 21.1461393,14.1335074 21.1915704,13.2994673 L21.6722707,4.53867497 C21.7140272,3.78554418 21.7504388,3.00476937 21.4902126,2.29950992 C20.8294583,0.524899126 18.6086828,-0.0556251482 16.7319805,0.0289925015 C13.2404723,0.186765649 10.0185439,1.70246666 6.72045166,2.72731787 C5.9030272,2.9808337 5.08226223,3.20872825 4.23911579,3.37964916 C3.51121719,3.52832001 2.60092637,3.46797515 1.90209025,3.70665761 C0.649730514,4.13277995 0.680463268,6.89920399 0.504083982,8.04575629 C0.139633601,10.2825615 -0.0170366356,12.5490334 0.0364116329,14.8151683 Z" id="Path"></path>
                                </g>
                                <g id="Group" transform="translate(40.000000, 98.000000)" fill="#00BCD4">
                                    <path d="M0.683567722,5.49782375 C0.972359406,5.80130466 1.06642836,6.24480359 1.14136996,6.66355516 C1.55903611,8.98752863 1.77633539,11.3453669 1.79075929,13.7093921 C1.7719455,13.9301647 1.81427653,14.1515885 1.91210824,14.348265 C1.99394823,14.4648381 2.10432247,14.5566639 2.23162912,14.6142992 C3.06727498,15.0278408 4.03587163,14.4511619 4.73292257,13.8178246 C6.02323503,12.6449295 7.11506201,11.0692384 7.18843579,9.28970705 C7.20724958,8.83188069 7.1577066,8.36884436 7.23452958,7.91622798 C7.34741232,7.24544399 7.72494238,6.66192704 8.05637866,6.07613073 C8.62361444,5.07809532 9.0820438,4.01754024 9.42320054,2.91432851 C9.5495665,2.49915881 9.63516925,1.97751028 9.32066538,1.6883568 C9.21060471,1.5975079 9.08486587,1.529127 8.95003371,1.48777285 L5.17379239,0.032887953 C4.84580531,-0.093128263 4.03242243,2.07682539 3.90448866,2.3145304 C3.58841698,2.89479111 3.27391311,3.2230194 2.63988837,3.35782744 C2.00617719,3.49263549 1.22352351,3.29758713 0.618660145,3.63297913 C-0.406377875,4.19891242 0.104416537,4.89281566 0.683567722,5.49782375" id="Path"></path>
                                </g>
                                <g id="Group" transform="translate(30.000000, 104.000000)" fill="#00BCD4">
                                    <path d="M4.51389869,0.65471991 C4.44014863,0.515184297 4.33775457,0.391326843 4.21231363,0.290673063 C4.02925544,0.179671699 3.82051644,0.112318329 3.60420488,0.0943825157 C2.85057147,-0.0286283179 1.95733973,-0.10899456 1.43516297,0.425818792 C0.947227318,0.926579183 1.0315131,1.74152987 0.624241569,2.30531646 C0.494849725,2.47620839 0.319034853,2.62985435 0.208080523,2.81799225 C0.0697991628,3.10552969 0.00790179201,3.4212878 0.028643996,3.73704592 C0.00691406801,4.60687017 -0.0144866187,5.47983005 0.0500446828,6.34808648 C0.102064814,7.07586661 0.22948121,7.8397065 0.708527351,8.41039148 C1.47631814,9.32599596 2.86143643,9.45769249 4.08851888,9.51570168 L5.08414468,9.56524466 C5.35807347,9.59597385 5.63529467,9.57151592 5.89868774,9.49375225 C6.22858755,9.34919963 6.48243262,9.08329806 6.60194723,8.75719236 C7.12050233,7.53021965 6.30069141,6.20949156 5.79464748,4.97938322 C5.21156107,3.56301836 5.31560134,1.99269398 4.51389869,0.65471991" id="Path"></path>
                                </g>
                                <g id="Group" transform="translate(22.000000, 1.000000)" fill="#3F3D56">
                                    <path d="M3.42542684,6.84206999 C3.41258643,6.71602935 3.43168242,6.58903626 3.48106862,6.47188514 C3.62626405,6.22424862 4.00653779,6.29885706 4.29363624,6.36108367 C5.44729787,6.64142091 6.66351536,6.38711726 7.8530643,6.45283618 C9.04261324,6.5185551 10.3809793,7.09097644 10.6196792,8.21550021 C11.4826208,7.62656978 12.2260477,6.89032736 12.8137435,6.04264851 C13.1439725,5.5670594 13.4307417,5.02194158 13.3859649,4.45110766 C13.3214336,3.6275575 12.605663,3.01164103 11.9508019,2.48938197 L9.97732938,0.932129251 C9.71722873,0.702271765 9.41728987,0.518449273 9.09101171,0.388916326 C8.63534171,0.238429519 8.13654108,0.311133061 7.65584874,0.311133061 C6.22035652,0.311133061 4.68115329,-0.320340059 3.4020507,0.311133061 C2.86374112,0.575913645 2.4637129,1.03086638 2.07619585,1.47375476 L0.312450026,3.48754762 C0.179107286,3.61581064 0.0816518508,3.77486948 0.0289732374,3.94948497 C-0.0210714454,4.19521659 0.109966606,4.43745591 0.156389634,4.68477494 C0.239029208,5.13433046 0.0381919947,5.61531678 0.192276939,6.04772823 C0.448755938,6.76396924 1.35318188,6.86619867 1.90564884,7.27797375 C2.11010771,7.43004798 2.43309346,7.95103711 2.67903673,7.94405249 C3.11133061,7.93516297 3.41258643,7.17415691 3.42542684,6.84206999" id="Path"></path>
                                </g>
                                <g id="Group" transform="translate(29.000000, 9.000000) scale(-1, 1) rotate(-90.000000) translate(-29.000000, -9.000000) translate(23.000000, 3.000000)" fill="#FFF3E0">
                                    <path d="M5.822379,0.00372513052 C9.03276422,0.00372513052 11.6349372,2.60623677 11.6349372,5.81662198 C11.6349372,9.0270072 9.03276422,11.6291802 5.822379,11.6291802 C2.61199379,11.6291802 0.00948215042,9.0270072 0.00948215042,5.81662198 C0.00948215042,2.60623677 2.61199379,0.00372513052 5.822379,0.00372513052" id="Path"></path>
                                </g>
                                <g id="Group" transform="translate(10.000000, 15.000000)" fill="url(#linearGradient-19)">
                                    <path d="M20.2064369,6.21246649 C19.8027413,5.06836461 18.6989232,4.31400804 17.4756544,4.34617962 C17.304769,4.37868633 17.1277927,4.35623324 16.9704428,4.28217158 C16.881447,4.21481233 16.809709,4.12734584 16.7619964,4.02647453 C16.410074,3.39711796 16.1261674,2.73223861 15.9156907,2.04356568 C15.8236495,1.7386059 15.696416,1.37868633 15.3847616,1.3002681 C15.1340169,1.23626005 14.8775196,1.39711796 14.7096797,1.5924933 C14.5611278,1.80227882 14.3997173,2.00268097 14.2268016,2.19336461 C13.4891181,2.83981233 12.1985103,2.24966488 11.4256346,2.84316354 C11.2984011,2.9400134 11.1935011,3.06434316 11.0571312,3.15382038 C10.9241451,3.23391421 10.7810075,3.29524129 10.6311021,3.33646113 C9.13137121,3.81936997 7.66108002,4.38840483 6.22801138,5.04021448 L6.25102169,5.17727882 C6.06423211,5.11226542 5.82871481,5.15918231 5.48829756,5.36159517 C4.66770926,5.84919571 3.90464674,6.49932976 3.12804875,7.0616622 C2.89422338,7.21213137 2.68814574,7.40180965 2.51962905,7.62231903 C2.30746045,7.94168901 2.26347015,8.35254692 2.08074121,8.68130027 C1.68990431,9.40080429 0.773552514,9.65851206 0.20370893,10.2483244 C0.111329299,10.3287534 0.0470357828,10.435992 0.0191385332,10.5549598 C0.0159041855,10.7154826 0.0700460938,10.872319 0.172577333,10.9969839 L2.9273853,15.2845174 C3.84915129,15.3649464 4.72320472,14.7952413 5.64158684,14.8719839 C5.98268086,14.8991287 6.33460326,15.0160858 6.66283858,14.9155496 C6.89767911,14.8123324 7.11763061,14.6789544 7.31761729,14.519437 C7.66446389,14.3042895 8.0783111,14.2081099 8.45189026,14.0549598 C8.46170348,14.0784182 8.47117832,14.1018767 8.48099154,14.125 C9.05624931,15.4946381 9.70730576,16.8367962 10.1681888,18.2483244 C11.1897789,21.3766756 11.2341076,24.7238606 11.2469663,28.0123995 C11.2469663,30.2623995 11.2469663,32.5596515 10.5092828,34.6886729 C10.3434732,35.1709115 10.140441,35.6494638 10.0944204,36.1497989 C10.0483998,36.650134 10.1996587,37.2161528 10.6145211,37.5157507 C10.8547758,37.6725871 11.1302228,37.7684316 11.4164981,37.7949062 C12.6905249,37.9775469 13.9740265,37.6454424 15.2280885,37.3569035 C18.5892858,36.586126 22.0191757,36.1441019 25.4395907,35.7131367 L31.174234,34.9829088 C31.5853741,34.9544236 31.9880545,34.8508713 32.3616337,34.6779491 C33.4106332,34.1099196 33.5101189,32.5469169 32.8573706,31.5532842 C32.5460546,31.0767426 32.1051364,30.685992 31.841533,30.1819705 C31.5779296,29.6779491 31.5576264,28.969504 32.0093729,28.6206434 C32.9311389,27.9085121 32.6546768,26.5881367 32.6990055,25.4339812 C32.8218399,22.205429 32.805259,18.9795576 32.6492626,15.7556971 C32.6144088,15.2620643 32.5995197,14.7670912 32.6039188,14.2724531 C32.7210006,14.3210456 32.8489109,14.338807 32.9754676,14.3240617 C33.6112966,14.2811662 34.2498328,14.2902145 34.8839699,14.3515416 C35.5235212,14.4145442 36.1200973,14.6997319 36.5674448,15.1568365 C36.7572799,15.3703083 36.8973721,15.6260054 37.096682,15.8307641 C37.2824564,16.0542895 37.5694085,16.1702413 37.8600829,16.1390751 C38.0712363,16.0764075 38.2593795,15.9547587 38.4021787,15.7885389 C39.6819581,14.5455764 40.8720649,13.2151475 41.9647163,11.8076408 C41.5183839,10.911193 41.0629151,10.0090483 40.3898635,9.26776139 C39.9472534,8.77815013 39.4291831,8.38371314 39.0254875,7.83579088 C38.6214535,7.28820375 38.3839058,6.63069705 37.9649828,6.09550938 C37.5633176,5.63170241 37.0963436,5.22687668 36.5786116,4.89410188 C36.1535976,4.59115282 35.5353647,3.95408847 34.9824405,3.63404826 L34.9909001,3.60120643 C34.5354313,2.88907507 33.6634082,2.43599196 32.8390977,2.23156836 C32.0147871,2.02714477 31.1535924,1.96682306 30.3404486,1.71648794 C28.6809991,1.20542895 27.1910815,-0.091152815 25.4524495,0.029155496 C25.3204785,0.0315013405 25.1908764,0.0626675603 25.0724409,0.120643432 C24.681604,0.341487936 24.7425137,0.900469169 24.7184882,1.3458445 C24.6633311,2.33378016 23.9293699,3.1575067 23.1216403,3.73626005 C22.3139107,4.3150134 21.3884225,4.73525469 20.6453248,5.394437 C20.3840901,5.58947721 20.2233563,5.88907507 20.2064369,6.21246649 Z" id="Path"></path>
                                </g>
                                <g id="Group" transform="translate(5.000000, 25.000000)" fill="#FFF3E0">
                                    <path d="M2.88603546,2.10516909 C2.52951413,2.34880768 2.15041626,2.55359579 1.75501309,2.71722873 C1.37905084,2.87295988 0.977376417,2.99708386 0.669770942,3.26969569 C0.517692802,3.40830629 0.389759027,3.57424392 0.292240879,3.75927755 C-0.078704357,4.45035511 -0.0620855087,5.29848079 0.335199034,5.97276704 C0.73279714,6.64738253 1.44803474,7.04148441 2.20246774,7.00131697 C2.69632974,6.97431918 3.16259818,6.76459245 3.61569697,6.55815813 L7.4123199,4.82338554 C8.05481084,4.53101924 8.74841259,4.18992522 9.05256887,3.52617469 C9.08737438,3.46394807 9.10054403,3.39118574 9.09019645,3.32006961 C9.06072151,3.24171017 9.0045937,3.17783735 8.93278773,3.14063308 C8.07738739,2.55590048 7.32891209,1.81444899 6.7234216,0.951836696 C6.56820783,0.729269555 6.3819513,0.205446592 6.15618582,0.0707868868 C5.35315053,-0.39739429 3.53009423,1.66760736 2.88603546,2.10516909" id="Path"></path>
                                </g>
                                <g id="Group" transform="translate(42.000000, 26.000000)" fill="#FFF3E0">
                                    <path d="M9.42060761,0.0293326421 L10.8738644,1.78963626 C11.1861371,2.16578426 11.4984099,2.54158717 11.7823534,2.94775799 C12.4808154,3.96749867 13.0412131,5.08593506 13.4466141,6.27062871 C13.7624687,7.14888252 14.0252467,8.08511144 13.915186,9.01788946 C13.8412695,9.49618407 13.7194864,9.96447108 13.5511391,10.4151585 C13.2851049,11.2813342 12.9545973,12.1240437 12.5628724,12.935005 C12.2359466,13.5503003 11.8663642,14.1390237 11.457707,14.696689 C10.3320272,16.2775458 9.10051991,17.7700597 7.77230248,19.1628426 C7.27540133,19.6835832 7.06244369,20.5280182 6.8514398,21.2313115 C6.45222564,22.530575 5.5027081,23.544104 4.58542727,24.503454 C4.29041256,24.833705 3.96413802,25.1311725 3.61148799,25.3906801 C3.083327,25.7519893 2.46529398,25.9379927 1.83684102,25.9248793 C1.5626662,25.9266047 1.291422,25.8669042 1.04036643,25.7499187 C0.412239094,25.4341614 0.0928026397,24.664956 0.0270267337,23.93164 C-0.0309342132,23.2652714 0.0742421118,22.5944166 0.332461387,21.9836075 C1.16638265,20.0259124 3.30800708,19.1780265 4.82150416,17.7486641 C5.70882765,16.9118211 6.38807785,15.8589518 7.05886184,14.8191959 C7.51310634,14.1690465 7.8927831,13.4640278 8.1891003,12.7186336 C8.52644604,11.7613542 8.39489423,10.6294593 8.69121143,9.65906651 C8.81559953,9.24737425 9.04614082,8.87674769 9.17215704,8.46885142 C9.29817325,8.06095515 9.34082991,7.57748419 9.10475301,7.22583757 C8.92793956,7.00118404 8.701957,6.82553328 8.44666833,6.71441433 C7.47956714,6.19539911 6.3971953,5.52592469 6.21256689,4.39195925 C6.1386504,3.76424071 6.29332147,3.12996546 6.64564587,2.61888731 C6.99569092,2.11402077 7.40532503,1.65919227 7.86445388,1.2650996 C8.28515918,0.862379679 8.99664608,0.416868608 9.42060761,0.0293326421" id="Path"></path>
                                </g>
                                <g id="Group" transform="translate(0.000000, 28.000000)" fill="#FFF3E0">
                                    <path d="M6.65621157,1.54355863 C6.40303171,1.00443065 6.08502489,0.454804572 5.57156967,0.187272471 C5.06682255,-0.0416537322 4.49466831,-0.0416537322 3.98992118,0.187272471 C3.49259207,0.412812191 3.02687012,0.708452095 2.60501119,1.06538733 L1.36426858,2.02680965 C1.08302929,2.22085509 0.834364732,2.46197263 0.627950573,2.74101877 C0.431212078,3.079667 0.300913141,3.45590518 0.244794291,3.84805983 C0.0690197343,4.74683223 -0.0732125219,5.67134189 0.0496684069,6.58128969 C0.246729424,8.05745732 1.09012478,9.33449979 2.01802092,10.4564414 C2.59823822,11.1540567 3.3152049,11.8587837 4.19730291,11.890278 C4.57884658,11.9031466 5.00231813,11.7443206 5.16035397,11.380951 C5.21550525,11.2363482 5.24485476,11.0826019 5.24646737,10.9268238 C5.3416114,9.28810498 4.78268056,7.68833075 4.13247596,6.19556935 C3.9567014,5.78953013 3.76673587,5.36892902 3.78092685,4.92394525 C3.77544397,4.8484267 3.79415025,4.77324679 3.83349795,4.70991957 C3.88929428,4.64862424 3.96411941,4.61001834 4.04442742,4.60121349 C4.93555605,4.4166502 6.4714064,5.14372795 7.09548671,4.10475519 C7.49960693,3.41831523 6.94422383,2.15414139 6.65621157,1.54355863" id="Path"></path>
                                </g>
                                <g id="Group" transform="translate(22.000000, 0.000000)" fill="#212121">
                                    <path d="M3.42378063,6.84206999 C3.41258643,6.71602935 3.43234091,6.58903626 3.48106862,6.47188514 C3.62659329,6.22266121 4.00686703,6.29885706 4.29396548,6.36108367 C5.44762711,6.64110343 6.6638446,6.38711726 7.85339354,6.4525187 C9.04294248,6.5185551 10.3793331,7.09097644 10.6196792,8.21550021 C11.4819623,7.62561733 12.2253892,6.88937491 12.8140727,6.04264851 C13.1439725,5.56515451 13.431071,5.02035417 13.3862942,4.44952025 C13.3217629,3.62597009 12.6040167,3.01005362 11.9511312,2.48938197 L9.97765862,0.932129251 C9.71821645,0.702271765 9.41893608,0.518449273 9.09298716,0.388916326 C8.63567095,0.238429519 8.13851653,0.311133061 7.65782419,0.311133061 C6.22266121,0.311133061 4.68312873,-0.320340059 3.40402615,0.311133061 C2.86571657,0.575913645 2.46568835,1.03086638 2.0781713,1.47375476 L0.312779267,3.48754762 C0.18009501,3.61612812 0.0832980575,3.77486948 0.0312779267,3.94948497 C-0.0190959974,4.19489911 0.111942054,4.43745591 0.158694323,4.68477494 C0.241004656,5.13433046 0.0401674427,5.61531678 0.194581628,6.04614082 C0.451060627,6.76396924 1.35515733,6.86619867 1.90762429,7.27797375 C2.1124124,7.43004798 2.43539815,7.95071963 2.68101218,7.94405249 C3.10639199,7.93516297 3.40764781,7.17415691 3.42378063,6.84206999" id="Path"></path>
                                </g>
                            </g>
                        </g>
                    </g>
                </g>
            </g>
        </g>
    </g>
</svg>