<?xml version="1.0" encoding="UTF-8"?>
<svg width="212px" height="148px" viewBox="0 0 212 148" version="1.1" xmlns="http://www.w3.org/2000/svg" xmlns:xlink="http://www.w3.org/1999/xlink">
    <!-- Generator: Sketch 64 (93537) - https://sketch.com -->
    <title>Artwork</title>
    <desc>Created with Sketch.</desc>
    <defs>
        <linearGradient x1="0%" y1="50.0036936%" x2="100%" y2="50.0036936%" id="linearGradient-1">
            <stop stop-color="#E91E63" offset="0%"></stop>
            <stop stop-color="#F8BBD0" offset="100%"></stop>
        </linearGradient>
        <linearGradient x1="0%" y1="49.9926123%" x2="100%" y2="49.9926123%" id="linearGradient-2">
            <stop stop-color="#E91E63" offset="0%"></stop>
            <stop stop-color="#F8BBD0" offset="100%"></stop>
        </linearGradient>
        <linearGradient x1="33.9149875%" y1="28.6050995%" x2="66.0853422%" y2="71.3949005%" id="linearGradient-3">
            <stop stop-color="#E91E63" offset="0%"></stop>
            <stop stop-color="#FF9800" offset="100%"></stop>
        </linearGradient>
        <linearGradient x1="68.5017594%" y1="93.1929459%" x2="31.4982406%" y2="6.80590758%" id="linearGradient-4">
            <stop stop-color="#FF9800" offset="0%"></stop>
            <stop stop-color="#FFE0B2" offset="100%"></stop>
        </linearGradient>
        <linearGradient x1="0%" y1="49.9992822%" x2="100.000153%" y2="49.9992822%" id="linearGradient-5">
            <stop stop-color="#00BCD4" offset="0%"></stop>
            <stop stop-color="#B2EBF2" offset="100%"></stop>
        </linearGradient>
        <linearGradient x1="0%" y1="50.0009957%" x2="99.9988945%" y2="50.0009957%" id="linearGradient-6">
            <stop stop-color="#00BCD4" offset="0%"></stop>
            <stop stop-color="#B2EBF2" offset="100%"></stop>
        </linearGradient>
    </defs>
    <g id="Landing" stroke="none" stroke-width="1" fill="none" fill-rule="evenodd">
        <g id="Slider-2" transform="translate(-2058.000000, -154.000000)">
            <g id="Item" transform="translate(1713.000000, 72.000000)">
                <g id="Artwork" transform="translate(345.000000, 82.000000)">
                    <g id="Group-12" transform="translate(51.000000, 140.000000)">
                        <g id="Group" fill="url(#linearGradient-1)">
                            <path d="M17.1567659,4.22894031 C17.0858614,4.22894031 17.0165444,4.23289121 16.9482856,4.23832369 C17.0805701,3.90348525 17.1567659,3.54395372 17.1567659,3.16614929 C17.1567659,1.43022435 15.6280866,0.023211514 13.7427684,0.023211514 C13.2220968,0.023211514 12.7310569,0.132848878 12.2897559,0.324961197 C11.2182517,0.791166925 10.451531,1.75370397 10.344116,2.89156201 C9.96154932,2.10088895 9.10222943,1.54875123 8.10110061,1.54875123 C6.743862,1.54875123 5.64431353,2.5616622 5.64431353,3.81014534 C5.64431353,3.99238041 5.67024129,4.16918301 5.71415973,4.33907154 C5.2580429,4.0328771 4.72149711,3.82298575 4.13891633,3.74199238 C3.96430083,3.71779314 3.78651051,3.70396501 3.60448709,3.70396501 C3.54469451,3.70396501 3.48543107,3.70544659 3.42616763,3.7079159 C1.63503598,3.78841541 0.189960491,5.07788909 0.0280443065,6.70862142 L19.4743897,6.70862142 C19.4913221,6.60441654 19.5029632,6.49823621 19.5029632,6.38958657 C19.5029632,6.20833921 19.4759771,6.0330182 19.4299421,5.86461126 C19.1748977,4.92479187 18.254727,4.22894031 17.1567659,4.22894031 Z" id="Path"></path>
                        </g>
                        <g id="Group" transform="translate(87.000000, 0.000000)" fill="url(#linearGradient-2)">
                            <path d="M17.1350713,4.22943418 C17.0646959,4.22943418 16.9948497,4.23338507 16.9271201,4.23881755 C17.0594045,3.90397912 17.1350713,3.54395372 17.1350713,3.16664315 C17.1350713,1.43071822 15.6069211,0.023705376 13.7210738,0.023705376 C12.9601736,0.023705376 12.2585368,0.254832792 11.691301,0.642514463 C10.9288133,1.16403274 10.4091999,1.97050938 10.3224213,2.89156201 C9.93932553,2.10088895 9.08000564,1.54875123 8.07887682,1.54875123 C6.72216735,1.54875123 5.62208974,2.5616622 5.62208974,3.81014534 C5.62208974,3.99238041 5.6480175,4.16918301 5.69246508,4.33907154 C5.23581911,4.0328771 4.69927332,3.82298575 4.11669254,3.74199238 C3.94207704,3.718287 3.76481586,3.70396501 3.58279244,3.70396501 C3.523529,3.70396501 3.46320728,3.70544659 3.40447298,3.7079159 C1.61334133,3.78890927 0.167736701,5.07788909 0.00582051644,6.70862142 L19.4526951,6.70862142 C19.4696275,6.60441654 19.4807394,6.49823621 19.4807394,6.38958657 C19.4807394,6.30316072 19.4738606,6.21821645 19.4632778,6.13425991 C19.325702,5.06159165 18.3362142,4.22943418 17.1350713,4.22943418 Z" id="Path"></path>
                        </g>
                    </g>
                    <g id="Group" transform="translate(25.000000, 17.000000)" fill="url(#linearGradient-3)">
                        <polygon id="Path" points="163.163865 62.2994769 163.163865 106.204116 0.0381897596 106.204116 0.0381897596 75.0611179 19.5757481 75.0611179 19.5757481 0.0415196839 54.3494068 0.0415196839 54.3494068 24.2836229 71.3363194 24.2836229 73.8729801 25.8198512 73.887503 25.7389687 73.887503 37.946295 103.670675 37.946295 103.670675 24.2836229 134.721101 24.2836229 134.721101 62.2989377"></polygon>
                    </g>
                    <g id="Group-8" transform="translate(154.000000, 0.000000)" fill="#BF360C">
                        <g id="Group" transform="translate(4.000000, 24.000000)">
                            <path d="M4.8191054,0.25186962 L0.24199238,4.82898264 C-0.0488923381,5.1193735 -0.0488923381,5.59101171 0.24199238,5.88140257 C0.387187809,6.02709186 0.577818541,6.09968957 0.767955411,6.09968957 C0.958586144,6.09968957 1.14872301,6.02709186 1.2944123,5.88140257 L5.87201919,1.30428954 C6.16241005,1.01389869 6.16241005,0.542754339 5.87201919,0.25186962 C5.58113447,-0.0385212361 5.11048398,-0.0385212361 4.8191054,0.25186962" id="Path"></path>
                        </g>
                        <g id="Group" transform="translate(25.000000, 16.000000)">
                            <path d="M0.0457175109,0.660364047 C0.0457175109,1.01255821 0.413090367,1.29871596 0.865911427,1.29871596 L7.9994759,1.29871596 C8.45229696,1.29871596 8.81966982,1.01255821 8.81966982,0.660364047 C8.81966982,0.308169889 8.45229696,0.0224354452 7.9994759,0.0224354452 L0.865911427,0.0224354452 C0.413090367,0.0224354452 0.0457175109,0.307746578 0.0457175109,0.660364047" id="Path"></path>
                        </g>
                        <g id="Group" transform="translate(0.000000, 16.000000)">
                            <path d="M0.859380354,1.29871596 L7.99294483,1.29871596 C8.44576589,1.29871596 8.81313874,1.01255821 8.81313874,0.660364047 C8.81313874,0.308169889 8.44576589,0.0224354452 7.99294483,0.0224354452 L0.859380354,0.0224354452 C0.406559294,0.0224354452 0.0386421819,0.308169889 0.0386421819,0.660364047 C0.0386421819,1.01255821 0.406559294,1.29871596 0.859380354,1.29871596" id="Path"></path>
                        </g>
                        <g id="Group" transform="translate(4.000000, 5.000000)">
                            <path d="M4.8191054,5.87942712 C4.96479469,6.02511641 5.15493156,6.09722026 5.3455623,6.09722026 C5.53619303,6.09722026 5.7263299,6.02462255 5.87201919,5.87942712 C6.16241005,5.5885424 6.16241005,5.11739805 5.87201919,4.82651333 L1.2944123,0.249894172 C1.00352759,-0.0409905461 0.532383237,-0.0409905461 0.24199238,0.249894172 C-0.0488923381,0.540285029 -0.0488923381,1.01192324 0.24199238,1.3023141 L4.8191054,5.87942712 Z" id="Path"></path>
                        </g>
                        <g id="Group" transform="translate(23.000000, 24.000000)">
                            <path d="M4.81762382,5.88189643 C4.96331311,6.02758572 5.15344998,6.09968957 5.34408071,6.09968957 C5.53471144,6.09968957 5.72484831,6.02709186 5.8705376,5.88189643 C6.16092846,5.59101171 6.16092846,5.11986736 5.8705376,4.82898264 L1.29293072,0.25186962 C1.00253986,-0.0390150981 0.530901651,-0.0390150981 0.240510794,0.25186962 C-0.0503739241,0.542260477 -0.0503739241,1.01389869 0.240510794,1.30428954 L4.81762382,5.88189643 Z" id="Path"></path>
                        </g>
                        <g id="Group" transform="translate(23.000000, 5.000000)">
                            <path d="M0.766473825,6.09771412 C0.95759842,6.09771412 1.14773529,6.02511641 1.29293072,5.87942712 L5.8705376,1.3023141 C6.16092846,1.01142938 6.16092846,0.540285029 5.8705376,0.24940031 C5.57965289,-0.0409905461 5.10850854,-0.0409905461 4.81762382,0.24940031 L0.240510794,4.8270072 C-0.0503739241,5.11739805 -0.0503739241,5.58903626 0.240510794,5.87942712 C0.385706223,6.02511641 0.576336955,6.09771412 0.766473825,6.09771412" id="Path"></path>
                        </g>
                        <g id="Group" transform="translate(17.000000, 0.000000)">
                            <path d="M0.672216735,8.8049749 C1.02441089,8.8049749 1.31056865,8.43705779 1.31056865,7.98423673 L1.31056865,0.850128001 C1.31056865,0.39730694 1.02441089,0.0299340845 0.672216735,0.0299340845 C0.320022577,0.0299340845 0.0342881332,0.39730694 0.0342881332,0.850128001 L0.0342881332,7.98423673 C0.0342881332,8.43760205 0.320022577,8.8049749 0.672216735,8.8049749" id="Path"></path>
                        </g>
                        <g id="Group" transform="translate(17.000000, 26.000000)">
                            <path d="M0.0342881332,7.97824991 L0.0342881332,0.844141184 C0.0342881332,0.391320123 0.320022577,0.0239472676 0.672216735,0.0239472676 C1.02441089,0.0239472676 1.31056865,0.391320123 1.31056865,0.844141184 L1.31056865,7.97824991 C1.31056865,8.43161523 1.02441089,8.79898809 0.672216735,8.79898809 C0.320022577,8.79898809 0.0342881332,8.43161523 0.0342881332,7.97824991" id="Path"></path>
                        </g>
                    </g>
                    <g id="Group" transform="translate(0.000000, 132.000000)" fill="#00BCD4">
                        <path d="M211.177189,13.8751994 L205.114296,13.8751994 C207.018296,12.5430094 208.722017,11.5505096 210.443552,9.70409526 C212.591018,7.39972431 209.672127,4.89841639 206.258207,5.87372329 C204.693224,6.32125995 202.455066,8.21039607 200.80155,10.126103 C200.66875,11.3921264 200.592633,12.6393939 200.344309,13.8751994 L199.469235,13.8751994 C199.505944,13.1197534 199.591778,12.0366001 199.789358,10.5960426 C200.212589,7.4966298 201.06175,5.39023781 200.976456,2.29186702 C200.891702,-0.80702478 196.989771,-0.683548426 195.208853,2.29186702 C193.692455,4.82287178 194.756471,11.8391421 195.106824,13.8751994 L193.169355,13.8751994 C192.772036,13.4875775 192.376876,13.0978715 191.975238,12.7144175 C191.535272,12.3903572 191.089908,12.0694229 190.668836,11.7198337 C189.093056,10.4095256 187.482187,9.14610717 186.032189,7.70346572 C185.695331,7.36794347 186.22545,6.85684514 186.562307,7.1913254 C188.093281,8.71420043 189.782426,10.1552789 191.517998,11.4577721 C192.379035,12.1027667 193.28164,12.7138965 194.03903,13.4563176 C193.753457,12.3184596 193.527805,11.1691396 193.405263,10.0047107 C191.751746,8.0890037 189.8024,6.19934658 188.237417,5.75233092 C184.823497,4.77650302 181.904606,7.27781094 184.052072,9.58270289 C185.825432,11.4859059 187.580437,12.4794477 189.554616,13.8746784 L29.0032047,13.8751994 C30.9066649,12.5430094 32.6109257,11.5505096 34.3319214,9.70409526 C36.4793872,7.39972431 33.5604964,4.89841639 30.1465764,5.87372329 C28.5810533,6.32125995 26.3428951,8.21039607 24.6899187,10.126103 C24.5571191,11.3921264 24.4804625,12.6393939 24.232678,13.8751994 L23.3576045,13.8751994 C23.3937735,13.1197534 23.4796074,12.0366001 23.677727,10.5960426 C24.1014979,7.4966298 24.9495796,5.39023781 24.8648254,2.29186702 C24.7800712,-0.80702478 20.8781399,-0.683548426 19.0966825,2.29186702 C17.5808243,4.82287178 18.6443004,11.8391421 18.9951935,13.8751994 L17.0571838,13.8751994 C16.6598649,13.4875775 16.2652451,13.0978715 15.8636074,12.7144175 C15.4231016,12.3903572 14.9777373,12.0694229 14.5572054,11.7198337 C12.9808856,10.4095256 11.3705562,9.14610717 9.92001805,7.70346572 C9.58316067,7.36794347 10.1127393,6.85684514 10.4495967,7.1913254 C11.9805703,8.71420043 13.6697158,10.1552789 15.4058269,11.4577721 C16.2668646,12.1027667 17.1689298,12.7138965 17.9268589,13.4563176 C17.6407461,12.3184596 17.4150948,11.1691396 17.293092,10.0047107 C15.6395757,8.0890037 13.6902295,6.19934658 12.1247064,5.75233092 C8.71078642,4.77650302 5.79189561,7.27781094 7.93936142,9.58270289 C9.71326103,11.4859059 11.4682664,12.4794477 13.442445,13.8746784 L0.829187403,13.8751994 C0.379504391,13.8751994 0.0151153954,14.2268726 0.0151153954,14.6603423 C0.0151153954,15.0943331 0.379504391,15.4460062 0.829187403,15.4460062 L211.176649,15.4460062 C211.625792,15.4460062 211.990721,15.0938121 211.990721,14.6603423 C211.990721,14.2268726 211.626872,13.8751994 211.177189,13.8751994 Z M22.3923786,2.66385907 C22.0517423,3.53184053 21.8239317,4.43160283 21.6576624,5.34439005 C21.5102873,6.31084 21.3947625,7.28197892 21.3083888,8.25520183 C21.2867954,8.54383432 21.2673613,8.83298781 21.2495467,9.12005731 C21.1518365,10.707015 21.0989326,12.2981407 21.2533256,13.8746784 L20.497016,13.8746784 C20.3437027,12.2970987 20.3847302,10.700242 20.500255,9.12005731 C20.6627455,6.87976902 20.8392717,4.589986 21.6689989,2.47109008 C21.8390471,2.03970433 22.5635064,2.22666547 22.3923786,2.66385907 Z M25.6292325,13.8751994 L24.6175807,13.8751994 C25.6405691,12.805592 26.7709847,11.8412261 27.9062589,10.8711292 C29.3497791,9.6379286 30.6561812,8.27395773 32.2432977,7.20487132 C32.6406166,6.93707872 33.0147227,7.56435944 32.6211826,7.82954706 C30.9709053,8.94083425 29.5689524,10.3824337 28.0741477,11.6765909 C27.2444205,12.3955672 26.4087551,13.1093334 25.6292325,13.8751994 Z M204.01843,10.8706082 C205.46141,9.6379286 206.767812,8.27343674 208.354929,7.20435033 C208.751708,6.93655773 209.126354,7.56435944 208.733353,7.82954706 C207.082536,8.94083425 205.680583,10.3824337 204.185779,11.6765909 C203.355512,12.3955672 202.519846,13.1093334 201.740324,13.8751994 L200.729212,13.8751994 C201.7522,12.805592 202.883155,11.8407051 204.01843,10.8706082 Z M196.612426,9.12005731 C196.774916,6.87976902 196.950903,4.589986 197.78117,2.47109008 C197.950678,2.03918334 198.674597,2.22625961 198.50347,2.66333807 C198.163373,3.53184053 197.935563,4.43160283 197.769293,5.34386906 C197.621918,6.310319 197.506393,7.28145792 197.41948,8.25468083 C197.397886,8.54331333 197.378452,8.83246681 197.361178,9.11953631 C197.263467,10.706494 197.210563,12.2981407 197.365496,13.8741574 L196.608647,13.8746784 C196.455873,12.2970987 196.497441,10.700763 196.612426,9.12005731" id="Shape"></path>
                    </g>
                    <g id="Group" transform="translate(28.000000, 16.000000)">
                        <g id="Group-11" transform="translate(0.027938, 0.040214)">
                            <g id="Group-13" transform="translate(62.976374, 9.995736)" fill="#FFF3E0">
                                <path d="M15.5825052,6.18941552 C15.4040652,6.26238998 15.156082,6.31068191 14.8795269,6.3273158 C14.8428685,9.18244193 14.9043252,11.4392847 12.3285352,11.1275335 C11.6050714,11.0427543 10.7349741,10.7594417 9.82121016,10.3269606 C9.1430302,9.33214691 8.90259439,7.50402913 9.08157351,6.46843555 C9.0912772,6.41263154 9.09505086,6.35843727 9.09558995,6.3063893 C11.2309403,5.06957935 12.7102136,2.72473793 12.8422916,-6.92779167e-14 C13.0557727,0.0160973095 13.2681757,0.033267773 13.4692576,0.0499016595 C14.0929891,0.101949627 14.6078237,0.150241556 14.713486,0.16365598 L14.7582308,0.167412019 C15.0628188,1.19871298 15.1684812,2.331427 15.0266995,3.50384771 C15.018074,3.58916345 15.0099876,3.67394261 15.0019012,3.75872178 C15.0789916,3.87623214 15.1523084,4.00554719 15.213226,4.1429109 C15.6148508,5.09748135 16.3911458,5.84976228 15.5825052,6.18941552 Z" id="Path"></path>
                                <path d="M7.81901592,6.88374613 C7.13328866,7.11340108 6.40497299,7.2411064 5.64754625,7.2411064 C4.48472101,7.2411064 3.38982158,6.94223302 2.41675734,6.42497281 L-1.33226763e-13,12.2275163 L8.21147618,17.1656343 L9.21526877,11.6657202 C8.21363256,10.5405183 7.74462098,8.54767136 7.81901592,6.88374613 Z" id="Path"></path>
                            </g>
                            <polygon id="Path" fill="#006064" points="93 106.221462 103.554019 106.221462 93.9416302 102"></polygon>
                            <g id="Group" transform="translate(57.972062, 21.959786)" fill="url(#linearGradient-4)">
                                <path d="M39.40537,32.8667366 C39.40537,32.8667366 29.505732,30.5461879 27.0126612,30.861069 C25.7637044,28.202798 24.3743004,25.8958451 24.3743004,25.8958451 C24.3743004,25.8958451 20.725366,17.1868533 17.9282622,12.2934158 C16.8746398,9.74391197 15.5820959,7.71757855 14.2056066,6.16166337 C13.1326122,4.94782113 15.0337602,2.79151086 13.9381651,2.1176979 L5.22237251,0.0016315084 C5.22237251,1.27148888 4.87798112,1.89091823 4.51098905,2.38689678 C1.97648369,3.32066342 0.742055815,27.5420371 0.309952248,38.7445175 L0.0435870348,38.5025105 C0.0452013694,38.7651833 0.0468157041,39.0207863 0.0484300387,39.2731263 C0.126994324,39.2437591 0.208787278,39.2230933 0.292194567,39.2094974 C0.19910127,41.6785135 0.146904451,43.4470686 0.130222993,44.07955 L15.0902619,44.07955 C15.5933962,41.4664174 16.3725817,37.3669806 17.1280904,33.0924286 C20.908862,36.6317142 23.190455,38.2822568 27.4953473,38.7766039 C32.3534183,39.5602717 40.50527,39.5488512 45.768539,38.4464953 L45.768539,33.8799033 C42.7335899,33.2414397 39.40537,32.8667366 39.40537,32.8667366 Z" id="Path"></path>
                            </g>
                            <g id="Group" transform="translate(75.924507, 13.440244) scale(-1, 1) rotate(-5.511788) translate(-75.924507, -13.440244) translate(75.424507, 12.440244)" fill="#D7CCC8">
                                <path d="M0.433687244,0.244172834 C0.656639223,0.241477811 0.835864543,0.531462332 0.835864543,0.891517463 C0.835324707,1.25318961 0.654479882,1.54748617 0.433687244,1.55018119 C0.210735264,1.55287621 0.0331294505,1.26181368 0.0315051636,0.901758552 C0.030430274,0.540625412 0.21235477,0.245789849 0.433687244,0.244172834" id="Path"></path>
                            </g>
                            <g id="Group" transform="translate(70.972062, 15.959786)" fill="#00BCD4">
                                <path d="M1.03838013,0.154931565 C1.04599972,0.101594469 1.04896289,0.0507972344 1.0493862,0.00152391703 C0.732326796,0.222491887 0.397488359,0.406885847 0.0469874418,0.548102159 C-0.0110060674,2.1233244 0.357273882,4.00942571 1.14378439,5.07464371 L1.35755609,3.65790885 C1.44687456,3.71175392 1.53322986,3.76153521 1.61873854,3.80725272 C1.0862142,2.86547199 0.898264428,1.13531819 1.03838013,0.154931565" id="Path"></path>
                            </g>
                            <g id="Group" transform="translate(118.972062, 113.959786)" fill="#FF9800">
                                <path d="M18.9277021,0.0246729424 C19.5781007,0.834767885 19.9683399,1.83659215 19.9683399,2.92579975 C19.9683399,5.60332803 17.6412357,7.77351892 14.771214,7.77351892 C11.90009,7.77351892 9.57353693,5.60332803 9.57353693,2.92579975 C9.57353693,1.83607813 9.96322492,0.834767885 10.6141747,0.0246729424 L0.350002646,0.0246729424 C0.13393802,0.960702695 0.0181891139,1.93065774 0.0181891139,2.92579975 C0.0181891139,5.67015058 0.883549986,8.22431414 2.36734073,10.3708601 C2.95821134,9.96684069 3.689083,9.72627951 4.48168742,9.72627951 C6.44611172,9.72627951 8.03793477,11.1912355 8.03793477,12.9980145 C8.03793477,13.3907255 7.95911528,13.7649318 7.82131896,14.1134371 C7.89242186,14.1077829 7.96462713,14.1036707 8.03793477,14.1036707 C9.28967652,14.1036707 10.3198418,14.9703078 10.46315,16.0867585 C11.8262311,16.4743293 13.2725413,16.6840493 14.771214,16.6840493 C22.9182835,16.6840493 29.5236877,10.525066 29.5236877,2.92579975 C29.5236877,1.93065774 29.4079388,0.960188675 29.1924254,0.0246729424 L18.9277021,0.0246729424 Z" id="Path"></path>
                            </g>
                            <g id="Group" transform="translate(32.972062, 111.959786)" fill="#FF9800">
                                <path d="M19.9909385,3.51635389 C19.9909385,6.30884718 17.6638343,8.57319035 14.7932614,8.57319035 C11.9226885,8.57319035 9.59558434,6.30884718 9.59558434,3.51635389 C9.59558434,2.1613941 10.1467696,0.933512064 11.0391386,0.0257372654 L0.48228711,0.0257372654 C0.195119585,1.14369973 0.0407877099,2.31206434 0.0407877099,3.51635389 C0.0407877099,6.23270777 0.816305383,8.77211796 2.16450455,10.9378016 C2.62364188,10.7292225 3.13569299,10.6096515 3.6780593,10.6096515 C5.64193241,10.6096515 7.23375547,12.1378016 7.23375547,14.0225201 C7.23375547,14.4321716 7.15493597,14.8225201 7.01713966,15.186059 C7.08824256,15.1801609 7.16044783,15.1764075 7.23375547,15.1764075 C8.37801609,15.1764075 9.33597608,15.9319035 9.60219857,16.9517426 C11.2171714,17.5426273 12.9660823,17.8680965 14.7938126,17.8680965 C22.9408821,17.8680965 29.5462863,11.4434316 29.5462863,3.51635389 C29.5462863,2.31206434 29.3919545,1.14369973 29.1047869,0.0257372654 L18.5479355,0.0257372654 C19.4397532,0.933512064 19.9909385,2.1613941 19.9909385,3.51635389" id="Path"></path>
                            </g>
                            <g id="Group" transform="translate(38.972062, 79.959786)" fill="#006064">
                                <path d="M36.1002079,2.83512064 C36.1002079,1.28527586 34.4569352,0.0296317201 32.4279305,0.0296317201 L3.69223837,0.0296317201 C1.66377311,0.0296317201 0.0199609614,1.28527586 0.0199609614,2.83512064 L0.0199609614,6.26552138 C0.0199609614,7.81483703 1.66377311,9.0710103 3.69223837,9.0710103 L32.4279305,9.0710103 C34.4569352,9.0710103 36.1002079,7.81483703 36.1002079,6.26552138 L36.1002079,2.83512064 Z" id="Path"></path>
                            </g>
                            <g id="Group" transform="translate(16.972062, 36.959786)" fill="url(#linearGradient-5)">
                                <path d="M116.272535,57.5683734 C114.650878,58.7373536 107.226217,59.953674 103.843597,64.0087925 C100.462052,68.0633731 98.0292974,74.9567518 98.0292974,74.9567518 L93.7441429,74.9567518 L4.11465198,74.9567518 C4.11465198,74.9567518 5.03278412,70.4250035 10.3920511,62.2550533 C12.2670415,59.3963507 15.5743611,56.8980792 18.6283473,55.020072 L11.1106361,36.7752663 L8.26856795,36.7758043 C3.72954207,36.7758043 0.0505591223,33.0956417 0.0505591223,28.555824 L0.0505591223,8.23235325 C0.0505591223,3.69253563 3.73007993,0.0129109637 8.26856795,0.0129109637 L25.4597453,0.0129109637 C29.9987712,0.0129109637 33.678292,3.69253563 33.678292,8.23235325 L33.678292,28.555824 C33.678292,33.0956417 29.9987712,36.7752663 25.4597453,36.7752663 L15.0563991,36.7758043 L21.8259428,53.2039297 C24.0171967,52.054316 25.6006654,51.4028503 25.6006654,51.4028503 L56.0055231,51.4028503 L56.0055231,69.2802314 L89.4186486,69.2802314 C92.3403205,67.0148952 94.9543347,64.2212855 95.5960052,61.1705323 C97.2176622,53.4669906 95.1909944,37.6532119 93.5693374,33.5986313 C92.1273267,29.9927067 91.3280623,27.3545665 91.168317,26.8133819 L91.1021598,26.8133819 L91.1021598,23.1316054 C91.3441982,23.2133748 91.5937666,23.2811574 91.8508651,23.336029 C92.1875674,23.6765557 92.6538946,23.8874347 93.1702431,23.8874347 C93.7527487,23.8874347 94.2647943,23.6146906 94.6052616,23.1956223 C95.8627853,22.4672287 95.6922827,20.606974 95.6922827,20.606974 C95.6922827,20.606974 96.3732173,17.5981815 95.51425,17.1393044 C94.6251625,16.6659024 92.2354372,16.8504215 90.2953653,17.2017074 C90.5239571,13.4892673 93.5978442,10.5466435 97.3677259,10.5466435 L97.8001678,10.5466435 C98.8898782,10.5466435 99.9182723,10.8000212 100.840707,11.2389939 L100.840707,24.046132 C99.9182723,24.4851048 98.8893404,24.7384824 97.8001678,24.7384824 L97.3677259,24.7384824 C96.747032,24.7384824 96.1478527,24.6502575 95.5744907,24.5007055 L95.5744907,26.2291608 C97.7329349,26.7612001 100.620184,28.3680771 104.109839,32.3823109 C112.218661,41.7077924 117.894192,56.3999312 116.272535,57.5683734 Z M45.9765295,66.1638475 L17.0577873,66.1638475 C16.273583,66.1638475 16.273583,67.3801679 17.0577873,67.3801679 L45.9765295,67.3801679 C46.7607338,67.3801679 46.7607338,66.1638475 45.9765295,66.1638475 Z M47.058172,60.4873271 L27.0582741,60.4873271 C26.2740699,60.4873271 26.2740699,61.7041855 27.0582741,61.7041855 L47.058172,61.7041855 C47.8423763,61.7041855 47.8423763,60.4873271 47.058172,60.4873271 Z" id="Shape"></path>
                            </g>
                            <g id="Group" transform="translate(57.972062, 65.959786)" fill="#00BCD4">
                                <path d="M40.4121175,8.21744227 C37.665809,5.03070175 27.197053,2.5609374 14.9638879,0.0285927285 L0.356321434,0.0285927285 C0.138659019,0.917125253 0.0225723985,1.84773764 0.0225723985,2.80694276 C0.0225723985,8.91715488 4.71763129,13.8712497 10.5101387,13.8712497 C14.1582682,13.8712497 25.3552528,14.7101496 33.1438051,13.803814 C33.1201579,14.1906251 33.1303692,14.5844495 33.1846504,14.9815107 C33.6538339,18.4072433 35.61817,36.6860891 35.61817,36.6860891 C35.61817,36.6860891 41.0892894,25.1756277 41.6686476,16.4953069 C41.8341786,14.0072 42.2270458,9.51274681 40.4121175,8.21744227" id="Path"></path>
                            </g>
                            <g id="Group" transform="translate(70.972062, 14.959786)" fill="#0984E3">
                                <path d="M0.0711161281,0.454211937 C0.0711161281,0.463524764 0.0677296458,0.469874418 0.0677296458,0.479610555 C0.0613799915,0.511782136 0.0584168195,0.543530408 0.0520671652,0.575278679 C0.0283617892,0.742062932 0.0131226189,0.91604346 0.00507972344,1.0946804 C0.355580641,0.977000141 0.689995767,0.823338507 1.00747848,0.638775222 C1.01298152,-0.0105827572 0.190912939,-0.248059828 0.0711161281,0.454211937" id="Path"></path>
                            </g>
                            <g id="Group" transform="translate(61.972062, 0.959786)" fill="url(#linearGradient-6)">
                                <path d="M8.95010986,14.5983437 C8.95987623,14.3784828 8.97838094,14.1643529 9.00716604,13.959601 C9.01487633,13.9200052 9.01847447,13.8809304 9.02618476,13.8418556 C9.02618476,13.8298727 9.03029692,13.8220577 9.03029692,13.8100748 C9.17576448,12.9462613 10.1739906,13.2385408 10.1673084,14.0377506 C12.2033401,12.8368519 13.61381,10.5600938 13.7392308,7.91394862 C13.9432966,7.93009953 14.1458203,7.94677145 14.3375496,7.96292236 C14.9317563,8.0124171 15.4221311,8.05878586 15.5228789,8.07128979 L15.5670846,8.07649977 L15.5701687,8.07702076 C17.6545183,8.30573857 16.283628,0.0432427739 8.50394082,0.0781495913 C8.42992199,0.0786705886 8.3569312,0.0599146867 8.28599649,0.0541837167 L8.26440767,0.051057733 C7.54066802,0.0250078692 6.89403132,0.0625196731 6.31524522,0.151610207 C2.78238828,0.461603586 0.0030841178,3.64489694 0.0030841178,7.53257861 C0.0030841178,10.4308865 1.5497692,12.9337574 3.79911911,14.15237 C4.72692455,14.6551324 5.77089843,14.9448085 6.87963878,14.9448085 C7.60183636,14.9453278 8.29627689,14.8213305 8.95010986,14.5983437 Z" id="Path"></path>
                            </g>
                            <g id="Group" transform="translate(115.972062, 97.959786)" fill="#00BCD4">
                                <path d="M34.6016121,14.4063073 L0.0273387893,14.4063073 C1.29531184,6.26922534 8.55212008,0.0306899958 17.3142021,0.0306899958 C26.076284,0.0306899958 33.3336391,6.2686962 34.6016121,14.4063073" id="Path"></path>
                            </g>
                            <g id="Group" transform="translate(133.972062, 69.959786)" fill="#FFFFFF">
                                <path d="M21.0749259,0.00575203977 L18.2148535,0.00575203977 L18.2148535,2.89589057 L21.0749259,2.89589057 L21.0749259,0.00575203977 Z M2.87197216,17.0197628 L0.0118997225,17.0197628 L0.0118997225,19.9093784 L2.87197216,19.9093784 L2.87197216,17.0197628 Z M2.87197216,11.435578 L0.0118997225,11.435578 L0.0118997225,14.3251936 L2.87197216,14.3251936 L2.87197216,11.435578 Z M2.87197216,5.8519161 L0.0118997225,5.8519161 L0.0118997225,8.74153172 L2.87197216,8.74153172 L2.87197216,5.8519161 Z M2.87197216,0.00575203977 L0.0118997225,0.00575203977 L0.0118997225,2.89589057 L2.87197216,2.89589057 L2.87197216,0.00575203977 Z M9.20728094,17.0197628 L6.3472085,17.0197628 L6.3472085,19.9093784 L9.20728094,19.9093784 L9.20728094,17.0197628 Z M9.20728094,11.435578 L6.3472085,11.435578 L6.3472085,14.3251936 L9.20728094,14.3251936 L9.20728094,11.435578 Z M9.20728094,5.8519161 L6.3472085,5.8519161 L6.3472085,8.74153172 L9.20728094,8.74153172 L9.20728094,5.8519161 Z M9.20728094,0.00575203977 L6.3472085,0.00575203977 L6.3472085,2.89589057 L9.20728094,2.89589057 L9.20728094,0.00575203977 Z M14.7396171,17.0197628 L11.8795447,17.0197628 L11.8795447,19.9093784 L14.7396171,19.9093784 L14.7396171,17.0197628 Z M14.7396171,11.435578 L11.8795447,11.435578 L11.8795447,14.3251936 L14.7396171,14.3251936 L14.7396171,11.435578 Z M14.7396171,5.8519161 L11.8795447,5.8519161 L11.8795447,8.74153172 L14.7396171,8.74153172 L14.7396171,5.8519161 Z M14.7396171,0.00575203977 L11.8795447,0.00575203977 L11.8795447,2.89589057 L14.7396171,2.89589057 L14.7396171,0.00575203977 Z M21.0749259,17.0197628 L18.2148535,17.0197628 L18.2148535,19.9093784 L21.0749259,19.9093784 L21.0749259,17.0197628 Z M21.0749259,11.435578 L18.2148535,11.435578 L18.2148535,14.3251936 L21.0749259,14.3251936 L21.0749259,11.435578 Z M21.0749259,5.8519161 L18.2148535,5.8519161 L18.2148535,8.74153172 L21.0749259,8.74153172 L21.0749259,5.8519161 Z" id="Shape"></path>
                            </g>
                            <g id="Group" transform="translate(0.972062, 80.959786)" fill="#FFFFFF">
                                <path d="M9.40965853,0.0183019447 L6.48511359,0.0183019447 L6.48511359,2.90844048 L9.40965853,2.90844048 L9.40965853,0.0183019447 Z M2.93036546,17.0323127 L0.00582051644,17.0323127 L0.00582051644,19.9224512 L2.93036546,19.9224512 L2.93036546,17.0323127 Z M2.93036546,11.4481279 L0.00582051644,11.4481279 L0.00582051644,14.3382664 L2.93036546,14.3382664 L2.93036546,11.4481279 Z M2.93036546,5.86394309 L0.00582051644,5.86394309 L0.00582051644,8.75408162 L2.93036546,8.75408162 L2.93036546,5.86394309 Z M2.93036546,0.0183019447 L0.00582051644,0.0183019447 L0.00582051644,2.90844048 L2.93036546,2.90844048 L2.93036546,0.0183019447 Z M9.40965853,17.0323127 L6.48511359,17.0323127 L6.48511359,19.9224512 L9.40965853,19.9224512 L9.40965853,17.0323127 Z M9.40965853,11.4481279 L6.48511359,11.4481279 L6.48511359,14.3382664 L9.40965853,14.3382664 L9.40965853,11.4481279 Z M9.40965853,5.86394309 L6.48511359,5.86394309 L6.48511359,8.75408162 L9.40965853,8.75408162 L9.40965853,5.86394309 Z" id="Shape"></path>
                            </g>
                            <g id="Group" transform="translate(22.972062, 8.959786)" fill="#FFFFFF">
                                <path d="M21.0728564,0.0454934055 L18.2133013,0.0454934055 L18.2133013,2.93563194 L21.0728564,2.93563194 L21.0728564,0.0454934055 Z M2.87042002,17.0589812 L0.010864964,17.0589812 L0.010864964,19.9496427 L2.87042002,19.9496427 L2.87042002,17.0589812 Z M2.87042002,11.4753194 L0.010864964,11.4753194 L0.010864964,14.3654579 L2.87042002,14.3654579 L2.87042002,11.4753194 Z M2.87042002,5.89113455 L0.010864964,5.89113455 L0.010864964,8.78127308 L2.87042002,8.78127308 L2.87042002,5.89113455 Z M2.87042002,0.0454934055 L0.010864964,0.0454934055 L0.010864964,2.93563194 L2.87042002,2.93563194 L2.87042002,0.0454934055 Z M9.2057288,17.0589812 L6.34565637,17.0589812 L6.34565637,19.9496427 L9.2057288,19.9496427 L9.2057288,17.0589812 Z M9.2057288,11.4753194 L6.34565637,11.4753194 L6.34565637,14.3654579 L9.2057288,14.3654579 L9.2057288,11.4753194 Z M9.2057288,5.89113455 L6.34565637,5.89113455 L6.34565637,8.78127308 L9.2057288,8.78127308 L9.2057288,5.89113455 Z M9.2057288,0.0454934055 L6.34565637,0.0454934055 L6.34565637,2.93563194 L9.2057288,2.93563194 L9.2057288,0.0454934055 Z M14.7375476,17.0589812 L11.8779926,17.0589812 L11.8779926,19.9496427 L14.7375476,19.9496427 L14.7375476,17.0589812 Z M14.7375476,11.4753194 L11.8779926,11.4753194 L11.8779926,14.3654579 L14.7375476,14.3654579 L14.7375476,11.4753194 Z M14.7375476,5.89113455 L11.8779926,5.89113455 L11.8779926,8.78127308 L14.7375476,8.78127308 L14.7375476,5.89113455 Z M14.7375476,0.0454934055 L11.8779926,0.0454934055 L11.8779926,2.93563194 L14.7375476,2.93563194 L14.7375476,0.0454934055 Z M21.0728564,17.0589812 L18.2133013,17.0589812 L18.2133013,19.9496427 L21.0728564,19.9496427 L21.0728564,17.0589812 Z M21.0728564,11.4753194 L18.2133013,11.4753194 L18.2133013,14.3654579 L21.0728564,14.3654579 L21.0728564,11.4753194 Z M21.0728564,5.89113455 L18.2133013,5.89113455 L18.2133013,8.78127308 L21.0728564,8.78127308 L21.0728564,5.89113455 Z" id="Shape"></path>
                            </g>
                            <g id="Group" transform="translate(23.972062, 52.959786)" fill="#B2EBF2">
                                <path d="M10.3626358,6.43996049 L10.3626358,6.43946663 L10.3626358,6.43946663 L11.3203753,4.65168619 L7.08462678,4.65168619 C6.88196698,4.65168619 6.85974319,4.16523212 7.01795541,4.05905178 L7.01795541,4.05905178 C7.0206011,4.05707634 7.02324679,4.05559475 7.02589248,4.05411316 C7.04335403,4.04423592 7.06293213,4.03880344 7.08409764,4.03880344 L11.6489699,4.03880344 L11.6489699,4.03880344 L11.6489699,4.03880344 L12.8538168,1.78975589 L9.98218569,1.78975589 C9.80122054,1.78975589 9.76418089,1.40059263 9.87212502,1.24206293 L9.87212502,1.24206293 C9.87371243,1.23909976 9.87582898,1.23613659 9.87794553,1.23366728 C9.90493156,1.19860308 9.93932553,1.17687315 9.98218569,1.17687315 L13.1818823,1.17687315 L13.1824115,1.17637929 L13.1824115,1.17637929 L13.8104981,0.00345703401 L6.91477353,0.00345703401 L6.91424439,0.00395089601 L6.91424439,0.00395089601 L6.28615775,1.17637929 L3.08540285,1.17637929 C3.05365458,1.17637929 3.02613941,1.18872584 3.00285734,1.20946804 C2.86210667,1.33688444 2.88962184,1.79024975 3.08487371,1.79024975 L5.95756314,1.79024975 L4.75271624,4.03830958 L0.18784394,4.03880344 C0.156095668,4.03880344 0.1285805,4.05065613 0.105298434,4.0718922 L0.105298434,4.0718922 C0.102652744,4.07386764 0.100536193,4.07633695 0.0978905037,4.07880626 C-0.0343939608,4.21461832 -0.00423310286,4.65218005 0.18784394,4.65218005 L4.42412163,4.65218005 L3.46691125,6.43946663 L3.46691125,6.43946663 L3.46691125,6.43996049 L10.3626358,6.43996049 Z" id="Path"></path>
                            </g>
                            <g id="Group" transform="translate(57.972062, 60.959786)" fill="#FBC02D" stroke="#006064" stroke-width="0.5">
                                <path d="M0.355969239,0.415748271 L0.355969239,0.247748271 C0.325969239,0.253748271 0.295969239,0.259748271 0.271969239,0.265748271 C0.295969239,0.319748271 0.325969239,0.367748271 0.355969239,0.415748271 Z" id="Path"></path>
                            </g>
                            <g id="Group" transform="translate(103.972062, 53.959786)" fill="#FFF3E0">
                                <path d="M8.9032736,3.61358826 C8.90274446,3.59284606 8.90221532,3.57506702 8.90168619,3.55876958 C8.90062791,3.54296599 8.90009877,3.53259489 8.89956963,3.52123607 C8.8990405,3.5103711 8.89851136,3.50246931 8.89798222,3.49555524 C8.89692395,3.48172711 8.89639481,3.47382531 8.89639481,3.47382531 C8.89639481,3.47382531 9.56628334,0.712149005 8.72125018,0.290884718 C8.6699238,0.265203894 8.61277692,0.242486242 8.55192606,0.220756314 C8.53234796,0.213842246 8.51065331,0.208409764 8.49054607,0.201989558 C8.44715677,0.188161422 8.40218005,0.174827148 8.3540285,0.16297446 C8.32862989,0.156554254 8.30164385,0.15062791 8.27465782,0.144701566 C8.22756455,0.134330464 8.17994215,0.124453224 8.12967405,0.115563708 C8.10057147,0.110625088 8.07041061,0.105686468 8.03972062,0.100747848 C7.98680683,0.0923521942 7.93177649,0.0849442641 7.87621702,0.0790179201 C7.84605616,0.0750670241 7.81695358,0.0711161281 7.78573444,0.0681529561 C7.71906307,0.0617327501 7.64974601,0.0563002681 7.57884154,0.0513616481 C7.55714689,0.0498800621 7.53651051,0.0474107521 7.51428672,0.0459291661 C7.41798363,0.0400028221 7.31903485,0.0360519261 7.21691125,0.0330887541 L7.20156625,0.0330887541 C7.1057923,0.0306194441 7.00737265,0.0296317201 6.90683646,0.0301255821 C6.87932129,0.0301255821 6.85021871,0.0306194441 6.8221744,0.0306194441 C6.74280373,0.0316071681 6.66184563,0.0325948921 6.5803584,0.0345703401 C6.54808099,0.0355580641 6.51474531,0.0370396501 6.4824679,0.0380273741 C6.40150981,0.0409905461 6.31949344,0.0444475801 6.23694793,0.0479046141 C6.2057288,0.0498800621 6.17450967,0.0508677861 6.14276139,0.0528432341 C6.05174968,0.0582757161 5.96020883,0.0637081981 5.86760971,0.0701284041 C5.84485678,0.0721038521 5.82210385,0.0730915761 5.79935092,0.0750670241 C5.44006632,0.102229434 5.07125723,0.139269084 4.70509383,0.184210526 C4.6934528,0.185692112 4.68234091,0.187173698 4.67069987,0.188655284 C4.56011006,0.20248342 4.45004939,0.216805418 4.34051785,0.23211514 C4.32517285,0.23458445 4.30982785,0.236559898 4.29448286,0.239029208 C4.1860096,0.25433893 4.07806547,0.270142514 3.97012135,0.28643996 C3.95900945,0.287921546 3.94736842,0.289896994 3.93572739,0.29137858 C3.64946381,0.335826161 3.37060816,0.383730775 3.10498095,0.434598561 C3.09810216,0.435586285 3.0917525,0.436574009 3.08487371,0.438055595 C2.77426979,0.497812897 2.48112742,0.560039509 2.21602935,0.623747707 C2.21020883,0.624735431 2.20438832,0.626217017 2.19909694,0.627698603 C2.07210385,0.658811909 1.95198956,0.689431353 1.83928319,0.720050797 C1.82658389,0.724001693 1.81388458,0.726964865 1.80171441,0.730421899 C1.58159306,0.791660787 1.39321998,0.851911951 1.24135741,0.910187668 C1.22971638,0.915126288 1.21754621,0.919077184 1.20696345,0.923521942 C1.13764639,0.951178214 1.07785382,0.978340624 1.02705658,1.00451531 C1.0175321,1.00945393 1.0090659,1.01439255 1.00059969,1.01933117 C0.951919007,1.04599972 0.910117116,1.0721744 0.883660223,1.0968675 C0.754021448,1.21736983 0.661422323,1.3581205 0.600042331,1.51368703 C0.411140116,1.47417807 0.220650487,1.4361507 0.0280443065,1.39861719 L0.0280443065,5.54508255 C0.0396853394,5.5431071 0.0507972344,5.54014393 0.0624382672,5.53816848 C0.265098067,5.49865952 0.46193735,5.45766897 0.655072668,5.41519684 C0.713277833,5.40235643 0.769366446,5.38951602 0.82757161,5.37618174 C0.975201072,5.34259913 1.12018485,5.30753492 1.26199379,5.27247072 C1.32601947,5.25617328 1.39004515,5.23987583 1.45248342,5.22357838 C1.58953013,5.18802032 1.72181459,5.15098067 1.8519825,5.11344716 C1.90754198,5.09764357 1.96415973,5.08183999 2.01866093,5.06554254 C2.19698039,5.01121772 2.3705376,4.9568929 2.53615775,4.89911105 C2.67002963,4.99047552 2.80972203,5.07838295 2.95417666,5.16233949 C3.38436574,5.41322139 3.86164809,5.62656978 4.37544095,5.78905037 C4.3775575,5.78954424 4.37967405,5.79053196 4.3817906,5.79102582 L4.38231974,5.79102582 C4.61990264,5.86609285 4.86489347,5.92831946 5.11729223,5.97869338 L5.1183505,5.97869338 C5.64907577,6.08487371 6.2099619,6.13771695 6.79783406,6.11302385 C7.31321434,6.09129392 7.6984267,5.9485678 7.99315648,5.74460279 C8.01590941,5.72929307 8.03866234,5.71497107 8.05982785,5.69916749 C8.10956681,5.66114012 8.15507267,5.62212502 8.19952025,5.58113447 C8.21804007,5.56335544 8.23603076,5.54607027 8.25402145,5.52779738 C8.29635248,5.48433752 8.33815437,5.4403838 8.37572316,5.39346691 C8.38736419,5.37914491 8.39794695,5.36432905 8.40905884,5.35000706 C8.58049951,5.12381826 8.69479328,4.87392409 8.76834345,4.62896853 C8.77257655,4.61563426 8.77680965,4.60279385 8.78051362,4.58995344 C8.79585861,4.53464089 8.8096162,4.4813038 8.82178637,4.42697898 C8.82549033,4.41216312 8.82813602,4.39833498 8.83078171,4.38351912 C8.84189361,4.33018202 8.8530055,4.27733879 8.86094257,4.226471 C8.86147171,4.22054466 8.86252998,4.21511218 8.86305912,4.20869197 C8.88845774,4.04472979 8.89956963,3.89755891 8.90274446,3.77755044 C8.9032736,3.76471003 8.9032736,3.75186962 8.90380274,3.74001693 C8.90433188,3.70890363 8.90433188,3.68272894 8.90380274,3.65704812 C8.90380274,3.64124453 8.90380274,3.6274164 8.9032736,3.61358826" id="Path"></path>
                            </g>
                            <g id="Group" transform="translate(107.972062, 56.959786)" fill="#FF9800">
                                <path d="M1.98955835,0.0327359955 C0.913221391,0.0327359955 0.0406377875,0.905319599 0.0406377875,1.98165655 C0.0406377875,2.51672076 0.25680824,3.00042331 0.605051503,3.35261747 C1.17115846,3.47396642 1.77000141,3.53435868 2.39650063,3.506138 C2.84803161,3.48638352 3.2058699,3.37293636 3.49541414,3.20530549 C3.76859038,2.87004374 3.93847891,2.44786228 3.93847891,1.98165655 C3.93847891,0.904755186 3.0658953,0.0327359955 1.98955835,0.0327359955" id="Path"></path>
                            </g>
                        </g>
                        <g transform="translate(53.500000, 99.500000) scale(-1, 1) translate(-53.500000, -99.500000) translate(43.000000, 99.000000)" fill="#FBC02D" id="Path">
                            <path d="M0.578864366,0.0249753069 L20.0228505,0.0249753069 C20.7852572,0.0249753069 20.7852572,0.982079865 20.0228505,0.982079865 L0.578864366,0.982079865 C-0.18354236,0.982079865 -0.18354236,0.0249753069 0.578864366,0.0249753069"></path>
                        </g>
                        <g transform="translate(47.500000, 104.500000) scale(-1, 1) translate(-47.500000, -104.500000) translate(32.000000, 104.000000)" fill="#FBC02D" id="Path">
                            <path d="M0.609108226,0.00296317201 L30.0065084,0.00296317201 C30.8042543,0.00296317201 30.8042543,0.96006773 30.0065084,0.96006773 L0.609108226,0.96006773 C-0.188090871,0.96006773 -0.188090871,0.00296317201 0.609108226,0.00296317201"></path>
                        </g>
                    </g>
                </g>
            </g>
        </g>
    </g>
</svg>