<?xml version="1.0" encoding="UTF-8"?>
<svg width="164px" height="130px" viewBox="0 0 164 130" version="1.1" xmlns="http://www.w3.org/2000/svg" xmlns:xlink="http://www.w3.org/1999/xlink">
    <!-- Generator: Sketch 64 (93537) - https://sketch.com -->
    <title>Artwork</title>
    <desc>Created with Sketch.</desc>
    <defs>
        <linearGradient x1="0%" y1="15.0880371%" x2="100%" y2="73.8518355%" id="linearGradient-1">
            <stop stop-color="#FF9800" offset="0%"></stop>
            <stop stop-color="#FFE0B2" offset="100%"></stop>
        </linearGradient>
        <linearGradient x1="-32.1879273%" y1="-64.8400272%" x2="99.5056463%" y2="72.5354052%" id="linearGradient-2">
            <stop stop-color="#FF9800" offset="0%"></stop>
            <stop stop-color="#FFE0B2" offset="100%"></stop>
        </linearGradient>
        <linearGradient x1="0%" y1="50%" x2="100%" y2="50%" id="linearGradient-3">
            <stop stop-color="#E91E63" offset="0%"></stop>
            <stop stop-color="#F8BBD0" offset="100%"></stop>
        </linearGradient>
        <linearGradient x1="-18.8795334%" y1="50%" x2="143.474656%" y2="67.7821712%" id="linearGradient-4">
            <stop stop-color="#F8BBD0" offset="0%"></stop>
            <stop stop-color="#FFE0B2" offset="100%"></stop>
        </linearGradient>
    </defs>
    <g id="Landing" stroke="none" stroke-width="1" fill="none" fill-rule="evenodd">
        <g id="Slider" transform="translate(-1715.000000, -360.000000)">
            <g id="Item" transform="translate(1715.000000, 68.000000)">
                <g id="Artwork" transform="translate(0.000000, 292.000000)">
                    <g id="Group-47" transform="translate(0.000000, 35.000000)">
                        <g id="Group-45" transform="translate(71.374593, 20.584326)">
                            <g id="Group" transform="translate(8.651466, 21.667712)" fill="url(#linearGradient-1)">
                                <polygon id="Path" points="0.0119621645 0.0297453004 74.5945245 0.0297453004 74.5945245 51.5423133 33.6308588 51.5423133 33.6308588 8.1647036 8.77010694 8.1647036 8.77010694 51.5423133 0.0119621645 51.5423133"></polygon>
                            </g>
                            <g id="Group" transform="translate(47.583062, 29.251411)" fill="#BF360C">
                                <rect id="Rectangle" x="0.00127281719" y="0.0267184615" width="31.22001" height="34.8625629"></rect>
                            </g>
                            <g id="Group" transform="translate(16.221498, 29.251411)" fill="#BF360C">
                                <polygon id="Path" points="0.0299875729 0.0303440527 26.165286 0.0303440527 26.165286 44.2809206 0.0299875729 44.2809206"></polygon>
                            </g>
                            <g id="Group" transform="translate(0.000000, -0.000000)" fill="#FF9800">
                                <path d="M83.4612552,8.17851908 C81.8467746,8.95429229 80.0640675,9.3875645 78.188004,9.3875645 C72.5471811,9.3875645 67.7382471,5.49520086 65.8741998,0.0300321079 L17.7592872,0.0300321079 L0.0163296707,20.9016722 L92.6745787,20.9016722 L83.4612552,8.17851908 Z" id="Path"></path>
                            </g>
                            <g id="Group" transform="translate(20.547231, 33.584953)" fill="#FFFFFF">
                                <path d="M0.0169641075,17.6337182 L7.77047002,17.6337182 L7.77047002,9.8421744 L0.0169641075,9.8421744 L0.0169641075,17.6337182 Z M0.0169641075,7.82137781 L7.77047002,7.82137781 L7.77047002,0.029833996 L0.0169641075,0.029833996 L0.0169641075,7.82137781 Z M9.94551094,17.6337182 L17.6990169,17.6337182 L17.6990169,9.8421744 L9.94551094,9.8421744 L9.94551094,17.6337182 Z M9.94551094,7.82137781 L17.6990169,7.82137781 L17.6990169,0.029833996 L9.94551094,0.029833996 L9.94551094,7.82137781 Z" id="Shape"></path>
                            </g>
                            <g id="Group" transform="translate(48.664495, 33.584953)" fill="#FFFFFF">
                                <rect id="Rectangle" x="0.0223552982" y="0.0120997031" width="24.8769111" height="26.9294095"></rect>
                            </g>
                        </g>
                        <g id="Group-42" transform="translate(105.980456, 0.000000)" fill="#FF9800">
                            <g id="Group" transform="translate(12.977199, 1.083386)">
                                <path d="M0.8728556,4.03934876 L4.01768988,0.878365849 C4.21281276,0.682874979 4.21281276,0.365314237 4.01768988,0.169226448 C3.82316099,-0.0271598003 3.50775689,-0.0271598003 3.31233702,0.169226448 L0.167205751,3.33020936 C-0.0279171237,3.52629715 -0.0279171237,3.84355943 0.167205751,4.03934876 C0.362031635,4.23513809 0.678623697,4.23513809 0.8728556,4.03934876" id="Path"></path>
                            </g>
                            <g id="Group" transform="translate(2.162866, 10.833856)">
                                <path d="M3.29451758,0.15012505 L0.149386311,3.31021258 C-0.046033555,3.50719575 -0.046033555,3.82415957 0.149386311,4.02024736 C0.344212195,4.21573823 0.660210275,4.21573823 0.854739169,4.02024736 L4.00076141,0.859264451 C4.1955873,0.663176662 4.1955873,0.346212839 4.00076141,0.15012505 C3.80563854,-0.0453658203 3.48934347,-0.0453658203 3.29451758,0.15012505" id="Path"></path>
                            </g>
                            <g id="Group" transform="translate(12.977199, 10.833856)">
                                <path d="M0.8728556,0.15012505 C0.678029716,-0.0453658203 0.362031635,-0.0453658203 0.167205751,0.15012505 C-0.0279171237,0.346212839 -0.0279171237,0.663475122 0.167205751,0.859264451 L3.31233702,4.02024736 C3.5074599,4.21603669 3.82316099,4.21603669 4.01768988,4.02024736 C4.21281276,3.82445803 4.21281276,3.50719575 4.01768988,3.31021258 L0.8728556,0.15012505 Z" id="Path"></path>
                            </g>
                            <g id="Group" transform="translate(2.162866, 1.083386)">
                                <path d="M0.854739169,0.169226448 C0.660210275,-0.0271598003 0.344212195,-0.0271598003 0.149386311,0.169226448 C-0.046033555,0.365314237 -0.046033555,0.682874979 0.149386311,0.878365849 L3.29451758,4.03934876 C3.48934347,4.23513809 3.80563854,4.23513809 4.00076141,4.03934876 C4.1955873,3.84355943 4.1955873,3.52629715 4.00076141,3.33020936 L0.854739169,0.169226448 Z" id="Path"></path>
                            </g>
                            <g id="Group" transform="translate(12.977199, 7.583699)">
                                <path d="M4.65393672,0.0383022825 L0.483352327,0.0383022825 C0.225248867,0.0383022825 0.0155920106,0.381654886 0.0155920106,0.804803911 C0.0155920106,1.22795294 0.224970438,1.57176152 0.483352327,1.57176152 L4.65393672,1.57176152 C4.91204018,1.57176152 5.12169704,1.2288649 5.12169704,0.804803911 C5.12141861,0.381654886 4.91204018,0.0383022825 4.65393672,0.0383022825" id="Path"></path>
                            </g>
                            <g id="Group" transform="translate(0.000000, 7.583699)">
                                <path d="M5.11696375,0.805259891 C5.11696375,0.382566845 4.90702846,0.0392142416 4.64836815,0.0392142416 L0.478619038,0.0392142416 C0.21995872,0.0392142416 0.0103018641,0.382110866 0.0103018641,0.805259891 C0.0103018641,1.2288649 0.219680292,1.57267348 0.478619038,1.57267348 L4.64836815,1.57267348 C4.90702846,1.57267348 5.11696375,1.22932088 5.11696375,0.805259891" id="Path"></path>
                            </g>
                            <g id="Group" transform="translate(8.651466, 10.833856)">
                                <path d="M0.805085298,0.0109124198 C0.382483898,0.0109124198 0.0387498586,0.22048684 0.0387498586,0.480985886 L0.0387498586,4.67163488 C0.0387498586,4.9310147 0.382028018,5.14170835 0.805085298,5.14170835 C1.22814258,5.14170835 1.57142074,4.93129451 1.57142074,4.67163488 L1.57142074,0.480985886 C1.57142074,0.22048684 1.2276867,0.0109124198 0.805085298,0.0109124198" id="Path"></path>
                            </g>
                            <g id="Group" transform="translate(8.651466, -0.000000)">
                                <path d="M0.805085298,0.0165085325 C0.382483898,0.0165085325 0.0387498586,0.22692237 0.0387498586,0.486581999 L0.0387498586,4.6777906 C0.0387498586,4.93717043 0.382028018,5.14730446 0.805085298,5.14730446 C1.22814258,5.14730446 1.57142074,4.93773004 1.57142074,4.6777906 L1.57142074,0.486581999 C1.57142074,0.22692237 1.2276867,0.0165085325 0.805085298,0.0165085325" id="Path"></path>
                            </g>
                        </g>
                        <g id="Group-44" transform="translate(0.000000, 14.084013)" fill="#BF360C">
                            <g id="Group" transform="translate(12.977199, 1.083386)">
                                <path d="M0.87255861,4.0309919 L4.01768988,0.870008988 C4.21251577,0.673921199 4.21251577,0.356658916 4.01768988,0.160869586 C3.822864,-0.0358151213 3.5074599,-0.0358151213 3.31233702,0.160869586 L0.166908761,3.3218525 C-0.0282141143,3.51764183 -0.0282141143,3.83490411 0.166908761,4.0309919 C0.362031635,4.22648277 0.677732725,4.22648277 0.87255861,4.0309919" id="Path"></path>
                            </g>
                            <g id="Group" transform="translate(4.325733, 11.917241)">
                                <path d="M3.29422059,0.171912582 L0.149386311,3.33200012 C-0.0463305456,3.52898328 -0.0463305456,3.84594711 0.149386311,4.04203489 C0.343915204,4.23752576 0.659913285,4.23752576 0.854739169,4.04203489 L4.00046442,0.880455065 C4.19529031,0.684964194 4.19529031,0.367403452 4.00046442,0.171614123 C3.80534155,-0.0244736662 3.48904648,-0.0244736662 3.29422059,0.171912582" id="Path"></path>
                            </g>
                            <g id="Group" transform="translate(12.977199, 11.917241)">
                                <path d="M4.01798687,4.04173644 C4.21281276,3.84564865 4.21281276,3.52868482 4.01798687,3.33170166 L0.8728556,0.171614123 C0.678029716,-0.0244736662 0.362328626,-0.0244736662 0.167205751,0.171614123 C-0.0279171237,0.367403452 -0.0279171237,0.684964194 0.167205751,0.880455065 L3.31263401,4.04203489 C3.50775689,4.23752576 3.82316099,4.23752576 4.01798687,4.04173644" id="Path"></path>
                            </g>
                            <g id="Group" transform="translate(4.325733, 1.083386)">
                                <path d="M0.854145188,0.160869586 C0.659616294,-0.0358151213 0.343618213,-0.0358151213 0.14908932,0.160869586 C-0.0466275363,0.356658916 -0.0466275363,0.673921199 0.14908932,0.870008988 L3.2939236,4.0309919 C3.48874948,4.22648277 3.80504456,4.22648277 4.00016743,4.0309919 C4.19499332,3.83490411 4.19499332,3.51764183 4.00016743,3.3218525 L0.854145188,0.160869586 Z" id="Path"></path>
                            </g>
                            <g id="Group" transform="translate(14.058632, 7.583699)">
                                <path d="M0.0153135818,0.792036484 C0.0153135818,1.21518551 0.224692009,1.55899409 0.483352327,1.55899409 L4.65365829,1.55899409 C4.91176175,1.55899409 5.12141861,1.21564149 5.12141861,0.792036484 C5.12141861,0.369343438 4.91204018,0.0259908345 4.65365829,0.0259908345 L0.483073898,0.0259908345 C0.224692009,0.0259908345 0.0153135818,0.368431479 0.0153135818,0.792036484" id="Path"></path>
                            </g>
                            <g id="Group" transform="translate(-0.000000, 7.583699)">
                                <path d="M5.11668532,0.792036484 C5.11668532,0.369343438 4.90675003,0.0259908345 4.64836815,0.0259908345 L0.478340609,0.0259908345 C0.219680292,0.0259908345 0.0100234354,0.368431479 0.0100234354,0.792036484 C0.0100234354,1.21518551 0.219401863,1.55899409 0.478340609,1.55899409 L4.64836815,1.55899409 C4.90675003,1.55853811 5.11668532,1.21518551 5.11668532,0.792036484" id="Path"></path>
                            </g>
                            <g id="Group" transform="translate(11.895765, 14.084013)">
                                <path d="M0.804629417,0.00307786198 C0.382028018,0.00307786198 0.0387498586,0.212932088 0.0387498586,0.473431134 L0.0387498586,4.66380032 C0.0387498586,4.92318015 0.381572137,5.13387379 0.804629417,5.13387379 C1.2276867,5.13387379 1.57096486,4.92373976 1.57096486,4.66380032 L1.57096486,0.473431134 C1.57096486,0.213211894 1.22723082,0.00307786198 0.804629417,0.00307786198" id="Path"></path>
                            </g>
                            <g id="Group" transform="translate(11.895765, -0.000000)">
                                <path d="M0.804629417,0.00839416905 C0.382028018,0.00839416905 0.0387498586,0.218808007 0.0387498586,0.478467636 L0.0387498586,4.66967624 C0.0387498586,4.92877626 0.381572137,5.13891029 0.804629417,5.13891029 C1.2276867,5.13891029 1.57096486,4.92933587 1.57096486,4.66967624 L1.57096486,0.478467636 C1.57096486,0.218808007 1.22723082,0.00839416905 0.804629417,0.00839416905" id="Path"></path>
                            </g>
                        </g>
                        <g id="Group-48" transform="translate(134.097720, 5.416928)">
                            <g id="Group" transform="translate(0.000000, 0.000000)" fill="url(#linearGradient-2)">
                                <path d="M26.3420234,13.2376957 C26.3420234,18.6580525 23.0982801,23.3139562 18.4569518,25.3606675 C16.8389392,26.0739295 15.052673,26.4725992 13.1731728,26.4725992 C7.52108823,26.4725992 2.70255342,22.8935691 0.834475884,17.8687795 C0.298534288,16.4270534 0.00401338753,14.8674327 0.00401338753,13.238006 C0.00401338753,5.92854429 5.89998839,0.00341273678 13.1734815,0.00341273678 C20.4466659,0.00341273678 26.3420234,5.92854429 26.3420234,13.2376957 Z" id="Path"></path>
                            </g>
                            <g id="Group" transform="translate(8.970489, 4.604389)" fill="#FFFFFF">
                                <path d="M5.16567308,15.4725114 L5.16567308,14.5321314 C6.41591244,14.4069566 7.38821423,14.0265507 8.08257843,13.3912625 C8.7766228,12.7563229 9.12428466,11.9142696 9.12428466,10.867892 C9.12428466,10.2887406 9.00786431,9.78211396 8.77534346,9.34696592 C8.54250277,8.91286391 8.17756976,8.51397821 7.67926509,8.15240087 C7.18096043,7.79082354 6.34330965,7.36195167 5.16567308,6.86857469 L5.16567308,3.95468674 C6.15620552,4.04743464 7.12211058,4.30371173 8.06466761,4.72526139 L8.91607135,2.41458347 C7.79856396,1.87483253 6.5483246,1.57183282 5.16567308,1.50558432 L5.16567308,0.0341702787 L3.92438912,0.034518955 L3.92438912,1.5456821 C2.69845729,1.67748174 1.74278698,2.05091407 1.05737819,2.66667644 C0.371329728,3.28174146 0.0291050864,4.06730919 0.0291050864,5.02198493 C0.0291050864,5.91076086 0.278257419,6.65657949 0.776242248,7.25874348 C1.27486675,7.86160483 2.12147294,8.41948693 3.31766001,8.93343581 L3.92438912,9.19041026 L3.92438912,12.2517883 C3.34516592,12.2120392 2.68470434,12.0837263 1.94524324,11.866501 C1.20514248,11.6492756 0.572186808,11.3996234 0.0466960726,11.1158009 L0.0466960726,13.7228536 C1.15780673,14.2559797 2.45026447,14.5391049 3.92406928,14.5722291 L3.92406928,16.5575921 L5.1650334,16.5572434 L5.1650334,15.4725114 L5.16567308,15.4725114 Z M6.39768179,11.0157308 C6.39768179,10.7388818 6.29437472,10.505966 6.08903994,10.3145427 C5.88402499,10.1238167 5.57570297,9.92611728 5.16535324,9.72214163 L5.16535324,12.1813557 C5.98701222,12.0293328 6.39768179,11.6412561 6.39768179,11.0157308 Z M2.75570796,5.02093891 C2.75570796,5.3110376 2.84750092,5.5495322 3.03172652,5.73712005 C3.21595213,5.92505659 3.51339971,6.11752591 3.92406928,6.31452803 L3.92406928,3.99373849 C3.14526834,4.11926196 2.75570796,4.46201078 2.75570796,5.02093891" id="Shape"></path>
                            </g>
                        </g>
                    </g>
                    <g id="Group-46" transform="translate(30.000000, 19.000000)">
                        <g id="Group" transform="translate(6.709523, 3.253189)" fill="#FFF3E0">
                            <path d="M25.0456385,75.8013855 L25.413756,73.2925736 L23.2910506,87.7573264 L21.3939759,100.685155 L21.2930609,100.627297 L20.7564344,102.7468 C20.2664573,100.142584 18.9463116,92.9497543 18.3068661,87.7444007 C18.1589844,86.5407742 18.0475971,85.4439384 17.9911101,84.5351404 C17.7784905,81.1159918 18.3766815,78.6878116 19.3131598,76.956079 C19.2817429,76.6024695 19.2455658,76.2116217 19.2071673,75.802001 L25.0456385,75.8016932 L25.0456385,75.8013855 Z M6.9336208,75.8013855 L5.11302569,75.8013855 C5.07462723,76.1039078 5.03718079,76.3931967 5.00259043,76.6560187 C3.71640044,78.1997135 2.76246826,80.4992525 2.69265287,83.9340966 C2.68757538,84.1722983 2.6869407,84.4151163 2.69074881,84.6640894 C2.70756798,85.7224559 2.79325051,87.0350274 2.9217743,88.47624 C2.9522392,88.8144619 2.98397347,89.158531 3.01888117,89.5099862 C3.09916888,90.3212262 3.19024623,91.162626 3.28989184,92.0166438 C3.45586208,93.4483161 3.64277693,94.911687 3.83223053,96.3178157 C4.07118959,98.0910951 4.31363941,99.7668165 4.52403763,101.173561 L4.66239905,100.626682 L5.99143031,101.388373 L7.65081532,94.2453993 L10.9286481,80.1361026 L11.8314881,76.2482445 L11.9352592,75.8010777 L6.9336208,75.8010777 L6.9336208,75.8013855 Z M16.204245,0.267995851 L15.9928383,0.174210545 C16.0063323,0.211724667 16.0198264,0.254037108 16.0378184,0.298530602 C16.1367748,0.279773541 16.204245,0.267995851 16.204245,0.267995851 Z M45.8027076,15.2461405 C45.7665305,15.2581429 45.2267306,15.3049215 45.1883321,15.3236945 C44.9906276,15.4212526 43.3312426,15.9422804 43.5889248,17.6921705 C43.5755965,17.7118667 43.5644895,17.7306397 43.5517958,17.750336 C43.5245043,17.7429499 43.5016556,17.7377181 43.4848364,17.732794 C43.4708734,17.7284855 43.266822,18.3843095 43.039922,19.1063008 C41.4643154,20.0569533 39.3225695,22.2035385 39.3225695,22.2035385 C39.3225695,22.2035385 37.3417163,23.8712583 35.615372,25.5137421 C34.4872187,26.5871886 33.4672792,27.6495559 33.1804014,28.2296725 C32.2064766,30.1962215 33.4634711,32.3034142 34.601462,32.9653933 C34.9562512,33.1715886 35.299616,33.2420643 35.5601544,33.1186549 C37.9484756,31.9839654 43.5222829,24.7837493 44.5460305,20.7401676 C45.0658378,20.4696517 45.6500657,20.1662061 45.6516524,20.1662061 C45.6789439,20.1677448 45.7046487,20.1702069 45.7338442,20.1705146 C45.9267886,20.1745154 46.144803,20.1391237 46.3780499,20.0738798 C47.057798,19.8861498 47.9666675,18.8407089 48.1018555,18.0463955 C48.2668737,17.0757389 45.874427,15.2230589 45.8027076,15.2461405 Z M19.7072994,15.0913402 L17.3031111,17.8186574 L16.7261821,18.4729427 L13.5356185,15.7557814 L12.9561507,15.2624515 L12.6667341,15.0159404 L12.5439225,15.0168637 L12.5439225,9.17630543 C12.4731551,9.06058988 12.4055611,8.94272004 12.3439966,8.8214649 C12.3439966,8.8214649 12.2811628,6.3655868 12.8206454,5.17057744 C12.9383795,4.90960193 13.0837225,4.70617643 13.2658772,4.60461756 C13.825035,4.2916316 14.3740379,6.30619025 14.467654,6.6696479 C14.4771743,6.70565513 14.4835211,6.73089097 14.4835211,6.73089097 C14.4835211,6.73089097 14.4885986,6.70503963 14.4949455,6.6696479 C14.5269971,6.49238151 14.6225172,5.9313457 14.6225172,5.51803188 C14.6225172,5.02162444 14.6485394,4.193735 15.7909731,2.9841381 C15.9080726,2.85992852 15.9921684,2.71768456 16.0591277,2.56750053 C16.8350306,2.7967466 17.7483429,2.98496903 18.6435667,3.13515306 C18.7413082,3.1513717 18.8387325,3.16759035 18.9358393,3.1827934 C20.5428628,3.43918338 22.0245359,3.5744721 22.4491404,3.61035624 L22.4491404,6.54285319 C22.4491404,6.89400067 22.4437456,7.23622329 22.4294652,7.56736675 C22.3253768,9.92968759 21.7446396,11.7072755 19.1649608,11.7072755 L17.9289109,11.7072755 L17.9289109,14.9297692 L19.851373,14.9297692 L19.8313804,14.9528508 L19.6612847,14.9543896 L19.7072994,15.0913402 Z M20.6212464,5.02531748 C20.651394,5.31491414 20.821807,5.53557386 21.0068178,5.51618535 C21.1886552,5.49710459 21.3165443,5.24628496 21.2870314,4.95484179 C21.2587879,4.66493738 21.0871055,4.44489316 20.9017774,4.46428167 C20.718988,4.48336243 20.5910989,4.73448981 20.6212464,5.02531748 Z M16.7890159,5.02531748 C16.8175768,5.29737215 16.9702186,5.50079764 17.141901,5.50910701 C17.153008,5.50972251 17.163163,5.51741637 17.1745873,5.51618535 C17.3427789,5.49833561 17.4582917,5.28013792 17.4525795,5.01731588 C17.4519448,4.99577309 17.456705,4.97669233 17.4544836,4.95422628 C17.4259227,4.66432187 17.2551923,4.44458541 17.0689122,4.46366616 C16.8870748,4.48336243 16.7591857,4.73448981 16.7890159,5.02531748 Z M2.13444705,50.8560652 C2.13444705,52.2258789 3.27910219,53.3359482 4.69127724,53.3359482 C5.26788893,53.3359482 5.7981686,53.1488336 6.22594657,52.8361554 C6.24117902,52.9198645 6.25323804,53.005728 6.27132657,53.0878983 C6.25323804,53.0051124 6.24562181,52.916787 6.23038936,52.8324624 C6.65150314,52.523785 6.97265396,52.0938524 7.13291202,51.5937519 C7.2078049,51.3604743 7.24842477,51.1124244 7.24842477,50.855142 C7.24842477,50.038978 6.8400047,49.3172945 6.21230083,48.8652036 C6.2373709,48.6768581 6.26180629,48.4891281 6.29354056,48.3004748 C6.26212364,48.4882048 6.23324545,48.6753193 6.20817538,48.8621261 C5.97334177,48.6940923 5.70931264,48.5623736 5.42275218,48.4798954 C5.65885515,45.9224585 5.49827974,42.2820347 5.49827974,42.2820347 C5.49827974,42.2820347 5.53445681,36.1146415 4.97434693,34.6503473 C4.96577868,34.628189 4.95752777,34.6035687 4.94864217,34.5835646 C3.96963992,32.349885 0.804146419,32.3948171 0.238324373,33.308847 C0.208176816,33.3580876 0.179615972,33.4085593 0.16533555,33.4624163 C-0.422700486,35.6410079 0.991378616,44.9084086 2.9804827,49.0163109 C2.64790755,49.3077541 2.39308135,49.6810599 2.25408525,50.1054529 C2.17697097,50.3430391 2.13444705,50.594782 2.13444705,50.8560652" id="Shape"></path>
                        </g>
                        <g id="Group" transform="translate(19.585553, 81.329715)" fill="#E84393">
                            <path d="M1.30496251,0.018521741 L0.0176407411,3.79247583 C0.93314997,2.46548271 1.42618607,1.11249941 1.30496251,0.018521741" id="Path"></path>
                        </g>
                        <g id="Group" transform="translate(12.074535, 105.186431)" fill="#FBC02D">
                            <polygon id="Path" points="1.14668009 0.0260499325 1.00749509 0.632504651 0.0092577179 4.97867811 1.61818524 4.97847326 8.9844556 4.97847326 2.48394148 0.870846169"></polygon>
                        </g>
                        <g id="Group" transform="translate(28.169573, 105.186431)" fill="#FBC02D">
                            <polygon id="Path" points="1.14859548 0.0262547812 0.60877476 2.37750871 0.0114923395 4.97867811 8.98669022 4.97867811 1.25011115 0.0902700149"></polygon>
                        </g>
                        <g id="Group" transform="translate(23.877563, 3.253189)" fill="#D7CCC8">
                            <path d="M0.740645888,0.633922305 L0.2761753,0.425176036 C0.305822359,0.504698424 0.335469418,0.604101409 0.37499883,0.703504394 C0.592410594,0.6637432 0.740645888,0.633922305 0.740645888,0.633922305" id="Path"></path>
                        </g>
                        <g id="Group" transform="translate(29.695974, 8.677661) scale(-1, 1) rotate(96.225801) translate(-29.695974, -8.677661) translate(28.695974, 7.677661)" fill="#D7CCC8">
                            <path d="M0.820143694,0.0561946441 C1.27014525,0.0512130871 1.63603881,0.335784528 1.63698918,0.700683576 C1.63698918,1.05935568 1.27252118,1.36385335 0.820143694,1.37070299 C0.371092511,1.37879802 0.00567414031,1.09235849 0.00472376743,0.726214055 C0.00472376743,0.36567387 0.369666951,0.0617988957 0.820143694,0.0561946441" id="Path"></path>
                        </g>
                        <g id="Group" transform="translate(23.877563, 7.590773)" fill="#D7CCC8">
                            <path d="M0.688850339,0.0410764417 C0.288647814,0.0698299508 0.00697216942,0.442256355 0.0732077789,0.873102588 C0.135957304,1.27702093 0.471318653,1.57870457 0.848513019,1.59102751 C0.872915612,1.59148391 0.895226554,1.60335044 0.920326364,1.60106841 C1.28985134,1.57459693 1.54363831,1.25146226 1.53108841,0.86123606 C1.52969397,0.829744121 1.54015223,0.800990612 1.53527171,0.768129459 C1.4732194,0.339108846 1.09672225,0.0123229325 0.688850339,0.0410764417" id="Path"></path>
                        </g>
                        <g id="Group" transform="translate(0.271508, 0.000000)" fill="#FF9800">
                            <path d="M27.6980115,17.404452 L27.7169198,17.3809728 L25.8987182,17.3809728 L25.8987182,14.058345 L27.0677336,14.058345 C29.5081095,14.058345 30.0567514,12.2256963 30.1551948,9.79020255 C32.0487296,10.6437041 35.0059334,11.7488142 35.5533747,14.7125905 C35.7322536,15.6793635 35.7595656,17.1921871 34.1919745,19.0257877 C32.9767387,17.7052399 31.2821917,17.1807648 30.1816064,17.4625155 L30.1804059,17.4466511 C30.180706,17.4466511 30.1819066,17.4466511 30.1825068,17.4469684 L30.1825068,17.4606118 C30.2035161,17.4555352 30.2035161,17.4510932 30.1825068,17.4469684 L30.1732027,17.3793863 L27.6980115,17.404452 Z M26.5752165,5.22032028 C25.7285432,5.0654843 24.8647623,4.87162205 24.1306387,4.63524336 C24.0676109,4.79007933 23.9880758,4.93634856 23.8770269,5.06453244 C22.7968507,6.31178699 22.7722398,7.16528857 22.7722398,7.67675495 C22.7722398,8.10318845 22.6822001,8.68160235 22.6512865,8.86435957 C22.6452838,8.90084755 22.6407818,8.92749965 22.6407818,8.92749965 C22.6407818,8.92749965 22.6347792,8.90148213 22.6257752,8.86435957 C22.5369361,8.48932653 22.0180073,6.4126842 21.4891741,6.73536491 C21.316598,6.84006957 21.1794376,7.04979616 21.0680885,7.31853811 C20.5575634,8.55088017 20.6172897,11.0828291 20.6172897,11.0828291 C20.6758155,11.2078401 20.7394436,11.3290437 20.8063731,11.4486608 L20.8063731,17.4701304 L19.4077565,17.4834564 L19.2141711,17.0354474 L17.356352,17.5031282 L17.3476482,17.5031282 C16.3803217,17.5031282 15.5036352,18.0123736 14.8463454,18.8373193 C14.6578623,19.0743326 14.4840857,19.3341905 14.33492,19.6191141 C14.2259719,19.7657006 14.1113214,19.9427467 13.9918687,20.1451757 C12.5809467,22.5365665 10.4983285,28.6246663 9.56491697,33.612098 C9.48388124,34.04456 9.41154935,34.4694071 9.3488217,34.8821972 C9.27288822,35.3844623 9.21346202,35.8670556 9.1687423,36.3296598 C9.14022973,36.3804257 9.11321783,36.4324607 9.09971187,36.4879859 C8.54326655,38.7337421 9.88095631,48.2885178 11.7621857,52.5236625 C11.447647,52.8241331 11.2066408,53.2090021 11.0751828,53.6465406 C8.62520267,52.7549646 6.03626126,51.6676226 4.33571152,50.5504557 C-0.100544328,47.6368107 -0.146464573,45.1791069 0.106546974,43.8122352 C0.797751712,40.0771346 5.3216462,39.2921669 6.71035846,38.2451204 C8.63930889,36.7903603 7.75031695,34.5664968 7.18216647,33.5413431 C3.52265306,30.8656632 3.49744195,28.6253009 3.73424635,27.3440966 C4.42515096,23.6093133 8.94904545,22.8243457 10.3377577,21.7769818 C12.9134933,19.8348691 10.4650138,16.5208082 10.4650138,16.5208082 L10.7390346,16.665491 C10.170584,15.4861358 10.220406,14.5054022 10.3494629,13.8086403 C11.0403675,10.073857 15.564262,9.28888935 16.9529742,8.24152551 C18.0394532,7.42229091 18.5721881,6.49962079 18.8291014,5.70449999 C18.7840815,3.86740922 19.1355365,2.59032971 19.1355365,2.59032971 C19.9494953,0.703742198 21.0572837,0.396291256 22.2740201,0.456258467 C24.2590953,0.122155431 28.2379495,-0.398512263 29.4006621,0.565087851 C32.9239155,3.48380944 30.291755,5.71941247 30.291755,5.71941247 C30.291755,5.71941247 30.2476355,5.71592231 30.1741031,5.708942 C29.7722259,5.67213673 28.3709081,5.53253052 26.8510381,5.26823059 C26.7597978,5.2536354 26.6676572,5.23713648 26.5752165,5.22032028 Z M14.8157319,52.3656536 C14.8394424,52.1730605 14.8670546,51.9804674 14.8964675,51.7869225 C14.9039708,51.7358393 14.9102736,51.6847561 14.9186773,51.6333556 C14.9663984,51.3297121 15.0219228,51.0260686 15.0810489,50.7230597 C15.0960555,50.6462763 15.1119625,50.5698102 15.1272693,50.4936613 C15.1875959,50.202392 15.2506237,49.9108054 15.3190538,49.6220744 C15.3235558,49.6036718 15.3274576,49.5846345 15.3316594,49.5662319 C15.4042914,49.2635403 15.4829261,48.9633869 15.5630614,48.6651373 C15.5840707,48.587402 15.6047798,48.5103013 15.6263893,48.4332006 C15.7065247,48.1444696 15.7884608,47.8582769 15.8739985,47.5765262 C15.8896054,47.5248084 15.9055124,47.4753117 15.9214194,47.4242285 C15.997653,47.1761102 16.0756874,46.9317993 16.1546222,46.6906613 C16.1771322,46.6221274 16.1990418,46.5535934 16.222152,46.4853768 C16.3112913,46.2182212 16.401331,45.9567769 16.4922711,45.701361 C16.5153813,45.6363172 16.5378912,45.574129 16.5616017,45.5106716 C16.6414369,45.2895227 16.7206718,45.0734503 16.8002069,44.8627719 C16.8179147,44.8148616 16.8359226,44.7656821 16.8539305,44.7187237 C16.9454709,44.4772684 17.036411,44.245649 17.1261506,44.0203753 C17.1495609,43.9616773 17.1720708,43.9052002 17.195181,43.8477713 C17.2798183,43.6386793 17.362955,43.4349811 17.4430903,43.2430226 C17.4496932,43.2274755 17.4562961,43.2109766 17.462899,43.1954296 C17.5499374,42.9876067 17.6330741,42.7937444 17.7138096,42.6081316 C17.7330181,42.5637115 17.7513262,42.5215123 17.7702345,42.4786786 C17.8479688,42.3019498 17.9215012,42.1347397 17.991432,41.9818074 C17.9926326,41.9783173 17.9947335,41.973558 17.9965343,41.9707024 C18.4944538,40.1510624 18.860015,38.4215319 18.823699,37.3598901 C18.8185967,37.2129863 18.8044905,37.0530738 18.7864826,36.8877673 C18.7462648,36.5206664 18.6760339,36.1123183 18.5802917,35.6703377 C18.209028,33.9595271 17.4634993,31.7619985 16.6606453,29.6507719 C16.0492758,31.3860136 15.3562703,33.2484873 14.7680109,34.8006545 C14.6923776,34.9989588 14.6194454,35.1921865 14.5477138,35.3793857 C14.1698472,36.3702725 13.8514068,37.1936318 13.6491176,37.7139822 C14.178551,39.223633 14.1446361,45.5820611 14.1446361,45.5820611 C14.1446361,45.5820611 14.2971033,49.3349298 14.0732046,51.9715834 C14.3439239,52.0566163 14.593634,52.1920977 14.8157319,52.3656536" id="Shape"></path>
                        </g>
                        <g id="Group" transform="translate(32.461583, 40.122659)" fill="#0984E3">
                            <path d="M1.01026735,4.07199479 C0.507573934,2.56197501 0.121315748,1.11488931 0.0216137252,0.00079663402 C0.119921314,1.11488931 0.505482283,2.56197501 1.01026735,4.07199479" id="Path"></path>
                        </g>
                        <g id="Group" transform="translate(9.928530, 18.434735)" fill="#00BCD4">
                            <path d="M14.2552331,55.4213981 L10.3803429,55.4213981 C11.4065413,48.7734457 12.3676726,41.0993623 12.3620955,35.7178057 C12.3589971,32.6816468 12.0497743,30.3725392 11.2677318,29.3967762 C10.3908776,28.302445 7.08206969,29.6192089 7.08206969,29.6192089 L6.98942678,29.6235887 C7.20972479,28.9253191 7.45202162,28.2536412 7.68998064,27.6216947 C9.34020172,27.3069728 11.4000346,26.4926377 12.6282502,24.4732244 C13.2361611,23.4730596 13.6442237,22.181949 13.6910099,20.4994696 C13.7055725,19.9782701 13.694728,19.4373614 13.6637438,18.8833132 C13.4248552,14.5748144 11.9190207,9.42945567 10.5876276,5.61556449 C10.4512969,5.225447 10.3171351,4.84659192 10.1857619,4.48682038 C10.0466426,4.10421117 9.91217095,3.74381394 9.78265679,3.40093602 C9.0257116,1.39935487 8.46086875,0.115752583 8.46086875,0.115752583 L8.46830497,0.113875514 L8.45931954,0.113875514 C7.46038736,0.113875514 6.55533746,0.616304292 5.87709226,1.42938797 C5.68220134,1.66308305 5.50311238,1.91930296 5.34912067,2.20055045 C5.23664785,2.34508476 5.11828802,2.51933932 4.99497071,2.71893432 C3.53840118,5.07684571 1.38809433,11.0797121 0.424794047,15.9973198 C0.340826734,16.4240401 0.266464537,16.8426265 0.201707458,17.2496376 C0.123317309,17.7448709 0.0619684971,18.2207079 0.0158019668,18.6768356 C0.568870803,17.7473737 3.65954959,17.7020112 4.61448413,19.9726389 C4.62346957,19.9929738 4.63152547,20.0180014 4.63958138,20.0408391 C4.8490349,19.5277736 5.17808762,18.7153156 5.56755962,17.7389269 C5.64130213,17.5537228 5.7169037,17.3638259 5.794984,17.1679851 C6.40196543,15.6378611 7.11770157,13.801462 7.74885072,12.0905137 C8.57767936,14.1718703 9.3473281,16.3392592 9.73060325,18.0258056 C9.82975285,18.4615984 9.90194615,18.8642297 9.94346504,19.2258783 C9.96205559,19.3891833 9.97692803,19.5465442 9.98188551,19.6917042 C10.0196863,20.738483 9.6419883,22.4434873 9.12795962,24.2376523 C9.12610056,24.2414064 9.12424151,24.2457863 9.12238245,24.2489147 C9.05111868,24.3990802 8.97458759,24.5642623 8.89433838,24.7385168 C8.87481831,24.7807509 8.85591792,24.8226721 8.836088,24.8661575 C8.75274037,25.0494846 8.666914,25.2400071 8.57705968,25.4455461 C8.57024315,25.4605627 8.56342661,25.4771435 8.55661008,25.49216 C8.47388213,25.6820568 8.38805576,25.8822775 8.30068018,26.0887551 C8.27682231,26.1450672 8.25358413,26.2007535 8.22941641,26.2586298 C8.13677351,26.4807496 8.04289124,26.7094392 7.94807943,26.9475141 C7.92979873,26.9935023 7.91120818,27.0423061 7.89261763,27.0892328 C7.81081921,27.2972746 7.72840111,27.5100091 7.64629285,27.7280619 C7.62274482,27.7912566 7.5991968,27.8525742 7.57502908,27.9160817 C7.48145665,28.1682346 7.38819406,28.4260187 7.29617085,28.6894341 C7.27293266,28.7566957 7.24969447,28.8242702 7.22645629,28.8918447 C7.14465787,29.1292939 7.06440867,29.3704972 6.98539883,29.6151419 C6.96928702,29.665197 6.95286537,29.7143137 6.93644372,29.7649945 C6.84844845,30.0431136 6.76324177,30.3249868 6.68082367,30.6096756 C6.65882485,30.6856968 6.63744572,30.762031 6.61575675,30.8383651 C6.5330288,31.1324392 6.45215992,31.4277648 6.37686819,31.7268444 C6.3725304,31.7449894 6.36850244,31.7637601 6.36385481,31.7819051 C6.29290088,32.0665939 6.22752411,32.3537854 6.16586546,32.6416026 C6.14944381,32.7166854 6.13364184,32.7917682 6.11814972,32.8674766 C6.0568009,33.1665563 5.99978989,33.4659487 5.95052493,33.7650284 C5.94215918,33.8160221 5.93534265,33.8663901 5.92728675,33.9164453 C5.89692218,34.1082192 5.87275447,34.2990545 5.84827691,34.4902027 C6.4608355,34.9497717 6.85991263,35.6833928 6.85991263,36.5130573 C6.85991263,36.7749084 6.82025279,37.0270613 6.74712996,37.2641977 C6.59003982,37.7725705 6.27709891,38.2093019 5.86593793,38.5233981 C5.88143006,38.6088047 5.88824659,38.6982783 5.90590761,38.7827464 C5.93689186,38.9304092 5.96446784,39.0871444 5.99049461,39.251388 C5.99948004,39.3051973 6.00598674,39.3643249 6.01435248,39.4193856 C6.03077414,39.5323226 6.04688594,39.6449467 6.06144854,39.7650792 C6.07043397,39.8376592 6.07725051,39.9152447 6.08530641,39.9893889 C6.09677058,40.0998231 6.10916428,40.2086931 6.11938909,40.3235072 C6.12682531,40.4057853 6.13240247,40.4924434 6.13921901,40.5775372 C6.14789459,40.6917255 6.15718987,40.8052882 6.16462609,40.9241692 C6.17020325,41.0148942 6.17485089,41.1096862 6.18011821,41.2026011 C6.18662491,41.3208564 6.19282175,41.4387989 6.19808908,41.5604956 C6.20242687,41.6599802 6.2055253,41.7622805 6.20862372,41.8636422 C6.21265167,41.9859645 6.21698947,42.1082868 6.21977805,42.2343633 C6.22194695,42.3382278 6.223806,42.4449079 6.22535522,42.5509623 C6.22721427,42.6798543 6.22938317,42.8090592 6.23062254,42.9407669 C6.23155207,43.0493241 6.23155207,43.1591326 6.23155207,43.2695668 C6.23186191,43.4037772 6.23155207,43.5386134 6.23093238,43.6759522 C6.23062254,43.7888892 6.22907333,43.9033904 6.22783396,44.0182045 C6.2259749,44.1564819 6.22442569,44.295385 6.22163711,44.4355395 C6.21946821,44.5537948 6.21729931,44.6729887 6.21420089,44.7931211 C6.21110246,44.9332756 6.20738435,45.0737429 6.20366624,45.2160873 C6.19994813,45.3393481 6.19653986,45.4629218 6.19251191,45.5880598 C6.18755443,45.7322812 6.1829068,45.8771284 6.17701979,46.0235397 C6.17268199,46.148052 6.16772451,46.2728771 6.16245719,46.3983278 C6.15626034,46.5456777 6.14975365,46.6939662 6.14324696,46.8419418 C6.13705011,46.9708339 6.13147294,47.1000388 6.12465641,47.2298694 C6.11722019,47.3781578 6.10916428,47.5267591 6.10141822,47.6750475 C6.09429184,47.8073809 6.08716547,47.9397143 6.07972925,48.0726733 C6.0713635,48.2190847 6.06268791,48.3664346 6.05370248,48.5134717 C6.04533673,48.6511234 6.03759067,48.7884623 6.02860524,48.9264268 C6.01930996,49.0718997 6.00970485,49.2173725 6.00009973,49.3631582 C5.99080445,49.5036255 5.98150918,49.6447185 5.97190406,49.7858115 C5.96260879,49.9250275 5.95207414,50.0639306 5.94184934,50.2031465 C5.9313147,50.353312 5.92078005,50.502539 5.90931588,50.6530174 C5.90002061,50.7750268 5.89041549,50.8964106 5.88112021,51.0181073 C5.86841667,51.1857921 5.85571313,51.3534769 5.84208006,51.5217874 C5.83588321,51.6009372 5.82906668,51.6797741 5.82255998,51.7589238 C5.75780291,52.5563652 5.6877785,53.3509911 5.61527536,54.1312261 C5.54246238,54.911461 5.46717065,55.6782437 5.39063956,56.4199987 C5.38909035,56.4312612 5.38847066,56.4422107 5.38692145,56.4534731 C5.35283878,56.7875914 5.31782658,57.1138886 5.28343406,57.4370573 C5.19853722,58.2344987 5.11333054,58.9937731 5.03184196,59.7048693 C4.94074827,60.4960539 4.85337269,61.2265465 4.7746727,61.8716326 L4.77498254,61.8722582 L24.2364989,61.8722582 L24.5959162,59.3216344 L24.7846102,59.1145312 C24.7846102,59.1145312 25.0687358,57.6939028 25.3770291,55.4217109 L17.8831787,55.4217109 L14.2552331,55.4217109 L14.2552331,55.4213981 Z M26.5401778,2.49712734 C26.3369211,2.1702045 26.1017507,1.87800744 25.8486093,1.61553064 C24.5937473,0.313470508 22.8446864,-0.203661977 21.7081842,0.0738313771 L21.7069448,0.0581891362 C21.6056263,0.0366028437 21.0875697,0.0231505166 20.9645622,0.0100110342 L22.3213625,4.34478884 L24.9785716,12.8347715 C25.3720716,11.7298036 25.725292,10.8012802 25.9530263,10.2685055 C27.2974328,13.7582894 31.5001363,17.6234871 33.566166,18.3283265 C32.454761,17.6553973 31.2277847,15.513036 32.1786913,13.5139576 C32.4587889,12.924558 33.4546227,11.8446177 34.5561127,10.7534149 C31.8545961,8.14835614 27.2531253,3.64307791 26.5401778,2.49712734 Z M11.658753,2.46240156 L10.5857685,0.0947919799 L12.0296345,0.0816524976 L12.1495435,0.0807139631 L12.4321199,0.331302663 L12.9975824,0.832480061 L16.1130486,3.59458696 L16.6760324,2.92947888 L19.0237089,0.157048099 L20.6953091,5.10938157 L22.0610948,9.15540361 L14.7912606,9.37783627 L11.658753,2.46240156 Z" id="Shape"></path>
                        </g>
                        <g id="Group" transform="translate(15.293543, 18.434735)" fill="url(#linearGradient-3)">
                            <path d="M4.6189474,29.5318392 C5.45984637,30.499618 5.7930076,32.790876 5.79567289,35.8031571 C5.80200296,41.1423905 4.76820364,48.7558108 3.66477362,55.3517908 L7.83128806,55.3517908 L19.790777,55.3517908 C19.7937755,55.3334781 19.7961076,55.3142343 19.799106,55.2959216 C19.8170967,55.1742509 19.8350875,55.0479244 19.8530782,54.9209772 C19.8667378,54.8250684 19.8800642,54.7276076 19.8937238,54.6292158 C19.9103819,54.5075451 19.9277063,54.3858744 19.9440312,54.2607894 C19.9606892,54.1347733 19.9770141,54.0047222 19.9936722,53.8749815 C20.007665,53.7685197 20.0209914,53.6648513 20.034651,53.5562167 C20.0633029,53.3259114 20.0916216,53.0897089 20.1196072,52.8488505 C20.1309346,52.7498379 20.1415958,52.6480318 20.1532564,52.548088 C20.1715803,52.3820323 20.1899042,52.2144247 20.208228,52.0437133 C20.2195555,51.9372514 20.2302167,51.8289272 20.241211,51.7202927 C20.2595349,51.5408905 20.2771924,51.3583844 20.2941836,51.1743264 C20.3038453,51.0765553 20.3131738,50.9787842 20.3215029,50.8797716 C20.3471563,50.5957698 20.3721434,50.3089746 20.3954647,50.016282 C20.3964641,50.0057289 20.3974636,49.9951759 20.3977968,49.9846228 C20.4144548,49.7779068 20.4294471,49.569018 20.4447725,49.3585774 C20.4467715,49.3303324 20.4484373,49.3027082 20.4504363,49.2738424 C20.4637627,49.0820248 20.476756,48.8883449 20.4884166,48.6931131 C20.4914151,48.6471762 20.4944135,48.6012393 20.4970788,48.5553024 C20.5074068,48.3805559 20.5170685,48.2048783 20.526397,48.0282696 C20.5297286,47.9621577 20.5337266,47.8957354 20.536725,47.8286924 C20.5447209,47.6707067 20.5513841,47.5108587 20.5580473,47.3513211 C20.5620453,47.2681381 20.56571,47.1858862 20.5687085,47.1027032 C20.5743722,46.9624094 20.5787033,46.8205637 20.5827013,46.6793388 C20.5860329,46.5762911 20.5896977,46.4732435 20.5926961,46.3692647 C20.5956946,46.2609405 20.5973604,46.1519956 20.6003588,46.043361 C20.6030241,45.9055503 20.607022,45.76805 20.6093542,45.6293082 L20.6093542,45.6019943 C20.6130189,45.377276 20.6156842,45.1516265 20.6166837,44.9253562 C20.6166837,44.865452 20.6153511,44.8058582 20.6153511,44.7456436 C20.6153511,44.5227876 20.6153511,44.2996212 20.6120195,44.0773859 C20.6113531,44.043554 20.6100205,44.0100325 20.6096873,43.9758902 C20.6073552,43.8520468 20.6036904,43.727893 20.600692,43.6037392 C20.6000257,43.5817019 20.5996925,43.5593542 20.5990262,43.5370065 C20.5963609,43.436442 20.5946951,43.335567 20.5916966,43.2353129 C20.5893645,43.1567856 20.5850334,43.0788791 20.5817018,43.001283 C20.5763712,42.8746461 20.5713738,42.7489404 20.5653769,42.6232347 C20.5627116,42.5490528 20.5597131,42.4748709 20.5560484,42.4013098 C20.5487188,42.2672237 20.5403898,42.1346896 20.5317276,42.001845 C20.5250644,41.8919689 20.5190675,41.7814721 20.5120711,41.6725271 C20.5100721,41.6399368 20.5080732,41.607036 20.505741,41.5744456 C20.495413,41.422978 20.4830861,41.2736831 20.4714254,41.1231467 C20.4637627,41.0253756 20.4567663,40.9276044 20.4484373,40.829523 C20.4461052,40.8022091 20.4447725,40.7742745 20.4424404,40.7466503 C20.4417741,40.7336142 20.4401083,40.7199572 20.4387756,40.7066107 C20.4217844,40.5073439 20.4027942,40.3105602 20.3831377,40.1131556 C20.3784734,40.0597695 20.3738092,40.0063834 20.3684786,39.9533076 C20.3684786,39.9514453 20.3681454,39.9492726 20.3681454,39.9464792 C20.3674791,39.93903 20.3664796,39.9315807 20.3658133,39.9238211 C20.3604827,39.87447 20.3551521,39.8254293 20.3501547,39.7763885 C20.3301651,39.5858125 20.3098422,39.3958572 20.2885199,39.2080746 C20.2871873,39.192245 20.2851883,39.1757946 20.2831893,39.1602754 C20.2828562,39.1574819 20.2828562,39.1546884 20.282523,39.151895 C20.2771924,39.10751 20.2715287,39.063125 20.2658649,39.0190504 C20.263866,39.0035312 20.261867,38.9886328 20.259868,38.9731135 C20.2525385,38.908864 20.2445426,38.844304 20.2365467,38.7800544 C20.2255524,38.6919052 20.2145581,38.6043768 20.2042301,38.5159172 C20.1982332,38.4693596 20.1925695,38.4215604 20.1865726,38.3753131 C20.1765777,38.2980274 20.1659166,38.2229143 20.1552554,38.1462494 C20.1525901,38.125764 20.1495917,38.105589 20.1465932,38.085414 C20.1442611,38.0683429 20.141929,38.0518925 20.1395968,38.034511 C20.1206066,37.8951483 20.1022828,37.7548546 20.0822931,37.6170439 C20.0822931,37.6161127 20.0822931,37.6148712 20.0816268,37.61394 C20.0692998,37.5270324 20.0559734,37.4426078 20.0433132,37.3566313 C20.0206583,37.202991 19.9980033,37.0493507 19.9743489,36.8978831 C19.972683,36.8891923 19.9720167,36.8808119 19.9703509,36.8718108 C19.9676856,36.8547396 19.9646872,36.8382893 19.9620219,36.8215285 C19.9473628,36.7312066 19.9323705,36.6415055 19.9177114,36.551494 C19.9027192,36.4571372 19.8870606,36.3630907 19.871402,36.2690442 C19.8644056,36.2262111 19.8577424,36.1830677 19.850746,36.140545 C19.8407512,36.0825031 19.8307564,36.0257028 19.8207615,35.968592 C19.8147646,35.9335186 19.8084346,35.8987555 19.8024377,35.8639925 C19.7771174,35.7199741 19.7524635,35.5747142 19.7264769,35.4334892 C19.7264769,35.4322477 19.7261437,35.4306958 19.7261437,35.4294542 C19.7151494,35.3676877 19.7034888,35.3080939 19.6918281,35.2463274 C19.6705058,35.1321059 19.6491835,35.0188156 19.6278612,34.906146 C19.6178663,34.8521392 19.6082047,34.7978219 19.5978767,34.7453669 C19.5942119,34.7264334 19.5905471,34.7084311 19.5872155,34.6891873 C19.5805523,34.6556658 19.573889,34.6221443 19.5672258,34.5886227 C19.5332434,34.4151178 19.4989278,34.2422337 19.4649453,34.0736949 C19.4572826,34.0361384 19.4492867,33.9998234 19.441624,33.9619565 C19.4339613,33.9244 19.4259655,33.8877747 19.4183027,33.8505285 C19.3896509,33.713649 19.3613322,33.576459 19.3330135,33.4429937 C19.3323471,33.4389587 19.3310145,33.4346134 19.330015,33.4305784 C19.3286824,33.424681 19.3273497,33.4184734 19.3260171,33.4122657 C19.3220191,33.3933322 19.3180212,33.3747092 19.3136901,33.3551549 C19.303029,33.306735 19.292701,33.2604877 19.282373,33.2123781 C19.2537211,33.0826374 19.2254024,32.9519655 19.1970837,32.8256391 C19.1897541,32.7952214 19.1830909,32.7660452 19.1764277,32.7362483 C19.1677655,32.6965191 19.158437,32.6580314 19.1494416,32.6186126 C19.1201234,32.4901135 19.0908052,32.3613039 19.0614871,32.2371501 C19.0541575,32.2073532 19.0471611,32.1781771 19.0401647,32.1486906 C19.0311694,32.1117548 19.022174,32.0748191 19.0135118,32.0372625 C19.0088476,32.0164668 19.003517,31.9969126 18.9988527,31.9758064 C18.9748651,31.8749315 18.9505444,31.7734358 18.9268899,31.6756647 C18.9178946,31.6390393 18.9088992,31.6042762 18.9005702,31.5692028 C18.8942401,31.5434409 18.8879101,31.5179893 18.8812468,31.4919171 C18.8735841,31.4624305 18.8665877,31.4338752 18.8592582,31.4043886 C18.8372695,31.3162395 18.8159472,31.2277799 18.7939586,31.1427345 C18.7862959,31.1126273 18.7786332,31.0840719 18.7713036,31.0548957 C18.749315,30.9692296 18.7276595,30.8866674 18.7063372,30.8037947 C18.6923444,30.7491671 18.6780185,30.6936082 18.6643589,30.6408429 C18.6553635,30.607011 18.6467013,30.574731 18.637706,30.5421406 C18.6330417,30.5238279 18.6277111,30.5052049 18.6230469,30.4868922 C18.6080546,30.4294711 18.5927292,30.3739123 18.5777369,30.3168015 C18.5650768,30.2690023 18.5520835,30.2196512 18.5394234,30.1734039 C18.5327602,30.1501251 18.5270964,30.127467 18.5204332,30.1054297 C18.4874502,29.9853109 18.4554668,29.8701583 18.4241496,29.7571783 C18.422817,29.7519018 18.420818,29.7460045 18.4194854,29.7404176 C18.4184859,29.7357618 18.4171532,29.7323476 18.4161537,29.7283126 C18.4008283,29.6746161 18.3861692,29.623713 18.3715101,29.5718788 C18.3491883,29.4933516 18.3268665,29.4138931 18.3052111,29.3394009 C18.2985478,29.3167428 18.2925509,29.295947 18.2862209,29.2748409 C18.2692296,29.2164886 18.2535711,29.1640337 18.2372462,29.1084748 C18.2242529,29.0634691 18.2109264,29.0175322 18.1979331,28.9753199 C18.193602,28.9601111 18.1896041,28.9473853 18.1856062,28.933418 C17.9240746,28.0519262 17.747166,27.5394814 17.7405028,27.5183753 C17.5635941,26.793938 17.3906835,26.0359791 17.2390951,25.2950914 C16.9978864,24.118424 16.8136482,22.9907973 16.7670056,22.1226519 C16.7566776,21.938594 16.7516802,21.7629164 16.7550118,21.6046203 C16.7563445,21.5232996 16.763674,21.430805 16.7750015,21.32993 C16.7763341,21.3190666 16.7776668,21.3075824 16.7786663,21.2960981 C16.8033202,21.090934 16.8459648,20.8491445 16.9046012,20.5778685 C16.9069333,20.5663843 16.9099318,20.5545897 16.9122639,20.5431055 C17.3200533,18.6839026 18.4438061,15.4782519 19.3606659,13.0988447 L19.3606659,13.0985343 L16.5034751,4.67501064 L15.044562,0.374323651 C15.176827,0.387359798 15.7342058,0.401016714 15.8428163,0.422433241 C15.8434827,0.422433241 15.8448153,0.422433241 15.8451485,0.422743626 L15.8351536,0.356631737 L13.0865734,0.381772878 L12.907999,0.383635185 L12.9579732,0.521756267 L14.7553781,5.43483178 L16.224286,9.44903392 L8.40732384,9.66971727 L5.0383974,2.80835854 L3.88466003,0.459679376 L3.66977103,0.0214165273 L1.60750297,0.478612828 L1.5995071,0.480475134 C1.5995071,0.480475134 2.20619372,1.75367216 3.02077294,3.73982228 C3.16003434,4.08000364 3.30462632,4.4381873 3.45421571,4.81716672 C3.59480976,5.17410884 3.73973489,5.54967403 3.88632584,5.93672345 C5.31791968,9.7209307 6.93774962,14.8258238 7.19395061,19.1004385 C7.22726673,19.649819 7.23859421,20.1861633 7.2232688,20.7038846 C7.17329461,22.3731322 6.73452126,23.6537784 6.08052575,24.6460775 C4.75954144,26.6499196 2.5450187,27.4572295 0.770601943,27.7700971 C0.514734112,28.3967633 0.254202024,29.0631587 0.0173243844,29.7562472 L0.116939594,29.7519018 C0.118605401,29.7525226 3.67643426,28.4461144 4.6189474,29.5318392 Z" id="Path"></path>
                        </g>
                    </g>
                    <g id="Group-43" transform="translate(67.000000, 0.000000)" fill="#00BCD4">
                        <g id="Group" transform="translate(3.257329, 4.363636)">
                            <path d="M3.31043223,4.07341043 C3.50604054,4.27025888 3.82300951,4.27025888 4.01891601,4.07341043 C4.21482251,3.87596092 4.21482251,3.55649543 4.01891601,3.35934645 L0.860855507,0.176412271 C0.66524719,-0.0216383024 0.348278224,-0.0216383024 0.152669906,0.176412271 C-0.0429384112,0.373861781 -0.0429384112,0.693327274 0.152669906,0.890476252 L3.31043223,4.07341043 Z" id="Path"></path>
                        </g>
                        <g id="Group" transform="translate(11.943540, 13.090909)">
                            <path d="M3.3289196,4.05387585 C3.52422973,4.25102483 3.84149688,4.25102483 4.0371052,4.05387585 C4.23330988,3.85642634 4.23330988,3.53726138 4.0371052,3.33891028 L0.879342879,0.156877693 C0.683734561,-0.0399707531 0.366169228,-0.0399707531 0.170262728,0.156877693 C-0.0253455899,0.354327202 -0.0253455899,0.673492163 0.170262728,0.870941673 L3.3289196,4.05387585 Z" id="Path"></path>
                        </g>
                        <g id="Group" transform="translate(3.257329, 13.090909)">
                            <path d="M3.31043223,0.156877693 L0.152669906,3.33891028 C-0.0429384112,3.53726138 -0.0429384112,3.85642634 0.152669906,4.05387585 C0.348278224,4.25102483 0.664949006,4.25102483 0.860855507,4.05387585 L4.01891601,0.870941673 C4.21482251,0.673492163 4.21482251,0.354327202 4.01891601,0.156877693 C3.82300951,-0.0399707531 3.50574236,-0.0399707531 3.31043223,0.156877693" id="Path"></path>
                        </g>
                        <g id="Group" transform="translate(11.943540, 4.363636)">
                            <path d="M0.879342879,4.07341043 L4.0371052,0.890476252 C4.23330988,0.693327274 4.23330988,0.373861781 4.0371052,0.176412271 C3.84149688,-0.0216383024 3.52422973,-0.0216383024 3.3289196,0.176412271 L0.170262728,3.35934645 C-0.0253455899,3.55649543 -0.0253455899,3.87596092 0.170262728,4.07341043 C0.366169228,4.27025888 0.683734561,4.27025888 0.879342879,4.07341043" id="Path"></path>
                        </g>
                        <g id="Group" transform="translate(0.000000, 12.000000)">
                            <path d="M0.482777579,1.54640399 L4.66983176,1.54640399 C4.92897178,1.54640399 5.13975018,1.20112614 5.13975018,0.774120287 C5.13975018,0.348491873 4.92953087,0.00229573039 4.66983176,0.00229573039 L0.482777579,0.00229573039 C0.223637558,0.00229573039 0.0131387065,0.348032727 0.0131387065,0.774120287 C0.0134182535,1.20112614 0.223637558,1.54640399 0.482777579,1.54640399" id="Path"></path>
                        </g>
                        <g id="Group" transform="translate(14.115092, 12.000000)">
                            <path d="M0.0178910046,0.773661141 C0.0178910046,1.20020785 0.228669403,1.54594484 0.488368518,1.54594484 L4.67486361,1.54594484 C4.93456272,1.54594484 5.14506157,1.20066699 5.14506157,0.773661141 C5.14506157,0.348032727 4.93484227,0.00183658431 4.67486361,0.00183658431 L0.487809424,0.00183658431 C0.228669403,0.00183658431 0.0178910046,0.347114435 0.0178910046,0.773661141" id="Path"></path>
                        </g>
                        <g id="Group" transform="translate(10.857763, 14.181818)">
                            <path d="M0.812895687,5.18304963 C1.23719428,5.18304963 1.58230878,4.97117459 1.58230878,4.70943002 L1.58230878,0.489961041 C1.58230878,0.227934722 1.2381097,0.0163414263 0.813353399,0.0163414263 C0.388139382,0.0163414263 0.0439398515,0.227371225 0.0439398515,0.489961041 L0.0439398515,4.70943002 C0.0434825959,4.97117459 0.387681671,5.18304963 0.812895687,5.18304963" id="Path"></path>
                        </g>
                        <g id="Group" transform="translate(10.857763, 0.000000)">
                            <path d="M0.812895687,5.18840286 C1.23719428,5.18840286 1.58230878,4.97737306 1.58230878,4.71562849 L1.58230878,0.495314267 C1.58230878,0.234133194 1.23765199,0.0216946522 0.812895687,0.0216946522 C0.388139382,0.0216946522 0.0434825959,0.233851446 0.0434825959,0.495314267 L0.0434825959,4.71562849 C0.0434825959,4.97737306 0.387681671,5.18840286 0.812895687,5.18840286" id="Path"></path>
                        </g>
                    </g>
                    <g id="Group" transform="translate(14.000000, 79.000000)" fill="url(#linearGradient-4)">
                        <path d="M83.4652319,49.6612578 C83.4745973,49.7017171 83.4873965,49.7402798 83.4958253,49.7810552 L6.62939302,49.7810552 C7.5078594,45.6440921 11.0822873,42.5037553 15.4330996,42.291344 C15.5891881,42.2831257 15.7449645,42.2793327 15.9038627,42.2793327 C16.3843032,42.2793327 16.8535054,42.3188437 17.3136545,42.3886992 C17.691701,42.445279 18.0616308,42.5249333 18.4237563,42.6245011 C18.4009673,42.5808809 18.3778662,42.5375768 18.3557017,42.4933244 C18.1115792,42.0150829 17.8306198,41.4875316 17.6464353,40.9413311 C15.7128103,38.3487752 13.8943786,35.6737204 12.1646053,32.9411374 C12.2807352,32.9174308 12.3874997,32.8232365 12.3753248,32.6696176 C12.2523271,31.0117347 11.9417108,29.3668114 11.9844791,27.6991298 C11.9922835,27.3748232 11.4949854,27.3065482 11.4874931,27.6333834 C11.4456614,29.2514392 11.7175677,30.8438918 11.8543012,32.4496202 C9.67093457,28.967908 7.63179371,25.393266 5.71034362,21.7560384 C5.55956208,21.4706107 5.09473037,21.6586833 5.24644844,21.9466397 C7.52159519,26.2533421 9.95595226,30.4784938 12.604775,34.5607736 C11.8755293,34.2140248 11.1559611,33.8533681 10.530046,33.3248685 C10.2818652,33.1156181 9.98123861,33.5208433 10.2281707,33.7291454 C11.0713611,34.4412922 12.0828149,34.8632701 13.0633632,35.339299 C13.0858399,35.3494138 13.1058193,35.3503621 13.1276717,35.3551034 C14.3960472,37.280713 15.708752,39.1781908 17.0835799,41.030468 C14.6860598,40.8654699 10.6052806,39.8938146 8.64355971,35.4101027 C5.76684768,28.8367314 6.97590961,29.4986202 4.07172599,25.6148438 C1.16816673,21.7307514 -1.46848111,17.90798 1.01957043,15.9728877 C3.50793414,14.0377955 7.3973487,17.9357958 9.07748589,22.2368087 C10.7576231,26.5378215 14.3601469,27.5881828 17.2540286,31.1173082 C21.6657155,36.4980785 18.9550817,41.0096062 18.9550817,41.0096062 C18.9550817,41.0096062 18.8261526,41.0254106 18.5985754,41.0402667 C18.8761009,41.7391379 19.3159584,42.4209402 19.6181459,43.0047552 C19.627199,43.0224562 19.63594,43.0395249 19.6449931,43.0569098 C20.0174204,43.2174826 20.3764241,43.4017621 20.7226285,43.6065873 C20.8602986,39.1361511 19.7754831,34.7501105 19.354044,30.2957948 C17.9376965,29.2802032 15.6500627,26.879829 15.8317498,22.0288226 C16.0040715,17.4452268 18.2283334,14.3892856 16.9733814,9.94192385 C15.7190538,5.49535234 16.4592257,0.00448845321 19.5959813,0.00448845321 C22.7336734,0.00448845321 22.942832,4.66328162 22.9756106,9.53385392 C23.0093258,14.4041417 23.5699959,13.1340991 25.2432651,20.1228104 C26.3839603,24.8881569 23.7326401,28.1745265 21.9298173,29.7846801 C21.9057797,27.4680693 21.805883,25.1539872 21.6535406,22.843382 C21.6679007,22.8275776 21.6831974,22.8136697 21.6944358,22.7918596 C22.1861147,21.8091413 22.7342977,20.8510778 22.9746741,19.7668951 C23.0452261,19.4482781 22.5626003,19.3129923 22.4917361,19.6325575 C22.3141074,20.4366861 21.9597863,21.1662178 21.5898565,21.8910081 C21.2342867,17.0207203 20.6239805,12.1678173 19.8379186,7.34905191 C19.7851606,7.02664189 19.302847,7.16382419 19.3546684,7.48338941 C20.0189813,11.5533418 20.5524919,15.6466847 20.9155539,19.7542515 C20.0580034,18.3957042 19.3156463,16.9663531 18.3094994,15.7080058 C18.10596,15.4535547 17.7541364,15.8151597 17.9554906,16.0664499 C18.992543,17.3643082 19.7349001,18.8600379 20.6345945,20.2505101 C20.7179458,20.3794741 20.8584255,20.3886407 20.9648779,20.3349056 C21.2414668,23.6184304 21.4116033,26.9104896 21.4331436,30.2066579 C20.8446897,30.6807903 20.4326159,30.92323 20.4326159,30.92323 C20.4326159,30.92323 20.3823554,30.9030003 20.2949458,30.8615928 C20.6483303,34.1745138 21.3298129,37.4476076 21.555517,40.7532586 C21.8945413,39.6017491 22.5466793,38.5867897 23.4117221,37.7994139 C23.1301383,36.0783133 23.3105767,34.0237397 24.7303582,31.9742234 C26.3577374,29.6253716 27.2390134,28.6281132 27.8714842,27.8423178 C27.8664894,28.086654 27.8655528,28.3360476 27.8696111,28.591763 C27.8858443,29.6787905 27.9704443,31.027223 28.0968761,32.5071482 C27.7603491,33.1842093 27.4231979,33.8606381 27.0988459,34.5433888 C27.0279817,33.8479946 26.9714776,33.1535487 27.0782422,32.4549937 C27.1203861,32.1777843 26.6933278,32.1328997 26.6505595,32.4091609 C26.5072702,33.3504717 26.6480621,34.289886 26.7364082,35.2286681 C26.7389057,35.2507943 26.7467101,35.2665987 26.7532658,35.2839835 C26.600299,35.6123992 26.4563854,35.9458723 26.305916,36.2765007 C26.4729308,36.2376218 26.6427551,36.2075934 26.8144525,36.1819903 C27.2265263,35.2830353 27.645468,34.3875572 28.0787698,33.4996653 C28.109051,33.5331707 28.1483853,33.5565612 28.1920901,33.5685726 C28.2710709,34.4017812 28.3606657,35.2662826 28.4583772,36.1431114 C28.621958,37.6138701 28.8055181,39.1168697 28.9918878,40.5610769 C29.2272694,42.3823775 29.4657727,44.103478 29.6724339,45.5480013 L28.6962561,49.5718048 L30.2699409,49.5721209 L37.4731154,49.5721209 L31.116253,45.7692631 L32.7486271,38.4328547 C33.1313563,38.8908666 33.4532109,39.401033 33.7001429,39.952607 C34.0984809,35.350046 37.9616726,31.7358929 42.6727373,31.7358929 C42.8603558,31.7358929 43.0464133,31.7437951 43.2312222,31.7548582 C43.860259,37.1011749 45.1586036,44.4887896 45.6406051,47.1635284 L45.0565217,49.5718048 L53.8336932,49.5718048 L46.2680811,45.0460532 L48.1342758,31.7678178 C52.5303538,32.0987622 56.0439071,35.5751008 56.4235145,39.9519749 C57.4352805,37.6856221 59.7044959,36.1029682 62.3489481,36.1029682 C63.4693518,36.1029682 64.5235739,36.3871315 65.4432476,36.8868671 L65.4432476,49.6609417 L74.3568405,49.6612578 L83.4652319,49.6612578 Z" id="Path"></path>
                    </g>
                </g>
            </g>
        </g>
    </g>
</svg>