<?xml version="1.0" encoding="UTF-8"?>
<svg width="127px" height="144px" viewBox="0 0 127 144" version="1.1" xmlns="http://www.w3.org/2000/svg" xmlns:xlink="http://www.w3.org/1999/xlink">
    <!-- Generator: Sketch 64 (93537) - https://sketch.com -->
    <title>Group 6</title>
    <desc>Created with Sketch.</desc>
    <defs>
        <path d="M1.56898143,1.83918201 C1.03696173,1.18331816 0.531543011,0.565652089 0.026124292,0.0040635926 C0.531543011,0.565652089 1.03696173,1.18331816 1.56898143,1.83918201 Z" id="path-1"></path>
        <path d="M0.0968775827,1.57710738 C0.562394824,0.909967387 1.12101551,0.389824343 1.63973473,0.0411777383 C1.12101551,0.389824343 0.562394824,0.909967387 0.0968775827,1.57710738 Z" id="path-3"></path>
        <path d="M12.5936423,26.0263756 C12.5936423,26.0263756 12.1577939,25.8683049 11.4400613,25.610997 C11.384144,25.5925673 11.3243968,25.572011 11.2707775,25.5493282 C8.60589812,24.596651 2.67790119,22.4758101 0.468019916,21.7173543 C0.317119877,21.6656092 0.18383761,21.6202436 0.0681731137,21.5812575 C0.0681731137,21.5812575 1.46380697,17.2779069 2.97127537,12.8724836 C4.23132899,9.19645389 5.57181157,5.4509581 6.24281884,4.07439625 C6.30333206,3.95105858 6.35848334,3.84615067 6.40980467,3.76392556 C7.53887399,1.84085022 10.230563,0.0595423252 11.6200689,0.0595423252 C11.766373,0.0595423252 11.8958254,0.0779720925 12.0091919,0.121211162 C12.0091919,0.121211162 15.4009958,2.98207812 16.383761,3.89576928 C16.6503255,4.56420276 17.3389506,6.48515158 17.3681563,9.87339342 C17.3757181,10.994065 16.9337419,12.8682306 16.3132899,14.9656799 L16.3132899,14.9947422 C16.2734584,15.6220632 14.9865952,19.3696855 14.7460743,19.8453152 L14.7276905,19.8431887 C13.8023746,22.524011 12.9138261,24.9333487 12.5936423,26.0263756 Z M16.6392728,15.738596 L16.6392728,15.532021 C16.5966957,15.2221584 16.4796089,14.9623746 16.2880123,14.7338901 L17.3737265,14.9498549 L16.6392728,15.738596 Z M15.8386825,7.23439251 C15.6215396,6.63471624 15.3012539,6.0548874 14.7529682,5.51829764 C15.4966825,6.07119066 15.8386825,6.65598135 15.8386825,7.23439251 Z M12.4989659,2.84761737 L12.4083032,2.84761737 C12.0613223,2.86771149 11.7288923,2.92799384 11.4132516,3.11888795 C11.6371102,2.86771149 11.8755197,2.73709973 12.1307185,2.73709973 C12.1956375,2.73709973 12.2639144,2.7672409 12.3265948,2.7672409 C12.384798,2.77728796 12.441882,2.80742914 12.4989659,2.84761737 Z" id="path-5"></path>
        <linearGradient x1="86.9919656%" y1="111.808196%" x2="23.2583446%" y2="-15.414574%" id="linearGradient-7">
            <stop stop-color="#FF9800" offset="0%"></stop>
            <stop stop-color="#FFE0B2" offset="100%"></stop>
        </linearGradient>
        <polygon id="path-8" points="2.86154146 25.1846234 23.1163966 23.6923573 19.9654885 0.0628786729 0.0152937063 3.82008353"></polygon>
        <linearGradient x1="-20.1922448%" y1="-64.8400272%" x2="92.2800837%" y2="50%" id="linearGradient-10">
            <stop stop-color="#E91E63" offset="0%"></stop>
            <stop stop-color="#F8BBD0" offset="100%"></stop>
        </linearGradient>
        <path d="M17.9889814,0.145017217 L17.9871083,0.150569678 C19.0465196,2.58712022 18.070011,5.4670511 15.6878218,6.72688818 C13.303841,7.98860329 10.3835988,7.16839048 8.97425363,4.91662258 L8.97050754,4.91474454 C8.47496463,5.59083832 0,17.9362455 0,17.9362455 L6.23459761,22.5600574 C6.98629997,21.5070495 8.61495448,19.2755317 9.71858596,21.372239 C10.820263,23.4688646 20.9699753,42.7619601 20.9699753,42.7619601 L42.3654579,31.4473428 C42.3654579,31.4473428 32.215827,12.1542555 31.1121955,10.0575482 C30.0105185,7.96092264 32.7648739,7.87404295 34.0581716,7.84456592 L33.7707812,0.0748765699 C33.7707812,0.0748765699 18.8235457,0.117336566 17.9889814,0.145017217 Z" id="path-11"></path>
        <linearGradient x1="0.00021144697%" y1="50.0004686%" x2="99.9992503%" y2="50.0004686%" id="linearGradient-13">
            <stop stop-color="#E91E62" offset="0%"></stop>
            <stop stop-color="#F8BAD0" offset="100%"></stop>
        </linearGradient>
    </defs>
    <g id="Landing" stroke="none" stroke-width="1" fill="none" fill-rule="evenodd">
        <g id="Slider" transform="translate(-131.000000, -341.000000)">
            <g id="Item" transform="translate(114.000000, 75.000000)">
                <g id="Group-6" transform="translate(17.000000, 266.000000)">
                    <g id="Group-11" transform="translate(24.000000, 42.650574)" fill-rule="nonzero">
                        <g id="Group-2" transform="translate(0.877551, 0.684583)">
                            <g id="Group" transform="translate(0.000000, 13.165111)" fill="#AD1457">
                                <path d="M6.61084682,3.31163587 L3.58810901,6.5821334 L0.566026326,3.31163587 C0.244360902,2.96408788 0.0484791066,2.4846135 0.0484791066,1.95336157 C0.0484791066,0.8951134 0.841178012,0.0375919257 1.82058699,0.0375919257 C2.2044891,0.0375919257 2.55825556,0.17093687 2.8491302,0.397197705 L3.58810901,1.02916763 L4.32774295,0.397197705 C4.61861759,0.17093687 4.97631478,0.0375919257 5.3602169,0.0375919257 C6.33897075,0.0375919257 7.12839404,0.8951134 7.12839404,1.95336157 C7.12839404,2.4846135 6.93251225,2.96408788 6.61084682,3.31163587" id="Path"></path>
                            </g>
                            <g id="Group" transform="translate(8.816327, 5.485463)" fill="#E91E63">
                                <path d="M3.0301276,4.8056046 L0.45511212,2.42200278 C0.180117663,2.16896795 0.0126008242,1.81924501 0.0126008242,1.43454978 C0.0126008242,0.662416388 0.687856754,0.035658025 1.52469972,0.035658025 C1.85157993,0.035658025 2.15474093,0.133717594 2.40379251,0.298978825 L3.0301276,0.760475957 L3.66239248,0.298978825 C3.91218529,0.133717594 4.21312262,0.035658025 4.5422265,0.035658025 C5.37906947,0.035658025 6.0543254,0.662416388 6.0543254,1.43454978 C6.0543254,1.81924501 5.88458488,2.16896795 5.6088492,2.42200278 L3.0301276,4.8056046 Z" id="Path"></path>
                            </g>
                            <g id="Group" transform="translate(4.959184, 0.000000)" fill="#F8BBD0">
                                <path d="M2.41570613,4.83079888 L0.370587368,2.41783759 C0.150852479,2.16101854 0.0144653062,1.80748599 0.0144653062,1.41575566 C0.0144653062,0.635545882 0.552436932,0.000812718519 1.21577454,0.000812718519 C1.47821653,0.000812718519 1.71792732,0.0999643778 1.91561983,0.267384393 L2.41570613,0.733884823 L2.91510361,0.267384393 C3.10935201,0.0999643778 3.35319574,0.000812718519 3.61288243,0.000812718519 C4.27415357,0.000812718519 4.81212519,0.635545882 4.81212519,1.41575566 C4.81212519,1.80748599 4.67987097,2.16101854 4.46013608,2.41783759 L2.41570613,4.83079888 Z" id="Path"></path>
                            </g>
                        </g>
                    </g>
                    <g id="Group-4" transform="translate(0.081633, 65.277010)">
                        <g id="Clipped" transform="translate(8.816327, 41.689519)">
                            <mask id="mask-2" fill="white">
                                <use xlink:href="#path-1"></use>
                            </mask>
                            <g id="Path"></g>
                            <g id="Group" mask="url(#mask-2)">
                                <g transform="translate(-63405.860837, -184.812140)">
                                    <g transform="translate(95108.933414, 185.658922) scale(-1, 1) rotate(-180.000000) translate(-95108.933414, -185.658922) translate(63405.933414, 0.658922)">
                                        <rect id="Rectangle" fill="#C4CAE9" x="0" y="0" width="63405.8699" height="369.850318"></rect>
                                    </g>
                                    <g transform="translate(31703.013229, 185.658922) rotate(-180.000000) translate(-31703.013229, -185.658922) translate(0.013229, 0.658922)">
                                        <rect id="Rectangle" fill="#FFFFFF" x="0.113714145" y="0" width="63405.8699" height="369.850318"></rect>
                                    </g>
                                </g>
                            </g>
                        </g>
                        <g id="Group" transform="translate(3.857143, 34.009871)" fill="#AD1457">
                            <path d="M18.4317326,38.8858897 C18.4317326,36.3361149 17.6399474,33.415623 17.0952286,30.1120082 C16.6465503,27.4060651 16.3657598,24.4388687 16.8188369,21.2096892 C16.8188369,21.2096892 16.1018314,20.3077082 14.997731,18.9306547 C14.2799924,18.033782 13.3972985,16.9384151 12.4486226,15.7635045 L12.4486226,16.3173909 C12.4192972,16.6034561 12.3511157,16.9464424 12.2594739,17.3915949 C12.1003837,18.1534623 11.8701795,19.0196852 11.8085962,19.7691467 L11.6194475,19.7691467 C11.1113854,22.4116008 10.4940862,25.3649318 10.1216539,26.0377687 C9.87018879,26.48657 8.78368357,28.2080693 7.56668042,30.1120082 C5.73677689,32.9755789 3.6224172,36.2536523 3.6224172,36.2536523 C2.80277291,35.6267901 0.0329910492,33.8096924 0.0329910492,33.8096924 C0.264661528,33.343377 0.86949743,31.8889691 1.59896619,30.1120082 C3.02417951,26.6369001 4.95378932,21.9233926 5.61800911,20.9280026 C5.63927001,20.4726335 5.63927001,19.7779038 5.6304724,18.9306547 C5.60041389,16.184575 5.44132372,11.8089454 5.30935952,8.52284476 C5.32695475,8.56881952 5.34454997,8.61552404 5.36287833,8.6614988 C5.26390519,8.29661975 5.21258578,7.93757877 5.18765921,7.51431907 L5.18765921,4.46174098 C5.16566517,4.34570944 5.14513741,4.23113742 5.12607591,4.11802491 C4.96625261,3.16204181 4.94132604,2.31260339 4.97724962,1.62736055 L4.97724962,1.63611764 L4.97505022,1.63611764 L4.97724962,1.60181901 L4.97724962,0.0430557274 C6.18325576,0.0685972607 9.31520603,1.46462449 10.4046438,1.88131636 C11.1480421,2.16811129 14.9339483,3.48459489 15.5453824,3.98301967 L15.5527137,3.98447918 C15.6040331,4.00783144 15.6612176,4.02899443 15.7147364,4.04796814 C16.7572536,5.75925086 21.0629521,14.8943627 22.6010681,18.9306547 C22.9434419,19.8289869 23.145787,20.4748228 23.145787,20.7287786 L23.145787,38.0087205 C23.145787,38.0087205 20.9522488,38.8858897 18.4317326,38.8858897 Z M11.7456434,19.8412505 L12.2340415,20.7204557 L12.4106961,19.8412505 L11.7456434,19.8412505 Z" id="Shape"></path>
                        </g>
                        <g id="Group" transform="translate(20.938776, 73.505204)" fill="#BF360C">
                            <path d="M0.561672277,0.800248369 C1.46296035,0.579442907 4.01733556,0.816020188 4.9541817,0.0205719375 C5.45344595,0.432010688 6.51293112,2.0517079 8.38299502,2.46383238 C10.1238888,2.84989908 12.5461912,2.90132892 12.7377694,4.90915002 L0.195206515,4.90915002 C0.0602310065,3.69197705 -0.169082223,1.32140412 0.561672277,0.800248369" id="Path"></path>
                        </g>
                        <g id="Group" transform="translate(28.238922, 77.561813) scale(-1, 1) rotate(-87.451326) translate(-28.238922, -77.561813) translate(27.238922, 71.061813)" fill="#FF9800" fill-rule="nonzero">
                            <path d="M0.58687051,0.521757179 C0.416291314,0.51247347 0.232811171,0.521043048 0.0385802386,0.537468071 L0.58687051,12.8248137 C0.728780933,12.8305267 0.918711549,12.8390963 1.13802766,12.8519507 L0.58687051,0.521757179 Z" id="Path"></path>
                        </g>
                        <g id="Group" transform="translate(1.102041, 67.471195)" fill="#BF360C">
                            <path d="M0.00928636941,2.92285355 C0.811485819,1.90579437 2.39731198,-0.0513295907 3.28880344,0.0762611062 C4.08028785,0.555092859 5.68325808,2.55914674 6.92263123,2.62514192 C6.96406272,3.29315988 6.50974496,5.27668192 7.50910117,6.9236285 C7.6026792,7.08348351 7.71054395,7.24700492 7.81769437,7.41272617 C9.33351559,7.70897124 10.9314855,8.07487789 11.0907824,9.81715086 L6.72547446,9.81715086 L0.00928636941,2.92285355 Z" id="Path"></path>
                        </g>
                        <g id="Group" transform="translate(0.000000, 70.213926)" fill="#FF9800" fill-rule="nonzero">
                            <path d="M0.0557182165,0.397626599 C0.136438197,0.301481998 0.242159941,0.176494017 0.366454424,0.0288433802 L7.08264251,6.48564007 L11.4479505,6.48564007 C11.4608085,6.63329071 11.4693806,6.78643532 11.4565225,6.95812211 L6.87977106,6.95812211 L0.0557182165,0.397626599 Z" id="Path"></path>
                        </g>
                        <g id="Clipped" transform="translate(8.816327, 34.558417)">
                            <mask id="mask-4" fill="white">
                                <use xlink:href="#path-3"></use>
                            </mask>
                            <g id="Path"></g>
                            <g id="Group" mask="url(#mask-4)">
                                <g transform="translate(-59359.881459, -230.927156)">
                                    <g transform="translate(89040.243770, 231.239850) scale(-1, 1) rotate(-180.000000) translate(-89040.243770, -231.239850) translate(59360.243770, 0.239850)">
                                        <rect id="Rectangle" fill="#C4CAE9" x="0" y="0" width="59359.0362" height="461.660962"></rect>
                                    </g>
                                    <g transform="translate(29680.230871, 231.239850) rotate(-180.000000) translate(-29680.230871, -231.239850) translate(0.230871, 0.239850)">
                                        <rect id="Rectangle" fill="#FFFFFF" x="0.227428289" y="0" width="59359.0362" height="461.660962"></rect>
                                    </g>
                                </g>
                            </g>
                        </g>
                        <g id="Group" transform="translate(27.551020, 72.956658)" fill="#FF9800" fill-rule="nonzero">
                            <path d="M3.67454494,1.97733287 L3.34064383,3.0236139 C3.25247435,3.31030412 3.38064666,3.62557118 3.63454212,3.72973836 C3.89007035,3.83390555 4.17417203,3.68456852 4.26234151,3.39603463 L4.59624262,2.35251911 C4.68849402,2.06306339 4.55542341,1.74779633 4.30234433,1.64362914 C4.0468161,1.54222745 3.76679635,1.68879898 3.67454494,1.97733287 Z M2.24342357,1.29333241 L1.64174847,2.17091791 C1.4760225,2.41151645 1.51357617,2.75904768 1.72910157,2.94617988 C1.94054506,3.13331208 2.24832188,3.08814224 2.41649701,2.8475437 L3.01817211,1.9699582 C3.18389808,1.72659416 3.14634441,1.37814109 2.930819,1.19377439 C2.7152936,1.00664219 2.4115987,1.04996836 2.24342357,1.29333241 Z M1.00007055,0.140118693 L0.222872866,0.816744486 C0.00734745711,1.00387669 -0.0334717491,1.35232975 0.128172307,1.5929283 C0.296347437,1.83629234 0.604124252,1.88146218 0.814751356,1.69432998 L1.5992965,1.01770419 C1.80747445,0.830571988 1.85237558,0.484884424 1.6866496,0.241520378 C1.51847447,0.000921833505 1.21069766,-0.0442480083 1.00007055,0.140118693" id="Shape"></path>
                        </g>
                        <g id="Group" transform="translate(6.061224, 71.311019)" fill="#FF9800" fill-rule="nonzero">
                            <path d="M1.76134875,3.37440729 L0.99122639,3.71412363 C0.781687799,3.80839898 0.671475942,4.08878687 0.750393074,4.34154233 C0.831351166,4.59348507 1.06402064,4.72108188 1.27560019,4.62924468 L2.04300127,4.28709019 C2.25458082,4.19281484 2.36139108,3.91405239 2.28383459,3.65967149 C2.20695841,3.40772875 1.97020702,3.28013194 1.76134875,3.37440729 Z M1.37832853,1.89370131 L0.558542805,1.94157465 C0.333356851,1.95446362 0.157834264,2.21132248 0.165998105,2.51605467 C0.177563547,2.82078686 0.365331895,3.05831225 0.59459977,3.04450263 L1.41166421,2.9966293 C1.63480921,2.98374033 1.81033179,2.72688147 1.80216795,2.42214928 C1.79468443,2.11741709 1.60283416,1.8798917 1.37832853,1.89370131 Z M1.35859925,0.294204104 L0.558542805,0.084522726 C0.337438771,0.0276324296 0.120416658,0.192614289 0.072794251,0.456747808 C0.0238112036,0.719255889 0.161916185,0.980951253 0.383020218,1.03702883 L1.18647826,1.24752293 C1.40554133,1.3036005 1.62324377,1.13618049 1.67222681,0.874485127 C1.71780826,0.610351608 1.57766232,0.3510944 1.35859925,0.294204104" id="Shape"></path>
                        </g>
                        <g id="Clipped" transform="translate(8.265306, 13.713657)">
                            <mask id="mask-6" fill="white">
                                <use xlink:href="#path-5"></use>
                            </mask>
                            <g id="Shape"></g>
                            <g id="Group" mask="url(#mask-6)">
                                <g transform="translate(-9751.079609, -39457.408541)">
                                    <g transform="translate(14565.975128, 20511.820888) scale(-1, 1) rotate(-103.203728) translate(-14565.975128, -20511.820888) translate(-6467.024872, 20359.320888)">
                                        <rect id="Rectangle" fill="#FF9800" x="0.417578313" y="0.0136628896" width="42064.6535" height="304.090472"></rect>
                                    </g>
                                    <g transform="translate(4952.777569, 58428.737952) rotate(103.203728) translate(-4952.777569, -58428.737952) translate(-16079.722431, 58276.237952)">
                                        <rect id="Rectangle" fill="#FFE0B2" x="-0.00223995077" y="0.0152150771" width="42064.6535" height="304.090472"></rect>
                                    </g>
                                    <g transform="translate(9759.270281, 39471.426105) rotate(103.203735) translate(-9759.270281, -39471.426105) translate(9744.770281, 39454.426105)">
                                        <rect id="Rectangle" stroke="#979797" fill="url(#linearGradient-7)" x="-0.000571693901" y="0.00113643178" width="28.96793" height="33.6781914"></rect>
                                    </g>
                                </g>
                            </g>
                        </g>
                        <g id="Group" transform="translate(19.836735, 1.645639)" fill="#FFF3E0" fill-rule="nonzero">
                            <path d="M10.635293,4.95617456 C10.1024512,6.19256879 9.61054194,7.01494757 9.1502298,7.98640018 C9.17033704,10.4019612 8.69350823,10.0246844 8.16856568,9.69050467 C7.90573535,10.1907145 7.02604366,12.8146963 5.57832248,11.3896636 C4.12772884,9.96321792 4.09613175,11.6913438 4.15717158,14.3626618 C2.80065109,14.0899486 0.272883953,11.2363507 0.0560130218,10.6004908 C0.922778629,9.62903822 1.97697242,7.59711263 1.78308119,5.91773601 C1.58990808,4.23906591 3.46706243,-1.8136137 8.29351781,0.587110629 C10.8500096,1.86236296 11.1315109,3.81869188 10.635293,4.95617456" id="Path"></path>
                        </g>
                        <g id="Group" transform="translate(20.387755, 0.000000)" fill="#FF9800" fill-rule="nonzero">
                            <path d="M5.74205588,4.03619068 C6.39721321,4.2750058 7.78715253,5.71721964 9.89511077,6.08584117 C12.0072598,6.45231122 12.086186,5.50709102 12.086186,4.52314404 C12.086186,2.96188122 10.2254833,1.87394567 7.78715253,0.847686103 C5.34463101,-0.180007793 2.6045647,-0.324157461 1.48562862,1.1137534 C0.367390998,2.55022993 -0.382757161,4.23341038 0.280083251,6.1962842 C0.900317483,8.04656351 0.778785099,8.52921389 0.707541978,10.0775678 C0.636298857,11.6259217 1.84673346,8.17780426 2.3070199,8.52491092 C2.76870326,8.87488623 3.93653168,14.3626139 5.86358826,15.3013796 C6.62561027,15.6714355 8.26559898,11.6467194 7.38623536,11.2264621 C6.50617328,10.8062049 2.94541414,8.95807708 3.4476083,8.21724819 C3.94631015,7.47785363 3.42525751,6.94571904 3.00827572,6.73917623 C2.58850007,6.53335059 3.27578665,4.3381161 3.81499929,5.79467319 C4.31370114,7.13863576 5.08550162,6.12313363 4.74115987,5.24102372 C4.43523353,4.45644792 4.74115987,3.67187212 5.74205588,4.03619068" id="Path"></path>
                        </g>
                        <g id="Group" transform="translate(35.265306, 31.815685)" fill="#FFF3E0" fill-rule="nonzero">
                            <path d="M6.39970512,3.31101525 C6.50121666,2.07720694 6.58630721,1.18758494 5.4487809,1.0083805 C4.2052646,0.809975594 3.07296314,0.304363085 2.23847862,0.0298674056 C1.40250127,-0.244628274 -1.15991856,1.43719111 0.668035466,2.32254635 C2.49449668,3.2057682 3.9193902,3.431196 4.62549249,3.31101525 C4.41575175,3.70924732 3.95447139,4.74962862 5.12409327,4.84065309 C6.29147591,4.93096643 6.31760021,4.26890561 6.39970512,3.31101525" id="Path"></path>
                        </g>
                        <g id="Group" transform="translate(16.530612, 14.262204)" fill="#FFE0B2">
                            <path d="M18.7082586,16.6563951 L17.5645254,20.5315144 C15.3233207,19.8145806 6.36633086,17.3608286 4.28810994,16.4328588 C2.20846559,15.5063597 0.328814406,7.60685183 0.184335349,5.24722037 C0.0398562916,2.88905953 -0.480410657,0.366923061 2.28106097,0.0257360864 C4.29665058,-0.22427161 5.38059936,2.38389692 5.66599888,4.86926755 C5.95282184,7.3509616 6.60191001,11.2474051 7.78265265,11.9216906 C8.96624217,12.5937701 18.7082586,16.6563951 18.7082586,16.6563951" id="Path"></path>
                        </g>
                        <g id="Group" transform="translate(22.591837, 18.102028)" fill="#FFE0B2">
                            <path d="M0.899836723,0.06301647 C1.43248201,1.44583856 1.42595094,7.17821318 2.49777258,7.91175321 C3.56378883,8.6431691 12.7617166,13.05503 12.7617166,13.05503 L12.5657844,13.675282 C12.5657844,13.675282 1.97165837,10.4168349 0.899836723,8.95541925 C-0.174161946,7.49683578 -0.328004999,0.06301647 0.899836723,0.06301647" id="Path"></path>
                        </g>
                        <g id="Group" transform="translate(5.523158, 69.368679) scale(-1, 1) rotate(58.260897) translate(-5.523158, -69.368679) translate(4.523158, 67.368679)" fill="#FFF3E0" fill-rule="nonzero">
                            <path d="M0.410683846,3.94852388 L1.30873266,3.94852388 C1.30873266,3.94852388 2.2347335,2.40957145 0.996959924,0.0336574212 C0.716722826,0.0993574784 0.226487083,0.148632521 0.226487083,0.148632521 C0.226487083,0.148632521 -0.283816789,2.6845119 0.410683846,3.94852388" id="Path"></path>
                        </g>
                        <g id="Group" transform="translate(24.827780, 73.628908) scale(-1, 1) rotate(90.000000) translate(-24.827780, -73.628908) translate(23.327780, 71.128908)" fill="#FFF3E0" fill-rule="nonzero">
                            <path d="M0.155929368,4.54147108 L1.1674293,4.54147108 C1.1674293,4.54147108 2.59773428,3.07451416 1.84911004,0.119469622 C1.52010724,0.119469622 0.963333266,0.0463249556 0.963333266,0.0463249556 C0.963333266,0.0463249556 -0.280019754,2.95666997 0.155929368,4.54147108" id="Path"></path>
                        </g>
                    </g>
                    <g id="Group-5" transform="translate(35.000000, 100.000000)">
                        <g id="Group" transform="translate(35.355574, 19.367996) scale(-1, 1) rotate(-175.426130) translate(-35.355574, -19.367996) translate(30.355574, 11.867996)" fill="#E91E63">
                            <rect id="Rectangle" x="0.0493297819" y="0.0355852166" width="9.91422944" height="13.9894702"></rect>
                        </g>
                        <g id="Group" transform="translate(30.054990, 10.193581) scale(-1, 1) rotate(-175.429887) translate(-30.054990, -10.193581) translate(24.054990, 4.693581)" fill="#B2EBF2">
                            <rect id="Rectangle" x="0.0474045139" y="0.0450416953" width="11.1459195" height="10.1430969"></rect>
                        </g>
                        <g id="Group" transform="translate(27.062703, 21.436179) scale(-1, 1) rotate(-175.416077) translate(-27.062703, -21.436179) translate(22.062703, 15.436179)" fill="#AD1457">
                            <rect id="Rectangle" x="0.0173183389" y="0.0277258424" width="9.9132261" height="11.4840844"></rect>
                        </g>
                        <g id="Group" transform="translate(12.469388, 37.685121)" fill="#00BCD4">
                            <rect id="Rectangle" x="0.0411457598" y="0.062579326" width="36.3061368" height="5.72034639"></rect>
                        </g>
                        <g id="Group" transform="translate(12.469388, 26.714195)" fill="#006064" fill-rule="nonzero">
                            <path d="M36.0049672,10.0510447 C36.3010643,10.0510447 36.5468395,9.80544893 36.5468395,9.50249843 C36.5468395,9.19954793 36.3010643,8.9524815 36.0049672,8.9524815 L1.09978915,8.9524815 L1.09978915,6.71417729 C1.16542643,6.15460124 3.78581265,2.68978869 4.33570723,2.44639885 C5.10585136,2.37801439 15.8638021,1.53092948 20.4963357,1.16621237 L20.771283,1.14488819 C21.069568,1.12135805 21.2963813,0.85443807 21.2708557,0.553693517 C21.2497059,0.265449349 21.0170582,0.0455896388 20.7333593,0.0455896388 L20.684496,0.0477955891 C20.5276958,0.0602959739 4.8608055,1.29195154 4.17890705,1.360336 C3.39198895,1.43901489 0.0102102441,5.5339939 0.0102102441,6.71417729 L0.0102102441,9.50249843 C0.0102102441,9.80544893 0.255256103,10.0510447 0.555729001,10.0510447 L36.0049672,10.0510447 Z" id="Path"></path>
                        </g>
                        <g id="Group" transform="translate(14.415188, 40.732499) scale(-1, 1) rotate(-90.000000) translate(-14.415188, -40.732499) translate(11.415188, 37.732499)" fill="#E91E63" fill-rule="nonzero">
                            <path d="M2.95299744,0.031289663 C4.55372261,0.031289663 5.84986847,1.32608572 5.84986847,2.91738858 C5.84986847,4.5124164 4.55372261,5.80348749 2.95299744,5.80348749 C1.35077556,5.80348749 0.0516362958,4.5124164 0.0516362958,2.91738858 C0.0516362958,1.32608572 1.35077556,0.031289663 2.95299744,0.031289663" id="Path"></path>
                        </g>
                        <g id="Group" transform="translate(14.367522, 40.680602) scale(-1, 1) rotate(-90.000000) translate(-14.367522, -40.680602) translate(11.867522, 38.180602)" fill="#B2EBF2" fill-rule="nonzero">
                            <path d="M2.19361118,0.0214660891 C3.3795711,0.0214660891 4.34243786,0.977532675 4.34243786,2.16064443 C4.34243786,3.34458181 3.3795711,4.3006484 2.19361118,4.3006484 C1.00433389,4.3006484 0.0414671301,3.34458181 0.0414671301,2.16064443 C0.0414671301,0.977532675 1.00433389,0.0214660891 2.19361118,0.0214660891" id="Path"></path>
                        </g>
                        <g id="Group" transform="translate(13.020408, 36.588029)" fill="#FF9800" fill-rule="nonzero">
                            <path d="M4.59363019,0.0690810741 C4.32912173,0.53801966 1.65758633,5.26397785 0.451133867,4.40818525 C-0.681109275,3.60359391 1.00072366,0.0690810741 1.00072366,0.0690810741 L4.59363019,0.0690810741 Z" id="Path"></path>
                        </g>
                        <g id="Group" transform="translate(13.117862, 40.529528) scale(-1, 1) rotate(-90.000000) translate(-13.117862, -40.529528) translate(12.117862, 39.529528)" fill="#006064" fill-rule="nonzero">
                            <path d="M0.880700166,0.0791046025 C1.30321099,0.0791046025 1.64953134,0.4215754 1.64953134,0.847069422 C1.64953134,1.27429309 1.30321099,1.61503424 0.880700166,1.61503424 C0.452994539,1.61503424 0.106674192,1.27429309 0.106674192,0.847069422 C0.106674192,0.4215754 0.452994539,0.0791046025 0.880700166,0.0791046025" id="Path"></path>
                        </g>
                        <g id="Group" transform="translate(6.000000, 2.000000)" fill="#00BCD4" fill-rule="nonzero">
                            <path d="M46.4655002,10.49267 L4.06917596,4.45434933 C5.7263299,8.67148894 11.4852547,23.1111041 12.4808805,25.6081224 L44.304607,23.2879587 L46.4655002,10.49267 Z M11.5926697,26.3471219 C11.2593128,25.5203969 3.80249048,6.82293748 2.71056159,4.00028221 L2.69500494,3.96519201 C2.6564837,3.86343045 2.62833357,3.78623202 2.60685057,3.73078951 C2.0957034,2.37279897 1.58603782,1.7657386 0.320022577,1.03094992 C0.0577818541,0.880062086 -0.024446169,0.557934097 0.137046705,0.309495518 C0.296317201,0.0631623506 0.637822774,-0.0140360779 0.895618739,0.13685176 C2.34905461,0.98182365 3.04762241,1.79240715 3.63507126,3.33005949 L47.1811063,9.53330412 C47.3270425,9.55365644 47.4603852,9.62874945 47.5440948,9.74103808 C47.6344716,9.85473031 47.6692888,9.99579289 47.647065,10.1340483 L45.3320869,23.8620343 C45.2913433,24.1006476 45.0831805,24.2838184 44.8290885,24.3020653 L12.1519684,26.6832859 L12.1090024,26.6853913 C11.8763934,26.6853913 11.6726753,26.550645 11.5926697,26.3471219" id="Shape"></path>
                        </g>
                        <g id="Group" transform="translate(46.000000, 10.000000)" fill="#00BCD4" fill-rule="nonzero">
                            <path d="M0.362988571,15.7475531 C0.518555101,15.7475531 0.651280514,15.609631 0.665479046,15.424298 L1.94087766,0.432443527 C1.95878016,0.234180381 1.83716664,0.0610593019 1.66678425,0.0402273048 C1.49640186,0.023705376 1.34824326,0.165219288 1.32848878,0.361327398 L0.0543248201,15.3531819 C0.0401262876,15.551445 0.161739805,15.7267211 0.332122196,15.7453981 L0.362988571,15.7475531 Z" id="Path"></path>
                        </g>
                        <g id="Group" transform="translate(42.000000, 7.000000)" fill="#00BCD4" fill-rule="nonzero">
                            <path d="M0.482090367,18.8565453 C0.740724905,18.8565453 0.947819952,18.6761579 0.947819952,18.4528982 L0.947819952,0.462697606 C0.947819952,0.240246834 0.740724905,0.0590505685 0.482090367,0.0590505685 C0.229078319,0.0590505685 0.0144866187,0.240246834 0.0144866187,0.462697606 L0.0144866187,18.4528982 C0.0144866187,18.6761579 0.229078319,18.8565453 0.482090367,18.8565453" id="Path"></path>
                        </g>
                        <g id="Group" transform="translate(37.000000, 8.000000)" fill="#00BCD4" fill-rule="nonzero">
                            <path d="M1.61863271,18.6938164 L1.6401157,18.6915371 C1.84457457,18.6786207 1.99940031,18.4970314 1.98680683,18.2880898 L0.795611683,0.354061065 C0.782277409,0.144359662 0.604487089,-0.00531851386 0.404472979,0.00151957539 C0.20001411,0.0144359662 0.0496331311,0.195265437 0.0622266121,0.404966841 L1.248977,18.3405151 C1.26157048,18.5395795 1.42306336,18.6938164 1.61863271,18.6938164" id="Path"></path>
                        </g>
                        <g id="Group" transform="translate(33.000000, 9.000000)" fill="#00BCD4" fill-rule="nonzero">
                            <path d="M3.28500541,18.7826356 L3.34015333,18.7783048 C3.56732985,18.7515983 3.72454259,18.5711487 3.69655708,18.3748196 L0.874958845,0.352959373 C0.846150228,0.155908435 0.638728188,0.0173231594 0.411551667,0.0447514952 C0.19013687,0.0721798309 0.0321010301,0.254073005 0.0609096468,0.448958548 L2.88168477,18.4708187 C2.91049339,18.6505465 3.08252199,18.7826356 3.28500541,18.7826356" id="Path"></path>
                        </g>
                        <g id="Group" transform="translate(27.000000, 7.000000)" fill="#00BCD4" fill-rule="nonzero">
                            <path d="M4.32993509,20.8700694 L4.40105122,20.8632002 C4.60106533,20.821222 4.73440807,20.622016 4.69366446,20.4159408 L0.78746296,0.30529651 C0.748941724,0.0992213656 0.553372372,-0.0358723399 0.353358262,0.00839565401 C0.153344151,0.0503739241 0.024446169,0.249579897 0.0629674051,0.455655041 L3.9691689,20.5640096 C4.00546776,20.7456611 4.15584874,20.8700694 4.32993509,20.8700694" id="Path"></path>
                        </g>
                        <g id="Group" transform="translate(24.000000, 7.000000)" fill="#00BCD4" fill-rule="nonzero">
                            <path d="M5.31222661,20.740287 L5.39889939,20.7294444 C5.59817271,20.683183 5.71669959,20.4901863 5.66928884,20.2957438 L0.780795823,0.288410919 C0.731903485,0.0954141386 0.531889375,-0.0216850315 0.33557923,0.024576369 C0.136305912,0.0686692664 0.015556653,0.26383455 0.0607450261,0.45683133 L4.9536828,20.4634414 C4.99220404,20.6289705 5.14480739,20.740287 5.31222661,20.740287" id="Path"></path>
                        </g>
                        <g id="Group" transform="translate(19.000000, 7.000000)" fill="#00BCD4" fill-rule="nonzero">
                            <path d="M6.3332863,20.8071963 L6.43146606,20.7933681 C6.61468887,20.738747 6.71839989,20.5486101 6.66447016,20.3653873 L0.729434175,0.300070552 C0.675504445,0.115464936 0.484676168,0.0110625088 0.302144772,0.0649922393 C0.119613377,0.119613377 0.01728517,0.311824467 0.0698320869,0.492281642 L6.00417666,20.560364 C6.05050092,20.7110907 6.18739946,20.8071963 6.3332863,20.8071963" id="Path"></path>
                        </g>
                        <g id="Group" transform="translate(14.000000, 6.000000)" fill="#00BCD4" fill-rule="nonzero">
                            <path d="M6.63884969,22.9264078 L6.73497444,22.907464 C6.89975973,22.844075 6.98652168,22.6386073 6.93409,22.4484404 L0.617944829,0.317673483 C0.565513146,0.127506559 0.389492498,0.0262299206 0.22470721,0.0896188954 C0.0636670429,0.15300787 -0.0268400279,0.357746973 0.0293367747,0.548642506 L6.34173683,22.6772236 C6.38667827,22.8295028 6.50652211,22.9264078 6.63884969,22.9264078" id="Path"></path>
                        </g>
                        <g id="Group" transform="translate(10.000000, 11.000000)" fill="#00BCD4" fill-rule="nonzero">
                            <path d="M40.6196649,5.62088331 C40.7988294,5.62088331 40.9581683,5.49896994 40.9794624,5.32829124 C41.0051622,5.1433893 40.8641804,4.97406519 40.6666589,4.95103711 L0.47948519,0.0270918583 C0.281229445,0.00338648229 0.0983935917,0.133427402 0.0704909314,0.318329335 C0.0447911127,0.503231269 0.185772975,0.671878087 0.387700123,0.695583463 L40.5704681,5.61885142 L40.6196649,5.62088331 Z" id="Path"></path>
                        </g>
                        <g id="Group" transform="translate(14.000000, 21.000000)" fill="#00BCD4" fill-rule="nonzero">
                            <path d="M36.2716947,0.951770848 C36.4734274,0.951770848 36.6342289,0.793469492 36.6386144,0.596488167 C36.6386144,0.398790546 36.4778129,0.239056599 36.2760801,0.236907712 L0.381538027,0.0184375147 L0.377883449,0.0184375147 C0.180536193,0.0184375147 0.0168110625,0.178887758 0.0124255679,0.373720196 C0.0124255679,0.571417817 0.176150698,0.731151764 0.377883449,0.733300651 L36.2716947,0.951770848 Z" id="Path"></path>
                        </g>
                        <g id="Group" fill="#006064" fill-rule="nonzero">
                            <path d="M2.07385001,0.141491463 L5.19970016,1.56233244 C5.88582263,1.87198391 6.16450896,2.62833357 5.82144772,3.2498589 C5.47920135,3.87138422 4.64884648,4.12251305 3.96353887,3.81286158 L0.836873854,2.39424298 C0.151566248,2.08459151 -0.127934951,1.32824185 0.215126288,0.706716523 C0.558187526,0.0851911951 1.38772753,-0.168160011 2.07385001,0.141491463" id="Path"></path>
                        </g>
                        <g id="Group" transform="translate(46.000000, 41.000000) scale(-1, 1) rotate(-90.000000) translate(-46.000000, -41.000000) translate(43.000000, 38.000000)" fill="#E91E63" fill-rule="nonzero">
                            <path d="M2.88020319,0.0311133061 C4.46475942,0.0311133061 5.7478129,1.31416678 5.7478129,2.90094539 C5.7478129,4.48698321 4.46475942,5.77077748 2.88020319,5.77077748 C1.29416537,5.77077748 0.00814872301,4.48698321 0.00814872301,2.90094539 C0.00814872301,1.31416678 1.29416537,0.0311133061 2.88020319,0.0311133061" id="Path"></path>
                        </g>
                        <g id="Group" transform="translate(44.000000, 41.000000) scale(-1, 1) rotate(-90.000000) translate(-44.000000, -41.000000) translate(42.000000, 39.000000)" fill="#B2EBF2" fill-rule="nonzero">
                            <path d="M2.0221062,0.0195663421 C3.09825502,0.0195663421 3.97196745,0.891021118 3.97196745,1.96942759 C3.97196745,3.04858661 3.09825502,3.92004139 2.0221062,3.92004139 C0.94294718,3.92004139 0.0692347491,3.04858661 0.0692347491,1.96942759 C0.0692347491,0.891021118 0.94294718,0.0195663421 2.0221062,0.0195663421" id="Path"></path>
                        </g>
                    </g>
                    <g id="Group-26" transform="translate(50.224490, 0.000000)">
                        <path d="M25.6820845,3.01700465 C25.9500646,4.43201956 30.3679955,6.72037032 34.7142857,9.50580082 C30.0906819,10.0588324 26.1626325,8.03564492 24.8363535,6.83227408 C24.62614,5.50402512 25.2846128,3.4605652 25.6820845,3.01700465" id="Fill-1" fill="#00BCD4"></path>
                        <path d="M27.6909851,4.86455968 C26.6670086,4.07271683 25.9948906,3.39242494 25.8979592,2.83720535 C26.2836329,2.37578998 32.5761314,0.998304543 34.7142857,9.59956024 C33.9248815,9.05870706 32.7498036,8.28799128 31.9829702,7.78601193 C29.9891871,5.85415198 28.8232196,4.72089556 27.6909851,4.86455968" id="Fill-2" fill="#006064"></path>
                        <path d="M39.7227659,0.27427315 C40.0082907,1.68919485 36.9616802,5.42729255 34.1632653,9.59956024 C38.4421408,8.43389935 41.1548663,5.12264044 41.877551,3.52280957 C41.5722025,2.20645178 40.2367426,0.543083836 39.7227659,0.27427315" id="Fill-3" fill="#00BCD4"></path>
                        <path d="M39.2516875,2.78010423 C39.9342914,1.69668476 40.3187065,0.839687788 40.2045859,0.308933982 C39.6617077,0.0419339782 33.117155,1.14969995 34.3077057,9.59956024 C34.8599103,8.82615294 35.6940249,7.70459061 36.2414815,6.97257237 C37.4204167,4.51276382 38.1123469,3.07226228 39.2516875,2.78010423" id="Fill-4" fill="#006064"></path>
                        <g id="Group-7" transform="translate(22.040816, 7.405375)">
                            <mask id="mask-9" fill="white">
                                <use xlink:href="#path-8"></use>
                            </mask>
                            <g id="Clip-6"></g>
                            <polygon id="Fill-5" fill="url(#linearGradient-10)" mask="url(#mask-9)" points="2.86154146 25.1846234 23.1163966 23.6923573 19.9654885 0.0628786729 0.0152937063 3.82008353"></polygon>
                        </g>
                        <path d="M43.8428837,19.1173882 L33.5614621,31.4752901 L34.6631737,31.3957106 L43.9881196,20.1875663 L43.8428837,19.1173882 Z M44.4395221,23.5108314 L38.0865464,31.1480409 L39.188258,31.0684614 L44.587035,24.5832626 L44.4395221,23.5108314 Z M43.2462452,14.7236231 L29.0364591,31.8025393 L30.1380894,31.7228794 L43.3914812,15.7938012 L43.2462452,14.7236231 Z M45.0361606,27.9043551 L42.6116307,30.8207917 L43.713261,30.7412122 L45.1836735,28.9767058 L45.0361606,27.9043551 Z M35.6150954,8.55923625 L23.7873906,22.7745006 L23.9326265,23.8469317 L36.8396802,8.3339356 L35.6150954,8.55923625 Z M30.5894918,9.48779681 L23.1907521,18.3810574 L23.3359881,19.4534885 L31.8140766,9.26249616 L30.5894918,9.48779681 Z M42.6473298,10.3278464 L24.9805862,31.5637206 L25.052147,32.0899585 L25.615282,32.047956 L42.7948427,11.4004384 L42.6473298,10.3278464 Z M40.638422,7.63308963 L24.3839477,27.1701969 L24.529265,28.2404554 L41.8652837,7.40537504 L40.638422,7.63308963 Z M25.5638883,10.4163574 L22.5918367,13.9873727 L22.7370727,15.0575509 L26.7883918,10.1886428 L25.5638883,10.4163574 Z" id="Fill-8" fill="#B2EBF2"></path>
                        <polygon id="Fill-9" fill="#BF360C" points="49.0408163 26.925079 45.5486767 30.9928659 42.4285714 7.40537504 46.8543629 10.3896578"></polygon>
                        <polygon id="Fill-10" fill="#00BCD4" points="35.2653061 31.4256498 33.7435428 31.5414122 30.8571429 9.34102761 32.355251 9.05101394"></polygon>
                        <polygon id="Fill-11" fill="#00BCD4" points="47.3877551 28.2654203 46.9061653 28.7986807 44.0816327 8.50246764 44.6919584 8.89388163"></polygon>
                        <path d="M62.6990023,40.4561834 C63.6870198,41.8465683 63.363612,43.7725301 61.9748607,44.7622775 C60.5841414,45.7499755 58.6557484,45.4267274 57.667731,44.03831 C56.6778275,42.6498927 57.0031213,40.7219634 58.3919546,39.7322159 C59.7806238,38.744518 61.7090168,39.0678481 62.6990023,40.4561834 Z M54.6046226,42.4257587 C54.4419346,43.1556288 54.6621865,44.2485074 55.0946543,44.8554891 L56.0528238,46.2022604 C56.4853736,46.8091602 57.4475611,47.3744139 58.1895787,47.4597553 L62.8537362,47.9833631 C63.5957538,48.0666551 64.7007853,47.7810359 65.3097989,47.3467046 L75.4714796,40.1130961 C76.0804933,39.6786828 76.2233372,38.8278099 75.7908694,38.2188607 L69.0951629,28.8193343 C68.6606452,28.210467 67.8095676,28.0676574 67.2004719,28.5000212 L57.0388733,35.7355972 C56.4297776,36.1700105 55.7989519,37.1200795 55.634296,37.8479821 L54.6046226,42.4257587 Z" id="Fill-12" fill="#FF9800"></path>
                        <path d="M48.9083753,54.0316652 C50.4772314,53.9902875 51.7204728,52.7074152 51.7204728,51.1506191 L51.7185152,51.0737282 L51.7185152,51.018585 C51.7185152,49.9031784 52.6105299,48.9828499 53.7353363,48.9532828 C55.3022348,48.911905 56.5455578,47.6309876 56.5455578,46.07411 L56.5455578,45.9973006 L56.5435186,45.9421574 C56.5435186,44.8267508 57.4395301,43.9044674 58.5623788,43.8768551 C58.7873401,43.8709091 58.9649926,43.6837319 58.9590383,43.4571319 C58.9531655,43.2324052 58.7656433,43.0550838 58.5406821,43.0610298 C56.9757411,43.1043624 55.7305421,44.383325 55.728503,45.9421574 L55.7305421,46.0189668 L55.7305421,46.017012 L55.7305421,46.07411 C55.7305421,47.1895166 54.8385274,48.1098451 53.7136395,48.1394123 C52.1447834,48.18079 50.9034996,49.4617075 50.9034996,51.018585 L50.9034996,51.0953945 L50.9034996,51.0934396 L50.9034996,51.1506191 C50.9054572,52.2660256 50.0114849,53.1882276 48.8865969,53.2177947 C48.6616356,53.2217859 48.4840647,53.4109179 48.4899375,53.6356446 C48.4958919,53.8602898 48.6813748,54.0376112 48.9083753,54.0316652" id="Fill-13" fill="#FF9800"></path>
                        <path d="M67.4284071,37.971148 C67.0570868,38.2344683 66.540678,38.1495036 66.2760792,37.7778708 C66.0113921,37.4084323 66.0967693,36.8945187 66.4702065,36.6311106 C66.8415269,36.367878 67.3579356,36.4527549 67.6225345,36.8243878 C67.8871333,37.193914 67.7996393,37.7078276 67.4284071,37.971148" id="Fill-14" fill="#FFFFFF"></path>
                        <path d="M69.0807971,40.1650976 C68.70948,40.4285759 68.1930758,40.3435886 67.9284793,39.9739639 C67.6638828,39.6022321 67.751376,39.0881817 68.1226931,38.8247912 C68.4940103,38.5614007 69.0104144,38.6484952 69.2750109,39.018032 C69.5396075,39.3876567 69.454231,39.9017071 69.0807971,40.1650976" id="Fill-15" fill="#FFFFFF"></path>
                        <path d="M64.8161708,34.43696 C64.4452809,34.7002743 64.3578675,35.214176 64.6222224,35.5836936 C64.8865774,35.9553178 65.4025101,36.0402806 65.775603,35.7769663 C66.146581,35.513652 66.2339944,34.9997504 65.9695514,34.6302327 C65.7052846,34.2586085 65.1871489,34.1736458 64.8161708,34.43696" id="Fill-16" fill="#FFFFFF"></path>
                        <g id="Group-23" transform="translate(0.000000, 48.546348)">
                            <mask id="mask-12" fill="white">
                                <use xlink:href="#path-11"></use>
                            </mask>
                            <g id="Clip-22"></g>
                            <path d="M17.9889814,0.145017217 L17.9871083,0.150569678 C19.0465196,2.58712022 18.070011,5.4670511 15.6878218,6.72688818 C13.303841,7.98860329 10.3835988,7.16839048 8.97425363,4.91662258 L8.97050754,4.91474454 C8.47496463,5.59083832 0,17.9362455 0,17.9362455 L6.23459761,22.5600574 C6.98629997,21.5070495 8.61495448,19.2755317 9.71858596,21.372239 C10.820263,23.4688646 20.9699753,42.7619601 20.9699753,42.7619601 L42.3654579,31.4473428 C42.3654579,31.4473428 32.215827,12.1542555 31.1121955,10.0575482 C30.0105185,7.96092264 32.7648739,7.87404295 34.0581716,7.84456592 L33.7707812,0.0748765699 C33.7707812,0.0748765699 18.8235457,0.117336566 17.9889814,0.145017217 Z" id="Fill-21" fill="url(#linearGradient-13)" mask="url(#mask-12)"></path>
                        </g>
                        <path d="M17.7862281,49.1076893 L17.7843886,49.1131962 C18.8248247,51.5297554 17.8658064,54.3860572 15.5262848,55.6355576 C13.1850037,56.8869207 10.3170662,56.0734375 8.93296394,53.8401448 L8.92928494,53.8382822 C8.85874419,53.9353819 8.61808986,54.2834506 8.26530612,54.7964836 C10.0257857,57.2277009 13.3206466,58.0577048 16.0329465,56.6084981 C18.7451664,55.161073 19.9285235,51.9383191 18.9406331,49.0948938 C18.3236015,49.0985381 17.9056355,49.104045 17.7862281,49.1076893" id="Fill-24" fill="#F8BBD0"></path>
                        <path d="M15.4795369,55.63616 C17.8438576,54.3830379 18.8130415,51.5184573 17.7615768,49.0948938 L17.5494895,49.2051887 C16.4413657,50.2304113 15.0973918,51.1877351 13.5687307,51.9980533 C12.0400695,52.8065034 10.4949198,53.3816936 9.02841382,53.7234615 L8.81632653,53.8355432 C10.2151004,56.075309 13.1134381,56.89115 15.4795369,55.63616" id="Fill-25" fill="#AD1457"></path>
                    </g>
                </g>
            </g>
        </g>
    </g>
</svg>