<?xml version="1.0" encoding="UTF-8"?>
<svg width="222px" height="144px" viewBox="0 0 222 144" version="1.1" xmlns="http://www.w3.org/2000/svg" xmlns:xlink="http://www.w3.org/1999/xlink">
    <!-- Generator: Sketch 64 (93537) - https://sketch.com -->
    <title>Illustration</title>
    <desc>Created with Sketch.</desc>
    <defs>
        <linearGradient x1="0%" y1="49.999011%" x2="100%" y2="49.999011%" id="linearGradient-1">
            <stop stop-color="#FF9800" offset="0%"></stop>
            <stop stop-color="#FFE0B2" offset="100%"></stop>
        </linearGradient>
        <linearGradient x1="0.00147524562%" y1="49.9986204%" x2="100.000636%" y2="49.9986204%" id="linearGradient-2">
            <stop stop-color="#FF9800" offset="0%"></stop>
            <stop stop-color="#FFE0B2" offset="100%"></stop>
        </linearGradient>
        <linearGradient x1="40.6710822%" y1="34.9518804%" x2="59.3286786%" y2="65.0480572%" id="linearGradient-3">
            <stop stop-color="#00BCD4" offset="0%"></stop>
            <stop stop-color="#B2EBF2" offset="100%"></stop>
        </linearGradient>
        <linearGradient x1="0%" y1="50.0001966%" x2="100%" y2="50.0001966%" id="linearGradient-4">
            <stop stop-color="#00BCD4" offset="0%"></stop>
            <stop stop-color="#B2EBF2" offset="100%"></stop>
        </linearGradient>
        <linearGradient x1="0%" y1="32.3253803%" x2="88.2321871%" y2="76.1441514%" id="linearGradient-5">
            <stop stop-color="#F8BBD0" offset="0%"></stop>
            <stop stop-color="#FFE0B2" offset="100%"></stop>
        </linearGradient>
        <linearGradient x1="66.2118811%" y1="49.4362033%" x2="33.7881443%" y2="50.5635297%" id="linearGradient-6">
            <stop stop-color="#FF9800" offset="0%"></stop>
            <stop stop-color="#FFE0B2" offset="100%"></stop>
        </linearGradient>
        <linearGradient x1="-0.000206225519%" y1="49.9991222%" x2="100%" y2="49.9991222%" id="linearGradient-7">
            <stop stop-color="#E91E63" offset="0%"></stop>
            <stop stop-color="#F8BBD0" offset="100%"></stop>
        </linearGradient>
        <linearGradient x1="-0.000516022427%" y1="49.9998779%" x2="100.000291%" y2="49.9998779%" id="linearGradient-8">
            <stop stop-color="#E91E63" offset="0%"></stop>
            <stop stop-color="#F8BBD0" offset="100%"></stop>
        </linearGradient>
    </defs>
    <g id="Landing" stroke="none" stroke-width="1" fill="none" fill-rule="evenodd">
        <g id="Slider-2" transform="translate(-435.000000, -194.000000)">
            <g id="Item" transform="translate(89.000000, 110.000000)">
                <g id="Illustration" transform="translate(346.000000, 84.000000)">
                    <g id="Group-6" transform="translate(0.000000, 9.000000)">
                        <g id="Group" transform="translate(0.000000, 133.000000)" fill="#B2EBF2">
                            <rect id="Rectangle" x="0.0194825978" y="0.0243544518" width="221.192427" height="1.1941301"></rect>
                        </g>
                        <g id="Group" transform="translate(160.000000, 105.500000) scale(-1, 1) rotate(-90.000000) translate(-160.000000, -105.500000) translate(157.000000, 90.000000)" fill="#504F60" fill-rule="nonzero">
                            <path d="M4.88643996,0.0329815155 C3.64635248,0.0329815155 0.0312402991,7.22522647 0.0312402991,15.7685763 C0.0312402991,24.311547 3.64635248,30.9685057 4.88643996,30.9685057 C6.12652744,30.9685057 5.72726118,24.0439039 5.72726118,15.4922139 C5.72726118,6.94090306 6.12843234,0.0329815155 4.88643996,0.0329815155" id="Path"></path>
                        </g>
                        <g id="Group" transform="translate(88.000000, 78.000000)" fill="#6C63FF" fill-rule="nonzero">
                            <path d="M0.576760265,3.29053196 C1.86679836,3.46700531 3.2058699,3.57913551 4.44158318,3.15168619 C4.63630591,3.08734302 4.85007761,2.94398194 4.83067589,2.73627769 C4.8169183,2.66102253 4.78693382,2.5899064 4.74319176,2.52894972 C4.27755044,1.78354734 3.88598843,0.988476553 3.57556089,0.156154461 C3.56321434,0.112882743 3.53816848,0.0748788862 3.50359814,0.0481633037 C3.46338366,0.0327359955 3.41928884,0.0327359955 3.37907436,0.0481633037 C2.80866375,0.208080523 2.31656554,0.600159917 1.75003528,0.768355204 C1.46147876,0.853017262 1.16022294,0.877098914 0.862847467,0.839095057 C0.606039227,0.807864164 0.255749965,0.581722403 0.02222379,0.61069564 C0.154508255,1.51789662 0.477282348,2.36489347 0.576760265,3.29053196" id="Path"></path>
                        </g>
                        <g id="Group" transform="translate(114.000000, 74.000000)" fill="#6C63FF" fill-rule="nonzero">
                            <path d="M1.5461173,4.43488077 C2.45294201,3.85106533 3.39325526,3.23832369 3.92907201,2.3373783 C3.96707587,2.28340624 3.98927614,2.22061521 3.99341517,2.15606039 C3.98400828,2.09256385 3.95766897,2.03224213 3.91665491,1.98109214 C3.40642491,1.22054466 2.74944734,0.556300268 1.97958704,0.0215182729 C1.57810075,0.287145478 1.21537087,0.601453365 0.900428014,0.955622972 C0.672028597,1.18138846 0.0410140633,1.53943841 0.0349936503,1.88373077 C0.0349936503,2.07845351 0.275433893,2.30421899 0.387564084,2.46754621 C0.539203236,2.67779032 0.68256432,2.89191477 0.819528715,3.10991957 C0.898170359,3.21680542 1.61873854,4.39219698 1.5461173,4.43488077" id="Path"></path>
                        </g>
                        <g id="Group" transform="translate(79.000000, 79.000000)" fill="#514E7F" fill-rule="nonzero">
                            <path d="M14.3204988,4.48883519 C14.3369315,4.6992204 14.2773153,4.90886482 14.1515862,5.08146959 C14.0533724,5.17740229 13.9314649,5.24777762 13.7977106,5.28555806 C11.8433693,5.96412445 9.58101101,5.11813885 7.63087343,5.78633413 C7.23037486,5.92338084 6.85089483,6.12154297 6.44810333,6.25229293 C5.9681165,6.39230281 5.47284347,6.47712361 4.97260242,6.50564414 C4.28319458,6.56898194 3.58958304,6.60972555 2.89788227,6.62824538 C2.37280114,6.66417384 1.84466276,6.61935586 1.33372137,6.49564343 C0.817047646,6.36711585 0.381008654,6.03227741 0.134136447,5.57409694 C0.0282794789,5.37074926 0.00687879215,5.13591788 0.0752845586,4.91812474 C0.105474813,4.84330464 0.149040497,4.7740405 0.203688679,4.71366587 C0.33591435,4.56995202 0.491069329,4.44772118 0.663421288,4.35178849 L1.38225507,3.90249753 C1.71931588,3.67137011 2.08580264,3.48320869 2.47216147,3.34245802 C2.75686703,3.25245167 3.05838742,3.21393044 3.34691454,3.13836955 C4.35695052,2.85205305 5.12852171,2.07570199 5.84544471,1.32972344 L6.82376182,0.318540991 C6.91509689,0.207051644 7.03088989,0.117045294 7.16311556,0.0548186821 C7.29878063,0.011111895 7.44285311,-0.002222379 7.58463266,0.0159270495 C8.53467029,0.0818576266 9.45222473,0.379656413 10.2516932,0.882284465 C10.4557641,1.03081346 10.6762676,1.15711867 10.9093822,1.25823691 C11.4826149,1.47491887 12.2186456,1.31157401 12.7475483,1.0374806 C12.9986242,0.906730634 12.9435939,0.833392126 13.0490687,0.600412728 C13.1545435,0.367433329 13.4117339,0.218163539 13.6352947,0.43077113 C13.702554,0.504109637 13.7503234,0.592634401 13.7743991,0.688196698 C13.9853488,1.36231833 13.9050962,2.08792507 13.9050962,2.79501199 C13.8989817,2.90539015 13.9131214,3.0161387 13.9471332,3.12170171 C14.0010171,3.2283759 14.0652192,3.32949414 14.1389751,3.42431565 C14.1542613,3.44913221 14.1676368,3.47543037 14.1791014,3.50209891 C14.3078877,3.81508396 14.3568035,4.15362636 14.3204988,4.48883519" id="Path"></path>
                        </g>
                        <g id="Group" transform="translate(79.000000, 83.000000)" fill="#464353" fill-rule="nonzero">
                            <path d="M14.3204988,1.04416537 C14.3369315,1.25789003 14.2773153,1.47086214 14.1515862,1.64620667 C14.0533724,1.7436621 13.9314649,1.81477823 13.7977106,1.85353464 C11.8433693,2.54287193 9.58101101,1.68345797 7.63087343,2.36225954 C7.23037486,2.50110531 6.85089483,2.70278914 6.44810333,2.83561451 C5.9681165,2.97747049 5.47284347,3.06401392 4.97260242,3.09298716 C4.28319458,3.15733032 3.58958304,3.19872066 2.89788227,3.21753445 C2.37280114,3.25403321 1.84466276,3.20850383 1.33372137,3.08245144 C0.817047646,2.95226001 0.381008654,2.6117304 0.134136447,2.14627722 C0.0282794789,1.94007808 0.00687879215,1.70114294 0.0752845586,1.47989276 C0.105474813,1.40426132 0.149040497,1.33389775 0.203688679,1.27256479 C0.317570904,1.50698462 0.399734255,1.81854099 0.471579418,1.93029491 C0.667242839,2.26668548 1.00086426,2.50336297 1.38645877,2.58012323 C1.67192865,2.59743192 1.95778068,2.56168572 2.22987512,2.47438973 C4.00078195,2.0424251 5.88327807,2.03640468 7.58463266,1.38243733 C8.16856568,1.15591929 8.72498354,0.855274917 9.33872466,0.718310522 C9.95208363,0.580969851 10.6036581,0.618597432 11.2361248,0.56667137 C12.2354605,0.48765345 13.2030772,0.190771836 14.1875088,0.0353699262 C14.3147665,0.355956916 14.3602429,0.702130662 14.3204988,1.04416537 Z" id="Path"></path>
                        </g>
                        <g id="Group" transform="translate(108.000000, 76.000000)" fill="#514E7F" fill-rule="nonzero">
                            <path d="M10.843694,3.45273035 C10.7532676,4.20629321 10.2936624,4.85508678 9.78847028,5.4053196 C9.2832782,5.95516439 8.71232146,6.44990828 8.31026031,7.08356851 C7.81553078,7.86895019 7.59320143,8.84291661 6.95012778,9.50645548 C6.70313668,9.74820093 6.42550523,9.95308311 6.12545401,10.1168336 C5.78915751,10.3228799 5.43343054,10.492839 5.06387804,10.6239946 C4.10319103,10.9429589 3.06851878,10.8703965 2.06448688,10.7931776 C1.73865293,10.7900734 1.41580829,10.7252716 1.11202044,10.6026527 C0.973765214,10.5297023 0.841488589,10.4451108 0.716311556,10.3500423 C0.464836503,10.189008 0.252969705,9.96899252 0.0978996493,9.70784535 C0.0220461042,9.56582475 0.000373662784,9.39896994 0.0381136039,9.24103993 C0.0956576726,9.06758854 0.193930985,8.91121067 0.324712959,8.78742768 C0.55040528,8.54335403 0.79328609,8.31674192 1.05036609,8.10875547 C1.40310375,7.8724425 1.72109078,7.58374489 1.99423828,7.25236348 C2.16201287,6.99082828 2.28532159,6.70096656 2.35930682,6.39635953 C2.50540896,5.86203612 2.59434071,5.31296741 2.62535472,4.75846621 C2.62423373,4.39022153 2.66047902,4.02314096 2.73446425,3.66265698 C2.88691867,3.09767885 3.29084814,2.59206999 3.24563494,2.00769014 C3.22732546,1.92426273 3.23442506,1.83656695 3.26618639,1.75740793 C3.31438889,1.69532242 3.38127453,1.65263863 3.45600709,1.63517708 C3.77100481,1.50518555 4.10319103,1.42486242 4.44135585,1.39770001 C4.78475195,1.37325385 5.12067479,1.50984196 5.356456,1.77021307 C5.49657955,1.94560463 5.58924792,2.19860308 5.79550978,2.26689714 C5.89789338,2.29599972 6.00476093,2.3002681 6.10901285,2.27970227 C6.61607325,2.22615352 7.15190568,2.15979963 7.55209852,1.81949344 C7.92538764,1.47142656 8.14211206,0.977070693 8.14958531,0.455940454 C8.14958531,0.261147171 8.06513752,0.05781713 8.35584717,0.0279384789 C8.5744399,-0.00232820658 8.74744577,0.241745449 8.85879728,0.391526739 C9.26085843,0.950296317 9.67300848,1.53467617 9.82359458,2.21567659 C9.88188598,2.19200649 9.94428766,2.17958939 10.007063,2.17920135 C10.2678796,2.17687315 10.5133761,2.30686468 10.6647095,2.52804431 C10.8287475,2.80432482 10.8922701,3.13221391 10.843694,3.45273035 Z" id="Path"></path>
                        </g>
                        <g id="Group" transform="translate(108.000000, 77.000000)" fill="#464353" fill-rule="nonzero">
                            <path d="M10.7689614,1.33580852 C10.678535,2.10649781 10.2189298,2.76963983 9.71373773,3.33237795 C9.20854564,3.8947192 8.63758891,4.40070728 8.23552775,5.04876887 C7.74079823,5.85239699 7.51846887,6.84849901 6.87539522,7.52711832 C6.62840412,7.77396113 6.35077267,7.98389657 6.05072146,8.15097185 C5.71442495,8.361701 5.35869798,8.53552279 4.98914549,8.67005609 C4.02845847,8.99587272 2.99378622,8.92166114 1.98975432,8.84268731 C1.66392038,8.83951249 1.34107573,8.77363482 1.03728789,8.6478323 C0.899032658,8.57322386 0.766756032,8.48710667 0.641579,8.38948074 C0.390103946,8.22518343 0.178237148,8.00016756 0.0231670926,7.73268837 C0.216350752,7.63426873 0.427096562,7.58029667 0.641579,7.57513758 C1.08698504,7.6013299 1.41244532,8.04818682 1.83916822,8.18589495 C2.44749123,8.38074996 3.05357227,7.92555912 3.6697422,7.76999259 C4.07180335,7.66919183 4.49441596,7.69538415 4.89236683,7.55132637 C5.22380572,7.41520566 5.52983554,7.21796952 5.79700443,6.96874559 C6.16319395,6.69094822 6.4890279,6.35759136 6.76404371,5.97899323 C6.99235167,5.60079194 7.18254603,5.19798575 7.33089015,4.77732115 C7.65635044,3.97091506 8.03935479,3.19189184 8.47691391,2.44779173 C8.54155757,2.32992627 8.62002676,2.22118844 8.70970583,2.12395936 C8.80685815,2.02950825 8.91596768,1.96402744 9.02507721,1.88068823 C9.43760093,1.55010936 9.60873848,1.00522965 9.75297232,0.471064978 C9.79183325,0.308355087 9.84676168,0.15080429 9.91588929,-3.13595207e-05 C10.1767059,-0.00238112036 10.4222024,0.13096162 10.5731621,0.357168054 C10.750652,0.646077325 10.8205269,0.994911458 10.7689614,1.33580852 Z" id="Path"></path>
                        </g>
                        <g id="Group" transform="translate(74.000000, 7.000000)" fill="#FFF3E0" fill-rule="nonzero">
                            <path d="M0.869585156,5.03417525 C1.40235643,5.41168336 1.84083533,5.89521659 2.15397912,6.451023 C2.45392973,7.00536193 4.18145901,11.3083674 4.08057006,11.9335121 C4.64360801,11.3971497 6.86355298,11.3102018 7.43279949,10.7738394 C7.6706646,10.5493156 8.95273035,9.42779738 9.14558346,9.16695358 C9.33804854,8.90574291 10.7679554,8.35727388 10.9243333,8.0821222 C11.5087131,7.09230986 6.78012558,3.34217581 7.38584733,2.36447016 C7.41921829,2.31971215 7.43667984,2.26578242 7.4351277,2.21075208 C7.42115846,2.1645266 7.39360801,2.12307041 7.35596868,2.09115282 C6.96832228,1.71694652 6.4545647,1.48398476 5.98814731,1.20699873 C5.52134189,0.92964583 5.07160999,0.542965994 4.9454988,0.0330182023 C4.50042331,0.226724989 4.09182306,0.487935657 3.73599548,0.806011006 C2.8683505,1.50929872 2.01545083,2.22616058 1.17807253,2.95769719 C0.850571469,3.24495555 0.216911246,3.62759983 0.0648017497,4.03849302 C-0.115246225,4.47946945 0.55721744,4.79314237 0.869585156,5.03417525" id="Path"></path>
                        </g>
                        <g id="Group" transform="translate(77.000000, 12.000000)" fill="#FFE0B2" fill-rule="nonzero">
                            <path d="M6.02647694,0.010661148 C5.29321441,0.488889785 4.60818251,1.03336984 3.98000787,1.63648621 C3.38712394,2.20571536 2.82482529,2.86518351 2.68209397,3.66134281 C2.62170765,3.97432366 2.63033427,4.29149281 2.58053515,4.60866196 C2.36408546,5.9843308 1.13988994,6.99257079 0.599157835,8.28028516 C0.442310234,8.67779368 0.327027248,9.08939014 0.254877351,9.50898247 C0.103127298,10.304761 0.0199980691,11.1112007 0.00573432943,11.9203057 C-0.00666602304,12.7039001 0.785022242,13.243811 1.07479818,13.9748612 C1.36457413,14.7055306 1.44260581,15.4575223 1.58965043,16.2076102 C1.86648645,17.6232583 2.3750648,18.9886468 2.88756433,20.3456586 C3.95412802,23.2062731 7.41065702,31.1149411 8.47722071,33.97784 C11.7459247,33.1816807 20.4462611,31.3521516 23.3404915,29.6737823 C24.3054963,29.1152143 16.6454516,22.8114298 17.6775089,22.3766073 C17.7971052,22.3587118 17.9010167,22.2871298 17.9578739,22.1835644 C18.0147312,22.0796182 18.0182603,21.9558727 17.9672848,21.849642 C16.9356197,17.4679102 13.7080882,13.8674882 12.2435237,9.601506 C11.7349454,8.1207487 10.8220923,6.8562604 10.1300023,5.44860812 C9.5026119,4.17383942 9.16735015,2.76428336 8.41683438,1.55233929 C8.27527942,1.30256383 8.09019925,1.07867972 7.86943625,0.89058661 C7.68200337,0.751230176 7.48006209,0.632053772 7.26596511,0.535722685 C6.83777116,0.333922384 6.43977037,0.214365225 6.02647694,0.010661148" id="Path"></path>
                        </g>
                        <path d="M81,11.446904 C81.4988668,10.9735367 82.2297384,10.8652173 82.8380485,11.1747563 C83.1690022,11.3513054 83.4583524,11.7082582 83.3837661,12.0825575 L85.8091356,12.1211053 C86.1951857,12.1099265 86.5812359,12.1465469 86.9590403,12.2294247 C87.3390936,12.3146154 87.678293,12.533567 87.9185436,12.8481172 C87.9474037,12.8885925 87.9803866,12.9375482 88.029861,12.9437158 C88.0703401,12.9444868 88.1096947,12.9309951 88.1415532,12.9055535 C88.51486,12.7131999 88.9350175,12.6391881 89.3491781,12.693155 C90.6602494,12.7802731 91.8716223,13.4544745 92.8993403,14.2963589 C93.0848693,14.4274215 93.22842,14.61168 93.3127513,14.8260059 C93.3978323,15.1089469 93.2962599,15.4639724 93.5196442,15.6659629 C93.5196442,18.0050447 94.3011147,20.1910916 94.8224698,22.4708097 C94.9154217,22.8771038 95.2939758,23.2363695 95.55634,23.5555454 C95.8809219,23.9090289 96.145535,24.3157084 96.3400593,24.7590084 C96.7827051,25.94127 96.172521,27.3320754 96.6027983,28.5189628 C96.7845792,29.0208554 97.1361472,29.4333171 97.4296203,29.869293 C97.8167948,30.3727275 98.0615431,30.9760009 98.1368791,31.6131964 C98.1556194,31.8980648 98.1203877,32.1848606 98.1368791,32.4635613 C98.1646148,32.8467267 98.2339539,33.2256517 98.343772,33.592627 C98.5199309,34.2791637 98.7047102,34.9645439 98.8977353,35.6491532 C99.2121975,36.7550902 99.6214856,37.9481453 100.585112,38.537156 C98.2586911,38.94345 95.8067103,39.340878 93.5901078,38.5094015 C93.2808928,38.4010822 92.9874197,38.2499747 92.7175594,38.0607049 C91.9173487,37.4736216 91.5305489,36.4702218 91.1853526,35.5215599 C90.8008016,34.458411 90.409879,33.3759882 90.3315446,32.2446097 C90.3319194,31.8849585 90.2828198,31.5268493 90.1846206,31.1814608 C89.9589874,30.5646957 89.3574238,30.1923237 88.8117063,29.8500191 C88.1951505,29.5027032 87.6366895,29.0563194 87.1573127,28.5274433 C86.6768114,27.9889303 86.4343119,27.2700134 86.4875344,26.5410741 C86.5287631,26.190289 86.6633184,25.8522246 86.675687,25.4991265 C86.6880556,25.1460285 86.5351348,24.7420473 86.2064299,24.6483761 C84.5126817,24.1210419 83.7046,22.0583481 83.32792,20.2805226 C83.165629,19.3615425 83.0929166,18.4286853 83.1109073,17.4946716 L83.0884189,15.6809966 C82.6161634,15.2388531 82.3410558,14.6170767 82.327188,13.9606074 C82.3496763,13.7709521 82.3463031,13.5789839 82.3170682,13.3904851 C82.2353605,13.1599691 82.1019296,12.9525818 81.9283944,12.7845133 C81.554338,12.3897837 81.2413751,11.9387742 81,11.446904 Z" id="Path" fill="url(#linearGradient-1)" fill-rule="nonzero"></path>
                        <g id="Group" transform="translate(75.500000, 6.500000) scale(-1, 1) rotate(-90.000000) translate(-75.500000, -6.500000) translate(70.000000, 1.000000)" fill="#FFF3E0" fill-rule="nonzero">
                            <path d="M5.0762664,0.00155213772 C7.8724425,0.00155213772 10.1389516,2.26806124 10.1389516,5.06423734 C10.1389516,7.86041343 7.8724425,10.1269225 5.0762664,10.1269225 C2.28047834,10.1269225 0.0139692395,7.86041343 0.0139692395,5.06423734 C0.0139692395,2.26806124 2.28047834,0.00155213772 5.0762664,0.00155213772" id="Path"></path>
                        </g>
                        <g id="Group" transform="translate(74.000000, 13.000000)" fill="url(#linearGradient-2)" fill-rule="nonzero">
                            <path d="M0.380582404,1.55749668 C0.321451249,2.12842194 0.452809722,2.71463985 0.323832369,3.27497791 C0.273431988,3.49103548 0.185727388,3.70748517 0.122230845,3.90864221 C-0.0718304642,4.715231 0.0123024552,5.56260016 0.360739735,6.31625289 C0.709177014,7.06284747 1.12626993,7.77611193 1.60646254,8.44702754 C1.76917243,8.67602504 1.90291202,8.92384425 2.0053002,9.18499551 C2.0878457,9.45869457 2.13943664,9.74102025 2.15848561,10.0264829 C2.28508184,11.1718625 2.48827078,12.3078312 2.76686186,13.4269389 C3.01211726,14.3958649 5.79683752,22.6809473 6.44489911,23.4491084 C6.56276457,23.618896 6.74095174,23.7388844 6.94414068,23.7843702 C7.09097644,23.7898599 7.23662163,23.7600588 7.36917066,23.6977119 L8.68235854,23.2001129 C8.7942712,23.1663906 8.89784994,23.1103176 8.9867451,23.035815 C9.10976965,22.8934758 9.17683787,22.7123168 9.17525046,22.5252761 C9.26930471,21.4696917 6.47783794,13.1261836 6.12305101,12.129025 C5.05035629,9.11794316 3.62287463,6.21469407 2.92441266,3.09774012 C2.72955764,2.23233348 2.62677261,0.89991311 1.98545753,0.209783666 C1.72035946,-0.0756789674 1.81004833,0.0454858043 1.49256561,0.194491025 C1.33223684,0.263503969 1.17706717,0.343496246 1.028644,0.434859973 C0.652426979,0.693266396 0.414314943,1.10577559 0.380582404,1.55749668 Z" id="Path"></path>
                        </g>
                        <g id="Group" transform="translate(78.000000, 12.000000)" fill="#E91E63" fill-rule="nonzero">
                            <path d="M0.298169183,8.65275622 C0.627081276,10.4469745 0.96636447,12.2366069 1.30342529,14.0308252 L6.10117116,12.7341729 C6.14006279,12.2155884 5.87263652,11.7348373 5.69262382,11.258672 C5.25518555,10.1263464 5.24518485,8.86561662 4.89182658,7.70195428 C4.62402991,6.81650087 4.15807112,6.00251047 3.90694229,5.11094257 C3.76174686,4.59235807 3.68803796,4.05695875 3.54506491,3.53187762 C3.39172076,3.01635036 3.20318894,2.51266991 2.98095104,2.02427567 C2.71167278,1.31652439 2.3605369,0.644695687 1.93495132,0.0236936174 C1.32194511,0.259865481 0.667824891,0.533870702 0.318540991,1.10519261 C0.139269084,1.42696722 0.0370396501,1.78848596 0.0203718075,2.15917643 C-0.0637081981,3.27048351 0.326689714,4.38790508 0.198162128,5.49233338 C0.0655601806,6.54440642 0.0992662622,7.61176567 0.298169183,8.65275622" id="Path"></path>
                        </g>
                        <g id="Group" transform="translate(82.000000, 34.000000)" fill="#464353" fill-rule="nonzero">
                            <path d="M2.82672846,10.6656891 C3.10909102,11.7139757 2.70028589,12.8169952 2.36633787,13.8550194 C1.86405832,15.4183272 1.52118949,17.0268656 1.34354931,18.656689 C1.32182912,19.0713666 1.23688763,19.4807229 1.09143989,19.8706946 C0.932804879,20.2207569 0.663241723,20.5164665 0.479395771,20.8498049 C-0.0255988033,21.7262911 -0.0127994017,22.7958627 0.0961894428,23.7981585 C0.169107246,24.4583739 0.278096091,25.1170688 0.413071599,25.7670217 C0.577912378,26.5617887 0.781151362,27.391904 0.54339278,28.1680466 C0.941337813,28.0817663 1.21128883,28.5872852 1.18530217,28.9833384 C1.15970336,29.3797716 1.02938218,29.8221957 1.22408823,30.1642762 C1.71589554,30.3402576 1.72016201,31.0027534 1.70542331,31.5166343 C1.71356838,32.4071838 1.82837513,33.2939324 2.04790427,34.1586358 C2.79220887,37.6672412 3.58266888,41.1659643 4.4185086,44.6551852 C6.22632712,45.2047945 8.33822839,45.7772091 10.0630447,45.01589 C10.3841934,44.8752569 10.7049541,44.6510042 10.7778719,44.3115843 C10.7964892,44.1283812 10.7732176,43.9432777 10.7092206,43.770337 L9.89199818,40.8558114 C9.69302567,40.1515057 9.49405315,39.4236344 9.59877553,38.7003243 C9.6778991,38.1613575 9.91759699,37.5805809 9.64803383,37.1047089 C9.555723,36.9408904 9.41027525,36.8131803 9.30322571,36.6581038 C8.8754154,36.0434993 9.09998672,35.2217459 9.13450632,34.4771508 C9.14769358,34.3102915 9.13605776,34.1419119 9.09998672,33.9780934 C9.04141976,33.7869084 8.95958117,33.6029451 8.85641023,33.4311447 C8.18075697,32.1456823 7.85650546,30.7112248 7.91468456,29.266505 C7.94028336,29.0821616 7.9142967,28.8943974 7.83982745,28.7233572 C7.78785412,28.6530407 7.7416987,28.5785431 7.70097334,28.501385 C7.6687809,28.3664532 7.68468319,28.2254401 7.74557731,28.1007707 C7.50044938,27.9183278 7.27898094,27.7069981 7.08660206,27.4717227 C7.32707566,27.3253883 7.48571067,27.0787103 7.51635166,26.8027654 C7.54738052,26.5268205 7.44731247,26.252776 7.2448492,26.0585503 C7.42287724,26.023202 7.56560997,25.8932114 7.61409255,25.7217911 C7.66257513,25.5503707 7.60827464,25.3667876 7.47407485,25.2470594 C7.36896461,25.1756026 7.2301105,25.1440552 7.15525339,25.03725 C7.03967092,24.8821736 7.13392106,24.6662828 7.2281712,24.5005638 L7.72657214,23.6176161 C8.09891837,22.9615817 8.18230841,22.1500908 8.58258061,21.5210428 C9.15583866,20.6046473 9.53012419,19.583347 9.90053112,18.5726892 L11.3402699,14.6790533 L12.3099215,15.5030871 C12.6326216,15.744824 12.9033483,16.0469951 13.1058116,16.3921163 C13.2435021,16.7330565 13.3307708,17.0918609 13.3645146,17.4571268 C13.719795,19.570804 15.0765316,21.4035952 15.579199,23.485725 C15.690515,23.949054 15.7653721,24.4355685 16.0368746,24.8320017 C16.1342276,24.9532503 16.2214962,25.0824807 16.2979048,25.2177925 C16.3688833,25.423801 16.4057301,25.6396918 16.4072815,25.8571029 C16.4980409,26.7187656 16.9665766,27.4994693 17.6911003,27.9958661 C18.1681689,28.3166615 18.76082,28.5371134 19.0199109,29.0445328 C19.0714963,29.2015097 19.1436384,29.351645 19.2336221,29.4907577 C19.464787,29.7636619 19.9635759,29.7948293 20.0617046,30.1369097 C20.1175565,30.3277146 20.0147735,30.5561484 20.1237623,30.7237678 C20.18582,30.8016861 20.2680465,30.8613602 20.3615209,30.8978487 L21.7543285,31.5793491 C23.3119769,32.3425686 24.107867,34.095541 25.2570981,35.3726414 C25.6538795,35.7884593 26.0052813,36.2438064 26.3054854,36.7314611 C26.8019471,37.6014858 27.0307849,38.6938628 27.8697275,39.247653 C28.0950745,39.36206 28.3002528,39.5114351 28.4775051,39.6900771 C28.7404746,40.029497 28.6442852,40.505749 28.6675568,40.9333496 C28.6912163,41.3613303 29.0251644,41.8706501 29.4401753,41.7406595 C29.2947275,42.2587214 29.2947275,42.8056701 29.4401753,43.3237319 C31.2627325,43.2321304 33.0003482,42.5422681 34.3741507,41.3655113 C34.7810165,41.0173494 35.1723679,40.5726447 35.1766344,40.0443205 C35.1828402,39.953099 35.1622835,39.8622576 35.1169038,39.7824389 C35.0346774,39.6790545 34.9260764,39.5988557 34.8023489,39.549444 C33.499137,38.8576813 33.1077856,37.2533239 32.4488104,35.9515176 C31.8732252,34.8021272 31.0214832,33.8123744 30.3089831,32.7450833 C28.7598677,30.4493432 27.7025595,27.6708896 25.3598812,26.1547129 C24.8440265,25.8213745 24.2451696,25.526045 23.9860787,24.9745353 C23.8425703,24.6662828 23.8255044,24.3139399 23.7122491,23.9950449 C23.5986059,23.6765299 23.3271035,23.3659969 22.980356,23.3659969 C23.1731228,22.9049484 23.1343367,22.3427962 23.147524,21.8437388 C23.1603234,21.6225267 23.1343367,21.4001744 23.0703397,21.1873243 C22.9811318,20.9585105 22.8655493,20.7403392 22.7259194,20.5373714 C22.1146511,19.5232929 21.8090169,18.3598392 21.8443122,17.1827022 C21.861378,16.5764596 21.9703669,15.9515926 21.7841938,15.3730965 C21.6903315,15.081568 21.5254907,14.8151253 21.4122354,14.5342392 C21.2411889,14.0252995 21.1508173,13.4935544 21.1446116,12.9572482 L21.0162297,10.9423942 C20.9968366,10.2711563 20.9080166,9.60371928 20.750933,8.95034558 C20.3227348,7.38627763 19.8949245,0.83353609 18.4291991,0.0954024435 C16.9634737,-0.642731203 14.4450944,4.40029517 12.7955231,4.49873833 C12.0655693,4.52838531 11.3445363,4.66483741 10.6556958,4.90353356 C9.55805016,5.30604825 8.63804468,6.05672485 7.7416987,6.79067751 L4.70746479,9.28786498 C4.0655554,9.80592685 3.53496202,10.3008033 2.82672846,10.6656891" id="Path"></path>
                        </g>
                        <g id="Group" transform="translate(70.000000, 0.000000)" fill="#FF9800" fill-rule="nonzero">
                            <path d="M1.24840736,1.53276119 C1.89148101,0.573509847 2.99640186,0.0644943458 4.08488155,0.0216341793 C5.17336124,-0.0208177952 6.2450261,0.352677942 7.22028597,0.882103046 C7.50800631,1.06089117 7.81553078,1.19845189 8.13538613,1.29192788 C8.65066711,1.40662985 9.22386582,1.25355782 9.68982331,1.5168417 C10.3082352,1.87523433 10.4278073,2.7871354 10.3739999,3.54392348 C10.3205661,4.30030337 10.1905314,5.14036264 10.5597103,5.7955109 C10.6904922,5.98246286 10.8096907,6.17880324 10.9161846,6.38330746 C11.0749912,6.77313088 10.9823229,7.22336673 10.8874125,7.63564071 C10.6464,7.41031869 10.5103868,7.0702947 10.2959043,6.80905178 C10.0814219,6.54780887 9.70813278,6.37187809 9.44245854,6.56781028 C9.17641064,6.76374247 9.18052093,7.11968594 9.16632175,7.43970852 C9.1517489,7.75932291 9.07739,8.14220706 8.80125321,8.24588784 C8.56509833,8.30425931 8.3203492,8.20017033 8.1828413,7.98219577 C7.7109052,7.35153904 7.90035224,6.34493741 7.43252643,5.71019875 C7.16647853,5.34976516 6.72331447,5.17424258 6.47819168,4.79584854 C6.2842607,4.49868471 6.23493721,4.12029067 6.06566797,3.8002681 C5.89677239,3.48065371 5.50293182,3.24635147 5.24136787,3.46718337 C5.15206246,3.56065936 5.07732991,3.66923844 5.02053316,3.78924691 C4.68461032,4.31499829 4.06208812,4.5199107 3.51579313,4.28479207 C3.3132679,4.14886412 3.09392785,4.04477514 2.8644989,3.97619888 C2.55809542,3.959463 2.26962775,4.13376101 2.12016263,4.42643472 C1.97256584,4.71298555 1.90119624,5.039131 1.91427444,5.36772561 C1.91427444,5.81796146 1.98863333,6.29758713 1.75359944,6.65802072 C1.66392038,6.79354049 1.5521952,6.90987522 1.42365521,7.00049386 C1.07951178,7.24132718 0.598981442,7.40337943 0.281741739,7.12866617 C0.0627753477,6.9062015 -0.0340033133,6.57515773 0.0261563949,6.25513516 C0.0878107542,5.94164365 0.169269241,5.63305045 0.269410867,5.33180471 C0.450637317,4.63379629 0.213735112,3.84761838 0.411402725,3.19002096 C0.61878557,2.59814247 0.900527309,2.04014393 1.24840736,1.53276119 Z" id="Path"></path>
                        </g>
                        <g id="Group" transform="translate(73.000000, 8.000000)" fill="#E91E63" fill-rule="nonzero">
                            <path d="M0.0519877946,9.16844329 C0.0190489629,9.32486285 0.0357168054,9.48750807 0.100007055,9.63420005 C0.165091012,9.73419962 0.253589318,9.81746775 0.358358614,9.87661147 C1.09452166,10.326415 1.93188232,10.5925617 2.79741957,10.6517054 C2.91488818,10.6536509 3.03037251,10.6832228 3.1343481,10.7376973 C3.34031501,10.8707706 3.35341118,11.1668783 3.27681847,11.4030641 C3.17443029,11.6256312 3.12164879,11.8672644 3.12125194,12.1112323 C3.18474848,12.5598685 3.72764393,12.7551984 4.18521589,12.8217351 C4.82692783,12.9015013 5.52935833,12.8606454 6.03733068,12.467651 C6.38140257,12.1598702 6.64372266,11.7746578 6.80167031,11.3450877 C8.05810816,8.51358227 8.49821857,5.38402367 9.7701337,2.56146765 C9.86656907,2.37703264 9.93085932,2.1782008 9.96062332,1.97314331 C9.98800621,1.76419479 9.89752363,1.55680268 9.7240987,1.4322896 C9.48757408,1.28832134 9.12008784,1.37003305 8.96015592,1.14474219 C8.88118209,1.03073489 8.88991287,0.876260845 8.82006667,0.756027896 C8.67323092,0.500776069 8.28788627,0.541242822 8.02516932,0.393383532 C7.81959927,0.285990995 7.6771289,0.0649802669 7.44735078,0.0217897901 C7.21836638,0.00933848147 6.99692218,0.1031124 6.84968957,0.2750961 C6.10320834,0.957972558 5.71111719,1.9260618 5.29521483,2.84045478 C4.6602494,4.24200521 3.91654614,5.5941395 3.07085156,6.88440636 C3.1692712,6.73421245 2.59819917,5.59647412 2.37477071,5.54705799 C1.98267955,5.47001552 1.48145372,6.1439426 1.26913715,6.39530339 C0.602820305,7.1871288 0.180568294,8.1493815 0.0519877946,9.16844329 Z" id="Path"></path>
                        </g>
                        <g id="Group" transform="translate(80.000000, 8.000000)" fill="#AD1457" fill-rule="nonzero">
                            <path d="M1.74206293,0.0158741357 C1.51545083,0.0204599972 1.30294906,0.153802737 1.16438549,0.377804431 C0.997883449,0.648370255 0.965147453,1.00642021 0.923098631,1.35071257 C0.781430789,2.44214759 0.469874418,3.48807676 0.00620855087,4.42958939" id="Shape"></path>
                        </g>
                        <g id="Group" transform="translate(81.000000, 8.000000)" fill="#AD1457" fill-rule="nonzero">
                            <path d="M1.71751094,0.0369073656 C1.40369691,0.0468287004 1.11641033,0.28890927 0.962607591,0.673857062 C0.859319881,1.01832581 0.795258925,1.38343093 0.772682376,1.75567941 C0.639198533,2.58073762 0.381543672,3.35618915 0.0174968252,4.03004621" id="Shape"></path>
                        </g>
                    </g>
                    <g id="Group-4" transform="translate(37.000000, 0.000000)" fill-rule="nonzero">
                        <g id="Group" transform="translate(13.000000, 30.000000)" fill="#8DD070">
                            <path d="M0.0233786001,16.0425692 C0.0233786001,16.0425692 -0.272494831,34.2097912 2.98364593,40.1875572 C6.23978669,46.1653232 7.63522084,72.1695719 7.63522084,72.1695719 C7.63522084,72.1695719 41.7683602,75.6625102 65.5543612,67.9862352 C89.3399789,60.3103394 139.952349,57.1711307 139.952349,57.1711307 L131.422992,0.303684311 C131.422992,0.303684311 89.2870896,-2.36919259 65.3175091,8.93992018 C41.3475454,20.2490329 0.0233786001,16.0425692 0.0233786001,16.0425692" id="Path"></path>
                        </g>
                        <g id="Group" transform="translate(13.000000, 30.000000)" fill="#006064">
                            <path d="M0.0233786001,16.0425692 C0.0233786001,16.0425692 -0.272494831,34.2097912 2.98364593,40.1875572 C6.23978669,46.1653232 7.63522084,72.1695719 7.63522084,72.1695719 C7.63522084,72.1695719 41.7683602,75.6625102 65.5543612,67.9862352 C89.3399789,60.3103394 139.952349,57.1711307 139.952349,57.1711307 L131.422992,0.303684311 C131.422992,0.303684311 89.2870896,-2.36919259 65.3175091,8.93992018 C41.3475454,20.2490329 0.0233786001,16.0425692 0.0233786001,16.0425692" id="Path"></path>
                        </g>
                        <g id="Group" transform="translate(21.000000, 33.000000)" fill="url(#linearGradient-3)">
                            <path d="M0.217531922,18.9716261 C0.217531922,18.9716261 -0.840136375,34.2023954 1.81314565,39.0688607 C4.46680732,43.9353261 4.5901893,65.6604941 4.5901893,65.6604941 C4.5901893,65.6604941 35.018843,67.0927365 56.6638387,59.616801 C78.3088344,52.1404802 123.793886,47.2909645 123.793886,47.2909645 L118.624751,0.038907069 C118.624751,0.038907069 80.9898299,-0.354401024 59.0244207,10.1693833 C37.0590115,20.6927824 0.217531922,18.9716261 0.217531922,18.9716261 Z" id="Path"></path>
                        </g>
                        <g id="Group" transform="translate(77.268375, 67.465629) scale(-1, 1) rotate(-82.900028) translate(-77.268375, -67.465629) translate(59.768375, 58.965629)" fill="#000000" fill-opacity="0.1">
                            <path d="M17.0727127,0.244350033 C26.4885377,0.244350033 34.1218959,3.79938073 34.1218959,8.18516516 C34.1218959,12.5709496 26.4885377,16.1259803 17.0727127,16.1259803 C7.65650575,16.1259803 0.0235295125,12.5709496 0.0235295125,8.18516516 C0.0235295125,3.79938073 7.65650575,0.244350033 17.0727127,0.244350033" id="Path"></path>
                        </g>
                        <g id="Group" fill="#8DD070">
                            <path d="M0.0221271081,55.2645602 C0.0221271081,55.2645602 5.34903762,72.7692809 10.2738452,77.5048686 C15.1986527,82.2400744 24.5515524,106.740879 24.5515524,106.740879 C24.5515524,106.740879 57.9707341,99.6523897 78.1353966,85.0164378 C98.2996776,70.3804858 145.285447,51.9024534 145.285447,51.9024534 L119.648903,0.00496392839 C119.648903,0.00496392839 78.9033598,10.3264984 59.6882555,28.49524 C40.4731512,46.6635997 0.0221271081,55.2645602 0.0221271081,55.2645602" id="Path"></path>
                        </g>
                        <g id="Group" fill="#006064">
                            <path d="M0.0221271081,55.2645602 C0.0221271081,55.2645602 5.34903762,72.7692809 10.2738452,77.5048686 C15.1986527,82.2400744 24.5515524,106.740879 24.5515524,106.740879 C24.5515524,106.740879 57.9707341,99.6523897 78.1353966,85.0164378 C98.2996776,70.3804858 145.285447,51.9024534 145.285447,51.9024534 L119.648903,0.00496392839 C119.648903,0.00496392839 78.9033598,10.3264984 59.6882555,28.49524 C40.4731512,46.6635997 0.0221271081,55.2645602 0.0221271081,55.2645602" id="Path"></path>
                        </g>
                        <g id="Group" transform="translate(10.000000, 5.000000)" fill="url(#linearGradient-4)">
                            <path d="M0.0272343317,54.1774572 C0.0272343317,54.1774572 3.66512732,68.8111762 7.7046308,72.5656053 C11.7441343,76.3200343 18.4967142,96.6859586 18.4967142,96.6859586 C18.4967142,96.6859586 48.1940268,88.677904 66.7248798,75.0026574 C85.2553493,61.3274109 127.518429,42.8137983 127.518429,42.8137983 L108.111474,0.00114058605 C108.111474,0.00114058605 71.8012058,11.1952323 53.8929066,27.8318204 C35.9842238,44.4684085 0.0272343317,54.1774572 0.0272343317,54.1774572 Z" id="Path"></path>
                        </g>
                        <g id="Group" transform="translate(68.474236, 55.637334) scale(-1, 1) rotate(-65.030036) translate(-68.474236, -55.637334) translate(50.974236, 47.637334)" fill="#00BCD4">
                            <path d="M17.0854933,0.0295446875 C26.5016981,0.0295446875 34.1346726,3.58495616 34.1346726,7.97035797 C34.1346726,12.3561414 26.5016981,15.9111712 17.0854933,15.9111712 C7.66967057,15.9111712 0.0363140979,12.3561414 0.0363140979,7.97035797 C0.0363140979,3.58495616 7.66967057,0.0295446875 17.0854933,0.0295446875" id="Path"></path>
                        </g>
                    </g>
                    <g id="Group-2" transform="translate(15.000000, 50.000000)" fill-rule="nonzero">
                        <g id="Group" fill="#AD1457">
                            <path d="M117.804764,9.49823621 L117.804764,6.98481727 C117.804764,3.13122619 114.553738,0.00843798504 110.545576,0.00843798504 L7.28361148,0.00843798504 C3.27544993,0.00843798504 0.0248053414,3.13122619 0.0248053414,6.98481727 L0.0248053414,11.6194723 L117.804764,9.49823621 Z" id="Path"></path>
                        </g>
                        <g id="Group" transform="translate(0.000000, 6.000000)" fill="url(#linearGradient-5)">
                            <path d="M119.915778,7.39168548 L119.915778,80.4054872 C119.915778,83.8922543 117.11787,86.7184193 113.668773,86.7184193 L6.27356849,86.7184193 C2.82561039,86.7172684 0.0311173855,83.8911034 0.0311173855,80.4054872 L0.0311173855,0.0290404085 C3.10832322,1.18233209 3.10832322,1.18233209 6.27356849,1.0871931 L113.668773,1.0871931 C117.114834,1.0871931 119.910086,3.90798734 119.915778,7.39168548 Z" id="Path"></path>
                        </g>
                        <g id="Group" transform="translate(85.000000, 39.000000)" fill="#BF360C">
                            <path d="M34.7983733,0.0149005221 L34.7983733,23.8855369 L11.7443533,23.8855369 C5.24279869,23.7977022 0.0179654901,18.4809607 0.0179654901,11.9521793 C0.0179654901,5.42379004 5.24279869,0.107048488 11.7443533,0.0188217121 L34.7983733,0.0149005221 Z" id="Path"></path>
                        </g>
                        <g id="Group" transform="translate(99.000000, 51.000000) scale(-1, 1) rotate(-90.000000) translate(-99.000000, -51.000000) translate(94.000000, 46.000000)" fill="#FF9800">
                            <path d="M4.72533336,0.000396853394 C7.3263105,0.000396853394 9.43439572,2.10887893 9.43439572,4.70985607 C9.43439572,7.31043636 7.3263105,9.41891844 4.72533336,9.41891844 C2.12435622,9.41891844 0.0158741357,7.31043636 0.0158741357,4.70985607 C0.0158741357,2.10887893 2.12435622,0.000396853394 4.72533336,0.000396853394" id="Path"></path>
                        </g>
                    </g>
                    <g id="Group" transform="translate(92.000000, 22.000000)" fill-rule="nonzero">
                        <g transform="translate(6.000000, 19.000000)" fill="#FFF3E0" id="Path">
                            <path d="M1.67668971,1.21156695 C1.26675603,1.5660364 0.88806265,1.95273035 0.543657401,2.36794483 C0.197347256,2.78908565 0.0129532948,3.31430789 0.0224777762,3.85360519 C0.0243826725,4.00991252 0.0758148723,4.16177508 0.16953577,4.28882108 C0.268209397,4.41327431 0.436983209,4.46327783 0.59013687,4.41327431 C0.674333286,4.3714195 0.746719345,4.30956328 0.800437421,4.233632 C1.02254833,3.97398406 1.25799351,3.7258184 1.50639199,3.48987583 C1.59668407,3.40209186 1.71669254,3.31023353 1.8386059,3.34282842 C1.89308593,3.36171864 1.94223226,3.39320234 1.98147312,3.43468675 C2.12281642,3.55358403 2.22568082,3.70952095 2.27787498,3.8843481 C2.35140398,4.19696275 2.16434316,4.5095774 1.95213772,4.75477988 C1.73955129,4.99998236 1.4896289,5.23481374 1.40352759,5.54335403 C1.37076337,5.62484126 1.37076337,5.715218 1.40352759,5.79670523 C1.44391139,5.85596868 1.50105828,5.90263863 1.56734867,5.93152956 C2.17691548,6.25784888 2.90344292,6.30414844 3.55148864,6.05820516 C3.97170876,5.89300833 4.34583039,5.60891421 4.77862283,5.4614964 C4.9664456,5.41186327 5.14817271,5.34333992 5.32113729,5.25740793 C5.57144067,5.09554466 5.74440525,4.84330464 5.8023141,4.55661775 C5.85717511,4.27289403 5.86746155,3.98287357 5.83393537,3.69618668 C5.78136024,2.58610837 5.53715253,1.4926979 5.11083674,0.46151404 C5.08607309,0.395213066 5.04416537,0.335949626 4.98892338,0.29002046 C4.92568082,0.252610413 4.85291379,0.233349795 4.77862283,0.234831381 C4.24068012,0.179642303 3.35795118,-0.0881543672 2.83905743,0.105933399 C2.65733032,0.202977282 2.50074785,0.338542402 2.38073938,0.502628051 C2.28397065,0.606709468 1.67668971,1.07452025 1.67668971,1.21156695"></path>
                        </g>
                        <g fill="url(#linearGradient-6)" id="Shape">
                            <path d="M7.28381544,19.1220897 C7.28381544,18.6231657 6.67664738,17.4197474 7.64224637,17.3401122 C7.64224637,16.8067412 6.89530126,16.4759771 7.03471144,15.9096409 C7.07946945,15.7218499 7.23722308,15.5685057 7.25556653,15.3762699 C7.3160999,14.8310463 6.34059546,14.5347291 6.50275152,14.0113588 C6.56328489,13.8072704 6.7779032,13.6887435 6.82449556,13.486507 C6.93382249,13.0142514 6.09772823,12.8038662 6.081586,12.319758 C6.081586,12.1560428 6.17256949,12.0026986 6.16449838,11.8393537 C6.16449838,11.6348949 5.9884013,11.4796987 5.8915479,11.3019084 C5.63840835,10.8463207 5.76204318,10.1414562 5.30052208,9.90625441 C5.60612389,9.93292296 5.7051785,9.47511288 5.57970933,9.19546352 C5.45424016,8.91544377 5.19706505,8.67209327 5.1952307,8.361701 C5.21027233,8.24910047 5.21027233,8.13501834 5.1952307,8.02241781 C5.11011712,7.72424862 4.62658389,7.69943206 4.54550586,7.4094116 C4.53486666,7.29792225 4.53156484,7.18606251 4.53523353,7.07420277 C4.50294906,6.84344575 4.26815296,6.69639833 4.04766474,6.63083815 C3.81837167,6.59157613 3.59788345,6.51194088 3.39573868,6.39600677 C3.25412728,6.2874806 3.09013687,6.1078383 2.93862001,6.1915479 C2.88175533,6.22636518 2.85350642,6.29155496 2.81094963,6.34081769 C2.62898264,6.55527727 2.28082404,6.46119656 2.05189784,6.30377804 C1.3761253,5.84004163 1.04007337,5.00850148 0.896260759,4.19733315 C0.752815013,3.38616481 0.756850571,2.54832792 0.576717934,1.74530831 C0.521687597,1.49492028 0.448680683,1.248977 0.358064061,1.00970086 C0.281021589,0.805241992 0.0341188091,0.484478623 0.0179765768,0.278167772 C-0.0183434457,-0.191865387 0.945054325,0.128897982 1.3111895,0.175938338 C1.66705235,0.211126005 2.01851277,0.279278961 2.36190207,0.38002681 C2.72803725,0.520036687 3.08646818,0.678936786 3.43646113,0.856356709 C4.89770001,1.50825455 6.66233949,1.5878898 7.83632002,2.68315225 C8.22299986,3.04280725 8.54877946,3.51469239 9.05065613,3.67803725 C9.28104981,3.72285523 9.50814167,3.78211867 9.7308311,3.85582757 C10.2873712,4.11954988 10.3743192,4.86552843 10.6780866,5.40482574 C10.7734726,5.54742839 10.8567518,5.69780937 10.9268238,5.85448709 C10.9855228,6.03931494 11.0126711,6.23266192 11.0079018,6.42674968 L11.0504586,7.84240511 C11.1190631,10.2147947 11.1880344,12.593481 10.9370961,14.9514251 C10.8560181,15.7299986 10.7345845,16.5307958 10.9631438,17.2786264 C11.024044,17.4830852 11.1091576,17.675321 11.1656554,17.8816319 C11.2155496,18.1235008 11.2415973,18.3698144 11.2426979,18.6172393 L11.2749824,19.5347114 C11.2863553,19.606198 11.2702131,19.6791661 11.2302244,19.7391703 C11.1619867,19.7951002 11.071737,19.8169536 10.9855228,19.7984338 C9.72055877,19.6839812 8.44165373,18.9646712 7.24749541,19.3998871 L7.28381544,19.1220897 Z"></path>
                        </g>
                    </g>
                    <g id="Group-5" transform="translate(108.000000, 12.000000)">
                        <g id="Group" transform="translate(36.000000, 101.000000)" fill="#00BCD4" fill-rule="nonzero">
                            <path d="M30.9669893,0.0331451954 C30.9669893,1.2728517 23.7747444,4.88796388 15.2313946,4.88796388 C6.68842387,4.88796388 0.0314651239,1.2728517 0.0314651239,0.0331451954" id="Shape"></path>
                        </g>
                        <g id="Group" transform="translate(5.000000, 89.000000) scale(-1, 1) rotate(-90.000000) translate(-5.000000, -89.000000) translate(0.000000, 84.000000)" fill="#000000" fill-opacity="0.1" fill-rule="nonzero">
                            <path d="M4.72295224,0.0357168054 C7.32392938,0.0357168054 9.43241146,2.14419889 9.43241146,4.74517603 C9.43241146,7.34575631 7.32392938,9.45423839 4.72295224,9.45423839 C2.12237195,9.45423839 0.0138898688,7.34575631 0.0138898688,4.74517603 C0.0138898688,2.14419889 2.12237195,0.0357168054 4.72295224,0.0357168054" id="Path"></path>
                        </g>
                        <g id="Group" transform="translate(51.000000, 73.000000)" fill="#FBBEBE" fill-rule="nonzero">
                            <path d="M14.6684258,3.28851459 C14.8463697,5.24674389 13.3875327,7.14792241 13.8124735,9.06606197 C13.9046705,9.47659626 14.078441,9.86361638 14.1410439,10.2783909 C14.3167113,11.41825 13.6493266,12.4964325 13.0107772,13.4489492 L7.52676418,21.6234001 C7.30708496,21.9830512 7.04415283,22.3130206 6.74403838,22.605984 C5.69762162,23.5546459 4.12344355,23.4567344 2.74618002,23.7396754 C1.77792202,23.9389677 0.863919853,24.3498874 0.0671558252,24.9431384 C-0.00227646865,25.003273 -0.0132794005,25.1077376 0.0417352586,25.1813639 C0.504617218,25.8212577 1.25471364,26.1789815 2.03478356,26.1319532 C2.17895991,26.3254632 2.03478356,26.6080188 1.82534845,26.7464054 C1.53016635,26.9591894 1.12609316,27.0100725 1.0676638,27.5162054 C1.04679617,27.6927544 1.08208143,27.8716163 1.16820783,28.0265786 C1.38902529,28.3704251 1.73277206,28.6136619 2.12660113,28.7050202 C4.02517599,29.2940309 6.07627424,28.2586365 7.4975495,26.8485572 C8.91882477,25.4384779 9.9379239,23.658725 11.3322609,22.2232042 C12.1043632,21.42989 12.9815625,20.749521 13.7768089,19.979721 C15.3635075,18.4443613 16.5962153,16.5771048 17.7871878,14.707921 C18.1449728,14.1443519 18.5050343,13.5661346 18.6556606,12.9131345 C18.8066664,12.2605199 18.735337,11.6009667 18.9049339,10.9695534 C19.1268896,10.1400043 19.7233244,9.48083652 20.2195946,8.78543383 C21.1927849,7.42431028 21.8415785,5.7594299 21.7137168,4.08375613 C21.5862346,2.40808236 20.5625825,0.751297027 19.0054779,0.181560236 C18.5228666,-0.0154191283 17.9905523,-0.048184776 17.4878322,0.0878890314 C16.8496621,0.287566743 16.3784331,0.82376693 15.9432482,1.33606747 L14.896452,2.55880434 C14.6357964,2.82709718 14.4293965,3.1451167 14.2897731,3.49435995 C14.1528056,3.85285469 14.2347585,4.2595342 14.4988288,4.53438016" id="Shape"></path>
                        </g>
                        <g id="Group" transform="translate(51.000000, 73.000000)" fill="#FFF3E0" fill-rule="nonzero">
                            <path d="M14.6684258,3.28851459 C14.8463697,5.24674389 13.3875327,7.14792241 13.8124735,9.06606197 C13.9046705,9.47659626 14.078441,9.86361638 14.1410439,10.2783909 C14.3167113,11.41825 13.6493266,12.4964325 13.0107772,13.4489492 L7.52676418,21.6234001 C7.30708496,21.9830512 7.04415283,22.3130206 6.74403838,22.605984 C5.69762162,23.5546459 4.12344355,23.4567344 2.74618002,23.7396754 C1.77792202,23.9389677 0.863919853,24.3498874 0.0671558252,24.9431384 C-0.00227646865,25.003273 -0.0132794005,25.1077376 0.0417352586,25.1813639 C0.504617218,25.8212577 1.25471364,26.1789815 2.03478356,26.1319532 C2.17895991,26.3254632 2.03478356,26.6080188 1.82534845,26.7464054 C1.53016635,26.9591894 1.12609316,27.0100725 1.0676638,27.5162054 C1.04679617,27.6927544 1.08208143,27.8716163 1.16820783,28.0265786 C1.38902529,28.3704251 1.73277206,28.6136619 2.12660113,28.7050202 C4.02517599,29.2940309 6.07627424,28.2586365 7.4975495,26.8485572 C8.91882477,25.4384779 9.9379239,23.658725 11.3322609,22.2232042 C12.1043632,21.42989 12.9815625,20.749521 13.7768089,19.979721 C15.3635075,18.4443613 16.5962153,16.5771048 17.7871878,14.707921 C18.1449728,14.1443519 18.5050343,13.5661346 18.6556606,12.9131345 C18.8066664,12.2605199 18.735337,11.6009667 18.9049339,10.9695534 C19.1268896,10.1400043 19.7233244,9.48083652 20.2195946,8.78543383 C21.1927849,7.42431028 21.8415785,5.7594299 21.7137168,4.08375613 C21.5862346,2.40808236 20.5625825,0.751297027 19.0054779,0.181560236 C18.5228666,-0.0154191283 17.9905523,-0.048184776 17.4878322,0.0878890314 C16.8496621,0.287566743 16.3784331,0.82376693 15.9432482,1.33606747 L14.896452,2.55880434 C14.6357964,2.82709718 14.4293965,3.1451167 14.2897731,3.49435995 C14.1528056,3.85285469 14.2347585,4.2595342 14.4988288,4.53438016" id="Shape"></path>
                        </g>
                        <g id="Group" transform="translate(66.000000, 125.000000)" fill="#3F3D56" fill-rule="nonzero">
                            <path d="M4.85375218,2.10526316 C3.64767062,2.78432341 2.14465453,2.8252434 0.742527398,2.66756032 C0.517055877,2.6421617 0.249165138,2.62664033 0.110060674,2.78820375 C-0.100506796,3.02172993 0.148276186,3.37201919 0.405466582,3.55298434 C1.23245026,4.12621702 2.20388858,4.49520248 3.22844645,4.6253704 C4.14294365,4.74495555 5.06623042,4.80174968 5.98989935,4.79469451 C8.51976624,4.83561451 11.0496331,4.87441795 13.5393737,4.53965006 C13.6868856,4.52942006 13.8305759,4.49096938 13.961273,4.42676732 C14.1217781,4.32270354 14.2333674,4.16607874 14.2731116,3.98899393 C14.4439349,3.38965712 14.1148993,2.74728376 13.6177155,2.33102864 C13.1201496,1.91442077 12.4811862,1.68265839 11.8571269,1.45900945 L9.66470298,0.670946804 C9.15032219,0.486101312 8.32601359,-0.00440948215 7.76730281,0.0344997883 C6.71714054,0.104557641 5.72430154,1.63433046 4.85375218,2.10526316" id="Path"></path>
                        </g>
                        <g id="Group" transform="translate(66.000000, 125.000000)" fill="#AD1457" fill-rule="nonzero">
                            <path d="M4.85375218,2.10526316 C3.64767062,2.78432341 2.14465453,2.8252434 0.742527398,2.66756032 C0.517055877,2.6421617 0.249165138,2.62664033 0.110060674,2.78820375 C-0.100506796,3.02172993 0.148276186,3.37201919 0.405466582,3.55298434 C1.23245026,4.12621702 2.20388858,4.49520248 3.22844645,4.6253704 C4.14294365,4.74495555 5.06623042,4.80174968 5.98989935,4.79469451 C8.51976624,4.83561451 11.0496331,4.87441795 13.5393737,4.53965006 C13.6868856,4.52942006 13.8305759,4.49096938 13.961273,4.42676732 C14.1217781,4.32270354 14.2333674,4.16607874 14.2731116,3.98899393 C14.4439349,3.38965712 14.1148993,2.74728376 13.6177155,2.33102864 C13.1201496,1.91442077 12.4811862,1.68265839 11.8571269,1.45900945 L9.66470298,0.670946804 C9.15032219,0.486101312 8.32601359,-0.00440948215 7.76730281,0.0344997883 C6.71714054,0.104557641 5.72430154,1.63433046 4.85375218,2.10526316" id="Path"></path>
                        </g>
                        <g id="Group" transform="translate(71.000000, 85.000000)" fill="#BF360C" fill-rule="nonzero">
                            <path d="M1.66389163,12.4415095 C0.765344998,13.6528695 -0.164808805,15.0541121 0.0571939231,16.55144 C0.177978458,17.361301 0.624241569,18.0743143 0.9519778,18.8212624 C1.39635953,19.8328262 1.62889798,20.9248422 1.85692112,22.0080885 C2.1933117,23.5961635 2.53158365,25.186145 2.73740652,26.7955723 C2.97182635,28.616997 1.86933822,33.87995 1.76774376,35.712051 C1.74290955,36.1535854 1.69098349,36.6332488 1.38808146,36.9508638 C1.26955458,37.0751646 1.11189502,37.1758252 1.0577113,37.3401615 C1.02610413,37.4980157 1.05206717,37.6623519 1.13070881,37.8026669 C1.63717605,38.96179 2.67306336,39.8219814 3.82898264,40.3268101 C4.98527821,40.8316387 7.77310569,41.2712667 9.03325337,41.3135899 C9.19919101,41.3318919 9.36738629,41.309777 9.52316448,41.2483892 C9.69098349,41.1458221 9.8230563,40.9929246 9.90094539,40.8106677 C10.8036311,39.0605443 9.93631532,33.2382381 9.94873242,31.2608655 C9.96114952,29.611784 10.3449508,27.9775729 10.2745873,26.3303978 C10.2162645,25.0096075 9.85917878,23.7181765 9.74102817,22.4034868 C9.53332393,20.2430948 9.92352194,18.0743143 10.3159776,15.9413752 C10.6147406,14.307164 10.9157613,12.6706651 11.2999389,11.0532307 C11.5343587,10.0664509 11.8064061,9.07166394 12.3377075,8.21528544 C12.753116,7.53620704 13.3363435,6.96808417 13.819858,6.32255933 C15.1627863,4.53926359 15.7591835,2.29193729 15.4807394,0.0667258402 C15.4513899,-0.143746524 12.3666808,0.859810112 12.0950096,0.979535334 C10.9857486,1.45729235 9.96491228,2.12302559 9.07690137,2.94851956 C8.36272988,3.63636764 7.80019754,4.55756553 7.17520342,5.32967882 C6.29095527,6.42207615 5.41799539,7.52286187 4.55557123,8.63203598 C3.57160999,9.88838823 2.60796764,11.1584669 1.66389163,12.4415095" id="Path"></path>
                        </g>
                        <g id="Group" transform="translate(61.500000, 65.500000) scale(-1, 1) rotate(-90.000000) translate(-61.500000, -65.500000) translate(56.000000, 60.000000)" fill="#FFF3E0" fill-rule="nonzero">
                            <path d="M5.21634683,0.0333709609 C8.08586144,0.0333709609 10.4117398,2.35924933 10.4117398,5.2283759 C10.4117398,8.0978905 8.08586144,10.4241569 5.21634683,10.4241569 C2.34722026,10.4241569 0.0209538592,8.0978905 0.0209538592,5.2283759 C0.0209538592,2.35924933 2.34722026,0.0333709609 5.21634683,0.0333709609" id="Path"></path>
                        </g>
                        <g id="Group" transform="translate(62.000000, 65.000000)" fill="#FFF3E0" fill-rule="nonzero">
                            <path d="M5.080914,0.956427261 C6.07265063,2.41913362 7.66482644,3.44636659 9.49233632,3.80222943 L9.09151439,5.14790461 C8.39979893,7.45917878 7.62236313,9.9043601 5.69167137,11.5072104 C5.91033759,10.7239453 5.63015909,9.88785099 5.15314132,9.2080429 C4.67572668,8.52786793 4.00583815,7.99370679 3.34904579,7.46541555 L0.290496684,5.01656554 C0.202395231,4.95016227 0.128183646,4.86908424 0.0714336108,4.77773388 C-0.00396853394,4.60493862 -0.00396853394,4.41196557 0.0714336108,4.23917031 C0.461143643,3.11801891 1.57352371,2.41803302 2.47993686,1.66081558 C2.93473085,1.26936645 3.34071187,0.832425568 3.69073656,0.357330323 C4.30149393,-0.447946945 4.68009207,0.361365881 5.080914,0.956427261" id="Path"></path>
                        </g>
                        <g id="Group" transform="translate(53.000000, 56.000000)" fill="#212121" fill-rule="nonzero">
                            <path d="M1.30162034,4.0512519 L1.18582734,3.11111634 C1.9933211,3.31737819 2.76068858,2.64515885 3.27698015,1.95051973 C3.79365387,1.25588062 4.27211208,0.43755912 5.05858732,0.146849474 C6.01359296,-0.203646217 7.02553972,0.353111331 7.9385083,0.82280545 C8.96039109,1.37769468 10.0820164,1.73454264 11.2418572,1.87429252 C11.4272024,1.88027113 11.6106368,1.90941682 11.7879568,1.96098229 C12.3825902,2.16687048 12.6650028,2.8966339 12.7513699,3.55839069 C12.8381191,4.22014748 12.8148076,4.92300718 13.1079206,5.51264705 C13.3184881,5.9599214 13.7105792,6.29173395 13.9509548,6.7330297 C14.5834215,7.91641974 13.9719733,9.53437959 14.6319552,10.6949762 L12.9917454,9.22536047 C12.8419406,9.09121553 12.6313732,8.95109198 12.4647535,9.06431181 C12.3340565,9.15511186 12.3237383,9.35091116 12.2706187,9.50747587 C12.1127887,9.96521278 11.5265627,10.101226 11.1027527,9.91999958 C10.6789427,9.73839947 10.369397,9.3445589 10.0487689,8.98621629 C9.32343846,8.14921165 8.45900357,7.41309597 7.44705682,7.05662167 C6.55013875,6.72854575 5.55156742,6.79318941 4.70662245,7.23373783 C3.94116575,7.65635044 3.38054419,8.6416992 2.44235337,8.6768235 C1.15640139,8.72427867 0.620619914,6.38253401 0.0263687033,5.45697129 C0.475400969,5.12665339 0.617562673,4.52879294 0.363429519,4.03854737 C0.449796576,4.00379673 1.28289474,3.9066444 1.30162034,4.0512519" id="Path"></path>
                        </g>
                        <g id="Group" transform="translate(51.500000, 99.500000) scale(-1, 1) rotate(-90.000000) translate(-51.500000, -99.500000) translate(49.000000, 84.000000)" fill="#006064" fill-rule="nonzero">
                            <path d="M2.08162833,0.0109938385 C3.230563,0.0109938385 4.16184563,6.93597479 4.16184563,15.4785664 C4.16184563,24.021158 3.230563,30.946518 2.08162833,30.946518 C0.932693664,30.946518 0.00105827572,24.021158 0.00105827572,15.4785664 C0.00105827572,6.93597479 0.932693664,0.0109938385 2.08162833,0.0109938385" id="Path"></path>
                        </g>
                        <g id="Group" transform="translate(41.000000, 97.000000)" fill="#E91E63" fill-rule="nonzero">
                            <path d="M3.73291641,5.77716947 L0.58004092,4.72642867 C-0.28899998,4.07076337 -0.0122457619,3.324425 0.426968897,2.77619585 C0.732704751,2.42188514 1.1878389,2.20891774 1.67481203,2.19177367 C1.88829648,2.16624806 2.09320889,2.09805277 2.27567075,1.99214054 C2.47568486,1.89080006 2.64712552,1.7467899 2.77570602,1.57153944 C3.00592634,1.23094398 3.12960854,0.837392409 3.13369046,0.434697333 C3.13369046,0.434697333 6.59270999,-0.511274164 7.538491,0.434697333 C7.70748251,0.60575702 7.84830877,0.799294483 7.95729606,1.0084521 C8.27160394,1.66145054 8.42549235,2.37159588 8.4075319,3.08707493 C8.4075319,3.08707493 8.58346268,4.11267109 8.86919712,5.28532524 C9.15533976,6.45836038 3.73291641,5.77716947 3.73291641,5.77716947" id="Path"></path>
                        </g>
                        <g id="Group" transform="translate(56.000000, 96.000000)" fill="#E91E63" fill-rule="nonzero">
                            <path d="M3.75577516,5.79012276 L0.603307868,4.73938197 C-0.266141224,4.08371666 0.0110211857,3.3373783 0.449827652,2.79105404 C0.753522546,2.4356004 1.2086567,2.22225201 1.69522163,2.20663186 C1.81972021,2.1948215 1.94136145,2.16434316 2.05565522,2.11633978 C2.1389264,2.08357556 2.22015662,2.04662057 2.29893769,2.00509383 C3.17940797,1.55325243 3.15695741,0.443459856 3.15695741,0.443459856 C3.15695741,0.443459856 6.6131196,-0.502511641 7.56134976,0.443459856 C7.68829749,0.571468887 7.79932573,0.712431212 7.89239352,0.863679977 C8.4846802,1.81993791 8.41936947,3.09583745 8.41936947,3.09583745 C8.41936947,3.09583745 8.59489206,4.12371949 8.86960531,5.29408777 C9.14431857,6.46483703 3.75577516,5.79012276 3.75577516,5.79012276" id="Path"></path>
                        </g>
                        <g id="Group" transform="translate(46.410440, 97.708908) scale(-1, 1) rotate(-75.671322) translate(-46.410440, -97.708908) translate(45.410440, 95.208908)" fill="#000000" fill-opacity="0.1" fill-rule="nonzero">
                            <path d="M0.680672596,0.270099831 C0.475150286,0.159816031 0.254729518,0.0800606176 0.0262865039,0.0331232214 L0.680672596,4.86347737 C0.958395123,4.57078645 1.31213798,4.36090379 1.70217196,4.25748887 C1.70217196,4.25748887 1.81868554,0.892497336 0.680672596,0.270099831" id="Path"></path>
                        </g>
                        <g id="Group" transform="translate(58.000000, 96.000000)" fill="#000000" fill-opacity="0.1" fill-rule="nonzero">
                            <path d="M5.46552843,0.629603499 L5.46552843,1.30069141 C4.7130944,2.21758149 1.07512347,2.01693241 0.0179060251,1.55749965 C0.0956257937,1.53322986 0.171440666,1.50557359 0.244969663,1.47509524 C1.06674192,1.14039791 1.04540708,0.318329335 1.04540708,0.318329335 C1.04540708,0.318329335 4.27192042,-0.382390292 5.15655425,0.318329335 C5.2750388,0.41315084 5.37866516,0.517567377 5.46552843,0.629603499 Z" id="Path"></path>
                        </g>
                        <g id="Group" transform="translate(40.000000, 44.000000)" fill="#AD1457" fill-rule="nonzero">
                            <path d="M24.8098423,48.9427826 C24.5830824,49.3447862 24.3893756,49.7654155 24.231028,50.1996261 L24.231028,53.5068435 C23.4000873,54.88747 19.0893427,54.4272612 18.5063006,53.6736983 C17.9232585,52.9205235 17.3148501,50.9593975 17.9697636,50.6190913 C18.6250613,50.2787851 19.1719755,48.609073 19.1719755,48.609073 C19.1719755,48.609073 18.465945,48.7759278 17.3463659,47.4360449 C16.2271711,46.095774 16.5600086,43.1245943 16.7675516,42.4141033 C16.9754789,41.7032242 16.7675516,39.3164244 16.7675516,39.3164244 C16.7675516,39.3164244 16.8102132,37.6401157 16.4792974,37.0964795 C16.1483817,36.5528432 15.4427355,33.4574926 15.4427355,33.4574926 C15.4427355,33.4574926 15.4427355,32.4105757 14.8616152,31.8669395 C14.2804948,31.3229152 13.9073018,29.1867857 13.9073018,29.1867857 C13.5679306,28.6528503 13.4214974,28.0168619 13.4937531,27.3866939 C13.6171259,26.3397771 12.788107,25.2094328 12.788107,25.2094328 L11.3779677,20.6861154 L10.0508456,17.2954706 L9.30445954,19.2628051 C9.30445954,19.2628051 9.09230449,23.8672217 9.26410396,24.828383 C9.43590343,25.7895442 9.68802973,28.345527 9.68802973,28.345527 C9.68802973,28.345527 8.8590108,30.0195075 9.23220383,31.4432059 C9.60539687,32.8665162 9.46972525,35.9257796 9.46972525,35.9257796 C9.46972525,35.9257796 9.84291829,42.2449203 9.51008083,42.7478129 C9.17724338,43.2510936 9.21952065,44.507549 9.21952065,44.507549 C9.21952065,44.507549 10.9156081,48.1896077 10.381377,48.6925004 C9.84714602,49.195393 10.008184,50.5764075 10.008184,50.5764075 C10.008184,50.5764075 11.1681187,50.5764075 10.6719372,51.0793001 C10.1757557,51.5825808 9.80064101,54.2196628 9.80064101,54.2196628 L4.78617186,54.8125794 C4.78617186,54.8125794 4.32803994,54.2281995 3.66428672,52.6717934 C3.00053351,51.1157754 3.78727516,51.2911669 4.4552561,51.1223719 C5.12323705,50.9531889 4.70123298,50.5376041 3.91256963,50.0347114 C3.12390628,49.5314308 3.58165387,48.4014745 3.58165387,48.4014745 C3.58165387,48.4014745 4.78386583,46.3507126 4.36839552,46.1834697 C3.95292521,46.0166149 3.91256963,43.1269225 3.91256963,43.1269225 C3.91256963,43.1269225 3.0835507,39.7017426 3.29109369,38.7727882 C3.49902101,37.8434457 2.62734047,35.6343657 2.62734047,35.6343657 L2.33716463,32.9972838 C1.44972619,31.500635 1.12611287,29.731586 1.42551284,28.0137576 L1.42551284,23.9463807 C1.42551284,23.9463807 0.263272121,16.0774305 0.0980064101,12.1000776 C-0.00807111613,9.55263158 0.0219073152,6.07623113 0.0557291352,3.9075067 C0.0768677726,2.69179484 0.0980064101,1.88468322 0.0980064101,1.88468322 L18.0101191,0.00116410329 C18.0101191,0.00116410329 17.9932082,0.835826161 18.3345011,2.68752646 C18.5189838,3.6808946 18.8053162,4.96722873 19.2549927,6.57485537 C20.5394532,11.1796599 19.7530959,14.6110484 19.7530959,14.6110484 L19.5855241,20.4315648 C19.5855241,20.4315648 21.1609291,24.3231621 20.8300134,25.663433 C20.6301572,26.4589036 20.5179302,27.274552 20.4952542,28.0948568 C20.4952542,28.0948568 24.0188729,36.5935868 23.6460642,39.063814 C23.2724868,41.5340412 24.8056146,45.4279667 24.8056146,45.4279667 C24.8056146,45.4279667 25.2253126,48.1896077 24.8098423,48.9427826" id="Path"></path>
                        </g>
                        <g id="Group" transform="translate(45.000000, 90.000000)" fill="#000000" fill-opacity="0.05" fill-rule="nonzero">
                            <path d="M3.45703401,0.0104416537 C3.45703401,0.0104416537 -1.03252434,0.67983632 0.24199238,1.1358826 C1.51686186,1.59221109 3.61083674,1.95795118 3.61083674,1.95795118 C3.61083674,1.95795118 5.06067447,2.01862565 3.45703401,0.0104416537" id="Path"></path>
                        </g>
                        <g id="Group" transform="translate(44.000000, 93.000000)" fill="#000000" fill-opacity="0">
                            <path d="M0.483984761,0.538450684 C0.301114717,0.424156907 0.180330182,0.232820658 0.155778185,0.0183434457 L0.118244673,0.0824044024 C0.118244673,0.0824044024 -0.21645266,0.904190772 0.362635812,1.26851983 C0.428107803,1.31056865 0.491886553,1.35261747 0.549456752,1.39325526 C0.656977565,1.37293636 0.772117962,1.35741499 0.882743051,1.3291943 C1.37293636,1.20784535 1.06335544,0.904190772 0.483984761,0.538450684" id="Path"></path>
                        </g>
                        <g id="Group" transform="translate(50.000000, 91.000000)" fill="#000000" fill-opacity="0.05">
                            <path d="M0.276770382,0.635247637 C0.438189273,0.544941442 0.433159223,0.311556371 0.3348446,0.0124171017 C0.0824275234,0.247495414 0.00926315331,0.614928743 0.00423310286,0.893749118 C0.0655082628,0.796952166 0.158335557,0.708903626 0.276770382,0.635247637 Z" id="Path"></path>
                        </g>
                        <g id="Group" transform="translate(48.000000, 73.000000)" fill="#000000" fill-opacity="0">
                            <path d="M0.374546027,0.0186256526 C0.184667484,0.378721603 0.0672585775,0.755185551 0.0259630309,1.13785805 C0.125558173,0.873712431 0.259161411,0.616339777 0.425963031,0.368844363 L0.374546027,0.0186256526 Z" id="Path"></path>
                        </g>
                        <g id="Group" transform="translate(61.000000, 69.000000)" fill="#000000" fill-opacity="0">
                            <path d="M0.286561735,0.351911951 C0.382656954,0.242415691 0.42561717,0.130661775 0.417703446,0.0186256526 C0.236818327,0.245802173 0.111329276,0.456046282 0.0186256526,0.641456187 C0.0988934241,0.546352476 0.187074919,0.456046282 0.286561735,0.351911951" id="Path"></path>
                        </g>
                        <g id="Group" transform="translate(48.000000, 86.000000)" fill="#000000" fill-opacity="0">
                            <path d="M0.207524052,0.689995767 C0.321167711,0.615493156 0.384731114,0.363200226 0.412981515,0.0129815155 C0.15680174,0.283900099 0.0213282249,0.574008748 0.0129815155,0.86750388 C0.0611356085,0.805136165 0.126625175,0.745590518 0.207524052,0.689995767 Z" id="Path"></path>
                        </g>
                        <g id="Group" transform="translate(42.000000, 95.000000)" fill="#000000" fill-opacity="0">
                            <path d="M7.59114778,0.00564413715 C7.31806729,0.769013687 7.11560402,1.54966841 6.98539076,2.34090588 L1.65970892,2.87216029 C1.65970892,2.87216029 1.17355218,2.34090588 0.468604487,0.925991252 C0.41186579,0.816636094 0.361249975,0.705164385 0.317573424,0.591223367 C-0.00204096031,0.717863694 -0.13266242,1.0039509 0.290632748,1.83857768 C0.995580439,3.24784817 1.48418634,3.78474672 1.48418634,3.78474672 L6.80986817,3.25137576 C6.80986817,3.25137576 7.20622266,0.854028503 7.73319861,0.396500635 C8.00342176,0.176732045 7.8368794,0.0620855087 7.59114778,0.00564413715" id="Path"></path>
                        </g>
                        <g id="Group" transform="translate(40.000000, 47.000000)" fill="#000000" fill-opacity="0">
                            <path d="M3.59284606,39.9492296 C3.59284606,39.9492296 3.62988571,42.7444738 4.01121772,42.9059835 C4.20594045,42.4439907 4.33258078,42.0049097 4.16114012,41.9320426 C3.77204741,41.7705329 3.74276845,38.9734107 3.74276845,38.9734107 C3.74276845,38.9734107 2.98186821,35.6579552 3.1727106,34.7587595 C3.36320023,33.8591882 2.56349654,31.7208752 2.56349654,31.7208752 L2.29681106,29.1682712 C1.48264428,27.719567 1.18562156,26.0071889 1.46006773,24.3443905 L1.46006773,20.4073105 C1.46006773,20.4073105 0.393678566,12.7904392 0.241639622,8.94049937 C0.144631015,6.47465984 0.171793425,3.1096246 0.202836179,1.01037446 C0.202836179,0.631390138 0.214477212,0.295600261 0.220474108,0.0116437206 L0.0899534359,0.0262922722 C0.0899534359,0.0262922722 0.0687879215,0.805294738 0.0511499929,1.98431535 C0.0201072386,4.08356548 -0.00917172287,7.44860072 0.0899534359,9.91218663 C0.241639622,13.7621265 1.30626499,21.3812514 1.30626499,21.3812514 L1.30626499,25.3183314 C1.03322986,26.9803786 1.33095809,28.6920055 2.14512488,30.1399585 L2.40969381,32.6929381 C2.40969381,32.6929381 3.20939749,34.8395143 3.01890786,35.7327004 C2.82806547,36.6255108 3.59284606,39.9492296 3.59284606,39.9492296" id="Path"></path>
                        </g>
                        <g id="Group" transform="translate(57.000000, 95.000000)" fill="#000000" fill-opacity="0.05">
                            <path d="M0.96006773,1.9600207 C0.567447439,1.38243733 0.30594751,0.723954659 0.194087766,0.0316071681 C-0.29853958,0.484266968 0.267426273,2.24034617 0.807093975,2.93758525 C1.3649111,3.66831287 5.52113024,4.11457598 6.32414985,2.773529 L6.32414985,2.00141103 C5.23481374,3.08696675 1.48751235,2.65123936 0.96006773,1.9600207" id="Path"></path>
                        </g>
                        <g id="Group" transform="translate(63.000000, 91.000000)" fill="#000000" fill-opacity="0.05">
                            <path d="M0.44814449,0.0301961338 C0.28107803,0.322844645 0.138563567,0.628474672 0.0214477212,0.944264146 L0.0214477212,1.37547622 C0.0917172287,1.21969804 0.189643008,1.01114717 0.333004092,0.765062791 C0.42923663,0.525469169 0.474954141,0.268378722 0.466770143,0.0101594469 C0.466770143,0.0101594469 0.452942006,0.0239875829 0.44814449,0.0301961338" id="Path"></path>
                        </g>
                        <g id="Group" transform="translate(56.000000, 86.000000)" fill="#000000" fill-opacity="0">
                            <path d="M2.35360519,5.94153027 C2.50787827,5.63373077 2.64145619,5.31630097 2.75396265,4.99109285 C2.75396265,4.99109285 2.06274399,5.15073374 0.966652556,3.87138422 C0.16970039,2.94168901 0.123794742,1.18452801 0.238182588,0.0362988571 C0.0304783406,0.716346832 -0.291237477,3.55284323 0.804853958,4.83182235 C1.52090682,5.66743686 2.06274399,5.88819317 2.35360519,5.94153027" id="Path"></path>
                        </g>
                        <g id="Group" transform="translate(48.000000, 60.000000)" fill="#000000" fill-opacity="0">
                            <path d="M7.80748957,22.818967 C7.88545425,23.6360714 7.91443589,24.4566349 7.89525086,25.2764297 C7.91770143,25.1469075 7.94749945,25.0189226 7.98546131,24.8928595 C8.21078333,24.186829 7.98546131,21.8246823 7.98546131,21.8246823 C7.98546131,21.8246823 8.03036243,20.1647228 7.67686811,19.6258797 C7.32337378,19.087421 6.5869953,16.0173221 6.5869953,16.0173221 C6.5869953,16.0173221 6.5869953,14.9803759 5.9702171,14.4419171 C5.3530307,13.9034584 4.95667621,11.7872886 4.95667621,11.7872886 C4.59256889,11.2595913 4.43378218,10.6296599 4.50644036,10.0039563 C4.63910278,8.96739436 3.75863251,7.84781525 3.75863251,7.84781525 L2.26138402,3.36988315 L0.851488641,0.011145827 L0.0567386966,1.9620499 C0.0567386966,1.9620499 0.0567386966,2.20802677 0.0297980205,2.59813072 L0.673925094,1.01427026 L2.08341228,4.36647383 L3.58106896,8.84440592 C3.58106896,8.84440592 4.46153924,9.96398503 4.32846862,11.0005469 C4.25581044,11.6262506 4.41500534,12.256182 4.77911266,12.7838793 C4.77911266,12.7838793 5.17505896,14.9042768 5.79224536,15.4385078 C6.40902356,15.9727388 6.4069826,17.0139128 6.4069826,17.0139128 C6.4069826,17.0139128 7.15683142,20.0817056 7.50828479,20.6182427 C7.85932996,21.1547797 7.80748957,22.818967 7.80748957,22.818967" id="Path"></path>
                        </g>
                        <g id="Group" transform="translate(56.000000, 3.000000)" fill="#FFF3E0" fill-rule="nonzero">
                            <path d="M3.7695781,3.79693453 L3.4834909,5.25592634 L3.50077607,5.90560181 L3.51276986,6.38378369 L1.92465077,6.55564766 L1.74756597,6.21006773 C1.41879498,5.58483844 0.735501623,4.31400804 0.515733032,4.1176979 C0.221885142,3.86027233 -0.301608579,-0.197791731 0.321010301,0.0433363906 C0.704458868,0.198902921 1.01911951,0.497812897 1.20467052,0.883025258 C1.20467052,0.883025258 4.33187526,1.25897771 3.7695781,3.79693453" id="Path"></path>
                        </g>
                        <g id="Group" transform="translate(57.929161, 9.703615) scale(-1, 1) rotate(5.876006) translate(-57.929161, -9.703615) translate(56.429161, 9.203615)" fill="#000000" fill-opacity="0.1" fill-rule="nonzero">
                            <path d="M0.299029114,0.786610876 L2.02763254,0.786610876 L2.18196531,0.413019654 C1.65173293,-0.0777242804 0.848744105,-0.126188106 0.263120004,0.297011756 L0.299029114,0.786610876 Z" id="Path"></path>
                        </g>
                        <g id="Group" transform="translate(57.000000, 9.000000)" fill="#AD1457" fill-rule="nonzero">
                            <path d="M1.83265133,1.02751517 L0.157471427,1.41526739 L0.121631156,1.16607874 L0.0268096515,0.495273035 C0.0268096515,0.495273035 0.689995767,-0.389163257 1.64893467,0.274022859 L1.73303231,0.614928743 L1.83265133,1.02751517 Z" id="Path"></path>
                        </g>
                        <g id="Group" transform="translate(17.000000, 0.000000)" fill="#FFF3E0" fill-rule="nonzero">
                            <path d="M5.4624806,7.54577042 L3.04745308,8.89467511 L2.83753351,8.42162586 C2.60856498,7.92040003 2.26568365,7.16479117 2.17120079,6.88897806 C2.02833357,6.4730757 1.02140539,5.94764181 1.02140539,5.94764181 C-1.5006773,3.43198815 1.50486807,1.26913715 1.50486807,1.26913715 C3.09812332,-2.06959045 4.86777198,2.40334415 4.86777198,2.40334415 C4.86777198,2.40334415 5.11578947,4.76105016 4.94130097,4.91860096 C4.76681247,5.07615176 4.76681247,5.72222908 4.76681247,5.72222908 C4.99692395,6.18496014 5.19160435,6.66594645 5.34894878,7.16042578 C5.42247778,7.39933152 5.4624806,7.54577042 5.4624806,7.54577042" id="Path"></path>
                        </g>
                        <g id="Group" transform="translate(21.000000, 8.000000)" fill="#AD1457" fill-rule="nonzero">
                            <path d="M2.77842058,0.726682658 L0.0985842623,1.71694652 L0.0444005456,1.28573444 L0.00714924039,0.986877381 C0.00714924039,0.986877381 1.55966323,-0.0112882743 2.01871972,0.027656272 C2.25050562,0.0530548892 2.48605428,0.0530548892 2.71821645,0.027656272 L2.74907107,0.38888105 L2.77842058,0.726682658 Z" id="Path"></path>
                        </g>
                        <g id="Group" transform="translate(43.000000, 8.000000)" fill="#FFF3E0" fill-rule="nonzero">
                            <path d="M10.098208,9.34930154 C10.098208,9.34930154 -1.94948497,10.7085861 0.302666855,9.97636518 C1.86954988,9.46454776 2.49234514,8.47777621 2.62311274,7.36489347 C2.73021024,6.43787922 2.49040497,5.43791449 2.17570904,4.58191054 C1.89244391,3.82213913 1.5339001,3.09302244 1.10512205,2.40464936 C1.10512205,2.40464936 10.3100748,-2.65997601 8.47117962,1.94444052 C8.18791449,2.64096233 8.01174686,3.37628757 7.94888528,4.12597009 C7.89378439,4.87060816 7.97410752,5.61912657 8.18675039,6.33505009 C8.53365317,7.49682517 9.19525187,8.53986172 10.098208,9.34930154 Z" id="Path"></path>
                        </g>
                        <g id="Group" transform="translate(43.000000, 8.000000)" fill="#000000" fill-opacity="0.1" fill-rule="nonzero">
                            <path d="M7.76177206,1.78213631 C7.46338366,2.41533794 7.27806446,3.0841682 7.21234554,3.765345 C6.30003628,4.42888387 5.30037392,4.38408353 4.01456893,4.38408353 C3.02837691,4.38408353 1.93401399,4.5904473 1.14579512,4.17983632 C0.847814913,3.48913504 0.470645447,2.82630168 0.019593219,2.20086073 C0.019593219,2.20086073 9.70068435,-2.40369691 7.76177206,1.78213631" id="Path"></path>
                        </g>
                        <g id="Group" transform="translate(48.000000, 8.000000) scale(-1, 1) rotate(-90.000000) translate(-48.000000, -8.000000) translate(43.000000, 3.000000)" fill="#FFF3E0" fill-rule="nonzero">
                            <path d="M5.01185269,0.0166854805 C7.76301679,0.0166854805 9.99305066,2.24710738 9.99305066,4.99827148 C9.99305066,7.74904755 7.76301679,9.97946945 5.01185269,9.97946945 C2.26068858,9.97946945 0.0302666855,7.74904755 0.0302666855,4.99827148 C0.0302666855,2.24710738 2.26068858,0.0166854805 5.01185269,0.0166854805" id="Path"></path>
                        </g>
                        <g id="Group" transform="translate(43.000000, 14.000000)" fill="#000000" fill-opacity="0.1" fill-rule="nonzero">
                            <path d="M10.098208,3.220333 C10.098208,3.220333 -1.94948497,4.45604628 0.302666855,3.79039086 C1.86954988,3.32545506 2.49234514,2.42839001 2.62311274,1.41632567 C3.2222379,0.83251023 4.42747284,0.398617186 5.19190066,0.1728517 C5.89851136,-0.0430365458 6.66138705,-0.0546775787 7.3753704,0.139692395 C7.65591929,0.216593763 7.92327501,0.329476506 8.16967687,0.474460279 C8.52046,1.53449979 9.18826725,2.48483138 10.098208,3.220333" id="Path"></path>
                        </g>
                        <g id="Group" transform="translate(58.084962, 10.688999) scale(-1, 1) rotate(13.028865) translate(-58.084962, -10.688999) translate(56.584962, 10.188999)" fill="#000000" fill-opacity="0.1" fill-rule="nonzero">
                            <path d="M0.0339564703,0.829766836 L2.36155482,0.829766836 L2.33252192,0.490519999 C1.69418008,-0.0624256341 0.776969566,-0.156300462 0.0393046365,0.255832929 L0.0339564703,0.829766836 Z" id="Path"></path>
                        </g>
                        <g id="Group" transform="translate(21.441507, 8.834921) scale(-1, 1) rotate(26.227845) translate(-21.441507, -8.834921) translate(19.441507, 8.334921)" fill="#000000" fill-opacity="0.1" fill-rule="nonzero">
                            <path d="M0.183646543,0.568937548 L3.21643862,0.568937548 L3.00747814,0.0217160254 C2.00775313,-0.0137732366 1.00650007,0.026295285 0.0125052338,0.141539985 L0.183646543,0.568937548 Z" id="Path"></path>
                        </g>
                        <g id="Group" transform="translate(39.000000, 45.000000)" fill="#000000" fill-opacity="0.1" fill-rule="nonzero">
                            <path d="M18.0801609,2.45872725 C13.5103664,3.13602371 7.01496872,3.99992945 5.98418231,3.70819811 C5.12734584,3.46691125 2.39504021,3.4919571 0.0170911528,3.5678002 C0.0379803396,2.46260759 0.0588695264,1.72886976 0.0588695264,1.72886976 L17.7596068,0.0165796529 C17.7596068,0.0165796529 17.7428954,0.775363341 18.0801609,2.45872725" id="Path"></path>
                        </g>
                        <g id="Group" transform="translate(20.000000, 8.000000)" fill="url(#linearGradient-7)" fill-rule="nonzero">
                            <path d="M42.2055436,38.1458283 C42.2055436,38.1458283 27.1912657,40.7370787 25.5803584,40.2494081 C23.9698303,39.7613562 15.6957281,40.2894436 15.6957281,40.2894436 C11.9718322,42.7987165 13.5262364,39.0967669 13.5262364,39.0967669 C13.5262364,39.0967669 13.2001111,37.163624 13.6498607,35.6007141 C13.9517162,34.4530297 14.1583886,33.2824678 14.2668442,32.1004672 C14.2668442,32.1004672 14.1853129,29.6308485 14.6350624,29.0547186 C15.084812,28.4782073 15.6183681,24.3659891 15.6183681,24.3659891 C15.6183681,24.3659891 16.026404,21.5684606 15.9865864,20.9522951 C15.9467687,20.3357483 16.1079353,18.6065959 16.1079353,18.6065959 L16.6414915,15.7270899 C13.5725007,15.3168213 4.24417948,9.55780935 4.24417948,9.55780935 C3.79442994,7.62466644 0.317403344,3.10027318 0.317403344,3.10027318 C0.266588472,2.71974525 0.170267744,2.34684312 0.0307164527,1.98957391 C-0.213877522,1.33108519 3.46792543,0.0144890396 3.46792543,0.0144890396 C3.46792543,0.0144890396 6.20851559,3.37975913 6.78151016,4.29256862 C7.35488394,5.20575941 9.31732397,6.88420025 9.31732397,6.88420025 C9.62221321,6.85255314 9.93013616,6.89296994 10.2168231,7.00201902 L10.2649834,7.01688935 C10.922543,7.2761669 11.5391474,7.63038579 12.0954565,8.0684886 C13.0180877,8.04637375 13.9130362,8.3857223 14.5910734,9.01485165 C14.5910734,9.01485165 16.2649305,8.76663153 16.5554096,9.05488716 C16.8462678,9.34314279 18.2732556,9.05488716 18.2732556,9.05488716 C18.2732556,9.05488716 19.7040356,6.01142627 20.6456276,6.89487639 C21.5868403,7.77832651 25.5803584,7.73600327 25.5803584,7.73600327 C26.1120185,7.02489645 27.4070393,6.51625491 28.2162851,6.26384059 C28.9072157,6.03125337 29.6523741,6.01867078 30.3501305,6.22799928 C30.6512276,6.31836513 30.9345016,6.46058649 31.1870591,6.64856272 L33.6159341,9.03391618 C33.6159341,9.03391618 34.3102776,8.12720733 34.2287463,7.92321691 C34.147215,7.71922648 35.0467141,7.55298382 35.0467141,7.55298382 C35.0467141,7.55298382 36.2329,7.18275073 36.6826496,7.05883131 C37.1323991,6.93491189 37.5446063,7.42487021 37.5825279,7.46909991 C37.5677385,7.41648181 37.2601947,6.41711937 37.3732009,5.65987641 C37.4862071,4.90263345 36.8817377,4.18771373 36.8817377,4.18771373 C38.3125176,0.649337748 41.544571,3.61120247 41.544571,3.61120247 C41.544571,3.61120247 41.9127893,5.54434538 41.5862847,6.28481156 C41.2601594,7.02489645 41.9127893,8.58818757 41.8312579,9.00036262 C41.7497266,9.41253766 41.9965959,10.1110619 41.9965959,10.89347 C41.9965959,11.6758782 41.577942,13.1545228 41.3416908,13.8130115 C41.1054395,14.4715002 39.1323815,15.9524326 39.1323815,15.9524326 C39.1323815,15.9524326 39.0091364,18.2977505 38.149455,19.6543822 C37.2893943,21.0110138 37.8293971,25.6513194 37.8293971,25.6513194 C37.8293971,25.6513194 38.6473649,29.2712916 39.670109,30.4239328 C40.6932323,31.576574 42.2055436,38.1458283 42.2055436,38.1458283 Z" id="Path"></path>
                        </g>
                        <g id="Group" transform="translate(35.000000, 36.000000)" fill="#AD1457" fill-rule="nonzero">
                            <path d="M0.0129532948,0.0203188937 C0.0129532948,0.0203188937 5.3154226,0.163679977 5.87050938,1.66652556 L5.87050938,3.2276939 C5.56305912,3.39588919 5.18969945,3.39588919 4.88263017,3.2276939 C4.34887823,2.94511077 1.14369973,1.34067071 0.0129532948,2.11278867 L0.0129532948,0.0203188937 Z" id="Path"></path>
                        </g>
                        <g id="Group" transform="translate(42.000000, 2.000000)" fill="#212121" fill-rule="nonzero">
                            <path d="M3.94237336,10.6318612 C3.94384084,10.839509 4.03188937,11.0372513 4.18597432,11.1766615 C4.33969239,11.3164385 4.54513899,11.385043 4.75168619,11.3663327 C6.18687738,11.4554819 7.68260195,11.5182165 9.00222943,10.9616763 C9.24949908,10.8732609 9.47182165,10.7261465 9.64975307,10.5328065 C9.88454917,10.2429801 9.93114153,9.85079723 10.0261606,9.49016509 C10.2121631,8.78577677 10.6091153,8.16063214 10.8941724,7.4907295 C11.3773388,6.3589389 11.539128,5.11598702 11.3619303,3.89834909 C11.3245097,3.52487653 11.2012417,3.165345 11.001665,2.84800339 C10.621222,2.30356992 9.92710597,2.08271483 9.42302808,1.64980951 C8.91895019,1.21653732 8.59537181,0.554705799 8.00618033,0.232961761 C7.47605475,-0.0623677155 6.8263299,-0.026047693 6.22943418,0.0752081276 C5.05471991,0.274417948 3.92953295,0.697050938 2.91403979,1.31999436 C2.57211796,1.52213913 2.1975448,1.77124312 1.80499506,1.69640186 C1.46087202,1.63146606 1.20993368,1.34200649 0.995682235,1.07089036 C0.719429942,1.718414 0.603499365,2.42316918 0.657429096,3.12498942 C0.672470721,3.22807958 0.669168901,3.33300409 0.647523635,3.43462678 C0.597996331,3.55789474 0.522788204,3.66905602 0.426668548,3.76077325 C0.0726400452,4.16542966 -0.147848173,4.82322562 0.202144772,5.23998871 C0.354028503,5.42012135 0.588824608,5.51954282 0.736305912,5.70371102 C1.00155214,6.03352617 0.912402991,6.51302385 0.906533089,6.93418936 C0.891858332,7.0813038 0.928912093,7.22841823 1.01182447,7.35095245 C1.16737689,7.49623254 1.38786511,7.54906166 1.59257796,7.4907295 C1.79288839,7.43019613 2.00347114,7.41038521 2.21185269,7.43203048 C2.4312403,7.50320305 2.62054466,7.64591506 2.75004939,7.83668689 C3.40380979,8.68892338 3.66281925,9.61563426 3.94237336,10.6318612" id="Path"></path>
                        </g>
                        <g id="Group" transform="translate(72.000000, 124.000000)" fill="#AD1457" fill-rule="nonzero">
                            <path d="M4.59453288,2.87761041 C3.5653544,3.75322774 2.22839514,4.22881685 0.848634504,4.20992663 C0.496495932,4.20992663 0.00933848147,4.27326443 0.0070038611,4.60810286 C0.0155641358,4.70662833 0.0513616481,4.80107944 0.110116261,4.88219627 C0.545522959,5.57335615 1.23345776,6.08746649 2.04201461,6.32674263 C2.79337327,6.54342458 3.59609357,6.50638493 4.37974781,6.46786369 L6.66573025,6.35526316 C7.0949113,6.33303937 7.52448144,6.31229716 7.95366249,6.26155284 C8.38284353,6.21043813 8.85093492,6.12635812 9.29957113,6.05709397 C10.401901,5.90782419 11.5166823,5.85856145 12.6287398,5.91004656 C12.9252366,5.92004727 13.2727059,5.91004656 13.4489697,5.7055877 C13.6248445,5.50112883 13.5345725,5.11110131 13.4680358,4.80441301 C13.3306823,4.17288698 13.4680358,3.51098843 13.3415772,2.87761041 C13.1267921,1.76605052 12.1159015,0.913768167 11.0081241,0.511332369 C9.97777835,0.139491322 8.15327253,-0.287612883 7.17895763,0.333616128 C6.15055736,0.985625088 5.52176627,2.0745908 4.59453288,2.87761041" id="Path"></path>
                        </g>
                        <g id="Group" transform="translate(74.000000, 84.000000)" fill="#BF360C" fill-rule="nonzero">
                            <path d="M4.43920206,4.616923 C4.63372637,5.5431622 5.52876305,6.25155113 5.55387505,7.19657051 C5.57636341,7.95491477 5.0366428,8.59118775 4.64796899,9.23948007 C4.28178355,9.91143543 3.97256861,10.6126879 3.72369744,11.3364766 C2.99207616,13.2208813 2.08354646,15.0316676 1.01122654,16.744797 C0.493994285,17.5733792 -0.0847061521,18.4583019 0.0329829265,19.4217259 C0.115440243,19.8724506 0.273983173,20.3055218 0.502240017,20.7025352 L2.05318717,23.7896235 C2.39276139,24.4063651 2.65849884,25.0606671 2.84515222,25.7397589 C2.97933276,26.3260766 2.99207616,26.9330525 3.07041061,27.5298871 C3.31440931,29.4236819 4.20157507,31.3298716 3.67609708,33.1658234 C3.63074556,33.3232014 3.46957898,33.5140082 3.34326937,33.4043319 C3.85600395,34.3636242 4.26754092,35.3293018 4.2285611,36.4170507 C4.20757196,36.9868418 4.03403679,37.5814227 4.24280373,38.112151 C4.33163274,38.3337573 4.48680242,38.5410907 4.48492839,38.7792235 C4.48492839,38.9366016 4.41259084,39.0838383 4.39572457,39.2370847 C4.35224707,39.6742876 4.75366428,40.038999 5.16894931,40.1779724 C5.58460914,40.3165702 6.03774958,40.3064289 6.45715747,40.4326318 C7.26373995,40.675272 7.84056635,41.3716416 8.52496208,41.8542926 C9.22697368,42.3388216 10.0545453,42.6088808 10.9068541,42.631417 C11.028666,42.6441875 11.1512276,42.6197733 11.2584221,42.5608035 C11.3813585,42.4530052 11.4521968,42.2975052 11.4529464,42.1337419 C11.5286572,41.3479785 11.2093225,40.5757369 10.6010124,40.0743057 C10.4694555,39.9920485 10.3607618,39.8778649 10.2846762,39.7426475 C10.2460712,39.6232055 10.2359514,39.4958757 10.2558161,39.3719265 C10.3806265,37.6734457 10.3498924,35.9674528 10.1647383,34.2746061 C10.0811565,33.7378681 10.0541705,33.1943693 10.084155,32.6519973 C10.1272577,32.2005214 10.2640618,31.7528016 10.2142126,31.3032037 C10.1647383,30.8536059 9.93535699,30.4430708 9.80080164,30.0099995 C9.56092581,29.2392603 9.62689167,28.4106782 9.59390874,27.6042566 C9.55268008,26.2036297 9.23222097,24.8277927 8.91363588,23.4602189 C8.78770107,22.923481 8.64902286,22.3619531 8.27084362,21.9641886 C7.94813567,21.6265207 7.42715535,21.3031258 7.5489673,20.8535279 C7.61643238,20.6878866 7.71725519,20.5376451 7.84468922,20.4121934 C8.14753245,20.0317066 8.28058858,19.543046 8.21274869,19.0611462 C8.49310357,19.1328865 8.78507743,18.9957911 8.90951302,18.7339952 C11.4282092,17.5425796 13.4585332,15.1597486 14.3640645,12.5177508 C14.4176617,12.32131 14.4997443,12.1342592 14.6080632,11.9622327 C14.8419421,11.6350817 15.2471074,11.4938546 15.6069211,11.3135647 C16.7358367,10.7437736 17.5154332,9.67668299 18.2309378,8.63250418 C18.6443488,8.02740632 19.0577598,7.40165024 19.2440384,6.68875406 C19.3418627,6.22788808 19.3883387,5.75725641 19.3823418,5.28587353 L19.4464336,2.85120912 C19.4606762,2.69082626 19.4453092,2.52969219 19.4010821,2.37494339 C19.3396139,2.23033589 19.2504101,2.09925014 19.1383431,1.9891982 C18.4505741,1.26052665 17.5476665,0.7726172 16.5623016,0.59683458 C15.9003942,0.478894959 15.2242442,0.501431192 14.5544659,0.445466212 C13.2557632,0.3380435 11.9739267,-0.0661062845 10.6755988,0.0311751228 C8.63440543,0.18254349 6.81697121,1.59969696 5.85559387,3.41085892 C5.51864329,4.04900992 5.16295241,4.60415247 4.43920206,4.616923" id="Path"></path>
                        </g>
                        <g id="Group" transform="translate(64.000000, 66.000000)" fill="url(#linearGradient-8)" fill-rule="nonzero">
                            <path d="M2.35642828,5.64729787 C2.38456819,6.03980899 2.33252863,6.43388859 2.20339344,6.80444104 C2.0395652,7.15930874 1.62903091,7.43614476 1.26976522,7.29145285 C1.37808459,7.04245728 1.09090333,6.75934736 0.822995973,6.78954052 C0.555474097,6.85227956 0.335366041,7.04480999 0.233985272,7.30439277 C0.0562798183,7.66749497 -0.00308382566,8.0788278 0.0639893825,8.47878918 C0.148794588,8.9763882 0.431735593,9.45438126 0.357338299,9.95433299 C0.297974655,10.369587 -0.00192739104,10.7828804 0.157660587,11.1679413 C0.260968747,11.3436106 0.390874903,11.5020267 0.542367838,11.6373077 C0.978729169,12.1839216 0.917823613,12.9822759 0.403981162,13.4543872 L4.42760269,13.5363401 C4.2807355,14.2198035 4.58295041,14.9185596 4.92718245,15.5267361 C6.88348435,18.9142522 10.286486,21.1744261 14.1223796,21.6332054 C13.9153778,21.7563307 13.7735218,21.9676829 13.7361305,22.2084439 C13.6983536,22.4495971 13.7692816,22.6950636 13.9288696,22.8770068 C14.256526,23.2083474 14.8116147,23.1671749 15.2221489,22.9530779 C15.6322978,22.7385888 15.9534011,22.3841132 16.3277004,22.1092378 C16.9884101,21.6328132 17.794445,21.4120502 18.6012509,21.4861607 C19.1050709,21.5359598 19.5942428,21.7026104 20.1003757,21.7284903 C21.5890925,21.8084825 22.8650254,20.7183917 24.2982333,20.2725524 C25.3424938,19.9459173 26.5266829,19.9459173 27.4028748,19.2820598 C27.7814144,18.9962051 28.0921099,18.5268386 27.9814776,18.0641382 C27.8897338,17.7978894 27.7451795,17.5539914 27.5559097,17.3481289 C27.0520897,16.6838793 26.7545005,15.885525 26.3929219,15.1306959 C25.6767034,13.6359383 24.6906502,12.2917544 23.4856453,11.1679413 C22.5766877,10.3593919 21.6129921,9.61632641 20.6022683,8.94384232 C20.3578751,8.76033063 20.0972918,8.60034607 19.8239878,8.46584926 C19.4708897,8.30821742 19.0796294,8.23253845 18.7604534,8.033342 C18.2886281,7.73023401 18.0164805,7.19616793 17.652589,6.76562126 C16.8554201,5.81826175 15.6303704,5.38340178 14.6477864,4.63915991 C13.9886187,4.13960031 13.4057756,3.48201674 12.6190146,3.24164779 C12.2362347,3.12283573 11.8303262,3.11420912 11.4475463,2.99735765 C10.577522,2.72914826 9.94379585,1.94373389 9.09111805,1.6261175 C8.41691667,1.37516134 7.67294372,1.43986098 6.96443478,1.35124208 C6.16649489,1.25125174 5.40363352,0.955594008 4.74215291,0.490148753 C4.52936894,0.313695202 4.29037245,0.172140242 4.03402944,0.0705814204 C2.9558469,-0.262719731 2.86872882,1.77943603 2.75809658,2.48681871 C2.61585512,3.53808976 2.35642828,4.5830869 2.35642828,5.64729787 Z" id="Path"></path>
                        </g>
                        <g id="Group" transform="translate(53.000000, 76.000000)" fill="#FFF3E0" fill-rule="nonzero">
                            <path d="M14.6976404,3.28003407 C14.8755844,5.24057623 13.4186445,7.13982736 13.8435853,9.05989432 C13.9335058,9.46811574 14.1072762,9.85744873 14.1702585,10.2722233 C14.3482025,11.4097695 13.6781619,12.487952 13.0399918,13.4408541 L7.55597887,21.6172324 C7.33592023,21.9761126 7.0729881,22.306082 6.77325306,22.5998164 C5.72645689,23.5461654 4.15265823,23.4505668 2.7753947,23.7311949 C1.80789552,23.9331855 0.894272769,24.3433343 0.0963705062,24.9346579 C0.0216264522,24.993636 0.00644999451,25.1019554 0.0626028879,25.1794365 C0.524726024,25.8185594 1.27406362,26.1762832 2.05337472,26.1300258 C2.19755107,26.321223 2.05337472,26.6064769 1.85456313,26.7444781 C1.56127808,26.957262 1.15530784,27.0062178 1.09687848,27.514278 C1.07676967,27.6908271 1.11205494,27.8693035 1.1970431,28.0246512 C1.41899879,28.3673413 1.76236615,28.6094216 2.15581581,28.70078 C4.05439067,29.2921035 6.10548892,28.2543962 7.52676418,26.8443169 C8.94803945,25.4346231 9.96713858,23.6544847 11.3610962,22.2212768 C12.1335779,21.4260352 13.0107772,20.7475936 13.8060235,19.9777936 C15.3923428,18.440121 16.627327,16.5751775 17.8164025,14.7059936 C18.1741875,14.1424245 18.5365254,13.5642072 18.6848753,12.9112071 C18.8336046,12.258207 18.7645517,11.5971119 18.9341486,10.9653131 C19.1561043,10.1380769 19.7525391,9.47698174 20.2484298,8.78350644 C21.2219996,7.42238289 21.8726902,5.75750251 21.7429315,4.07951587 C21.6131728,2.40191471 20.5917972,0.747056767 19.0343132,0.177319976 C18.5513225,-0.0177319976 18.019767,-0.0504976452 17.5170469,0.0836487711 C16.8784974,0.283711961 16.4076478,0.81952667 15.9724629,1.33414008 L14.9256667,2.55494956 C14.6710816,2.82516978 14.4711318,3.14396026 14.337579,3.49281804 C14.1998526,3.85169825 14.2818055,4.25914872 14.5470141,4.53476564" id="Shape"></path>
                        </g>
                        <g id="Group" transform="translate(67.000000, 71.000000)" fill="#F8BBD0" fill-rule="nonzero">
                            <path d="M3.71613518,0.0799350924 C2.96290744,0.12261888 2.13348384,0.195569352 1.60130344,0.722132073 C1.37827184,0.963877522 1.19770354,1.24015804 1.06713878,1.53972062 C0.550435657,2.56956399 0.0468287004,3.64635953 0.00952448144,4.7933893 C-0.0210332299,5.70992663 0.250414491,6.60667419 0.39288486,7.51234655 C0.511147171,8.26552138 0.211126005,9.03421758 0.153979117,9.7963172 C1.08896571,9.51576831 2.32357662,9.1347185 3.17125547,8.66170453 C3.74907401,8.33847185 4.30744673,7.97022718 4.93804678,7.76495696 C5.83771342,7.47160293 7.34615317,7.97876393 8.20216594,8.38581205 C8.24820093,7.79910399 7.79697862,6.7758572 7.84499788,6.18720897 C7.85174439,5.93925497 7.89698568,5.69401721 7.97873748,5.45925638 C8.10692112,5.21130238 8.25851912,4.97537745 8.43194405,4.7549739 C9.10064202,3.69253563 8.9934916,2.32975871 8.16724284,1.3794624 C7.40726859,0.544412304 6.21869268,0.231656554 5.08448568,0.0946804007 C4.37014957,0.0139692395 3.65065437,-0.0104769296 2.93234972,0.0221179625" id="Shape"></path>
                        </g>
                    </g>
                </g>
            </g>
        </g>
    </g>
</svg>