<?xml version="1.0" encoding="UTF-8"?>
<svg width="585px" height="290px" viewBox="0 0 585 290" version="1.1" xmlns="http://www.w3.org/2000/svg" xmlns:xlink="http://www.w3.org/1999/xlink">
    <!-- Generator: Sketch 64 (93537) - https://sketch.com -->
    <title>Group 3</title>
    <desc>Created with Sketch.</desc>
    <defs>
        <path d="M208.270903,156.588783 L8.61256022,156.588783 C3.91715841,156.588783 0.103765786,152.787118 0.103765786,148.098095 L0.103765786,8.55665808 C0.103765786,3.87022237 3.91715841,0.0685567465 8.61256022,0.0685567465 L208.270903,0.0685567465 C212.979275,0.0685567465 216.779697,3.87022237 216.779697,8.55665808 L216.779697,148.098095 C216.779697,152.787118 212.979275,156.588783 208.270903,156.588783 Z" id="path-1"></path>
        <path d="M54.588106,76.4356766 C42.8742286,76.4356766 33.3809574,66.901225 33.3809574,55.1395903 C33.3809574,43.3772338 42.8742286,33.8427822 54.588106,33.8427822 C66.3019834,33.8427822 75.7952546,43.3772338 75.7952546,55.1395903 C75.7952546,66.901225 66.3019834,76.4356766 54.588106,76.4356766 Z M106.172285,62.6431625 C107.609571,62.6431625 108.816891,61.5519438 108.946246,60.1193583 C109.097161,58.4796434 109.176212,56.8182773 109.176212,55.1395903 C109.176212,53.4609032 109.097161,51.8017023 108.946246,50.1619873 C108.816891,48.7286802 107.609571,47.6374614 106.172285,47.6374614 L101.889174,47.6374614 C100.574058,47.6374614 99.4457887,46.7035745 99.165518,45.4102782 C98.8565016,43.9711974 98.4828073,42.5573763 98.0444352,41.1738668 C97.6419953,39.913769 98.1522316,38.5454153 99.2948737,37.8828897 L103.010257,35.7300421 C104.246322,35.0105017 104.749372,33.4552263 104.145712,32.1482177 C102.751545,29.1148894 101.091481,26.2331193 99.1870773,23.5296104 C98.3606381,22.3561172 96.7652511,22.0176373 95.5291855,22.7378994 L91.8138023,24.8900253 C90.6711602,25.5511075 89.2410611,25.3086145 88.3571305,24.3321469 C87.3725899,23.2488669 86.3449307,22.2124978 85.2669665,21.2280915 C84.2896123,20.3389503 84.0524602,18.896261 84.7064251,17.751636 L86.8551671,14.0247488 C87.5666234,12.7783633 87.2288613,11.1819507 86.06466,10.350546 C83.3697495,8.44163489 80.5023648,6.76872151 77.4768787,5.3671694 C76.1761353,4.76165847 74.6310533,5.26829574 73.9124105,6.51468116 L71.770855,10.2444553 C71.1097036,11.3883585 69.7514688,11.9014911 68.4938439,11.4987795 C67.1140497,11.056374 65.7055099,10.678922 64.2754107,10.3678669 C62.9890401,10.0892886 62.0548045,8.95837604 62.0548045,7.63548983 L62.0548045,3.33412496 C62.0548045,1.89287904 60.9696539,0.678248662 59.5467412,0.548341669 C57.9154221,0.398948627 56.2553572,0.322447843 54.588106,0.322447843 C52.9136683,0.322447843 51.2607899,0.398948627 49.6294708,0.548341669 C48.2065581,0.678248662 47.114221,1.89287904 47.114221,3.33412496 L47.114221,7.63548983 C47.114221,8.95837604 46.1871718,10.0892886 44.9008012,10.3678669 C43.4635157,10.678922 42.0549758,11.056374 40.6823681,11.4987795 C39.4247432,11.9014911 38.0665083,11.3883585 37.405357,10.2444553 L35.2566151,6.51468116 C34.5451587,5.26829574 32.9928903,4.76165847 31.6921468,5.3671694 C28.6738471,6.76872151 25.799276,8.44163489 23.111552,10.350546 C21.9401642,11.1819507 21.6095886,12.7783633 22.3210449,14.0247488 L24.4626004,17.751636 C25.1237518,18.896261 24.8865997,20.3389503 23.9092455,21.2280915 C22.8312813,22.2124978 21.7964357,23.2488669 20.8190815,24.3321469 C19.9351509,25.3086145 18.4978653,25.5511075 17.3552233,24.8900253 L13.6470265,22.7378994 C12.4037745,22.0176373 10.8155739,22.3561172 9.98913472,23.5296104 C8.08473134,26.2331193 6.4246665,29.1148894 5.02331307,32.1482177 C4.41965313,33.4552263 4.92270308,35.0105017 6.1659551,35.7300421 L9.8813383,37.8828897 C11.0239803,38.5454153 11.5270303,39.913769 11.1317767,41.1738668 C10.6934046,42.5573763 10.312524,43.9711974 10.0035076,45.4102782 C9.72323689,46.7035745 8.60215414,47.6374614 7.28703784,47.6374614 L2.99674042,47.6374614 C1.56664127,47.6374614 0.359321393,48.7286802 0.222779264,50.1619873 C0.0790507064,51.8017023 0,53.4609032 0,55.1395903 C0,56.8182773 0.0790507064,58.4796434 0.222779264,60.1193583 C0.359321393,61.5519438 1.56664127,62.6431625 2.99674042,62.6431625 L7.28703784,62.6431625 C8.60215414,62.6431625 9.72323689,63.5748843 10.0035076,64.8689023 C10.312524,66.3079831 10.6934046,67.7210825 11.1317767,69.1074788 C11.5270303,70.3654115 11.0239803,71.7352086 9.8813383,72.3962908 L6.1659551,74.5484167 C4.92270308,75.2701222 4.41965313,76.8253976 5.02331307,78.1324063 C6.4246665,81.1642911 8.08473134,84.0482264 9.98913472,86.7488484 C10.8155739,87.9245067 12.4037745,88.2608215 13.6470265,87.5412811 L17.3552233,85.3905986 C18.4978653,84.7302381 19.9351509,84.9698443 20.8190815,85.9491987 C21.7964357,87.0324787 22.8312813,88.065961 23.9092455,89.051089 C24.8865997,89.9416736 25.1237518,91.3829195 24.4626004,92.5289879 L22.3210449,96.2558752 C21.6095886,97.5008172 21.9401642,99.0986732 23.111552,99.9286345 C25.799276,101.838989 28.6738471,103.510459 31.6921468,104.914176 C32.9928903,105.517522 34.5451587,105.012328 35.2566151,103.763778 L37.405357,100.03689 C38.0665083,98.8901003 39.4247432,98.3791328 40.6823681,98.7804011 C42.0549758,99.2249717 43.4635157,99.6024237 44.9008012,99.912757 C46.1871718,100.192057 47.114221,101.322248 47.114221,102.645134 L47.114221,106.946499 C47.114221,108.38558 48.2065581,109.602375 49.6294708,109.732282 C51.2607899,109.87951 52.9136683,109.958176 54.588106,109.958176 C56.2553572,109.958176 57.9154221,109.87951 59.5467412,109.732282 C60.9696539,109.602375 62.0548045,108.38558 62.0548045,106.946499 L62.0548045,102.645134 C62.0548045,101.322248 62.9890401,100.192057 64.2754107,99.912757 C65.7055099,99.6024237 67.1140497,99.2249717 68.4938439,98.7804011 C69.7514688,98.3791328 71.1097036,98.8901003 71.770855,100.03689 L73.9124105,103.763778 C74.6310533,105.012328 76.1761353,105.517522 77.4768787,104.914176 C80.5023648,103.510459 83.3697495,101.838989 86.06466,99.9286345 C87.2288613,99.0986732 87.5666234,97.5008172 86.8551671,96.2558752 L84.7064251,92.5289879 C84.0524602,91.3829195 84.2896123,89.9416736 85.2669665,89.051089 C86.3449307,88.065961 87.3725899,87.0324787 88.3571305,85.9491987 C89.2410611,84.9698443 90.6711602,84.7302381 91.8138023,85.3905986 L95.5291855,87.5412811 C96.7652511,88.2608215 98.3606381,87.9245067 99.1870773,86.7488484 C101.091481,84.0482264 102.751545,81.1642911 104.145712,78.1324063 C104.749372,76.8253976 104.246322,75.2701222 103.010257,74.5484167 L99.2948737,72.3962908 C98.1522316,71.7352086 97.6419953,70.3654115 98.0444352,69.1074788 C98.4828073,67.7210825 98.8565016,66.3079831 99.165518,64.8689023 C99.4457887,63.5748843 100.574058,62.6431625 101.889174,62.6431625 L106.172285,62.6431625 Z" id="path-3"></path>
        <path d="M41.3933076,63.2991491 C29.5976622,63.2991491 20.0381239,53.714981 20.0381239,41.8920163 C20.0381239,30.068326 29.5976622,20.484158 41.3933076,20.484158 C53.1889529,20.484158 62.7484912,30.068326 62.7484912,41.8920163 C62.7484912,53.714981 53.1889529,63.2991491 41.3933076,63.2991491 Z M41.3933076,0.398829239 C18.5329127,0.398829239 -1.79733477e-13,18.9766338 -1.79733477e-13,41.8920163 C-1.79733477e-13,64.8088496 18.5329127,83.3852033 41.3933076,83.3852033 C64.2537024,83.3852033 82.7793785,64.8088496 82.7793785,41.8920163 C82.7793785,18.9766338 64.2537024,0.398829239 41.3933076,0.398829239 Z" id="path-5"></path>
        <path d="M87.8184237,0.206466576 L6.43105695,0.206466576 C2.81375921,0.206466576 0,3.026624 0,6.65332807 L0,23.3758511 C0,42.7182728 24.6036081,63.0967267 43.6942909,63.5 C53.8321083,65.2822606 61.998775,64.6155939 68.1942909,61.5 C72.2506499,59.4601429 79.4617956,52.3936329 89.8277281,40.3004701 C92.0395206,36.2704927 93.4459421,31.6369832 93.8472533,26.8013778 L94.0479088,13.5043815 L94.0479088,6.65332807 C94.2494806,3.22871997 91.4357214,0.206466576 87.8184237,0.206466576 Z" id="path-7"></path>
        <path d="M2.27373675e-13,0.40401305 L4.01860889,5.03752251 C5.82725776,7.25506648 8.23878959,8.66514519 11.0525488,9.26959587 L19.0897666,11.2841253 C22.5064087,12.0906719 26.1246227,23.5743162 29.7410042,23.5743162 C33.358302,23.5743162 36.7740279,12.0906719 40.3922419,11.2841253 L48.4303759,9.26959587 C51.0425633,8.66514519 53.6547507,7.05297051 55.4643158,5.03752251 L59.4820085,0.40401305 L2.27373675e-13,0.40401305 Z" id="path-9"></path>
        <path d="M84.9540425,13.0238841 C69.2800018,13.0238841 53.4043894,17.4562162 39.7396532,26.119703 C34.5143621,29.5452297 29.4897266,33.3731112 24.8682348,38.0066206 C-8.2894116,71.2514079 -8.2894116,125.247777 24.8682348,158.693742 C35.720128,169.573854 41.7489576,187.908552 41.5473858,201.407644 L128.763843,201.407644 C128.361615,187.908552 134.592017,169.573854 145.442994,158.693742 C151.672479,152.448058 156.495543,145.597923 160.515068,138.344515 C177.59553,106.10837 172.572727,65.2069012 145.442994,38.0066206 C128.562271,21.2840976 106.859401,13.0238841 84.9540425,13.0238841 Z" id="path-11"></path>
        <path d="M13.0618532,5.68434189e-14 L2.20996002,5.68434189e-14 C1.0041941,5.68434189e-14 4.26325641e-14,1.00680539 4.26325641e-14,2.21570674 L4.26325641e-14,23.3714805 C4.26325641e-14,24.5803818 1.0041941,25.5871872 2.20996002,25.5871872 L13.0618532,25.5871872 C14.2676192,25.5871872 15.2718133,24.5803818 15.2718133,23.3714805 L15.2718133,2.21570674 C15.2718133,1.00680539 14.2676192,5.68434189e-14 13.0618532,5.68434189e-14 Z" id="path-13"></path>
    </defs>
    <g id="Page-1" stroke="none" stroke-width="1" fill="none" fill-rule="evenodd">
        <g id="Artwork" transform="translate(-390.000000, -23.000000)">
            <g id="Group-3" transform="translate(390.000000, 10.000000)">
                <g id="Group" transform="translate(495.000000, 92.000000)">
                    <ellipse id="Oval" fill="#B2EBF2" cx="43.4214528" cy="201.340064" rx="43.3568787" ry="5.49264059"></ellipse>
                    <ellipse id="Oval" fill="#212121" cx="39.1872385" cy="7.90757157" rx="5.67430844" ry="5.63096359"></ellipse>
                    <path d="M39.1872385,2.27761496 C38.4769236,2.27761496 38.0064554,2.51105219 37.2961406,2.51105219 L38.2463019,2.51105219 C44.1594422,2.51105219 44.1594422,11.6617914 38.2463019,11.6617914 C34.4641061,11.6617914 33.0434765,7.90848701 34.2242596,5.09259327 C33.7537913,6.03091937 33.5139448,6.96924547 33.5139448,7.90848701 C33.5139448,10.957818 36.1153575,13.5393591 39.1872385,13.5393591 C42.2591194,13.5393591 44.8605322,10.957818 44.8605322,7.90848701 C45.1003787,4.8582406 42.498966,2.27761496 39.1872385,2.27761496 Z" id="Path_125" fill="#212121"></path>
                    <path d="M36.5858257,1.10402076 C33.2833231,2.98067296 32.0933151,7.4379508 33.9936379,10.7234653 C35.174421,12.6001175 37.0655189,13.7737117 39.1872385,14.0080644 C37.7758337,13.5393591 36.355204,12.3657649 35.6448892,10.957818 C33.7537913,7.67321891 34.6947278,3.21502563 38.2463019,1.33837342 C39.6669316,0.400047323 41.3181829,0.164779218 42.7388126,0.400047323 C40.8477147,-0.303926113 38.4769236,-0.0695734475 36.5858257,1.10402076 Z" id="Path_126" fill="#212121"></path>
                    <path d="M38.7167702,8.84681311 C26.4200214,11.4274387 29.5011273,22.4548302 29.9715955,25.5041611 C31.1523786,31.1350332 36.355204,34.6549004 42.9694343,34.6549004 C51.7238338,34.6549004 56.6868127,21.5155886 51.7238338,14.0080644 C47.941638,8.14283968 42.0284977,8.14283968 38.7167702,8.84681311 Z" id="Path_127" fill="#212121"></path>
                    <path d="M38.7167702,8.84681311 L38.9566168,9.08025034 C39.8975533,9.31551844 40.8477147,9.78513921 41.7886512,10.4891126 C44.1594422,11.6617914 45.8106935,13.304091 46.7516301,15.6503639 C47.7017914,17.7622842 47.941638,20.1085572 47.2313232,22.4548302 C46.5210084,25.0354558 44.6299105,27.1464607 42.498966,28.3200549 C40.1373998,29.4936491 37.2961406,30.1976225 34.6947278,29.4936491 C33.0434765,29.0240283 31.8626934,28.0857022 30.6819103,27.1464607 L30.4420638,26.9130235 C32.0933151,31.8399221 37.0655189,34.6549004 43.2092808,34.6549004 C51.9544555,34.6549004 56.9266593,21.5155886 51.9544555,14.0080644 C47.941638,8.14283968 42.0284977,8.14283968 38.7167702,8.84681311 Z" id="Path_128" fill="#212121"></path>
                    <path d="M39.427085,137.889996 C39.1872385,139.766648 38.7167702,141.409863 38.7167702,143.052162 C38.4769236,144.694462 38.9566168,146.336762 38.9566168,148.683034 C39.1872385,151.028392 38.0064554,152.90596 37.7758337,154.783527 C35.6448892,165.10603 38.0064554,167.687571 35.6448892,175.429448 C34.9345744,178.010989 34.2242596,178.949315 33.7537913,179.887641 C33.2833231,181.295588 33.7537913,183.17224 33.2833231,186.222487 C32.5730082,189.976706 30.6819103,193.965279 31.3922252,196.076284 C32.0933151,198.18912 36.5858257,200.064856 38.4769236,200.064856 C40.6078681,200.064856 39.6669316,197.719499 39.427085,196.076284 C39.1872385,193.730926 40.1373998,180.356346 40.8477147,177.307015 C43.2092808,168.86025 48.1722597,159.70951 49.3530428,151.732365 C50.3032042,143.990489 49.5928894,142.581626 51.4839873,133.666155 C51.7238338,132.727829 55.5060296,108.562041 55.7366513,98.9425967 L39.8975533,106.919742 C39.8975533,116.304834 40.1373998,128.035283 39.427085,137.889996 Z" id="Path_129" fill="#FFF3E0"></path>
                    <path d="M46.5210084,130.616824 C48.4121063,138.828322 46.5210084,146.805467 44.1594422,154.783527 C41.3181829,163.698998 38.9566168,167.687571 38.4769236,177.071747 C38.2463019,180.122909 36.355204,182.233914 35.4050427,185.28416 C34.2242596,189.507086 37.0655189,193.495658 33.9936379,198.657825 C35.4050427,199.361798 37.0655189,199.831419 38.0064554,199.831419 C40.1373998,199.831419 39.1872385,197.484231 38.9566168,195.841931 C38.7167702,193.495658 39.6669316,180.122909 40.3772464,177.071747 C42.7388126,168.625897 47.7017914,159.475158 48.8825745,151.498928 C49.8327359,143.75522 49.1224211,142.348189 51.013519,133.432718 C51.2441407,132.493476 55.0355614,108.326773 55.2661831,98.7073286 L44.3900639,104.103848 C46.0505401,113.020235 44.3900639,121.935706 46.5210084,130.616824 Z" id="Path_130" fill="#FFF3E0"></path>
                    <path d="M39.1872385,193.730926 C38.9566168,195.373226 35.6448892,196.076284 33.9936379,194.200547 C33.0434765,192.791685 32.5730082,190.915033 32.3331617,189.507086 L32.3331617,189.273648 C31.6228469,192.088627 30.6819103,194.669252 31.1523786,196.076284 C31.8626934,198.18912 36.355204,200.064856 38.2463019,200.064856 C40.3772464,200.064856 39.427085,197.719499 39.1872385,196.076284 C38.9566168,195.607578 38.9566168,194.669252 39.1872385,193.730926 Z" id="Path_131" fill="#AD1457"></path>
                    <path d="M48.1722597,42.1633401 C43.4491274,43.3360188 44.6299105,38.1747675 43.9195956,33.7165743 L37.5359871,36.0628472 C38.2463019,40.2857724 38.9566168,43.3360188 35.4050427,44.7439657 C33.5139448,45.4479391 30.2022172,46.3862652 28.5509659,46.8549706 C25.4790849,47.558944 23.8186087,69.3793742 23.3481404,75.2455143 L28.7908124,77.3565192 C29.9715955,73.133594 32.3331617,66.3300432 32.3331617,61.1678765 L53.1352386,58.3519828 L51.4839873,51.3140793 L58.338064,48.9678063 C56.4469661,41.6937193 53.8455534,40.5210405 48.1722597,42.1633401 Z" id="Path_132" fill="#FFF3E0"></path>
                    <path d="M51.9544555,48.0285648 C51.9544555,48.0285648 57.3971275,67.9723428 59.9985402,73.6032148 L65.9116805,71.4912945 C64.7216726,66.3300432 61.8896381,52.2524054 59.0483789,45.9166445 L51.9544555,48.0285648 Z" id="Path_133" fill="#FFF3E0"></path>
                    <path d="M48.1722597,42.1633401 C43.4491274,43.3360188 44.6299105,38.1747675 43.9195956,33.7165743 L37.5359871,36.0628472 C37.7758337,37.0011733 37.7758337,37.7051468 38.0064554,38.4091202 C39.6669316,40.9897458 43.2092808,44.9792338 46.2811618,44.509613 C47.941638,44.2743449 49.3530428,42.3976927 51.2441407,42.1633401 C52.4341486,41.928072 53.8455534,42.1633401 55.2661831,42.6320454 C53.6149317,41.2240985 51.2441407,41.2240985 48.1722597,42.1633401 Z" id="Path_134" fill="#FFD8D8"></path>
                    <path d="M29.5011273,61.6365818 C29.5011273,62.5758234 29.2612807,63.7485021 29.2612807,64.6868282 C29.2612807,67.7370746 26.8997145,73.133594 26.1893997,75.9494878 L28.5509659,76.8878139 C29.5011273,73.6032148 32.0933151,67.7370746 32.0933151,63.7485021 C31.3922252,63.7485021 29.731749,62.1062026 29.5011273,61.6365818 Z" id="Path_135" fill="#FFF3E0"></path>
                    <path d="M44.3900639,16.3552528 C42.9694343,15.6503639 41.0783364,15.4160113 38.9566168,15.8847166 C33.2833231,16.8239581 32.0933151,21.5155886 32.5730082,26.4434027 C32.8036299,29.0240283 33.0434765,31.3703013 34.2242596,33.4822216 C34.9345744,34.4196323 38.4769236,38.6434729 41.0783364,38.6434729 C43.9195956,38.6434729 47.4619449,33.9509269 47.941638,32.5438955 C48.4121063,31.1350332 48.6519528,29.2592964 48.8825745,26.4434027 L48.8825745,25.9737819 C48.6519528,21.7508567 47.4619449,17.9975523 44.3900639,16.3552528 Z" id="Path_136" fill="#FFF3E0"></path>
                    <path d="M44.3900639,16.3552528 C42.498966,15.8847166 39.8975533,15.8847166 36.8256723,16.8239581 C36.8256723,16.8239581 39.427085,25.5041611 48.6519528,25.9737819 C48.6519528,21.7508567 47.4619449,17.9975523 44.3900639,16.3552528 Z" id="Path_137" fill="#FFD8D8"></path>
                    <path d="M49.1224211,183.407508 C48.6519528,182.233914 48.1722597,181.765209 47.4619449,179.183668 C45.1003787,171.440875 47.2313232,168.391544 45.1003787,158.302479 C44.6299105,156.190559 43.6797491,154.548259 43.9195956,152.201986 C43.9195956,150.090066 44.3900639,148.213414 44.1594422,146.571114 C44.1594422,144.928815 43.4491274,143.286515 43.4491274,141.409863 C42.9694343,135.075017 42.9694343,132.727829 42.9694343,123.578005 C43.2092808,109.969073 44.1594422,103.399875 39.1872385,93.0764566 L28.7908124,93.0764566 L27.6008045,102.461548 C27.8406511,113.020235 29.0214341,124.517247 31.3922252,136.482049 C33.0434765,145.39752 33.5139448,148.683034 35.174421,155.956206 C36.8256723,163.933351 43.6797491,183.407508 43.9195956,186.457755 C43.9195956,187.396081 44.1594422,197.953851 44.3900639,199.596151 C44.6299105,201.004098 44.3900639,204.52305 46.5210084,204.52305 C48.1722597,204.52305 51.4839873,200.76883 51.9544555,199.361798 C52.6647703,197.249878 50.7736724,193.261306 50.0633576,189.507086 C49.3530428,186.692107 49.8327359,184.81454 49.1224211,183.407508 Z" id="Path_138" fill="#FFF3E0"></path>
                    <path d="M45.8106935,199.361798 C45.1003787,199.361798 44.6299105,198.657825 44.1594422,198.18912 L44.1594422,199.596151 C44.3900639,201.004098 44.1594422,204.52305 46.2811618,204.52305 C47.941638,204.52305 51.2441407,200.76883 51.7238338,199.361798 C52.1943021,197.719499 51.2441407,195.373226 50.5430507,192.557332 C50.3032042,193.026953 49.3530428,199.361798 45.8106935,199.361798 Z" id="Path_139" fill="#AD1457"></path>
                    <path d="M58.8177572,82.5186859 C55.7366513,83.2226594 36.8256723,86.2719903 29.731749,82.2843333 C29.2612807,85.3336642 23.8186087,89.5575048 23.8186087,98.9425967 C23.8186087,112.784966 29.731749,140.940242 29.731749,140.940242 C29.731749,140.940242 42.9694343,144.694462 52.4341486,141.409863 C56.2163444,123.343653 61.409945,104.338201 59.9985402,90.731099 C59.7586937,90.4958309 59.0483789,82.9873912 58.8177572,82.5186859 Z" id="Path_140" fill="#E91E63"></path>
                    <path d="M58.8177572,82.7530386 C51.9544555,89.5575048 41.5580295,90.0271256 43.4491274,93.5460773 C44.6299105,96.126703 51.7238338,100.819249 53.3750852,102.461548 C57.157281,105.9805 46.5210084,110.439609 47.2313232,118.181486 C47.4619449,121.935706 45.570847,128.504904 44.6299105,132.023856 C43.2092808,137.42129 35.174421,137.186022 31.6228469,141.409863 C35.6448892,142.348189 45.1003787,143.75522 52.1943021,141.409863 C55.9764979,123.343653 61.1793233,104.338201 59.7586937,90.731099 C59.7586937,90.4958309 59.0483789,83.9266328 58.8177572,82.7530386 Z" id="Path_141" fill="#E91E63"></path>
                    <path d="M59.9985402,44.0399923 C56.4469661,40.2857724 49.1224211,41.2240985 49.1224211,41.2240985 C46.2811618,43.8056396 40.8477147,47.558944 40.8477147,47.558944 L32.8036299,44.9792338 C32.8036299,44.9792338 24.7687701,45.212671 23.8186087,52.7211107 C23.587987,55.3017363 28.5509659,54.8321156 28.5509659,58.3519828 C28.5509659,60.6982557 29.731749,62.810176 31.6228469,64.2181229 C32.3331617,68.2066954 32.3331617,72.4296206 32.3331617,74.7758936 C32.0933151,79.4684395 29.2612807,78.9988187 29.731749,81.8147125 C30.4420638,86.2719903 57.157281,85.3336642 59.2882254,82.7530386 C61.6497916,79.9380603 59.2882254,63.5141495 58.338064,54.5986784 C57.6277492,49.4365116 61.8896381,46.1519126 59.9985402,44.0399923 Z" id="Path_142" fill="#E91E63"></path>
                    <path d="M59.9985402,44.0399923 C56.4469661,40.2857724 49.1224211,41.2240985 49.1224211,41.2240985 C46.2811618,43.8056396 40.8477147,47.558944 40.8477147,47.558944 L32.8036299,44.9792338 C32.8036299,44.9792338 30.4420638,44.9792338 28.3111193,46.3862652 C29.0214341,46.6215333 30.4420638,47.0902387 31.6228469,47.7942121 C42.0284977,53.189816 41.0783364,60.6982557 37.7758337,62.3405553 C35.6448892,63.2788814 42.9694343,70.7873211 42.9694343,77.1221665 C42.9694343,79.9380603 49.5928894,77.1221665 51.7238338,75.479867 C53.8455534,73.8375675 55.0355614,75.479867 53.1352386,76.8878139 C49.3530428,79.7027922 45.8106935,82.5186859 38.9566168,82.7530386 C37.2961406,82.7530386 34.6947278,83.2226594 33.2833231,83.9266328 C40.8477147,85.803285 57.6277492,84.6296908 59.2882254,82.7530386 C61.6497916,79.9380603 59.2882254,63.5141495 58.338064,54.5986784 C57.6277492,49.4365116 61.8896381,46.1519126 59.9985402,44.0399923 Z M55.5060296,57.179304 C54.5558682,58.5872509 53.8455534,60.2295504 54.3252465,61.8718499 C55.0355614,64.2181229 53.1352386,65.156449 51.013519,63.7485021 C49.8327359,63.0445287 45.1003787,65.8604224 42.2591194,65.3917171 C39.6669316,64.9211809 41.5580295,63.7485021 42.2591194,63.9828548 C45.1003787,64.4524756 50.7736724,57.8832774 51.9544555,55.0673837 C52.6647703,53.6594368 55.0355614,53.189816 55.7366513,54.1290576 C56.6868127,54.5986784 56.2163444,56.2409779 55.5060296,57.179304 Z" id="Shape_143" fill="#E91E63"></path>
                    <path d="M39.427085,32.3831442 C39.1872385,32.7716306 39.8975533,33.1616345 40.1373998,33.1616345 L41.7886512,33.1616345 C42.0284977,33.1616345 42.498966,32.7716306 42.498966,32.3831442 C42.498966,31.9946579 41.7886512,31.604654 40.8477147,31.604654 C40.1373998,31.604654 39.427085,31.9946579 39.427085,32.3831442 Z" id="Path_144" fill="#FFD8D8"></path>
                    <path d="M36.1153575,14.9463905 C36.1153575,14.9463905 39.6669316,25.7394292 53.1352386,24.3314824 C53.1352386,24.3314824 51.4839873,10.2538445 36.1153575,14.9463905 Z" id="Path_145" fill="#212121"></path>
                    <path d="M60.2291619,75.2455143 C60.2291619,81.8147125 61.6497916,92.8421039 59.0483789,94.9540242 C57.6277492,96.3619711 57.157281,97.0650291 56.6868127,98.7073286 C56.2163444,100.349628 58.1074423,98.9425967 57.6277492,100.819249 C57.3971275,101.992843 56.6868127,105.277442 56.9266593,105.511795 C57.6277492,105.9805 58.1074423,105.042174 58.338064,103.869495 C58.8177572,104.103848 59.528072,104.103848 59.7586937,103.399875 C60.4690085,103.635143 61.1793233,103.165522 61.409945,102.461548 C62.3601064,102.695901 62.8305747,101.992843 63.0704212,100.819249 C63.3102678,99.4113021 64.0113577,97.3002972 64.4910509,93.78043 C65.2013657,89.0878841 68.9835615,77.3565192 65.4319874,69.848995 C64.4910509,68.4410481 60.2291619,67.9723428 60.2291619,75.2455143 Z" id="Path_146" fill="#FFF3E0"></path>
                    <path d="M60.4690085,72.1943525 C62.1202598,72.1943525 64.0113577,73.6032148 63.5408895,75.7142197 C61.6497916,83.457012 67.0924636,99.1769494 57.157281,103.635143 C56.9266593,104.573469 56.9266593,105.511795 57.157281,105.511795 C57.8675958,105.9805 58.338064,105.042174 58.5779106,103.869495 C59.0483789,104.103848 59.7586937,104.103848 59.9985402,103.399875 C60.7088551,103.635143 61.409945,103.165522 61.6497916,102.461548 C62.599953,102.695901 63.0704212,101.992843 63.3102678,100.819249 C63.5408895,99.4113021 64.2512043,97.3002972 64.7216726,93.78043 C65.4319874,89.0878841 69.2141832,77.1221665 65.6718339,69.6146423 C64.7216726,68.6763162 60.4690085,67.502722 60.4690085,72.1943525 Z" id="Path_147" fill="#FFF3E0"></path>
                    <path d="M55.7366513,99.1769494 C55.5060296,99.8809228 55.2661831,100.584896 54.5558682,101.992843 C55.5060296,101.992843 56.2163444,101.523222 56.6868127,100.115275 C57.6277492,99.6465702 58.1074423,98.9425967 58.338064,98.472976 L58.1074423,96.126703 L55.7366513,99.1769494 Z" id="Path_148" fill="#FFF3E0"></path>
                    <path d="M53.3750852,79.9380603 C52.4341486,79.9380603 51.013519,79.9380603 51.7238338,78.7644661 C52.6647703,77.3565192 47.941638,78.2957607 46.2811618,79.4684395 C45.570847,80.1724129 44.6299105,79.7027922 43.9195956,79.7027922 C40.3772464,79.7027922 35.6448892,77.1221665 28.7908124,76.182925 C26.4200214,75.9494878 25.2392383,75.2455143 23.1175187,75.0102462 C22.8776722,77.3565192 23.3481404,79.7027922 24.2983018,80.6411183 C27.8406511,83.9266328 31.8626934,83.457012 35.174421,83.6913647 C38.7167702,83.9266328 39.6669316,83.457012 44.3900639,84.1609855 C48.1722597,84.6296908 50.3032042,84.8649589 51.4839873,84.8649589 C52.6647703,84.8649589 53.3750852,84.8649589 53.6149317,83.9266328 C54.3252465,83.9266328 54.7957148,83.457012 54.7957148,82.7530386 C55.5060296,82.7530386 55.9764979,82.0490651 55.7366513,81.5803598 C56.9266593,81.5803598 57.8675958,81.5803598 57.8675958,80.6411183 C57.8675958,80.1724129 54.5558682,79.9380603 53.3750852,79.9380603 Z" id="Path_149" fill="#FFF3E0"></path>
                    <path d="M47.2313232,83.9266328 C46.0505401,83.6913647 45.1003787,82.7530386 44.1594422,82.0490651 C38.2463019,82.0490651 36.355204,77.5917873 23.3481404,77.5917873 C23.587987,78.7644661 24.0584553,79.9380603 24.5289235,80.4067656 C28.0804976,83.6913647 32.0933151,83.2226594 35.4050427,83.457012 C38.9566168,83.6913647 39.8975533,83.2226594 44.6299105,83.9266328 C48.4121063,84.3953381 50.5430507,84.6296908 51.7238338,84.6296908 C52.9046169,84.6296908 53.6149317,84.6296908 53.6149317,83.9266328 C51.7238338,84.3953381 49.3530428,84.3953381 47.2313232,83.9266328 Z" id="Path_150" fill="#FFF3E0"></path>
                    <path d="M20.0364129,77.3565192 C20.0364129,78.2904646 20.516106,78.9134997 21.217196,78.9134997 L50.5430507,78.9134997 C51.2441407,78.9134997 51.7238338,78.2904646 51.7238338,77.3565192 L20.0364129,77.3565192 Z" id="Path" fill="#B2EBF2"></path>
                    <path d="M55.0355614,51.5484319 C55.0355614,51.5484319 48.8825745,76.8878139 48.8825745,76.8878139 C48.8825745,77.3565192 48.8825745,78.5301134 50.3032042,78.5301134 L75.1273235,78.2957607 L75.1273235,50.1404851 L57.157281,50.1404851 C56.2163444,49.9061324 55.2661831,50.6101058 55.0355614,51.5484319 Z" id="Path" fill="#B2EBF2"></path>
                    <path d="M88.8447019,49.9061324 L57.157281,49.9061324 C56.9266593,49.9061324 56.4469661,50.1404851 56.4469661,50.3748377 L49.8327359,77.5917873 C49.5928894,78.0604926 50.0633576,78.5301134 50.5430507,78.5301134 L80.0903023,78.5301134 C81.7507785,78.5301134 83.1621833,77.3565192 83.6418764,75.9494878 L89.5457918,50.8435431 C89.5457918,50.3748377 89.3151701,49.9061324 88.8447019,49.9061324 Z" id="Path" fill="#00BCD4"></path>
                    <path d="M47.941638,78.7644661 L50.0633576,79.4684395 C50.7736724,79.4684395 51.7238338,79.2340868 52.4341486,78.5301134 C53.8455534,78.5301134 54.5558682,78.0604926 54.7957148,77.1221665 C53.1352386,77.5917873 52.4341486,77.5917873 51.7238338,77.5917873 L47.941638,78.7644661 Z" id="Path_151" fill="#FFF3E0"></path>
                </g>
                <g id="Group" transform="translate(239.000000, 142.000000)">
                    <g id="Group-11">
                        <mask id="mask-2" fill="white">
                            <use xlink:href="#path-1"></use>
                        </mask>
                        <use id="Path_8" fill="#FFECB3" fill-rule="nonzero" xlink:href="#path-1"></use>
                        <polygon id="Rectangle" fill="#FFA000" opacity="0.204473586" mask="url(#mask-2)" transform="translate(107.800000, 74.294643) scale(-1, 1) translate(-107.800000, -74.294643) " points="-5.6 -13.3169643 221.2 159.102679 -5.6 161.90625"></polygon>
                        <polygon id="Rectangle" fill="#FF6F00" opacity="0.203380766" mask="url(#mask-2)" transform="translate(110.600000, 107.236607) scale(-1, 1) translate(-110.600000, -107.236607) " points="221.2 52.5669643 221.2 160.504464 3.51710437e-14 161.90625"></polygon>
                    </g>
                    <rect id="Rectangle" fill="#F8BBD0" x="15" y="94" width="18" height="43"></rect>
                    <rect id="Rectangle_9" fill="#FF6F00" x="15" y="91" width="18" height="9"></rect>
                    <rect id="Rectangle_10" fill="#F8BBD0" x="43" y="85" width="18" height="52"></rect>
                    <rect id="Rectangle_11" fill="#FF6F00" x="43" y="80" width="18" height="9"></rect>
                    <rect id="Rectangle" fill="#000000" opacity="0.08" x="24" y="91" width="10" height="46"></rect>
                    <rect id="Rectangle" fill="#000000" opacity="0.0769159226" x="52" y="80" width="10" height="57"></rect>
                    <rect id="Rectangle_12" fill="#F8BBD0" x="71" y="102" width="18" height="35"></rect>
                    <rect id="Rectangle_13" fill="#FF6F00" x="71" y="94" width="18" height="9"></rect>
                    <rect id="Rectangle_14" fill="#F8BBD0" x="99" y="78" width="18" height="59"></rect>
                    <rect id="Rectangle" fill="#000000" opacity="0.0769159226" x="80" y="94" width="10" height="43"></rect>
                    <rect id="Rectangle_15" fill="#FF6F00" x="99" y="62" width="18" height="16"></rect>
                    <rect id="Rectangle_16" fill="#F8BBD0" x="127" y="65" width="18" height="73"></rect>
                    <rect id="Rectangle_17" fill="#FF6F00" x="127" y="39" width="18" height="28"></rect>
                    <rect id="Rectangle_18" fill="#F8BBD0" x="155" y="76" width="18" height="61"></rect>
                    <rect id="Rectangle_19" fill="#FF6F00" x="155" y="58" width="18" height="18"></rect>
                    <rect id="Rectangle_20" fill="#F8BBD0" x="183" y="66" width="18" height="71"></rect>
                    <rect id="Rectangle" fill="#000000" opacity="0.0769159226" x="108" y="62" width="10" height="76"></rect>
                    <rect id="Rectangle" fill="#000000" opacity="0.0769159226" x="136" y="39" width="10" height="98"></rect>
                    <rect id="Rectangle" fill="#000000" opacity="0.0769159226" x="162" y="57" width="10" height="80"></rect>
                    <rect id="Rectangle" fill="#000000" opacity="0.0769159226" x="190" y="49" width="10" height="88"></rect>
                    <rect id="Rectangle_21" fill="#FF6F00" x="183" y="48" width="18" height="19"></rect>
                    <path d="M21,73.9986207 C21,72.3406897 22.337931,71 23.9931034,71 C25.6482759,71 27,72.3406897 27,73.9986207 C27,75.6551724 25.6482759,77 23.9931034,77 C22.337931,77 21,75.6551724 21,73.9986207 Z" id="Path_22" fill="#AD1457" fill-rule="nonzero"></path>
                    <path d="M49,63.0027586 C49,61.3448276 50.337931,60 51.9931034,60 C53.662069,60 55,61.3448276 55,63.0027586 C55,64.6593103 53.662069,66 51.9931034,66 C50.337931,66 49,64.6593103 49,63.0027586 Z" id="Path_23" fill="#AD1457" fill-rule="nonzero"></path>
                    <path d="M77,78.0027586 C77,76.3448276 78.337931,75 79.9931034,75 C81.6482759,75 83,76.3448276 83,78.0027586 C83,79.6593103 81.6482759,81 79.9931034,81 C78.337931,81 77,79.6593103 77,78.0027586 Z" id="Path_24" fill="#AD1457" fill-rule="nonzero"></path>
                    <path d="M105,45.9986207 C105,44.3406897 106.337931,43 108.006897,43 C109.662069,43 111,44.3406897 111,45.9986207 C111,47.6551724 109.662069,49 108.006897,49 C106.337931,49 105,47.6551724 105,45.9986207 Z" id="Path_25" fill="#AD1457" fill-rule="nonzero"></path>
                    <path d="M133,22.9986207 C133,21.3448276 134.337931,20 135.993103,20 C137.662069,20 139,21.3448276 139,22.9986207 C139,24.6551724 137.662069,26 135.993103,26 C134.337931,26 133,24.6551724 133,22.9986207 Z" id="Path_26" fill="#AD1457" fill-rule="nonzero"></path>
                    <path d="M161,40.9986207 C161,39.342069 162.337931,38 164.006897,38 C165.662069,38 167,39.342069 167,40.9986207 C167,42.6551724 165.662069,44 164.006897,44 C162.337931,44 161,42.6551724 161,40.9986207 Z" id="Path_27" fill="#AD1457" fill-rule="nonzero"></path>
                    <path d="M189,32.0013793 C189,30.3448276 190.337931,29 192.006897,29 C193.662069,29 195,30.3448276 195,32.0013793 C195,33.657931 193.662069,35 192.006897,35 C190.337931,35 189,33.657931 189,32.0013793 Z" id="Path_28" fill="#AD1457" fill-rule="nonzero"></path>
                    <polygon id="Path_29" fill="#AD1457" fill-rule="nonzero" points="80.2425743 79 52.1212871 64.398116 24.4678218 75.5098317 24 74.342098 52.1992574 63.0179486 79.9436881 77.4269481 107.545173 45.6935248 135.900371 22 164.294554 40.5455917 191.597153 31.1763536 192 32.3662429 164.125619 41.9335787 135.991337 23.5587159 108.428837 46.5875709"></polygon>
                </g>
                <g id="Group" transform="translate(390.000000, 20.000000)">
                    <g id="Group-10" transform="translate(0.500000, 41.000000)">
                        <mask id="mask-4" fill="white">
                            <use xlink:href="#path-3"></use>
                        </mask>
                        <use id="Shape" fill="#00BCD4" fill-rule="nonzero" xlink:href="#path-3"></use>
                        <rect id="Rectangle" stroke="#979797" fill="#00838F" mask="url(#mask-4)" x="54.9353874" y="-8.60869565" width="63.5847225" height="143.478261"></rect>
                    </g>
                    <g id="Group-9" transform="translate(13.500000, 54.000000)">
                        <mask id="mask-6" fill="white">
                            <use xlink:href="#path-5"></use>
                        </mask>
                        <use id="Shape_0" fill="#B2EBF2" fill-rule="nonzero" xlink:href="#path-5"></use>
                        <rect id="Rectangle" fill="#00BCD4" opacity="0.304129464" mask="url(#mask-6)" x="41.7430131" y="-7.9245283" width="54.5428571" height="106.981132"></rect>
                    </g>
                    <path d="M55.5,117.838336 C43.9533648,117.838336 34.5956316,108.284645 34.5956316,96.4992768 C34.5956316,84.7131852 43.9533648,75.1594941 55.5,75.1594941 C67.0466352,75.1594941 76.4043684,84.7131852 76.4043684,96.4992768 C76.4043684,108.284645 67.0466352,117.838336 55.5,117.838336 Z M55.5,72 C42.2390791,72 31.5,82.9681956 31.5,96.4992768 C31.5,110.030358 42.2390791,121 55.5,121 C68.7538371,121 79.5,110.030358 79.5,96.4992768 C79.5,82.9681956 68.7538371,72 55.5,72 Z" id="Shape_1" fill="#00BCD4" fill-rule="nonzero"></path>
                    <path d="M117.499015,2.21608174 C117.196401,2.21608174 116.908197,2.00853483 116.82894,1.69577315 C116.728069,1.32319761 116.951427,0.944136232 117.326092,0.848289913 C119.156187,0.373382213 121.036718,0.088005203 122.931659,8.6023208e-05 C123.34235,-0.00567916891 123.637759,0.278977192 123.659374,0.661641819 C123.68099,1.04646839 123.378375,1.3700398 122.996505,1.38949732 C121.19523,1.47237196 119.408366,1.74333599 117.679142,2.19446227 C117.614296,2.2081546 117.556655,2.21608174 117.499015,2.21608174 Z M133.811359,3.14860157 C133.732103,3.14860157 133.645642,3.13274729 133.55918,3.10175938 C131.887597,2.45605786 130.143963,1.98259146 128.364304,1.69577315 C127.989639,1.63307669 127.730255,1.27563478 127.795101,0.897294046 C127.859947,0.518232665 128.205792,0.257357721 128.587662,0.322216133 C130.460988,0.62416807 132.298288,1.12285719 134.063537,1.80387051 C134.423792,1.94367642 134.596715,2.34579857 134.459818,2.70324048 C134.351741,2.9799697 134.092358,3.14860157 133.811359,3.14860157 Z M107.67126,7.12586348 C107.462312,7.12586348 107.260569,7.03578235 107.130877,6.86282659 C106.885904,6.56231595 106.93634,6.124882 107.238954,5.88490588 C108.715999,4.70520344 110.329941,3.68044054 112.015934,2.83656054 C112.361779,2.66576673 112.779675,2.80485199 112.952597,3.14860157 C113.118314,3.49235115 112.981418,3.91032758 112.635573,4.08112139 C111.036041,4.88176245 109.50856,5.85607991 108.103566,6.97452719 C107.973874,7.07685935 107.822567,7.12586348 107.67126,7.12586348 Z M143.019475,9.15376981 C142.839348,9.15376981 142.65922,9.0845875 142.522323,8.94910549 C141.247021,7.67355673 139.842027,6.53132804 138.350571,5.55556928 C138.026342,5.34513976 137.939881,4.913471 138.148828,4.59134089 C138.357776,4.27137273 138.790082,4.18129161 139.114312,4.38955917 C140.685023,5.42008726 142.169274,6.62140917 143.509422,7.96614023 C143.783216,8.23710426 143.783216,8.6788621 143.509422,8.94910549 C143.372525,9.0845875 143.199603,9.15376981 143.019475,9.15376981 Z M99.7240355,14.8288808 C99.5511131,14.8288808 99.3709856,14.7596985 99.2340887,14.6242165 C98.960295,14.3539731 98.960295,13.9136565 99.2340887,13.6412512 L103.146457,9.72668577 C103.420251,9.45572174 103.859762,9.45572174 104.133556,9.72668577 C104.40735,9.9976498 104.40735,10.4372457 104.133556,10.7103717 L100.221187,14.6242165 C100.08429,14.7596985 99.9041629,14.8288808 99.7240355,14.8288808 Z M148.308018,16.6917585 C148.048634,16.6917585 147.796456,16.5440254 147.681174,16.2910776 C146.917434,14.6674554 145.987976,13.1166187 144.907211,11.6839685 C144.676648,11.3755307 144.734289,10.9395381 145.036903,10.7082097 C145.346722,10.4783227 145.786233,10.5374159 146.016796,10.8436917 C147.155202,12.3570547 148.142301,13.990766 148.942067,15.7023074 C149.107784,16.0496602 148.949272,16.4640334 148.603427,16.6269001 C148.509761,16.670139 148.408889,16.6917585 148.308018,16.6917585 Z M91.899298,22.657291 C91.7191705,22.657291 91.5462481,22.5902707 91.4093512,22.4547887 C91.1355575,22.1823833 91.1355575,21.7420668 91.4093512,21.4718234 L95.32172,17.555096 C95.5883086,17.284132 96.0350248,17.284132 96.3016134,17.555096 C96.5754072,17.828222 96.5754072,18.2678179 96.3016134,18.5387819 L92.3892447,22.4547887 C92.2523478,22.5902707 92.0794254,22.657291 91.899298,22.657291 Z M150.800982,27.396279 C150.426317,27.396279 150.116498,27.0957683 150.109293,26.714545 C150.073267,24.9165257 149.842704,23.1206684 149.439219,21.3752564 C149.352757,21.000519 149.58332,20.6272228 149.957986,20.5407449 C150.332651,20.4549877 150.707316,20.686316 150.793777,21.0588915 C151.218878,22.8987085 151.456646,24.7911328 151.499877,26.6849984 C151.507082,27.069825 151.197263,27.3883518 150.815392,27.396279 L150.800982,27.396279 Z M84.0745605,30.4878632 C83.894433,30.4878632 83.7143055,30.4186809 83.5774086,30.2831989 C83.3036149,30.0129555 83.3036149,29.5711977 83.5774086,29.3002337 L87.4897774,25.3856682 C87.7635711,25.1147042 88.2030822,25.1147042 88.4768759,25.3856682 C88.7506697,25.6566322 88.7506697,26.0983901 88.4768759,26.3693541 L84.5645072,30.2831989 C84.4276103,30.4186809 84.2474828,30.4878632 84.0745605,30.4878632 Z M148.769144,38.200249 C148.682683,38.200249 148.589017,38.1829534 148.502556,38.1454797 C148.149506,37.9984673 147.983789,37.5920212 148.12789,37.2367413 C148.812375,35.5814105 149.331142,33.8460876 149.669782,32.0797769 C149.734628,31.7028775 150.102088,31.4535329 150.476753,31.5241565 C150.858623,31.5947801 151.103596,31.9579872 151.031545,32.3370486 C150.685701,34.1999263 150.138113,36.0274922 149.410398,37.7707422 C149.295117,38.0373823 149.042938,38.200249 148.769144,38.200249 Z M76.2426179,38.3162735 C76.0624904,38.3162735 75.889568,38.2492531 75.7526711,38.1137711 C75.4788774,37.8413658 75.4788774,37.4010492 75.7526711,37.1286439 L79.6650399,33.2140785 C79.9388336,32.9431144 80.3783447,32.9431144 80.6449333,33.2140785 C80.9259322,33.4872044 80.9259322,33.9268003 80.6449333,34.1977644 L76.7325646,38.1137711 C76.6028728,38.2492531 76.4227453,38.3162735 76.2426179,38.3162735 Z M68.4178804,46.1468457 C68.2377529,46.1468457 68.0576254,46.0776634 67.9207285,45.9421813 C67.6541399,45.671938 67.6541399,45.2301801 67.9207285,44.9592161 L71.8330973,41.0446506 C72.106891,40.7715247 72.5464021,40.7715247 72.8201958,41.0446506 C73.0939896,41.3156147 73.0939896,41.7552106 72.8201958,42.0283365 L68.9078271,45.9421813 C68.7709302,46.0776634 68.5908027,46.1468457 68.4178804,46.1468457 Z M142.536734,47.2573658 C142.356606,47.2573658 142.183684,47.1889041 142.046787,47.0534221 C141.772993,46.7810168 141.772993,46.3407003 142.046787,46.0697362 L142.522323,45.5912253 C143.646319,44.4720574 144.662238,43.2512779 145.548465,41.9613162 C145.771823,41.6456719 146.204129,41.5649592 146.521153,41.7825952 C146.830973,42.0009519 146.917434,42.4347826 146.701281,42.7504269 C145.757413,44.1110122 144.683853,45.39665 143.509422,46.5741905 L143.02668,47.0534221 C142.896989,47.1889041 142.716861,47.2573658 142.536734,47.2573658 Z M60.5859377,53.9752559 C60.4058103,53.9752559 60.2328879,53.9082356 60.095991,53.7713122 C59.8221973,53.5003482 59.8221973,53.0600317 60.095991,52.7876263 L64.0083598,48.8730609 C64.2821535,48.6020969 64.7216646,48.6020969 64.9954583,48.8730609 C65.262047,49.1461869 65.262047,49.5857828 64.9954583,49.8567468 L61.0758845,53.7713122 C60.9461927,53.9082356 60.7660652,53.9752559 60.5859377,53.9752559 Z M134.711996,55.0864967 C134.531869,55.0864967 134.351741,55.0194763 134.222049,54.8818324 C133.948256,54.6108683 133.948256,54.1712724 134.222049,53.8988671 L138.134418,49.9843017 C138.401007,49.7133376 138.840518,49.7133376 139.114312,49.9843017 C139.388105,50.2552657 139.388105,50.6970235 139.114312,50.9679876 L135.201943,54.8818324 C135.065046,55.0194763 134.884919,55.0864967 134.711996,55.0864967 Z M52.7612002,61.8058281 C52.5810728,61.8058281 52.4009453,61.7366458 52.2712535,61.6011638 C51.9974597,61.3287585 51.9974597,60.8891626 52.2712535,60.6181985 L56.1836223,56.7036331 C56.457416,56.4305071 56.889722,56.4305071 57.1635157,56.7036331 C57.4373095,56.9745971 57.4373095,57.414193 57.1635157,57.687319 L53.251147,61.6011638 C53.1142501,61.7366458 52.9341226,61.8058281 52.7612002,61.8058281 Z M126.880054,62.9163482 C126.707131,62.9163482 126.527004,62.8478866 126.390107,62.7124046 C126.116313,62.4392786 126.116313,61.9996827 126.390107,61.7287187 L130.302476,57.8148739 C130.576269,57.5417479 131.01578,57.5417479 131.289574,57.8148739 C131.563368,58.0858379 131.563368,58.5254338 131.289574,58.7985598 L127.377205,62.7124046 C127.240309,62.8478866 127.060181,62.9163482 126.880054,62.9163482 Z M44.9292576,69.6342383 C44.7563353,69.6342383 44.5762078,69.567218 44.4393109,69.429574 C44.1655171,69.1593306 44.1655171,68.7197347 44.4393109,68.4466088 L48.3516797,64.5320433 C48.6254734,64.2610793 49.0649845,64.2610793 49.3387782,64.5320433 C49.6053669,64.8051693 49.6053669,65.2447652 49.3387782,65.5157292 L45.4192044,69.429574 C45.2895126,69.567218 45.1093851,69.6342383 44.9292576,69.6342383 Z M119.055316,70.7454791 C118.875189,70.7454791 118.702266,70.6762968 118.565369,70.5408148 C118.291576,70.2698508 118.291576,69.8302549 118.565369,69.5578496 L122.477738,65.6432841 C122.751532,65.3723201 123.191043,65.3723201 123.464837,65.6432841 C123.731425,65.9142481 123.731425,66.356006 123.464837,66.62697 L119.545263,70.5408148 C119.408366,70.6762968 119.235444,70.7454791 119.055316,70.7454791 Z M37.1045201,77.4648105 C36.9243927,77.4648105 36.7442652,77.3956282 36.6145734,77.2601462 C36.3407796,76.9877409 36.3407796,76.548145 36.6145734,76.277181 L40.5269422,72.3626155 C40.8007359,72.0902102 41.2330419,72.0902102 41.5140407,72.3626155 C41.7806294,72.6335795 41.7806294,73.0731754 41.5140407,73.3463014 L37.5944669,77.2601462 C37.45757,77.3956282 37.2846476,77.4648105 37.1045201,77.4648105 Z M111.230579,78.5738894 C111.050451,78.5738894 110.870324,78.506869 110.733427,78.371387 C110.466838,78.098261 110.466838,77.6586651 110.733427,77.3884217 L114.645795,73.4716943 C114.919589,73.2007303 115.3591,73.2007303 115.632894,73.4716943 C115.899483,73.7448203 115.899483,74.1844162 115.632894,74.4553803 L111.71332,78.371387 C111.583628,78.506869 111.403501,78.5738894 111.230579,78.5738894 Z M30.5911106,86.331676 C30.4974444,86.331676 30.396573,86.3100565 30.3029067,86.2689795 C29.9570619,86.1075542 29.8057549,85.6953429 29.9570619,85.3458282 C30.7424177,83.6263596 31.7223112,81.9832799 32.8463066,80.4641517 C33.0768698,80.155714 33.5091757,80.0894142 33.818995,80.3185806 C34.1216091,80.5484677 34.1936601,80.9822984 33.963097,81.2921775 C32.8895372,82.7356374 31.9744896,84.2936806 31.2251594,85.92523 C31.1098778,86.1803397 30.8576993,86.331676 30.5911106,86.331676 Z M103.398636,86.4044616 C103.218508,86.4044616 103.038381,86.3352793 102.908689,86.1997972 C102.634895,85.9288332 102.634895,85.487796 102.908689,85.216832 L106.821058,81.3022665 C107.094852,81.0313025 107.534363,81.0313025 107.808157,81.3022665 C108.074745,81.5732306 108.074745,82.0149884 107.808157,82.2859524 L103.888583,86.1997972 C103.751686,86.3352793 103.578763,86.4044616 103.398636,86.4044616 Z M95.5666934,94.2328718 C95.393771,94.2328718 95.2136435,94.1658514 95.0767466,94.0303694 C94.810158,93.7572435 94.810158,93.3176476 95.0767466,93.0452422 L98.9963205,89.1306768 C99.2629091,88.8597128 99.7024202,88.8597128 99.9762139,89.1306768 C100.250008,89.4038028 100.250008,89.8433987 99.9762139,90.1143627 L96.0638452,94.0303694 C95.9269483,94.1658514 95.7468208,94.2328718 95.5666934,94.2328718 Z M28.1918127,97.0570953 L28.1846076,97.0570953 C27.8027373,97.0534921 27.4929181,96.7378478 27.5001232,96.3544625 C27.5217385,94.4620382 27.7450965,92.5681726 28.1557872,90.7225905 C28.2422484,90.347853 28.6169135,90.1143627 28.9843736,90.1950754 C29.3590387,90.2793913 29.596807,90.6498049 29.5175509,91.025263 C29.1212704,92.7778814 28.9123226,94.5759007 28.8907073,96.3724787 C28.8835022,96.7529814 28.5736829,97.0570953 28.1918127,97.0570953 Z M87.7419558,102.063444 C87.5690335,102.063444 87.388906,101.994262 87.2520091,101.85878 C86.9782154,101.587816 86.9782154,101.146778 87.2520091,100.875814 L91.1643779,96.961249 C91.4381716,96.688123 91.8776827,96.688123 92.1514764,96.961249 C92.4180651,97.232213 92.4180651,97.6718089 92.1514764,97.9449349 L88.2319026,101.85878 C88.0950057,101.994262 87.9220833,102.063444 87.7419558,102.063444 Z M30.324522,107.842328 C30.0507282,107.842328 29.7913447,107.683065 29.6832682,107.420028 C28.941143,105.683264 28.3791453,103.859301 28.0116852,102.000027 C27.9396342,101.623127 28.1846076,101.258479 28.5664778,101.183532 C28.941143,101.107143 29.3013979,101.354325 29.3734489,101.731225 C29.7264988,103.496094 30.252471,105.225652 30.9585707,106.874497 C31.1098778,107.227615 30.9441605,107.636223 30.5911106,107.787559 C30.5046495,107.824312 30.4109832,107.842328 30.324522,107.842328 Z M79.9172183,109.891854 C79.7370909,109.891854 79.5569634,109.824834 79.4200665,109.68719 C79.1534778,109.416226 79.1534778,108.97663 79.4200665,108.704225 L83.3396404,104.789659 C83.606229,104.518695 84.0529452,104.518695 84.3195338,104.789659 C84.5933276,105.062785 84.5933276,105.502381 84.3195338,105.773345 L80.4071651,109.68719 C80.2702682,109.824834 80.0973458,109.891854 79.9172183,109.891854 Z M36.6289836,116.838911 C36.4632663,116.838911 36.2903439,116.776214 36.1606522,116.650101 C35.930089,116.440392 35.713936,116.224197 35.490578,116.004399 C34.3665825,114.88379 33.3434585,113.66229 32.4428211,112.375211 C32.219463,112.058846 32.291514,111.627177 32.6085384,111.405217 C32.9255627,111.185419 33.3506636,111.259646 33.5740216,111.573849 C34.4386335,112.79679 35.4113219,113.957035 36.4776765,115.020713 C36.6866244,115.228981 36.8955723,115.435086 37.1117252,115.635427 C37.3927241,115.896302 37.4071343,116.33806 37.1405456,116.616951 C37.0036487,116.763963 36.8163162,116.838911 36.6289836,116.838911 Z M72.03484,117.659009 C71.8330973,117.659009 71.6385596,117.576855 71.5016627,117.416151 C71.2494843,117.123567 71.2855097,116.683971 71.5809188,116.434627 C72.106891,115.987104 72.6184531,115.511475 73.1083998,115.020713 L75.5149029,112.620231 C75.7814915,112.347105 76.2210026,112.347105 76.4947963,112.620231 C76.761385,112.891195 76.761385,113.330791 76.4947963,113.603917 L74.0954984,116.004399 C73.5767312,116.521105 73.0291437,117.023397 72.4815562,117.494701 C72.3518644,117.606402 72.1933522,117.659009 72.03484,117.659009 Z M46.0388429,122.525552 C45.9595868,122.525552 45.8875358,122.514022 45.8082797,122.486637 C44.0214152,121.866158 42.2921914,121.053266 40.6782492,120.076066 C40.3468147,119.875726 40.2459433,119.449822 40.440481,119.119765 C40.6422237,118.79187 41.0673246,118.685934 41.3987591,118.884113 C42.9334452,119.813029 44.5690027,120.581962 46.269406,121.172894 C46.629661,121.299007 46.8169936,121.695364 46.6945069,122.058572 C46.6008406,122.344669 46.3270468,122.525552 46.0388429,122.525552 Z M62.3728023,122.902452 C62.0701881,122.902452 61.7963944,122.706435 61.7027281,122.403762 C61.5946516,122.036952 61.8035995,121.649964 62.1710595,121.540425 C63.8930782,121.029485 65.5646611,120.336941 67.1497829,119.482972 C67.4812175,119.298486 67.9063183,119.423879 68.0864458,119.761863 C68.2665733,120.099127 68.1440866,120.521427 67.8054469,120.703751 C66.1482742,121.606725 64.3830249,122.335301 62.56734,122.875067 C62.5024941,122.892362 62.4376482,122.902452 62.3728023,122.902452 Z M54.7930382,124 C53.6402223,124 52.4729963,123.927214 51.3273855,123.781643 C50.9527204,123.732639 50.6789266,123.385286 50.7293623,123.004784 C50.779798,122.622119 51.1256428,122.354758 51.507513,122.4016 C53.2799674,122.627884 55.1028574,122.666799 56.8825169,122.525552 C57.2715922,122.488078 57.6030268,122.7785 57.6318472,123.161885 C57.6678727,123.546712 57.3796687,123.880372 56.9977984,123.91136 C56.2628784,123.970453 55.5279583,124 54.7930382,124 Z" id="Shape_7" fill="#00838F" fill-rule="nonzero"></path>
                </g>
                <g id="Group">
                    <g id="Group-13" transform="translate(37.805709, 201.000000)">
                        <mask id="mask-8" fill="white">
                            <use xlink:href="#path-7"></use>
                        </mask>
                        <use id="Path_153" fill="#FFECB3" xlink:href="#path-7"></use>
                        <rect id="Rectangle" fill="#FFA000" opacity="0.228376116" mask="url(#mask-8)" x="47.1942909" y="-6" width="57" height="73"></rect>
                    </g>
                    <g id="Group-14" transform="translate(55.490887, 255.000000)">
                        <mask id="mask-10" fill="white">
                            <use xlink:href="#path-9"></use>
                        </mask>
                        <use id="Path_154" fill="#F8BBD0" xlink:href="#path-9"></use>
                        <rect id="Rectangle" fill="#E91E63" opacity="0.306152344" mask="url(#mask-10)" x="29.5091134" y="0" width="36" height="25"></rect>
                    </g>
                    <g id="Group-16" transform="translate(0.076277, 0.000000)">
                        <mask id="mask-12" fill="white">
                            <use xlink:href="#path-11"></use>
                        </mask>
                        <use id="Path_155" fill="#00BCD4" xlink:href="#path-11"></use>
                        <rect id="Rectangle" fill="#00838F" opacity="0.433733259" mask="url(#mask-12)" x="85.9237234" y="0" width="98" height="208"></rect>
                    </g>
                    <g id="Group-15" transform="translate(77.595984, 275.754159)">
                        <mask id="mask-14" fill="white">
                            <use xlink:href="#path-13"></use>
                        </mask>
                        <use id="Path_156" fill="#E91E63" xlink:href="#path-13"></use>
                        <rect id="Rectangle" fill="#AD1457" mask="url(#mask-14)" x="7.40401576" y="0.245841236" width="15" height="30"></rect>
                    </g>
                    <path d="M35.3941772,47.4766541 C33.7871002,49.0888288 32.7819898,51.3054542 32.7819898,53.7232569 C32.7819898,58.5588623 36.8005987,62.5879211 41.6236624,62.5879211 L100.102393,62.5879211 L100.102393,44.6564967 L41.6236624,44.6564967 C39.2121306,44.8576741 37.0021705,45.8644794 35.3941772,47.4766541 Z" id="Path" fill="#FFA000"></path>
                    <path d="M91.6629478,53.9244342 C91.6629478,58.7600397 95.6815567,62.7890984 100.50462,62.7890984 L139.088213,62.7890984 L139.088213,60.1701184 L100.50462,60.1701184 C97.0879782,60.1701184 94.2751352,57.3490423 94.2751352,53.9244342 C94.2751352,50.4998261 97.0879782,47.6778315 100.50462,47.6778315 L139.088213,47.6778315 L139.088213,45.0588514 L100.50462,45.0588514 C95.6815567,44.8576741 91.6629478,48.8876515 91.6629478,53.9244342 Z" id="Path" fill="#FF6F00"></path>
                    <path d="M81.0117102,44.8576741 L61.3181444,44.8576741 C59.1072681,45.0588514 57.0979637,46.0665754 55.690626,47.4766541 C54.0835489,49.0888288 53.0793548,51.3054542 53.0793548,53.7232569 C53.0793548,58.3567663 56.6957363,62.1855664 61.3181444,62.5879211 L81.0117102,62.5879211 C76.3893021,62.1855664 72.7729206,58.3567663 72.7729206,53.7232569 C72.7729206,51.3054542 73.7780309,49.0888288 75.385108,47.4766541 C76.7924457,46.0665754 78.8008339,45.0588514 81.0117102,44.8576741 Z" id="Path" fill="#FFECB3"></path>
                    <path d="M137.481136,47.4766541 L100.50462,47.4766541 C97.0879782,47.4766541 94.2751352,50.2977302 94.2751352,53.7232569 C94.2751352,57.147865 97.0879782,59.968941 100.50462,59.968941 L137.481136,59.968941 C134.064494,59.968941 131.251651,57.147865 131.251651,53.7232569 C131.251651,50.2977302 134.064494,47.4766541 137.481136,47.4766541 Z" id="Path" fill="#FFECB3"></path>
                    <path d="M26.1511936,95.2273391 C24.7438558,96.6374178 23.9394011,98.6528658 23.9394011,100.869491 C23.9394011,105.301823 27.557615,108.726431 31.7777957,108.726431 L92.8677975,108.726431 L92.8677975,92.8095364 L31.7777957,92.8095364 C29.5660033,93.0116324 27.557615,93.8172604 26.1511936,95.2273391 Z" id="Path" fill="#F8BBD0"></path>
                    <path d="M86.0354294,100.869491 C86.0354294,105.301823 89.6527271,108.726431 93.8729078,108.726431 L134.064494,108.726431 L134.064494,106.308629 L93.8729078,106.308629 C90.8584931,106.308629 88.2463057,103.890826 88.2463057,100.667395 C88.2463057,97.6451418 90.6578375,95.0261618 93.8729078,95.0261618 L134.064494,95.0261618 L134.064494,92.6092777 L93.8729078,92.6092777 C89.4520716,93.0116324 86.0354294,96.6374178 86.0354294,100.869491 Z" id="Path" fill="#FFA000"></path>
                    <path d="M76.3893021,93.0116324 L58.9066126,93.0116324 C56.8973081,93.2128097 55.2893148,94.0193564 53.8828933,95.2273391 C52.4755556,96.6374178 51.4713615,98.6528658 51.4713615,100.869491 C51.4713615,105.100646 54.6864319,108.525254 58.705957,108.726431 L76.1886465,108.726431 C72.1700376,108.324077 68.9549673,104.89855 68.9549673,100.869491 C68.9549673,98.6528658 69.7585058,96.6374178 71.3655829,95.2273391 C72.7729206,94.0193564 74.3809139,93.2128097 76.3893021,93.0116324 Z" id="Path" fill="#FFA000"></path>
                    <path d="M132.658073,95.4294351 L93.8729078,95.4294351 C90.8584931,95.4294351 88.2463057,97.8472378 88.2463057,101.070669 C88.2463057,104.092922 90.6578375,106.711902 93.8729078,106.711902 L132.658073,106.711902 C129.643658,106.711902 127.030554,104.294099 127.030554,101.070669 C127.030554,97.8472378 129.442086,95.4294351 132.658073,95.4294351 Z" id="Path" fill="#FFECB3"></path>
                    <path d="M148.332113,133.508909 L49.8633682,133.508909 L49.8633682,160.70919 L148.332113,160.70919 C155.768281,160.70919 161.796194,154.663764 161.796194,147.210097 C161.796194,139.754593 155.768281,133.508909 148.332113,133.508909 Z" id="Path" fill="#FFA000"></path>
                    <path d="M62.1216829,136.531163 L7.86313304,136.531163 C10.6768922,139.150143 12.2839693,142.776847 12.2839693,147.008001 C12.2839693,151.037979 10.4762367,154.86586 7.86313304,157.48484 L62.1216829,157.48484 C67.7482851,157.48484 72.3706932,152.851331 72.3706932,147.008001 C72.3706932,141.366768 67.7482851,136.531163 62.1216829,136.531163 Z" id="Path" fill="#FFECB3"></path>
                    <path d="M62.1216829,133.508909 L6.25605597,133.508909 L6.25605597,136.73234 L62.1216829,136.73234 C67.7482851,136.73234 72.3706932,141.366768 72.3706932,147.210097 C72.3706932,153.052508 67.7482851,157.686936 62.1216829,157.686936 L6.25605597,157.686936 L6.25605597,160.910367 L62.1216829,160.910367 C69.5578502,160.910367 75.5857636,154.86586 75.5857636,147.410356 C75.5857636,139.956689 69.5578502,133.508909 62.1216829,133.508909 Z" id="Path" fill="#FF6F00"></path>
                    <path d="M131.050079,62.7890984 L74.9828806,62.7890984 L74.9828806,76.2881907 L131.050079,76.2881907 C134.668293,76.2881907 137.681792,73.2668559 137.681792,69.4389745 C137.681792,65.6101745 134.868033,62.7890984 131.050079,62.7890984 Z" id="Path" fill="#E91E63"></path>
                    <path d="M81.2123657,64.4012731 C81.2123657,64.4012731 30.1698024,64.4012731 30.1698024,64.4012731 C31.5762239,65.6101745 32.3806787,67.6247039 32.3806787,69.6401519 C32.3806787,71.6546813 31.5762239,73.4680333 30.1698024,74.878112 L81.2123657,74.878112 C84.0270412,74.878112 86.4376568,72.4603093 86.4376568,69.6401519 C86.4376568,66.8190758 84.0270412,64.4012731 81.2123657,64.4012731 Z" id="Path" fill="#F8BBD0"></path>
                    <path d="M81.2123657,62.7890984 L29.3662639,62.7890984 L29.3662639,64.4012731 L81.2123657,64.4012731 C84.0270412,64.4012731 86.4376568,66.8190758 86.4376568,69.6401519 C86.4376568,72.4603093 84.2267805,74.878112 81.2123657,74.878112 L29.3662639,74.878112 L29.3662639,76.4902867 L81.2123657,76.4902867 C84.8305797,76.4902867 87.8449945,73.4680333 87.8449945,69.6401519 C87.8449945,65.8113518 85.0303191,62.7890984 81.2123657,62.7890984 Z" id="Path" fill="#AD1457"></path>
                    <path d="M5.25094563,165.544795 C2.23653085,168.567049 0.227226403,172.797285 0.227226403,177.63289 C0.227226403,187.102005 7.86313304,194.557509 17.107033,194.557509 L108.141443,194.557509 L108.141443,160.507094 L17.107033,160.507094 C12.4855411,160.70919 8.26536042,162.521623 5.25094563,165.544795 Z" id="Path" fill="#F8BBD0"></path>
                    <path d="M92.2649146,177.63289 C92.2649146,187.102005 99.9017374,194.557509 109.145637,194.557509 L175.060535,194.557509 L175.060535,189.519808 L109.145637,189.519808 C102.513925,189.519808 97.28955,184.079752 97.28955,177.63289 C97.28955,171.18511 102.513925,165.745054 109.145637,165.745054 L175.060535,165.745054 L175.060535,160.70919 L109.145637,160.70919 C99.7010818,160.70919 92.2649146,168.162857 92.2649146,177.63289 Z" id="Path" fill="#E91E63"></path>
                    <path d="M85.0303191,160.70919 L57.2986193,160.70919 C54.2842045,160.910367 51.4713615,162.924896 49.4611408,165.745054 C47.2511808,168.768226 45.8447593,172.998462 45.8447593,177.834067 C45.8447593,186.69965 50.8684786,194.154236 57.2986193,194.758686 L85.0303191,194.758686 C78.6001783,194.154236 73.5764591,186.69965 73.5764591,177.834067 C73.5764591,173.200558 74.9828806,168.768226 77.1937569,165.745054 C79.2039775,162.723719 81.8152487,160.910367 85.0303191,160.70919 Z" id="Path" fill="#B2EBF2"></path>
                    <path d="M171.844549,165.745054 L108.944982,165.745054 C102.313269,165.745054 97.0879782,171.18511 97.0879782,177.63289 C97.0879782,184.079752 102.313269,189.519808 108.944982,189.519808 L171.844549,189.519808 C165.212836,189.519808 159.988461,184.079752 159.988461,177.63289 C159.988461,171.18511 165.414408,165.745054 171.844549,165.745054 Z" id="Path" fill="#B2EBF2"></path>
                    <path d="M139.892668,76.2881907 L79.6052887,76.2881907 L79.6052887,93.0116324 L139.892668,93.0116324 C144.51416,93.0116324 148.132374,89.3849283 148.132374,84.7505002 C148.132374,82.5338749 147.127264,80.3181681 145.719926,78.9080894 C144.112849,77.2959147 142.102628,76.2881907 139.892668,76.2881907 Z" id="Path" fill="#B2EBF2"></path>
                    <path d="M79.2039775,76.2881907 L31.5762239,76.2881907 L31.5762239,78.7059934 L79.2039775,78.7059934 C82.4190479,78.7059934 85.0303191,81.3258921 85.0303191,84.5493229 C85.0303191,87.7727536 82.4190479,90.3917337 79.2039775,90.3917337 L31.5762239,90.3917337 L31.5762239,92.8095364 L79.2039775,92.8095364 C83.8254694,92.8095364 87.4418509,88.981655 87.4418509,84.5493229 C87.4418509,80.1160721 83.8254694,76.2881907 79.2039775,76.2881907 Z" id="Path" fill="#00838F"></path>
                    <path d="M131.452307,76.2881907 L121.605524,76.2881907 C123.414173,76.4902867 125.221905,77.2959147 126.428588,78.7059934 C127.835009,80.1160721 128.638548,82.3336161 128.638548,84.5493229 C128.638548,88.981655 125.624133,92.6092777 121.605524,92.8095364 L131.452307,92.8095364 C135.27026,92.4071817 138.486247,88.7804776 138.486247,84.5493229 C138.486247,82.3336161 137.681792,80.1160721 136.27537,78.7059934 C135.069604,77.2959147 133.260039,76.4902867 131.452307,76.2881907 Z" id="Path" fill="#F8BBD0"></path>
                    <path d="M114.571584,76.2881907 L104.724801,76.2881907 C106.53345,76.4902867 108.342099,77.2959147 109.547865,78.7059934 C110.955202,80.1160721 111.758741,82.3336161 111.758741,84.5493229 C111.758741,88.981655 108.74341,92.6092777 104.724801,92.8095364 L114.571584,92.8095364 C118.389537,92.4071817 121.605524,88.7804776 121.605524,84.5493229 C121.605524,82.3336161 120.801069,80.1160721 119.394648,78.7059934 C118.188882,77.2959147 116.380233,76.4902867 114.571584,76.2881907 Z" id="Path" fill="#F8BBD0"></path>
                    <path d="M79.2039775,78.7059934 L32.9826454,78.7059934 C36.198632,78.7059934 38.8108194,81.3258921 38.8108194,84.5493229 C38.8108194,87.7727536 36.198632,90.3917337 32.9826454,90.3917337 L79.2039775,90.3917337 C82.4190479,90.3917337 85.0303191,87.7727536 85.0303191,84.5493229 C85.0303191,81.3258921 82.4190479,78.7059934 79.2039775,78.7059934 Z" id="Path" fill="#00838F"></path>
                    <path d="M155.165398,109.129705 L99.2988545,109.129705 L99.2988545,133.508909 L155.165398,133.508909 C161.796194,133.508909 167.222141,128.068853 167.222141,121.419896 C167.222141,114.771857 161.796194,109.129705 155.165398,109.129705 Z" id="Path_157" fill="#E91E63"></path>
                    <path d="M155.165398,112.354054 L101.509731,112.354054 L101.509731,130.285478 L155.165398,130.285478 C160.189117,130.285478 164.00707,126.255501 164.00707,121.218718 C164.00707,116.383113 159.988461,112.354054 155.165398,112.354054 Z" id="Path_158" fill="#F8BBD0"></path>
                    <path d="M102.313269,112.354054 L33.7871002,112.354054 C38.8108194,112.354054 42.6287727,116.383113 42.6287727,121.419896 C42.6287727,126.457597 38.6101638,130.486656 33.7871002,130.486656 L102.313269,130.486656 C107.336988,130.486656 111.154942,126.457597 111.154942,121.419896 C111.154942,116.383113 107.136333,112.354054 102.313269,112.354054 Z" id="Path_159" fill="#00838F"></path>
                    <rect id="Rectangle_160" fill="#E91E63" x="31.9784513" y="109.129705" width="67.3204031" height="3.22343075"></rect>
                    <rect id="Rectangle_161" fill="#E91E63" x="31.9784513" y="130.285478" width="67.3204031" height="3.22343075"></rect>
                    <path d="M65.9396362,24.5075283 C65.9396362,27.127427 63.9303318,29.3431338 61.5188,29.5452297 C64.1319036,29.9475844 65.9396362,31.9630325 65.9396362,34.5829311 C65.9396362,31.9630325 67.9498569,29.7473257 70.3613888,29.5452297 C67.7482851,29.3431338 65.9396362,27.127427 65.9396362,24.5075283 Z" id="Path" fill="#FFFFFF"></path>
                    <path d="M75.1844524,20.8817429 C75.1844524,22.6950949 73.7780309,24.3072696 71.9693821,24.5075283 C73.7780309,24.7096243 75.1844524,26.321799 75.1844524,28.135151 C75.1844524,26.321799 76.5908739,24.7096243 78.3995228,24.5075283 C76.5908739,24.3072696 75.1844524,22.6950949 75.1844524,20.8817429 Z" id="Path" fill="#FFFFFF"></path>
                    <path d="M75.9178073,20.6796469 L75.9178073,22.2420325 L75.9178073,20.6796469 Z" id="Path" fill="#FFFFFF"></path>
                    <path d="M12.6861967,83.9448722 C12.6861967,88.1760269 9.47112633,91.6015537 5.45160121,92.2050857 C9.47112633,92.6092777 12.6861967,96.2350631 12.6861967,100.466218 C12.6861967,96.2350631 15.9021833,92.8095364 19.9207922,92.2050857 C15.9021833,91.6015537 12.6861967,88.1760269 12.6861967,83.9448722 Z" id="Path" fill="#FFFFFF"></path>
                    <path d="M13.4195516,83.7633018 C13.4195516,83.7633018 13.4195516,87.1849262 13.4195516,83.7633018 C13.4195516,87.1849262 13.4195516,83.7633018 13.4195516,83.7633018 Z" id="Path" fill="#FFFFFF"></path>
                </g>
                <g id="Group" transform="translate(165.000000, 125.000000)">
                    <path d="M58.7466861,34.5337583 C53.3022749,31.5217474 29.9120842,27.3049321 27.0887497,26.9030254 C23.0555461,26.3006232 22.4515308,32.9270473 23.6604806,34.3323473 C25.273946,36.1395538 29.508488,38.5491626 36.5663645,40.3563691 C42.2121141,41.7625846 52.8995981,46.5818021 56.5282862,42.5654823 C58.7466861,39.9544625 64.5946934,37.7462648 58.7466861,34.5337583 Z" id="Path_162" fill="#7BC3F4" fill-rule="nonzero"></path>
                    <path d="M47.2529291,37.9467604 C41.8094373,36.5414605 40.8009065,34.9347494 30.9196955,33.3289539 C27.8950227,32.9270473 22.4515308,33.3289539 23.4600616,34.5337583 C25.0726075,36.3409649 31.1219533,38.7505736 36.3650261,40.1558736 C45.8417215,42.7659779 50.6802788,45.1755867 54.1085478,42.3640713 C56.5282862,40.5568647 55.5197554,39.9544625 47.2529291,37.9467604 Z" id="Path_163" fill="#3A7CFF" fill-rule="nonzero"></path>
                    <path d="M10.5541777,10.4376708 C9.74790473,8.63046419 8.13443941,6.82325762 6.92548961,5.61845324 C6.11829727,4.81555549 4.70617036,3.81124668 3.89989737,3.00834893 C3.2949628,2.40594674 2.48868981,3.81124668 3.2949628,4.61505993 C2.89228598,4.81555549 2.28735141,6.02035987 2.69094758,6.42135099 C2.086013,6.82325762 2.086013,7.82756644 2.48868981,8.42996863 C1.88375524,9.03145531 1.88375524,9.83526857 2.89228598,10.6381663 C3.89989737,11.4410641 4.70617036,12.646784 7.32816642,14.8549816 C7.73084324,15.2568883 8.33669717,16.059786 8.73937398,16.4616926 C9.34522791,15.4573838 11.7640469,12.8472795 12.7725776,12.2448773 C12.167643,12.0434663 10.9577739,11.2405685 10.5541777,10.4376708 Z" id="Path_164" fill="#E8D7B9"></path>
                    <path d="M4.70617036,5.81894881 C4.70617036,7.22424875 3.69855897,9.83526857 2.69094758,10.4376708 C3.09362439,10.8395774 3.49722056,11.2405685 4.10215514,11.8438862 C4.90842812,12.646784 6.11829727,12.8472795 7.12590866,12.2448773 C7.53042419,12.0434663 7.933101,12.0434663 8.53803558,11.8438862 C9.34522791,11.6424751 9.74790473,10.4376708 9.34522791,9.63477301 C8.13443941,8.028062 4.70617036,5.21654662 4.70617036,5.81894881 Z" id="Path_165" fill="#F0BF97"></path>
                    <path d="M24.8712691,23.2886123 C21.4430001,20.4780124 11.9653853,10.8395774 11.9653853,10.8395774 C11.9653853,10.8395774 9.54564697,13.0477751 6.92548961,16.4616926 C6.92548961,16.4616926 18.2160694,29.1121386 22.4515308,33.5294495 C28.9035534,39.9544625 32.5331609,32.7256363 31.7268879,29.9150364 C30.7192765,27.5054276 27.0887497,25.0958189 24.8712691,23.2886123 Z" id="Path_166" fill="#7BC3F4" fill-rule="nonzero"></path>
                    <path d="M8.94163175,14.0520839 C8.33669717,14.8549816 7.53042419,15.6587949 6.92548961,16.6631037 C6.92548961,16.6631037 18.2160694,29.3126342 22.4515308,33.7299451 C27.6936843,38.9501537 31.3232917,37.1438626 31.1219533,33.5294495 C26.8874113,30.3160275 22.0479347,28.3083254 16.2008467,22.8876212 C14.1837852,21.0794991 10.7564355,15.4573838 8.94163175,14.0520839 Z" id="Path_167" fill="#3A7CFF" fill-rule="nonzero"></path>
                    <path d="M82.7418113,162.642183 C82.7418113,162.240276 76.2888694,160.433069 76.087531,162.642183 C75.8861926,164.449389 76.4911272,167.4614 74.8776618,168.8667 C73.0628581,170.472495 66.005901,174.086909 62.7789703,174.690226 C62.5776319,175.091217 63.1834858,175.493124 63.5861627,175.69362 C66.005901,176.496517 68.4256393,176.095526 71.046716,175.894115 C73.8691311,175.69362 76.6933849,175.493124 79.7171385,175.493124 C80.9270076,175.493124 82.5404729,175.291713 83.1454075,174.28832 C83.5480843,173.484506 83.3467459,172.480198 83.3467459,171.476804 C82.7418113,168.465709 83.1454075,165.452782 82.7418113,162.642183 Z" id="Path" fill="#E8D7B9"></path>
                    <path d="M82.7418113,162.642183 C82.7418113,162.440771 81.128346,162.03978 79.5158001,161.637874 C79.7171385,161.838369 79.7171385,162.03978 79.9193962,162.240276 C82.5404729,168.465709 76.8947233,173.284011 71.6516506,175.69362 C74.2736466,175.493124 76.8947233,175.291713 79.7171385,175.291713 C80.9270076,175.291713 82.5404729,175.091217 83.1454075,174.086909 C83.5480843,173.284011 83.3467459,172.280618 83.3467459,171.276309 C82.7418113,168.465709 83.1454075,165.452782 82.7418113,162.642183 Z" id="Path" fill="#F0BF97"></path>
                    <path d="M83.1454075,170.071504 C82.3391345,169.469102 77.2974002,173.484506 71.4493928,173.484506 C71.4493928,172.681609 70.6431198,171.476804 69.8368468,171.678215 C67.2157701,172.480198 62.7789703,174.086909 62.1749551,174.28832 C60.5614898,174.890722 61.1664244,177.701322 62.1749551,177.701322 L71.2489737,177.701322 C73.0628581,177.701322 75.6848542,176.095526 78.5072693,176.095526 C81.5319422,176.095526 82.5404729,175.894115 82.9440691,175.894115 C85.7664842,174.488815 84.5566151,171.074898 83.1454075,170.071504 Z" id="Path" fill="#346790"></path>
                    <path d="M78.1045925,174.28832 C76.087531,174.488815 69.43417,175.091217 68.4256393,175.493124 C66.812174,175.894115 65.1987086,175.894115 63.5861627,175.493124 C62.7789703,175.291713 62.1749551,174.890722 61.5700205,174.488815 C60.5614898,175.493124 61.1664244,177.500826 61.9726973,177.500826 L71.046716,177.500826 C72.8615197,177.500826 75.4825964,175.894115 78.3059309,175.894115 C81.3306038,175.894115 82.3391345,175.69362 82.7418113,175.69362 C84.9602112,174.690226 84.7579535,172.280618 83.9525998,170.874402 C82.7418113,172.882104 80.7256692,174.28832 78.1045925,174.28832 Z" id="Path" fill="#143549"></path>
                    <path d="M77.2974002,177.701322 L82.9440691,177.701322 L84.3552767,174.086909 L77.7009963,176.095526 C77.9023347,176.697928 77.2974002,177.701322 77.2974002,177.701322 Z" id="Path" fill="#143549"></path>
                    <path d="M31.3232917,161.035472 C30.314761,162.642183 29.508488,165.452782 27.4923458,166.0561 C25.0726075,166.858998 17.2084581,167.059493 14.1837852,166.0561 C13.7811084,166.457091 14.1837852,167.059493 14.5873813,167.259989 C16.4021851,169.067196 18.8219234,169.871009 21.2416617,170.673907 C23.8627384,171.678215 26.6860729,172.681609 29.3071496,173.886413 C30.5170141,174.488815 31.9282263,174.890722 32.936757,174.28832 C33.74303,173.685917 33.9452878,172.681609 34.3479646,171.878711 C35.3564953,169.067196 36.7677029,166.657587 37.5739759,163.846071 C37.5739759,163.646491 32.5331609,159.228265 31.3232917,161.035472 Z" id="Path" fill="#E8D7B9"></path>
                    <path d="M34.9528992,161.838369 L34.9528992,162.440771 C34.5502224,169.067196 27.4923458,171.074898 21.6443385,171.074898 C24.0640768,172.079206 26.6860729,173.083515 29.1058112,174.086909 C30.314761,174.690226 31.7268879,175.091217 32.7344993,174.488815 C33.5416916,173.886413 33.74303,172.882104 34.1466262,172.079206 C35.1542376,169.267691 36.5663645,166.858998 37.3726375,164.047482 C37.5739759,163.846071 36.3650261,162.642183 34.9528992,161.838369 Z" id="Path" fill="#F0BF97"></path>
                    <path d="M22.6528692,168.665289 C23.0555461,168.062887 22.8542076,166.457091 21.8465963,166.25568 C19.2246002,165.854689 14.3851236,165.452782 13.7811084,165.452782 C11.9653853,165.452782 11.3613701,168.062887 12.167643,168.465709 C12.973916,168.8667 17.6120542,171.074898 20.4344693,172.480198 C22.0479347,173.284011 25.0726075,173.083515 27.6936843,174.28832 C30.5170187,175.69362 31.3232917,175.894115 31.7268879,175.894115 C34.9528992,175.894115 35.3564953,172.480198 34.5502224,170.673907 C34.1466262,169.871009 27.8950227,171.276309 22.6528692,168.665289 Z" id="Path" fill="#346790"></path>
                    <path d="M28.2995382,172.480198 C26.4838151,171.678215 20.2331309,169.669598 19.0232618,169.469102 C17.4097965,169.267691 15.7972505,168.465709 14.5873813,167.4614 C13.9824468,166.858998 13.5788506,166.457091 13.1761738,165.653278 C11.7640469,166.0561 11.5627085,168.264298 12.167643,168.665289 L20.4344693,172.681609 C22.0479347,173.484506 25.0726075,173.284011 27.6936843,174.488815 C30.5170187,175.894115 31.3232917,176.095526 31.7268879,176.095526 C34.3479646,176.095526 35.1542376,173.886413 34.9528992,172.280618 C32.936757,173.284011 30.5170187,173.484506 28.2995382,172.480198 Z" id="Path" fill="#143549"></path>
                    <path d="M26.0802189,175.291713 L31.3232917,177.701322 L34.1466262,175.091217 L27.2910074,173.886413 C27.0887497,174.488815 26.0802189,175.291713 26.0802189,175.291713 Z" id="Path" fill="#143549"></path>
                    <path d="M49.6726674,76.499585 C45.0354486,92.9649397 32.3318225,151.397036 28.0972804,164.047482 C29.7107457,167.059493 33.74303,168.665289 37.3726375,168.062887 C39.9937142,163.646491 63.9897588,98.9889615 68.4256393,83.1260091 C68.8292354,82.3231113 54.7134824,76.9014916 49.6726674,76.499585 Z" id="Path_168" fill="#FEC230" fill-rule="nonzero"></path>
                    <path d="M60.5614898,79.5115959 C58.3440092,87.1423288 60.5614898,96.1783617 55.1170786,102.201468 C51.6888095,106.017292 51.6888095,111.639408 51.6888095,116.659121 C51.6888095,120.474029 50.6802788,124.690845 48.4627983,128.104762 C46.04306,131.719175 43.8255794,133.927373 43.2206448,138.345599 C42.6157103,142.561499 40.8009065,148.586437 39.7923758,152.802336 C38.1789105,160.232574 32.936757,159.027769 29.9120842,166.0561 C31.9282263,167.661896 34.7515608,168.264298 37.3726375,167.862391 C39.9937142,163.44508 63.9897588,98.788466 68.4256393,82.9255135 C68.6269777,82.5236069 64.7960318,80.9168959 60.5614898,79.5115959 Z" id="Path_169" fill="#EE8800" fill-rule="nonzero"></path>
                    <path d="M80.7256692,84.7318046 C76.8947233,83.9298223 59.552959,82.1226158 57.5368169,85.5356178 C54.7134824,90.756742 72.2565851,161.838369 74.0713889,167.661896 C77.4996579,169.067196 81.9355384,168.062887 83.7503421,167.259989 C83.1454075,152.401345 80.5243308,140.554713 79.9193962,127.702856 C79.5158001,112.442305 81.128346,96.3788572 80.7256692,84.7318046 Z" id="Path_170" fill="#FEC230" fill-rule="nonzero"></path>
                    <path d="M80.7256692,84.7318046 C79.5158001,84.5322245 76.6933849,83.9298223 73.4664543,83.3265046 C74.6763234,85.1346267 74.6763234,94.9735573 74.6763234,95.776455 C74.2736466,102.603375 77.2974002,109.832201 77.0960617,111.438912 C75.8861926,120.073038 77.9023347,125.695153 77.7009963,128.305258 C77.7009963,131.116773 76.2888694,136.538393 77.0960617,143.164817 C77.4996579,146.577819 79.9193962,153.605234 81.128346,157.019152 C81.7332806,159.027769 80.1207346,165.653278 80.322073,168.264298 C81.7332806,168.062887 82.9440691,167.661896 83.9525998,167.259989 C83.3467459,152.401345 80.7256692,140.554713 80.1207346,127.702856 C79.5158001,112.442305 81.128346,96.3788572 80.7256692,84.7318046 Z" id="Path_171" fill="#EE8800" fill-rule="nonzero"></path>
                    <path d="M80.9270076,48.3880932 C81.128346,40.7582758 76.4911272,30.9184297 64.7960318,30.9184297 C59.9565552,30.9184297 51.0847943,30.1155319 48.4627983,36.9433671 C47.2529291,40.1558736 45.236787,86.5399266 45.8417215,87.9452266 C46.8493329,90.5553309 80.9270076,90.1543398 81.128346,88.3471332 C81.5319422,86.13802 80.9270076,56.8217238 80.9270076,48.3880932 Z" id="Path_172" fill="#7BC3F4" fill-rule="nonzero"></path>
                    <path d="M51.2861327,65.6572611 C50.4798597,69.6726653 55.9242709,69.8731609 57.7381553,69.2707587 C59.9565552,68.467861 63.9897588,65.45585 68.2233815,59.4327436 C75.6848542,48.5885887 77.4996579,45.7779888 77.4996579,45.7779888 L67.2157701,38.9501537 C67.0144317,38.7505736 52.0924057,61.6409413 51.2861327,65.6572611 Z" id="Path_173" fill="#7BC3F4" fill-rule="nonzero"></path>
                    <path d="M52.0924057,68.2673654 C53.5045326,69.6726653 56.5282862,69.6726653 57.7381553,69.2707587 C59.9565552,68.467861 63.9897588,65.45585 68.2233815,59.4327436 C75.6848542,48.5885887 77.4996579,45.7779888 77.4996579,45.7779888 L76.4911272,39.9544625 C74.474985,47.987102 61.7713589,62.8457457 52.0924057,68.2673654 Z" id="Path_174" fill="#3A7CFF" fill-rule="nonzero"></path>
                    <path d="M80.9270076,48.3880932 C81.128346,40.7582758 76.4911272,30.9184297 64.7960318,30.9184297 C63.5861627,30.9184297 62.1749551,31.1198407 60.5614898,31.5217474 C68.6269777,34.5337583 76.8947233,35.9390583 76.8947233,45.9784844 C76.8947233,48.7899998 73.2651159,55.6169194 73.2651159,58.4284348 C73.2651159,63.2476523 77.2974002,65.6572611 75.4825964,68.467861 C73.0628581,72.2827697 73.0628581,79.5115959 74.474985,82.7250179 C76.087531,86.3385156 69.0296545,86.3385156 67.4171085,89.9538442 C74.6763234,89.9538442 80.9270076,89.351442 81.128346,88.5476288 C81.5319422,86.13802 80.9270076,56.8217238 80.9270076,48.3880932 Z" id="Path_175" fill="#3A7CFF" fill-rule="nonzero"></path>
                    <path d="M62.7789703,25.2972299 C62.5776319,27.9064187 58.9480245,28.9107276 58.9480245,31.9227385 C58.9480245,34.5337583 70.0381852,35.3366561 70.240443,31.7222429 C70.4427008,28.1078298 70.6431198,21.0794991 70.6431198,21.0794991 C70.6431198,21.0794991 62.9812281,22.6862101 62.7789703,25.2972299 Z" id="Path_176" fill="#F0BF97" fill-rule="nonzero"></path>
                    <path d="M68.8292354,8.83187526 C67.6184469,7.42565981 66.005901,6.82325762 64.1910972,6.42135099 C62.3762935,6.22085543 60.5614898,6.42135099 58.9480245,6.62184656 C57.7381553,6.82325762 56.5282862,7.42565981 55.9242709,8.63046419 C54.1085478,12.2448773 53.705871,16.2602816 53.3022749,20.0761058 C53.1009365,22.0838079 52.8995981,24.09151 53.705871,25.698221 C54.9157402,28.5097364 58.3440092,30.9184297 61.3677628,29.9150364 C68.0229625,27.7068387 70.8453776,21.0794991 70.8453776,20.4780124 C70.8453776,18.4693948 71.046716,16.2602816 71.046716,14.2525795 C70.6431198,12.4453729 70.240443,10.4376708 68.8292354,8.83187526 Z" id="Path_177" fill="#E8D7B9" fill-rule="nonzero"></path>
                    <path d="M60.1775163,30.848302 C60.1775163,30.848302 63.6018799,30.848302 60.1775163,30.848302 C63.6018799,30.848302 60.1775163,30.848302 60.1775163,30.848302 Z" id="Path_178" fill="#E8D7B9" fill-rule="nonzero"></path>
                    <path d="M66.005901,6.82325762 C64.3924356,6.62184656 59.9565552,7.22424875 58.9480245,11.6424751 C58.9480245,11.8438862 58.5453476,14.0520839 58.5453476,14.2525795 C58.3440092,15.4573838 55.9242709,17.666497 55.7220132,19.0727125 C55.3193364,21.8833124 56.7305439,27.103521 58.5453476,28.9107276 C59.1502822,29.5131297 59.9565552,29.9150364 60.7637475,30.1155319 L61.1664244,30.1155319 C67.8207047,27.9064187 70.6431198,21.2809102 70.6431198,20.678508 C70.6431198,18.6698903 70.8453776,16.4616926 70.8453776,14.453075 C70.8453776,12.4453729 70.240443,10.2371752 68.8292354,8.63046419 C68.0229625,8.028062 67.0144317,7.02466869 66.005901,6.82325762 Z" id="Path_179" fill="#F0BF97" fill-rule="nonzero"></path>
                    <path d="M64.3924356,4.61505993 C58.1417515,3.81124668 55.5197554,7.82756644 53.705871,8.22855756 C58.3440092,11.6424751 65.8036432,9.83526857 65.6032242,11.0400729 C64.7960318,18.4693948 67.4171085,18.8713014 67.8207047,20.0761058 C68.4256393,21.6819013 70.240443,23.4891079 70.8453776,23.6905189 C75.6848542,11.6424751 71.8539083,5.61845324 64.3924356,4.61505993 Z" id="Path_180" fill="#346790" fill-rule="nonzero"></path>
                    <path d="M67.4171085,5.41795768 C66.4094971,5.01605106 65.4009664,4.81555549 64.3924356,4.61505993 C59.552959,4.01265774 56.7305439,6.22085543 55.1170786,7.62615537 C55.1170786,7.62615537 61.1664244,10.0357641 67.2157701,9.03145531 C69.0296545,8.63046419 69.2319123,6.22085543 67.4171085,5.41795768 Z" id="Path_181" fill="#143549" fill-rule="nonzero"></path>
                    <path d="M66.812174,15.8592905 C64.1910972,16.6631037 61.5700205,20.2766013 65.1987086,21.8833124 C66.2072394,22.2843035 67.6184469,22.2843035 68.6269777,21.4814057 C69.43417,20.8790035 69.8368468,20.0761058 70.0381852,19.2722925 C70.4427008,18.2688992 70.4427008,16.8626838 69.6355084,16.059786 C69.0296545,15.4573838 67.8207047,15.4573838 66.812174,15.8592905 Z" id="Path_182" fill="#E8D7B9" fill-rule="nonzero"></path>
                    <path d="M65.6032242,18.2688992 C65.6032242,18.2688992 66.4094971,18.6698903 66.812174,19.0727125 C67.2157701,19.4737036 67.4171085,20.678508 67.4171085,20.678508 C67.4171085,20.678508 70.0381852,18.8713014 68.8292354,17.666497 C67.4171085,16.4616926 65.6032242,18.2688992 65.6032242,18.2688992 Z" id="Path_183" fill="#F0BF97" fill-rule="nonzero"></path>
                    <path d="M60.7637475,22.6862101 C60.7637475,21.4814057 59.9565552,20.2766013 58.3440092,19.8756102 C56.9318823,19.4737036 53.705871,18.8713014 53.1009365,19.4737036 C51.6888095,20.8790035 52.4960019,22.0838079 52.0924057,23.0872012 C51.2861327,25.2972299 50.277602,26.5011188 50.4798597,28.1078298 C51.2861327,32.7256363 57.3354785,35.9390583 62.7789703,32.9270473 C68.0229625,29.9150364 65.6032242,23.4891079 65.4009664,21.6819013 C64.5946934,17.666497 68.2233815,14.453075 68.2233815,14.453075 L66.4094971,12.0434663 C66.4094971,11.8438862 63.5861627,21.8833124 60.7637475,22.6862101 Z" id="Path_184" fill="#346790" fill-rule="nonzero"></path>
                    <path d="M62.5776319,22.0838079 C63.5861627,22.8876212 65.1987086,16.059786 65.1987086,15.8592905 C64.3924356,17.8669926 63.5861627,20.0761058 62.3762935,21.4814057 C62.5776319,21.4814057 62.3762935,21.8833124 62.5776319,22.0838079 Z" id="Path" fill="#143549"></path>
                    <path d="M52.2937441,28.1078298 C52.0924057,26.9030254 52.4960019,24.8953233 53.3022749,24.4934167 C53.705871,24.2929211 57.5368169,24.4934167 57.5368169,23.2886123 C57.5368169,22.2843035 55.3193364,22.8876212 54.3108056,21.4814057 C53.9072094,20.8790035 54.1085478,19.8756102 54.7134824,19.0727125 C54.1085478,19.0727125 53.5045326,19.0727125 53.3022749,19.2722925 C51.8910673,20.678508 52.6973403,21.8833124 52.2937441,22.8876212 C51.4874711,25.0958189 50.4798597,26.3006232 50.6802788,27.9064187 C51.4874711,32.3246451 57.1332207,35.5371516 62.1749551,32.9270473 C57.7381553,34.1318517 52.8995981,31.9227385 52.2937441,28.1078298 Z" id="Path" fill="#143549"></path>
                    <path d="M58.1417515,27.103521 C57.5368169,26.3006232 56.3269477,26.9030254 56.3269477,28.1078298 C55.7220132,27.9064187 54.7134824,28.3083254 54.7134824,29.1121386 C53.9072094,29.1121386 52.8995981,29.7145408 52.8995981,30.5174386 C51.8910673,30.5174386 51.2861327,31.3203363 51.4874711,32.7256363 C51.6888095,34.1318517 51.4874711,35.9390583 51.8910673,39.753967 C51.8910673,40.3563691 51.6888095,46.5818021 51.6888095,47.1832888 C52.8995981,46.9827932 57.1332207,46.17898 58.5453476,46.17898 C58.5453476,45.3760822 58.1417515,39.5534714 58.5453476,38.5491626 C59.3516206,36.5414605 59.3516206,33.7299451 59.1502822,31.7222429 C58.9480245,30.3160275 58.7466861,27.9064187 58.1417515,27.103521 Z" id="Path" fill="#E8D7B9"></path>
                    <path d="M58.1417515,27.103521 C57.5368169,26.3006232 56.3269477,26.9030254 56.3269477,28.1078298 C55.9242709,27.9064187 55.1170786,28.1078298 54.9157402,28.5097364 C55.7220132,28.710232 55.9242709,29.5131297 55.9242709,30.1155319 C55.5197554,31.9227385 56.5282862,36.5414605 56.9318823,39.753967 C57.1332207,41.9630802 57.5368169,43.9707823 57.3354785,46.17898 L58.5453476,46.17898 C58.5453476,45.3760822 58.1417515,39.5534714 58.5453476,38.5491626 C59.3516206,36.5414605 59.3516206,33.7299451 59.1502822,31.7222429 C58.9480245,30.3160275 58.7466861,27.9064187 58.1417515,27.103521 Z" id="Path" fill="#F0BF97"></path>
                    <path d="M57.7381553,26.7025299 L53.5045326,24.8953233 C53.1009365,24.6939122 52.6973403,24.8953233 52.4960019,25.2972299 C52.2937441,25.698221 52.8995981,26.5011188 53.3022749,26.7025299 L57.1332207,28.1078298 C57.5368169,28.3083254 57.9394937,28.1078298 58.1417515,27.7068387 C58.3440092,27.3049321 58.1417515,26.9030254 57.7381553,26.7025299 Z" id="Path" fill="#F0BF97"></path>
                    <path d="M57.9394937,39.9544625 C55.1170786,39.5534714 52.2937441,40.1558736 51.6888095,40.1558736 C51.6888095,40.1558736 51.4874711,40.1558736 51.4874711,40.3563691 C51.2861327,40.9587713 51.4874711,41.7625846 51.4874711,42.1635757 C51.4874711,42.3640713 51.6888095,42.3640713 51.8910673,42.3640713 C54.7134824,41.5611735 57.3354785,41.9630802 58.1417515,42.1635757 C58.3440092,42.1635757 58.3440092,42.1635757 58.3440092,41.9630802 L58.3440092,40.1558736 C58.1417515,39.9544625 58.1417515,39.9544625 57.9394937,39.9544625 Z" id="Path_185" fill="#143549"></path>
                    <path d="M2.69094758,9.03145531 C2.48868981,8.83187526 2.086013,8.83187526 1.88375524,9.03145531 C1.68241683,9.23286638 1.68241683,9.63477301 1.88375524,9.83526857 C1.88375524,9.83526857 3.89989737,12.2448773 4.70617036,12.4453729 C4.90842812,12.4453729 5.31202429,12.2448773 5.11068588,11.8438862 L2.69094758,9.03145531 Z" id="Path_186" fill="#E8D7B9"></path>
                    <path d="M0.875224493,0.196833542 C0.472547678,-0.204157581 0.0689515095,0.397329103 0.0689515095,0.59874017 C0.0689515095,1.60304899 3.2949628,4.61505993 3.2949628,4.61505993 C3.69855897,5.01605106 4.10215514,5.01605106 4.5057513,4.61505993 C4.90842812,4.2122378 4.90842812,3.81124668 4.5057513,3.40934005 L0.875224493,0.196833542 Z" id="Path_187" fill="#E8D7B9"></path>
                    <path d="M3.89989737,5.41795768 C3.49722056,5.21654662 3.09362439,5.21654662 2.69094758,5.41795768 C2.28735141,5.81894881 2.48868981,6.22085543 2.69094758,6.62184656 C2.69094758,6.62184656 5.91695886,9.43427745 7.12590866,9.43427745 C7.32816642,9.43427745 7.73084324,8.83187526 7.53042419,8.63046419 L3.89989737,5.41795768 Z" id="Path_188" fill="#E8D7B9"></path>
                    <path d="M3.49722056,7.22424875 C3.09362439,7.02466869 2.69094758,7.02466869 2.48868981,7.22424875 C2.28735141,7.42565981 2.28735141,8.028062 2.48868981,8.22855756 C2.48868981,8.22855756 5.5133627,10.8395774 6.52189344,10.8395774 C6.72323185,10.8395774 7.12590866,10.4376708 6.72323185,10.0357641 L3.49722056,7.22424875 Z" id="Path_189" fill="#E8D7B9"></path>
                    <path d="M51.4874711,43.9707823 C51.4874711,43.9707823 50.4798597,54.2116195 50.0762636,58.6289304 C49.8749252,61.4404458 50.277602,64.4515412 51.2861327,67.062561 C52.2937441,69.8731609 60.5614898,71.8817785 60.1578936,62.8457457 C59.9565552,56.8217238 58.5453476,43.7693712 58.5453476,43.7693712 C54.1085478,43.1678845 51.4874711,43.9707823 51.4874711,43.9707823 Z" id="Path_190" fill="#7BC3F4" fill-rule="nonzero"></path>
                    <path d="M58.3440092,43.5697912 C57.3354785,43.5697912 57.3354785,46.5818021 57.3354785,47.1832888 C56.9318823,52.6049085 60.5614898,60.2356414 56.1256093,66.4601588 C55.3193364,67.6649632 54.3108056,68.2673654 53.3022749,68.669272 C56.1256093,69.8731609 60.5614898,69.2707587 60.1578936,62.4447546 C59.7552168,56.8217238 58.3440092,43.5697912 58.3440092,43.5697912 Z" id="Path_191" fill="#3A7CFF" fill-rule="nonzero"></path>
                    <ellipse id="Oval_192" fill="#FFFFFF" cx="55.5206748" cy="40.7582758" rx="2.01650988" ry="2.00806833"></ellipse>
                    <ellipse id="Oval_193" fill="#4AF6D1" cx="55.5206748" cy="40.7582758" rx="2.01650988" ry="2.00806833"></ellipse>
                </g>
            </g>
        </g>
    </g>
</svg>