<?xml version="1.0" encoding="UTF-8"?>
<svg width="465px" height="242px" viewBox="0 0 465 242" version="1.1" xmlns="http://www.w3.org/2000/svg" xmlns:xlink="http://www.w3.org/1999/xlink">
    <!-- Generator: Sketch 64 (93537) - https://sketch.com -->
    <title>Foreground</title>
    <desc>Created with Sketch.</desc>
    <defs>
        <linearGradient x1="-32.0336468%" y1="33.4576018%" x2="79.8700598%" y2="60.3134628%" id="linearGradient-1">
            <stop stop-color="#000000" stop-opacity="0.14" offset="0%"></stop>
            <stop stop-color="#FFA000" stop-opacity="0" offset="100%"></stop>
        </linearGradient>
        <path d="M40.6303568,13.4001411 C40.6303568,12.0555033 39.8908039,10.8933913 38.8189611,10.3201317 C39.8908039,9.74687206 40.6266544,8.58292568 40.6266544,7.23737065 C40.6266544,5.32497648 39.1429205,3.77488241 37.3102361,3.77396519 L6.7266202,3.77396519 C4.89393576,3.77488241 3.40835064,5.32497648 3.40464825,7.23553622 C3.40835064,8.58200847 4.14420121,9.74503763 5.21696953,10.3182973 C4.14420121,10.8924741 3.40835064,12.0545861 3.40835064,13.3983067 C3.40464825,14.7447789 4.14420121,15.9078081 5.21696953,16.4810677 C4.14420121,17.0534102 3.40464825,18.2182738 3.40835064,19.5629116 C3.40464825,21.476223 4.89393576,23.026317 6.7266202,23.026317 L37.3102361,23.0244826 C39.1429205,23.026317 40.6266544,21.476223 40.6266544,19.5610771 C40.6303568,18.2201082 39.8908039,17.0561618 38.8189611,16.4810677 C39.8908039,15.9087253 40.6303568,14.7456961 40.6303568,13.4001411 Z" id="path-2"></path>
        <path d="M15.2890311,19.026317 L1.70530257e-13,19.026317 C1.70530257e-13,19.026317 2.55279985,24.6965428 3.31734396,25.1789981 C4.08651607,25.6614534 4.57430633,25.6623706 5.85533424,25.6623706 C7.13358536,25.6614534 15.2927335,25.6623706 15.2927335,25.6623706 L24.7292072,25.6623706 C26.0074583,25.6614534 26.4970998,25.6623706 27.2616439,25.1789981 C28.0298904,24.6965428 30.5836159,19.0244826 30.5836159,19.0244826 L15.2890311,19.026317 Z" id="path-4"></path>
        <path d="M67.4420552,2.60744789 C66.9200786,1.4897819 65.4753881,0.57314824 64.2380074,0.57314824 L1.49253471,0.57314824 C0.255154043,0.57314824 -0.331606872,1.4897819 0.191295205,2.60744789 L17.6719579,40.0437256 C18.193009,41.164158 19.636774,42.0780252 20.8778566,42.0780252 L83.6205529,42.0780252 C84.86071,42.0780252 85.4474709,41.164158 84.9236434,40.0437256 L67.4420552,2.60744789 Z" id="path-6"></path>
        <polygon id="path-8" points="41.9505301 5.2427274 -2.84217094e-14 5.2427274 1.6930042 10.9492727 40.2547444 10.9492727"></polygon>
        <polygon id="path-10" points="35.8460589 0.94927274 0.0741596715 0.94927274 5.34231402 18.6769303 30.5769774 18.6769303"></polygon>
    </defs>
    <g id="Landing" stroke="none" stroke-width="1" fill="none" fill-rule="evenodd">
        <g transform="translate(-742.000000, -222.000000)" id="Banner">
            <g transform="translate(-66.000000, -393.000000)">
                <g id="Artwork" transform="translate(788.000000, 538.000000)">
                    <g id="Foreground" transform="translate(20.000000, 77.000000)">
                        <g id="Group" transform="translate(164.000000, 0.000000)">
                            <polygon id="Rectangle" fill="url(#linearGradient-1)" points="63 26 369 244.5 126 237 61 124.40708"></polygon>
                            <rect id="Rectangle_53" fill="#FFECB3" x="28.8805152" y="137.678622" width="130.040069" height="94.9437206"></rect>
                            <polygon id="Rectangle_53" fill-opacity="0.17" fill="#FF6F00" points="28.8805152 137.678622 158.920584 137.678622 28.8805152 232.622342"></polygon>
                            <polygon id="Rectangle_53" fill-opacity="0.31" fill="#FF6F00" transform="translate(92.460292, 196.000000) scale(1, -1) translate(-92.460292, -196.000000) " points="26 158 158.920584 159.377658 132 234"></polygon>
                            <rect id="Rectangle_55" fill="#FFA000" x="28.8805152" y="132.663288" width="130.040069" height="5.01542568"></rect>
                            <g id="Group-7" transform="translate(41.000000, 103.000000)">
                                <mask id="mask-3" fill="white">
                                    <use xlink:href="#path-2"></use>
                                </mask>
                                <use id="Path_106" fill="#00BCD4" fill-rule="nonzero" xlink:href="#path-2"></use>
                                <rect id="Rectangle" fill="#00838F" mask="url(#mask-3)" x="0" y="0" width="22" height="29"></rect>
                            </g>
                            <g id="Group-8" transform="translate(47.726620, 107.000000)">
                                <mask id="mask-5" fill="white">
                                    <use xlink:href="#path-4"></use>
                                </mask>
                                <use id="Path_107" fill="#00838F" fill-rule="nonzero" xlink:href="#path-4"></use>
                                <rect id="Rectangle" fill="#00BCD4" mask="url(#mask-5)" x="15.2733798" y="0" width="17" height="28"></rect>
                            </g>
                            <path d="M76.5821442,114.358236 L49.4547121,114.358236 C49.1649998,114.358236 48.9271211,114.0105 48.9271211,113.577549 C48.9271211,113.145972 49.1649998,112.798236 49.4547121,112.798236 L76.5821442,112.798236 C76.8718565,112.798236 77.107884,113.145972 77.107884,113.577549 C77.107884,114.0105 76.8718565,114.358236 76.5821442,114.358236 Z" id="Path_108" fill="#B2EBF2" fill-rule="nonzero"></path>
                            <path d="M49.4556376,120.521007 C49.1649998,120.521007 48.9308235,120.171139 48.9308235,119.741693 C48.9308235,119.310875 49.1649998,118.961007 49.4556376,118.961007 L76.5821442,118.961007 C76.8718565,118.961007 77.107884,119.308131 77.107884,119.738949 C77.107884,120.171139 76.8718565,120.518263 76.5821442,120.518263 L49.4556376,120.521007 Z" id="Path_109" fill="#B2EBF2" fill-rule="nonzero"></path>
                            <path d="M100.294119,63.162206 C100.294119,42.7642521 83.6055834,26.2277752 63.0193537,26.2250235 C42.4340497,26.2250235 25.7436629,42.7642521 25.7436629,63.1612888 C25.7436629,72.3710489 29.1470875,80.792921 34.7710221,87.260207 C34.8385908,87.3409219 35.1579222,87.6500235 35.241226,87.737159 C43.7502503,96.4130997 47.7266202,104.135136 47.7266202,106.773965 L63.0156513,106.774882 L78.3102361,106.773965 C78.3102361,104.14064 82.3078947,96.4562088 90.7891511,87.796778 C90.8891157,87.6968015 91.1575391,87.3886171 91.2019679,87.3335842 C96.8657033,80.8562088 100.294119,72.4077375 100.294119,63.162206 Z" id="Path_110" fill="#FFECB3" fill-rule="nonzero"></path>
                            <g id="Group-6" transform="translate(28.148367, 29.000000)" fill="#FFA000" fill-rule="nonzero">
                                <path d="M21.555331,77.7748824 C20.6380632,72.7980715 16.3044124,66.2042098 9.64473329,59.2131938 L8.63953364,58.0721778 C3.06743245,51.7754939 0,43.6902399 0,35.3096425 C0.000925598204,16.2572437 15.6435352,0.756302916 34.8709867,0.757220132 C54.1002894,0.756302916 69.7401242,16.2581609 69.7401242,35.3123942 C69.7428991,43.6920743 66.6736154,51.7773283 61.1052166,58.0749294 L60.0926122,59.2177799 C53.4338587,66.2060442 49.1020591,73.196143 48.1847913,77.7767168 L21.555331,77.7748824 Z" id="Path_111"></path>
                            </g>
                            <path d="M61.8123737,79.2043039 L60.2166424,79.2043039 C60.1629577,76.3499294 60.2999462,74.2174036 60.62298,72.8021402 C60.9469394,71.3887112 61.7910849,69.4414628 63.1526399,66.9603951 C64.5151204,64.4793274 65.4110995,62.4862183 65.8378003,60.9810677 C66.2663522,59.4786689 66.4820166,57.6203904 66.4820166,55.4080668 C66.4820166,51.9905221 65.8063299,49.4690969 64.4568077,47.8502117 C63.1082112,46.2304092 61.5124799,45.420508 59.6686882,45.420508 C58.2710349,45.420508 57.0862692,45.7938147 56.1310519,46.5395108 C55.4016805,47.1045155 55.0379204,47.6952023 55.0379204,48.3134055 C55.0379204,48.7252352 55.2859807,49.3682032 55.7774734,50.2413923 C56.8946704,52.2216604 57.4528061,53.9056679 57.4528061,55.2934149 C57.4528061,56.5545861 57.0168494,57.6075494 56.1486383,58.4559737 C55.278576,59.3043979 54.1947005,59.7281515 52.8979374,59.7281515 C51.4447482,59.7281515 50.226661,59.2209313 49.2408989,58.2055738 C48.2551368,57.1892992 47.7608673,55.8464958 47.7608673,54.174412 C47.7608673,51.1420978 49.086324,48.4812559 51.7316836,46.1928034 C54.3761177,43.9034337 58.0766593,42.759666 62.8212757,42.759666 C67.8574555,42.759666 71.6885065,43.9492944 74.322759,46.3257996 C76.9542347,48.7041392 78.2722865,51.5786924 78.2722865,54.9467074 C78.2722865,57.3892521 77.598451,59.6446849 76.2507801,61.7157573 C74.8984811,63.7849953 72.2929221,66.0789511 68.427624,68.5985419 C65.8331723,70.2963076 64.1263692,71.8069614 63.3081404,73.1305033 C62.493614,74.4558796 61.9900885,76.4792568 61.8123737,79.2043039 Z" id="Path_114" fill="#FFECB3" fill-rule="nonzero"></path>
                            <path d="M61.3828961,84.8350894 C63.1211695,84.8350894 64.5993499,85.4395343 65.8202139,86.6484243 C67.0401523,87.856397 67.6501216,89.3221072 67.6501216,91.0446378 C67.6501216,92.7671684 67.0401523,94.2392992 65.8202139,95.4601129 C64.5993499,96.6809266 63.1211695,97.2908749 61.3828961,97.2908749 C59.6455483,97.2908749 58.1655168,96.6809266 56.9455783,95.4601129 C55.7256399,94.2392992 55.1184475,92.7671684 55.1184475,91.0446378 C55.1184475,89.3221072 55.7256399,87.856397 56.9455783,86.6484243 C58.1655168,85.4395343 59.6455483,84.8350894 61.3828961,84.8350894 Z" id="Path_115" fill="#FFECB3" fill-rule="nonzero"></path>
                            <path d="M63.0156513,22.4259172 C62.5824714,22.4259172 62.2279673,22.0755409 62.2279673,21.6435325 L62.2279673,0.785136406 C62.2279673,0.35312794 62.5824714,0.00275164628 63.0156513,0.00275164628 C63.4525337,0.00275164628 63.8051866,0.35312794 63.8051866,0.785136406 L63.8051866,21.6435325 C63.8051866,22.0755409 63.4525337,22.4259172 63.0156513,22.4259172 Z" id="Path_116" fill="#FF6F00" fill-rule="nonzero"></path>
                            <path d="M77.536436,24.9977893 C77.4475785,24.9977893 77.3522419,24.9821966 77.2633845,24.9491769 C76.8551957,24.7996707 76.6441593,24.349318 76.796883,23.944826 L84.0905969,4.37878645 C84.2405438,3.97429445 84.6968637,3.76700376 85.1032013,3.91650988 C85.5141669,4.06509878 85.7224265,4.51545155 85.5724796,4.92177799 L78.2787657,24.4878175 C78.1602892,24.8024224 77.8566929,24.9977893 77.536436,24.9977893 Z" id="Path_117" fill="#FF6F00" fill-rule="nonzero"></path>
                            <path d="M90.2550809,32.3960489 C90.077366,32.3960489 89.893172,32.3355127 89.7441507,32.208937 C89.4137121,31.928269 89.374837,31.4338899 89.6580701,31.106444 L103.341188,15.2578786 C103.623496,14.9304327 104.122393,14.8909925 104.452832,15.1725776 C104.786047,15.4523283 104.823997,15.9467074 104.540764,16.2741533 L90.8576453,32.1227187 C90.6984424,32.3034102 90.4790757,32.3960489 90.2550809,32.3960489 Z" id="Path_118" fill="#FF6F00" fill-rule="nonzero"></path>
                            <path d="M99.6026972,43.7053151 C99.3268689,43.7053151 99.054743,43.5613123 98.9112753,43.3054092 C98.7002389,42.9275165 98.8372274,42.4523989 99.2157971,42.2414393 L117.596326,32.0722719 C117.974896,31.864064 118.456207,31.9979774 118.669095,32.3740357 C118.881982,32.7519285 118.744994,33.2270461 118.363647,33.4370884 L99.9868204,43.6062559 C99.8627903,43.6741298 99.7322809,43.7053151 99.6026972,43.7053151 Z" id="Path_119" fill="#FF6F00" fill-rule="nonzero"></path>
                            <path d="M104.412105,57.5222484 C104.030759,57.5222484 103.692916,57.2470837 103.633677,56.8618532 C103.566109,56.4353481 103.859523,56.0354421 104.291778,55.9675682 L125.084416,52.7417215 C125.517596,52.675682 125.922082,52.9664393 125.986874,53.3929445 C126.055368,53.8203669 125.760102,54.2202728 125.329699,54.2863123 L104.53521,57.5130762 C104.493558,57.5194967 104.451906,57.5222484 104.412105,57.5222484 Z" id="Path_120" fill="#FF6F00" fill-rule="nonzero"></path>
                            <path d="M48.4994947,24.9977893 C48.1783121,24.9977893 47.8765671,24.8024224 47.7580905,24.4878175 L40.4643767,4.92177799 C40.3144298,4.51545155 40.5217638,4.06509878 40.9318038,3.91650988 C41.3372158,3.76700376 41.7944613,3.97429445 41.9444082,4.37878645 L49.2371965,23.944826 C49.3908458,24.349318 49.1798094,24.7996707 48.7734718,24.9491769 C48.680912,24.9821966 48.5892777,24.9977893 48.4994947,24.9977893 Z" id="Path_121" fill="#FF6F00" fill-rule="nonzero"></path>
                            <path d="M35.778073,32.3960489 C35.556855,32.3960489 35.3365626,32.3034102 35.1792109,32.1227187 L21.4951671,16.2741533 C21.2100828,15.9467074 21.2508092,15.4523283 21.5812477,15.1725776 C21.9126119,14.8919097 22.4096581,14.9304327 22.6928912,15.2578786 L36.3778606,31.106444 C36.6620193,31.4338899 36.621293,31.928269 36.2908544,32.208937 C36.1436843,32.3355127 35.9594902,32.3960489 35.778073,32.3960489 Z" id="Path_122" fill="#FF6F00" fill-rule="nonzero"></path>
                            <path d="M26.4332335,43.7053151 C26.3017986,43.7053151 26.169438,43.6741298 26.0491103,43.6062559 L7.66950672,33.4370884 C7.29093705,33.2270461 7.15302292,32.7519285 7.36683611,32.3740357 C7.5787981,31.9979774 8.06196036,31.864064 8.43960443,32.0722719 L26.819208,42.2414393 C27.1977776,42.4523989 27.3347662,42.9275165 27.1228042,43.3054092 C26.9765597,43.5613123 26.7099874,43.7053151 26.4332335,43.7053151 Z" id="Path_123" fill="#FF6F00" fill-rule="nonzero"></path>
                            <path d="M21.6228996,57.5222484 C21.5849501,57.5222484 21.541447,57.5194967 21.4997951,57.5130762 L0.704380233,54.2863123 C0.274902667,54.2202728 -0.0185119641,53.8203669 0.0462799102,53.3929445 C0.114774177,52.9664393 0.517409396,52.6738476 0.948738159,52.7417215 L21.7450786,55.9675682 C22.1754818,56.0354421 22.4707476,56.4353481 22.4022533,56.8618532 C22.3411639,57.2470837 22.0042461,57.5222484 21.6228996,57.5222484 Z" id="Path_124" fill="#FF6F00" fill-rule="nonzero"></path>
                        </g>
                        <g id="Group" transform="translate(77.000000, 85.000000)">
                            <path d="M80.5315472,18.3299067 C78.3483154,27.0028841 77.6051466,47.4233426 73.1674201,63.6313438 C79.3802372,69.4299277 91.210781,61.7980764 88.2529137,48.3722521 C85.2950463,34.9464277 87.8216351,19.7048572 80.5315472,18.3299067 Z" id="Path_56" fill="#212121" fill-rule="nonzero"></path>
                            <path d="M73.6190594,62.5081448 C61.1406724,65.4553894 55.4220672,87.8225417 56.4095654,105.127921 L69.422886,105.127921 L73.6190594,62.5081448 Z" id="Path_57" fill="#00BCD4" fill-rule="nonzero"></path>
                            <path d="M87.2459801,49.0915421 L93.5346874,49.7693346 L99.8215437,49.0915421 C99.8215437,52.782053 103.196807,61.1322721 113.450315,62.5081448 C105.019098,67.6925657 86.9313134,78.81574 86.9313134,78.81574 C86.9313134,78.81574 79.4172568,68.2191229 73.6190594,62.5081448 C77.7967231,61.9474674 82.9443007,61.452264 85.0747796,59.3635565 C88.174247,56.3250173 87.2459801,51.2779992 87.2459801,49.0915421 Z" id="Path_58" fill="#FFD8D8" fill-rule="nonzero"></path>
                            <path d="M87.3746233,52.1549797 C87.3376037,51.1009432 87.2459801,49.7223041 87.2459801,49.0915421 L93.5346874,49.7693346 L99.8215437,49.0915421 C99.8215437,50.7578972 100.512885,53.3750062 102.213936,55.869467 C100.480493,57.2508727 98.5064218,58.0891221 96.2954252,58.0891221 C92.4750009,58.0891221 89.6439257,56.5850683 87.3746233,52.1549797 Z" id="Path_59" fill="#D7CCC8" fill-rule="nonzero"></path>
                            <path d="M111.86495,31.5325667 C112.233295,38.5963633 105.161623,55.1096017 95.1033936,55.1096017 C86.624976,55.1096017 82.7814144,40.3743006 82.7814144,23.0218906 C82.7814144,14.1921449 110.682174,8.74213992 111.86495,31.5325667 Z" id="Path_60" fill="#FFD8D8" fill-rule="nonzero"></path>
                            <path d="M80.6490845,31.5427106 C80.5148884,28.8029534 81.0433434,26.6496943 82.1881751,26.5934421 C83.3339322,26.5371899 84.7804737,28.5954659 84.9137443,31.3361452 C85.0507169,34.074058 84.2298069,36.3416658 83.0868262,36.397918 C81.9401436,36.453248 80.7869826,34.2815455 80.6490845,31.5427106 Z" id="Path_61" fill="#FFD8D8" fill-rule="nonzero"></path>
                            <path d="M127.889817,93.1296108 C124.437737,100.232138 113.731664,130.68577 112.716401,147.747698 L75.2599539,147.747698 C75.2599539,138.151631 64.0837318,109.959152 64.2808613,97.9737523 C64.4779907,85.9892744 66.575152,75.8684953 73.6190594,62.5081448 C74.6102597,62.3246336 76.2428247,62.0489058 77.7485976,61.9428566 C80.7869826,67.6888771 86.9313134,78.81574 86.9313134,78.81574 L113.450315,62.5081448 L127.889817,93.1296108 Z" id="Path_62" fill="#00BCD4" fill-rule="nonzero"></path>
                            <path d="M85.034058,144.894514 L85.0136973,144.894514 C84.7230933,144.88437 84.4954226,144.639996 84.509305,144.350436 C85.1636267,127.071799 82.8323164,114.805138 81.5810534,108.21718 C81.1432964,105.91914 80.8554689,104.39941 80.8675003,103.563927 C80.9961434,95.83617 83.7522538,86.6338689 86.4333995,78.6515943 C86.5259486,78.3758665 86.8221055,78.2283198 87.0988271,78.3186921 C87.3718468,78.4099866 87.5217762,78.7087686 87.4292272,78.9808078 C84.7749207,86.8893091 82.0456495,95.9957048 81.9188574,103.579603 C81.908677,104.310882 82.2029829,105.866577 82.6139006,108.020758 C83.8725676,114.651136 86.2186858,126.991571 85.5578856,144.391933 C85.5477052,144.673194 85.3135561,144.894514 85.034058,144.894514 Z" id="Path_63" fill="#00838F" fill-rule="nonzero"></path>
                            <polygon id="Path_64" fill="#B2EBF2" fill-rule="nonzero" points="83.5856656 72.7303622 75.2599539 74.8863878 74.3576008 62.1614101 77.7485976 61.9428566"></polygon>
                            <path d="M76.8971464,72.0387372 C76.8971464,71.5389229 77.3025112,71.1350139 77.8050525,71.1350139 C78.3038919,71.1350139 78.7092566,71.5389229 78.7092566,72.0387372 C78.7092566,72.5367072 78.3038919,72.9406162 77.8050525,72.9406162 C77.3025112,72.9406162 76.8971464,72.5367072 76.8971464,72.0387372 Z" id="Path_65" fill="#00838F" fill-rule="nonzero"></path>
                            <polygon id="Path_66" fill="#B2EBF2" fill-rule="nonzero" points="96.0834879 73.188679 101.594783 79.7664938 118.137924 62.5081448 113.450315 62.5081448"></polygon>
                            <path d="M101.92796,76.5001795 C102.218564,76.0944262 102.125089,75.5309823 101.716948,75.2395777 C101.311583,74.948173 100.745183,75.0431562 100.455505,75.4498317 C100.16305,75.8546628 100.258375,76.4181066 100.664665,76.7095113 C101.07003,77.000916 101.638281,76.9059328 101.92796,76.5001795 Z" id="Path_67" fill="#FFAF6D" fill-rule="nonzero"></path>
                            <path d="M88.6286628,84.9140281 C88.6286628,84.4142137 89.036804,84.0103047 89.5356434,84.0103047 C90.0354082,84.0103047 90.4435494,84.4142137 90.4435494,84.9140281 C90.4435494,85.4119981 90.0354082,85.8159071 89.5356434,85.8159071 C89.036804,85.8159071 88.6286628,85.4119981 88.6286628,84.9140281 Z" id="Path_68" fill="#00838F" fill-rule="nonzero"></path>
                            <path d="M86.9313134,94.8300862 C86.9313134,94.3293497 87.3357527,93.9263628 87.8373685,93.9263628 C88.3362078,93.9263628 88.7443491,94.3293497 88.7443491,94.8300862 C88.7443491,95.327134 88.3362078,95.731043 87.8373685,95.731043 C87.3357527,95.731043 86.9313134,95.327134 86.9313134,94.8300862 Z" id="Path_69" fill="#00838F" fill-rule="nonzero"></path>
                            <path d="M85.0109208,104.845738 C85.0109208,104.347768 85.4153601,103.941093 85.9188269,103.941093 C86.4176662,103.941093 86.8221055,104.347768 86.8221055,104.845738 C86.8221055,105.342786 86.4176662,105.749462 85.9188269,105.749462 C85.4153601,105.749462 85.0109208,105.342786 85.0109208,104.845738 Z" id="Path_70" fill="#00838F" fill-rule="nonzero"></path>
                            <path d="M86.9313134,118.87927 C86.9313134,118.3813 87.3357527,117.977391 87.8373685,117.977391 C88.3362078,117.977391 88.7443491,118.3813 88.7443491,118.87927 C88.7443491,119.379085 88.3362078,119.782994 87.8373685,119.782994 C87.3357527,119.782994 86.9313134,119.379085 86.9313134,118.87927 Z" id="Path_71" fill="#00838F" fill-rule="nonzero"></path>
                            <path d="M87.7253841,130.029188 C87.7253841,129.530295 88.1298234,129.12362 88.6286628,129.12362 C89.1302786,129.12362 89.5356434,129.530295 89.5356434,130.029188 C89.5356434,130.529002 89.1302786,130.932911 88.6286628,130.932911 C88.1298234,130.932911 87.7253841,130.529002 87.7253841,130.029188 Z" id="Path_72" fill="#00838F" fill-rule="nonzero"></path>
                            <path d="M113.731664,136.221537 C104.227803,136.949126 99.0755984,132.011846 95.3014486,132.011846 C91.5282242,132.011846 82.3140418,144.371646 85.0331326,144.371646 C86.6693996,144.371646 89.6467022,141.665086 92.0437223,139.488773 C91.2524281,141.795112 90.6499338,144.371646 91.5282242,144.371646 C92.3195185,144.371646 94.0335267,141.743471 95.3282878,139.540414 C95.7299506,142.025654 96.4620135,144.808753 97.2662647,144.371646 C97.8150805,144.07563 98.0806962,142.055163 98.2111904,139.961845 C99.7549084,142.039486 101.81505,144.259141 104.35367,144.259141 L113.731664,144.259141 L113.731664,136.221537 Z" id="Path_73" fill="#FFD8D8" fill-rule="nonzero"></path>
                            <path d="M113.814033,62.5265881 C117.112481,62.7045663 130.95319,62.6464698 136.613489,72.4786107 C142.903122,83.3979861 169.674783,119.205717 168.409637,130.539146 C167.374014,139.822597 125.110569,145.521587 113.731664,145.521587 L113.731664,134.025858 C118.424826,133.829436 144.832769,125.884048 150.11732,123.208843 C148.342229,120.951379 125.079102,89.0960539 121.677925,84.9140281 C118.274897,80.7301579 110.631272,62.3541429 113.814033,62.5265881 Z" id="Path_74" fill="#00BCD4" fill-rule="nonzero"></path>
                            <path d="M113.731664,146.045378 C113.439209,146.045378 113.206911,145.810226 113.206911,145.521587 L113.206911,134.025858 C113.206911,133.745519 113.429029,133.5159 113.711304,133.502067 C116.423916,133.390485 126.662616,130.588943 135.377034,127.880539 C135.656532,127.792933 135.948987,127.94878 136.035058,128.223585 C136.122054,128.498391 135.966571,128.794406 135.690775,128.88109 C127.61402,131.391228 117.746442,134.133751 114.257343,134.510917 L114.257343,145.521587 C114.257343,145.810226 114.021343,146.045378 113.731664,146.045378 Z" id="Path_75" fill="#00838F" fill-rule="nonzero"></path>
                            <path d="M125.317879,145.199751 C125.040232,145.199751 124.808859,144.98212 124.793126,144.704548 L124.062914,131.619003 C124.046255,131.330365 124.269298,131.08138 124.558051,131.065703 C124.843102,131.048182 125.098538,131.269502 125.113345,131.560906 L125.845408,144.646451 C125.860216,144.935089 125.637173,145.180386 125.347494,145.196063 L125.317879,145.199751 Z" id="Path_76" fill="#00838F" fill-rule="nonzero"></path>
                            <path d="M118.253611,142.99024 C118.253611,142.493192 118.658975,142.086517 119.159666,142.086517 C119.660356,142.086517 120.065721,142.493192 120.065721,142.99024 C120.065721,143.48821 119.660356,143.894885 119.159666,143.894885 C118.658975,143.894885 118.253611,143.48821 118.253611,142.99024 Z" id="Path_77" fill="#00838F" fill-rule="nonzero"></path>
                            <path d="M65.9708068,110.238569 C65.7320302,110.238569 65.51454,110.076268 65.4580851,109.833738 C64.2642025,104.642862 63.7070572,100.761462 63.7542573,97.9636085 C63.8940063,89.478753 65.0082967,82.5532814 67.3719992,75.5153055 C67.4645483,75.2395777 67.7644072,75.0938753 68.0374268,75.1824033 C68.313223,75.2736978 68.4603759,75.5724798 68.3678269,75.8472855 C66.042995,82.7801344 64.9425869,89.606012 64.8065398,97.9811296 C64.7621163,100.693222 65.3109321,104.494393 66.4835284,109.60043 C66.5501638,109.879846 66.3706186,110.162951 66.088344,110.225659 C66.0503989,110.235802 66.0096774,110.238569 65.9708068,110.238569 Z" id="Path_78" fill="#00838F" fill-rule="nonzero"></path>
                            <path d="M82.7786379,26.7400666 C84.9304031,26.4661831 84.1613206,16.433932 93.5346874,15.5237535 C95.2088995,23.1860363 102.213936,28.8130972 110.283287,28.1426821 C112.896872,50.4932354 99.8456064,48.2228611 96.5379037,61.5260373 C93.7456992,72.7432725 100.694281,78.6866366 100.694281,78.6866366 C98.1621394,82.9599569 98.7535278,87.8225417 101.564242,89.8863507 C99.4920691,93.1268443 93.9789228,109.630861 109.973248,111.989763 C125.964797,114.346821 126.998569,103.226414 124.78202,94.109874 C122.513643,84.7867691 133.753724,82.0276464 130.74588,69.3958075 C127.995322,57.839215 120.701533,58.4948755 119.555775,50.590985 C118.274897,41.7492511 124.897706,22.9674828 116.059273,9.75375675 C110.143538,0.912022825 102.250956,-1.64883399 92.9877226,1.01069466 C81.3533827,4.35170446 77.2368014,24.5139563 82.7786379,26.7400666 Z" id="Path_79" fill="#212121" fill-rule="nonzero"></path>
                            <rect id="Rectangle_80" fill="#FF6F00" x="82.1604104" y="145.078947" width="6.98560155" height="3.91275313"></rect>
                            <path d="M18.6680669,144.303405 L85.9188269,144.303405 L85.9188269,145.227416 C85.9188269,146.618966 84.7851011,147.747698 83.3913126,147.747698 L21.1937302,147.747698 C19.7990161,147.747698 18.6680669,146.618966 18.6680669,145.227416 L18.6680669,144.303405 Z" id="Path_81" fill="#FF6F00" fill-rule="nonzero"></path>
                            <path d="M85.9188269,144.303405 L112.02506,144.303405 L112.02506,145.227416 C112.02506,146.618966 110.895962,147.747698 109.499397,147.747698 L88.4444902,147.747698 C87.0479252,147.747698 85.9188269,146.618966 85.9188269,145.227416 L85.9188269,144.303405 Z" id="Path_82" fill="#FF6F00" fill-rule="nonzero"></path>
                            <g id="Group-5" transform="translate(0.042854, 103.000000)">
                                <mask id="mask-7" fill="white">
                                    <use xlink:href="#path-6"></use>
                                </mask>
                                <use id="Path_83" fill="#FFA000" fill-rule="nonzero" xlink:href="#path-6"></use>
                                <polygon id="Rectangle" fill="#FFECB3" opacity="0.501627604" mask="url(#mask-7)" points="53.9571461 -9 87.9571461 -10 87.9571461 49 42.9571461 42"></polygon>
                                <polygon id="Rectangle" fill-opacity="0.6" fill="#FF6F00" opacity="0.798804874" mask="url(#mask-7)" points="0.457146134 1 87.9571461 -10 42.4571461 43"></polygon>
                            </g>
                            <path d="M84.9664972,143.043726 L67.4849091,105.607448 C66.9629325,104.489782 65.518242,103.573148 64.2808613,103.573148 L66.0050499,103.573148 C67.2461325,103.573148 68.6898976,104.489782 69.2100232,105.607448 L86.0761602,141.720416 C86.5972113,142.839005 85.9188269,145.078025 83.6634068,145.078025 C84.7906541,145.078025 85.4903248,144.164158 84.9664972,143.043726 Z" id="Path_84" fill="#FF6F00" fill-rule="nonzero"></path>
                        </g>
                        <g id="Group" transform="translate(0.000000, 132.000000)">
                            <path d="M73.446342,8.56766047 C78.8600613,8.02514654 80.158093,3.08347203 80.6763785,0.0913416311 C79.0352956,0.382896736 72.4561292,1.94862146 73.446342,8.56766047 Z" id="Path_85" fill="#F8BBD0" fill-rule="nonzero"></path>
                            <path d="M50.3024369,50.7988639 C50.2634959,50.7988639 50.2236278,50.796096 50.1846868,50.7859469 C49.8991199,50.7195166 49.7238856,50.4399559 49.7897143,50.1567045 C52.3125317,39.2529127 59.8874738,22.3334901 73.5761452,7.55644403 C73.7708499,7.34331355 74.1055567,7.32947391 74.3197319,7.52599682 C74.5320528,7.72159708 74.5450331,8.05467111 74.3503284,8.26780158 C60.8016589,22.8926116 53.3110889,39.6173565 50.8133051,50.3919784 C50.7586023,50.6364788 50.5434999,50.7988639 50.3024369,50.7988639 Z" id="Path_86" fill="#F8BBD0" fill-rule="nonzero"></path>
                            <path d="M50.0697183,42.4323395 C48.2404208,31.6512591 40.1889156,31.1308886 34.0594245,30.4896519 C34.874403,33.7465808 36.8038344,45.3146754 50.0697183,42.4323395 Z" id="Path_87" fill="#F8BBD0" fill-rule="nonzero"></path>
                            <path d="M53.6328153,32.5748245 C54.3717662,23.8281714 48.2144602,21.8232687 43.5786327,20.1080758 C43.5563807,22.80127 42.7358392,32.1780881 53.6328153,32.5748245 Z" id="Path_88" fill="#F8BBD0" fill-rule="nonzero"></path>
                            <path d="M59.5722375,22.8188002 C61.9587615,15.6581699 57.2172371,12.7518453 53.6921539,10.3889572 C53.1284373,12.633747 50.5472086,20.3045987 59.5722375,22.8188002 Z" id="Path_89" fill="#F8BBD0" fill-rule="nonzero"></path>
                            <path d="M66.0633231,13.8774694 C68.7326326,10.0152869 66.410083,7.46417975 64.7152245,5.44728273 C63.9873996,6.6900825 61.1150409,10.8244446 66.0633231,13.8774694 Z" id="Path_90" fill="#F8BBD0" fill-rule="nonzero"></path>
                            <path d="M55.715229,43.427871 C62.0338619,36.1122368 68.3571306,39.3719336 73.2813065,41.6647008 C71.1766409,43.7554092 64.4203859,51.6218612 55.715229,43.427871 Z" id="Path_91" fill="#F8BBD0" fill-rule="nonzero"></path>
                            <path d="M59.7910486,32.7787286 C64.185813,25.7020588 70.0149025,27.63315 74.5181453,28.9294631 C73.009647,30.9943375 68.3126266,38.5978363 59.7910486,32.7787286 Z" id="Path_92" fill="#F8BBD0" fill-rule="nonzero"></path>
                            <path d="M66.4861106,20.9679789 C70.7158396,17.1491606 74.1769484,19.5129713 76.8870532,21.2115566 C75.5046494,22.2818221 70.9754459,26.3912729 66.4861106,20.9679789 Z" id="Path_93" fill="#F8BBD0" fill-rule="nonzero"></path>
                            <path d="M71.558633,13.3275744 C73.5733637,10.6878935 75.8059782,11.6760439 77.5425592,12.3615674 C76.8666555,13.1199797 74.7165587,15.9561835 71.558633,13.3275744 Z" id="Path_94" fill="#F8BBD0" fill-rule="nonzero"></path>
                            <path d="M46.6150997,78.9459259 C52.7390278,76.9908459 58.7841468,68.1860663 57.5899577,62.0098958 C56.3976228,55.8281894 50.4081337,55.3456473 50.6974094,51.8202294 C50.9848307,48.2957341 56.7712705,43.4204899 55.0625045,38.9096896 C52.0223289,30.8919242 39.8430829,38.1429734 36.9957577,32.4641074 C34.1484324,26.783396 41.1930359,23.1721724 39.367447,17.4480968 C37.540931,11.7267892 27.8390712,18.2932376 23.0734406,12.7121716 C18.3068827,7.13018308 6.0219399,-2.87864534 1.06624032,4.87063102 C-2.85010674,10.9960562 6.28247341,12.4307656 6.54115258,15.5557566 C6.83320971,19.1180802 2.33738422,20.0324191 3.52601038,23.8881431 C5.20417993,29.3345032 12.7661417,28.7320175 13.4003229,33.428269 C14.0372856,38.1254432 8.09600912,40.1810913 12.1634842,44.946541 C17.19892,50.8440734 26.1599745,42.4876981 28.4917957,52.3895 C30.8254713,62.2949924 17.8776051,59.8776684 18.4515206,66.1950033 C19.0773573,73.0880672 31.3919694,70.6319922 30.6993768,75.2959512 C29.7555223,81.6381974 37.1144348,81.9786526 46.6150997,78.9459259 Z" id="Path_95" fill="#00838F" fill-rule="nonzero"></path>
                            <path d="M48.1959169,78.8149106 C47.9428007,78.8149106 47.7184266,78.6349953 47.6767042,78.377578 C47.5765703,77.7926225 47.6553794,76.9936139 47.7480959,76.0682032 C47.9400192,74.1048195 48.1820094,71.6616615 46.8765604,70.1319198 C46.1153575,69.2397243 45.2252786,68.4693176 44.2795698,67.6518561 C42.6987526,66.283577 41.0604512,64.868243 40.0090455,62.8024459 C37.8895452,58.6330234 38.3095512,54.9756676 38.6813445,51.7510312 C38.947441,49.4305847 39.1801596,47.425682 38.3976319,45.6874231 C37.759742,44.2702439 36.756549,44.0100586 35.3695094,43.6483827 C34.0010131,43.2968558 32.3005916,42.8539873 30.7438807,41.0326905 C29.2288923,39.2575259 29.1667722,37.994428 29.1055793,36.7765395 C29.0416049,35.4922209 28.9831934,34.2807909 27.2187975,32.2149938 C25.726061,30.4675085 24.5142557,30.1658043 23.1133087,29.8142774 C21.7253419,29.4692091 20.1519421,29.0780085 18.3235717,27.1303097 C14.930146,23.5153955 14.5425908,19.9687568 14.2588782,17.3825892 C14.1040415,15.9700232 13.9816557,14.8563934 13.4225749,14.2640567 C12.0920924,12.8561039 10.717106,13.2906686 10.6605489,13.3100441 C10.3851807,13.3986178 10.0866334,13.2565309 9.99298972,12.9843513 C9.89934601,12.7121716 10.0402752,12.4160033 10.313789,12.3218938 C10.3972339,12.2932918 12.3730236,11.6271438 14.1902679,13.545318 C14.9913389,14.3932267 15.1294866,15.6609378 15.305648,17.2672588 C15.574526,19.7104168 15.9398292,23.0549967 19.0931191,26.4152616 C20.7091685,28.134145 22.0016372,28.45707 23.3682792,28.7975251 C24.8146574,29.1601237 26.3101753,29.5310261 28.02265,31.5359288 C30.0197645,33.8748281 30.0930105,35.3898075 30.1579121,36.7230263 C30.2144692,37.8634127 30.263609,38.8487951 31.546806,40.3536254 C32.8874873,41.9239634 34.2837986,42.286562 35.6356059,42.6334756 C37.0523147,43.0006875 38.5135276,43.3808163 39.3591025,45.2602395 C40.2575259,47.260529 40.0016282,49.4988603 39.7281144,51.8700521 C39.3748643,54.9507562 38.9715473,58.4411137 40.9501185,62.3309755 C41.9078805,64.2113214 43.4645913,65.5574571 44.9721624,66.8639192 C45.9039637,67.6675411 46.8645072,68.5016101 47.6794857,69.4528548 C49.2751375,71.3212063 48.997915,74.1269629 48.7957929,76.1724618 C48.7114209,77.0222158 48.6409563,77.7557168 48.7142024,78.2041211 C48.7651965,78.4901404 48.5704917,78.7604747 48.2830704,78.8075295 C48.2534011,78.8121427 48.2255861,78.8149106 48.1959169,78.8149106 Z" id="Path_96" fill="#B2EBF2" fill-rule="nonzero"></path>
                            <path d="M43.5211484,79.5151965 C38.1417342,60.3020841 51.3121201,47.0187966 74.7026512,43.9131811 C76.0748562,62.2165678 65.1296675,83.0895144 43.5211484,79.5151965 Z" id="Path_97" fill="#FFA000" fill-rule="nonzero"></path>
                            <path d="M43.5211484,80.0383349 C43.3857823,80.0383349 43.2550519,79.9903575 43.1521366,79.8897894 C42.9444515,79.6877307 42.9379613,79.3555793 43.1437921,79.1479847 C45.8019755,76.4409509 49.8842852,71.5094254 54.2039493,66.2900355 C59.457269,59.9413308 65.4133801,52.7465627 70.3023238,47.7292315 C70.5025915,47.5188689 70.8372983,47.5142557 71.0440562,47.7153919 C71.2554499,47.9183733 71.2610129,48.2514473 71.0570365,48.4590419 C66.1986893,53.4459259 60.2592671,60.6213185 55.0170734,66.9552609 C50.6816476,72.194949 46.5863576,77.143082 43.8975776,79.8824083 C43.7918807,79.9866669 43.6574417,80.0383349 43.5211484,80.0383349 Z" id="Path_98" fill="#FFECB3" fill-rule="nonzero"></path>
                            <path d="M65.4133801,67.2191367 L65.3447699,67.2145235 L55.5446306,65.9329727 C55.2572093,65.8932991 55.05416,65.6312685 55.0912467,65.3424814 C55.1283333,65.0573848 55.3972113,64.8544034 55.6809239,64.8913091 L65.4819904,66.1756278 C65.7694117,66.2125335 65.9715338,66.4773319 65.9353743,66.7633512 C65.9010692,67.0281496 65.6739136,67.2191367 65.4133801,67.2191367 Z" id="Path_99" fill="#FFECB3" fill-rule="nonzero"></path>
                            <path d="M59.2866705,61.4249403 C59.0233555,61.4249403 58.7971271,61.2302627 58.7637492,60.9636189 L57.7438671,52.6884362 C57.709562,52.399649 57.9144656,52.1385411 58.2009597,52.1044034 C58.488381,52.0610391 58.7544775,52.2714017 58.7887827,52.5601889 L59.8086647,60.8381395 C59.8457513,61.1232361 59.6408477,61.3852667 59.3506449,61.4194044 L59.2866705,61.4249403 Z" id="Path_100" fill="#FFECB3" fill-rule="nonzero"></path>
                            <path d="M66.0976283,54.0620486 C65.8296774,54.0620486 65.6006676,53.827569 65.5747069,53.5145758 C65.5506006,53.1824847 65.7629215,52.8896504 66.0531243,52.8588816 L69.6839044,52.4949607 C69.9722529,52.4673748 70.2281506,52.7092814 70.2550384,53.0392505 C70.2782175,53.3713416 70.0640423,53.6641759 69.7756938,53.6949447 L66.1449137,54.0620486 L66.0976283,54.0620486 Z" id="Path_101" fill="#FFECB3" fill-rule="nonzero"></path>
                            <path d="M50.6770117,71.884941 C50.4424389,71.884941 50.2291908,71.7280918 50.1679979,71.4918952 L47.4755093,61.1232361 C47.4031904,60.8418301 47.5710073,60.5567335 47.8537928,60.4838447 C48.1375054,60.4072654 48.4212181,60.5807222 48.4953913,60.8612056 L51.1878799,71.2298647 C51.261126,71.5094254 51.0905275,71.7963673 50.8095964,71.8655655 C50.7632381,71.8794052 50.7215157,71.884941 50.6770117,71.884941 Z" id="Path_102" fill="#FFECB3" fill-rule="nonzero"></path>
                            <g id="Group-4" transform="translate(23.984844, 72.000000)">
                                <mask id="mask-9" fill="white">
                                    <use xlink:href="#path-8"></use>
                                </mask>
                                <use id="Path_104" fill="#E91E63" fill-rule="nonzero" xlink:href="#path-8"></use>
                                <rect id="Rectangle" fill="#AD1457" mask="url(#mask-9)" x="21.0151558" y="0" width="23" height="14"></rect>
                            </g>
                            <path d="M27.0741597,82.9492727 C27.0741597,82.9492727 58.2686428,83.826706 58.2686428,87.734098 C58.2686428,90.2058579 57.5769774,100.67693 57.5769774,100.67693 L62.8460589,82.9492727 L27.0741597,82.9492727 Z" id="Path_105" fill="#AD1457" fill-rule="nonzero"></path>
                            <g id="Group-2" transform="translate(27.000000, 82.000000)">
                                <mask id="mask-11" fill="white">
                                    <use xlink:href="#path-10"></use>
                                </mask>
                                <use id="Path_103" fill="#AD1457" fill-rule="nonzero" xlink:href="#path-10"></use>
                                <rect id="Rectangle" fill="#E91E63" mask="url(#mask-11)" x="-6" y="-6" width="24" height="31"></rect>
                            </g>
                        </g>
                    </g>
                </g>
            </g>
        </g>
    </g>
</svg>