<?xml version="1.0" encoding="UTF-8"?>
<svg width="265px" height="257px" viewBox="0 0 265 257" version="1.1" xmlns="http://www.w3.org/2000/svg" xmlns:xlink="http://www.w3.org/1999/xlink">
    <!-- Generator: Sketch 64 (93537) - https://sketch.com -->
    <title>error</title>
    <desc>Created with Sketch.</desc>
    <g id="Utitlities" stroke="none" stroke-width="1" fill="none" fill-rule="evenodd">
        <g id="Error-(Dark)" transform="translate(-241.000000, -232.000000)">
            <g id="Container" transform="translate(185.000000, 194.000000)">
                <g id="Illustartion">
                    <g id="error" transform="translate(56.000000, 39.000000)">
                        <path d="M70.9602448,9.5503054 L82.6459035,44.2270463 C83.8265196,47.7302551 81.9585346,51.5338726 78.4751939,52.7210906 L43.486025,64.6439234 C40.0026843,65.8311414 36.220218,63.9527108 35.0396019,60.4498916 L23.3539433,25.7727611 C22.1737146,22.2699419 24.0413122,18.4663244 27.5250403,17.2791064 L62.5138218,5.355884 C65.9971624,4.16905561 69.7796287,6.04748623 70.9602448,9.5503054 L70.9602448,9.5503054 Z" id="Path" fill="#F8BBD0"></path>
                        <path d="M74.060674,4.54336772 L88.6446025,47.5797179 C89.8296804,51.0777636 87.9544093,54.8757752 84.4563674,56.0608544 L41.4204532,70.6444097 C37.9224114,71.829878 34.124793,69.9546049 32.939326,66.4565592 L18.3553975,23.420209 C17.1703196,19.9225523 19.0455907,16.1245408 22.5436326,14.9390725 L65.5795468,0.35540048 C69.0775886,-0.829717643 72.8755961,1.04571107 74.0610631,4.54375678 L74.060674,4.54336772 Z" id="Path" stroke="#F8BBD0" stroke-width="0.5"></path>
                        <path d="M113.069917,163.124977 C112.38373,164.995675 116.920975,169.538014 119.124555,171.741587 C120.772033,173.399277 122.274099,174.594795 122.606581,176.694221 C122.939064,178.794041 121.962053,180.399855 121.504595,181.283328 C118.116104,187.831951 118.906044,197.42046 122.243051,202.924086 C122.533875,203.41259 125.002341,207.429876 127.008632,206.962201 C129.014531,206.494133 129.508538,201.801274 129.575742,201.094653 C129.84613,198.246554 129.056189,197.222779 129.030251,194.858075 C128.999203,191.266805 130.797202,188.834504 131.961284,186.786954 C134.736686,181.901916 137.787192,172.359782 134.715857,166.975629 C130.41245,159.435063 114.166402,160.110637 113.069917,163.124977 Z" id="Path" fill="#FFECB3"></path>
                        <path d="M129.999252,200 C127.204152,202.70464 124.127373,202.110985 122,201.090989 C122.278687,201.753334 122.603011,202.404934 122.964743,203.0243 C123.24156,203.496307 125.596371,207.424328 127.500795,206.962298 C129.405218,206.500268 129.885159,201.92295 129.9495,201.232975 C129.982792,200.865347 130,200.492346 130,200.122031 L130,200 L129.999252,200 Z" id="Path" fill="#E91E63"></path>
                        <path d="M124,201.000454 C124.397722,202.008468 124.674715,203.016029 125,204 C124.840547,203.487827 124.720273,202.959323 124.645103,202.428096 C124.376765,201.978527 124.159453,201.497656 124,201 L124,201.000454 Z" id="Path" fill="#212121"></path>
                        <path d="M127.740573,201 C127.680995,201.854578 127.601056,202.676122 127.61086,203.497666 C127.61086,203.910952 127.61086,204.323878 127.660633,204.737163 C127.710407,205.15009 127.750377,205.568043 127.740573,206 C127.741327,205.991023 127.741327,205.982406 127.741327,205.973788 C127.741327,205.554039 127.829563,205.133573 128,204.722442 C127.343891,204.104488 127,203.421185 127,202.728546 C127,202.13465 127.251885,201.545781 127.740573,201 L127.740573,201 Z" id="Path" fill="#212121"></path>
                        <path d="M134.949228,167.02774 C130.59915,159.421482 114.17691,160.102906 113.068534,163.143348 C112.543347,164.60054 115.138297,167.656838 117.376502,170 L136,170 C135.814873,168.959035 135.458525,167.952954 134.948433,167.027344 L134.949228,167.02774 Z" id="Path" fill="#FFECB3"></path>
                        <path d="M78.1168198,161.564245 C76.5631372,163.147689 76.4233175,164.89116 79.0336766,182.933112 C80.2583717,190.186749 82.4833455,197.271752 85.6122515,203.930278 C86.036802,204.814925 87.0312059,206.765375 89.0873777,207.583116 C90.1699032,208.01781 92.0188912,208.317909 93.1065082,207.401961 C94.4839475,206.243038 93.9869414,203.718213 93.4742692,200.825601 C92.7696877,196.826103 92.3345626,192.780045 91.6456471,188.77507 C90.9931552,184.961814 89.9055383,178.618647 90.7342734,171.245674 C91.4231889,165.109094 92.8730838,163.292848 91.464704,161.383872 C89.1586583,158.263153 81.5711885,158.087476 78.1168198,161.564245 Z" id="Path" fill="#FFECB3"></path>
                        <path d="M93.5726742,201 C90.5307204,204.0296 87.169812,203.097605 85,201.894289 C85.2484166,202.506603 85.5068006,203.124655 85.7908696,203.736968 C86.2064308,204.663636 87.1797793,206.707141 89.1924141,207.563314 C90.2520184,208.018656 92.0568727,208.33301 93.1264443,207.373554 C94.3988128,206.230077 94.0338551,203.81279 93.5726742,201 Z" id="Path" fill="#E91E63"></path>
                        <path d="M89.5259015,205.795195 C89.6162415,206.202703 89.7767631,206.608523 90,207 C88.4694458,204.144073 89.0226851,204.935886 89.5259015,205.795195 Z" id="Path" fill="#212121"></path>
                        <path d="M92,206.000641 C92.206993,206.339206 92.5440559,206.674568 93,207 C92.7328671,206.663677 92.3958042,206.328956 92.0027972,206 L92,206.000641 Z" id="Path" fill="#212121"></path>
                        <path d="M78.1169337,162.44671 C77.0857414,163.434129 76.6888591,164.500318 77.2662488,170 L90.9076159,170 C91.6296453,165.478031 92.6604477,163.907866 91.4234069,162.273865 C89.1083901,159.297048 81.5555406,159.129429 78.1169337,162.44671 Z" id="Path" stroke="#FFECB3" stroke-width="0.5" fill="#FFECB3"></path>
                        <rect id="Rectangle" fill="#00838F" x="217" y="167" width="9" height="88"></rect>
                        <path d="M226,178 C225.333036,178.643353 224.609821,179.394904 223.786161,180.264773 C222.339732,181.777994 221.130357,183.321962 217.409821,188.98331 L217,189.606424 L217,229 L218.345982,228.027382 C221.154464,225.989904 223.733929,223.639506 226,221.046246 L226,178 Z" id="Path" fill="#00838F"></path>
                        <rect id="Rectangle" fill="#00BCD4" x="0" y="151" width="264" height="16"></rect>
                        <rect id="Rectangle" fill="#00838F" x="38" y="167" width="9" height="88"></rect>
                        <rect id="Rectangle" fill="#00838F" x="38" y="167" width="9" height="3"></rect>
                        <rect id="Rectangle" fill="#00838F" x="127" y="167" width="9" height="88"></rect>
                        <rect id="Rectangle" stroke="#00838F" stroke-width="0.5" fill="#00838F" x="127" y="167" width="9" height="3"></rect>
                        <path d="M37.9996446,177.99359 C36.9914712,177.336081 35.9513149,177 34.9111585,177 C34.6073205,177 34.3020611,177.031136 34,177.086996 C35.2128643,177.690476 36.4477612,178 37.6826581,178 C37.7860697,178 37.899076,177.99359 38,177.99359 L37.9996446,177.99359 Z" id="Path" fill="#FDA01F"></path>
                        <path d="M37.9996446,181.994505 C36.9914712,181.336081 35.9513149,181 34.9111585,181 C34.6073205,181 34.3020611,181.032051 34,181.086996 C35.2128643,181.690476 36.4477612,182 37.6826581,182 C37.7860697,182 37.899076,181.994505 38,181.994505 L37.9996446,181.994505 Z" id="Path" fill="#FDA01F"></path>
                        <path d="M37.9996446,203.993596 C36.9914712,203.336688 35.9513149,203 34.9111585,203 C34.6073205,203 34.3020611,203.032022 34,203.087832 C35.2128643,203.690759 36.4477612,204 37.6826581,204 C37.7860697,204 37.899076,203.993596 38,203.993596 L37.9996446,203.993596 Z" id="Path" fill="#FDA01F"></path>
                        <path d="M37.9996446,206.994505 C36.9914712,206.336081 35.9513149,206 34.9111585,206 C34.6073205,206 34.3020611,206.031136 34,206.086996 C35.2128643,206.690476 36.4477612,207 37.6826581,207 C37.7860697,207 37.899076,206.994505 38,206.994505 L37.9996446,206.994505 Z" id="Path" fill="#FDA01F"></path>
                        <path d="M37.9996446,229.993596 C36.9914712,229.336688 35.9513149,229 34.9111585,229 C34.6073205,229 34.3020611,229.032022 34,229.087832 C35.2128643,229.690759 36.4477612,230 37.6826581,230 C37.7860697,230 37.899076,229.993596 38,229.993596 L37.9996446,229.993596 Z" id="Path" fill="#FDA01F"></path>
                        <path d="M37.9996446,232.99359 C36.9914712,232.336081 35.9513149,232 34.9111585,232 C34.6073205,232 34.3020611,232.031136 34,232.086996 C35.2128643,232.691392 36.4477612,233 37.6826581,233 C37.7860697,233 37.899076,232.994505 38,232.994505 L37.9996446,232.99359 Z" id="Path" fill="#FDA01F"></path>
                        <path d="M38,250.994555 C36.9885384,250.336661 35.9415371,250 34.8966681,250 C34.598845,250 34.2964016,250.03176 34,250.082577 C35.2222124,250.686933 36.4639716,251 37.7078632,251 C37.8041759,251 37.9058196,250.993648 38,250.993648 L38,250.994555 Z" id="Path" fill="#FDA01F"></path>
                        <path d="M38,253.994555 C36.9885384,253.337568 35.9415371,253 34.8966681,253 C34.598845,253 34.2964016,253.03176 34,253.082577 C35.2222124,253.686933 36.4639716,254 37.7078632,254 C37.8041759,254 37.9058196,253.994555 38,253.994555 L38,253.994555 Z" id="Path" fill="#FDA01F"></path>
                        <path d="M217,177 C215.857143,176.338832 214.667857,176 213.475,176 C213.317857,176 213.157143,176.006186 213,176.017182 C214.307143,176.618557 215.657143,176.949141 217,176.997251 L217,177 Z" id="Path" fill="#212121"></path>
                        <path d="M217,180.999311 C215.846429,180.337466 214.646429,180 213.442857,180 C213.296429,180 213.146429,180.006198 213,180.014463 C214.310714,180.62259 215.657143,180.955923 217,181 L217,180.999311 Z" id="Path" fill="#212121"></path>
                        <path d="M217,229 C215.857143,228.338832 214.667857,228 213.475,228 C213.317857,228 213.157143,228.006186 213,228.017182 C214.307143,228.618557 215.657143,228.949141 217,228.997251 L217,229 Z" id="Path" fill="#212121"></path>
                        <path d="M217,231.999311 C215.846429,231.337466 214.646429,231 213.442857,231 C213.296429,231 213.146429,231.00551 213,231.014463 C214.310714,231.62259 215.657143,231.955923 217,232 L217,231.999311 Z" id="Path" fill="#212121"></path>
                        <path d="M217,250 C215.846429,249.337698 214.646429,249 213.442857,249 C213.296429,249 213.146429,249.005513 213,249.014473 C214.307143,249.617505 215.657143,249.948312 217,249.997243 L217,250 Z" id="Path" fill="#212121"></path>
                        <path d="M217,254 C215.857143,253.340042 214.667857,253 213.475,253 C213.317857,253 213.157143,253.006246 213,253.018043 C214.307143,253.624566 215.657143,253.960444 217,254 L217,254 Z" id="Path" fill="#212121"></path>
                        <path d="M127,192 C125.857704,191.338832 124.669702,191 123.477058,191 C123.318872,191 123.156401,191.006186 123,191.017182 C124.308695,191.618557 125.655597,191.949141 127,191.997251 L127,192 Z" id="Path" fill="#212121"></path>
                        <path d="M127,196 C125.857704,195.338377 124.669702,195 123.477058,195 C123.318872,195 123.156401,195.005502 123,195.017194 C124.308695,195.618294 125.655597,195.949106 127,195.997937 L127,196 Z" id="Path" fill="#212121"></path>
                        <path d="M127,218 C125.857704,217.338832 124.669702,217 123.477058,217 C123.318872,217 123.156401,217.006186 123,217.017182 C124.308695,217.618557 125.655597,217.949141 127,217.997251 L127,218 Z" id="Path" fill="#212121"></path>
                        <path d="M127,221 C125.857704,220.338144 124.669702,220 123.477058,220 C123.318872,220 123.156401,220.005498 123,220.016495 C124.308695,220.617869 125.655597,220.948454 127,220.996564 L127,221 Z" id="Path" fill="#212121"></path>
                        <path d="M127,244 C125.857704,243.338832 124.669702,243 123.477058,243 C123.318872,243 123.156401,243.006186 123,243.017182 C124.308695,243.618557 125.655597,243.949141 127,243.997251 L127,244 Z" id="Path" fill="#212121"></path>
                        <path d="M127,247 C125.857704,246.338832 124.669702,246 123.477058,246 C123.318872,246 123.156401,246.006186 123,246.017182 C124.308695,246.618557 125.655597,246.949141 127,246.997938 L127,247 Z" id="Path" fill="#212121"></path>
                        <path d="M43,101.238167 C43.3709023,101.360459 43.6171849,101.67638 43.6171849,102.02929 C43.6171849,102.128935 43.5973302,102.227825 43.5588881,102.321431 C43.855441,101.532196 44.683001,101 45.6149037,101 C46.8120987,101 47.7832883,101.867744 47.7832883,102.937797 C47.7832883,103.146901 47.7448462,103.356005 47.6704968,103.554163 L47.5196857,103.663999 C46.2891179,104.555899 44.9516729,105.342115 43.5470598,106 L43.5470598,104.532498 C43.6028219,104.445308 43.6750591,104.367555 43.7599696,104.302635 L43.9221865,104.187892 C45.1468401,103.289952 46.4779486,102.49883 47.87707,101.833396 L48,103.390353 C47.3638053,103.049898 46.7440858,102.673586 46.1560493,102.271231 C45.0593951,102.055711 43.9948462,101.705443 43,101.238167 L43,101.238167 Z" id="Path" fill="#AD1457"></path>
                        <path d="M49.9636672,112.450201 C49.9191851,112.600402 49.8417657,112.734137 49.739219,112.837751 L49.5911715,112.986747 C48.8010187,113.77751 47.9280136,114.455823 47,115 L47,113.438554 C47.0417657,113.344578 47.0981324,113.261446 47.1663837,113.193574 L47.3188455,113.034538 C48.1066214,112.237349 48.9762309,111.550602 49.9011885,111 L50,112.662249 C49.5864177,112.358233 49.1891341,112.012048 48.8186757,111.637751 C49.2210526,111.863052 49.6054329,112.136948 49.9636672,112.450602 L49.9636672,112.450201 Z" id="Path" fill="#AD1457"></path>
                        <path d="M52.0906562,92 C52.6003082,92.0870785 53.109575,92.1983048 53.6188418,92.3241661 C54.1284938,92.4496616 54.6377606,92.5802793 55.1065788,92.7302884 C56.0881308,93.0273797 57.0523477,93.3497164 58,93.6980304 C57.9410607,93.8381609 57.842058,93.9607293 57.7149339,94.0514666 L57.6182425,94.1191536 C55.8758721,95.3803281 54.0175491,96.5416184 52.116081,97.569364 L52.116081,96.1468382 C52.8853743,96.7369962 53.6442666,97.3516678 54.3627103,98 C53.4154432,97.6761998 52.4920601,97.2898347 51.597954,96.8540765 C50.7115525,96.4285627 49.8451826,95.9639002 49,95.4802122 C49.0550871,95.3927679 49.1275093,95.3170315 49.2126439,95.2559302 L49.3093353,95.1834868 C51.8514318,94.5212513 54.4763515,94.0331728 57.1016565,93.7536435 L57.2137568,95.2680041 C56.3250439,94.8084639 55.4478877,94.3046527 54.581903,93.7562046 C54.1539186,93.4850906 53.7363352,93.1997073 53.3133587,92.9095677 C52.8903822,92.6190621 52.4882079,92.3336789 52.0906562,92 Z" id="Path" fill="#AD1457"></path>
                        <path d="M54,70 C55.2002105,70.1755658 56.3744391,70.4203914 57.5335438,70.7026657 C58.1179436,70.8303133 58.6973021,70.98494 59.2720071,71.1395667 C59.8463243,71.2937908 60.4256828,71.4484175 61,71.6187485 C60.9697524,71.7411613 60.905767,71.8527019 60.8157997,71.9380688 L60.7746939,71.9807522 C58.9008919,73.808891 56.9607778,75.551663 54.9539638,77.2098736 L54.820564,76.0437304 C55.3336103,76.3417089 55.8156335,76.6557945 56.3077392,76.9702827 C56.7998449,77.2843682 57.2923384,77.5984537 57.7743615,77.9286462 C58.7434491,78.578159 59.7024542,79.2546509 60.6257825,80 C59.5128248,79.6379963 58.425849,79.2067327 57.3590383,78.7488926 C56.8459919,78.525006 56.2922276,78.2906499 55.7640574,78.0458243 C55.2358872,77.8009986 54.707717,77.5610051 54.1896294,77.3057099 C54.2245305,77.2292019 54.2733921,77.1603447 54.3334995,77.1035677 L54.3746053,77.0608843 C56.2410393,75.2287187 58.1780511,73.4807119 60.1848651,71.815656 L60.4206415,73.0401868 C59.8668772,72.8271724 59.3076838,72.6036885 58.7589607,72.3693324 C58.2102377,72.1349762 57.6514321,71.9114923 57.102709,71.6557945 C56.1537865,71.1125876 55.0668107,70.5907224 54,70 Z" id="Path" fill="#AD1457"></path>
                        <path d="M69.2819481,90.3448992 C70.2480737,90.4438607 71.2254422,90.5959682 72.174897,90.7872938 C73.1286164,90.9668907 74.0668282,91.1849725 75,91.4224801 C74.9651078,91.5317043 74.9011388,91.6317654 74.8139084,91.7120342 L74.7627332,91.7556506 C73.2662467,93.1220525 71.682142,94.427245 70.0398837,95.6364081 L69.9119457,94.5749542 C70.7117519,95.0305437 71.511558,95.4956628 72.2803489,96 C71.3758662,95.7602932 70.4702205,95.4696396 69.5944269,95.1448992 C68.7124303,94.8348198 67.8509813,94.4807575 67,94.1175321 C67.0364429,94.0456933 67.085292,93.9815516 67.144221,93.9269395 L67.1953962,93.8785583 C68.6845166,92.5205864 70.2755997,91.2087966 71.9101042,90 L72.1458202,91.1145999 C71.2487037,90.7850947 70.3515871,90.4409285 69.4699782,90.053146 C69.4056215,90.1491753 69.3424279,90.2496029 69.2827235,90.3437996 L69.2819481,90.3448992 Z" id="Path" fill="#AD1457"></path>
                        <path d="M68,52 C69.8485722,52.4220376 71.6756068,52.8843417 73.5026414,53.3663991 C75.329676,53.8488363 77.146145,54.3711601 78.9516421,54.8733507 C78.9309173,54.949705 78.8862167,55.017702 78.8232295,55.0697445 C77.3074735,56.3556107 75.7653035,57.5814572 74.2336991,58.8673234 L71.9068307,60.7309748 C71.1331043,61.3539646 70.3431231,61.9617596 69.5584248,62.5748727 L69.4673981,61.8462785 C71.0790572,62.6698407 72.6805571,63.5070783 74.271085,64.3576114 C75.8831505,65.2115633 77.4415752,66.0860283 79,67 C77.3070671,66.3219287 75.6360782,65.6085294 73.9809376,64.8753767 C72.325797,64.1418442 70.6706565,63.3680452 69.0313643,62.624636 C69.0565592,62.5756325 69.0911005,62.5311875 69.1341756,62.4943399 C69.8969301,61.8561552 70.6438361,61.2130321 71.4179689,60.585104 L73.7232997,58.6963811 C75.2707525,57.4507813 76.8133289,56.1846684 78.3876021,54.9789551 L78.5542133,55.7424975 C76.7592818,55.1700306 74.9806051,54.5721123 73.1803909,53.9544407 C71.3801766,53.3363892 69.7571392,52.6833895 68,52 Z" id="Path" fill="#AD1457"></path>
                        <line x1="3" y1="151" x2="2" y2="167" id="Path" stroke="#00838F" stroke-width="0.5"></line>
                        <line x1="7" y1="151" x2="6" y2="167" id="Path" stroke="#00838F" stroke-width="0.5"></line>
                        <line x1="9.5" y1="151" x2="9.5" y2="167" id="Path" stroke="#00838F" stroke-width="0.5"></line>
                        <line x1="12.5" y1="151" x2="12.5" y2="167" id="Path" stroke="#00838F" stroke-width="0.5"></line>
                        <line x1="15.5" y1="151" x2="15.5" y2="167" id="Path" stroke="#00838F" stroke-width="0.5"></line>
                        <line x1="18" y1="151" x2="19" y2="167" id="Path" stroke="#00838F" stroke-width="0.5"></line>
                        <line x1="21" y1="151" x2="22" y2="167" id="Path" stroke="#00838F" stroke-width="0.5"></line>
                        <line x1="25" y1="151" x2="24" y2="167" id="Path" stroke="#00838F" stroke-width="0.5"></line>
                        <line x1="27" y1="151" x2="28" y2="167" id="Path" stroke="#00838F" stroke-width="0.5"></line>
                        <line x1="31" y1="151" x2="32" y2="167" id="Path" stroke="#00838F" stroke-width="0.5"></line>
                        <line x1="34" y1="151" x2="35" y2="167" id="Path" stroke="#00838F" stroke-width="0.5"></line>
                        <line x1="37" y1="151" x2="38" y2="167" id="Path" stroke="#00838F" stroke-width="0.5"></line>
                        <line x1="41" y1="151" x2="42" y2="167" id="Path" stroke="#00838F" stroke-width="0.5"></line>
                        <line x1="45.5" y1="151" x2="45.5" y2="167" id="Path" stroke="#00838F" stroke-width="0.5"></line>
                        <line x1="49.5" y1="151" x2="49.5" y2="167" id="Path" stroke="#00838F" stroke-width="0.5"></line>
                        <line x1="53.5" y1="151" x2="53.5" y2="167" id="Path" stroke="#00838F" stroke-width="0.5"></line>
                        <line x1="58" y1="151" x2="57" y2="167" id="Path" stroke="#00838F" stroke-width="0.5"></line>
                        <line x1="62" y1="151" x2="61" y2="167" id="Path" stroke="#00838F" stroke-width="0.5"></line>
                        <line x1="66" y1="151" x2="65" y2="167" id="Path" stroke="#00838F" stroke-width="0.5"></line>
                        <line x1="68.5" y1="151" x2="68.5" y2="167" id="Path" stroke="#00838F" stroke-width="0.5"></line>
                        <line x1="73" y1="151" x2="72" y2="167" id="Path" stroke="#00838F" stroke-width="0.5"></line>
                        <line x1="76" y1="151" x2="75" y2="167" id="Path" stroke="#00838F" stroke-width="0.5"></line>
                        <line x1="80" y1="151" x2="79" y2="167" id="Path" stroke="#00838F" stroke-width="0.5"></line>
                        <line x1="82.5" y1="151" x2="82.5" y2="167" id="Path" stroke="#00838F" stroke-width="0.5"></line>
                        <line x1="85.5" y1="151" x2="85.5" y2="167" id="Path" stroke="#00838F" stroke-width="0.5"></line>
                        <line x1="87.5" y1="151" x2="87.5" y2="167" id="Path" stroke="#00838F" stroke-width="0.5"></line>
                        <line x1="91" y1="151" x2="92" y2="167" id="Path" stroke="#00838F" stroke-width="0.5"></line>
                        <line x1="94" y1="151" x2="95" y2="167" id="Path" stroke="#00838F" stroke-width="0.5"></line>
                        <line x1="98" y1="151" x2="97" y2="167" id="Path" stroke="#00838F" stroke-width="0.5"></line>
                        <line x1="100" y1="151" x2="101" y2="167" id="Path" stroke="#00838F" stroke-width="0.5"></line>
                        <line x1="103" y1="151" x2="104" y2="167" id="Path" stroke="#00838F" stroke-width="0.5"></line>
                        <line x1="107" y1="151" x2="108" y2="167" id="Path" stroke="#00838F" stroke-width="0.5"></line>
                        <line x1="110" y1="151" x2="111" y2="167" id="Path" stroke="#00838F" stroke-width="0.5"></line>
                        <line x1="113" y1="151" x2="114" y2="167" id="Path" stroke="#00838F" stroke-width="0.5"></line>
                        <line x1="118.5" y1="151" x2="118.5" y2="167" id="Path" stroke="#00838F" stroke-width="0.5"></line>
                        <line x1="122.5" y1="151" x2="122.5" y2="167" id="Path" stroke="#00838F" stroke-width="0.5"></line>
                        <line x1="126.5" y1="151" x2="126.5" y2="167" id="Path" stroke="#00838F" stroke-width="0.5"></line>
                        <line x1="131" y1="151" x2="130" y2="167" id="Path" stroke="#00838F" stroke-width="0.5"></line>
                        <line x1="135" y1="151" x2="134" y2="167" id="Path" stroke="#00838F" stroke-width="0.5"></line>
                        <line x1="139" y1="151" x2="138" y2="167" id="Path" stroke="#00838F" stroke-width="0.5"></line>
                        <line x1="141.5" y1="151" x2="141.5" y2="167" id="Path" stroke="#00838F" stroke-width="0.5"></line>
                        <line x1="145" y1="151" x2="144" y2="167" id="Path" stroke="#00838F" stroke-width="0.5"></line>
                        <line x1="149" y1="151" x2="148" y2="167" id="Path" stroke="#00838F" stroke-width="0.5"></line>
                        <line x1="153" y1="151" x2="152" y2="167" id="Path" stroke="#00838F" stroke-width="0.5"></line>
                        <line x1="155.5" y1="151" x2="155.5" y2="167" id="Path" stroke="#00838F" stroke-width="0.5"></line>
                        <line x1="158.5" y1="151" x2="158.5" y2="167" id="Path" stroke="#00838F" stroke-width="0.5"></line>
                        <line x1="161.5" y1="151" x2="161.5" y2="167" id="Path" stroke="#00838F" stroke-width="0.5"></line>
                        <line x1="164" y1="151" x2="165" y2="167" id="Path" stroke="#00838F" stroke-width="0.5"></line>
                        <line x1="167" y1="151" x2="168" y2="167" id="Path" stroke="#00838F" stroke-width="0.5"></line>
                        <line x1="171" y1="151" x2="170" y2="167" id="Path" stroke="#00838F" stroke-width="0.5"></line>
                        <line x1="173" y1="151" x2="174" y2="167" id="Path" stroke="#00838F" stroke-width="0.5"></line>
                        <line x1="176" y1="151" x2="177" y2="167" id="Path" stroke="#00838F" stroke-width="0.5"></line>
                        <line x1="180" y1="151" x2="181" y2="167" id="Path" stroke="#00838F" stroke-width="0.5"></line>
                        <line x1="183" y1="151" x2="184" y2="167" id="Path" stroke="#00838F" stroke-width="0.5"></line>
                        <line x1="187" y1="151" x2="188" y2="167" id="Path" stroke="#00838F" stroke-width="0.5"></line>
                        <line x1="191.5" y1="151" x2="191.5" y2="167" id="Path" stroke="#00838F" stroke-width="0.5"></line>
                        <line x1="195.5" y1="151" x2="195.5" y2="167" id="Path" stroke="#00838F" stroke-width="0.5"></line>
                        <line x1="199.5" y1="151" x2="199.5" y2="167" id="Path" stroke="#00838F" stroke-width="0.5"></line>
                        <line x1="204" y1="151" x2="203" y2="167" id="Path" stroke="#00838F" stroke-width="0.5"></line>
                        <line x1="208" y1="151" x2="207" y2="167" id="Path" stroke="#00838F" stroke-width="0.5"></line>
                        <line x1="212" y1="151" x2="211" y2="167" id="Path" stroke="#00838F" stroke-width="0.5"></line>
                        <line x1="214.5" y1="151" x2="214.5" y2="167" id="Path" stroke="#00838F" stroke-width="0.5"></line>
                        <line x1="218" y1="151" x2="217" y2="167" id="Path" stroke="#00838F" stroke-width="0.5"></line>
                        <line x1="222" y1="151" x2="221" y2="167" id="Path" stroke="#00838F" stroke-width="0.5"></line>
                        <line x1="226" y1="151" x2="225" y2="167" id="Path" stroke="#00838F" stroke-width="0.5"></line>
                        <line x1="228.5" y1="151" x2="228.5" y2="167" id="Path" stroke="#00838F" stroke-width="0.5"></line>
                        <line x1="230.5" y1="151" x2="230.5" y2="167" id="Path" stroke="#00838F" stroke-width="0.5"></line>
                        <line x1="233.5" y1="151" x2="233.5" y2="167" id="Path" stroke="#00838F" stroke-width="0.5"></line>
                        <line x1="237" y1="151" x2="238" y2="167" id="Path" stroke="#00838F" stroke-width="0.5"></line>
                        <line x1="240" y1="151" x2="241" y2="167" id="Path" stroke="#00838F" stroke-width="0.5"></line>
                        <line x1="243" y1="151" x2="242" y2="167" id="Path" stroke="#00838F" stroke-width="0.5"></line>
                        <line x1="245" y1="151" x2="246" y2="167" id="Path" stroke="#00838F" stroke-width="0.5"></line>
                        <line x1="249" y1="151" x2="250" y2="167" id="Path" stroke="#00838F" stroke-width="0.5"></line>
                        <line x1="253" y1="151" x2="254" y2="167" id="Path" stroke="#00838F" stroke-width="0.5"></line>
                        <line x1="256" y1="151" x2="257" y2="167" id="Path" stroke="#00838F" stroke-width="0.5"></line>
                        <line x1="259" y1="151" x2="260" y2="167" id="Path" stroke="#00838F" stroke-width="0.5"></line>
                        <line x1="264.5" y1="151" x2="264.5" y2="167" id="Path" stroke="#00838F" stroke-width="0.5"></line>
                        <path d="M31.2381365,143.755884 C31.2381365,143.755884 29.0618571,146.662202 29,147.14568 C29,147.14568 31.1194799,146.240179 31.2996046,146.543957 C31.2996046,146.543957 29.3345728,149.717491 29.3345728,150.262426 L161.320048,150.303656 C163.501774,150.617547 169.103924,151.749035 171.233908,152.957926 C174.603756,154.866169 176.167689,157.911346 177.227429,160.035463 C178.34358,162.288326 180.061961,166.593736 179.948751,174.921005 C179.85616,181.582353 178.714333,181.895855 177.772861,190.717105 C177.062866,197.316219 176.558673,202.367268 177.772861,208.689053 C178.544324,212.731915 179.423939,217.325157 182.855644,221.939013 C184.234396,223.80097 190.05713,231.109939 199.378484,231.927535 C207.178699,232.611717 212.885889,228.327311 218.262396,224.299618 C229.194369,216.100707 233.314283,205.618205 236.601655,197.249318 C241.880903,183.814212 239.597249,179.020655 238.963117,177.827322 C237.383622,174.864605 233.909511,171.35112 230.248662,171.654898 C227.918324,171.8451 226.338829,173.511799 223.529973,176.556586 C222.129436,178.068867 220.958431,179.611876 217.355938,185.269704 C214.469274,189.832218 213.165997,192.110752 210.45051,195.253558 C207.653326,198.49905 206.404513,199.116331 205.186824,199.250134 C202.160107,199.579195 199.646921,196.873581 198.650983,195.798882 C197.153186,194.183526 195.56202,191.683673 194.476603,185.815028 C193.484556,180.424415 194.13814,178.778721 193.745212,173.290091 C193.356173,167.801849 192.990478,162.560598 190.298334,157.674469 C186.616087,150.987838 175.380276,146.358423 172.988081,145.211377 C174.397566,141.194186 177.180745,131.488051 174.078555,120.038202 C173.085729,116.376133 168.136775,100.168513 153.5,94.6238718 C144.867624,91.3523198 137.273988,93.6257976 127.108032,96.1668805 C112.739297,99.7982215 103.12383,107.117692 95.8803282,112.749849 C87.9420045,118.922273 83.5894456,125.341298 79.9009748,129.816296 C80.7498561,125.701476 76.752489,113.474872 76.752489,113.474872 C73.1204287,115.897711 66.9467821,125.81972 66.9467821,125.81972 C64.7755602,124.461857 61.9923812,123.06782 56.5392333,122.306623 C51.3945927,121.591713 48.981778,121.96706 46.5534018,122.620126 L39.2122517,113.501322 C37.5195467,116.40725 38.6049631,126.211015 38.6049631,126.211015 C33.8489716,129.628816 31.0276669,135.135339 31.0276669,140.992704 C31.0276669,141.917654 31.0984718,142.842215 31.2389146,143.755884 L31.2381365,143.755884 Z" id="Path" fill="#FFECB3"></path>
                        <path d="M76.1528652,141.090249 C76.8037888,141.661505 77.4352435,142.247278 78.0957179,142.822889 C78.7565596,143.398863 79.3637699,143.99879 80,144.589281 C79.9709803,144.62122 79.9287364,144.640092 79.8846558,144.640092 C79.8677582,144.640092 79.8508606,144.637189 79.8350651,144.632108 L79.8350651,144.63247 L77.6828296,143.965038 L75.5357368,143.274014 L75.7543031,142.899468 C76.44894,143.518994 77.1241079,144.152311 77.7702561,144.819381 C77.7357263,144.885797 77.6655647,144.927897 77.5895256,144.927897 C77.570424,144.927897 77.5513224,144.925357 77.5325882,144.919913 L77.5325882,144.920276 C76.9202351,144.757319 76.3181675,144.589281 75.7157326,144.39729 C75.4192905,144.296395 75.118073,144.200218 74.8172229,144.070651 C74.6438392,144.006049 74.479639,143.916405 74.3312343,143.806436 L74.2632767,143.734575 L74.2342569,143.686668 L74.1710747,143.585773 L74.0447103,143.393782 C74.0744647,143.374909 74.1089945,143.36511 74.144259,143.36511 C74.1795235,143.36511 74.2140533,143.374909 74.2438077,143.393782 C75.0695844,143.941084 75.8810348,144.497822 76.6730164,145.083233 C77.0664358,145.385555 77.4598552,145.68316 77.838581,146 C77.4980584,145.645052 77.1204345,145.322405 76.7163623,145.039681 C76.3181675,144.751875 75.9100546,144.482942 75.4971662,144.209654 C74.676165,143.672151 73.8404702,143.144084 73,142.635253 L73.2479534,142.385918 L73.3790932,142.57791 L73.4470508,142.673724 L73.4808459,142.721994 C73.5936188,142.788773 73.7130038,142.845391 73.8360621,142.890032 C74.1178107,142.995645 74.40911,143.096177 74.7055521,143.182555 C75.2980688,143.36511 75.9052792,143.523349 76.5029387,143.662715 L76.2597607,143.758529 C76.1462531,143.572345 76.0209908,143.39233 75.8858102,143.221026 C75.6088371,142.870796 75.2980688,142.534721 74.9821579,142.203726 C74.3606213,141.541375 73.6997796,140.898258 73.0393052,140.283814 L73.0389379,140.284176 C73.0822838,140.239536 73.1417926,140.214493 73.2042401,140.214493 C73.2288518,140.214493 73.2538308,140.218486 73.2773405,140.226107 L75.4145151,140.946165 L77.5425063,141.694895 L77.3724286,141.963465 C76.7699937,141.344665 76.158008,140.734939 75.5603484,140.111058 C74.9630563,139.487177 76.7406066,141.72393 76.1528652,141.090249 Z" id="Path" fill="#212121"></path>
                        <path d="M41,126 L41,120 L44,125.153374 C44,125.153374 42.023007,124.994932 41,126 Z" id="Path" fill="#E91E63"></path>
                        <path d="M72,126.621334 L75,121 L75,128 C75,128 74.3204249,125.854917 72,126.621334 Z" id="Path" fill="#E91E63"></path>
                        <path d="M75.1828207,134 C75.6191457,135.14766 75.8923138,136.409285 75.9842556,137.709407 C76.0052481,138.138207 76.0052481,138.571581 75.9842556,139 C75.7052415,138.269325 75.3749419,137.57524 75,136.939091 C75.123032,136.085684 75.1860094,135.215505 75.1860094,134.344184 C75.1860094,134.230599 75.1838836,134.112441 75.1828207,134.000381 L75.1828207,134 Z" id="Path" fill="#212121"></path>
                        <path d="M40,141 C40,141 38.1988719,139.275584 36,139" id="Path" stroke="#475259" stroke-width="0.5"></path>
                        <path d="M56,142 C57.3813775,140.712519 59.1683121,140 61.0169081,140 C61.6860774,140 62.3544192,140.09373 63,140.277718" id="Path" stroke="#475259" stroke-width="0.5"></path>
                        <path d="M52.3407949,145.698471 C54.0155322,145.086011 55.7399987,144.627192 57.486393,144.345166 C58.361548,144.183527 59.2417934,144.122492 60.1220388,144.033254 L61.4529792,144 L62.1155126,144 L62.7784376,144.039147 C64.542061,144.111548 66.2966782,144.400309 68,144.88733 C67.5649677,144.837239 67.124845,144.776203 66.6949031,144.714747 C66.2618286,144.641504 65.8209228,144.594359 65.3843242,144.573313 L64.0792273,144.47313 L62.7694316,144.47313 C61.899367,144.445349 61.0296939,144.534587 60.1799909,144.579206 C59.3310709,144.623404 58.4457352,144.745896 57.5909417,144.913007 C55.8743066,145.190403 54.1584546,145.601656 52.4907655,146.120668 L51.2377472,146.532342 L50,147 C53.9407427,144.936158 53.127847,145.314578 52.3407949,145.698471 Z" id="Path" fill="#212121"></path>
                        <path d="M53.9731719,146.009613 C55.3463916,146.061523 56.7094225,146.353303 58,146.872395 C57.6607517,146.806252 57.3264091,146.739691 57.0022553,146.662246 C56.6777241,146.584801 56.3286644,146.579359 56.0041333,146.529543 C55.6758285,146.486006 55.3380896,146.458377 55.0067659,146.451679 C54.6724234,146.451679 54.3331751,146.413166 54.0086439,146.451679 L53.0105219,146.479308 L52.0127772,146.551311 C51.3388089,146.606988 50.6652181,146.684015 50.0165331,146.783647 C48.6693513,146.961143 47.3368867,147.237853 46.0244223,147.520004 C45.3557371,147.658568 44.6919576,147.81932 44.0281782,147.990955 C43.3647761,148.16259 54.6418571,145.832536 53.9731719,146.009613 Z" id="Path" fill="#212121"></path>
                        <path d="M54,147.186228 C53.423081,147.068858 52.8308423,147 52.2509341,147 C51.6710259,147 51.0787872,147.068858 50.5033629,147.192488 C49.3371944,147.338028 48.1710259,147.688576 47,148 L54,147.186228 Z" id="Path" fill="#212121"></path>
                        <path d="M40,145 C39.2142885,144.620611 38.4235943,144.263661 37.6125867,143.961562 L36.4010578,143.499896 L35.1849297,143.093081 C33.5502664,142.581966 31.8680771,142.175151 30.1855046,141.900893 C29.3442183,141.735924 28.4975662,141.670268 27.6512974,141.571369 C26.8046453,141.47247 25.9480281,141.439643 25.1170902,141.467068 L23.8346556,141.467068 L22.5572036,141.565967 C22.1325361,141.585498 21.7048024,141.632454 21.2824346,141.703096 C20.8566172,141.763349 20.4307999,141.824018 20,141.873468 C21.6668583,141.39144 23.3912077,141.108872 25.1151738,141.03823 L25.7636733,141 L26.4125561,141 L27.7099383,141.032828 C28.5715381,141.120507 29.4385037,141.181176 30.2897551,141.340328 C31.9991568,141.619156 33.6920777,142.068357 35.3282741,142.675047 C36.9506726,143.270933 38.5232456,144.055475 39.9984669,144.998753 L40,145 Z" id="Path" fill="#212121"></path>
                        <path d="M38.9995998,145 C38.2956188,144.856587 37.5916378,144.709116 36.882454,144.588365 C36.1736705,144.467614 35.4748923,144.320142 34.7657085,144.208185 C33.3525437,143.980213 31.939379,143.761035 30.5318172,143.613225 C29.8262354,143.532725 29.1114485,143.470151 28.3882572,143.425503 L27.2924642,143.362929 L25.1757186,143.362929 C24.823528,143.367326 24.4665348,143.388635 24.1171457,143.424488 C23.7621536,143.464739 23.3971561,143.469474 23.0585729,143.532048 C22.7199896,143.594622 22.3545919,143.648064 22,143.701843 C23.3579349,143.286826 24.7915107,143.046 26.2350919,143 C27.6730701,143.154575 29.1082468,143.395062 30.5102055,143.702858 C33.3933658,143.808388 36.2537138,144.247083 39,144.998647 L38.9995998,145 Z" id="Path" fill="#212121"></path>
                        <path d="M38.9996275,146 L35.49255,145.415125 C34.3299808,145.255833 33.1625692,145.074819 32,145 C33.1692742,145.093323 34.3515858,145.323411 35.5122925,145.671762 C35.6106322,145.666935 35.7153044,145.666935 35.8121541,145.666935 C36.8737761,145.666935 37.9469455,145.779566 39,145.997586 L38.9996275,146 Z" id="Path" fill="#212121"></path>
                        <path d="M45.6441765,145.404319 C44.7412025,144.788039 44.9316617,144.207943 43.9133499,143.607061 C43.0301047,143.098178 42.5236046,143.311817 42.1874555,142.79793 C41.6855082,142.034221 42.3376982,140.817444 42.4530361,140.598801 C42.5683739,140.379774 43.1807269,139.224202 44.314756,139.025961 C45.1073243,138.88315 45.3178918,139.367012 46.572191,139.565253 C47.2296926,139.667261 47.2748413,139.565253 49.1411141,139.427832 C51.6497124,139.265005 52.0359425,139.427832 52.2817942,139.651864 C52.7366958,140.038337 53,140.610349 53,141.212386 C53,141.372519 52.98103,141.532267 52.9442281,141.68778 C52.6183228,142.731336 51.3135633,142.461497 50.1146566,143.891913 C49.3467493,144.808056 49.6127093,145.256119 48.9203028,145.688785 C47.9922883,146.233852 46.5672588,146.014824 45.6441765,145.404319 Z" id="Path" fill="#E91E63"></path>
                        <path d="M46.0922509,150 C46.6937269,150.439191 47,150.888605 47,151.334611 C47,151.556124 46.9188192,151.779766 46.7749077,152 C46.2583026,151.509691 46,151.013845 46,150.519276 C46,150.347178 46.0405904,150.17082 46.0885609,150.000426 L46.0922509,150 Z" id="Path" fill="#63717C"></path>
                        <path d="M109,134 C108.748096,133.146169 108.444919,132.295881 108.095672,131.474658 C107.756827,130.64032 107.383058,129.82016 107,129 L109,134 Z" id="Path" fill="#212121"></path>
                        <path d="M124.999125,138.075125 C124.73135,138.859685 124.512513,139.66534 124.352772,140.473023 C124.193954,141.28314 124.090537,142.082305 124.004664,142.924875 C123.919253,143.76704 125.035598,137.23296 124.999125,138.075125 Z" id="Path" fill="#212121"></path>
                        <path d="M127.920816,138.745483 C128.411544,136.902535 129.011112,135.075533 129.690318,133.301686 C130.362319,131.514171 131.144677,129.787024 131.987334,128.054941 C133.060184,126.465997 134.423148,125.088152 136,124 C135.64883,124.321206 135.29273,124.637856 134.93663,124.948811 C134.58053,125.260145 134.299898,125.651971 133.983996,126.003171 C133.668095,126.354752 133.397323,126.746577 133.106072,127.112965 C132.816717,127.484668 132.541773,127.875734 132.292996,128.277052 C131.76169,129.055388 131.290303,129.87359 130.788577,130.687236 C130.287231,131.500882 129.881072,132.349079 129.469604,133.197655 C128.602298,134.87962 127.82487,136.617018 127.082711,138.364288 C126.708787,139.237543 126.347757,140.116114 126,141 C128.587887,136.962903 128.246957,137.851725 127.920816,138.745483 Z" id="Path" fill="#212121"></path>
                        <path d="M152,153 L153.410069,151.03747 C153.869299,150.380078 154.339585,149.727509 154.767621,149.050825 C155.196051,148.373771 155.62922,147.70154 156,147 C155.679368,147.744574 155.28924,148.465405 154.839882,149.147653 C154.079763,150.544055 153.122606,151.838805 152.001185,152.998887 L152,153 Z" id="Path" fill="#000000"></path>
                        <path d="M96,125.999214 C98.0423301,123.192237 100.419029,120.624747 103.041553,118.367526 C105.632233,116.076879 108.465631,114.038695 111.456311,112.319825 L112.575922,111.669793 C112.955728,111.466879 113.351456,111.279695 113.736311,111.087398 C114.511845,110.707918 115.276893,110.30209 116.062913,109.953676 C117.638835,109.254488 119.257864,108.634342 120.899806,108.113294 L122.132427,107.723196 C122.542913,107.593032 122.954175,107.452644 123.375146,107.364557 L125.89165,106.781769 C126.722718,106.58554 127.579029,106.436894 128.432233,106.343302 L131,106 C127.61165,106.530486 124.260583,107.371635 121.016699,108.488055 C119.383689,109.008317 117.827573,109.725988 116.245825,110.386244 C115.470291,110.739771 114.705243,111.150711 113.950291,111.530191 C113.570097,111.727993 113.184854,111.910065 112.810097,112.118091 L111.700971,112.773236 C110.201165,113.594723 108.784078,114.562103 107.356117,115.513754 L105.302136,117.047799 C104.624078,117.567667 103.966602,118.129613 103.293981,118.665212 C102.621359,119.20081 102.005049,119.798541 101.35301,120.365599 C100.700583,120.932264 100.104854,121.55123 99.4935922,122.154466 C98.2648544,123.362512 97.0858252,124.656285 96,126 L96,125.999214 Z" id="Path" fill="#212121"></path>
                        <path d="M161.905607,109.354359 C161.968789,109.986968 162,110.625432 162,111.261944 C162,112.17632 161.933011,113.097331 161.805124,114 L161.805124,112.271153 L161.759831,111.69318 L161.684469,110.54738 L161.533364,109.412117 C161.108595,107.951378 160.587531,106.505469 159.989963,105.10522 C159.688134,104.403535 159.370699,103.706923 159.023577,103.041141 C158.676454,102.37536 162.283179,110.02014 161.905607,109.354359 Z" id="Path" fill="#212121"></path>
                        <path d="M83.3267519,135 C83.7016129,135.931456 83.9315907,136.952786 84,138 C83.823693,137.524745 83.67297,137.049491 83.5075083,136.573877 C83.3420467,136.098622 83.176307,135.651768 83,135.19988 C83.1092881,135.134811 83.2188543,135.066507 83.3267519,135.000359 L83.3267519,135 Z" id="Path" fill="#212121"></path>
                        <path d="M88,146.000419 C88.8547595,146.66527 89.6571573,147.368664 90.4833887,148.038961 C90.8892821,148.382488 91.3045645,148.703812 91.720208,149.036028 L93,150 C92.5825509,149.64977 92.1824354,149.2677 91.8068756,148.859238 C90.3226925,148.361961 88.9981222,147.365731 88.0003611,146 L88,146.000419 Z" id="Path" fill="#212121"></path>
                        <path d="M220,180.626488 C221.035141,178.975102 222.218159,177.409599 223.517922,175.960568 C226.32759,172.890739 227.915325,171.210334 230.238555,171.018568 C233.904354,170.712291 237.383361,174.254672 238.959421,177.241362 C239.597629,178.444509 241.881943,183.277881 236.601168,196.82348 C235.838433,198.788986 235.025108,200.863512 234.095038,203 L220,180.626488 Z" id="Path" fill="#E91E63"></path>
                        <path d="M184,212 C184.512509,213.596805 185.133036,215.175859 185.840213,216.695742 C187.258451,219.710658 189.051648,222.611178 191.562902,224.765366 C193.905909,226.848944 196.917237,228 200.033476,228 C200.216098,228 200.402606,227.995266 200.581343,227.988955 C200.993215,227.988955 201.397316,227.915978 201.809188,227.879293 C202.011238,227.879293 202.22106,227.84813 202.419225,227.811444 L203.029261,227.686398 C203.429477,227.597643 203.837463,227.534923 204.233793,227.425261 L205.422781,227.060378 C205.617061,226.997658 205.819111,226.945588 206.01339,226.87774 L206.592342,226.64816 L207.750247,226.189394 C208.50405,225.845024 209.246197,225.464362 210,225.109341 C191.803808,232.629472 188.183997,220.037672 184.001943,212.001183 L184,212 Z" id="Path" fill="#212121"></path>
                        <path d="M88,144.503114 C89.7080067,145.050738 91.1901804,146.167122 92.1994922,147.670247 C92.6222547,148.317296 92.8619614,148.948687 93.3968696,150.838163 C94.4570516,154.544308 94.8393491,156.56335 94.8393491,156.56335 C95.751545,161.408191 96.2251777,163.934538 96.6383057,168.008244 C97.4129207,175.772828 96.5974553,175.731336 97.2344894,182.626143 C97.9632441,190.499547 99.4666138,195.225782 100.113668,197.120346 C102.473353,203.999496 104.878899,206.370442 106.468979,207.592123 C107.340324,208.265007 110.816072,210.930706 113.063226,209.662444 C114.780867,208.694415 114.918448,205.919895 114.984734,204.672379 C115.173185,200.88873 113.578094,199.035658 112.344877,195.292718 C111.208389,191.845314 111.187964,189.221107 111.147114,183.966821 C111.101253,178.272949 111.947164,177.972716 112.222326,170.813688 C112.349887,167.65086 112.222326,164.891998 111.983004,159.363705 C111.595697,150.501526 111.070808,148.436294 110.423369,146.69713 C109.519652,144.272165 108.220919,142.001428 106.591915,140 L88,144.503114 Z" id="Path" fill="#FFECB3"></path>
                        <path d="M111.744429,150.586025 C111.519982,149.709116 111.295895,148.837422 111,148 C112.874244,149.953861 114.251601,152.360705 115,155 C113.582589,153.824703 112.463599,152.308179 111.74479,150.586398 L111.744429,150.586025 Z" id="Path" fill="#212121"></path>
                        <path d="M87.656185,144.666162 C87.8240644,145.416276 87.9394491,146.201331 88,147 C87.8040541,146.279837 87.6322765,145.541522 87.4259356,144.86946 C87.2949584,144.565421 87.1515073,144.273635 87,144 C87.2112786,144.239147 87.4319127,144.465134 87.656185,144.666616 L87.656185,144.666162 Z" id="Path" fill="#212121"></path>
                        <path d="M102,202.322513 C102,202.322513 109.150174,207.315176 114.415674,201 C114.801878,202.065576 115,203.191453 115,204.3222 C115,204.515464 114.993821,204.710226 114.982621,204.902367 C114.921214,206.096037 114.78334,208.7508 113.06203,209.677046 C110.810077,210.890566 107.326907,208.339552 106.4537,207.696086 C105.329848,206.873589 103.803185,205.501637 102.168385,202.460719 L102,202.322513 Z" id="Path" fill="#E91E63"></path>
                        <path d="M106.000421,204.00119 C106.90693,205.129224 107.73604,206.277884 108.620254,207.389656 C109.05437,207.94574 109.515827,208.480803 110,209 C109.444316,208.523243 108.931118,207.993337 108.481018,207.425353 C107.492481,206.397668 106.6558,205.242662 106,204 L106.000421,204.00119 Z" id="Path" fill="#212121"></path>
                        <path d="M112,203.000676 C112.338154,204.019493 112.529477,205.02107 113,206 C112.826474,205.615324 112.737486,205.225577 112.737486,204.836845 C112.737486,204.711437 112.747497,204.581634 112.764182,204.457239 C112.350389,203.981634 112.0901,203.492169 112,203 L112,203.000676 Z" id="Path" fill="#212121"></path>
                        <path d="M141.55066,124 C137.093614,129.886283 132.854531,136.120346 129.037076,142.459867 C127.779921,144.556627 126.27775,147.146173 126.032348,150.780997 C125.699992,155.780189 128.020299,159.738367 128.797085,161.035273 C130.488621,163.850081 131.152946,163.38366 136.493441,169.479696 C140.157857,173.658484 140.858123,175.037585 141.302552,176.237562 C142.058855,178.247086 142.09982,180.221329 142.145809,184.076763 C142.217304,189.803695 141.665438,190.895887 141.90543,196.023025 C142.033349,198.771146 142.334788,201.498718 143.949805,204.22629 C144.588624,205.302973 145.615835,206.989919 147.077428,207 C148.702493,207 149.842165,204.949378 149.964673,204.708219 C151.165791,202.452496 149.903225,200.980731 149.842165,196.986883 C149.791152,193.679678 150.603491,191.095948 151.405783,188.542459 C152.290004,185.722611 152.831821,185.32753 153.80802,182.74884 C154.68683,180.441551 156.245811,176.349999 155.974903,172.012636 C155.561004,165.383104 151.170815,162.906771 152.729796,158.98465 C153.460206,157.143781 154.99368,156.262118 155.974903,155.605718 C159.439905,153.293388 163.942167,148.509765 168,137.512241 L141.55066,124 Z" id="Path" fill="#FFECB3"></path>
                        <path d="M161.000399,151 C161.687136,149.977519 162.352699,148.9245 162.975916,147.861429 C163.599532,146.797972 164.196382,145.729489 164.761671,144.635493 C165.32696,143.541883 165.87627,142.442475 166.415192,141.338428 L168,138 C167.831012,138.593 167.635658,139.175949 167.434711,139.763924 C167.234163,140.351512 167.006849,140.918998 166.779934,141.496922 C166.320112,142.641946 165.791976,143.766481 165.221493,144.865503 C164.647415,145.966458 164.005821,147.042672 163.307499,148.071724 C162.621961,149.099616 161.842541,150.084986 161,151 L161.000399,151 Z" id="Path" fill="#212121"></path>
                        <path d="M142,124 C138.834547,128.230584 135.779994,132.544399 132.894585,136.967873 C132.176922,138.073939 131.464845,139.184739 130.784282,140.301061 L129.72953,141.985799 L129.201755,142.831127 L128.737808,143.707223 C128.43702,144.291813 128.104717,144.86023 127.825072,145.444425 C127.545427,146.02862 127.297696,146.623466 127.039194,147.228568 C126.780692,147.833669 126.617134,148.454155 126.432432,149.080163 C126.247731,149.706171 126.131645,150.347958 126,151 C126.314351,150.41186 126.668196,149.833582 127.054353,149.288832 L127.613244,148.475061 L128.141019,147.630128 L129.195771,145.955645 C129.899471,144.846424 130.622719,143.740752 131.364715,142.638236 C135.212327,134.392838 138.757156,128.180093 142,124 Z" id="Path" fill="#212121"></path>
                        <path d="M150.83731,201 C148.06987,203.092839 145.126283,202.569432 143,201.653963 C143.29452,202.529474 143.685194,203.373731 144.158689,204.169722 C144.826511,205.268363 145.900358,206.989714 147.428308,207 C149.127153,207 150.318566,204.907556 150.441788,204.66148 C151.152434,203.375313 151.061937,202.349862 150.83731,201 Z" id="Path" fill="#E91E63"></path>
                        <path d="M145.439732,203 C145.537946,203.700571 145.498512,204.350095 145.518601,205.015238 C145.518601,205.342476 145.518601,205.665143 145.587054,205.992381 C145.65625,206.32 145.705357,206.642286 145.784226,207 C145.78497,206.651429 145.858631,206.302857 146,205.962286 C145.34747,205.434286 145,204.821714 145,204.196952 C145,203.787429 145.149554,203.380952 145.438988,203 L145.439732,203 Z" id="Path" fill="#212121"></path>
                        <path d="M149,202.000419 C148.854626,202.865119 148.621145,203.663174 148.447137,204.50021 C148.339941,204.910135 148.281938,205.32048 148.204112,205.730405 C148.126285,206.140749 148.097651,206.561992 148,207 C148.098385,206.568698 148.270191,206.142007 148.51395,205.730405 C148.195301,205.231201 148.030837,204.703077 148.030837,204.171599 C148.030837,203.412943 148.364905,202.666443 149,202 L149,202.000419 Z" id="Path" fill="#212121"></path>
                        <rect id="Rectangle" stroke="#00838F" stroke-width="0.5" fill="#00838F" x="217" y="167" width="9" height="3"></rect>
                        <path d="M157,149 C157.52455,148.392047 158.017692,147.750845 158.472085,147.096039 C158.935859,146.446524 159.383725,145.786807 159.788355,145.097617 C160.612706,143.742665 161.356702,142.338216 162.012186,140.91374 C162.190027,140.564234 162.330342,140.194323 162.486565,139.834615 C162.642788,139.474907 162.799419,139.115198 162.928721,138.745288 L163.354969,137.646137 L163.732677,136.536784 C164.239688,135.037873 164.611686,133.538962 165,132 C164.902922,132.779494 164.805843,133.558988 164.670831,134.33357 C164.536226,135.107775 164.357977,135.882357 164.131596,136.636913 C163.466323,138.085949 162.669301,139.488131 161.76174,140.815878 C160.88477,143.846573 159.250752,146.651694 157.000816,149 L157,149 Z" id="Path" fill="#212121"></path>
                        <path d="M240.144163,123 C240.372944,124.320279 240.523375,125.645894 240.642467,126.976464 C240.761558,128.307416 240.846176,129.633031 240.911989,130.968556 C240.977803,132.304081 241.002875,133.634651 240.999741,134.970557 C240.999741,135.042974 240.999741,135.125682 240.999741,135.19848 C240.999741,136.467305 240.946463,137.741085 240.852444,139 C240.623663,137.679721 240.473232,136.354106 240.35414,135.023154 C240.235049,133.692584 240.150431,132.366969 240.084618,131.031444 C240.018804,129.695919 239.993732,128.365349 240.003134,127.029443 C240,126.938731 240,126.846495 240,126.754258 C240,125.504871 240.04701,124.241001 240.144163,123.001525 L240.144163,123 Z" id="Path" fill="#439916"></path>
                        <path d="M248,130.146019 C246.681277,130.373821 245.354931,130.522974 244.024774,130.643299 C242.694616,130.76331 241.368271,130.846347 240.030491,130.912463 C238.696522,130.978892 237.366365,131.003646 236.028585,130.999573 C235.95617,130.999886 235.876131,130.999886 235.803716,130.999886 C234.53454,130.999886 233.257742,130.947871 232,130.851987 C233.322535,130.624185 234.645069,130.475032 235.975226,130.354707 C237.309195,130.234383 238.631729,130.151659 239.969509,130.08523 C241.303478,130.019114 242.633635,129.994046 243.971415,130.002507 C244.062887,130 244.154359,130 244.245831,130 C245.49595,130 246.761315,130.047942 248,130.143826 L248,130.146019 Z" id="Path" fill="#439916"></path>
                        <path d="M251.016591,133.001136 C251.302097,133.869417 251.516226,134.760787 251.645596,135.654428 C251.783888,136.540121 251.890953,137.431113 251.944485,138.322104 C251.998017,139.213096 252.015861,140.104088 251.984634,141 C251.699128,140.132475 251.484999,139.237699 251.351168,138.345572 C251.212876,137.4595 251.105811,136.568887 251.052279,135.677896 C250.998747,134.786904 250.985364,133.895912 251.016591,133 L251.016591,133.001136 Z" id="Path" fill="#439916"></path>
                        <path d="M256,138.004915 C255.132986,138.292428 254.23947,138.50919 253.345954,138.641229 C252.460009,138.784535 251.574065,138.885931 250.680549,138.945416 C249.790819,139.004901 248.893516,139.01076 248,138.986876 C248.867014,138.701165 249.76053,138.485756 250.654046,138.355519 C251.539991,138.212664 252.429721,138.10541 253.323237,138.051783 C254.212967,137.998156 255.102698,137.985988 256,138.016182 C256,138.016182 256,138.010774 256,138.010774 L256,138.004915 L256,138.004915 Z" id="Path" fill="#439916"></path>
                        <path d="M99.146753,10 C99.3743441,11.3200591 99.5233583,12.6454532 99.6435715,13.9761825 C99.7637847,15.3061497 99.8464313,16.636879 99.9124859,17.9672272 C99.9788536,19.2975754 100.003898,20.6328776 99.9995152,21.9685609 C99.9954455,23.3038632 99.9666444,24.6441195 99.8548838,26 C99.6360582,24.689849 99.4610604,23.3530224 99.3533694,22.0257229 C99.2293995,20.7003287 99.1505096,19.3699805 99.084455,18.0396323 C99.0180873,16.708903 98.9933559,15.3736007 99.0014954,14.0333444 C99.0011823,13.9384557 99.0011823,13.8458534 99.0011823,13.7536322 C99.0011823,12.5044539 99.0490798,11.2407946 99.1451877,10.0015243 L99.146753,10 Z" id="Path" fill="#00838F"></path>
                        <path d="M106.997337,18.1468378 C105.679569,18.3744217 104.356475,18.5234313 103.028436,18.6436407 C101.700017,18.763537 100.376923,18.846494 99.0488837,18.9125466 C97.7208445,18.9789121 96.3878599,19.0036427 95.0244419,18.9995731 C93.6610238,18.9955035 92.3584726,18.9663903 91,18.8546332 C92.3082574,18.6361276 93.6427637,18.4608222 94.9677596,18.3534477 C96.2957988,18.2291687 97.6242184,18.1505944 98.9522575,18.0842288 C100.280297,18.0181762 101.613281,17.9931326 102.946646,18.0015848 C103.044414,18.0009587 103.155876,18.0009587 103.252502,18.0009587 C104.501795,18.0009587 105.760598,18.0529242 107,18.1484031 L106.997337,18.1468378 Z" id="Path" fill="#00838F"></path>
                        <path d="M110.014623,20.0011354 C110.299586,20.8697545 110.513421,21.7610825 110.642705,22.6546814 C110.784516,23.5403321 110.890986,24.4312816 110.944221,25.3222312 C110.997455,26.2131807 111.015349,27.1041302 110.985824,28 C110.700414,27.1325164 110.483895,26.2377821 110.351479,25.3456971 C110.209669,24.4596679 110.109014,23.5690968 110.055779,22.6777688 C110.002545,21.7868193 109.984651,20.8962483 110.014176,20 L110.014623,20.0011354 Z" id="Path" fill="#00838F"></path>
                        <path d="M115,25.0160479 C114.131736,25.2980568 113.243015,25.5090048 112.350507,25.6417412 C111.458756,25.783416 110.571929,25.8839739 109.680178,25.9429678 C108.788427,26.0019618 107.891751,26.0140287 107,25.9845317 C107.865612,25.6953721 108.756606,25.4812956 109.649493,25.3525815 C110.53632,25.2109067 111.428071,25.1045388 112.319822,25.0513549 C113.211573,24.998171 114.102945,24.986104 115,25.0160479 Z" id="Path" fill="#00838F"></path>
                        <path d="M14.1473262,188 C14.3750103,189.320059 14.5238806,190.645834 14.643665,191.976183 C14.7637621,193.306531 14.8463288,194.631925 14.9126324,195.962273 C14.9786233,197.292621 15.0036435,198.627924 14.9995777,199.968561 C14.9951992,201.308817 14.9664259,202.639165 14.8547731,204 C14.6370972,202.688706 14.4610173,201.353785 14.3531176,200.023817 C14.2289547,198.693469 14.1504537,197.363121 14.0841501,196.032773 C14.0181592,194.702044 13.993139,193.366741 14.0015833,192.031439 C14.0022089,191.938837 14.0022089,191.841662 14.0022089,191.74944 C14.0022089,190.498357 14.0538131,189.241938 14.1495154,188.000381 L14.1473262,188 Z" id="Path" fill="#00BCD4"></path>
                        <path d="M22.5962634,196.054159 C21.2175819,196.295933 19.8100191,196.489906 18.4128856,196.608715 C17.0177578,196.746228 15.6174152,196.828666 14.2170727,196.906256 C12.8167302,196.984191 11.4107719,197.007399 10,196.998047 C11.377077,196.755234 12.7846399,196.561607 14.1817733,196.442798 C15.5769012,196.305285 16.9824584,196.222846 18.3828009,196.149414 C19.7835445,196.076327 21.1891017,196.048617 22.5946589,196.05312 C24.0002161,196.057969 21.1850904,195.930501 22.5962634,196.054159 Z" id="Path" fill="#00BCD4"></path>
                        <path d="M24.0138559,198 C24.3003665,198.870199 24.5133438,199.760098 24.6420269,200.654544 C24.7899901,201.541412 24.8908741,202.427902 24.9442305,203.319695 C24.9975869,204.211867 25.0155219,205.108207 24.9854808,206 C24.6980736,205.135104 24.4833028,204.242932 24.3523778,203.350381 C24.2102434,202.463892 24.1093594,201.572098 24.056003,200.680305 C24.0021982,199.788512 23.9847116,198.896718 24.0143043,198 L24.0138559,198 Z" id="Path" fill="#00BCD4"></path>
                        <path d="M29.9996212,203.013433 C29.1329135,203.29926 28.2412046,203.51419 27.3498745,203.647456 C26.4581656,203.789696 25.57176,203.890655 24.6800511,203.944052 C23.7883423,203.997448 22.8917089,204.015396 22,203.985781 C22.8670865,203.700852 23.7587954,203.485922 24.6501255,203.352656 C25.5418344,203.209967 26.42824,203.109008 27.3199489,203.055612 C28.2116577,203.002215 29.1033666,202.984716 30,203.014331 L29.9996212,203.013433 Z" id="Path" fill="#00BCD4"></path>
                        <circle id="Oval" stroke="#00838F" stroke-width="0.5" cx="205" cy="45" r="32"></circle>
                        <circle id="Oval" fill="#B2EBF2" cx="205" cy="45" r="28"></circle>
                        <path d="M206,18 C205.333333,17.350438 205,16.6758448 205,16 C205,15.3245724 205.333333,14.6499791 206,14 L206,18 Z" id="Path" fill="#00838F"></path>
                        <path d="M206,70 C205.333333,69.350438 205,68.6758448 205,68.0004172 C205,67.3245724 205.333333,66.6499791 206,66 L206,70 Z" id="Path" fill="#00838F"></path>
                        <path d="M233,45.9984894 C233.647182,45.3398792 234.323591,45 235,45 C235.676409,45 236.352818,45.3398792 237,46 L233,45.9984894 Z" id="Path" fill="#00838F"></path>
                        <path d="M181,45.9984894 C181.649562,45.3398792 182.324155,45 183,45 C183.675428,45 184.350021,45.3398792 185,46 L181,45.9984894 Z" id="Path" fill="#00838F"></path>
                        <path d="M229,60 C230.154131,60.3635303 231.193588,61.057154 232,62 L229,60 Z" id="Path" fill="#00838F"></path>
                        <path d="M185,33 C186.15544,33.3635303 187.194671,34.057154 188,35 L185,33 Z" id="Path" fill="#00838F"></path>
                        <path d="M220,69 C220.955645,69.8157574 221.649194,70.8539942 222,72 L220,69 Z" id="Path" fill="#00838F"></path>
                        <path d="M193,25.0002653 C193.393443,25.2894667 193.734426,25.6266914 194,26 C193.606557,25.7110639 193.265574,25.3722473 193,25 L193,25.0002653 Z" id="Path" fill="#00838F"></path>
                        <path d="M191,69 C190.634668,70.1556679 189.94248,71.19477 189,72 L191,69 Z" id="Path" fill="#00838F"></path>
                        <path d="M218.219417,24.6051073 C218.390291,24.0362694 218.658252,23.4940785 219,23 C218.638835,24.1565507 217.947573,25.1965211 217,26 L218.219417,24.6051073 Z" id="Path" fill="#00838F"></path>
                        <path d="M181.618897,60.2280772 C182.018507,59.7433628 182.485693,59.3282381 183,59 C182.183246,59.9513274 181.14477,60.6448109 180,61 L181.618897,60.2280772 Z" id="Path" fill="#00838F"></path>
                        <path d="M226,33 C225.710875,33.3944773 225.371353,33.7327416 225,34 C225.286472,33.6032216 225.625995,33.2646285 226,33 L226,33 Z" id="Path" fill="#00838F"></path>
                        <path d="M204.289159,43.6426801 L197,30 L205.089907,43.180837 C205.258692,43.131621 205.439252,43.1052412 205.627664,43.1052412 C206.24,43.1052412 206.785607,43.3903004 207.142804,43.8356069 L218,39.1793779 L207.527477,44.6466869 C207.554953,44.7774046 207.566729,44.9132408 207.566729,45.0526206 C207.566729,46.1278922 206.699252,47 205.627664,47 C204.556075,47 203.684673,46.1278922 203.684673,45.0526206 C203.684673,44.4978577 203.916262,43.9970355 204.289159,43.6426801 Z" id="Path" fill="#00838F"></path>
                        <line x1="0" y1="255.5" x2="264" y2="255.5" id="Path" stroke="#B2EBF2" stroke-width="0.5"></line>
                    </g>
                </g>
            </g>
        </g>
    </g>
</svg>