<?xml version="1.0" encoding="UTF-8"?>
<svg width="532px" height="376px" viewBox="0 0 532 376" version="1.1" xmlns="http://www.w3.org/2000/svg" xmlns:xlink="http://www.w3.org/1999/xlink">
    <!-- Generator: Sketch 64 (93537) - https://sketch.com -->
    <title>faq</title>
    <desc>Created with Sketch.</desc>
    <g id="Pricing" stroke="none" stroke-width="1" fill="none" fill-rule="evenodd">
        <g id="About" transform="translate(-111.000000, -1392.000000)">
            <g id="Faq" transform="translate(111.000000, 1165.000000)">
                <g id="faq" transform="translate(0.000000, 227.000000)">
                    <circle id="Oval" fill="#F8BBD0" cx="273" cy="346" r="29"></circle>
                    <path d="M445.87554,373.132273 C462.082728,368.26242 479.31268,363.183356 492.166079,351.606114 C503.651594,341.259778 511.40629,325.461325 506.647669,309.945182 C501.899125,294.460967 487.676164,284.136476 472.991365,279.001118 C464.662309,276.088113 455.948667,274.47239 447.238385,273.202834 C437.769846,271.823211 428.259322,270.69313 418.752997,269.605059 C380.262498,265.199842 341.62673,262.508652 302.846533,261.532329 C283.710445,261.050049 264.578557,261.061812 245.43995,261.339081 C228.34855,261.587783 210.347746,261.581061 194.491555,254.312411 C182.161295,248.660324 170.970517,238.377004 167.535275,224.86308 C163.569338,209.264596 170.884027,193.377921 181.377848,182.080469 C186.908999,176.125906 193.373065,171.114058 200.04202,166.505511 C207.276097,161.505426 214.762927,156.85991 222.41182,152.52275 C237.477007,143.986225 253.227395,136.720936 269.498401,130.802503 C277.526002,127.881935 285.672001,125.362148 293.888536,123.03813 C300.827037,121.075401 307.78653,119.110152 314.492432,116.435766 C327.454992,111.265959 339.785253,102.509299 343.081103,88.1534847 C346.204814,74.5471373 340.938171,59.7771001 331.70391,49.6693837 C321.021155,37.9753524 304.913892,32.8492362 289.470837,32.0199497 C272.134242,31.088998 255.196508,35.4303588 238.90199,40.9404506 C221.52173,46.8168736 204.51682,53.574676 186.769608,58.334461 C169.171024,63.0505551 151.23152,66.3870257 133.114837,68.3144656 C124.246689,69.2588607 115.109835,70.3259264 106.187946,69.6025062 C98.7111931,68.9967154 91.272227,66.7962076 85.7612287,61.4860856 C81.037036,56.9338323 78.2223374,50.6767945 79.1896801,44.0735906 C79.3651789,42.8746121 81.1865039,43.3846191 81.0118448,44.5760357 C79.8337356,52.6143169 85.2943515,60.0207608 92.0229253,63.8143052 C99.7994537,68.1993569 109.262114,68.2052384 117.920335,67.7036335 C136.693669,66.5693511 155.339367,63.8722797 173.665137,59.6409862 C191.671819,55.5256417 209.036124,49.642497 226.380276,43.3577324 C242.852812,37.3897266 259.69314,31.5645564 277.291724,30.2714744 C292.560959,29.1497952 308.623718,31.3755093 321.92636,39.3600171 C333.617603,46.3774442 342.215365,58.0807178 344.95449,71.5097811 C347.631477,84.632168 343.924169,97.8402563 333.996311,106.998536 C323.717455,116.479457 309.62297,120.533466 296.48827,124.267356 C279.829319,129.001934 263.528083,134.537232 247.748305,141.724382 C231.754402,148.98883 216.414631,157.617778 201.900292,167.515443 C187.889777,177.095508 174.063998,189.148308 169.632863,206.239003 C167.568863,214.199985 167.95009,222.643247 171.403806,230.162279 C174.474615,236.848664 179.531332,242.473024 185.422718,246.810184 C199.480256,257.160721 217.197238,259.28561 234.176957,259.496502 C253.247548,259.734281 272.318978,259.089841 291.396285,259.403239 C330.273889,260.041798 369.07256,262.409507 407.79062,266.507207 C417.492597,267.534783 427.182818,268.670746 436.860443,269.914256 C445.564848,271.033414 454.298643,272.145851 462.856099,274.132946 C478.073273,277.666866 492.880669,284.462478 502.338292,297.372292 C506.535988,302.968085 509.136561,309.599016 509.862908,316.557628 C510.524597,323.819556 508.747777,331.094927 505.467041,337.555296 C498.203573,351.853975 484.599477,360.948399 470.152315,366.923127 C462.414413,370.123484 454.388491,372.548327 446.377685,374.955527 C445.210492,375.305894 444.711706,373.4818 445.87554,373.132273 L445.87554,373.132273 Z" id="Path" fill="#B2EBF2"></path>
                    <circle id="Oval_0" fill="#FFA000" cx="80" cy="45" r="15"></circle>
                    <circle id="Oval_1" fill="#B2EBF2" cx="184" cy="73" r="15"></circle>
                    <circle id="Oval_2" fill="#00BCD4" cx="273" cy="15" r="15"></circle>
                    <circle id="Oval_3" fill="#FFECB3" cx="328" cy="80" r="15"></circle>
                    <circle id="Oval_4" fill="#00838F" cx="254" cy="155" r="15"></circle>
                    <circle id="Oval_5" fill="#FFECB3" cx="159" cy="190" r="15"></circle>
                    <circle id="Oval_6" fill="#B2EBF2" cx="260" cy="247" r="15"></circle>
                    <circle id="Oval_7" fill="#F2F2F2" cx="369" cy="278" r="15"></circle>
                    <circle id="Oval_8" stroke="#00838F" stroke-width="0.5" fill="#00838F" cx="495" cy="270" r="15"></circle>
                    <path d="M269.392964,43 C223.901981,43.3249361 186.654704,80.255131 186.008437,125.696203 C186.002531,126.115089 186,129.064987 186,132.923453 C186,144.70366 195.559864,154.253745 207.352136,154.25543 C213.02174,154.253745 218.458486,152.001708 222.465175,147.994904 C226.471864,143.9881 228.720301,138.554387 228.715239,132.890583 C228.712708,130.266017 228.711864,128.449722 228.711864,128.338469 C228.707646,108.938254 242.489341,92.266273 261.559292,88.6024996 C280.629243,84.9378835 299.619043,95.3122534 306.819947,113.329388 C314.020851,131.345679 307.404625,151.932596 291.052203,162.396306 L291.059797,162.405577 C291.059797,162.405577 260.669198,181.950759 251.403782,208.761961 L251.411375,208.764489 C249.782207,214.256356 248.956234,219.955559 248.960452,225.684261 C248.960452,228.039966 249.098817,248.643739 249.367111,265.367975 C249.562004,277.373218 259.361476,287.00337 271.380701,287 C277.24351,287 282.864181,284.66368 286.997424,280.510223 C291.129823,276.355081 293.433944,270.725833 293.397665,264.869864 C293.304859,249.553993 293.254237,231.719753 293.254237,230.425169 C293.254237,213.962209 309.152753,197.558248 322.211405,186.861075 C337.2502,174.543986 348.071382,157.756538 352.418079,138.820721 C353.379887,134.922641 353.910569,130.930165 354,126.915775 C354,104.555548 345.066154,83.1199034 329.181981,67.3657623 C313.297808,51.6116211 291.77609,42.8428385 269.392964,43 Z" id="Path_9" fill="#F8BBD0"></path>
                    <path d="M531.249242,376 L0.747398596,376 C0.334229934,375.99888 0,375.775476 0,375.5 C0,375.223964 0.334229934,375.00056 0.747398596,375 L531.249242,375 C531.664091,375 532,375.223404 532,375.5 C532,375.776036 531.664091,376 531.249242,376 Z" id="Path_10" fill="#B2EBF2"></path>
                    <circle id="Oval_11" fill="#2F2E41" cx="396.5" cy="153.5" r="18.5"></circle>
                    <polygon id="Path_12" fill="#FFF3E0" points="360.998232 367 352.868543 367 349 337 361 337"></polygon>
                    <path d="M348.273124,366 L363,366 L363,375 L339,375 C339,372.613166 339.977473,370.323869 341.716495,368.635916 C343.455517,366.947962 345.813246,366 348.273124,366 Z" id="Path_13" fill="#2F2E41"></path>
                    <polygon id="Path_14" fill="#FFF3E0" points="421.998232 367 413.868543 367 410 337 422 337"></polygon>
                    <path d="M407.272614,366 L422,366 L422,375 L398,375 C398,372.613166 398.976677,370.323869 400.715759,368.635916 C402.454841,366.947962 404.812651,366 407.272614,366 Z" id="Path_15" fill="#2F2E41"></path>
                    <circle id="Oval_16" fill="#FFF3E0" cx="393.5" cy="156.5" r="15.5"></circle>
                    <path d="M403.751462,222.193647 L410.728224,206.272265 C414.201368,198.618433 412.432206,189.620305 406.316323,183.825285 C405.703465,183.224177 405.052515,182.661742 404.366859,182.142182 C400.924189,179.467881 396.681586,178.009248 392.311164,178 C389.372154,178.010929 386.47039,178.651551 383.80395,179.878989 C383.574551,179.979874 383.352771,180.086644 383.124219,180.194255 C382.686584,180.401911 382.254875,180.628903 381.835863,180.86262 C376.293053,184.022852 372.59305,189.611898 371.868456,195.918911 L368.788929,221.543777 C368.014392,223.555598 340.384992,296.193015 350.047664,351.647984 C350.259286,352.863652 351.24206,353.801885 352.472855,353.962461 L362.269271,355.28658 C363.753166,355.488351 365.141408,354.516489 365.44953,353.060378 L381.886652,275.246705 C382.097428,274.251303 382.964233,273.528292 383.987638,273.493822 C385.011043,273.459353 385.925251,274.123515 386.203746,275.101262 L409.42717,356.931851 C409.767459,358.154245 410.886517,359 412.163022,359 C412.348404,359 412.532938,358.982345 412.71578,358.949557 L424.682594,356.661142 C426.124165,356.392956 427.123868,355.078925 426.987583,353.627858 C425.228579,334.15111 415.883341,236.588298 403.751462,222.193647 Z" id="Path_17" fill="#FFA000"></path>
                    <path d="M333.043024,169.753917 C332.824559,171.643125 333.44537,173.533185 334.739289,174.914513 C336.032364,176.296694 337.865275,177.028688 339.744579,176.9145 L348.43003,198 L355,188.161123 L345.745191,169.646547 C345.336096,166.398166 342.587151,163.972959 339.34645,164 C336.105748,164.027496 333.397291,166.499572 333.043024,169.753917 Z" id="Path_18" fill="#FFF3E0"></path>
                    <path d="M392.243657,243.9505 C394.124877,243.732631 395.809995,242.718925 396.845685,241.182333 C397.881374,239.645741 398.160671,237.744116 397.608869,235.988012 L416,223.015363 L404.927459,219 L389.160358,231.93483 C386.110168,233.052949 384.404675,236.203414 385.190781,239.269198 C385.977735,242.33416 389.007552,244.345952 392.243657,243.9505 Z" id="Path_19" fill="#FFF3E0"></path>
                    <path d="M362.485326,211 C361.783553,211 361.084314,210.931137 360.396053,210.795092 C357.016397,210.156016 354.17975,207.885237 352.828563,204.738563 L340.646769,189.966746 C340.125718,189.335227 339.903616,188.510559 340.038735,187.704365 C340.173854,186.898172 340.651836,186.189393 341.350231,185.759423 L350.01725,180.424269 C350.66413,180.026211 351.442752,179.901923 352.182527,180.078278 C352.921457,180.253793 353.559048,180.716515 353.95427,181.363149 L362.540218,195.429547 L378.983317,183.345041 C381.689913,181.934203 385.0265,182.710164 386.823579,185.168215 C388.619813,187.626265 388.331841,191.022355 386.146296,193.146172 L369.735288,208.033879 C367.806469,209.935152 365.200367,211.000839 362.485326,211 Z" id="Path_20" fill="#FFA000"></path>
                    <path d="M407.437853,233 C407.416142,233 407.393596,233 407.371884,232.999153 C406.572739,232.979679 405.819522,232.617279 405.298449,232.001709 L397.678595,222.988297 C397.154182,222.367646 396.916192,221.548014 397.026419,220.737696 C397.136646,219.928225 397.584234,219.204273 398.255617,218.751274 L412.523323,209.106204 L399.597546,193.34861 C398.043513,190.722062 398.623875,187.336 400.962857,185.396148 C403.301003,183.455449 406.688811,183.547742 408.920907,185.612063 L424.630749,201.179144 C427.140081,203.504257 428.364268,206.930115 427.904989,210.345813 C427.44571,213.760664 425.361419,216.729289 422.328509,218.287267 L409.489577,232.102469 C408.955979,232.674857 408.214452,233 407.437853,233 Z" id="Path_21" fill="#FFA000"></path>
                    <path d="M389.53835,201 C389.415181,201 389.29285,200.992495 389.171356,200.976661 C388.083781,200.845818 387.172999,200.0966 386.839521,199.059028 L381.094139,181.539481 C380.796689,180.623584 381.224011,179.630182 382.095412,179.210986 L382.28226,179.124314 C382.451513,179.044308 382.61909,178.965136 382.789181,178.889298 C385.46874,177.653379 388.384582,177.009167 391.338129,177 C395.171456,177.006667 398.920156,178.126745 402.122555,180.222723 C403.015742,180.814431 403.267945,182.00868 402.688966,182.907076 L391.911243,199.700739 C391.397619,200.510795 390.501081,201.001663 389.53835,201 Z" id="Path_22" fill="#FFECB3"></path>
                    <circle id="Oval_23" fill="#212121" cx="412" cy="138" r="6"></circle>
                    <path d="M389.507937,132 C380.390476,132 373,139.55027 373,148.864865 L373,156 L381.590053,156 L385.698413,148.864865 L386.931005,156 L413,156 L406.015873,148.864865 C406.015873,139.55027 398.62455,132 389.507937,132 Z" id="Path_24" fill="#212121"></path>
                    <path d="M415,134.571501 C416.39424,130.201401 420.717959,127.467074 425.252348,128.087454 C429.143115,128.740266 432.220229,131.876259 434.054057,135.379823 C435.887055,138.882556 436.733884,142.803587 437.966388,146.561623 C439.198893,150.319659 440.946462,154.097654 444.057582,156.530939 C447.169532,158.963392 451.943621,159.623688 455,157.120549 C454.284218,162.469451 450.237523,166.759716 444.951687,167.775109 C439.665851,168.790502 434.323615,166.303995 431.686918,161.599589 C430.074543,158.723889 429.658179,155.35255 429.179609,152.087658 C428.701868,148.822765 428.080639,145.445605 426.155577,142.769491 C424.230514,140.093377 420.626724,138.345337 417.568686,139.564474 L415,134.571501 Z" id="Path_25" fill="#212121"></path>
                    <path d="M213.739582,144.957717 C201.92185,144.95688 192.342191,135.474454 192.341346,123.777704 C192.341346,119.946573 192.343882,117.017574 192.349801,116.600819 C192.529895,103.478902 195.868825,90.5887949 202.089262,79 C191.869549,92.8474718 186.249426,109.496741 186.008455,126.643103 C186.002537,127.059857 186,129.988857 186,133.819988 C186.000846,145.516737 195.580505,154.999163 207.398237,155 C216.980432,154.996653 225.39413,148.693446 228,139.566684 C224.081894,143.043825 219.002053,144.964412 213.739582,144.957717 Z" id="Path_26" fill="#E91E63"></path>
                    <path d="M270.486728,87.2095856 C283.666341,87.8464337 295.696262,94.9948834 302.669717,106.331964 C309.642336,117.669044 310.669025,131.749991 305.415923,144 C315.64098,131.846535 317.890994,114.760038 311.167727,100.320864 C304.443622,85.8808429 289.992153,76.7608743 274.22197,77.0047736 C258.451787,77.2495197 244.283138,86.8132494 238,101.454826 C246.05788,91.8606087 258.060189,86.5981438 270.486728,87.2095856 Z" id="Path_27" fill="#E91E63"></path>
                    <path d="M276.381536,276.821081 C264.515851,276.823626 254.841561,267.132448 254.649158,255.049224 C254.384292,238.218383 254.246861,217.481382 254.246861,215.111391 C254.243529,209.345882 255.058952,203.610062 256.667308,198.082061 L256.659811,198.080364 C257.609333,195.305761 258.756254,192.604955 260.091415,190 C255.992648,195.562779 252.730126,201.716783 250.41296,208.259282 L250.420457,208.260979 C248.811268,213.78898 247.996679,219.5248 248,225.290309 C248,227.6603 248.137441,248.397301 248.401474,265.22899 C248.59471,277.311366 258.269,287.002544 270.134685,287 C279.793982,286.998303 288.293031,280.506698 291,271.064903 C287.004514,274.775119 281.789643,276.828716 276.381536,276.821081 Z" id="Path_28" fill="#E91E63"></path>
                    <polygon id="Path_29" fill="#FFF3E0" points="80.0017685 367 88.1314568 367 92 337 80 337"></polygon>
                    <path d="M103,374.999194 L79.0008305,375 L79,366.000806 L93.7268764,366 C98.8476072,366 103,370.029285 103,374.999194 Z" id="Path_30" fill="#212121"></path>
                    <polygon id="Path_31" fill="#FFF3E0" points="52.0017685 367 60.1314568 367 64 337 52 337"></polygon>
                    <path d="M74,374.999194 L50.0008305,375 L50,366.000806 L64.7268764,366 C69.8484377,366 73.9991695,370.029285 74,374.999194 Z" id="Path_32" fill="#212121"></path>
                    <path d="M59.419632,357.995761 L51.812977,357.595998 C51.0202113,357.554585 50.2782638,357.197926 49.7506003,356.606311 C49.2229368,356.015541 48.9552937,355.23799 49.006112,354.447761 L58.0975088,254 L99.9667196,265.27449 L104,264.175777 L91.3860469,353.098879 C91.1641403,354.476497 90.0131054,355.516049 88.6172956,355.598875 L80.4169133,355.980044 C79.5885748,356.026528 78.7780226,355.723959 78.1826014,355.145867 C77.5871801,354.56862 77.2619429,353.769095 77.2848111,352.940834 L78.7703999,299.570407 C78.7847984,299.059083 78.405355,298.621287 77.8954779,298.562126 C77.3864477,298.502964 76.9163783,298.841875 76.8122008,299.342213 L62.4831295,355.638598 C62.2036287,357.016215 60.989071,358.004212 59.5805567,358 C59.5271974,358 59.4738382,357.998296 59.419632,357.995761 Z" id="Path_33" fill="#00838F"></path>
                    <circle id="Oval_34" fill="#FFF3E0" cx="80.5" cy="158.5" r="15.5"></circle>
                    <path d="M56.02709,202.557992 L57.7235408,239.32966 L58.3367764,252.707983 C58.3870416,253.899486 59.1510728,254.94121 60.2686359,255.343427 L100.063603,269.822376 C100.3853,269.942704 100.725428,270.002448 101.068907,270 C101.860584,270.003289 102.619589,269.683535 103.172506,269.113869 C103.725423,268.544203 104.023664,267.773428 103.998531,266.97741 L102.367425,200.859932 C102.146258,189.670238 94.0368041,180.217311 83.0505047,178.345069 C82.6659758,178.286167 82.2739072,178.226424 81.8826763,178.174254 C75.1974033,177.341211 68.4878355,179.522268 63.5576562,184.13261 C58.4515486,188.848976 55.6936641,195.598302 56.02709,202.557992 Z" id="Path_35" fill="#B2EBF2"></path>
                    <path d="M119.772838,262.707266 C117.874388,262.125988 116.366623,260.693761 115.706039,258.844692 C115.045455,256.9948 115.309522,254.945942 116.418271,253.318038 L103,235.70707 L114.578965,235 L125.546493,251.832369 C127.969745,253.681439 128.69947,256.980823 127.27834,259.658644 C125.856376,262.336465 122.69257,263.621523 119.772838,262.707266 Z" id="Path_36" fill="#FFF3E0"></path>
                    <path d="M108.785092,249.780237 C108.054267,249.487546 107.473333,248.918889 107.171011,248.200541 L86.6189977,199.847955 C85.522337,197.272272 85.9008755,194.313582 87.6114967,192.088293 C89.3229648,189.86384 92.1073819,188.7098 94.9138168,189.062702 C97.7210987,189.414768 100.124437,191.220255 101.216863,193.796773 L121.768876,242.151032 C122.401467,243.643757 121.690967,245.3606 120.181047,245.988632 L111.056323,249.769366 C110.331426,250.072928 109.513376,250.07711 108.785092,249.780237 Z" id="Path_37" fill="#B2EBF2"></path>
                    <path d="M76.3404119,248.822973 L95.5090541,211.63474 C96.2787602,210.145778 98.0928325,209.56919 99.5639908,210.344917 L127.386893,225.068731 C128.856406,225.847791 129.425463,227.686705 128.659046,229.177334 L109.491226,266.364733 C108.72152,267.854529 106.907448,268.431116 105.436289,267.654556 L77.6133874,252.931576 C76.1438737,252.151683 75.5748175,250.313601 76.3404119,248.822973 Z" id="Path_38" fill="#FFA000"></path>
                    <path d="M90.5620692,230.314988 C89.8310578,228.431922 88.2264832,226.994956 86.2342379,226.439228 C84.2411234,225.884343 82.0950267,226.274786 80.4461221,227.49334 L61.0330302,215 L61,226.744499 L79.4404381,236.808321 C81.5413355,239.145077 85.0677487,239.683096 87.8066514,238.084218 C90.5446849,236.485341 91.706828,233.210003 90.5620692,230.314988 Z" id="Path_39" fill="#FFF3E0"></path>
                    <path d="M65.6965006,234.358275 L50.3686316,222.080917 C47.0029328,220.938857 44.4072804,218.197064 43.4230991,214.747958 C42.4397575,211.298003 43.1938486,207.579727 45.4418465,204.800573 L59.3589437,186.357789 C61.3575372,183.887712 64.8466785,183.274651 67.5523375,184.917689 C70.2588363,186.560727 71.3631012,189.962283 70.1471502,192.907864 L59.1355714,211.121387 L75.3183011,218.8823 C76.0791102,219.24742 76.6492972,219.924165 76.8835861,220.742712 C77.117875,221.56041 76.9952722,222.440942 76.5451688,223.160992 L70.0127909,233.61445 C69.5660465,234.327707 68.8413464,234.816797 68.0183961,234.9586 C68.0024409,234.961996 67.985646,234.964543 67.9696909,234.966242 C67.1610163,235.090213 66.338066,234.869443 65.6965006,234.358275 Z" id="Path_40" fill="#B2EBF2"></path>
                    <path d="M70.4921489,168.81613 C70.3589644,168.426345 70.4135618,167.997498 70.6393965,167.653423 C70.8644039,167.31018 71.2350044,167.089939 71.6436577,167.058357 C72.4775088,167.104068 73.2567626,167.490528 73.8002548,168.127981 C74.3520194,168.766264 74.9939524,169.320606 75.7053731,169.771062 C76.4432651,170.145056 77.4425629,170.091866 77.8627974,169.379614 C78.2573877,168.711411 77.9868824,167.816319 77.747812,167.040073 C77.1406228,165.065384 76.7998027,163.016727 76.736933,160.950617 C76.6682726,158.643488 76.9917208,156.236628 78.2631784,154.438132 C79.9035819,152.116043 82.8361239,151.234248 85.6123188,151.298243 C88.3876864,151.362237 91.1183835,152.223255 93.8681069,152.767624 C94.8177707,152.955452 95.9328812,153.05186 96.5681963,152.312182 C97.2432187,151.526795 96.9950487,150.254383 96.7079988,149.193071 C95.9626616,146.439643 95.1726538,143.593132 93.4412545,141.369113 C91.5692256,139.05866 88.8956077,137.546061 85.9589295,137.137161 C83.1388913,136.785607 80.2758369,137.112228 77.6063551,138.0896 C73.2559353,139.466729 69.4283269,142.14619 66.6355874,145.768116 C63.7559884,149.620256 62.5110023,154.460571 63.1744434,159.231906 C63.822167,163.387397 66.013508,167.141467 69.3075509,169.737818 L70.4921489,168.81613 Z" id="Path_41" fill="#212121"></path>
                    <path d="M264.950451,367.708084 C256.491996,364.099984 250.256269,356.807903 248.113563,348.017382 C245.970856,339.227694 248.169748,329.962707 254.051337,323 C244.870133,329.566625 240.382113,340.73364 242.529927,351.668008 C244.678592,362.60321 253.076606,371.341199 264.089793,374.101266 C275.103832,376.861333 286.754639,373.147334 294,364.56611 C285.575597,370.597399 274.515588,371.79315 264.950451,367.708084 Z" id="Path_42" fill="#E91E63"></path>
                </g>
            </g>
        </g>
    </g>
</svg>