<?xml version="1.0" encoding="UTF-8"?>
<svg width="131px" height="130px" viewBox="0 0 131 130" version="1.1" xmlns="http://www.w3.org/2000/svg" xmlns:xlink="http://www.w3.org/1999/xlink">
    <!-- Generator: Sketch 64 (93537) - https://sketch.com -->
    <title>Group</title>
    <desc>Created with Sketch.</desc>
    <g id="Landing" stroke="none" stroke-width="1" fill="none" fill-rule="evenodd">
        <g transform="translate(0.000000, -6303.000000)" id="Footer">
            <g transform="translate(-36.000000, 5581.000000)">
                <g id="Artwork" transform="translate(36.000000, 52.000000)">
                    <g id="illustration" transform="translate(0.000000, 16.000000)">
                        <g id="Deco" transform="translate(0.000000, 625.000000)">
                            <g id="Group" transform="translate(0.000000, 29.000000)">
                                <path d="M0.0810499049,24.4670539 C7.15971182,15.463229 17.3310195,7.17246125 30.1906342,0.0610150969 C45.3670013,31.7214757 40.5759501,76.436435 0.0810499049,85.3537459 L0.0810499049,24.4670539 Z" id="Path" fill="#FFECB3"></path>
                                <path d="M0.0810499049,85.4220464 C1.12650261,82.9268021 2.27941474,79.6593071 3.53067956,75.8399441 C5.40575545,74.8045088 7.35277452,74.1524669 8.84081434,73.7599668 C9.60577974,73.5587081 10.2496256,73.4257498 10.7004088,73.3437892 C10.925345,73.3018982 11.1020156,73.2736674 11.2222245,73.2554539 C11.2814182,73.2463472 11.3269519,73.2399725 11.3570041,73.2354191 L11.3998057,73.2299551 C11.6547942,73.1980815 11.8360181,72.9667706 11.8041446,72.7117821 C11.772271,72.4577043 11.5409601,72.2764803 11.2859716,72.3083539 C11.25683,72.3138179 7.64965394,72.7564051 3.94048245,74.5795726 C4.43497794,73.0478205 4.94495487,71.4359291 5.46950257,69.7575586 C5.8374145,68.5782369 6.21170114,67.3652204 6.59327316,66.1248836 C7.62233375,64.8845469 9.50105233,63.4010604 11.8341968,62.2408629 C14.2119642,61.0560772 17.0605496,60.1991338 19.9856316,60.2009552 C20.9026794,60.2000445 21.8279233,60.2847371 22.7495244,60.4677824 C23.0017809,60.5178694 23.2458413,60.3548589 23.2959283,60.1026025 C23.3460153,59.8512567 23.1830048,59.6071963 22.9307484,59.5571093 C21.9454001,59.3613146 20.9591411,59.2720686 19.9856316,59.2720686 C16.8793257,59.2720686 13.9014247,60.1745457 11.4198405,61.4094184 C9.74329137,62.246327 8.29441049,63.2307646 7.17974663,64.2124702 C8.18877241,60.9140122 9.2415105,57.4416157 10.3324969,53.8763306 C12.5463431,52.0185575 16.3083337,49.9649897 20.516554,48.3257781 C24.7903428,46.657425 29.5358603,45.4088922 33.6074797,45.1575464 C33.8633788,45.1411543 34.0582628,44.9207714 34.0427814,44.6648723 C34.0263893,44.4080625 33.8060064,44.2140891 33.5501073,44.2304812 C29.3373335,44.4927551 24.5244263,45.7667867 20.1786943,47.4606387 C16.4977537,48.8976808 13.1601368,50.629781 10.8042255,52.3354717 C12.4070102,47.1136722 14.089934,41.7215769 15.836605,36.4105314 C16.5824463,35.9324281 17.3847493,35.2421379 18.3200105,34.464423 C19.8144251,33.2204436 21.6357712,31.7515279 23.9552556,30.5949731 C26.2756506,29.4375076 29.0896305,28.5878496 32.5939005,28.5869389 C32.9299389,28.5869389 33.2714413,28.5942243 33.6193184,28.6106164 C33.8761282,28.6224552 34.0928684,28.4248391 34.1056178,28.1680293 C34.1165459,27.9121302 33.9189299,27.6944793 33.66212,27.6826405 C33.3005828,27.6653378 32.943599,27.6580524 32.5939005,27.6580524 C27.7181568,27.656231 24.0636257,29.2499089 21.2888048,31.0566843 C19.9000283,31.960072 18.7279921,32.9153681 17.7262517,33.7495447 C17.2217388,34.1702756 16.7591168,34.559133 16.3374752,34.8951714 C18.0750395,29.6669972 19.8745295,24.5417291 21.7186425,19.7652487 C22.8014328,18.9438216 24.0372162,18.1233051 25.3112478,17.4639778 C26.6262598,16.7827943 27.9813413,16.2764601 29.2371595,16.1052536 C29.4912373,16.0697373 29.6688186,15.8356943 29.6333023,15.5816165 C29.5986967,15.3275388 29.3646537,15.1499575 29.110576,15.1845631 C27.7044967,15.3785364 26.2629012,15.9267616 24.8841421,16.638908 C24.0007893,17.0960659 23.1438459,17.6224349 22.3406322,18.1715708 C24.3213462,13.1555834 26.3521472,8.56943376 28.411179,4.71455458 C28.5313879,4.48779698 28.4457846,4.206399 28.2199377,4.08619015 C27.9940907,3.96507063 27.7117821,4.0506739 27.5915732,4.27652082 C25.4196179,8.34540818 23.2886429,13.1956531 21.2168616,18.4912171 C20.7870239,17.77816 20.4109159,16.920306 20.1058405,16.112539 C19.898207,15.5643138 19.7206257,15.0388554 19.5730967,14.5926256 C19.424657,14.1445744 19.3080908,13.7812158 19.2133808,13.5326021 C19.1204922,13.2930951 18.8518436,13.1737969 18.6123366,13.2657749 C18.3728296,13.3586635 18.2535314,13.6273121 18.34642,13.8668191 C18.4238273,14.0671672 18.5431254,14.4350791 18.6915651,14.884041 C18.9155907,15.5606711 19.2124702,16.4340066 19.5867568,17.3091634 C19.9246165,18.0978063 20.3234913,18.8900919 20.8043267,19.5521512 C18.9201441,24.4406444 17.0869592,29.6806573 15.318432,35.0190229 C13.2311693,31.6304084 10.6557858,27.0342413 8.97468329,22.0091472 C8.89272271,21.7650868 8.63044886,21.6348606 8.38638847,21.7159105 C8.14323876,21.7969604 8.01301251,22.0601449 8.09406241,22.3032946 C9.92542599,27.7764399 12.7731007,32.7031813 14.9386813,36.1692031 C13.7074513,39.9138908 12.5090055,43.6968268 11.3469867,47.4305865 C10.8042255,49.1772575 10.2696604,50.9130004 9.74329137,52.6277978 C8.28712511,50.7527219 6.20077306,47.8103372 4.24282592,44.7950986 C3.1336261,43.0866758 2.06540656,41.353665 1.17385761,39.7763792 C0.768608087,39.0605901 0.399785486,38.375764 0.0810499049,37.7419355 L0.0810499049,39.7262921 C0.17393856,39.893856 0.268648561,40.0632412 0.365179909,40.2344477 C3.01797062,44.9225928 7.15515846,50.8829482 9.41271704,53.7087667 C8.26435828,57.4598292 7.15971182,61.1061642 6.10424171,64.5512405 C5.82102238,63.99573 5.45857449,63.3946857 5.03055814,62.7563039 C3.82209495,60.9604566 2.08270935,58.8795685 0.0810499049,56.8742664 L0.0810499049,58.2020278 C0.570992027,58.7120047 1.04181001,59.223803 1.4889505,59.7319586 C2.57993686,60.9722953 3.52794755,62.1862225 4.26012871,63.2753875 C4.94677622,64.2953414 5.44218238,65.2105679 5.68806411,65.9072328 C5.3128668,67.1275347 4.9440442,68.3205165 4.58250698,69.480714 C4.06888736,71.1281216 3.56801716,72.7099607 3.0826284,74.2153034 C2.18288339,72.363905 0.994455013,70.8494556 0.0810499049,69.8386085 L0.0810499049,71.2683652 C0.976241551,72.3711904 1.98071397,73.8437487 2.65279071,75.53669 C1.7393856,78.325171 0.879710204,80.8140406 0.0810499049,82.9113207 L0.0810499049,85.4220464 Z" id="Path" fill="#FF6F00"></path>
                                <path d="M51.2481281,129.6416 C52.8818756,128.35664 55.2168414,126.667341 58.1209779,124.751285 C70.4952038,116.587101 93.2684057,104.286639 117.040616,100.978164 C117.294694,100.942648 117.472275,100.708605 117.436759,100.454527 C117.401243,100.200449 117.1672,100.022868 116.913122,100.058384 C100.911685,102.288623 85.4247784,108.528555 73.1862428,114.869571 C67.0665196,118.040535 61.7600275,121.237908 57.6091796,123.976302 C54.1039989,126.288501 51.42662,128.268305 49.7673736,129.6416 L51.2481281,129.6416 Z" id="Path" fill="#AD1457"></path>
                                <path d="M62.1242968,121.942769 C53.5038653,120.464747 49.9631683,108.00765 57.4416157,95.5860687 C68.3651394,100.384405 70.1373093,117.074311 66.2487352,119.428401 C64.7270004,120.349091 62.1242968,121.942769 62.1242968,121.942769 Z" id="Path" fill="#E19100"></path>
                                <g id="_3109133160816" transform="translate(70.486097, 85.147934)" fill="#F8BBD0">
                                    <path d="M12.7985996,25.4014045 C5.40939815,22.4699478 4.59434573,10.727729 13.5744931,1.08370098 C22.3907192,7.39830817 20.8380216,22.5737645 16.9366981,23.9379528 C15.4113207,24.4725179 12.7985996,25.4014045 12.7985996,25.4014045 Z" id="Path"></path>
                                    <path d="M0.42164164,31.7478852 C-1.1064678,36.6782693 1.9998381,41.77986 7.96565751,44.4936658 L19.8162464,44.4936658 C18.9684098,34.6183268 7.45750192,27.3903145 4.15722265,29.442061 C2.78392763,30.294451 0.42164164,31.7478852 0.42164164,31.7478852 Z" id="Path"></path>
                                    <path d="M35.9278747,17.4648885 C30.8572469,14.7173878 31.2807099,6.18620229 38.5806654,0.0109280771 C44.3889384,5.31924151 41.9647266,16.1189137 39.0369126,16.7664022 C37.8912859,17.0195694 35.9278747,17.4648885 35.9278747,17.4648885 Z" id="Path"></path>
                                    <path d="M45.6465779,13.3049338 C47.2602906,8.73972963 53.975594,7.30541952 60.452301,12.0800785 C57.2367143,17.867406 49.2273445,19.1532764 45.9634921,16.9266807 C45.1484397,16.3702594 44.805116,15.686344 45.6465779,13.3049338 Z" id="Path"></path>
                                    <path d="M24.2503137,21.1094022 C21.5437933,26.2018861 26.611689,33.0765573 36.1090986,34.1875784 C38.0151374,26.5534059 30.0230704,18.8937346 27.2263933,19.9728822 C26.1317643,20.3945238 24.2503137,21.1094022 24.2503137,21.1094022 Z" id="Path"></path>
                                </g>
                                <path d="M56.1502813,59.7565467 C61.7973651,52.2216376 70.8658477,34.0418707 59.744708,30.065872 C50.955802,26.9231392 51.7408022,38.7272838 47.8968511,39.938479 C43.5137815,41.31997 41.0950338,35.968855 36.5963087,38.5487918 C30.2407213,42.1951269 33.1403044,51.4584935 27.4303841,53.5885579 C21.7204638,55.7186223 17.4603351,48.8913061 12.6392318,55.3233901 C6.67068037,63.2872263 19.6887522,72.0870603 7.93105193,77.8188368 C4.53150929,79.4753511 2.06267455,79.2431295 0.0810499049,78.1393937 L0.0810499049,117.819242 C1.52993079,117.706318 2.89685109,117.399421 4.11715303,116.863945 C11.5273,113.616485 10.4372243,106.007812 14.9377707,105.363055 C19.4392277,104.718298 27.1908771,110.55116 32.3644109,107.132493 C41.5567451,101.057393 29.0122233,87.924576 35.3259198,82.7546849 C41.640527,77.5847938 48.1664103,85.3455498 54.8261626,81.4387623 C61.4850042,77.5319747 50.5022868,67.2923665 56.1502813,59.7565467 Z" id="Path" fill="#FFA000"></path>
                                <path d="M0.0810499049,95.1052333 C3.50427004,92.7147165 6.95663172,92.0553892 10.2022706,91.657425 C12.0154207,91.4361315 13.7593597,91.3013518 15.3830898,90.9835269 C17.0059093,90.665702 18.5185373,90.1611891 19.8262638,89.1794835 C20.8079694,88.4473024 21.3571053,87.6058405 21.6348606,86.7270409 C21.845226,86.0677136 21.9144372,85.3965475 21.9490428,84.7180961 C22.0000405,83.6990529 21.9781843,82.6572429 22.1767111,81.5653459 C22.3761485,80.4743595 22.7859513,79.3287327 23.7221233,78.0765573 C24.5654066,76.9536973 25.3066945,76.3490104 26.0197515,75.9592423 C26.5543166,75.6669163 27.082507,75.4938884 27.6462136,75.3317886 C28.4885862,75.0895495 29.4174728,74.8773627 30.439248,74.302728 C31.4628445,73.7280933 32.5574736,72.7992067 33.7805075,71.1672805 C34.7521957,69.8713927 35.269458,68.73123 35.5371959,67.6766706 C35.740276,66.887117 35.8031125,66.1512932 35.8313433,65.4464322 C35.871413,64.3864087 35.8395394,63.3965071 36.0407982,62.3155381 C36.2429676,61.2345692 36.6700733,60.0470514 37.6654389,58.5763144 C40.3510139,54.6258145 43.4482131,52.9547294 46.1674829,51.8874206 C47.5271178,51.3537661 48.7902214,50.9813008 49.8648156,50.5505525 C50.4021128,50.334723 50.8929656,50.1052333 51.3246246,49.8256567 C51.7562836,49.5451694 52.131481,49.2109524 52.4128789,48.7929534 C53.134132,47.7229125 53.3636216,46.7066014 53.3627137,45.8860849 C53.3608896,44.6612296 52.8736795,43.8816934 52.8463593,43.8370705 C52.7097584,43.6194196 52.4228963,43.5556725 52.2061562,43.6922734 C51.989416,43.8288744 51.9238475,44.1157364 52.0613591,44.3324766 L52.095054,44.3106205 L52.0604485,44.331566 L52.0613591,44.3324766 L52.095054,44.3106205 L52.0604485,44.331566 C52.084126,44.3679929 52.4347351,44.9772332 52.4338244,45.8860849 C52.4320031,46.5390375 52.2607965,47.3513579 51.6415388,48.2747804 C51.4466548,48.5643745 51.1761849,48.8148096 50.819201,49.0461205 C50.198122,49.4522807 49.3184118,49.7837657 48.2766018,50.1443923 C46.7138868,50.6880641 44.7878132,51.3045898 42.7934391,52.4675193 C40.7981544,53.6295382 38.7354798,55.3434249 36.8968309,58.0554094 C35.9561056,59.4414538 35.4643421,60.647185 35.211175,61.7418141 C34.8341563,63.3864897 34.9816854,64.7433926 34.8623872,66.0829927 C34.7412677,67.4253248 34.3997652,68.7822277 33.0364876,70.6099486 C31.999231,71.993261 31.1003966,72.798296 30.2871656,73.3128263 C29.6751933,73.6989517 29.1078439,73.9257093 28.5386733,74.1069333 C27.6890153,74.3801352 26.8184118,74.539503 25.8849719,74.9848221 C24.9524426,75.4292306 23.9916825,76.1641438 22.979014,77.5192253 C22.0674303,78.7340632 21.5911483,79.9033675 21.3452665,80.9943538 C20.9773546,82.631744 21.1039382,84.0815356 20.9746226,85.2991055 C20.9117861,85.9092565 20.7915773,86.4574817 20.5402315,86.9665479 C20.2879751,87.4756142 19.903671,87.9582709 19.2689319,88.4363743 C18.1169304,89.3015137 16.7554742,89.768689 15.2045979,90.0719432 C12.8814708,90.5291011 10.156737,90.6028656 7.2553325,91.1729469 C4.93584814,91.6291942 2.49979763,92.415105 0.0810499049,93.9851054 L0.0810499049,95.1052333 Z" id="Path" fill="#FF6F00"></path>
                                <path d="M69.4615898,99.6868296 C73.1042822,106.978589 71.6499373,124.266807 54.022949,129.330149 C53.6559477,129.435787 53.276197,129.539604 52.891893,129.6416 L0.0810499049,129.6416 L0.0810499049,113.272251 C9.68591897,102.09556 28.026875,87.9200227 37.1381592,84.8055207 C50.4257903,80.2621727 63.3655442,87.4838103 69.4615898,99.6868296 Z" id="Path" fill="#E91E63"></path>
                                <path d="M0.0810499049,123.561946 C2.07815599,122.810641 4.41403246,121.949144 6.99032663,121.013883 C15.8010888,117.814688 27.4303841,113.748533 37.9850852,110.246995 C43.2615251,108.496681 48.2693164,106.887522 52.5203384,105.598919 C56.7704497,104.311228 60.2674343,103.343182 62.5004047,102.879649 C62.7517505,102.827741 62.9129397,102.581859 62.8601206,102.330514 C62.8082122,102.079168 62.5623305,101.917979 62.3118954,101.969887 C59.2602299,102.605537 54.0384304,104.121808 47.7556968,106.101611 C38.336605,109.071316 26.5524952,113.08192 16.2873882,116.702756 C10.0237787,118.912049 4.33025054,120.974724 0.0810499049,122.569312 L0.0810499049,123.561946 Z" id="Path" fill="#F8BBD0"></path>
                                <path d="M31.6977982,125.890537 C30.960153,127.015218 29.1980006,127.163658 27.7618691,126.222022 C26.324827,125.279475 25.7583883,123.603837 26.4960335,122.479156 C27.2336787,121.354474 28.9958311,121.206035 30.4328733,122.147671 C31.8690047,123.090217 32.4363541,124.764945 31.6977982,125.890537 Z" id="Path" fill="#F8BBD0"></path>
                                <path d="M32.0256405,105.529708 C31.7870442,106.671692 30.2307038,107.312806 28.54778,106.960376 C26.8666775,106.607945 25.6973732,105.39675 25.9368802,104.254766 C26.1763873,103.111871 27.7327276,102.472579 29.4138301,102.824098 C31.0958433,103.176529 32.2660582,104.386813 32.0256405,105.529708 Z" id="Path" fill="#F8BBD0"></path>
                                <path d="M18.3227425,126.217469 C18.1743028,126.927794 17.2053467,127.326669 16.1589833,127.108107 C15.1126199,126.888635 14.3859028,126.135508 14.5343425,125.424272 C14.6836929,124.713947 15.6517384,124.315073 16.6971911,124.534545 C17.7444651,124.754017 18.4720929,125.507144 18.3227425,126.217469 Z" id="Path" fill="#F8BBD0"></path>
                                <path d="M22.2541183,102.256749 C22.5719432,102.981645 21.9636136,103.94878 20.8963047,104.416866 C19.8280852,104.884041 18.7052252,104.674586 18.3874003,103.94969 C18.0704861,103.223884 18.677905,102.25766 19.7461246,101.789574 C20.8143441,101.321488 21.937204,101.530943 22.2541183,102.256749 Z" id="Path" fill="#F8BBD0"></path>
                                <path d="M40.8637228,122.245113 C40.7644595,122.733233 40.1005788,123.009167 39.3820577,122.862549 C38.6635366,122.714109 38.1635771,122.199579 38.2628405,121.711458 C38.3630145,121.224248 39.0268952,120.947404 39.7445056,121.095843 C40.4630267,121.242462 40.9638969,121.756992 40.8637228,122.245113 Z" id="Path" fill="#F8BBD0"></path>
                                <path d="M28.8100538,96.42662 C29.1788764,96.8883312 28.9275307,97.7033837 28.2481685,98.2479662 C27.5678957,98.791638 26.7173271,98.8581171 26.3475938,98.3964059 C25.9796819,97.9337839 26.230117,97.1187315 26.9103898,96.5759704 C27.5897519,96.0313879 28.4412312,95.9658194 28.8100538,96.42662 Z" id="Path" fill="#F8BBD0"></path>
                                <path d="M24.8586433,128.447707 C25.101793,128.751872 25.0753835,129.20903 24.8349658,129.6416 L22.2559396,129.6416 C22.3369895,129.280062 22.5819606,128.896669 22.9580686,128.596147 C23.6383414,128.051564 24.48891,127.985996 24.8586433,128.447707 Z" id="Path" fill="#F8BBD0"></path>
                            </g>
                        </g>
                    </g>
                </g>
            </g>
        </g>
    </g>
</svg>