<?xml version="1.0" encoding="UTF-8"?>
<svg width="402px" height="316px" viewBox="0 0 402 316" version="1.1" xmlns="http://www.w3.org/2000/svg" xmlns:xlink="http://www.w3.org/1999/xlink">
    <!-- Generator: Sketch 64 (93537) - https://sketch.com -->
    <title>Artwork</title>
    <desc>Created with Sketch.</desc>
    <g id="Forms" stroke="none" stroke-width="1" fill="none" fill-rule="evenodd">
        <g id="Login" transform="translate(-880.000000, -452.000000)">
            <g id="Right-Side" transform="translate(835.000000, 216.000000)">
                <g id="Artwork" transform="translate(45.000000, 236.000000)">
                    <g id="Group">
                        <rect id="color_8" fill="#B2EBF2" x="0.0230105619" y="0.0397926471" width="286.0558" height="271.32846"></rect>
                        <path d="M22.6631024,10.2932865 C17.1098868,10.2932865 12.612089,14.7799074 12.612089,20.3210336 C12.612089,25.8621597 17.1098868,30.3495459 22.6631024,30.3495459 C28.217085,30.3495459 32.7148828,25.8613944 32.7148828,20.3210336 C32.7148828,14.7799074 28.217085,10.2932865 22.6631024,10.2932865 Z" id="color_7_1" fill="#FFECB3"></path>
                        <polygon id="color_7_2" fill="#FFECB3" points="271.42952 38.3960783 271.42952 149.354049 87.845121 149.354049 87.845121 38.3960783"></polygon>
                        <polygon id="color_6_3" fill="#2276BC" points="172.375187 224.789429 269.418397 224.789429 269.418397 209.773061 172.375187 209.773061"></polygon>
                        <polygon id="color_6_4" fill="#E91E63" points="43.9471051 29.4205406 271.479376 29.4205406 271.479376 11.3454959 43.9471051 11.3447307"></polygon>
                        <path d="M43.1171908,85.7776424 L53.5962007,85.7776424 L53.5962007,100.693763 C54.5005158,100.768757 55.4562211,101.04501 56.1089541,101.070263 L56.1089541,85.7776424 L66.5120291,85.7776424 L66.5120291,79.7360472 L43.1171908,79.7360472 L43.1171908,85.7776424 Z" id="color_6_6" fill="#FFECB3"></path>
                        <polygon id="color_6_7" fill="#FF6F00" points="43.821314 74.7726797 66.6117415 74.7726797 66.6117415 39.0978063 43.821314 39.0978063"></polygon>
                        <polygon id="color_6_8" fill="#00BCD4" points="16.9342395 39.5745528 39.724667 39.5745528 39.724667 148.803073 16.9342395 148.803073"></polygon>
                        <polygon id="color_2_14" fill="#FBC02D" points="173.053999 184.552941 173.053999 199.544055 270.097975 199.544055 270.097975 184.552941"></polygon>
                        <path d="M180.466468,112.776953 C193.482008,112.776953 204.086809,102.198231 204.086809,89.1868009 C204.086809,76.1998583 193.482775,65.6211361 180.466468,65.6211361 C167.424848,65.6211361 156.846126,76.1998583 156.846126,89.1868009 C156.846126,102.198231 167.424848,112.776953 180.466468,112.776953 Z M180.466468,114.807909 C166.29503,114.807909 154.785914,103.3262 154.785914,89.1868009 C154.785914,75.072655 166.29503,63.5909459 180.466468,63.5909459 C194.613361,63.5909459 206.122477,75.072655 206.122477,89.1868009 C206.122477,103.3262 194.613361,114.807909 180.466468,114.807909 Z M191.597443,88.6358258 L175.138756,77.8566099 C174.410088,77.3798633 173.429838,77.9071159 173.429838,78.7840846 L173.379215,100.093812 C173.379215,100.970781 174.333386,101.498034 175.087365,101.022052 L191.570598,90.4923058 C192.250943,90.0645349 192.250943,89.0620662 191.597443,88.6358258 Z" id="color_2_15" fill="#E91E63"></path>
                        <polygon id="color_1_38" fill="#0984E3" points="173.40606 176.354125 270.450037 176.354125 270.450037 161.36301 173.40606 161.36301"></polygon>
                    </g>
                    <g id="Group" transform="translate(15.000000, 100.000000)">
                        <path d="M109.54646,69.771812 C109.54646,69.771812 107.299307,69.1694533 105.700839,70.0481163 C104.077217,70.9512716 104.577263,72.1031774 107.173533,72.4292318 C109.771328,72.7805439 110.6708,74.1092538 110.495479,75.5389946 C110.320921,76.9939932 112.593229,77.4203131 113.217523,75.7647835 C113.816663,74.1084884 113.641342,70.4981632 109.54646,69.771812 Z" id="color_7" fill="#E3482C"></path>
                        <path d="M125.253669,67.3891657 C129.074898,73.3316217 124.305413,81.7072395 118.711159,82.283575 C113.116904,82.8859337 108.772,81.2556618 109.196581,76.5914002 C109.196581,76.5914002 109.345985,72.7552862 104.202229,73.933215 C99.0325554,75.1119093 93.0144824,65.2828237 100.082193,61.7972564 C108.521978,57.6105956 121.083324,60.8703741 125.253669,67.3891657 Z" id="color_7_0" fill="#AD1457"></path>
                        <path d="M112.193041,63.101474 C110.894143,63.101474 109.845268,63.6778095 109.845268,64.3551761 C109.845268,65.0578003 110.894905,65.6088781 112.193041,65.6088781 C113.491176,65.6088781 114.540813,65.0578003 114.540813,64.3551761 C114.540813,63.6778095 113.491176,63.101474 112.193041,63.101474 Z" id="color_6_5" fill="#FFA000"></path>
                        <path d="M64.471513,48.858408 C64.471513,48.858408 67.7423872,52.0684364 68.0419568,56.9829792 C66.8185234,54.6010983 63.3974833,52.9715918 62.8478911,52.9210763 C62.2228347,52.8460685 61.1991144,52.168702 61.4742916,51.0160308 C61.7487066,49.8870867 62.7228798,49.1354777 63.4470304,50.0631254 C64.095717,50.8905076 64.6704639,49.8373366 64.4204414,48.8339157 L64.471513,48.858408 Z M42.9954917,9.9944089 C43.4193104,9.21677684 43.2455142,3.57511747 43.2455142,2.17063437 C43.2455142,0.791409006 42.1211751,0.44086227 41.0974548,0.44086227 C40.0485797,0.44086227 38.0514485,-0.33676979 36.9271093,0.264823517 C35.8027701,0.867182209 35.903389,6.15752945 36.6031472,7.98833249 C37.2769884,9.81837014 38.5004219,12.3755244 38.5004219,12.3755244 L39.4250479,23.559343 L44.9933852,23.6343508 C44.0199743,18.243738 42.695922,10.4949713 42.9954917,9.9944089 Z M106.314172,71.8661212 C106.203818,71.9220395 106.065664,72.1440183 105.900553,72.5320575 C106.259416,72.7540362 106.673036,72.976015 107.197011,73.1437699 C107.059699,72.4202209 106.590481,71.7000607 106.314172,71.8661212 Z M105.301413,73.758707 C105.325806,73.8337149 105.325806,73.933215 105.35096,74.034246 C105.65053,74.9871514 106.050719,74.9374013 106.050719,74.9374013 L97.1611977,82.1840749 L100.881807,84.5651904 L108.223933,77.3445399 L108.873382,77.3445399 C108.972476,77.3445399 109.073095,77.3192822 109.198106,77.2695321 C109.173713,77.0429779 109.198106,76.8432122 109.198106,76.5914002 C109.196581,76.5914002 109.321593,73.3308563 105.301413,73.758707 Z M112.167886,73.758707 C111.918626,72.7552862 109.421449,70.9497408 109.421449,70.9497408 C109.421449,70.9497408 108.272718,71.5268418 107.973148,71.8528962 C107.673578,72.1781852 107.697971,72.7055361 108.247563,73.1065983 C108.772,73.5084259 110.096053,74.7858549 110.1456,75.388979 C110.195909,75.714268 110.370468,75.8895414 110.545788,75.9645492 C110.570181,76.039557 110.570181,76.1153302 110.595336,76.190338 C110.721109,76.0648147 110.795811,75.9898069 110.795811,75.9898069 C110.844596,75.9140337 112.443063,74.7353394 112.167886,73.758707 Z M5.58663166,161.669399 L5.66209578,161.82018 C5.66209578,161.82018 2.64048193,167.136551 3.61465511,168.966588 C4.43866232,170.545579 6.08667674,169.4174 6.33669927,169.242127 C6.38700869,168.890815 6.48686525,167.93791 6.76128023,167.187066 L13.6788245,166.007606 L11.9057989,159.940392 L5.58663166,161.669399 Z M63.3479361,209.260328 L64.1223962,202.238678 L57.8039913,202.313686 L57.7536818,208.882993 L57.9282403,208.858501 C57.9282403,208.858501 62.1984423,213.221965 64.2214905,212.79488 C65.9442068,212.419076 65.3199127,210.513265 65.1956637,210.237726 C64.8709393,210.086945 63.9973849,209.71114 63.3479361,209.260328 Z" id="color_5" fill="#FFF3E0"></path>
                        <path d="M103.927814,65.1833236 C103.927814,65.8851824 102.878176,66.4370257 101.580041,66.4370257 C100.281906,66.4370257 99.2322685,65.8851824 99.2322685,65.1833236 C99.2322685,64.5059571 100.281906,63.9533485 101.580041,63.9533485 C102.878176,63.9533485 103.927814,64.5059571 103.927814,65.1833236 Z M44.0591144,68.7911996 C44.2030432,68.3232436 44.3469721,67.951715 44.4909009,67.4894313 L43.1944426,67.4894313 L43.2669563,68.7911996 L44.0591144,68.7911996 Z M46.966124,62.6001462 L42.4710542,62.6001462 L42.5213636,63.9019145 L46.9165769,63.9019145 C46.9409693,63.4357792 46.966124,62.9724861 46.966124,62.6001462 Z M74.4602184,71.249619 C74.3352071,70.7806414 74.2109581,70.3201906 74.0615544,69.9478507 L71.1893442,69.9478507 C71.2640461,70.3201906 71.3395102,70.7863259 71.4142121,71.249619 L74.4602184,71.249619 Z M76.507659,99.3340764 L71.2137367,99.3340764 C71.0635707,99.7313297 70.8890123,100.235536 70.7388463,100.635845 L76.4825043,100.635845 L76.507659,99.3340764 Z M76.3087082,101.766473 L67.1188553,101.766473 C66.8436781,102.232608 66.5441084,102.695901 66.2696934,103.068241 L76.2835535,103.068241 L76.3087082,101.766473 Z M45.9919508,65.0325426 L42.8209333,65.0325426 L42.8712427,66.3343109 L45.7678453,66.3343109 C45.8425471,65.9648133 45.917249,65.4986779 45.9919508,65.0325426 Z M46.8906599,61.4442605 C46.8662675,60.9773218 46.8159581,60.6066008 46.7915656,60.1424921 L42.0967826,60.1453221 L42.1470921,61.4442605 L46.8906599,61.4442605 Z M46.0918074,58.9873718 C46.067415,58.6150319 46.041498,58.1488965 46.0171056,57.6856034 L41.7225111,57.6856034 L41.797213,58.9873718 L46.0918074,58.9873718 Z M46.691709,50.3386643 L40.6484814,50.3386643 L40.6987908,51.6404326 L46.5666978,51.6404326 C46.5910902,51.2701266 46.6413996,50.8058197 46.691709,50.3386643 Z M45.9416414,54.0973213 C45.9667961,53.6322015 45.9919508,53.2606729 46.0171056,52.795553 L40.9968359,52.795553 L41.0471453,54.0973213 L45.9416414,54.0973213 Z M47.8655954,47.906268 L40.2742098,47.906268 L40.3245192,49.2080363 L47.6658822,49.2080363 C47.7405841,48.7429165 47.8145237,48.2777966 47.8655954,47.906268 Z M45.7922377,56.5549754 C45.7922377,56.0870195 45.7678453,55.6218997 45.7678453,55.2532071 L41.372632,55.2532071 L41.4229414,56.5549754 L45.7922377,56.5549754 Z M76.6829797,85.9419665 L82.401483,85.9419665 C82.3511736,85.4768467 82.3016264,85.0145629 82.251317,84.6401982 L76.657825,84.6401982 C76.657825,85.0145629 76.657825,85.4768467 76.6829797,85.9419665 Z M76.7081344,88.3743628 L83.5258222,88.3743628 C83.5006675,88.002023 83.4259656,87.6296832 83.3756562,87.0725945 L76.7332891,87.0725945 C76.7325269,87.5358876 76.7325269,88.002023 76.7081344,88.3743628 Z M101.005294,84.6401982 L88.9691482,84.6401982 C88.8189822,85.0145629 88.693971,85.4796828 88.5445673,85.9419665 L101.554886,85.9419665 L101.005294,84.6401982 Z M76.4329572,83.4858432 L81.2527514,83.4858432 C81.202442,83.0186878 81.1528948,82.6483817 81.1025854,82.1840749 L76.3582553,82.1840749 C76.38341,82.6483817 76.4085647,83.0186878 76.4329572,83.4858432 Z M97.1596731,82.1825441 L91.8665131,82.1825441 C91.7415018,82.554884 91.5913358,83.0210193 91.4663245,83.4843124 L97.7100276,83.4843124 L97.1596731,82.1825441 Z M73.1369283,73.6804846 L76.4337194,73.6804846 C76.409327,73.4003214 76.3590176,73.1229882 76.3338629,72.8456549 C76.3094704,72.7494373 76.259161,72.5654918 76.2347686,72.3787163 L72.913585,72.3787163 C72.9867624,72.8456549 73.0614642,73.2163759 73.1369283,73.6804846 Z M75.9588291,81.0274237 L80.1047821,81.0274237 C80.0544727,80.6558951 80.0049255,80.1879392 79.9302236,79.7256554 L75.8848895,79.7256554 C75.9085196,80.1907752 75.9336743,80.6558951 75.9588291,81.0274237 Z M73.5119621,98.178956 L76.6829797,98.178956 L76.7081344,96.8771877 L73.8115318,96.8771877 C73.7116753,97.3404808 73.6110564,97.7128207 73.5119621,98.178956 Z M74.4106712,76.1381387 L77.7067,76.1381387 C77.6563906,75.6720033 77.6076057,75.2996635 77.5329039,74.8363704 L74.2612675,74.8363704 C74.3108146,75.2087102 74.3603618,75.6748456 74.4106712,76.1381387 Z M75.3101425,78.5957928 L78.9308958,78.5957928 C78.8805863,78.1296574 78.8051222,77.6663643 78.7563373,77.2940245 L75.1851313,77.2940245 C75.2346784,77.6663643 75.2590709,78.1324997 75.3101425,78.5957928 Z M48.43958,28.0963974 L48.43958,26.7946291 L37.1275847,26.7946291 L37.1771318,28.0963974 L48.43958,28.0963974 Z M71.963042,213.397239 C71.0635707,212.820138 67.6425306,213.021434 66.8436781,211.766967 C66.069218,210.513265 65.1956637,210.187976 65.1956637,210.187976 C65.1956637,210.187976 66.095135,212.393818 64.2214905,212.79488 C62.1984423,213.220435 57.9282403,208.858501 57.9282403,208.858501 L57.1293878,208.984024 L56.8039011,214.399894 L73.3351169,215.427808 C73.3366415,215.427808 73.6613659,214.425152 71.963042,213.397239 Z M3.61465511,168.965823 C2.64048193,167.135785 5.66209578,161.819415 5.66209578,161.819415 L5.33660912,161.092298 L0.0434490387,162.245735 L3.5643457,178.494997 C3.5643457,178.494997 4.61322074,178.544627 5.1620507,176.613559 C5.43722795,175.586411 4.33880576,172.351125 5.31221668,171.248203 C6.28638986,170.145282 6.36109172,169.216869 6.36109172,169.216869 C6.36109172,169.216869 4.48820947,170.695595 3.61465511,168.965823 Z M37.4019997,29.6003807 L48.43958,29.6003807 L48.43958,28.2986124 L37.3516903,28.2986124 L37.4019997,29.6003807 Z M75.5586405,111.570301 L40.3733041,111.570301 C40.3489117,112.03542 40.3229947,112.406949 40.3229947,112.872069 L75.5090934,112.872069 L75.5586405,111.570301 Z M39.2748819,117.688795 C39.2748819,117.688795 37.6771769,134.789047 46.067415,145.997358 C46.1421168,146.097623 11.0070898,156.88038 11.0070898,156.88038 L14.6026883,169.267385 L58.6783079,159.814104 L53.3584686,202.289959 L68.3925982,202.289959 L76.8826928,158.184597 L74.9107163,119.745387 L39.2748819,117.688795 Z M84.923814,88.3743628 L102.978795,88.3743628 C103.153354,87.9082275 103.304282,87.4449344 103.453686,87.0725945 L85.5984175,87.0725945 C85.348395,87.6325254 85.1235272,88.002023 84.923814,88.3743628 Z M78.5055525,98.178956 L88.7945898,98.178956 C88.9943029,97.7128207 89.1688613,97.3404808 89.3685745,96.8771877 L77.8317113,96.8771877 C78.0314244,97.2495276 78.2562923,97.7128207 78.5055525,98.178956 Z M76.507659,90.8320169 L99.6065401,90.8320169 C99.756706,90.3658815 99.9320267,89.9025885 100.08143,89.5302486 L76.5579684,89.5302486 C76.5579684,89.996384 76.533576,90.3687238 76.507659,90.8320169 Z M38.1261503,34.5149234 L48.5142819,34.5149234 L48.5142819,33.2131551 L38.0758409,33.2131551 L38.1261503,34.5149234 Z M75.1096671,95.7220674 L92.5906637,95.7220674 C92.7652221,95.3517613 92.9153881,94.8846059 93.0899465,94.420299 L75.2605954,94.420299 C75.2087614,94.8846059 75.1599766,95.3489128 75.1096671,95.7220674 Z M76.0335309,93.289671 L96.1367151,93.289671 C96.3105112,92.8217151 96.4865942,92.3565952 96.6359979,91.9879027 L76.108995,91.9879027 C76.0830781,92.3565952 76.0586856,92.8217151 76.0335309,93.289671 Z M37.7762712,32.0580348 L48.4639725,32.0580348 L48.4639725,30.7562664 L37.7259618,30.7562664 L37.7762712,32.0580348 Z M42.1211751,101.766473 C42.1211751,102.232608 42.0967826,102.695901 42.0716279,103.068241 L48.8885534,103.068241 C48.3648782,102.695901 47.8396784,102.229766 47.3152409,101.766473 L42.1211751,101.766473 Z M76.1333875,104.222596 L41.6965941,104.222596 C41.6722017,104.693388 41.6462847,105.062081 41.6218923,105.524364 L76.1082328,105.524364 L76.1333875,104.222596 Z M75.9336743,106.681016 L41.2476207,106.681016 C41.2476207,107.082266 41.222466,107.584596 41.1973113,107.982784 L75.9085196,107.982784 L75.9336743,106.681016 Z M38.5004219,36.9465544 L48.5394366,36.9465544 L48.5394366,35.6447861 L38.4501124,35.6447861 L38.5004219,36.9465544 Z M39.8740213,115.328958 L75.334535,115.328958 L75.3589274,114.030245 L39.9235684,114.027189 C39.9243307,114.430554 39.8984137,114.928649 39.8740213,115.328958 Z M75.7347235,109.113412 L40.823802,109.113412 C40.7986473,109.579547 40.7734926,109.951887 40.7483379,110.41518 L75.7095688,110.41518 L75.7347235,109.113412 Z M38.8746934,39.4049739 L48.5889837,39.4049739 L48.5889837,38.1032056 L38.8259085,38.1032056 L38.8746934,39.4049739 Z M39.2245725,41.8610972 L48.6392932,41.8610972 L48.6392932,40.5593289 L39.1757876,40.5593289 L39.2245725,41.8610972 Z M39.9487231,46.7511476 L48.7894591,46.7511476 C48.7894591,46.2850122 48.7643044,45.9126724 48.7643044,45.4493793 L39.8999383,45.4493793 L39.9487231,46.7511476 Z M39.598844,44.2934935 L48.713995,44.2934935 L48.713995,42.9917252 L39.5492969,42.9917252 L39.598844,44.2934935 Z" id="color_3" fill="#212121"></path>
                        <path d="M96.1321415,92.3392148 C91.7552225,95.4045853 86.9163717,98.6237983 85.3994667,98.9819989 C83.4823731,99.434342 80.4500876,98.1775784 78.5337563,97.2277345 L88.7945898,97.2277345 C88.9943029,97.1022112 89.1688613,97.0019456 89.3685745,96.8771877 L77.8484811,96.8771877 C77.183787,96.526641 76.7592061,96.2732983 76.7592061,96.2732983 L76.1326252,104.222596 L41.6973564,104.222596 C41.8216054,103.528391 41.9466167,102.828063 42.0739147,102.11702 L48.8893157,102.11702 C48.3656404,102.016754 47.8404407,101.891231 47.3160031,101.766473 L42.1364204,101.766473 C42.2149335,101.32408 42.294209,100.880921 42.3734844,100.435467 C42.9970162,100.661256 43.646465,100.862552 44.3462232,101.037825 C58.4298099,104.648151 65.6469239,104.297604 72.5637059,98.2043669 C72.9067247,97.9020394 73.2192528,97.5721581 73.5150112,97.2277345 L76.683742,97.2277345 L76.7088967,96.8771877 L73.8122941,96.8771877 C73.8069582,96.8833108 73.8023847,96.8886685 73.7970488,96.8940262 C74.3100524,96.244979 74.7491163,95.5331701 75.1188143,94.7700804 L92.591426,94.7700804 C92.7659844,94.6705802 92.9161504,94.5450569 93.0907088,94.420299 L75.2743161,94.420299 C75.5959915,93.7016017 75.8635461,92.9454004 76.0731686,92.157053 C76.0602101,92.2182838 76.0472517,92.274157 76.0350554,92.3384494 L96.1321415,92.3392148 Z" id="color_2" fill="#E91E63"></path>
                        <path d="M48.7886969,45.799926 L39.9662552,45.799926 L40.2803079,47.906268 L47.8655954,47.906268 C47.8152859,48.0065335 47.7405841,48.1320568 47.6658822,48.2575801 L40.3321419,48.2575801 L41.0082699,52.7963184 L46.0140565,52.795553 C46.1459281,52.0745595 46.333445,51.3688737 46.5666978,50.6884457 L40.699553,50.6884457 L40.6492436,50.3386643 L46.6909468,50.3386643 C47.214622,48.9318851 47.9410595,47.6529253 48.8146138,46.6273082 C48.8054667,46.3525346 48.7963195,46.0754649 48.7886969,45.799926 Z" id="color_2_9" fill="#E91E63"></path>
                        <path d="M48.4372932,26.7946291 C48.4189989,24.8536105 48.4151876,23.6841009 48.4151876,23.6841009 L36.6534566,23.5333198 L37.1390186,26.7946291 L48.4372932,26.7946291 Z" id="color_2_10" fill="#E91E63"></path>
                        <g transform="translate(66.240727, 99.270549)" fill="#212121">
                            <path d="M10.2669316,0.0635270285 L4.97300927,0.0635270285 C4.82284329,0.463836064 4.64828488,0.964986307 4.4981189,1.36529534 L10.2417769,1.36529534 L10.2669316,0.0635270285 Z" id="color_2_11"></path>
                            <path d="M10.0679808,2.49592337 L0.87812794,2.49592337 C0.602950695,2.96205875 0.303381007,3.42535184 0.0289660258,3.79769169 L10.042826,3.79769169 L10.0679808,2.49592337 Z" id="color_2_12"></path>
                        </g>
                        <path d="M47.7097703,61.4649259 C47.5153016,61.0310031 47.346762,60.5970803 47.1393287,60.1631576 C47.2819391,60.6221143 47.502337,61.0560371 47.7097703,61.4649259 Z" id="color_2_13" fill="#FBC02D"></path>
                        <path d="M97.3426165,82.2988828 L104.103897,86.5949937 C104.103897,86.5949937 102.429965,87.8379804 100.076095,89.5340755 C100.077619,89.5325448 100.079906,89.531014 100.08143,89.5302486 L76.5709269,89.5302486 C76.6547759,88.8383398 76.7035608,88.1334194 76.7241419,87.4231413 L83.5258222,87.4231413 C83.5006675,87.3228757 83.4259656,87.2226102 83.3756562,87.0733599 L76.7332891,87.0733599 C76.7332891,87.0940253 76.7287155,87.1108638 76.7287155,87.1315292 C76.741674,86.3875742 76.7233797,85.6382614 76.6753571,84.8889486 C76.6784061,84.9249217 76.6753571,84.9540064 76.6822174,84.9915103 L82.4007207,84.9915103 C82.3603208,84.8904794 82.3199208,84.7971023 82.2795208,84.7090829 C82.8687507,85.9750312 83.326109,86.9707982 83.5494523,87.4491644 C83.7156259,87.8134881 84.2240558,87.7514918 84.9276254,87.4231413 L102.978033,87.4231413 C103.152591,87.297618 103.30352,87.1728601 103.452923,87.0733599 L85.5976553,87.0733599 C85.50161,87.1307639 85.4116629,87.176687 85.3240026,87.2226102 C88.3433296,85.5777959 94.0382027,80.2024908 94.038965,80.2009601 L97.1589109,82.1833095 L91.8657508,82.1825441 C91.7407395,82.2828097 91.5905736,82.4083329 91.4655623,82.5330908 L97.7092654,82.5330908 L97.3426165,82.2988828 Z" id="color_2_16" fill="#E91E63"></path>
                        <path d="M101.005294,84.6401982 L88.9691482,84.6401982 C88.8189822,85.0145629 88.693971,85.4796828 88.5445673,85.9419665 L101.554886,85.9419665 L101.005294,84.6401982 Z" id="color_2_17" fill="#212121"></path>
                        <path d="M119.209679,68.1162823 C117.910782,68.1162823 116.861907,68.6673601 116.861907,69.345492 C116.861907,70.0473509 117.911544,70.5991941 119.209679,70.5991941 C120.507814,70.5991941 121.557452,70.0473509 121.557452,69.345492 C121.557452,68.6673601 120.507814,68.1162823 119.209679,68.1162823 Z" id="color_2_18" fill="#00BCD4"></path>
                        <path d="M74.0615544,69.9478507 C74.2109581,70.0481163 74.3352071,70.1721088 74.4602184,70.2983975 L71.4264083,70.2983975 C71.6977742,70.7048174 71.9866722,71.1135334 72.3136834,71.5260764 C72.5194946,71.787073 72.7222568,72.0763889 72.9204454,72.3787163 L76.2347686,72.3787163 C76.2583987,72.4284664 76.3071836,72.4766857 76.3331006,72.5027088 C74.7346333,69.6700156 71.6139252,68.3918212 70.1160767,67.9149858 C70.3996389,68.5839331 70.764001,69.262065 71.1977291,69.9478507 L74.0615544,69.9478507 Z" id="color_2_19" fill="#E91E63"></path>
                        <path d="M46.9478297,62.7241387 C47.0865617,62.0107991 47.07589,61.2729671 46.8830373,60.4945696 L42.1524279,60.4945696 L42.8277937,65.033308 L45.9919508,65.033308 C45.917249,65.1573005 45.8425471,65.2828237 45.7678453,65.3830893 L42.8796276,65.3830893 L43.2127369,67.621843 L43.192918,67.4894313 L44.0931516,67.4894313 C44.0558007,67.5353544 44.019212,67.578216 43.9818611,67.6195469 C45.4118681,66.0336673 46.5209619,64.5457571 46.9013316,62.950693 L42.5206013,62.950693 L42.4702919,62.6001462 L46.9645995,62.6001462 C46.966124,62.6361194 46.9531655,62.6835733 46.9478297,62.7241387 Z" id="color_2_20" fill="#E91E63"></path>
                        <path d="M99.5951061,89.8807953 L76.522142,89.8807953 C76.4230477,90.5994927 76.288127,91.3044131 76.1143309,91.9879027 L96.6321866,91.9879027 C97.6726767,91.2554284 98.6773404,90.540558 99.5951061,89.8807953 Z" id="color_2_21" fill="#E91E63"></path>
                        <path d="M81.1010609,82.1840749 C80.7801478,81.5021161 80.4462763,80.7948995 80.1047821,80.0769675 L75.9733121,80.0769675 C76.1295762,80.7665802 76.2637346,81.4707352 76.3750251,82.1840749 L81.1010609,82.1840749 Z" id="color_2_22" fill="#E91E63"></path>
                        <path d="M81.1239288,82.2330596 C81.1673779,82.3348559 81.2093024,82.4259368 81.2527514,82.5338562 L76.4329572,82.5338562 C76.4283836,82.5139562 76.4245723,82.4971177 76.4207609,82.4772177 C76.5251911,83.1928535 76.6082778,83.9161431 76.660874,84.6401982 L82.248268,84.6401982 C81.9105851,83.9123162 81.5302154,83.0979456 81.1239288,82.2330596 Z" id="color_2_23" fill="#E91E63"></path>
                        <path d="M77.7067,76.1381387 C77.6563906,75.6720033 77.6068435,75.2996635 77.5329039,74.8363704 L74.2612675,74.8363704 C74.3108146,75.2087102 74.3603618,75.6748456 74.4106712,76.1381387 L77.7067,76.1381387 Z" id="color_2_24" fill="#FBC02D"></path>
                        <path d="M75.3147161,77.6445712 L78.9308958,77.6445712 C78.8805863,77.5190479 78.8051222,77.39429 78.7563373,77.2940245 L75.2034256,77.2940245 C74.6286787,75.5565985 73.9258714,73.9936805 73.1476,72.7307938 L76.4337194,72.7307938 C76.409327,72.6573168 76.3613044,72.5830743 76.3361497,72.5095973 C77.3202323,74.2998349 78.7563373,77.243509 80.101733,80.0723752 C80.0521859,79.9736404 80.0041632,79.8496479 79.9302236,79.7264208 L75.8925121,79.7264208 C75.721765,79.0115504 75.5273877,78.31658 75.3147161,77.6445712 Z" id="color_2_25" fill="#E91E63"></path>
                        <path d="M75.3589274,114.027189 L75.334535,114.352478 L39.8785949,114.353244 C39.5066101,116.415193 39.2756442,117.687265 39.2756442,117.687265 L74.9107163,119.742326 L75.5487311,111.643778 L75.5090934,111.920082 L40.3229947,111.920082 C40.3229947,111.85732 40.3390022,111.800682 40.3489117,111.744043 C40.1987457,112.576018 40.0615382,113.339107 39.9372892,114.026424 L75.3589274,114.026424 L75.3589274,114.027189 Z" id="color_2_26" fill="#E91E63"></path>
                        <path d="M48.7871723,45.7731375 C48.7612554,44.9028938 48.7361007,44.0280577 48.713995,43.1547524 L48.713995,43.3422719 L39.6011308,43.3422719 L39.9144213,45.4493793 L48.7643044,45.4493793 C48.7643044,45.5641872 48.7841233,45.6606258 48.7871723,45.7731375 Z" id="color_2_27" fill="#E91E63"></path>
                        <path d="M41.2582924,106.681016 L75.9336743,106.681016 L75.9085196,107.006305 L41.1995981,107.006305 C41.0662019,107.755617 40.9366171,108.476611 40.8108435,109.177704 C40.8154171,109.156273 40.8192285,109.136373 40.823802,109.113412 L75.7347235,109.113412 L75.7095688,109.463959 L40.7582473,109.463959 C40.6256134,110.202556 40.4998399,110.903649 40.3794022,111.570301 L75.554067,111.570301 L76.1044214,104.573908 L41.6340885,104.573908 C41.5060282,105.289544 41.3802546,105.994464 41.2582924,106.681016 Z" id="color_2_28" fill="#E91E63"></path>
                        <polygon id="color_2_29" fill="#FBC02D" points="48.5889837 38.1032056 38.8259085 38.1032056 38.8746934 39.4049739 48.5889837 39.4021316"></polygon>
                        <path d="M48.7094214,42.9917252 L39.5492969,42.9917252 L39.5584441,43.0621407 L39.2390555,40.910641 L48.6392932,40.910641 L48.6392932,40.5593289 L39.1872216,40.5593289 L38.5080445,35.9960982 L48.5394366,35.9960982 L48.5394366,35.6447861 L38.4554483,35.6447861 L38.1459692,33.5637019 L48.5142819,33.5637019 L48.5142819,33.2881629 C48.5584932,36.2303063 48.6209988,39.5911157 48.7094214,42.9917252 Z" id="color_2_30" fill="#E91E63"></path>
                        <path d="M37.362362,28.2986124 L48.43958,28.2986124 L48.43958,28.6499245 L37.4141959,28.6499245 L37.7282486,30.7562664 L48.4639725,30.7562664 L48.4639725,31.1060478 L37.7800825,31.1060478 L38.093373,33.2131551 L48.5135196,33.2131551 C48.4784555,30.8152012 48.4548253,28.7019707 48.43958,27.0778219 L48.43958,27.1451758 L37.1908526,27.1451758 L37.362362,28.2986124 Z" id="color_2_31" fill="#E91E63"></path>
                        <path d="M41.7636733,57.8792461 L42.100594,60.1432575 L46.7892788,60.1432575 C46.732109,59.9610957 46.6688411,59.7781685 46.5910902,59.5914143 C45.7304944,57.4850723 45.6047208,55.1085492 46.0033848,52.8598454 C45.9835659,52.9562841 45.9622226,53.0443034 45.9416414,53.1476305 L41.0601038,53.1468651 L41.3733943,55.2532071 L45.7686075,55.2532071 C45.7686075,55.3534727 45.793,55.4782306 45.793,55.6045192 L41.4259905,55.6045192 L41.7362318,57.6856034 L46.0186301,57.6856034 C46.0430225,57.8103613 46.0689395,57.9358846 46.0933319,58.0361502 L41.7987375,58.0361502 L41.7636733,57.8792461 Z" id="color_2_32" fill="#E91E63"></path>
                        <path d="M43.4257311,69.1425117 L43.2455142,67.8407434 L44.5419726,67.8407434 C44.1778609,68.2706852 43.8063934,68.704608 43.4257311,69.1425117 Z" id="color_2_33" fill="#E91E63"></path>
                        <path d="M68.4413831,58.1371811 C67.967255,55.1529415 63.4973399,52.9715918 62.8478911,52.9210763 C62.2228347,52.8460685 61.1991144,52.168702 61.4742916,51.0160308 C61.7487066,49.8870867 62.7228798,49.1354777 63.4470304,50.0631254 C64.1711811,50.9662808 64.7703205,49.6115477 64.3465018,48.5583768 C63.8967661,47.4807134 61.8744801,41.4119687 52.1350351,44.2699196 C47.4913238,45.6499104 44.169378,53.6734506 46.5918525,59.5906489 C49.0387194,65.5331049 41.0227529,68.8678912 36.2532681,76.8661737 C31.508938,84.8407293 30.2344328,97.4519925 44.3439364,101.038591 C58.4282853,104.648916 65.6453993,104.298369 72.5621814,98.2051322 C79.4782012,92.1111298 76.657825,77.0169548 72.3129211,71.5268418 C67.9680173,66.0612212 68.9170357,61.1206553 68.4413831,58.1371811 Z" id="color_1_37" fill="#212121"></path>
                        <path d="M122.032342,77.4945556 C122.032342,78.1971798 120.982705,78.7482576 119.68457,78.7482576 C118.386434,78.7482576 117.336797,78.1971798 117.336797,77.4945556 C117.336797,76.817189 118.386434,76.2408535 119.68457,76.2408535 C120.982705,76.2408535 122.032342,76.817189 122.032342,77.4945556 Z" id="color_1_39" fill="#E91E63"></path>
                    </g>
                    <g id="Group" transform="translate(271.000000, 122.000000)">
                        <polygon id="color_6" fill="#B2EBF2" points="38.6360526 108.517219 50.223813 150.137324 75.4693951 150.137324 86.1328845 108.517219"></polygon>
                        <path d="M70.1682048,97.0515491 C73.8958429,95.2963183 75.2707914,91.6081895 72.7958841,87.1917777 C70.3438926,82.7761317 71.7417569,80.3676671 75.1944054,77.2071796 C78.6470538,74.0459263 79.4491071,70.9849937 76.1950623,63.3835886 C72.9410175,55.7814176 75.2173212,59.6954597 79.8004828,54.351655 C84.35309,49.0070846 88.1571142,50.9399827 91.6097626,41.0296679 C95.0624111,31.0933157 88.3862723,34.3311498 94.161056,27.6579033 C99.9205624,20.9846569 108.62857,21.2595817 108.827173,9.16748147 C109.056331,-2.94989045 90.334116,-4.70665284 78.1505446,14.2355954 C67.0592934,31.4961305 64.2864806,97.0515491 63.8816347,108.517219 L66.1350225,108.517219 C66.2343243,107.914528 66.2648788,107.23832 66.3107104,106.559815 C66.4405666,104.325954 66.4405666,98.8075457 70.1682048,97.0515491 Z" id="color_1" fill="#00BCD4"></path>
                        <path d="M94.7110354,77.3067346 C82.6496816,82.1987128 72.0167466,100.061938 67.5405254,108.516453 L75.0187175,108.517219 C77.2950211,107.839479 77.8984707,106.961098 78.4713659,103.449105 C79.2275876,98.9584098 81.6490247,97.6282021 81.6490247,97.6282021 C81.6490247,97.6282021 82.2066427,97.6282021 90.25773,98.5808667 C98.29354,99.5097911 96.620686,98.205621 99.217811,92.5861256 C101.84549,86.9413586 102.976004,87.5180116 110.454196,88.2708004 C117.940026,89.0235892 129.772222,90.5291667 130.047212,85.4602869 C130.345117,80.3921729 110.706269,70.8348955 94.7110354,77.3067346 Z" id="color_1_34" fill="#00838F"></path>
                        <path d="M34.3049649,12.1028216 C6.50350637,-7.96822694 7.45451241,20.6821629 19.9168928,35.1084444 C32.380037,49.5339601 25.4747401,51.6659682 30.554411,59.1923242 C35.6569976,66.6941744 42.340775,62.3045658 43.9143271,71.8128316 C45.4649635,81.3210974 36.7569564,82.5747243 47.0690701,90.4533518 C55.3263996,96.7758584 58.8783499,104.928645 60.1310808,108.517219 L62.605988,108.517219 C62.529602,102.872452 61.0324359,31.3452664 34.3049649,12.1028216 Z" id="color_1_35" fill="#00BCD4"></path>
                        <path d="M19.1660181,75.2490098 C-5.50896029,69.0528614 -0.628657005,86.2130757 3.22501808,87.4429625 C7.10390055,88.6973552 6.10247973,84.3307209 13.2094357,86.0874833 C20.3156278,87.818974 16.5620185,91.9581635 22.9158082,91.4565596 C29.2711257,90.9549557 35.0306322,87.9438006 36.130591,92.4597674 C37.2611042,96.9504625 33.7779013,98.4552742 38.6360526,98.5808667 C43.4865654,98.7064591 46.244101,95.6960698 48.1155586,98.9584098 C49.9717391,102.193946 47.3669756,102.570724 51.0946137,105.706705 C52.0952707,106.535309 53.3709173,107.513245 54.72295,108.516453 L59.1533396,108.517219 C52.4237306,98.7830398 37.3069358,79.7902483 19.1660181,75.2490098 Z" id="color_1_36" fill="#00838F"></path>
                    </g>
                </g>
            </g>
        </g>
    </g>
</svg>