<?xml version="1.0" encoding="UTF-8"?>
<svg width="349px" height="285px" viewBox="0 0 349 285" version="1.1" xmlns="http://www.w3.org/2000/svg" xmlns:xlink="http://www.w3.org/1999/xlink">
    <!-- Generator: Sketch 64 (93537) - https://sketch.com -->
    <title>Artwork</title>
    <desc>Created with Sketch.</desc>
    <g id="Forms" stroke="none" stroke-width="1" fill="none" fill-rule="evenodd">
        <g id="Register" transform="translate(-914.000000, -448.000000)">
            <g id="Right-Side" transform="translate(835.000000, 216.000000)">
                <g id="Artwork" transform="translate(79.000000, 232.000000)">
                    <g id="Group">
                        <path d="M337.609209,0.0534507825 L31.1826218,0.0534507825 C28.3492379,0.0654772086 25.6370361,1.20130634 23.6432229,3.21038763 C21.6494098,5.21946891 20.5373468,7.93677307 20.5525878,10.7643195 L20.5525878,225.814857 C20.5373468,228.642404 21.6494098,231.359708 23.6432229,233.368789 C25.6370361,235.37787 28.3492379,236.513699 31.1826218,236.525726 L337.609209,236.525726 C340.441253,236.513699 343.152786,235.37787 345.147938,233.368789 C347.14309,231.359708 348.254484,228.642404 348.234666,225.814857 L348.234666,10.7643195 C348.254484,7.93677307 347.14309,5.21946891 345.147938,3.21038763 C343.152786,1.20130634 340.441253,0.0654772086 337.609209,0.0534507825 Z" id="Path" fill="#00838F"></path>
                        <path d="M346.855199,22.8368468 L346.855199,223.250556 C346.855199,229.058652 342.135124,233.766997 336.317046,233.766997 L32.5973053,233.766997 C26.7765492,233.766997 22.0584829,229.058652 22.0584829,223.250556 L22.0584829,22.8368468 L346.855199,22.8368468 Z" id="Path" fill="#FFECB3" fill-rule="nonzero"></path>
                        <path d="M101.397249,126.135161 L101.397249,233.762989 L32.5973053,233.762989 C26.7792272,233.762989 22.0584829,228.961772 22.0584829,223.04143 L22.0584829,126.135161 L101.397249,126.135161 Z" id="Path" fill="#B2EBF2" fill-rule="nonzero"></path>
                        <polygon id="Path" fill="#00838F" fill-rule="nonzero" points="124.952766 51.0842491 257.18516 51.0842491 257.18516 47.3747648 124.952766 47.3747648"></polygon>
                        <polygon id="Path" fill="#B2EBF2" fill-rule="nonzero" points="124.952766 77.4749049 204.703284 77.4749049 204.703284 73.7654206 124.952766 73.7654206"></polygon>
                        <polygon id="Path" fill="#00BCD4" fill-rule="nonzero" points="222.474198 77.4749049 249.334437 77.4749049 249.334437 73.7654206 222.474198 73.7654206"></polygon>
                        <polygon id="Path" fill-opacity="0.1" fill="#6C63FF" fill-rule="nonzero" points="46.4375019 170.050992 73.2977403 170.050992 73.2977403 166.341508 46.4375019 166.341508"></polygon>
                        <polygon id="Path" fill="#00BCD4" fill-rule="nonzero" points="222.474198 112.114353 249.334437 112.114353 249.334437 108.4042 222.474198 108.4042"></polygon>
                        <polygon id="Path" fill="#00BCD4" fill-rule="nonzero" points="222.474198 146.7538 249.334437 146.7538 249.334437 143.043648 222.474198 143.043648"></polygon>
                        <polygon id="Path" fill="#00BCD4" fill-rule="nonzero" points="222.474198 89.0222783 249.334437 89.0222783 249.334437 85.312794 222.474198 85.312794"></polygon>
                        <polygon id="Path" fill="#E91E63" fill-rule="nonzero" points="268.753025 89.0222783 295.610586 89.0222783 295.610586 85.312794 268.753025 85.312794"></polygon>
                        <polygon id="Path" fill="#00BCD4" fill-rule="nonzero" points="222.474198 100.566311 249.334437 100.566311 249.334437 96.8568267 222.474198 96.8568267"></polygon>
                        <polygon id="Path" fill="#DDE1EC" fill-rule="nonzero" points="268.753025 100.566311 295.610586 100.566311 295.610586 96.8568267 268.753025 96.8568267"></polygon>
                        <polygon id="Path" fill="#E91E63" fill-rule="nonzero" points="268.753025 122.010765 295.610586 122.010765 295.610586 118.301281 268.753025 118.301281"></polygon>
                        <polygon id="Path" fill="#E91E63" fill-rule="nonzero" points="268.753025 133.558138 295.610586 133.558138 295.610586 129.848654 268.753025 129.848654"></polygon>
                        <polygon id="Path" fill="#E91E63" fill-rule="nonzero" points="268.753025 158.301842 295.610586 158.301842 295.610586 154.591689 268.753025 154.591689"></polygon>
                        <polygon id="Path" fill="#B2EBF2" fill-rule="nonzero" points="124.952766 89.0222783 204.703284 89.0222783 204.703284 85.312794 124.952766 85.312794"></polygon>
                        <polygon id="Path" fill="#B2EBF2" fill-rule="nonzero" points="124.952766 100.566311 204.703284 100.566311 204.703284 96.8568267 124.952766 96.8568267"></polygon>
                        <polygon id="Path" fill="#B2EBF2" fill-rule="nonzero" points="124.952766 112.114353 204.703284 112.114353 204.703284 108.4042 124.952766 108.4042"></polygon>
                        <polygon id="Path" fill="#B2EBF2" fill-rule="nonzero" points="124.952766 123.662394 204.703284 123.662394 204.703284 119.952242 124.952766 119.952242"></polygon>
                        <polygon id="Path" fill="#B2EBF2" fill-rule="nonzero" points="124.952766 135.205759 204.703284 135.205759 204.703284 131.496274 124.952766 131.496274"></polygon>
                        <polygon id="Path" fill="#B2EBF2" fill-rule="nonzero" points="124.952766 146.7538 204.703284 146.7538 204.703284 143.043648 124.952766 143.043648"></polygon>
                        <polygon id="Path" fill="#B2EBF2" fill-rule="nonzero" points="124.952766 158.301842 204.703284 158.301842 204.703284 154.591689 124.952766 154.591689"></polygon>
                        <polygon id="Path" fill="#00BCD4" fill-rule="nonzero" points="22.0584829 128.197693 101.397249 128.197693 101.397249 22.6317295 22.0584829 22.6317295"></polygon>
                        <path d="M346.855199,12.115288 C346.855199,6.30852861 342.135124,1.60218721 336.317046,1.60218721 L32.5973053,1.60218721 C26.7765492,1.60218721 22.0584829,6.31053301 22.0584829,12.1186287 L22.0584829,24.0775731 L346.855199,24.0775731 L346.855199,12.115288 Z" id="Path" fill="#00838F" fill-rule="nonzero"></path>
                        <path d="M34.8696363,16.8597131 C37.1520101,16.8597131 39.0025472,15.0129885 39.0025472,12.7353171 C39.0025472,10.4569775 37.1520101,8.61092106 34.8696363,8.61092106 C32.586593,8.61092106 30.7367254,10.4569775 30.7367254,12.7353171 C30.7367254,15.0129885 32.586593,16.8597131 34.8696363,16.8597131 Z" id="Path" fill="#F8BBD0" fill-rule="nonzero"></path>
                        <path d="M48.5036226,16.8597131 C50.7866659,16.8597131 52.6365335,15.0129885 52.6365335,12.7353171 C52.6365335,10.4569775 50.7866659,8.61092106 48.5036226,8.61092106 C46.2212488,8.61092106 44.3707117,10.4569775 44.3707117,12.7353171 C44.3707117,15.0129885 46.2212488,16.8597131 48.5036226,16.8597131 Z" id="Path" fill="#FFECB3" fill-rule="nonzero"></path>
                        <path d="M62.141626,16.8597131 C64.4246692,16.8597131 66.2745368,15.0129885 66.2745368,12.7353171 C66.2745368,10.4569775 64.4246692,8.61092106 62.141626,8.61092106 C59.8592522,8.61092106 58.0087151,10.4569775 58.0087151,12.7353171 C58.0087151,15.0129885 59.8592522,16.8597131 62.141626,16.8597131 Z" id="Path" fill="#B2EBF2" fill-rule="nonzero"></path>
                        <path d="M84.8736585,75.4163816 C84.8803353,80.7053365 83.0599263,85.8346072 79.7183811,89.9396273 C79.5925124,90.0953027 79.4666438,90.2476375 79.3374275,90.3999722 C79.311986,90.4260295 79.2892225,90.4540911 79.2684676,90.4834891 C78.0847666,91.851161 76.7450687,93.0751839 75.2768242,94.1328412 L75.0860127,94.2731495 C74.8228936,94.4595591 74.556427,94.6539864 74.2852737,94.8136706 L74.0984793,94.9312623 L73.6981098,95.1791403 C73.6391926,95.2165558 73.5775973,95.2506307 73.5153324,95.2813649 C73.4657884,95.3174442 73.4135663,95.3488465 73.3586661,95.3769082 C72.7715022,95.7189932 72.1655919,96.035021 71.5442828,96.3243233 C71.4753228,96.362407 71.3989982,96.3924731 71.3266907,96.4265479 C71.2543831,96.4612909 71.1706939,96.5027153 71.0863351,96.5334495 C71.0026458,96.5635156 70.8386148,96.6436917 70.7053815,96.6931337 C69.3737179,97.2557032 67.9911711,97.6886545 66.5758182,97.9866426 C65.2274167,98.2746087 63.8555822,98.4416424 62.4777221,98.4852268 L61.7225101,98.4852268 C59.9034401,98.4917525 58.0897263,98.2832945 56.3195308,97.8650421 L55.9881213,97.7855341 C55.2101459,97.5824211 54.4475693,97.3465695 53.7003915,97.0773112 C53.2471304,96.9102775 52.7965474,96.7272086 52.3580156,96.5334495 C52.2475457,96.4840075 52.141093,96.4379062 52.0306232,96.3851236 L51.6985441,96.2367977 L51.409314,96.0884717 L51.1040156,95.9321282 L50.7645719,95.7530681 L50.3836183,95.5365924 L50.3226925,95.5025175 C48.6971122,94.5818278 47.1893663,93.4693834 45.8309221,92.1879009 C45.7164352,92.0776586 45.5986007,91.9714252 45.4881308,91.8531654 C45.377661,91.7355736 45.2477752,91.6173138 45.1332883,91.4957132 C37.8657122,84.0273027 36.5052594,72.6295914 41.8104896,63.6658952 C47.1150502,54.702199 57.7743851,50.389389 67.8371829,53.1347548 C77.8993111,55.8807887 84.8763182,65.0061736 84.8736585,75.4163816 Z" id="Path" fill="#FFFFFF" fill-rule="nonzero"></path>
                        <path d="M63.1405411,70.4434544 C63.1405411,70.4434544 61.7646895,76.6150154 65.546775,79.8755131 C69.3288604,83.136679 56.6134476,85.689622 54.3712447,82.9616277 C52.1297113,80.2336334 55.9271956,78.8405724 55.9271956,78.8405724 C55.9271956,78.8405724 57.8333024,77.2958447 55.9271956,72.6690114 L63.1405411,70.4434544 Z" id="Path" fill="#FFF3E0" fill-rule="nonzero"></path>
                        <path d="M66.5724706,97.9946603 C65.2233996,98.2826264 63.8515651,98.4496601 62.473705,98.493128 L61.718493,98.493128 C59.9007621,98.4964295 58.0883872,98.285967 56.3195308,97.8650421 L55.9881213,97.7855341 C55.2101459,97.5824211 54.4475693,97.3465695 53.7003915,97.0773112 L53.3194379,91.3701039 L54.9738074,83.4674057 L55.9459419,78.8105063 L56.2204428,77.5089797 L56.4989606,77.8898166 L56.5598864,77.9733334 L56.636211,78.0722174 L59.6865175,82.1244548 L62.8091316,78.7684138 L62.9691454,78.5933625 L63.8267931,77.6686639 L64.1515075,77.3225701 L64.3034872,78.4984873 L64.8524888,82.7257761 L65.8708198,90.5215727 L66.5724706,97.9946603 Z" id="Path" fill="#00BCD4" fill-rule="nonzero"></path>
                        <path d="M75.2728071,94.1361819 L75.0819956,94.2771583 C74.8188765,94.4635679 74.5524099,94.657327 74.2819262,94.8176794 L74.0944622,94.9352711 L73.6940927,95.182481 C72.7976133,94.4635679 72.1147088,93.5134803 71.7196955,92.4357789 C71.7009491,92.3910139 71.6855503,92.3455807 71.673499,92.2988113 C71.6319891,92.1651843 71.5938268,92.024876 71.5630292,91.8879084 L71.4070324,92.2948024 L71.1934573,92.8466818 L70.7053815,94.1174741 C70.7053815,94.1174741 70.9303383,95.0301462 71.3266907,96.4379062 C71.246349,96.4759899 71.1706939,96.5140736 71.0863351,96.5448078 C71.0026458,96.5748739 70.8386148,96.65505 70.7053815,96.704492 C69.3737179,97.2670615 67.9911711,97.7000128 66.5758182,97.9980009 C65.2274167,98.2866352 63.8555822,98.4530007 62.4777221,98.4964295 C62.2547738,96.6129575 62.1744321,94.7154548 62.2373665,92.8199564 L62.7254423,83.5395643 L62.9845443,78.5933625 L63.1104129,76.260904 L63.1331764,75.7778425 C63.1532618,75.8005591 63.1753558,75.8226075 63.1981193,75.8426516 C64.9542549,77.525015 67.250019,78.5345666 69.6796858,78.6922464 C70.9236431,78.7283257 72.0819026,79.3329877 72.8210463,80.3325173 C73.5293922,81.3186843 73.9853314,82.462531 74.1480233,83.6651736 L74.3502166,85.5412961 L74.3502166,85.5680215 L74.392396,85.9481902 L75.2728071,94.1361819 Z" id="Path" fill="#B2EBF2" fill-rule="nonzero"></path>
                        <path d="M56.7393162,76.8321592 C55.263707,78.0788987 53.6193803,79.1125032 51.8552105,79.9022385 C50.1974934,80.5930899 48.9381373,81.9894916 48.4239504,83.7072661 C48.0604042,84.95601 47.5140807,86.1446218 46.8030566,87.2343496 C46.6162622,87.5122937 46.0826594,89.6843999 45.4687149,91.8458159 C45.5791847,91.9600669 45.6976888,92.0703092 45.8121757,92.1805514 C47.1699504,93.4613658 48.6783658,94.5744783 50.3032766,95.4944999 L50.3642024,95.5285748 C50.5864811,94.9633328 50.8676771,94.4228117 51.2031037,93.9156974 L51.2225196,93.8849632 C51.3557529,93.6871953 51.4394422,93.5809619 51.4394422,93.5809619 C51.4394422,93.5809619 51.4735874,93.8321806 51.5238009,94.2845078 C51.5726755,94.7375032 51.6376184,95.4263502 51.6985441,96.2254394 L52.0306232,96.3737653 C52.1370759,96.4265479 52.2441982,96.4726492 52.3580156,96.5220912 C52.7965474,96.7158503 53.2471304,96.9022599 53.7003915,97.0659529 C54.4402046,97.3372156 55.2027812,97.5730672 55.9881213,97.7735077 C55.6754582,90.9478427 55.7444182,86.4506275 55.8696173,83.7981324 C55.9687149,81.6601011 56.1026083,80.712686 56.1026083,80.712686 L56.586667,77.9352497 L56.7239174,77.1515276 L56.7888603,76.7706908 L56.7393162,76.8321592 Z" id="Path" fill="#B2EBF2" fill-rule="nonzero"></path>
                        <path d="M59.1910771,76.4473204 C58.3334294,76.4486498 57.4871635,76.2548907 56.7165527,75.8807353 C56.5833194,74.8945683 56.3175223,73.931118 55.9271956,73.0157733 L63.1405411,70.7895482 C62.8780915,72.1692466 62.827878,73.5803472 62.9919089,74.9747445 C61.952823,75.9208234 60.5977263,76.4459773 59.1910771,76.4473204 Z" id="Path" fill="#D7CCC8" fill-rule="nonzero"></path>
                        <path d="M59.1910771,76.1052286 C62.3217253,76.1052286 64.8605229,73.5723296 64.8605229,70.4474632 C64.8605229,67.3225969 62.3217253,64.7896979 59.1910771,64.7896979 C56.0597594,64.7896979 53.5209617,67.3225969 53.5209617,70.4474632 C53.5209617,73.5723296 56.0597594,76.1052286 59.1910771,76.1052286 Z" id="Path" fill="#FFF3E0" fill-rule="nonzero"></path>
                        <path d="M70.7127462,96.7004832 C70.2668498,95.1370478 70.0191295,94.1094565 70.0191295,94.1094565 L70.8767772,91.8798907 C70.9437286,92.193246 71.0421471,92.4992517 71.1706939,92.793231 L71.1894403,92.842673 L70.7013644,94.1134653 C70.7013644,94.1134653 70.9263212,95.0268056 71.3226736,96.4345656 C71.2430014,96.4726492 71.1666768,96.5107329 71.0829875,96.540799 C70.9986287,96.5715332 70.8345978,96.6510412 70.7127462,96.7004832 Z" id="Path" fill-opacity="0.1" fill="#000000" fill-rule="nonzero"></path>
                        <path d="M77.4038707,86.0470741 C77.4038707,86.0470741 76.8896838,81.0741469 77.4038707,78.6735387 C77.9187271,76.2722623 71.3916335,79.0156237 72.7641376,82.2727807 C73.4985946,84.0780809 74.4198461,85.8025368 75.5131627,87.4167504 L77.4038707,86.0470741 Z" id="Path" fill="#FFF3E0" fill-rule="nonzero"></path>
                        <path d="M79.2644505,90.4834891 C78.0807495,91.851161 76.7410516,93.0751839 75.2728071,94.1328412 L75.0819956,94.2731495 C74.8188765,94.4595591 74.5524099,94.6539864 74.2819262,94.8136706 L74.0944622,94.9312623 C73.5360874,94.2397428 73.0332823,93.5041264 72.5927419,92.7324307 L72.642286,92.4772032 L73.9685935,85.5299378 C73.9685935,85.5299378 74.0375535,85.6094458 74.155388,85.7196881 L74.392396,85.9294824 C74.4914841,86.0129992 74.6053015,86.1045337 74.7311702,86.1880505 C75.5205273,86.7279034 76.7216357,87.1354657 77.3315631,85.2366266 C77.4440415,84.8845196 77.5257222,84.5223905 77.5759358,84.1562527 L77.7513485,84.8030071 L79.2644505,90.4834891 Z" id="Path" fill="#B2EBF2" fill-rule="nonzero"></path>
                        <path d="M59.2593675,68.8873685 C59.5559623,68.7250118 59.8974145,68.6635434 60.2315021,68.7123172 C60.3761171,68.7731175 60.5060029,68.8639838 60.6131251,68.9782348 C61.0590216,69.4011642 61.5015704,69.8915751 62.1034636,70.0211932 C62.4757135,70.0773166 62.855328,70.0606132 63.2208828,69.9717513 C63.8622773,69.8975883 64.4849255,69.707846 65.0586991,69.4125224 C66.3361321,68.6515169 66.7438663,67.0038966 66.8235384,65.523978 C66.850319,65.0255495 66.7478833,64.3821357 66.2557904,64.2759022 C65.6304642,64.1422753 65.1731861,65.0896904 64.5398257,64.9874658 C64.3476751,64.9406964 64.1742709,64.8357992 64.0443852,64.6868051 C63.6132181,64.2565263 63.3199709,63.704647 62.9001855,63.2710275 C62.2300018,62.6456534 61.361642,62.2741704 60.4450771,62.2213878 C59.5365464,62.1719458 58.6253376,62.2581352 57.7422484,62.4759471 C57.2548421,62.5561233 56.7841737,62.7171438 56.3503285,62.9516591 C55.9151443,63.1895151 55.6078373,63.6070993 55.5114273,64.0928333 C55.4699174,64.4242282 55.5569542,64.7663132 55.4926809,65.0936992 C55.3627951,65.5406814 55.0534796,65.9135006 54.6383808,66.1246312 C54.2574272,66.3604828 53.8075137,66.505468 53.4339248,66.7947704 C52.8400658,67.2551152 52.4276451,67.9098873 52.2709787,68.6434993 C52.1183295,69.3737706 52.0975746,70.1247541 52.210053,70.8617068 C52.3660498,72.1425212 52.7235703,73.3905969 53.2698939,74.5605009 C53.4499932,74.9687313 53.6823146,75.3522407 53.9594934,75.7016751 C54.3672276,76.1459848 54.8358875,76.5301623 55.3514134,76.8435175 C55.5402164,77.01456 55.7966403,77.0913955 56.0490471,77.0526437 C56.1206851,77.0272546 56.1862975,76.9878346 56.2438757,76.9383926 C56.7319516,76.5314985 56.7774785,75.7965503 56.6248293,75.1765212 C56.4721801,74.5564921 56.2130781,73.9665291 56.1822804,73.3351418 C56.1628645,73.158086 56.1976793,72.9790259 56.2820381,72.8213461 C56.3831347,72.6944005 56.4982911,72.578145 56.6248293,72.4752523 C56.7901993,72.285502 56.9194155,72.0676901 57.0057829,71.8325066 C57.297691,71.2498931 57.4972062,70.6265233 57.5969639,69.9831096 C57.6525335,69.4532787 57.5360381,68.9201071 57.2655544,68.4610985 C57.7991571,68.9621996 58.5670899,69.1258926 59.2593675,68.8873685 Z" id="Path" fill="#212121" fill-rule="nonzero"></path>
                        <path d="M59.2593675,68.6896006 C59.5559623,68.5272439 59.8974145,68.4657755 60.2315021,68.5145493 C60.3761171,68.5753496 60.5060029,68.6662159 60.6131251,68.7804669 C61.0590216,69.2027281 61.5015704,69.6938072 62.1034636,69.8234253 C62.4757135,69.8795487 62.855328,69.8628453 63.2208828,69.7739834 C63.8622773,69.6998204 64.4849255,69.5100701 65.0586991,69.2147546 C66.3361321,68.453749 66.7438663,66.8061287 66.8235384,65.3262101 C66.850319,64.8277816 66.7478833,64.1843678 66.2557904,64.0781344 C65.6304642,63.9445074 65.1731861,64.8919225 64.5398257,64.7896979 C64.3476751,64.7429285 64.1742709,64.6380313 64.0443852,64.4890372 C63.6132181,64.0587584 63.3199709,63.5068791 62.9001855,63.0732596 C62.2300018,62.4478855 61.361642,62.0764025 60.4450771,62.0229518 C59.5365464,61.9741779 58.6253376,62.0596992 57.7422484,62.2781793 C57.2548421,62.3583554 56.7841737,62.5193759 56.3503285,62.7538912 C55.9151443,62.9917472 55.6078373,63.4093314 55.5114273,63.8950654 C55.4699174,64.2264603 55.5569542,64.5685453 55.4926809,64.8959313 C55.3627951,65.3429135 55.0534796,65.7157327 54.6383808,65.9268633 C54.2574272,66.1627149 53.8075137,66.3077001 53.4339248,66.5970025 C52.8400658,67.0573473 52.4276451,67.7121194 52.2709787,68.4457314 C52.1183295,69.1760027 52.0975746,69.9269862 52.210053,70.6639389 C52.3660498,71.9447533 52.7235703,73.192829 53.2698939,74.362733 C53.4499932,74.7709634 53.6823146,75.1544728 53.9594934,75.5039073 C54.3672276,75.9475487 54.8358875,76.3323944 55.3514134,76.6450815 C55.5402164,76.8167921 55.7966403,76.8936276 56.0490471,76.8542076 C56.1206851,76.8288185 56.1862975,76.7900667 56.2438757,76.7406247 C56.7319516,76.3330625 56.7774785,75.5987824 56.6248293,74.9787533 C56.4721801,74.3587242 56.2130781,73.7687612 56.1822804,73.1373739 C56.1628645,72.9603181 56.1976793,72.781258 56.2820381,72.6235782 C56.3831347,72.4966326 56.4982911,72.3803771 56.6248293,72.2774844 C56.7901993,72.0877341 56.9194155,71.8699222 57.0057829,71.6340706 C57.297691,71.0521252 57.4972062,70.4287555 57.5969639,69.7853417 C57.6525335,69.2555108 57.5360381,68.7223392 57.2655544,68.2633306 C57.7991571,68.7644317 58.5670899,68.9281247 59.2593675,68.6896006 Z" id="Path" fill="#212121" fill-rule="nonzero"></path>
                        <path d="M28.0640249,213.426302 C30.7695316,213.426302 32.96286,212.621868 32.96286,211.630356 C32.96286,210.638844 30.7695316,209.834409 28.0640249,209.834409 C25.3578487,209.834409 23.1645203,210.638844 23.1645203,211.630356 C23.1645203,212.621868 25.3578487,213.426302 28.0640249,213.426302 Z" id="Path" fill-opacity="0.05" fill="#AD1457" fill-rule="nonzero"></path>
                        <g transform="translate(0.000000, 160.352348)" id="Path">
                            <path d="M18.4558272,50.8971714 C18.4558272,50.8971714 29.039507,56.764731 37.6641884,51.6815616 C37.6641884,51.6815616 36.4898606,72.0262657 30.6068397,73.9812281 L22.7715155,73.9812281 C22.7715155,73.9812281 16.1071716,60.2731068 18.4558272,50.8971714 Z" fill="#F8BBD0" fill-rule="nonzero"></path>
                            <path d="M28.0640249,55.1892692 C33.367916,55.1892692 37.6682055,53.6138074 37.6682055,51.6702033 C37.6682055,49.7259311 33.367916,48.1504693 28.0640249,48.1504693 C22.7594642,48.1504693 18.4598443,49.7259311 18.4598443,51.6702033 C18.4598443,53.6138074 22.7594642,55.1892692 28.0640249,55.1892692 Z" fill="#E91E63" fill-rule="nonzero"></path>
                            <path d="M36.3566272,13.6099055 C39.0520912,23.4381681 27.5605503,51.4336836 27.5605503,51.4336836 C27.5605503,51.4336836 3.39175872,33.1708875 0.696294723,23.3466337 C-1.99783024,13.5197073 3.80083187,3.37341251 13.6480461,0.684838151 C23.4952603,-2.00373621 33.6625023,3.78297913 36.3566272,13.6099055 Z" fill="#FFECB3" fill-rule="nonzero"></path>
                            <path d="M13.7471342,0.738288934 C13.7471342,0.738288934 28.7917868,23.4034251 27.6596383,51.4837937" stroke="#FFA000" stroke-width="0.5"></path>
                            <path d="M40.1956214,31.5687003 C40.1956214,31.5687003 26.5388717,24.1604218 28.2809475,51.5025015 C28.2809475,51.5025015 39.6620186,51.0956074 43.6998585,41.8305824 C45.3328035,38.1017222 43.914103,33.743479 40.3978147,31.6829513 L40.1956214,31.5687003 Z" fill="#FFA000" fill-rule="nonzero"></path>
                            <path d="M40.4205782,31.6148016 C40.4205782,31.6148016 38.6590864,45.8066525 28.2809475,51.5025015" stroke="#FF6F00" stroke-width="0.5"></path>
                            <path d="M36.3834078,52.3323249 C36.0017847,57.0119409 34.358797,71.5465449 29.4365289,73.1861477 L22.4093083,73.1861477 C22.6342651,73.6845762 22.7715155,73.9698698 22.7715155,73.9698698 L30.6142043,73.9698698 C36.4898606,72.0108986 37.6682055,51.658845 37.6682055,51.658845 C37.2517677,51.9047186 36.8226091,52.1292119 36.3834078,52.3323249 Z" fill-opacity="0.05" fill="#000000" fill-rule="nonzero"></path>
                        </g>
                        <polygon id="Path" fill="#FFA000" fill-rule="nonzero" points="124.952766 226.138234 204.703284 226.138234 204.703284 179.951413 124.952766 179.951413"></polygon>
                    </g>
                    <g id="Group" transform="translate(162.000000, 53.000000)" fill-rule="nonzero">
                        <path d="M114.137906,7.99704621 C114.137906,7.99704621 108.237726,11.4037036 110.054195,16.1901542 C110.054195,16.1901542 116.184443,18.0075735 118.679077,22.5497833 C121.173712,27.0926623 140.468677,43.4400674 140.468677,43.4400674 L154.533602,36.3865268 C154.533602,36.3865268 149.644653,29.8475647 134.161865,25.2826037 C134.161865,25.2826037 125.019329,15.4928969 121.855891,13.6788234 C118.685766,11.8647499 114.137906,7.99704621 114.137906,7.99704621 Z" id="Path" fill="#FFA000"></path>
                        <path d="M9.01813852,116.93246 L111.387119,9.71208507 C116.425212,4.44250605 124.77856,4.25179747 130.048727,9.28516552 C135.318894,14.3258943 135.506159,22.6816064 130.476761,27.9572078 L28.1224938,135.192974 L0.0374529633,145.481868 L9.01813852,116.93246 Z" id="Path" fill="#F8BBD0"></path>
                        <path d="M124.470911,7.38343301 C129.73439,12.4241617 129.928343,20.7798739 124.898945,26.0561444 L22.5313014,133.27652 L1.44662071,140.993191 L0.0220704962,145.474508 L28.1071114,135.185613 L130.490137,28.0033794 C135.519535,22.7271088 135.325582,14.3713967 130.062103,9.33066792 C127.955374,7.30915704 125.233346,6.04780383 122.324053,5.74534673 C123.093177,6.21709952 123.815484,6.76580489 124.470911,7.38343301 Z" id="Path" fill-opacity="0.1" fill="#E91E63"></path>
                        <polygon id="Path" fill="#F8BBD0" points="9.01813852 116.936475 28.1224938 135.192974 5.07955815 143.629653 0.0374529633 145.474508 3.2329933 135.326804"></polygon>
                        <path d="M3.2329933,135.322789 C3.93189234,135.458627 4.59868885,135.726288 5.19793627,136.111721 C5.89148489,136.610909 6.39375588,137.475454 6.20314705,138.306542 C6.01588223,138.823797 5.74836107,139.308264 5.4112844,139.743213 C4.71372295,140.920253 4.59200082,142.351571 5.07955815,143.629653 L0.0220704962,145.474508 L3.2329933,135.322789 Z" id="Path" fill="#AD1457"></path>
                        <path d="M150.90869,201.692719 C150.90869,201.692719 151.590869,211.68451 152.721146,212.820062 C153.858111,213.955615 142.508525,214.637482 142.508525,214.637482 L144.093588,201.681343 L150.90869,201.692719 Z" id="Path" fill="#FFF3E0"></path>
                        <path d="M153.403325,209.413405 C153.403325,209.413405 151.811574,209.413405 146.140125,212.366377 C146.140125,212.366377 142.281132,211.68451 140.689381,206.234929 C140.689381,206.234929 135.927505,214.4093 132.744003,214.862317 C129.567189,215.316003 123.440954,215.769688 127.52734,221.222615 C131.607038,226.675542 155.663879,224.175587 155.663879,224.175587 C155.663879,224.175587 156.352746,211.002643 153.403325,209.413405 Z" id="Path" fill="#212121"></path>
                        <path d="M149.999118,217.133422 C149.999118,217.133422 148.407367,221.44745 148.407367,221.44745 L137.967354,218.49381 L138.562588,214.211231 L138.709725,213.178059 L139.090942,210.320107 C139.090942,210.320107 147.939205,208.033612 147.939205,209.177194 C148.05959,210.113339 148.253542,211.038777 148.521064,211.943472 C148.902281,213.337987 149.343691,214.93124 149.664717,215.979133 C149.865357,216.680405 149.999118,217.133422 149.999118,217.133422 Z" id="Path" fill="#FFF3E0"></path>
                        <path d="M144.300917,157.912053 C143.585298,159.123888 142.776047,161.394993 144.280853,164.230194 C144.728951,165.051245 145.277369,165.811402 145.912732,166.493938 C150.90869,171.94285 152.26636,184.205746 152.26636,184.205746 L152.26636,203.960478 L148.862153,204.223455 L143.418097,204.642345 L135.23195,171.040163 C135.23195,171.040163 130.463385,146.514371 132.737315,142.201012 C135.004557,137.886983 137.044406,110.86592 137.044406,110.86592 L138.93043,108.91467 L143.404721,104.280787 L156.352746,104.280787 C157.38939,105.024215 158.245458,105.985119 158.867445,107.097251 C161.041054,110.694617 162.993959,118.174408 157.034925,131.984385 C147.731876,153.556536 145.00316,156.963194 145.00316,156.963194 C144.735639,157.252268 144.501558,157.570115 144.300917,157.912053 Z" id="Path" fill="#FF6F00"></path>
                        <path d="M143.64549,128.802563 C143.64549,128.802563 144.207285,146.678314 144.300917,157.912053 C144.320981,160.454164 144.300917,162.656347 144.280853,164.230194 C144.294229,165.064628 144.234037,165.899062 144.100276,166.722789 C143.418097,168.765043 144.782455,173.307253 144.782455,173.307253 C150.453904,188.29494 148.868841,201.464538 148.868841,201.464538 L148.868841,211.45566 L137.967354,212.820062 C137.967354,212.820062 139.786498,211.45566 134.79054,198.286061 C131.921375,190.718611 131.306077,183.306405 131.2927,178.364042 C131.265948,175.659995 130.724218,172.985391 129.70095,170.483428 C129.3933,169.637619 129.199347,168.752329 129.132467,167.854326 C128.684369,163.312116 126.637832,157.634354 126.637832,157.634354 C126.637832,157.634354 121.193776,141.511115 119.829419,129.701905 C119.200744,124.081021 119.307752,118.402589 120.150444,112.80914 C120.351085,111.387859 120.618606,109.977285 120.966383,108.58344 C120.966383,108.58344 143.150576,94.6135348 151.530677,104.269411 C152.339928,105.212917 152.988667,106.287576 153.436765,107.447887 C153.898239,108.592808 154.252705,109.77587 154.50685,110.983691 C157.081741,123.810683 143.64549,128.802563 143.64549,128.802563 Z" id="Path" fill="#FF6F00"></path>
                        <path d="M142.963311,29.3443618 C149.350379,29.3443618 154.533602,24.1597652 154.533602,17.7640018 C154.533602,11.3682385 149.350379,6.18364187 142.963311,6.18364187 C136.569556,6.18364187 131.386333,11.3682385 131.386333,17.7640018 C131.386333,24.1597652 136.569556,29.3443618 142.963311,29.3443618 Z" id="Path" fill="#FFF3E0"></path>
                        <path d="M136.609684,25.0269873 C136.609684,25.0269873 141.37156,38.4254356 136.609684,45.4635858 C131.841119,52.5017359 151.811574,50.230631 151.811574,50.230631 L159.52956,40.9213759 C159.52956,40.9213759 150.447216,40.9213759 150.005806,25.0269873 C149.564396,9.13259867 136.609684,25.0269873 136.609684,25.0269873 Z" id="Path" fill="#FFB9B9"></path>
                        <path d="M149.999118,217.133422 L148.407367,221.44745 L137.967354,218.49381 L138.562588,214.211231 C140.35498,218.181315 143.411409,218.719314 143.411409,218.719314 C146.715296,217.004275 148.63476,216.283598 149.658029,215.983148 C149.865357,216.680405 149.999118,217.133422 149.999118,217.133422 Z" id="Path" fill-opacity="0.1" fill="#000000"></path>
                        <path d="M150.674609,215.997869 C150.674609,215.997869 149.089546,215.997869 143.411409,218.95151 C143.411409,218.95151 139.559105,218.269643 137.967354,212.820062 C137.967354,212.820062 133.205477,220.993765 130.021975,221.44745 C126.845161,221.901136 120.718926,222.346792 124.805312,227.80708 C128.891698,233.268036 152.948539,230.76072 152.948539,230.76072 C152.948539,230.76072 153.630718,217.587107 150.674609,215.997869 Z" id="Path" fill="#212121"></path>
                        <path d="M96.8346366,19.9815745 C96.8346366,19.9815745 97.3489461,9.73483627 108.854363,12.3793285 L105.902935,17.9165687 L96.8346366,19.9815745 Z" id="Path" fill="#FFF3E0"></path>
                        <path d="M150.46728,43.6495123 C150.46728,43.6495123 139.345088,41.832093 136.388979,39.5609881 C136.388979,39.5609881 134.108361,43.8743476 130.035351,41.6032427 C125.962341,39.3321378 116.418524,39.5609881 116.418524,39.5609881 C116.418524,39.5609881 108.473814,35.2469594 106.896777,25.480673 C106.896777,25.480673 105.309038,19.5780753 105.754461,17.9888372 C105.754461,17.9888372 99.8549506,11.8573892 96.9028545,20.0310918 C98.0458387,25.7088541 98.9447098,25.2558376 98.7199921,29.7940325 L102.349585,39.7858235 C102.349585,39.7858235 102.577647,43.1924808 109.159337,47.7346907 C115.743033,52.2769005 123.233625,59.3150506 123.233625,59.3150506 C123.233625,59.3150506 119.260936,61.4723995 120.73899,71.3490962 C122.53807,83.4212835 119.829419,100.641933 119.829419,100.641933 L119.829419,111.769277 C119.829419,111.769277 142.528589,105.184143 146.387582,108.5908 C150.246575,111.997458 159.549624,108.5908 159.549624,108.5908 C159.549624,108.5908 158.405971,104.730457 156.827596,95.4212023 C155.242533,86.1119473 157.054989,77.0275277 157.054989,77.0275277 C157.054989,77.0275277 162.953831,61.3579744 165.675858,55.0016911 C168.397886,48.6454078 163.63601,40.0146738 158.867445,36.8361975 C154.09888,33.6583904 152.326552,35.5674836 152.326552,35.5674836 C152.326552,35.5674836 160.666525,41.6072576 150.46728,43.6495123 Z" id="Path" fill="#FFA000"></path>
                        <path d="M130.443321,14.928801 C130.436633,15.401223 130.516889,15.8709683 130.677402,16.315955 C130.944923,16.8218345 131.306077,17.2708361 131.740798,17.6382011 C133.439558,19.2997077 134.930988,21.2737087 135.532911,23.5749255 C135.934193,25.1340518 135.914129,26.7647774 135.887377,28.3767667 C135.787056,34.8969925 135.506159,41.9351426 131.493341,47.048809 C130.015287,48.935151 128.109199,50.4327151 126.323495,52.0293139 C126.076038,52.2173459 125.888773,52.4756389 125.781764,52.7720736 C125.734948,53.0825606 125.795141,53.4004082 125.948965,53.6714151 C126.784969,55.3978296 128.530544,56.4570986 130.189176,57.4180022 C130.951611,57.8556282 131.740798,58.3093138 132.61693,58.3360799 C134.683531,58.4043335 136.047889,56.2208876 137.920537,55.3637028 C140.655941,54.1137252 143.725747,55.8515153 146.441087,57.1469953 C148.400679,58.0831401 150.46728,58.8024795 152.587385,59.2922994 C155.48999,59.9634598 158.773812,60.1267331 161.221631,58.423739 C162.632805,57.4273703 163.595881,55.9150848 163.910219,54.2127598 C164.104172,53.1039735 164.077419,51.8158542 164.913423,51.0650646 C165.348145,50.6843166 165.936692,50.5163592 166.404854,50.173753 C167.133849,49.6404381 167.474938,48.7444424 167.782588,47.8872575 L170.578184,40.23884 C170.939337,39.4311724 171.126602,38.5559205 171.120087,37.6706312 C170.986154,35.8304607 169.287394,34.4928241 167.588635,33.7841912 C165.883187,33.0748891 163.997163,32.7282679 162.499045,31.6502626 C159.964282,29.8281593 159.181782,26.4255168 158.954389,23.3119484 C158.800564,21.174005 158.81394,19.0266933 159.001205,16.8914264 C159.275415,13.724995 159.897401,10.3484495 158.486227,7.49785815 C156.981421,4.44919758 153.603966,2.89877033 150.487344,1.5725093 C149.290187,1.06194564 148.052902,0.547367065 146.748736,0.49048907 C145.371002,0.428927004 144.033396,0.871237065 142.72923,1.34031324 C140.655941,2.06032175 138.542524,2.98977512 136.415731,3.47758758 C135.218574,3.75194026 133.901032,3.54651033 132.744003,3.98079055 C128.490416,5.58140427 130.443321,11.5027382 130.443321,14.928801 Z" id="Path" fill-opacity="0.1" fill="#000000"></path>
                        <path d="M130.443321,14.4751154 C130.436633,14.9482064 130.516889,15.4172826 130.677402,15.8622693 C130.944923,16.3681489 131.306077,16.8178196 131.740798,17.1845154 C133.439558,18.846022 134.930988,20.8200231 135.532911,23.121909 C135.934193,24.6803661 135.914129,26.3110917 135.887377,27.923081 C135.787056,34.4433068 135.506159,41.4814569 131.493341,46.5951233 C130.015287,48.4814653 128.109199,49.9790295 126.323495,51.5756283 C126.076038,51.7589762 125.888773,52.0125851 125.781764,52.3036666 C125.72826,52.6141536 125.788452,52.931332 125.948965,53.2030081 C126.778281,54.9294226 128.523856,55.9886916 130.182488,56.948926 C130.944923,57.3872211 131.73411,57.8409068 132.610242,57.8670038 C134.676843,57.9359265 136.041201,55.7524806 137.920537,54.8952958 C140.655941,53.6453182 143.719059,55.3824391 146.434399,56.6785882 C148.400679,57.614064 150.460592,58.3340725 152.580697,58.8238924 C155.48999,59.4943836 158.773812,59.6583261 161.214943,57.9546628 C162.632805,56.9582941 163.595881,55.4460086 163.903531,53.7443528 C164.104172,52.6355665 164.070731,51.3474471 164.913423,50.5966576 C165.341457,50.2152404 165.936692,50.0479522 166.398166,49.7046768 C167.127161,49.1713619 167.46825,48.2760354 167.7759,47.4181814 L170.571496,39.770433 C170.932649,38.9620963 171.119914,38.0868443 171.119914,37.2022242 C170.986154,35.3613846 169.287394,34.0237479 167.581947,33.315115 C165.883187,32.6064821 163.997163,32.2598609 162.499045,31.1811864 C159.964282,29.3597523 159.181782,25.9571098 158.947701,22.8435414 C158.793876,20.7055979 158.807252,18.5582863 158.994517,16.4223503 C159.275415,13.2559188 159.890713,9.87937329 158.479539,7.02945113 C156.974732,3.98079055 153.603966,2.42969415 150.480656,1.10343312 C149.283499,0.592869462 148.046214,0.0789600412 146.748736,0.0214128925 C145.371002,-0.0394800206 144.026708,0.402160888 142.722542,0.871237065 C140.655941,1.59124558 138.535836,2.5213681 136.415731,3.00918055 C135.211886,3.28353324 133.894344,3.07743415 132.737315,3.51238353 C128.490416,5.13909421 130.443321,11.0497217 130.443321,14.4751154 Z" id="Path" fill="#212121"></path>
                    </g>
                </g>
            </g>
        </g>
    </g>
</svg>