<?xml version="1.0" encoding="UTF-8"?>
<svg width="249px" height="181px" viewBox="0 0 249 181" version="1.1" xmlns="http://www.w3.org/2000/svg" xmlns:xlink="http://www.w3.org/1999/xlink">
    <!-- Generator: Sketch 64 (93537) - https://sketch.com -->
    <title>Artwork</title>
    <desc>Created with Sketch.</desc>
    <defs>
        <linearGradient x1="74.2616034%" y1="41.2133334%" x2="25.7383966%" y2="58.7869506%" id="linearGradient-1">
            <stop stop-color="#00BCD4" offset="0%"></stop>
            <stop stop-color="#80DEEA" offset="100%"></stop>
        </linearGradient>
        <linearGradient x1="0%" y1="49.9992622%" x2="100%" y2="49.9992622%" id="linearGradient-2">
            <stop stop-color="#E91E63" offset="0%"></stop>
            <stop stop-color="#F48FB1" offset="100%"></stop>
        </linearGradient>
        <linearGradient x1="50.0007348%" y1="100%" x2="50.0007348%" y2="-0.00102473141%" id="linearGradient-3">
            <stop stop-color="#673AB7" offset="0%"></stop>
            <stop stop-color="#CE93D8" offset="100%"></stop>
        </linearGradient>
        <linearGradient x1="81.6206592%" y1="-75.1506777%" x2="40.5167212%" y2="86.9361108%" id="linearGradient-4">
            <stop stop-color="#00BCD4" offset="0%"></stop>
            <stop stop-color="#673AB7" offset="100%"></stop>
        </linearGradient>
        <linearGradient x1="0%" y1="49.999441%" x2="100%" y2="49.999441%" id="linearGradient-5">
            <stop stop-color="#00BCD4" offset="0%"></stop>
            <stop stop-color="#B2EBF2" offset="100%"></stop>
        </linearGradient>
        <linearGradient x1="1.549047e-05%" y1="49.9999166%" x2="100%" y2="49.9999166%" id="linearGradient-6">
            <stop stop-color="#673AB7" offset="0%"></stop>
            <stop stop-color="#CE93D8" offset="100%"></stop>
        </linearGradient>
    </defs>
    <g id="Landing" stroke="none" stroke-width="1" fill="none" fill-rule="evenodd">
        <g id="Landing-(Dark)" transform="translate(-351.000000, -3212.000000)">
            <g id="Discover" transform="translate(-236.000000, 2190.000000)">
                <g id="Decoration-+-Preview-+-Preview-+-Preview-+-Preview-+-Phone-Frame-+-Highlight-Mask">
                    <g id="Slider" transform="translate(266.000000, 961.000000)">
                        <g id="Item">
                            <g id="Desc" transform="translate(171.000000, 61.000000)">
                                <g id="Artwork" transform="translate(150.000000, 0.000000)">
                                    <g id="Group" transform="translate(160.000000, 154.000000)" fill="url(#linearGradient-1)">
                                        <path d="M70,18 C63.5266916,17.0060598 63.6633724,0.54321068 57,1 C50.3366276,1.45678932 41.5641019,6.40456002 40.9871263,12.6029838 C40.3783542,11.3275852 22.204617,11.2633805 22.204617,16.3221718 C22.204617,17.0605252 22.3072935,17.7754707 22.484162,18.4623267 C20.6598328,17.2243808 18.5162129,16.3750068 16.1871128,16.0472956 C15.4902376,15.949651 14.7807763,15.8928032 14.0540917,15.8928032 C13.8142925,15.8928032 13.5778054,15.8994912 13.3413182,15.9101919 C9.39191708,16.0900987 5.87375714,17.7661075 3.39627302,20.3362999 L3.39627302,22.4911684 C3.39627302,24.4968948 1.93694213,26.1535085 0.0324590166,26.4491174 C0.0278220142,26.4665062 0.0225225829,26.4825573 0.0178855806,26.5006149 L77.5743351,26.4999461 C77.4664239,23.238885 76.4733084,18.9939402 70,18 Z" id="Path"></path>
                                    </g>
                                    <g id="Group-23" transform="translate(175.000000, 45.000000)">
                                        <g id="Group" transform="translate(58.000000, 16.000000) scale(-1, 1) translate(-58.000000, -16.000000) translate(57.000000, 15.000000)" fill="#E91E63">
                                            <path d="M0.665542322,0.000846654701 L0.857542322,0.000846654701 C0.737542322,0.39682251 0.665542322,0.797627339 0.665542322,1.20084665 C0.665542322,0.797627339 0.605542322,0.39682251 0.485542322,0.000846654701 L0.665542322,0.000846654701" id="Path"></path>
                                        </g>
                                        <g id="Group" transform="translate(53.000000, 16.000000)" fill="#B2EBF2">
                                            <path d="M5.10450019,0.051279053 C5.10450019,2.90343296 2.90685323,5.27070773 0.0247158045,5.72248268 C2.85124267,6.1664684 5.01662177,8.45130722 5.10038088,11.2307617 L5.10861949,11.2307617 C5.19169205,8.45130722 7.35707115,6.1671175 10.183598,5.72248268 C7.30146059,5.27070773 5.10450019,2.90343296 5.10450019,0.051279053" id="Path"></path>
                                        </g>
                                        <g id="Group" transform="translate(17.000000, 1.000000) scale(-1, 1) translate(-17.000000, -1.000000) translate(16.000000, 0.000000)" fill="#E91E63">
                                            <path d="M0.640142681,0.0448726991 L0.832142681,0.0448726991 C0.724142681,0.440848554 0.640142681,0.841653383 0.640142681,1.2448727 C0.640142681,0.841653383 0.580142681,0.440848554 0.460142681,0.0448726991 L0.640142681,0.0448726991" id="Path"></path>
                                        </g>
                                        <g id="Group" transform="translate(12.000000, 1.000000)" fill="#B2EBF2">
                                            <path d="M5.08390368,0.0191253249 C5.08390368,2.82034792 2.88625673,5.14534992 0.00411930075,5.58969497 C2.83064617,6.02511486 4.99602527,8.2697905 5.07978438,10.9989744 L5.08802298,10.9989744 C5.17109555,8.2697905 7.33647464,6.02575238 10.1636881,5.58969497 C7.28155063,5.14534992 5.08390368,2.82034792 5.08390368,0.0191253249" id="Path"></path>
                                        </g>
                                        <g id="Group" transform="translate(50.000000, 74.000000) scale(-1, 1) translate(-50.000000, -74.000000) translate(49.000000, 73.000000)" fill="#E91E63">
                                            <path d="M0.606276493,0.0482593179 L0.798276493,0.0482593179 C0.678276493,0.444235173 0.606276493,0.845040002 0.606276493,1.24825932 C0.606276493,0.845040002 0.546276493,0.444235173 0.426276493,0.0482593179 L0.606276493,0.0482593179" id="Path"></path>
                                        </g>
                                        <g id="Group" transform="translate(44.000000, 74.000000)" fill="#B2EBF2">
                                            <path d="M5.12509669,0.0216753683 C5.12509669,2.82289796 2.92744974,5.14789996 0.0453123083,5.59224501 C2.87183918,6.02766491 5.03721827,8.27170303 5.12097739,11.0015244 L5.12921599,11.0015244 C5.21228856,8.27170303 7.3769811,6.02830242 10.2041945,5.59224501 C7.32137054,5.14726245 5.12509669,2.82353547 5.12509669,0.0216753683" id="Path"></path>
                                        </g>
                                        <g id="Group" transform="translate(14.000000, 60.000000)" fill="#673AB7">
                                            <path d="M32.4052738,43.7793363 C30.0452165,39.759037 28.5654293,37.0285449 26.1460204,36.1579919 C24.9903326,35.3128077 23.9480129,34.5751075 22.9970545,33.9188547 C22.8683483,25.6879897 23.5959048,14.8407924 24.3674749,11.1549618 C24.6902405,9.61680679 24.6769031,7.90440766 24.4575025,6.15729323 L2.18200268,1.32652517 C2.18200268,1.32652517 2.34938736,0.837840508 2.6241383,0.0574137719 L2.48876344,0.11349234 C2.48876344,0.11349234 -0.0426797589,7.52320692 0.0060018411,18.4692093 C0.0460141151,27.5352444 1.64450446,35.4189564 1.64450446,35.4189564 L1.87124068,35.6659692 L4.14927281,55.4964189 L5.77110365,69.6141984 L5.77110365,69.6141984 L9.1361359,69.676953 C9.24683652,69.2323301 9.67963595,63.1705039 10.0530838,57.6374186 C10.29049,54.1198236 10.5038888,50.8151937 10.5939164,49.305078 C10.8439931,45.1579344 10.1411108,42.2111392 9.04077331,40.1101957 C9.41955617,35.7487518 10.207798,27.6040074 11.310803,21.1382821 C11.8796442,23.8133633 12.465824,26.1793448 13.2694038,28.3316936 C13.2687369,28.3430429 13.0966842,32.4961949 18.6970688,41.4387237 L25.3731167,49.3531454 L39.4134236,65.9991336 L39.701512,66.3409458 L39.7915396,66.4484297 L40.2943605,66.3282614 L43.5046786,65.5631895 L43.5040118,65.5638571 C43.5060124,65.5638571 36.133084,50.1349073 32.4052738,43.7793363" id="Path"></path>
                                        </g>
                                        <g id="Group" transform="translate(1.000000, 10.000000)" fill="#311B92">
                                            <path d="M7.76348494,3.81047531 L7.76348494,4.27765232 C7.76348494,5.25959539 6.95814699,6.0565444 5.96586768,6.0565444 C5.89474869,6.0565444 5.82633899,6.0438093 5.75657464,6.03576608 L5.71390324,9.36565902 L5.66242664,13.3081772 L5.62381918,16.2586983 L5.60620877,17.6374402 C5.59672623,18.381438 5.1083758,18.9779768 4.51571751,18.9700139 C3.92305922,18.9632309 3.45028724,18.353957 3.45976977,17.6099592 L3.46992963,16.8693127 L3.52411553,12.6935412 L3.57491481,8.70611501 L3.58642931,7.86090668 C3.33649684,7.93396592 3.07640452,7.98557658 2.8020884,7.98557658 C1.26524078,7.98557658 0.0203197128,6.75362344 0.0203197128,5.23345492 L0.0203197128,2.78764588 C0.0203197128,1.26747736 1.26524078,0.0348539518 2.8020884,0.0348539518 C4.09848607,0.0348539518 5.17881747,0.916927041 5.48632246,2.10397221 C5.64075228,2.06174531 5.79924604,2.03158323 5.96722233,2.03158323 C6.95882432,2.0322535 7.76348494,2.82920251 7.76348494,3.81047531" id="Path"></path>
                                        </g>
                                        <g id="Group" transform="translate(37.000000, 43.000000)" fill="#2B3046">
                                            <path d="M0.386331564,8.45650004 C0.147265002,9.10884748 0.0535509098,10.0519926 0.0560504035,11.1437821 C2.87262381,11.6948696 6.09014097,11.729272 9.35100887,10.5466083 C9.91393093,10.3421412 10.4475275,10.1318321 10.9607237,9.9182776 C10.2071859,7.23164468 9.1642182,3.53046544 8.15886362,0.0149293446 C4.61366588,3.86540204 0.696161828,7.61396572 0.386331564,8.45650004" id="Path"></path>
                                        </g>
                                        <g id="Group" transform="translate(35.000000, 8.000000)" fill="#2B3046">
                                            <path d="M15.1325417,16.7329546 C13.9519936,14.7240482 13.5023908,12.7858732 13.4233697,11.095589 C14.5017353,8.73170298 14.5964244,6.77898509 14.5964244,6.77898509 C14.5623635,6.42797182 14.4949231,6.07563646 14.4015965,5.72528424 C14.4172644,5.68892693 14.4329324,5.65521379 14.447238,5.62480586 L14.5596387,5.64000983 C14.5596387,5.64000983 14.5296651,5.61224606 14.475849,5.56332896 C14.5351149,5.44037516 14.5725818,5.3716268 14.5725818,5.3716268 L14.4247578,5.51771707 C14.390697,5.4866481 14.3518677,5.45161287 14.3062262,5.40996723 C13.4730985,2.81339449 10.972353,0.445542267 6.51787876,0.140140891 C6.51719755,0.140140891 6.51787876,0.140801933 6.51651633,0.140140891 C6.24198611,0.0753587811 5.9885736,0.0469339777 5.76581583,0.0687483617 C0.86718851,0.535443971 0.137605718,4.89435452 0.0299735227,6.05117791 C0.0143055449,6.22965924 0.0108994628,6.33410386 0.0108994628,6.33410386 C0.0108994628,6.33410386 1.15738671,4.79982552 3.09476622,4.22802424 C3.37747104,4.14407192 3.67652505,4.08259502 3.99260947,4.04822084 C4.03756976,4.0429325 4.08116761,4.03433896 4.12749032,4.0303727 C5.54237684,3.91469036 7.38029876,4.25116071 8.74205039,4.57441022 C8.10102574,5.44434141 7.5022365,6.6137246 7.93889623,7.59206667 C8.74545647,9.40133846 8.44027152,10.3512557 8.23863145,10.9138024 C8.12963683,11.2185428 8.04244112,11.6092185 7.98385651,11.9066874 C7.95252055,12.0666596 7.93072163,12.1955627 7.91777852,12.2702605 C7.91096635,12.3132282 7.90619784,12.3442972 7.90619784,12.3442972 C7.90619784,12.3442972 7.92322825,12.3178555 7.94911447,12.2808371 C8.20252698,11.9033822 9.63921242,9.82572739 10.1467187,10.3929014 C11.0704481,11.4247878 9.48593873,15.5325024 9.48593873,15.5325024 C9.36672585,15.6475237 9.24206325,15.7559346 9.11399456,15.8603793 L7.37416781,20.7408519 L7.87349945,21.5803752 C7.87349945,21.5803752 13.1542892,25.4382159 14.0528136,28.0215678 L16.8567005,35.6995699 L19.0992649,41.2106766 C22.4365442,38.380095 23.3534615,35.4516792 23.7070128,33.4176532 C25.2431559,24.5775393 17.0317731,19.9647887 15.1325417,16.7329546" id="Path"></path>
                                        </g>
                                        <g id="Group" transform="translate(15.000000, 34.000000)" fill="#2B3046">
                                            <path d="M0.0501219583,6.45493443 C0.739637546,7.99932729 1.68856813,9.6814408 2.97751525,11.5179295 C3.82958854,12.7317929 4.63763579,13.6951968 5.39691572,14.4657918 C7.3747011,9.41752962 6.49147092,5.49921723 7.81767084,0.00896785571 L6.41086939,1.17671078 C6.41154672,1.17735134 3.38594148,4.10215343 0.0501219583,6.45493443" id="Path"></path>
                                        </g>
                                        <g id="Group" transform="translate(15.000000, 17.000000)" fill="#2B3046">
                                            <path d="M22.4577982,9.93870522 L23.3836621,7.22249998 L22.0284501,6.74607825 C18.9591387,5.66895086 19.2890518,3.09640715 20.2893273,0.0294004995 C19.5860395,0.546582014 18.7846338,1.02367194 17.8653549,1.42926519 C14.4667889,2.92869067 5.35828945,1.83686303 1.27092278,9.8919317 C0.77704087,10.864821 0.25879412,12.1303788 0.00395105527,13.7266923 C3.42358939,11.0158326 6.76815768,8.31967317 7.94754767,7.22584095 C10.6770684,4.69205244 17.5183206,8.24283095 17.5183206,8.24283095 L17.4946142,8.26421313 L22.4577982,9.93870522 Z" id="Path"></path>
                                        </g>
                                        <g id="Group" transform="translate(36.000000, 14.000000)" fill="#2B3046">
                                            <path d="M1.16051631,0.991432654 C1.36033405,0.585038398 1.3045291,0.15663112 1.0399056,0.0397927709 C0.847288496,-0.0448726991 0.600666596,0.0575725196 0.402649013,0.271776159 C0.388247734,0.287015944 0.374746535,0.303102383 0.360345256,0.320035477 C0.300939981,0.391154472 0.244234946,0.472433323 0.20013103,0.564718685 C0.00121336621,0.97449956 0.0570183215,1.40036687 0.31984166,1.51974519 C0.585365237,1.63573688 0.960698566,1.39867357 1.16051631,0.991432654" id="Path"></path>
                                        </g>
                                        <g id="Group" transform="translate(41.615110, 16.859730) scale(-1, 1) rotate(-115.329034) translate(-41.615110, -16.859730) translate(40.615110, 16.359730)" fill="#2B3046">
                                            <path d="M0.697932433,0.0376378059 C1.05183286,0.042440254 1.33829189,0.262444561 1.33829189,0.520849619 C1.33829189,0.783254755 1.05116513,0.989658796 0.697932433,0.98325867 C0.342028795,0.976858545 0.0562375055,0.760054301 0.0562375055,0.502449259 C0.0569052422,0.240044122 0.345367478,0.0368401444 0.697932433,0.0376378059" id="Path"></path>
                                        </g>
                                        <g id="Group" transform="translate(48.000000, 40.000000)" fill="#FFF3E0">
                                            <path d="M21.2109418,8.12534516 C20.3796254,8.22741409 19.5757297,8.13719833 18.8574402,7.89618396 C18.8554338,7.89684247 18.8527586,7.89684247 18.8507522,7.89750097 C17.4155108,9.75120441 14.3992299,12.1587141 14.3992299,12.1587141 C14.3992299,12.1587141 7.85303102,18.3612123 5.90615883,19.0789874 C3.62689382,19.9199037 1.48473249,18.6042022 0.547077106,17.2456977 C0.544401912,17.2417467 0.541726719,17.2377956 0.539051525,17.2338446 C0.149810846,16.6655511 -0.0280895336,16.0939651 0.0856061975,15.6665927 C0.108345344,15.5849375 0.134428482,15.5052579 0.178569178,15.4361144 C1.02326158,14.0927556 3.66033374,12.0408409 6.75687042,10.1667237 C9.96910922,8.22280453 13.6749213,6.47380406 16.3935868,5.9048521 C16.1922785,5.52752632 16.0531684,5.11661657 15.9976582,4.67804944 C15.7154252,2.45426383 17.590736,0.393788509 20.1876802,0.0744115409 C22.7846245,-0.245623936 25.1180622,1.29726315 25.4002951,3.52104875 C25.6831968,5.74483436 23.8072173,7.80596819 21.2109418,8.12534516" id="Path"></path>
                                        </g>
                                        <g id="Group" transform="translate(0.000000, 18.000000)" fill="#FFF3E0">
                                            <path d="M11.0717317,15.7463177 C11.4917007,16.8328579 11.7584816,17.7674868 11.7409558,18.3703634 C11.6390468,22.0284956 7.73664599,23.7635538 6.21320374,23.074844 C6.03470071,22.9937792 5.88086355,22.8875095 5.77765634,22.7390043 C3.7193541,19.7682195 2.43867598,13.8859156 3.553184,8.34353878 C1.56238836,8.12827439 0.00843832518,6.3618802 0.00843832518,4.21468603 C0.00843832518,1.92239275 1.77983751,0.0626719112 3.96471463,0.0626719112 C4.00171344,0.0626719112 4.03806315,0.0681216426 4.07506196,0.068802859 L4.02637932,4.12135938 L3.97380206,8.36601893 L3.96471463,9.11876308 C3.9556272,9.87491331 4.40870036,10.4934578 4.97666455,10.50027 C5.54527785,10.5084446 6.01263124,9.90284318 6.02171867,9.14601173 L6.03859532,7.74543076 L6.07559413,4.74603484 L6.12427678,0.739801038 C7.2050315,1.48096451 7.92034184,2.75960774 7.92034184,4.21536724 C7.92034184,5.36526057 7.47440881,6.40615927 6.75390566,7.15754099 C7.61136931,8.67120388 9.92022491,12.772808 11.0717317,15.7463177" id="Path"></path>
                                        </g>
                                        <g id="Group" transform="translate(30.000000, 35.000000)" fill="#FFD8D8">
                                            <path d="M6.50936356,0.037781966 L0.000658509212,6.87335452 L6.50936356,0.037781966 Z" id="Path"></path>
                                        </g>
                                        <g id="Group" transform="translate(36.000000, 14.000000)" fill="#FFD8D8">
                                            <path d="M1.16005107,0.991432654 C0.960329219,1.39867357 0.586075657,1.63658354 0.318880205,1.51974519 C0.0561829926,1.40121353 0.000404817472,0.97449956 0.199227022,0.56556534 C0.244209422,0.473279978 0.299987597,0.392001126 0.360264012,0.320035477 C0.373758732,0.303102383 0.387253452,0.288709253 0.401647819,0.272622814 C0.599570376,0.0584191743 0.846073925,-0.0457193538 1.03859859,0.0397927709 C1.3030951,0.157477774 1.35977292,0.585038398 1.16005107,0.991432654" id="Path"></path>
                                        </g>
                                        <g id="Group" transform="translate(41.399760, 17.434708) scale(-1, 1) rotate(64.671530) translate(-41.399760, -17.434708) translate(40.399760, 16.934708)" fill="#FFD8D8">
                                            <path d="M0.697513942,0.0422594302 C0.344281333,0.0358593525 0.0571546375,0.242261859 0.0571546375,0.504665045 C0.0571546375,0.763868192 0.34294586,0.983870863 0.697513942,0.987880296 C1.05074655,0.989470931 1.33854098,0.786268464 1.33987646,0.523065268 C1.33920872,0.26546214 1.05274976,0.0486595079 0.697513942,0.0422594302" id="Path"></path>
                                        </g>
                                        <g id="Group" transform="translate(31.000000, 12.000000)" fill="#FFF3E0">
                                            <path d="M13.1572963,8.29447016 C13.1332795,8.33131108 13.1164028,8.35762602 13.1164028,8.35762602 C13.1164028,8.35762602 13.1209466,8.32670596 13.1274376,8.28328631 C13.1391214,8.20894659 13.1605418,8.08066124 13.1904005,7.92145584 C13.2455741,7.62541272 13.3293083,7.23726731 13.4331646,6.93398759 C13.6252988,6.37347929 13.9160964,5.42811495 13.1475597,3.62751495 C12.7321345,2.65451992 13.3026951,1.49008367 13.9128509,0.624979906 C12.6152961,0.302621849 10.8640191,-0.0315779321 9.5158344,0.0835499453 C9.47169547,0.0874971868 9.43015294,0.0960495434 9.38731221,0.100654658 C9.08612892,0.134864085 8.80117317,0.196704202 8.53179586,0.279596274 C6.68510085,0.849314798 5.59331139,2.37623939 5.59331139,2.37623939 C5.59331139,2.37623939 5.5959078,2.27229536 5.61148625,2.09466949 L4.57681776,5.1254931 C4.5229423,5.28272489 4.47231235,5.43732518 4.4216824,5.59192547 C3.43569655,8.61156523 3.10984738,11.1450364 6.13596061,12.2055286 L7.4718124,12.6739346 L6.55917507,15.3481907 L6.55982418,15.3481907 L6.55917507,15.3481907 L1.66624467,13.6975859 L1.27548531,14.0462589 L0.000649101937,29.9273273 L0.74062531,20.7124919 L6.78116794,22.7499264 L7.37574531,22.9505779 L6.41767085,23.8577856 L11.3781079,19.1651733 L11.9610014,18.6125595 L13.0858951,17.5487779 L12.6101033,16.7132784 L14.2679097,11.8561977 C14.3892917,11.7522537 14.5080774,11.6443625 14.6223193,11.5298924 C14.6223193,11.5298924 16.1321304,7.44252387 15.2519482,6.41492533 C14.7677182,5.85112766 13.3987622,7.91882434 13.1572963,8.29447016" id="Path"></path>
                                        </g>
                                        <g id="Group" transform="translate(30.000000, 32.000000)" fill="#E91E63">
                                            <polygon id="Path" points="6.6960227 3.40990181 7.69575257 2.43695445 7.075324 2.22176304 0.772149087 0.0366883704 0 9.91997091"></polygon>
                                        </g>
                                        <g id="Group" transform="translate(6.000000, 24.000000)" fill="url(#linearGradient-2)">
                                            <path d="M38.9289595,19.5060042 C39.99229,23.1016269 41.0967772,26.8878209 41.8942751,29.6361648 C42.1682041,30.5777332 42.4056992,31.3971235 42.5925917,32.0451988 C42.6155316,31.9628614 42.641845,31.882516 42.6863753,31.8121308 C43.538524,30.4582112 46.1988742,28.3884871 49.3227448,26.4993741 L48.9408634,25.5471815 L46.7197442,20.011317 L43.9433452,12.2988225 C43.0534132,9.70386523 37.8224481,5.82869365 37.8224481,5.82869365 L36.6538642,6.90240037 L36.047307,7.4601701 L30.8919086,12.1965647 L30.8919086,12.1965647 L24.2224787,18.3233995 L25.5469188,2.293496 L25.9537642,1.94223387 L25.9780535,1.9209855 C25.9780535,1.9209855 18.9685737,-1.60757203 16.1719337,0.909695864 C14.964217,1.99734683 11.5360558,4.67729757 8.03300274,7.36986452 C7.04388952,8.13015778 6.05140279,8.89045104 5.09804877,9.61687971 C5.53525571,10.6759782 5.81188355,11.5876661 5.7943413,12.1753163 C5.68773837,15.7403945 1.63142958,17.431632 0.0479038463,16.7603163 C0.820437706,17.891792 1.80415331,19.0485002 2.67721778,19.1965748 C4.37949108,19.4847558 6.98721454,18.0113141 9.4282866,16.2191468 C12.7511943,13.7789043 15.7650884,10.7470274 15.7650884,10.7470274 L17.1657698,9.53653431 C15.8453779,15.2277776 16.7251894,19.2895364 14.7550594,24.5226116 C14.4946244,25.2138477 14.1869602,25.9250041 13.8158741,26.663385 C12.6628083,28.956217 10.7399074,34.2185087 9.87426466,36.6388309 C9.59628741,37.4143965 9.4269372,37.9004529 9.4269372,37.9004529 L31.9640101,42.7052407 L32.1266133,42.7404333 C32.1266133,42.7404333 30.3636169,35.5000511 30.354171,30.8898187 C30.3514722,29.7729512 30.4506534,28.8081424 30.7036667,28.1408107 C31.0308972,27.2795877 35.1769414,23.4449209 38.9289595,19.5060042 Z" id="Path"></path>
                                        </g>
                                        <g id="Group" transform="translate(49.000000, 57.000000)" fill="#00CEC9">
                                            <path d="M0.724492591,0.740522789 C0.676492591,0.668522789 0.628492591,0.596522789 0.580492591,0.524522789 C0.616492591,0.656522789 0.640492591,0.752522789 0.640492591,0.752522789 L0.724492591,0.740522789 Z" id="Path"></path>
                                        </g>
                                        <g id="Group" transform="translate(48.000000, 125.000000)" fill="#311B92">
                                            <path d="M9.87249273,1.77187896 L8.94937705,0.00474126632 L5.88039991,0.780954296 L5.39971674,0.902195249 C3.95256715,1.4765658 -0.466657928,5.78231294 0.104551776,7.34760815 C0.476858102,8.36359379 2.36899025,7.43836954 2.36899025,7.43836954 L10.8096337,3.56543228 L9.87249273,1.77187896 Z" id="Path"></path>
                                        </g>
                                        <g id="Group" transform="translate(31.000000, 25.000000)" fill="#00CEC9">
                                            <path d="M5.51897914,1.42294433 L0.04862217,0.0067732376 L5.51897914,1.42294433 Z" id="Path"></path>
                                        </g>
                                        <g id="Group" transform="translate(11.000000, 129.000000)" fill="#311B92">
                                            <path d="M11.0340838,0.0878101875 L11.4663857,5.28239963 L2.10438848,5.21563486 C2.10438848,5.21563486 -0.0149293446,5.25627428 0.0292095872,4.0893422 C0.0999616983,2.29322473 4.08479849,2.13502125 5.65562518,2.23444271 C6.38197025,2.28088776 7.09273687,1.40641441 7.75871545,0.0195940088 L11.0340838,0.0878101875 Z" id="Path"></path>
                                        </g>
                                    </g>
                                    <g id="Group-22" transform="translate(54.000000, 0.000000)">
                                        <g id="Group" transform="translate(14.000000, 27.000000)" fill="#F48FB1">
                                            <path d="M4.1163049,15.5236962 L3.15563403,13.5975567 L2.19496317,15.5236962 L0.0452706992,15.832537 L1.59978662,17.332621 L1.23296081,19.4497281 L3.15563403,18.4501111 L5.07764151,19.4497281 L4.7108157,17.332621 L6.26599737,15.832537 L4.1163049,15.5236962 Z M29.4412666,15.5236962 L28.4805958,13.5975567 L27.5192592,15.5236962 L25.3695667,15.832537 L26.9254141,17.332621 L26.5579225,19.4497281 L28.4805958,18.4501111 L30.4026032,19.4497281 L30.0357774,17.332621 L31.5909591,15.832537 L29.4412666,15.5236962 Z M26.3202514,7.58207506 L19.0629588,6.53899647 L15.8181149,0.034242479 L12.5726052,6.53899647 L5.31597843,7.58207506 L10.5673795,12.6453524 L9.32709553,19.7941284 L15.8181149,16.4186102 L22.3091343,19.7941284 L21.0688503,12.6453524 L26.3202514,7.58207506 Z" id="Shape"></path>
                                        </g>
                                        <g id="Group" transform="translate(50.000000, 48.000000)" fill="#E91E63">
                                            <path d="M19.0007659,4.60321457 L19.0007659,10.2476968 C19.0007659,10.5553441 18.9699336,10.8562299 18.9122905,11.1469735 C18.8057178,11.6912725 18.5999455,12.1983834 18.3204436,12.6547832 C17.7614398,13.5696112 16.8954532,14.2714527 15.8652508,14.6135835 C15.4175115,14.7616599 14.9409508,14.8448261 14.444282,14.8448261 L13.5119388,14.8448261 C13.5293657,14.3086408 13.5139496,13.7122784 13.4623389,13.1179445 C13.3738635,12.0962851 13.1814965,11.0922055 12.8825568,10.4471604 C12.6741034,9.99752213 12.4147095,9.72030151 12.1003537,9.74058594 C12.048743,9.74396668 12.0071864,9.75816579 11.9676406,9.77439334 C11.1981726,10.0752791 12.5353578,12.5364573 11.3570262,12.5202298 C10.637158,12.5100875 9.712858,10.9164071 8.84754162,9.51340027 L10.5848771,8.56679327 L12.0654998,7.76082504 L8.82006062,6.25436762 L6.9701201,5.396336 L6.9701201,7.43627407 C6.91649864,7.44776858 6.86555824,7.46805302 6.81729893,7.50726959 C6.41044607,7.83249671 6.59879146,8.44238207 6.9701201,9.12123451 L6.9701201,10.536412 L7.62296143,10.1807582 C8.25100283,11.1388597 8.84553082,12.0286703 8.35489442,12.297101 C7.32469203,12.8623606 5.16776863,6.79055287 3.9673181,7.8182976 C2.7682081,8.84536619 7.29721103,12.5249628 6.34811111,13.216662 C5.39834093,13.9076852 3.47400062,8.9048672 2.35532282,9.80549614 C1.25809361,10.6892214 4.96132599,13.8319566 5.43453541,14.8448261 L4.58999735,14.8448261 C4.5551434,14.8448261 4.52028945,14.840093 4.48543549,14.8394169 C3.54907067,13.9881467 2.480663,11.9691693 1.73130303,12.5019738 C1.41493639,12.727131 1.62674118,13.3376925 2.14284777,14.1206717 C0.876040674,13.3038851 0.0335134152,11.8758609 0.0335134152,10.2476968 L0.0335134152,4.60321457 C0.0335134152,2.06427939 2.07381013,0.00608533066 4.58999735,0.00608533066 L7.83677702,0.00608533066 L14.4456225,0.00608533066 C16.9611394,0.00608533066 19.0007659,2.06495554 19.0007659,4.60321457" id="Path"></path>
                                        </g>
                                        <g id="Group" transform="translate(44.000000, 143.000000)" fill="#00BCD4">
                                            <path d="M47.5226714,0.0033866188 L2.74968753,0.0033866188 C1.26278435,0.0033866188 0.057553174,0.375350251 0.057553174,0.834801535 C0.057553174,1.29425282 1.26346144,1.66621645 2.74968753,1.66621645 L47.5226714,1.66621645 C49.0095746,1.66621645 50.2148058,1.29425282 50.2148058,0.834801535 C50.2148058,0.375350251 49.0095746,0.0033866188 47.5226714,0.0033866188" id="Path"></path>
                                        </g>
                                        <g id="Group" transform="translate(44.000000, 116.000000)" fill="#00BCD4">
                                            <path d="M47.5226714,0.0440260444 L2.74968753,0.0440260444 C1.26278435,0.0440260444 0.057553174,0.41542524 0.057553174,0.87544096 C0.057553174,1.33489224 1.26346144,1.70685588 2.74968753,1.70685588 L47.5226714,1.70629144 C49.0095746,1.70629144 50.2148058,1.33489224 50.2148058,0.874876524 C50.2148058,0.41542524 49.0095746,0.0440260444 47.5226714,0.0440260444" id="Path"></path>
                                        </g>
                                        <g id="Group" transform="translate(77.000000, 37.000000)" fill="#2B3046">
                                            <path d="M0.741669518,1.38117603 C1.08202471,1.36480738 1.33686777,1.05041627 1.30469489,0.676759324 C1.28098856,0.408652002 1.1158909,0.185699598 0.897453983,0.0863587795 C0.812788513,0.0479770997 0.719656496,0.026528514 0.62313786,0.0310440057 C0.281089361,0.0468482268 0.0270929504,0.362368212 0.0601124837,0.735460717 C0.0770455778,0.929062425 0.168484285,1.0989578 0.298869109,1.21636059 C0.420787386,1.32473239 0.576571851,1.38907815 0.741669518,1.38117603" id="Path"></path>
                                        </g>
                                        <g id="Group" transform="translate(71.867520, 38.403817) scale(-1, 1) rotate(-84.578559) translate(-71.867520, -38.403817) translate(70.867520, 37.403817)" fill="#2B3046">
                                            <path d="M0.860730898,0.0590570075 C1.30210491,0.0637279751 1.66067956,0.289268979 1.66067956,0.560185095 C1.65934409,0.833103055 1.30143717,1.04796756 0.860730898,1.04129475 C0.418021411,1.03662378 0.0607822328,0.809748218 0.0601135684,0.540833944 C0.0594467593,0.268583265 0.419356885,0.0550533211 0.860730898,0.0590570075" id="Path"></path>
                                        </g>
                                        <g id="Group" transform="translate(57.000000, 24.000000)" fill="#212121">
                                            <path d="M32.1760091,13.06787 C26.8446601,10.4361554 23.9947224,4.86393671 23.9947224,4.86393671 L23.9907384,4.87527456 C23.5830353,3.72481647 22.8751989,2.67106356 21.9555429,1.84540146 C20.6102554,0.637587206 18.8287124,-0.0880350536 16.9422555,0.0686940191 C13.2589832,0.37481591 11.4900564,3.01853525 10.9010781,5.38347691 L10.8984221,5.38481078 C10.8984221,5.38481078 10.89643,5.39681556 10.89643,5.40015022 C10.8625654,5.53753826 10.835341,5.67225856 10.8094445,5.80697887 C10.5332157,6.93809593 9.51395791,10.0793467 6.41833593,11.8974039 C4.00465384,13.3146349 0.65139536,18.5067023 0.0604250538,23.6707585 L6.01660892,23.6707585 L6.60757923,23.6707585 C9.1002787,23.6707585 11.1215299,25.7009002 11.1215299,28.2052307 L11.1215299,33.7727809 C11.1215299,34.076235 11.0903214,34.3736868 11.0338804,34.6604677 C11.3373337,34.3036589 11.638795,33.938847 11.9322881,33.565365 C13.4668188,31.6099197 14.7702736,29.431719 14.9316284,27.1261343 L15.0312301,25.1099982 L14.8127703,22.0160996 C14.621535,21.8780447 14.4369398,21.7339873 14.2623047,21.5765913 C13.0617718,20.4981619 12.2496856,18.9868935 12.1195394,17.4009287 L12.1294995,17.0361167 L10.5318877,16.4732259 C10.1407848,16.3365048 9.30280223,15.0313185 9.52923018,14.3817265 C9.82737138,13.5260524 10.7603076,13.0758732 11.6122345,13.3753258 L12.2277732,13.5920787 L12.2423815,13.1098867 C13.5704047,13.136564 15.2636342,12.6590405 16.9303032,11.6873203 C17.2915255,11.4772366 17.6507558,11.2511466 18.005338,10.9937108 C18.2145016,10.8416502 18.409721,10.6895897 18.5996284,10.5381961 L21.6228731,10.0613395 L21.9528868,10.6782518 L23.1228752,12.8704581 L24.085692,12.33958 C24.8785219,11.9040733 25.8718832,12.1948557 26.3061468,12.9898389 C26.7397463,13.7854891 26.4495733,14.7825527 25.6587355,15.2187264 L24.2902076,15.9730268 L24.3240722,16.3878586 C24.4396102,17.7930848 23.9502337,19.975954 22.4568716,21.4885563 L22.4342952,25.1086644 L22.7941895,27.0034188 C23.2676298,27.0347646 24.6414697,28.6307334 25.11823,28.6540761 C29.9236818,30.4227803 29.6514371,36.6859408 29.591676,37.5382802 C29.587028,37.6003049 29.5837079,37.6369862 29.5837079,37.6369862 C28.8340388,38.6600602 25.405747,51.513178 25.8327065,57.6096055 C30.6056217,56.4238 34.4874334,54.583734 36.1096137,52.6209525 C38.5810648,49.6297614 38.8745579,47.3835337 36.8865073,45.5428008 C36.2623364,44.9652375 36.4402915,44.3730017 36.9947411,43.6527149 C37.5823914,43.1225037 38.2988599,42.3775404 39.0272806,41.3904807 C40.02529,40.2286848 41.0286115,38.7767734 41.4336586,36.8720149 C41.8911625,35.6301871 42.2709772,34.2216263 42.5159974,32.6276583 C43.8792132,23.7407864 37.5073581,15.6989176 32.1760091,13.06787" id="Path"></path>
                                        </g>
                                        <g id="Group" transform="translate(54.500000, 172.500000) scale(-1, 1) rotate(-90.000000) translate(-54.500000, -172.500000) translate(52.000000, 170.000000)" fill="#006064">
                                            <path d="M2.16461385,0.0578547379 C0.969419632,0.0578547379 0.000705545584,1.02656882 0.000705545584,2.22176304 C0.000705545584,3.41695726 0.970125178,4.38637689 2.16461385,4.38637689 C3.36051362,4.38637689 4.3292277,3.41695726 4.3292277,2.22176304 C4.3292277,1.02656882 3.35980807,0.0578547379 2.16461385,0.0578547379" id="Path"></path>
                                        </g>
                                        <g id="Group" transform="translate(72.000000, 72.000000)" fill="#FFD8D8">
                                            <path d="M1.03768729,0.872772037 C0.0176872855,0.332772037 -0.222312715,0.200772037 1.12168729,0.716772037 L1.03768729,0.872772037 Z" id="Path"></path>
                                        </g>
                                        <g id="Group" transform="translate(51.000000, 55.000000)" fill="#FFD8D8">
                                            <path d="M21.5581733,16.2297296 C20.6447703,15.6190154 19.3292571,14.7786195 17.8905809,13.8791437 C16.3107666,12.8907161 14.5851541,11.8325874 13.0858951,10.9324478 C12.4461136,10.5480961 11.848274,10.1929526 11.319672,9.88427637 C11.4521554,9.55037503 11.5779813,9.18660179 11.7031415,8.78366319 C11.8076635,8.44445129 11.8695779,7.92600805 11.8888845,7.32923408 C11.9061939,6.802825 11.8908817,6.21733596 11.8396193,5.63450221 C11.7517409,4.63080671 11.5606719,3.64503436 11.2637494,3.0117503 C11.0567025,2.57031015 10.799059,2.29880786 10.4868243,2.31805864 C10.4355619,2.32137773 10.3942857,2.33531795 10.3550067,2.35124962 C9.59073078,2.64731324 10.9188932,5.06295338 9.74851248,5.04702171 C9.03350173,5.03706441 8.11610432,3.47244122 7.25596104,2.09501519 C7.23066271,2.05385837 7.20469863,2.01270154 7.17873455,1.97220854 C6.49701108,0.888190852 5.85789533,-0.0398291862 5.39054193,0.0557608607 C5.33794803,0.066381977 5.28668562,0.0862965701 5.23875194,0.124798117 C4.83464438,0.444095426 5.02171888,1.04286086 5.39054193,1.70933591 C5.57828219,2.04788399 5.80863016,2.40169993 6.03897812,2.75020531 C6.66278173,3.6901741 7.25329806,4.56376092 6.76597229,4.82796119 C5.74338709,5.38225069 3.60101782,-0.578187019 2.40800175,0.430819031 C1.21698291,1.43916126 5.71542577,5.05100463 4.77339578,5.73009225 C3.82936856,6.40917988 1.91801301,1.4975774 0.806883639,2.38178533 C-0.282276124,3.24939777 3.39530244,6.33416824 3.86531882,7.32857026 C3.92989614,7.46398949 3.93588785,7.561571 3.85999285,7.6087022 C3.57904822,7.78262298 3.25949034,7.62596151 2.92262308,7.3232597 C1.99257651,6.48751061 0.931378062,4.50534478 0.187074507,5.02843476 C-0.12649166,5.25015056 0.0832181971,5.84957981 0.595842291,6.61761928 C1.06186419,7.31595768 1.7762092,8.15303441 2.58375858,8.97816239 C4.08501486,10.5109222 5.8765362,11.8757357 7.20603012,12.1167023 C7.75460448,12.2162752 8.22595234,12.2507939 8.64004609,12.2242411 C10.7950645,15.4284991 14.5398834,19.8150201 17.1848906,22.4537037 C17.9365173,23.2031562 18.5995999,23.8112151 19.1115583,24.2114985 C19.4331134,24.4624223 19.6967486,24.6323602 19.8838231,24.7020613 C20.9716514,25.1063275 22.1200625,25.0187033 23.0840621,24.5566847 C24.6219344,24.4723796 28.8713884,17.1006611 31.373926,11.7489461 C29.4033191,10.6649284 27.6856955,9.19589527 25.8222737,7.94658646 L21.5581733,16.2297296 Z" id="Path"></path>
                                        </g>
                                        <g id="Group" transform="translate(77.000000, 37.000000)" fill="#FFD8D8">
                                            <path d="M0.741669518,1.3806116 C0.575725196,1.38907815 0.419940732,1.32473239 0.298869109,1.21636059 C0.168484285,1.0989578 0.0770455778,0.928497988 0.0601124837,0.735460717 C0.0270929504,0.362368212 0.281089361,0.0468482268 0.623984514,0.0310440057 C0.72050315,0.026528514 0.812788513,0.0479770997 0.897453983,0.0863587795 C1.11673755,0.185699598 1.28183522,0.408652002 1.30469489,0.676194888 C1.33686777,1.05041627 1.08202471,1.36480738 0.741669518,1.3806116" id="Path"></path>
                                        </g>
                                        <g id="Group" transform="translate(72.815001, 38.578611) scale(-1, 1) rotate(-173.869058) translate(-72.815001, -38.578611) translate(71.815001, 37.078611)" fill="#FFD8D8">
                                            <path d="M0.520578529,0.827549176 C0.251480804,0.831552859 0.0284568838,1.19188437 0.0297863897,1.63362412 C0.02912462,2.07402931 0.248142123,2.42968986 0.520578529,2.42703566 C0.792347198,2.42435161 1.01336791,2.06335282 1.01270168,1.62161307 C1.0113647,1.1805406 0.793014935,0.824212773 0.520578529,0.827549176" id="Path"></path>
                                        </g>
                                        <g id="Group" transform="translate(67.000000, 34.000000)" fill="#FFD8D8">
                                            <path d="M14.4962236,2.25029122 L13.543821,2.76081844 L12.3864877,0.654653467 L12.0607004,0.0621344289 L9.07015637,0.520135631 C8.88164635,0.666183567 8.68919535,0.811590942 8.48229411,0.957638878 C8.13154724,1.20553603 7.77554574,1.42204569 7.41823058,1.62382244 C5.77024576,2.55712 4.09533094,3.01576176 2.78167226,2.99077988 L2.76722201,3.45326501 L2.15768439,3.24508264 C1.31562917,2.95811126 0.392783946,3.39049002 0.0978675718,4.21168938 C-0.126111234,4.83623647 0.702150566,6.08981459 1.08967988,6.22048906 L2.66935444,6.76112264 L2.659502,7.11150958 C2.78889738,8.63540449 3.59219967,10.0862754 4.77974712,11.1227033 C4.95249323,11.2732352 5.13509179,11.4115964 5.32425864,11.5441925 L5.54035549,14.5157556 L5.54035549,14.515115 L12.862689,14.515115 L12.8843644,11.0375087 C14.3615735,9.58471607 14.8463136,7.48880008 14.7320253,6.13849723 L14.698527,5.74070878 L16.0522523,5.01559359 C16.8351928,4.59730717 17.1215704,3.63902774 16.6926609,2.87547888 C16.2630945,2.11193002 15.2811346,1.83200481 14.4962236,2.25029122" id="Path"></path>
                                        </g>
                                        <g id="Group" transform="translate(15.000000, 141.000000)" fill="#F8BBD0">
                                            <polygon id="Path" points="0.586527343 0 0.0149867614 0 0.0149867614 18.5195133 23.3309814 18.5195133 23.3309814 0.000670268305 0.586527343 0.000670268305"></polygon>
                                        </g>
                                        <g id="Group" transform="translate(15.000000, 115.000000)" fill="#F8BBD0">
                                            <polygon id="Path" points="23.3309814 0.0489295862 0.0156679778 0.0489295862 0.0156679778 18.5684428 23.3309814 18.5684428"></polygon>
                                        </g>
                                        <g id="Group" transform="translate(16.000000, 86.000000)" fill="#E84393">
                                            <path d="M0.0546562646,2.84986957 C0.930473516,3.48630154 1.77468233,4.17079201 2.6590602,4.79486608 C2.788128,4.8868638 2.92575643,4.83743219 3.00477753,4.74131517 C3.99385837,6.72132573 4.93750207,8.72536555 5.83570863,10.7527481 C6.01877419,10.6717352 6.22883863,10.6703621 6.39741699,10.7472557 C5.82846503,9.45997418 5.24568438,8.17887165 4.64051441,6.91081357 C4.64709951,6.88884396 4.65697714,6.86893401 4.65895267,6.84078545 C4.74060781,5.67914264 4.88679686,4.51475363 4.69121962,3.35654357 C4.63327081,3.01670125 4.12226766,3.08398317 4.17889946,3.42451203 C4.32442999,4.28475934 4.27438329,5.14363354 4.20721535,6.00388085 C3.23393874,4.00190068 2.2092984,2.02532287 1.15370814,0.0679684625 C1.06415089,0.264321798 0.973935124,0.459988584 0.887670417,0.661834321 C1.5152297,1.83240229 2.13291134,3.0077761 2.73149621,4.19413472 C1.89123846,3.58585131 1.07797958,2.93774799 0.235746298,2.33427043 C0.173846432,2.50453486 0.113263584,2.67617239 0.0546562646,2.84986957" id="Path"></path>
                                        </g>
                                        <g id="Group" transform="translate(9.000000, 51.000000)" fill="url(#linearGradient-3)">
                                            <path d="M43.6415939,18.8258259 C40.5572924,16.5589785 35.9140995,21.3580995 33.9755296,26.585522 C32.0637448,31.7405556 27.795543,33.1400758 24.3804458,37.3265716 C24.331563,37.3868958 24.2806714,37.4418578 24.2317886,37.5035225 C18.9906189,44.104995 22.4097338,49.4718333 22.4097338,49.4718333 C22.4097338,49.4718333 22.423796,49.4725036 22.4465633,49.4751846 C22.2952276,50.0697126 22.1405438,50.667592 21.9811726,51.2694929 C21.8646575,51.484649 21.7514906,51.694443 21.6530554,51.8935127 C21.228512,52.7534669 20.8032989,53.6194536 20.4785298,54.5216347 C19.7412706,48.4925713 21.2044054,42.5700806 21.6497073,36.5678279 C22.355494,36.0443484 23.2373927,35.2239399 24.0041155,34.0315326 C25.0848933,32.3518403 25.9359891,29.9288203 25.7337618,26.5097817 C25.4069838,20.9901222 22.6159789,17.3626302 24.0315702,11.9696514 C25.4485007,6.57667261 24.405222,-0.0247999273 20.5796435,0.0576430742 C16.7533954,0.138075271 16.6188004,5.76095608 16.7025038,11.6325064 C16.7855375,17.504727 16.070376,15.9892504 14.2081436,24.4574202 C13.7715468,26.445436 13.8853834,28.2062308 14.3052395,29.743156 C15.1041043,32.6702177 17.0272728,34.776871 18.495095,36.0188782 C18.4696491,33.6206582 18.5158534,31.2237787 18.6082619,28.8309209 C18.6236633,28.4347923 18.6370559,28.039334 18.6551358,27.6432054 C18.6377255,27.6237676 18.6183063,27.609692 18.6042442,27.582211 C17.978143,26.410582 17.2864184,25.2691151 16.9656671,23.9681243 C16.8712497,23.5860714 17.455834,23.4104611 17.5515907,23.7938545 C17.787969,24.7590409 18.2379582,25.6290492 18.7087059,26.4943655 C19.0174039,20.6127612 19.6374785,14.7472432 20.4731728,8.91791979 C20.5287519,8.52916418 21.120702,8.68131508 21.065123,9.06671936 C20.3593363,13.9905103 19.8129207,18.9391012 19.4760984,23.9004272 C20.4865654,22.2395023 21.3557411,20.497475 22.5510251,18.9545174 C22.7914212,18.6428426 23.2306964,19.0704738 22.9916396,19.378127 C21.7601957,20.9680034 20.8930289,22.7918034 19.8310006,24.4909336 C19.7325655,24.6491169 19.5624802,24.6631925 19.4312334,24.6015279 C19.3388249,26.0539993 19.2698533,27.5078112 19.2142743,28.9622934 C19.1185176,31.4778104 19.0756615,33.9953381 19.112491,36.5148767 C19.8423843,37.0705291 20.3513007,37.3520418 20.3513007,37.3520418 C20.3513007,37.3520418 20.4115672,37.3259013 20.5166986,37.2742907 C19.9957288,43.2912893 18.5627273,49.2198124 19.4888213,55.2870811 C19.5410522,55.6228855 19.8330095,55.7884418 20.1015299,55.786431 C20.0901462,55.8393822 20.0740752,55.888982 20.0626915,55.9419332 C20.0365761,56.0672734 20.060013,56.1731758 20.1008603,56.2670134 L21.0878903,56.2670134 C21.0945866,56.2448945 21.1086488,56.2308189 21.1133361,56.2073595 C21.4863183,54.4438836 22.395002,52.8506558 23.1804744,51.2460335 C23.4657354,50.6629001 23.7938526,50.0194425 24.0061244,49.3558769 C26.2975876,46.1808159 28.4470899,42.9078958 30.4867735,39.5699596 C30.344143,39.5438192 30.2108872,39.4338952 30.2222709,39.2489011 C30.3287415,37.2468097 30.6675727,35.2561128 30.5718161,33.2459782 C30.5544058,32.8565523 31.1577396,32.7607039 31.1751499,33.1534812 C31.2668888,35.1026214 30.97761,37.030313 30.8523898,38.9700695 C33.4250963,34.7158766 35.8210214,30.3537704 38.0716374,25.9186051 C38.2470796,25.5714061 38.8182714,25.7858919 38.6414899,26.1377828 C35.9777141,31.3879944 33.1163983,36.5443685 29.9912496,41.5338458 C30.871809,41.0968308 31.7389758,40.6423889 32.4882883,39.9895476 C32.7856026,39.730824 33.1639418,40.2107361 32.8686364,40.47013 C31.8568301,41.3515328 30.6354307,41.8843961 29.4515303,42.4842862 C29.423406,42.4983619 29.399969,42.4983619 29.3738536,42.5043943 C27.8765678,44.8597171 26.323703,47.1795157 24.6951704,49.4483739 C27.6147437,49.1883098 32.565965,47.9107784 34.8433661,42.4547944 C38.1827954,34.4564827 36.7250177,35.2849344 40.1675696,30.5287105 C43.607443,25.7724866 46.7252258,21.0946841 43.6415939,18.8258259 Z M6.81010557,44.3395889 C6.76724945,44.2236325 6.73242885,44.1103571 6.69225123,43.995071 C5.20634914,39.6999917 6.0092318,35.9880458 3.10773844,32.3478187 C0.127898738,28.6110729 -1.3392538,23.0733161 1.68879904,21.8091901 C4.71618225,20.5457343 6.76992795,24.9058297 8.73796141,29.5400647 C9.61450302,31.6038208 10.1086877,32.4631048 10.7742968,33.3109942 C11.6032949,34.3659965 12.6988045,35.4049124 15.1355768,38.7294432 C18.1314876,42.8167393 16.8792853,47.0220026 15.7804275,49.2828176 C15.4764169,48.5756846 15.1543264,47.877265 14.8369232,47.1775049 C14.7980849,47.5086174 14.7558984,47.8383894 14.7163904,48.169502 C14.970179,48.7405706 15.2239676,49.3116392 15.469051,49.8867294 C15.2849036,50.2171717 15.1235235,50.477906 15.0009818,50.6622298 C15.6572162,52.4880407 16.1621148,54.3594298 16.5739354,56.2670134 L15.4723991,56.2670134 C15.1436123,54.7723151 14.7485325,53.2997356 14.2697492,51.8539669 C14.1639482,51.5349191 14.0635041,51.2145309 13.9489979,50.8981643 C13.7126196,50.859959 13.4313764,50.7996348 13.123348,50.7145107 C11.3093287,50.2124798 8.44734334,48.7318571 6.81010557,44.3395889 Z" id="Shape"></path>
                                        </g>
                                        <g id="Group" transform="translate(6.000000, 17.000000)" fill="#B2EBF2">
                                            <path d="M59.7198412,45.0866488 C58.7744614,46.206265 58.1381739,47.1564655 58.1951649,47.8930551 L58.5706349,48.950396 C57.9269721,48.562682 57.3248791,48.2044316 56.7925163,47.8930551 C56.9259423,47.5569024 57.0526634,47.1892772 57.178714,46.7828137 C57.2833092,46.4406344 57.3463346,45.9176558 57.3657785,45.3156612 L58.2984191,45.3156612 C58.7952464,45.3156612 59.2726296,45.2339667 59.7198412,45.0866488 Z M11.1186048,71.8991795 C12.010346,72.5199236 12.869904,73.1875416 13.7703615,73.7962325 C13.901776,73.8859625 14.0419068,73.8377493 14.1223646,73.7440016 C15.1294287,75.6752055 16.0902296,77.6298465 17.0047672,79.6072547 C17.1911612,79.5282387 17.405045,79.5268995 17.5766884,79.6018977 C16.9973919,78.3463473 16.4040152,77.0968235 15.7878422,75.8600226 C15.794547,75.8385945 15.8046042,75.8191753 15.8066157,75.7917206 C15.8897554,74.6587119 16.0386025,73.5230247 15.8394693,72.3933641 C15.7804669,72.0618988 15.2601727,72.1275222 15.3178342,72.4596572 C15.4660107,73.2986997 15.4150541,74.1364029 15.3466649,74.9754454 C14.3556924,73.0228134 13.3124222,71.0949576 12.2376394,69.1858513 C12.1464538,69.3773646 12.0545978,69.5682082 11.9667646,69.7650785 C12.6057341,70.9067924 13.2346463,72.0531936 13.8441145,73.2103089 C12.9885794,72.6170195 12.160534,71.9848917 11.3029873,71.3962897 C11.239962,71.5623571 11.1782777,71.7297639 11.1186048,71.8991795 Z M97.8333965,0.0428561216 L97.8333965,89.3402817 L75.8067184,89.3402817 C80.4907064,88.1918716 83.969838,83.9819272 83.969838,78.9490115 C83.969838,76.0193938 82.789119,73.366332 80.880927,71.4324495 L80.8862908,71.4324495 C80.0850647,69.387409 78.2325227,67.5486135 77.8925882,66.0466404 C77.8027436,65.6495516 77.7457526,65.1921964 77.7108876,64.6953333 C82.5309834,63.5047366 86.4499513,61.657236 88.0879391,59.6865241 C90.584144,56.6832474 90.8798266,54.427944 88.8730737,52.5804434 C88.24215,52.0005465 88.4225097,51.4059178 88.9823623,50.6820511 C89.5750684,50.1496978 90.2991891,49.4023941 91.034708,48.4106767 C92.0424426,47.2441866 93.0548706,45.7864089 93.4645351,43.8746241 C93.9258268,42.6271092 94.3093426,41.2135268 94.5567505,39.6124489 C95.9345912,30.6890008 89.5006449,22.6146397 84.1173441,19.9729615 C78.7333728,17.3306138 75.8563341,11.735881 75.8563341,11.735881 L75.8516407,11.7472647 C75.4406352,10.5921583 74.7259012,9.53347817 73.796613,8.70514969 C72.4388868,7.49245538 70.6399833,6.76390131 68.7351436,6.92126363 C65.0159794,7.22862238 63.229815,9.88302341 62.6344269,12.2575204 L62.6324155,12.25819 C62.6324155,12.25819 62.630404,12.2709129 62.6297336,12.2742611 C62.595539,12.4122042 62.5687197,12.5474688 62.5425709,12.6827335 C62.2636503,13.8177511 61.2344603,16.9723634 58.1086727,18.7977663 C55.6714703,20.2207235 52.2848651,25.4330993 51.6888065,30.61869 L48.4409912,30.6193596 C45.9240014,30.6193596 43.8830539,32.6570343 43.8830539,35.1721529 L43.8830539,40.7615286 C43.8830539,42.3746598 44.7258499,43.7889118 45.993061,44.5978211 C46.4623985,45.301599 47.1818258,46.1459985 47.9951206,46.9783448 C49.5070578,48.5251829 51.3106546,49.9012662 52.6502779,50.1443407 C53.2020847,50.2447848 53.6774565,50.2796054 54.0944963,50.2528203 C56.2641764,53.4851094 60.0363088,57.9106735 62.7001342,60.5717708 L63.9619815,64.1234719 C64.0075743,65.395763 64.0323821,68.2617661 63.4262663,70.4742134 C52.4491333,73.8826143 37.0649213,80.4255388 37.0649213,84.6435186 C37.0649213,86.4649038 36.6378242,88.3853937 39.8983787,89.3389424 L24.1333329,89.3389424 C24.1400378,89.3175144 24.1541179,89.3034522 24.1588113,89.2793456 C24.5315993,87.5182269 25.442114,85.9265238 26.2285895,84.323437 C26.5135444,83.7408616 26.8420806,83.0980197 27.055294,82.4350891 C29.3496837,79.2623968 31.5012608,75.9932783 33.5442198,72.6585364 C33.4007366,72.6317513 33.2679812,72.5226021 33.2793793,72.3371155 C33.385986,70.3376095 33.7245795,68.3488176 33.6287005,66.3406066 C33.6119385,65.9508837 34.2160429,65.8557967 34.2334754,66.2475284 C34.324661,68.1948035 34.0356832,70.1206504 33.9096325,72.0592203 C36.4856248,67.8084287 38.8846098,63.4504969 41.1381001,59.0202453 C41.3137664,58.6733786 41.8856877,58.8869895 41.7093509,59.2392133 C39.0415026,64.4844008 36.1765325,69.6351709 33.0473925,74.6205432 C33.9290765,74.1832768 34.7973508,73.7292698 35.5482908,73.0770532 C35.8459849,72.8192468 36.2241368,73.2980301 35.9284542,73.5578453 C34.9160262,74.437735 33.6923963,74.9700884 32.506984,75.5694045 C32.4794942,75.5834667 32.4553568,75.5841363 32.429208,75.5901629 C30.93001,77.9425622 29.375162,80.2608106 27.74522,82.5274976 C30.668522,82.2670127 35.6253962,80.9913735 37.9057059,75.5406105 C41.2500706,67.5492831 39.7897606,68.376942 43.2367091,63.6252695 C46.6823167,58.873597 49.8040813,54.2009405 46.7165112,51.9335838 C43.6282707,49.6689056 38.9791477,54.4634343 37.038102,59.6865241 C35.1238756,64.8359549 30.8502227,66.2341359 27.4307639,70.4172951 C27.3818187,70.4768919 27.3308621,70.5318013 27.2819169,70.593407 C22.033383,77.1885623 25.4575351,82.5502649 25.4575351,82.5502649 C25.4575351,82.5502649 25.4716152,82.5516042 25.4944116,82.5536131 C25.3435531,83.1475721 25.1880013,83.7448793 25.0284265,84.3462043 C24.9117627,84.5611545 24.7984512,84.7707477 24.6998903,84.9696269 C24.2748047,85.8287582 23.8490485,86.6945858 23.5238647,87.595234 C22.7856639,81.57194 24.2506673,75.6551167 24.6965379,69.6586079 C25.403226,69.1356292 26.286251,68.3160059 27.053953,67.1254093 C28.1361111,65.4466547 28.9882939,63.0259534 28.7858083,59.6101866 C28.458613,54.0958091 25.6640436,50.4717883 27.0814428,45.0839703 C28.5001829,39.6968219 27.4555718,33.1016665 23.6251075,33.183361 C19.7939727,33.2643859 19.6592058,38.8812163 19.7430161,44.7478176 C19.8261559,50.6144188 19.110081,49.0997228 17.2454703,57.559789 C16.8083159,59.546572 16.9229684,61.3050123 17.3426902,62.8404668 C18.1419048,65.7653971 20.0681999,67.8693648 21.5378967,69.1101834 C21.5124184,66.7142584 21.5586816,64.3196726 21.6512082,61.9291046 C21.6666293,61.5333551 21.6800389,61.1382752 21.6981419,60.7431953 C21.6807094,60.7231065 21.6612654,60.7090443 21.6471853,60.6815896 C21.0202845,59.5110818 20.3276765,58.3707072 20.0065156,57.0709614 C19.9119776,56.6892741 20.4973085,56.5138318 20.5931874,56.8968584 C20.8298676,57.8617908 21.2804316,58.7302969 21.7517805,59.5947852 C22.0608727,53.7188091 22.6817392,47.8589041 23.5185008,42.0358286 C23.5741509,41.647445 24.166857,41.7994503 24.111207,42.1838162 C23.4045189,47.1028954 22.8574055,52.0467508 22.520153,57.0033291 C23.5319105,55.3439936 24.4021963,53.6036333 25.5990068,52.0628218 C25.8397099,51.7507757 26.2795462,52.1779976 26.040184,52.4853564 C24.8071675,54.0737114 23.9388931,55.8957662 22.8755085,57.5932704 C22.7769476,57.751972 22.6066452,57.7653645 22.4752307,57.7037588 C22.3827042,59.1548403 22.3136445,60.6072611 22.258665,62.0610211 C22.162786,64.5734612 22.1192047,67.0892494 22.1560812,69.6057073 C22.8869067,70.160828 23.3964731,70.4420713 23.3964731,70.4420713 C23.3964731,70.4420713 23.4568165,70.4159559 23.5620822,70.3643946 C23.0404471,76.3763049 21.6056154,82.2984852 22.5328921,88.3599479 C22.5851898,88.6961006 22.87752,88.8614985 23.1463833,88.8588199 C23.1349851,88.9117205 23.1188935,88.9612729 23.1074953,89.014843 C23.0813465,89.1400632 23.1048134,89.2451947 23.1457128,89.3389424 L19.6136131,89.3382728 C19.201937,87.4331843 18.6963935,85.563586 18.0386506,83.7388527 C18.1606783,83.5547053 18.322935,83.2942204 18.5073176,82.9640944 C18.2625916,82.3888848 18.0078084,81.819702 17.7536957,81.2491799 C17.7932541,80.9183842 17.8354945,80.5882581 17.8743825,80.2574624 C18.1928615,80.9572225 18.5146929,81.6549738 18.8190918,82.3614301 C19.9193529,80.102109 21.1738249,75.9008698 18.1734175,71.8181546 C15.7335331,68.4961356 14.6366244,67.4595531 13.807238,66.4042211 C13.1407788,65.5571431 12.645963,64.6986814 11.7676314,62.6369002 C9.79708454,58.0077694 7.7413864,53.6511768 4.70946632,54.9134235 C1.67754623,56.1763399 3.14657253,61.7094669 6.1302179,65.4426369 C9.03541687,69.0793806 8.23150882,72.7871047 9.71930861,77.0780739 C9.75953754,77.1932497 9.79373213,77.3064167 9.83731346,77.4222621 C11.4766422,81.8103272 14.3422827,83.2888634 16.1586188,83.7904139 C16.46637,83.8754566 16.7479725,83.935723 16.9846527,83.9732221 C17.0993052,84.2899556 17.1998775,84.6093676 17.3058136,84.9287797 C17.7858788,86.3731649 18.1814633,87.8443352 18.5099995,89.3369336 L16.7278581,89.3376032 L0.0160915706,89.3376032 L0.0160915706,0.0428561216 L97.8333965,0.0428561216 Z M14.556837,25.9908985 L12.3918503,25.6768435 L11.4243446,23.7181848 L10.4568389,25.6768435 L8.29185221,25.9908985 L9.85742793,27.5163086 L9.48799229,29.669159 L11.4243446,28.6526654 L13.3606969,29.669159 L12.9912613,27.5163086 L14.556837,25.9908985 Z M30.7147853,30.0200435 L29.4656771,22.7499043 L34.75444,17.6018127 L27.446185,16.540454 L24.1775848,9.92654916 L20.909655,16.540454 L13.6007295,17.6018127 L18.8894924,22.7499043 L17.6410547,30.0200435 L24.1775848,26.587536 L30.7147853,30.0200435 Z M38.4957301,27.5163086 L40.0619763,25.9915681 L37.8976601,25.6775131 L36.9294839,23.7181848 L35.9613078,25.6775131 L33.7963211,25.9915681 L35.3632377,27.5163086 L34.9931316,29.6698287 L36.9294839,28.6526654 L38.8651658,29.6698287 L38.4957301,27.5163086 Z" id="Shape"></path>
                                        </g>
                                        <g id="Group" fill="url(#linearGradient-4)">
                                            <path d="M105.302168,0.0219976981 L3.99880808,0.0219976981 C1.79330394,0.0219976981 0.00599321777,1.81114381 0.00599321777,4.0182462 L0.00599321777,175.916259 C0.00599321777,178.123361 1.79330394,179.912507 3.99880808,179.912507 L105.302168,179.912507 C105.509933,179.912507 105.713036,179.891176 105.91281,179.860513 C107.82731,179.565877 109.294317,177.914716 109.294317,175.915592 L109.294317,4.0182462 C109.294317,1.81114381 107.507006,0.0219976981 105.302168,0.0219976981 Z M54.6501551,174.880367 C53.5220983,174.880367 52.6077996,173.96513 52.6077996,172.835914 C52.6077996,171.706699 53.5220983,170.791462 54.6501551,170.791462 C55.7782118,170.791462 56.6931764,171.707366 56.6931764,172.835914 C56.6931764,173.96513 55.7788777,174.880367 54.6501551,174.880367 Z M103.226517,5.84872132 L103.226517,166.315263 L6.07445916,166.315263 L6.07445916,5.84872132 L103.226517,5.84872132 Z" id="Shape"></path>
                                        </g>
                                        <g id="Group" transform="translate(6.000000, 49.000000)" fill="url(#linearGradient-5)">
                                            <path d="M83.9705085,46.3888158 C83.9705085,43.4920799 82.7897895,40.8700573 80.880927,38.9583175 L80.8869613,38.9583175 C80.0857352,36.9366924 78.2325227,35.1189509 77.8932587,33.6335133 C77.8034141,33.2409711 77.7464231,32.7888526 77.7115581,32.2983404 C77.2811085,26.2473663 80.7428077,13.4907398 81.4991115,12.4746316 C81.4991115,12.4746316 81.5024639,12.4388858 81.5071573,12.3766616 C81.5681711,11.531339 81.8423983,5.31421292 76.9901193,3.55869565 C76.5087132,3.53552706 75.1221562,1.9507954 74.6441024,1.92034525 L74.2807011,0.0397175854 L66.8054961,0.0403795451 L66.7049238,2.04214585 C66.5413262,4.33054073 65.2258403,6.49250129 63.6756856,8.43336729 C63.380003,8.80472672 63.0762746,9.1668187 62.7691938,9.52030521 C62.6619167,10.0531828 62.4560787,10.5496526 62.1771581,10.9964755 C61.6173056,11.892107 60.7517132,12.5792212 59.7211822,12.9135109 C58.7751319,14.0209696 58.1388444,14.9596285 58.1958354,15.6877843 L58.5719758,16.7330187 C60.0819016,17.6312981 61.8197912,18.686462 63.4115157,19.67212 C64.8590866,20.5690755 66.1846297,21.4071166 67.1052016,22.0161195 L71.3996395,13.7555237 C73.2756484,15.001332 75.0061628,16.4662489 76.9907898,17.5478912 C74.4704476,22.8852727 70.1914307,30.2356738 68.6412761,30.3190808 C67.670418,30.7804667 66.5145069,30.8678454 65.4182686,30.4647119 C65.2298632,30.3952061 64.9643522,30.2257444 64.6411799,29.9748617 C64.1249087,29.5770239 63.457779,28.9700068 62.7008047,28.2226542 L63.962652,31.7330268 C64.0082448,32.9907503 64.0330526,35.8239381 63.4269368,38.0110531 C52.4498037,41.3804283 37.0655918,47.849099 37.0655918,52.0187835 C37.0655918,53.8186521 36.6384947,55.7171527 39.8990492,56.6597834 L24.1340034,56.6597834 L0.0174325348,56.6597834 L0.0174325348,59.2447362 L7.84933402,59.2447362 L97.835408,59.2447362 L97.835408,56.6597834 L75.8087298,56.6597834 C80.4907064,55.5251844 83.9705085,51.3634434 83.9705085,46.3888158 Z" id="Path"></path>
                                        </g>
                                    </g>
                                    <g id="Group" transform="translate(126.000000, 72.000000)" fill="#00CEC9">
                                        <path d="M1.03768729,0.872772037 L1.12168729,0.716772037 C-0.222312715,0.200772037 0.0176872855,0.332772037 1.03768729,0.872772037" id="Path"></path>
                                    </g>
                                    <g id="Group" transform="translate(109.177688, 62.435335) scale(-1, 1) rotate(71.367015) translate(-109.177688, -62.435335) translate(108.177688, 61.435335)" fill="#E84393">
                                        <path d="M1.39755303,0.124955882 C1.42018785,0.0915918265 1.43574928,0.0575604894 1.45696942,0.0241964335 C1.83893191,0.441247133 1.9393739,0.795573407 1.39755303,1.00643424 C1.25042674,1.06315314 1.05803082,1.02645267 0.827438648,0.921689538 L1.39755303,0.124955882 Z" id="Path"></path>
                                    </g>
                                    <g id="Group" transform="translate(0.000000, 59.000000)" fill="url(#linearGradient-6)">
                                        <path d="M49.8234089,102.232674 C44.8616772,97.0305055 39.6681772,92.0569301 34.3165613,87.2558023 C34.2239891,87.4984321 33.9807339,87.6962789 33.6543664,87.6160707 C30.1129751,86.7538328 26.6709131,85.4885488 23.0470853,84.9812321 C22.3456992,84.8816403 22.3781333,83.7801147 23.0883035,83.8823801 C26.6040179,84.3769972 29.9467507,85.5326633 33.3685415,86.4076009 C26.6452361,80.4274129 19.6631342,74.7252799 12.5039965,69.2557506 C11.9411308,68.8246316 12.5222407,67.8902064 13.0871334,68.3193201 C21.5666067,74.795462 29.8048518,81.5904314 37.657267,88.7917889 C37.1754864,87.0893704 36.6605961,85.4003198 35.7470374,83.8563124 C35.3875602,83.2440567 36.3734197,82.7360716 36.7355998,83.3463221 C37.9633632,85.4270559 38.5046062,87.7724767 39.1728824,90.0650937 C39.1884237,90.1199027 39.1823424,90.1660224 39.1850452,90.2121421 C42.8811739,93.6530729 46.4975689,97.1782223 50.0004447,100.820342 C50.5254707,95.5687115 49.925441,86.3815332 40.9527002,80.5203207 C27.795293,71.9226725 28.7818282,74.7814256 21.4530876,67.0948086 C14.1243469,59.40886 6.82804024,52.3224676 1.72711241,57.0153143 C-3.3711126,61.7088295 3.62382779,71.53901 12.3060137,76.7231319 C20.987524,81.9085905 21.932841,90.0891562 28.5000575,97.6253828 C36.0930005,106.340001 44.1069101,106.00179 47.5395123,105.331383 C50.0132832,108.220883 52.2485288,111.293525 54.3324156,114.483136 L54.3324156,110.419924 C52.8012589,108.241604 51.1883413,106.130123 49.4619046,104.101525 C49.5706937,103.649017 49.7017813,103.018714 49.8234089,102.232674 Z M53.0688397,48.7518669 C53.5729186,49.887481 53.9884797,50.9870014 54.3330913,52.051765 L54.3330913,67.6014569 C53.7283317,69.1996049 53.0019445,70.511677 52.3343439,71.5216316 C53.0722182,74.0602204 53.7175204,76.6242085 54.3330913,79.1955489 L54.3330913,89.1012588 C53.0931652,83.9873191 52.006625,78.8192389 50.5970958,73.7353773 C50.4261414,73.9145089 50.3247851,74.0094219 50.3247851,74.0094219 C50.3247851,74.0094219 49.1044545,73.8249431 47.2422003,73.2634858 C44.2021851,65.4812874 41.5250257,57.5747664 39.1140958,49.5860319 C39.4208677,49.6134364 39.7492623,49.4603725 39.828996,49.07671 C40.6925522,44.9593569 41.078382,40.7397384 42.3615536,36.7126195 C42.6108902,35.9332634 41.4216423,35.4119102 41.1723056,36.2012924 C39.9269738,40.1074306 39.4783029,44.1693064 38.6863719,48.1736996 C35.708522,38.1650559 33.1550174,28.0287475 30.9393673,17.8249306 C30.7657101,17.024854 29.4751057,17.1558607 29.6507901,17.9639581 C32.2738927,30.0433096 35.3551261,42.0384425 39.0661204,53.8384021 C37.492394,52.4775367 35.9571829,51.0939457 34.7767192,49.3667962 C34.3037228,48.6816847 33.2685365,49.4536884 33.7374786,50.1367947 C35.3335035,52.4635003 37.5511807,54.2053545 39.659393,56.0561582 C39.7060169,56.0989359 39.7560194,56.1136408 39.8060218,56.1397084 C41.6054351,61.7195239 43.5318817,67.2605722 45.6468511,72.7374539 C39.7952105,70.64001 30.3264992,65.3964005 28.6054682,53.1078393 C26.0843976,35.0850619 28.6237123,37.5481213 24.1376797,26.0522843 C19.6516471,14.5564474 15.7838884,3.3948111 23.3443973,0.448497391 C30.9022033,-2.49915312 37.8370056,9.7319255 38.9823325,21.3774844 C40.1310379,33.0217065 48.3571202,38.126957 53.0688397,48.7518669 Z" id="Shape"></path>
                                    </g>
                                </g>
                            </g>
                        </g>
                    </g>
                </g>
            </g>
        </g>
    </g>
</svg>