<?xml version="1.0" encoding="UTF-8"?>
<svg width="322px" height="223px" viewBox="0 0 322 223" version="1.1" xmlns="http://www.w3.org/2000/svg" xmlns:xlink="http://www.w3.org/1999/xlink">
    <!-- Generator: Sketch 64 (93537) - https://sketch.com -->
    <title>Error</title>
    <desc>Created with Sketch.</desc>
    <defs>
        <linearGradient x1="0%" y1="50.0000001%" x2="100%" y2="50.0000001%" id="linearGradient-1">
            <stop stop-color="#673AB7" offset="0%"></stop>
            <stop stop-color="#CE93D8" offset="100%"></stop>
        </linearGradient>
        <linearGradient x1="-0.00017051418%" y1="50.0007698%" x2="100%" y2="50.0007698%" id="linearGradient-2">
            <stop stop-color="#673AB7" offset="0%"></stop>
            <stop stop-color="#CE93D8" offset="100%"></stop>
        </linearGradient>
        <linearGradient x1="50.0000141%" y1="100%" x2="50.0000141%" y2="-0.000891622126%" id="linearGradient-3">
            <stop stop-color="#E91E63" offset="0%"></stop>
            <stop stop-color="#F48FB1" offset="100%"></stop>
        </linearGradient>
        <linearGradient x1="102.955103%" y1="-20.2172821%" x2="15.9961249%" y2="111.398504%" id="linearGradient-4">
            <stop stop-color="#00BCD4" offset="0%"></stop>
            <stop stop-color="#B2EBF2" offset="100%"></stop>
            <stop stop-color="#D1C4E9" offset="100%"></stop>
        </linearGradient>
    </defs>
    <g id="Utilities" stroke="none" stroke-width="1" fill="none" fill-rule="evenodd">
        <g id="404" transform="translate(-212.000000, -283.000000)">
            <g id="Container" transform="translate(212.000000, 210.000000)">
                <g id="Error" transform="translate(0.000000, 73.000000)">
                    <g id="Group-4" transform="translate(68.000000, 1.000000)" fill="#B2EBF2">
                        <g id="Group" transform="translate(4.000000, 73.000000)">
                            <path d="M5.02912892,6.08850562 C5.32404698,6.38419977 5.80367686,6.38419977 6.09781882,6.08850562 C6.39273687,5.79281146 6.39273687,5.31550987 6.09781882,5.02059182 L1.33411614,0.257665247 C1.03842199,-0.038028907 0.561120403,-0.038028907 0.265426249,0.257665247 C-0.0263874048,0.553359401 -0.0263874048,1.03221319 0.265426249,1.32635514 L5.02912892,6.08850562 Z" id="Path"></path>
                        </g>
                        <g id="Group" transform="translate(18.000000, 87.000000)">
                            <path d="M5.03145722,6.08617732 C5.32482308,6.38109537 5.80445296,6.38109537 6.09937102,6.08617732 C6.39506517,5.79048316 6.39506517,5.31240547 6.09937102,5.01593522 L1.33644444,0.254560847 C1.04075029,-0.0403572074 0.563448703,-0.0403572074 0.267754549,0.254560847 C-0.0263874048,0.550255001 -0.0263874048,1.02910879 0.267754549,1.32325074 L5.03145722,6.08617732 Z" id="Path"></path>
                        </g>
                        <g id="Group" transform="translate(4.000000, 87.000000)">
                            <path d="M5.02912892,0.254560847 L0.264650149,5.01593522 C-0.027163505,5.31240547 -0.027163505,5.79048316 0.264650149,6.08617732 C0.561120403,6.38109537 1.03842199,6.38109537 1.33411614,6.08617732 L6.09704272,1.32325074 C6.39273687,1.02755659 6.39273687,0.550255001 6.09704272,0.254560847 C5.80367686,-0.0403572074 5.32327088,-0.0403572074 5.02912892,0.254560847" id="Path"></path>
                        </g>
                        <g id="Group" transform="translate(18.000000, 73.000000)">
                            <path d="M1.33644444,6.08928172 L6.09937102,1.32713124 C6.39506517,1.03221319 6.39506517,0.554135502 6.09937102,0.258441347 C5.80367686,-0.0372528068 5.32482308,-0.0372528068 5.03223332,0.258441347 L0.268530649,5.02136792 C-0.0256113047,5.31706207 -0.0256113047,5.79513976 0.268530649,6.08928172 C0.564224803,6.38419977 1.04230249,6.38419977 1.33644444,6.08928172" id="Path"></path>
                        </g>
                        <g id="Group" transform="translate(0.000000, 83.000000)">
                            <path d="M0.814905149,1.52038018 L7.54912608,1.52038018 C7.96589186,1.52038018 8.30349542,1.18355272 8.30349542,0.76523474 C8.30349542,0.348468964 7.96589186,0.010865402 7.54912608,0.010865402 L0.814905149,0.010865402 C0.396587173,0.010865402 0.0589836108,0.347692864 0.0589836108,0.76523474 C0.0589836108,1.18277662 0.396587173,1.52038018 0.814905149,1.52038018" id="Path"></path>
                        </g>
                        <g id="Group" transform="translate(20.000000, 83.000000)">
                            <path d="M0,0.76601084 C0,1.18432882 0.339155762,1.52115628 0.757473739,1.52115628 L7.49247077,1.52115628 C7.90846045,1.52115628 8.24684011,1.18432882 8.24684011,0.76601084 C8.24684011,0.348468964 7.90846045,0.0116415021 7.49247077,0.0116415021 L0.757473739,0.0116415021 C0.339155762,0.0116415021 0,0.348468964 0,0.76601084" id="Path"></path>
                        </g>
                        <g id="Group" transform="translate(13.000000, 89.000000)">
                            <path d="M0.777652343,8.29340612 C1.19519422,8.29340612 1.53357388,7.95502646 1.53357388,7.53903678 L1.53357388,0.803263647 C1.53357388,0.385721771 1.19519422,0.0481182088 0.777652343,0.0481182088 C0.360110466,0.0481182088 0.0209533775,0.386497871 0.0209533775,0.803263647 L0.0209533775,7.53903678 C0.0201786037,7.95502646 0.360110466,8.29340612 0.777652343,8.29340612" id="Path"></path>
                        </g>
                        <g id="Group" transform="translate(13.000000, 69.000000)">
                            <path d="M0.777652343,8.31358472 C1.19519422,8.31358472 1.53357388,7.97520506 1.53357388,7.55921539 L1.53357388,0.823442251 C1.53357388,0.404348174 1.19519422,0.0682968125 0.777652343,0.0682968125 C0.360110466,0.0682968125 0.0209533775,0.404348174 0.0209533775,0.823442251 L0.0209533775,7.55921539 C0.0201786037,7.97520506 0.360110466,8.31358472 0.777652343,8.31358472" id="Path"></path>
                        </g>
                        <g id="Group" transform="translate(74.000000, 4.000000)">
                            <path d="M5.03456162,6.11334082 C5.32947968,6.40825887 5.80910956,6.40825887 6.10325152,6.11334082 C6.39894567,5.81842277 6.39894567,5.34112118 6.10325152,5.04465092 L1.33954885,0.282500452 C1.04463079,-0.0131937024 0.567329204,-0.0131937024 0.27085895,0.282500452 C-0.0209547038,0.577418506 -0.0209547038,1.05704839 0.27085895,1.35119035 L5.03456162,6.11334082 Z" id="Path"></path>
                        </g>
                        <g id="Group" transform="translate(88.000000, 18.000000)">
                            <path d="M5.03766602,6.10946032 C5.33103188,6.40437837 5.80988566,6.40437837 6.10480372,6.10946032 C6.40127397,5.81376617 6.40127397,5.33568848 6.10480372,5.03921822 L1.34265325,0.277843851 C1.04695909,-0.0170742031 0.569657504,-0.0170742031 0.27396335,0.277843851 C-0.0209547038,0.572761905 -0.0209547038,1.05161569 0.27396335,1.34653375 L5.03766602,6.10946032 Z" id="Path"></path>
                        </g>
                        <g id="Group" transform="translate(74.000000, 18.000000)">
                            <path d="M5.03456162,0.277843851 L0.27085895,5.03921822 C-0.021730804,5.33568848 -0.021730804,5.81376617 0.27085895,6.10946032 C0.566553104,6.40437837 1.04463079,6.40437837 1.33954885,6.10946032 L6.10325152,1.34653375 C6.39816957,1.05083959 6.39816957,0.572761905 6.10325152,0.277843851 C5.80988566,-0.0170742031 5.32947968,-0.0170742031 5.03456162,0.277843851" id="Path"></path>
                        </g>
                        <g id="Group" transform="translate(88.000000, 4.000000)">
                            <path d="M1.34342935,6.11411692 L6.10557982,1.35196645 C6.40205007,1.05704839 6.40205007,0.578194606 6.10557982,0.282500452 C5.80988566,-0.0124176023 5.33180798,-0.0124176023 5.03844212,0.282500452 L0.27551555,5.04542702 C-0.0194025036,5.34189728 -0.0194025036,5.81997497 0.27551555,6.11411692 C0.570433605,6.40825887 1.04773519,6.40825887 1.34342935,6.11411692" id="Path"></path>
                        </g>
                        <g id="Group" transform="translate(70.000000, 13.000000)">
                            <path d="M0.82033785,1.54521538 L7.55533488,1.54521538 C7.97210066,1.54521538 8.30970422,1.20683572 8.30970422,0.790069945 C8.30970422,0.373304168 7.97210066,0.0349245064 7.55533488,0.0349245064 L0.82033785,0.0349245064 C0.402795974,0.0349245064 0.0644163118,0.373304168 0.0644163118,0.790069945 C0.0644163118,1.20683572 0.402795974,1.54521538 0.82033785,1.54521538" id="Path"></path>
                        </g>
                        <g id="Group" transform="translate(90.000000, 13.000000)">
                            <path d="M0.00620880114,0.790069945 C0.00620880114,1.20683572 0.345364563,1.54521538 0.76290644,1.54521538 L7.49867957,1.54521538 C7.91466925,1.54521538 8.25304891,1.20683572 8.25304891,0.790069945 C8.25304891,0.373304168 7.91466925,0.0349245064 7.49867957,0.0349245064 L0.76290644,0.0349245064 C0.345364563,0.0349245064 0.00620880114,0.372528068 0.00620880114,0.790069945" id="Path"></path>
                        </g>
                        <g id="Group" transform="translate(84.000000, 20.000000)">
                            <path d="M0.783085044,8.31746522 C1.20140302,8.31746522 1.53900658,7.97908556 1.53900658,7.56309589 L1.53900658,0.827322752 C1.53900658,0.409780875 1.20140302,0.0714012131 0.783085044,0.0714012131 C0.366319267,0.0714012131 0.027163505,0.409780875 0.027163505,0.827322752 L0.027163505,7.56309589 C0.027163505,7.97908556 0.366319267,8.31746522 0.783085044,8.31746522" id="Path"></path>
                        </g>
                        <g id="Group" transform="translate(84.000000, 0.000000)">
                            <path d="M0.783085044,8.26003381 C1.20140302,8.26003381 1.53900658,7.92243025 1.53900658,7.50566448 L1.53900658,0.769891341 C1.53900658,0.351573364 1.20140302,0.0147459027 0.783085044,0.0147459027 C0.366319267,0.0147459027 0.027163505,0.351573364 0.027163505,0.769891341 L0.027163505,7.50566448 C0.027163505,7.92243025 0.366319267,8.26003381 0.783085044,8.26003381" id="Path"></path>
                        </g>
                        <g id="Group" transform="translate(229.000000, 68.000000)">
                            <path d="M1.29453504,0.283276552 C0.998840883,-0.0124176023 0.522315396,-0.0124176023 0.225845141,0.283276552 C-0.0659685121,0.578970706 -0.0659685121,1.05782449 0.225845141,1.35196645 L4.99032391,6.11411692 C5.28446587,6.40981107 5.76409576,6.40981107 6.05823771,6.11411692 C6.35393186,5.81842277 6.35393186,5.34189728 6.05823771,5.04620312 L1.29453504,0.283276552 Z" id="Path"></path>
                        </g>
                        <g id="Group" transform="translate(243.000000, 82.000000)">
                            <path d="M1.29686334,0.280172151 C1.00116918,-0.0147459027 0.524643696,-0.0147459027 0.228949542,0.280172151 C-0.0659685121,0.576642406 -0.0659685121,1.05472009 0.228949542,1.34886205 L4.99187611,6.11178862 C5.28601807,6.40748277 5.76487186,6.40748277 6.05978991,6.11178862 C6.35548406,5.81609447 6.35548406,5.33801678 6.05978991,5.04154652 L1.29686334,0.280172151 Z" id="Path"></path>
                        </g>
                        <g id="Group" transform="translate(229.000000, 82.000000)">
                            <path d="M4.98954781,0.279396051 L0.225845141,5.04077042 C-0.0667446122,5.33724068 -0.0667446122,5.81531837 0.225845141,6.11101252 C0.521539296,6.40670667 0.998840883,6.40670667 1.29453504,6.11101252 L6.05746161,1.34808595 C6.35315576,1.05239179 6.35315576,0.575090205 6.05746161,0.279396051 C5.76331966,-0.0147459027 5.28368977,-0.0147459027 4.98954781,0.279396051" id="Path"></path>
                        </g>
                        <g id="Group" transform="translate(243.000000, 68.000000)">
                            <path d="M1.29686334,6.11489302 L6.05978991,1.35196645 C6.35626016,1.05704839 6.35626016,0.578970706 6.05978991,0.284052652 C5.76409576,-0.0116415021 5.28524197,-0.0116415021 4.99265222,0.284052652 L0.228949542,5.04620312 C-0.0651924119,5.34189728 -0.0651924119,5.81997497 0.228949542,6.11489302 C0.524643696,6.40981107 1.00272138,6.40981107 1.29686334,6.11489302" id="Path"></path>
                        </g>
                        <g id="Group" transform="translate(226.000000, 77.000000)">
                            <path d="M8.26469041,0.790846045 C8.26469041,0.373304168 7.92631075,0.0364767067 7.51032108,0.0364767067 L0.775324042,0.0364767067 C0.357006065,0.0364767067 0.0194025036,0.373304168 0.0194025036,0.790846045 C0.0194025036,1.20916402 0.357782166,1.54599148 0.775324042,1.54599148 L7.51032108,1.54599148 C7.92631075,1.54599148 8.26469041,1.20916402 8.26469041,0.790846045" id="Path"></path>
                        </g>
                        <g id="Group" transform="translate(245.000000, 77.000000)">
                            <path d="M7.53049968,0.0372528068 L0.795502646,0.0372528068 C0.377184669,0.0372528068 0.0388050071,0.374856369 0.0388050071,0.791622145 C0.0388050071,1.20994012 0.377184669,1.54676758 0.795502646,1.54676758 L7.53049968,1.54676758 C7.94726546,1.54676758 8.28564512,1.20994012 8.28564512,0.791622145 C8.28564512,0.374856369 7.94726546,0.0372528068 7.53049968,0.0372528068" id="Path"></path>
                        </g>
                        <g id="Group" transform="translate(239.000000, 84.000000)">
                            <path d="M0.814905149,0.0737295135 C0.397363273,0.0737295135 0.0589836108,0.412109176 0.0589836108,0.828874952 L0.0589836108,7.56464809 C0.0589836108,7.98063776 0.397363273,8.31901742 0.814905149,8.31901742 C1.23322313,8.31901742 1.57082802,7.98063776 1.57082802,7.56464809 L1.57082802,0.828874952 C1.57160279,0.412109176 1.23322313,0.0737295135 0.814905149,0.0737295135" id="Path"></path>
                        </g>
                        <g id="Group" transform="translate(239.000000, 64.000000)">
                            <path d="M0.814905149,0.016298103 C0.397363273,0.016298103 0.0589836108,0.352349465 0.0589836108,0.771443541 L0.0589836108,7.50721668 C0.0589836108,7.92320635 0.397363273,8.26158601 0.814905149,8.26158601 C1.23322313,8.26158601 1.57082802,7.92320635 1.57082802,7.50721668 L1.57082802,0.771443541 C1.57160279,0.352349465 1.23322313,0.016298103 0.814905149,0.016298103" id="Path"></path>
                        </g>
                    </g>
                    <g id="Group-6" transform="translate(127.000000, 37.000000)">
                        <g id="Group" fill="url(#linearGradient-1)">
                            <path d="M47.6662363,7.18936839 L47.6662363,27.2007296 C47.6662363,31.1508817 44.4643576,34.3527605 40.5142054,34.3527605 L27.6297295,34.3535225 L29.5583242,50.7401009 L18.1764911,34.3535225 L7.21299006,34.3535225 C3.2620759,34.3535225 0.0601971492,31.1508817 0.0601971492,27.2014916 L0.0601971492,7.18936839 C0.0601971492,3.23921622 3.2620759,0.0380994615 7.21299006,0.0380994615 L40.5134434,0.0373373364 C44.4643576,0.0365754831 47.6662363,3.23921622 47.6662363,7.18936839 Z" id="Path"></path>
                        </g>
                        <g id="Group" transform="translate(35.000000, 18.000000) scale(-1, 1) rotate(-90.000000) translate(-35.000000, -18.000000) translate(32.000000, 15.000000)" fill="#CE93D8">
                            <path d="M2.55957827,0.0256113047 C3.94181262,0.0256113047 5.06327733,1.14707601 5.06327733,2.52931036 C5.06327733,3.91154472 3.94181262,5.03300942 2.55957827,5.03300942 C1.17734392,5.03300942 0.0558792102,3.91232082 0.0558792102,2.52931036 C0.0558792102,1.14552381 1.17734392,0.0256113047 2.55957827,0.0256113047" id="Path"></path>
                        </g>
                        <g id="Group" transform="translate(13.000000, 18.000000) scale(-1, 1) rotate(-90.000000) translate(-13.000000, -18.000000) translate(10.000000, 15.000000)" fill="#CE93D8">
                            <path d="M2.51223616,0.0256113047 C3.89447051,0.0256113047 5.01593522,1.14552381 5.01593522,2.52931036 C5.01593522,3.91076862 3.89447051,5.03300942 2.51223616,5.03300942 C1.13000181,5.03300942 0.00776100142,3.91076862 0.00776100142,2.52931036 C0.00776100142,1.14552381 1.13000181,0.0256113047 2.51223616,0.0256113047" id="Path"></path>
                        </g>
                        <g id="Group" transform="translate(25.000000, 19.000000) scale(-1, 1) rotate(90.000000) translate(-25.000000, -19.000000) translate(22.000000, 16.000000)" fill="#CE93D8">
                            <path d="M2.57432417,0.0256113047 C3.95733463,0.0256113047 5.07879933,1.14707601 5.07879933,2.52931036 C5.07879933,3.91076862 3.95733463,5.03300942 2.57432417,5.03300942 C1.19208982,5.03300942 0.0706251129,3.91076862 0.0706251129,2.52931036 C0.0706251129,1.14707601 1.19208982,0.0256113047 2.57432417,0.0256113047" id="Path"></path>
                        </g>
                    </g>
                    <g id="Group-5" transform="translate(186.000000, 0.000000)">
                        <g id="Group" fill="#00BCD4">
                            <path d="M47.6814761,7.16117479 L47.6814761,27.172536 C47.6814761,31.1226881 44.4795974,34.3245669 40.5286832,34.3245669 L29.5644202,34.3245669 L18.183349,50.7111453 L20.1119438,34.3245669 L7.22670586,34.3245669 C3.27731568,34.3245669 0.0746749446,31.1226881 0.0746749446,27.172536 L0.0746749446,7.16117479 C0.0746749446,3.21102262 3.27731568,0.00914387077 7.22670586,0.00914387077 L40.5271592,0.00838188154 C44.4795974,0.00838188154 47.6814761,3.21102262 47.6814761,7.16117479" id="Path"></path>
                        </g>
                        <path d="M34.4229595,15.9215887 C35.8051938,15.9215887 36.9266585,17.0430534 36.9266585,18.4252878 C36.9266585,19.8075221 35.8051938,20.9289868 34.4229595,20.9289868 C33.039949,20.9289868 31.9184843,19.8082982 31.9184843,18.4252878 C31.9184843,17.0422773 33.039949,15.9215887 34.4229595,15.9215887" id="Path" fill="#B2EBF2" transform="translate(34.422571, 18.425288) scale(-1, 1) rotate(-90.000000) translate(-34.422571, -18.425288) "></path>
                        <path d="M26.0815157,17.5126242 C26.0815157,18.8948586 24.9592749,20.0163233 23.5770405,20.0163233 C22.1948062,20.0163233 21.0733415,18.8948586 21.0733415,17.5126242 C21.0733415,16.1303899 22.1948062,15.0089252 23.5770405,15.0089252 C24.9592749,15.0089252 26.0815157,16.1303899 26.0815157,17.5126242 Z" id="Path" fill="#B2EBF2" transform="translate(23.577429, 17.512624) scale(-1, 1) rotate(90.000000) translate(-23.577429, -17.512624) "></path>
                        <g id="Group" transform="translate(13.000000, 17.000000) scale(-1, 1) rotate(-90.000000) translate(-13.000000, -17.000000) translate(10.000000, 14.000000)" fill="#B2EBF2">
                            <path d="M2.52775816,0.0737295135 C3.90921642,0.0737295135 5.03068112,1.19441812 5.03068112,2.57742857 C5.03068112,3.95966293 3.90921642,5.08112763 2.52775816,5.08112763 C1.14474771,5.08112763 0.0232830043,3.95966293 0.0232830043,2.57742857 C0.0232830043,1.19364202 1.14474771,0.0737295135 2.52775816,0.0737295135" id="Path"></path>
                        </g>
                    </g>
                    <path d="M279,146 C263.829069,141.007812 257,94 239,91 C238.396184,90.8993639 202.007507,92.2574737 129.833969,95.0743292 C112.062187,95.0743292 97.1051591,109.447175 92.6041246,129.007138 C94.1319686,127.476057 93.6675101,135.992316 91.210749,154.555914 C89.8014795,146.686876 84.5572105,140.841413 78.3017792,140.841413 C70.9647978,140.841413 65.0174077,148.876554 65.0174077,158.788129 L65.0174077,222.294111 L283,222 C290.447287,174.661459 289.113954,149.328126 279,146 Z" id="Path" fill="#B2EBF2"></path>
                    <g id="Group-3" transform="translate(202.020955, 61.047782)">
                        <path d="M76.3610435,34.2820824 C76.8398044,33.4136812 77.1125164,32.4129667 77.1011534,31.3460955 C77.0723671,28.7659859 75.4133695,26.5980246 73.1316796,25.829999 C72.5408038,25.6307686 71.9120513,25.5205075 71.2545125,25.5270507 C68.0630253,25.5630911 65.4972605,28.2200033 65.5328646,31.4723255 C65.5381673,31.9521513 65.6063453,32.4160084 65.7177027,32.8616153 C66.2078266,34.8136169 67.6494122,36.369439 69.5068835,36.9945053 C69.6235436,37.403612 69.7455065,37.8066353 69.8704994,38.1944502 C70.4628903,40.0301074 71.0886127,41.5015227 71.0886127,41.5015227 C71.0886127,41.5015227 74.4278189,52.8705823 76.5670925,54.9115532 C77.5844595,55.8841321 78.932111,56.4179479 80.3577884,56.6422722 C84.2022691,57.2468072 88.6202025,55.589849 88.7058037,54.0902981 C88.9285185,50.1786907 82.5750879,39.6210007 76.3610435,34.2820824 Z" id="Path" fill="#FFF3E0"></path>
                        <path d="M20.1255699,58.6961703 C20.0126974,58.7151808 19.9051277,58.7433164 19.7945279,58.7684103 C19.1324439,55.8263401 18.0855331,52.9146867 18.0855331,52.9146867 C18.0855331,52.9146867 17.4060258,50.1946596 16.461382,46.975796 C15.3144768,43.0679907 13.775927,38.423337 12.5812972,36.9960262 C9.66100687,33.5140568 4.02571775,33.5946615 1.45237763,34.8554401 C0.653180149,35.2470571 0.145632936,35.7527373 0.112301477,36.3017615 C-0.190711784,41.3661677 8.38532104,57.5798717 15.4652259,63.04502 C15.2758426,63.8062018 15.2326632,64.6175713 15.3675041,65.4433889 C15.8932321,68.6493253 18.8733675,70.8271721 22.0231904,70.305523 C25.1722557,69.7876761 27.3092567,66.7695638 26.7827712,63.5613461 C26.2600733,60.3569305 23.2769078,58.1790838 20.1255699,58.6961703 Z" id="Path" fill="#FFF3E0"></path>
                        <path d="M54.8705855,14.0624786 C54.9970935,14.7187222 55.0667865,15.3947368 55.0638512,16.0882411 L55.0357277,22.4043008 C55.0145168,27.6648958 54.4243984,32.0030996 49.9473775,32.7483125 L49.9382871,34.7314914 L49.9231364,38.2758153 L49.9102584,41.1091453 L48.6345725,41.1030619 L48.4724604,41.1030619 L35.2519919,41.0467907 L35.2656275,37.8347709 L35.279263,34.6257928 L35.2853233,33.2866908 L35.3080493,27.6747812 C35.1679057,27.4382902 35.0345798,27.197997 34.9133745,26.9508601 C34.9133745,26.9508601 34.8679225,24.6962108 35.3292602,22.7251987 C35.3413808,22.6750109 35.3565314,22.6271043 35.3694095,22.5776769 C35.6496968,21.4560554 36.0973989,20.4477367 36.8238731,20.0363488 C37.9101757,19.4234492 38.9252701,21.9997567 39.1434397,22.5936458 C39.1699533,22.6696879 39.1873766,22.7175944 39.1873766,22.7175944 C39.1873766,22.7175944 39.1972245,22.6658858 39.2101026,22.5936458 C39.2752504,22.2339665 39.4691789,21.0940949 39.4714515,20.2545897 C39.4759967,19.2470314 39.5365994,17.5604168 41.8198043,15.1141414 C42.1197874,14.7917227 42.326594,14.4160746 42.4674951,14.01077 L54.8705855,14.0624786 Z" id="Path" fill="#FFF3E0"></path>
                        <path d="M65.5840204,33.1198248 C65.4699337,32.6857026 65.3993086,32.2338007 65.394652,31.7663415 C65.3581752,28.5985829 67.9868264,26.009407 71.2557602,25.9745883 C71.9294152,25.9679209 72.5735783,26.0745994 73.1797125,26.2694358 L73.1797125,20.020595 C73.1797125,17.6010675 71.1245993,18.0292631 68.5898562,18.0292631 C66.0558893,18.0292631 64,17.6010675 64,20.020595 L64,31.1729423 C64,32.4930887 64.6162235,32.9627704 65.5840204,33.1198248" id="Path" fill="#CE93D8"></path>
                        <g id="Group" transform="translate(39.979045, 59.952218)" fill="#006064">
                            <path d="M57.9709009,52.2768991 C56.8483275,51.7809076 54.3998323,48.9068747 54.3998323,48.9068747 L62.2722092,8.00909242 C63.8113065,5.35021566 62.5163783,3.72484324 58.0548104,1.01312113 C50.320015,-3.68860642 34.5435118,9.67070165 34.5435118,9.67070165 L34.0551734,9.88585778 L34.0748279,9.94247781 L26.2621705,15.583343 L15.1634345,23.5954551 L6.9652468,29.5141359 L0.34319753,34.2958865 L0.0612312775,33.6368293 C0.181426007,36.1907702 0.761989231,38.7779283 2.08413126,41.1944713 C2.84838831,42.5941185 4.43057429,43.7869139 6.43986732,44.8136238 C7.29181361,45.2484657 8.21935407,45.6538651 9.19678669,46.031332 C13.6205575,47.741257 19.0308322,48.8970606 22.7470416,49.769764 C24.9763137,50.2929331 26.5985646,50.7141862 27.0241597,51.0916531 C27.9396051,51.4721397 28.770385,51.8745194 29.536154,52.2814287 C27.8753501,55.7231718 26.8563407,60.4384881 27.2509422,66.9060058 C27.6062348,72.7507031 26.5161669,87.536081 27.8836654,92.4975058 L26.9848508,100.163858 L36.1521557,100.325414 L42.4937506,100.437899 C42.4937506,100.437899 46.0035879,100.582092 45.9680587,98.8532933 C45.9136308,96.1936616 39.1192269,96.8949951 36.7145763,95.8856486 C36.5520489,95.8177046 36.3592837,95.6976701 36.1513998,95.5474383 C34.9146792,94.6543516 33.0800087,92.5873429 33.0800087,92.5873429 L36.1513998,75.908591 L40.5252784,52.1613942 C40.7739833,51.4238239 41.036295,50.5986813 41.3205291,49.6542592 C42.5527141,45.5587434 38.9816455,41.0532987 35.3871427,37.743669 C39.5486018,33.4548902 43.1491521,28.1069394 45.5447313,25.1883654 C45.859203,24.804859 46.1532644,24.463629 46.4246474,24.1722245 C46.4775634,25.0003869 46.5418184,25.9063074 46.6136329,26.8665832 C47.1669822,34.2566299 48.232104,44.8921369 49.2072688,48.7173864 L48.1580217,56.3648655 L49.2821071,56.4063868 L63.6586062,56.940125 C63.6586062,56.940125 67.1646638,57.1537713 67.1631524,55.424218 C67.1639079,52.7623215 60.3543851,53.3315416 57.9709009,52.2768991" id="Path"></path>
                        </g>
                        <g id="Group" transform="translate(0.979045, 32.952218)" fill="url(#linearGradient-2)">
                            <path d="M79.1037424,23.9464053 C77.6755594,23.7251462 76.3270149,23.1960811 75.3084011,22.2342813 C73.1665058,20.2143513 69.822449,8.96249852 69.822449,8.96249852 C69.822449,8.96249852 69.1952013,7.50549985 68.6036014,5.68876701 C64.6292631,3.90364261 59.1076634,1.57741178 56.7890465,1.31927617 C56.1648327,1.24928605 55.5603389,1.26132736 54.9778405,1.34185363 C54.2838482,1.25380154 53.5792375,1.2681006 52.8761437,1.41635924 L48.6462039,2.2607562 L48.6302762,5.76778811 L48.6181408,8.57266106 L47.3401331,8.56664041 L47.1785808,8.56664041 L33.9411522,8.51094934 L33.955563,5.33204316 L33.9692153,2.15539472 L33.975283,0.830097898 C24.3784696,-0.110629548 15.40587,-0.51175573 1.46686455,1.23423441 C1.38039993,1.24552314 1.29545225,1.25380154 1.20822917,1.26584285 C0.276079987,1.38324564 -0.0326138446,1.78813473 0.102392303,2.38417964 C2.67888603,1.13639875 8.32183961,1.05662507 11.2457087,4.50345043 C12.441044,5.91454159 13.9807209,10.5113122 15.1297901,14.3795834 C15.9322423,14.5308524 17.2489315,14.774689 18.8743145,15.0599175 L38.4411043,60.4917851 L38.7240105,61.1487891 L45.3688917,56.3826876 L53.5944067,50.4816925 L64.7301385,42.4952927 L72.5688381,36.8712478 L72.5483597,36.8148041 L67.4431553,22.8318314 C71.5873889,23.8229818 75.7035595,24.2858197 79.1037424,23.9464053 Z" id="Path"></path>
                        </g>
                        <g id="Group" transform="translate(30.979045, 0.952218)" fill="#FF6F00">
                            <path d="M26.4683074,5.86261344 C26.0370779,1.8393103 20.9112422,-2.48502562 15.114856,1.90102202 C11.9359498,4.30476879 9.49306879,6.49177195 9.49306879,6.49177195 C6.11548098,6.05075893 2.93281188,5.70682897 0.736777735,10.4074559 C0.736777735,10.4074559 -0.963304904,16.0224698 1.02125371,22.5601493 C1.96499149,25.6780963 3.08107053,25.6043433 3.76592011,26.9905993 C3.76592011,26.9905993 3.72076519,24.7591938 4.1790876,22.8085013 C4.19112891,22.7588309 4.20618055,22.7114183 4.21897445,22.6617479 C4.49742977,21.5524421 4.94220571,20.5545184 5.6639318,20.1473715 C6.74313433,19.5407905 7.75159415,22.0905382 7.96833775,22.6783047 C7.99467812,22.7535629 8.0119875,22.8009755 8.0119875,22.8009755 C8.0119875,22.8009755 8.02177107,22.7498 8.03456496,22.6783047 C8.09928701,22.3223334 8.29194799,21.194213 8.29420574,20.3633626 C8.29872123,19.3661915 8.35892779,17.6962121 10.6272098,15.275156 C10.9252323,14.9568138 11.1306871,14.5850383 11.2706674,14.1839121 L23.5941969,14.2358403 C23.5934443,14.23283 26.8957739,9.88441141 26.4683074,5.86261344" id="Path"></path>
                        </g>
                        <g id="Group" transform="translate(52.426043, 19.913401) scale(-1, 1) rotate(-174.575178) translate(-52.426043, -19.913401) translate(51.426043, 17.913401)" fill="#212121">
                            <path d="M0.728944865,1.02373802 C1.0957648,1.0260086 1.39361653,1.50812709 1.39438745,2.09998998 C1.3966481,2.68806857 1.10107005,3.16488906 0.728944865,3.16187597 C0.362882818,3.16110477 0.0619995201,2.6805 0.0635096028,2.08788025 C0.0650310899,1.49904479 0.358335463,1.01844002 0.728944865,1.02373802" id="Path"></path>
                        </g>
                        <g id="Group" transform="translate(44.797892, 19.411504) scale(-1, 1) rotate(-174.584482) translate(-44.797892, -19.411504) translate(43.797892, 17.911504)" fill="#212121">
                            <path d="M0.682109428,0.0566331641 C1.04741346,0.0573900217 1.35057033,0.537237775 1.34829665,1.13212789 C1.35132822,1.72247686 1.05575027,2.19778347 0.682109428,2.19399918 C0.318321182,2.19172861 0.0151643104,1.711124 0.0166744351,1.12153188 C0.0166744351,0.531182914 0.312258045,0.0513351605 0.682109428,0.0566331641" id="Path"></path>
                        </g>
                    </g>
                    <g id="Group-2" transform="translate(85.925776, 79.000000)">
                        <g id="Group" transform="translate(39.074224, 56.000000)" fill="#311B92">
                            <path d="M2.30036082,7.50566448 C2.69461969,7.50566448 3.05783456,7.39778656 3.38224442,7.22316402 C4.10013705,6.83589005 4.59528894,6.08540122 4.59528894,5.21073635 L4.59528894,2.208781 C4.40436831,1.91386295 4.22276087,1.6236015 4.06055594,1.34265325 C3.54910595,1.16647851 3.05705846,0.997288683 2.62166628,0.846725255 C1.73070332,0.538613499 1.0873163,0.312768357 1.0935251,0.291037553 C1.1051666,0.254560847 1.116032,0.204114337 1.13310621,0.143578526 C1.0904207,0.114862821 1.04928739,0.0892515164 1.00737798,0.059759711 C0.645715318,0.106325719 0.318201058,0.100893018 0.005432701,0.0768339141 L0.005432701,5.21073635 C0.005432701,6.47733179 1.03298929,7.50566448 2.30036082,7.50566448" id="Path"></path>
                        </g>
                        <g id="Group" transform="translate(39.074224, 37.000000)" fill="#311B92">
                            <path d="M1.83392464,9.33338031 C2.7225593,9.50800284 3.75089199,10.1475094 4.59528894,10.9329227 L4.59528894,2.36477713 C4.59528894,1.0974056 3.56773235,0.0698490128 2.30036082,0.0698490128 C1.03298929,0.0698490128 0.005432701,1.0974056 0.005432701,2.36477713 L0.005432701,9.61976126 C0.584403407,9.35743941 1.21071622,9.21153259 1.83392464,9.33338031" id="Path"></path>
                        </g>
                        <g id="Group" transform="translate(32.074224, 73.000000)" fill="#F48FB1">
                            <path d="M13.8281996,9.35123061 C13.7118904,9.02759685 13.5970628,8.63333798 13.4844578,8.1863043 L7.05781942,1.68180901 L5.45245627,0.0574314105 L0.016298103,9.8223234 L14.290473,10.2631483 C14.2156499,10.144405 14.1349002,10.036527 14.0667445,9.90847052 C13.9867357,9.75868319 13.9074676,9.57086695 13.8281996,9.35123061" id="Path"></path>
                        </g>
                        <g id="Group" transform="translate(20.503130, 55.670534) scale(-1, 1) rotate(46.344467) translate(-20.503130, -55.670534) translate(19.003130, 54.170534)" fill="#212121">
                            <path d="M1.60415899,0.0727299721 C1.93611586,0.0765298804 2.21198869,0.517778017 2.20971501,1.06195882 C2.20744133,1.6031122 1.94066321,2.0413329 1.60415899,2.03754861 C1.2744758,2.03376432 0.999359266,1.59175933 0.999359266,1.04757852 C0.998602971,0.507182007 1.26765477,0.0697181596 1.60415899,0.0727299721" id="Path"></path>
                        </g>
                        <g id="Group" transform="translate(15.000000, 60.532734) scale(-1, 1) rotate(46.326109) translate(-15.000000, -60.532734) translate(14.000000, 59.032734)" fill="#212121">
                            <path d="M0.671774445,0.0247018017 C1.00221563,0.0292429503 1.27808855,0.471248082 1.27581487,1.0146722 C1.27505698,1.55582574 1.00827877,1.99480344 0.671774445,1.98950544 C0.341333259,1.986478 0.0662182358,1.54447287 0.0677276299,0.999535038 C0.0662182358,0.458381494 0.334512226,0.0201606531 0.671774445,0.0247018017" id="Path"></path>
                        </g>
                        <g id="Group" transform="translate(82.074224, 49.000000)" fill="#AD1457">
                            <path d="M71.1749345,49.0644866 C71.2822783,49.2267903 71.0857334,49.3677583 70.6745011,49.4896765 C69.768127,49.7586587 67.7920954,49.9384882 65.5613115,50.0573585 C61.1398085,50.2935752 55.7310457,50.2943372 55.7310457,50.2943372 C55.5481078,50.1106978 49.8430158,45.1219543 43.7047692,39.3224542 C43.2753943,38.916314 42.8437516,38.5063638 42.410597,38.0933656 C42.0772267,37.7748541 41.7446124,37.4571046 41.4112421,37.1355452 C41.5042229,37.4593906 41.5949359,37.7786641 41.6818692,38.0933656 C41.7990402,38.5132217 41.9086517,38.9208859 42.0159955,39.3224542 C43.2837097,44.082601 43.8544457,47.5648918 43.1317654,48.2461101 C43.007791,48.3634565 42.4559535,48.4762309 41.6380246,48.5836714 L38.8417963,48.5730035 L38.8092908,48.8617974 C34.1080894,49.2306002 27.2811799,49.4759607 27.2811799,49.4759607 C27.2811799,49.4759607 26.0618459,44.7981089 24.5121655,39.3232162 C24.4834397,39.2203477 24.453202,39.1159552 24.4244762,39.0115626 C24.2679963,39.1174791 24.116052,39.2188237 23.9618399,39.3232162 C21.9873202,40.6559354 20.1307274,41.8530205 18.5523211,42.8123649 C18.5137681,48.8396997 12.9810308,53.7629122 6.08986631,53.844445 C4.66945186,53.8619708 3.30648898,53.6608056 2.02667969,53.2950508 C3.02527867,53.3682017 3.61415725,53.4123971 3.61415725,53.4123971 L2.17333238,39.3239782 L2.04784606,38.0948896 L0.905618153,26.9203175 C0.905618153,26.9203175 0.58358699,27.0635715 0.0257020177,27.2967402 C5.38835242,17.544802 12.8268187,6.34889427 17.8122542,2.34311688 C17.9672223,2.05737092 18.1350413,1.81886829 18.3187351,1.64589674 C20.9637751,-0.843522078 25.4177836,-0.36651682 28.2676838,2.71115768 C29.2715744,3.79470637 31.7389681,9.45247641 34.3998829,16.4353457 C35.1580924,16.2943777 35.9472955,16.2623742 36.7493497,16.347717 C39.7421228,16.3995322 42.4582214,18.0980062 43.5974255,20.803068 C48.4173098,25.1723142 55.2737009,32.1544216 60.952335,38.0948896 C61.3492044,38.5101737 61.7400262,38.9193619 62.1240446,39.3239782 C67.1457653,44.6007536 70.9919966,48.7886465 71.1749345,49.0644866" id="Path"></path>
                        </g>
                        <g id="Group" transform="translate(17.074224, 58.000000)" fill="url(#linearGradient-3)">
                            <path d="M21.7907754,16.1869372 L28.3493255,22.573931 C27.2894953,18.5247202 26.4383049,10.0407321 26.4383049,10.0407321 C26.4383049,10.0407321 25.6816073,7.39967742 25.0647588,4.51935813 C24.7487752,4.6908057 24.3949945,4.79596022 24.0109761,4.79596022 C22.7765233,4.79596022 21.7756565,3.78784847 21.7756565,2.54352005 L21.7756565,0.0731509661 C21.6237122,0.0678170415 21.4785714,0.0655310738 21.3477935,0.06934102 C17.1470255,0.210309028 13.7747696,3.07996047 13.0324349,5.58309509 L12.8978772,5.52213595 L12.1661257,6.8137077 L20.0551332,14.4945591 L21.7907754,16.1869372 Z M66.1244881,30.1732496 L67.5653129,44.2616684 C67.5653129,44.2616684 66.9764344,44.2174731 65.9778354,44.1450841 C59.8811656,43.7016064 37.9044286,42.1631501 33.0951275,42.6256776 C28.2185476,43.0958249 23.3752292,42.87942 18.9809401,42.1997256 C9.78037368,40.7801396 2.55583888,37.3268044 1.18304876,33.8368938 C0.485314569,32.6603824 0.0892011202,31.4008142 0.0272139011,30.1724876 C0.00680347527,29.7572034 0.0332614347,29.3480152 0.092224887,28.9433989 C0.197300783,28.230939 0.413500108,27.5405768 0.781643715,26.9043158 L2.52938092,23.8205453 L29.1717901,24.6122521 C29.7311869,25.4641561 30.4493316,26.0867013 31.2491179,26.4943655 C33.9757996,27.8849959 37.5052914,26.9454632 37.7335857,25.4260566 C38.1803473,22.4375349 35.6025861,14.0472715 32.3709353,7.1817485 C33.114026,8.1083274 36.3857417,12.1659201 39.5160963,15.6200172 C39.4321867,15.6123973 39.3528129,15.6032535 39.2681474,15.5956336 C40.2017354,16.8757755 41.1519541,17.7170116 42.1460174,18.3890861 C43.2315497,19.459681 44.1802565,20.2811054 44.835658,20.6308584 C45.8115787,21.1520591 46.8056421,21.3997056 47.7724915,21.4469489 C52.0291992,22.852057 61.1186421,19.3347147 63.9768577,18.1467735 C64.5354986,17.9143668 64.8567738,17.7703508 64.8567738,17.7703508 L65.9990017,28.9449229 L66.1244881,30.1732496 Z" id="Shape"></path>
                        </g>
                        <g id="Group" transform="translate(7.074224, 0.000000)" fill="#FFF3E0">
                            <path d="M38.7122167,80.5177915 L32.1398591,74.1439398 L31.9398703,73.9492719 L32.1413742,74.1447002 L38.7122167,80.5177915 Z M30.4990423,72.5523779 L31.9398703,73.9492719 L30.4990423,72.5523779 Z M65.5932807,73.6253324 C66.4826246,75.5978654 62.5987521,79.6060463 58.1770311,79.3923679 C57.2073887,79.3452218 56.2112326,79.0980849 55.2340148,78.5779567 C54.576476,78.2289233 53.6257719,77.409189 52.5387118,76.340797 C51.7160308,75.5332296 50.816839,74.5827029 49.9024965,73.5789467 C46.7655517,70.1327171 43.4869482,66.0834734 42.7422931,65.1580407 C45.9807473,72.0086766 48.5631779,80.3816761 48.1162333,83.3648091 C47.8882158,84.8803288 44.3512935,85.8186888 41.6188714,84.4309198 C40.8181589,84.023334 40.0969873,83.4020697 39.5364128,82.5519186 L12.8379143,81.7618409 L12.6205023,81.7557575 L13.9461854,79.4752539 L6.62841509,70.9623368 C6.39130721,70.8824926 6.1557144,70.7958046 5.92466679,70.6977102 C5.92466679,70.6977102 1.35674188,65.647752 2.05594498,63.6394792 C2.44077182,62.5368683 5.63756173,64.7352464 6.20949926,65.1382697 C6.26555671,65.178572 6.30570597,65.2067076 6.30570597,65.2067076 C6.30570597,65.2067076 6.28146491,65.1648844 6.24586085,65.106332 C6.07465836,64.8166115 5.52241669,63.9117101 5.02017221,63.3261856 C4.94290382,63.2372163 4.86033271,63.139122 4.77397393,63.0303817 C4.1861282,62.2874501 3.45662378,61.0319944 3.53464969,58.3591133 C3.59070715,56.4534974 1.58930456,54.9410194 0.0696930501,54.0703369 L0.0984793099,54.0627327 C0.0984793099,54.0627327 5.68680138,51.2506946 9.54037253,51.0142035 C11.3220905,50.9054633 12.8697307,51.4636125 14.0249688,52.0932414 L16.9626824,55.5120958 C20.382187,59.4890995 22.6934207,63.1147885 18.9140878,66.551893 C18.8580303,66.6028412 18.8140934,66.6545499 18.7557633,66.7054981 L17.0664644,68.1685488 L19.1254395,70.5646365 L20.872311,67.5579304 L22.4873717,64.7793508 L22.4972196,64.7892363 L30.402078,72.4550439 L30.5020724,72.550857 L24.9432941,82.1184785 L39.5394429,82.5503978 C39.4629321,82.4340533 39.380361,82.3291152 39.3106679,82.2028852 C39.2280968,82.0561239 39.1477983,81.8713415 39.0667422,81.6569027 C38.9485671,81.339807 38.8311494,80.9527525 38.7152469,80.5155103 C37.6539429,76.4746312 36.800203,68.0080999 36.800203,68.0080999 C36.800203,68.0080999 36.0419124,65.3724795 35.4237653,62.4980868 C36.125241,62.1186365 36.6085472,61.3833091 36.6085472,60.5255538 L36.6085472,57.5850044 C36.4214365,57.2960443 36.2449312,57.0116467 36.0858493,56.7363742 C35.5866349,56.5637585 35.1071165,56.3979867 34.6821404,56.2504649 C33.8117348,55.9485777 33.1837398,55.7272951 33.1905576,55.7060033 C33.2019206,55.6702635 33.212526,55.6208361 33.2284342,55.5615232 C33.1867699,55.5333876 33.1466207,55.5082937 33.1064714,55.4793977 C32.7527034,55.525023 32.433782,55.5197 32.1277386,55.496127 C31.9906251,55.4854811 31.8489664,55.4786373 31.7201857,55.4565851 L31.7201857,46.1672778 C31.8519965,46.0927565 31.9906251,46.0281207 32.1277386,45.9650057 C32.6928583,45.7087437 33.3041875,45.5650241 33.9124867,45.6844103 C34.7798621,45.8555051 35.7835936,46.4828527 36.6077896,47.2516387 C37.3751707,47.9679556 37.988015,48.8067003 38.1751257,49.5237777 C38.3084516,50.0324996 38.3804172,50.5077629 38.3705693,50.9282759 C38.3690542,50.9913909 38.3629939,51.0469016 38.3592063,51.1062145 C38.3592063,51.110777 38.992504,52.3936078 39.5576237,53.5357607 C48.0851744,55.9440151 63.2259896,68.3829876 65.5932807,73.6253324 Z M12.6197448,55.5280647 C13.0129045,55.902192 13.515149,56.0124531 13.7446815,55.7653161 C13.9689113,55.5235021 13.8393732,55.0170615 13.4446984,54.6398925 C13.0538113,54.2642444 12.5500517,54.1555041 12.3212767,54.4018806 C12.0940168,54.6459759 12.223555,55.1524165 12.6197448,55.5280647 Z M7.38216058,60.0647384 C7.77532028,60.4388657 8.27680723,60.5506477 8.50558224,60.3027503 C8.73132712,60.0601759 8.60103142,59.5544957 8.20559912,59.1773267 C7.81546954,58.8001577 7.31246753,58.6914175 7.08369252,58.9393148 C6.8571901,59.1826497 6.98748581,59.6890903 7.38216058,60.0647384 Z M152.810345,1.31686609 C152.866403,1.90695306 153.206535,2.35864334 153.573181,2.31910143 C153.936797,2.28336163 154.193601,1.77463974 154.134513,1.17999025 C154.081486,0.589903278 153.742869,0.142015102 153.371677,0.18079659 C153.009576,0.218057237 152.754288,0.727539542 152.810345,1.31686609 Z M161.760599,1.21268836 C161.707572,0.624122238 161.368197,0.17471322 160.997764,0.213494709 C160.63339,0.249234512 160.379616,0.757956396 160.437947,1.35108505 C160.494004,1.93965118 160.831106,2.39134146 161.200025,2.35179955 C161.565156,2.31377848 161.815899,1.80429618 161.760599,1.21268836" id="Shape"></path>
                        </g>
                        <g id="Group" transform="translate(120.074224, 97.000000)" fill="#E91E63">
                            <path d="M8.4342683,2.87234663 C7.44675142,2.47886385 5.24502587,0.0939081172 5.24502587,0.0939081172 L3.46853264,0.0869232159 L0.728228874,0.0768339141 L0.696373491,0.370199768 L0.0125939887,6.64108892 L13.4948293,6.69541593 C13.4948293,6.69541593 16.5477603,6.77923474 16.5025701,5.30154007 C16.4329327,3.02601445 10.5322786,3.70587818 8.4342683,2.87234663" id="Path"></path>
                        </g>
                        <g id="Group" transform="translate(0.074224, 46.000000)" fill="#212121">
                            <path d="M18.1765299,46.0392012 C17.4764699,44.8772146 17.0790361,43.6331967 17.0168423,42.4200345 C16.9963638,42.0098774 17.02291,41.6057409 17.08207,41.2061198 C17.1874961,40.5024557 17.4044161,39.8206165 17.7737869,39.1922105 L19.5273498,36.1465114 L19.3096714,36.1397381 L20.636979,33.8827448 L13.3102409,25.4583424 C13.0728425,25.3785687 12.8369609,25.2927744 12.6048717,25.1956913 C12.6048717,25.1956913 8.03134885,20.1985471 8.73216728,18.2109782 C9.11746572,17.1189818 12.3181733,19.2946962 12.8908117,19.6943172 C12.9469379,19.7342041 12.9871363,19.761297 12.9871363,19.761297 C12.9871363,19.761297 12.9621071,19.719905 12.9272179,19.6627088 C12.7558056,19.375975 12.2021287,18.4804025 11.7000271,17.9009144 C11.6226641,17.8128623 11.5399918,17.7157792 11.4535272,17.60816 C10.864961,16.8721349 10.1338041,15.6303746 10.2126841,12.9850491 C10.2688103,11.0983261 8.26495499,9.60219318 6.74348122,8.74048684 L6.7715443,8.73220844 C6.7715443,8.73220844 12.3674733,5.94991295 16.2257669,5.71585996 C18.0089099,5.60824074 19.5592052,6.15988331 20.7151006,6.78377375 C22.0613697,7.51001534 22.873682,8.33409258 22.873682,8.33409258 C22.873682,8.33409258 21.4386728,-0.367259995 12.894604,0.033866188 C11.1941333,0.114392457 8.64873651,2.19678673 6.35211508,4.47560489 C4.84050131,5.97625331 3.43886445,7.55818059 2.45589835,8.71414647 C0.626489201,10.1395367 -0.613595356,11.9291766 0.436873826,15.4994254 C0.436873826,15.4994254 0.987516876,16.6975359 2.18588605,18.3125767 L1.536643,18.3622471 C1.536643,18.3622471 1.91663222,18.4683612 2.50368142,18.7272494 C3.15368293,19.5618628 3.96751212,20.4807654 4.95730438,21.3951524 C5.83863665,22.2109513 6.85269968,23.0207295 8.02300577,23.7552494 C8.08292423,23.7928785 8.13753346,23.8229818 8.19441807,23.8583532 C9.13415188,25.4207133 9.91081646,27.3932306 10.2839795,29.8978234 C10.648041,32.3489828 9.87137646,36.6409577 9.87896107,41.2046147 C9.87896107,41.6079986 9.88806261,42.0128877 9.90171492,42.4185294 C10.0655426,47.1311976 11.2305395,51.9861038 15.4733731,55.2959592 C18.4397161,57.6093962 24.2093327,60.4549085 36.0382983,54.297283 C26.8025126,52.8967279 19.553896,49.4860265 18.1765299,46.0392012" id="Path"></path>
                        </g>
                        <g id="Group" transform="translate(147.074224, 98.000000)" fill="#E91E63">
                            <path d="M8.42834171,2.40668654 C7.6956679,2.11409679 6.29773516,0.728758034 5.62358635,0.0310440057 C4.73533974,0.305783456 2.79882878,0.48894309 0.612660508,0.610014712 L0.0059265829,6.17387663 L13.4889027,6.22897974 C13.4889027,6.22897974 16.5410929,6.31124636 16.4951619,4.83432779 C16.427747,2.56035437 10.5278337,3.24021809 8.42834171,2.40668654" id="Path"></path>
                        </g>
                    </g>
                    <g id="Group-7" transform="translate(0.000000, 85.000000)">
                        <g id="Group" transform="translate(14.000000, 93.000000)" fill="url(#linearGradient-4)">
                            <path d="M40.8841088,17.1996209 C41.117715,28.3231397 37.9238336,38.2366196 32.8375908,44.3302475 L9.23730264,44.8331604 C3.8969752,38.9635573 0.286698448,29.1933314 0.0515753822,18.0713366 C-0.0803969193,11.7689237 0.885883035,5.85360127 2.67509372,0.804660627 L12.3371348,0.598161546 L14.2112932,0.558538106 L19.5068714,0.445001711 L22.6969605,0.377184669 L37.531709,0.0601971492 C39.5332889,5.02989091 40.7506196,10.89797 40.8841088,17.1996209" id="Path"></path>
                        </g>
                        <g id="Group" transform="translate(0.000000, 37.000000)" fill="#673AB7">
                            <path d="M21.4794416,35.6836734 C23.2728444,39.2892936 24.9827106,42.9355532 26.575174,46.6359987 C28.4265256,42.833202 30.5352603,35.7589316 25.4891983,28.8833429 C18.0920702,18.7979921 18.0318637,21.2190483 14.7159876,13.4230518 C11.4016166,5.62555012 7.94500771,-1.71061879 2.84475979,0.416177822 C-2.25323038,2.54372701 0.217496185,11.8614442 5.2342075,18.1477613 C10.2501662,24.4340784 8.6795277,30.8483344 11.469349,38.3214732 C14.6941627,46.964877 20.7509423,48.9155694 23.489588,49.3543247 C24.3866657,51.8235461 25.1023711,54.3492111 25.7127151,56.9094949 L27.5723451,56.8696081 C26.9431866,54.1859008 26.1928624,51.5450908 25.2626711,48.9584666 C25.4673734,48.6491554 25.7405606,48.2104001 26.0491192,47.6527369 C23.806425,42.3763848 21.3251623,37.2076519 18.6798367,32.1247134 C18.5428668,32.2812504 18.3073087,32.3640344 18.0875547,32.2120129 C15.6920864,30.5894462 13.4840109,28.6921871 10.9297477,27.3127044 C10.4337962,27.0470429 10.7656849,26.2274812 11.2653993,26.4984107 C13.7436517,27.837254 15.9080774,29.6276464 18.2109782,31.2246254 C14.8710195,24.8788543 11.2631416,18.668548 7.45883977,12.5876858 C7.16081731,12.1082911 7.85244013,11.5656795 8.15196775,12.0428165 C12.6584285,19.2450258 16.8992278,26.6225867 20.7366432,34.1980767 C20.854046,32.7847278 20.9383352,31.3736366 20.6899831,29.9617928 C20.5921475,29.4018719 21.4666477,29.2904897 21.5659885,29.8496581 C21.9001349,31.7529379 21.6510303,33.6644961 21.5110501,35.5730439 C21.5072871,35.6159411 21.4914829,35.6490547 21.4794416,35.6836734 Z" id="Path"></path>
                        </g>
                        <g id="Group" transform="translate(23.000000, 0.000000)" fill="#673AB7">
                            <path d="M44.789727,51.8105484 C38.9216479,59.896869 41.4064948,58.4862874 35.7129113,72.0849024 C31.8298141,81.3597617 23.3877355,83.5300042 18.4096598,83.9733298 C21.1863486,80.1157123 23.8334992,76.1721672 26.3869251,72.1677884 C26.4318824,72.1594237 26.4715059,72.1579029 26.5195112,72.1350902 C28.5380207,71.1153652 30.6212992,70.2074221 32.3441569,68.7101525 C32.8478318,68.2698685 32.2031889,67.4546968 31.697228,67.8942204 C30.4186101,69.0021543 28.940351,69.7755028 27.4399942,70.517674 C32.7670609,62.0366947 37.6460779,53.2705574 42.1882957,44.345492 C42.4900435,43.7478008 41.5169832,43.3820381 41.2159975,43.9721251 C37.3778577,51.5109423 33.2943574,58.9280922 28.9075854,66.1589388 C29.1224664,62.8632727 29.6154734,59.5858567 29.4592656,56.2727009 C29.4295481,55.6050509 28.4001006,55.7662602 28.4305802,56.4285872 C28.5921219,59.8459208 28.01682,63.228275 27.8347046,66.6326813 C27.8156549,66.9474958 28.0412037,67.133799 28.2850402,67.1786639 C24.8065594,72.852928 21.1421532,78.4161706 17.2346724,83.8136414 C16.8750135,84.9421066 16.3149514,86.0355925 15.8280403,87.0264216 C14.7338238,89.2574978 13.5062591,91.4764073 12.7450319,93.8474011 L9.53934318,93.9150786 C9.53858119,93.9074744 9.53248527,93.9021514 9.53172329,93.8937868 C7.95211961,83.5809524 10.3973431,73.5038487 11.2842985,63.2761815 C11.1037071,63.3643904 11.0016005,63.4084948 11.0016005,63.4084948 C11.0016005,63.4084948 10.1344568,62.9301898 8.89012835,61.9842256 C8.79106975,55.2256007 9.00137878,48.4738195 9.43418866,41.734205 C9.65668952,41.8376223 9.9477694,41.8140493 10.116169,41.5456205 C11.9258934,38.6560194 13.4049145,35.5580628 15.5041949,32.8540045 C15.9118591,32.3308346 15.1628237,31.6046322 14.7528735,32.1354063 C12.7168383,34.7565787 11.2332452,37.7184199 9.5096256,40.5411039 C10.0856895,32.1080311 11.0153163,23.6962502 12.2200213,15.3262923 C12.312984,14.6692883 11.3063962,14.4099846 11.2103856,15.073072 C9.7854657,24.9798414 8.72782465,34.952007 8.2005281,44.9492665 C7.39891543,43.4786116 6.63159227,42.0011129 6.22849997,40.3601237 C6.06619626,39.7084426 5.06951435,40.0065277 5.2287701,40.656688 C5.77587837,42.8672328 6.95619969,44.8078281 8.02298461,46.8008925 C8.04660627,46.8449969 8.07937181,46.8723721 8.10908939,46.9035494 C7.89420843,51.6462974 7.78524397,56.3913266 7.83705924,61.1401579 C4.01949319,57.9205339 -1.63675287,51.3041077 0.528058537,41.4870681 C3.70326766,27.0922919 4.92245043,29.6701203 4.77995844,19.6888296 C4.63746646,9.70449729 4.86682522,0.148282164 11.390215,0.00988547757 C17.9143668,-0.127750787 19.6928497,11.0937871 17.2781058,20.2621873 C14.8641239,29.4290667 19.6212227,35.5938026 20.1797608,44.9789229 C20.7703024,54.9130675 16.1183582,59.9318484 13.2159412,62.076997 C12.456238,72.2803307 9.96300919,82.347549 11.2180055,92.5949871 C11.7750196,91.0634985 12.4973854,89.5905624 13.2227991,88.129793 C13.8247706,86.920723 14.7094401,85.5032976 15.2573104,84.058497 C14.7833531,84.0387261 14.5143709,84.0113509 14.5143709,84.0113509 C14.5143709,84.0113509 8.68286728,74.8878155 17.621001,63.6655172 C23.4829841,56.3061594 30.9268569,53.9944785 34.2331282,45.1066737 C37.5386375,36.218869 45.4541816,28.0603083 50.7149552,31.9156445 C55.9726809,35.7740225 50.657044,43.7234673 44.789727,51.8105484 Z" id="Path"></path>
                        </g>
                    </g>
                </g>
            </g>
        </g>
    </g>
</svg>