<?xml version="1.0" encoding="UTF-8"?>
<svg width="451px" height="368px" viewBox="0 0 451 368" version="1.1" xmlns="http://www.w3.org/2000/svg" xmlns:xlink="http://www.w3.org/1999/xlink">
    <!-- Generator: Sketch 64 (93537) - https://sketch.com -->
    <title>Faq</title>
    <desc>Created with Sketch.</desc>
    <defs>
        <linearGradient x1="114.61726%" y1="-38.3069349%" x2="9.16449141%" y2="82.3598629%" id="linearGradient-1">
            <stop stop-color="#673AB7" offset="0%"></stop>
            <stop stop-color="#D1C4E9" offset="100%"></stop>
            <stop stop-color="#D1C4E9" offset="100%"></stop>
        </linearGradient>
        <linearGradient x1="14.7301578%" y1="0%" x2="85.2633243%" y2="103.697128%" id="linearGradient-2">
            <stop stop-color="#B2EBF2" offset="0%"></stop>
            <stop stop-color="#D1C4E9" offset="100%"></stop>
        </linearGradient>
        <linearGradient x1="113.59418%" y1="35.4167914%" x2="9.16449141%" y2="62.751664%" id="linearGradient-3">
            <stop stop-color="#00BCD4" offset="0%"></stop>
            <stop stop-color="#B2EBF2" offset="100%"></stop>
            <stop stop-color="#D1C4E9" offset="100%"></stop>
        </linearGradient>
        <linearGradient x1="113.59418%" y1="42.5517015%" x2="9.16449141%" y2="56.5128465%" id="linearGradient-4">
            <stop stop-color="#00BCD4" offset="0%"></stop>
            <stop stop-color="#B2EBF2" offset="100%"></stop>
            <stop stop-color="#D1C4E9" offset="100%"></stop>
        </linearGradient>
        <linearGradient x1="110.097119%" y1="-20.2172821%" x2="11.4100471%" y2="111.398504%" id="linearGradient-5">
            <stop stop-color="#00BCD4" offset="0%"></stop>
            <stop stop-color="#B2EBF2" offset="100%"></stop>
            <stop stop-color="#D1C4E9" offset="100%"></stop>
        </linearGradient>
        <linearGradient x1="113.59418%" y1="-13.3972142%" x2="9.16449141%" y2="105.434987%" id="linearGradient-6">
            <stop stop-color="#00BCD4" offset="0%"></stop>
            <stop stop-color="#B2EBF2" offset="100%"></stop>
            <stop stop-color="#D1C4E9" offset="100%"></stop>
        </linearGradient>
        <linearGradient x1="73.7333696%" y1="-20.2172821%" x2="34.7601744%" y2="111.398504%" id="linearGradient-7">
            <stop stop-color="#00BCD4" offset="0%"></stop>
            <stop stop-color="#B2EBF2" offset="100%"></stop>
            <stop stop-color="#D1C4E9" offset="100%"></stop>
        </linearGradient>
        <linearGradient x1="135.672195%" y1="28.646546%" x2="56.6284111%" y2="46.9584324%" id="linearGradient-8">
            <stop stop-color="#00BCD4" offset="0%"></stop>
            <stop stop-color="#673AB7" offset="100%"></stop>
        </linearGradient>
        <linearGradient x1="113.304773%" y1="-20.2172821%" x2="9.35032741%" y2="111.398504%" id="linearGradient-9">
            <stop stop-color="#673AB7" offset="0%"></stop>
            <stop stop-color="#D1C4E9" offset="100%"></stop>
            <stop stop-color="#D1C4E9" offset="100%"></stop>
        </linearGradient>
        <linearGradient x1="113.59418%" y1="33.9240899%" x2="9.16449141%" y2="64.0568931%" id="linearGradient-10">
            <stop stop-color="#673AB7" offset="0%"></stop>
            <stop stop-color="#D1C4E9" offset="100%"></stop>
            <stop stop-color="#D1C4E9" offset="100%"></stop>
        </linearGradient>
        <linearGradient x1="67.0296942%" y1="-20.2172821%" x2="39.064782%" y2="111.398504%" id="linearGradient-11">
            <stop stop-color="#673AB7" offset="0%"></stop>
            <stop stop-color="#D1C4E9" offset="100%"></stop>
            <stop stop-color="#D1C4E9" offset="100%"></stop>
        </linearGradient>
    </defs>
    <g id="Pricing" stroke="none" stroke-width="1" fill="none" fill-rule="evenodd">
        <g id="About" transform="translate(-133.000000, -1421.000000)">
            <g id="Faq" transform="translate(133.000000, 1421.000000)">
                <g id="Group-4" transform="translate(0.000000, 258.000000)">
                    <g id="Group" transform="translate(240.500000, 13.500000) scale(-1, 1) rotate(-90.000000) translate(-240.500000, -13.500000) translate(227.000000, -181.000000)" fill="#F5F5F5">
                        <path d="M13.2568221,0.0849987356 C20.4492617,0.0849987356 26.2795294,86.9623688 26.2795294,194.130615 C26.2795294,301.298862 20.4492617,388.176232 13.2568221,388.176232 C6.06492078,388.176232 0.234653071,301.298862 0.234653071,194.130615 C0.234653071,86.9623688 6.06492078,0.0849987356 13.2568221,0.0849987356" id="Path"></path>
                    </g>
                    <g id="Group" transform="translate(195.500000, 38.000000) scale(-1, 1) rotate(-90.000000) translate(-195.500000, -38.000000) translate(175.000000, -157.000000)" fill="#F5F5F5">
                        <path d="M20.5001819,0.308594136 C31.6198051,0.308594136 40.6334102,87.539494 40.6334102,195.144104 C40.6334102,302.748713 31.6198051,389.979613 20.5001819,389.979613 C9.3805586,389.979613 0.366953584,302.748713 0.366953584,195.144104 C0.366953584,87.539494 9.3805586,0.308594136 20.5001819,0.308594136" id="Path"></path>
                    </g>
                    <g id="Group" transform="translate(255.500000, 89.000000) scale(-1, 1) rotate(-90.000000) translate(-255.500000, -89.000000) translate(235.000000, -106.000000)" fill="#E9F6FF">
                        <path d="M20.4493224,0.123437654 C31.5689457,0.123437654 40.5836445,87.3543375 40.5836445,194.958947 C40.5836445,302.563557 31.5689457,389.794457 20.4493224,389.794457 C9.32969916,389.794457 0.316094145,302.563557 0.316094145,194.958947 C0.316094145,87.3543375 9.32969916,0.123437654 20.4493224,0.123437654" id="Path"></path>
                    </g>
                </g>
                <g id="Group-5" transform="translate(199.000000, 0.000000)">
                    <g id="Group" transform="translate(42.500000, 60.500000) scale(-1, 1) rotate(-90.000000) translate(-42.500000, -60.500000) translate(35.000000, 53.000000)" fill="#B2EBF2">
                        <path d="M7.11102451,0.20398463 C11.002045,0.20398463 14.1569708,3.35891045 14.1569708,7.25047781 C14.1569708,11.1420452 11.002045,14.296971 7.11102451,14.296971 C3.21945715,14.296971 0.063984455,11.1420452 0.063984455,7.25047781 C0.063984455,3.35891045 3.21945715,0.20398463 7.11102451,0.20398463" id="Path"></path>
                    </g>
                    <g id="Group" transform="translate(42.000000, 10.000000)" fill="#006064">
                        <rect id="Rectangle" x="0.126041824" y="0.364358094" width="2.8765661" height="27.4926212"></rect>
                    </g>
                    <g id="Group" transform="translate(42.806931, 60.685503) scale(-1, 1) rotate(35.976483) translate(-42.806931, -60.685503) translate(8.306931, 35.685503)" fill="url(#linearGradient-1)">
                        <polygon id="Path" points="26.5335199 0.352850637 68.0705159 0.352850637 0.367712025 49.503708 13.2355568 10.0069519"></polygon>
                    </g>
                    <g id="Group" transform="translate(3.000000, 0.000000)" fill="#006064">
                        <rect id="Rectangle" x="0.449583895" y="0.395833828" width="79.0786731" height="9.34792835"></rect>
                    </g>
                </g>
                <g id="Group-6" transform="translate(117.000000, 79.000000)">
                    <g id="Group" transform="translate(190.000000, 148.000000)" fill="#3CB6D5">
                        <path d="M29.2578491,42.8334285 C28.000035,36.8507127 26.4906581,29.372995 22.4601843,24.3869472 C21.9570587,27.3785759 21.2023703,30.369663 20.6992446,33.3612917 C20.4476818,35.3557109 20.6992446,37.5987553 20.4476818,39.5937162 C18.4351793,31.8657482 15.9195511,25.3841567 11.8890774,18.4042313 C8.61876077,12.6717658 5.600007,4.69463087 0.568750711,0.206916925 C-0.442969304,6.68905003 0.065625082,14.6651017 1.07187634,21.1461514 C2.32969041,30.369663 3.58750448,39.3440075 4.84531856,48.567519 C6.60625826,62.2776612 10.3797005,75.2397607 14.6617371,88.4515689 C15.4164255,91.1929473 16.4226768,95.6806613 17.6804909,99.9181249 L32.5281657,99.9181249 C32.7797285,98.4220397 32.7797285,96.9270378 33.0312913,95.6806613 C34.5406682,86.4566081 35.0437938,76.4861373 33.7859797,67.2620841 C32.2766028,59.2860324 31.2703516,51.0591888 29.2578491,42.8334285" id="Path"></path>
                    </g>
                    <g id="Group" fill="url(#linearGradient-2)">
                        <path d="M217.858606,0.0872084423 L32.3960405,0.0872084423 C14.69706,0.0872084423 0.239416966,14.5453932 0.239416966,32.2443736 L0.239416966,217.706397 C0.239416966,235.404836 14.69706,249.862479 32.3960405,249.862479 L217.858606,249.862479 C235.554878,249.862479 250.011979,235.404836 250.011979,217.706397 L250.011979,32.2443736 C250.011979,14.5453932 235.554878,0.0872084423 217.858606,0.0872084423" id="Path"></path>
                    </g>
                    <g id="Group" transform="translate(127.000000, 11.000000)" fill="#B2EBF2">
                        <path d="M81.8458409,0.509006318 L0.121449015,0.509006318 L0.121449015,112.540595 L111.657526,112.540595 L111.657526,30.0696967 C111.657526,13.6746194 98.2387592,0.509006318 81.8458409,0.509006318 L68,26" id="Path"></path>
                    </g>
                    <path d="M213.907954,11.0157221 L35.5729237,11.0157221 C21.6242038,11.0157221 10.4167351,22.2440008 10.4167351,36.21497 L10.4167351,214.853084 C10.4167351,228.825137 21.6242038,240.052332 35.5729237,240.052332 L213.907954,240.052332 C227.85505,240.052332 239.063602,228.825137 239.063602,214.853084 L239.063602,36.21497 C238.814643,22.2440008 227.606092,11.0157221 213.907954,11.0157221 Z M235.074851,213.605618 C235.074851,226.080278 225.111093,236.060549 212.657749,236.060549 L36.5687583,236.060549 C24.1154139,236.060549 14.1527384,226.080278 14.1527384,213.605618 L14.1527384,37.2135934 C14.1527384,24.7389329 24.1154139,14.7586624 36.5687583,14.7586624 L212.657749,14.7586624 C225.111093,14.7586624 235.074851,24.7389329 235.074851,37.2135934 L235.074851,213.605618 Z" id="Shape" fill="#FFFFFF"></path>
                    <g id="Group" transform="translate(236.987858, 120.422176) scale(-1, 1) rotate(28.884402) translate(-236.987858, -120.422176) translate(232.987858, 115.922176)" fill="#EE8800">
                        <path d="M3.89279567,0.277639183 C4.88287975,2.57834792 5.96493885,4.54033519 7.16602445,6.72092225 L3.89279567,8.52491165 C2.69171007,6.34432459 1.49062447,4.16427861 0.505950686,1.86302879 L3.89279567,0.277639183 Z" id="Path"></path>
                    </g>
                    <path d="M228.371199,75.7223236 C229.4749,78.5192123 230.584011,81.3166421 231.687712,83.761823 L228.371199,85.4078156 C227.088958,82.7894862 225.801307,79.819449 224.697606,77.0220192 L228.371199,75.7223236 Z" id="Path" fill="#00BCD4" transform="translate(228.192659, 80.565070) scale(-1, 1) rotate(46.047513) translate(-228.192659, -80.565070) "></path>
                    <path d="M234.938155,95.4688643 C235.966111,98.1137049 237.150966,100.958748 238.379103,103.45479 L234.938155,105.081302 C233.55853,102.384517 232.373676,99.5400142 231.194231,96.6949708 L234.938155,95.4688643 Z" id="Path" fill="#00BCD4" transform="translate(234.786667, 100.275083) scale(-1, 1) rotate(36.575900) translate(-234.786667, -100.275083) "></path>
                    <path d="M202.865413,41.5003133 L206.566058,41.5003133 C206.533596,44.4984869 206.663443,47.3121492 206.982651,50.2940902 L203.298237,50.6463391 C202.97903,47.6649392 202.827541,44.4984869 202.865413,41.5003133" id="Path" fill="#00BCD4" transform="translate(204.921181, 46.073326) scale(-1, 1) rotate(47.731044) translate(-204.921181, -46.073326) "></path>
                    <path d="M125.720834,13.9041715 C128.5974,13.9041715 131.473446,14.144276 134.109386,14.3833388 L134.349491,10.787501 C131.473446,10.5484382 128.5974,10.3083337 125.48073,10.3083337 L125.48073,13.9041715 L125.720834,13.9041715 Z" id="Path" fill="#00BCD4"></path>
                    <path d="M170.804393,17.4461846 C171.729554,20.2095247 172.903588,22.9788169 174.083033,25.5002904 L170.804393,27.1598096 C169.630358,24.3905174 168.456324,21.619602 167.28229,18.8497687 L170.804393,17.4461846 Z" id="Path" fill="#00BCD4" transform="translate(170.682661, 22.302997) scale(-1, 1) rotate(88.534300) translate(-170.682661, -22.302997) "></path>
                    <path d="M150.915534,10.7475254 C151.835284,13.3761331 153.041779,16.2108954 154.204993,18.8000036 L150.915534,20.3280374 C149.714449,17.493275 148.510117,14.6579716 147.552495,11.7842509 L150.915534,10.7475254 Z" id="Path" fill="#00BCD4" transform="translate(150.878744, 15.537781) scale(-1, 1) rotate(98.974685) translate(-150.878744, -15.537781) "></path>
                    <path d="M189.093657,27.5814272 C190.040458,30.3263696 191.236134,33.1216332 192.480501,35.6739481 L189.093657,37.2512213 C187.903392,34.4554166 186.707716,31.6596119 185.517451,28.863266 L189.093657,27.5814272 Z" id="Path" fill="#00BCD4" transform="translate(188.998976, 32.416324) scale(-1, 1) rotate(78.109203) translate(-188.998976, -32.416324) "></path>
                    <path d="M218.392447,57.3074652 C219.350069,59.9809838 220.513283,62.7881513 221.811754,65.3853764 L218.392447,67.0470594 C217.093976,64.4498343 215.930763,61.6421257 214.767549,58.8349583 L218.392447,57.3074652 Z" id="Path" fill="#00BCD4" transform="translate(218.289651, 62.177262) scale(-1, 1) rotate(57.529515) translate(-218.289651, -62.177262) "></path>
                    <path d="M125.393341,235.016093 C64.2669629,235.016093 14.8670905,185.366836 14.8670905,124.490927 C14.8670905,63.6144752 64.0175781,14.2140607 124.644645,13.965218 L124.644645,10.2222777 C62.0219577,10.7210473 11.1252345,61.8676974 11.1252345,124.490927 C11.1252345,187.612926 62.5207273,238.759034 125.393341,238.759034 C188.263787,238.759034 239.409353,187.86231 239.664159,125.239623 L235.917966,125.239623 C235.668581,185.86669 186.019324,235.016093 125.393341,235.016093" id="Path" fill="#FFFFFF"></path>
                    <g id="Group" transform="translate(64.000000, 44.000000)" fill="#FFFFFF">
                        <path d="M80.8366896,113.556678 L35.4557735,113.556678 L35.4557735,106.809137 C35.4557735,101.100178 35.9766075,94.82978 37.9443834,89.4277485 C39.61702,84.8362649 42.0643972,80.6884212 45.2800045,76.995565 C47.5673338,74.3693898 50.3125629,71.8637161 52.9004568,69.5342015 C57.1886566,65.6727514 61.6238835,61.9469329 66.0791842,58.2794739 C68.820073,56.0239893 73.5395885,51.6805334 73.5395885,47.7769347 C73.5395885,45.1842622 72.9384592,42.6829114 70.9869594,40.8613401 C68.8336364,38.8517217 65.3793135,38.40538 62.5586719,38.40538 C58.50539,38.40538 55.034791,39.6266055 52.1642362,42.5013487 C48.5742795,46.0963988 47.2526632,53.1281719 46.7009047,57.9466089 L46.3835215,60.719223 L0.421007471,55.0270154 L0.67111629,52.3592321 C2.02745479,37.9136477 7.21463575,24.9194843 17.8022141,14.7919586 C29.7504712,3.36269301 47.2863004,0.429590381 63.2373837,0.429590381 C76.6005732,0.429590381 90.4080991,2.82286811 101.660283,10.4041927 C114.63773,19.1467622 121.956533,31.1931249 121.956533,46.9231576 C121.956533,53.5642466 120.030532,59.7438637 116.639686,65.445798 C114.545499,68.9646565 111.632084,72.2376489 108.751221,75.1296838 C104.74731,79.139194 100.347348,82.8455593 95.893132,86.3460454 C92.1062349,89.3245387 85.6147989,94.6347081 83.2878645,98.9095377 C81.3607788,102.450011 80.8366896,106.825348 80.8366896,110.794331 L80.8366896,113.556678 Z M34.0983499,118.493455 L82.3015352,118.493455 L82.3015352,161.380085 L34.0983499,161.380085 L34.0983499,118.493455 Z" id="Shape"></path>
                    </g>
                    <g id="Group" transform="translate(67.000000, 47.000000)" fill="#673AB7" fill-rule="nonzero">
                        <path d="M74.8085788,108.092505 L34.9740021,108.092505 L34.9740021,104.107311 C34.9740021,97.346261 35.7601358,91.8664169 37.2960536,87.6677789 C38.8325138,83.4334767 41.0829507,79.5909393 44.1200638,76.103422 C47.1566345,72.6164449 53.9801022,66.496268 64.5910096,57.7066867 C70.2355479,53.1168242 73.057817,48.882522 73.057817,45.0751084 C73.057817,41.2320307 71.9146949,38.2432705 69.6284508,36.1439514 C67.3774714,34.0089683 63.9117552,32.9412065 59.3034595,32.9412065 C54.3018257,32.9412065 50.1932051,34.5779729 46.942333,37.852046 C43.6914609,41.0899146 41.6189756,46.8188671 40.690155,54.9319111 L0.177409076,49.9146197 C1.57063998,35.07673 7.00087681,23.1206083 16.4681195,14.082459 C25.9353623,5.00864558 40.4400462,0.489570924 59.9821713,0.489570924 C75.2013744,0.489570924 87.4892587,3.65665171 96.8534197,9.9902729 C109.570449,18.5302055 115.928964,29.9524463 115.928964,44.2213313 C115.928964,50.128064 114.285082,55.820812 110.997318,61.3368605 C107.747531,66.8161642 101.030942,73.5415503 90.9235078,81.4768141 C83.8813983,87.027446 79.4168744,91.5108566 77.5950406,94.8913816 C75.7373994,98.2719067 74.8085788,102.648325 74.8085788,108.092505 Z M33.6165785,118.553976 L76.2728818,118.553976 L76.2728818,155.915911 L33.6165785,155.915911 L33.6165785,118.553976 Z" id="Shape"></path>
                    </g>
                    <g id="Group" transform="translate(181.000000, 102.000000)" fill="#FFD8D8">
                        <path d="M0.765625957,0.40520884 C0.526042324,0.165104373 0.0468750586,0.40520884 0.0468750586,0.884376105 C0.0468750586,1.84271064 2.92187865,4.7187559 2.92187865,4.7187559 C3.16146229,4.9593812 3.64062955,4.9593812 4.11979682,4.7187559 C4.35938045,4.4796931 4.35938045,4.00052583 4.11979682,3.52083773 L0.765625957,0.40520884 Z" id="Path"></path>
                    </g>
                    <g id="Group" transform="translate(123.000000, 13.000000)" fill="#00BCD4">
                        <polygon id="Path" points="4.14815859 0.0221307095 0.4221028 0.0221307095 0.4221028 113.542954 113.444176 113.542954 113.444176 109.817438 4.14815859 109.817438"></polygon>
                    </g>
                </g>
                <g id="Group-3" transform="translate(299.000000, 182.543472)">
                    <path d="M54.2945741,30.7906774 C49.011755,27.770283 26.611727,23.9962939 23.8445361,23.4920746 C20.0656251,22.9889489 19.3164054,29.2807537 20.5742195,30.7906774 C22.0835964,32.552164 26.1086014,34.81787 32.9062661,36.5793566 C38.1890852,37.8377175 48.5086294,42.6195985 52.0305088,38.5924059 C54.2945741,36.0762309 59.8344248,33.810525 54.2945741,30.7906774" id="Path" fill="url(#linearGradient-3)" fill-rule="nonzero"></path>
                    <path d="M43.0993344,34.7216371 C37.9003696,33.5231981 36.9100906,31.8455919 27.7446277,30.6471529 C25.0213604,30.1679856 19.5694439,30.6471529 20.5651049,31.8455919 C22.0505234,33.5231981 27.7446277,35.6804925 32.7014048,37.119036 C41.6139159,39.515914 46.3231232,41.6726875 49.54153,39.035705 C51.522088,37.119036 50.7793788,36.6393479 43.0993344,34.7216371" id="Path" fill="url(#linearGradient-4)" fill-rule="nonzero"></path>
                    <g id="Group" transform="translate(1.000000, 0.456528)" fill="#FFD8D8">
                        <path d="M8.07292676,7.58735323 C7.35417586,5.82586666 5.91667406,4.06328633 4.71354756,3.05703507 C3.99479666,2.30179975 2.55729486,1.29554849 2.0781276,0.540313175 C1.59896033,0.0371875465 0.880209434,1.29554849 1.3593767,2.05078381 C0.880209434,2.30179975 0.401042168,3.30914476 0.880209434,3.81227039 C0.401042168,4.31539602 0.161458535,5.32164728 0.640625801,5.82586666 C-0.0781250977,6.32899229 0.161458535,7.33524354 0.880209434,8.09102574 C1.83854396,8.84626106 2.55729486,10.1035283 4.95313119,12.1171245 C5.43229846,12.3692342 5.91667406,13.3754855 6.39584133,13.6275952 C6.86980025,12.6202502 9.27084492,10.1035283 9.98959582,9.60040263 C9.51042855,9.097277 8.31251039,8.34204168 8.07292676,7.58735323" id="Path"></path>
                    </g>
                    <g id="Group" transform="translate(1.000000, 3.456528)" fill="#FFD8D8">
                        <path d="M2.03646088,0.183333562 C2.03646088,1.38177256 1.07812635,3.77917139 0.119791816,4.49844312 C0.598959082,4.73750592 0.838542715,5.21667319 1.55729361,5.69688212 C2.27604451,6.41511219 3.23437904,6.65521665 4.19271357,6.17604939 C4.43229721,5.93594492 4.91146447,5.93594492 5.39584008,5.93594492 C6.10938264,5.69688212 6.59375824,4.73750592 6.10938264,4.01823419 C5.15104811,2.10104429 2.03646088,-0.53593817 2.03646088,0.183333562" id="Path"></path>
                    </g>
                    <g id="Group" transform="translate(5.000000, 8.456528)" fill="url(#linearGradient-5)" fill-rule="nonzero">
                        <path d="M16.8724169,11.990449 C13.6540101,9.26664353 4.73611703,0.349826826 4.73611703,0.349826826 C4.73611703,0.349826826 2.50798925,2.33092305 0.0269097559,5.79905239 C0.0269097559,5.79905239 10.6777911,17.9348141 14.6389072,21.8986211 C20.5859632,28.0894796 24.0519398,21.1553737 23.3092305,18.6780615 C22.5665213,15.9542561 18.852975,13.7245137 16.8724169,11.990449" id="Path"></path>
                    </g>
                    <path d="M7.3034751,11.9688894 C6.80833559,12.7121369 6.06024438,13.4543079 5.31753512,14.4456633 C5.31753512,14.4456633 15.9684165,26.581425 19.9349145,30.5446939 C24.8863096,35.4977035 28.1047164,33.7641771 28.1047164,30.2971241 C24.1436003,27.3246725 19.434393,25.3430381 13.9878585,20.1419205 C12.2548702,18.6565019 9.28403313,13.2072764 7.3034751,11.9688894" id="Path" fill="url(#linearGradient-6)" fill-rule="nonzero"></path>
                    <g id="Group" transform="translate(58.000000, 151.456528)" fill="#FFD8D8">
                        <path d="M19.4633056,1.40382988 C19.4633056,1.15281394 13.1742352,-0.609766387 13.1742352,1.40382988 C13.1742352,3.16531646 13.425798,5.93469492 11.9164211,7.44407181 C10.1500127,8.95454244 3.3578167,12.4780625 0.339062924,12.9811881 C0.0875001094,13.4843137 0.590625738,13.7364234 1.09375137,13.9874394 C3.3578167,14.7426747 5.87344484,14.490565 8.13751017,14.239549 C10.9047011,13.9874394 13.6773608,13.7364234 16.4445518,13.7364234 C17.7023659,13.7364234 19.2117428,13.7364234 19.7148684,12.4780625 C20.217994,11.7228272 19.9664312,10.716029 19.9664312,9.70868401 C19.7148684,6.94094618 19.9664312,4.17266147 19.4633056,1.40382988" id="Path"></path>
                    </g>
                    <g id="Group" transform="translate(66.000000, 152.456528)" fill="#FFD8D8">
                        <path d="M10.7132946,0.900704251 C10.7132946,0.649688312 9.20391775,0.145468932 7.69454087,0.145468932 C7.69454087,0.397578622 7.94610368,0.649688312 7.94610368,0.649688312 C10.4617318,6.68993024 5.17891272,11.2191546 0.142187678,13.4843137 C2.66328458,13.2332978 5.17891272,12.9811881 7.69454087,12.9811881 C8.95235494,12.9811881 10.4617318,12.9811881 10.9648575,11.7228272 C11.4679831,10.967045 11.2164203,9.9607937 11.2164203,8.95454244 C10.9648575,6.43782055 11.2164203,3.66953584 10.7132946,0.900704251" id="Path"></path>
                    </g>
                    <g id="Group" transform="translate(56.000000, 160.456528)" fill="#00BCD4">
                        <path d="M21.2640891,0.502604795 C20.5213798,0.0234375293 15.8175545,3.61875452 10.1180682,3.61875452 C10.1180682,2.89948279 9.37535894,1.70104379 8.63264968,1.94114826 C6.15695214,2.66041999 1.94826632,4.33802626 1.44774487,4.33802626 C-0.0376736582,5.05729799 0.462847801,7.45365515 1.44774487,7.45365515 L10.1180682,7.45365515 C11.8564384,7.45365515 14.332136,6.01615335 17.0554033,6.01615335 C20.0262403,6.01615335 20.7689496,6.01615335 21.2640891,5.77604889 C23.7451686,4.81719352 22.7495076,1.46198099 21.2640891,0.502604795" id="Path"></path>
                    </g>
                    <g id="Group" transform="translate(56.000000, 161.456528)" fill="#006064">
                        <path d="M16.5602638,3.41979594 C14.5797057,3.41979594 8.38507993,4.13906767 7.39480091,4.61823494 C5.90938239,5.09740221 4.17639411,5.09740221 2.93854534,4.61823494 C2.19583608,4.37917214 1.70069657,4.13906767 0.957987309,3.65937957 C-0.0376736582,4.61823494 0.705035604,6.53594567 1.44774487,6.53594567 L10.1180682,6.53594567 C11.8564384,6.53594567 14.332136,5.09740221 17.0554033,5.09740221 C20.0262403,5.09740221 20.7689496,5.09740221 21.2640891,4.85833941 C23.4922169,3.89948404 23.2446471,1.74166884 22.2543681,0.304167047 C21.0165193,2.22083611 19.0359613,3.18021231 16.5602638,3.41979594" id="Path"></path>
                    </g>
                    <path d="M72.2031253,168.115907 L77.4739652,168.115907 L78.6718833,164.760695 L72.4427089,166.438301 C72.6822925,167.157573 72.2031253,168.115907 72.2031253,168.115907" id="Path" fill="#006064"></path>
                    <g id="Group" transform="translate(12.000000, 151.456528)" fill="#FFD8D8">
                        <path d="M16.6033194,0.769454087 C15.8606101,2.27937785 14.8703311,5.04820944 12.8897731,5.55133506 C10.6616453,6.30547663 3.2291707,6.55758632 0.258333656,5.55133506 C0.0107639023,5.802351 0.258333656,6.55758632 0.50590341,6.80969601 C2.23889169,8.57118259 4.46701947,9.32587103 6.69514726,10.0811064 C9.17622675,11.0884514 11.6519243,12.0947026 14.1276218,13.3530636 C15.1179008,13.8561892 16.6033194,14.3593148 17.5935984,13.6040795 C18.3363076,13.1009539 18.5892593,12.0947026 18.8314472,11.3394673 C19.8271081,8.8227454 21.0595749,6.30547663 22.0552359,3.5377388 C22.3028057,3.28562911 17.5935984,-0.99203249 16.6033194,0.769454087" id="Path"></path>
                    </g>
                    <g id="Group" transform="translate(19.000000, 152.456528)" fill="#FFD8D8">
                        <path d="M13.2890791,0.396484871 L13.2890791,1.15172019 C13.0375163,7.69508774 6.23985155,9.45657432 0.448438061,9.45657432 C2.96953496,10.4639193 5.23360029,11.2186078 7.49766562,12.4769687 C8.50391688,12.9811881 10.0132938,13.4843137 11.019545,12.7290784 C11.7797022,12.2259528 12.0257963,11.2186078 12.2773591,10.4639193 C13.2890791,7.94719743 14.5468932,5.43047554 15.5531444,2.66219083 C15.5531444,2.15797145 14.5468932,1.15172019 13.2890791,0.396484871" id="Path"></path>
                    </g>
                    <path d="M20.3333462,158.751844 C20.586298,158.032573 20.586298,156.834134 19.590637,156.594029 C17.1149394,156.354966 12.4111141,155.875799 11.9159746,155.875799 C10.1829863,155.875799 9.68784683,158.271635 10.4305561,158.751844 C11.1732654,158.991428 15.6295209,161.148201 18.1052185,162.34664 C19.590637,163.065912 22.566856,162.825808 25.0425535,164.024247 C27.7658208,165.223207 28.5085301,165.46279 29.0036696,165.46279 C31.9798886,165.46279 32.4750281,162.34664 31.7323188,160.669034 C31.4793671,159.949762 25.2901233,161.148201 20.3333462,158.751844" id="Path" fill="#00BCD4"></path>
                    <path d="M25.7852628,163.065911 C24.0522745,162.347681 18.1052185,160.429449 17.1149394,160.189866 C15.6295209,159.950282 14.1441024,159.23101 12.9062536,158.272676 C12.4111141,157.792467 11.9159746,157.3133 11.6684049,156.595069 C10.4305561,157.074237 10.1829863,158.990906 10.6781258,159.23101 L18.3527882,162.826848 C19.8435887,163.545078 22.8144257,163.306015 25.2901233,164.504454 C28.0133906,165.702893 28.7560998,165.941956 29.2512393,165.941956 C31.7323188,165.941956 32.4750281,164.025287 32.2274583,162.347681 C30.2415184,163.785183 28.0133906,164.025287 25.7852628,163.065911" id="Path" fill="#006064"></path>
                    <path d="M23.8014189,163.453964 L29.265815,163.453964 L30.7374147,166.84767 L24.3262174,165.326671 C24.2775247,164.214193 23.8014189,163.453964 23.8014189,163.453964" id="Path" fill="#006064" transform="translate(27.269417, 165.150817) scale(-1, 1) rotate(155.776996) translate(-27.269417, -165.150817) "></path>
                    <path d="M49.4880398,71.3900666 C51.8848004,87.5269504 56.4673203,144.387782 58.8586707,156.757607 C57.0191704,159.277997 53.123758,160.273059 49.4880398,159.292607 C47.567385,154.771271 33.1164872,90.8373301 30.6548029,75.1928369 C30.9686,74.7318295 44.7323905,71.2672395 49.4880398,71.3900666" id="Path" fill="#006064" fill-rule="nonzero" transform="translate(44.756737, 115.525812) scale(-1, 1) rotate(-7.487565) translate(-44.756737, -115.525812) "></path>
                    <path d="M75.265132,78.9873824 C71.5515857,78.2422187 55.201218,76.5006215 53.4682298,79.7336268 C50.7449625,84.7076891 67.3375179,152.34737 69.0758882,157.818028 C72.294295,159.061949 76.5029808,158.315704 78.235969,157.320892 C77.7408295,143.146571 75.0175622,131.956687 74.7699925,119.77091 C74.0272832,105.34748 75.7602715,90.1783469 75.265132,78.9873824" id="Path" fill="#006064" fill-rule="nonzero"></path>
                    <g id="Group" transform="translate(42.000000, 27.456528)" fill="url(#linearGradient-7)" fill-rule="nonzero">
                        <path d="M33.8133235,16.9563754 C33.8133235,9.77362333 29.5367557,0.362205314 18.4625231,0.362205314 C13.6828296,0.362205314 5.37578797,-0.381580338 2.60859701,6.05900063 C1.34531418,9.03091407 -0.41562552,53.1171671 0.0875001094,54.3555541 C1.09375137,56.8328662 33.5617607,56.5852964 34.0648863,54.8506936 C34.3164491,52.8701355 33.5617607,24.8823749 33.8133235,16.9563754" id="Path"></path>
                    </g>
                    <g id="Group" transform="translate(47.000000, 35.456528)" fill="#00BCD4" fill-rule="nonzero">
                        <path d="M0.446701947,25.859199 C-0.296007314,29.5738217 4.90295752,29.8219296 6.63594579,29.3267901 C8.86407358,28.5835427 12.5830018,25.859199 16.5441179,19.9153721 C23.481453,9.76016845 25.2144412,6.78825501 25.2144412,6.78825501 L15.5538389,0.348750436 C15.3062691,0.348750436 1.18941121,22.1440381 0.446701947,25.859199" id="Path"></path>
                    </g>
                    <path d="M48.113021,63.5121344 C49.5984395,64.7499832 52.3217068,64.7499832 53.3119858,64.5024134 C55.5454955,63.7591659 59.2590419,61.0353605 63.2201579,55.0909954 C70.157493,44.9363299 71.8904813,41.9638783 71.8904813,41.9638783 L70.9002022,36.5146527 C69.167214,44.1930825 57.2784838,58.3104786 48.113021,63.5121344" id="Path" fill="#00BCD4" fill-rule="nonzero"></path>
                    <g id="Group" transform="translate(62.063490, 25.575734) scale(-1, 1) rotate(49.401297) translate(-62.063490, -25.575734) translate(54.063490, 20.075734)" fill="#FFD8D8" fill-rule="nonzero">
                        <path d="M8.36720552,0.487805023 C10.4231179,1.92006658 13.4420628,-0.0787147552 15.5250266,1.70309005 C17.4132198,3.32365044 11.0128401,11.9399455 8.36720552,9.67170205 C5.5592621,7.59175742 0.484404808,3.56768141 0.484404808,3.56768141 C0.484404808,3.56768141 6.31670348,-0.943374359 8.36720552,0.487805023" id="Path"></path>
                    </g>
                    <g id="Group" transform="translate(48.000000, 4.456528)" fill="#FFD8D8" fill-rule="nonzero">
                        <path d="M15.4218943,2.34599252 C14.415643,1.10706736 12.6547033,0.363819899 10.8937636,0.11571195 C9.12735516,-0.130781413 7.36641546,0.11571195 5.85703857,0.363819899 C4.5992245,0.611389653 3.59297324,1.10706736 2.8382848,2.34599252 C1.0773451,5.81304546 0.825782282,9.52766816 0.322656653,13.2428291 C0.0710938389,14.9768937 -0.180468976,16.9585281 0.574219468,18.6920546 C1.58047073,21.4163983 5.10235013,23.6461407 7.86954109,22.6547853 C14.415643,20.673689 16.9312712,14.4817542 16.9312712,13.7385068 C16.9312712,11.7574105 17.182834,9.77577611 17.182834,7.79414169 C17.4343968,6.06007702 16.9312712,3.83141104 15.4218943,2.34599252" id="Path"></path>
                    </g>
                    <g id="Group" transform="translate(51.000000, 4.456528)" fill="#FFD8D8" fill-rule="nonzero">
                        <path d="M10.4672006,0.569410434 C8.9578237,0.322378875 4.67578709,0.817518383 3.66953584,5.02781878 C3.66953584,5.27592673 3.41797302,7.25702296 3.16641021,7.50513091 C2.91484739,8.74351787 0.650782063,10.7240759 0.399219249,12.2105708 C-0.10390638,14.6878829 1.15390769,19.8890006 2.91484739,21.3744191 C3.66953584,22.1176665 4.42422428,22.3657745 5.17891272,22.612806 L5.68203835,22.612806 C12.2281403,20.632248 14.7437684,14.1927434 14.7437684,13.6965275 C14.7437684,11.7154313 14.9953312,9.73379689 14.9953312,7.75216247 C14.9953312,5.77106624 14.4922056,3.78943182 13.2343915,2.3040133 C12.7312659,1.56076584 11.7250147,0.817518383 10.4672006,0.569410434" id="Path"></path>
                    </g>
                    <g id="Group" transform="translate(49.000000, 2.456528)" fill="#212121" fill-rule="nonzero">
                        <path d="M10.3031379,0.560547576 C4.26016158,-0.194687743 1.74453343,3.83250479 0.235156544,4.08352073 C4.7632872,7.35547794 11.8125148,5.59399137 11.8125148,6.85235232 C11.0578263,14.1509552 13.5734545,14.4019711 14.0765801,15.660879 C14.5797057,17.1713496 16.3406454,18.9328362 16.8437711,19.1838521 C21.1258077,7.60758763 17.3468967,1.56789258 10.3031379,0.560547576" id="Path"></path>
                    </g>
                    <g id="Group" transform="translate(57.199010, 4.500000) scale(-1, 1) rotate(-80.339720) translate(-57.199010, -4.500000) translate(54.199010, -2.000000)" fill="#212121" fill-rule="nonzero">
                        <path d="M3.17588735,1.09124929 C3.58706983,2.03057913 3.96038023,2.725878 4.41484506,3.91140317 C5.94595874,8.45005451 4.15515087,11.2810302 3.17588735,12.9632747 C3.17588735,12.9632747 -0.23800922,7.73419427 0.0270952686,1.88015649 C-0.265060698,0.161659038 2.14793117,-0.501715609 3.17588735,1.09124929" id="Path"></path>
                    </g>
                    <g id="Group" transform="translate(59.000000, 13.456528)" fill="#FFD8D8" fill-rule="nonzero">
                        <path d="M3.11458723,0.449479729 C0.718750898,1.16875146 -1.67708543,4.52448482 1.67708543,5.96302829 C2.63541996,6.44219555 3.83333812,6.20209109 4.79167266,5.72292382 C5.51042355,5.24375655 5.98959082,4.52448482 6.22917445,3.80521309 C6.46875809,2.84635772 6.70834172,1.64791873 5.75000719,0.928646994 C5.03125629,0.21041693 4.07292176,0.21041693 3.11458723,0.449479729" id="Path"></path>
                    </g>
                    <g id="Group" transform="translate(62.543566, 16.209498) scale(-1, 1) rotate(33.684951) translate(-62.543566, -16.209498) translate(61.043566, 14.709498)" fill="#FFD8D8" fill-rule="nonzero">
                        <path d="M2.79859298,0.227404941 C2.79859298,0.227404941 2.31707654,0.849115915 2.38200011,1.40156753 C2.45233397,1.95401914 2.79859298,2.92040365 2.79859298,2.92040365 C2.79859298,2.92040365 -0.241993932,2.85114429 0.244932797,1.33176708 C0.380190222,-0.256328402 2.79859298,0.227404941 2.79859298,0.227404941" id="Path"></path>
                    </g>
                    <g id="Group" transform="translate(46.000000, 9.456528)" fill="#212121" fill-rule="nonzero">
                        <path d="M10.0570438,10.9043713 C10.0570438,9.91355406 9.30782413,8.67516709 7.79297849,8.18002759 C6.53516442,7.93191964 3.51641065,7.18974857 2.7617222,7.68488808 C1.50390813,8.92327504 2.25859657,10.161662 1.75547094,11.1524792 C1.0007825,13.3811452 -0.00546875684,14.3725006 0.246094058,15.8579191 C1.0007825,20.0687577 6.78672723,23.2887791 12.0750151,20.3168657 C17.1062714,17.3449522 14.8422061,11.4005872 14.5906432,9.6665225 C13.8359548,5.95136161 17.3578342,2.73080202 17.3578342,2.73080202 L15.5968945,0.502136044 C15.5968945,0.750243993 12.5781407,10.4092318 10.0570438,10.9043713" id="Path"></path>
                    </g>
                    <g id="Group" transform="translate(58.000000, 13.456528)" fill="#212121">
                        <path d="M0.32291707,6.00469501 C1.2812516,6.72396674 2.7187534,0.492188115 2.7187534,0.252083648 C2.0000025,1.92968991 1.2812516,4.08750511 0.32291707,5.28594411 C0.0833334375,5.52552774 0.0833334375,5.76511137 0.32291707,6.00469501" id="Path"></path>
                    </g>
                    <g id="Group" transform="translate(46.000000, 16.456528)" fill="#212121">
                        <path d="M1.75547094,9.02454253 C1.50390813,7.76618158 2.00703376,5.75258532 2.7617222,5.50156938 C3.01328502,5.24945969 6.78672723,5.50156938 6.78672723,4.24320843 C6.78672723,3.23586342 4.77422472,3.73898905 3.76797346,2.48117498 C3.26484783,1.9769556 3.76797346,0.970704338 4.27109909,0.215469019 C3.51641065,0.215469019 3.01328502,0.215469019 2.7617222,0.467578709 C1.50390813,1.72593966 2.25859657,2.98430061 1.75547094,3.99109874 C1.0007825,6.25571094 -0.00546875684,7.26305595 0.246094058,8.77243284 C1.0007825,13.0511882 6.53516442,16.0710357 11.3148579,13.5543138 C7.03829005,15.0647845 2.51015939,12.7990785 1.75547094,9.02454253" id="Path"></path>
                    </g>
                    <g id="Group" transform="translate(47.000000, 23.456528)" fill="#FFD8D8">
                        <path d="M6.66146666,0.833438542 C6.18229939,0.0792969741 4.98438123,0.582422603 4.98438123,1.84078355 C4.50521396,1.58867386 3.54687943,2.09179949 3.54687943,2.84703481 C2.82812854,2.84703481 1.869794,3.60227013 1.869794,4.10539576 C0.911459473,4.10539576 0.432292207,4.86063108 0.432292207,6.1195389 C0.67187584,7.62891579 0.432292207,9.13938642 0.67187584,12.9139224 C0.67187584,13.4175949 0.432292207,19.4578368 0.432292207,19.9609625 C1.63021037,19.7093996 5.4635485,18.9536174 6.66146666,19.2057271 C6.66146666,18.4504918 6.42188303,12.9139224 6.66146666,11.9071243 C7.38021756,9.89352799 7.38021756,7.12579016 7.38021756,5.36430358 C7.38021756,4.10539576 7.14063393,1.58867386 6.66146666,0.833438542" id="Path"></path>
                    </g>
                    <g id="Group" transform="translate(50.000000, 23.456528)" fill="#FFD8D8">
                        <path d="M3.53646275,0.789688487 C3.05729549,0.0355469194 1.85937732,0.538672548 1.85937732,1.7970335 C1.38021006,1.54492381 0.901042793,1.7970335 0.421875527,2.30015913 C1.14062643,2.55117506 1.38021006,3.05539444 1.14062643,3.81008289 C0.66145916,5.57156946 1.85937732,10.1018876 2.09896096,13.122282 C2.33854459,15.3868942 2.57812822,17.4004905 2.57812822,19.4140868 L3.53646275,19.4140868 C3.53646275,18.6588514 3.29687912,13.122282 3.53646275,12.1154839 C4.25521365,10.1018876 4.25521365,7.33414979 4.25521365,5.57156946 C4.25521365,4.06219258 4.01563002,1.54492381 3.53646275,0.789688487" id="Path"></path>
                    </g>
                    <g id="Group" transform="translate(48.000000, 22.456528)" fill="#FFD8D8">
                        <path d="M5.14063143,1.82396061 L1.3072933,0.14635435 C0.828126035,-0.0937501172 0.588542402,0.14635435 0.34895877,0.625521615 C0.109375137,1.10468888 0.828126035,1.82396061 1.06770967,1.82396061 L4.66146416,3.02239961 C5.14063143,3.26146241 5.38021506,3.02239961 5.61979869,2.54323235 C5.85938232,2.30312788 5.61979869,2.06302341 5.14063143,1.82396061" id="Path"></path>
                    </g>
                    <path d="M53.421883,36.9190282 C50.7864631,36.439861 48.3906267,36.9190282 47.6718758,37.1591327 C47.6718758,37.1591327 47.4322922,37.1591327 47.4322922,37.3987163 C47.1927086,38.1179881 47.4322922,38.8372598 47.4322922,39.0763226 C47.4322922,39.3164271 47.6718758,39.3164271 47.6718758,39.3164271 C50.3072958,38.5971553 52.7031321,39.0763226 53.421883,39.0763226 C53.6614667,39.0763226 53.6614667,39.0763226 53.6614667,38.8372598 C53.9010503,38.3570509 53.6614667,37.6388208 53.421883,36.9190282 C53.6614667,37.1591327 53.6614667,37.1591327 53.421883,36.9190282" id="Path" fill="#F8BBD0"></path>
                    <g id="Group" transform="translate(0.000000, 6.456528)" fill="#FFD8D8">
                        <path d="M1.40104342,0.182812729 C1.16145979,-0.0567709043 0.921876152,-0.0567709043 0.68229252,0.182812729 C0.442708887,0.422917195 0.442708887,0.661979994 0.68229252,0.902084461 C0.68229252,0.902084461 2.35937795,3.05885799 3.07812885,3.29896246 C3.31771248,3.29896246 3.55729611,3.05885799 3.31771248,2.81979519 L1.40104342,0.182812729 Z" id="Path"></path>
                    </g>
                    <g id="Group" transform="translate(1.000000, 3.456528)" fill="#FFD8D8">
                        <path d="M1.83854396,0.216666938 C1.59896033,-0.0234375293 1.11979307,-0.0234375293 0.640625801,0.216666938 C0.401042168,0.456771404 0.401042168,0.93593867 0.640625801,1.41510594 C0.640625801,1.41510594 3.51562939,4.05104673 4.71354756,4.05104673 C4.95313119,4.05104673 5.43229846,3.57187946 4.95313119,3.33281667 L1.83854396,0.216666938 Z" id="Path"></path>
                    </g>
                    <g id="Group" transform="translate(1.000000, 4.456528)" fill="#FFD8D8">
                        <path d="M1.59896033,0.580209059 C1.3593767,0.340104592 0.880209434,0.340104592 0.640625801,0.580209059 C0.401042168,0.820313525 0.401042168,1.29948079 0.640625801,1.53854359 C0.640625801,1.53854359 3.27604576,3.93594242 4.23438029,3.93594242 C4.47396393,3.93594242 4.71354756,3.45677515 4.47396393,3.21667069 L1.59896033,0.580209059 Z" id="Path"></path>
                    </g>
                    <path d="M47.4739602,40.1804001 C47.4739602,40.1804001 46.5156256,49.839926 46.276042,54.0507646 C46.0364584,56.7745701 46.5156256,59.499452 47.2343765,62.2237957 C47.9531274,64.9486776 55.6198037,66.682204 55.3854284,58.0129571 C55.1406364,52.3167 53.9427183,39.9328303 53.9427183,39.9328303 C49.8697965,39.4376908 47.4739602,40.1804001 47.4739602,40.1804001" id="Path" fill="#00BCD4" fill-rule="nonzero"></path>
                    <g id="Group" transform="translate(51.500000, 36.456528) scale(-1, 1) rotate(-90.000000) translate(-51.500000, -36.456528) translate(48.500000, 33.956528)" fill="#FFFFFF">
                        <path d="M2.70312838,0.066145916 C4.0260467,0.066145916 5.09896471,1.13958476 5.09896471,2.46302391 C5.09896471,3.7869839 4.0260467,4.86042274 2.70312838,4.86042274 C1.38021006,4.86042274 0.307292051,3.7869839 0.307292051,2.46302391 C0.307292051,1.13958476 1.38021006,0.066145916 2.70312838,0.066145916" id="Path"></path>
                    </g>
                    <g id="Group" transform="translate(51.500000, 36.456528) scale(-1, 1) rotate(-90.000000) translate(-51.500000, -36.456528) translate(48.500000, 33.956528)" fill="#E91E63">
                        <path d="M2.70312838,0.066145916 C4.0260467,0.066145916 5.09896471,1.13958476 5.09896471,2.46302391 C5.09896471,3.7869839 4.0260467,4.86042274 2.70312838,4.86042274 C1.38021006,4.86042274 0.307292051,3.7869839 0.307292051,2.46302391 C0.307292051,1.13958476 1.38021006,0.066145916 2.70312838,0.066145916" id="Path"></path>
                    </g>
                </g>
                <g id="Group-2" transform="translate(93.000000, 177.000000)">
                    <g id="Group" transform="translate(37.000000, 143.000000)" fill="#FFF3E0">
                        <path d="M13.7506422,6.51407064 C11.2339203,5.55573611 7.71040026,3.87760901 6.70305525,2.91927448 C5.94781993,2.20000275 5.94781993,1.24166822 5.696804,0.28229202 C4.94156868,0.522396486 3.93531742,0.761459285 3.1800821,0.761459285 C2.17383084,0.761459285 1.41859552,0.522396486 0.663360204,0.28229202 C0.663360204,1.72083548 0.663360204,3.15833728 0.41179739,4.59688075 C0.41179739,5.31615248 0.1596877,6.03490338 0.41179739,6.51407064 C0.914923019,7.23334237 1.92172115,7.47344684 2.92797241,7.47344684 C5.19367837,7.47344684 7.20618088,7.71250964 9.47188684,7.95261411 C11.2339203,8.19271857 13.2464228,8.43178137 15.0084563,7.71250964 C15.2600191,7.71250964 15.7631447,7.23334237 15.7631447,6.99427958 C15.0084563,6.99427958 14.5047838,6.75417511 13.7506422,6.51407064" id="Path"></path>
                    </g>
                    <g id="Group" transform="translate(18.000000, 25.000000)" fill="url(#linearGradient-8)">
                        <path d="M4.67153362,1.04890756 C1.94772813,1.30047038 0.213663462,3.81719227 0.46069502,6.58602386 C0.709341164,9.10219888 3.18611509,10.8636855 5.66181263,10.6126695 C11.3591461,10.1095439 20.0278549,8.59907325 25.4765423,6.08180448 L24.4862632,0.293672242 C22.0094893,0.545781932 13.5878121,0.041562552 4.67153362,1.04890756" id="Path"></path>
                    </g>
                    <g id="Group" transform="translate(40.000000, 3.000000)" fill="#FFF3E0">
                        <path d="M20.2533586,4.94224576 C20.5003902,4.44656806 20.5003902,3.7033206 19.7576809,3.45521265 C20.0052507,2.96007314 19.5101112,2.46493364 19.0144335,2.46493364 C19.5101112,1.47465462 20.0052507,0.731407164 19.2620032,0.483299215 C18.7663255,0.483299215 17.5279386,2.96007314 16.7857675,3.95089036 C15.7944121,5.43738527 14.8041331,4.19846011 14.0608856,5.68441683 C13.3176382,7.17091174 13.5657461,8.40929871 13.5657461,9.64768567 C13.5657461,10.6379647 13.0700684,11.1331042 12.8219605,11.6282437 C11.088434,14.6006953 5.63920844,18.8115339 0.933768528,23.0218343 C-0.551649995,24.5083292 1.18187648,28.2240283 2.667295,27.9759204 C6.63056384,27.7278124 13.5657461,16.5823298 16.2895516,12.8671689 C18.271186,10.1428252 19.2620032,8.16119076 20.0052507,7.17091174 C20.9955297,6.18063273 20.9955297,5.43738527 20.2533586,4.94224576" id="Path"></path>
                    </g>
                    <path d="M39.7842197,25.8236879 C38.274296,27.3330648 40.7915647,31.3608042 42.5530513,31.3608042 C46.5791501,31.1086945 54.3814255,20.2865716 57.1502571,16.5114888 C55.8918961,16.2599259 53.6261902,14.2463297 52.619392,13.4910944 L52.3683761,13.7432041 C50.6057958,16.7630516 44.3145379,21.5449326 39.7842197,25.8236879 Z" id="Path" fill="url(#linearGradient-9)"></path>
                    <path d="M54.3210598,18.5441413 C51.0485557,21.3129729 45.2609703,26.3458698 41.9884662,28.6115758 C38.2133834,31.3793136 35.192989,30.6240783 30.9153274,31.1272039 C26.3850092,31.6314233 23.1125051,34.1475983 19.0864064,33.8965824 C20.0926576,35.4059593 21.6031283,35.6580689 23.1125051,35.6580689 C28.3986055,35.1549433 36.4513499,33.8965824 41.9884662,31.6314233 C45.2609703,31.3793136 51.3006654,24.0807107 54.8241854,19.2993766 C55.327311,18.7957041 54.5720757,18.2925785 54.3210598,18.5441413" id="Path" fill="url(#linearGradient-10)"></path>
                    <g id="Group" transform="translate(11.000000, 1.000000)" fill="#FFF3E0" fill-rule="nonzero">
                        <path d="M14.5818932,8.04836944 C12.8198598,7.04102443 11.3093891,4.27273972 10.5541538,2.76226908 C9.04477693,-1.26437658 3.00453501,0.497656872 0.990938739,4.52375565 C-0.0153125191,6.79000849 -0.0153125191,9.30673038 0.7399228,11.5713426 C1.49406437,14.5911901 3.50766063,17.3594748 6.27539847,18.3668198 C7.28329035,18.8699455 11.5614988,19.624087 12.5677501,18.8699455 C14.0782207,18.1147101 14.0782207,11.5713426 14.5818932,10.060872 C15.5881445,8.802511 14.8329092,8.29938537 14.5818932,8.04836944" id="Path"></path>
                    </g>
                    <g id="Group" transform="translate(6.000000, 0.000000)" fill="#FF6F00" fill-rule="nonzero">
                        <path d="M11.5368894,0.497656872 C1.97367434,-1.26437658 -0.0399219249,5.53055379 0.211094014,10.5639976 C0.463203704,15.5979882 5.74821031,20.1277595 7.76180658,20.8829949 C8.01391627,20.8829949 12.040015,21.1340108 14.3051741,16.3521298 C14.8082998,15.3458786 15.0604095,14.3396273 14.5572838,14.0875176 C12.7952504,13.0807195 12.040015,10.3118879 12.7952504,9.55774632 C13.8015016,8.55040131 14.5572838,10.3118879 15.0604095,9.80876226 C15.8156448,9.30563663 16.5697863,5.78266348 15.5635351,4.02063003 C15.0604095,2.25914345 13.2989229,0.748672811 11.5368894,0.497656872" id="Path"></path>
                    </g>
                    <g id="Group" transform="translate(6.000000, 3.000000)" fill="#FF6F00" fill-rule="nonzero">
                        <path d="M5.95365328,8.55040131 C5.95365328,7.79516599 6.67292501,6.03367942 6.67292501,5.27789722 C7.39219674,1.75492407 4.51563064,-1.01281377 1.63958538,0.748672811 C-0.0380208809,1.75492407 -1.23645988,7.79516599 2.35885712,12.577047 C3.55729611,14.3385335 6.43386221,17.1073651 7.87136401,17.1073651 C9.54897027,16.8552554 5.71459048,11.8223585 5.95365328,8.55040131" id="Path"></path>
                    </g>
                    <g id="Group" transform="translate(5.000000, 8.500000) scale(-1, 1) translate(-5.000000, -8.500000) translate(0.000000, 3.000000)" fill="#FF6F00" fill-rule="nonzero">
                        <path d="M4.25313032,0.0180468976 C7.12969641,0.0180468976 9.28646994,2.2826591 9.28646994,5.3030535 C9.28646994,8.32290103 7.12969641,10.588607 4.25313032,10.588607 C1.37708505,10.588607 0.417708855,8.32290103 0.417708855,5.3030535 C0.417708855,2.2826591 1.37708505,0.0180468976 4.25313032,0.0180468976" id="Path"></path>
                    </g>
                    <g id="Group" transform="translate(37.000000, 143.000000)" fill="#FFF3E0">
                        <path d="M13.7506422,6.03386171 C12.7432972,6.03386171 11.9880619,6.27396618 11.2339203,6.27396618 C7.71040026,6.03386171 4.18633336,3.87656735 3.1800821,0.521354818 C2.17383084,0.521354818 1.41859552,0.281250352 0.663360204,0.0421875527 C0.663360204,1.47968935 0.663360204,2.91823281 0.41179739,4.35625545 C0.41179739,5.07552718 0.1596877,5.79479891 0.41179739,6.27396618 C0.914923019,6.99323791 1.92172115,7.23230071 2.92797241,7.23230071 C5.19367837,7.23230071 7.20618088,7.47240517 9.47188684,7.71250964 C11.2339203,7.95157244 13.2464228,8.19167691 15.0084563,7.47240517 C15.2600191,7.47240517 15.7631447,6.99323791 15.7631447,6.75313344 C15.0084563,6.51407064 14.5047838,6.27396618 13.7506422,6.03386171" id="Path"></path>
                    </g>
                    <path d="M53.1090058,149.679171 C52.8568961,149.439588 49.3339229,148.480732 47.3203267,147.761461 C46.5656382,147.522398 46.0619657,148.480732 46.0619657,148.9599 C41.7843041,148.9599 38.0086744,146.083854 37.2534391,146.563022 C36.2471878,147.282293 35.2398428,149.679171 37.5055488,150.638027 C37.7571116,150.878131 38.5123469,150.878131 40.7769591,150.878131 C42.7905554,150.878131 44.8041516,152.07657 46.3135285,152.07657 L53.1090058,152.07657 C53.8642411,152.07657 54.3679136,150.158859 53.1090058,149.679171" id="Path" fill="#006064"></path>
                    <g id="Group" transform="translate(10.000000, 140.000000)" fill="#FFF3E0" fill-rule="nonzero">
                        <path d="M7.1181339,5.78977286 C5.85977295,4.78242785 6.36344545,2.51781565 6.11188264,1.25890782 C6.11188264,-0.250469063 1.07843885,1.00789188 1.07843885,1.25890782 C0.826329158,3.52406691 1.07843885,5.53766317 0.574766343,7.80227538 C0.574766343,8.5575107 0.323203529,9.31274602 0.574766343,9.81587164 C1.07843885,10.571107 2.08469011,10.8226698 3.09203512,10.8226698 C5.35664732,10.8226698 7.36914984,11.0747795 9.63540267,11.0747795 C11.3968892,11.326274 13.4093918,11.5779051 15.1719721,10.8226698 C15.4235349,10.8226698 15.9266605,10.3195441 15.9266605,10.0679813 C13.6615015,9.81587164 8.37704172,7.04813381 7.1181339,5.78977286" id="Path"></path>
                    </g>
                    <path d="M37.3967567,150.093012 L42.5960532,150.093012 L40.8544782,152.430516 L36.8000008,151.214148 C36.8000008,151.214148 37.4925189,150.641676 37.3967567,150.093012" id="Path" fill="#006064" transform="translate(39.698027, 151.261764) scale(-1, 1) rotate(-16.703371) translate(-39.698027, -151.261764) "></path>
                    <g id="Group" transform="translate(11.000000, 139.000000)" fill="#FFF3E0" fill-rule="nonzero">
                        <path d="M2.66302416,1.00789188 C2.66302416,0.755782195 2.90312863,0.755782195 2.90312863,0.504766256 C1.70468963,0.755782195 0.745313432,1.00789188 0.745313432,1.26000157 C0.506250633,3.52461378 0.745313432,5.53875692 0.266146166,7.80336913 C0.266146166,8.55860445 0.0265625332,9.31274602 0.266146166,9.81587164 C0.745313432,10.571107 1.70468963,10.8232167 2.66302416,10.8232167 C4.58073489,10.8232167 6.49740396,11.0742326 8.41563552,11.0742326 C4.58073489,9.31274602 0.745313432,5.78977286 2.66302416,1.00789188" id="Path"></path>
                    </g>
                    <path d="M26.9766618,149.679171 C26.7256459,149.439588 23.2021259,148.480732 21.1885296,147.761461 C20.4332943,147.522398 19.9301687,148.480732 19.9301687,148.9599 C15.6514133,148.9599 11.8763305,146.083854 11.121642,146.563022 C10.1148439,147.282293 9.10804576,149.919276 11.3732048,150.638027 C11.6253145,150.878131 12.3805499,150.878131 14.6451621,150.878131 C16.6587583,150.878131 18.6712608,152.07657 20.1822784,152.07657 L26.9766618,152.07657 C27.7318972,152.07657 28.2350228,150.158859 26.9766618,149.679171" id="Path" fill="#006064" fill-rule="nonzero"></path>
                    <path d="M10.7539311,148.71237 L13.6684573,148.71237 L15.1146293,152.690994 C15.1146293,152.690994 14.2424896,152.478346 13.8594407,152.883081 L10.7539311,148.71237 Z" id="Path" fill="#006064" fill-rule="nonzero" transform="translate(12.934280, 150.797725) scale(-1, 1) rotate(109.974447) translate(-12.934280, -150.797725) "></path>
                    <path d="M11.5895866,99.4167282 C12.0687538,109.364312 10.3906267,111.850533 9.91145947,117.570839 C9.43229221,123.289525 10.8703148,145.174318 10.8703148,145.174318 C10.8703148,145.174318 12.3088583,145.671454 13.9864646,145.671454 C13.2671928,137.464386 12.0687538,130.004104 15.1849036,123.289525 C16.1432381,121.051872 16.6229262,114.83443 16.6229262,112.34875 C16.6229262,107.125579 15.1849036,98.4224562 17.3416771,90.961633 C18.0609488,88.2263041 18.3000116,72.0623581 18.3000116,72.0623581 L9.19218774,71.068086 C9.43229221,71.068086 11.1098985,89.7182526 11.5895866,99.4167282" id="Path" fill="#AD1457" fill-rule="nonzero"></path>
                    <g id="Group" transform="translate(9.000000, 71.000000)" fill="#AD1457" fill-rule="nonzero">
                        <path d="M2.17219022,28.4599574 C2.67531584,38.4075415 0.913282392,40.8937621 0.410156763,46.6140687 C-0.0929688662,52.3327542 1.4169549,74.2170068 1.4169549,74.2170068 C1.4169549,74.2170068 4.93992805,75.2118193 7.96032245,74.2170068 C7.96032245,74.2170068 10.98017,47.6083408 12.2385309,42.1371425 C14.2521272,33.9311557 17.7756472,1.85183174 17.7756472,1.85183174 L0.158047073,0.359342897 C-0.0929688662,0.111315243 1.66851771,18.7614818 2.17219022,28.4599574" id="Path"></path>
                    </g>
                    <g id="Group" transform="translate(14.000000, 72.000000)" fill="#AD1457" fill-rule="nonzero">
                        <path d="M0.265868388,0.403652848 C0.0177604389,1.39900566 0.265868388,2.64238612 0.761007896,3.88576658 C1.99939486,6.86966353 13.3929855,34.2240337 13.1448775,36.711335 C12.649738,45.9115938 18.5941031,53.869553 23.0525115,72.7688279 C24.7865761,73.265964 28.2536291,73.7631 29.9871555,72.0225835 C29.2439081,62.0755398 20.5757375,7.36679957 19.3373506,0.901329252 C19.3373506,0.901329252 5.466986,2.39327773 0.265868388,0.403652848" id="Path"></path>
                    </g>
                    <path d="M33.2574968,40.3805066 C33.2574968,37.6567011 27.3131318,29.2350239 23.8455406,27.2533895 C20.3774113,25.0247235 19.1401007,23.7863365 14.6811542,24.529584 C9.72760633,25.519863 10.7184235,32.4545071 10.7184235,46.5729796 C10.7184235,47.5632586 8.48868117,71.8358584 8.24164961,73.8174928 C12.2043803,76.5412983 30.5320768,76.5412983 34.9910233,74.8077718 C34.9910233,62.671472 32.2661414,53.7546552 32.2661414,48.0583981 C32.0191099,46.0767637 33.2574968,44.5913452 33.2574968,40.3805066" id="Path" fill="url(#linearGradient-11)" fill-rule="nonzero"></path>
                    <path d="M20.7329548,35.9556362 C25.6865027,38.9754837 33.3649324,43.0021294 39.3092975,44.0094744 L42.033103,38.723374 C39.5574054,37.4661068 33.1168245,32.1800065 25.4383947,27.6507821 C22.9626972,26.3918742 20.2378153,27.3986724 18.9988901,29.6632846 C17.7610414,31.9289905 18.5042888,34.6972752 20.7329548,35.9556362 Z" id="Path" fill="#D1C4E9"></path>
                    <g id="Group" transform="translate(37.000000, 30.000000)" fill="#FFF3E0">
                        <path d="M29.3978492,1.62312703 C27.6363627,2.12625266 28.6426139,0.364766081 27.1321433,0.86789171 C25.6227664,1.62312703 24.3644055,2.62937829 23.3576073,4.39195861 C22.8539348,5.14664706 9.01141751,7.91547864 2.46859684,8.66962021 C0.203437754,8.9217299 -0.551797565,12.9483756 0.958673073,13.9557206 C4.4821931,16.2203328 19.0793988,10.4322005 23.6091701,9.17383959 C26.8811274,8.16649458 28.8936299,7.16024333 30.1525377,6.90813364 C31.4108986,6.6571177 31.9140243,6.15399207 31.4108986,5.14664706 C31.9140243,4.89563112 32.4182436,4.1403958 31.9140243,3.63727017 C32.6692596,3.38516048 32.6692596,2.62937829 32.166134,2.12625266 C33.1723852,1.62312703 34.1797302,1.37211109 33.6755108,0.616875771 C33.4244949,-0.138359548 30.4046474,1.37211109 29.3978492,1.62312703" id="Path"></path>
                    </g>
                    <path d="M59,34 C56.0275484,35.198439 45.4168334,37.5458353 39.2243604,38.265107 C36.9951562,38.5041698 36.7481247,43.0583422 38.2335432,44.0177184 C41.7011343,46.1744919 54.085004,42.1000076 58.5434123,40.9015686 C59.5144708,39.6338562 59.6666667,37.3333333 59,34 Z" id="Path" fill="#D1C4E9"></path>
                    <g id="Group" transform="translate(62.000000, 28.000000)" fill="#FFF3E0">
                        <path d="M2.40260717,1.98958582 L0.00572917383,4.62552662 L1.9234399,4.38646382 C2.40260717,4.14635935 3.1218789,3.42812929 3.60104617,2.46875309 C4.800006,1.98958582 5.03958963,1.27031409 4.800006,0.311979557 C3.60104617,1.51041855 3.1218789,1.74948135 2.40260717,1.98958582" id="Path"></path>
                    </g>
                    <g id="Group" transform="translate(57.000000, 4.000000)" fill="#FFF3E0">
                        <path d="M3.97500497,4.44792223 C4.21406777,3.96875496 4.21406777,3.24948323 3.49531687,3.00937876 C3.7349005,2.5302115 3.25573324,2.05104423 2.77604514,2.05104423 C3.25573324,1.0927097 3.7349005,0.373437967 3.01562877,0.1333335 C2.53594067,0.1333335 1.33750167,2.5302115 0.619271607,3.48854603 C0.139062674,4.20781776 -0.579167391,6.36511212 1.33750167,7.32448832 C2.53594067,8.04271839 3.7349005,7.08438386 4.21406777,6.84532106 C4.69323503,5.64688206 4.69323503,4.92708949 3.97500497,4.44792223" id="Path"></path>
                    </g>
                    <g id="Group" transform="translate(54.000000, 3.000000)" fill="#FFF3E0">
                        <path d="M1.54583527,0.487500609 C1.06562633,1.92500241 0.826563533,2.64427414 0.586459066,3.1234414 L0.107291801,6.24011197 L1.54583527,5.28073577 C1.78489806,4.8015685 2.02500253,3.84323397 1.78489806,2.88437861 C2.26406533,1.92500241 2.26406533,0.966667875 1.54583527,0.487500609" id="Path"></path>
                    </g>
                    <path d="M52.3537704,150.199483 C49.5860326,150.679171 46.3135285,149.9599 43.5457907,149.480732 C40.7769591,149.000523 38.7644566,148.282293 36.7503134,147.083854 C36.2471878,148.042189 36.2471878,149.480732 37.7571116,150.199483 C38.0086744,150.439588 38.7644566,150.439588 41.0290688,150.439588 C43.0415713,150.439588 45.0551676,151.638027 46.5656382,151.638027 L53.3605686,151.638027 C54.1158039,151.638027 54.3679136,150.199483 53.6126783,149.480732 C53.3605686,149.9599 52.8568961,150.199483 52.3537704,150.199483" id="Path" fill="#006064"></path>
                    <path d="M25.9704106,150.720838 C24.7115028,150.960942 23.4531418,150.960942 22.4468906,150.720838 C21.6916552,150.481775 16.6587583,150.002608 15.1482877,149.762503 C13.3868011,149.762503 11.6253145,148.804169 10.8700792,147.365625 C10.1148439,148.325002 10.1148439,150.002608 11.6253145,150.960942 C11.8763305,151.201047 12.6315658,151.201047 14.896178,151.201047 C16.9103211,151.201047 18.9239174,152.398965 20.4332943,152.398965 L27.2287715,152.398965 C27.9840069,152.398965 28.2350228,150.960942 27.4808812,150.241671 C26.9766618,150.241671 26.4735362,150.481775 25.9704106,150.720838" id="Path" fill="#006064" fill-rule="nonzero"></path>
                    <path d="M57.5721601,38.6900146 C52.2860597,41.7098621 46.4979275,42.7172071 40.7103421,41.2067365 C40.2061228,41.2067365 38.1930734,40.4525949 37.9409637,40.2004853 C37.6899477,40.2004853 37.6899477,39.9483756 37.437838,39.9483756 C31.3975961,37.4327474 23.8468836,34.663369 19.5686751,29.6299252 C19.5686751,29.3783623 17.8066416,27.1137501 17.5556257,27.1137501 C17.3040629,27.3647661 18.561877,29.1262527 18.310861,29.6299252 C17.0525001,31.8956311 17.8066416,34.663369 20.0728945,35.9217299 C24.6021189,38.6900146 31.9007218,42.4650975 37.6899477,43.7234584 C41.2134678,45.9886175 53.7965304,41.7098621 58.3263017,40.4525949 C58.3263017,40.2004853 57.823176,39.4452499 57.5721601,38.6900146 C57.5721601,38.4384518 57.5721601,38.6900146 57.5721601,38.6900146" id="Path" fill="#D1C4E9"></path>
                </g>
            </g>
        </g>
    </g>
</svg>