<?xml version="1.0" encoding="UTF-8"?>
<svg width="203px" height="220px" viewBox="0 0 203 220" version="1.1" xmlns="http://www.w3.org/2000/svg" xmlns:xlink="http://www.w3.org/1999/xlink">
    <!-- Generator: Sketch 64 (93537) - https://sketch.com -->
    <title>Feature2</title>
    <desc>Created with Sketch.</desc>
    <defs>
        <linearGradient x1="0%" y1="50%" x2="100%" y2="50%" id="linearGradient-1">
            <stop stop-color="#673AB7" offset="0%"></stop>
            <stop stop-color="#CE93D8" offset="100%"></stop>
        </linearGradient>
        <path d="M73.4210526,7.14285714 C137.368421,-14.2857143 133.815789,17.7386374 133.815789,53.5714286 C133.815789,89.4042198 112.459085,125 72.2368421,125 C32.0145996,125 0,88.8089817 0,52.9761905 C0,17.1433993 9.47368421,28.5714286 73.4210526,7.14285714 Z" id="path-2"></path>
        <linearGradient x1="100%" y1="50%" x2="0%" y2="50%" id="linearGradient-4">
            <stop stop-color="#673AB7" offset="0%"></stop>
            <stop stop-color="#CE93D8" offset="100%"></stop>
        </linearGradient>
        <linearGradient x1="0%" y1="49.999303%" x2="100.001326%" y2="49.999303%" id="linearGradient-5">
            <stop stop-color="#00BCD4" offset="0%"></stop>
            <stop stop-color="#B2EBF2" offset="100%"></stop>
        </linearGradient>
        <linearGradient x1="113.59418%" y1="13.4267536%" x2="9.16449141%" y2="81.9799135%" id="linearGradient-6">
            <stop stop-color="#673AB7" offset="0%"></stop>
            <stop stop-color="#D1C4E9" offset="100%"></stop>
            <stop stop-color="#D1C4E9" offset="100%"></stop>
        </linearGradient>
        <linearGradient x1="0%" y1="50.0001855%" x2="99.9999851%" y2="50.0001855%" id="linearGradient-7">
            <stop stop-color="#E91E63" offset="0%"></stop>
            <stop stop-color="#F48FB1" offset="100%"></stop>
        </linearGradient>
    </defs>
    <g id="Landing" stroke="none" stroke-width="1" fill="none" fill-rule="evenodd">
        <g transform="translate(-1076.000000, -1472.000000)" id="How-It-Works">
            <g transform="translate(108.000000, 769.000000)">
                <g id="Feature-2" transform="translate(0.000000, 578.000000)">
                    <g id="Feature2" transform="translate(1069.500000, 235.000000) scale(-1, 1) translate(-1069.500000, -235.000000) translate(968.000000, 125.000000)">
                        <g id="Group" transform="translate(44.000000, 95.000000)">
                            <mask id="mask-3" fill="white">
                                <use xlink:href="#path-2"></use>
                            </mask>
                            <use id="Path" fill="url(#linearGradient-1)" xlink:href="#path-2"></use>
                            <polygon id="Path" fill="#AD1457" mask="url(#mask-3)" transform="translate(67.822584, 113.126287) scale(-1, 1) rotate(66.194456) translate(-67.822584, -113.126287) " points="67.8929652 80.4464691 81.9505994 78.0654727 83.5492482 148.187101 52.0959195 136.899557"></polygon>
                        </g>
                        <g id="Group" transform="translate(101.000000, 119.000000)" fill="#FBC02D">
                            <path d="M0.024129659,0.3457618 L0.200507612,0.609313202 L0.624129659,0.00931320171 C0.424129659,0.121462734 0.224129659,0.233612267 0.024129659,0.3457618" id="Path"></path>
                        </g>
                        <g id="Group" transform="translate(114.000000, 30.000000)" fill="#B2EBF2">
                            <polygon id="Path" points="6.45544576 7.87485632 3.99582919 6.01753781 1.53248734 7.87485632 2.47358637 4.87044164 0.0102445219 3.00973651 3.05519582 3.00973651 3.99582919 0.00193521074 4.93320294 3.00973651 7.97815424 3.00973651 5.51481239 4.87044164"></polygon>
                        </g>
                        <g id="Group" transform="translate(107.000000, 47.000000)" fill="#F48FB1">
                            <polygon id="Path" points="3.25591648 3.8041254 2.02456305 2.90931722 0.793209623 3.8041254 1.2641613 2.35899166 0.0328078696 1.46418347 1.55361138 1.46471263 2.02456305 0.01957889 2.49604389 1.46471263 4.01578908 1.46471263 2.78443565 2.35899166"></polygon>
                        </g>
                        <g id="Group" transform="translate(86.000000, 50.000000)" fill="#E91E63">
                            <polygon id="Path" points="8.56606742 7.39180353 10.0184266 11.9373233 6.21167463 9.12456704 2.40092031 11.9373233 3.85728185 7.39180353 0.0465275242 4.57904728 4.75531309 4.57904728 6.21117434 0.0335275261 7.66353351 4.57904728 12.3728194 4.57904728"></polygon>
                        </g>
                        <g id="Group" transform="translate(76.000000, 81.000000)" fill="#CE93D8">
                            <polygon id="Path" points="6.48105707 7.87340491 4.0214405 6.0165702 1.55809865 7.87340491 2.49873202 4.86899023 0.0358558266 3.0082851 3.08080712 3.0082851 4.0214405 0.000483802686 4.95834859 3.0082851 8.00376555 3.0082851 5.5404237 4.86899023"></polygon>
                        </g>
                        <g id="Group" transform="translate(172.000000, 75.000000)" fill="#00BCD4">
                            <polygon id="Path" points="6.19766635 9.13167894 2.38691202 11.9408792 3.84327356 7.39535948 0.0330195333 4.58615918 4.74130481 4.58615918 6.19766635 0.0406394256 7.65002552 4.58615918 12.3588111 4.58615918 8.55205913 7.39535948 10.0049186 11.9408792"></polygon>
                        </g>
                        <g id="Group" transform="translate(173.000000, 54.000000)" fill="#AD1457">
                            <polygon id="Path" points="1.55678633 1.4483087 2.02773801 0.00317495513 2.49498557 1.4483087 4.01949319 1.4483087 2.78813976 2.34311688 3.25909144 3.78825063 2.02773801 2.89344244 0.796384578 3.78825063 1.26786541 2.34311688 0.036511984 1.4483087"></polygon>
                        </g>
                        <g id="Group" transform="translate(159.000000, 98.000000)" fill="#006064">
                            <polygon id="Path" points="3.04150779 3.79565885 1.88711395 2.90085067 0.732720113 3.79565885 1.1747334 2.346821 0.0203395563 1.45201281 1.44559676 1.45201281 1.88761004 0.00740822863 2.32515854 1.45201281 3.75488052 1.45201281 2.60048668 2.346821"></polygon>
                        </g>
                        <g id="Group" transform="translate(134.000000, 113.000000)" fill="#311B92">
                            <polygon id="Path" points="14.5566189 16.9876248 9.01644923 12.9874009 3.47198982 16.9876248 5.59057388 10.5107164 0.0461144594 6.51049243 6.89840139 6.51049243 9.01644923 0.0293193387 11.1307436 6.51049243 17.9830305 6.51049243 12.4423246 10.5107164"></polygon>
                        </g>
                        <g id="Group" transform="translate(109.000000, 128.000000)" fill="#B2EBF2">
                            <polygon id="Path" points="3.27073294 3.80888783 2.03937951 2.91407965 0.811730194 3.80888783 1.27897776 2.36428325 0.0476243269 1.46947506 1.57213195 1.46947506 2.03937951 0.0243413226 2.51033119 1.46947506 4.03060553 1.46947506 2.80348538 2.36428325"></polygon>
                        </g>
                        <g id="Group" transform="translate(157.000000, 7.000000)" fill="#CE93D8">
                            <polygon id="Path" points="4.99067669 1.82044872 3.0986151 1.82044872 2.51089562 0.0207430402 1.92712721 1.82044872 0.0355594974 1.82044872 1.56511177 2.93267077 0.981837234 4.73188257 2.51138951 3.61966051 4.04489283 4.73188257 3.46112442 2.93267077"></polygon>
                        </g>
                        <g id="Group" transform="translate(187.000000, 34.000000)" fill="#006064">
                            <polygon id="Path" points="4.9793174 1.84761222 3.08725581 1.84761222 2.49953634 0.0479065451 1.91576792 1.84761222 0.0242002135 1.84761222 1.55375248 2.95983428 0.969984069 4.75904607 2.50003022 3.64682401 4.03353355 4.75904607 3.44581408 2.95983428"></polygon>
                        </g>
                        <g id="Group" transform="translate(196.000000, 89.000000)" fill="#B2EBF2">
                            <polygon id="Path" points="4.9630193 1.84859998 3.07095771 1.84859998 2.48718929 0.048894309 1.90342088 1.84859998 0.0113592839 1.84859998 1.54140544 2.96082204 0.957637021 4.76003384 2.48768317 3.64781178 4.01723545 4.76003384 3.43396091 2.96082204"></polygon>
                        </g>
                        <g id="Group" transform="translate(102.000000, 153.000000)" fill="#00BCD4">
                            <polygon id="Path" points="4.99265222 1.84069787 3.10059062 1.84069787 2.51682221 0.0409921984 1.92959662 1.84069787 0.0375350251 1.84069787 1.57103835 2.95291993 0.98331888 4.75213173 2.51682221 3.63941579 4.04637448 4.75213173 3.46260606 2.95291993"></polygon>
                        </g>
                        <g id="Group" transform="translate(157.000000, 153.000000)" fill="#AD1457">
                            <polygon id="Path" points="4.99067669 1.84069787 3.0986151 1.84069787 2.51089562 0.0409921984 1.92712721 1.84069787 0.0355594974 1.84069787 1.56511177 2.95291993 0.981837234 4.75213173 2.51138951 3.63941579 4.04489283 4.75213173 3.46112442 2.95291993"></polygon>
                        </g>
                        <g id="Group" transform="translate(44.000000, 93.000000)" fill="#006064">
                            <polygon id="Path" points="5.1439353 1.83822846 3.1978148 1.83822846 2.59787528 0.0385227889 1.99336383 1.83822846 0.0472433323 1.83822846 1.62100509 2.95045052 1.02055758 4.74966232 2.59787528 3.63694638 4.17112905 4.74966232 3.57068153 2.95045052"></polygon>
                        </g>
                        <g id="Group" transform="translate(56.000000, 37.000000)" fill="#F48FB1">
                            <polygon id="Path" points="4.98376234 1.81501601 3.09219463 1.81501601 2.50842621 0.0153103392 1.9246578 1.81501601 0.032596206 1.81501601 1.56214848 2.92723807 0.978380061 4.72644987 2.50842621 3.61422781 4.03797849 4.72644987 3.45421007 2.92723807"></polygon>
                        </g>
                        <g id="Group" transform="translate(98.000000, 9.000000)" fill="#CE93D8">
                            <polygon id="Path" points="4.95659884 1.83328965 3.06503113 1.83328965 2.48126271 0.0340778517 1.89354324 1.83328965 0.00148164573 1.83328965 1.5315278 2.9455117 0.947759383 4.74521738 2.48126271 3.63299532 4.01081498 4.74521738 3.42704656 2.9455117"></polygon>
                        </g>
                        <g id="Group" transform="translate(67.000000, 12.000000)" fill="#006064">
                            <polygon id="Path" points="8.84600225 3.71046423 5.47754804 3.71046423 4.4338537 0.036511984 3.39385385 3.71046423 0.0217051478 3.71046423 2.74777935 5.98320294 1.7077795 9.65292191 4.43431551 7.38441647 7.16038971 9.65292191 6.12038986 5.98320294"></polygon>
                        </g>
                        <g id="Group" transform="translate(54.000000, 113.000000)" fill="#B2EBF2">
                            <polygon id="Path" points="8.83584239 3.70623095 5.46692637 3.70623095 4.42369384 0.0328078696 3.383694 3.70623095 0.0110834797 3.70623095 2.73761949 5.97473639 1.69715783 9.64868863 4.42369384 7.38018319 7.14976804 9.64868863 6.10976819 5.97473639"></polygon>
                        </g>
                        <g id="Group" transform="translate(124.000000, 0.000000)" fill="#F48FB1">
                            <polygon id="Path" points="8.83676602 3.67818552 5.46461731 3.67818552 4.42046116 0.0042332735 3.38046131 3.67818552 0.00831260979 3.67818552 2.73438681 5.95092423 1.69438696 9.62487647 4.42092297 7.35213776 7.15022985 9.62487647 6.10653551 5.95092423"></polygon>
                        </g>
                        <g id="Group" transform="translate(194.000000, 56.000000)" fill="#E91E63">
                            <polygon id="Path" points="8.86216566 3.70623095 5.48955514 3.70623095 4.44955529 0.0322787105 3.40955545 3.70623095 0.037406744 3.70623095 2.76348094 5.97896966 1.7234811 9.65239275 4.44955529 7.38018319 7.17609131 9.65239275 6.13562965 5.97896966"></polygon>
                        </g>
                        <g id="Group" transform="translate(191.000000, 113.000000)" fill="#F48FB1">
                            <polygon id="Path" points="8.85616211 3.70623095 5.4840134 3.70623095 4.44355174 0.0328078696 3.40031921 3.70623095 0.0281705109 3.70623095 2.75701558 5.97473639 1.71378305 9.64868863 4.44308993 7.38018319 7.16962594 9.64868863 6.12916428 5.97473639"></polygon>
                        </g>
                        <g id="Group" transform="translate(124.000000, 158.000000)" fill="#B2EBF2">
                            <polygon id="Path" points="8.84461681 3.67924383 5.4720063 3.67924383 4.43200645 0.00582075107 3.38877392 3.67924383 0.0198579012 3.67924383 2.7459321 5.94774927 1.70223776 9.62170151 4.43200645 7.35319607 7.15808065 9.62170151 6.1180808 5.94774927"></polygon>
                        </g>
                        <g id="Group" transform="translate(30.000000, 54.000000)" fill="#00BCD4">
                            <polygon id="Path" points="29.9879803 10.2476638 18.5465004 10.2476638 15.0111878 0.0481204136 11.4758753 10.2476638 0.033866188 10.2476638 9.29044786 16.5539184 5.75513533 26.7534617 15.0111878 20.4511758 24.2677695 26.7534617 20.7319278 16.5539184"></polygon>
                        </g>
                        <g id="Group" transform="translate(166.000000, 130.000000)" fill="url(#linearGradient-4)">
                            <polygon id="Path" points="29.9853345 10.2441912 18.5443837 10.2441912 15.008542 0.041671286 11.4732295 10.2441912 0.0317495513 10.2441912 9.28833123 16.5464771 5.75248953 26.7499891 15.008542 20.4437345 24.2651237 26.7499891 20.729282 16.5464771"></polygon>
                        </g>
                        <g id="Group" transform="translate(66.000000, 138.000000)" fill="#F48FB1">
                            <polygon id="Path" points="22.1343761 7.78538978 13.6879371 7.78538978 11.0780064 0.0432695428 8.4713212 7.78538978 0.0254231592 7.78538978 6.85668013 12.5674562 4.24674942 20.3095765 11.0780064 15.5238608 17.9130498 20.3095765 15.3031191 12.5674562"></polygon>
                        </g>
                        <g id="Group" transform="translate(101.000000, 121.000000)" fill="#0984E3">
                            <path d="M0.309064829,0.324801359 L0.315064829,0.318801359 L0.309064829,0.324801359 Z" id="Path"></path>
                        </g>
                        <g id="Group" transform="translate(150.000000, 7.000000)" fill="url(#linearGradient-5)">
                            <polygon id="Path" points="37.8361719 14.1225758 23.4031152 14.1225758 18.9426354 0.00875579095 14.4826565 14.1225758 0.0480968286 14.1225758 11.725606 22.8407683 7.26512617 36.9556184 18.9426354 28.2317603 30.6201445 36.9556184 26.1596647 22.8407683"></polygon>
                        </g>
                        <g id="Group" transform="translate(63.000000, 41.000000)" fill="#F48FB1">
                            <path d="M7.78381406,22.6747534 C3.48675924,22.6747534 0.00162275484,19.1896169 0.00162275484,14.8920212 C0.00162275484,10.5944255 3.48675924,7.10928897 7.78435498,7.10928897 C12.0819507,7.10928897 15.5670872,10.5944255 15.5670872,14.8920212 C15.5633008,19.1874533 12.0797871,22.670967 7.78381406,22.6747534 L7.78381406,22.6747534 Z M15.5670872,0.0335369334 C11.6605754,0.0335369334 8.49187609,3.20223622 8.49187609,7.10928897 C8.49187609,11.0163417 11.6605754,14.1845001 15.5670872,14.1845001 C19.47414,14.1845001 22.6422983,11.0163417 22.6422983,7.10928897 C22.4535178,3.14381705 19.1831259,0.0254231592 15.2133267,0.0254231592 C11.1066751,0.0254231592 7.77624121,3.35585702 7.77624121,7.46304952 C7.77624121,7.57988787 7.7789458,7.70105357 7.78435498,7.81681008 L15.5670872,0.0335369334 Z" id="Shape"></path>
                        </g>
                        <g id="Group" transform="translate(104.005018, 56.200420) scale(-1, 1) rotate(-41.688225) translate(-104.005018, -56.200420) translate(97.005018, 44.700420)" fill="#212121">
                            <path d="M6.84583496,0.00348988781 C10.6026104,0.00348988781 13.6476025,5.09136889 13.6476025,11.3668966 C13.6476025,17.6429354 10.6026104,22.7308144 6.84583496,22.7308144 C3.08956684,22.7308144 0.0440674525,17.6429354 0.0440674525,11.3668966 C0.0440674525,5.09136889 3.08956684,0.00348988781 6.84583496,0.00348988781" id="Path"></path>
                        </g>
                        <g id="Group" transform="translate(125.500000, 77.500000) scale(-1, 1) rotate(-90.000000) translate(-125.500000, -77.500000) translate(96.000000, 47.000000)" fill="#212121">
                            <path d="M29.44764,0.0198531595 C45.6917212,0.0198531595 58.8609181,13.634941 58.8609181,30.4301915 C58.8609181,47.2249196 45.6917212,60.8400074 29.44764,60.8400074 C13.2030534,60.8400074 0.0343618965,47.2249196 0.0343618965,30.4301915 C0.0343618965,13.634941 13.2030534,0.0198531595 29.44764,0.0198531595" id="Path"></path>
                        </g>
                        <g id="Group" transform="translate(7.000000, 64.000000)" fill="url(#linearGradient-6)">
                            <path d="M32.1344999,0.0217415405 L5.12796255,2.31288579 C2.93311671,2.4987242 1.19451128,4.31828408 1.03577556,6.59648693 L0.0274542919,21.0276933 C0.0194675888,21.1384716 0.0159734062,21.2508029 0.0159734062,21.3626166 C0.0159734062,23.9213888 2.01664253,25.9966706 4.48453378,25.9966706 L16.6557701,25.9966706 L16.6557701,26.6737643 L21.5531166,26.6737643 L21.5531166,25.9966706 L24.1647685,25.9966706 L24.1647685,26.6737643 L29.0616158,26.6737643 L29.0616158,25.9966706 L31.6717703,25.9966706 C34.0503103,25.9966706 36.0130425,24.0632265 36.1343406,21.6002205 L36.9614635,4.87735226 C36.9654569,4.7997039 36.9674536,4.71894961 36.9674536,4.64026594 C36.9674536,2.08097602 34.9662853,0.005694213 32.4988932,0.005694213 C32.3780943,0.005694213 32.2552987,0.0108707703 32.1344999,0.0212238848 L32.1344999,0.0217415405 Z" id="Path"></path>
                        </g>
                        <g id="Group" transform="translate(12.000000, 91.000000)" fill="#FFD8D8">
                            <path d="M45.6432019,18.8129638 L6.95205813,0.0323704314 L0.00758461503,11.3009353 C0.00758461503,11.3009353 20.1260288,24.5623701 21.1716944,25.6420806 C22.6597959,27.1786319 38.6987284,37.9344909 44.9818235,36.2272117 C51.2649186,34.5199325 48.2887157,20.520243 45.6432019,18.8129638" id="Path"></path>
                        </g>
                        <g id="Group" transform="translate(114.000000, 95.000000)" fill="#FFD8D8">
                            <path d="M0.223662592,6.87836316 C0.223662592,6.87836316 2.31883126,18.0290305 0.223662592,19.3806265 C-1.87097228,20.7322225 14.1884289,37.289274 14.1884289,37.289274 L20.8214393,31.5449908 L22.9160741,18.3669295 C22.9160741,18.3669295 16.6321695,9.91945424 19.425016,2.48515938 C22.2178625,-4.94861882 0.223662592,6.87836316 0.223662592,6.87836316" id="Path"></path>
                        </g>
                        <g id="Group" transform="translate(120.000000, 83.000000) scale(-1, 1) rotate(-90.000000) translate(-120.000000, -83.000000) translate(98.000000, 61.000000)" fill="#FFD8D8">
                            <path d="M21.6749248,0.0222482041 C33.6351454,0.0222482041 43.3312231,9.71832598 43.3312231,21.6785466 C43.3312231,33.6392846 33.6351454,43.3353623 21.6749248,43.3353623 C9.71418678,43.3353623 0.0181090033,33.6392846 0.0181090033,21.6785466 C0.0181090033,9.71832598 9.71418678,0.0222482041 21.6749248,0.0222482041" id="Path"></path>
                        </g>
                        <g id="Group" transform="translate(47.000000, 106.000000)" fill="url(#linearGradient-7)">
                            <path d="M37.2449421,2.80755145 C37.2281646,2.80858309 31.5914468,3.14443287 30.5949674,2.80755145 C29.5974712,2.47015422 16.9625194,-1.57804519 11.9750384,0.783425958 C6.98755745,3.14494869 3.66257013,0.108683072 3.66257013,0.108683072 C3.66257013,0.108683072 19.955008,14.2773552 0.00508407847,18.6628487 C0.00508407847,18.6628487 0.337582811,20.349577 5.32506379,21.3616139 C10.3125448,22.3741667 11.310041,23.3856878 13.3050334,25.0724161 C15.3000258,26.7591444 19.2900105,28.4458726 21.9500004,29.1210797 C24.6099903,29.7952552 33.2554657,35.5306471 34.5854606,34.1812645 C35.2367311,33.5199845 36.12797,32.0493844 36.867195,30.7211504 C37.0934365,32.0416471 37.2454505,32.8313661 37.2454505,32.8313661 C37.2454505,32.8313661 31.2599649,68.2531754 33.9204632,77.361508 C36.580453,86.4698406 34.5854606,88.1570847 33.2554657,89.1691217 C31.9249624,90.1806428 63.5128503,99.2894912 63.5128503,99.2894912 L93.4382446,99.2894912 C93.4382446,99.2894912 93.4382446,89.5064673 96.4307332,87.1450478 C97.0408226,86.6637886 97.5126251,84.2053951 97.8771535,80.5977567 C105.541402,93.3647938 113.581872,83.4120654 115.383669,80.0607891 C117.378662,76.3499869 116.713664,67.2411385 118.043659,63.5303363 C119.373654,59.8195341 117.378662,59.4821885 115.383669,55.4340406 C113.388677,51.3858928 114.718672,52.3979298 116.048667,46.325708 C117.378153,40.2545179 109.068735,15.2976453 109.066193,15.2893922 L109.066193,15.2893922 C109.066193,15.2893922 107.4037,7.86778782 100.420718,7.53044217 C93.4382446,7.19309652 87.2056728,3.47398965 87.2056728,3.47398965 L82.4657864,17.3134661 L78.8083004,17.3134661 C78.8083004,17.3134661 70.4958321,4.49412497 65.8403414,3.4821396 C61.1853592,2.47015422 56.8628757,3.14479394 54.2028858,3.4821396 C51.542896,3.81953683 42.5654302,0.44592556 37.2454505,2.80739671 L37.2449421,2.80755145 Z" id="Path"></path>
                        </g>
                        <g id="Group" transform="translate(135.000000, 99.000000)" fill="#FFD8D8">
                            <path d="M26.940357,70.5834443 C26.940357,70.5834443 22.2001835,61.2683586 21.184543,60.6029954 C20.1694201,59.9376321 15.4292466,36.9825995 15.4292466,36.9825995 C15.4292466,36.9825995 22.8772772,25.005552 16.106858,19.6826459 C16.106858,19.6826459 28.6330912,2.38320099 24.5705291,2.71588262 C20.5079669,3.04856426 12.382325,15.6904663 12.382325,15.6904663 C12.382325,15.6904663 10.5203173,15.1914438 11.1979287,12.5299908 C11.8750224,9.86853772 14.4141237,0.387111196 12.382325,0.0544295637 C10.3510439,-0.278252069 6.28848178,14.0270581 6.28848178,14.0270581 C6.28848178,14.0270581 -2.00591594,28.8318995 0.533185399,33.9884648 C2.00022173,36.8732316 3.70900329,39.6674521 5.60983512,42.3039795 L11.3651315,83.5570106 C11.3651315,83.5570106 22.539248,96.865802 26.940357,70.5834443" id="Path"></path>
                        </g>
                        <g id="Group" transform="translate(37.000000, 68.500000) scale(-1, 1) rotate(-90.000000) translate(-37.000000, -68.500000) translate(35.000000, 65.000000)" fill="#F48FB1">
                            <path d="M1.85248048,0.0133348115 C2.87185274,0.0133348115 3.69818773,1.54731438 3.69818773,3.43942889 C3.69818773,5.3315434 2.87185274,6.86552297 1.85248048,6.86552297 C0.833108225,6.86552297 0.0067732376,5.3315434 0.0067732376,3.43942889 C0.0067732376,1.54731438 0.833108225,0.0133348115 1.85248048,0.0133348115" id="Path"></path>
                        </g>
                        <g id="Group" transform="translate(0.000000, 68.000000)" fill="#FFD8D8">
                            <path d="M15.4887177,33.9346209 L10.6754027,33.9346209 C10.6754027,33.9346209 0.0173481208,30.6091928 0.0173481208,22.9607081 C0.0173481208,15.311715 3.11162204,-0.317797028 12.738252,0.0147457821 C22.3648819,0.347288592 13.4258684,20.9654513 13.4258684,20.9654513 L19.2537856,23.2652848 L19.270608,30.27665 L15.4887177,33.9346209 Z" id="Path"></path>
                        </g>
                        <g id="Group" transform="translate(117.000000, 69.000000) scale(-1, 1) rotate(-90.000000) translate(-117.000000, -69.000000) translate(107.000000, 50.000000)" fill="#212121">
                            <path d="M10.0014545,0.00801613811 C15.5076429,0.00801613811 19.9718927,8.37035121 19.9718927,18.6851169 C19.9718927,28.9998826 15.5076429,37.3617167 10.0014545,37.3617167 C4.4947404,37.3617167 0.0304906366,28.9998826 0.0304906366,18.6851169 C0.0304906366,8.37035121 4.4947404,0.00801613811 10.0014545,0.00801613811" id="Path"></path>
                        </g>
                        <g id="Group" transform="translate(142.500000, 80.000000) scale(-1, 1) rotate(-90.000000) translate(-142.500000, -80.000000) translate(139.000000, 78.000000)" fill="#FFD8D8">
                            <path d="M3.46847973,0.0457193538 C5.36059424,0.0457193538 6.89457381,0.872054342 6.89457381,1.8914266 C6.89457381,2.91079886 5.36059424,3.73713385 3.46847973,3.73713385 C1.57636522,3.73713385 0.0423856509,2.91079886 0.0423856509,1.8914266 C0.0423856509,0.872054342 1.57636522,0.0457193538 3.46847973,0.0457193538" id="Path"></path>
                        </g>
                        <g id="Group" transform="translate(152.461197, 61.413269) scale(-1, 1) rotate(-64.097945) translate(-152.461197, -61.413269) translate(140.961197, 54.413269)" fill="#212121">
                            <path d="M11.301484,0.0385034559 C17.5319967,0.0385034559 22.5829684,3.10625446 22.5829684,6.88996735 C22.5829684,10.6741913 17.5319967,13.7414312 11.301484,13.7414312 C5.07147867,13.7414312 0.0205069261,10.6741913 0.0205069261,6.88996735 C0.0205069261,3.10625446 5.07147867,0.0385034559 11.301484,0.0385034559" id="Path"></path>
                        </g>
                    </g>
                </g>
            </g>
        </g>
    </g>
</svg>