<?xml version="1.0" encoding="UTF-8"?>
<svg width="512px" height="208px" viewBox="0 0 512 208" version="1.1" xmlns="http://www.w3.org/2000/svg" xmlns:xlink="http://www.w3.org/1999/xlink">
    <!-- Generator: Sketch 64 (93537) - https://sketch.com -->
    <title>Feature1</title>
    <desc>Created with Sketch.</desc>
    <defs>
        <linearGradient x1="-0.00084731672%" y1="49.9998643%" x2="100%" y2="49.9998643%" id="linearGradient-1">
            <stop stop-color="#E91E63" offset="0%"></stop>
            <stop stop-color="#F48FB1" offset="100%"></stop>
        </linearGradient>
        <linearGradient x1="0%" y1="49.9987615%" x2="99.9998363%" y2="49.9987615%" id="linearGradient-2">
            <stop stop-color="#673AB7" offset="0%"></stop>
            <stop stop-color="#CE93D8" offset="100%"></stop>
        </linearGradient>
        <linearGradient x1="-0.000551932464%" y1="50.0008212%" x2="100%" y2="50.0008212%" id="linearGradient-3">
            <stop stop-color="#00BCD4" offset="0%"></stop>
            <stop stop-color="#B2EBF2" offset="100%"></stop>
        </linearGradient>
        <linearGradient x1="0%" y1="50%" x2="100%" y2="50%" id="linearGradient-4">
            <stop stop-color="#00BCD4" offset="0%"></stop>
            <stop stop-color="#B2EBF2" offset="100%"></stop>
        </linearGradient>
        <linearGradient x1="0%" y1="50%" x2="100%" y2="50%" id="linearGradient-5">
            <stop stop-color="#673AB7" offset="0%"></stop>
            <stop stop-color="#CE93D8" offset="100%"></stop>
        </linearGradient>
        <linearGradient x1="0%" y1="50.0006854%" x2="100%" y2="50.0006854%" id="linearGradient-6">
            <stop stop-color="#673AB7" offset="0%"></stop>
            <stop stop-color="#CE93D8" offset="100%"></stop>
        </linearGradient>
    </defs>
    <g id="Landing" stroke="none" stroke-width="1" fill="none" fill-rule="evenodd">
        <g transform="translate(-144.000000, -1097.000000)" id="How-It-Works">
            <g transform="translate(108.000000, 769.000000)">
                <g id="Feature-1" transform="translate(36.000000, 142.000000)">
                    <g id="Feature1" transform="translate(0.000000, 186.000000)">
                        <g id="Artwork1" transform="translate(357.000000, 3.000000)">
                            <g id="Group" transform="translate(92.000000, 55.000000)" fill="#FFF3E0">
                                <path d="M17.56045,4.78161471 C16.9439897,4.06328111 15.8351934,3.95678783 15.0814337,4.54415453 L14.9219446,4.66784549 L14.9219446,4.66850694 L14.9212511,4.66784549 C14.9136234,4.66718404 12.9283301,4.45948906 11.5608839,2.94543233 C9.87168562,1.0735317 8.60409351,0.0284423063 8.60409351,0.0284423063 C8.60409351,0.0284423063 6.90726752,4.13008746 5.88861719,5.20097337 C5.05858012,6.07408603 2.628104,7.58152826 2.15032995,7.87455016 L2.17043945,7.94400231 L2.06157076,7.92812753 C1.09908835,7.78657745 0.199014735,8.41561543 0.0513139039,9.33304518 C-0.098467221,10.2504749 0.560292356,11.1083743 1.52277477,11.2505858 L3.18562263,11.4953219 L3.30350592,11.9074046 C3.75492959,13.4915749 5.36646354,15.7689438 7.95296167,16.4846316 L7.96613686,16.7240761 L8.1630713,20.2992079 L8.22617354,21.4362387 L8.28511518,22.5269681 C9.88347395,23.7936429 11.765446,24.4180507 13.5149728,23.9636353 C15.2735141,23.506574 16.5681501,22.0460947 17.269209,20.1669181 C17.2775301,20.1450903 17.2844644,20.122601 17.2927856,20.1014346 C17.3087345,20.0538103 17.3267637,20.0081703 17.3427127,19.960546 L16.2505586,17.9768605 L14.9309592,15.5830766 L14.4358493,14.683506 C14.811689,14.2846523 15.1362148,13.8421429 15.4031858,13.3698683 C16.2242082,11.9074046 16.4932595,10.1704396 16.0432227,8.59619101 L15.9364343,8.22048798 L17.3122017,7.14761773 C17.656837,6.8770851 18.028516,5.32731012 17.56045,4.78161471" id="Path"></path>
                            </g>
                            <g id="Group" transform="translate(29.000000, 63.000000)" fill="#D7CCC8">
                                <path d="M0.692938027,1.27719786 C0.842226045,1.06245544 1.05882311,0.827797391 1.34186629,0.820870217 C1.64475701,0.813077145 1.79145622,1.14211795 1.86394289,1.38803266 C1.99769805,1.8443603 2.72515354,1.69802373 2.59053544,1.23563481 C2.42053694,0.65202033 2.08658051,0.180972442 1.45749979,0.0831260979 C0.894002237,-0.00519538112 0.37451445,0.432948426 0.077664287,0.861567369 C-0.196749527,1.25555044 0.420250086,1.67031503 0.692938027,1.27719786" id="Path"></path>
                            </g>
                            <g id="Group" transform="translate(35.000000, 63.000000)" fill="#D7CCC8">
                                <path d="M0.73177017,1.28412503 C0.881921125,1.06851672 1.09765526,0.834724566 1.38069843,0.827797391 C1.68445209,0.82000432 1.83201424,1.14991102 1.90363797,1.39495983 C2.03825606,1.85215337 2.76484862,1.7049509 2.63023052,1.24342788 C2.46023202,0.659813402 2.12713853,0.187899617 1.49719487,0.0900532727 C0.933697317,0.00173179371 0.415072467,0.440741498 0.117359367,0.868494543 C-0.157054447,1.26334351 0.45908223,1.6772422 0.73177017,1.28412503" id="Path"></path>
                            </g>
                            <g id="Group" transform="translate(25.000000, 57.000000)" fill="#FFF3E0">
                                <path d="M0.112037925,6.43259138 C0.558140151,5.61041029 1.60747096,5.29357623 2.4559533,5.72417951 L2.63630703,5.81545947 L2.63630703,5.81612092 L2.63699019,5.81545947 C2.64382177,5.81347513 4.51704122,5.22941567 5.52333307,3.4838518 C6.76531446,1.32752811 7.77092316,0.0601918576 7.77092316,0.0601918576 C7.77092316,0.0601918576 10.259668,3.75306154 11.4647589,4.60765363 C12.4471402,5.30415941 15.1046251,6.31551491 15.6265579,6.51064236 L15.6210927,6.5827403 L15.7228832,6.5463606 C16.6232856,6.2235735 17.6227458,6.66674432 17.9554438,7.53721118 C18.2895081,8.4083395 17.8317922,9.37471646 16.9327562,9.69816502 L15.3785715,10.2557665 L15.3498789,10.6824011 C15.2426231,12.3208102 14.1591344,14.8607743 11.81112,16.0566741 L11.8480106,16.2941343 L12.4000023,19.8342093 L12.5755739,20.9599954 L12.7436308,22.0401416 C11.4633926,23.5872708 9.77667528,24.5596008 7.99499901,24.4484774 C6.20307536,24.3380154 4.65094021,23.1553446 3.58453044,21.4481448 C3.57155044,21.4283013 3.5592536,21.4077964 3.54763991,21.3879529 C3.52236306,21.3449587 3.49640305,21.3032875 3.47044305,21.2596318 L4.11397796,19.1066154 L4.89072869,16.5091052 L5.18312035,15.533468 C4.73770128,15.2139881 4.33190538,14.8429152 3.97598002,14.4321554 C2.88087762,13.1568818 2.26057009,11.5065665 2.3678259,9.87874059 L2.39378591,9.48980859 L0.843700228,8.70202284 C0.454300123,8.50358815 -0.225442166,7.05633777 0.112037925,6.43259138" id="Path"></path>
                            </g>
                            <g id="Group" transform="translate(54.000000, 67.000000)" fill="#FFF3E0">
                                <path d="M28.4617404,18.5323802 C27.5086601,20.3284022 26.3851703,22.0014364 25.1525647,23.5969349 C23.3757265,21.4152394 21.8406947,19.4320622 21.8406947,19.4320622 C21.8406947,19.4320622 19.9594555,17.070564 18.6911515,14.9122629 C18.6453497,14.9089209 18.6029158,14.9082525 18.5557669,14.9035736 C17.3777192,14.7946225 15.7106706,13.7445478 14.2847546,12.5260335 C12.6709168,11.1477688 11.4019392,9.68862623 11.8922872,9.27688468 C12.7227805,8.58173661 14.4221598,11.8863636 15.2930664,11.240678 C15.7315508,10.9151615 12.5389,8.74950792 12.1307257,7.50960439 C12.1186017,7.52564627 12.1058042,7.54168815 12.0936802,7.55773003 C10.9432482,9.03558809 9.52339425,10.3958057 8.39047473,10.737364 C8.34467299,10.7514007 8.30358613,10.7607584 8.2591315,10.7734583 C7.45355972,13.1403038 6.08893727,15.8286552 6.08893727,15.8286552 C3.56108533,20.9854508 3.33342373,21.917885 4.34914468,19.2890221 C2.57702146,17.7977958 1.45757304,17.0926216 0.0195330952,15.3193256 C1.49731278,13.0306843 3.13741923,10.8610202 4.65695932,9.34907313 C4.48318213,9.03959856 4.31277271,8.69202452 4.13966908,8.30100373 C3.58129198,7.04238468 3.39134946,2.6435679 4.54582275,2.58140562 C5.46253111,2.53327999 4.39359932,5.00840816 5.46320467,4.87071537 C6.65202926,4.7169807 7.91225068,-0.445162129 8.88957899,0.156408316 C9.99690342,0.838188154 7.09118712,4.00445393 8.0361848,4.38210649 C8.98185603,4.75909063 10.2440981,-0.615607089 11.3824061,0.139029614 C12.520714,0.892997905 8.97309981,4.47033682 9.86219242,4.96362458 C10.7519586,5.45758076 11.9178823,1.01331199 12.9726694,1.66835537 C14.1507172,2.39759243 10.2582428,6.22491728 10.8455827,6.49963445 C11.8296466,6.95816482 12.826508,3.38216273 13.7802619,3.89817648 C14.0308244,4.03386404 13.9816548,4.44092671 13.7378279,4.99771358 C14.8067597,4.92285148 16.8348339,9.11980795 17.6168312,8.60646784 C18.4661841,8.04834414 14.9791898,5.52575874 15.9255346,4.63677131 C16.7614164,3.8527245 19.040053,8.65927235 20.2362867,8.57237884 C21.311954,8.49417469 19.7647981,6.28306909 20.6720767,6.14671313 C21.8150996,5.97760499 22.5189646,10.3242857 22.2273153,11.6691298 C22.1363853,12.0868871 22.0393934,12.461866 21.9322982,12.798077 C23.9738434,14.1395791 26.3393686,16.2805015 28.4617404,18.5323802 Z M13.3734347,5.70221941 C13.168674,6.05514074 12.9167644,6.43814059 12.6358919,6.83183502 C13.6421831,7.07045797 15.2748805,10.1164097 15.9470884,9.54090726 C16.5950483,8.98545722 13.7304188,6.92006535 13.3734347,5.70221941" id="Shape"></path>
                            </g>
                            <g id="Group" transform="translate(116.000000, 36.000000)" fill="#FFF3E0">
                                <path d="M9.44220348,21.6839409 C9.11722398,18.7342405 8.74280541,16.0097948 8.74280541,16.0097948 C8.74280541,16.0097948 8.37497872,13.0226633 7.72963404,10.6103658 C7.75797911,10.5762768 7.78632418,10.5461983 7.81532843,10.5101041 C8.54900425,9.59905907 8.95440464,7.68472823 9.07833191,5.82119667 C9.2174205,3.71436329 9.0631706,1.79267993 8.43760155,1.85016332 C7.37762785,1.94908824 8.53450213,5.46961217 7.48309787,5.6327046 C6.85423288,5.73096111 7.91354739,0.400378552 6.55562089,0.445162129 C5.33941973,0.485266826 6.83445725,4.8205845 5.83974313,4.90279913 C4.8456882,4.98367693 5.76393656,0.0521361052 4.42446731,0.0548086649 C3.08433888,0.0581518097 5.01180348,5.21895782 4.0362058,5.42817065 C3.06060812,5.63872031 3.68288124,1.40232755 2.40867157,1.44711113 C1.28277911,1.48855265 3.09488588,6.47156117 2.21421122,7.25627639 C1.41923095,7.96211905 0.927476982,5.31721432 0.209621663,5.86263819 C-0.693465377,6.55243897 1.87802553,10.1003678 3.02303443,10.8369574 C3.37899574,11.066891 3.70727118,11.2607303 4.01972611,11.4204807 C3.54840696,13.8641935 3.43304913,17.138742 3.57411528,20.2903027 C3.59257253,20.7047179 3.61498491,21.1171279 3.6420116,21.5248589 C5.59979884,22.359705 7.60570677,23.0548531 9.64589246,23.6336976 C9.58326963,22.9900172 9.51339574,22.3316317 9.44220348,21.6839409" id="Path"></path>
                            </g>
                            <g id="Group" transform="translate(19.000000, 148.000000)" fill="#FFF3E0">
                                <path d="M16.0759412,1.57927711 C15.5261913,1.60670872 14.9829705,1.62107766 14.4430142,1.62891526 L13.5374285,10.3959279 L10.5392675,2.37675327 L10.53535,1.54466103 C6.52256734,1.30953292 2.99685526,0.662277497 0.34865375,0.0274316123 L0.03656294,2.23306387 L12.4313996,21.0975224 L10.065908,43.9859372 L16.1960766,26.8268106 L24.2777922,39.126623 L17.8982121,22.0622008 L25.5738178,0.576063858 C22.7858936,1.02084786 19.5455031,1.4101155 16.0759412,1.57927711" id="Path"></path>
                            </g>
                            <g id="Group" transform="translate(21.000000, 82.000000)" fill="#FFF3E0">
                                <path d="M0.0588810353,11.9516952 C0.07939016,11.7157432 0.257356435,10.4905809 1.14851098,5.73920764 L6.84872447,5.22878068 L11.5691311,4.80640582 C11.6888779,4.46382816 11.8403808,4.09923748 12.0229781,3.70231517 C12.6091422,2.42487198 15.7873949,-0.675524619 16.5726959,0.175416271 C17.1959087,0.853004611 14.6554235,1.68743573 15.4440325,2.42349616 C15.792026,2.74818824 16.7433847,2.54869523 17.7721489,2.26527757 C19.331504,1.83533573 21.0701485,1.21071622 21.176002,1.91031758 C21.332136,2.95043288 18.7188766,3.09214171 17.7781032,3.59362588 C17.5300089,3.7250161 17.3923993,3.88117098 17.4592194,4.08685516 C17.5002376,4.21205422 17.6140302,4.27809329 17.7807495,4.30285794 C18.9338916,4.47001932 22.6433968,2.61679802 22.7862991,3.82889005 C22.9503721,5.21708627 17.9931182,4.87175698 18.1922552,5.89192298 C18.3927153,6.91140107 22.4733695,4.82979466 22.6586132,6.08660064 C22.8431954,7.33790337 18.5839133,7.11914897 17.7946428,7.51400755 C17.7006978,7.56078522 17.6530637,7.61650569 17.671588,7.68460847 C17.6934203,7.76784521 17.7403928,7.82975684 17.7966275,7.88272567 C18.4628433,8.51078471 21.2964104,7.20788896 21.5028248,8.20879357 C21.6324954,8.8361647 19.8389394,9.22895956 17.8025818,9.35278281 C17.760902,9.35484653 17.7192221,9.35759816 17.6768807,9.36034979 C15.8310595,9.46284793 13.9018786,9.27642514 12.9181022,8.62979262 C12.8790687,8.60365215 12.8466511,8.57819959 12.8089407,8.55274704 C12.8698065,8.59470936 10.0170534,9.38924188 6.87055676,10.223673 C4.33801066,10.896446 1.61625134,11.5946715 0.06946639,11.9510073 C0.0628505433,11.9984729 0.051603604,12.0328683 0.0588810353,11.9516952" id="Path"></path>
                            </g>
                            <g id="Group" transform="translate(52.000000, 46.000000)" fill="#311B92">
                                <path d="M5.16404652,2.84057463 L7.87626667,7.54564165 L2.45118184,7.54564165 L5.16404652,2.84057463 Z M5.16404652,0.0584480376 L0.0412504964,8.94384859 L10.2868426,8.94384859 L5.16404652,0.0584480376 Z" id="Shape"></path>
                            </g>
                            <g id="Group" transform="translate(77.000000, 112.000000) scale(-1, 1) translate(-77.000000, -112.000000) translate(76.000000, 108.000000)" fill="#E91E63">
                                <rect id="Rectangle" x="0.0845677791" y="0.0228981612" width="1.85738457" height="7.13789563"></rect>
                            </g>
                            <g id="Group" transform="translate(76.000000, 112.000000) scale(-1, 1) translate(-76.000000, -112.000000) translate(72.000000, 111.000000)" fill="#E91E63">
                                <rect id="Rectangle" x="0.0503379638" y="0.0502220175" width="7.11349257" height="1.86375639"></rect>
                            </g>
                            <g id="Group" transform="translate(121.000000, 160.000000)" fill="#006064">
                                <path d="M5.16211291,2.83018386 L7.87433305,7.53460147 L2.44924823,7.53460147 L5.16211291,2.83018386 Z M5.16211291,0.0474078527 L0.0386723404,8.93280841 L10.2849089,8.93280841 L5.16211291,0.0474078527 Z" id="Shape"></path>
                            </g>
                            <g id="Group" transform="translate(139.000000, 96.000000)" fill="#E84393">
                                <path d="M4.48209229,2.97002621 C4.48209229,3.41128724 4.33711896,3.83315219 4.08401968,4.12894255 C3.80373789,4.45625156 3.40928961,4.62172445 2.91094377,4.62172445 C1.67142175,4.62172445 1.3403993,3.58342754 1.3403993,2.97002621 C1.3403993,2.5293713 1.48537263,2.10690022 1.73847192,1.81110986 C2.0187537,1.48440697 2.41320198,1.31832796 2.91154782,1.31832796 C4.15106984,1.31832796 4.48209229,2.357231 4.48209229,2.97002621 Z M5.0692343,4.97933985 C5.52892059,4.44291675 5.78201987,3.72950434 5.78201987,2.97002621 C5.78201987,1.50137855 4.79620119,0.0139409393 2.91094377,0.0139409393 C2.03023075,0.0139409393 1.28361808,0.34124995 0.75325729,0.961318686 C0.292966949,1.49713566 0.0404717229,2.2111542 0.0404717229,2.97063233 C0.0404717229,4.43927999 1.02629041,5.9267176 2.91154782,5.9267176 C3.79226084,5.92611147 4.53887352,5.59880246 5.0692343,4.97933985" id="Shape"></path>
                            </g>
                            <g id="Group" transform="translate(0.000000, 177.000000)" fill="#673AB7">
                                <polygon id="Path" points="2.40355627 6.72465117 11.9944725 0.231675514 0.0239944294 0.0343472418"></polygon>
                            </g>
                            <g id="Group" transform="translate(14.000000, 74.000000)" fill="url(#linearGradient-1)">
                                <path d="M39.1703187,60.3615677 C37.4561433,48.6425967 29.8886694,35.9442669 29.8886694,35.9442669 L24.9897787,35.9662675 L24.9078956,17.8177961 C24.8649406,17.8197962 24.8226567,17.8231296 24.7797016,17.8251296 C22.9071294,17.9244655 20.9499893,17.7437942 19.9526265,17.1171112 C19.9130273,17.0917773 19.8794687,17.0671099 19.8412118,17.0424426 C19.9029597,17.083777 17.0088624,17.8531304 13.8167643,18.6624847 L13.8952915,36.0156021 L8.99640089,36.0376027 C8.99640089,36.0376027 5.66134299,40.4090495 2.66321387,48.7986008 C-0.334915252,57.188152 0.0711443221,72.0805388 0.0711443221,72.0805388 C0.0711443221,72.0805388 2.0296267,72.8292249 5.25796811,73.5992449 C7.98024519,74.2472617 11.6045786,74.9079456 15.7302781,75.1479518 C17.0242993,75.2232871 18.3673162,75.2559546 19.7465764,75.2346207 C20.3009652,75.2252871 20.8600522,75.2112868 21.4251797,75.1839527 C24.9917923,75.0119483 28.3228231,74.6139379 31.18806,74.1592594 C36.9963899,73.2372355 40.883823,72.0805388 40.883823,72.0805388 C40.883823,72.0805388 40.883823,72.0798721 39.1703187,60.3615677 Z M12.6173784,1.54270673 C14.0120756,0.59601548 15.9188777,0.0660017142 18.5297401,0.0540014026 L19.0740612,0.0520013506 C21.6768695,0.0400010389 23.5991086,0.550014285 25.0226662,1.47870507 C24.9031974,1.48137181 24.8333955,1.48270518 24.8333955,1.48270518 L24.8729947,10.1989316 L24.8763505,10.9496177 C23.8326767,11.2249582 22.8682014,11.4182966 22.5144933,11.102955 C21.7144552,10.3896032 24.291759,9.58091551 23.6595141,8.92423179 C22.8635031,8.09887702 19.6391888,11.1036217 19.0438585,12.3423206 C18.8586147,12.7269972 18.7049162,13.0803397 18.5834339,13.4123484 L13.7946156,13.8216923 L13.7785074,10.2482662 L13.7389082,1.53203979 C13.7389082,1.53270648 13.3033171,1.52270622 12.6173784,1.54270673 Z" id="Shape"></path>
                            </g>
                            <g id="Group" transform="translate(38.000000, 90.000000)" fill="#E84393">
                                <path d="M0.0273269408,0.407874538 C0.165561979,0.593755696 0.462976759,0.73088114 0.819036706,0.848199576 L0.806469884,0.0300177576 C0.211640325,0.135147265 -0.0857744542,0.257036549 0.0273269408,0.407874538" id="Path"></path>
                            </g>
                            <g id="Group" transform="translate(38.000000, 86.000000)" fill="#E84393">
                                <path d="M0.0785718198,0.601540575 C0.1771477,0.745178702 0.45061627,0.82136246 0.852869458,0.849931369 L0.844919791,0.0317495513 C0.247104776,0.184117067 -0.0836014023,0.364259912 0.0785718198,0.601540575" id="Path"></path>
                            </g>
                            <g id="Group" transform="translate(68.000000, 154.000000)" fill="#F48FB1">
                                <path d="M4.46699091,2.99305906 C4.46699091,3.4343201 4.32201757,3.85618504 4.06891829,4.15136928 C3.78863651,4.47867829 3.39418822,4.64475731 2.89584238,4.64475731 C1.65632036,4.64475731 1.32529791,3.60646039 1.32529791,2.99305906 C1.32529791,2.55179803 1.47027125,2.12993308 1.72337053,1.83474884 C2.00365231,1.50743983 2.39810059,1.34136081 2.89644644,1.34136081 C4.13596846,1.34136081 4.46699091,2.37965773 4.46699091,2.99305906 Z M5.05413291,5.00176658 C5.5138192,4.46594961 5.76691848,3.75193106 5.76691848,2.99305906 C5.76691848,1.52380528 4.7810998,0.0369737956 2.89584238,0.0369737956 C2.01512937,0.0369737956 1.26851669,0.364282806 0.738155901,0.983745415 C0.278469616,1.51956239 0.0253703337,2.23358093 0.0253703337,2.99305906 C0.0253703337,4.46231284 1.01118902,5.94914433 2.89644644,5.94914433 C3.77715945,5.94914433 4.52377213,5.62183532 5.05413291,5.00176658" id="Shape"></path>
                            </g>
                            <g id="Group" transform="translate(79.000000, 56.000000)" fill="url(#linearGradient-2)">
                                <path d="M47.7666677,10.3134356 C47.8553752,9.90674603 47.8856014,9.48078519 47.8409192,9.04352742 C47.7482691,8.14841158 47.1857981,4.90486265 46.4058296,1.41012309 C46.4774526,2.05471282 46.5464473,2.7086059 46.6088711,3.34854395 C44.5751704,2.77306488 42.5749815,2.08195837 40.6240744,1.25196603 C40.5971336,0.845940951 40.5747925,0.435928723 40.5563939,0.0245874432 C40.3691226,3.57448262 40.286329,7.38620084 40.0405765,9.86222282 C40.009036,10.1805305 40.0379481,10.4848832 40.108257,10.7739518 C38.1961184,12.4299493 36.3273479,14.5431404 34.9579675,16.2443256 C33.3342924,16.2549581 15.1913169,19.8021951 12.8231563,20.9903667 C12.4768686,21.1644724 12.2317732,21.4655024 12.0675001,21.8575725 C11.4662607,22.2210679 10.9313875,22.718133 10.5180765,23.3474386 C9.7893611,24.4585253 7.95213103,28.3293862 6.52755492,32.1690145 C6.42242015,32.4514379 6.31925666,32.7345257 6.21937863,33.01562 C5.42758241,32.0121865 4.53065142,30.9668879 3.5844385,29.9441832 C2.65530999,31.7297632 1.55928003,33.3930705 0.356144027,34.9792928 C0.249695074,35.1181787 0.149159952,35.2610516 0.0427109996,35.3992729 C1.53233925,37.7583384 2.80249866,39.6316358 3.22960866,40.1665788 C4.58847554,41.8710867 7.0578284,42.1388905 8.74327016,40.7646518 C9.04618971,40.5174483 9.30114152,40.2336959 9.51075396,39.9253561 C11.2237936,38.5963051 13.0360542,36.5043788 14.6019051,34.4662792 L20.979643,53.6810338 L39.9262424,50.3431222 L39.9268995,50.3437867 L39.3946547,26.420869 C39.3946547,26.420869 39.389398,26.2115435 39.3723136,25.859345 C37.9247392,26.6640854 48.6057746,15.6256524 47.7666677,10.3134356 Z" id="Path"></path>
                            </g>
                            <g id="Group" transform="translate(146.000000, 102.000000)" fill="#CE93D8">
                                <polygon id="Path" points="0.062778632 3.58221528 8.35149966 7.47759659 2.8146832 0.0067347533"></polygon>
                            </g>
                            <g id="Group" transform="translate(91.000000, 181.000000)" fill="#CE93D8">
                                <polygon id="Path" points="13.3489568 0.0634991025 0.026846914 9.35156575 13.3489568 9.35156575"></polygon>
                            </g>
                            <g id="Group" transform="translate(43.000000, 186.000000)" fill="#00BCD4">
                                <polygon id="Path" points="0.00263675048 0.0142285026 1.93603404 10.2089506 9.24510638 4.3629763"></polygon>
                            </g>
                            <g id="Group" transform="translate(24.000000, 192.000000)" fill="#00BCD4">
                                <polygon id="Path" points="5.08761006 0.0244736124 0.0632820116 9.35487299 9.49296093 9.31187881"></polygon>
                            </g>
                            <g id="Group" transform="translate(19.000000, 51.000000)" fill="#FF6F00">
                                <path d="M30.6919005,13.5406293 C29.80231,16.4213215 25.6531665,16.4475275 25.427521,18.5210755 C25.2005078,20.5959339 29.5424757,20.9202329 27.8234667,22.954472 C26.4436098,24.5871045 21.3973543,25.1420161 18.6342217,25.2153928 L18.0817319,21.7090329 L18.0448081,21.4738342 C20.3949409,20.289324 21.4794072,17.77355 21.5867598,16.1507448 L21.6154783,15.7281733 L23.171749,15.1758823 C24.0709124,14.8555142 24.5297251,13.8983409 24.1946756,13.035509 C23.8616774,12.1739875 22.8613154,11.7343822 21.9601007,12.0540951 L21.858902,12.0907835 L21.8636885,12.018717 C21.3412848,11.8247928 18.6814021,10.8237244 17.6988182,10.133852 C16.4919563,9.2873989 14.0009659,5.6296994 14.0009659,5.6296994 C14.0009659,5.6296994 12.9937661,6.88431064 11.7513479,9.02075306 C10.7441481,10.7496925 8.86923856,11.3281895 8.86240081,11.3301549 L8.86171704,11.3308101 L8.86171704,11.3301549 L8.68188436,11.2397443 C7.8319527,10.813242 6.78167512,11.1264035 6.3351704,11.9414094 C5.99806959,12.5592154 6.67774141,13.9926824 7.06680907,14.1892272 L8.61829333,14.9695103 L8.59299368,15.3547381 C8.48495731,16.967061 9.10582452,18.6010038 10.2025988,19.8647871 C10.5581615,20.2722901 10.9643235,20.6391738 11.4108282,20.955611 L11.117489,21.9219564 L10.3400374,24.4947284 C8.14443763,24.1186726 1.9357655,22.4008707 0.786340632,20.2480495 C-0.456077567,17.9170277 3.86264194,18.4594915 4.08760374,16.3852883 C4.31393309,14.311085 0.259834296,13.4646319 0.0102566169,10.4692885 C-0.238637288,7.47460031 7.08800608,8.03737371 8.23743096,3.66949219 C9.38685583,-0.698389336 15.1955199,0.0628943492 15.1955199,0.0628943492 L18.0796806,0.351815266 C18.0796806,0.351815266 24.1611706,1.44263913 24.3437384,5.943516 C24.52699,10.4457032 31.5821749,10.659937 30.6919005,13.5406293" id="Path"></path>
                            </g>
                            <g id="Group" transform="translate(99.000000, 105.000000)" fill="#006064">
                                <path d="M29.990884,17.2028713 C26.4836457,8.00315868 20.3299587,0.0617876272 20.3233525,0.0518218809 L20.3226918,0.0518218809 L1.27499903,3.38901813 C1.27499903,3.38901813 -1.14683851,25.5647969 0.706864749,36.4919055 L5.35433532,76.7747809 L9.00030406,38.7979792 C12.9263762,21.8037242 13.5248991,11.3190947 13.5248991,11.3190947 C19.5279645,20.8696016 26.580757,32.1289018 30.4335002,31.2260052 L30.5041867,31.4877721 L30.7069974,31.1409641 C30.8972564,31.0619025 31.077606,30.9529437 31.2440825,30.8041219 C31.8855458,30.2300949 46.9021276,0.625848869 46.9021276,0.625848869 L29.990884,17.2028713 Z" id="Path"></path>
                            </g>
                            <g id="Group" transform="translate(91.000000, 49.000000)" fill="#212121">
                                <path d="M9.46000782,22.8133033 L9.44694963,22.5695053 C7.01224957,21.8414784 5.49423465,19.5227029 5.06919047,17.9097295 L4.95819583,17.4894808 L3.39251851,17.240295 C2.48627992,17.0954978 1.86666867,16.2220003 2.00704424,15.28789 C2.14676691,14.3537797 2.99424362,13.7133047 3.90048221,13.8574284 L4.00298902,13.8742653 L3.98340173,13.8028769 C4.43390939,13.5052008 6.72170478,11.9703505 7.50323762,11.0806896 C8.46236189,9.98965957 10.0606847,5.81411252 10.0606847,5.81411252 C10.0606847,5.81411252 11.2535506,6.87887702 12.8440385,8.78413873 C14.1315763,10.3257238 16.0015095,10.537195 16.0080386,10.5378685 L16.0086915,10.538542 L16.0086915,10.5378685 L16.1588608,10.4119286 C16.8685735,9.81320903 17.9125761,9.92231204 18.4930127,10.6537062 C18.9330738,11.2093234 18.5837672,12.7872761 18.2592711,13.062054 L16.9638984,14.154431 L17.0644464,14.536965 C17.4875319,16.1398363 17.2342029,17.9083825 16.4611579,19.3981099 C16.2097877,19.8789713 15.904226,20.3288528 15.550349,20.7349585 L16.0171794,21.6508849 L17.2590135,24.0881921 C19.2373297,23.2753074 24.7028364,20.3174038 25.3459524,17.9225255 C26.041954,15.328972 22.111438,16.7291272 21.4852976,14.6851296 C20.8585044,12.6411319 17.0076433,6.87281574 15.0580551,2.70063607 C13.1097727,-1.47087012 7.82773372,0.444493718 7.82773372,0.444493718 L5.18867294,1.30519519 C5.18867294,1.30519519 -0.282709876,3.60713387 0.447896015,8.17666398 C1.177849,12.7461941 1.32475367,19.012882 1.95089401,21.0562062 C2.57834018,23.1002038 -1.41811975,24.2855204 0.596759414,25.9948008 C2.2140166,27.3659966 7.04554796,26.9262172 9.64412834,26.454111 L9.46000782,22.8133033 Z" id="Path"></path>
                            </g>
                            <g id="Group" transform="translate(11.000000, 76.000000)" fill="url(#linearGradient-3)">
                                <path d="M10.0574548,18.4977892 L12.0924696,33.8992079 L16.8885863,33.878282 L16.8117065,16.8557646 C14.2970143,17.4946567 11.5937366,18.1597061 10.0574548,18.4977892 Z M48.4001047,10.2020012 C47.4085524,12.7745718 46.4137147,14.6657446 46.1022529,15.2673625 C46.0989675,15.272594 46.0963391,15.2791333 46.0937107,15.2856726 C45.5226975,16.3973579 45.1612968,18.1963263 44.0218987,18.4101622 C41.9198604,19.2543891 38.1915187,16.8178365 34.9625672,14.1563312 L32.5464388,33.8083112 L29.5888663,33.8213899 L27.7503221,33.829891 L27.6701568,16.02854 C29.6926869,15.9114861 31.4740641,15.5380906 31.345274,14.9410502 C31.1396041,13.9895784 28.3259349,15.2287805 27.664243,14.6317401 L27.6622717,14.2812323 C28.4455257,13.905875 32.676543,14.1138256 32.4925572,12.9236684 C32.3085713,11.7295876 28.255626,13.7090413 28.0565271,12.7392594 C27.8593994,11.7701314 32.7823349,12.0970977 32.6200331,10.7781158 C32.4774441,9.62588668 28.7937846,11.3882348 27.6484727,11.2286753 L27.6458444,10.5551248 C28.5795725,10.078408 31.1750871,9.94369789 31.0206704,8.95429798 C30.9155357,8.28990254 29.18804,8.8843272 27.6392735,9.2923811 L27.635988,8.55605308 L27.5972195,0.00653932519 C27.5972195,0.00653932519 27.6662142,0.00457752763 27.7825196,0.00261573008 C28.5355474,-0.00915505527 31.4918056,-0.00719325771 34.0478947,0.664395439 C34.3357011,0.740251612 34.5781682,0.901772944 34.7844951,1.12868753 C35.2372317,1.35364031 35.6636846,1.64987175 36.0421698,2.02392115 C36.9765551,2.94858173 39.5425005,6.30979488 41.6990774,9.72397656 C42.3804821,8.67245307 43.1919911,7.45156106 44.0659239,6.18293197 C44.1033781,6.23001511 44.1395182,6.27317466 44.1769725,6.31894993 C45.5792075,8.05383291 46.6712949,8.74373171 48.4001047,10.2020012 Z M16.7906796,12.1088685 L16.7742523,8.60379015 L16.7361409,0.0542763991 C16.7361409,0.0542763991 16.309688,0.0444674113 15.6381397,0.0647393194 C14.3719228,0.102013473 12.2173172,0.245224695 10.2913796,0.770332508 C10.1205356,0.817415649 9.96677602,0.895887551 9.82615827,0.999208889 C9.38722061,1.1783864 8.96668154,1.45173019 8.57833999,1.84212791 C7.3311788,3.09898621 2.32873511,9.18709796 0.701117485,13.4186953 C0.203698613,14.1406368 -0.0538815687,15.0319468 0.0315404304,15.9716478 C0.0584812148,16.2750725 0.123533353,16.5660725 0.215526275,16.8439938 C0.301605366,17.1945017 0.450108226,17.511005 0.671548332,17.7843488 C1.4423176,18.935924 2.80512703,19.6421711 4.28752726,19.5094228 C4.97681709,19.4479531 7.26415539,19.0634408 10.0462842,18.499751 C10.0666541,18.2754521 10.2434119,17.1107983 11.1285152,12.5940864 L16.7906796,12.1088685 Z" id="Shape"></path>
                            </g>
                            <g id="Group" transform="translate(50.000000, 0.000000)" fill="url(#linearGradient-4)">
                                <path d="M52.3179694,0.0158243154 L7.93391066,0.0158243154 C3.57440919,0.0158243154 0.0395180674,3.5551962 0.0395180674,7.91875119 L0.0395180674,35.2717398 C0.0395180674,37.3223073 1.70059417,38.9851791 3.74894733,38.9851791 L31.9358675,38.9851791 C32.873763,42.2041086 35.2310157,46.6408511 41.1560913,48.6188905 L39.4785493,38.9884759 L52.3127003,38.9884759 C54.3610535,38.9884759 56.021471,37.3256041 56.021471,35.2750365 L56.0221296,3.73256041 C56.021471,3.73190106 56.021471,3.73058237 56.021471,3.72926367 C56.021471,1.68067417 54.3643467,0.0191210478 52.3179694,0.0158243154 L52.3179694,0.0158243154 Z" id="Path"></path>
                            </g>
                            <g id="Group" transform="translate(68.000000, 7.000000)" fill="#B2EBF2">
                                <path d="M0.0386353334,2.92095872 L23.2411514,2.92095872 L23.2411514,0.0410098371 L0.0386353334,0.0410098371 L0.0386353334,2.92095872 Z M11.6199096,24.1878665 L22.7149115,24.1878665 L22.7149115,21.3079176 L11.6199096,21.3079176 L11.6199096,24.1878665 Z M1.80453652,18.871801 L22.8468046,18.871801 L22.8468046,15.9918521 L1.80453652,15.9918521 L1.80453652,18.871801 Z M5.81928056,13.5544126 L22.9773653,13.5544126 L22.9773653,10.6744637 L5.81928056,10.6744637 L5.81928056,13.5544126 Z M14.408981,8.23834711 L23.1105906,8.23834711 L23.1105906,5.35839823 L14.408981,5.35839823 L14.408981,8.23834711 Z" id="Shape"></path>
                            </g>
                        </g>
                        <g id="Artwork2">
                            <g id="Group" transform="translate(30.000000, 77.000000)" fill="#D7CCC8">
                                <path d="M2.15806042,0.728796518 C1.90493237,0.289353865 1.54177992,-0.0259769056 1.01395041,0.0187610985 C0.54005444,0.0584480376 0.206385651,0.516651789 0.04961885,0.922180148 C-0.0949230174,1.29595896 0.485401794,1.50882527 0.629224547,1.1372112 C0.708327062,0.93372544 0.837048426,0.70065487 1.06500749,0.63932051 C1.30950617,0.572935084 1.49216107,0.811056719 1.60002813,0.9950598 C1.79706531,1.33781064 2.35725493,1.07443368 2.15806042,0.728796518" id="Path"></path>
                            </g>
                            <g id="Group" transform="translate(37.000000, 76.000000)" fill="#D7CCC8">
                                <path d="M0.646483278,1.14514859 C0.724147565,0.940941247 0.853588043,0.709313839 1.08082799,0.647979478 C1.32532667,0.581594053 1.51013891,0.818994107 1.61584864,1.00299719 C1.81432404,1.34719119 2.37379455,1.08381423 2.17460003,0.737455486 C1.92147199,0.298012834 1.56047688,-0.0173179371 1.03120914,0.027420067 C0.556594057,0.0671070061 0.223644382,0.526032338 0.0668775804,0.930839117 C-0.0783834007,1.30389634 0.50194141,1.51748423 0.646483278,1.14514859" id="Path"></path>
                            </g>
                            <g id="Group" transform="translate(25.000000, 70.000000)" fill="#FFD8D8">
                                <path d="M19.5306266,4.94951452 C20.1241112,5.81668616 19.893815,6.9940413 19.0156692,7.58010916 L17.4972245,8.59193368 L17.5817923,9.06615652 C17.9079823,10.8884846 17.4307784,13.9493097 15.2320161,15.8655875 L15.3354607,16.1161203 L16.8841081,19.850998 L17.3764134,21.038792 L17.8490869,22.1781199 C16.8924139,24.2032602 15.3430114,25.7034746 13.3987075,26.0427378 C11.4445878,26.3827466 9.45875508,25.4887322 7.85196728,23.8938223 C7.83309054,23.8751815 7.81496888,23.855795 7.79684721,23.8378998 C7.7575836,23.7976356 7.71756492,23.7588627 7.67981144,23.7171072 L7.78854144,21.1931382 L7.92218874,18.1479713 L7.97277839,17.0026784 C7.40723137,16.7692952 6.87188712,16.4673137 6.37958184,16.108664 C4.85811688,14.9946877 3.74740971,13.3468379 3.42348492,11.5356943 L3.34571276,11.103227 L1.46785502,10.6409343 C0.996691683,10.5238698 -0.123831391,9.1146227 0.0709765289,8.34363776 C0.328455214,7.32808507 1.36818586,6.71070061 2.39659046,6.96347033 L2.61405046,7.01715594 L2.61405046,7.01790157 L2.61480553,7.01715594 C2.6155606,7.01715594 2.62613157,7.0096996 2.64349817,6.9985151 C2.65029379,6.9940413 2.65708942,6.98882187 2.66690532,6.9828568 C2.68351685,6.9716723 2.70163852,6.95974217 2.72580074,6.94333823 C2.7416572,6.93289936 2.75675859,6.92171486 2.77563532,6.90829346 C2.79904248,6.89114389 2.82546991,6.87250306 2.85416255,6.85087969 C2.87681463,6.83373012 2.89871164,6.81732619 2.92438401,6.79868535 C2.95836213,6.77258818 2.99460546,6.74276285 3.03235894,6.71293751 C3.05727623,6.69280541 3.07992831,6.67565584 3.10560067,6.65403247 C3.16978158,6.6010925 3.2384929,6.54293309 3.30946943,6.47731736 C3.32608096,6.46315032 3.34344755,6.44600075 3.36005908,6.43108808 C3.4189545,6.37740248 3.47860499,6.31998871 3.54052068,6.2595924 C3.56619304,6.23424087 3.5918654,6.20739806 3.61753777,6.1813009 C3.65227096,6.14625613 3.68624909,6.11270262 3.72173735,6.07467532 L3.72098228,6.07169279 L3.57147853,5.34395459 C3.42499505,4.62590962 3.42046464,3.91457536 3.52692943,3.23008389 C3.91730034,1.57254084 5.51653745,0.878356147 7.97051318,0.388475002 C11.2799826,-0.272901825 14.8854393,-0.318385462 15.5551859,2.94972573 L15.8307862,4.29783092 C15.8579687,4.30155909 15.8889266,4.30677852 15.915354,4.31050669 C16.0036971,4.32392809 16.0882649,4.33585823 16.1667921,4.34704273 C16.2188919,4.35449906 16.263441,4.36046413 16.3102553,4.36792046 C16.3729261,4.37612243 16.4295563,4.3843244 16.4824112,4.3910351 C16.5111038,4.39476327 16.5382863,4.39923707 16.5639587,4.4022196 C16.6387105,4.41265847 16.7036465,4.42160607 16.7504608,4.4268255 L16.7648071,4.50809954 L16.8644763,4.44173817 C17.7448873,3.85417905 18.9386521,4.08234287 19.5306266,4.94951452" id="Path"></path>
                            </g>
                            <g id="Group" transform="translate(0.000000, 58.000000)" fill="#FFD8D8">
                                <path d="M9.48079592,11.0629628 C10.4956093,9.88784453 12.1171629,5.23509211 10.8753013,4.81157234 C9.88963607,4.47678294 10.2616576,7.45707964 9.13562131,6.978383 C7.88608923,6.44600075 8.16683124,0.527162815 6.90502628,0.867917279 C5.47523635,1.25639228 7.63449529,5.5475125 6.48007799,5.65786625 C5.32412658,5.76896562 5.67160235,-0.378036134 4.18428331,0.0768002403 C2.69773133,0.531636615 5.42767896,5.46176466 4.2962733,5.71602565 C3.16563469,5.96804974 3.31904563,0.847039544 1.95522239,1.22134751 C0.434152952,1.63815658 3.45864958,6.94333823 2.72764646,7.05443761 C1.50419424,7.24084596 1.56555861,3.10258058 0.35514632,3.35982411 C-0.358214538,3.51118769 0.137302789,5.60865444 1.02325095,7.80156228 C1.80641379,9.74095475 2.9217113,11.6363549 4.05004874,12.3551455 C4.09530497,12.3834795 4.13672592,12.4065942 4.18044804,12.4326913 C4.30164268,15.2183777 4.93062752,18.5200424 4.93062752,18.5200424 C4.93062752,18.5200424 5.71915974,23.0191944 6.57442571,26.9345153 C8.63626871,25.6222006 10.6206392,24.1965495 12.5022243,22.6389213 C11.544173,18.8264977 10.1281901,14.7814365 8.5772055,12.0240842 C8.86868628,11.7481999 9.1663035,11.4290688 9.48079592,11.0629628" id="Path"></path>
                            </g>
                            <g id="Group" transform="translate(68.000000, 108.000000)" fill="#FFD8D8">
                                <path d="M16.4725953,10.2488634 C16.6674032,9.05176099 19.0013229,11.0072808 19.2452103,10.0041393 C19.5487482,8.74112049 14.7276298,7.51522702 13.1850229,7.70691494 C12.7063088,7.76677006 12.2744091,7.83799008 11.8855483,7.92436329 C10.5800332,5.50288274 8.40543319,2.63665592 6.08283954,0.0333370288 C3.96788999,0.919798932 1.97375156,2.01082897 0.0558751398,3.23217648 C2.33467476,5.4415123 4.41338097,7.36066444 4.41338097,7.36066444 C4.41338097,7.36066444 6.88321317,9.70562135 9.18617501,11.3429241 C9.18541994,11.3944449 9.18164459,11.4421775 9.18164459,11.4952137 C9.18768515,12.8271795 10.2032536,14.7993678 11.4325066,16.5192554 C12.8225895,18.466441 14.339524,20.034039 14.8514611,19.5271646 C15.7160157,18.6664632 12.1664342,16.4306093 12.979644,15.5183869 C13.4643985,14.9751449 16.3555595,20.4136265 17.524407,19.3809363 C18.5716884,18.4573491 14.1371654,15.7570497 14.9579259,14.9584764 C15.7779314,14.159903 18.5082625,19.1460618 19.6899462,18.1648924 C20.872385,17.183723 15.4615573,14.0758028 16.1743428,13.1794913 C16.8863733,12.2839375 19.3788576,16.4450048 20.4737083,15.4729273 C21.437932,14.6160142 16.2558903,11.5800716 16.4725953,10.2488634" id="Path"></path>
                            </g>
                            <g id="Group" transform="translate(68.000000, 177.000000) scale(-1, 1) translate(-68.000000, -177.000000) translate(67.000000, 173.000000)" fill="#00CEC9">
                                <rect id="Rectangle" x="0.0697540355" y="0.0591696183" width="1.54782047" height="7.64774532"></rect>
                            </g>
                            <g id="Group" transform="translate(68.000000, 178.000000) scale(-1, 1) translate(-68.000000, -178.000000) translate(64.000000, 177.000000)" fill="#00CEC9">
                                <rect id="Rectangle" x="0.0532144188" y="0.00360790355" width="7.62167109" height="1.55313032"></rect>
                            </g>
                            <g id="Group" transform="translate(78.000000, 83.000000)" fill="#00BCD4">
                                <path d="M5.29699202,3.58048349 C5.29699202,4.10579424 5.12440471,4.60801442 4.82309604,4.96014581 C4.49014637,5.34979939 4.01984596,5.54679092 3.42729622,5.54679092 C1.95095565,5.54679092 1.55688131,4.31072317 1.55688131,3.58048349 C1.55688131,3.05589431 1.72946861,2.55295255 2.03077728,2.20082117 C2.36444607,1.81188916 2.83402736,1.61417605 3.42729622,1.61417605 C4.90291767,1.61417605 5.29699202,2.85096539 5.29699202,3.58048349 Z M5.99668971,5.97252354 C6.54393529,5.33392461 6.84524396,4.48462412 6.84524396,3.58048349 C6.84524396,1.83209342 5.67093118,0.0613343604 3.42729622,0.0613343604 C2.37739012,0.0613343604 1.48928461,0.450987944 0.857183612,1.18916501 C0.309938034,1.82704236 0.00862936522,2.67706444 0.00862936522,3.58048349 C0.00862936522,5.32959513 1.18294215,7.09963261 3.42729622,7.09963261 C4.47648321,7.09963261 5.36458871,6.70997903 5.99668971,5.97252354" id="Shape"></path>
                            </g>
                            <g id="Group" transform="translate(6.000000, 81.000000)" fill="url(#linearGradient-5)">
                                <path d="M61.8492185,30.2001732 C61.933211,30.1453855 61.8912148,30.1720184 61.8492185,30.1994122 C59.3474423,28.2415145 55.9449966,24.8880534 55.3870465,24.3424597 C54.9873322,23.9520976 47.7197322,20.3848125 47.7197322,20.3848125 L51.2136697,44.0416656 L46.9233034,45.9447756 L31.5384294,52.7681216 L31.5264304,52.7742091 L19.0790437,24.9108816 C19.0790437,24.9108816 18.9838022,24.69097 18.8315658,24.3181096 C17.9676431,24.2640829 7.97253698,18.5966043 4.2746177,15.1997697 C3.33495174,14.6808088 2.37578752,12.1932971 1.99407166,11.0884127 C1.17664477,8.72265131 0.0547451039,4.42486411 0.0547451039,4.42486411 L5.84947685,0.0410907416 C5.95671726,0.350793183 10.6168005,8.70438875 10.655797,9.01789589 C13.5362894,9.8009028 16.6215135,11.135591 18.9125586,12.2556941 C23.0064424,10.8593699 34.5899064,7.81865499 40.5721214,6.63767664 C41.1315714,6.456573 41.7412669,6.35308521 42.3682108,6.31503823 C43.0454002,6.20850667 43.573353,6.14915338 43.8913246,6.15600184 C44.2422932,6.1628503 44.5655143,6.28916628 44.8639876,6.50299032 C45.8074032,6.69702994 46.6945739,7.02195117 47.4047603,7.45796959 C49.2158484,8.56970244 58.7219982,16.4515154 59.5934203,17.3045288 C60.2938576,17.9901354 65.1676717,23.631742 67.8351832,26.9859641 C67.7886873,27.0049875 67.7421915,27.024772 67.8359331,26.986725 C65.734621,27.8770244 63.7540481,28.9727775 61.8492185,30.2001732 Z" id="Path"></path>
                            </g>
                            <g id="Group" transform="translate(52.000000, 53.000000)" fill="#673AB7">
                                <path d="M6.11956229,3.11795025 L9.34809546,8.3458025 L2.89102911,8.3458025 L6.11956229,3.11795025 Z M6.11956229,0.0266984863 L0.0222445859,9.89864419 L12.2161129,9.89864419 L6.11956229,0.0266984863 Z" id="Shape"></path>
                            </g>
                            <g id="Group" transform="translate(27.000000, 201.000000)" fill="#673AB7">
                                <polygon id="Path" points="0.0483244452 5.98190409 11.8095739 6.27558744 10.2839022 0.0490674883"></polygon>
                            </g>
                            <g id="Group" transform="translate(12.000000, 130.000000)" fill="#F48FB1">
                                <path d="M6.0973177,3.14753506 L9.32585087,8.37538731 L2.86878453,8.37610889 L6.0973177,3.14753506 Z M6.0973177,0.0562832954 L0.000767054686,9.92895058 L12.1938683,9.92895058 L6.0973177,0.0562832954 Z" id="Shape"></path>
                            </g>
                            <g id="Group" transform="translate(89.000000, 47.000000) scale(-1, 1) translate(-89.000000, -47.000000) translate(88.000000, 43.000000)" fill="#006064">
                                <rect id="Rectangle" x="0.0690349217" y="0.0418516812" width="1.54789239" height="7.64774532"></rect>
                            </g>
                            <g id="Group" transform="translate(89.000000, 47.000000) scale(-1, 1) translate(-89.000000, -47.000000) translate(85.000000, 46.000000)" fill="#006064">
                                <rect id="Rectangle" x="0.0524953051" y="0.0577264569" width="7.62167109" height="1.55313032"></rect>
                            </g>
                            <g id="Group" transform="translate(27.000000, 65.000000)" fill="#212121">
                                <path d="M1.7435153,8.3395488 C2.14008257,6.62853662 3.7647044,5.91195887 6.25763213,5.40627511 C9.61963282,4.72356354 13.2823189,4.67661269 13.9626964,8.05014683 L14.2434385,9.44250897 C14.2733536,9.4463574 14.3002005,9.45020583 14.3293486,9.45482395 C14.4183269,9.46790861 14.5050041,9.48099327 14.5847778,9.49253857 C14.6361705,9.50023543 14.6837279,9.5071626 14.7305182,9.51332009 C14.7918826,9.52255632 14.8524799,9.53025318 14.9046396,9.53795005 C14.9330206,9.54179848 14.9621687,9.54641659 14.9882486,9.54949534 C15.0618858,9.55950126 15.1301537,9.56873749 15.176944,9.57489498 L14.4850607,5.64795654 C14.1575283,3.78146777 13.0537366,2.23055029 11.5365025,1.23765524 C10.0169671,0.243990491 8.08552345,-0.196269953 6.10268708,0.154706904 C4.08763442,0.512610937 2.40318233,1.61711048 1.32163522,3.10491369 C1.3101294,3.11722867 1.29939064,3.13262239 1.28865187,3.15032517 C0.25542921,4.58348067 -0.218610586,6.37684927 0.102018273,8.19715687 L0.815379131,12.2495541 C0.816146186,12.2495541 0.829186116,12.2410876 0.844527209,12.2310817 C0.850663647,12.2272332 0.860635358,12.2195364 0.868305905,12.2149183 C0.884414053,12.2041427 0.90512453,12.1902883 0.92813617,12.1741249 C0.942710209,12.1633493 0.961119522,12.1510343 0.978761779,12.13718 C1.00254047,12.1202469 1.03015444,12.100235 1.05853547,12.0786838 C1.08154711,12.0609811 1.10455875,12.0432783 1.12987155,12.0240361 C1.16362196,11.9978668 1.20197469,11.9670794 1.23956037,11.9362919 C1.26410612,11.9155104 1.28788482,11.8978076 1.31396468,11.8754867 C1.37916433,11.820839 1.4489663,11.7608035 1.52106944,11.6930711 C1.53794465,11.6784471 1.55635396,11.6607443 1.57246211,11.6453506 C1.63229237,11.5891635 1.69288969,11.5306673 1.75578818,11.4683228 C1.78110098,11.4421534 1.80794789,11.4136751 1.83402775,11.3875057 C1.86854522,11.3513305 1.90382973,11.3120765 1.93834719,11.2743619 L1.78723742,10.5231482 C1.613116,9.65032421 1.6046784,8.93528584 1.7435153,8.3395488" id="Path"></path>
                            </g>
                            <g id="Group" transform="translate(29.000000, 125.000000)" fill="#311B92">
                                <path d="M55.083827,28.9060326 C55.366223,20.0383541 29.1388854,0.0722061765 29.1388854,0.0722061765 L25.0743465,1.98072943 L24.819133,1.97388884 L9.32963821,8.78939184 C4.79620119,17.8645681 -1.92165177,32.9959424 0.63878876,38.4706908 L0.439450424,38.6546265 L9.0653639,76.10531 L10.4003267,34.5092319 C14.6528779,29.4798817 19.4407733,21.9506776 23.3029536,15.4156386 C29.7882451,20.2108888 38.1642306,26.0215859 44.6880307,29.2321005 L62.998465,66.6888645 L55.3375303,28.9957203 L55.083827,28.9060326 Z" id="Path"></path>
                            </g>
                            <g id="Group" transform="translate(17.000000, 0.000000)" fill="url(#linearGradient-6)">
                                <path d="M4.22794643,0.00228281898 L59.1197811,0.00228281898 C61.4346194,0.00228281898 63.3123693,1.90158821 63.3123693,4.24299954 L63.3123693,40.2666439 C63.3123693,42.6088162 61.4346194,44.5073606 59.1197811,44.5073606 L27.2664929,44.5073606 C26.2057448,48.1834601 23.5418376,53.2505573 16.8440784,55.5090262 L18.736122,44.5073606 L4.22794643,44.5073606 C1.91310814,44.5073606 0.0353582708,42.6088162 0.0353582708,40.2666439 L0.0353582708,4.24680423 C0.0353582708,4.2460433 0.0353582708,4.24452142 0.0353582708,4.24299954 C0.0353582708,1.90158821 1.91310814,0.00228281898 4.22794643,0.00228281898 L4.22794643,0.00228281898 Z" id="Path"></path>
                            </g>
                            <g id="Group" transform="translate(36.000000, 7.000000)" fill="#D1C4E9">
                                <path d="M0.0523514823,3.23157516 L25.8309693,3.23157516 L25.8309693,0.018640835 L0.0523514823,0.018640835 L0.0523514823,3.23157516 Z M0.637940206,26.9546475 L12.9644707,26.9546475 L12.9644707,23.7417131 L0.637940206,23.7417131 L0.637940206,26.9546475 Z M0.491356056,21.024625 L23.8707802,21.024625 L23.8707802,17.8116907 L0.491356056,17.8116907 L0.491356056,21.024625 Z M0.344771905,15.0923657 L19.4081903,15.0923657 L19.4081903,11.880177 L0.344771905,11.880177 L0.344771905,15.0923657 Z M0.198187755,9.16234323 L9.86601078,9.16234323 L9.86601078,5.94940891 L0.198187755,5.94940891 L0.198187755,9.16234323 Z" id="Shape"></path>
                            </g>
                        </g>
                    </g>
                </g>
            </g>
        </g>
    </g>
</svg>