<?xml version="1.0" encoding="UTF-8"?>
<svg width="272px" height="288px" viewBox="0 0 272 288" version="1.1" xmlns="http://www.w3.org/2000/svg" xmlns:xlink="http://www.w3.org/1999/xlink">
    <!-- Generator: Sketch 64 (93537) - https://sketch.com -->
    <title>Login</title>
    <desc>Created with Sketch.</desc>
    <defs>
        <linearGradient x1="99.6110034%" y1="44.4290249%" x2="0.389687248%" y2="55.5711146%" id="linearGradient-1">
            <stop stop-color="#00BCD4" offset="0%"></stop>
            <stop stop-color="#80DEEA" offset="100%"></stop>
        </linearGradient>
        <linearGradient x1="0.00026830611%" y1="49.9996433%" x2="100.000022%" y2="49.9996433%" id="linearGradient-2">
            <stop stop-color="#E91E63" offset="0%"></stop>
            <stop stop-color="#F48FB1" offset="100%"></stop>
        </linearGradient>
        <linearGradient x1="64.246838%" y1="32.9665684%" x2="35.7529939%" y2="67.0334316%" id="linearGradient-3">
            <stop stop-color="#673AB7" offset="0%"></stop>
            <stop stop-color="#CE93D8" offset="100%"></stop>
        </linearGradient>
        <linearGradient x1="135.672195%" y1="-17.5000608%" x2="4.52212213%" y2="76.9675171%" id="linearGradient-4">
            <stop stop-color="#00BCD4" offset="0%"></stop>
            <stop stop-color="#673AB7" offset="100%"></stop>
        </linearGradient>
        <linearGradient x1="50.1318289%" y1="50.0468681%" x2="49.8681711%" y2="49.9503749%" id="linearGradient-5">
            <stop stop-color="#00BCD4" offset="0%"></stop>
            <stop stop-color="#80DEEA" offset="100%"></stop>
        </linearGradient>
        <linearGradient x1="50.1285746%" y1="50.0474669%" x2="49.8714254%" y2="49.951196%" id="linearGradient-6">
            <stop stop-color="#00BCD4" offset="0%"></stop>
            <stop stop-color="#80DEEA" offset="100%"></stop>
        </linearGradient>
        <linearGradient x1="43.0303758%" y1="47.5409329%" x2="56.9696242%" y2="52.4590671%" id="linearGradient-7">
            <stop stop-color="#00BCD4" offset="0%"></stop>
            <stop stop-color="#80DEEA" offset="100%"></stop>
        </linearGradient>
        <linearGradient x1="42.930378%" y1="47.5402866%" x2="57.069622%" y2="52.4597134%" id="linearGradient-8">
            <stop stop-color="#00BCD4" offset="0%"></stop>
            <stop stop-color="#80DEEA" offset="100%"></stop>
        </linearGradient>
        <linearGradient x1="42.9295784%" y1="47.5402866%" x2="57.0696383%" y2="52.4597134%" id="linearGradient-9">
            <stop stop-color="#00BCD4" offset="0%"></stop>
            <stop stop-color="#80DEEA" offset="100%"></stop>
        </linearGradient>
        <linearGradient x1="71.2313791%" y1="0.00293044587%" x2="24.3062501%" y2="86.933946%" id="linearGradient-10">
            <stop stop-color="#E91E63" offset="0%"></stop>
            <stop stop-color="#F8BBD0" offset="100%"></stop>
        </linearGradient>
        <linearGradient x1="74.2115543%" y1="-20.2172821%" x2="34.4531193%" y2="111.398504%" id="linearGradient-11">
            <stop stop-color="#673AB7" offset="0%"></stop>
            <stop stop-color="#D1C4E9" offset="100%"></stop>
            <stop stop-color="#D1C4E9" offset="100%"></stop>
        </linearGradient>
    </defs>
    <g id="Forms" stroke="none" stroke-width="1" fill="none" fill-rule="evenodd">
        <g id="Login" transform="translate(-927.000000, -448.000000)">
            <g id="Right-Side" transform="translate(835.000000, 216.000000)">
                <g id="Login" transform="translate(92.000000, 232.000000)">
                    <g id="Group-2" transform="translate(0.000000, 174.000000)">
                        <g id="Group" transform="translate(3.000000, 28.000000)" fill="url(#linearGradient-1)">
                            <path d="M35.2905031,22.8463421 L32.061604,10.0496855 C26.3769224,7.63227463 20.4639062,5.48156003 14.5309935,3.71660247 L14.1235913,9.66392842 L12.4646118,3.1203459 C5.07452574,0.999158379 0.0464248994,0.0647690846 0.0464248994,0.0647690846 C0.0464248994,0.0647690846 6.83961937,26.0276471 21.0844839,45.8746091 L37.6828066,48.8054102 L24.7880539,50.6751413 C26.573044,52.8296658 28.5162576,54.8975141 30.5570583,56.8186795 C51.2796175,76.1532037 74.3594246,85.0237108 82.1076456,76.6303995 C89.8558665,68.2370881 79.3392057,45.7593583 58.6166465,26.424834 C52.1920089,20.4308362 44.1226034,15.6207792 36.0446709,11.8355977 L35.2905031,22.8463421 Z" id="Path"></path>
                        </g>
                        <g id="Group" transform="translate(44.000000, 0.000000)" fill="url(#linearGradient-2)">
                            <path d="M24.5208134,37.7007891 L28.3574292,25.1199471 C24.7046433,20.1153084 20.7080098,15.2263949 16.5284989,10.6599942 L13.1100247,15.5128621 L15.074052,9.0711447 C9.81061134,3.4385548 5.96637568,0.0398398073 5.96637568,0.0398398073 C5.96637568,0.0398398073 -1.60779728,25.6890872 0.392424454,49.981884 L13.1624115,61.0687332 L1.09821698,55.9901063 C1.5144536,58.7618186 2.12118752,61.5164567 2.88508172,64.2141808 C10.7240459,91.420975 26.00193,110.927303 37.0088644,107.781856 C48.0148464,104.636408 50.5827501,80.0305843 42.7428334,52.8237902 C40.3130402,44.3891339 35.8544508,36.1119396 30.8596114,28.7045812 L24.5208134,37.7007891 Z" id="Path"></path>
                        </g>
                        <g id="Group" transform="translate(136.000000, 107.000000) scale(-1, 1) rotate(-90.000000) translate(-136.000000, -107.000000) translate(129.000000, -29.000000)" fill="#B2EBF2">
                            <path d="M7.01125341,0.0200620207 C10.8583465,0.0200620207 13.9767875,60.8913705 13.9767875,135.979616 C13.9767875,211.068621 10.8583465,271.940215 7.01125341,271.940215 C3.16511277,271.940215 0.0466718404,211.068621 0.0466718404,135.979616 C0.0466718404,60.8913705 3.16511277,0.0200620207 7.01125341,0.0200620207" id="Path"></path>
                        </g>
                    </g>
                    <g id="Group-4" transform="translate(76.000000, 0.000000)">
                        <g id="Group" fill="url(#linearGradient-3)">
                            <path d="M140.023475,66.874987 L138.480895,66.874987 L138.480895,24.5631395 L138.480895,24.5631395 C138.480895,11.040767 127.532855,0.0741629201 114.031252,0.0741629201 L24.5322304,0.0741629201 L24.5322304,0.0741629201 C11.0315772,0.0741629201 0.0825873176,11.040767 0.0825873176,24.5631395 L0.0825873176,256.689276 L0.0825873176,256.689276 C0.0825873176,270.211649 11.0315772,281.178253 24.5322304,281.178253 L114.031252,281.178253 C127.532855,281.178253 138.480895,270.211649 138.480895,256.689276 L138.480895,96.9936898 L140.023475,96.9936898 L140.023475,66.874987 Z" id="Path"></path>
                        </g>
                        <g id="Group" transform="translate(6.000000, 6.000000)" fill="#FFFFFF">
                            <path d="M126.964551,18.3281905 L126.964551,249.661573 C126.964551,259.740465 118.760784,267.915745 108.643472,267.915745 L18.4106123,267.915745 C8.29425277,267.915745 0.0895337346,259.740465 0.0895337346,249.661573 L0.0895337346,18.3272415 C0.0895337346,8.24834998 8.29425277,0.0740187872 18.4115648,0.0740187872 L29.3575401,0.0740187872 C28.9346361,1.11217973 28.7155642,2.22435945 28.7155642,3.34507981 C28.7155642,8.13352596 32.6102816,12.0176144 37.4174812,12.0214102 L88.8641366,12.0214102 C93.6703836,12.0176144 97.5660536,8.13352596 97.5660536,3.34507981 C97.5660536,2.22435945 97.3469817,1.11217973 96.9231252,0.0740187872 L108.643472,0.0740187872 C118.760784,0.0740187872 126.964551,8.24834998 126.964551,18.3281905 L126.964551,18.3281905 Z" id="Path"></path>
                        </g>
                        <g id="Group" transform="translate(6.000000, 181.000000)" fill="url(#linearGradient-4)">
                            <path d="M126.964551,25.4038945 L126.964551,75.0264272 C126.964551,85.0902085 118.760784,93.2505689 108.643472,93.2505689 L18.4106123,93.2515163 C8.29425277,93.2505689 0.0895337346,85.0902085 0.0895337346,75.0264272 L0.0895337346,30.2415585 C16.4713497,11.1069203 40.4968701,0.0739008603 65.7653855,0.0739008603 C88.7374558,0.0739008603 110.772279,9.19970966 126.960741,25.4076842 L126.964551,25.4038945 Z" id="Path"></path>
                        </g>
                    </g>
                    <g id="Group-3" transform="translate(85.000000, 48.000000)">
                        <g id="Group" transform="translate(18.000000, 136.500000) rotate(-180.000000) translate(-18.000000, -136.500000) translate(17.000000, 119.000000)" fill="url(#linearGradient-5)">
                            <polygon id="Path" points="0.0632874389 0.086546925 1.76654503 0.086546925 1.1987925 34.2086128 0.63103997 34.2086128"></polygon>
                        </g>
                        <g id="Group" transform="translate(38.000000, 113.000000) rotate(-180.000000) translate(-38.000000, -113.000000) translate(36.000000, 77.000000)" fill="url(#linearGradient-6)">
                            <polygon id="Path" points="0.0155925574 0.0695315173 3.5266696 0.0695315173 2.35631059 71.3050472 1.18595157 71.3050472"></polygon>
                        </g>
                        <g id="Group" transform="translate(20.000000, 0.000000)" fill="url(#linearGradient-7)">
                            <path d="M22.8935431,33.9366015 L28.7072387,24.8865884 C26.9988777,20.1190355 24.9763137,15.3818009 22.7392638,10.8274235 L18.9801169,13.8857822 L21.9565786,9.25181924 C19.1202853,3.62777428 16.8879391,0.0843227765 16.8879391,0.0843227765 C16.8879391,0.0843227765 5.22762241,18.5898562 1.33207006,38.1830586 L8.79297943,49.7959156 L0.536214644,43.0737796 C0.242707681,45.3552318 0.0893691073,47.6603702 0.0827840152,49.9588765 C0.0827840152,73.1637466 7.60766285,91.9753053 16.8907613,91.9753053 C26.172919,91.9753053 33.6977978,73.1637466 33.6977978,49.9588765 C33.6977978,42.7649119 32.0816281,35.239341 29.8530447,28.2765535 L22.8935431,33.9366015 Z" id="Path"></path>
                        </g>
                        <g id="Group" transform="translate(9.000000, 81.000000)" fill="url(#linearGradient-8)">
                            <path d="M11.213624,16.591363 L14.0691787,12.1784929 C13.230038,9.85442572 12.2365946,7.54464587 11.1383776,5.32344726 L9.29245867,6.81504118 L10.753573,4.55574311 C9.3610377,1.81353437 8.26472569,0.0857237884 8.26472569,0.0857237884 C8.26472569,0.0857237884 2.53932911,9.10862876 0.625783656,18.6620687 L4.28999937,24.3236487 L0.234311688,21.0480475 C0.0914387077,22.1586468 0.0161922711,23.2825809 0.0133348115,24.4027051 C0.0133348115,35.7172927 3.70803009,44.8887856 8.26663067,44.8887856 C12.8242788,44.8887856 16.5199265,35.7163402 16.5199265,24.4027051 C16.5199265,20.8946972 15.7265052,17.2247666 14.6311457,13.831057 L11.213624,16.591363 Z" id="Path"></path>
                        </g>
                        <g id="Group" transform="translate(55.000000, 81.000000)" fill="url(#linearGradient-9)">
                            <path d="M11.2536284,16.591363 L14.1082306,12.1784929 C13.2700425,9.85442572 12.276599,7.54464587 11.178382,5.32344726 L9.3324631,6.81504118 L10.7935775,4.55574311 C9.40104213,1.81353437 8.30473013,0.0857237884 8.30473013,0.0857237884 C8.30473013,0.0857237884 2.57933355,9.10862876 0.66578809,18.6620687 L4.32905132,24.3236487 L0.274316123,21.0480475 C0.131443142,22.1586468 0.0561967058,23.2825809 0.0523867596,24.4027051 C0.0523867596,35.7172927 3.74803453,44.8887856 8.30568261,44.8887856 C12.8642832,44.8887856 16.559931,35.7163402 16.559931,24.4027051 C16.559931,20.8946972 15.7655572,17.2247666 14.6711501,13.831057 L11.2536284,16.591363 Z" id="Path"></path>
                        </g>
                        <g id="Group" transform="translate(16.500000, 24.500000) rotate(90.000000) translate(-16.500000, -24.500000) translate(0.000000, 8.000000)" fill="url(#linearGradient-10)">
                            <path d="M16.0986688,0.0244589136 C7.23419405,0.0244589136 0.0479770997,7.21067587 0.0479770997,16.0751506 C0.0479770997,24.9396253 7.23419405,32.1249015 16.0986688,32.1249015 C24.9631435,32.1249015 32.1493604,24.9396253 32.1493604,16.0751506 C32.1493604,7.21067587 24.9631435,0.0244589136 16.0986688,0.0244589136 Z" id="Path"></path>
                        </g>
                    </g>
                    <g id="Group-5" transform="translate(113.037363, 17.000000)">
                        <g id="Group" transform="translate(36.962637, 27.000000)" fill="#212121">
                            <path d="M11.1517124,45.9803351 L40.8150006,46.7166072 L42.3037371,33.5256212 C50.4408296,34.6952746 51.3009249,32.6455236 51.1628144,30.5071913 C48.2710653,28.9193963 46.9252018,25.3542392 46.8290007,22.0557783 C46.7327995,18.7573174 47.5328882,15.493146 47.5957523,12.1937327 C47.3566782,11.3764992 46.9813985,10.6002227 46.488963,9.90395502 C42.7275936,4.14141147 36.189726,0.086676275 29.3032483,0.0228596769 C29.2718163,0.0238121635 29.2356218,0.0228596769 29.2032373,0.0228596769 C28.2421783,0.0228596769 27.2887393,0.204784606 26.3953069,0.557204625 C25.6837995,0.842950586 25.4504403,0.807708584 25.3142347,1.68209123 C24.5341483,2.26120304 23.7912088,2.90413145 23.1054184,3.59373171 C21.0728122,5.69967944 19.9145885,8.44188819 19.4707298,11.3469721 L11.1517124,11.3469721 L11.1517124,23.0444593 C10.1735087,22.2786601 9.31912829,21.3490333 8.64000539,20.2651036 C7.27223472,18.0839094 6.36546753,15.5931571 6.36546753,13.2624226 C6.15211055,14.9588011 5.80064302,16.6408923 5.33201964,18.2848841 C4.42334748,21.4480919 2.88508172,24.6760687 0.037146975,26.3257754 C0.994395946,26.849643 2.1011853,26.8734552 3.18606747,26.992516 C5.83588502,27.2849294 8.58761863,27.311599 11.1517124,26.6667656 L11.1517124,45.9803351 Z" id="Path"></path>
                        </g>
                        <g id="Group" transform="translate(31.962637, 0.000000)" fill="#FFF3E0">
                            <path d="M8.23805607,46.2308391 L0.0552442192,14.85879 C0.0552442192,14.85879 2.31549477,-0.20097466 7.78371999,0.0476243269 C13.2519452,0.296223313 6.36451505,14.7702087 6.36451505,14.7702087 L15.6283991,41.8703557 L8.23805607,46.2308391 Z" id="Path"></path>
                        </g>
                        <g id="Group" transform="translate(15.962637, 124.000000)" fill="#311B92">
                            <path d="M40.3749519,0.0695315173 L41.6560463,12.8833329 C41.6560463,12.8833329 1.29442921,40.4311486 1.29442921,51.9629031 C1.29442921,63.4946576 0.0133348115,100.012039 0.0133348115,100.012039 L14.7483016,100.653062 L16.029396,83.3549544 C16.029396,83.3549544 19.2326082,64.135681 17.3114428,57.0882332 L38.452834,41.072172 C38.452834,41.072172 32.0464096,48.7596909 33.327504,62.2135632 C34.6085984,75.6674356 31.4053861,101.934157 31.4053861,101.934157 L46.7813763,103.215251 C46.7813763,103.215251 48.7025417,89.1213079 49.3435651,87.839261 C49.9845886,86.5581666 53.1878008,63.4946576 49.9845886,57.0882332 L76.2513098,26.3362528 C76.2513098,26.3362528 85.2208755,14.8044983 76.2513098,3.27274375 L71.1259798,0.710554957 L40.3749519,0.0695315173 Z" id="Path"></path>
                        </g>
                        <path d="M16.9766334,221.040451 L15.711355,229.266172 L7.4856342,248.88128 C7.4856342,248.88128 -6.43430981,255.841722 3.68979896,257.107001 C13.812967,258.372279 17.609743,255.841722 19.5081309,252.678056 C21.4065189,249.51439 25.2032949,244.452335 25.2032949,244.452335 L24.5701853,257.74011 L27.7338517,257.74011 L32.9191414,239.590656 C33.2220556,238.54833 33.3782164,237.466493 33.3782164,236.380894 C33.3782164,233.839048 32.5315617,231.366816 30.973717,229.360245 C30.9483174,229.329201 30.9229178,229.297216 30.8975181,229.266172 C28.3669613,226.102506 29.6322397,221.67262 29.6322397,221.67262 L16.9766334,221.040451 Z" id="Path" fill-opacity="0.7" fill="#FFFFFF"></path>
                        <path d="M49.0057959,221.040451 L47.7405175,229.266172 L39.5147967,248.88128 C39.5147967,248.88128 25.5948527,255.841722 35.7180208,257.107001 C45.8421295,258.372279 49.6389055,255.841722 51.5372935,252.678056 C53.4356815,249.51439 57.2315167,244.452335 57.2315167,244.452335 L56.5993479,257.74011 L59.7630143,257.74011 L64.948304,239.590656 C65.2502775,238.54833 65.4073789,237.466493 65.4073789,236.380894 C65.4073789,233.839048 64.5607242,231.366816 63.0019389,229.360245 C62.97748,229.329201 62.9520803,229.297216 62.9266807,229.266172 C60.3951831,226.102506 61.6604615,221.67262 61.6604615,221.67262 L49.0057959,221.040451 Z" id="Path" fill-opacity="0.7" fill="#FFFFFF"></path>
                        <g id="Group" transform="translate(63.962637, 45.000000) scale(-1, 1) rotate(-90.000000) translate(-63.962637, -45.000000) translate(50.962637, 32.000000)" fill="#FFF3E0">
                            <path d="M12.8204688,0.0409569211 C19.8964913,0.0409569211 25.6333177,5.77778334 25.6333177,12.8538058 C25.6333177,19.9307808 19.8964913,25.6676072 12.8204688,25.6676072 C5.74444631,25.6676072 0.00761989231,19.9307808 0.00761989231,12.8538058 C0.00761989231,5.77778334 5.74444631,0.0409569211 12.8204688,0.0409569211" id="Path"></path>
                        </g>
                        <g id="Group" transform="translate(73.024475, 59.594803) scale(-1, 1) rotate(113.198703) translate(-73.024475, -59.594803) translate(64.524475, 52.094803)" fill="#FFF3E0">
                            <path d="M1.8877479,0.0701364041 L16.4762714,0.0701364041 L12.7873723,14.1545926 C12.7873723,14.1545926 1.21755675,11.4719295 0.043298321,11.9750475 L1.8877479,0.0701364041 Z" id="Path"></path>
                        </g>
                        <g id="Group" transform="translate(37.962637, 39.000000)" fill="url(#linearGradient-11)">
                            <path d="M27.3532121,25.5175881 L30.0665993,27.187937 C30.0665993,27.187937 38.8326363,22.5302879 41.0421087,19.244542 C41.0421087,19.244542 48.9742755,16.5954804 52.1537602,22.9680084 C52.444953,23.5516357 52.6661839,24.4526577 52.828798,25.6038058 L52.8297435,25.6038058 C55.9695201,31.2524843 54.0616402,55.4692278 53.4263105,58.6554918 C53.076501,60.4044788 51.5770473,67.148406 50.2959882,72.8757227 C50.2638435,73.1571145 50.2468257,73.3124958 50.2468257,73.3124958 C50.2468257,73.3124958 53.4263105,77.7730759 52.7900353,79.6850238 C52.1537602,81.5969717 54.6979153,84.7832357 54.6979153,84.7832357 L54.6979153,88.6071315 C54.6979153,88.6071315 18.451033,89.2438158 18.451033,86.0575518 L18.451033,75.861128 L14.6352732,74.5868119 C14.6352732,74.5868119 10.8195133,82.8712878 9.5479085,82.233656 C8.2763037,81.5960242 1.91733424,76.4987598 1.91733424,76.4987598 C1.91733424,76.4987598 12.0920635,42.7232243 17.8157033,36.988328 L18.176858,36.3620656 C14.466041,30.268087 5.21121613,15.0435623 3.18893904,11.4972685 C0.645729429,7.03668833 0.00945431082,0.026528514 0.00945431082,0.026528514 L12.7273932,1.93847641 L11.4557884,8.94863622 C11.4557884,8.94863622 20.9942426,22.3313241 22.9021225,22.9680084 C23.9553328,23.3204587 24.8147296,24.2546413 25.3734794,25.0211259 L27.3532121,25.5175881 Z" id="Path"></path>
                        </g>
                        <g id="Group" transform="translate(55.962637, 115.000000)" fill="#FFF3E0">
                            <path d="M17.3216144,0.0923911942 L9.72900324,23.1559002 C9.72900324,23.1559002 -6.09026948,41.0940792 2.76856087,41.0940792 C11.6264505,41.0940792 16.056336,25.0780181 16.056336,25.0780181 L26.8126136,2.01450903 L17.3216144,0.0923911942 Z" id="Path"></path>
                        </g>
                        <g id="Group" transform="translate(48.962637, 32.000000)" fill="#212121">
                            <path d="M0.0348069155,13.7843852 C10.1711451,9.67154831 20.1626113,8.79430821 29.8944368,13.7843852 L29.8944368,5.49394235 L29.8944368,5.49394235 C29.8944368,2.51265949 27.5068705,0.0942961673 24.5614529,0.0942961673 L4.24832514,0.0942961673 C1.92190617,0.0942961673 0.0348069155,2.00498416 0.0348069155,4.36048337 L0.0348069155,13.7843852 Z" id="Path"></path>
                        </g>
                    </g>
                </g>
            </g>
        </g>
    </g>
</svg>