<?xml version="1.0" encoding="UTF-8"?>
<svg width="591px" height="393px" viewBox="0 0 591 393" version="1.1" xmlns="http://www.w3.org/2000/svg" xmlns:xlink="http://www.w3.org/1999/xlink">
    <!-- Generator: Sketch 64 (93537) - https://sketch.com -->
    <title>about_done</title>
    <desc>Created with Sketch.</desc>
    <defs>
        <linearGradient x1="30.4837676%" y1="79.1891932%" x2="50%" y2="42.1584776%" id="linearGradient-1">
            <stop stop-color="#B3E5FC" stop-opacity="0.5" offset="0%"></stop>
            <stop stop-color="#03A9F4" stop-opacity="0.08" offset="100%"></stop>
        </linearGradient>
        <linearGradient x1="75.337398%" y1="40.4793388%" x2="30.9970109%" y2="62.7175706%" id="linearGradient-2">
            <stop stop-color="#B3E5FC" offset="2.52850507%"></stop>
            <stop stop-color="#03A9F4" offset="100%"></stop>
        </linearGradient>
        <polygon id="path-3" points="0.0274444438 20.8487917 12.9181478 0.0299516901 25.8083697 20.8487917 18.8398884 20.8487917 18.8398884 49.7584529 6.99496279 49.7584529 6.99496279 20.8487917"></polygon>
        <linearGradient x1="50%" y1="100%" x2="34.6991642%" y2="-14.3482527%" id="linearGradient-5">
            <stop stop-color="#FFE0B2" stop-opacity="0" offset="0%"></stop>
            <stop stop-color="#FF9800" offset="100%"></stop>
        </linearGradient>
        <linearGradient x1="66.0447901%" y1="-6.33110207%" x2="16.1458012%" y2="190.805082%" id="linearGradient-6">
            <stop stop-color="#304FFE" offset="0%"></stop>
            <stop stop-color="#C5CAE9" offset="100%"></stop>
        </linearGradient>
        <linearGradient x1="66.0457167%" y1="-6.33110207%" x2="16.143846%" y2="190.805082%" id="linearGradient-7">
            <stop stop-color="#304FFE" offset="0%"></stop>
            <stop stop-color="#C5CAE9" offset="100%"></stop>
        </linearGradient>
        <linearGradient x1="66.0454818%" y1="-6.33110207%" x2="16.1443417%" y2="190.805082%" id="linearGradient-8">
            <stop stop-color="#304FFE" offset="0%"></stop>
            <stop stop-color="#C5CAE9" offset="100%"></stop>
        </linearGradient>
        <linearGradient x1="66.0449654%" y1="-6.33110207%" x2="16.1454314%" y2="190.805082%" id="linearGradient-9">
            <stop stop-color="#304FFE" offset="0%"></stop>
            <stop stop-color="#C5CAE9" offset="100%"></stop>
        </linearGradient>
        <linearGradient x1="75.337398%" y1="12.4500819%" x2="0%" y2="87.5499181%" id="linearGradient-10">
            <stop stop-color="#FFE0B2" offset="0%"></stop>
            <stop stop-color="#FF9800" offset="100%"></stop>
        </linearGradient>
        <linearGradient x1="75.337398%" y1="4.17329584%" x2="0%" y2="95.8267041%" id="linearGradient-11">
            <stop stop-color="#E65100" offset="0%"></stop>
            <stop stop-color="#FFE0B2" offset="100%"></stop>
        </linearGradient>
        <path d="M36.0006892,31.2756679 C32.9316497,28.0732504 28.3335017,24.9688423 27.4638116,22.9269803 C26.5941215,20.8851182 23.6951547,0.0285671978 23.6951547,0.0285671978 C18.3324525,0.903650923 0.25372213,10.7271464 0.25372213,10.7271464 C3.94043493,14.7984248 8.4759652,20.9582363 11.0850354,27.0107043 C13.9553991,33.669897 15.852483,49.453296 22.0647757,54.6120119 C26.6304553,58.4040411 33.2617453,54.6485708 35.6535863,51.2213541 C37.4865064,48.5945472 40.436495,39.4804531 40.436495,39.4804531 L36.0006892,31.2756679 Z" id="path-12"></path>
        <path d="M41.6309602,43.0322332 C36.186426,40.7804781 35.5523142,34.9131191 36.1964912,32.0356164 C36.658719,29.9750186 35.3324268,27.5867226 28.1659577,25.8062288 C20.2174949,23.8306765 7.04361083,28.658764 0.726495323,26.0324967 C-1.19519615,17.064488 3.01518186,9.12872889 8.34977259,8.57944422 C11.5443331,8.25174595 11.8129982,3.67645427 13.6162292,0.36280084 C25.4467875,-2.00052769 21.4160358,8.74485378 25.4436905,14.5599372 C29.4721195,20.3750205 35.7327147,19.1679987 39.2354273,21.9120814 C41.6913517,23.8376986 39.2354273,26.8486213 40.6871482,30.0850316 C41.9545974,32.9118191 44.1983773,33.7880218 47.2195054,33.9799593 C50.0253918,34.1586329 51.3927193,37.5612331 51.5467955,39.2317137 C51.5638291,39.602325 51.5746683,39.9862001 51.5746683,40.3989436 C50.6316303,42.9588913 47.0747204,45.2832081 41.6309602,43.0322332 L41.6309602,43.0322332 Z" id="path-14"></path>
        <path d="M3.57321603,26.2406215 C6.81730988,28.1825918 10.4925074,26.3413622 13.0435905,22.1366013 C15.4339755,18.196091 21.1016755,10.5483238 21.5358696,10.5483238 C24.4330718,12.5825105 43.1204122,28.2748082 43.1204122,28.2748082 C43.6998526,27.8392985 46.1620882,25.2239156 46.1620882,25.2239156 C45.0758305,23.8437683 24.288598,0.450233332 22.4050302,0.0147236374 C20.5222351,-0.421560987 0.821260245,12.2198441 0.169196608,17.6683648 C-0.482867032,23.1168856 1.32807748,24.8968958 3.57321603,26.2406215 Z" id="path-16"></path>
        <linearGradient x1="86.2548233%" y1="6.98660954%" x2="-24.0420836%" y2="190.805082%" id="linearGradient-18">
            <stop stop-color="#304FFE" offset="0%"></stop>
            <stop stop-color="#C5CAE9" offset="100%"></stop>
        </linearGradient>
        <linearGradient x1="75.337398%" y1="41.8192148%" x2="0%" y2="58.1807852%" id="linearGradient-19">
            <stop stop-color="#03A9F4" offset="0%"></stop>
            <stop stop-color="#B3E5FC" offset="100%"></stop>
        </linearGradient>
        <path d="M15.703309,8.91035035 C16.8448213,9.31325697 15.846273,11.2813859 15.5368842,12.4127655 C15.318406,13.2119496 15.9437817,13.9919827 16.8345572,14.2232673 C20.1505881,15.0843238 20.6176038,19.9773929 17.9386789,20.9614574 C15.2575547,21.9447853 14.277335,18.8600083 12.5676326,18.8077115 C10.575668,18.7458391 10.0910568,21.0380612 7.53823347,19.8344973 C5.17969457,18.7230053 7.11887252,16.8550506 5.71855877,15.8783518 C4.27645555,14.8714535 1.15250953,16.1302606 0.123902106,12.8981685 C-0.639305544,10.4991431 2.36660355,9.47604009 2.89666996,7.31713816 C3.22658681,5.96846892 3.43700044,0.0176778051 7.40333413,0.00433565667 C11.4752412,-0.0110486282 13.744336,4.24782925 12.4078062,7.89976916 C11.8660094,9.37881217 11.9561867,10.6346729 12.7149955,10.8143973 C13.84771,11.0795643 14.074986,8.3321388 15.703309,8.91035035 L15.703309,8.91035035 Z" id="path-20"></path>
        <linearGradient x1="50%" y1="100%" x2="47.0828838%" y2="-14.3482527%" id="linearGradient-22">
            <stop stop-color="#FFE0B2" stop-opacity="0" offset="0%"></stop>
            <stop stop-color="#FF9800" offset="100%"></stop>
        </linearGradient>
        <linearGradient x1="51.3219818%" y1="-1.77635684e-13%" x2="47.3912439%" y2="100%" id="linearGradient-23">
            <stop stop-color="#FF9800" offset="0%"></stop>
            <stop stop-color="#FFE0B2" offset="100%"></stop>
        </linearGradient>
        <linearGradient x1="75.337398%" y1="34.8253375%" x2="0%" y2="65.1746625%" id="linearGradient-24">
            <stop stop-color="#B3E5FC" offset="0%"></stop>
            <stop stop-color="#03A9F4" offset="100%"></stop>
        </linearGradient>
        <linearGradient x1="67.5298595%" y1="-1.77635684e-13%" x2="15.4071435%" y2="100%" id="linearGradient-25">
            <stop stop-color="#B3E5FC" offset="0%"></stop>
            <stop stop-color="#03A9F4" offset="100%"></stop>
        </linearGradient>
        <linearGradient x1="85.1908642%" y1="-6.09033217%" x2="-24.2520475%" y2="190.203254%" id="linearGradient-26">
            <stop stop-color="#304FFE" offset="0%"></stop>
            <stop stop-color="#C5CAE9" offset="100%"></stop>
        </linearGradient>
        <path d="M70.2438433,58.9229753 C51.6728934,41.5311593 59.5311973,32.2874542 40.9639406,15.9993752 C36.9417125,12.4712661 6.75690062,6.62686374 0.0413672717,5.33954069 C0.625679986,3.54587549 1.47297035,0.941618712 1.47297035,0.941618712 C34.650261,-0.914228858 58.5095735,-5.00049874 85.0555429,46.8544141 C79.0631982,51.7231453 70.2438433,58.9229753 70.2438433,58.9229753 Z" id="path-27"></path>
        <path d="M48.11998,87.4133345 C29.5916024,70.0675495 46.2074447,57.2025502 31.7488244,28.004723 C28.6342292,21.7150856 3.79411643,6.11539693 0.0368503927,4.35010487 C0.686154312,2.58407452 1.62878736,0.0206725961 1.62878736,0.0206725961 C31.1570071,5.92934355 62.673674,28.3960257 69.7725338,69.0088175 C64.4999796,74.8023125 48.11998,87.4133345 48.11998,87.4133345 L48.11998,87.4133345 Z" id="path-29"></path>
        <path d="M41.1694535,51.260267 C36.4716774,54.0122387 28.7400748,55.1603684 21.028422,46.43473 C12.4338118,36.7113916 0.0672377512,18.5064938 0.0672377512,18.5064938 C1.50213569,17.2919983 21.8781298,0.0368699324 21.8781298,0.0368699324 C27.2571499,4.59915535 40.8613417,18.7549972 46.0755925,28.4967707 C51.290582,38.2385443 48.8626344,42.688745 47.8474182,45.2814389 C45.3381941,48.6911701 41.1694535,51.260267 41.1694535,51.260267 L41.1694535,51.260267 Z" id="path-31"></path>
        <linearGradient x1="85.183317%" y1="-6.33110207%" x2="-24.236123%" y2="190.805082%" id="linearGradient-33">
            <stop stop-color="#C5CAE9" offset="0%"></stop>
            <stop stop-color="#304FFE" offset="100%"></stop>
        </linearGradient>
        <linearGradient x1="85.183317%" y1="-6.33110207%" x2="65.1434958%" y2="118.645302%" id="linearGradient-34">
            <stop stop-color="#304FFE" offset="0%"></stop>
            <stop stop-color="#C5CAE9" offset="100%"></stop>
        </linearGradient>
        <linearGradient x1="-60.8141966%" y1="14.6420983%" x2="128.026959%" y2="143.945408%" id="linearGradient-35">
            <stop stop-color="#304FFE" offset="0%"></stop>
            <stop stop-color="#C5CAE9" offset="100%"></stop>
        </linearGradient>
        <linearGradient x1="84.6894737%" y1="-5.44136687%" x2="-24.2361223%" y2="190.805082%" id="linearGradient-36">
            <stop stop-color="#304FFE" offset="0%"></stop>
            <stop stop-color="#C5CAE9" offset="100%"></stop>
        </linearGradient>
        <path d="M1.97927244,0 C0.88557876,0 0,0.886401736 0,1.98021236 C0,3.07402297 0.88557876,3.96042471 1.97927244,3.96042471 C3.07296576,3.96042471 3.96,3.07402297 3.96,1.98021236 C3.96,0.886401736 3.07296576,0 1.97927244,0" id="path-37"></path>
        <path d="M1.97927244,0 C0.88557876,0 0,0.886401736 0,1.98021236 C0,3.07402297 0.88557876,3.96042471 1.97927244,3.96042471 C3.07296576,3.96042471 3.96,3.07402297 3.96,1.98021236 C3.96,0.886401736 3.07296576,0 1.97927244,0" id="path-39"></path>
    </defs>
    <g id="About" stroke="none" stroke-width="1" fill="none" fill-rule="evenodd">
        <g transform="translate(-796.000000, -159.000000)" id="Banner">
            <g transform="translate(-7.000000, 0.000000)">
                <g id="about_done" transform="translate(806.000000, 160.000000)">
                    <path d="M277.296589,147 C327.117834,147 369.330691,171.812183 383.846606,206.109403 C388.724905,205.503076 393.728709,205.182519 398.833565,205.182519 C427.067012,205.182519 452.339874,214.837013 469.282235,230.051046 C474.070005,229.35974 478.987142,229 484,229 C533.705627,229 574,264.369505 574,308 C574,351.630495 533.705627,387 484,387 C456.279059,387 431.485318,375.998959 414.975859,358.699204 C406.265119,366.828285 393.157913,372 378.5,372 C365.907908,372 354.460224,368.183317 345.959535,361.954071 L345.834566,362.16735 C335.415413,379.171704 288.634222,392 232.5,392 C194.983534,392 161.644802,386.269964 140.546704,377.392811 C125.703668,386.391595 104.737557,392 81.5,392 C36.4887929,392 0,370.957383 0,345 C0,337.014572 3.45329784,329.494278 9.54566174,322.908674 C15.4748161,308.082152 31.2118651,296.514874 50.9943409,292.597939 C48.2561042,286.22778 46.7647427,279.426484 46.7647427,272.358056 C46.7647427,236.45556 84.94522,207.350634 132.041266,207.350634 C144.933799,207.350634 157.156441,209.536144 168.111019,213.441236 C179.389948,175.404172 223.988983,147 277.296589,147 Z" id="Combined-Shape" fill-opacity="0.99" fill="url(#linearGradient-1)" fill-rule="nonzero"></path>
                    <path d="M205.580237,21.2233511 C203.711887,31.6990808 195.466317,39.7708973 185.674701,40.7204214 C180.008423,41.2700102 174.733333,39.531796 170.544215,36.2549053 L170.526357,36.2471643 C168.647228,41.6404576 165.256136,46.2254458 160.912238,49.3842359 C156.903226,52.2995051 152.082654,54 146.890075,54 C134.702006,54 124.531959,44.6415093 122.137206,32.1815836 C119.677821,33.255819 116.961613,33.7907864 114.112742,33.6462936 C104.839876,33.1749718 97.0331173,25.1246573 96.0534454,15.103908 L96.0330354,14.8777079 C95.6129332,10.0827823 99.256938,6 103.694375,6 L198.172319,6 C202.01532,6 205.260483,9.08337365 205.789438,13.2143203 C206.117696,15.7739074 206.072624,18.4633661 205.580237,21.2233511 Z" id="path1061" stroke="url(#linearGradient-2)" stroke-width="5" fill-opacity="0.5" fill="#B3E5FC" fill-rule="nonzero" transform="translate(151.000000, 30.000000) scale(-1, 1) rotate(-180.000000) translate(-151.000000, -30.000000) "></path>
                    <g id="g1137" transform="translate(300.000000, 40.000000) scale(-1, 1) rotate(-180.000000) translate(-300.000000, -40.000000) translate(287.000000, 15.000000)">
                        <g id="g1139-Clipped">
                            <g>
                                <mask id="mask-4" fill="white">
                                    <use xlink:href="#path-3"></use>
                                </mask>
                                <g id="path-3"></g>
                                <g id="g1139" mask="url(#mask-4)" fill="url(#linearGradient-5)" fill-rule="nonzero">
                                    <polyline id="path1153" points="0.0274444438 20.8487917 12.9181478 0.0299516901 25.8083697 20.8487917 18.8398884 20.8487917 18.8398884 49.7584529 6.99496279 49.7584529 6.99496279 20.8487917 0.0274444438 20.8487917"></polyline>
                                </g>
                            </g>
                        </g>
                    </g>
                    <g id="Group-10" transform="translate(239.000000, 168.000000)" fill-rule="nonzero">
                        <polyline id="path1189" fill="url(#linearGradient-6)" transform="translate(9.859879, 14.602241) scale(-1, 1) rotate(-180.000000) translate(-9.859879, -14.602241) " points="19.7197571 13.401379 9.85987855 29.204482 -2.58379177e-15 13.401379 5.32993927 13.401379 5.32993927 -2.57265473e-15 14.3907875 -2.57265473e-15 14.3907875 13.401379 19.7197571 13.401379"></polyline>
                        <polyline id="path1191" fill="url(#linearGradient-7)" transform="translate(9.859636, 42.163413) scale(-1, 1) rotate(-180.000000) translate(-9.859636, -42.163413) " points="17.6077571 41.2193786 9.85987855 53.6378611 2.1115151 41.2193786 6.30012105 41.2193786 6.30012105 30.6889652 13.4201209 30.6889652 13.4201209 41.2193786 17.6077571 41.2193786"></polyline>
                        <polyline id="path1193" fill="url(#linearGradient-8)" transform="translate(9.859879, 63.469481) scale(-1, 1) rotate(-180.000000) translate(-9.859879, -63.469481) " points="15.496242 62.7832394 9.85987855 71.8166186 4.22351505 62.7832394 7.27030284 62.7832394 7.27030284 55.1223431 12.4499391 55.1223431 12.4499391 62.7832394 15.496242 62.7832394"></polyline>
                        <polyline id="path1195" fill="url(#linearGradient-9)" transform="translate(9.859636, 78.520929) scale(-1, 1) rotate(-180.000000) translate(-9.859636, -78.520929) " points="13.3842421 78.0915149 9.85987855 83.7407564 6.33503015 78.0915149 8.24048465 78.0915149 8.24048465 73.3011014 11.4792724 73.3011014 11.4792724 78.0915149 13.3842421 78.0915149"></polyline>
                    </g>
                    <g id="Group-11" transform="translate(310.000000, 216.000000)">
                        <polyline id="path1209" fill="#03A9F4" fill-rule="nonzero" transform="translate(18.661651, 23.937600) scale(-1, 1) rotate(-180.000000) translate(-18.661651, -23.937600) " points="37.3233029 35.8871993 5.15615083e-15 35.8871993 5.15615083e-15 11.9879999 37.3233029 11.9879999 37.3233029 35.8871993"></polyline>
                        <polygon id="path1211" stroke="url(#linearGradient-10)" stroke-width="5" transform="translate(22.233368, 16.170959) scale(-1, 1) rotate(-180.000000) translate(-22.233368, -16.170959) " points="3.57316805 -1.44000002e-07 3.57316805 23.8991993 28.4702058 23.8991993 35.1269608 32.341919 35.1269608 23.8991993 40.8935684 23.8991993 40.8935684 -1.44000002e-07"></polygon>
                        <path d="M36.3073737,19.2825595 L9.55892602,19.2825595 C9.29188178,19.2825595 9.07515022,19.0675195 9.07515022,18.8025595 C9.07515022,18.5375995 9.29188178,18.3225595 9.55892602,18.3225595 L36.3073737,18.3225595 C36.5782882,18.3225595 36.7911494,18.5375995 36.7911494,18.8025595 C36.7911494,19.0675195 36.5782882,19.2825595 36.3073737,19.2825595" id="path1213" fill="#FFFFFF" fill-rule="nonzero" transform="translate(22.933150, 18.802560) scale(-1, 1) rotate(-180.000000) translate(-22.933150, -18.802560) "></path>
                        <path d="M36.3073737,22.5945596 L9.55892602,22.5945596 C9.29188178,22.5945596 9.07515022,22.3795196 9.07515022,22.1145596 C9.07515022,21.8495996 9.29188178,21.6345596 9.55892602,21.6345596 L36.3073737,21.6345596 C36.5782882,21.6345596 36.7911494,21.8495996 36.7911494,22.1145596 C36.7911494,22.3795196 36.5782882,22.5945596 36.3073737,22.5945596" id="path1215" fill="#FFFFFF" fill-rule="nonzero" transform="translate(22.933150, 22.114560) scale(-1, 1) rotate(-180.000000) translate(-22.933150, -22.114560) "></path>
                        <path d="M31.3680228,25.9070394 L9.83806465,25.9070394 C9.57102041,25.9070394 9.35428886,25.6924794 9.35428886,25.4270394 C9.35428886,25.1620794 9.57102041,24.9470394 9.83806465,24.9470394 L31.3680228,24.9470394 C31.6340995,24.9470394 31.8517986,25.1620794 31.8517986,25.4270394 C31.8517986,25.6924794 31.6340995,25.9070394 31.3680228,25.9070394" id="path1217" fill="#FFFFFF" fill-rule="nonzero" transform="translate(20.603044, 25.427039) scale(-1, 1) rotate(-180.000000) translate(-20.603044, -25.427039) "></path>
                        <path d="M26.365781,14.5598399 C26.365781,14.2089599 26.6512088,13.9238399 27.0043651,13.9238399 C27.3623592,13.9238399 27.6477869,14.2089599 27.6477869,14.5598399 C27.6477869,14.9111999 27.3623592,15.1963199 27.0043651,15.1963199 C26.6512088,15.1963199 26.365781,14.9111999 26.365781,14.5598399" id="path1219" fill="#FFFFFF" fill-rule="nonzero" transform="translate(27.006784, 14.560080) scale(-1, 1) rotate(-180.000000) translate(-27.006784, -14.560080) "></path>
                        <path d="M22.2923888,14.5598399 C22.2923888,14.2089599 22.5778165,13.9238399 22.9358107,13.9238399 C23.288967,13.9238399 23.5743947,14.2089599 23.5743947,14.5598399 C23.5743947,14.9111999 23.288967,15.1963199 22.9358107,15.1963199 C22.5778165,15.1963199 22.2923888,14.9111999 22.2923888,14.5598399" id="path1221" fill="#FFFFFF" fill-rule="nonzero" transform="translate(22.933392, 14.560080) scale(-1, 1) rotate(-180.000000) translate(-22.933392, -14.560080) "></path>
                        <path d="M18.2199641,14.5598399 C18.2199641,14.2089599 18.5068432,13.9238399 18.8614509,13.9238399 C19.2160585,13.9238399 19.5029376,14.2089599 19.5029376,14.5598399 C19.5029376,14.9111999 19.2160585,15.1963199 18.8614509,15.1963199 C18.5068432,15.1963199 18.2199641,14.9111999 18.2199641,14.5598399" id="path1223" fill="#FFFFFF" fill-rule="nonzero" transform="translate(18.861451, 14.560080) scale(-1, 1) rotate(-180.000000) translate(-18.861451, -14.560080) "></path>
                    </g>
                    <g id="Group-8" transform="translate(18.000000, 72.000000)">
                        <path d="M39.5816693,5.1425122 C39.449274,5.72498539 39.8120368,6.30480296 40.3928104,6.43758562 C40.9727011,6.56948303 41.5508267,6.20565859 41.683222,5.62318537 C41.8156172,5.0415974 41.4528544,4.46177983 40.8720808,4.32899717 C40.2921901,4.19621454 39.7140641,4.56003898 39.5816693,5.1425122" id="path1255" fill="#9996FF" fill-rule="nonzero" transform="translate(40.632446, 5.383132) scale(-1, 1) rotate(-180.000000) translate(-40.632446, -5.383132) "></path>
                        <path d="M71.5359362,33.6004044 C77.3875197,33.4515239 88.5679474,35.809447 88.5679474,35.809447 L102.943668,58.7354737 L106.392199,57.0705075 C106.392199,57.0705075 95.5378061,31.056186 92.6336983,29.2579287 C89.7295906,27.4588919 71.5359362,23.7680604 71.5359362,23.7680604 L71.5359362,33.6004044" id="path1399" fill="#03A9F4" fill-rule="nonzero" transform="translate(88.964068, 41.251767) scale(-1, 1) rotate(-180.000000) translate(-88.964068, -41.251767) "></path>
                        <path d="M135.714093,53.8401738 L132.87444,61.8683445 C132.46247,63.0338116 131.531664,63.9599899 130.309692,64.4223049 L121.151096,67.8815348 C119.434295,68.5304792 117.404644,67.7382715 116.618649,66.1128127 L97.0492832,25.6289019 L158.278761,2.49922121 L174.356445,35.7618828 C175.142441,37.3873414 174.386646,39.23118 172.669844,39.8801244 L135.714093,53.8401738" id="path1401" fill="#FFE0B2" fill-rule="nonzero" transform="translate(135.858318, 35.303702) scale(-1, 1) rotate(-180.000000) translate(-135.858318, -35.303702) "></path>
                        <path d="M131.584895,61.8302368 C131.126366,63.038601 130.204904,63.9894072 129.047208,64.4490023 L120.371089,67.8936505 C118.743859,68.5398591 116.92588,67.6769621 116.311817,65.9665905 L101.002055,23.3684691 L159.010849,0.3362884 L171.588506,35.3356719 C172.203303,37.0468147 171.382351,38.9569093 169.75512,39.6031183 L134.743982,53.5043208 L131.584895,61.8302368 Z" id="path1403" stroke="url(#linearGradient-11)" stroke-width="13" transform="translate(136.397333, 34.222235) scale(-1, 1) rotate(-180.000000) translate(-136.397333, -34.222235) "></path>
                        <polyline id="path1405" fill="#FFFFFF" fill-rule="nonzero" transform="translate(136.037990, 36.745657) scale(-1, 1) rotate(-180.000000) translate(-136.037990, -36.745657) " points="142.361449 31.6988139 127.952774 37.1339946 129.713757 41.7925002 144.123205 36.3565475 142.361449 31.6988139"></polyline>
                        <polyline id="path1407" fill="#FF9800" fill-rule="nonzero" transform="translate(100.463041, 73.335270) scale(-1, 1) rotate(-180.000000) translate(-100.463041, -73.335270) " points="100.21953 73.8760033 101.002055 73.5790258 100.706553 72.7945369 99.9240265 73.0909824 100.21953 73.8760033"></polyline>
                        <polyline id="path1409" fill="#FF9800" fill-rule="nonzero" transform="translate(102.619098, 74.056248) scale(-1, 1) rotate(-180.000000) translate(-102.619098, -74.056248) " points="102.375972 74.5969809 103.158113 74.3005358 102.862225 73.5155145 102.080084 73.81196 102.375972 74.5969809"></polyline>
                        <polyline id="path1411" fill="#FF9800" fill-rule="nonzero" transform="translate(133.342918, 35.844435) scale(-1, 1) rotate(-180.000000) translate(-133.342918, -35.844435) " points="134.061604 36.2515815 133.018749 36.745657 132.624232 35.4372885 133.667086 34.9432131 134.061604 36.2515815"></polyline>
                        <path d="M103.564323,14.6066725 C104.172533,16.845743 102.789308,20.6145602 104.116669,21.6525193 C105.444816,22.6904784 108.907599,24.8495266 108.907599,24.8495266 L104.770514,14.0348627 L103.564323,14.6066725" id="path1413" fill="#FFF3E0" fill-rule="nonzero" transform="translate(106.212528, 19.442195) scale(-1, 1) rotate(-180.000000) translate(-106.212528, -19.442195) "></path>
                        <path d="M73.5664195,25.9309659 C72.7016766,27.6941649 72.1050351,31.1819928 72.848125,32.1352223 C73.59199,33.0884517 76.7107983,32.1053108 77.5825146,33.5568014 C78.757976,35.5152117 79.7482464,39.4162894 79.7978371,42.6994602 C79.8706741,47.4986674 78.6355486,50.8156856 73.3944006,50.8047201 C69.2349568,50.7960069 66.0696567,47.8890901 65.5969928,43.5621683 C65.0677637,38.7338369 67.1986266,33.6504714 66.7709043,31.9903881 C66.3424073,30.3303047 65.0677637,29.8477865 65.0677637,29.8477865 L73.5664195,25.9309659" id="path1415" fill="#FFF3E0" fill-rule="nonzero" transform="translate(72.434294, 38.367843) scale(-1, 1) rotate(-180.000000) translate(-72.434294, -38.367843) "></path>
                        <path d="M69.8137227,168.532535 C69.204998,169.029772 69.0412878,169.162265 69.0205358,169.18019 C69.0205358,169.18019 69.3018406,171.149653 71.072676,172.530694 C72.1894397,173.401248 72.2578443,172.91726 72.3116458,172.410671 C72.5291571,171.37567 74.9694358,169.103033 75.8686882,169.814596 C76.4528181,169.171618 81.7130598,161.589925 81.2034835,160.948505 C80.378016,159.908049 79.5763748,160.567394 79.0283689,161.013972 C72.5545206,166.296529 73.7320033,166.000369 71.65988,168.688409 C71.224857,169.043801 70.294861,168.99548 69.8137227,168.532535 Z" id="path1417" fill="#01579B" fill-rule="nonzero" transform="translate(75.129365, 166.701869) scale(-1, 1) rotate(-180.000000) translate(-75.129365, -166.701869) "></path>
                        <path d="M76.2861527,164.944027 C76.8663769,166.142713 74.5684045,169.262012 73.3067727,167.366954 C73.0158699,166.930923 72.6522418,166.574751 72.254622,166.35993 L72.2562031,166.358333 C72.4807041,165.297803 77.035543,158.475434 79.0821374,158.977749 C78.684518,159.922483 75.4300452,163.869123 76.2861527,164.944027" id="path1419" fill="#FFF3E0" fill-rule="nonzero" transform="translate(75.668380, 163.457470) scale(-1, 1) rotate(-180.000000) translate(-75.668380, -163.457470) "></path>
                        <path d="M1.16623397,174.68073 C1.12143359,175.086623 0.604506119,175.541358 0.10883011,175.553709 C0.045650086,176.121847 0.0284191702,176.273426 0.0266960786,176.293075 C0.0266960786,176.293075 1.20069581,177.153142 2.85658681,176.942617 C3.89963158,176.810126 3.68424514,176.528302 3.44933031,176.241987 C3.02544978,175.60199 3.13285582,173.184594 3.97946816,173.084103 C3.9530474,172.453649 2.78881187,165.874584 2.18515546,165.810584 C1.20758817,165.705602 1.12545414,166.455634 1.06859212,166.965948 C0.39428895,172.999893 0.862969857,172.24144 1.16623397,174.68073" id="path1421" fill="#01579B" fill-rule="nonzero" transform="translate(2.003082, 171.388223) scale(-1, 1) rotate(-180.000000) translate(-2.003082, -171.388223) "></path>
                        <path d="M4.65600738,170.601737 C5.52503244,170.911958 5.91114357,173.658892 4.36724905,173.34411 C4.01193882,173.271687 3.65992866,173.277389 3.35906999,173.370912 L3.35906999,173.369771 C2.95370831,172.719677 1.87787729,166.950373 3.12971338,166.161136 C3.39427101,166.840884 3.71163016,170.493958 4.65600738,170.601737" id="path1423" fill="#FFF3E0" fill-rule="nonzero" transform="translate(3.979468, 169.766024) scale(-1, 1) rotate(-180.000000) translate(-3.979468, -169.766024) "></path>
                        <path d="M94.888532,142.511154 C93.3683939,143.96317 64.217281,158.962926 51.8691656,162.195759 C49.3022347,159.711476 39.5544167,144.725711 39.5544167,144.725711 C42.0740128,142.930124 49.6863432,140.850042 56.4970898,140.094497 C61.6961332,139.51851 72.3533957,136.839121 79.1967333,135.054417 C77.4329385,126.214067 75.7351018,112.710634 72.8950275,101.918458 C74.1645249,100.514636 76.4823672,99.470708 76.4823672,99.470708 C79.9478786,104.973287 95.1996985,140.430295 94.888532,142.511154" id="path1425" fill="#01579B" fill-rule="nonzero" transform="translate(67.223821, 130.833233) scale(-1, 1) rotate(-180.000000) translate(-67.223821, -130.833233) "></path>
                        <path d="M40.3949032,167.603091 C39.0673856,164.801916 38.3404668,156.919232 38.7767731,150.057989 C39.2123043,143.197524 37.7228185,126.446529 37.3237111,121.593132 C31.0751559,118.563846 16.8351461,105.389449 4.33881108,97.2148135 C4.33881108,95.3175198 5.35634211,92.9819096 5.35634211,92.9819096 C11.6041222,94.7336174 46.6233092,110.786265 47.7857587,112.540308 C48.9482086,114.294351 58.6376151,145.700519 59.67762,158.462292 C56.7947447,160.568234 40.3949032,167.603091 40.3949032,167.603091" id="path1427" fill="#01579B" fill-rule="nonzero" transform="translate(32.008216, 130.292500) scale(-1, 1) rotate(-180.000000) translate(-32.008216, -130.292500) "></path>
                        <g id="g1429" transform="translate(58.976388, 74.575596) scale(-1, 1) rotate(-180.000000) translate(-58.976388, -74.575596) translate(38.476388, 46.075596)">
                            <g id="g1431-Clipped">
                                <mask id="mask-13" fill="white">
                                    <use xlink:href="#path-12"></use>
                                </mask>
                                <g id="path-17"></g>
                                <g id="g1431" mask="url(#mask-13)" fill="#03A9F4" fill-rule="nonzero">
                                    <g id="path1445" transform="translate(0.253722, 0.028567)">
                                        <path d="M35.7856528,31.2802985 C32.7150847,28.0774287 28.1146468,24.9725822 27.2445236,22.9304318 C26.3744004,20.8882813 23.4739898,0.0287845963 23.4739898,0.0287845963 C18.1086169,0.903991916 0.0208829564,10.7288748 0.0208829564,10.7288748 C3.70943181,14.8007282 8.24722087,20.9614098 10.8575904,27.0147326 C13.7293836,33.6748658 15.6274124,49.4604939 21.8427989,54.6199383 C26.4107522,58.4125032 33.0453448,54.6565027 35.4383769,51.2288018 C37.2722101,48.6016239 40.2236677,39.4862422 40.2236677,39.4862422 L35.7856528,31.2802985" id="Path"></path>
                                    </g>
                                </g>
                            </g>
                        </g>
                        <g id="g1451-Clipped" transform="translate(53.336758, 46.468671) scale(-1, 1) rotate(-180.000000) translate(-53.336758, -46.468671) translate(27.336758, 24.468671)">
                            <g>
                                <mask id="mask-15" fill="white">
                                    <use xlink:href="#path-14"></use>
                                </mask>
                                <g id="path-19"></g>
                                <g id="g1451" mask="url(#mask-15)" fill="#424242" fill-rule="nonzero">
                                    <g id="path1465" transform="translate(0.253431, 0.028621)">
                                        <path d="M41.4451411,42.8768971 C35.9938527,40.6318868 35.3589544,34.7821024 36.0039304,31.9132187 C36.4667318,29.8587931 35.1387943,27.4776508 27.9634351,25.7024902 C20.0051122,23.7328553 6.81488575,28.5464811 0.489933773,25.9280803 C-1.43414158,16.9869338 2.78145945,9.07494479 8.12266783,8.52730539 C11.3211911,8.20058869 11.5901896,3.63900151 13.3956576,0.335273547 C25.2408918,-2.02097605 21.2051399,8.69221953 25.2377909,14.4898848 C29.2712172,20.2875501 35.5395788,19.0841437 39.0466364,21.820007 C41.5056078,23.7398564 39.0466364,26.7417604 40.500158,29.9684766 C41.7691797,32.7867969 44.0157431,33.6603751 47.0406191,33.8517377 C49.8499861,34.0298761 51.2190097,37.4222845 51.3732771,39.0877615 C51.3903315,39.4572625 51.4011847,39.8399877 51.4011847,40.251495 C50.4569767,42.8037748 46.8956545,45.1211295 41.4451411,42.8768971" id="Path"></path>
                                    </g>
                                </g>
                            </g>
                        </g>
                        <g id="g1467" transform="translate(87.630392, 63.562358) scale(-1, 1) rotate(-180.000000) translate(-87.630392, -63.562358) translate(63.630392, 48.562358)">
                            <g id="g1469-Clipped" transform="translate(0.253148, 0.028534)">
                                <g>
                                    <mask id="mask-17" fill="white">
                                        <use xlink:href="#path-16"></use>
                                    </mask>
                                    <g id="path-21"></g>
                                    <g id="g1469" mask="url(#mask-17)" fill="#03A9F4" fill-rule="nonzero">
                                        <path d="M3.57321603,26.2406215 C6.81730988,28.1825918 10.4925074,26.3413622 13.0435905,22.1366013 C15.4339755,18.196091 21.1016755,10.5483238 21.5358696,10.5483238 C24.4330718,12.5825105 43.1204122,28.2748082 43.1204122,28.2748082 C43.6998526,27.8392985 46.1620882,25.2239156 46.1620882,25.2239156 C45.0758305,23.8437683 24.288598,0.450233332 22.4050302,0.0147236374 C20.5222351,-0.421560987 0.821260245,12.2198441 0.169196608,17.6683648 C-0.482867032,23.1168856 1.32807748,24.8968958 3.57321603,26.2406215" id="path1483"></path>
                                    </g>
                                </g>
                            </g>
                        </g>
                        <path d="M109.618443,43.5949443 C110.04872,43.9914549 112.241539,44.3715093 114.138741,45.5735783 C116.98574,47.3766816 119.814412,50.5088001 118.077368,52.327576 C116.341122,54.1455682 111.443136,48.9290275 110.721227,49.4752087 C110.104497,49.9422447 110.719634,52.6143798 110.272624,52.9450663 C109.825614,53.2757531 109.26466,49.8873916 108.396138,48.537219 C107.884586,47.7418474 107.898929,46.7262794 107.110885,46.0891984 C107.355505,45.8619495 109.618443,43.5949443 109.618443,43.5949443" id="path1485" fill="#FFF3E0" fill-rule="nonzero" transform="translate(112.860372, 48.281299) scale(-1, 1) rotate(-180.000000) translate(-112.860372, -48.281299) "></path>
                        <path d="M105.673513,18.0002395 C106.887688,18.5665752 111.081184,19.6361714 110.676982,20.6111546 C110.271995,21.5861378 105.673513,19.6361714 105.673513,19.6361714 L105.673513,18.0002395" id="path1487" fill="#FFF3E0" fill-rule="nonzero" transform="translate(108.188914, 19.442195) scale(-1, 1) rotate(-180.000000) translate(-108.188914, -19.442195) "></path>
                    </g>
                    <g id="Group-12" transform="translate(256.000000, 110.000000)" stroke="url(#linearGradient-18)" stroke-width="4">
                        <path d="M15.6546732,6.6151147 C10.4841336,6.6151147 6.29216765,10.7966814 6.29216765,15.9554647 C6.29216765,21.1137687 10.4841336,25.2958147 15.6546732,25.2958147 C20.8256934,25.2958147 25.0176592,21.1137687 25.0176592,15.9554647 C25.0176592,10.7966814 20.8256934,6.6151147 15.6546732,6.6151147 Z M29.2283609,15.9554647 C29.2283609,16.2564417 29.2149095,16.5540638 29.1956937,16.8497688 C29.4930608,17.2811052 30.1675417,17.5121098 30.5950974,17.5868748 L30.2540136,19.5221374 C29.8259777,19.4464139 29.1125844,19.4334739 28.6845485,19.7387642 C28.5168892,20.3143586 28.3112781,20.8736581 28.0705979,21.4142664 C28.1998255,21.9237226 28.7575693,22.3723125 29.1337221,22.5889392 L28.1493835,24.2903216 C27.7693874,24.0717779 27.0925048,23.8120175 26.5847226,23.9634645 C26.2373938,24.4317041 25.8588389,24.8755014 25.454823,25.2943769 C25.3837236,25.8234829 25.7608374,26.4522755 26.0461947,26.7920727 L24.538701,28.0539713 C24.249981,27.7108193 23.6845506,27.2243677 23.1445818,27.2128654 C22.6757116,27.5215105 22.1852239,27.8028377 21.6774417,28.0525335 C21.4088985,28.524128 21.550136,29.2626719 21.7043442,29.6868193 L19.8543256,30.3573077 C19.6967547,29.9254921 19.3167586,29.2521278 18.791682,29.0781555 C18.2718897,29.1989297 17.7415286,29.2919068 17.2010792,29.3503769 C16.7586312,29.6896949 16.6322864,30.4613076 16.6322864,30.9247548 L14.662168,30.9247548 C14.662168,30.4517225 14.5305383,29.6566258 14.0669531,29.3288101 C13.5572491,29.2669852 13.0566728,29.1768837 12.5671458,29.0604229 C12.0079608,29.1979714 11.6039448,29.9087178 11.440609,30.3573077 L9.59011013,29.6863398 C9.75728916,29.2262476 9.90813462,28.3961648 9.5391878,27.938469 C9.11643625,27.7218423 8.70713588,27.4831695 8.31272791,27.2248469 C7.72712093,27.1242017 7.07377762,27.6758331 6.75623356,28.0539713 L5.24825958,26.7915935 C5.57156843,26.405787 6.01545753,25.6461557 5.783905,25.0844599 C5.4831749,24.7590405 5.19733721,24.418764 4.9287939,24.0641097 C4.41572723,23.7319806 3.58223415,24.0377502 3.1441098,24.2903216 L2.16025165,22.5889392 C2.60221917,22.33493 3.29303364,21.7612526 3.24883691,21.1449208 C3.08357947,20.7500084 2.93657722,20.3469485 2.80831055,19.933824 C2.44753054,19.4305983 1.54485989,19.4329946 1.04044045,19.5221374 L0.698876404,17.5868748 C1.21242346,17.4967734 2.08098573,17.1818979 2.22462519,16.5646075 C2.21693878,16.3623587 2.21021321,16.1596306 2.21021321,15.9554647 C2.21021321,15.7508196 2.21693878,15.5476122 2.22462519,15.3453633 C2.08002492,14.7275938 1.21242346,14.4136767 0.698876404,14.3235753 L1.04044045,12.3883127 C1.54485989,12.4774556 2.44753054,12.4808104 2.80831055,11.9766261 C2.93657722,11.5635017 3.08405985,11.1599625 3.24931729,10.7650501 C3.29399445,10.1491976 2.60221917,9.57599941 2.16025165,9.32103168 L3.1441098,7.62012849 C3.58319492,7.87269993 4.41668804,8.17799024 4.9287939,7.84586121 C5.19781763,7.49120686 5.4831749,7.15140964 5.78438539,6.82503175 C6.01545753,6.26285664 5.57156843,5.50418385 5.24825958,5.11981531 L6.75767476,3.85743736 C7.07377762,4.23413782 7.72616012,4.78672767 8.31272791,4.68560322 C8.70713588,4.42680141 9.11739703,4.1890871 9.53966819,3.97198115 C9.908615,3.51380602 9.75873036,2.68420237 9.59011013,2.22458945 L11.440609,1.55266324 C11.6039448,2.0022116 12.0079608,2.71199959 12.566185,2.85050649 C13.0566728,2.73356641 13.5572491,2.64346505 14.0679136,2.58116088 C14.5305383,2.2538245 14.662168,1.45872773 14.662168,0.986174756 L16.6322864,0.986174756 C16.6322864,1.44866321 16.7586312,2.22075538 17.2001186,2.56007335 C17.7415286,2.61854337 18.2723699,2.71152034 18.7926426,2.83181525 C19.3167586,2.65832219 19.6967547,1.98447889 19.8543256,1.55314249 L21.7043442,2.22458945 C21.550136,2.64777842 21.4093788,3.38728067 21.6774417,3.85839589 C22.1852239,4.10809172 22.6757116,4.38941892 23.1465033,4.69854331 C23.6859918,4.68608251 24.249981,4.19963091 24.538701,3.85743736 L26.0457144,5.11981531 C25.7608374,5.45865392 25.3837236,6.08696725 25.454823,6.61559395 C25.8588389,7.03542806 26.2373938,7.47874602 26.5852029,7.94794416 C27.0925048,8.0989119 27.7693874,7.83915156 28.1493835,7.62060778 L29.1337221,9.32103168 C28.7575693,9.53861692 28.1998255,9.98720679 28.0705979,10.496663 C28.3112781,11.0372713 28.5168892,11.5970501 28.6855094,12.1731238 C29.1130651,12.4769763 29.8259777,12.4645155 30.2540136,12.388792 L30.5950974,14.3235753 C30.1675417,14.3988196 29.4930608,14.6298242 29.1956937,15.0616398 C29.2149095,15.3573449 29.2283609,15.6544878 29.2283609,15.9554647 Z" id="path1291" transform="translate(15.646987, 15.955465) scale(-1, 1) rotate(-180.000000) translate(-15.646987, -15.955465) "></path>
                    </g>
                    <path d="M0.0845642313,287.821228 C1.3527528,293.208414 6.72751404,297.209775 12.3645761,297.209775 C13.2320941,297.209775 14.0779543,297.119708 14.8949372,296.956387 C14.8901244,297.153333 14.876889,297.344274 14.876889,297.54122 C14.876889,306.030302 21.7701077,312.908992 30.2732275,312.908992 C31.9408836,312.908992 33.5483789,312.644796 35.0511943,312.156035 C37.0948166,315.204267 40.0562044,317.585453 43.5435285,318.895339 C44.675054,319.320355 46.4818679,319.688576 48.9639701,320 C51.5367317,319.912586 53.4907526,319.683296 54.8260322,319.31213 C62.3641741,317.218981 67.4429443,310.166162 67.4429443,302.357984 C69.3235694,303.115745 71.3786605,303.525248 73.5372283,303.496427 C79.6182765,303.417168 85.0483856,299.587534 87.5955919,294.075455 C88.7747425,291.524768 89.1296907,289.076156 88.9600376,286.778856 C88.8421223,285.197286 87.4656447,284 85.8761977,284 L3.10343058,284 C1.096468,284 -0.375063874,285.873386 0.0845642313,287.821228 Z" id="path1489" stroke="url(#linearGradient-19)" stroke-width="5" fill-opacity="0.5" fill="#B3E5FC" fill-rule="nonzero" transform="translate(44.500000, 302.000000) scale(-1, 1) rotate(-180.000000) translate(-44.500000, -302.000000) "></path>
                    <g id="Group-7" transform="translate(143.000000, 171.000000)">
                        <path d="M15.0162562,172.271072 C11.8988009,164.86643 12.8689879,158.52013 13.3537119,153.125362 C12.2852501,146.673002 6.11462451,83.3062892 6.11462451,83.3062892 C7.67298271,83.3062892 12.1411629,83.2528832 12.1411629,83.2528832 C12.1411629,83.2528832 26.1021016,122.688399 27.9700625,129.042972 C29.9739826,135.860148 37.8071524,162.673771 37.3911468,173.38207 C31.3151017,172.810399 15.0162562,172.271072 15.0162562,172.271072" id="path1491" fill="#FF9800" fill-rule="nonzero" transform="translate(21.760870, 128.317477) scale(-1, 1) rotate(-180.000000) translate(-21.760870, -128.317477) "></path>
                        <path d="M43.1214949,173.38207 C45.8499554,166.97857 61.15903,131.260317 61.4955178,127.421829 C61.8320056,123.584095 53.9002949,83.2528832 53.9002949,83.2528832 L49.2416927,83.2528832 C46.7236299,100.722516 46.8101766,123.660112 48.4023385,127.605475 C42.1359066,135.060419 28.0198342,149.639144 25.2854048,153.324845 C20.9961183,159.105908 20.3380646,165.863903 21.1781649,171.770658 C25.376428,172.81006 43.1214949,173.38207 43.1214949,173.38207" id="path1493" fill="#FF9800" fill-rule="nonzero" transform="translate(41.183795, 128.317477) scale(-1, 1) rotate(-180.000000) translate(-41.183795, -128.317477) "></path>
                        <path d="M14.4286521,78.9439181 C11.1419485,75.5419359 -0.136766579,54.679801 0.00125578358,49.2650657 C0.140016234,43.8495896 14.9475276,36.572428 14.9475276,36.572428 L14.6323643,44.6952717 C14.6323643,44.6952717 8.86421048,49.4020631 8.86421048,50.5476589 C8.86421048,51.6932548 15.4664032,62.4901424 15.4664032,62.4901424 L14.4286521,78.9439181" id="path1495" fill="#01579B" fill-rule="nonzero" transform="translate(7.733202, 57.758173) scale(-1, 1) rotate(-180.000000) translate(-7.733202, -57.758173) "></path>
                        <path d="M86.1608725,14.3094417 C86.5644981,14.8802563 87.4903944,15.0300655 88.3028801,15.6707516 C89.3933673,16.5317106 90.96774,18.7172673 90.9950748,19.4112452 C91.0224097,20.1052231 90.9450576,21.2983677 90.5315449,21.7702964 C90.1180323,22.2422251 88.2435575,20.5214915 86.8384283,19.2448563 C86.8384283,20.077393 86.8384283,21.4096885 86.8384283,21.4096885 C86.0602567,20.6600502 85.6624472,18.1938232 85.2425368,17.5513607 C84.7958732,16.8680412 84.1660079,16.0982704 84.1660079,16.0982704 L86.1608725,14.3094417" id="path1497" fill="#FFD8D8" fill-rule="nonzero" transform="translate(87.583004, 18.079786) scale(-1, 1) rotate(-180.000000) translate(-87.583004, -18.079786) "></path>
                        <path d="M66.3145911,66.8598657 C66.3145911,66.8598657 47.0495163,73.6140626 42.5516597,75.7059646 L42.5539286,75.6244717 C39.5747699,76.9777036 35.7681933,77.7388029 33.7223379,77.5130149 C32.602979,77.3896543 25.6576594,76.4356631 23.8636598,75.7799811 C22.2647917,75.1960729 18.098205,74.1972232 14.548022,69.9917375 C13.3379042,58.216378 13.3779893,28.146969 14.6546636,21.6282793 C14.6546636,21.6282793 36.8981408,20.1972928 43.3858848,22.1949919 C45.9241068,31.0904351 47.9926519,47.2664151 47.7355017,59.7931547 C54.4425794,58.5887038 66.1837472,56.5431555 68.7227252,57.2818256 C72.3387084,58.3330102 86.1272442,80.2807853 87.4031621,82.7345459 C87.4031621,82.7345459 85.7944619,84.2769314 84.4383734,85.4073658 C84.4383734,85.4073658 68.4421294,69.9438886 66.3145911,66.8598657 Z" id="path1499" fill="#01579B" fill-rule="nonzero" transform="translate(50.535573, 53.269668) scale(-1, 1) rotate(-180.000000) translate(-50.535573, -53.269668) "></path>
                        <path d="M21.7944505,15.3258704 C22.5578785,13.8746405 24.3404906,9.65451793 24.0785902,6.93590057 C25.7805585,6.4534079 30.3096681,7.01018795 34.0899425,8.67527541 C32.9378881,9.75957078 31.5047325,10.7448163 31.6015051,12.2290628 C31.7520402,14.5379741 34.8587467,12.6680336 35.2005228,16.2811008 C35.6006697,20.4959708 33.464761,27.7566226 30.9870761,29.1020493 C28.2129292,30.6080568 23.3220745,31.9084608 19.2161528,27.019752 C15.8659788,23.0307457 20.2422493,18.2726025 21.7944505,15.3258704" id="path1501" fill="#FFD8D8" fill-rule="nonzero" transform="translate(26.616601, 18.618407) scale(-1, 1) rotate(-180.000000) translate(-26.616601, -18.618407) "></path>
                        <g id="g1503" transform="translate(25.247036, 11.786452) scale(-1, 1) rotate(-180.000000) translate(-25.247036, -11.786452) translate(14.747036, 0.286452)">
                            <g id="g1505-Clipped" transform="translate(0.170013, 0.157987)">
                                <g>
                                    <mask id="mask-21" fill="white">
                                        <use xlink:href="#path-20"></use>
                                    </mask>
                                    <g id="path-25"></g>
                                    <g id="g1505" mask="url(#mask-21)" fill="#FF6F00" fill-rule="nonzero">
                                        <path d="M15.703309,8.91035035 C16.8448213,9.31325697 15.846273,11.2813859 15.5368842,12.4127655 C15.318406,13.2119496 15.9437817,13.9919827 16.8345572,14.2232673 C20.1505881,15.0843238 20.6176038,19.9773929 17.9386789,20.9614574 C15.2575547,21.9447853 14.277335,18.8600083 12.5676326,18.8077115 C10.575668,18.7458391 10.0910568,21.0380612 7.53823347,19.8344973 C5.17969457,18.7230053 7.11887252,16.8550506 5.71855877,15.8783518 C4.27645555,14.8714535 1.15250953,16.1302606 0.123902106,12.8981685 C-0.639305544,10.4991431 2.36660355,9.47604009 2.89666996,7.31713816 C3.22658681,5.96846892 3.43700044,0.0176778051 7.40333413,0.00433565667 C11.4752412,-0.0110486282 13.744336,4.24782925 12.4078062,7.89976916 C11.8660094,9.37881217 11.9561867,10.6346729 12.7149955,10.8143973 C13.84771,11.0795643 14.074986,8.3321388 15.703309,8.91035035" id="path1519"></path>
                                    </g>
                                </g>
                            </g>
                        </g>
                        <path d="M49.2766798,174.725453 C49.2766798,175.568488 49.2766798,176.254713 49.2766798,176.254713 L53.7940684,176.254713 C53.8532004,174.829753 54.1395249,174.066562 54.312253,173.476006 C53.1381677,173.058085 51.4186659,174.135616 49.2766798,174.725453" id="path1521" fill="#FFD8D8" fill-rule="nonzero" transform="translate(51.794466, 174.818391) scale(-1, 1) rotate(-180.000000) translate(-51.794466, -174.818391) "></path>
                        <path d="M54.4398288,180.689107 C55.0429459,180.250634 63.9326985,177.053777 64.8369972,176.434933 C65.7631862,175.80175 65.6280699,174.818392 64.6475323,174.818392 C63.2140909,174.818392 51.41141,175.338371 51.41141,175.338371 C51.1713707,175.078759 50.9781317,174.818392 50.9781317,174.818392 L48.2803331,174.818392 C47.4764283,176.213054 47.6930673,180.397043 49.5545032,182 C51.6325781,181.381156 53.300775,180.250634 54.4398288,180.689107 Z" id="path1523" fill="#01579B" fill-rule="nonzero" transform="translate(56.650198, 178.409196) scale(-1, 1) rotate(-180.000000) translate(-56.650198, -178.409196) "></path>
                        <path d="M6.11462451,174.725325 C6.40082335,175.526707 6.62291364,176.254713 6.62291364,176.254713 L11.1501976,176.215148 C10.9441345,175.151194 10.8846051,174.066379 11.0540348,173.475774 C9.9023707,173.058538 8.21570556,174.13544 6.11462451,174.725325" id="path1525" fill="#FFD8D8" fill-rule="nonzero" transform="translate(8.632411, 174.818392) scale(-1, 1) rotate(-180.000000) translate(-8.632411, -174.818392) "></path>
                        <path d="M6.35723723,182 C8.39292586,181.381156 10.0270966,180.251389 11.1429172,180.689107 C11.7344722,180.251389 20.4421618,177.053777 21.3280154,176.434933 C22.2353129,175.800995 22.1029524,174.818392 21.142415,174.818392 C19.7382113,174.818392 8.17626886,175.338371 8.17626886,175.338371 C7.94186519,175.078759 7.75182813,174.818392 7.75182813,174.818392 L5.10979564,174.818392 C4.3215486,176.213054 4.53376895,180.397043 6.35723723,182" id="path1527" fill="#01579B" fill-rule="nonzero" transform="translate(13.308300, 178.409196) scale(-1, 1) rotate(-180.000000) translate(-13.308300, -178.409196) "></path>
                    </g>
                    <g id="Group" transform="translate(352.000000, 0.000000)" fill-rule="nonzero">
                        <path d="M37.8605769,221.643943 C46.0253636,221.643943 52.6442308,187.396963 52.6442308,145.151173 C52.6442308,124.207482 51.0174718,110.727384 48.3820691,102.458064 C45.7015673,94.0472312 41.9776049,91.0270461 37.8605769,91.0270461 C33.7435491,91.0270461 30.0195866,94.0472312 27.3390846,102.458064 C24.7036821,110.727384 23.0769231,124.207482 23.0769231,145.151173 C23.0769231,187.396963 29.6957904,221.643943 37.8605769,221.643943 Z" id="Oval" fill="url(#linearGradient-22)"></path>
                        <path d="M37.8605769,208.428586 C44.4322345,208.428586 49.7596154,181.111583 49.7596154,147.414353 C49.7596154,130.70868 48.4502726,119.956319 46.3290952,113.360321 C44.1716178,106.651445 41.1742821,104.242403 37.8605769,104.242403 C34.5468716,104.242403 31.5495359,106.651445 29.3920587,113.360321 C27.2708811,119.956319 25.9615385,130.70868 25.9615385,147.414353 C25.9615385,181.111583 31.2889195,208.428586 37.8605769,208.428586 Z" id="Oval" fill="url(#linearGradient-23)"></path>
                        <path d="M-1.16805975e-08,110.592461 C3.34612033,110.592461 11.3129223,97.2225825 5.89905331,80.2366289 C6.30803061,80.2366289 7.73818113,80.2366289 7.73818113,80.2366289 C14.0366859,86.6540426 30.1080975,127.662897 5.5789841,123.473369 C3.06288448,120.652191 -1.16805975e-08,110.592461 -1.16805975e-08,110.592461" id="path2153" fill="#B3E5FC" transform="translate(9.375000, 102.004862) rotate(-180.000000) translate(-9.375000, -102.004862) "></path>
                        <path d="M69.1003413,80.2366289 C68.6920009,80.2366289 67.2624926,80.2366289 67.2624926,80.2366289 C60.9633843,86.6540426 44.8920533,127.662897 69.4204089,123.473369 C71.9371309,120.652191 75,110.592461 75,110.592461 C71.6545316,110.592461 63.6871345,97.2225825 69.1003413,80.2366289 Z" id="path2157" fill="#B3E5FC" transform="translate(65.625000, 102.004862) rotate(-180.000000) translate(-65.625000, -102.004862) "></path>
                        <path d="M62.0189102,123.41329 L62.0810899,123.41329 C62.038782,123.533609 61.9983974,123.652777 61.9573716,123.773096 C61.9772437,123.653352 61.9977563,123.533609 62.0189102,123.41329" id="path2161" fill="#FD9B5B" transform="translate(62.019231, 123.593193) rotate(-180.000000) translate(-62.019231, -123.593193) "></path>
                        <path d="M20.1923077,13.3128039 L54.8076923,13.3128039 C48.421227,22.9566488 45.2529281,26.0144061 37.5,32.3824959 C29.747072,26.0144061 26.5778401,22.9566488 20.1923077,13.3128039 Z" id="path2163" stroke="url(#linearGradient-24)" stroke-width="22" fill="#B3E5FC" transform="translate(37.500000, 22.847650) rotate(-180.000000) translate(-37.500000, -22.847650) "></path>
                        <path d="M20.2104106,104.343598 C12.7930357,93.1118175 7.57211468,79.8516798 7.57211468,66.8098339 C7.57211468,43.0790072 18.5011541,32.3824959 18.5011541,32.3824959 C23.6614527,32.3824959 37.5011077,32.3834336 37.5011077,32.3834336 C37.5011077,32.3834336 51.3407625,32.3824959 56.5025394,32.3824959 C56.5025394,32.3824959 67.4308396,43.0782746 67.4278846,66.8127638 C67.4301004,79.852412 62.2084399,93.1125501 54.7918046,104.343598 L20.2104106,104.343598 Z" id="path2165" stroke="url(#linearGradient-25)" stroke-width="20" fill="#B3E5FC" transform="translate(37.500000, 68.363047) rotate(-180.000000) translate(-37.500000, -68.363047) "></path>
                        <path d="M37.499682,71.6012966 C31.1265039,71.6012966 25.9615385,66.4461112 25.9615385,60.0865679 C25.9615385,53.729564 31.1265039,48.5737439 37.499682,48.5737439 C43.873496,48.5737439 49.0384615,53.7282943 49.0384615,60.0865679 C49.0371891,66.4461112 43.8709511,71.6012966 37.499682,71.6012966 Z" id="path2177" fill="url(#linearGradient-26)" transform="translate(37.500000, 60.087520) rotate(-180.000000) translate(-37.500000, -60.087520) "></path>
                        <path d="M37.3196087,123.773096 C35.8477118,123.773096 33.7196051,122.459161 33.3947682,118.840563 C32.3228717,106.910195 35.383659,80.2366288 37.3196087,80.2366288 C39.2555584,80.2366288 42.3169993,106.910195 41.2444492,118.840563 C40.9189586,122.459161 38.7915057,123.773096 37.3196087,123.773096 Z" id="path2183" fill="#B3E5FC" transform="translate(37.319711, 102.004862) rotate(-180.000000) translate(-37.319711, -102.004862) "></path>
                        <path d="M36.7788462,46.0551053 C36.7788462,46.4521777 37.1020763,46.7747164 37.5,46.7747164 C37.8985846,46.7747164 38.2211538,46.4521777 38.2211538,46.0551053 C38.2211538,45.6573735 37.8985846,45.3354943 37.5,45.3354943 C37.1020763,45.3354943 36.7788462,45.6573735 36.7788462,46.0551053" id="path2187" fill="#03A9F4" transform="translate(37.500000, 46.055105) rotate(-180.000000) translate(-37.500000, -46.055105) "></path>
                        <path d="M42.2426582,46.8593696 C42.0900332,47.2266479 42.2651225,47.6473368 42.6324801,47.7989955 C43.0004982,47.9513138 43.4226948,47.7772359 43.5746593,47.4099576 C43.7272843,47.0426789 43.552195,46.6219904 43.1841768,46.4696721 C42.8168192,46.3180134 42.3946226,46.4920912 42.2426582,46.8593696" id="path2189" fill="#03A9F4" transform="translate(42.908654, 47.134522) rotate(-180.000000) translate(-42.908654, -47.134522) "></path>
                        <path d="M47.0861903,49.5040934 C46.8046031,49.7850781 46.8046031,50.2408538 47.0861903,50.5218385 C47.3677774,50.8028233 47.8245303,50.8028233 48.1061174,50.5218385 C48.3877046,50.2408538 48.3877046,49.7850781 48.1061174,49.5040934 C47.8245303,49.2231087 47.3677774,49.2231087 47.0861903,49.5040934" id="path2191" fill="#03A9F4" transform="translate(47.596154, 50.012966) rotate(-180.000000) translate(-47.596154, -50.012966) "></path>
                        <path d="M50.5655441,54.0258538 C50.1975277,54.1781425 50.0231001,54.5987505 50.1750638,54.9659583 C50.3270271,55.3331664 50.7492216,55.5072108 51.117238,55.3549217 C51.4845934,55.2032921 51.6596819,54.782025 51.5077182,54.4154764 C51.355094,54.0482686 50.9328995,53.8735647 50.5655441,54.0258538" id="path2193" fill="#03A9F4" transform="translate(50.841346, 54.690438) rotate(-180.000000) translate(-50.841346, -54.690438) "></path>
                        <path d="M51.9230769,59.3679092 C51.5244923,59.3679092 51.2019231,59.6897884 51.2019231,60.0875203 C51.2019231,60.4845926 51.5244923,60.8071313 51.9230769,60.8071313 C52.3210006,60.8071313 52.6442308,60.4845926 52.6442308,60.0875203 C52.6442308,59.6897884 52.3210006,59.3679092 51.9230769,59.3679092" id="path2195" fill="#03A9F4" transform="translate(51.923077, 60.087520) rotate(-180.000000) translate(-51.923077, -60.087520) "></path>
                        <path d="M51.117238,65.1794514 C50.7492216,65.0278419 50.3276881,65.2025221 50.1750638,65.5690214 C50.0231001,65.9361799 50.1975277,66.3567311 50.5655441,66.5089997 C50.9328995,66.6612683 51.355094,66.4865877 51.5077182,66.1194296 C51.6596819,65.7529303 51.4845934,65.3317196 51.117238,65.1794514" id="path2197" fill="#03A9F4" transform="translate(50.841346, 65.844408) rotate(-180.000000) translate(-50.841346, -65.844408) "></path>
                        <path d="M48.1056945,70.0130075 C47.824204,69.7320228 47.3682689,69.7320228 47.0861178,70.0130075 C46.8046273,70.2939922 46.8046273,70.7497679 47.0861178,71.0307526 C47.3682689,71.3117374 47.824204,71.3117374 48.1056945,71.0307526 C48.3878456,70.7497679 48.3878456,70.2939922 48.1056945,70.0130075" id="path2199" fill="#03A9F4" transform="translate(47.596154, 70.521880) rotate(-180.000000) translate(-47.596154, -70.521880) "></path>
                        <path d="M43.5746593,73.1253629 C43.4220343,72.7581551 43.0004982,72.5834512 42.6324801,72.7357403 C42.2651225,72.8880291 42.0900332,73.3086371 42.2426582,73.6758448 C42.3946226,74.043053 42.8168192,74.2170974 43.1841768,74.0648083 C43.552195,73.9131787 43.7272843,73.4919115 43.5746593,73.1253629" id="path2201" fill="#03A9F4" transform="translate(42.908654, 73.400324) rotate(-180.000000) translate(-42.908654, -73.400324) "></path>
                        <path d="M38.2211538,74.4797407 C38.2211538,74.0820088 37.8985846,73.7601297 37.5,73.7601297 C37.1014154,73.7601297 36.7788462,74.0820088 36.7788462,74.4797407 C36.7788462,74.8774726 37.1014154,75.1993517 37.5,75.1993517 C37.8985846,75.1993517 38.2211538,74.8774726 38.2211538,74.4797407" id="path2203" fill="#03A9F4" transform="translate(37.500000, 74.479741) rotate(-180.000000) translate(-37.500000, -74.479741) "></path>
                        <path d="M32.7573418,73.6757599 C32.9099669,73.3084812 32.7348775,72.8877927 32.3675201,72.7354744 C31.9995019,72.5838156 31.5773052,72.7578935 31.4253408,73.1251718 C31.2727157,73.4924501 31.4478051,73.9131391 31.8158233,74.0647978 C32.1831806,74.2171161 32.6053774,74.0430382 32.7573418,73.6757599" id="path2205" fill="#03A9F4" transform="translate(32.091346, 73.400324) rotate(-180.000000) translate(-32.091346, -73.400324) "></path>
                        <path d="M27.9138823,71.0303306 C28.1953726,70.7494423 28.1953726,70.2938235 27.9138823,70.0129352 C27.6323919,69.7320469 27.175796,69.7320469 26.8943057,70.0129352 C26.6121545,70.2938235 26.6121545,70.7494423 26.8943057,71.0303306 C27.175796,71.311878 27.6323919,71.311878 27.9138823,71.0303306" id="path2207" fill="#03A9F4" transform="translate(27.403846, 70.521880) rotate(-180.000000) translate(-27.403846, -70.521880) "></path>
                        <path d="M24.4342646,66.5092689 C24.8022102,66.3569805 24.9772651,65.9363747 24.8246701,65.5691687 C24.672075,65.2019627 24.2506221,65.0279191 23.8826766,65.1795479 C23.5153915,65.3318363 23.3403367,65.7531013 23.4922711,66.1196481 C23.6448661,66.4868541 24.0669796,66.6608978 24.4342646,66.5092689" id="path2209" fill="#03A9F4" transform="translate(24.158654, 65.844408) rotate(-180.000000) translate(-24.158654, -65.844408) "></path>
                        <path d="M23.0762621,60.8071313 C23.4755077,60.8071313 23.7980769,60.4845926 23.7980769,60.0875203 C23.7980769,59.6897884 23.4755077,59.3679092 23.0762621,59.3679092 C22.6783385,59.3679092 22.3557692,59.6897884 22.3557692,60.0875203 C22.3557692,60.4845926 22.6783385,60.8071313 23.0762621,60.8071313" id="path2211" fill="#03A9F4" transform="translate(23.076923, 60.087520) rotate(-180.000000) translate(-23.076923, -60.087520) "></path>
                        <path d="M23.8826298,55.3550084 C24.2506973,55.5073069 24.67229,55.3325922 24.8242748,54.9660205 C24.9775812,54.5987897 24.8024683,54.1781555 24.4344007,54.025857 C24.066994,53.8735585 23.6447406,54.0482733 23.4927558,54.4155041 C23.3401101,54.7820757 23.5145623,55.20271 23.8826298,55.3550084" id="path2213" fill="#03A9F4" transform="translate(24.158654, 54.690438) rotate(-180.000000) translate(-24.158654, -54.690438) "></path>
                        <path d="M26.8943057,50.5218385 C27.175796,50.8028233 27.6317311,50.8028233 27.9138823,50.5218385 C28.1953726,50.2408538 28.1953726,49.7850781 27.9138823,49.5040934 C27.6317311,49.2231087 27.175796,49.2231087 26.8943057,49.5040934 C26.6121545,49.7850781 26.6121545,50.2408538 26.8943057,50.5218385" id="path2215" fill="#03A9F4" transform="translate(27.403846, 50.012966) rotate(-180.000000) translate(-27.403846, -50.012966) "></path>
                        <path d="M31.4253299,47.4099576 C31.5772644,47.7772359 31.9993779,47.9513138 32.3673234,47.7989955 C32.7346085,47.6473368 32.9096633,47.2266479 32.7577289,46.8593696 C32.6051339,46.4920912 32.1830204,46.3180134 31.8157354,46.4696721 C31.4477898,46.6219904 31.2727349,47.0426789 31.4253299,47.4099576" id="path2217" fill="#03A9F4" transform="translate(32.091346, 47.134522) rotate(-180.000000) translate(-32.091346, -47.134522) "></path>
                        <polyline id="path2741" fill="#FFFFFF" transform="translate(58.593750, 5.936791) rotate(-180.000000) translate(-58.593750, -5.936791) " points="59.4281145 5.1541536 64.5432692 5.93805528 59.3780654 6.76873819 58.5924829 11.8735818 57.760019 6.71942825 52.6442308 5.93552657 57.8094346 5.10484366 58.5950171 0 59.4281145 5.1541536"></polyline>
                    </g>
                    <g id="Group-3" transform="translate(518.500000, 270.000000) rotate(19.000000) translate(-518.500000, -270.000000) translate(433.000000, 192.000000)">
                        <g id="g2243" transform="translate(118.280000, 84.272201) rotate(-180.000000) translate(-118.280000, -84.272201) translate(75.280000, 54.772201)">
                            <g id="g2245-Clipped">
                                <g>
                                    <mask id="mask-28" fill="white">
                                        <use xlink:href="#path-27"></use>
                                    </mask>
                                    <g id="path-32"></g>
                                    <g id="g2245" mask="url(#mask-28)" fill="#01579B" fill-rule="nonzero">
                                        <path d="M70.2438433,58.9229753 C51.6728934,41.5311593 59.5311973,32.2874542 40.9639406,15.9993752 C36.9417125,12.4712661 6.75690062,6.62686374 0.0413672717,5.33954069 C0.625679986,3.54587549 1.47297035,0.941618712 1.47297035,0.941618712 C34.650261,-0.914228858 58.5095735,-5.00049874 85.0555429,46.8544141 C79.0631982,51.7231453 70.2438433,58.9229753 70.2438433,58.9229753" id="path2259"></path>
                                    </g>
                                </g>
                            </g>
                        </g>
                        <g id="g2263" transform="translate(104.320000, 98.575290) rotate(-180.000000) translate(-104.320000, -98.575290) translate(69.320000, 54.575290)">
                            <g id="g2265-Clipped">
                                <g>
                                    <mask id="mask-30" fill="white">
                                        <use xlink:href="#path-29"></use>
                                    </mask>
                                    <g id="path-34"></g>
                                    <g id="g2265" mask="url(#mask-30)" fill="#01579B" fill-rule="nonzero">
                                        <path d="M48.11998,87.4133345 C29.5916024,70.0675495 46.2074447,57.2025502 31.7488244,28.004723 C28.6342292,21.7150856 3.79411643,6.11539693 0.0368503927,4.35010487 C0.686154312,2.58407452 1.62878736,0.0206725961 1.62878736,0.0206725961 C31.1570071,5.92934355 62.673674,28.3960257 69.7725338,69.0088175 C64.4999796,74.8023125 48.11998,87.4133345 48.11998,87.4133345" id="path2279"></path>
                                    </g>
                                </g>
                            </g>
                        </g>
                        <path d="M138.042698,143.07717 L141.203941,141.564766 C141.260187,140.101298 141.789939,139.759448 141.953984,139.152923 C140.839234,138.723786 139.206513,139.830545 137.172682,140.43646 C137.172682,141.302275 138.042698,143.07717 138.042698,143.07717 Z" id="path1521" fill="#FFD8D8" fill-rule="nonzero" transform="translate(139.563333, 141.066829) rotate(134.000000) translate(-139.563333, -141.066829) "></path>
                        <path d="M137.218429,149.454743 C137.808723,149.025489 146.509239,145.895547 147.394308,145.289711 C148.300801,144.669838 148.16863,143.707321 147.208989,143.707321 C145.806096,143.707396 134.254908,144.217208 134.254908,144.217208 C134.020002,143.963094 133.830898,143.708238 133.830898,143.708238 L131.190593,143.708419 C130.403726,145.073683 130.615468,149.1693 132.437127,150.73828 C134.470957,150.132366 136.103679,149.025606 137.218429,149.454743 Z" id="path1523" fill="#01579B" fill-rule="nonzero" transform="translate(139.381987, 147.222801) rotate(134.000000) translate(-139.381987, -147.222801) "></path>
                        <path d="M160.167859,113.783432 L163.329179,112.271093 C163.385416,110.807665 163.915181,110.465829 164.079226,109.859321 C162.964442,109.430188 161.331683,110.536906 159.297801,111.142789 C159.297801,112.008581 160.167859,113.783432 160.167859,113.783432 Z" id="path1521" fill="#FFD8D8" fill-rule="nonzero" transform="translate(161.688514, 111.773158) rotate(122.000000) translate(-161.688514, -111.773158) "></path>
                        <path d="M160.627266,120.064174 C161.217573,119.634935 169.918309,116.50514 170.803398,115.899327 C171.709912,115.279477 171.577731,114.316979 170.618063,114.316979 C169.215131,114.316979 157.663627,114.826763 157.663627,114.826763 C157.428712,114.572654 157.239602,114.317804 157.239602,114.317804 L154.599223,114.317967 C153.812345,115.683188 154.02412,119.778692 155.845841,121.347642 C157.879723,120.741758 159.512482,119.63504 160.627266,120.064174 Z" id="path1523" fill="#01579B" fill-rule="nonzero" transform="translate(162.790854, 117.832311) rotate(122.000000) translate(-162.790854, -117.832311) "></path>
                        <path d="M29.2609574,58.0290739 C31.8052078,54.7038073 34.9071824,49.2546417 37.6165486,40.7516293 C40.4374597,31.8978475 48.2213833,30.4628807 48.2213833,30.4628807 C48.6837075,27.9281436 40.4440642,23.3770372 33.6464319,30.3331033 C27.3544208,36.7708015 26.5633329,44.0346255 25.2042467,46.8252095 C23.8451606,49.6157935 26.5317774,61.5953553 29.2609574,58.0290739" id="path2335" fill="#FF9800" fill-rule="nonzero" transform="translate(36.540000, 42.664575) rotate(-180.000000) translate(-36.540000, -42.664575) "></path>
                        <g id="g2339-Clipped" transform="translate(66.080000, 46.447876) rotate(-180.000000) translate(-66.080000, -46.447876) translate(41.080000, 19.447876)">
                            <g>
                                <mask id="mask-32" fill="white">
                                    <use xlink:href="#path-31"></use>
                                </mask>
                                <g id="path-36"></g>
                                <g id="g2339" mask="url(#mask-32)" fill="#FF9800" fill-rule="nonzero">
                                    <path d="M41.1694535,51.260267 C36.4716774,54.0122387 28.7400748,55.1603684 21.028422,46.43473 C12.4338118,36.7113916 0.0672377512,18.5064938 0.0672377512,18.5064938 C1.50213569,17.2919983 21.8781298,0.0368699324 21.8781298,0.0368699324 C27.2571499,4.59915535 40.8613417,18.7549972 46.0755925,28.4967707 C51.290582,38.2385443 48.8626344,42.688745 47.8474182,45.2814389 C45.3381941,48.6911701 41.1694535,51.260267 41.1694535,51.260267" id="path2353"></path>
                                </g>
                            </g>
                        </g>
                        <path d="M35.3045591,17.0139542 C35.0395057,15.3346251 34.5466253,12.8681795 32.8334565,11.3615604 C31.9415068,8.94288569 39.4538375,0.212579487 40.1321067,5.78927478 C40.2147497,6.47056057 41.0650057,8.01980592 41.5593749,8.52544195 C43.2554195,10.2606261 44.548672,6.94018475 47.0815712,9.78071285 C50.0351307,13.0930699 52.7683087,20.4931418 51.5375968,23.113189 C50.1609568,26.0448492 46.8894817,30.073769 40.4247079,28.4164881 C35.150441,27.0642056 35.842856,20.4292023 35.3045591,17.0139542" id="path2355" fill="#FFF3E0" fill-rule="nonzero" transform="translate(42.300000, 16.381757) rotate(-180.000000) translate(-42.300000, -16.381757) "></path>
                        <path d="M35.3108239,2.311203 C36.5575818,1.93795099 36.851111,5.40630069 37.9933546,5.92796305 C39.3424032,6.54386597 43.1301162,6.04594928 46.544246,4.6560864 C49.9583762,3.26622355 53.4629373,7.2428787 51.7521658,9.79627865 C50.0413947,12.3489365 47.2417485,10.2979056 45.7229575,11.3352939 C43.9499222,12.5463223 44.9735685,14.837778 41.9945433,15.4150942 C39.2415952,15.9486294 39.7508239,13.0984088 37.9170076,13.1399637 C36.0275984,13.1822606 34.1033515,16.2543547 31.1702831,14.1046309 C28.9947572,12.5099618 31.0531679,10.6303448 30.1510844,8.42274093 C29.5877455,7.0447509 24.8534751,3.84947621 28.1682797,0.982188379 C31.4853081,-1.88509944 31.7084199,2.27335836 31.9656286,3.94520086 C32.2228373,5.61704339 33.2553782,6.47337106 34.0707371,6.27746941 C34.8853548,6.08156776 33.5296353,2.84473818 35.3108239,2.311203" id="path2357" fill="#424242" fill-rule="nonzero" transform="translate(39.600000, 7.740830) rotate(-180.000000) translate(-39.600000, -7.740830) "></path>
                        <path d="M36.18,59.5709817 C28.4171535,59.5709817 22.1245935,65.8649567 22.1245935,73.6278958 C22.1245935,81.3923149 28.4171535,87.6848098 36.18,87.6848098 C43.9428467,87.6848098 50.2354066,81.3923149 50.2354066,73.6278958 C50.2354066,65.8649567 43.9428467,59.5709817 36.18,59.5709817 Z M72.2105294,70.3421521 C72.3089434,71.4240796 72.36,72.5208073 72.36,73.6278958 C72.36,74.7357241 72.3089434,75.830972 72.2105294,76.9143793 C72.1254348,77.8608805 71.3225858,78.5809321 70.3724864,78.5809321 L67.5332867,78.5809321 C66.6594025,78.5809321 65.9142698,79.1966389 65.7292817,80.0491563 C65.5243146,80.9993576 65.2756903,81.9325384 64.982669,82.8464784 C64.7177659,83.6782745 65.0551842,84.5825943 65.8114164,85.0184733 L68.2724999,86.4393354 C69.0953274,86.9151761 69.4297861,87.9416008 69.0302117,88.8037385 C68.1045304,90.806266 67.0012607,92.708889 65.7411206,94.4923669 C65.1928158,95.2671808 64.1383826,95.4906708 63.3162949,95.0155699 L60.8566914,93.5954477 C60.1004592,93.1588289 59.1488798,93.3179357 58.5620971,93.9639839 C57.9116786,94.678855 57.2287018,95.3619051 56.5139074,96.0116535 C55.8671886,96.599239 55.7080985,97.5509204 56.1446708,98.3064935 L57.5653806,100.767101 C58.0404305,101.590017 57.8177046,102.643823 57.0429738,103.191447 C55.2596872,104.452462 53.3565281,105.55585 51.3542153,106.482371 C50.4914303,106.881248 49.4658554,106.546753 48.9900658,105.723838 L47.569356,103.26323 C47.1327836,102.506917 46.2300412,102.169462 45.3983339,102.434394 C44.4837521,102.726707 43.5506713,102.975358 42.6005719,103.181086 C41.7474061,103.365355 41.1325052,104.111307 41.1325052,104.984545 L41.1325052,107.824049 C41.1325052,108.774251 40.4110512,109.576446 39.4661311,109.662289 C38.3835798,109.759974 37.2877096,109.811776 36.18,109.811776 C35.0722904,109.811776 33.9764201,109.759974 32.8931289,109.662289 C31.948209,109.576446 31.2274948,108.774251 31.2274948,107.824049 L31.2274948,104.984545 C31.2274948,104.111307 30.6125939,103.365355 29.7586882,103.181086 C28.8093286,102.975358 27.8762479,102.726707 26.962406,102.434394 C26.1314388,102.169462 25.2272163,102.506917 24.790644,103.26323 L23.3699343,105.723838 C22.8948845,106.546753 21.8678298,106.881248 21.0057846,106.482371 C19.0042119,105.55585 17.1010529,104.452462 15.3170263,103.191447 C14.5415556,102.643823 14.3203096,101.590017 14.7938795,100.767101 L16.2145892,98.3064935 C16.6511615,97.5509204 16.4920716,96.599239 15.8460926,96.0116535 C15.1312981,95.3619051 14.4483215,94.678855 13.7986428,93.9639839 C13.2118601,93.3179357 12.2602806,93.1588289 11.5033087,93.5954477 L9.04370508,95.0155699 C8.22161736,95.4906708 7.16792432,95.2671808 6.61887922,94.4923669 C5.35799938,92.708889 4.25546946,90.806266 3.32904837,88.8037385 C2.93021372,87.9416008 3.26467246,86.9151761 4.08750016,86.4393354 L6.54858371,85.0184733 C7.30407568,84.5825943 7.64223419,83.6782745 7.37659105,82.8464784 C7.08430964,81.9325384 6.83494549,80.9993576 6.62997852,80.0491563 C6.44573023,79.1966389 5.69985764,78.5809321 4.82745312,78.5809321 L1.98751365,78.5809321 C1.03741405,78.5809321 0.235305041,77.8608805 0.148730545,76.9143793 C0.0510567541,75.830972 -1.42108547e-14,74.7357241 -1.42108547e-14,73.6278958 C-1.42108547e-14,72.5208073 0.0510567541,71.4240796 0.148730545,70.3421521 C0.235305041,69.3956509 1.03741405,68.6748594 1.98751365,68.6748594 L4.82745312,68.6748594 C5.69985764,68.6748594 6.44573023,68.0598925 6.62997852,67.2066352 C6.83494549,66.2564339 7.08430964,65.3232531 7.37659105,64.4093131 C7.64223419,63.577517 7.30407568,62.6739374 6.54858371,62.2373182 L4.08750016,60.8164561 C3.26467246,60.3413556 2.93021372,59.3149306 3.32904837,58.452053 C4.25546946,56.4502654 5.35799938,54.5469025 6.61887922,52.7626844 C7.16792432,51.9878705 8.22161736,51.7666009 9.04370508,52.2402216 L11.5033087,53.6596036 C12.2602806,54.0969626 13.2118601,53.9378558 13.7986428,53.2918076 C14.4483215,52.5769365 15.1312981,51.8931465 15.8460926,51.2448783 C16.4920716,50.6580326 16.6511615,49.7048711 16.2145892,48.949298 L14.7938795,46.4886905 C14.3203096,45.6672545 14.5415556,44.6127086 15.3170263,44.0636047 C17.1010529,42.8033295 19.0042119,41.7006814 21.0057846,40.7741609 C21.8678298,40.3745436 22.8948845,40.7090382 23.3699343,41.5326942 L24.790644,43.9933014 C25.2272163,44.7488744 26.1314388,45.0863293 26.962406,44.8213977 C27.8762479,44.5290849 28.8093286,44.280434 29.7586882,44.074705 C30.6125939,43.8904369 31.2274948,43.1444844 31.2274948,42.2727262 L31.2274948,39.4317422 C31.2274948,38.4815409 31.948209,37.6786058 32.8931289,37.5942419 C33.9764201,37.4958178 35.0722904,37.4440154 36.18,37.4440154 C37.2877096,37.4440154 38.3835798,37.4958178 39.4661311,37.5942419 C40.4110512,37.6786058 41.1325052,38.4815409 41.1325052,39.4317422 L41.1325052,42.2727262 C41.1325052,43.1444844 41.7474061,43.8904369 42.6005719,44.074705 C43.5506713,44.280434 44.4837521,44.5290849 45.3983339,44.8213977 C46.2300412,45.0863293 47.1327836,44.7488744 47.569356,43.9933014 L48.9900658,41.5326942 C49.4658554,40.7090382 50.4914303,40.3745436 51.3542153,40.7741609 C53.3565281,41.7006814 55.2596872,42.8033295 57.0429738,44.0636047 C57.8177046,44.6127086 58.0404305,45.6672545 57.5653806,46.4886905 L56.1446708,48.949298 C55.7080985,49.7048711 55.8671886,50.6580326 56.5139074,51.2448783 C57.2287018,51.8931465 57.9116786,52.5769365 58.5620971,53.2918076 C59.1488798,53.9378558 60.1004592,54.0969626 60.8566914,53.6596036 L63.3162949,52.2402216 C64.1383826,51.7666009 65.1928158,51.9878705 65.7411206,52.7626844 C67.0012607,54.5469025 68.1045304,56.4502654 69.0302117,58.452053 C69.4297861,59.3149306 69.0953274,60.3413556 68.2724999,60.8164561 L65.8114164,62.2373182 C65.0551842,62.6739374 64.7177659,63.577517 64.982669,64.4093131 C65.2756903,65.3232531 65.5243146,66.2564339 65.7292817,67.2066352 C65.9142698,68.0598925 66.6594025,68.6748594 67.5332867,68.6748594 L70.3724864,68.6748594 C71.3225858,68.6748594 72.1254348,69.3956509 72.2105294,70.3421521 Z" id="path2359" stroke="url(#linearGradient-34)" stroke-width="4" fill="url(#linearGradient-33)" fill-rule="nonzero" transform="translate(36.180000, 73.627896) rotate(-180.000000) translate(-36.180000, -73.627896) "></path>
                        <path d="M36.266812,63.2658902 C30.5007664,63.2658902 25.8268122,67.9408954 25.8268122,73.7070099 C25.8268122,79.4742239 30.5007664,84.1481296 36.266812,84.1481296 C42.0328579,84.1481296 46.706812,79.4742239 46.706812,73.7070099 C46.706812,67.9408954 42.0328579,63.2658902 36.266812,63.2658902 Z M36.266812,93.8691721 C25.1333101,93.8691721 16.1068122,84.8421314 16.1068122,73.7067363 C16.1068122,62.5713412 25.1333101,53.5448478 36.266812,53.5448478 C47.4014093,53.5448478 56.426812,62.5713412 56.426812,73.7067363 C56.426812,84.8421314 47.4014093,93.8691721 36.266812,93.8691721" id="path2361" stroke="url(#linearGradient-36)" stroke-width="8" fill="url(#linearGradient-35)" fill-rule="nonzero" transform="translate(36.266812, 73.707010) rotate(-180.000000) translate(-36.266812, -73.707010) "></path>
                        <path d="M63.5764197,65.4200012 C63.0884084,69.0625295 64.6327865,74.8432727 66.8489249,80.4735104 C63.2468631,81.8517843 59.0273481,83.1351581 55.7429407,84.6090734 C53.1585619,78.5436303 51.3805928,71.3571812 53.4985333,63.7703727 C56.8417107,51.8011131 69.8573379,34.9237452 69.8573379,34.9237452 C71.3273241,36.0543895 73.08,37.2450876 73.08,37.2450876 C71.1220021,39.9334261 64.4371355,58.9994248 63.5764197,65.4200012" id="path2365" fill="#FFF3E0" fill-rule="nonzero" transform="translate(62.820000, 59.766409) rotate(-180.000000) translate(-62.820000, -59.766409) "></path>
                        <path d="M48.9630971,90.7297297 C49.604679,89.6655514 50.4603716,90.3434234 51.7847108,89.6001878 C53.0409243,88.8944077 54.7852493,89.2843861 54.7680308,88.8231687 C54.7515608,88.3626858 52.7227535,88.0388055 52.2481176,88.105638 C52.8649945,87.5386636 56.3117209,84.8888669 55.7352702,84.0530942 C55.265126,83.3693467 55.5323893,82.6525501 54.6265382,82.2831357 C53.7199383,81.913721 51.594557,81.981288 50.0598507,83.2834191 C48.5393681,84.5723307 47.5197242,85.4323398 47.0959952,86.4362952 C46.6490588,87.497536 45.72,88.4302528 45.72,88.4302528 C46.2388057,88.8136212 48.9630971,90.7297297 48.9630971,90.7297297" id="path2383" fill="#FFF3E0" fill-rule="nonzero" transform="translate(50.760000, 86.409266) rotate(-180.000000) translate(-50.760000, -86.409266) "></path>
                        <path d="M16.6390352,55.0794794 C15.8451864,55.010581 13.1604134,54.8515843 12.6424935,52.1933159 C12.1245736,49.5350476 16.4959063,50.024151 17.333284,50.1914757 C18.1706616,50.3595576 19.0065637,50.3694003 19.6617103,51.2764369 C20.3161191,52.1842304 18.5380749,55.2445326 16.6390352,55.0794794" id="path2385" fill="#FFF3E0" fill-rule="nonzero" transform="translate(16.200000, 52.565637) rotate(-180.000000) translate(-16.200000, -52.565637) "></path>
                        <g id="path1521-Clipped" transform="translate(61.560000, 126.013514)">
                            <mask id="mask-38" fill="white">
                                <use xlink:href="#path-37"></use>
                            </mask>
                            <g id="path-42"></g>
                            <path d="M98.2031191,-13.2542925 L102.23468,-13.1175002 C102.290876,-14.5808809 102.341748,-16.0045291 102.50578,-16.6110132 C101.39095,-17.0401662 100.158409,-15.8176532 98.1244825,-15.2118478 C98.1244825,-14.346083 98.2031191,-13.2542925 98.2031191,-13.2542925 Z" id="path1521" fill="#FFD8D8" fill-rule="nonzero" mask="url(#mask-38)" transform="translate(100.315131, -14.908967) rotate(104.000000) translate(-100.315131, 14.908967) "></path>
                        </g>
                        <g id="path1523-Clipped" transform="translate(61.560000, 126.013514)">
                            <mask id="mask-40" fill="white">
                                <use xlink:href="#path-39"></use>
                            </mask>
                            <g id="path-42"></g>
                            <path d="M101.803,-8.28704965 C102.393294,-8.71622639 111.094103,-11.845227 111.979177,-12.4509485 C112.885676,-13.0707051 112.753414,-14.0332983 111.793712,-14.0333108 C110.390728,-14.033329 98.8388426,-13.5245017 98.8388426,-13.5245017 C98.6038997,-13.7786195 98.4147623,-14.0335186 98.4147623,-14.0335186 L95.7742872,-14.0335186 C94.9874865,-12.6684091 95.1995905,-8.57303732 97.0215001,-7.00400231 C99.0554094,-7.60970497 100.688142,-8.71625463 101.803,-8.28704965 Z" id="path1523" fill="#01579B" fill-rule="nonzero" mask="url(#mask-40)" transform="translate(103.966331, -10.518760) rotate(83.000000) translate(-103.966331, 10.518760) "></path>
                        </g>
                    </g>
                </g>
            </g>
        </g>
    </g>
</svg>