<?xml version="1.0" encoding="UTF-8"?>
<svg width="338px" height="325px" viewBox="0 0 338 325" version="1.1" xmlns="http://www.w3.org/2000/svg" xmlns:xlink="http://www.w3.org/1999/xlink">
    <!-- Generator: Sketch 64 (93537) - https://sketch.com -->
    <title>Banner 2 Foreground</title>
    <desc>Created with Sketch.</desc>
    <defs>
        <linearGradient x1="19.4869717%" y1="56.3711322%" x2="99.9986193%" y2="56.3711322%" id="linearGradient-1">
            <stop stop-color="#FF9800" offset="0%"></stop>
            <stop stop-color="#FFE0B2" offset="100%"></stop>
        </linearGradient>
        <linearGradient x1="0%" y1="50.0040594%" x2="95.9352884%" y2="50.0040594%" id="linearGradient-2">
            <stop stop-color="#FF9800" offset="0%"></stop>
            <stop stop-color="#FFE0B2" offset="100%"></stop>
        </linearGradient>
        <linearGradient x1="0.00106597307%" y1="63.3386756%" x2="100.000959%" y2="63.3386756%" id="linearGradient-3">
            <stop stop-color="#FF9800" offset="0%"></stop>
            <stop stop-color="#FFE0B2" offset="100%"></stop>
        </linearGradient>
        <linearGradient x1="0%" y1="54.3755257%" x2="91.191731%" y2="54.3755257%" id="linearGradient-4">
            <stop stop-color="#FF9800" offset="0%"></stop>
            <stop stop-color="#FFE0B2" offset="100%"></stop>
        </linearGradient>
        <linearGradient x1="50%" y1="0%" x2="50%" y2="100%" id="linearGradient-5">
            <stop stop-color="#C5CAE9" offset="0%"></stop>
            <stop stop-color="#304FFE" offset="100%"></stop>
        </linearGradient>
        <linearGradient x1="50%" y1="0%" x2="50%" y2="100%" id="linearGradient-6">
            <stop stop-color="#304FFE" offset="0%"></stop>
            <stop stop-color="#1A237E" offset="100%"></stop>
        </linearGradient>
        <linearGradient x1="0.241287454%" y1="50%" x2="99.7933822%" y2="50%" id="linearGradient-7">
            <stop stop-color="#304FFE" offset="0%"></stop>
            <stop stop-color="#C5CAE9" offset="100%"></stop>
        </linearGradient>
        <linearGradient x1="-0.00068033513%" y1="50%" x2="99.6378012%" y2="50%" id="linearGradient-8">
            <stop stop-color="#0BABF4" stop-opacity="0.5" offset="0%"></stop>
            <stop stop-color="#B3E5FC" stop-opacity="0.5" offset="100%"></stop>
        </linearGradient>
        <linearGradient x1="0%" y1="49.9973702%" x2="99.9993254%" y2="49.9973702%" id="linearGradient-9">
            <stop stop-color="#FF9800" offset="0%"></stop>
            <stop stop-color="#FFE0B2" offset="100%"></stop>
        </linearGradient>
        <linearGradient x1="-0.000682850217%" y1="50.001705%" x2="100%" y2="50.001705%" id="linearGradient-10">
            <stop stop-color="#FF9800" offset="0%"></stop>
            <stop stop-color="#FFFFFF" offset="100%"></stop>
        </linearGradient>
    </defs>
    <g id="Landing" stroke="none" stroke-width="1" fill="none" fill-rule="evenodd">
        <g transform="translate(-1079.000000, -143.000000)" id="Banner">
            <g transform="translate(-50.000000, 0.000000)">
                <g id="Artwork" transform="translate(0.000000, 109.000000)">
                    <g id="Banner-2-Foreground" transform="translate(1129.000000, 34.000000)">
                        <g id="Group" transform="translate(192.000000, 190.000000)">
                            <path d="M138.158667,119.148577 L138.158667,120.568577 C137.444667,121.288577 138.158667,120.568577 138.158667,119.148577 Z" id="Path" fill="#4AF6D1"></path>
                            <path d="M45.0994586,21.3947055 C40.8198917,27.1033752 44.0800805,33.0112508 44.0800805,33.0112508 C44.0800805,33.0112508 41.2274153,32.1973527 36.9478484,32.6071476 C32.4639505,33.0112508 29.8150472,43.4041032 29.8150472,43.4041032 L35.1139922,56.0451357 L29,54.6165453 C30.6300944,99.6541363 58.7532065,129 58.7532065,129 C59.5688229,125.738716 59.7725847,122.887227 59.5688229,120.439841 C58.3456829,109.637194 48.3607857,104.338319 45.5069822,84.9812045 C38.7817046,39.3289212 66.0897696,50.5413633 65.8865769,32.1973527 C65.4790533,15.2819325 71.7968074,0.813898081 72,0 C61.60701,8.35526142 49.3795947,15.8966248 45.0994586,21.3947055 Z" id="Path" fill="#0BABF4"></path>
                            <path d="M0,95.0595063 C0,95.0595063 9.66307407,93.8366328 16.3058401,101.987227 C23.7537218,111.355007 33.8199159,125 39.4568497,125 C55.5619731,125 37.4434984,93.6375604 32.8135214,88.5413061 C22.7478895,77.7515803 0,95.0595063 0,95.0595063 Z" id="Path" fill="#0BABF4"></path>
                            <path d="M90.0358248,32.0889349 C90.0358248,32.0889349 89.8334531,27.4281602 93.4671237,20.9460633 C92.8616998,21.1496894 72.6769587,27.6317863 71.466111,30.0639867 C70.2546996,32.4905308 68.6407996,41.6084541 68.6407996,41.6084541 C68.6407996,41.6084541 64.402269,36.1388314 64.6035132,34.3175092 C64.8058849,32.4905308 32.5109755,70.1613555 54.9156041,121 L57.9432871,115.734003 C56.3282598,112.492955 48.4560585,89.40402 68.6407996,67.3275592 C74.8974099,60.4438665 88.4207975,56.39397 99.5219259,46.8744508 C110.623054,37.3549316 114.256725,36.5460835 130,9 C130,9 116.880228,17.5070451 105.980908,18.9211151 C95.2833952,20.3408414 90.0358248,32.0889349 90.0358248,32.0889349 Z" id="Path" fill="#0BABF4"></path>
                            <path d="M115.834484,100.780526 C76.7606703,88.3070734 47,121.843756 47,121.843756 L55.0980416,129 C57.730103,117.96008 85.8713911,104.258701 106.116495,104.258701 C129.601494,104.258701 146,124.505216 146,124.505216 C139.116495,110.392624 123.122269,103.030774 115.834484,100.780526 Z" id="Path" fill="#0BABF4"></path>
                            <path d="M59.0493882,30.7143195 C55.0032049,46.9831953 39.2202649,44.7450888 40.0300666,69.1540828 C40.636429,88.4733728 50.5518383,111.257751 56.2170599,120 C55.0032049,109.224142 48.5281816,104.134438 45.6952882,84.8151479 C39.0185208,39.252071 66.1319041,50.4426036 65.9290298,32.1344379 C65.5249766,15.252071 71.7971257,0.812307692 72,0 C71.5953817,0.812307692 62.4897741,16.6778698 59.0493882,30.7143195 Z" id="Path" fill="#B0E4FB"></path>
                            <path d="M110.30503,112.45744 C76.5994727,101.798667 50,129.264184 50,129.264184 L54.8734889,135 L57.7156958,135 C63.8078404,124.959459 88.1730163,115.531425 105.229093,117.168595 C123.706273,119.011841 123.908721,127.415213 123.706273,129.470261 C125.736988,120.448657 116.802637,114.707117 110.30503,112.45744 Z" id="Path" fill="#B0E4FB"></path>
                            <path d="M68.8705418,75.046127 C63.1710885,81.7905018 32.4394,130.005363 52.9954016,128.984007 C59.9152325,128.573182 81.4886891,103.649808 90.646921,91.1881203 C98.3807159,80.3583207 111,81.3796769 111,81.3796769 C111,81.3796769 80.8782161,60.7471397 68.8705418,75.046127 Z" id="Path" fill="#0BABF4"></path>
                            <path d="M28,115 C33.0429534,121.06488 31.4297718,132.173484 28,135 L50.9986849,135 C51.2009665,122.475317 28,115 28,115 Z" id="Path" fill="#03A9F4"></path>
                            <path d="M110.233551,63.9691293 C97.7938023,58.7386322 91.4716922,65.583272 91.4716922,65.583272 C76.9923514,59.7453623 67,76.8597739 67,76.8597739 C67,76.8597739 83.9261683,71.0218642 92.0833991,82.5008369 C100.241199,93.9798097 116.147856,97 116.147856,97 C123.897282,85.3185564 122.673869,69.2052506 110.233551,63.9691293 Z" id="Path" fill="#B0E4FB"></path>
                            <path d="M109.426179,63.9691293 C97.2089976,58.7386322 91,65.583272 91,65.583272 C91,65.583272 105.220283,64.9814836 115.234669,97 C122.845445,85.3185564 121.643921,69.2052506 109.426179,63.9691293 Z" id="Path" fill="#0BABF4"></path>
                            <path d="M94.2406373,37.1278833 C76.4619552,41.7791286 53.8341825,43.4011303 55.0467373,95 C56.0572936,86.7034895 59.491831,76.7906289 68.5828884,67.27903 C74.8454036,60.5988697 88.3815547,56.3488861 99.4931605,46.8372872 C110.604766,37.3313399 114.241866,36.5175133 130,9 C129.192006,10.2150884 113.433308,32.0697247 94.2406373,37.1278833 Z" id="Path" fill="#B0E4FB"></path>
                        </g>
                        <g id="Group" transform="translate(0.000000, 210.000000)">
                            <path d="M124.383357,72.863341 C94.0233485,63.2668511 71.0555597,89.123026 71.0555597,89.123026 L77.3912217,94.7215989 C79.5036006,86.1897312 101.150876,75.5286191 116.9904,75.5286191 C135.206995,75.5286191 147.879057,91.2597154 147.879057,91.2597154 C142.334523,80.3305865 129.926417,74.7320136 124.383357,72.863341 Z" id="Path" fill="#E65100"></path>
                            <path d="M87.6876864,52.3377222 C83.1997107,57.6682783 60.2319219,98.458944 76.0714458,98.458944 C81.351287,98.458944 93.4954381,76.5932413 100.359748,66.7361795 C106.430717,58.4723287 113.295027,58.4723287 113.295027,58.4723287 C113.295027,58.4723287 97.1915481,41.4085933 87.6876864,52.3377222 Z" id="Path" fill="url(#linearGradient-1)"></path>
                            <path d="M76.5993561,37.9467098 L78.711735,27.5461696 C78.711735,27.5461696 75.2788429,19.8183523 71.8474253,20.3543859 C68.4152704,20.6149577 66.3028915,21.67958 66.3028915,21.67958 C66.3028915,21.67958 68.1520525,16.6170407 63.9272947,12.8871404 C59.9672294,9.15724016 49.6722394,5.15932312 40.6962881,0.0893389284 C40.9595059,0.625372499 47.824553,11.0184678 49.6722394,23.8162693 C52.0478362,37.9467098 71.0555597,25.4169251 72.376073,61.4056235 C72.9032461,76.5932413 66.0396736,82.1918141 66.567584,90.455665 C66.8322765,92.3243376 67.3594496,94.4535821 68.4152704,96.8582882 C68.4152704,96.8582882 85.84,70.4660798 80.8241139,35.8100205 L76.5993561,37.9467098 Z" id="Path" fill="#FFE0B2"></path>
                            <path d="M40.9595059,69.6694743 C40.9595059,69.6694743 48.0877709,64.3314734 51.5199258,72.3347524 C57.8555879,86.7257648 62.6075187,98.458944 67.3594496,98.458944 C81.0873318,98.458944 67.88736,67.532785 63.9272947,63.2668511 C55.4799911,53.938378 40.9595059,69.6694743 40.9595059,69.6694743 Z" id="Path" fill="#E65100"></path>
                            <path d="M53.3676122,28.0822032 C53.6315674,29.4148422 51.2559706,34.2093647 51.2559706,34.2093647 C51.2559706,34.2093647 48.8796365,27.2781528 47.5598605,25.6849419 C46.2393472,24.0842861 30.1366055,21.67958 29.6079578,21.67958 C33.3048052,26.2135306 33.8327156,29.9508758 33.8327156,29.9508758 C33.8327156,29.9508758 28.2874445,21.67958 19.8401409,21.9475967 C11.3920999,22.4836303 0.0405517763,17.6816629 0.0405517763,17.6816629 C15.8800756,36.6140708 18.7835828,36.8746427 28.552137,42.4732156 C38.319954,48.3398052 49.144329,49.6724442 54.9513434,53.938378 C63.1354291,60.0655395 67.0954944,67.2647682 69.2078733,73.3993746 C71.0555597,78.9979475 71.0555597,84.0604867 70.7908672,86.9937815 C70.7908672,88.3264206 70.5276493,89.123026 70.5276493,89.3910428 C70.5276493,88.8624541 70.7908672,88.3264206 70.7908672,88.0584038 C80.5594214,45.9425439 53.103657,26.7495642 53.3676122,28.0822032 Z" id="Path" fill="#FFE0B2"></path>
                            <path d="M55.2160359,21.67958 C50.7280602,11.5545014 41.7513715,0.625372499 41.2241984,0.0893389284 C41.4881536,0.625372499 48.3517261,11.0184678 50.2001498,23.8162693 C52.5757466,37.9467098 71.5834701,25.4169251 72.9032461,61.4056235 C73.4311565,76.5932413 69.9997389,83.5244532 70.5276493,91.788304 C73.695849,84.3285035 77.1272665,63.2668511 75.015625,48.3398052 C72.376073,29.682859 60.4958771,33.680776 55.2160359,21.67958 Z" id="Path" fill="url(#linearGradient-2)"></path>
                            <path d="M123.326799,83.7924699 C96.9268556,71.530702 73.4311565,95.2576324 73.4311565,95.2576324 L78.1838246,99.791583 C82.9350182,92.0563208 102.9993,84.8570922 116.199272,85.9291593 C132.566706,87.5298151 142.598478,104.318089 142.598478,104.318089 C138.903105,92.8603712 128.343423,86.1897312 123.326799,83.7924699 Z" id="Path" fill="url(#linearGradient-3)"></path>
                            <path d="M54.423433,87.5298151 C59.7040115,91.2597154 61.0237875,96.5902714 55.4799911,99.791583 L74.4877146,99.791583 C68.1520525,79.2659642 54.423433,87.5298151 54.423433,87.5298151 Z" id="Path" fill="#E65100"></path>
                            <path d="M48.3517261,82.1918141 C47.5598605,81.6632255 37.000178,79.5265361 30.1366055,84.3285035 C21.4238721,89.9270764 20.1040961,100.588188 25.3839373,112.053351 C25.3839373,112.053351 40.1683777,105.650728 49.4075469,92.3243376 C58.119543,79.7945529 73.1679386,91.5277322 74.2237594,99.791583 L78.1838246,99.791583 C76.8640486,95.7862211 68.6799629,77.6653084 48.3517261,82.1918141 Z" id="Path" fill="#FF9800"></path>
                            <path d="M30.1366055,84.0604867 C21.4238721,89.6590596 20.1040961,100.320172 25.3839373,111.785334 C25.9118477,106.983367 24.8560269,98.9875327 30.9277338,90.1876482 C33.5680231,86.1897312 40.1683777,82.7278477 47.5598605,81.6632255 C44.9195712,81.1271919 37.2633959,79.5265361 30.1366055,84.0604867 Z" id="Path" fill="#FFE0B2"></path>
                            <path d="M48.0877709,56.8716728 C48.0877709,56.8716728 43.5997952,52.3377222 35.4157095,56.3356393 C27.2316237,60.3335563 26.9684058,71.2626852 32.5122023,78.9979475 C32.5122023,78.9979475 43.0718848,76.3326694 48.0877709,68.3368353 C53.103657,60.3335563 64.7198976,63.8028847 64.7198976,63.8028847 C64.7198976,63.8028847 59.9672294,53.1417726 48.0877709,56.8716728 Z" id="Path" fill="#FF9800"></path>
                            <path d="M35.4157095,56.3356393 C27.2316237,60.3335563 26.9684058,71.2626852 32.5122023,78.9979475 C38.319954,56.8716728 48.0877709,56.8716728 48.0877709,56.8716728 C48.0877709,56.8716728 43.5997952,52.3377222 35.4157095,56.3356393 Z" id="Path" fill="#FFE0B2"></path>
                            <path d="M119.630689,43.8058546 C109.86361,39.5473656 105.110941,45.1384936 105.110941,45.1384936 C105.110941,45.1384936 116.199272,44.6099049 124.118665,69.9300462 C130.191109,60.6015731 129.399243,48.0717884 119.630689,43.8058546 Z" id="Path" fill="url(#linearGradient-4)"></path>
                            <path d="M31.1924263,34.7453982 C15.8800756,33.4127592 0.832417371,18.7537301 0.0405517763,17.9496797 C15.8800756,36.8746427 18.7835828,37.1426595 28.552137,42.7412323 C38.319954,48.607822 49.144329,49.940461 54.9513434,54.2063948 C63.1354291,60.3335563 67.0954944,67.532785 69.2078733,73.6673914 C62.8722112,33.9487928 45.4474816,35.8100205 31.1924263,34.7453982 Z" id="Path" fill="#FF9800"></path>
                        </g>
                        <g id="Group" transform="translate(60.000000, 0.000000)">
                            <path d="M206.163792,16.1736774 L196.634437,6.92419418 L189.223127,10.6225111 L70.1047085,10.3567638 C57.6640577,10.3567638 46.2820598,19.0821343 44.9587436,29.9187196 L11.0759348,304.273305 L11.0759348,305.063165 L10.2812058,304.797418 L6.57592042,309.292976 L15.8406124,318.54246 C19.546637,322.248159 24.8399018,324.359373 31.1932981,324.359373 L152.16362,324.625121 C164.60427,324.625121 175.986268,315.89975 177.310324,305.063165 L211.193133,30.7085797 C211.987122,24.8916661 209.869077,19.8719944 206.163792,16.1736774 Z" id="Path" fill="url(#linearGradient-5)"></path>
                            <path d="M138.13425,316.696992 C137.34026,316.696992 137.34026,317.221105 137.869587,317.7526 C138.399653,318.284094 139.722969,318.808207 140.516219,318.808207 C141.310948,318.808207 141.310948,318.284094 140.781622,317.7526 C139.986893,317.221105 138.92824,316.696992 138.13425,316.696992 Z M133.899638,316.696992 C133.104909,316.696992 133.104909,317.221105 133.634236,317.7526 C134.163562,318.284094 135.486878,318.808207 136.281607,318.808207 C137.075597,318.808207 137.075597,318.284094 136.54701,317.7526 C136.016205,317.221105 134.692889,316.696992 133.899638,316.696992 Z M129.398885,316.696992 C128.604895,316.696992 128.604895,317.221105 129.134221,317.7526 C129.663548,318.284094 130.986864,318.808207 131.781593,318.808207 C132.575583,318.808207 132.575583,318.284094 132.046256,317.7526 C131.516191,317.221105 130.193614,316.696992 129.398885,316.696992 Z M125.163534,316.696992 C124.370283,316.696992 124.370283,317.221105 124.89961,317.7526 C125.428197,318.284094 126.752252,318.808207 127.546242,318.808207 C128.339492,318.808207 128.339492,318.284094 127.810905,317.7526 C127.016916,317.221105 125.957523,316.696992 125.163534,316.696992 Z M120.928182,316.696992 C120.134193,316.696992 120.134193,317.221105 120.664259,317.7526 C121.193585,318.284094 122.516901,318.808207 123.310152,318.808207 C124.104881,318.808207 124.104881,318.284094 123.575554,317.7526 C123.046228,317.221105 121.457509,316.696992 120.928182,316.696992 Z M116.428168,316.696992 C115.634178,316.696992 115.634178,317.221105 116.164244,317.7526 C116.693571,318.284094 118.016887,318.808207 118.810137,318.808207 C119.604866,318.808207 119.604866,318.284094 119.07554,317.7526 C118.28155,317.221105 117.222897,316.696992 116.428168,316.696992 Z M112.193556,316.696992 C111.398827,316.696992 111.398827,317.221105 111.928154,317.7526 C112.45748,318.284094 113.780796,318.808207 114.575525,318.808207 C115.369515,318.808207 115.369515,318.284094 114.840928,317.7526 C114.046199,317.221105 112.987546,316.696992 112.193556,316.696992 Z M141.575612,320.129562 C140.781622,320.129562 140.781622,320.661056 141.310948,321.185169 C141.840275,321.716664 143.163591,322.248159 143.95832,322.248159 C144.75231,322.248159 144.75231,321.716664 144.222244,321.185169 C143.692917,320.661056 142.369601,320.129562 141.575612,320.129562 Z M137.34026,320.129562 C136.54701,320.129562 136.54701,320.661056 137.075597,321.185169 C137.604924,321.716664 138.92824,322.248159 139.722969,322.248159 C140.516219,322.248159 140.516219,321.716664 139.986893,321.185169 C139.192903,320.661056 138.13425,320.129562 137.34026,320.129562 Z M133.104909,320.129562 C132.31092,320.129562 132.31092,320.661056 132.839507,321.185169 C133.370312,321.716664 134.692889,322.248159 135.486878,322.248159 C136.281607,322.248159 136.281607,321.716664 135.752281,321.185169 C134.957552,320.661056 133.899638,320.129562 133.104909,320.129562 Z M128.604895,320.129562 C127.810905,320.129562 127.810905,320.661056 128.339492,321.185169 C128.870297,321.716664 130.193614,322.248159 130.986864,322.248159 C131.781593,322.248159 131.781593,321.716664 131.252267,321.185169 C130.457538,320.661056 129.398885,320.129562 128.604895,320.129562 Z M124.370283,320.129562 C123.575554,320.129562 123.575554,320.661056 124.104881,321.185169 C124.634207,321.716664 125.957523,322.248159 126.752252,322.248159 C127.546242,322.248159 127.546242,321.716664 127.016916,321.185169 C126.222926,320.661056 125.163534,320.129562 124.370283,320.129562 Z M119.86953,320.129562 C119.07554,320.129562 119.07554,320.661056 119.604866,321.185169 C120.134193,321.716664 121.457509,322.248159 122.252238,322.248159 C123.046228,322.248159 123.046228,321.716664 122.516901,321.185169 C121.986835,320.661056 120.664259,320.129562 119.86953,320.129562 Z M115.634178,320.129562 C114.840928,320.129562 114.840928,320.661056 115.369515,321.185169 C115.898842,321.716664 117.222897,322.248159 118.016887,322.248159 C118.810137,322.248159 118.810137,321.716664 118.28155,321.185169 C117.48756,320.661056 116.428168,320.129562 115.634178,320.129562 Z M107.958205,316.696992 C107.164215,316.696992 107.164215,317.221105 107.693542,317.7526 C108.222868,318.284094 109.546185,318.808207 110.340914,318.808207 C111.134903,318.808207 111.134903,318.284094 110.604838,317.7526 C109.810848,317.221105 108.751456,316.696992 107.958205,316.696992 Z M111.398827,320.129562 C110.604838,320.129562 110.604838,320.661056 111.134903,321.185169 C111.66423,321.716664 112.987546,322.248159 113.780796,322.248159 C114.575525,322.248159 114.575525,321.716664 114.046199,321.185169 C113.516872,320.661056 112.193556,320.129562 111.398827,320.129562 Z M103.722115,316.696992 C102.928125,316.696992 102.928125,317.221105 103.458191,317.7526 C103.987517,318.284094 105.310834,318.808207 106.104823,318.808207 C106.898813,318.808207 106.898813,318.284094 106.369486,317.7526 C105.84016,317.221105 104.516844,316.696992 103.722115,316.696992 Z M107.428139,320.129562 C106.634889,320.129562 106.634889,320.661056 107.164215,321.185169 C107.693542,321.716664 109.016858,322.248159 109.810848,322.248159 C110.604838,322.248159 110.604838,321.716664 110.075511,321.185169 C109.280782,320.661056 108.222868,320.129562 107.428139,320.129562 Z M58.1933841,316.431245 C57.3993944,316.431245 57.3993944,316.96274 57.9287209,317.486852 C58.4573081,318.018347 59.7813636,318.54246 60.5753533,318.54246 C61.3700823,318.54246 61.3700823,318.018347 60.8407558,317.486852 C60.0467661,316.96274 58.9881131,316.431245 58.1933841,316.431245 Z M53.6933698,316.431245 C52.8993801,316.431245 52.8993801,316.96274 53.4279673,317.486852 C53.9587723,318.018347 55.2813492,318.54246 56.0753389,318.54246 C56.8700679,318.54246 56.8700679,318.018347 56.3407415,317.486852 C55.811415,316.96274 54.4880988,316.431245 53.6933698,316.431245 Z M49.458758,316.431245 C48.664029,316.431245 48.664029,316.96274 49.1933554,317.486852 C49.7226819,318.018347 51.0459981,318.54246 51.8407271,318.54246 C52.6347168,318.54246 52.6347168,318.018347 52.1046511,317.486852 C51.3114006,316.96274 50.2520084,316.431245 49.458758,316.431245 Z M45.2226676,316.431245 C44.4294171,316.431245 44.4294171,316.96274 44.9587436,317.486852 C45.4873308,318.018347 46.8113863,318.54246 47.605376,318.54246 C48.3993657,318.54246 48.3993657,318.018347 47.8700393,317.486852 C47.0753103,316.96274 45.7519941,316.431245 45.2226676,316.431245 Z M40.7226532,316.431245 C39.9294028,316.431245 39.9294028,316.96274 40.4587293,317.486852 C40.9873165,318.018347 42.311372,318.54246 43.1053617,318.54246 C43.8993514,318.54246 43.8993514,318.018347 43.3692856,317.486852 C42.5752959,316.96274 41.516643,316.431245 40.7226532,316.431245 Z M36.4873021,316.431245 C35.6933124,316.431245 35.6933124,316.96274 36.2226389,317.486852 C36.7527047,318.018347 38.0760208,318.54246 38.8700106,318.54246 C39.6640003,318.54246 39.6640003,318.018347 39.1346738,317.486852 C38.3406841,316.96274 37.2820311,316.431245 36.4873021,316.431245 Z M31.9872878,316.431245 C31.1932981,316.431245 31.1932981,316.96274 31.7233638,317.486852 C32.2526903,318.018347 33.5760065,318.54246 34.3699962,318.54246 C35.1639859,318.54246 35.1639859,318.018347 34.6346595,317.486852 C34.105333,316.96274 32.7820168,316.431245 31.9872878,316.431245 Z M61.6340062,319.871196 C60.8407558,319.871196 60.8407558,320.395309 61.3700823,320.926804 C61.8994088,321.450917 63.222725,321.982411 64.017454,321.982411 C64.8107044,321.982411 64.8107044,321.450917 64.2813779,320.926804 C63.4881275,320.395309 62.4287352,319.871196 61.6340062,319.871196 Z M57.3993944,319.871196 C56.6046654,319.871196 56.6046654,320.395309 57.1347312,320.926804 C57.6640577,321.450917 58.9881131,321.982411 59.7813636,321.982411 C60.5753533,321.982411 60.5753533,321.450917 60.0467661,320.926804 C59.2520371,320.395309 57.9287209,319.871196 57.3993944,319.871196 Z M52.8993801,319.871196 C52.1046511,319.871196 52.1046511,320.395309 52.6347168,320.926804 C53.1640433,321.450917 54.4880988,321.982411 55.2813492,321.982411 C56.0753389,321.982411 56.0753389,321.450917 55.5460125,320.926804 C54.7520228,320.395309 53.6933698,319.871196 52.8993801,319.871196 Z M48.664029,319.871196 C47.8700393,319.871196 47.8700393,320.395309 48.3993657,320.926804 C48.9279529,321.450917 50.2520084,321.982411 51.0459981,321.982411 C51.8407271,321.982411 51.8407271,321.450917 51.3114006,320.926804 C50.5174109,320.395309 49.458758,319.871196 48.664029,319.871196 Z M44.1640146,319.871196 C43.3692856,319.871196 43.3692856,320.395309 43.8993514,320.926804 C44.4294171,321.450917 45.7519941,321.982411 46.5459838,321.982411 C47.3407128,321.982411 47.3407128,321.450917 46.8113863,320.926804 C46.2820598,320.395309 44.9587436,319.871196 44.1640146,319.871196 Z M39.9294028,319.871196 C39.1346738,319.871196 39.1346738,320.395309 39.6640003,320.926804 C40.1933268,321.450917 41.516643,321.982411 42.311372,321.982411 C43.1053617,321.982411 43.1053617,321.450917 42.5752959,320.926804 C41.7820455,320.395309 40.7226532,319.871196 39.9294028,319.871196 Z M35.6933124,319.871196 C34.900062,319.871196 34.900062,320.395309 35.4286492,320.926804 C35.9579757,321.450917 37.2820311,321.982411 38.0760208,321.982411 C38.8700106,321.982411 38.8700106,321.450917 38.3406841,320.926804 C37.5459551,320.395309 36.4873021,319.871196 35.6933124,319.871196 Z M28.0165999,316.431245 C27.2233495,316.431245 27.2233495,316.96274 27.752676,317.486852 C28.2820024,318.018347 29.6053186,318.54246 30.4000476,318.54246 C31.1932981,318.54246 31.1932981,318.018347 30.6639716,317.486852 C29.8692426,316.96274 28.8113289,316.431245 28.0165999,316.431245 Z M31.4579613,319.871196 C30.6639716,319.871196 30.6639716,320.395309 31.1932981,320.926804 C31.7233638,321.450917 33.0459407,321.982411 33.8399305,321.982411 C34.6346595,321.982411 34.6346595,321.450917 34.105333,320.926804 C33.310604,320.395309 32.2526903,319.871196 31.4579613,319.871196 Z M23.7812488,316.431245 C22.9872591,316.431245 22.9872591,316.96274 23.5165856,317.486852 C24.0466513,318.018347 25.3707068,318.54246 26.1639572,318.54246 C26.957947,318.54246 26.957947,318.018347 26.4286205,317.486852 C25.899294,316.96274 24.5759778,316.431245 23.7812488,316.431245 Z M27.2233495,319.871196 C26.4286205,319.871196 26.4286205,320.395309 26.957947,320.926804 C27.4872734,321.450917 28.8113289,321.982411 29.6053186,321.982411 C30.4000476,321.982411 30.4000476,321.450917 29.8692426,320.926804 C29.0759922,320.395309 28.0165999,319.871196 27.2233495,319.871196 Z M93.6641724,317.221105 C93.3987699,316.96274 93.134846,316.96274 92.8694434,316.96274 L73.0174827,316.96274 C72.4866776,316.96274 72.2227537,317.7526 72.7520801,318.284094 L75.3994518,321.450917 C75.6633758,321.716664 75.9287783,321.716664 76.1934415,321.716664 L96.0461416,321.716664 C96.5754681,321.716664 96.8401313,320.926804 96.3108048,320.395309 L93.6641724,317.221105 Z" id="Shape" fill="#1A237E"></path>
                            <path d="M181.017088,0.841533194 L59.7813636,0.57578587 C47.3407128,0.57578587 35.9579757,9.30115636 34.6346595,20.1377417 L0.751850598,294.22658 C-0.571465597,305.063165 8.4285631,314.054283 20.8706925,314.054283 L141.840275,314.32003 C154.281665,314.32003 165.663663,305.59466 166.987718,294.758074 L200.869048,20.403489 C202.457767,9.56690368 193.457738,0.841533194 181.017088,0.841533194 Z" id="Path" fill="url(#linearGradient-6)"></path>
                            <path d="M93.134846,4.53985013 C91.0168008,6.12695221 90.4874743,8.50391439 92.076193,9.82526914 C93.6641724,11.1466239 96.0461416,10.8882584 98.1641868,9.30115636 C100.281493,7.71405428 100.811558,5.3370921 99.2221005,4.01573735 C97.8987843,2.6943826 95.2528912,2.95274805 93.134846,4.53985013 Z" id="Path" fill="#03A9F4"></path>
                            <path d="M93.9288357,5.3370921 C92.340117,6.65844685 92.076193,8.24554893 92.8694434,9.30115636 C93.9288357,10.3567638 95.7814783,10.0910165 97.3694578,8.76966171 C98.9581765,7.44830696 99.2221005,5.86120488 98.42885,4.80559745 C97.3694578,3.74999002 95.5168151,4.01573735 93.9288357,5.3370921 Z" id="Path" fill="#1A237E"></path>
                            <path d="M135.222955,4.53985013 L106.898813,4.53985013 C106.104823,4.53985013 105.310834,4.80559745 104.516844,5.3370921 C103.193528,6.39269953 102.928125,7.71405428 103.722115,8.50391439 C103.987517,8.76966171 104.251441,8.76966171 104.516844,9.03540904 L132.839507,9.03540904 C133.634236,9.03540904 134.428965,8.76966171 135.222955,8.24554893 C136.016205,7.71405428 136.546271,6.65844685 136.546271,6.12695221 C136.546271,5.60283943 136.281607,5.3370921 136.016205,5.07134478 C136.016205,4.53985013 135.752281,4.53985013 135.222955,4.53985013 Z" id="Path" fill="#0BABF4"></path>
                            <path d="M109.280782,5.86120488 C108.487532,5.86120488 107.693542,6.12695221 106.898813,6.65844685 C106.104823,7.18255963 105.575497,7.97980161 105.575497,8.76966171 L132.839507,8.76966171 C133.634236,8.76966171 134.428965,8.50391439 135.222955,7.97980161 C136.016205,7.44830696 136.546271,6.39269953 136.546271,5.86120488 L109.280782,5.86120488 Z" id="Path" fill="#03A9F4"></path>
                            <path d="M93.6641724,6.39269953 C93.134846,6.92419418 92.8694434,7.71405428 93.134846,7.97980161 C93.3987699,8.24554893 94.4581622,8.24554893 94.9874886,7.71405428 C95.5168151,7.18255963 95.7814783,6.39269953 95.5168151,6.12695221 C95.2528912,5.86120488 94.4581622,5.86120488 93.6641724,6.39269953 Z M96.4449438,5.75448871 C96.08543,6.20943658 95.7259161,7.14532933 96.08543,7.14532933 C96.4449438,7.61327571 97.1639715,7.61327571 97.5244896,7.14532933 C97.8829992,6.67738296 98.2435173,5.75448871 97.8829992,5.75448871 C97.5244896,5.28654234 96.8044577,5.28654234 96.4449438,5.75448871 Z" id="Shape" fill="#B0E4FB"></path>
                            <path d="M180.487022,12.9994733 C180.487022,12.9994733 56.3407415,12.9994733 55.016686,13.2652206 C46.8113863,14.8523227 39.6640003,21.1933491 38.8692713,28.5973649 L6.04659394,295.547934 C5.51726747,300.309241 8.16463914,304.007557 8.4285631,304.539052 C11.0759348,308.237369 16.1052756,309.558724 20.8706925,309.558724 L141.575612,309.558724 C151.634293,309.558724 161.163648,302.420455 162.222301,293.702467 L195.310381,26.7445155 C195.839708,23.3119459 194.781794,20.1377417 192.663749,17.7607795 C189.751714,14.5865754 185.2517,12.9994733 180.487022,12.9994733 Z" id="Path" fill="url(#linearGradient-7)"></path>
                            <path d="M19.8105609,282.865881 L54.2226963,282.865881 L55.016686,276.251726 L20.6052899,276.517473 L19.8105609,282.865881 Z M59.7813636,282.865881 L78.57615,282.865881 L79.3701397,276.251726 L60.5753533,276.251726 L59.7813636,282.865881 Z M73.8107331,268.05785 L100.811558,268.05785 L101.605548,261.451076 L74.8701253,261.451076 L73.8107331,268.05785 Z M60.3114293,268.05785 L68.7813923,268.05785 L69.5761213,261.451076 L61.1046798,261.451076 L60.3114293,268.05785 Z M47.0753103,268.05785 L55.5460125,268.05785 L56.3407415,261.451076 L47.8700393,261.451076 L47.0753103,268.05785 Z M21.6639429,268.05785 L39.9294028,268.05785 L40.7226532,261.451076 L22.4579326,261.451076 L21.6639429,268.05785 Z M23.5165856,252.998835 L50.2520084,252.998835 L51.0459981,246.384679 L24.3113146,246.384679 L23.5165856,252.998835 Z M42.0459694,238.190803 L61.8994088,237.932438 L62.9573224,231.58403 L42.8406984,231.58403 L42.0459694,238.190803 Z M70.8994375,223.131788 L97.6348603,222.866041 L98.6935133,216.517633 L71.6941665,216.517633 L70.8994375,223.131788 Z M78.8400739,208.065391 L105.310834,208.065391 L106.369486,201.451236 L79.6348029,201.451236 L78.8400739,208.065391 Z M65.0753676,208.065391 L73.5468091,208.065391 L74.3400596,201.451236 L65.8700966,201.451236 L65.0753676,208.065391 Z M67.1934128,192.998994 L79.6348029,192.998994 L80.4287926,186.392221 L67.9874026,186.392221 L67.1934128,192.998994 Z M84.928807,192.998994 L94.1927596,192.998994 L94.9874886,186.392221 L85.723536,186.392221 L84.928807,192.998994 Z M82.8107618,178.198345 L109.280782,177.932598 L110.075511,171.584189 L83.6054908,171.584189 L82.8107618,178.198345 Z M69.0467948,178.198345 L77.5167577,178.198345 L78.3107474,171.584189 L69.8407845,171.584189 L69.0467948,178.198345 Z M97.8987843,162.068959 L107.164215,162.068959 L107.958205,155.462185 L98.6935133,155.462185 L97.8987843,162.068959 Z M84.134078,162.068959 L92.6055195,162.068959 L93.3987699,155.462185 L84.928807,155.462185 L84.134078,162.068959 Z M70.8994375,162.068959 L79.3701397,162.068959 L80.1633901,155.462185 L71.9580904,155.462185 L70.8994375,162.068959 Z M53.1640433,147.002562 L61.6340062,147.002562 L62.4287352,140.395788 L54.2226963,140.395788 L53.1640433,147.002562 Z M122.252238,87.0101032 L136.016205,87.0101032 L136.810934,80.6616949 L123.046228,80.6616949 L122.252238,87.0101032 Z M66.9287496,57.1430567 L93.3987699,57.1430567 L94.1927596,50.528901 L67.7227393,50.528901 L66.9287496,57.1430567 Z M47.8700393,57.1430567 L61.6340062,57.1430567 L62.4287352,50.528901 L48.664029,50.7946483 L47.8700393,57.1430567 Z M49.7226819,42.342407 L100.016829,42.0766597 L100.811558,35.7282514 L50.7820742,35.7282514 L49.7226819,42.342407 Z M105.310834,42.0766597 L117.752224,42.0766597 L118.546213,35.469886 L106.104823,35.7282514 L105.310834,42.0766597 Z M98.6935133,57.1430567 L107.164215,57.1430567 L107.958205,50.528901 L99.487503,50.528901 L98.6935133,57.1430567 Z M112.722883,57.1430567 L139.457566,57.1430567 L140.252295,50.528901 L113.516872,50.528901 L112.722883,57.1430567 Z M144.486907,57.1430567 L152.958349,57.1430567 L153.751599,50.528901 L145.54556,50.528901 L144.486907,57.1430567 Z M124.104881,72.2094536 L137.869587,72.2094536 L138.663577,65.5952979 L124.89961,65.5952979 L124.104881,72.2094536 Z M143.163591,72.2094536 L169.633611,71.9437063 L170.42834,65.5952979 L143.95832,65.5952979 L143.163591,72.2094536 Z M174.928355,71.9437063 L183.399057,71.9437063 L184.193786,65.3369325 L175.722344,65.5952979 L174.928355,71.9437063 Z M104.516844,72.2094536 L118.28155,72.2094536 L119.07554,65.5952979 L105.310834,65.5952979 L104.516844,72.2094536 Z M74.8701253,102.0765 L94.9874886,102.0765 L95.7814783,95.4623445 L75.6633758,95.7280918 L74.8701253,102.0765 Z M58.1933841,117.401262 L67.7227393,117.135515 L68.5174683,110.794489 L58.9881131,110.794489 L58.1933841,117.401262 Z M55.2813492,131.943547 L67.7227393,131.943547 L68.5174683,125.329391 L56.0753389,125.329391 L55.2813492,131.943547 Z M73.0174827,131.943547 L82.5468378,131.943547 L83.3400883,125.329391 L73.8107331,125.329391 L73.0174827,131.943547 Z M87.5761787,131.943547 L107.693542,131.943547 L108.487532,125.329391 L88.3694291,125.329391 L87.5761787,131.943547 Z M66.9287496,147.002562 L93.6641724,147.002562 L94.4581622,140.395788 L67.7227393,140.395788 L66.9287496,147.002562 Z M111.134903,162.068959 L133.634236,161.810593 L134.692889,155.462185 L111.928154,155.462185 L111.134903,162.068959 Z M137.869587,161.810593 L151.104967,161.810593 L151.898956,155.462185 L138.663577,155.462185 L137.869587,161.810593 Z M84.134078,282.865881 L92.6055195,282.865881 L93.3987699,276.251726 L84.928807,276.251726 L84.134078,282.865881 Z M50.2520084,295.813682 L100.546156,295.547934 L101.340146,289.206908 L51.0459981,289.206908 L50.2520084,295.813682 Z M107.958205,282.865881 L121.457509,282.865881 L122.252238,276.251726 L108.751456,276.251726 L107.958205,282.865881 Z M97.8987843,282.865881 L102.664201,282.865881 L103.458191,276.251726 L98.6935133,276.251726 L97.8987843,282.865881 Z M141.045546,267.799484 L154.810991,267.799484 L155.60572,261.192711 L141.840275,261.192711 L141.045546,267.799484 Z M127.810905,282.865881 L141.310948,282.865881 L142.104938,276.251726 L128.604895,276.251726 L127.810905,282.865881 Z M106.104823,267.799484 L134.957552,267.799484 L135.752281,261.192711 L106.898813,261.451076 L106.104823,267.799484 Z" id="Shape" fill="#0BABF4"></path>
                            <polygon id="Path" fill="#346790" points="55.5460125 252.998835 69.0467948 252.998835 69.8407845 246.384679 56.3407415 246.384679"></polygon>
                            <polygon id="Path" fill="#346790" points="46.0166573 72.2094536 73.8107331 72.2094536 74.6047228 65.5952979 46.8113863 65.5952979"></polygon>
                            <polygon id="Path" fill="#346790" points="79.1054764 72.2094536 99.2221005 72.2094536 100.016829 65.5952979 79.8994662 65.5952979"></polygon>
                            <polygon id="Path" fill="#346790" points="99.7514269 237.932438 119.86953 237.932438 120.664259 231.325664 100.546156 231.325664"></polygon>
                            <polygon id="Path" fill="#346790" points="44.4294171 87.2684686 72.2227537 87.2684686 73.0174827 80.6616949 45.2226676 80.6616949"></polygon>
                            <polygon id="Path" fill="#346790" points="77.5167577 87.2684686 97.6348603 87.2684686 98.42885 80.6616949 78.3107474 80.6616949"></polygon>
                            <polygon id="Path" fill="#346790" points="102.928125 87.0101032 116.428168 87.0101032 117.222897 80.6616949 103.722115 80.6616949"></polygon>
                            <polygon id="Path" fill="#346790" points="42.5752959 102.334866 51.8407271 102.334866 52.6347168 95.7280918 43.3692856 95.7280918"></polygon>
                            <polygon id="Path" fill="#346790" points="57.1347312 102.0765 69.5761213 102.0765 70.370111 95.7280918 57.9287209 95.7280918"></polygon>
                            <polygon id="Path" fill="#346790" points="84.928807 237.932438 94.4581622 237.932438 95.2528912 231.325664 85.723536 231.325664"></polygon>
                            <polygon id="Path" fill="#346790" points="67.1934128 237.932438 79.6340636 237.932438 80.4287926 231.325664 68.2520658 231.58403"></polygon>
                            <polygon id="Path" fill="#346790" points="103.193528 223.921648 123.310152 223.921648 124.104881 217.580622 103.987517 217.580622"></polygon>
                            <polygon id="Path" fill="#346790" points="57.1347312 223.131788 65.6046941 223.131788 66.3994231 216.517633 57.9287209 216.517633"></polygon>
                            <polygon id="Path" fill="#346790" points="43.8993514 223.131788 52.3700536 223.131788 53.1640433 216.517633 44.6933411 216.517633"></polygon>
                            <polygon id="Path" fill="#346790" points="40.7226532 117.401262 52.8993801 117.401262 53.9587723 110.794489 41.516643 110.794489"></polygon>
                            <path d="M180.487022,12.9994733 L123.575554,12.9994733 L87.0461129,309.558724 L141.840275,309.558724 C151.898956,309.558724 161.428312,302.420455 162.487704,293.702467 L195.575784,26.7445155 C196.10511,23.3119459 195.045718,20.1377417 192.928412,17.7607795 C189.751714,14.5865754 185.2517,12.9994733 180.487022,12.9994733 Z" id="Path" fill="url(#linearGradient-8)"></path>
                        </g>
                        <g id="Group" transform="translate(82.000000, 44.000000)">
                            <polygon id="Path" fill="#FEAE03" points="121.490645 153.073078 103.019663 152.545214 95.3681889 148.28513 113.838434 148.812994"></polygon>
                            <polygon id="Path" fill="#FEAE03" points="116.213538 39.9392188 109.088963 48.1917379 90.6187184 47.6564394 97.7432926 39.4039202"></polygon>
                            <polygon id="Path" fill="#FF9800" points="86.3976219 197.264946 90.3548999 211.376011 71.8853918 210.840712 67.9273769 196.729648"></polygon>
                            <polygon id="Path" fill="#FF9800" points="80.3283218 0.542733241 77.953955 16.2448237 59.482973 15.7095252 61.8580768 0.00743470193"></polygon>
                            <path d="M54.2058655,179.696746 C54.7342394,179.696746 55.2618765,179.696746 55.7895136,179.429096 L56.0533321,179.429096 C56.5809692,179.429096 57.1086062,179.161447 57.6362433,178.893798 C57.9007988,178.893798 57.9007988,178.893798 58.1638804,178.633583 C58.6915174,178.633583 58.9560729,178.365934 59.2198914,178.098285 C59.482973,178.098285 59.482973,177.830635 59.7475285,177.830635 C60.0106101,177.562986 60.5382472,177.562986 60.8028026,177.302772 C61.0673581,177.302772 61.0673581,177.035122 61.3304397,177.035122 C61.5942582,176.767473 62.1218953,176.499824 62.3864508,176.499824 C62.6495324,176.232175 62.9140878,176.232175 63.1771694,175.964525 C63.7048065,175.704311 64.2331805,175.169012 64.7608175,174.901363 C65.0238992,174.901363 65.0238992,174.633714 65.2884546,174.633714 C65.8160917,174.373499 66.0799102,173.838201 66.6075473,173.570551 L66.8713658,173.302902 C67.3997398,172.775038 67.9273769,172.23974 68.4550139,171.711876 L68.7188325,171.444226 C69.2464695,170.908928 69.7741066,170.381064 70.3017437,169.578116 C70.8293807,169.050252 71.3570178,168.514954 71.6208363,167.979655 C71.6208363,167.719441 71.8853918,167.719441 71.8853918,167.451792 C72.4130289,166.916493 72.6761105,166.388629 73.2037475,165.585681 C73.7321215,165.050383 73.9952031,164.25487 74.5228402,163.719571 C74.5228402,163.459357 74.7873956,163.459357 74.7873956,163.191707 C75.3150327,162.38876 75.5788512,161.860896 76.1064883,161.057948 C76.3703068,160.530084 76.6341254,160.262435 76.8986808,159.727136 C77.4263179,158.663974 77.953955,157.600812 78.481592,156.537649 C79.0084922,155.467052 79.5361292,154.40389 79.8006847,153.340727 C79.8006847,153.073078 80.0645032,152.805429 80.0645032,152.545214 C80.3283218,152.009916 80.5928772,151.474617 80.8559588,150.679104 C80.8559588,150.411455 81.1197774,150.143805 81.1197774,149.883591 C81.3843328,149.080643 81.6474144,148.017481 82.1750515,147.214533 C82.439607,146.41902 82.7026886,145.355857 82.967244,144.55291 C82.967244,144.292695 83.2310626,144.025046 83.2310626,143.757397 C83.4941442,143.222098 83.4941442,142.426585 83.7586996,141.891286 C83.7586996,141.631072 84.0217812,141.363422 84.0217812,141.095773 C84.2863367,139.764962 84.8139738,138.43415 85.0777923,137.370988 L85.0777923,136.835689 C85.3416108,135.504877 85.6054294,134.174066 85.8692479,132.843254 L85.8692479,132.575605 C86.1330664,131.244793 86.3976219,129.913982 86.6607035,128.58317 L86.6607035,127.787657 C86.9252589,126.456845 87.1883405,125.126033 87.1883405,123.795222 L87.1883405,122.724625 C87.1883405,122.196761 87.452896,121.393813 87.452896,120.865949 L87.452896,119.795352 C87.452896,119.267488 87.452896,118.464541 87.7167145,117.936677 L87.7167145,116.873514 C87.7167145,116.070567 87.7167145,115.542703 87.9805331,114.739755 L87.9805331,113.676593 C87.9805331,112.61343 87.9805331,111.550268 88.2443516,110.74732 L88.2443516,97.4392035 C88.2443516,96.6362557 88.2443516,96.1083918 87.9805331,95.305444 L87.9805331,94.2422817 C87.9805331,93.1791193 87.7167145,92.3836062 87.7167145,91.3130091 C87.7167145,90.2498467 87.452896,89.4543336 87.452896,88.3837365 C87.452896,88.123522 87.452896,87.8558727 87.1883405,87.3205742 C87.1883405,86.7927103 86.9252589,85.9897625 86.9252589,85.4618987 C86.9252589,85.1942494 86.9252589,84.6589509 86.6607035,84.3913016 C86.6607035,83.8634378 86.3976219,83.06049 86.3976219,82.5326261 C86.3976219,82.2649769 86.1330664,81.7296783 86.1330664,81.4694637 C86.1330664,80.9341652 85.8692479,80.1312174 85.8692479,79.6033536 C85.8692479,79.3357043 85.6054294,78.8004058 85.6054294,78.5401912 C85.3416108,78.0048926 85.3416108,77.2093795 85.0777923,76.674081 C85.0777923,76.4064317 84.8139738,76.1387825 84.8139738,75.8785679 C84.5508921,74.8079708 84.2863367,74.0124577 84.0217812,73.2169446 C78.2177735,51.6488743 66.8713658,38.8760564 54.9973211,38.6084071 L73.468303,39.136271 C76.1064883,39.136271 78.7454106,39.9392188 81.1197774,41.0023811 C81.3843328,41.2700304 81.9119699,41.2700304 82.1750515,41.5376797 C82.967244,41.7978942 83.4941442,42.3331928 84.2863367,42.8684913 C86.6607035,44.4669522 89.0350703,46.8609263 91.1463555,49.5225496 C91.6739925,50.3180627 92.4661851,51.1210105 92.9930852,51.9165236 C96.951837,57.5074194 100.118396,64.9644255 102.492763,73.4771592 C102.756582,74.280107 103.019663,75.3432694 103.284219,76.1387825 C103.284219,76.4064317 103.548774,76.674081 103.548774,76.9417303 C103.811856,77.4695941 103.811856,78.2725419 104.076411,78.8004058 C104.076411,79.068055 104.339493,79.6033536 104.339493,79.8710028 C104.339493,80.3988667 104.603311,80.9341652 104.603311,81.7296783 C104.603311,81.9973276 104.86713,82.5326261 104.86713,82.8002754 C104.86713,83.3281392 105.130948,84.1236523 105.130948,84.6589509 C105.130948,84.9266001 105.130948,85.4618987 105.395504,85.7221132 C105.395504,86.2574118 105.658586,87.0529249 105.658586,87.5882234 L105.658586,88.6513858 C105.658586,89.7145482 105.923141,90.517496 105.923141,91.5806584 C105.923141,92.6438207 106.186223,93.4467686 106.186223,94.5099309 L106.186223,95.5730933 C106.186223,96.3760411 106.186223,96.9039049 106.450778,97.7068528 L106.450778,111.014969 C106.450778,112.078132 106.450778,113.141294 106.186223,113.944242 L106.186223,115.007404 C106.186223,115.802917 106.186223,116.338216 105.923141,117.133729 L105.923141,118.204326 C105.923141,118.73219 105.923141,119.535138 105.658586,120.063001 L105.658586,121.126164 C105.658586,121.661462 105.395504,122.46441 105.395504,122.992274 L105.395504,124.055436 C105.130948,125.386248 105.130948,126.71706 104.86713,128.047871 L104.86713,128.850819 C104.603311,130.181631 104.339493,131.512442 104.076411,132.843254 L104.076411,133.110903 C103.811856,134.441715 103.548774,135.772527 103.284219,137.103338 L103.284219,137.631202 C103.019663,138.962014 102.492763,140.292825 102.228945,141.363422 L102.228945,141.631072 C102.228945,141.891286 102.228945,141.891286 101.965126,142.158936 C101.700571,142.694234 101.700571,143.489747 101.437489,144.025046 C101.437489,144.292695 101.172934,144.55291 101.172934,144.820559 C100.909852,145.623507 100.645297,146.686669 100.382215,147.482182 C100.118396,148.28513 99.8538409,149.348292 99.3262038,150.143805 C99.3262038,150.411455 99.0631222,150.679104 99.0631222,150.946753 C98.7985668,151.474617 98.5340113,152.009916 98.2709297,152.805429 C98.2709297,153.073078 98.2709297,153.073078 98.0071112,153.340727 C98.0071112,153.340727 98.0071112,153.608377 97.7432926,153.608377 C97.2156556,154.671539 96.951837,155.734701 96.4242,156.797864 C96.1596445,157.600812 95.6320075,158.396325 95.3681889,159.199272 C95.3681889,159.466922 95.1043704,159.466922 95.1043704,159.727136 C94.8405519,160.262435 94.5774702,160.797733 94.3129148,161.325597 C93.7852777,162.128545 93.5207223,162.656409 92.9930852,163.459357 C92.9930852,163.719571 92.7300036,163.719571 92.7300036,163.98722 C92.2016296,164.790168 91.938548,165.318032 91.4109109,165.853331 C91.1463555,166.388629 90.8832739,166.648844 90.6187184,167.184142 C90.6187184,167.451792 90.3548999,167.451792 90.3548999,167.719441 C90.3548999,167.979655 90.0918183,167.979655 90.0918183,168.247305 C89.5634443,168.782603 89.0350703,169.310467 88.7719887,169.845766 C88.2443516,170.381064 87.7167145,171.176577 87.1883405,171.711876 L86.9252589,171.97209 L86.6607035,172.23974 C86.1330664,172.775038 85.6054294,173.302902 85.0777923,173.570551 L84.8139738,173.838201 C84.2863367,174.10585 84.0217812,174.633714 83.4941442,174.901363 C83.2310626,174.901363 83.2310626,175.169012 82.967244,175.169012 C82.439607,175.704311 81.9119699,175.964525 81.3843328,176.232175 L81.1197774,176.499824 L80.8559588,176.767473 C80.5928772,177.035122 80.0645032,177.302772 79.8006847,177.302772 C79.5361292,177.302772 79.5361292,177.562986 79.2730476,177.562986 C79.0084922,177.830635 78.481592,177.830635 78.2177735,178.098285 C77.953955,178.098285 77.953955,178.365934 77.6893995,178.365934 C77.4263179,178.633583 76.8986808,178.633583 76.6341254,178.893798 C76.3703068,178.893798 76.3703068,178.893798 76.1064883,179.161447 C75.5788512,179.429096 75.0519511,179.429096 74.5228402,179.696746 L74.2597586,179.696746 C73.7321215,179.696746 73.2037475,179.964395 72.6761105,179.964395 L70.3017437,179.964395 L51.8314987,179.429096 L53.6782284,179.429096 C53.9427838,179.696746 54.2058655,179.696746 54.2058655,179.696746 Z" id="Path" fill="url(#linearGradient-9)"></path>
                            <polygon id="Path" fill="#FF9800" points="51.0393061 194.335674 48.6649393 210.045199 30.1946943 209.5099 32.5697981 193.800375"></polygon>
                            <polygon id="Path" fill="#FF9800" points="64.7608175 218.565367 46.2905725 218.030069 30.1946943 209.5099 48.6649393 210.045199"></polygon>
                            <path d="M42.3325576,19.9696094 C42.3325576,19.9696094 42.5963762,19.7093948 42.3325576,19.9696094 C43.1240132,19.4417455 43.6516503,19.1740963 44.4431059,18.906447 C44.970743,18.6387977 45.49838,18.3711485 46.2905725,18.1109339 C46.5543911,18.1109339 46.5543911,17.8432846 46.8182096,17.8432846 C47.0820281,17.5756354 47.6096652,17.5756354 47.8734837,17.3079861 C48.1373023,17.3079861 48.4018577,17.0403368 48.6649393,17.0403368 C48.9294948,17.0403368 49.4571319,16.7801223 49.7209504,16.7801223 C49.984032,16.7801223 50.2485875,16.512473 50.5116691,16.512473 C50.7762245,16.512473 51.3038616,16.2448237 51.5684171,16.2448237 L57.3724248,16.2448237 L72.4130289,16.7801223 L72.1484734,16.7801223 C71.8853918,16.7801223 71.6208363,16.7801223 71.0931993,17.0403368 L70.5662991,17.0403368 C70.3017437,17.0403368 70.0371882,17.0403368 69.7741066,17.3079861 C69.5095511,17.3079861 68.982651,17.5756354 68.7188325,17.5756354 C68.4550139,17.5756354 68.1904585,17.5756354 67.9273769,17.8432846 C67.6628214,17.8432846 67.1351843,18.1109339 66.8713658,18.1109339 C66.6075473,18.1109339 66.3437287,18.3711485 66.0799102,18.3711485 C65.8160917,18.6387977 65.2884546,18.6387977 65.0238992,18.906447 C64.7608175,18.906447 64.7608175,19.1740963 64.4962621,19.1740963 C63.968625,19.4417455 63.4417249,19.7093948 62.6495324,19.9696094 C62.1218953,20.2372587 61.3304397,20.7725572 60.8028026,21.0402065 C60.5382472,21.0402065 60.5382472,21.300421 60.2751656,21.300421 C59.7475285,21.5680703 59.2198914,22.1033688 58.4284358,22.6312327 L39.9581908,22.1033688 C40.7496464,21.5680703 41.2772835,21.300421 41.8049206,20.7725572 C42.0687391,19.9696094 42.3325576,19.9696094 42.3325576,19.9696094 Z" id="Path" fill="#FF9800"></path>
                            <path d="M76.0129249,17.1946069 L76.7608504,17.1946069 L76.0129249,17.1946069 Z" id="Path" fill="#001F99"></path>
                            <path d="M73.7321215,16.6813894 L74.2597586,16.6813894 C74.7873956,16.6813894 75.5788512,16.6813894 75.8426698,17.4401751 L72.4130289,17.4401751 L72.6761105,17.4401751 C72.9406659,16.6813894 73.2037475,16.6813894 73.7321215,16.6813894 Z" id="Path" fill="#001F99"></path>
                            <path d="M51.0393061,194.335674 L32.5697981,193.800375 C28.3479646,189.815375 24.3906866,184.217044 20.9595718,177.562986 C19.9050346,175.436661 18.8482866,173.042687 17.7937494,170.381064 L36.2639944,170.908928 C40.2220094,181.295207 45.2352984,189.012427 51.0393061,194.335674 Z" id="Path" fill="#FF9800"></path>
                            <polygon id="Path" fill="#FF9800" points="39.9581908 25.3002907 43.6516503 39.136271 25.1814053 38.6084071 21.4872089 24.7649921"></polygon>
                            <path d="M14.0995531,65.4922893 C14.3633716,64.4291269 14.8917456,63.0983153 15.1548272,62.0351529 C15.1548272,61.7675036 15.4186457,61.4998544 15.4186457,60.9645558 C15.6824642,60.1690427 15.9462828,59.1058803 16.2101013,58.3029325 C16.2101013,58.042718 16.4739198,57.5074194 16.4739198,57.2397702 C17.0015569,56.1766078 17.2661124,55.1134454 17.7937494,53.7826338 C18.3213865,52.4518221 22.542483,43.3963552 23.070857,42.0655435 C23.3339386,41.7978942 24.1261312,39.9392188 24.6537682,39.4039202 C24.9183237,39.136271 25.1814053,38.6084071 25.4452238,38.3407579 L43.9162057,38.8760564 C43.3885687,39.6715695 42.8594578,40.7347319 42.3325576,41.5376797 C42.0687391,41.7978942 41.8049206,42.3331928 41.8049206,42.6008421 C41.2772835,43.6640044 40.7496464,44.9948161 39.9581908,46.0579785 C39.4305538,47.1211408 38.9029167,48.4593872 38.3738058,49.7901988 C38.3738058,50.0504134 38.1107242,50.0504134 38.1107242,50.3180627 C37.5830871,51.6488743 37.05545,52.979686 36.5270761,54.3104976 C35.999439,55.3810947 35.7363574,56.444257 35.2079834,57.7750687 C35.2079834,58.042718 34.9441649,58.5705818 34.9441649,58.8382311 C34.6803463,59.6337442 34.4172647,60.436692 34.1527093,61.4998544 C34.1527093,61.7675036 33.8896276,62.0351529 33.8896276,62.5630167 C33.6250722,63.6336138 33.0974351,64.9644255 32.8336166,66.0275878 C32.5697981,67.3583995 32.0414241,68.6892111 31.7783425,70.0200228 L13.3080975,69.4847242 C13.3080975,68.4215619 13.571916,67.0907502 14.0995531,65.4922893 Z" id="Path" fill="#FF9800"></path>
                            <polygon id="Path" fill="#FF9800" points="54.9973211 7.99230457 39.9581908 25.3002907 21.4872089 24.7649921 36.5270761 7.46444074"></polygon>
                            <polygon id="Path" fill="#FF9800" points="28.0841461 141.631072 20.9595718 149.883591 2.48932683 149.348292 9.61390107 141.095773"></polygon>
                            <polygon id="Path" fill="#FF9800" points="20.9595718 149.883591 28.8748647 179.429096 10.4060936 178.893798 2.48932683 149.348292"></polygon>
                            <path d="M26.2374163,103.297749 C25.4452238,116.070567 25.9728609,129.118468 28.0841461,141.631072 L9.61390107,141.095773 C7.50261588,128.58317 6.97497881,115.542703 7.76717134,102.76245 L26.2374163,103.297749 Z" id="Path" fill="#FF9800"></path>
                            <polygon id="Path" fill="#FF9800" points="26.2374163 103.297749 7.76717134 102.76245 0.114960031 98.7700151 18.585205 99.297879"></polygon>
                            <path d="M109.088963,48.1917379 C104.86713,38.0731086 99.8538409,30.355888 94.3129148,25.0326414 L96.6872816,9.32311622 L80.3283218,0.802947808 L77.953955,16.512473 C72.9406659,15.7095252 67.9273769,16.7801223 62.6495324,19.4417455 C61.8580768,19.9696094 61.0673581,20.2372587 60.2751656,20.7725572 C59.7475285,21.0402065 59.2198914,21.5680703 58.4284358,22.1033688 L54.7342394,8.25995384 L46.0260171,18.1109339 L39.6936354,25.5605052 L43.3885687,39.4039202 C42.0687391,41.7978942 40.7496464,44.199303 39.4305538,46.593277 C38.1107242,49.2549003 37.05545,51.9165236 35.999439,54.8457961 C34.1527093,59.6337442 32.5697981,64.9644255 30.9861499,70.5478866 L23.3339386,66.5554517 L18.3213865,99.5655282 L25.9728609,103.557963 C25.1814053,116.338216 25.7090424,129.386118 27.8203275,141.891286 L20.6957533,150.143805 L28.6117831,179.429096 L35.7363574,171.176577 C39.9581908,181.295207 44.970743,189.012427 50.5116691,194.603323 L48.1373023,210.305413 L64.4962621,218.825582 L66.8713658,203.123491 C72.6761105,203.919005 78.481592,202.588193 84.2863367,198.863407 C84.8139738,198.595758 85.6054294,198.060459 86.1330664,197.532596 L89.8272628,211.376011 L104.86713,194.068024 L101.172934,180.224609 C102.492763,177.830635 103.811856,175.436661 105.130948,173.042687 C108.562063,165.853331 111.464067,157.868461 113.575352,149.348292 L121.226827,153.340727 L126.240116,120.330651 L118.587904,116.338216 C119.380097,103.557963 118.851723,90.517496 116.741175,78.0048926 L123.865012,69.7523735 L115.949719,40.4670826 L109.088963,48.1917379 Z M103.811856,73.4771592 C111.199512,100.368476 108.562063,134.174066 97.4794741,157.333162 C96.6872816,158.931623 95.8965629,160.530084 95.1043704,161.860896 C93.2576407,165.050383 91.1463555,167.979655 89.0350703,170.381064 C86.6607035,173.042687 84.2863367,175.169012 81.6474144,176.767473 C66.0799102,186.618453 49.1925764,174.373499 41.2772835,145.623507 C33.8896276,118.73219 36.5270761,84.9266001 47.6096652,61.7675036 C49.984032,56.7119063 52.8875097,52.1841728 56.0533321,48.7196017 C57.9007988,46.593277 59.7475285,44.9948161 61.5942582,43.3963552 C62.1218953,42.8684913 62.9140878,42.6008421 63.4417249,42.0655435 C64.2331805,41.5376797 64.7608175,41.2700304 65.5530101,40.7347319 C80.8559588,33.5453751 96.6872816,46.8609263 103.811856,73.4771592 Z" id="Shape" fill="url(#linearGradient-10)"></path>
                            <polygon id="Path" fill="#FF9800" points="0.114960031 98.7700151 18.585205 99.297879 23.5984941 66.2952371 5.12824908 65.7599386"></polygon>
                        </g>
                        <g id="Group" transform="translate(6.000000, 117.000000)">
                            <path d="M27.4856728,24.6941711 L7.42880247,22.8518724 C7.96359259,26.5438389 3.95191975,32.3433951 1.81201235,35.2468577 C-0.0597530864,38.1503204 -0.59454321,49.2335891 17.0565185,49.2335891 C34.7068333,49.2335891 34.1727901,38.6809024 32.8350679,35.2468577 C31.4980926,32.3433951 27.2190247,28.3935068 27.4856728,24.6941711 Z" id="Path" fill="#424242" fill-rule="nonzero"></path>
                            <path d="M27.4856728,24.6941711 L24.2769321,24.6941711 C28.2886049,32.0854733 24.010284,41.5843651 24.010284,41.5843651 C24.010284,41.5843651 21.8703765,36.8312346 21.0674444,37.6271076 C17.5913086,42.3728689 11.1730802,45.5416226 5.55629012,41.8496561 C2.88233951,39.9999882 2.61494444,36.8312346 2.88233951,34.1930629 C2.61494444,34.4583539 2.34680247,34.9889359 2.08015432,35.2468577 C0.207641975,38.1503204 -0.326401235,49.2335891 17.3239136,49.2335891 C34.9749753,49.2335891 34.4394383,38.6809024 33.1032099,35.2468577 C31.4980926,32.3433951 27.2190247,28.3935068 27.4856728,24.6941711 Z" id="Path" fill="#424242" fill-rule="nonzero"></path>
                            <path d="M25.6139074,182.748657 C25.3472593,181.694862 24.5450741,180.898989 23.742142,178.260817 C21.6022346,170.611593 23.742142,164.539377 21.6022346,154.509903 C21.3355864,152.667604 20.2660062,150.817937 20.2660062,148.445056 C20.2660062,146.337466 20.8007963,144.753089 20.5326543,142.903422 C20.5326543,141.319045 19.9978642,139.734668 19.7304691,137.892369 C18.9290309,128.393477 19.195679,116.779627 19.4630741,107.546026 L3.95191975,99.8968019 C4.22006173,109.395694 7.96359259,132.881317 7.96359259,133.935112 C9.56796296,142.638131 9.03317284,144.222507 10.1027531,151.61381 C11.1730802,159.528325 16.2543333,171.930679 18.3934938,180.110485 C19.195679,183.013948 19.9978642,195.939515 19.7304691,198.312396 C19.7304691,199.631481 18.6608889,202.004362 20.8007963,202.004362 C22.4051667,202.004362 27.2190247,200.162063 27.7538148,198.054474 C28.2886049,195.939515 26.4168395,192.247549 25.8820494,188.555582 C25.6139074,185.910041 26.1486975,184.067743 25.6139074,182.748657 Z" id="Path" fill="#FFF3E0"></path>
                            <path d="M15.1840062,154.509903 C12.7774506,146.860679 10.9049383,138.946164 12.7774506,130.766358 C14.917358,122.321261 13.3114938,113.618242 14.917358,105.173145 L4.22006173,99.8968019 C4.48670988,109.395694 8.23024074,132.881317 8.23024074,133.935112 C9.83535802,142.638131 9.30131481,144.222507 10.3701481,151.61381 C11.4397284,159.528325 16.5209815,171.930679 18.6608889,180.110485 C19.4630741,183.013948 20.2660062,195.939515 19.9978642,198.312396 C19.9978642,199.631481 18.9290309,202.004362 21.0674444,202.004362 C21.8703765,202.004362 23.4754938,201.481149 25.0791173,200.692646 C24.8117222,193.566634 21.0674444,186.705914 20.8007963,179.579903 C20.2660062,170.611593 18.1260988,163.220291 15.1840062,154.509903 Z" id="Path" fill="#FFF3E0"></path>
                            <path d="M26.9516296,191.716966 C26.6849815,193.301343 26.4168395,195.151011 25.3472593,196.470097 C23.742142,198.577687 20.8007963,197.789183 20.2660062,196.204806 L20.2660062,198.577687 C20.2660062,199.896772 19.195679,202.269653 21.3355864,202.269653 C22.9399568,202.269653 27.7538148,200.427354 28.2886049,198.312396 C28.5567469,196.735388 27.7538148,194.355138 26.9516296,191.716966 Z" id="Path" fill="#304FFE"></path>
                            <path d="M26.9516296,191.716966 C26.6849815,193.301343 26.4168395,195.151011 25.3472593,196.470097 C25.0791173,196.735388 25.0791173,196.735388 24.8117222,196.99331 L24.8117222,197.523892 C24.010284,200.427354 20.8007963,201.481149 19.9978642,201.215858 C19.9978642,201.74644 20.2660062,202.269653 21.3355864,202.269653 C22.9399568,202.269653 27.7538148,200.427354 28.2886049,198.312396 C28.5567469,196.735388 27.7538148,194.355138 26.9516296,191.716966 Z" id="Path" fill="#304FFE"></path>
                            <path d="M24.8117222,43.9572457 C20.2660062,45.2763316 21.3355864,40.2652792 20.5326543,35.7774397 L14.3825679,37.8850294 C15.1840062,42.1075779 15.7195432,45.0110406 12.2426605,46.3301264 C10.3701481,47.1259994 7.16140741,47.9145032 5.28889506,48.4450852 C2.34680247,49.2335891 1.01057407,68.4966637 0.475037037,74.0382981 L5.82368519,76.1458877 C6.89326543,72.1886302 9.03317284,67.4428689 9.03317284,62.4244474 L34.4394383,50.5526749 C32.8350679,43.4266637 30.1603704,42.3728689 24.8117222,43.9572457 Z" id="Path" fill="#FFF3E0"></path>
                            <path d="M25.6139074,48.9682981 C25.6139074,48.9682981 36.8467407,63.2203204 40.0562284,65.8584921 L42.9975741,61.3706526 C41.1258086,58.7324809 36.0445556,49.4988801 31.4980926,44.7457496 L25.6139074,48.9682981 Z" id="Path" fill="#FFF3E0"></path>
                            <path d="M35.5097654,54.7752234 C35.7764136,53.7214286 36.3126975,50.8179659 35.7764136,49.7641711 C34.1727901,46.8607084 29.8937222,49.2335891 28.8233951,47.1259994 L28.8233951,46.8607084 L25.8820494,48.9682981 C25.8820494,48.9682981 37.1141358,63.2203204 40.3228765,65.8584921 L41.9279938,63.2203204 C41.3932037,62.9550294 39.2532963,63.2203204 38.7192531,62.6897384 C36.3126975,60.0515667 35.5097654,55.3058054 35.5097654,54.7752234 Z" id="Path" fill="#FFF3E0"></path>
                            <path d="M68.9393765,43.1687419 C68.6712346,42.9034509 65.997284,45.0110406 65.1950988,45.8069136 C63.5907284,46.8607084 64.1255185,44.7457496 62.7877963,45.8069136 C61.450821,46.8607084 60.6493827,48.1797942 60.1130988,50.2873839 C59.8464506,52.1370517 48.8817593,56.3596002 42.9975741,58.7324809 C40.8576667,59.5209847 40.3228765,60.8474397 39.5214383,62.9550294 C39.2532963,63.4856114 39.2532963,66.1237831 40.8576667,65.8584921 C49.1491543,65.5932011 57.7065432,57.1481041 61.718216,54.5099324 C64.6595617,52.4023427 66.264679,51.0832569 67.3342593,50.2873839 C68.4045864,49.4988801 68.6712346,48.9682981 68.1371914,48.1797942 C68.6712346,47.6492122 68.6712346,46.8607084 68.1371914,46.5954174 C68.6712346,46.0648354 68.4045864,45.2763316 67.8690494,45.2763316 C68.9393765,44.4878277 69.7408148,43.6919547 68.9393765,43.1687419 Z" id="Path" fill="#FFF3E0"></path>
                            <path d="M68.9393765,43.1687419 C68.6712346,42.9034509 65.997284,45.0110406 65.1950988,45.8069136 C64.9277037,46.0648354 64.9277037,46.3301264 64.3929136,46.5954174 C63.8581235,47.3839212 63.3225864,48.1797942 63.0559383,49.2335891 C62.7877963,50.8179659 62.2530062,52.4023427 61.450821,53.1908466 C58.7768704,55.0405144 53.6948704,55.8290182 51.0209198,57.6786861 C48.3469691,59.5209847 45.9404136,61.3706526 42.7309259,62.4244474 C41.3932037,62.9550294 39.2532963,62.6897384 39.2532963,63.2203204 C38.9859012,63.7435332 38.9859012,66.3890741 40.5910185,66.1237831 C48.8817593,65.8584921 57.4398951,57.4133951 61.450821,54.7752234 C62.7877963,53.9867196 63.0559383,53.1908466 63.8581235,52.4023427 C64.9277037,51.6064697 66.5320741,51.0832569 67.0676111,50.5526749 C68.1371914,49.7641711 68.4045864,49.2335891 67.8690494,48.4450852 C68.4045864,47.9145032 68.4045864,47.1259994 67.8690494,46.8607084 C68.4045864,46.3301264 68.1371914,45.5416226 67.6024012,45.5416226 C68.9393765,44.4878277 69.7408148,43.6919547 68.9393765,43.1687419 Z" id="Path" fill="#FFF3E0"></path>
                            <path d="M62.5211481,44.7457496 L60.9160309,48.1797942 L63.0559383,47.3839212 C63.5907284,46.8607084 63.8581235,46.0648354 63.8581235,45.0110406 C64.9277037,44.2225367 65.1950988,43.1687419 64.6595617,42.3728689 C63.5907284,43.9572457 63.0559383,44.2225367 62.5211481,44.7457496 Z" id="Path" fill="#FFF3E0"></path>
                            <path d="M62.7877963,59.2630629 C63.3225864,59.2630629 63.8581235,58.9977719 63.8581235,58.4671899 L76.1597901,0.154753086 L61.986358,57.9439771 C61.986358,58.7324809 62.2530062,59.2630629 62.7877963,59.2630629 Z" id="Path" fill="#1A237E" fill-rule="nonzero"></path>
                            <path d="M24.8117222,43.9572457 C20.2660062,45.2763316 21.3355864,40.2652792 20.5326543,35.7774397 L14.3825679,37.8850294 C14.649216,38.6809024 14.649216,39.4694062 14.917358,40.2652792 C16.5209815,42.9034509 19.9978642,46.5954174 22.9399568,46.3301264 C24.5450741,46.0648354 25.8820494,44.2225367 27.7538148,44.2225367 C28.8233951,43.9572457 30.4285123,44.2225367 31.7654877,44.4878277 C29.8937222,43.1687419 27.7538148,43.1687419 24.8117222,43.9572457 Z" id="Path" fill="#FFF3E0"></path>
                            <path d="M6.35847531,62.9550294 C6.35847531,64.0088242 6.09182716,65.0699882 6.09182716,66.1237831 C6.09182716,69.2851675 4.48670988,72.7192122 3.68377778,75.6226749 L5.82368519,76.1458877 C6.89326543,72.9845032 8.76503086,69.2851675 9.03317284,65.3279101 C8.23024074,65.0699882 6.62661728,63.4856114 6.35847531,62.9550294 Z" id="Path" fill="#FFF3E0"></path>
                            <path d="M21.3355864,19.9484098 C19.9978642,19.1525367 18.1260988,18.8872457 15.9861914,19.1525367 C10.9049383,19.9484098 9.30131481,24.1709583 9.30131481,28.3935068 L9.30131481,29.1820106 C9.30131481,30.2358054 9.30131481,31.2896002 9.56796296,32.3433951 C9.83535802,33.6624809 10.1027531,34.9889359 10.6382901,36.3080218 C11.1730802,37.3618166 14.649216,41.5843651 17.3239136,41.5843651 C19.9978642,41.5843651 23.742142,37.0965256 24.2769321,35.7774397 C24.8117222,34.7236449 25.0791173,33.6624809 25.0791173,32.0854733 C25.0791173,31.2896002 25.3472593,30.7663874 25.3472593,29.9705144 L25.3472593,28.3935068 C25.0791173,24.6941711 24.2769321,21.2674956 21.3355864,19.9484098 Z" id="Path" fill="#FFF3E0"></path>
                            <path d="M20.2660062,94.0898765 C15.4514012,104.11935 16.5209815,110.449489 16.5209815,123.905638 C16.5209815,132.881317 16.5209815,135.254198 15.9861914,141.319045 C15.7195432,143.168713 15.1840062,144.753089 15.1840062,146.337466 C15.1840062,147.914474 15.4514012,149.764142 15.4514012,151.871731 C15.7195432,154.251981 14.649216,155.836358 14.1144259,157.943948 C11.9745185,167.973422 14.3825679,175.092063 12.2426605,182.748657 C11.4397284,185.121537 10.6382901,185.121537 10.3701481,186.175332 C9.83535802,187.494418 10.3701481,189.344086 9.83535802,192.247549 C9.03317284,195.939515 7.16140741,199.631481 7.96359259,201.74644 C8.49838272,203.065526 11.7078704,206.757493 13.3114938,206.757493 C15.1840062,206.757493 15.1840062,203.323448 15.1840062,201.74644 C15.4514012,200.427354 15.4514012,189.867299 15.7195432,189.078795 C15.9861914,186.175332 24.2769321,163.750873 25.0791173,155.836358 C26.1486975,148.445056 25.6139074,145.01838 27.2190247,136.042701 C29.6255802,124.170929 31.2299506,113.618242 31.7654877,103.065556 L30.4285123,93.8245855 L20.2660062,94.0898765 Z" id="Path" fill="#FFF3E0"></path>
                            <path d="M13.5796358,201.74644 C10.1027531,201.74644 9.03317284,195.674224 9.03317284,195.151011 C8.23024074,197.789183 7.42880247,200.162063 7.96359259,201.74644 C8.49838272,203.065526 11.7078704,206.757493 13.3114938,206.757493 C15.1840062,206.757493 15.1840062,203.323448 15.1840062,201.74644 L15.1840062,200.427354 C14.917358,200.950567 14.3825679,201.74644 13.5796358,201.74644 Z" id="Path" fill="#304FFE"></path>
                            <path d="M13.5796358,201.74644 C13.0448457,201.74644 12.7774506,201.74644 12.5100556,201.481149 L12.5100556,202.800235 C12.2426605,203.85403 11.1730802,204.384612 10.1027531,204.119321 C9.83535802,204.119321 9.56796296,203.85403 9.03317284,203.85403 C10.3701481,205.438407 11.9745185,206.757493 13.0448457,206.757493 C14.917358,206.757493 14.917358,203.323448 14.917358,201.74644 L14.917358,200.427354 C14.917358,200.950567 14.3825679,201.74644 13.5796358,201.74644 Z" id="Path" fill="#304FFE"></path>
                            <path d="M35.2416235,83.5371899 C32.0328827,84.3256937 13.5796358,85.9100705 6.62661728,81.9528131 C6.09182716,84.8562757 0.742432099,90.3979101 0.742432099,99.8968019 C0.742432099,113.618242 6.62661728,140.795832 6.62661728,140.795832 C6.62661728,140.795832 19.7304691,144.222507 28.8233951,141.319045 C32.5676728,123.640347 37.648179,105.173145 36.0445556,91.7169959 C36.0445556,91.1864139 35.2416235,83.8024809 35.2416235,83.5371899 Z" id="Path" fill="#03A9F4"></path>
                            <path d="M35.2416235,83.5371899 C35.2416235,83.8024809 35.2416235,83.8024809 35.2416235,83.5371899 C28.5567469,90.132619 14.917358,92.7707907 16.7891235,96.1974662 C18.1260988,98.577716 28.2886049,101.215888 29.8937222,102.534974 C33.638,105.961649 23.2073519,110.184198 24.010284,118.098713 C24.2769321,121.798048 22.4051667,128.128186 21.6022346,131.820153 C19.9978642,137.096496 12.5100556,136.831205 9.03317284,141.053754 C13.0448457,141.849627 22.1377716,143.434004 29.091537,141.053754 C32.8350679,123.375056 37.916321,104.907854 36.3126975,91.4517049 C36.0445556,91.1864139 35.5097654,84.8562757 35.2416235,83.5371899 Z" id="Path" fill="#03A9F4"></path>
                            <path d="M37.916321,48.4450852 C30.9633025,39.7346972 24.2769321,43.6919547 24.2769321,43.6919547 C21.6022346,46.0648354 17.5913086,49.4988801 17.5913086,49.4988801 L9.83535802,47.1259994 C9.83535802,47.1259994 2.08015432,47.3839212 1.01057407,54.7752234 C0.742432099,57.1481041 6.89326543,57.1481041 5.82368519,60.3168577 C4.22006173,64.8046972 7.42880247,66.6469959 9.03317284,67.9660817 C9.56796296,71.9233392 9.83535802,74.0382981 9.30131481,76.1458877 C8.49838272,79.0493504 6.35847531,80.3684362 6.62661728,83.0066079 C7.42880247,87.4944474 33.638,86.4406526 35.7764136,83.8024809 C38.184463,81.15694 35.7764136,64.8046972 34.7068333,56.3596002 C33.9046481,51.0832569 38.7192531,49.4988801 37.916321,48.4450852 Z" id="Path" fill="#03A9F4"></path>
                            <path d="M25.0791173,51.8717607 C14.649216,56.0943092 15.1840062,53.1908466 12.7774506,53.9867196 C10.6382901,54.5099324 11.7078704,58.4671899 13.8477778,59.2630629 C16.7891235,60.3168577 12.5100556,62.9550294 12.5100556,65.0699882 C12.5100556,67.4428689 19.4630741,71.9233392 19.4630741,78.2608466 C19.4630741,80.8990182 25.8820494,78.2608466 28.020463,76.6764697 C29.8937222,75.0920929 31.2299506,76.6764697 29.3581852,77.9955556 C25.6139074,80.6337272 22.1377716,83.5371899 15.4514012,83.5371899 C13.8477778,83.5371899 11.4397284,84.0677719 9.83535802,84.8562757 C17.3239136,86.6985744 33.638,85.6447795 35.5097654,83.5371899 C37.916321,80.8990182 35.5097654,64.5394062 34.4394383,56.0943092 C33.9046481,51.0832569 27.7538148,50.8179659 25.0791173,51.8717607 Z M27.2190247,65.0699882 C26.1486975,64.2741152 21.3355864,67.1775779 18.6608889,66.6469959 C16.2543333,66.1237831 15.9861914,64.0088242 19.7304691,63.7435332 C22.6725617,63.4856114 21.0674444,62.1665256 23.742142,58.2018989 C26.1486975,55.0405144 25.6139074,60.0515667 26.6849815,61.1053616 C27.4856728,61.6359436 30.4285123,61.6359436 30.6951605,63.2203204 C31.2299506,65.5932011 29.3581852,66.6469959 27.2190247,65.0699882 Z" id="Shape" fill="#03A9F4"></path>
                            <path d="M15.7195432,35.510242 C15.4514012,36.0215765 15.9861914,36.5475206 16.2543333,36.5475206 L18.1260988,36.5475206 C18.3934938,36.5475206 18.9290309,36.5475206 18.6608889,35.510242 C18.6608889,35.510242 17.8579568,34.4583539 17.0565185,34.4583539 C16.5209815,34.984298 15.9861914,35.510242 15.7195432,35.510242 Z" id="Path" fill="#D7CCC8"></path>
                            <path d="M68.6712346,43.4266637 C67.6024012,44.2225367 67.3342593,44.2225367 66.264679,45.0110406 C65.1950988,45.8069136 65.7306358,46.0648354 66.5320741,45.8069136 C67.6024012,45.2763316 68.1371914,45.0110406 69.2060247,44.2225367 C69.7408148,43.9572457 69.7408148,43.6919547 69.4741667,43.4266637 C69.4741667,43.1687419 68.9393765,43.1687419 68.6712346,43.4266637 Z" id="Path" fill="#FFF3E0"></path>
                            <path d="M67.8690494,45.2763316 C66.7994691,46.0648354 65.7306358,46.5954174 64.6595617,47.3839212 C63.5907284,48.1797942 64.1255185,48.4450852 64.9277037,48.1797942 C65.997284,47.6492122 67.3342593,47.1259994 68.1371914,46.5954174 C68.6712346,46.3301264 68.6712346,46.0648354 68.6712346,45.8069136 C68.6712346,45.2763316 68.4045864,45.0110406 67.8690494,45.2763316 Z" id="Path" fill="#FFF3E0"></path>
                            <path d="M67.8690494,46.8607084 C66.7994691,47.3839212 65.997284,47.9145032 64.9277037,48.4450852 C63.8581235,48.9682981 64.3929136,49.4988801 65.1950988,49.2335891 C66.264679,48.9682981 67.3342593,48.4450852 68.4045864,47.9145032 C68.9393765,47.6492122 68.9393765,47.3839212 68.6712346,47.1259994 C68.6712346,46.8607084 68.4045864,46.5954174 67.8690494,46.8607084 Z" id="Path" fill="#FFF3E0"></path>
                            <path d="M67.8690494,48.4450852 C66.7994691,48.9682981 66.264679,49.2335891 65.4624938,50.0220929 C64.3929136,50.5526749 64.9277037,51.0832569 65.7306358,50.8179659 C66.7994691,50.5526749 67.3342593,50.0220929 68.4045864,49.7641711 C68.9393765,49.4988801 68.9393765,49.2335891 68.6712346,48.9682981 C68.4045864,48.4450852 68.1371914,48.1797942 67.8690494,48.4450852 Z" id="Path" fill="#FFF3E0"></path>
                            <path d="M21.3355864,18.8872457 C19.9978642,18.0987419 18.1260988,17.8334509 15.9861914,18.0987419 C10.3701481,18.8872457 9.03317284,23.3750852 9.30131481,28.1282158 C9.30131481,29.1820106 9.30131481,30.2358054 9.56796296,31.2896002 C15.1840062,24.9594621 18.9290309,22.5865814 19.195679,22.3212904 C18.9290309,23.6403762 16.7891235,26.5438389 16.7891235,26.5438389 C19.9978642,25.2247531 22.6725617,22.8518724 22.6725617,22.8518724 C24.2769321,24.1709583 25.0791173,25.7479659 25.6139074,27.3323427 C25.0791173,23.9056673 24.2769321,20.4716226 21.3355864,18.8872457 Z" id="Path" fill="#D7CCC8" fill-rule="nonzero"></path>
                            <path d="M23.742142,18.3640329 C23.742142,18.3640329 21.8703765,14.4067754 17.3239136,14.4067754 C11.4397284,14.4067754 7.69545062,19.1525367 7.69545062,23.3750852 C7.69545062,27.0670517 8.49838272,28.6514286 7.96359259,31.8201822 C14.3825679,24.4288801 18.3934938,22.0559994 18.3934938,22.0559994 C18.1260988,23.3750852 15.9861914,26.2785479 15.9861914,26.2785479 C19.195679,24.9594621 21.8703765,22.5865814 21.8703765,22.5865814 C24.8117222,24.9594621 25.3472593,29.4473016 25.3472593,29.4473016 C27.2190247,27.3323427 28.2886049,24.6941711 27.7538148,22.0559994 C26.9516296,18.8872457 23.742142,18.3640329 23.742142,18.3640329 Z" id="Path" fill="#424242" fill-rule="nonzero"></path>
                            <path d="M7.96359259,31.5548912 C14.3825679,24.1709583 18.3934938,21.7907084 18.3934938,21.7907084 C18.1260988,23.1097942 15.9861914,26.0132569 15.9861914,26.0132569 C17.3239136,25.4900441 19.195679,22.8518724 19.9978642,20.4716226 C12.7774506,20.7369136 7.96359259,31.5548912 7.96359259,31.5548912 Z" id="Path" fill="#424242" fill-rule="nonzero"></path>
                            <path d="M24.010284,28.6514286 C23.4754938,28.3935068 22.6725617,28.3935068 22.1377716,28.3935068 C21.0674444,28.3935068 19.7304691,28.3935068 18.9290309,29.4473016 C18.6608889,29.7052234 18.3934938,29.7052234 18.1260988,29.7052234 L16.5209815,29.7052234 C16.5209815,29.7052234 15.9861914,29.7052234 15.7195432,29.4473016 C15.1840062,28.3935068 13.8477778,28.3935068 12.7774506,28.3935068 L11.9745185,28.3935068 C11.9745185,28.6514286 11.7078704,28.6514286 11.7078704,28.6514286 L12.7774506,28.6514286 C14.917358,28.6514286 15.7195432,29.1820106 15.7195432,30.5010964 C15.7195432,32.0854733 14.3825679,33.1392681 12.5100556,33.1392681 C10.9049383,33.1392681 9.83535802,32.0854733 9.56796296,30.7663874 C9.56796296,31.0243092 9.30131481,31.0243092 9.30131481,31.2896002 C9.56796296,32.6086861 10.9049383,33.6624809 12.5100556,33.6624809 C14.3825679,33.6624809 15.7195432,32.6086861 15.9861914,31.0243092 C16.2543333,30.5010964 16.7891235,30.5010964 17.3239136,30.5010964 C17.5913086,30.5010964 18.3934938,30.7663874 18.6608889,31.0243092 C18.6608889,32.6086861 19.9978642,33.9277719 21.8703765,33.9277719 C23.2073519,33.9277719 24.2769321,33.4045591 24.8117222,32.3433951 C24.8117222,31.5548912 25.0791173,31.0243092 25.0791173,30.2358054 L25.0791173,29.1820106 C24.8117222,28.9167196 24.2769321,28.9167196 24.010284,28.6514286 Z M25.0791173,30.7663874 C25.0791173,32.3433951 23.742142,33.4045591 21.8703765,33.4045591 C19.9978642,33.4045591 18.9290309,32.0854733 18.9290309,30.5010964 C18.9290309,29.1820106 19.9978642,28.6514286 21.8703765,28.9167196 C24.010284,28.9167196 25.0791173,29.4473016 25.0791173,30.7663874 Z" id="Shape" fill="#D7CCC8" fill-rule="nonzero"></path>
                            <path d="M12.5100556,27.8629248 C11.1730802,27.8629248 9.03317284,27.8629248 9.03317284,29.9705144 C9.03317284,31.5548912 10.3701481,33.1392681 12.2426605,33.1392681 C14.1144259,33.1392681 15.7195432,31.8201822 15.7195432,30.2358054 C15.9861914,28.1282158 14.1144259,27.8629248 12.5100556,27.8629248 Z M12.5100556,32.6086861 C10.9049383,32.6086861 9.56796296,31.2896002 9.56796296,29.7052234 C9.56796296,28.3861376 10.6382901,28.1282158 12.5100556,28.1282158 C14.649216,28.1282158 15.4514012,28.6514286 15.4514012,29.9705144 C15.4514012,31.5548912 14.1144259,32.6086861 12.5100556,32.6086861 Z" id="Shape" fill="#FFE0B2"></path>
                            <path d="M9.03317284,28.1282158 L8.76503086,28.1282158 L8.76503086,28.6514286 C8.76503086,28.6514286 8.76503086,28.9167196 9.03317284,28.9167196 C9.03317284,28.9167196 9.30131481,28.9167196 9.30131481,29.1820106 C9.30131481,29.4473016 9.30131481,30.2358054 9.56796296,30.5010964 C9.56796296,30.5010964 9.56796296,29.1820106 9.83535802,28.6514286 C10.3701481,28.1282158 10.9049383,27.8629248 10.9049383,27.8629248 C10.1027531,28.1282158 9.30131481,28.1282158 9.03317284,28.1282158 Z" id="Path" fill="#FFE0B2"></path>
                            <path d="M21.8703765,28.1282158 C20.5326543,28.1282158 18.3934938,28.1282158 18.3934938,30.2358054 C18.3934938,31.8201822 19.7304691,33.4045591 21.6022346,33.4045591 C23.4754938,33.4045591 25.0791173,32.0854733 25.0791173,30.5010964 C25.0791173,28.3861376 23.2073519,28.1282158 21.8703765,28.1282158 Z M21.6022346,32.8739771 C19.9978642,32.8739771 18.6608889,31.5548912 18.6608889,29.9705144 C18.6608889,28.6514286 19.7304691,28.1282158 21.6022346,28.3861376 C23.742142,28.3861376 24.5450741,28.9167196 24.5450741,30.2358054 C24.5450741,31.8201822 23.2073519,33.1392681 21.6022346,32.8739771 Z" id="Shape" fill="#FFE0B2"></path>
                            <path d="M25.3472593,28.6514286 C25.0791173,28.6514286 24.2769321,28.6514286 23.742142,28.3861376 C23.742142,28.3861376 24.2769321,28.6514286 24.8117222,29.1820106 C25.0791173,29.7052234 25.0791173,31.0243092 25.0791173,31.0243092 C25.3472593,30.5010964 25.3472593,29.9705144 25.3472593,29.7052234 C25.3472593,29.4473016 25.3472593,29.4473016 25.6139074,29.4473016 C25.6139074,29.4473016 25.8820494,29.4473016 25.8820494,29.1820106 L25.8820494,28.6514286 L25.3472593,28.6514286 Z" id="Path" fill="#FFE0B2"></path>
                            <path d="M17.0565185,29.3368872 L16.2543333,29.3368872 C16.2543333,29.3368872 15.7195432,29.3368872 15.4514012,28.9167196 L15.7195432,31.0058862 C15.9861914,30.165551 16.5209815,30.165551 17.0565185,30.165551 C17.3239136,30.165551 18.1260988,30.5857186 18.3934938,31.0058862 L18.6608889,28.9167196 C18.3934938,29.3368872 18.1260988,29.3368872 17.8579568,29.3368872 C17.8579568,29.7570548 17.3239136,29.3368872 17.0565185,29.3368872 Z" id="Path" fill="#FFE0B2"></path>
                            <polygon id="Path" fill="#E65100" points="12.5100556 94.8857496 30.6951605 96.7280482 34.7068333 69.0198765 16.5209815 66.9122869"></polygon>
                            <polygon id="Path" fill="#FF9800" points="11.1730802 96.7280482 30.6951605 96.7280482 34.7068333 69.0198765 15.1840062 69.0198765"></polygon>
                            <path d="M30.1603704,79.5799324 C28.2886049,79.3146414 30.1603704,77.9955556 28.5567469,77.9955556 C26.6849815,77.9955556 25.0791173,77.9955556 23.4754938,79.0493504 C22.6725617,79.5799324 21.8703765,79.3146414 21.0674444,79.3146414 C17.5913086,79.0493504 12.7774506,76.1458877 6.35847531,75.0920929 C4.22006173,74.8268019 2.88233951,74.0382981 0.742432099,73.507716 C0.207641975,76.6764697 0.207641975,79.5799324 1.27722222,80.3684362 C3.95191975,82.4833951 9.30131481,82.7413169 12.5100556,83.0066079 C15.9861914,83.2718989 16.7891235,82.7413169 21.6022346,83.5371899 C25.0791173,84.0677719 27.2190247,84.0677719 28.5567469,84.3256937 C29.8937222,84.5909847 30.4285123,84.3256937 30.6951605,83.2718989 C31.4980926,83.2718989 32.0328827,82.7413169 32.0328827,82.2181041 C32.8350679,82.2181041 33.1032099,81.687522 32.8350679,81.15694 C33.9046481,81.15694 34.9749753,81.15694 34.9749753,80.3684362 C34.4394383,79.8452234 31.2299506,79.8452234 30.1603704,79.5799324 Z" id="Path" fill="#FFF3E0"></path>
                            <path d="M29.3581852,76.6764697 L25.6139074,77.9955556 L29.091537,79.0493504 C29.3581852,78.7840594 29.6255802,78.2608466 30.1603704,77.9955556 C31.4980926,77.9955556 32.3002778,77.4649735 32.5676728,76.6764697 L29.3581852,76.6764697 Z" id="Path" fill="#E8D7B9"></path>
                        </g>
                        <g id="Group" transform="translate(238.000000, 144.000000)">
                            <path d="M56.7814815,31.3244024 C46.437037,30.2726556 36.3592593,30.8022065 33.1762963,30.2726556 L32.1155556,37.120042 C38.7459259,40.2826372 49.0896296,41.85658 55.72,42.3861308 C58.6377778,42.6509062 61.5548148,40.5400578 61.8207407,37.642238 C62.3511111,34.4869976 59.9644444,31.5891778 56.7814815,31.3244024 Z" id="Path" fill="#FF9800"></path>
                            <path d="M20.9755556,17.6296296 C20.4451852,16.8426583 19.9148148,16.3131074 19.9148148,15.2613607 C19.9148148,13.680063 20.4451852,12.3635408 19.3844444,10.5248227 C18.5888889,8.94352509 17.5274074,10.2600473 16.2022222,8.67874967 C15.4059259,7.62700289 13.8140741,4.46440767 13.2837037,4.72918308 C12.2237037,4.9939585 12.7533333,6.04570528 13.5496296,7.09745206 C13.0192593,7.09745206 12.2237037,7.62700289 12.7533333,8.41397426 C11.9577778,8.67874967 11.6933333,9.73049645 12.2237037,10.2600473 C11.1614815,10.7822432 11.4274074,11.5765695 12.2237037,12.8930917 C13.2837037,14.2096139 14.3444444,16.3131074 16.7325926,19.4757027 C19.9148148,23.6900447 28.4014815,37.120042 33.1762963,37.3848174 C35.0325926,37.3848174 37.1548148,33.1704754 35.2985185,31.3244024 C29.7281481,26.323089 23.0977778,21.0570003 20.9755556,17.6296296 Z" id="Path" fill="#FFF3E0"></path>
                            <path d="M13.2837037,4.46440767 C12.2237037,4.72918308 12.7533333,5.78092987 13.5496296,6.83267665 C13.0192593,6.83267665 12.2237037,7.36222748 12.7533333,8.14919884 C11.9577778,8.41397426 11.6933333,9.46572104 12.2237037,9.99527187 C11.1614815,10.5248227 11.4274074,11.3117941 12.2237037,12.6283163 C12.4881481,13.1505122 14.3444444,14.2096139 15.6703704,13.4152876 C17.7925926,12.0987654 16.997037,9.20094563 16.4666667,8.67874967 C15.6703704,7.36222748 13.8140741,4.46440767 13.2837037,4.46440767 Z" id="Path" fill="#FFF3E0"></path>
                            <path d="M21.7711111,17.1074337 C21.7711111,16.8426583 21.5059259,16.8426583 21.5059259,16.5778828 C20.4451852,17.6296296 17.7925926,19.7404781 16.2022222,20.262674 C19.6496296,24.7417914 28.6674074,37.3848174 33.4407407,37.642238 C35.2985185,37.642238 38.4807407,32.9057 36.6237037,31.059627 C31.0540741,26.0583136 23.6281481,20.5274494 21.7711111,17.1074337 Z" id="Path" fill="#FF9800"></path>
                            <path d="M33.4407407,34.2222222 C29.7281481,31.5891778 23.0977778,25.7935382 19.1192593,22.3735225 C18.5888889,21.8439716 17.7925926,22.6382979 18.322963,23.1604938 C22.5674074,28.691358 29.462963,37.3848174 33.4407407,37.3848174 C40.0718519,40.0178618 49.3548148,41.5991594 55.72,42.1213554 C57.5777778,42.3861308 59.1681481,42.1213554 60.4948148,40.2826372 C55.72,40.5400578 51.7422222,37.642238 46.702963,37.120042 C41.6637037,36.5904912 37.9496296,37.3848174 33.4407407,34.2222222 Z" id="Path" fill="#FF9800"></path>
                            <path d="M18.322963,4.9939585 C17.5274074,5.51615445 17.2622222,6.83267665 18.0585185,7.88442343 C17.7925926,8.94352509 18.0585185,9.99527187 18.322963,10.7822432 L20.18,12.0987654 L19.6496296,8.14919884 C19.1192593,7.62700289 18.8533333,6.83267665 18.322963,4.9939585 Z" id="Path" fill="#FFF3E0"></path>
                            <path d="M68.7162963,16.8426583 C68.9822222,16.5778828 68.9822222,16.0556869 68.7162963,15.7909115 C68.4511111,15.5261361 68.1859259,15.5261361 67.9207407,15.7909115 C66.3296296,16.3131074 64.4733333,16.8426583 62.8814815,17.6296296 C60.2288889,18.6813764 56.5155556,20.5274494 57.8422222,22.8957184 C59.6985185,26.0583136 57.3118519,32.6409246 57.3118519,32.6409246 C57.3118519,32.6409246 68.9822222,31.059627 68.7162963,30.8022065 C67.9207407,27.6396112 67.3903704,19.2109272 68.7162963,16.8426583 Z" id="Path" fill="#FFF3E0" fill-rule="nonzero"></path>
                            <path d="M68.7162963,16.8426583 C68.9822222,16.5778828 68.9822222,16.0556869 68.7162963,15.7909115 C68.4511111,15.5261361 68.1859259,15.5261361 67.9207407,15.7909115 C66.5940741,16.3131074 62.8814815,17.894405 61.5548148,18.4239559 C62.6162963,21.8439716 61.5548148,29.7431048 59.9644444,32.1113738 C63.4118519,31.5891778 68.9822222,30.8022065 68.9822222,30.537431 C67.9207407,27.6396112 67.3903704,19.2109272 68.7162963,16.8426583 Z" id="Path" fill="#FFF3E0" fill-rule="nonzero"></path>
                            <path d="M57.8422222,5.51615445 C57.0459259,7.36222748 55.1896296,10.5248227 53.0681481,11.5765695 C52.537037,11.8413449 52.0066667,12.3635408 52.537037,14.2096139 C53.3333333,16.3131074 53.3333333,23.6900447 54.9251852,24.7417914 C56.2511111,25.5287628 61.2903704,24.477016 62.3511111,24.2122406 C65.5340741,22.8957184 67.9207407,19.4757027 68.9822222,16.3131074 C69.777037,13.680063 70.042963,10.5248227 68.7162963,8.14919884 C66.5940741,2.61833465 59.6985185,0.779616496 57.8422222,5.51615445 Z" id="Path" fill="#FFF3E0" fill-rule="nonzero"></path>
                            <path d="M65.7992593,3.93485684 C66.86,4.72918308 67.3903704,6.04570528 67.9207407,7.36222748 C69.2466667,11.3117941 68.4511111,15.2613607 65.7992593,18.4239559 C63.677037,20.7922248 60.76,23.6900447 57.5777778,24.2122406 C56.7814815,24.477016 56.2511111,24.477016 55.4555556,24.477016 C57.0459259,25.0065669 61.8207407,24.2122406 62.6162963,23.6900447 C65.7992593,22.3735225 68.1859259,18.9461518 69.2466667,15.7909115 C70.042963,13.1505122 70.3081481,9.99527187 68.9822222,7.62700289 C68.1859259,6.04570528 67.1259259,4.72918308 65.7992593,3.93485684 Z" id="Path" fill="#FFF3E0" fill-rule="nonzero"></path>
                            <path d="M63.677037,0.779616496 C61.5548148,1.03703704 59.6985185,2.88311006 58.902963,4.46440767 C57.8422222,6.56790123 58.902963,10.7822432 59.4340741,11.3117941 C60.2288889,11.8413449 61.0244444,9.73049645 62.3511111,11.0470186 C63.1466667,11.8413449 62.3511111,15.2613607 60.4948148,16.3131074 C59.9644444,16.5778828 60.2288889,17.6296296 60.76,18.9461518 C63.4118519,24.477016 67.9207407,24.477016 68.4511111,24.2122406 C70.8385185,23.4252692 77.2044444,18.1591805 77.4688889,12.3635408 C77.4688889,6.56790123 74.8162963,-1.06645653 63.677037,0.779616496 Z" id="Path" fill="#212121" fill-rule="nonzero"></path>
                            <path d="M75.0822222,5.51615445 C71.6333333,3.41266089 67.9207407,6.83267665 68.7162963,10.7822432 C68.9822222,11.8413449 69.5125926,13.680063 69.777037,14.7318098 C70.3081481,18.4239559 65.5340741,24.477016 67.3903704,24.477016 C69.2466667,24.477016 72.6948148,21.3217757 74.2859259,19.2109272 C78.7948148,13.680063 77.2044444,6.83267665 75.0822222,5.51615445 Z" id="Path" fill="#212121" fill-rule="nonzero"></path>
                            <path d="M77.4688889,3.93485684 C74.0214815,3.93485684 72.96,6.56790123 72.96,9.99527187 C72.96,13.4152876 74.2859259,16.0556869 77.4688889,16.0556869 C80.917037,16.0556869 83.5696296,13.4152876 83.5696296,9.99527187 C83.5696296,6.56790123 80.917037,3.93485684 77.4688889,3.93485684 Z" id="Path" fill="#212121" fill-rule="nonzero"></path>
                            <path d="M38.7459259,169.059102 C37.9496296,169.316522 36.8888889,169.581298 35.8288889,169.581298 C34.7674074,169.581298 33.7066667,169.316522 32.9103704,169.059102 C32.9103704,170.110848 32.6459259,171.427371 31.8503704,172.214342 C30.5237037,173.266089 26.5451852,175.641713 23.6281481,176.693459 C22.8318519,176.958235 22.0362963,177.22301 21.5059259,177.22301 C21.2414815,177.745206 21.7711111,178.009982 22.3022222,178.009982 C24.4237037,178.796953 26.5451852,178.274757 28.6674074,178.274757 C31.0540741,178.009982 33.7066667,177.745206 36.0933333,177.745206 C37.1548148,177.745206 38.4807407,177.745206 39.0111111,176.693459 C39.5414815,175.899133 39.2762963,175.112162 39.0111111,174.32519 C38.7459259,172.479117 38.7459259,170.89782 38.7459259,169.059102 Z" id="Path" fill="#FFF3E0"></path>
                            <path d="M38.7459259,169.059102 C37.9496296,169.316522 36.8888889,169.581298 35.8288889,169.581298 C34.7674074,173.530864 30.5237037,176.428684 26.5451852,176.693459 C25.4844444,176.693459 24.6888889,176.693459 23.6281481,176.428684 L23.3622222,176.428684 C22.5674074,176.693459 21.7711111,176.958235 21.2414815,176.958235 C20.9755556,177.480431 21.5059259,177.745206 22.0362963,177.745206 C24.1585185,178.539532 26.2807407,178.009982 28.4014815,178.009982 C30.7896296,177.745206 33.4407407,177.480431 35.8288889,177.480431 C36.8888889,177.480431 38.2155556,177.480431 38.7459259,176.428684 C39.2762963,175.641713 39.0111111,174.847386 38.7459259,174.060415 L38.7459259,169.059102 Z" id="Path" fill="#FFF3E0"></path>
                            <path d="M39.0111111,173.008668 C38.2155556,172.479117 33.9718519,175.899133 28.6674074,175.899133 C28.6674074,175.112162 28.137037,174.060415 27.0755556,174.32519 C24.9540741,175.112162 20.9755556,176.428684 20.4451852,176.693459 C19.1192593,177.22301 19.6496296,179.591279 20.4451852,179.591279 L28.4014815,179.591279 C29.9933333,179.591279 32.38,178.274757 34.7674074,178.274757 C37.4192593,178.274757 38.2155556,178.274757 38.7459259,178.009982 C41.1325926,176.958235 40.3377778,174.060415 39.0111111,173.008668 Z" id="Path" fill="#FF9800"></path>
                            <path d="M31.8503704,177.480431 C28.6674074,178.009982 24.9540741,178.796953 21.5059259,178.274757 C20.7103704,178.274757 20.18,177.745206 19.9148148,177.22301 C19.1192593,178.009982 19.6496296,179.856055 20.4451852,179.856055 L28.4014815,179.856055 C29.9933333,179.856055 32.38,178.539532 34.7674074,178.539532 C37.4192593,178.539532 38.2155556,178.539532 38.7459259,178.274757 C40.6022222,177.480431 40.6022222,175.899133 40.0718519,174.589966 C37.4192593,175.899133 35.0325926,176.958235 31.8503704,177.480431 Z" id="Path" fill="#FF9800"></path>
                            <path d="M33.9718519,179.856055 L39.0111111,179.856055 L40.3377778,176.693459 L34.5022222,178.539532 C34.5022222,179.061728 33.9718519,179.856055 33.9718519,179.856055 Z" id="Path" fill="#FF9800"></path>
                            <path d="M37.1951967,169.022162 C37.1951967,169.7728 37.9469967,169.7728 37.1951967,169.022162 C37.9469967,169.7728 37.1951967,169.022162 37.1951967,169.022162 Z" id="Path" fill="#D0AECF" fill-rule="nonzero"></path>
                            <path d="M70.3081481,166.683478 C70.3081481,166.426057 64.4733333,164.84476 64.4733333,166.683478 C64.4733333,168.264775 64.7377778,170.89782 63.4118519,172.214342 C61.8207407,173.79564 55.72,176.958235 52.802963,177.22301 C52.537037,177.745206 53.0681481,178.009982 53.5985185,178.009982 C55.72,178.796953 57.8422222,178.274757 59.9644444,178.274757 C62.3511111,178.009982 65.0037037,177.745206 67.3903704,177.745206 C68.4511111,177.745206 69.777037,177.745206 70.3081481,176.693459 C70.8385185,175.899133 70.5725926,175.112162 70.3081481,174.32519 C70.3081481,171.684791 70.5725926,169.316522 70.3081481,166.683478 Z" id="Path" fill="#FFF3E0" fill-rule="nonzero"></path>
                            <path d="M70.3081481,166.683478 C70.3081481,166.426057 68.9822222,166.161282 67.6562963,165.896506 C67.6562963,166.161282 67.9207407,166.161282 67.9207407,166.426057 C70.042963,171.949567 65.2681481,176.163909 60.76,178.274757 C63.1466667,178.009982 65.5340741,178.009982 67.6562963,178.009982 C68.7162963,178.009982 70.042963,178.009982 70.5725926,176.958235 C71.1037037,176.163909 70.8385185,175.376937 70.5725926,174.589966 C70.3081481,171.684791 70.5725926,169.316522 70.3081481,166.683478 Z" id="Path" fill="#FFF3E0" fill-rule="nonzero"></path>
                            <path d="M70.5725926,173.266089 C69.777037,172.743893 65.5340741,176.163909 60.2288889,176.163909 C60.2288889,175.376937 59.6985185,174.32519 58.6377778,174.589966 C56.5155556,175.376937 52.537037,176.693459 52.0066667,176.958235 C50.6807407,177.480431 51.2118519,179.856055 52.0066667,179.856055 L59.9644444,179.856055 C61.5548148,179.856055 63.942963,178.539532 66.3296296,178.539532 C68.9822222,178.539532 69.777037,178.539532 70.3081481,178.274757 C72.96,177.22301 71.8992593,174.060415 70.5725926,173.266089 Z" id="Path" fill="#FF9800" fill-rule="nonzero"></path>
                            <path d="M66.3296296,176.958235 C64.4733333,176.958235 58.902963,177.745206 57.8422222,178.009982 C56.5155556,178.274757 54.9251852,178.274757 53.5985185,178.009982 C52.802963,177.745206 52.2725926,177.480431 51.7422222,177.22301 C50.9459259,178.009982 51.477037,179.856055 52.2725926,179.856055 L60.2288889,179.856055 C61.8207407,179.856055 64.2074074,178.539532 66.5940741,178.539532 C69.2466667,178.539532 70.042963,178.539532 70.5725926,178.274757 C72.6948148,177.480431 72.4296296,175.376937 71.6333333,174.060415 C70.3081481,175.899133 68.4511111,176.958235 66.3296296,176.958235 Z" id="Path" fill="#FF9800" fill-rule="nonzero"></path>
                            <path d="M72.96,84.2574205 L52.0066667,86.1034936 C52.0066667,86.1034936 56.2511111,124.025217 58.6377778,133.770423 C60.2288889,140.353034 63.677037,171.684791 63.677037,171.684791 C67.1259259,172.743893 71.3688889,171.684791 71.3688889,171.684791 C71.3688889,171.684791 72.96,145.883898 72.4296296,139.293932 C71.8992593,132.711321 69.5125926,129.291305 70.3081481,117.700026 C70.8385185,106.116102 72.96,84.2574205 72.96,84.2574205 Z" id="Path" fill="#1A237E" fill-rule="nonzero"></path>
                            <path d="M72.96,84.2574205 L61.5548148,85.3091673 C61.5548148,85.3091673 61.8207407,104.270029 62.8814815,107.432624 C65.5340741,116.118729 63.942963,126.393486 63.942963,132.711321 C63.942963,135.873916 64.4733333,143.250854 65.7992593,145.619123 C69.777037,153.518256 68.1859259,162.469136 67.3903704,172.214342 C69.5125926,172.214342 71.3688889,171.684791 71.3688889,171.684791 C71.3688889,171.684791 72.96,145.883898 72.4296296,139.293932 C71.8992593,132.711321 69.5125926,129.291305 70.3081481,117.700026 C70.8385185,106.116102 72.96,84.2574205 72.96,84.2574205 Z" id="Path" fill="#1A237E" fill-rule="nonzero"></path>
                            <path d="M43.7851852,87.1552403 C42.4585185,95.0543735 32.1155556,159.313895 31.0540741,171.162595 C33.1762963,173.008668 37.1548148,172.743893 39.2762963,171.949567 C44.5807407,149.833465 52.0066667,140.088258 51.2118519,129.291305 C50.9459259,126.393486 64.7377778,94.0026267 66.0637037,90.5752561 C66.5940741,89.2587339 66.86,87.6774363 66.5940741,86.3609141 C60.4948148,88.736538 43.7851852,87.1552403 43.7851852,87.1552403 Z" id="Path" fill="#1A237E" fill-rule="nonzero"></path>
                            <path d="M55.9859259,89.0013134 C56.5155556,91.8917783 56.2511111,94.2674022 54.3948148,97.165222 C53.3333333,99.0039401 51.7422222,100.063042 50.4162963,101.90176 C48.8244444,104.534804 48.5592593,107.6974 47.7637037,110.859995 C46.702963,115.331757 47.2333333,129.02653 46.1718519,133.770423 C45.1111111,137.719989 41.1325926,145.619123 39.2762963,149.303914 C37.4192593,153.25348 37.6851852,156.680851 36.8888889,160.895193 C36.3592593,164.050433 36.0933333,169.316522 34.7674074,172.743893 C36.3592593,173.266089 37.9496296,172.479117 39.2762963,172.214342 C44.5807407,150.090885 52.0066667,140.353034 51.2118519,129.556081 C50.9459259,126.658261 64.7377778,94.2674022 66.0637037,90.8400315 C66.5940741,89.5235093 66.86,87.9422117 66.5940741,86.6256895 C64.4733333,87.1552403 60.2288889,88.2069871 55.9859259,89.0013134 Z" id="Path" fill="#1A237E" fill-rule="nonzero"></path>
                            <path d="M66.3296296,28.9561334 C61.0244444,27.9043867 59.4340741,29.4856843 55.1896296,32.1113738 C50.9459259,34.751773 43.7851852,44.4969792 43.7851852,47.916995 C43.7851852,52.9183084 45.1111111,54.7643814 45.1111111,57.1326504 C45.1111111,63.9800368 41.9288889,74.2474389 41.9288889,88.736538 C47.2333333,90.5752561 69.2466667,90.5752561 74.0214815,87.4200158 C73.4911111,85.0443919 70.8385185,56.345679 70.8385185,55.0291568 C71.1037037,38.7013396 72.1644444,30.0078802 66.3296296,28.9561334 Z" id="Path" fill="#FF9800" fill-rule="nonzero"></path>
                            <path d="M66.3296296,28.9561334 C64.4733333,28.4265826 60.76,35.8035198 61.5548148,38.1717888 C63.942963,46.070922 62.6162963,59.5009194 62.0851852,64.7670081 C61.8207407,67.6648279 66.0637037,71.356974 66.0637037,75.0417652 C66.0637037,80.8374048 61.2903704,83.2056738 61.2903704,89.7882847 C66.86,89.5235093 71.8992593,88.736538 73.7555556,87.4200158 C73.2251852,85.0443919 70.5725926,56.345679 70.5725926,55.0291568 C71.1037037,38.7013396 72.4296296,30.8022065 66.3296296,28.9561334 Z" id="Path" fill="#FF9800" fill-rule="nonzero"></path>
                            <path d="M65.5340741,179.856055 L70.5725926,179.856055 L71.8992593,176.693459 L66.0637037,178.274757 C66.0637037,179.061728 65.5340741,179.856055 65.5340741,179.856055 Z" id="Path" fill="#FF9800" fill-rule="nonzero"></path>
                            <path d="M54.3948148,33.4352509 C45.377037,38.7013396 37.4192593,45.0191752 34.5022222,46.3356974 L37.6851852,52.6608878 C44.8466667,51.3370108 54.1288889,46.6004728 59.9644444,43.1731022 C62.6162963,41.5991594 63.4118519,38.4365642 62.0851852,35.8035198 C60.76,32.9057 57.0459259,31.8539532 54.3948148,33.4352509 Z" id="Path" fill="#FF9800"></path>
                            <path d="M36.8888889,46.070922 C29.462963,45.2839506 13.0192593,42.1213554 12.4881481,41.0696086 C11.4274074,38.9661151 10.1014815,37.9070134 8.24444444,37.120042 C6.65407407,36.3257158 7.71407407,38.4365642 5.59185185,37.9070134 C4.26592593,37.642238 0.818518519,36.0682952 0.553333333,36.3257158 C0.022962963,37.120042 1.0837037,37.642238 2.14444444,38.1717888 C1.61333333,38.7013396 1.61333333,39.488311 2.40962963,39.7530864 C2.14444444,40.5400578 2.40962963,41.334384 2.94,41.5991594 C2.40962963,42.6509062 3.20518519,43.1731022 4.53185185,43.702653 C6.12222222,44.2322038 8.24444444,45.2839506 12.2237037,46.3356974 C17.5274074,47.916995 34.7674074,54.7643814 38.7459259,52.131337 C40.3377778,51.0795902 39.5414815,46.3356974 36.8888889,46.070922 Z" id="Path" fill="#FFF3E0"></path>
                            <path d="M37.9496296,45.2839506 C30.5237037,44.4969792 21.2414815,44.2322038 17.5274074,42.6509062 C17.2622222,42.6509062 16.997037,42.3861308 16.997037,42.3861308 C16.7325926,43.9674284 15.9362963,47.1226688 14.8755556,48.4465458 C20.18,50.0204886 35.0325926,55.0291568 39.2762963,52.3961124 C40.8681481,51.3370108 40.3377778,45.548726 37.9496296,45.2839506 Z" id="Path" fill="#FF9800"></path>
                            <path d="M63.1466667,32.9057 C63.1466667,33.1704754 61.0244444,35.8035198 61.0244444,35.8035198 C55.9859259,41.5991594 47.2333333,45.0191752 40.0718519,47.6522196 C39.8066667,47.6522196 39.5414815,47.916995 39.5414815,47.916995 C39.0111111,48.1817704 36.6237037,48.9687418 36.0933333,48.9687418 C29.1977778,50.5500394 22.5674074,49.4982926 16.2022222,45.8061466 C15.9362963,46.8652482 15.4059259,47.6522196 15.1407407,48.1817704 C20.4451852,49.7557132 35.2985185,54.7643814 39.5414815,52.131337 C46.437037,50.5500394 54.9251852,46.070922 60.2288889,42.9156816 C62.8814815,41.334384 63.677037,38.1717888 62.3511111,35.5387444 C62.0851852,35.273969 63.4118519,33.1704754 63.1466667,32.9057 Z" id="Path" fill="#FF9800"></path>
                            <path d="M5.06222222,34.2222222 C4.7962963,35.273969 5.32740741,36.3257158 6.65407407,36.8552666 C7.1837037,37.9070134 7.97925926,38.7013396 8.77481481,38.9661151 L11.1614815,39.2235356 L7.97925926,36.0682952 C7.44888889,35.5387444 6.65407407,35.273969 5.06222222,34.2222222 Z" id="Path" fill="#FFF3E0"></path>
                        </g>
                    </g>
                </g>
            </g>
        </g>
    </g>
</svg>