<?xml version="1.0" encoding="UTF-8"?>
<svg width="1423px" height="514px" viewBox="0 0 1423 514" version="1.1" xmlns="http://www.w3.org/2000/svg" xmlns:xlink="http://www.w3.org/1999/xlink">
    <!-- Generator: Sketch 64 (93537) - https://sketch.com -->
    <title>Artwork</title>
    <desc>Created with Sketch.</desc>
    <defs>
        <linearGradient x1="50%" y1="0%" x2="50%" y2="100%" id="linearGradient-1">
            <stop stop-color="#C5CAE9" offset="0%"></stop>
            <stop stop-color="#304FFE" offset="100%"></stop>
        </linearGradient>
        <linearGradient x1="0.884854235%" y1="89.8571288%" x2="98.0227254%" y2="11.4625557%" id="linearGradient-2">
            <stop stop-color="#FFE0B2" stop-opacity="0" offset="0%"></stop>
            <stop stop-color="#FF9800" offset="100%"></stop>
        </linearGradient>
        <linearGradient x1="98.1339221%" y1="12.7450591%" x2="0.757085922%" y2="88.5528517%" id="linearGradient-3">
            <stop stop-color="#FF9800" offset="0%"></stop>
            <stop stop-color="#FFE0B2" offset="100%"></stop>
        </linearGradient>
        <linearGradient x1="23.8028164%" y1="22.9126526%" x2="73.7947557%" y2="77.2254174%" id="linearGradient-4">
            <stop stop-color="#304FFE" offset="0%"></stop>
            <stop stop-color="#B3E5FC" offset="100%"></stop>
        </linearGradient>
        <linearGradient x1="188.415163%" y1="19.9186308%" x2="-34.8080894%" y2="68.2828162%" id="linearGradient-5">
            <stop stop-color="#304FFE" offset="0%"></stop>
            <stop stop-color="#C5CAE9" offset="100%"></stop>
        </linearGradient>
        <linearGradient x1="6230.88725%" y1="-4934.09206%" x2="-2897.72275%" y2="2182.62794%" id="linearGradient-6">
            <stop stop-color="#FF9800" offset="0%"></stop>
            <stop stop-color="#FDD0CD" offset="100%"></stop>
        </linearGradient>
        <linearGradient x1="1385.10484%" y1="-659.512754%" x2="-7744.63516%" y2="6458.05725%" id="linearGradient-7">
            <stop stop-color="#504BC5" offset="0%"></stop>
            <stop stop-color="#827CEF" offset="100%"></stop>
        </linearGradient>
        <linearGradient x1="10.1950362%" y1="36.2600205%" x2="92.339086%" y2="61.5057291%" id="linearGradient-8">
            <stop stop-color="#FF9800" offset="0%"></stop>
            <stop stop-color="#FFE0B2" offset="100%"></stop>
        </linearGradient>
        <linearGradient x1="98.9654333%" y1="47.9806034%" x2="2.51176566%" y2="52.700563%" id="linearGradient-9">
            <stop stop-color="#0BABF4" offset="0%"></stop>
            <stop stop-color="#B0E4FB" offset="100%"></stop>
        </linearGradient>
        <linearGradient x1="67.7309149%" y1="88.0514551%" x2="14.8112398%" y2="27.632762%" id="linearGradient-10">
            <stop stop-color="#F48900" offset="0%"></stop>
            <stop stop-color="#FFE0B2" offset="100%"></stop>
        </linearGradient>
    </defs>
    <g id="Landing" stroke="none" stroke-width="1" fill="none" fill-rule="evenodd">
        <g transform="translate(0.000000, -2898.000000)" id="Benefit">
            <g transform="translate(-31.000000, 2859.000000)">
                <g id="Artwork" transform="translate(0.000000, 39.000000)">
                    <g id="Group-7" opacity="0.143740699" transform="translate(1012.000000, 110.000000)">
                        <path d="M48.5013161,0 C52.0888844,0 55,2.9084835 55,6.49868394 C55,10.0888844 52.0888844,13 48.5013161,13 C44.9111156,13 42,10.0888844 42,6.49868394 C42,2.9084835 44.9111156,0 48.5013161,0 Z" id="Path" fill="#FFFFFF"></path>
                        <path d="M12.4986839,107 C16.0888844,107 19,109.908483 19,113.498684 C19,117.088884 16.0888844,120 12.4986839,120 C8.91111561,120 6,117.088884 6,113.498684 C6,109.908483 8.91111561,107 12.4986839,107 Z" id="Path" fill="#FFFFFF"></path>
                        <path d="M150.501316,28 C154.091517,28 157,30.9090725 157,34.5 C157,38.0909275 154.091517,41 150.501316,41 C146.911116,41 144,38.0909275 144,34.5 C144,30.9090725 146.911116,28 150.501316,28 Z" id="Path" fill="#B0E4FB"></path>
                        <path d="M155,148 C157.762829,148 160,150.2403 160,153 C160,155.762829 157.762829,158 155,158 C152.2403,158 150,155.762829 150,153 C150,150.2403 152.2403,148 155,148 Z" id="Path" fill="#FF9800"></path>
                        <path d="M90,120 C92.7596996,120 95,122.237872 95,124.998435 C95,127.762128 92.7596996,130 90,130 C87.2371715,130 85,127.762128 85,124.998435 C85,122.237872 87.2371715,120 90,120 Z" id="Path" fill="#FFFFFF"></path>
                        <path d="M138.998435,227 C141.762128,227 144,229.2403 144,232 C144,234.762829 141.762128,237 138.998435,237 C136.237872,237 134,234.762829 134,232 C134,229.2403 136.237872,227 138.998435,227 Z" id="Path" fill="#FFFFFF"></path>
                        <path d="M215,117 C217.7597,117 220,119.237171 220,122 C220,124.7597 217.7597,127 215,127 C212.237171,127 210,124.7597 210,122 C210,119.237171 212.237171,117 215,117 Z" id="Path" fill="#FFFFFF"></path>
                        <path d="M357,25 C359.7597,25 362,27.2403004 362,30 C362,32.7628285 359.7597,35 357,35 C354.237171,35 352,32.7628285 352,30 C352,27.2403004 354.237171,25 357,25 Z" id="Path" fill="#FFFFFF"></path>
                        <path d="M125.998435,305 C128.762128,305 131,307.2403 131,310 C131,312.7597 128.762128,315 125.998435,315 C123.237872,315 121,312.7597 121,310 C121,307.2403 123.237872,305 125.998435,305 Z" id="Path" fill="#FFFFFF"></path>
                        <path d="M437.001565,120 C439.762128,120 442,122.237872 442,125.001565 C442,127.762128 439.762128,130 437.001565,130 C434.237872,130 432,127.762128 432,125.001565 C432,122.237872 434.237872,120 437.001565,120 Z" id="Path" fill="#FFFFFF"></path>
                        <path d="M330.001565,227 C332.762128,227 335,229.2403 335,232 C335,234.762829 332.762128,237 330.001565,237 C327.237872,237 325,234.762829 325,232 C325,229.2403 327.237872,227 330.001565,227 Z" id="Path" fill="#FFFFFF"></path>
                        <path d="M419,246 C421.7597,246 424,248.237872 424,251.001565 C424,253.762128 421.7597,256 419,256 C416.237171,256 414,253.762128 414,251.001565 C414,248.237872 416.237171,246 419,246 Z" id="Path" fill="#FFFFFF"></path>
                        <polygon id="Path" fill="#FF9800" points="0 243 6 243 6 249 0 249"></polygon>
                        <polygon id="Path" fill="#B0E4FB" points="398 182 404 182 404 188 398 188"></polygon>
                        <polygon id="Path" fill="#FFFFFF" points="216.5 193 219.751477 197.998725 223 203 210 203 213.248523 197.998725"></polygon>
                        <polygon id="Path" fill="#FFFFFF" points="307.5 319 314 329 301 329"></polygon>
                        <polygon id="Path" fill="#FFFFFF" points="27.4985237 347 34 357 21 357"></polygon>
                        <polygon id="Path" fill="#FF9800" points="418 320 424 320 424 326 418 326"></polygon>
                        <polygon id="Path" fill="#03A9F4" points="282 391 288 391 288 397 282 397"></polygon>
                        <polygon id="Path" fill="#FFFFFF" points="298 188 304 188 304 194 298 194"></polygon>
                        <polygon id="Path" fill="#FFFFFF" points="355.498524 387 362 397 349 397"></polygon>
                        <polygon id="Path" fill="#304FFE" points="246 274 252 274 252 280 246 280"></polygon>
                        <path d="M216.498684,345 C220.088884,345 223,347.911116 223,351.498684 C223,355.088884 220.088884,358 216.498684,358 C212.911116,358 210,355.088884 210,351.498684 C210,347.911116 212.911116,345 216.498684,345 Z" id="Path" fill="#FF9800"></path>
                        <path d="M91.9984351,394 C94.7621283,394 97,396.2403 97,399 C97,401.7597 94.7621283,404 91.9984351,404 C89.2378717,404 87,401.7597 87,399 C87,396.2403 89.2378717,394 91.9984351,394 Z" id="Path" fill="#FFFFFF"></path>
                        <path d="M200.001565,249 C202.762128,249 205,251.237872 205,254.001565 C205,256.762128 202.762128,259 200.001565,259 C197.237872,259 195,256.762128 195,254.001565 C195,251.237872 197.237872,249 200.001565,249 Z" id="Path" fill="#FFFFFF"></path>
                        <polygon id="Path" fill="#FFFFFF" points="76 281 82 281 82 287 76 287"></polygon>
                        <polygon id="Path" fill="#FF9800" points="343.501476 126 350 136 337 136 340.250738 131"></polygon>
                        <polygon id="Path" fill="#FFFFFF" points="134 378 140 378 140 384 134 384"></polygon>
                        <polygon id="Path" fill="#FFE0B2" points="350 299 356 299 356 305 350 305"></polygon>
                        <polygon id="Path" fill="#FFFFFF" points="82.5014763 178 85.7492619 183 89 188 76 188 79.2507381 183"></polygon>
                        <polygon id="Path" fill="#FFE0B2" points="100.5 55 107 65 94 65"></polygon>
                        <polygon id="Path" fill="#304FFE" points="298 90 304 90 304 96 298 96"></polygon>
                        <polygon id="Path" fill="#FFFFFF" points="266.5 15 269.751477 20 273 25 260 25 263.248523 20"></polygon>
                    </g>
                    <g id="Group-3" transform="translate(1222.000000, 20.000000)">
                        <ellipse id="Oval" fill="#B3E5FC" cx="23" cy="15.5" rx="16" ry="15.5"></ellipse>
                        <path d="M23.9630223,28.2143515 C18.3250418,29.3963095 -9.96278841,33.728654 3.67679766,22.246905 C4.36051296,21.6721419 4.9284952,21.5703421 5.80717619,21.6108818 C10.2860456,21.8144813 13.5212297,21.655926 20.2925038,20.236135 C27.2088895,18.784813 33.2172157,15.968654 38.2115423,12.161524 C38.8525254,11.6714438 39.1890415,11.5336088 39.9947217,11.4309082 C67.2890281,7.93908711 30.8322244,26.7729393 23.9630223,28.2143515 Z" id="Path" fill="url(#linearGradient-1)"></path>
                    </g>
                    <g id="Group-8" transform="translate(1364.000000, 422.000000)">
                        <ellipse id="Oval" fill="#B3E5FC" cx="35.5" cy="34" rx="35.5" ry="34"></ellipse>
                        <circle id="Oval" fill="#304FFE" cx="16.5" cy="20.5" r="3.5"></circle>
                        <ellipse id="Oval" fill="#304FFE" cx="47" cy="37.5" rx="7" ry="6.5"></ellipse>
                        <ellipse id="Oval" fill="#304FFE" cx="30" cy="51.5" rx="10" ry="8.5"></ellipse>
                    </g>
                    <g id="Group-6" opacity="0.0991675967" transform="translate(62.000000, 35.000000)">
                        <path d="M52.0014173,0 C55.8649524,0 59,3.132213 59,6.99858271 C59,10.8649524 55.8649524,14 52.0014173,14 C48.1350476,14 45,10.8649524 45,6.99858271 C45,3.132213 48.1350476,0 52.0014173,0 Z" id="Path" fill="#FFFFFF"></path>
                        <path d="M13.0014173,119 C16.867787,119 20,122.132213 20,125.998583 C20,129.864952 16.867787,133 13.0014173,133 C9.13504758,133 6,129.864952 6,125.998583 C6,122.132213 9.13504758,119 13.0014173,119 Z" id="Path" fill="#FFFFFF"></path>
                        <path d="M162.001417,31 C165.867787,31 169,34.1328473 169,38 C169,41.8671527 165.867787,45 162.001417,45 C158.135048,45 155,41.8671527 155,38 C155,34.1328473 158.135048,31 162.001417,31 Z" id="Path" fill="#B0E4FB"></path>
                        <path d="M168.498279,164 C171.538341,164 174,166.46433 174,169.5 C174,172.539111 171.538341,175 168.498279,175 C165.461659,175 163,172.539111 163,169.5 C163,166.46433 165.461659,164 168.498279,164 Z" id="Path" fill="#FF9800"></path>
                        <path d="M96.5,133 C99.5356696,133 102,135.461659 102,138.498279 C102,141.538341 99.5356696,144 96.5,144 C93.4608886,144 91,141.538341 91,138.498279 C91,135.461659 93.4608886,133 96.5,133 Z" id="Path" fill="#FFFFFF"></path>
                        <path d="M151.5,253 C154.53567,253 157,255.46433 157,258.5 C157,261.539111 154.53567,264 151.5,264 C148.460889,264 146,261.539111 146,258.5 C146,255.46433 148.460889,253 151.5,253 Z" id="Path" fill="#FFFFFF"></path>
                        <path d="M236.5,131 C239.53567,131 242,133.460889 242,136.5 C242,139.53567 239.53567,142 236.5,142 C233.46433,142 231,139.53567 231,136.5 C231,133.460889 233.46433,131 236.5,131 Z" id="Path" fill="#FFFFFF"></path>
                        <path d="M397.5,29 C400.53567,29 403,31.4643304 403,34.5 C403,37.5391114 400.53567,40 397.5,40 C394.46433,40 392,37.5391114 392,34.5 C392,31.4643304 394.46433,29 397.5,29 Z" id="Path" fill="#FFFFFF"></path>
                        <path d="M141.498279,340 C144.538341,340 147,342.46433 147,345.5 C147,348.53567 144.538341,351 141.498279,351 C138.461659,351 136,348.53567 136,345.5 C136,342.46433 138.461659,340 141.498279,340 Z" id="Path" fill="#FFFFFF"></path>
                        <path d="M483.5,133 C486.53567,133 489,135.461659 489,138.501721 C489,141.538341 486.53567,144 483.5,144 C480.460889,144 478,141.538341 478,138.501721 C478,135.461659 480.460889,133 483.5,133 Z" id="Path" fill="#FFFFFF"></path>
                        <path d="M363.5,253 C366.53567,253 369,255.46433 369,258.5 C369,261.539111 366.53567,264 363.5,264 C360.460889,264 358,261.539111 358,258.5 C358,255.46433 360.460889,253 363.5,253 Z" id="Path" fill="#FFFFFF"></path>
                        <path d="M463.5,274 C466.53567,274 469,276.461659 469,279.501721 C469,282.538341 466.53567,285 463.5,285 C460.460889,285 458,282.538341 458,279.501721 C458,276.461659 460.460889,274 463.5,274 Z" id="Path" fill="#FFFFFF"></path>
                        <polygon id="Path" fill="#FF9800" points="0 270 6 270 6 276 0 276"></polygon>
                        <polygon id="Path" fill="#B0E4FB" points="443 203 449 203 449 209 443 209"></polygon>
                        <polygon id="Path" fill="#FFFFFF" points="241 215 244.50159 220.498597 248 226 234 226 237.49841 220.498597"></polygon>
                        <polygon id="Path" fill="#FFFFFF" points="341.99841 355 349 366 335 366"></polygon>
                        <polygon id="Path" fill="#FFFFFF" points="30.9984102 386 38 397 24 397"></polygon>
                        <polygon id="Path" fill="#FF9800" points="460 357 466 357 466 363 460 363"></polygon>
                        <polygon id="Path" fill="#03A9F4" points="315 435 321 435 321 441 315 441"></polygon>
                        <polygon id="Path" fill="#FFFFFF" points="332 209 338 209 338 215 332 215"></polygon>
                        <polygon id="Path" fill="#FFFFFF" points="391.99841 430 399 441 385 441"></polygon>
                        <polygon id="Path" fill="#304FFE" points="274 305 280 305 280 311 274 311"></polygon>
                        <path d="M241.001417,383 C244.867787,383 248,386.135048 248,389.998583 C248,393.864952 244.867787,397 241.001417,397 C237.135048,397 234,393.864952 234,389.998583 C234,386.135048 237.135048,383 241.001417,383 Z" id="Path" fill="#FF9800"></path>
                        <path d="M100.501721,438 C103.538341,438 106,440.46433 106,443.5 C106,446.53567 103.538341,449 100.501721,449 C97.4616588,449 95,446.53567 95,443.5 C95,440.46433 97.4616588,438 100.501721,438 Z" id="Path" fill="#FFFFFF"></path>
                        <path d="M222.501721,276 C225.538341,276 228,278.461659 228,281.501721 C228,284.538341 225.538341,287 222.501721,287 C219.461659,287 217,284.538341 217,281.501721 C217,278.461659 219.461659,276 222.501721,276 Z" id="Path" fill="#FFFFFF"></path>
                        <polygon id="Path" fill="#FFFFFF" points="82 312 88 312 88 318 82 318"></polygon>
                        <polygon id="Path" fill="#FF9800" points="383.00159 139 390 150 376 150 379.500795 144.5"></polygon>
                        <polygon id="Path" fill="#FFFFFF" points="149 421 155 421 155 427 149 427"></polygon>
                        <polygon id="Path" fill="#FFE0B2" points="390 333 396 333 396 339 390 339"></polygon>
                        <polygon id="Path" fill="#FFFFFF" points="93.0015898 198 96.4992051 203.5 100 209 86 209 89.5007949 203.5"></polygon>
                        <polygon id="Path" fill="#FFE0B2" points="112.99841 61 120 72 106 72"></polygon>
                        <polygon id="Path" fill="#304FFE" points="332 101 338 101 338 107 332 107"></polygon>
                        <polygon id="Path" fill="#FFFFFF" points="292.99841 17 296.499205 22.5 300 28 286 28 289.497615 22.5"></polygon>
                    </g>
                    <g id="Group" transform="translate(0.000000, 211.000000)">
                        <path d="M0.951919014,164.610954 C7.10643536,171.648648 41.4202836,151.253501 77.5920633,119.057387 C95.5261304,103.096217 105.840591,91.4196938 110.934246,82.8465716 C116.115198,74.1260331 115.895055,68.6141932 112.790279,65.0666284 C109.687401,61.517149 104.293896,60.6096769 95.0725598,64.7086172 C86.0049437,68.7405501 73.236647,77.6104195 55.3044778,93.5715896 C19.1308003,125.769618 -5.20259733,157.573259 0.951919014,164.610954 Z" id="Oval" fill="url(#linearGradient-2)"></path>
                        <path d="M11.7752831,154.885785 C16.7408429,160.481646 44.2150379,144.452409 73.1389481,119.084761 C87.4800936,106.508731 95.7198788,97.2989171 99.7779398,90.5286636 C103.906394,83.64116 103.708532,79.2745356 101.204825,76.4548574 C98.7011172,73.6332881 94.3671918,72.8938554 86.9778301,76.1087802 C79.7140342,79.2669711 69.4937326,86.2471402 55.1544896,98.8231697 C26.2305794,124.190818 6.80782079,149.291816 11.7752831,154.885785 Z" id="Oval_0" fill="url(#linearGradient-3)"></path>
                        <path d="M95.2919224,51.3062551 C92.8120795,48.4799102 75.6509698,51.7360247 65.3640069,69 C65.0598576,68.6565597 64,67.4460733 64,67.4460733 C64.7351829,57.3305361 87.3467223,13.1149411 102,36.9699678 C101.490597,41.203855 95.2919224,51.3062551 95.2919224,51.3062551 Z" id="path2153" fill="#B3E5FC" fill-rule="nonzero"></path>
                        <path d="M102,112.394542 C102.310402,112.748594 103.398726,113.987779 103.398726,113.987779 C113.741638,114.528479 161.424798,97.0394275 139.133314,79 C134.780017,78.9808128 123.753071,84.0337614 123.753071,84.0337614 C126.299519,86.9316062 120.804249,104.074302 102,112.394542 Z" id="path2157" fill="#B3E5FC" fill-rule="nonzero"></path>
                        <path d="M101.839,111.116 L101.789,111.06 C101.931,111.002 102.071,110.944 102.211,110.884 C102.087,110.962 101.963,111.04 101.839,111.116 Z" id="path2161" fill="#FD9B5B" fill-rule="nonzero"></path>
                        <path d="M175.521424,36 L149,6.20018509 C162.285787,4.35681872 167.374043,4.75646973 178.856373,6.58453846 C179.255641,18.1055783 179.022252,23.1614504 175.521424,36 Z" id="path2163" fill="#B3E5FC" fill-rule="nonzero"></path>
                        <path d="M176,36.4120297 C171.973615,51.1662176 164.552994,65.5784711 153.383145,75.3868889 C133.05759,93.2317108 115.655483,91.9810998 115.655483,91.9810998 C111.76388,87.5926262 101.328691,75.8213913 101.328691,75.8213913 C101.328691,75.8213913 90.8916025,64.0501563 87,59.6597936 C87,59.6597936 87.9206962,42.3231505 108.250048,24.4764395 C119.4161,14.6680216 134.711047,9.13850713 149.924365,7 L176,36.4120297 Z" id="path2165" fill="#B3E5FC" fill-rule="nonzero"></path>
                        <path d="M168.593234,59.5662415 C164.754948,66.2723172 160.062667,72.3591083 154.473222,77.3342173 C133.117711,96.3464438 114.296033,94.9809875 114.241603,94.9771998 L112.563643,94.8749327 L111.448757,93.5984867 L97.2836983,77.3967139 L83.1167629,61.1968348 L82,59.9203889 L82.1088609,58.2291928 C82.1126147,58.1742715 83.1111322,39.1828772 104.485412,20.1611815 C110.095503,15.1633465 116.657189,11.2222723 123.699365,8.2262227 C132.102302,4.65255287 139.429768,2.40456872 147.73886,1.23228381 C154.452576,0.285365469 159.129841,-0.0858265222 163.630678,0.0164406589 C168.099606,0.11870784 172.302013,0.692540356 178.112934,1.63377719 L181.729745,2.22086656 L181.855498,5.9138481 C182.058204,11.8491323 182.09762,16.1273094 181.64153,20.6157023 C181.181686,25.1343966 180.235722,29.7705089 178.465794,36.3743174 C176.277314,44.5443289 173.152255,51.6007644 168.593234,59.5662415 Z M169.509168,36.7019511 L146.299268,10.1579361 C139.645613,11.2904505 133.03325,13.1293659 126.854454,15.7561174 C120.566798,18.4302148 114.752123,21.9110866 109.840243,26.2858493 C94.5490368,39.8949598 91.1386869,52.7863061 90.3954295,57.1762196 L103.353633,71.9935978 L116.308083,86.810976 C120.713197,86.6121232 133.802784,84.8016153 149.097744,71.1849295 C154.035901,66.7893346 158.185755,61.4051569 161.582966,55.4717665 C164.935132,49.6122358 167.566563,43.220537 169.509168,36.7019511 Z M157.376805,9.19207941 L171.840293,25.732849 C172.275737,23.5492553 172.574166,21.5910282 172.769364,19.680147 C173.080932,16.6083439 173.133486,13.6028251 173.060286,9.93825106 C169.465999,9.40797679 166.504231,9.08602455 163.442986,9.0159526 C161.541674,8.97428819 159.5803,9.02920945 157.376805,9.19207941 Z" id="Shape" fill="url(#linearGradient-4)" fill-rule="nonzero"></path>
                        <path d="M147.747407,34.3981828 C152.498625,39.782118 151.984472,47.9978266 146.599008,52.7493512 C141.217296,57.4971225 133.002117,56.9848136 128.252775,51.6008784 C123.501557,46.2150666 124.015709,38.0012346 129.399297,33.2515866 C134.782885,28.5019387 142.998065,29.0161242 147.747407,34.3981828 Z" id="path2177" fill="url(#linearGradient-5)" fill-rule="nonzero"></path>
                        <path d="M120.136236,57.2390611 C121.240026,58.5263233 121.715505,61.4017914 118.877726,64.4830662 C109.526639,74.6394292 84.524369,92.5795544 83.0734034,90.8884452 C81.6224377,89.1953944 102.035958,65.9042969 112.996504,57.6196092 C116.319196,55.1091566 119.032445,55.9517988 120.136236,57.2390611 Z" id="path2183" fill="#B3E5FC" fill-rule="nonzero"></path>
                        <path d="M150.573745,32.648597 C150.931745,32.332597 150.965745,31.784597 150.649745,31.426597 C150.333745,31.068597 149.785745,31.034597 149.427745,31.350597 C149.067745,31.666597 149.033745,32.212597 149.351745,32.572597 C149.667745,32.930597 150.213745,32.966597 150.573745,32.648597 Z" id="path2187" fill="#03A9F4" fill-rule="nonzero"></path>
                        <path d="M153.280509,37.8194892 C153.734509,37.6634892 153.974509,37.1714892 153.818509,36.7194892 C153.664509,36.2674892 153.172509,36.0254892 152.718509,36.1814892 C152.266509,36.3354892 152.026509,36.8274892 152.180509,37.2814892 C152.336509,37.7314892 152.828509,37.9734892 153.280509,37.8194892 Z" id="path2189" fill="#03A9F4" fill-rule="nonzero"></path>
                        <path d="M154.946,44.8639957 C155.424,44.8939957 155.834,44.5319957 155.864,44.0539957 C155.894,43.5779957 155.532,43.1659957 155.054,43.1359957 C154.578,43.1059957 154.166,43.4699957 154.136,43.9459957 C154.106,44.4239957 154.468,44.8359957 154.946,44.8639957 Z" id="path2191" fill="#03A9F4" fill-rule="nonzero"></path>
                        <path d="M152.62,50.7771748 C153.05,50.9871748 153.566,50.8091748 153.778,50.3811748 C153.988,49.9511748 153.81,49.4331748 153.38,49.2231748 C152.952,49.0131748 152.432,49.1891748 152.222,49.6191748 C152.012,50.0491748 152.19,50.5671748 152.62,50.7771748 Z" id="path2193" fill="#03A9F4" fill-rule="nonzero"></path>
                        <path d="M147.351,55.5722549 C147.667,55.9322549 148.213,55.9662549 148.573,55.6482549 C148.931,55.3322549 148.965,54.7862549 148.649,54.4262549 C148.333,54.0682549 147.785,54.0342549 147.427,54.3502549 C147.069,54.6662549 147.035,55.2142549 147.351,55.5722549 Z" id="path2195" fill="#03A9F4" fill-rule="nonzero"></path>
                        <path d="M143.181,58.281 C143.337,58.733 143.829,58.973 144.281,58.819 C144.733,58.663 144.973,58.171 144.819,57.719 C144.663,57.267 144.171,57.027 143.719,57.181 C143.267,57.335 143.027,57.829 143.181,58.281 Z" id="path2197" fill="#03A9F4" fill-rule="nonzero"></path>
                        <path d="M136.136,57.9479956 C136.106,58.4239956 136.468,58.8339956 136.946,58.8639956 C137.424,58.8939956 137.834,58.5319956 137.864,58.0539956 C137.894,57.5759956 137.532,57.1659956 137.054,57.1359956 C136.576,57.1059956 136.166,57.4699956 136.136,57.9479956 Z" id="path2199" fill="#03A9F4" fill-rule="nonzero"></path>
                        <path d="M129.223175,56.6180231 C129.013175,57.0480231 129.189175,57.5680231 129.619175,57.7780231 C130.049175,57.9880231 130.567175,57.8100231 130.777175,57.3800231 C130.987175,56.9500231 130.809175,56.4320231 130.381175,56.2220231 C129.951175,56.0120231 129.433175,56.1900231 129.223175,56.6180231 Z" id="path2201" fill="#03A9F4" fill-rule="nonzero"></path>
                        <path d="M124.426255,52.350597 C124.068255,52.666597 124.034255,53.212597 124.350255,53.572597 C124.668255,53.930597 125.214255,53.966597 125.572255,53.648597 C125.932255,53.332597 125.966255,52.784597 125.648255,52.426597 C125.332255,52.068597 124.786255,52.034597 124.426255,52.350597 Z" id="path2203" fill="#03A9F4" fill-rule="nonzero"></path>
                        <path d="M121.718611,46.1806108 C121.266611,46.3366108 121.026611,46.8286108 121.180611,47.2806108 C121.336611,47.7326108 121.828611,47.9746108 122.280611,47.8186108 C122.732611,47.6646108 122.974611,47.1706108 122.818611,46.7186108 C122.662611,46.2666108 122.170611,46.0266108 121.718611,46.1806108 Z" id="path2205" fill="#03A9F4" fill-rule="nonzero"></path>
                        <path d="M122.054,41.135781 C121.578,41.107781 121.166,41.469781 121.136,41.947781 C121.106,42.423781 121.468,42.835781 121.946,42.863781 C122.424,42.895781 122.834,42.531781 122.864,42.055781 C122.894,41.577781 122.532,41.165781 122.054,41.135781 Z" id="path2207" fill="#03A9F4" fill-rule="nonzero"></path>
                        <path d="M124.381175,34.2226335 C123.951175,34.0126335 123.433175,34.1906335 123.223175,34.6186335 C123.013175,35.0486335 123.189175,35.5666335 123.619175,35.7786335 C124.049175,35.9866335 124.567175,35.8086335 124.777175,35.3806335 C124.987175,34.9506335 124.809175,34.4326335 124.381175,34.2226335 Z" id="path2209" fill="#03A9F4" fill-rule="nonzero"></path>
                        <path d="M127.649745,28.4279033 C127.333745,28.0679033 126.785745,28.0339033 126.427745,28.3499033 C126.067745,28.6659033 126.033745,29.2139033 126.351745,29.5739033 C126.667745,29.9319033 127.213745,29.9659033 127.573745,29.6499033 C127.931745,29.3339033 127.965745,28.7859033 127.649745,28.4279033 Z" id="path2211" fill="#03A9F4" fill-rule="nonzero"></path>
                        <path d="M134.818101,26.719 C134.664101,26.267 134.170101,26.027 133.720101,26.181 C133.266101,26.335 133.026101,26.829 133.182101,27.281 C133.336101,27.733 133.828101,27.973 134.280101,27.819 C134.732101,27.663 134.974101,27.173 134.818101,26.719 Z" id="path2213" fill="#03A9F4" fill-rule="nonzero"></path>
                        <path d="M139.863996,25.0538853 C139.893996,24.5778853 139.531996,24.1658853 139.053996,24.1358853 C138.577996,24.1058853 138.165996,24.4698853 138.135996,24.9458853 C138.105996,25.4238853 138.469996,25.8358853 138.945996,25.8638853 C139.423996,25.8958853 139.835996,25.5318853 139.863996,25.0538853 Z" id="path2215" fill="#03A9F4" fill-rule="nonzero"></path>
                        <path d="M145.778,27.38 C145.988,26.952 145.81,26.432 145.38,26.222 C144.952,26.012 144.432,26.19 144.222,26.62 C144.012,27.048 144.19,27.568 144.62,27.778 C145.048,27.988 145.568,27.81 145.778,27.38 Z" id="path2217" fill="#03A9F4" fill-rule="nonzero"></path>
                        <polygon id="path2741" fill="#FFFFFF" fill-rule="nonzero" points="198.721538 19.8805524 195.589772 15 200.117581 18.7234043 205 15.5897723 201.276596 20.1194476 204.408361 25 199.880552 21.2765957 195 24.4102277"></polygon>
                        <path d="M49.2877449,116.628159 C49.6357449,117.022159 50.2357449,117.060159 50.6297449,116.712159 C51.0217449,116.366159 51.0597449,115.764159 50.7137449,115.372159 C50.3657449,114.978159 49.7657449,114.940159 49.3717449,115.286159 C48.9777449,115.634159 48.9397449,116.234159 49.2877449,116.628159 Z" id="Path" fill="url(#linearGradient-6)"></path>
                        <path d="M149.288097,44.6297449 C149.634097,45.0217449 150.234097,45.0597449 150.628097,44.7137449 C151.022097,44.3657449 151.060097,43.7657449 150.712097,43.3717449 C150.366097,42.9777449 149.764097,42.9397449 149.370097,43.2877449 C148.978097,43.6357449 148.940097,44.2357449 149.288097,44.6297449 Z" id="path2917" fill="url(#linearGradient-7)"></path>
                    </g>
                    <g id="Group" transform="translate(97.000000, 0.000000)">
                        <path d="M73.0012393,0.950499546 C73.0285092,0.400030813 73.4972098,-0.0260285772 74.0494243,0.0012392238 C74.6016388,0.0302112624 75.0260259,0.498876592 74.9987561,1.05104956 C74.9714862,1.60151829 74.5027856,2.02757769 73.9505711,1.99860565 C73.4000609,1.97133785 72.9739695,1.50267252 73.0012393,0.950499546 Z" id="path1255" fill="#9996FF" fill-rule="nonzero"></path>
                        <path d="M90.3696666,45.9120401 C95.3666436,47.4500053 105.549318,48.1290005 105.549318,48.1290005 L123.43669,32 L126,34.2529553 C126,34.2529553 110.39696,53.8718279 107.466056,54.7078919 C104.535153,55.5455921 88,54.3152199 88,54.3152199 L90.3696666,45.9120401 Z" id="path1399" fill="#03A9F4" fill-rule="nonzero"></path>
                        <path d="M152.699394,34.0199644 L152.196725,26.5255737 C152.123521,25.4368396 151.550903,24.4277293 150.620397,23.7436143 L143.63998,18.6151891 C142.33044,17.6532031 140.410866,17.8400754 139.351847,19.031183 L113,48.7113751 L159.671677,83 L181.322194,58.6139807 C182.381214,57.4228731 182.176242,55.6760235 180.868329,54.7156626 L152.699394,34.0199644 Z" id="path1401" fill="#FFE0B2" fill-rule="nonzero"></path>
                        <path d="M149.774746,23.7530913 C149.74891,23.4587214 149.668173,23.1857303 149.543837,22.9505632 C149.424346,22.7269079 149.256412,22.5246313 149.04811,22.3651124 L142.524527,17.3049096 L142.524527,17.303265 L142.509994,17.2933979 L142.513224,17.2851753 C142.377585,17.1865038 142.211266,17.1552578 142.051406,17.1815702 C141.873783,17.2128162 141.697776,17.3213548 141.563752,17.500608 L141.562137,17.4989635 C141.521768,17.5532328 141.550834,17.5071861 141.558907,17.4956744 L141.557293,17.4956744 L141.541145,17.5186978 L119.640315,48.7580911 L160.010635,80.0714881 L177.719579,54.8099424 C177.866521,54.5994432 177.921422,54.3412528 177.889127,54.0962186 C177.861676,53.8857195 177.764792,53.6933101 177.603317,53.5699707 L151.274847,33.1466171 L150.55467,32.5891232 L150.473932,31.6698338 L149.774746,23.7530913 Z M153.141496,20.9606882 C153.53711,21.7007244 153.784166,22.5229868 153.860059,23.3781397 L154.478508,30.3772373 L180.088414,50.243097 C181.152533,51.0670039 181.787129,52.2707961 181.956678,53.5469474 C182.118153,54.7885636 181.830728,56.1124061 181.052419,57.2224603 L162.111423,84.242003 L160.87937,86 L159.201646,84.6991809 L115.577609,50.8614383 L114,49.6362674 L115.15293,47.9917425 L138.208305,15.1061799 C138.303575,14.9696843 138.263206,15.0206646 138.295501,14.9779069 L138.297116,14.9696843 C139.083498,13.918833 140.194445,13.2692457 141.371597,13.0669691 C142.564896,12.863048 143.82117,13.1212384 144.880445,13.890876 L144.883674,13.8842979 L144.999936,13.9747468 L145.00801,13.9763913 L151.533207,19.0382387 C152.196869,19.5513304 152.741039,20.2091404 153.141496,20.9606882 Z" id="Shape" fill="url(#linearGradient-8)" fill-rule="nonzero"></path>
                        <polygon id="path1405" fill="#FFFFFF" fill-rule="nonzero" points="153.500778 55 143 46.656342 145.497667 43 156 51.3453399"></polygon>
                        <polygon id="path1407" fill="#FF9800" fill-rule="nonzero" points="108.4515 73.1815 108.8185 73.4525 108.5485 73.8185 108.1815 73.5485"></polygon>
                        <polygon id="path1409" fill="#FF9800" fill-rule="nonzero" points="110.4515 73.1815 110.8185 73.4515 110.5475 73.8185 110.1815 73.5485"></polygon>
                        <polygon id="path1411" fill="#FF9800" fill-rule="nonzero" points="146.9365 49.3972999 146.4625 49 146.0635 49.6036644 146.5375 50"></polygon>
                        <path d="M123,32.2428571 C124.052277,30.5285714 123.774164,27.0809524 125.153346,26.5301587 C126.532528,25.9809524 130,25 130,25 L123.891264,33 L123,32.2428571 Z" id="path1413" fill="#FFF3E0" fill-rule="nonzero"></path>
                        <path d="M91.601835,47 C91.271573,45.410721 91.6103469,42.5142296 92.512609,41.9258323 C93.4131688,41.3359187 95.949717,42.8114611 97.0903126,41.8560739 C98.6292653,40.5685759 100.486563,37.6993813 101.353076,35.1092204 C102.616243,31.3240672 102.343862,28.4199934 97.6657175,27.2583639 C93.9528237,26.3363394 90.4033585,27.9316844 88.9001557,31.2527923 C87.2199053,34.9606046 87.8514888,39.4630564 87.0547743,40.6823125 C86.2563575,41.9015685 85,41.9986238 85,41.9986238 L91.601835,47 Z" id="path1415" fill="#FFF3E0" fill-rule="nonzero"></path>
                        <path d="M60.4912361,143.107962 C60.1147748,142.572137 60.0122426,142.429761 60,142.41139 C60,142.41139 60.6687545,140.898835 62.3995585,140.194609 C63.4891539,139.749109 63.4355923,140.151743 63.3651971,140.569686 C63.3070445,141.446906 64.753207,143.813719 65.6346775,143.447827 C65.9591076,144.093878 68.4734408,151.342815 67.9209915,151.740856 C67.0242177,152.386907 66.5299209,151.679619 66.1917178,151.197377 C62.1868425,145.514578 63.063722,146.016722 62.0062635,143.398838 C61.7369253,143.017637 60.980942,142.846173 60.4912361,143.107962 Z" id="path1417" fill="#FF9800" fill-rule="nonzero"></path>
                        <path d="M68.8175239,142.794522 C69.7795384,141.996516 68.2844076,139.095078 66.4024669,140.281024 C65.9675562,140.55391 65.4805364,140.748617 65.0015333,140.82827 L65.0015333,140.829745 C64.9253739,141.695604 67.7011863,147.940998 70,148 C69.8597062,147.185768 67.6029807,143.437647 68.8175239,142.794522 Z" id="path1419" fill="#FFF3E0" fill-rule="nonzero"></path>
                        <path d="M2.17087688,129.88643 C2.23526049,129.516759 1.87042007,128.984298 1.40900425,128.848639 C1.49842592,128.329744 1.52346399,128.192389 1.52704086,128.173736 C1.52704086,128.173736 2.85227001,127.705712 4.34918878,128.306003 C5.29169318,128.684153 5.01627444,128.879162 4.72118292,129.074172 C4.15424953,129.535412 3.62129638,131.702564 4.38853431,132.004405 C4.19717194,132.55552 1.37860089,138.092101 0.795571594,137.998835 C-0.146932812,137.847915 -0.0271077736,137.162837 0.0533717298,136.696509 C1.0048183,131.183669 1.24625681,131.972186 2.17087688,129.88643 Z" id="path1421" fill="#FF9800" fill-rule="nonzero"></path>
                        <path d="M5.39647586,131.631833 C5.84100099,131.57717 6.37869007,129.361736 5.61918206,129.26045 C5.44527602,129.237942 5.28201729,129.149518 5.15424959,129 L5.15424959,129 C4.88096867,129.450161 3.62902264,134.040193 4.10815152,135 C4.32021042,134.491961 4.94307797,131.5 5.39647586,131.631833 Z" id="path1423" fill="#FFF3E0" fill-rule="nonzero"></path>
                        <path d="M92,110.944052 C91.0442956,109.351955 69.6122563,89.6858289 59.7830909,84 C56.97991,85.4899563 45,95.853178 45,95.853178 C46.7310872,97.9754335 52.7702208,101.55522 58.4388755,103.821769 C62.7665934,105.551675 71.2761327,110.365255 76.7251229,113.51216 C73.082627,120.577698 68.3745945,131.607266 63.3370653,140.068726 C64.0894981,141.561925 65.8287817,143 65.8287817,143 C70.130271,139.167294 91.7672212,112.780962 92,110.944052 Z" id="path1425" fill="#FFE0B2" fill-rule="nonzero"></path>
                        <path d="M52.9863191,75 C51.2160184,77.0247201 48.7564679,83.4278174 47.5107007,89.2544763 C46.2649336,95.0779417 41.0835658,108.700092 39.6091148,112.653725 C33.6617361,113.712392 18.6341703,121.351399 6.2420656,125.229983 C5.79749144,126.812395 6.10133709,129 6.10133709,129 C11.7480685,129.009567 44.8640453,123.856751 46.2505409,122.665551 C47.6370366,121.475948 63.1315652,97.5593415 67,87.1594979 C65.0777765,84.7244047 52.9863191,75 52.9863191,75 Z" id="path1427" fill="#FFE0B2" fill-rule="nonzero"></path>
                        <path d="M86.2771847,65.0484094 C82.9051008,67.0637696 78.2571372,68.6219187 77.0331356,70.1701643 C75.8075129,71.7200605 68.3775801,89 68.3775801,89 C64.0279162,86.9417247 51,74.0721394 51,74.0721394 C55.1032424,71.457618 60.4240016,67.2502854 64.0830368,62.6649695 C68.1084618,57.6207919 73.4778569,44.4722584 79.9869514,41.534223 C84.7710953,39.3752622 89.5130882,44.2263217 90.730605,47.7651688 C91.6627916,50.4754239 92,59.0518462 92,59.0518462 L86.2771847,65.0484094 Z" id="Path" fill="#03A9F4"></path>
                        <path d="M94.1241386,25.0827142 C88.9311554,25.6869011 86.9882691,30.5384074 86.8529842,33.1467265 C86.7568178,35.0149575 85.0519025,36.7325512 78.4979209,36.519694 C71.2300264,36.2855511 61.1146299,28.9861873 55.0871184,29.7000776 C51.3024018,36.8831886 53.0105771,44.6672118 57.4407492,46.4241022 C60.0942886,47.4752891 59.2336812,51.4409821 59.9850827,54.702609 C69.5381506,59.5754009 68.6547241,49.4384872 73.4858609,45.453146 C78.3202577,41.4661673 83.3861056,44.0073545 87.0355373,42.5140796 C89.5945403,41.46453 88.2139826,38.3044196 90.2269563,35.8942214 C91.9856596,33.7902101 94.1143589,33.5839023 96.7434493,34.1504299 C99.1850967,34.6760234 101.167102,32.1037263 101.696831,30.7168799 C101.799518,30.405781 101.900574,30.0815831 102,29.7279127 C101.802777,27.3177146 99.3171217,24.4768899 94.1241386,25.0827142 Z" id="Path" fill="#424242"></path>
                        <path d="M85.9743474,48.1698788 C89.2002099,47.3278583 91.8914081,49.6845748 93.0598691,53.7190603 C94.1551997,57.4979604 97.1567958,65.0714407 97.527323,65.1717932 C100.47854,64.1745399 120.137613,55.6383025 120.137613,55.6383025 C120.527642,56.1290891 122,58.8386075 122,58.8386075 C120.745408,59.7182602 97.4606931,74.0780806 95.7526924,73.9996801 C94.0463167,73.9228477 80.2848034,59.0173605 81.0291082,54.4042799 C81.7750382,49.7911994 83.741433,48.7516099 85.9743474,48.1698788 Z" id="path1483" fill="#03A9F4"></path>
                        <path d="M122.536036,58 C122.994579,57.7605495 124.94703,57.966743 126.844391,57.388071 C129.691243,56.5200629 132.837849,54.4913851 131.796002,52.4859872 C130.754154,50.4822522 125.353723,53.8129421 124.870876,53.1611046 C124.457702,52.6057125 125.61621,50.4356924 125.314836,50.0382711 C125.015082,49.6408498 123.731811,52.4477417 122.673761,53.4072065 C122.049949,53.9725757 121.821488,54.8588751 121,55.2180509 C121.153928,55.4757927 122.536036,58 122.536036,58 Z" id="path1485" fill="#FFF3E0" fill-rule="nonzero"></path>
                        <path d="M126,28.9776732 C127.436436,28.8606732 132.132784,28.9196732 131.997121,28.3516732 C131.859462,27.7826732 126.480807,28.1236732 126.480807,28.1236732 L126,28.9776732 Z" id="path1487" fill="#FFF3E0" fill-rule="nonzero"></path>
                    </g>
                    <g id="Group-5" transform="translate(1343.000000, 71.000000)">
                        <g id="Group-4">
                            <path d="M1.94547225,3.05508653 L24.2986855,1.87420853 L25.0545278,15.1424652 L9.38887537,15.9708738 L6.64922103,19.7572816 L6.44218598,16.1270578 L2.70131451,16.3243985 L1.94547225,3.05508653 Z M26.0425998,0 L27,16.8224989 L10.3813291,17.7005065 L5.09700584,25 L4.69827167,18.0012664 L0.957400195,18.198607 L0,1.37610806 L25.1202532,0.0485436893 L26.0425998,0 Z" id="Shape" fill="url(#linearGradient-9)"></path>
                            <polygon id="Path" fill="#0BABF4" fill-rule="nonzero" points="3.06818182 3.71207556 26.1817645 2.43902439 27 17.4141816 11.5811791 18.2628824 7.74844689 23.7804878 7.4596579 18.4908131 3.88641729 18.6872328"></polygon>
                        </g>
                        <polygon id="Path" fill="#FFFFFF" fill-rule="nonzero" points="16 10.9474197 15.0516569 11 15 10.0516066 15.9483431 10"></polygon>
                        <polygon id="Path" fill="#FFFFFF" fill-rule="nonzero" points="12 10.9483431 11.0516569 11 11 10.0516569 11.9483431 10"></polygon>
                        <polygon id="Path" fill="#FFFFFF" fill-rule="nonzero" points="20 10.9483934 19.0525803 11 19 10.0525803 19.9483934 10"></polygon>
                    </g>
                    <g id="Group-2" transform="translate(1295.000000, 87.000000)">
                        <path d="M35.7947085,34 C35.7947085,34 47.1917361,48.2065242 49.1881431,50.1616451 C49.5278458,50.2183526 55.9612935,45.3015523 58.5391148,42.7432696 C59.6444553,41.642628 60.7837661,40.8139248 61.8982525,40.3357773 L61.9283031,40.317734 C63.0636943,39.7442147 66.3013229,38.7737427 67.7764168,38.1538263 C74.3823289,35.3803128 80.7021068,38.2749742 82.3666503,44.0140337 C83.4928956,47.8959216 84.8869835,59.1691202 89,69.4241608 L71.070227,79 C67.9358158,73.7313553 62.1869998,61.9052583 60.6896946,53.6001833 C55.0205781,56.5786173 48.0240078,59.1278783 47.1669116,58.7721675 C45.7493059,58.1857601 33.6637269,37.1550006 33,35.9460992 C33,35.9460992 35.2838478,34.2590503 35.7947085,34 Z" id="Path" fill="#B3E5FC"></path>
                        <path d="M75.6951412,36.3467365 C70.3258853,34.9512785 55.6429562,32.4308706 53.28069,30.0405147 C50.777874,27.5084021 43.4808954,15 43.4808954,15 L41,15.6346538 C42.2082115,18.7363942 47.1429239,33.6533595 49.9848643,35.4818907 C52.8229364,37.3104219 68.6586308,43.6036386 72.7603606,44.7454952 C76.8620904,45.8873518 77.6138378,42.889653 77.9220155,41.6333506 C78.2314827,40.3770483 77.646074,36.8539394 75.6951412,36.3467365 Z" id="Path" fill="#B3E5FC" fill-rule="nonzero"></path>
                        <path d="M26.3499168,5.63097273 L29.5419806,1.37798765 C30.0035306,0.760765552 30.731409,0.383935221 31.5433232,0.338455698 L37.6275081,0.00320664517 C38.7691007,-0.0591652717 39.8266577,0.795849755 39.9856791,1.9133466 L44,29.7559104 L3.31896294,32 L0.0208848427,9.12380007 C-0.140722277,8.00500381 0.653091895,7.04863442 1.79468459,6.98496309 L26.3499168,5.63097273 Z" id="Path" fill="url(#linearGradient-10)" fill-rule="nonzero"></path>
                        <polygon id="Path" fill="#E65100" fill-rule="nonzero" points="21.8095 16.7775 21.2235 16.8095 21.1905 16.2225 21.7775 16.1905"></polygon>
                        <polygon id="Path" fill="#E65100" fill-rule="nonzero" points="20.8095 16.7775 20.2225 16.8095 20.1905 16.2225 20.7775 16.1905"></polygon>
                        <polygon id="Path" fill="#E65100" fill-rule="nonzero" points="23.8095 16.7775 23.2225 16.8095 23.1905 16.2225 23.7775 16.1905"></polygon>
                        <path d="M69.6722151,34.7698128 C69.3751601,35.8014203 69,37.307677 69,37.307677 C70.2317542,38.6973291 75.8886044,37.7809543 76,36.4393159 C75.4865557,34.3335745 75.1600512,30 75.1600512,30 L69.6722151,34.7698128 Z" id="Path" fill="#FFF3E0" fill-rule="nonzero"></path>
                        <path d="M65.1763534,23.8969905 C65.0577879,26.2436315 64.5289058,33.2849355 66.1581824,35.5638981 C67.4943758,37.4367911 69.7417917,37.4671772 73.1255715,35.7172102 C76.5106834,33.9686243 75.7779752,27.2670929 75.9924589,25.2726553 C76.3281725,22.1138749 65.3442102,20.4923585 65.1763534,23.8969905 Z" id="Path" fill="#FFF3E0" fill-rule="nonzero"></path>
                        <path d="M75.0558298,20.6145142 C70.8005682,16.29704 71.043726,18.4865713 71.5969783,19.2130633 C67.5111075,16.7558109 61.5769642,15.4473711 60.1972485,16.2228825 C58.8175329,16.9983938 58.100354,19.7899834 61.052399,22.0260203 C64.0058101,24.2633141 64.5535982,23.2125401 66.084946,23.4551231 C67.6149277,23.698963 66.7870983,26.2957321 66.7529469,26.8965334 C66.7447506,27.0448484 66.9961047,27.1692822 67.1436387,27.103923 C67.8594515,26.7934671 68.2269204,26.794724 68.4318286,27.2673209 C68.6626919,27.7989924 68.5793626,28.7303602 68.0220121,29.0131642 C67.7119176,29.1702775 67.4537332,29.1564515 67.1572992,29.1174874 C68.9386351,33.5795059 73.5436068,31.5810244 74.2908389,31.3887177 C75.4205665,31.0971153 79.3110914,24.9319884 75.0558298,20.6145142 Z" id="Path" fill="#212121" fill-rule="nonzero"></path>
                        <path d="M34.7924448,36 C34.5203688,35.638898 32.9265965,35.0621738 31.6642153,33.8905405 C29.7648411,32.1343896 28.0563068,29.3598789 29.5985007,28.1895445 C31.1406947,27.0192102 34.1257941,31.6641775 34.7382875,31.3394455 C35.2618082,31.0614748 35.1534936,28.9273358 35.5313053,28.7324965 C35.9116959,28.5363584 35.8859067,31.2121505 36.3591385,32.3630009 C36.6376618,33.0397425 36.4932423,33.8190995 37,34.4101118 C36.7885286,34.5529939 34.7924448,36 34.7924448,36 Z" id="Path" fill="#FFF3E0" fill-rule="nonzero"></path>
                        <path d="M42.843665,15.6907801 C42.9239613,14.0397163 44.5472052,12.177305 43.8072201,11.1900709 C43.0640861,10.2028369 41,8 41,8 L41.4865009,16 L42.843665,15.6907801 Z" id="Path" fill="#F7D3C9" fill-rule="nonzero"></path>
                        <path d="M42.6150035,12 C41.9795596,11.3488296 39.5803256,9.73997833 40.0639024,9.10854037 C40.5501436,8.47710242 43,10.8068454 43,10.8068454 L42.6150035,12 Z" id="Path" fill="#FFF3E0" fill-rule="nonzero"></path>
                        <path d="M136.52085,139.090302 C136.691951,138.130528 137.217929,137.442754 136.899807,136.777 C136.31933,135.562062 134.442286,135.091889 131.58046,134 C131.008855,135.958406 129.944225,137.993232 129,139.367484 C129.816216,139.956819 130.344729,140.517659 130.51076,141.047414 C132.053206,145.940839 130.906194,150.461235 132.776901,150.994875 C133.617198,151.233199 135.804759,143.100373 136.52085,139.090302 Z" id="Path" fill="#03A9F4" fill-rule="nonzero"></path>
                        <path d="M149.765086,108.205549 C149.536512,106.514399 150.095383,106.104464 149.250495,104.805661 C148.534853,103.704384 146.344846,104.019614 143.119673,104.117025 C143.174722,106.031406 143.084967,108.826539 143,110.217341 C144.022003,110.455455 144.766366,110.805861 145.154105,111.313206 C148.262,115.376025 148.993199,120.65106 150.714089,119.934012 C151.530256,119.59443 150.404138,112.913711 149.765086,108.205549 Z" id="Path" fill="#03A9F4" fill-rule="nonzero"></path>
                        <path d="M75,77.0919215 C75,77.0919215 86.1854647,70.8953119 89.7341889,69 C103.193217,80.1249376 96.4643494,88.4508642 110.222122,99.6275157 C123.679856,99.8266139 128.775328,104.383895 140.951435,104.49508 C141.648506,104.498958 142.358509,104.466637 142.987037,104.44983 C143.045234,106.2805 142.893921,109.561742 142.8021,110.890788 C135.07871,109.305759 112.679329,113.088626 104.75031,109.093732 C94.4817714,107.06655 78.0960808,82.6434011 75,77.0919215 Z" id="Path" fill="#C5CAE9"></path>
                        <path d="M90.6165645,68 C99.5551449,82.5048287 87.7448706,92.8420985 97.7759014,113.687729 C109.228016,118.456064 117.718576,127.295311 128.802262,132.20078 C129.605874,132.554716 130.305505,132.900815 131,133.16594 C130.419756,135.140666 129.15657,137.614296 128.201478,139 C121.393882,134.11804 95.3933069,126.468591 89.0298798,120.349815 C79.9603594,112.896271 73.4531551,84.3985799 73,77.7038427 C73,77.7038427 86.6318807,70.0831264 90.6165645,68 Z" id="Path" fill="#C5CAE9"></path>
                        <path d="M48.5788936,58.0710079 C47.7018963,57.7043005 42.8510463,49.6194022 39,43 C40.9956028,45.2389154 47.6485022,56.8148683 49.4412076,56.0241138 C51.2325782,55.2333593 60.4964469,51.3009223 60.9783283,50.9608845 C62.813749,49.6620736 62.8084096,46.9017669 63.7080994,47.2191355 C64.6051195,47.5365041 63.6013113,49.5367263 64.0217895,52.9197689 C64.5664089,57.3322591 67.8941934,66.7959773 69.6335048,69.6202911 C71.5103058,72.6646294 73,79 73,79 C69.7976915,73.5487276 63.9243453,61.3127014 62.3946056,52.7197466 C56.6026854,55.8014224 49.4545562,58.4390488 48.5788936,58.0710079 Z" id="Path" fill="#B3E5FC" fill-rule="nonzero"></path>
                    </g>
                    <path d="M1323.37271,95.0967938 L1326.50283,91.2409188 C1326.95536,90.6810466 1327.62333,90.3396051 1328.33804,90.3005175 L1333.70346,90.0027621 C1334.70998,89.9475797 1335.56945,90.7258824 1335.6253,91.7410099 L1337,117.014581 L1301.13248,119 L1300.00285,98.2329975 C1299.947,97.21787 1300.71756,96.3510453 1301.72408,96.2947132 L1323.37271,95.0967938 Z" id="Path" fill="#FF9800" fill-rule="nonzero"></path>
                </g>
            </g>
        </g>
    </g>
</svg>