<?xml version="1.0" encoding="UTF-8"?>
<svg width="453px" height="300px" viewBox="0 0 453 300" version="1.1" xmlns="http://www.w3.org/2000/svg" xmlns:xlink="http://www.w3.org/1999/xlink">
    <!-- Generator: Sketch 64 (93537) - https://sketch.com -->
    <title>faq</title>
    <desc>Created with Sketch.</desc>
    <defs>
        <linearGradient x1="0.000674034802%" y1="50%" x2="100.000876%" y2="50%" id="linearGradient-1">
            <stop stop-color="#B2BFFF" offset="0%"></stop>
            <stop stop-color="#304FFE" offset="100%"></stop>
        </linearGradient>
        <linearGradient x1="0.000297646044%" y1="50.0000057%" x2="100%" y2="50.0000057%" id="linearGradient-2">
            <stop stop-color="#D5D9F1" offset="0%"></stop>
            <stop stop-color="#304FFE" offset="100%"></stop>
        </linearGradient>
        <linearGradient x1="0%" y1="50.0077869%" x2="100%" y2="50.0077869%" id="linearGradient-3">
            <stop stop-color="#FF9800" offset="0%"></stop>
            <stop stop-color="#FAE7CC" offset="100%"></stop>
        </linearGradient>
        <linearGradient x1="0%" y1="50.0003738%" x2="100%" y2="50.0003738%" id="linearGradient-4">
            <stop stop-color="#C0E2F1" offset="0%"></stop>
            <stop stop-color="#A0D8F2" offset="60%"></stop>
            <stop stop-color="#57C2F3" offset="81%"></stop>
            <stop stop-color="#0BABF4" offset="100%"></stop>
        </linearGradient>
    </defs>
    <g id="Pricing" stroke="none" stroke-width="1" fill="none" fill-rule="evenodd">
        <g id="About" transform="translate(-175.000000, -1373.000000)">
            <g id="faq" transform="translate(175.000000, 1373.000000)">
                <path d="M71.8801274,249 L55.9008464,249.340916 L52.4643152,249.413969 L46.7616371,249.53651 L44.7429205,249.578143 L34.3382822,249.79966 C32.4130393,255.21268 31.3706903,261.552613 31.5128645,268.309659 C31.7445849,279.234674 35.0334434,288.928779 40.0024712,295.318987 C40.4557005,295.904199 40.9214978,296.471345 41.4030049,297 L66.8199825,296.460348 C67.1263247,296.094295 67.424812,295.710176 67.7201573,295.318987 C72.6703332,288.726901 75.7243294,278.633751 75.4871105,267.375675 C75.3449363,260.617059 74.0331633,254.326613 71.8801274,249 Z" id="color_7" stroke="url(#linearGradient-1)" stroke-width="5" fill="#304FFE"></path>
                <path d="M88.8473051,203.623746 C82.5582872,212.306551 85.2215018,210.792675 79.1185635,225.393575 C74.9588611,235.350769 65.9131964,237.683615 60.5781307,238.158665 C63.552263,234.01749 66.3913502,229.78209 69.1252278,225.482303 C69.1739069,225.471311 69.217875,225.468955 69.2681244,225.446969 C71.4319862,224.350822 73.6625854,223.377167 75.5092483,221.769851 C76.0494286,221.297157 75.3592854,220.422438 74.8159645,220.894346 C73.4458851,222.083148 71.8614609,222.914681 70.2534823,223.710879 C75.9630626,214.601708 81.1905633,205.191802 86.0592524,195.606011 C86.3811621,194.964498 85.3384885,194.57268 85.0157936,195.206341 C80.9031999,203.301027 76.5291527,211.265369 71.8276996,219.030268 C72.0569622,215.490561 72.5861505,211.971269 72.4181293,208.413501 C72.3875086,207.697394 71.2843788,207.870139 71.3149994,208.581535 C71.4908721,212.250017 70.8721772,215.884734 70.6774611,219.539866 C70.6570473,219.87829 70.8988722,220.078518 71.1611109,220.124845 C67.4332386,226.220397 63.5067245,232.191886 59.3203271,237.98906 C58.9324651,239.200633 58.3333988,240.376086 57.8112769,241.437684 C56.6398394,243.832561 55.323935,246.215661 54.5081685,248.762868 L51.0739408,248.835892 C51.0715854,248.827255 51.0668745,248.822544 51.0653042,248.813906 C49.3725299,237.73858 51.9917762,226.918445 52.9433729,215.934202 C52.7502271,216.030782 52.6410918,216.076324 52.6410918,216.076324 C52.6410918,216.076324 51.7130495,215.563585 50.3783016,214.545958 C50.2723069,207.289872 50.4968586,200.039282 50.9608798,192.801256 C51.198779,192.915111 51.511267,192.888414 51.6918505,192.600243 C53.6311607,189.497896 55.2171552,186.169408 57.4650276,183.267288 C57.9039241,182.705081 57.0991496,181.926942 56.659468,182.496216 C54.478333,185.310393 52.8891979,188.492047 51.0401795,191.522156 C51.6573041,182.468734 52.6544393,173.434942 53.945219,164.447477 C54.0457176,163.741577 52.9669273,163.463615 52.8640732,164.175011 C51.3361795,174.812978 50.2039993,185.522399 49.6394794,196.256946 C48.7797448,194.678683 47.9584823,193.091782 47.5250818,191.32978 C47.3507794,190.630162 46.282196,190.949741 46.4533578,191.647789 C47.0406469,194.022251 48.3047316,196.105402 49.448689,198.245087 C49.4745988,198.2922 49.5091452,198.322037 49.5405511,198.355016 C49.3081479,203.447075 49.1935166,208.54306 49.2500471,213.643757 C45.1578672,210.186496 39.098112,203.080384 41.4174327,192.540568 C44.8186842,177.081437 46.125952,179.850858 45.975204,169.132015 C45.8213154,158.410816 46.0670661,148.149747 53.0572191,148.001343 C60.0473721,147.853725 61.9544913,159.900351 59.3642953,169.746046 C56.778025,179.590955 61.877547,186.210239 62.4766132,196.288355 C63.1078704,206.95616 58.1229798,212.345812 55.0138024,214.64725 C54.1996062,225.605581 51.5277551,236.414723 52.8719247,247.419381 C53.4686355,245.77359 54.2420041,244.1914 55.0200836,242.623344 C55.6654734,241.326184 56.6147147,239.802885 57.1996483,238.251319 C56.6924441,238.230118 56.4027253,238.201851 56.4027253,238.201851 C56.4027253,238.201851 50.1537499,228.404839 59.7325287,216.353502 C66.013695,208.451191 73.9907763,205.969156 77.5333542,196.42498 C81.075932,186.88002 89.557862,178.12105 95.1936386,182.260654 C100.8302,186.402615 95.1323972,194.939371 88.8473051,203.623746 Z M38.7659953,225.972272 C40.7115866,229.884167 42.5653158,233.839248 44.2934217,237.855575 C46.3026098,233.728534 48.5889544,226.053933 43.1164882,218.592123 C35.0891575,207.650281 35.0239904,210.27758 31.4272375,201.818559 C27.8320549,193.357182 24.0814135,185.399122 18.5477059,187.706841 C13.0171389,190.014561 15.6968415,200.123299 21.1410425,206.944381 C26.5836731,213.764678 24.8791216,220.724742 27.9050735,228.833561 C31.4036832,238.209703 37.9753535,240.327403 40.9471303,240.802452 C41.9191408,243.482359 42.6980054,246.223513 43.3583131,249 L45.3761378,248.958384 C44.6946312,246.045271 43.8788647,243.18084 42.8715227,240.37373 C43.0937189,240.036877 43.3897189,239.561042 43.7249762,238.957219 C41.2886687,233.232284 38.6003295,227.621989 35.7282662,222.10906 C35.5806588,222.280234 35.3247013,222.367392 35.0852318,222.203284 C32.4848289,220.443638 30.0909194,218.384044 27.3193547,216.888227 C26.782315,216.599271 27.1403415,215.708848 27.6836624,216.0033 C30.3720016,217.456716 32.7211578,219.399315 35.2187066,221.132264 C31.5952587,214.246795 27.6820921,207.508159 23.5545806,200.911646 C23.2295303,200.389484 23.9809148,199.80058 24.3075355,200.318816 C29.1974235,208.133183 33.7960224,216.138355 37.9604357,224.356318 C38.086059,222.823597 38.177136,221.290875 37.9086161,219.760509 C37.8026214,219.153545 38.7518627,219.032624 38.8586425,219.639588 C39.2229502,221.704679 38.9520749,223.779192 38.7997566,225.848994 C38.7942605,225.899248 38.7769873,225.935367 38.7659953,225.972272 Z" id="color_6" fill="#FFE0B2"></path>
                <path d="M139.889077,274.332267 C139.331467,275.867167 138.780131,277.449198 138.247617,279.068148 C138.781699,277.449198 139.331467,275.867167 139.889077,274.332267 Z M134.085538,295 C134.174944,294.520049 134.259645,294.039313 134.355324,293.559362 C134.259645,294.039313 134.167886,294.520049 134.076911,295 L134.085538,295 Z M184.529269,109.826197 C190.993156,110.893714 196.9559,111.453787 198.664022,111.60225 L198.664022,123.78483 C198.664022,125.241964 198.642063,126.66532 198.584812,128.043117 C198.1668,137.854222 195.8297,145.239651 185.453914,145.239651 L180.482477,145.239651 L180.482477,158.626428 L188.2153,158.626428 L188.134521,158.722261 L177.972054,170.625197 L175.652207,173.3423 L162.818544,162.055994 L160.486149,160.004224 L159.323089,158.980696 L158.829788,158.985409 L158.829788,136.142581 C159.239173,136.35467 159.660321,136.508631 160.09245,136.609178 C160.457132,136.694013 160.827303,136.752927 161.204533,136.752927 C161.789593,136.752927 162.359751,136.647668 162.911087,136.448147 C164.240411,135.965054 165.452096,134.923459 166.474774,133.477322 C168.193092,135.00201 170.381183,136.181071 172.991207,136.948521 C174.674233,137.444182 176.532149,137.7686 178.541429,137.917063 C178.928854,138.736357 179.624494,139.373411 180.482477,139.686047 C180.851864,139.819585 181.24478,139.906777 181.662007,139.906777 C183.574822,139.906777 185.124524,138.354596 185.124524,136.43872 C185.124524,134.52363 183.574822,132.971449 181.662007,132.971449 C181.245564,132.971449 180.851864,133.057071 180.482477,133.192179 C179.488033,133.555088 178.71475,134.356315 178.38536,135.368847 C176.400393,135.194462 174.589532,134.829196 172.991207,134.275407 C170.882326,133.546448 169.13499,132.498568 167.79155,131.177329 C168.683255,129.233175 169.301254,126.883694 169.560845,124.311912 C169.648682,123.439203 169.701228,122.543714 169.701228,121.624659 C169.701228,118.762236 169.24714,116.095406 168.47072,113.812694 C169.166361,112.407405 170.22982,110.807307 171.88226,109.001404 C172.352817,108.486105 172.691618,107.894611 172.959836,107.270125 C176.080414,108.224528 179.755466,109.005332 183.356797,109.629817 C183.749712,109.695015 184.139491,109.761784 184.529269,109.826197 Z M175.903171,117.479487 C176.016105,118.607489 176.623124,119.468415 177.310137,119.51319 C177.357977,119.515546 177.405033,119.524973 177.452873,119.52026 C178.135965,119.44485 178.620639,118.530508 178.585347,117.426072 C178.582994,117.345949 178.584563,117.269754 178.57672,117.188846 C178.463787,115.983077 177.775205,115.069521 177.029371,115.149644 C176.296871,115.230552 175.782395,116.272933 175.903171,117.479487 Z M191.317056,117.479487 C191.440185,118.683684 192.126414,119.599597 192.869111,119.52026 C193.600827,119.440922 194.11295,118.397756 193.996879,117.187275 C193.881593,115.982292 193.192227,115.06795 192.445609,115.148073 C191.709971,115.230552 191.19628,116.272933 191.317056,117.479487 Z M128.382385,240.549546 C128.348662,240.457641 128.314939,240.355524 128.281215,240.272259 C124.352847,231.0173 111.66192,231.173618 109.338152,234.944884 C109.20718,235.157759 109.101305,235.381631 109.039348,235.615715 C106.895176,243.832221 111.386644,276.31177 118.216782,294.998429 L130.408134,294.998429 C131.025348,284.745078 130.490481,272.251433 130.490481,272.251433 C130.490481,272.251433 130.634001,246.631017 128.382385,240.549546 Z M292.599785,159.939812 C292.453912,159.990871 290.283075,160.181751 290.128575,160.261874 C289.331765,160.666415 282.65848,162.830514 283.69449,170.100472 C283.641945,170.18138 283.59881,170.262288 283.547049,170.341626 C283.438821,170.31099 283.343141,170.288996 283.276478,170.268573 C283.219227,170.250506 282.398889,172.975463 281.486008,175.974567 C275.147603,179.921789 266.534054,188.838975 266.534054,188.838975 C266.534054,188.838975 266.103494,189.213667 265.374915,189.857791 L285.086555,189.857791 C286.164131,187.328426 287.008781,184.935742 287.541295,182.761432 C289.633706,181.636572 291.981786,180.378959 291.988061,180.378959 C292.10021,180.383672 292.202164,180.39467 292.319019,180.396241 C293.095438,180.412737 293.972243,180.265059 294.911005,179.996413 C297.643374,179.21718 301.298819,174.871701 301.845449,171.574101 C302.511288,167.538902 292.887609,159.843979 292.599785,159.939812 Z M377.965133,60.2341644 L378.377654,77.2107535 L357.753133,77.7126988 L357.515502,67.8638891 C351.195918,66.9306952 350.23755,60.7753855 350.055602,53.2917669 L349.837577,44.3109533 C349.814049,43.3267008 349.891691,42.3628717 350.050112,41.4257501 L367.502294,41 C367.710907,41.5726417 368.012848,42.0981525 368.443408,42.5474681 C371.727113,45.9652517 371.858869,48.3587214 371.894161,49.7938606 C371.922394,50.9917737 372.230609,52.6083673 372.334132,53.1173822 C372.353738,53.2179283 372.367855,53.2917669 372.367855,53.2917669 C372.367855,53.2917669 372.384324,53.2171428 372.407068,53.1158112 C372.642347,52.0632186 374.034412,46.1938371 375.624895,47.0602621 C378.511763,48.6320812 378.5,59.1917836 378.5,59.1917836 C378.336088,59.5491938 378.157277,59.8948212 377.965133,60.2341644 Z" id="color_5" fill="#FFF3E0"></path>
                <path d="M199.260448,127.506701 C198.841562,137.264224 196.50036,144.609318 186.102878,144.609318 L181.121046,144.609318 L181.121046,157.922985 L188.869253,157.922985 L188.788305,158.018295 L199.341396,157.922985 L199.37519,158.247976 C204.066238,157.120665 211.285533,159.221384 216.465413,164.512633 C223.146365,157.166758 223.030837,151.103657 222.268512,147.229553 C219.933598,135.360374 207.330089,130.926131 199.260448,127.506701 Z M160.225486,90.6663897 L160.225486,106.341705 C158.815578,106.808098 157.527484,107.885409 156.455514,109.418176 C156.284973,109.661138 156.124649,109.921286 155.965897,110.185341 C154.319433,112.92901 153.287543,116.807801 153.287543,121.121735 C153.287543,122.663095 153.418789,124.146645 153.663205,125.546603 C154.500976,130.370679 156.676353,134.150254 159.422294,135.561931 L159.422294,158.280006 L144.680346,158.412033 C139.370006,158.412033 134.683673,161.768965 131.84028,166.893031 C131.377384,167.479733 130.887767,168.188305 130.379289,169 C113.971228,158.034701 113.827408,148.834974 114.856154,143.613254 C117.800143,128.643386 137.079102,125.501292 142.998516,121.303761 C147.615689,118.029639 149.896377,114.338343 150.993496,111.160312 C150.79702,103.786312 152.299665,98.6583397 152.299665,98.6583397 C154.503334,93.8569199 157.213124,91.6085492 160.225486,90.6663897 Z M185.177086,109.389271 C191.654489,110.450958 197.629701,111.007973 199.341396,111.155625 C199.658114,111.183749 199.842801,111.198592 199.842801,111.198592 C199.842801,111.198592 211.062337,102.238702 196.046109,90.543737 C194.891619,89.6429826 193.076186,89.072687 190.876446,88.735197 C183.720023,87.632886 172.428971,89.0461253 165.901269,90.0718761 L165.901269,107.933064 C167.214511,109.211151 168.310059,111.090783 169.083386,113.351653 C169.780481,111.954038 170.84695,110.361898 172.502059,108.566639 C172.974386,108.053373 173.31311,107.465891 173.581889,106.844815 C176.708992,107.794006 180.391729,108.570545 184.00059,109.190839 C184.395899,109.258806 184.786492,109.32521 185.177086,109.389271 Z M383.321034,52.6206449 C382.070664,57.1048867 380.4855,57.0330138 379.554992,59.0321732 C379.554992,59.0321732 379.565995,48.5309227 376.673876,46.9676879 C375.080067,46.1044323 373.685091,51.9433213 373.448534,52.9901652 C373.424957,53.0901622 373.410025,53.1643788 373.410025,53.1643788 C373.410025,53.1643788 373.394307,53.0917247 373.376231,52.9917277 C373.272492,52.4862739 372.964419,50.8769467 372.93534,49.6863571 C372.899975,48.2590558 372.767943,45.8786577 369.477372,42.4787587 C369.045912,42.0334595 368.743339,41.5108187 368.53429,40.9405232 L351.045614,41.3639481 L351.042471,41.3639481 C351.042471,41.3639481 346.232751,35.2383488 346.724725,29.47602 C347.219058,23.7160349 354.366836,17.3857542 362.715472,23.4918228 C367.298852,26.8401608 370.832267,29.8947576 370.832267,29.8947576 C375.612908,29.1674354 380.116126,28.583859 383.372118,35.2438174 C383.370546,35.2438174 385.944375,43.2201429 383.321034,52.6206449 Z" id="color_4" fill="#212121"></path>
                <path d="M362.430031,147 C364.377699,147 366.028675,145.500448 366.182892,143.521165 C366.184457,143.496081 366.178978,143.473349 366.181326,143.448265 C366.305012,141.400785 364.773025,139.622173 362.721242,139.462263 C358.130759,139.099329 353.570024,138.250393 349.168985,136.938971 C347.168868,136.353417 345.073247,137.483764 344.479866,139.48186 C344.443856,139.606496 344.432897,139.731132 344.408629,139.856552 C344.051661,141.736283 345.148398,143.619149 347.018566,144.177268 C351.927658,145.63841 357.01132,146.58533 362.129427,146.987458 C362.230411,146.996081 362.32983,147 362.430031,147 Z M394.734066,138.233932 C394.659698,138.023069 394.560279,137.829452 394.45538,137.641322 C393.575486,136.070438 391.677919,135.308512 389.926741,135.928557 C385.598504,137.455544 381.086304,138.529452 376.515392,139.120494 C374.521538,139.379956 373.10854,141.157783 373.254928,143.143338 C373.260408,143.212318 373.251014,143.278164 373.260408,143.348713 C373.506215,145.252744 375.127444,146.638634 376.994481,146.638634 C377.155742,146.638634 377.319353,146.628443 377.483746,146.608847 C382.577585,145.949608 387.606449,144.75028 392.431779,143.047705 C394.395886,142.353976 395.426083,140.199105 394.734066,138.233932 Z M336.448087,131.638412 C335.558798,131.152409 334.681252,130.646026 333.824059,130.130237 C333.8131,130.122398 333.801357,130.115343 333.792746,130.109072 C331.72061,128.847818 329.652388,127.418031 327.628786,125.847147 C326.771594,125.191044 325.919098,124.498099 325.090087,123.788692 C323.9409,122.805714 322.375251,122.643452 321.083591,123.232925 C320.595891,123.453978 320.145767,123.772231 319.775491,124.20493 C319.575871,124.440092 319.418523,124.695635 319.285443,124.959801 C318.519841,126.476598 318.841582,128.37279 320.191171,129.527438 C321.121167,130.324638 322.080909,131.103025 323.026561,131.826541 C325.269353,133.569094 327.586514,135.168198 329.924811,136.589363 C330.880639,137.165511 331.847428,137.722845 332.829089,138.261367 C333.4029,138.575701 334.02368,138.725421 334.635848,138.725421 C335.956473,138.725421 337.231694,138.024637 337.922145,136.793954 C337.929974,136.781412 337.939368,136.773573 337.947196,136.762599 C338.756636,135.281076 338.455249,133.506385 337.347552,132.349386 C337.086089,132.079733 336.795661,131.830461 336.448087,131.638412 Z M417.75302,121.063945 C416.351764,120.275367 414.55205,120.43371 413.324582,121.599331 C410.964366,123.836509 408.419403,125.917696 405.760931,127.778614 C405.399267,128.031805 405.00942,128.2654 404.638361,128.513104 C403.888415,129.014 403.145515,129.523518 402.374433,129.995411 C401.805319,130.344235 401.376332,130.828669 401.07103,131.373462 C400.62482,132.171446 400.475301,133.103473 400.670224,134.008064 C400.758683,134.413327 400.897243,134.813887 401.125045,135.187011 C401.836632,136.351065 403.075844,136.993058 404.346368,136.993058 C405.015683,136.993058 405.695174,136.814335 406.309691,136.438859 C407.592741,135.652633 408.859351,134.823294 410.082123,133.969654 C413.04433,131.893171 415.880503,129.575254 418.507662,127.084101 C420.019296,125.64961 420.085054,123.261145 418.653268,121.747483 C418.385542,121.462153 418.075543,121.246587 417.75302,121.063945 Z M315.606951,113.764505 C312.802874,110.104595 310.378466,106.143678 308.4034,101.99463 C307.509415,100.114115 305.26036,99.3161308 303.377667,100.212099 C301.498888,101.109636 300.70119,103.361707 301.597524,105.24379 C303.798827,109.869433 306.499571,114.28343 309.626955,118.361929 C310.369855,119.331582 311.488511,119.838749 312.620476,119.838749 C313.422088,119.838749 314.22918,119.584774 314.912586,119.05801 C315.276599,118.776599 315.566244,118.437965 315.797177,118.069544 C316.2747,117.30997 316.457098,116.414001 316.333412,115.53371 C316.244953,114.909746 316.017151,114.299892 315.606951,113.764505 Z M433.83928,96.9645074 C431.919011,96.1571166 429.710663,97.0703304 428.909834,98.9955262 C427.294084,102.875705 425.278311,106.606164 422.983853,110.064618 C422.780318,110.372681 422.589309,110.691717 422.379512,110.995861 C422.332543,111.059355 422.260523,111.16361 422.21825,111.231023 C421.354012,112.588694 421.462042,114.30773 422.361507,115.53763 C422.625319,115.89978 422.951757,116.226655 423.350215,116.480631 C423.988217,116.886678 424.697456,117.082646 425.397301,117.082646 C426.625552,117.082646 427.817794,116.480631 428.529381,115.362042 C431.436791,111.141661 433.905037,106.614002 435.867578,101.902133 C436.66919,99.9753693 435.761897,97.766411 433.83928,96.9645074 Z M303.814483,88.9830973 C304.298269,91.0101967 303.044967,93.0474865 301.020583,93.5295693 C300.727806,93.5993342 300.432681,93.6338247 300.143036,93.6338247 C298.43961,93.6338247 296.892749,92.4658517 296.480983,90.7319213 C295.298136,85.7629409 294.631952,80.6316985 294.50122,75.4777237 C294.448771,73.3941853 296.093485,71.6610388 298.174233,71.6085192 C300.243238,71.5356189 301.986588,73.202136 302.038254,75.2864583 C302.156461,79.9160211 302.753756,84.5236353 303.814483,88.9830973 Z M441.475732,71.7707812 L441.472601,71.6390903 C441.434243,69.5782843 439.754301,67.9344995 437.704867,67.9344995 C437.680599,67.9344995 437.657115,67.9344995 437.63363,67.9360672 C435.5521,67.9729093 433.89486,69.6950816 433.934784,71.7794038 L433.940264,72.0059436 C433.954355,72.5546557 433.9614,73.1010162 433.9614,73.6442413 C433.9614,77.7203886 433.58721,81.7996715 432.846658,85.7707796 C432.46464,87.8206114 433.815795,89.790488 435.861315,90.1738027 C436.09538,90.2161319 436.327879,90.2388642 436.556463,90.2388642 C438.336606,90.2388642 439.92026,88.9705553 440.25844,87.1543181 C441.081189,82.7293466 441.5,78.1844423 441.5,73.645809 C441.5,73.0351708 441.492172,72.4253164 441.475732,71.7707812 Z M298.72221,64.5497294 C298.954709,64.5928425 299.184859,64.6140071 299.412661,64.6140071 C301.195152,64.6140071 302.779589,63.3417788 303.115421,61.5247578 C303.950695,56.9986664 305.270537,52.5470432 307.03424,48.2937402 C307.833504,46.3685445 306.921513,44.1588023 305.000462,43.3584664 C303.07628,42.5612661 300.872629,43.4721282 300.071799,45.3957562 C298.105344,50.1397647 296.633634,55.1040418 295.700507,60.1506258 C295.323186,62.2004576 296.675124,64.1695503 298.72221,64.5497294 Z M432.135854,58.1243102 C432.549968,59.855889 434.096046,61.0199426 435.797124,61.0199426 C436.089117,61.0199426 436.385025,60.986236 436.68015,60.9141195 C438.705317,60.4273335 439.953139,58.3892598 439.466222,56.3629442 C438.269283,51.3688799 436.540024,46.4892611 434.328545,41.8628339 C433.42908,39.9815351 431.179242,39.1851186 429.300463,40.0873582 C427.42325,40.9872461 426.629466,43.2416691 427.527366,45.1214002 C429.51026,49.2704478 431.061036,53.6452514 432.135854,58.1243102 Z M308.386961,37.1368546 C309.040619,37.5860147 309.784303,37.8015802 310.521723,37.8015802 C311.72101,37.8015802 312.899161,37.2324873 313.630319,36.1687696 C316.237908,32.3795203 319.254913,28.8481657 322.593659,25.6750418 C324.103728,24.2405515 324.166354,21.8505181 322.732219,20.3384243 C321.299651,18.828682 318.91595,18.7644043 317.40275,20.2004623 C313.685117,23.7333847 310.3268,27.6645152 307.421738,31.8856794 C306.240456,33.6023645 306.672575,35.9524202 308.386961,37.1368546 Z M425.59379,34.0546601 C427.243984,32.7839995 427.552416,30.4135631 426.284241,28.7611557 C423.163902,24.6983342 419.603617,20.9474947 415.704368,17.6152443 C414.119931,16.261493 411.740928,16.4496229 410.389773,18.0346171 C409.037835,19.6211791 409.22493,22.0033737 410.808584,23.356341 C414.309375,26.3491739 417.50643,29.7166987 420.308942,33.3640667 C421.051059,34.3321517 422.16815,34.8377507 423.299331,34.8377507 C424.099378,34.8377507 424.908818,34.5822076 425.59379,34.0546601 Z M331.559348,17.822971 C332.231794,17.822971 332.913634,17.6434638 333.527369,17.2656362 C337.450885,14.8536544 341.635082,12.8532067 345.963318,11.3191644 C347.927425,10.6230838 348.954491,8.46664509 348.260125,6.50225561 C347.564977,4.53551452 345.405947,3.50550344 343.449669,4.20236786 C338.621991,5.91121425 333.956357,8.1436888 329.583499,10.8323783 C327.808836,11.9235316 327.253814,14.2485033 328.342722,16.0239791 C329.055875,17.1841133 330.291955,17.822971 331.559348,17.822971 Z M386.712464,10.2483918 C391.117417,11.5519751 395.401815,13.3298024 399.443538,15.5317059 C400.015783,15.842904 400.632648,15.9910563 401.241686,15.9910563 C402.577967,15.9910563 403.874325,15.2777305 404.558513,14.019612 C405.5527,12.1884812 404.87634,9.89564829 403.047662,8.89934381 C398.540159,6.44503278 393.764146,4.46261419 388.85114,3.00852701 C386.851024,2.41435014 384.756968,3.55959078 384.165936,5.55768685 C383.575686,7.55735068 384.716261,9.65656657 386.712464,10.2483918 Z M358.874442,8.1436888 C357.01132,8.1436888 355.390091,6.7577987 355.141935,4.85690306 C354.871861,2.7906099 356.327132,0.895985255 358.39144,0.624764681 C360.963018,0.289266399 363.589394,0.0862429061 366.199331,0.0219651979 C368.741945,-0.0391770124 371.25716,0.0274523193 373.738714,0.220285444 C375.81633,0.380979715 377.367888,2.19564916 377.206626,4.27526819 C377.046147,6.35488721 375.269135,7.90303933 373.157075,7.74783218 C370.926808,7.57459592 368.655834,7.51658921 366.378598,7.5691088 C364.03717,7.62789938 361.676954,7.80975827 359.368405,8.11154994 C359.202446,8.13271456 359.038053,8.1436888 358.874442,8.1436888 Z" id="color_3" fill="url(#linearGradient-2)"></path>
                <path d="M366.171323,197.459945 C365.560452,196.846685 364.569025,196.846685 363.958153,197.459945 C363.347282,198.070729 363.347282,199.062015 363.958153,199.672799 L373.8262,209.541912 C374.437071,210.152696 375.428499,210.152696 376.041847,209.541912 C376.652718,208.928652 376.652718,207.939842 376.041847,207.326582 L366.171323,197.459945 Z" id="color_3_14" fill="#FF9800"></path>
                <path d="M395.173418,225.458153 C394.562634,224.847282 393.572173,224.847282 392.958088,225.458153 C392.347304,226.069025 392.347304,227.060452 392.958088,227.671323 L402.827201,237.541847 C403.437985,238.152718 404.429271,238.152718 405.040055,237.541847 C405.653315,236.928499 405.653315,235.939548 405.040055,235.323724 L395.173418,225.458153 Z" id="color_3_15" fill="#FF9800"></path>
                <path d="M373.8262,225.458153 L363.958153,235.323724 C363.347282,235.939548 363.347282,236.928499 363.958153,237.541847 C364.569025,238.152718 365.560452,238.152718 366.171323,237.541847 L376.041847,227.671323 C376.652718,227.060452 376.652718,226.069025 376.041847,225.458153 C375.428499,224.847282 374.437071,224.847282 373.8262,225.458153 Z" id="color_3_16" fill="#FF9800"></path>
                <path d="M392.958088,209.541912 C393.572173,210.152696 394.562634,210.152696 395.173418,209.541912 L405.040055,199.672799 C405.653315,199.062015 405.653315,198.070729 405.040055,197.459945 C404.429271,196.846685 403.437985,196.846685 402.827201,197.459945 L392.958088,207.326582 C392.347304,207.939842 392.347304,208.928652 392.958088,209.541912 Z" id="color_3_17" fill="#FF9800"></path>
                <path d="M373.5,217.49842 C373.5,216.672196 372.802855,216 371.942303,216 L358.058518,216 C357.199609,216 356.5,216.671406 356.5,217.49842 C356.5,218.328594 357.197966,219 358.058518,219 L371.942303,219 C372.802855,219 373.5,218.329384 373.5,217.49842 Z" id="color_3_18" fill="#FF9800"></path>
                <path d="M410.942228,216 L397.057772,216 C396.198821,216 395.5,216.670616 395.5,217.49842 C395.5,218.327804 396.197179,219 397.057772,219 L410.942228,219 C411.802,219 412.5,218.329384 412.5,217.49842 C412.5,216.670616 411.802,216 410.942228,216 Z" id="color_3_19" fill="#FF9800"></path>
                <path d="M385.000395,229 C384.172727,229 383.5,229.653913 383.5,230.467053 L383.5,243.532947 C383.5,244.341449 384.171146,245 385.000395,245 C385.828063,245 386.5,244.342995 386.5,243.532947 L386.5,230.467053 C386.498419,229.653913 385.827273,229 385.000395,229 Z" id="color_3_20" fill="#FF9800"></path>
                <path d="M385.000395,190 C384.172727,190 383.5,190.656168 383.5,191.466139 L383.5,204.53618 C383.5,205.344604 384.171146,206 385.000395,206 C385.828063,206 386.5,205.34615 386.5,204.53618 L386.5,191.466139 C386.498419,190.656941 385.827273,190 385.000395,190 Z" id="color_3_21" fill="#FF9800"></path>
                <path d="M238.171323,84.4599743 C237.560452,83.8466752 236.569025,83.8466752 235.958153,84.4599743 C235.347282,85.0699716 235.347282,86.0613204 235.958153,86.6721431 L245.8262,96.5418829 C246.437071,97.1527057 247.427673,97.1527057 248.041847,96.5418829 C248.652718,95.9285839 248.652718,94.9397114 248.041847,94.3272378 L238.171323,84.4599743 Z" id="color_3_22" fill="#304FFE"></path>
                <path d="M267.17391,112.45878 C266.562329,111.847073 265.571916,111.847073 264.958685,112.45878 C264.347105,113.069661 264.347105,114.060278 264.958685,114.671985 L274.827328,124.541839 C275.438083,125.15272 276.429322,125.15272 277.040077,124.541839 C277.653308,123.928482 277.653308,122.940341 277.040077,122.323681 L267.17391,112.45878 Z" id="color_3_23" fill="#304FFE"></path>
                <path d="M245.82603,112.45878 L235.958183,122.323681 C235.347272,122.940341 235.347272,123.928482 235.958183,124.541839 C236.569093,125.15272 237.559757,125.15272 238.170667,124.541839 L248.041817,114.671985 C248.652728,114.060278 248.652728,113.069661 248.041817,112.45878 C247.428431,111.847073 246.437766,111.847073 245.82603,112.45878 Z" id="color_3_24" fill="#304FFE"></path>
                <path d="M267.17391,96.5418829 L277.040077,86.6721431 C277.653308,86.0613204 277.653308,85.0699716 277.040077,84.4599743 C276.429322,83.8466752 275.438083,83.8466752 274.827328,84.4599743 L264.958685,94.3272378 C264.347105,94.9397114 264.347105,95.9285839 264.958685,96.5418829 C265.571916,97.1527057 266.562329,97.1527057 267.17391,96.5418829 Z" id="color_3_25" fill="#304FFE"></path>
                <path d="M245.5,104.49842 C245.5,103.672196 244.802855,103 243.941482,103 L230.057697,103 C229.198788,103 228.5,103.670616 228.5,104.49842 C228.5,105.327804 229.197966,106 230.057697,106 L243.941482,106 C244.802855,106 245.5,105.329384 245.5,104.49842 Z" id="color_3_26" fill="#304FFE"></path>
                <path d="M283.943124,103 L270.058518,103 C269.199609,103 268.5,103.671406 268.5,104.49921 C268.5,105.328594 269.197966,106 270.058518,106 L283.941482,106 C284.801212,106 285.5,105.329384 285.5,104.49921 C285.5,103.671406 284.802855,103 283.943124,103 Z" id="color_3_27" fill="#304FFE"></path>
                <path d="M255.999605,116 C255.171937,116 254.5,116.654686 254.5,117.467053 L254.5,130.53372 C254.5,131.342222 255.171146,132 255.999605,132 C256.828063,132 257.5,131.343768 257.5,130.53372 L257.5,117.467053 C257.5,116.654686 256.827273,116 255.999605,116 Z" id="color_3_28" fill="#304FFE"></path>
                <path d="M255.999605,76 C255.171937,76 254.5,76.6561368 254.5,77.4660677 L254.5,90.535478 C254.5,91.344636 255.171146,92 255.999605,92 C256.828063,92 257.5,91.3454089 257.5,90.535478 L257.5,77.4660677 C257.5,76.6576825 256.827273,76 255.999605,76 Z" id="color_3_29" fill="#304FFE"></path>
                <path d="M71.1711594,76.4599378 C70.5602785,75.8466874 69.5688352,75.8466874 68.9587798,76.4599378 C68.3470734,77.0715374 68.3470734,78.0619822 68.9587798,78.6727564 L78.8261577,88.5425383 C79.4370386,89.1524872 80.4284818,89.1524872 81.0418393,88.5425383 C81.6527202,87.9284626 81.6527202,86.940494 81.0418393,86.3272436 L71.1711594,76.4599378 Z" id="color_3_30" fill="#FF9800"></path>
                <path d="M99.1734179,103.458153 C98.5626339,102.847282 97.5713481,102.847282 96.958088,103.458153 C96.347304,104.068199 96.347304,105.060452 96.958088,105.670498 L106.827201,115.541847 C107.437985,116.152718 108.429271,116.152718 109.040055,115.541847 C109.653315,114.927673 109.653315,113.939548 109.040055,113.322898 L99.1734179,103.458153 Z" id="color_3_31" fill="#FF9800"></path>
                <path d="M78.8261577,103.458153 L68.9587798,113.322898 C68.3470734,113.939548 68.3470734,114.927673 68.9587798,115.541847 C69.5688352,116.152718 70.5602785,116.152718 71.1711594,115.541847 L81.0418393,105.670498 C81.6527202,105.060452 81.6527202,104.068199 81.0418393,103.458153 C80.4284818,102.847282 79.4370386,102.847282 78.8261577,103.458153 Z" id="color_3_32" fill="#FF9800"></path>
                <path d="M99.1734179,88.541912 L109.040055,78.6727988 C109.653315,78.0620149 109.653315,77.070729 109.040055,76.4599451 C108.429271,75.846685 107.437985,75.846685 106.827201,76.4599451 L96.958088,86.3274075 C96.347304,86.9406676 96.347304,87.9286519 96.958088,88.541912 C97.5713481,89.152696 98.5626339,89.152696 99.1734179,88.541912 Z" id="color_3_33" fill="#FF9800"></path>
                <path d="M77.5,96.4992101 C77.5,95.6721959 76.8028547,95 75.942303,95 L62.0585181,95 C61.1996088,95 60.5,95.671406 60.5,96.4992101 C60.5,97.328594 61.1979665,98 62.0585181,98 L75.942303,98 C76.8028547,98 77.5,97.328594 77.5,96.4992101 Z" id="color_3_34" fill="#FF9800"></path>
                <path d="M114.942228,95 L101.057772,95 C100.198821,95 99.5,95.671406 99.5,96.4992101 C99.5,97.328594 100.198,98 101.057772,98 L114.942228,98 C115.802,98 116.5,97.3293839 116.5,96.4992101 C116.5,95.6721959 115.802,95 114.942228,95 Z" id="color_3_35" fill="#FF9800"></path>
                <path d="M89.0003953,108 C88.1727273,108 87.5,108.653172 87.5,109.466351 L87.5,122.532876 C87.5,123.34219 88.1711462,124 89.0003953,124 C89.8280632,124 90.5,123.342963 90.5,122.532876 L90.5,109.466351 C90.498419,108.653172 89.8272727,108 89.0003953,108 Z" id="color_3_36" fill="#FF9800"></path>
                <path d="M90.5,69.4661385 L90.5,82.5361801 C90.5,83.3453773 89.8286769,84 89,84 C88.1705324,84 87.5,83.3461501 87.5,82.5361801 L87.5,69.4661385 C87.5,68.6577142 88.1705324,68 89,68 C89.8286769,68 90.5,68.6577142 90.5,69.4661385 Z" id="color_3_37" fill="#FF9800"></path>
                <path d="M178.420755,117.36372 C178.427827,117.444529 178.427041,117.522199 178.429398,117.600654 C178.463183,118.703727 177.979197,119.618509 177.294073,119.692257 C177.246146,119.696964 177.19979,119.68755 177.151863,119.685196 C176.463597,119.640477 175.855472,118.779828 175.741547,117.654787 C175.619764,116.449723 176.135964,115.407844 176.872157,115.326251 C177.618564,115.248581 178.308401,116.160225 178.420755,117.36372 Z M192.73763,119.693826 C193.47068,119.614587 193.983737,118.572708 193.867454,117.36372 C193.751958,116.160225 193.061335,115.247012 192.313356,115.327035 C191.577163,115.407844 191.062535,116.450507 191.184317,117.655572 C191.305314,118.858283 191.992794,119.773065 192.73763,119.693826 Z M422.893446,111.503151 C423.104011,111.198747 423.29572,110.879436 423.5,110.571109 C423.175509,109.655542 422.834519,108.751744 422.47153,107.864421 C419.729465,100.863905 413.5555,87.2700523 405.179241,82.0951778 L405.178455,82.0802714 C403.094801,78.9201146 399.954391,76.9163806 396.487133,77.0026809 L378.584362,77.4365356 L357.922241,77.9378613 L340.417815,78.3638705 C337.266406,78.4407562 334.484272,80.209126 332.558541,82.9519036 C332.544399,82.9652409 332.544399,82.9785782 332.533399,82.9895618 C332.322834,83.183345 332.138196,83.3786973 331.942559,83.5968015 C327.64404,88.3605731 318.044458,109.683002 318.044458,109.683002 C318.044458,109.683002 317.282337,112.333987 316.455004,116.044112 C316.579929,116.923589 316.396077,117.821111 315.916805,118.581338 C315.798166,119.172102 315.679526,119.774634 315.567958,120.390504 C315.122471,120.287728 314.654199,120.183384 314.159998,120.082962 C314.562273,120.539568 314.964547,120.996175 315.378606,121.441798 C316.671069,122.842215 318.020888,124.189282 319.42099,125.480647 C319.552986,125.216255 319.710125,124.960493 319.912047,124.725128 C320.284465,124.290489 320.735452,123.971963 321.224938,123.751505 C322.52133,123.161525 324.093499,123.323927 325.246109,124.307749 C326.07737,125.01698 326.93456,125.71052 327.794892,126.36797 C329.82512,127.940988 331.901703,129.372002 333.981429,130.633555 C334.943116,129.600306 335.896945,128.502724 336.831919,127.343163 L337.547684,132.878145 C338.658652,134.035352 338.960357,135.810783 338.148738,137.295146 C338.141667,137.306914 338.131453,137.31476 338.124381,137.326528 L338.199022,137.892971 C340.290533,138.83129 342.442543,139.655849 344.635409,140.390186 C344.659765,140.263874 344.669193,140.139915 344.707692,140.015172 C345.304032,138.015361 347.407329,136.885613 349.4132,137.469316 C353.831144,138.781864 358.407799,139.631528 363.015095,139.994774 C365.074393,140.155606 366.611992,141.935744 366.488638,143.984197 C367.188689,143.98812 367.882455,144.010872 368.585649,143.993612 C370.269386,143.952815 371.934267,143.835918 373.588148,143.678224 C373.440438,141.690965 374.859397,139.911612 376.860554,139.651927 C381.448208,139.060378 385.976935,137.985548 390.320239,136.45725 C392.079403,135.837457 393.982348,136.599253 394.865466,138.171486 C396.967191,137.25435 399.024917,136.263466 401.008789,135.154116 L401.102286,134.534324 C400.90822,133.628956 401.056716,132.695345 401.50456,131.89746 L402.496889,125.378656 C403.1113,126.29893 404.005417,127.595787 405.084958,129.034647 C405.457375,128.785945 405.847079,128.55215 406.210854,128.298742 C408.878277,126.436226 411.434132,124.353253 413.802993,122.114155 C415.035743,120.948317 416.841263,120.789054 418.246865,121.579093 C419.880318,119.815431 421.42656,117.972529 422.874589,116.046465 C421.971044,114.814726 421.862618,113.094214 422.730808,111.735377 C422.774807,111.671045 422.846304,111.5667 422.893446,111.503151 Z M166.293604,133.633664 C168.01584,135.15647 170.207134,136.334076 172.821916,137.100579 C174.508011,137.595628 176.3701,137.919646 178.383042,138.067925 C178.771174,138.886208 179.467297,139.522476 180.327629,139.834726 C180.696904,139.968099 181.090536,140.055184 181.509309,140.055184 C183.425612,140.055184 184.977353,138.504918 184.977353,136.591407 C184.977353,134.678681 183.425612,133.128415 181.509309,133.128415 C181.092107,133.128415 180.696904,133.213931 180.327629,133.348873 C179.331372,133.711334 178.55668,134.511572 178.225904,135.522854 C176.237318,135.348684 174.423156,134.98387 172.821916,134.430764 C170.709191,133.702704 168.95867,132.656118 167.613566,131.336509 C168.506112,129.394754 169.125237,127.048173 169.385301,124.479565 C169.473298,123.607933 169.526725,122.713549 169.526725,121.795628 C169.526725,118.936738 169.071024,116.273199 168.293189,113.993305 C167.520068,111.72204 166.424814,109.833635 165.111923,108.552469 L165.111923,90.6145777 C171.637879,89.584467 182.925912,88.1652208 190.08042,89.2722172 C190.241487,88.9160327 190.336556,88.5245435 190.336556,88.1087334 C190.336556,86.544346 189.065307,85.2749483 187.498637,85.2749483 L162.274791,85.2749483 C160.708121,85.2749483 159.436872,86.544346 159.436872,88.1087334 L159.436872,106.953561 C158.027341,107.421936 156.738807,108.503827 155.667123,110.043109 C155.496628,110.287888 155.336347,110.548357 155.177637,110.814319 C153.531613,113.569649 152.5,117.464142 152.5,121.797198 C152.5,123.344325 152.631211,124.83418 152.876346,126.239305 C153.713108,131.084669 155.887903,134.880309 158.63311,136.298771 C159.043241,136.509814 159.465943,136.663586 159.898073,136.764792 C160.264206,136.848739 160.635052,136.90758 161.01297,136.90758 C161.59831,136.90758 162.169508,136.802451 162.722635,136.603175 C164.055168,136.119894 165.269847,135.079584 166.293604,133.633664 Z" id="color_21" fill="#0BABF4"></path>
                <path d="M452.5,297.48508 C452.5,298.872946 451.137576,300 449.455136,300 L3.54329568,300 C1.86399257,300 0.5,298.872946 0.5,297.48508 C0.5,296.097214 1.86399257,294.970943 3.54329568,294.970943 L38.6008069,294.970943 C39.0533795,295.554442 39.5177174,296.119927 39.9993111,296.647034 L65.3794558,296.108962 C65.6853541,295.743981 65.9834088,295.360987 66.2783261,294.970943 L132.962582,294.970943 C133.051998,294.492396 133.136708,294.013065 133.2324,293.534517 C133.259068,293.402936 133.28652,293.271355 133.312404,293.138991 C133.489668,292.279015 133.676344,291.422172 133.874002,290.566113 C133.881845,290.534784 133.889689,290.501889 133.896748,290.47056 C134.108524,289.559675 134.333634,288.653489 134.565802,287.752002 C134.593255,287.643918 134.622276,287.538183 134.649728,287.430099 C134.857582,286.636697 135.072496,285.845645 135.294468,285.060075 C135.328195,284.937109 135.363491,284.81571 135.398003,284.691961 C135.647427,283.815538 135.903911,282.94538 136.167454,282.086188 C136.180789,282.04546 136.193338,282.003949 136.206672,281.962439 C136.449038,281.16982 136.700816,280.385816 136.954162,279.608862 C137.010636,279.434204 137.067109,279.260329 137.125151,279.085671 C137.657728,277.471454 138.207561,275.894049 138.766805,274.363636 C138.841319,274.161566 138.914264,273.960278 138.989562,273.758207 C139.209181,273.16296 139.429585,272.578678 139.64842,271.999878 C139.713521,271.830702 139.777839,271.658394 139.842156,271.490001 C140.108052,270.799201 140.373164,270.123282 140.638275,269.459111 C140.727692,269.235894 140.817108,269.015809 140.90574,268.795724 C141.090064,268.33519 141.275171,267.883272 141.45871,267.436054 C141.560676,267.190123 141.663427,266.939492 141.76304,266.697477 C141.991287,266.152356 142.215612,265.619766 142.438369,265.098925 C142.558375,264.820098 142.675244,264.55067 142.792113,264.280459 C142.941925,263.933493 143.091737,263.590442 143.238411,263.256007 C143.361554,262.979531 143.480776,262.705404 143.600783,262.437542 C143.73177,262.143052 143.861188,261.856393 143.989822,261.572867 C144.17493,261.161677 144.357685,260.761451 144.535733,260.375324 C144.655739,260.116861 144.774177,259.856832 144.888693,259.608551 C145.014974,259.342256 145.134196,259.084577 145.254986,258.830813 C145.344403,258.638924 145.433819,258.451735 145.520098,258.270028 C145.596181,258.111034 145.677753,257.935593 145.751483,257.783648 C147.870024,250.473854 149.424615,243.525124 149.26696,239.26049 C149.013613,232.291397 144.762412,219.951763 140.067265,208.289614 C135.375256,220.864997 129.558483,235.105507 127.257971,240.683601 C127.224244,240.591964 127.189732,240.490146 127.156005,240.407125 C123.227957,231.179224 110.535532,231.335085 108.210705,235.095325 C110.370033,214.083094 121.568263,181.551259 128.720792,170.105279 C129.22827,169.29308 129.716923,168.581133 130.178907,167.992934 C133.017487,162.855793 137.694593,159.490296 142.993692,159.490296 L157.706615,159.357932 L158.200758,159.353232 L159.363956,160.373768 L161.696627,162.419539 L174.531805,173.672847 L176.851925,170.963689 L187.014807,159.095553 L197.54712,159 L197.580848,159.32582 C202.26266,158.19485 209.467741,160.300929 214.637422,165.606462 C215.681398,166.678691 216.648507,167.868402 217.487766,169.199877 C219.425122,172.277149 228.323624,181.306111 237.353114,190.140052 L172.24698,190.140052 C167.700076,190.140052 164.01361,193.821187 164.01361,198.363081 L164.01361,287.480225 C164.01361,290.81831 166.009008,293.686462 168.871118,294.973293 L449.455136,294.973293 C451.137576,294.970943 452.5,296.097214 452.5,297.48508 Z" id="color_1" fill="#FF9800"></path>
                <path d="M452.5,296.249805 C452.5,295.56066 451.936049,295 451.241111,295 L1.75888906,295 C1.06395093,295 0.5,295.56066 0.5,296.249805 L0.5,298.750195 C0.5,299.440118 1.06395093,300 1.75888906,300 L451.241111,300 C451.936049,300 452.5,299.440118 452.5,298.750195 L452.5,296.249805 Z" id="Path" fill="url(#linearGradient-3)"></path>
                <path d="M325.5,198.234541 L325.5,287.495012 C325.5,290.838407 323.504891,293.710337 320.643195,295.000001 L169.356805,295.000001 C166.495109,293.710337 164.5,290.838407 164.5,287.495012 L164.5,198.235326 C164.5,193.686991 168.185933,190.000001 172.732179,190.000001 L317.267821,190.000001 C321.815635,189.998432 325.5,193.686207 325.5,198.234541 Z M251.863678,243.406451 C251.863678,239.23466 248.481246,235.851258 244.309868,235.851258 C240.139273,235.851258 236.756841,239.23466 236.756841,243.406451 C236.756841,247.578241 240.139273,250.962428 244.309868,250.962428 C248.481246,250.962428 251.863678,247.57981 251.863678,243.406451 Z" id="color_2" stroke="url(#linearGradient-4)" stroke-width="8" fill="#0BABF4"></path>
            </g>
        </g>
    </g>
</svg>