<?xml version="1.0" encoding="UTF-8"?>
<svg width="386px" height="218px" viewBox="0 0 386 218" version="1.1" xmlns="http://www.w3.org/2000/svg" xmlns:xlink="http://www.w3.org/1999/xlink">
    <!-- Generator: Sketch 64 (93537) - https://sketch.com -->
    <title>Artwork</title>
    <desc>Created with Sketch.</desc>
    <defs>
        <linearGradient x1="83.5469975%" y1="48.3538603%" x2="16.9922816%" y2="50.0000142%" id="linearGradient-1">
            <stop stop-color="#FF9800" offset="0%"></stop>
            <stop stop-color="#FFE0B2" offset="100%"></stop>
        </linearGradient>
        <linearGradient x1="-8.60530397e-05%" y1="49.9996124%" x2="99.9995697%" y2="49.9996124%" id="linearGradient-2">
            <stop stop-color="#FF9800" offset="0%"></stop>
            <stop stop-color="#FFE0B2" offset="100%"></stop>
        </linearGradient>
        <linearGradient x1="0.000470494136%" y1="49.9980527%" x2="100.000235%" y2="49.9980527%" id="linearGradient-3">
            <stop stop-color="#FF9800" offset="0%"></stop>
            <stop stop-color="#FFE0B2" offset="100%"></stop>
        </linearGradient>
        <linearGradient x1="0.000235247622%" y1="50.0038947%" x2="100.000235%" y2="50.0038947%" id="linearGradient-4">
            <stop stop-color="#FF9800" offset="0%"></stop>
            <stop stop-color="#FFE0B2" offset="100%"></stop>
        </linearGradient>
        <linearGradient x1="0.000417283899%" y1="49.9980527%" x2="99.9995827%" y2="49.9980527%" id="linearGradient-5">
            <stop stop-color="#FF9800" offset="0%"></stop>
            <stop stop-color="#FFE0B2" offset="100%"></stop>
        </linearGradient>
        <linearGradient x1="0.00120869292%" y1="49.9980527%" x2="100.000121%" y2="49.9980527%" id="linearGradient-6">
            <stop stop-color="#FF9800" offset="0%"></stop>
            <stop stop-color="#FFE0B2" offset="100%"></stop>
        </linearGradient>
        <linearGradient x1="0.000235247622%" y1="49.9980527%" x2="100.000235%" y2="49.9980527%" id="linearGradient-7">
            <stop stop-color="#FF9800" offset="0%"></stop>
            <stop stop-color="#FFE0B2" offset="100%"></stop>
        </linearGradient>
        <linearGradient x1="0.000235244301%" y1="49.9980527%" x2="99.9988238%" y2="49.9980527%" id="linearGradient-8">
            <stop stop-color="#FF9800" offset="0%"></stop>
            <stop stop-color="#FFE0B2" offset="100%"></stop>
        </linearGradient>
        <linearGradient x1="11.2752964%" y1="56.5564913%" x2="4.46677747%" y2="41.1324927%" id="linearGradient-9">
            <stop stop-color="#0BABF4" offset="0%"></stop>
            <stop stop-color="#B0E4FB" offset="100%"></stop>
        </linearGradient>
        <linearGradient x1="0%" y1="55.2005667%" x2="100.000106%" y2="55.2005667%" id="linearGradient-10">
            <stop stop-color="#03A9F4" stop-opacity="0.5" offset="0%"></stop>
            <stop stop-color="#B3E5FC" stop-opacity="0.5" offset="100%"></stop>
        </linearGradient>
        <linearGradient x1="-0.000866611204%" y1="49.9998605%" x2="100%" y2="49.9998605%" id="linearGradient-11">
            <stop stop-color="#0BABF4" offset="0%"></stop>
            <stop stop-color="#B3E5FC" offset="100%"></stop>
        </linearGradient>
        <linearGradient x1="0%" y1="50.0233718%" x2="100%" y2="50.0233718%" id="linearGradient-12">
            <stop stop-color="#FF9800" offset="0%"></stop>
            <stop stop-color="#FFE0B2" offset="100%"></stop>
        </linearGradient>
        <linearGradient x1="0%" y1="50.0109529%" x2="99.9979778%" y2="50.0109529%" id="linearGradient-13">
            <stop stop-color="#0BABF4" offset="0%"></stop>
            <stop stop-color="#B3E5FC" offset="100%"></stop>
        </linearGradient>
        <linearGradient x1="0%" y1="50.0109529%" x2="100.000461%" y2="50.0109529%" id="linearGradient-14">
            <stop stop-color="#FF9800" offset="0%"></stop>
            <stop stop-color="#FFE0B2" offset="100%"></stop>
        </linearGradient>
        <linearGradient x1="0%" y1="49.9890471%" x2="99.9993259%" y2="49.9890471%" id="linearGradient-15">
            <stop stop-color="#0BABF4" offset="0%"></stop>
            <stop stop-color="#B3E5FC" offset="100%"></stop>
        </linearGradient>
        <linearGradient x1="0%" y1="49.9890471%" x2="99.996644%" y2="49.9890471%" id="linearGradient-16">
            <stop stop-color="#FF9800" offset="0%"></stop>
            <stop stop-color="#FFE0B2" offset="100%"></stop>
        </linearGradient>
        <linearGradient x1="0%" y1="50%" x2="99.9985885%" y2="50%" id="linearGradient-17">
            <stop stop-color="#FF9800" offset="0%"></stop>
            <stop stop-color="#FFE0B2" offset="100%"></stop>
        </linearGradient>
        <linearGradient x1="0%" y1="50%" x2="99.9983309%" y2="50%" id="linearGradient-18">
            <stop stop-color="#FF9800" offset="0%"></stop>
            <stop stop-color="#FFE0B2" offset="100%"></stop>
        </linearGradient>
        <linearGradient x1="0%" y1="50%" x2="99.9920232%" y2="50%" id="linearGradient-19">
            <stop stop-color="#FF9800" offset="0%"></stop>
            <stop stop-color="#FFE0B2" offset="100%"></stop>
        </linearGradient>
        <linearGradient x1="0%" y1="50.019478%" x2="99.9985885%" y2="50.019478%" id="linearGradient-20">
            <stop stop-color="#FF9800" offset="0%"></stop>
            <stop stop-color="#FFE0B2" offset="100%"></stop>
        </linearGradient>
        <linearGradient x1="0%" y1="50%" x2="100.001647%" y2="50%" id="linearGradient-21">
            <stop stop-color="#FF9800" offset="0%"></stop>
            <stop stop-color="#FFE0B2" offset="100%"></stop>
        </linearGradient>
        <linearGradient x1="0%" y1="50.019478%" x2="100.002504%" y2="50.019478%" id="linearGradient-22">
            <stop stop-color="#FF9800" offset="0%"></stop>
            <stop stop-color="#FFE0B2" offset="100%"></stop>
        </linearGradient>
        <linearGradient x1="0%" y1="50.019478%" x2="100.007857%" y2="50.019478%" id="linearGradient-23">
            <stop stop-color="#F5F5F5" offset="0%"></stop>
            <stop stop-color="#FFE0B2" offset="100%"></stop>
        </linearGradient>
        <linearGradient x1="0%" y1="50%" x2="100.007857%" y2="50%" id="linearGradient-24">
            <stop stop-color="#FF9800" offset="0%"></stop>
            <stop stop-color="#FFE0B2" offset="100%"></stop>
        </linearGradient>
        <linearGradient x1="0%" y1="49.980522%" x2="100.002504%" y2="49.980522%" id="linearGradient-25">
            <stop stop-color="#FF9800" offset="0%"></stop>
            <stop stop-color="#FFE0B2" offset="100%"></stop>
        </linearGradient>
        <linearGradient x1="0%" y1="50%" x2="99.9956186%" y2="50%" id="linearGradient-26">
            <stop stop-color="#03A9F4" offset="0%"></stop>
            <stop stop-color="#B3E5FC" offset="100%"></stop>
        </linearGradient>
        <linearGradient x1="0%" y1="50.0109529%" x2="100.005258%" y2="50.0109529%" id="linearGradient-27">
            <stop stop-color="#FF9800" offset="0%"></stop>
            <stop stop-color="#FFE0B2" offset="100%"></stop>
        </linearGradient>
        <linearGradient x1="0%" y1="49.9951319%" x2="99.9964949%" y2="49.9951319%" id="linearGradient-28">
            <stop stop-color="#FF9800" offset="0%"></stop>
            <stop stop-color="#FFE0B2" offset="100%"></stop>
        </linearGradient>
        <linearGradient x1="0%" y1="49.9941582%" x2="99.9991237%" y2="49.9941582%" id="linearGradient-29">
            <stop stop-color="#03A9F4" offset="0%"></stop>
            <stop stop-color="#B3E5FC" offset="100%"></stop>
        </linearGradient>
        <linearGradient x1="88.5542483%" y1="60.7709131%" x2="-4.18731105%" y2="44.1039913%" id="linearGradient-30">
            <stop stop-color="#FF9800" offset="0%"></stop>
            <stop stop-color="#FFE0B2" offset="100%"></stop>
        </linearGradient>
        <linearGradient x1="5.53206731%" y1="43.4234234%" x2="92.3456115%" y2="74.0252252%" id="linearGradient-31">
            <stop stop-color="#FF9800" offset="0%"></stop>
            <stop stop-color="#FFE0B2" offset="100%"></stop>
        </linearGradient>
    </defs>
    <g id="Landing" stroke="none" stroke-width="1" fill="none" fill-rule="evenodd">
        <g transform="translate(-202.000000, -3869.000000)" id="Timeline">
            <g transform="translate(170.000000, 3715.000000)">
                <g id="Left" transform="translate(32.000000, 0.000000)">
                    <g id="Artwork" transform="translate(0.000000, 154.000000)">
                        <g id="Group" transform="translate(0.000000, 70.000000)">
                            <path d="M58.6593387,79.8053649 C57.185183,79.6208563 55.7110273,79.431076 54.2420441,79.2465674 C54.2420441,78.3082092 53.8747982,74.9290655 53.6885891,74.3649963 C53.6885891,73.4266381 53.1351341,72.4882799 52.5816792,72.2984996 C51.8471876,72.113991 51.2937326,72.6780602 50.9264868,73.6164184 C50.7402777,74.3649963 50.9264868,75.3033544 51.1075235,76.0519323 C51.2937326,76.4314929 52.2144334,78.3082092 53.1351341,79.0567871 C51.6609784,78.8670068 50.0057861,78.6824981 48.5316303,78.3082092 C48.3454212,77.74414 48.1643845,77.369851 47.9781754,76.8057818 C47.7919662,75.8674236 47.9781754,75.1135741 47.7919662,74.175216 C47.6109296,73.2368578 47.2436838,72.4882799 46.5040197,72.2984996 C45.5833189,72.113991 44.8488273,73.2368578 44.8488273,74.3649963 C44.8488273,75.4931347 45.4022822,76.2417126 45.9505647,77.1800707 C46.1367739,77.369851 46.322983,77.74414 46.6902288,78.1184289 L46.322983,78.1184289 C45.5833189,77.9286486 45.029864,77.74414 44.2953723,77.5543597 C44.1091632,76.4314929 43.3746716,75.1135741 43.0074258,73.9907073 C42.64018,72.8625689 42.4539708,71.7344304 41.7194792,70.9858525 C40.9798151,70.2372747 39.8729052,70.0474944 39.1384136,70.8013439 C38.5849586,71.5499218 38.9522044,72.8625689 39.3246227,73.6164184 C39.8729052,74.5547766 40.9798151,76.0519323 42.2677617,76.9902904 C40.793606,76.6160015 39.5056594,76.2417126 38.0315037,75.6776433 C37.2970121,73.9907073 37.6642579,70.9858525 36.3763113,69.2989165 C35.8228563,68.545067 34.7211189,67.7964891 33.9814548,68.7348473 C33.4279999,69.2989165 33.8004181,70.8013439 33.9814548,71.5499218 C34.3487006,72.8625689 35.0883647,74.175216 36.0090655,75.1135741 C35.4556105,74.9290655 34.9021556,74.7392852 34.3487006,74.5547766 C33.614209,74.3649963 32.8745449,73.9907073 32.1400533,73.800927 C31.9538441,73.0523492 31.4055617,71.9242107 31.2193525,70.8013439 C31.0331434,69.2989165 30.8521067,67.6067088 29.377951,66.858131 C28.0900044,66.2940617 25.695148,66.6683507 26.6158487,68.9193559 C27.1693037,70.2372747 28.2710411,71.7344304 29.5641601,72.8625689 C28.2710411,72.2984996 26.8020579,71.7344304 25.5089388,71.1756328 C25.3279021,70.0474944 24.7744472,69.1091362 24.7744472,67.4222002 C24.7744472,65.9197728 25.3279021,64.0430565 24.0347831,63.289207 C22.5657999,62.3508488 21.0916441,63.8532762 21.45889,65.5402122 C21.8261358,67.4222002 23.3002915,68.9193559 24.4072014,70.2372747 C24.588238,70.4217833 24.7744472,70.6115636 25.141693,70.9858525 C24.4072014,70.6115636 23.4865006,70.2372747 22.7468365,69.8629858 C22.1933816,69.6732055 21.6450991,69.2989165 21.0916441,69.1091362 C21.0916441,68.545067 20.5381892,67.7964891 20.35198,66.6683507 C19.9847342,65.3557036 20.35198,64.6071257 19.0640335,63.8532762 C17.9571236,63.1046983 16.4881403,63.289207 16.8553861,65.1659233 C17.222632,66.6683507 18.3295419,67.7964891 19.6174884,68.545067 C17.9571236,67.7964891 16.3019312,67.2324199 14.6467388,66.858131 C11.1449724,63.1046983 4.70006709,63.4789873 1.01726405,66.1042814 C0.650018237,66.2940617 0.277599951,66.6683507 0.0965632844,67.0426396 C-0.270682525,67.9809978 0.463809094,69.1091362 1.38450986,69.4834252 C2.49141976,70.0474944 3.960403,69.8629858 5.0673129,69.4834252 C6.35525948,69.1091362 7.46216938,68.545067 8.56907929,67.9809978 C9.48978005,67.6067088 10.5915175,67.4222002 11.5122182,67.2324199 C13.1725831,67.2324199 15.0139846,67.7964891 16.669177,68.3605584 C15.5674396,68.3605584 14.0932839,68.7348473 13.5398289,68.9193559 C11.8846365,69.4834252 10.4104808,70.4217833 9.48978005,71.9242107 C9.3035709,72.2984996 9.12253424,72.4882799 9.12253424,72.8625689 C9.12253424,73.2368578 9.67081671,73.4266381 10.043235,73.6164184 C11.3311816,73.9907073 12.8001648,73.6164184 13.9070747,72.8625689 C15.3812304,71.7344304 16.4881403,70.0474944 17.9571236,68.9193559 C18.8778243,69.2989165 19.8036976,69.8629858 20.905435,70.2372747 C19.4312793,70.4217833 17.9571236,71.1756328 17.222632,71.7344304 C16.669177,72.113991 16.115722,72.6780602 15.9346854,73.2368578 C15.7484762,73.9907073 15.7484762,74.7392852 16.115722,75.3033544 C16.3019312,75.6776433 16.669177,75.6776433 17.0415953,75.6776433 C18.1433327,75.6776433 19.2502426,74.7392852 19.9847342,73.800927 C20.7243983,72.8625689 21.8261358,72.113991 22.5657999,71.1756328 C22.7468365,71.1756328 22.7468365,71.3601415 22.9330457,71.3601415 C24.588238,72.113991 26.2486029,72.8625689 27.9037953,73.6164184 C26.9830945,73.6164184 25.8761846,73.6164184 24.9554839,73.800927 C22.9330457,74.175216 20.905435,74.9290655 19.4312793,76.4314929 C18.8778243,76.9902904 18.1433327,77.74414 17.9571236,78.6824981 C17.7760869,79.0567871 17.7760869,79.431076 17.9571236,79.8053649 C18.1433327,79.9951452 18.3295419,79.9951452 18.5105785,80.1849255 C19.6174884,80.5592144 20.7243983,80.1849255 21.6450991,79.431076 C23.1140823,78.4927178 24.4072014,76.9902904 25.8761846,75.6776433 C26.6158487,74.9290655 27.5365495,74.175216 28.6434594,73.800927 C30.2986518,74.5547766 32.1400533,75.3033544 33.9814548,75.8674236 C32.1400533,75.6776433 29.7451968,76.2417126 28.2710411,76.8057818 C26.8020579,77.1800707 25.141693,78.3082092 24.588238,79.9951452 C24.588238,80.1849255 24.4072014,80.5592144 24.588238,80.7489948 C24.7744472,81.6873529 25.5089388,82.0616418 26.2486029,82.0616418 C27.1693037,82.0616418 28.0900044,81.4975726 28.824496,80.7489948 C29.5641601,79.9951452 30.2986518,79.2465674 31.0331434,78.4927178 C32.3262624,77.1800707 33.8004181,76.6160015 35.2694014,76.0519323 C36.5625204,76.6160015 38.0315037,76.9902904 39.5056594,77.369851 C38.5849586,77.5543597 37.6642579,77.74414 37.1108029,77.9286486 C35.6418197,78.4927178 34.167664,79.431076 32.8745449,80.7489948 C32.5072991,81.1232837 31.9538441,81.6873529 32.1400533,82.4359308 C32.1400533,82.6257111 32.1400533,82.8102197 32.3262624,83 L37.2970121,83 C37.6642579,82.6257111 38.0315037,82.0616418 38.403922,81.6873529 C38.9522044,80.9335034 39.5056594,80.1849255 40.0591143,79.431076 C40.4263601,78.8670068 40.9798151,78.4927178 41.5332701,78.1184289 C43.0074258,78.4927178 44.6626181,78.8670068 46.1367739,79.2465674 C45.4022822,79.2465674 44.8488273,79.431076 44.1091632,79.6208563 C42.64018,79.9951452 41.3470609,80.9335034 40.2453235,82.2461505 C40.0591143,82.4359308 39.8729052,82.6257111 39.8729052,83 L43.9281265,83 C44.1091632,82.8102197 44.2953723,82.4359308 44.2953723,82.2461505 C44.4815815,81.6873529 44.6626181,81.1232837 45.029864,80.7489948 C45.4022822,80.1849255 45.9505647,79.9951452 46.5040197,79.6208563 C46.6902288,79.6208563 46.6902288,79.431076 46.8712655,79.431076 C48.1643845,79.6208563 49.266122,79.9951452 50.5540685,80.1849255 C49.266122,80.7489948 48.1643845,81.8718615 47.2436838,83 L50.3730319,83 C50.5540685,82.6257111 50.5540685,82.2461505 50.7402777,81.8718615 C50.9264868,81.3077923 51.4747693,80.9335034 51.8471876,80.3694341 C53.8747982,80.5592144 55.8972364,80.7489948 57.738638,80.5592144 C59.2127937,80.7489948 59.2127937,79.8053649 58.6593387,79.8053649 Z" id="Path" fill="#304FFE"></path>
                            <path d="M26,46 C40.5561304,49.9521691 37.9405348,60.1073415 38.3179353,65 C39.2509534,76.2858732 46.7150981,82.1190211 55.8565786,84 L67.9910553,84 C68.3632142,83.0595106 57.1669972,46 26,46 Z" id="Path" fill="#0BABF4"></path>
                            <path d="M75.232344,71.9989134 C74.3022025,70.8772673 72.6300379,70.8772673 71.6946708,69.7503553 C70.3935178,68.2495612 70.3935178,64.126327 69.6514948,61.6881948 C68.3503417,57.5649606 66.4900586,53.9999165 63.5115155,51.7513583 C61.6512324,50.2505642 58.8608078,49.8766822 58.3016778,46.8750941 C57.7425477,43.6891979 57.7425477,40.5033017 56.4413947,37.5017136 C55.8822646,36.1904935 54.9521231,34.6896994 54.0219816,33.9366694 C52.9037215,33.0045973 51.4144499,33.7523614 50.3014154,33.3784793 C49.0002624,32.8150233 48.8121438,30.1873172 47.6938838,28.8760971 C46.2098377,27.001421 43.4194131,25.1267449 41,26.437965 C41,29.4395532 41,32.6254493 41.9301415,35.0635815 C42.6721646,37.3174055 44.7205662,38.2547436 44.7205662,40.8771837 C44.7205662,42.3779778 44.1614361,43.6891979 44.1614361,45.379566 C44.3495546,47.8124321 44.5324476,50.2505642 45.2796962,52.3148143 C46.3927307,55.3164025 48.6240253,55.8745926 50.1132969,58.1284166 C51.0434384,59.6239448 50.3014154,60.7508568 50.3014154,62.9994149 C50.3014154,66.0010031 51.0434384,69.1868992 52.1616985,71.4407233 C53.6509701,74.4370455 56.0703832,74.0631635 58.4845708,75.1900755 C59.9738423,75.9378396 59.2318193,76.3117216 59.9738423,78.3759717 C60.9039839,80.8141038 62.9523855,82.6887799 65.3717986,84 L75.232344,84 C76.533497,82.3148979 77.2755201,80.2506478 76.9045086,77.6229417 C76.9045086,75.5639575 76.350604,73.3153994 75.232344,71.9989134 Z" id="Path" fill="#B0E4FB"></path>
                            <path d="M84.2296368,58.106905 C84.0422023,57.178175 83.115443,53.4632549 81.4493588,49.3778863 C79.5958401,51.6057948 74.0300775,67.3994227 79.0387432,83 L86.0831555,83 C86.8224803,81.14254 98.3184614,61.6392096 94.0543271,36 C90.3472898,39.3444716 84.9689617,51.0475133 84.2296368,58.106905 Z" id="Path" fill="#C5CAE9"></path>
                            <path d="M81.8421482,69.2058882 C78.8474422,69.9495343 75.1001125,73.4949458 73.0369758,77.0351202 L73.0369758,71.2535335 C75.1001125,68.8288282 78.8474422,68.4570052 80.9105789,65.4719468 C83.1579241,62.3035954 80.7211071,60.0674201 77.5369294,62.4921254 C76.0369449,63.6128315 74.3474886,66.5926529 73.2264476,68.8288282 C73.2264476,67.524829 73.4106562,65.4719468 73.4106562,64.1679476 C73.4106562,63.0524784 73.4106562,61.7484793 73.6001279,60.6277731 C76.0369449,58.5748909 81.2842592,57.2708917 81.6579396,53.3536572 C81.8421482,50.5571289 79.036914,49.4416597 76.7843056,52.2381881 C75.6632646,53.7254803 74.3474886,55.7783625 73.6001279,58.0145378 C73.6001279,55.7783625 73.4106562,53.7254803 73.2264476,51.489305 C75.8474732,48.8813066 82.0316199,47.7606005 83.1579241,43.660073 C84.0947566,40.3031916 79.7842747,40.6750146 77.5369294,42.7278969 C75.2843211,44.7807791 74.16328,47.7606005 73.2264476,50.5571289 C73.0369758,49.0645997 72.8475041,47.3887775 72.6632955,45.8962483 C74.7264321,43.471543 78.8474422,41.0468377 79.594803,37.6951932 C80.3474268,34.3330749 77.5369294,31.7250765 74.5369604,35.642311 C72.8475041,37.6951932 72.4738238,40.4864846 72.1001434,43.0997199 C71.726463,41.4186607 71.3527827,39.7428385 70.7896306,38.0670163 C71.163311,36.9463102 71.726463,35.642311 72.6632955,34.1497818 C73.6001279,32.4739596 75.1001125,30.7929004 74.9106407,29.1170781 C74.5369604,26.1320198 72.1001434,28.3681951 70.9738392,30.6043704 C70.2264785,32.2854296 70.0370068,34.1497818 70.0370068,35.825604 C69.4791178,33.9612518 68.3528136,31.3532534 67.6054529,29.6721943 C68.5422854,26.3205498 76.4106253,18.3027878 70.6001589,19.4182569 C67.7896615,19.97861 66.8528291,25.3883737 67.0423008,28.5567251 C66.4791487,27.624549 65.3528446,25.5716667 65.3528446,25.3883737 C66.289677,22.5866084 70.6001589,13.6366702 66.6686205,14.1970233 C63.4791797,14.7573763 63.6686514,19.6067869 64.0423318,22.0314922 C64.0423318,22.4033153 64.0423318,22.7751384 64.2318035,23.3354914 C63.4791797,22.0314922 62.5423472,20.7222561 61.6055148,19.4182569 C62.1686669,18.4860808 62.9160276,16.8102586 63.294971,15.5010225 C63.4791797,14.5688463 64.2318035,10.2850258 61.6055148,12.332671 C60.6686823,13.0815541 60.295002,16.0613755 60.4844737,18.1142578 C59.7318499,17.1820816 58.9844892,16.4384355 58.2318654,15.5010225 C53.9266466,8.60396657 57.4845046,-2.2103238 51.1108861,0.397674555 C43.6162266,3.38273291 46.0530436,8.79249657 47.9267085,10.4683188 C49.6161647,11.960848 52.8003424,14.0137302 56.5476722,15.1291994 C57.2950329,16.0613755 60.295002,20.3504331 60.6686823,20.9107861 C57.4845046,18.1142578 51.1108861,12.8930241 48.8635409,17.1820816 C46.8004043,21.0993161 57.4845046,20.9107861 61.2318344,21.8429622 C62.3581386,23.5187845 64.7896925,28.184902 64.9791642,28.5567251 C63.4791797,27.436019 62.3581386,25.5716667 60.4844737,25.0113137 C58.7950174,24.4561975 54.8582159,24.8280206 55.0476877,27.0641959 C55.0476877,30.2325473 60.1055302,29.4889012 62.5423472,29.4889012 C64.2318035,29.4889012 64.9791642,30.0492543 65.5423163,29.8607243 C66.6686205,32.2854296 67.6054529,34.7101349 68.3528136,37.1348402 C66.289677,34.3330749 60.4844737,28.9285481 58.0476567,33.2176057 C54.8582159,38.8106624 64.9791642,36.3859571 68.5422854,37.6951932 C69.2896461,40.3031916 70.0370068,42.9111899 70.6001589,45.5244252 L70.6001589,45.7077183 C69.2896461,43.471543 68.3528136,41.0468377 65.731788,39.7428385 C63.4791797,38.4388393 59.5476413,38.6221324 59.5476413,42.7278969 C59.5476413,45.7077183 65.3528446,44.9640722 67.9791333,45.7077183 C69.1001743,46.0847783 70.0370068,46.6398944 70.6001589,47.0169544 C70.9738392,49.6249528 71.3527827,52.0496581 71.3527827,54.8461864 C66.6686205,52.2381881 62.7318189,42.3560738 58.7950174,48.1324236 C55.421368,53.3536572 66.4791487,51.677835 71.3527827,55.5898325 L71.3527827,62.8639484 C70.7896306,60.9995962 69.6633264,59.507067 68.5422854,58.0145378 C67.7896615,56.8990687 63.6686514,53.9140103 61.7949865,57.2708917 C60.1055302,60.6277731 65.9159966,61.7484793 67.6054529,62.1203023 C69.2896461,62.6806554 70.2264785,63.4243015 70.9738392,64.5450076 C70.9738392,64.9168307 70.6001589,70.6984174 70.6001589,72.9345927 C69.2896461,69.2058882 59.1686978,56.8990687 55.421368,66.0322999 C52.984551,71.8138866 64.9791642,70.1380643 67.7896615,71.2535335 C69.6633264,72.0024166 70.2264785,72.9345927 70.6001589,74.0500619 L70.6001589,78.1558263 C68.1633419,74.982238 62.1686669,69.2058882 59.3581695,75.359298 C55.9845201,82.6281769 65.5423163,78.5276494 67.4159812,79.0880025 C68.9159657,79.4598255 70.7896306,79.6431186 70.7896306,81.6960008 C70.7896306,82.0678239 70.9738392,82.6281769 70.9738392,83 L73.2264476,83 C73.0369758,81.6960008 73.0369758,80.3920016 72.8475041,78.8994725 C75.4737928,76.6632972 81.6579396,75.170768 83.3421327,73.3064157 C86.1526301,70.8817104 85.2157976,68.4570052 81.8421482,69.2058882 Z" id="Path" fill="#304FFE"></path>
                        </g>
                        <g id="Group-3" transform="translate(150.320049, 162.805142)">
                            <path d="M40.8277188,49.9019086 C40.8277188,47.0483666 31.6879658,44.7350582 20.4133254,44.7350582 C9.139753,44.7350582 -1.42108547e-14,47.0483666 -1.42108547e-14,49.9019086 C-1.42108547e-14,52.7565162 9.139753,55.0698245 20.4133254,55.0698245 C31.6879658,55.0698245 40.8277188,52.7565162 40.8277188,49.9019086 Z" id="Path" fill="#B3E5FC"></path>
                            <polygon id="Path" fill="#FF5252" points="41.0167508 45.8379021 43.4538759 45.8379021 43.4538759 13.9193616 41.0167508 13.9193616"></polygon>
                            <polygon id="Path" fill="#FF9800" points="41.0167508 45.8379021 43.4538759 45.8379021 43.4538759 13.9193616 41.0167508 13.9193616"></polygon>
                            <path d="M18.8871853,22.6675244 C18.8871853,22.6675244 33.1767267,27.2003727 41.0925773,19.6275112 L39.4137163,17.4356755 C39.4137163,17.4356755 24.0572653,20.8496967 20.3983737,18.347786 C16.7384142,15.8458754 18.8871853,22.6675244 18.8871853,22.6675244 Z" id="Path" fill="#304FFE"></path>
                            <path d="M40.6899497,19.3419439 L40.9708278,19.7063619 C33.0485694,27.2824201 18.7654358,22.7463751 18.7654358,22.7463751 C18.7654358,22.7463751 18.7280566,22.6312957 18.6735898,22.4426934 C20.3770142,22.9509606 33.304884,26.4193248 40.6899497,19.3419439 Z" id="Path" fill-opacity="0.2" fill="#304FFE"></path>
                            <path d="M40.7882036,19.6243145 C40.7882036,19.6243145 41.9576392,19.8896364 42.4969679,18.3232784 C43.0362966,16.7579859 41.1566559,16.0685753 41.1566559,16.0685753 C41.1566559,16.0685753 39.1969169,16.7888868 39.2033091,17.5550171 C39.2097326,18.3211473 40.7882036,19.6243145 40.7882036,19.6243145 Z" id="Path" fill="#FFD8D8"></path>
                            <path d="M40.6013075,19.3781726 C40.6013075,19.3781726 41.7718111,19.6434944 42.3111398,18.0771364 C42.3762864,17.9087796 42.4093937,17.7297672 42.4093937,17.5486238 C42.4093937,17.2662531 42.3271595,16.9892102 42.1744387,16.7515926 C42.444637,17.0297011 42.5952219,17.4015779 42.5952219,17.789438 C42.5952219,17.9705814 42.5621146,18.1506593 42.4969679,18.3211473 C41.9576392,19.8896364 40.7882036,19.6221834 40.7882036,19.6221834 C40.3236333,19.2332578 39.9007142,18.7910547 39.5322619,18.3115573 C39.8569271,18.6951552 40.2168356,19.0542455 40.6013075,19.3781726 Z" id="Path" fill-opacity="0.2" fill="#FFFFFF"></path>
                            <path d="M25.6538919,47.8411355 L29.8862874,47.8411355 C29.8830835,47.8773642 29.8820155,47.9135929 29.8820155,47.9498216 C29.8820155,48.3153051 30.0272605,48.6669365 30.2857111,48.9269306 C30.8549432,49.5833092 32.0008833,50.3760782 31.4615545,50.6467278 L25.6538919,50.6477934 L25.6538919,47.8411355 Z" id="Path" fill="#01579B"></path>
                            <path d="M29.9770655,48.9269306 C29.7186149,48.6669365 29.574438,48.3153051 29.574438,47.9498216 C29.574438,47.9135929 29.5755059,47.8773642 29.5787099,47.8411355 L29.8830835,47.8411355 C29.8798796,47.8773642 29.8788116,47.9135929 29.8788116,47.9498216 C29.8788116,48.3153051 30.0240566,48.6669365 30.2825072,48.9269306 C30.8517393,49.5833092 31.9976793,50.3760782 31.4583506,50.6467278 L31.153977,50.6477934 C31.6922377,50.3771438 30.5473656,49.5865059 29.9770655,48.9269306 Z" id="Path" fill-opacity="0.2" fill="#01579B"></path>
                            <path d="M10.5815229,46.971647 L14.5426521,47.6195012 C14.5074088,47.7686781 14.4903212,47.9210518 14.4903212,48.0744909 C14.4903212,48.4005491 14.5693515,48.7223451 14.7220723,49.0111091 C15.1546033,49.9232196 16.126463,51.0601611 15.5412112,51.3063031 L9.80723905,50.3941926 L10.5815229,46.971647 Z" id="Path" fill="#01579B"></path>
                            <path d="M14.4198347,49.008978 C14.2681818,48.7191485 14.1880835,48.398418 14.1880835,48.0712943 C14.1880835,47.9189207 14.2062391,47.7654815 14.2404144,47.6163045 L10.5687071,47.0078757 L10.5687071,46.9599259 L14.5298364,47.6067146 C14.4956611,47.7558916 14.4775055,47.9093307 14.4775055,48.0627699 C14.4775055,48.3888281 14.5576038,48.7106241 14.7092566,48.999388 C15.1417876,49.9114985 16.1147152,51.0484401 15.5294635,51.294582 L15.2881005,51.2551567 C15.7398551,50.9578683 14.83421,49.8656799 14.4198347,49.008978 Z" id="Path" fill="#01579B"></path>
                            <path d="M19.4094264,14.3413192 C18.2229032,14.3413192 17.2595873,13.3801934 17.2595873,12.1953022 L17.2595873,10.1313325 C17.2595873,8.94644123 18.2229032,7.98531542 19.4094264,7.98531542 L19.4094264,7.98531542 C20.5970176,7.98531542 21.5592655,8.94644123 21.5592655,10.1313325 L21.5592655,12.1953022 C21.5592655,13.3801934 20.5970176,14.3413192 19.4094264,14.3413192 L19.4094264,14.3413192 Z" id="Path" fill="#FFD8D8"></path>
                            <path d="M24.0914405,5.45889714 C24.0914405,2.83657938 21.9608251,0.710807778 19.331464,0.710807778 C16.7031709,0.710807778 14.5725555,2.83657938 14.5725555,5.45889714 C14.5725555,8.08121489 16.7031709,10.2069865 19.331464,10.2069865 C21.9608251,10.2069865 24.0914405,8.08121489 24.0914405,5.45889714 Z" id="Path" fill="#FFD8D8"></path>
                            <path d="M21.0231407,12.1984988 L21.0231407,10.1313325 C21.0231407,9.98002441 21.006053,9.82871636 20.9740137,9.68060496 C22.5599605,8.8686561 23.5585197,7.23729955 23.5585197,5.45676604 C23.5585197,2.9378066 21.5870329,0.856788083 19.0666056,0.716135526 L19.334668,0.716135526 C19.334668,0.716135526 19.3368039,0.716135526 19.3368039,0.716135526 C21.964029,0.716135526 24.0957125,2.84297268 24.0957125,5.46422489 C24.0957125,7.24369285 23.0982213,8.87398385 21.5133424,9.68699825 C21.5453818,9.83510966 21.5624694,9.98641771 21.5624694,10.1377258 L21.5624694,12.2038266 C21.5624694,12.2102199 21.5624694,12.2176787 21.5624694,12.2230065 C21.5624694,13.3983078 20.6066294,14.3519747 19.429718,14.3519747 C19.3336,14.3519747 19.237482,14.3445159 19.1434999,14.3327948 C20.2178855,14.1932078 21.0231407,13.2800318 21.0231407,12.1984988 L21.0231407,12.1984988 Z" id="Path" fill-opacity="0.2" fill="#FFD8D8"></path>
                            <path d="M14.4967291,29.1247555 C14.4967291,29.1247555 23.6770652,30.1583386 24.0145462,29.1247555 C26.3940004,21.8470512 24.0145462,16.104804 24.0145462,16.104804 C24.0145462,13.4824862 21.8839307,11.355649 19.2556376,11.355649 L19.2556376,11.3567146 C16.6273445,11.355649 14.4967291,13.4824862 14.4967291,16.104804 L14.4967291,29.1247555 Z" id="Path" fill="#304FFE"></path>
                            <path d="M14.4967291,29.1247555 L10.3497717,48.1213751 L14.4967291,48.1213751 L18.7953392,34.0284151 C18.7953392,34.0284151 24.1704709,36.3257402 25.5502981,40.9225215 C26.9301252,45.5193028 25.5502981,48.1213751 25.5502981,48.1213751 L30.0112408,48.1213751 L30.0571639,47.9146585 C30.3508577,46.5454271 30.5035785,45.1442293 30.5035785,43.7419659 C30.5035785,38.1766 28.1486878,32.8669659 24.02309,29.1236899 L24.024158,29.1247555 L14.4967291,29.1247555 Z" id="Path" fill="#1A237E"></path>
                            <path d="M23.4784214,29.1247555 C25.8578756,21.8470512 23.4784214,16.104804 23.4784214,16.104804 L23.4784214,16.1037384 C23.4784214,13.6007622 21.531498,11.5272025 19.0270904,11.365239 L19.331464,11.365239 L19.331464,11.365239 C21.9597571,11.365239 24.0914405,13.4910106 24.0914405,16.1133284 C24.0914405,18.7356461 26.4708948,21.8587722 24.0914405,29.1332799 C23.9696911,29.5040911 22.7137493,29.6074495 21.1534339,29.5925318 C22.4211235,29.565893 23.3748275,29.4433548 23.4784214,29.1247555 Z" id="Path" fill-opacity="0.2" fill="#304FFE"></path>
                            <path d="M18.7163089,34.3629977 L14.4967291,48.1970291 L13.8869138,48.1970291 L18.1865919,34.1040691 C18.1865919,34.1040691 18.3841678,34.1893131 18.7163089,34.3629977 Z" id="Path" fill-opacity="0.2" fill="#1A237E"></path>
                            <path d="M23.4025949,29.2004095 L24.0113422,29.2004095 C28.135872,32.9436855 30.4907628,38.2533195 30.4907628,43.8186855 C30.4907628,45.2198833 30.33911,46.6210811 30.0432802,47.9892469 L29.9984251,48.1959636 L29.3896778,48.1970291 L29.4356009,47.9903125 C29.7292947,46.6210811 29.8820155,45.2198833 29.8820155,43.8186855 C29.8820155,38.2533195 27.5271247,32.9436855 23.401527,29.1993439 L23.4025949,29.2004095 Z" id="Path" fill-opacity="0.2" fill="#1A237E"></path>
                            <path d="M18.27737,19.6275112 C18.27737,19.6275112 32.5669114,24.1603595 40.482762,16.587498 L38.8039011,14.3967278 C38.8039011,14.3967278 23.448518,17.8096834 19.7885585,15.3088383 C16.1296669,12.8069277 18.27737,19.6275112 18.27737,19.6275112 Z" id="Path" fill="#304FFE"></path>
                            <path d="M40.0812024,16.3019306 L40.3610125,16.6674142 C32.4387541,24.2424068 18.1556206,19.7063619 18.1556206,19.7063619 C18.1556206,19.7063619 18.1193093,19.5912825 18.0648425,19.4026802 C19.7671989,19.9109474 32.6950687,23.3793116 40.0812024,16.3019306 Z" id="Path" fill-opacity="0.2" fill="#304FFE"></path>
                            <path d="M40.1783884,16.5853669 C40.1783884,16.5853669 41.3488919,16.8496232 41.8871527,15.2843307 C42.4264814,13.7179727 40.5468407,13.028562 40.5468407,13.028562 C40.5468407,13.028562 38.5881696,13.7488736 38.5934986,14.5150038 C38.5999174,15.2811341 40.1783884,16.5853669 40.1783884,16.5853669 Z" id="Path" fill="#FFD8D8"></path>
                            <path d="M39.9925602,16.3392249 C39.9925602,16.3392249 41.1619958,16.6034812 41.7013245,15.0371232 C41.7664712,14.8687663 41.8006465,14.689754 41.8006465,14.5096761 C41.8006465,14.2262399 41.7184122,13.949197 41.5646234,13.7126449 C41.8348217,13.9896878 41.9864746,14.3615647 41.9864746,14.7494248 C41.9864746,14.9305682 41.9522993,15.1106461 41.8871527,15.2811341 C41.3488919,16.8496232 40.1783884,16.5821702 40.1783884,16.5821702 C39.7138181,16.1932446 39.2908989,15.7510415 38.9235146,15.2715441 C39.2481798,15.655142 39.6070203,16.0142322 39.9925602,16.3392249 L39.9925602,16.3392249 Z" id="Path" fill-opacity="0.2" fill="#FFFFFF"></path>
                            <path d="M19.6881686,3.88401471 L19.3837949,10.2677228 L12.680099,10.2677228 L12.680099,6.87820931 C12.680099,0.0725435213 19.8921523,-2.51141444 23.9536714,2.9569865 C24.0540613,3.10616345 19.6881686,3.88401471 19.6881686,3.88401471 Z" id="Path" fill="#212121"></path>
                            <path d="M18.183388,0.0352492826 C19.8921523,0.17590184 21.6500436,1.10612671 23.0394825,2.97510084 C23.1409404,3.1093601 18.7739797,3.88721136 18.7739797,3.88721136 L18.469606,10.2709195 L19.3837949,10.2709195 L19.6881686,3.88721136 C19.6881686,3.88721136 24.0540613,3.1093601 23.9536714,2.97510084 C22.3175296,0.76834746 20.1666226,-0.112862122 18.183388,0.0352492826 Z" id="Path" fill-opacity="0.2" fill="#212121"></path>
                            <path d="M50.1565038,48.270552 C50.1565038,46.9268939 49.0650307,45.8379021 47.7193788,45.8379021 C46.3726589,45.8379021 45.2822537,46.9268939 45.2822537,48.270552 C45.2822537,49.6131446 46.3726589,50.7021364 47.7193788,50.7021364 C49.0650307,50.7021364 50.1565038,49.6131446 50.1565038,48.270552 Z" id="Path" fill="#FF9800"></path>
                        </g>
                        <g id="Group" transform="translate(58.000000, 0.000000)">
                            <path d="M134.670704,155.55736 C134.670704,152.702752 125.530951,150.389444 114.257379,150.389444 C102.982738,150.389444 93.8429853,152.702752 93.8429853,155.55736 C93.8429853,158.410902 102.982738,160.725276 114.257379,160.725276 C125.530951,160.725276 134.670704,158.410902 134.670704,155.55736 Z" id="Path" fill="#B3E5FC"></path>
                            <path d="M40.8278256,157.988944 C40.8278256,155.135402 31.6881794,152.821028 20.4139662,152.821028 C9.1396462,152.821028 -7.10542736e-15,155.135402 -7.10542736e-15,157.988944 C-7.10542736e-15,160.843552 9.1396462,163.15686 20.4139662,163.15686 C31.6881794,163.15686 40.8278256,160.843552 40.8278256,157.988944 Z" id="Path" fill="#B3E5FC"></path>
                            <polygon id="Path" fill="#F5F5F5" points="6.89208717 7.34568636 123.586164 7.34568636 123.586164 2.93772046 6.89208717 2.93772046"></polygon>
                            <polygon id="Path" fill="#FFE0B2" points="4.75922894 149.462415 125.414542 149.462415 125.414542 1.72182172 4.75922894 1.72182172"></polygon>
                            <path d="M5.74539953,148.477848 L124.428798,148.477848 L124.428798,2.70575029 L5.74539953,2.70575029 L5.74539953,148.477848 Z M3.77305835,0.737893151 L3.77305835,150.445918 L126.400285,150.445918 L126.400285,0.737893151 L3.77305835,0.737893151 Z" id="Shape" fill="url(#linearGradient-1)"></path>
                            <path d="M6.48497408,147.740487 L123.68869,147.740487 L123.68869,3.44364345 L6.48497408,3.44364345 L6.48497408,147.740487 Z M127.140393,1.42108547e-14 L3.03348381,1.42108547e-14 L3.03348381,151.181147 L125.414542,151.181147 L127.140393,151.181147 L127.140393,1.42108547e-14 Z M125.167839,149.216274 L5.00571819,149.216274 L5.00571819,1.96775059 L125.167839,1.96775059 L125.167839,149.216274 Z M4.5126329,149.710689 L125.661244,149.710689 L125.661244,1.4757863 L4.5126329,1.4757863 L4.5126329,149.710689 Z" id="Shape" fill="url(#linearGradient-2)"></path>
                            <polygon id="Path" fill="#FFFFFF" points="6.89208717 147.029766 123.586164 147.029766 123.586164 7.34568636 6.89208717 7.34568636"></polygon>
                            <path d="M10.3592767,5.2176771 C10.3592767,4.63013301 9.88189069,4.1538323 9.292901,4.1538323 C8.70401811,4.1538323 8.22663208,4.63013301 8.22663208,5.2176771 C8.22663208,5.80532775 8.70401811,6.28162845 9.292901,6.28162845 C9.88189069,6.28162845 10.3592767,5.80532775 10.3592767,5.2176771 Z" id="Path" fill="#E65100"></path>
                            <path d="M13.2903415,5.2176771 C13.2903415,4.63013301 12.8129554,4.1538323 12.2239657,4.1538323 C11.6350829,4.1538323 11.1576968,4.63013301 11.1576968,5.2176771 C11.1576968,5.80532775 11.6350829,6.28162845 12.2239657,6.28162845 C12.8129554,6.28162845 13.2903415,5.80532775 13.2903415,5.2176771 Z" id="Path" fill="#B0E4FB"></path>
                            <path d="M16.2243965,5.2176771 C16.2243965,4.63013301 15.7470105,4.1538323 15.1581276,4.1538323 C14.5691379,4.1538323 14.0917519,4.63013301 14.0917519,5.2176771 C14.0917519,5.80532775 14.5691379,6.28162845 15.1581276,6.28162845 C15.7470105,6.28162845 16.2243965,5.80532775 16.2243965,5.2176771 Z" id="Path" fill="#FF9800"></path>
                            <polygon id="Path" fill="url(#linearGradient-3)" points="55.641744 12.6654431 10.2436147 12.6654431 10.2436147 15.401455 55.641744 15.401455"></polygon>
                            <polygon id="Path" fill="#304FFE" points="62.3446923 140.342376 107.742715 140.342376 107.742715 137.606044 62.3446923 137.606044"></polygon>
                            <polygon id="Path" fill="#304FFE" points="10.2436147 114.806478 55.641744 114.806478 55.641744 112.071212 10.2436147 112.071212"></polygon>
                            <polygon id="Path" fill="#304FFE" points="62.3446923 114.806478 76.6648847 114.806478 76.6648847 112.071212 62.3446923 112.071212"></polygon>
                            <polygon id="Path" fill="#304FFE" points="62.3446923 131.830765 76.6648847 131.830765 76.6648847 129.094433 62.3446923 129.094433"></polygon>
                            <polygon id="Path" fill="#304FFE" points="93.1178285 131.830765 107.438341 131.830765 107.438341 129.094433 93.1178285 129.094433"></polygon>
                            <polygon id="Path" fill="#304FFE" points="10.2436147 123.319154 55.641744 123.319154 55.641744 120.582823 10.2436147 120.582823"></polygon>
                            <polygon id="Path" fill="#304FFE" points="62.3446923 123.319154 107.742715 123.319154 107.742715 120.582823 62.3446923 120.582823"></polygon>
                            <polygon id="Path" fill="#304FFE" points="10.2436147 131.830765 55.641744 131.830765 55.641744 129.094433 10.2436147 129.094433"></polygon>
                            <polygon id="Path" fill="#304FFE" points="10.2436147 140.342376 55.641744 140.342376 55.641744 137.606044 10.2436147 137.606044"></polygon>
                            <polygon id="Path" fill="url(#linearGradient-4)" points="87.9382435 26.6490777 87.9382435 23.9131724 42.540221 23.9131724 42.540221 26.6490777"></polygon>
                            <polygon id="Path" stroke="#FF9800" stroke-width="0.5" points="42.540221 26.6490777 87.9382435 26.6490777 87.9382435 23.9131724 42.540221 23.9131724"></polygon>
                            <polygon id="Path" fill="url(#linearGradient-5)" points="42.5401142 31.2090976 68.1336654 31.2090976 68.1336654 28.4730857 42.5401142 28.4730857"></polygon>
                            <polygon id="Path" stroke="#FF9800" stroke-width="0.5" points="42.5401142 31.2090976 68.1336654 31.2090976 68.1336654 28.4730857 42.5401142 28.4730857"></polygon>
                            <polygon id="Path" fill="url(#linearGradient-6)" points="72.7040759 31.2090976 81.5398824 31.2090976 81.5398824 28.4730857 72.7040759 28.4730857"></polygon>
                            <polygon id="Path" stroke="#FF9800" stroke-width="0.5" points="72.7040759 31.2090976 81.5398824 31.2090976 81.5398824 28.4730857 72.7040759 28.4730857"></polygon>
                            <polygon id="Path" fill="url(#linearGradient-5)" points="42.5401142 40.3288176 68.1336654 40.3288176 68.1336654 37.5928057 42.5401142 37.5928057"></polygon>
                            <polygon id="Path" stroke="#FF9800" stroke-width="0.5" points="42.5401142 40.3288176 68.1336654 40.3288176 68.1336654 37.5928057 42.5401142 37.5928057"></polygon>
                            <polygon id="Path" fill="url(#linearGradient-6)" points="72.7040759 40.3288176 81.5398824 40.3288176 81.5398824 37.5928057 72.7040759 37.5928057"></polygon>
                            <polygon id="Path" stroke="#FF9800" stroke-width="0.5" points="72.7040759 40.3288176 81.5398824 40.3288176 81.5398824 37.5928057 72.7040759 37.5928057"></polygon>
                            <polygon id="Path" fill="url(#linearGradient-7)" points="87.9382435 35.7689043 87.9382435 33.0328924 42.540221 33.0328924 42.540221 35.7689043"></polygon>
                            <polygon id="Path" stroke="#FF9800" stroke-width="0.5" points="42.540221 35.7689043 87.9382435 35.7689043 87.9382435 33.0328924 42.540221 33.0328924"></polygon>
                            <polygon id="Path" fill="url(#linearGradient-8)" points="119.626102 12.6654431 74.2274392 12.6654431 74.2274392 15.401455 119.626102 15.401455"></polygon>
                            <polygon id="Path" fill="#E65100" points="99.8204564 26.9531856 105.30559 26.9531856 105.30559 23.6092776 99.8204564 23.6092776"></polygon>
                            <polygon id="Path" fill="#FF9800" points="99.8204564 31.5130989 105.30559 31.5130989 105.30559 28.1691909 99.8204564 28.1691909"></polygon>
                            <polygon id="Path" fill="#01579B" points="99.8204564 36.0729056 105.30559 36.0729056 105.30559 32.7289976 99.8204564 32.7289976"></polygon>
                            <polygon id="Path" fill="#FF9800" points="100.125898 26.6490777 105.000148 26.6490777 105.000148 23.9131724 100.125898 23.9131724"></polygon>
                            <polygon id="Path" fill="#FFE0B2" points="100.125898 31.2090976 105.000148 31.2090976 105.000148 28.4730857 100.125898 28.4730857"></polygon>
                            <polygon id="Path" fill="#0BABF4" points="100.125898 35.7689043 105.000148 35.7689043 105.000148 33.0328924 100.125898 33.0328924"></polygon>
                            <polygon id="Path" fill="#0BABF4" points="99.8204564 40.6328189 105.30559 40.6328189 105.30559 37.2889109 99.8204564 37.2889109"></polygon>
                            <polygon id="Path" fill="#B0E4FB" points="100.125898 40.3288176 105.000148 40.3288176 105.000148 37.5928057 100.125898 37.5928057"></polygon>
                            <polygon id="Path" fill="#0BABF4" points="10.2435079 101.126951 119.625035 101.126951 119.625035 57.9603616 10.2435079 57.9603616"></polygon>
                            <polygon id="Path" fill-opacity="0.5" fill="#FFFFFF" points="13.5950355 61.3042695 119.625035 61.3042695 119.625035 57.9603616 10.2435079 57.9603616 10.2435079 101.126951 13.5950355 101.126951"></polygon>
                            <path d="M13.1019502,60.8123053 L119.132697,60.8123053 L119.132697,58.4523258 L10.7365932,58.4523258 L10.7365932,100.635733 L13.1019502,100.635733 L13.1019502,60.8123053 Z M120.11844,57.4683973 L9.75038704,57.4683973 C9.75038704,72.1855563 9.75038704,86.9018629 9.75038704,101.619235 L14.0881208,101.619235 L14.0881208,61.7962338 L120.11844,61.7962338 L120.11844,57.4683973 Z" id="Shape" fill="url(#linearGradient-9)"></path>
                            <polygon id="Path" fill="#03A9F4" points="14.0929267 110.394037 126.361838 100.199923 122.164685 54.1836273 9.89556081 64.3776345"></polygon>
                            <polygon id="Path" fill="#FFFFFF" points="15.7465833 108.408918 124.678705 98.5184854 120.757091 55.5288837 11.8253965 65.4203814"></polygon>
                            <path d="M19.9568717,100.6986 L18.0678328,76.7535678 C18.0678328,76.7535678 27.8178283,66.4177359 47.5004434,74.0779725 C67.1831652,81.7392747 76.4637845,76.3305445 79.6630184,71.1573009 C82.8621456,65.9829916 99.4680237,60.2131467 104.848495,68.8674346 C110.228967,77.5228946 116.682756,67.7912294 116.682756,67.7912294 L118.863566,91.7064264 L19.9568717,100.6986 Z" id="Path" fill="url(#linearGradient-10)"></path>
                            <line x1="29.8683454" y1="71.5366365" x2="30.1711171" y2="73.3544643" id="Path" stroke="#6C63FF" stroke-width="0.5"></line>
                            <line x1="30.3527801" y1="76.8388117" x2="32.1015936" y2="96.0080504" id="Path" stroke="#01579B" stroke-width="0.5" stroke-dasharray="11.94497406167328,11.94497406167328"></line>
                            <line x1="32.2600814" y1="97.7502241" x2="32.5628531" y2="99.5648552" id="Path" stroke="#01579B" stroke-width="0.5"></line>
                            <line x1="48.6034507" y1="74.5031268" x2="48.9062224" y2="76.3188235" id="Path" stroke="#6C63FF" stroke-width="0.5"></line>
                            <line x1="49.1304977" y1="80.2730783" x2="50.3948765" y2="94.1081753" id="Path" stroke="#01579B" stroke-width="0.5" stroke-dasharray="11.94497406167328,11.94497406167328"></line>
                            <line x1="50.5747239" y1="96.0837044" x2="50.8774956" y2="97.9015322" id="Path" stroke="#01579B" stroke-width="0.5"></line>
                            <line x1="67.71929" y1="77.7498567" x2="68.0220617" y2="79.5655534" id="Path" stroke="#6C63FF" stroke-width="0.5"></line>
                            <line x1="68.1976372" y1="82.528847" x2="69.2274881" y2="92.8955798" id="Path" stroke="#01579B" stroke-width="0.5" stroke-dasharray="8.958730008026068,8.958730008026068"></line>
                            <line x1="69.3767914" y1="94.3756283" x2="69.6795631" y2="96.1934561" id="Path" stroke="#01579B" stroke-width="0.5"></line>
                            <line x1="84.9005946" y1="67.0314925" x2="85.2033662" y2="68.8493203" id="Path" stroke="#6C63FF" stroke-width="0.5"></line>
                            <line x1="85.3757378" y1="72.2633414" x2="87.0911236" y2="91.0468511" id="Path" stroke="#01579B" stroke-width="0.5" stroke-dasharray="11.94497406167328,11.94497406167328"></line>
                            <line x1="87.2466211" y1="92.7527961" x2="87.5493928" y2="94.5706239" id="Path" stroke="#01579B" stroke-width="0.5"></line>
                            <line x1="97.301097" y1="64.5231886" x2="97.6038687" y2="66.3378197" id="Path" stroke="#6C63FF" stroke-width="0.5"></line>
                            <line x1="97.7945027" y1="69.9500331" x2="99.6079288" y2="89.8097479" id="Path" stroke="#01579B" stroke-width="0.5" stroke-dasharray="11.94497406167328,11.94497406167328"></line>
                            <line x1="99.7723974" y1="91.6158546" x2="100.075169" y2="93.4304857" id="Path" stroke="#01579B" stroke-width="0.5"></line>
                            <path d="M31.3281641,71.2819702 C31.2519105,70.4465792 30.5108408,69.829626 29.6729055,69.9063455 C28.835077,69.9819996 28.2176791,70.721491 28.2939327,71.5579475 C28.3701863,72.3933385 29.111256,73.0092262 29.9490845,72.9335722 C30.7870198,72.8579181 31.4044177,72.1184267 31.3281641,71.2819702 Z" id="Path" fill="#E65100"></path>
                            <path d="M49.9748408,74.474357 C49.8985872,73.6379005 49.1575175,73.0220128 48.3195822,73.0976668 C47.4817537,73.1743864 46.864249,73.9138779 46.9405027,74.7492688 C47.0167563,75.5857253 47.757826,76.201613 48.5957613,76.1248934 C49.4335898,76.0492394 50.0510944,75.3097479 49.9748408,74.474357 Z" id="Path" fill="#FF9800"></path>
                            <path d="M69.2321872,77.6081386 C69.1559336,76.7716821 68.4147571,76.1557944 67.5769286,76.232514 C66.7391001,76.308168 66.1215954,77.0476595 66.197849,77.8830504 C66.2741026,78.7195069 67.0151723,79.3353946 67.8531076,79.2597406 C68.6909361,79.183021 69.3084408,78.4435295 69.2321872,77.6081386 Z" id="Path" fill="#03A9F4"></path>
                            <path d="M86.9125577,66.8450213 C86.80576,65.6750478 85.7683264,64.8119525 84.595153,64.9185075 C83.4220863,65.0250625 82.5576651,66.0607767 82.6644629,67.2307503 C82.7712607,68.4007238 83.8086942,69.2638191 84.9817609,69.1572641 C86.1549344,69.0507091 87.0192487,68.0160604 86.9125577,66.8450213 Z" id="Path" fill="#03A9F4"></path>
                            <path d="M99.5459861,64.4784355 C99.4391884,63.3079292 98.401114,62.4454733 97.2284745,62.5520282 C96.0547671,62.6585832 95.1907731,63.6936581 95.2975709,64.8641645 C95.4043687,66.034138 96.442443,66.8972332 97.6150825,66.7906783 C98.787722,66.6841233 99.6527839,65.648409 99.5459861,64.4784355 Z" id="Path" fill="#03A9F4"></path>
                            <path d="M86.305626,66.9004299 C86.2293724,66.0639734 85.4883027,65.4480857 84.6504742,65.5237397 C83.8125389,65.6004593 83.195141,66.3399508 83.2713946,67.1753417 C83.3475414,68.0117982 84.0887179,68.6276859 84.9265464,68.5520319 C85.7644817,68.4753123 86.3818796,67.7358208 86.305626,66.9004299 Z" id="Path" fill="#01579B"></path>
                            <path d="M98.9383068,64.5338441 C98.8624804,63.6974941 98.1213039,63.0814999 97.2840094,63.1575801 C96.4456469,63.2336603 95.8283558,63.9730453 95.9041822,64.8087559 C95.9810766,65.6452124 96.7222531,66.2611001 97.5595476,66.1854461 C98.3979101,66.1087265 99.0152012,65.369235 98.9383068,64.5338441 Z" id="Path" fill="#01579B"></path>
                            <path d="M118.247343,68.2739234 C118.171517,67.4385325 117.43034,66.8226448 116.593046,66.8982988 C115.754683,66.9739528 115.137392,67.7134443 115.213219,68.5499008 C115.290113,69.3852917 116.03129,70.0011795 116.868584,69.9255254 C117.706947,69.8498714 118.324238,69.1103799 118.247343,68.2739234 Z" id="Path" fill="#03A9F4"></path>
                            <path d="M99.2907395,101.617104 C99.2907395,101.617104 98.3765506,100.850974 99.2907395,99.4700213 C100.204928,98.0901345 101.901945,99.1663397 101.901945,99.1663397 C101.901945,99.1663397 102.51176,101.157852 101.901945,101.617104 C101.29213,102.07529 99.2907395,101.617104 99.2907395,101.617104 Z" id="Path" fill="#FFD8D8"></path>
                            <path d="M108.785061,152.888158 L104.552665,152.888158 C104.555869,152.923321 104.556937,152.960615 104.556937,152.996844 C104.556937,153.362327 104.411692,153.713959 104.153242,153.972887 C103.58401,154.629266 102.43807,155.4231 102.977398,155.69375 L108.785061,155.69375 L108.785061,152.888158 Z" id="Path" fill="#304FFE"></path>
                            <path d="M123.854226,152.018669 L119.894165,152.66013 C119.92834,152.808241 119.945428,152.961681 119.945428,153.11512 C119.945428,153.441178 119.866397,153.762974 119.713677,154.051738 C119.281146,154.963848 118.309286,156.10079 118.894538,156.346932 L124.62851,155.434821 L123.854226,152.018669 Z" id="Path" fill="#304FFE"></path>
                            <path d="M121.923322,99.7470642 C121.923322,99.7470642 126.453684,114.007316 118.855023,121.901973 L116.661396,120.226929 C116.661396,120.226929 121.152243,104.662445 118.638223,101.008675 C123.074602,99.5339543 121.923322,99.7470642 121.923322,99.7470642 Z" id="Path" fill="#304FFE"></path>
                            <path d="M118.790944,101.005478 C118.790944,101.005478 117.876755,100.239348 118.790944,98.8594613 C119.705133,97.4795745 121.402149,98.5557797 121.402149,98.5557797 C121.402149,98.5557797 122.010897,100.546226 121.402149,101.005478 C120.792334,101.46473 118.790944,101.005478 118.790944,101.005478 Z" id="Path" fill="#FFD8D8"></path>
                            <path d="M115.029527,113.031272 C116.21605,113.031272 117.179366,113.992398 117.179366,115.177289 L117.178298,117.242324 C117.179366,118.427216 116.21605,119.388341 115.029527,119.388341 L115.029527,119.388341 C113.841935,119.388341 112.879687,118.427216 112.879687,117.241259 L112.879687,115.177289 C112.879687,113.992398 113.841935,113.031272 115.029527,113.031272 L115.029527,113.031272 Z" id="Path" fill="#FFD8D8"></path>
                            <path d="M116.968974,121.145433 C116.968974,121.145433 121.405353,105.772748 118.98852,101.993243 C118.774924,101.953818 118.638223,101.923982 118.638223,101.923982 L118.598708,101.886688 L118.485502,101.923982 C120.999522,105.571359 116.508676,121.142236 116.508676,121.142236 L118.702302,122.81728 L118.894538,122.610564 L116.968974,121.145433 Z" id="Path" fill-opacity="0.2" fill="#304FFE"></path>
                            <path d="M119.866397,110.505919 C119.866397,107.882536 117.735782,105.756764 115.107489,105.756764 C112.478128,105.756764 110.347512,107.882536 110.347512,110.505919 C110.347512,113.128237 112.478128,115.254009 115.107489,115.254009 C117.735782,115.254009 119.866397,113.128237 119.866397,110.505919 Z" id="Path" fill="#FFD8D8"></path>
                            <path d="M113.415812,117.245521 L113.415812,115.177289 C113.415812,115.027047 113.4329,114.875739 113.464939,114.727627 C111.878992,113.914613 110.879365,112.283256 110.879365,110.503788 C110.879365,107.984829 112.85192,105.90381 115.372347,105.763158 L115.104285,105.763158 C115.104285,105.763158 115.102149,105.763158 115.102149,105.763158 C112.473856,105.763158 110.34324,107.889995 110.34324,110.511247 C110.34324,112.289649 111.340732,113.921006 112.925611,114.73402 C112.893571,114.881066 112.876484,115.032374 112.876484,115.183682 L112.876484,117.250849 C112.876484,117.257242 112.876484,117.263635 112.876484,117.270029 C112.876484,118.44533 113.831256,119.397931 115.009235,119.397931 C115.105353,119.397931 115.200403,119.391538 115.295453,119.378751 C114.221067,119.24023 113.415812,118.325988 113.415812,117.244455 L113.415812,117.245521 Z" id="Path" fill-opacity="0.2" fill="#FFD8D8"></path>
                            <path d="M119.942224,134.170712 C119.942224,134.170712 110.761888,135.205361 110.424407,134.170712 C108.043885,126.894073 110.424407,121.150761 110.424407,121.150761 C110.424407,118.529508 112.555022,116.402671 115.183315,116.402671 L115.183315,116.402671 C117.811608,116.402671 119.942224,118.529508 119.942224,121.150761 L119.942224,134.170712 Z" id="Path" fill="#304FFE"></path>
                            <path d="M119.942224,134.170712 L124.089181,153.167332 L119.942224,153.167332 L115.643614,139.074372 C115.643614,139.074372 110.268482,141.372762 108.888655,145.969544 C107.50776,150.565259 108.888655,153.167332 108.888655,153.167332 L104.43412,153.167332 L104.388197,152.960615 C104.094503,151.591384 103.941782,150.190186 103.941782,148.788988 C103.941782,143.223622 106.296673,137.913988 110.421203,134.169647 L110.421203,134.170712 L119.942224,134.170712 Z" id="Path" fill="#1A237E"></path>
                            <path d="M110.960532,134.170712 C108.581077,126.894073 110.960532,121.150761 110.960532,121.150761 L110.960532,121.149695 C110.960532,118.646719 112.907455,116.573159 115.411863,116.411196 L115.106421,116.411196 L115.107489,116.412261 C112.479196,116.411196 110.347512,118.538033 110.347512,121.160351 C110.347512,123.781603 107.968058,126.905794 110.347512,134.180302 C110.469262,134.551113 111.725204,134.654472 113.285519,134.639554 C112.017829,134.61185 111.057718,134.490377 110.960532,134.170712 Z" id="Path" fill-opacity="0.2" fill="#304FFE"></path>
                            <path d="M110.347512,121.07191 C110.347512,121.07191 98.0657691,112.493169 99.2939434,101.617104 L102.05787,101.617104 C102.05787,101.617104 108.656904,115.877355 112.886095,117.245521 C117.115287,118.612621 110.347512,121.07191 110.347512,121.07191 Z" id="Path" fill="#304FFE"></path>
                            <path d="M115.722644,139.408954 L119.942224,153.244051 L120.552039,153.244051 L116.252361,139.151091 C116.252361,139.151091 116.054785,139.23527 115.722644,139.408954 Z" id="Path" fill-opacity="0.04" fill="#1A237E"></path>
                            <path d="M111.036358,134.247432 L110.426543,134.247432 C106.303081,137.989642 103.94819,143.299276 103.94819,148.864642 C103.94819,150.26584 104.099843,151.668103 104.395673,153.035204 L104.440528,153.242986 L105.049275,153.244051 L105.003352,153.037335 C104.709658,151.668103 104.556937,150.26584 104.556937,148.864642 C104.556937,143.299276 106.911828,137.989642 111.037426,134.246366 L111.036358,134.247432 Z" id="Path" fill-opacity="0.04" fill="#1A237E"></path>
                            <path d="M99.7542418,101.771609 L99.2939434,101.771609 C98.0753809,112.64874 110.347512,121.22748 110.347512,121.22748 L110.652954,121.111335 C109.22934,120.062834 98.6050978,111.925231 99.7542418,101.771609 Z" id="Path" fill-opacity="0.2" fill="#304FFE"></path>
                            <path d="M111.310828,108.383344 C111.575687,108.993904 111.763651,109.638562 111.865109,110.29494 C112.169482,111.626878 112.858328,112.955618 114.043783,113.638635 C114.699521,113.994529 115.430018,114.193787 116.176535,114.220425 C117.309659,114.289686 118.537833,114.071249 119.338816,113.26889 C119.837562,112.725459 120.172907,112.050966 120.304268,111.326393 C120.40893,110.856485 120.463397,110.374857 120.463397,109.893228 C120.463397,108.169169 119.783095,106.512239 118.572009,105.282595 C117.481603,104.233028 116.023814,103.644845 114.509421,103.644845 C113.816304,103.644845 113.127458,103.769514 112.47706,104.009263 C112.108608,104.188275 111.720932,104.329993 111.322576,104.42909 C111.222186,104.444007 111.120728,104.452532 111.01927,104.452532 C110.498097,104.452532 109.999352,104.241553 109.638375,103.869676 C109.606336,103.970903 109.590316,104.076393 109.590316,104.181882 C109.590316,104.767934 110.066634,105.243169 110.654022,105.243169 L110.664702,105.243169 C110.26421,105.434968 109.825271,105.534065 109.382061,105.534065 C109.04458,105.534065 108.709235,105.476525 108.392045,105.364642 C108.711371,106.035938 109.389536,106.464289 110.133917,106.464289 C110.372076,106.464289 110.608099,106.419536 110.82917,106.334292 C109.999352,106.702973 109.096911,106.894771 108.188062,106.894771 C108.153886,106.894771 108.119711,106.893706 108.086604,106.893706 C108.285247,106.893706 108.671855,107.259189 108.91215,107.331647 C109.183417,107.374269 109.458955,107.396645 109.734493,107.396645 C109.764397,107.396645 109.796436,107.39558 109.826339,107.39558 C110.463922,107.43394 111.02995,107.81221 111.310828,108.383344 L111.310828,108.383344 Z" id="Path" fill="#263238"></path>
                            <path d="M110.67645,105.236776 C110.325085,105.407264 109.940613,105.50636 109.549733,105.52554 C109.59886,105.528737 109.651191,105.529802 109.701386,105.529802 C110.145665,105.529802 110.584603,105.429641 110.985095,105.236776 L110.978687,105.236776 C110.384892,105.236776 109.902166,104.756213 109.902166,104.163768 C109.902166,104.136063 109.904302,104.107294 109.906438,104.078524 C109.814592,104.014591 109.728085,103.942133 109.650123,103.863283 C109.619152,103.96451 109.603132,104.069999 109.603132,104.176554 C109.603132,104.762607 110.078382,105.236776 110.66577,105.236776 L110.677517,105.236776 L110.67645,105.236776 Z" id="Path" fill-opacity="0.04" fill="#FFFFFF"></path>
                            <path d="M111.639765,104.431221 C112.037053,104.33319 112.425797,104.191472 112.794249,104.01246 C113.377365,103.782301 113.996792,103.657632 114.622627,103.643779 C114.566024,103.642714 114.506217,103.641648 114.448547,103.641648 C113.778925,103.641648 113.112507,103.767383 112.489876,104.01246 C112.120355,104.191472 111.732679,104.33319 111.335392,104.432286 C111.279857,104.432286 111.22539,104.432286 111.169855,104.4504 C111.224322,104.454663 111.279857,104.456794 111.334324,104.456794 C111.43685,104.456794 111.538308,104.448269 111.639765,104.431221 L111.639765,104.431221 Z" id="Path" fill-opacity="0.04" fill="#FFFFFF"></path>
                            <path d="M109.204776,107.334843 C108.964481,107.264517 108.577873,106.903296 108.37923,106.896903 C108.412337,106.896903 108.446512,106.897968 108.479619,106.897968 C109.389536,106.897968 110.29091,106.706169 111.121796,106.337489 C110.928492,106.417405 110.721305,106.461093 110.511981,106.465355 C109.767601,106.750922 108.976229,106.897968 108.17845,106.897968 C108.144274,106.897968 108.107963,106.896903 108.074856,106.896903 C108.272432,106.896903 108.65904,107.261321 108.900403,107.334843 C109.058463,107.373203 109.220796,107.392383 109.383129,107.392383 C109.435459,107.392383 109.488858,107.390252 109.540121,107.387055 C109.426916,107.383859 109.31371,107.365744 109.205844,107.334843 L109.204776,107.334843 Z" id="Path" fill-opacity="0.04" fill="#FFFFFF"></path>
                            <path d="M116.49052,114.223622 C115.744004,114.196983 115.013507,113.997726 114.357769,113.642898 C113.172313,112.952421 112.495216,111.623681 112.179094,110.298137 C112.076568,109.641759 111.889672,108.997101 111.624814,108.386541 C111.339664,107.81221 110.764024,107.436071 110.122169,107.40517 C110.046343,107.398776 109.969448,107.396645 109.893622,107.396645 C109.817795,107.396645 109.740901,107.398776 109.665075,107.40517 L109.814592,107.40517 C110.456446,107.436071 111.032086,107.81221 111.317236,108.386541 C111.582095,108.997101 111.768991,109.641759 111.871517,110.298137 C112.17589,111.630074 112.864736,112.958815 114.049123,113.641832 C114.704861,113.997726 115.436426,114.196983 116.181874,114.222557 L116.715863,114.222557 L116.49052,114.223622 Z" id="Path" fill-opacity="0.04" fill="#212121"></path>
                            <path d="M110.320813,106.453634 C109.666143,106.405684 109.078755,106.031676 108.760498,105.45841 C108.639816,105.433903 108.520203,105.399805 108.403793,105.359314 C108.72739,106.031676 109.40876,106.460027 110.156344,106.460027 C110.210811,106.460027 110.266346,106.457896 110.320813,106.452568 L110.320813,106.453634 Z" id="Path" fill-opacity="0.04" fill="#FFFFFF"></path>
                            <path d="M99.598317,101.617104 C99.598317,101.617104 98.6841281,100.850974 99.598317,99.4700213 C99.8450199,99.0704402 100.269007,98.8115116 100.737849,98.7742174 C100.680178,98.7678241 100.62144,98.7646274 100.563769,98.7646274 C100.046868,98.7646274 99.5662777,99.0320804 99.2939434,99.4700213 C98.3797545,100.850974 99.2939434,101.617104 99.2939434,101.617104 C99.885603,101.748167 100.492214,101.817427 101.099894,101.817427 C100.595808,101.79292 100.091723,101.724724 99.598317,101.617104 L99.598317,101.617104 Z" id="Path" fill-opacity="0.2" fill="#FFD8D8"></path>
                            <path d="M12.2117908,104.00287 C12.2117908,104.00287 7.68110908,118.263121 15.2799839,126.157779 L17.4737168,124.482734 C17.4737168,124.482734 12.9826571,108.91825 15.4963562,105.26448 C11.0601905,103.790825 12.2117908,104.00287 12.2117908,104.00287 Z" id="Path" fill="#FF9800"></path>
                            <path d="M15.3439557,105.261284 C15.3439557,105.261284 16.2580378,104.495154 15.3439557,103.115267 C14.4298736,101.73538 12.7327503,102.811585 12.7327503,102.811585 C12.7327503,102.811585 12.1233622,104.802032 12.7327503,105.261284 C13.3421384,105.720536 15.3439557,105.261284 15.3439557,105.261284 Z" id="Path" fill="#FFF3E0"></path>
                            <path d="M19.1052663,123.644147 C17.9184227,123.644147 16.9557477,122.683021 16.9557477,121.49813 L16.9557477,119.43416 C16.9557477,118.248203 17.9184227,117.287077 19.1052663,117.287077 C20.2922167,117.287077 21.254785,118.248203 21.254785,119.43416 L21.2548918,121.49813 C21.254785,122.683021 20.2922167,123.644147 19.1052663,123.644147 L19.1052663,123.644147 Z" id="Path" fill="#FFF3E0"></path>
                            <path d="M23.7868533,114.761725 C23.7868533,112.139407 21.656131,110.01257 19.0276244,110.01257 C16.3992245,110.01257 14.2685022,112.139407 14.2685022,114.761725 C14.2685022,117.384042 16.3992245,119.509814 19.0276244,119.509814 C21.656131,119.509814 23.7868533,117.384042 23.7868533,114.761725 Z" id="Path" fill="#FFF3E0"></path>
                            <path d="M20.7186602,121.501326 L20.7186602,119.43416 C20.718767,119.282852 20.7021066,119.131544 20.6700672,118.983433 C22.2562277,118.170418 23.2550004,116.539062 23.2550004,114.759594 C23.2550004,112.240634 21.2828728,110.159616 18.7624455,110.018963 L19.0306147,110.018963 C19.0306147,110.018963 19.0323235,110.018963 19.0323235,110.018963 C21.6602961,110.018963 23.7914456,112.144735 23.7914456,114.767052 C23.7914456,116.545455 22.7943817,118.176811 21.209396,118.989826 C21.2413285,119.136872 21.257989,119.28818 21.257989,119.439488 L21.257989,121.506654 C21.2582026,121.513047 21.2582026,121.519441 21.2582026,121.525834 C21.2582026,122.701135 20.3030033,123.653737 19.1253443,123.653737 C19.0295467,123.653737 18.9337491,123.647343 18.8389127,123.634557 C19.9138322,123.496035 20.7188738,122.581794 20.7188738,121.500261 L20.7186602,121.501326 Z" id="Path" fill="#FFF3E0"></path>
                            <path d="M14.1922486,138.427583 C14.1922486,138.427583 23.372478,139.461166 23.7107065,138.427583 C24.8075196,135.082823 21.8825423,131.468478 23.3450309,129.702862 C24.8683943,127.878641 23.7107065,125.406566 23.7107065,125.406566 C23.7107065,122.785314 21.579557,120.658477 18.9515844,120.658477 L18.9514776,120.658477 C16.3236117,120.658477 14.1923554,122.785314 14.1923554,125.406566 L14.1922486,138.427583 Z" id="Path" fill="#FF9800"></path>
                            <path d="M23.3572059,129.702862 C24.8806761,127.878641 23.7228814,125.406566 23.7228814,125.406566 C23.7229882,122.785314 21.591732,120.658477 18.9637593,120.658477 C18.8601655,120.658477 18.759562,120.658477 18.6590653,120.673394 C21.1619778,120.831096 23.1124254,122.904655 23.1134934,125.407632 C23.1146682,127.909542 24.271288,127.878641 22.7479246,129.702862 C21.273261,131.468478 24.2104133,135.080692 23.1134934,138.427583 C23.0098995,138.746182 22.0623897,138.867655 20.8040984,138.885769 C22.3549088,138.901753 23.6041223,138.798394 23.7229882,138.427583 C24.8319763,135.077495 21.8825423,131.468478 23.3572059,129.702862 Z" id="Path" fill-opacity="0.2" fill="#FF9800"></path>
                            <path d="M21.7636764,138.122836 C25.115204,142.862401 26.5989453,150.02396 25.6392606,156.912739 L25.6118136,157.119455 L22.750915,157.119455 C22.750915,157.119455 23.63755,154.514187 22.750915,149.920602 C22.2091299,147.169353 20.6610962,144.708998 18.4121488,143.026495 L15.6517469,157.119455 L12.9887446,157.119455 L15.6517469,138.122836 L21.7636764,138.122836 Z" id="Path" fill="#FFF3E0"></path>
                            <path d="M37.8997512,110.803208 C37.8997512,110.803208 39.0057489,110.340759 38.5304988,108.750959 C38.0552487,107.161159 36.1234907,107.696065 36.1234907,107.696065 C36.1234907,107.696065 34.9505308,109.420124 35.4044213,110.040274 C35.8584186,110.660424 37.8997512,110.803208 37.8997512,110.803208 Z" id="Path" fill="#FFF3E0"></path>
                            <path d="M21.6144799,126.173762 C21.6144799,126.173762 35.8766811,121.562063 37.8967608,110.803208 L35.2552248,109.994455 C35.2552248,109.994455 24.7588198,121.686732 20.3256444,121.768779 C15.8924691,121.850827 21.6144799,126.173762 21.6144799,126.173762 Z" id="Path" fill="#FF9800"></path>
                            <path d="M37.4123262,110.814929 L37.8540417,110.949188 C35.833962,121.706978 21.5717608,126.318677 21.5717608,126.318677 L21.3188637,126.12155 C23.0038121,125.537629 35.5293747,120.850276 37.4123262,110.814929 Z" id="Path" fill-opacity="0.2" fill="#FF9800"></path>
                            <path d="M17.7997704,143.026495 L15.0393685,157.119455 L15.6486498,157.119455 L18.3298077,143.439929 C18.1609605,143.293948 17.9823946,143.153296 17.7997704,143.026495 L17.7997704,143.026495 Z" id="Path" fill-opacity="0.04" fill="#FFFFFF"></path>
                            <path d="M21.7636764,138.122836 L21.1542883,138.122836 C24.5058159,142.862401 25.9895573,150.02396 25.0298725,156.912739 L25.0025323,157.119455 L25.6118136,157.119455 L25.6392606,156.912739 C26.5990521,150.02396 25.1212914,142.862401 21.7636764,138.122836 Z" id="Path" fill-opacity="0.04" fill="#FFFFFF"></path>
                            <path d="M37.6042418,110.709439 C37.6042418,110.709439 38.7102394,110.246991 38.2349894,108.657191 C38.1180458,108.202201 37.7893223,107.830324 37.3515582,107.656639 C37.9220719,107.761063 38.3808751,108.185152 38.5276153,108.745631 C39.0029721,110.332235 37.8968676,110.796814 37.8968676,110.796814 C37.2919651,110.750996 36.6913344,110.638047 36.1109954,110.462232 C36.6007699,110.585836 37.1011175,110.668948 37.6038146,110.708374 L37.6042418,110.709439 Z" id="Path" fill-opacity="0.2" fill="#FFFFFF"></path>
                            <path d="M14.1922486,137.910791 L8.40327559,150.069779 C11.7684733,150.233873 15.1513994,150.652634 18.4556155,151.289833 C24.8539766,152.505625 27.9008101,149.465612 27.9008101,149.465612 L23.7724356,137.913988 L14.1922486,137.910791 Z" id="Path" fill="#E65100"></path>
                            <path d="M15.7278937,157.061916 C15.7278937,157.061916 18.7747273,157.669279 18.1653392,158.886137 L12.6810602,158.886137 L12.9857542,157.061916 L15.7278937,157.061916 Z" id="Path" fill="#FF9800"></path>
                            <path d="M25.4778892,157.061916 C25.4778892,157.061916 28.5246159,157.669279 27.9153346,158.886137 L22.4309488,158.886137 L22.7356429,157.061916 L25.4778892,157.061916 Z" id="Path" fill="#FF9800"></path>
                            <path d="M23.3450309,110.85542 C23.3450309,110.85542 16.0325878,121.191251 19.3841153,125.447057 L6.28259231,125.14231 C6.28259231,125.14231 9.9388139,101.73538 23.3450309,110.85542 Z" id="Path" fill="#212121"></path>
                            <path d="M23.3450309,110.85542 C21.455992,109.569301 19.7619658,108.931037 18.241486,108.78186 C19.5171853,109.181441 20.7296604,109.781346 21.8224152,110.551738 C22.9151699,111.321065 14.509972,120.88757 17.8614995,125.143375 L6.32915614,124.875922 C6.29861197,125.048541 6.28344669,125.143375 6.28344669,125.143375 L19.3848629,125.447057 C16.0325878,121.191251 23.3450309,110.85542 23.3450309,110.85542 Z" id="Path" fill="#212121"></path>
                            <path d="M23.7898436,137.910791 L22.8757615,137.910791 L27.0042429,149.462415 C27.0042429,149.462415 25.03596,151.423027 20.9410132,151.562614 C25.6545327,151.714988 27.918325,149.462415 27.918325,149.462415 L23.7898436,137.910791 Z" id="Path" fill-opacity="0.2" fill="#E65100"></path>
                            <path d="M15.7278937,157.061916 L15.1185057,157.061916 C15.1185057,157.061916 18.1653392,157.669279 17.5559511,158.886137 L18.1653392,158.886137 C18.7747273,157.669279 15.7278937,157.061916 15.7278937,157.061916 Z" id="Path" fill-opacity="0.2" fill="#FF9800"></path>
                            <path d="M25.4778892,157.061916 L24.8683943,157.061916 C24.8683943,157.061916 27.9152278,157.669279 27.3059466,158.886137 L27.9152278,158.886137 C28.5246159,157.669279 25.4778892,157.061916 25.4778892,157.061916 Z" id="Path" fill-opacity="0.2" fill="#FF9800"></path>
                        </g>
                        <g id="Group-2" transform="translate(193.773925, 50.303854)">
                            <polygon id="Path" fill="#F5F5F5" points="16.7576378 6.79927249 133.451287 6.79927249 133.451287 2.39130658 16.7576378 2.39130658"></polygon>
                            <polygon id="Path" fill="#0BABF4" points="14.4358543 151.763683 135.700448 151.763683 135.700448 0.983928571 14.4358543 0.983928571"></polygon>
                            <path d="M15.4215977,150.780181 L134.714705,150.780181 L134.714705,1.96775059 L15.4215977,1.96775059 L15.4215977,150.780181 Z M13.4501109,152.748251 L136.686192,152.748251 L136.686192,1.42108547e-14 L13.4501109,1.42108547e-14 L13.4501109,152.748251 Z" id="Shape" fill="url(#linearGradient-11)"></path>
                            <polygon id="Path" fill="#FFFFFF" points="16.7576378 146.483884 133.451287 146.483884 133.451287 6.79927249 16.7576378 6.79927249"></polygon>
                            <path d="M20.529735,4.67126323 C20.529735,4.08371914 20.052349,3.60741843 19.4628253,3.60741843 C18.8743696,3.60741843 18.3969835,4.08371914 18.3969835,4.67126323 C18.3969835,5.25880732 18.8743696,5.73521458 19.4628253,5.73521458 C20.052349,5.73521458 20.529735,5.25880732 20.529735,4.67126323 Z" id="Path" fill="#E65100"></path>
                            <path d="M23.4602657,4.67126323 C23.4602657,4.08371914 22.9828797,3.60741843 22.394424,3.60741843 C21.8049003,3.60741843 21.3275143,4.08371914 21.3275143,4.67126323 C21.3275143,5.25880732 21.8049003,5.73521458 22.394424,5.73521458 C22.9828797,5.73521458 23.4602657,5.25880732 23.4602657,4.67126323 Z" id="Path" fill="#FFE0B2"></path>
                            <path d="M26.3950684,4.67126323 C26.3950684,4.08371914 25.9176824,3.60741843 25.3281587,3.60741843 C24.739703,3.60741843 24.262317,4.08371914 24.262317,4.67126323 C24.262317,5.25880732 24.739703,5.73521458 25.3281587,5.73521458 C25.9176824,5.73521458 26.3950684,5.25880732 26.3950684,4.67126323 Z" id="Path" fill="#FF9800"></path>
                            <polygon id="Path" fill="url(#linearGradient-12)" points="24.070081 15.7665123 126.444286 15.7665123 126.444286 13.0310332 24.070081 13.0310332"></polygon>
                            <polygon id="Path" fill="#0BABF4" points="23.4602657 71.7014771 67.6403665 71.7014771 67.6403665 24.886552 23.4602657 24.886552"></polygon>
                            <polygon id="Path" fill="#FFFFFF" points="24.3744546 70.1820032 66.7261776 70.1820032 66.7261776 26.4070914 24.3744546 26.4070914"></polygon>
                            <polygon id="Path" fill="#0BABF4" points="82.2652528 95.1084068 126.444286 95.1084068 126.444286 48.2945473 82.2652528 48.2945473"></polygon>
                            <polygon id="Path" fill="#FFFFFF" points="83.1783738 93.588933 125.530097 93.588933 125.530097 49.8140212 83.1783738 49.8140212"></polygon>
                            <polygon id="Path" fill="#B0E4FB" points="24.3744546 138.275955 128.272663 138.275955 128.272663 106.052668 24.3744546 106.052668"></polygon>
                            <polygon id="Path" fill="#0BABF4" points="26.5072061 137.060163 126.444286 137.060163 126.444286 108.18057 26.5072061 108.18057"></polygon>
                            <polygon id="Path" fill="#B0E4FB" points="28.9453991 110.916902 126.444286 110.916902 126.444286 108.18057 26.5072061 108.18057 26.5072061 137.060163 28.9453991 137.060163"></polygon>
                            <path d="M59.7084962,35.9981041 C56.1222272,31.8392637 50.8891365,29.4417769 45.3890515,29.4417769 C34.9570455,29.4417769 26.4986622,37.8819959 26.4986622,48.2892196 C26.4986622,58.6975088 34.9570455,67.1366623 45.3890515,67.1366623 C55.8178535,67.1366623 64.2773048,58.6996399 64.2794407,48.2945473 C64.2794407,48.288154 64.2794407,48.2785641 64.2794407,48.2711052 C64.2794407,43.7659612 62.6550467,39.407863 59.7084962,35.9970385 L59.7084962,35.9981041 Z M56.6626239,71.8442607 C54.6430781,73.0387419 52.3330424,73.6706129 49.9834915,73.6706129 C42.7490106,73.6706129 36.8815413,67.816483 36.8815413,60.5984494 C36.8815413,53.3804159 42.7490106,47.5273516 49.9834915,47.5273516 C57.2179723,47.5273516 63.0843737,53.3793504 63.0843737,60.5973839 C61.6842549,61.0928645 60.2061738,61.3475309 58.7184809,61.3475309 C56.3924255,61.3475309 54.1037494,60.7241843 52.1002232,59.5467519 L56.6626239,71.8442607 Z" id="Shape" fill="#B3E5FC"></path>
                            <path d="M54.8588096,40.1654688 L59.0175147,36.5937463 C55.6128018,32.6384259 50.6413657,30.3592152 45.413615,30.3592152 L45.3986633,30.3592152 L45.3986633,35.8308128 C45.3986633,35.8308128 45.4007992,35.8308128 45.4007992,35.8308128 C49.0351273,35.8308128 52.492171,37.4152851 54.8588096,40.1654688 L54.8588096,40.1654688 Z" id="Path" fill="#E65100"></path>
                            <path d="M45.3975953,60.7550852 C45.3954593,60.7550852 45.3922554,60.7550852 45.3911874,60.7550852 C43.6151405,60.7550852 41.8572493,60.3736185 40.241399,59.6383892 L37.9783543,64.6272928 C40.3076137,65.6811214 42.8451286,66.2288139 45.4040032,66.2288139 C48.6314317,66.2288139 51.8075973,65.3593254 54.5822034,63.7151822 L51.7787619,59.0065182 C49.8574701,60.149853 47.658504,60.7550852 45.4200228,60.7550852 L45.3975953,60.7550852 L45.3975953,60.7550852 Z" id="Path" fill="#B0E4FB"></path>
                            <path d="M63.3748636,48.2913507 C63.3737956,48.2838918 63.3737956,48.2753674 63.3737956,48.2689741 C63.3737956,43.9822678 61.82416,39.8330173 59.0164467,36.5905497 L54.8577416,40.1622722 C56.8164127,42.420172 57.8972061,45.3142049 57.8972061,48.3020062 C57.8972061,52.6984641 55.5690147,56.770995 51.777694,59.0097149 L54.5811354,63.7183789 C60.0299575,60.4897634 63.3737956,54.6260435 63.3737956,48.2998751 L63.3737956,48.2913507 L63.3748636,48.2913507 Z" id="Path" fill="#FF9800"></path>
                            <path d="M32.9054604,48.2913507 C32.9054604,41.4089653 38.4995274,35.8276161 45.3975953,35.8276161 L45.3975953,30.3560185 C35.4718107,30.3560185 27.4224629,38.3870664 27.4224629,48.2913507 C27.4224629,55.3303718 31.5523326,61.7226044 37.9783543,64.6283583 L40.242467,59.6394547 C35.7793883,57.6213036 32.9075963,53.1811581 32.9054604,48.2913507 L32.9054604,48.2913507 Z" id="Path" fill="#03A9F4"></path>
                            <polygon id="Path" fill="url(#linearGradient-13)" points="89.2722544 56.5014109 89.2722544 61.3656452 120.96022 61.3656452 120.96022 56.5014109"></polygon>
                            <polygon id="Path" stroke="#0BABF4" stroke-width="0.5" points="89.2722544 61.3656452 120.96022 61.3656452 120.96022 56.5014109 89.2722544 56.5014109"></polygon>
                            <polygon id="Path" fill="url(#linearGradient-14)" points="112.428147 69.5735744 112.428147 64.7093401 89.2722544 64.7093401 89.2722544 69.5735744"></polygon>
                            <polygon id="Path" stroke="#FF9800" stroke-width="0.5" points="89.2722544 69.5735744 112.428147 69.5735744 112.428147 64.7093401 89.2722544 64.7093401"></polygon>
                            <polygon id="Path" fill="url(#linearGradient-15)" points="105.115703 77.7815035 105.115703 72.9172693 89.2722544 72.9172693 89.2722544 77.7815035"></polygon>
                            <polygon id="Path" stroke="#0BABF4" stroke-width="0.5" points="89.2722544 77.7815035 105.115703 77.7815035 105.115703 72.9172693 89.2722544 72.9172693"></polygon>
                            <polygon id="Path" fill="url(#linearGradient-16)" points="117.91328 85.9894327 117.91328 81.1251984 89.2722544 81.1251984 89.2722544 85.9894327"></polygon>
                            <polygon id="Path" stroke="#FF9800" stroke-width="0.5" points="89.2722544 85.9894327 117.91328 85.9894327 117.91328 81.1251984 89.2722544 81.1251984"></polygon>
                            <polygon id="Path" fill="url(#linearGradient-17)" points="69.7731179 81.7336273 69.7731179 78.9972957 24.3744546 78.9972957 24.3744546 81.7336273"></polygon>
                            <polygon id="Path" stroke="#FF9800" stroke-width="0.5" points="24.3744546 81.7336273 69.7731179 81.7336273 69.7731179 78.9972957 24.3744546 78.9972957"></polygon>
                            <polygon id="Path" fill="url(#linearGradient-18)" points="24.3744546 86.2931143 49.9685398 86.2931143 49.9685398 83.5567828 24.3744546 83.5567828"></polygon>
                            <polygon id="Path" stroke="#FF9800" stroke-width="0.5" points="24.3744546 86.2931143 49.9685398 86.2931143 49.9685398 83.5567828 24.3744546 83.5567828"></polygon>
                            <polygon id="Path" fill="url(#linearGradient-19)" points="54.5384163 86.2931143 63.3748636 86.2931143 63.3748636 83.5567828 54.5384163 83.5567828"></polygon>
                            <polygon id="Path" stroke="#FF9800" stroke-width="0.5" points="54.5384163 86.2931143 63.3748636 86.2931143 63.3748636 83.5567828 54.5384163 83.5567828"></polygon>
                            <polygon id="Path" fill="url(#linearGradient-19)" points="54.5384163 96.3252646 63.3748636 96.3252646 63.3748636 93.588933 54.5384163 93.588933"></polygon>
                            <polygon id="Path" stroke="#FF9800" stroke-width="0.5" points="54.5384163 96.3252646 63.3748636 96.3252646 63.3748636 93.588933 54.5384163 93.588933"></polygon>
                            <polygon id="Path" fill="url(#linearGradient-18)" points="49.9685398 95.413154 49.9685398 92.6768225 24.3744546 92.6768225 24.3744546 95.413154"></polygon>
                            <polygon id="Path" stroke="#FF9800" stroke-width="0.5" points="24.3744546 95.413154 49.9685398 95.413154 49.9685398 92.6768225 24.3744546 92.6768225"></polygon>
                            <polygon id="Path" fill="url(#linearGradient-20)" points="24.3744546 90.8526014 69.7731179 90.8526014 69.7731179 88.1173354 24.3744546 88.1173354"></polygon>
                            <polygon id="Path" stroke="#FF9800" stroke-width="0.5" points="24.3744546 90.8526014 69.7731179 90.8526014 69.7731179 88.1173354 24.3744546 88.1173354"></polygon>
                            <polygon id="Path" fill="url(#linearGradient-21)" points="127.053033 25.1902337 81.6554376 25.1902337 81.6554376 27.9265653 127.053033 27.9265653"></polygon>
                            <polygon id="Path" stroke="#FF9800" stroke-width="0.5" points="81.6554376 27.9265653 127.053033 27.9265653 127.053033 25.1902337 81.6554376 25.1902337"></polygon>
                            <polygon id="Path" fill="url(#linearGradient-22)" points="81.6554376 32.4860523 107.248455 32.4860523 107.248455 29.7507863 81.6554376 29.7507863"></polygon>
                            <polygon id="Path" stroke="#FF9800" stroke-width="0.5" points="81.6554376 32.4860523 107.248455 32.4860523 107.248455 29.7507863 81.6554376 29.7507863"></polygon>
                            <polygon id="Path" fill="url(#linearGradient-23)" points="111.819399 32.4860523 120.654779 32.4860523 120.654779 29.7507863 111.819399 29.7507863"></polygon>
                            <polygon id="Path" stroke="#FF9800" stroke-width="0.5" points="111.819399 32.4860523 120.654779 32.4860523 120.654779 29.7507863 111.819399 29.7507863"></polygon>
                            <polygon id="Path" fill="url(#linearGradient-24)" points="111.819399 42.5182025 120.654779 42.5182025 120.654779 39.781871 111.819399 39.781871"></polygon>
                            <polygon id="Path" stroke="#FF9800" stroke-width="0.5" points="111.819399 42.5182025 120.654779 42.5182025 120.654779 39.781871 111.819399 39.781871"></polygon>
                            <polygon id="Path" fill="url(#linearGradient-25)" points="81.6554376 41.606092 107.248455 41.606092 107.248455 38.870826 81.6554376 38.870826"></polygon>
                            <polygon id="Path" stroke="#FF9800" stroke-width="0.5" points="81.6554376 41.606092 107.248455 41.606092 107.248455 38.870826 81.6554376 38.870826"></polygon>
                            <polygon id="Path" fill="url(#linearGradient-21)" points="127.053033 34.3102734 81.6554376 34.3102734 81.6554376 37.0466049 127.053033 37.0466049"></polygon>
                            <polygon id="Path" stroke="#FF9800" stroke-width="0.5" points="81.6554376 37.0466049 127.053033 37.0466049 127.053033 34.3102734 81.6554376 34.3102734"></polygon>
                            <polygon id="Path" fill="#FFFFFF" points="1.42108547e-14 154.083385 99.9360116 154.083385 99.9360116 125.203792 1.42108547e-14 125.203792"></polygon>
                            <line x1="3.35131397" y1="148.709551" x2="95.9759503" y2="148.709551" id="Path" stroke="#6C63FF" stroke-width="0.5"></line>
                            <polygon id="Path" fill="url(#linearGradient-26)" points="5.02697095 147.243621 17.2147323 147.243621 17.2147323 131.739874 5.02697095 131.739874"></polygon>
                            <polygon id="Path" fill="url(#linearGradient-27)" points="93.5377573 142.835442 81.351064 142.835442 81.351064 147.699677 93.5377573 147.699677"></polygon>
                            <polygon id="Path" fill="url(#linearGradient-28)" points="70.6873068 136.451734 58.4995455 136.451734 58.4995455 147.395995 70.6873068 147.395995"></polygon>
                            <polygon id="Path" fill="url(#linearGradient-29)" points="31.6868978 147.395995 43.8746591 147.395995 43.8746591 138.275955 31.6868978 138.275955"></polygon>
                            <polygon id="Path" fill="#FF9800" points="1.42108547e-14 158.33919 99.9360116 158.33919 99.9360116 154.083385 1.42108547e-14 154.083385"></polygon>
                            <path d="M98.4130754,160.77184 C98.4130754,159.428182 97.3216022,158.33919 95.9759503,158.33919 C94.6292305,158.33919 93.5377573,159.428182 93.5377573,160.77184 C93.5377573,162.114433 94.6292305,163.203424 95.9759503,163.203424 C97.3216022,163.203424 98.4130754,162.114433 98.4130754,160.77184 Z" id="Path" fill="#FF9800"></path>
                        </g>
                        <g id="Group" transform="translate(311.000000, 121.000000)">
                            <path d="M32.5478225,80.9236364 L32.5478225,80.8945455 C32.5030525,79.3454545 25.3920771,78.0945455 16.62461,78.0872727 L16.4455298,78.0872727 C7.64075431,78.0945455 0.522317189,79.3527273 0.522317189,80.9090909 C0.522317189,82.4654545 7.69298603,83.7309091 16.5350699,83.7309091 C25.347307,83.7309091 32.5030525,82.48 32.5478225,80.9236364 Z" id="Path" fill="#C5CAE9" fill-rule="nonzero"></path>
                            <path d="M34.8907882,43.5490909 C36.1965812,46.0072727 41.0989011,46.3127273 45.7400624,44.8727273 C50.373762,43.4327273 65.4985755,39.9927273 69.356261,39.3309091 C73.2214082,38.6618182 75.3181387,35.4181818 73.982499,33.1418182 C72.631936,30.8654545 61.2304979,28.2109091 49.9484466,32.4872727 C38.6589337,36.7636364 33.2790666,40.5090909 34.8907882,43.5490909 Z" id="Path" fill="#FF9800" fill-rule="nonzero"></path>
                            <path d="M24.2653643,36.5963636 C26.4740198,39.4909091 42.6882377,29.7236364 51.0975444,21.4981818 C59.4993895,13.2727273 60.5514856,2.42909091 55.0820784,0.574545455 C49.6126713,-1.28727273 42.1509972,4.19636364 39.6737213,9.68 C37.1889839,15.1636364 36.8233618,20.8218182 31.7270384,24.2181818 C27.4738841,27.0472727 21.7507801,33.2872727 24.2653643,36.5963636 Z" id="Path" fill="#FF9800" fill-rule="nonzero"></path>
                            <path d="M16.2962963,43.8909091 C18.4527201,44.5527273 19.9450549,35.9054545 19.5197395,31.4909091 C18.982499,25.9272727 11.8267535,18.8 6.28272962,23.8036364 C2.1340388,27.5563636 12.1252205,31.5272727 13.5354769,34.3636364 C15.6695157,38.6327273 12.9460046,42.8509091 16.2962963,43.8909091 Z" id="Path" fill="#FF9800" fill-rule="nonzero"></path>
                            <path d="M25.00407,60.3490909 C24.8026048,60.3490909 24.6011396,60.24 24.4892145,60.0509091 C24.3325193,59.7745455 24.4369828,59.4254545 24.7205264,59.2727273 C26.5710216,58.2763636 29.0482974,56.2036364 30.1153168,54 C30.6898657,52.8072727 30.660019,51.5127273 30.6301723,50.1454545 C30.5779406,47.68 30.5033238,44.8872727 34.644553,43.0254545 C39.5991046,40.7927273 57.7757428,35.7090909 60.9469543,35.3454545 C61.2752679,35.3018182 61.5588116,35.5345455 61.5961199,35.8472727 C61.6334283,36.16 61.4095781,36.4436364 61.0887261,36.48 C58.1115181,36.8218182 39.9423416,41.9054545 35.1370235,44.0654545 C31.7046534,45.6145455 31.7494234,47.7018182 31.8091168,50.1163636 C31.8464252,51.5563636 31.8762719,53.0472727 31.1748745,54.4872727 C29.99593,56.9236364 27.294804,59.1927273 25.2876136,60.2763636 C25.1980735,60.32 25.1010718,60.3490909 25.00407,60.3490909 Z" id="Path" fill="#E65100" fill-rule="nonzero"></path>
                            <path d="M22.0940171,59.4109091 C21.959707,59.4109091 21.8253968,59.3672727 21.7134717,59.2727273 C21.4672365,59.0618182 21.4448514,58.6981818 21.6537783,58.4654545 C25.4070004,54.2545455 24.2728259,50.16 23.1834215,46.1890909 C22.2507123,42.8145455 21.2806946,39.3163636 23.8102021,36.24 C25.6830823,33.9563636 28.9214489,31.4618182 32.674671,28.5745455 C34.711708,27.0109091 36.8159001,25.3963636 38.9126306,23.6509091 C44.7178131,18.8218182 50.5976123,8.72 51.8660969,4.82181818 C51.9630986,4.51636364 52.298874,4.34909091 52.6048026,4.45090909 C52.9181929,4.54545455 53.0898114,4.86545455 52.9928097,5.17090909 C51.679555,9.17818182 45.6430606,19.5636364 39.6737213,24.5163636 C37.5546059,26.2836364 35.4504138,27.9054545 33.4059151,29.4690909 C29.7049247,32.3127273 26.5187899,34.7709091 24.7279881,36.9527273 C22.5715642,39.5781818 23.3848867,42.5018182 24.317596,45.8909091 C25.4368471,49.9490909 26.7053317,54.5454545 22.5417175,59.2145455 C22.4297924,59.3454545 22.2581739,59.4109091 22.0940171,59.4109091 Z" id="Path" fill="#E65100" fill-rule="nonzero"></path>
                            <path d="M18.616877,58.3709091 C18.5273369,58.3709091 18.4377968,58.3490909 18.3482567,58.3054545 C18.0572514,58.1527273 17.952788,57.8109091 18.1020214,57.5272727 C20.2435219,53.5781818 19.4227378,52.4436364 17.4230091,49.7018182 C17.1693122,49.36 16.9081536,48.9963636 16.6320716,48.6036364 C14.7591914,45.9345455 15.6695157,41.1272727 15.9679826,39.5490909 C16.0202144,39.2363636 16.3336047,39.0327273 16.6544567,39.0909091 C16.967847,39.1490909 17.1842355,39.4472727 17.1245421,39.76 C16.8484602,41.2218182 16.005291,45.68 17.6020893,47.9563636 C17.8707095,48.3418182 18.1318681,48.6981818 18.3781034,49.0327273 C20.4002171,51.8181818 21.6239316,53.4909091 19.1391941,58.0654545 C19.0347307,58.2618182 18.8332655,58.3709091 18.616877,58.3709091 Z" id="Path" fill="#E65100" fill-rule="nonzero"></path>
                            <polygon id="Path" fill="url(#linearGradient-30)" points="10.2448786 54.1890909 7.76014109 75.9418182 23.4371184 80.7927273 34.2789309 61.6290909"></polygon>
                            <path d="M10.8268892,55.0618182 L8.49138516,75.4836364 L23.1162664,80.0072727 L33.2865283,62.0145455 L10.8268892,55.0618182 Z M7.08859042,75.8690909 L9.67032967,53.3236364 L35.2638719,61.2436364 L23.7654321,81.5781818 L7.02889703,76.4 L7.08859042,75.8690909 Z" id="Shape" fill="url(#linearGradient-31)"></path>
                        </g>
                    </g>
                </g>
            </g>
        </g>
    </g>
</svg>