<?xml version="1.0" encoding="UTF-8"?>
<svg width="329px" height="292px" viewBox="0 0 329 292" version="1.1" xmlns="http://www.w3.org/2000/svg" xmlns:xlink="http://www.w3.org/1999/xlink">
    <!-- Generator: Sketch 64 (93537) - https://sketch.com -->
    <title>Login</title>
    <desc>Created with Sketch.</desc>
    <defs>
        <linearGradient x1="-0.000138154559%" y1="50%" x2="100%" y2="50%" id="linearGradient-1">
            <stop stop-color="#03A9F4" offset="0%"></stop>
            <stop stop-color="#B0E4FB" offset="100%"></stop>
        </linearGradient>
        <linearGradient x1="-8.56325311e-05%" y1="50.0005355%" x2="100.000055%" y2="50.0005355%" id="linearGradient-2">
            <stop stop-color="#304FFE" offset="0%"></stop>
            <stop stop-color="#C5CAE9" offset="100%"></stop>
        </linearGradient>
        <linearGradient x1="0%" y1="50%" x2="99.9991035%" y2="50%" id="linearGradient-3">
            <stop stop-color="#FF9800" offset="0%"></stop>
            <stop stop-color="#FFE0B2" offset="100%"></stop>
        </linearGradient>
        <linearGradient x1="50%" y1="0%" x2="50%" y2="100%" id="linearGradient-4">
            <stop stop-color="#C5CAE9" offset="0%"></stop>
            <stop stop-color="#304FFE" offset="100%"></stop>
        </linearGradient>
    </defs>
    <g id="Forms" stroke="none" stroke-width="1" fill="none" fill-rule="evenodd">
        <g id="Login" transform="translate(-914.000000, -448.000000)">
            <g id="Right-Side" transform="translate(835.000000, 216.000000)">
                <g id="Login" transform="translate(79.000000, 232.000000)">
                    <g id="Group" transform="translate(8.000000, 99.000000)">
                        <path d="M50.9035545,87.1737912 C50.9035545,89.4900935 49.0283001,91.369991 46.7145842,91.369991 C44.4009972,91.369991 42.5257428,89.4900935 42.5257428,87.1737912 C42.5257428,84.8549067 44.4009972,82.9763003 46.7145842,82.9763003 C49.0283001,82.9763003 50.9035545,84.8549067 50.9035545,87.1737912 Z M50.9035545,36.2280523 C50.9035545,38.5456457 49.0283001,40.4242521 46.7145842,40.4242521 C44.4009972,40.4242521 42.5257428,38.5456457 42.5257428,36.2280523 C42.5257428,33.9091677 44.4009972,32.0305614 46.7145842,32.0305614 C49.0283001,32.0305614 50.9035545,33.9104589 50.9035545,36.2280523 Z M82.2277778,55.0438122 L11.1999729,55.0438122 L11.1999729,17.4122924 L82.2277778,17.4122924 L82.2277778,55.0438122 Z M82.2277778,105.782969 L11.1999729,105.782969 L11.1999729,68.1514492 L82.2277778,68.1514492 L82.2277778,105.782969 Z M82.2277778,156.523417 L11.1999729,156.523417 L11.1999729,118.891897 L82.2277778,118.891897 L82.2277778,156.523417 Z M1.1845679,1.21108782 L1.1845679,190.072357 L92.2431827,190.072357 L92.2431827,1.21108782 L1.1845679,1.21108782 Z" id="Shape" fill="#0BABF4"></path>
                        <path d="M52.018912,87.1737912 C52.018912,88.6405244 51.4251458,89.9691059 50.4650929,90.931004 C49.5052978,91.8929021 48.1793447,92.4868257 46.7145842,92.4868257 C45.2499525,92.4868257 43.9239995,91.8929021 42.9642043,90.931004 C42.0041514,89.9691059 41.4103853,88.6405244 41.4103853,87.1737912 C41.4103853,85.7057669 42.0040225,84.3771855 42.9638177,83.4152873 C43.9237417,82.4533892 45.2498236,81.8594656 46.7145842,81.8594656 C48.1794736,81.8594656 49.5055556,82.4533892 50.4654796,83.4152873 C51.4252747,84.3771855 52.018912,85.7057669 52.018912,87.1737912 Z M93.3585402,191.185318 L93.3585402,0.0942531031 L0.0692104192,0.0942531031 L0.0692104192,191.185318 C31.1656966,191.185318 62.2621829,191.185318 93.3585402,191.185318 Z M48.887946,89.3506506 C49.444207,88.7928788 49.788197,88.0233603 49.788197,87.1737912 C49.788197,86.322931 49.444207,85.5521214 48.8882038,84.9956407 C48.3320716,84.437869 47.5636684,84.093135 46.7145842,84.093135 C45.8657577,84.093135 45.0972256,84.437869 44.5410935,84.9956407 C43.9850902,85.5521214 43.6411003,86.322931 43.6411003,87.1737912 C43.6411003,88.0233603 43.9850902,88.7928788 44.5413512,89.3506506 C45.0974834,89.9071312 45.8657577,90.2518652 46.7145842,90.2518652 C47.5634107,90.2518652 48.3318139,89.9071312 48.887946,89.3506506 Z M52.018912,36.2280523 C52.018912,37.6947855 51.4251458,39.0233669 50.4650929,39.985265 C49.5052978,40.9471632 48.1793447,41.542378 46.7145842,41.542378 C45.2499525,41.542378 43.9239995,40.9471632 42.9642043,39.985265 C42.0041514,39.0233669 41.4103853,37.6947855 41.4103853,36.2280523 C41.4103853,34.760028 42.0040225,33.4314465 42.9638177,32.4695484 C43.9237417,31.5076503 45.2498236,30.9137267 46.7145842,30.9137267 C48.1793447,30.9137267 49.5054267,31.5089415 50.4652218,32.4695484 C51.4251458,33.4314465 52.018912,34.7613191 52.018912,36.2280523 Z M48.887946,38.4049117 C49.444207,37.848431 49.788197,37.0776214 49.788197,36.2280523 C49.788197,35.3771921 49.444207,34.6076736 48.887946,34.0499018 C48.3318139,33.4934212 47.5634107,33.1486872 46.7145842,33.1486872 C45.8657577,33.1486872 45.0972256,33.49213 44.5410935,34.0499018 C43.9850902,34.6076736 43.6411003,35.3771921 43.6411003,36.2280523 C43.6411003,37.0776214 43.9850902,37.848431 44.5413512,38.4049117 C45.0974834,38.9626834 45.8657577,39.3074174 46.7145842,39.3074174 C47.5634107,39.3074174 48.3318139,38.9626834 48.887946,38.4049117 Z M83.3431353,56.1606469 L10.0846154,56.1606469 L10.0846154,16.2941666 L83.3431353,16.2941666 L83.3431353,56.1606469 Z M12.3154592,53.9269775 L81.1124203,53.9269775 L81.1124203,18.5291272 L12.3154592,18.5291272 L12.3154592,53.9269775 Z M83.3431353,106.901095 L10.0846154,106.901095 L10.0846154,67.0346145 L83.3431353,67.0346145 L83.3431353,106.901095 Z M12.3154592,104.666134 L81.1124203,104.666134 L81.1124203,69.2695751 L12.3154592,69.2695751 L12.3154592,104.666134 Z M83.3431353,157.640252 L10.0846154,157.640252 L10.0846154,117.773771 L83.3431353,117.773771 L83.3431353,157.640252 Z M12.3154592,155.405291 L81.1124203,155.405291 L81.1124203,120.008732 L12.3154592,120.008732 L12.3154592,155.405291 Z M2.29992538,2.32921367 L2.29992538,188.959396 L91.1278253,188.959396 L91.1278253,2.32921367 L2.29992538,2.32921367 Z" id="Shape" fill="url(#linearGradient-1)"></path>
                    </g>
                    <g id="Group" transform="translate(71.000000, 0.000000)">
                        <path d="M211.565888,152.822346 C211.565888,152.822346 204.251852,146.875485 211.431567,139.650159 C215.538689,135.518642 216.135385,130.37388 211.431567,122.912945 C201.921899,107.824991 204.791719,105.725115 207.427768,100.600952 C210.063818,95.4767901 211.006648,91.3967725 208.015423,83.3295644 C205.024198,75.2622275 198.607787,62.6354162 214.194188,48.3090053 C229.78188,33.9825944 205.933447,0.017638448 205.933447,0.017638448 C205.933447,0.017638448 236.84019,27.0893086 236.089801,45.8067919 C235.33812,64.5244039 217.065299,62.4377884 225.460361,81.2361252 C230.76604,93.1181305 226.249497,100.840423 220.121102,106.631499 C211.10868,115.146878 215.541273,117.048483 218.655195,125.101658 C222.562127,135.209647 217.935802,141.389541 213.224236,143.888536 C208.512669,146.388818 211.565888,152.822346 211.565888,152.822346 Z" id="Path" fill="#B0E4FB"></path>
                        <path d="M173.822982,71.1519541 C173.04547,70.5783827 171.946363,70.7416349 171.370332,71.5164392 L166.094359,78.619455 C167.33037,78.8163104 168.475973,79.2760688 169.466591,79.9528959 L174.18849,73.5955873 C174.76452,72.8207831 174.600494,71.7261693 173.822982,71.1519541 Z" id="Path" fill="#304FFE"></path>
                        <path d="M157.322165,90.4302628 L155.366762,93.062769 C154.790731,93.8378307 154.953466,94.9334744 155.730978,95.5064021 C156.509782,96.0806173 157.607597,95.9171076 158.183628,95.1420459 L159.592707,93.2455908 C158.642127,92.4872663 157.864615,91.5286102 157.322165,90.4302628 Z" id="Path" fill="#304FFE"></path>
                        <path d="M115.217702,214.573651 C115.167331,216.273122 115.123419,218.024092 115.087255,219.814974 L91.3511871,219.814974 C76.1109212,219.814974 63.7133523,240.684991 63.7133523,266.337989 L63.7133523,289.407019 L58.4554606,289.407019 L58.4554606,266.337989 C58.4554606,252.73321 61.7424501,239.906067 67.7094017,230.217795 C73.9217474,220.129118 82.3181007,214.573651 91.3511871,214.573651 L115.217702,214.573651 Z M170.839506,230.217795 C167.070769,224.098413 162.496106,219.657901 157.465527,217.103545 L156.356087,222.451728 C167.106933,228.828607 174.835556,246.087249 174.835556,266.337989 L174.835556,289.407019 L180.093447,289.407019 L180.093447,266.337989 C180.093447,252.73321 176.807749,239.906067 170.839506,230.217795 Z M147.199012,214.573651 L140.333143,214.573651 C139.701576,216.21776 139.008015,217.975168 138.265375,219.814974 L147.199012,219.814974 C148.278746,219.814974 149.34169,219.930847 150.387844,220.134268 L147.937778,214.601975 C147.691092,214.595538 147.445698,214.573651 147.199012,214.573651 Z M233.579031,171.423827 L1.19816904,171.423827 L1.19816904,226.293563 C2.09954036,225.827496 2.96616904,225.455414 3.7728699,225.217231 C7.39527445,224.147337 10.8389288,224.348183 13.5788186,225.365291 L13.5788186,189.130511 L222.150123,189.130511 L222.150123,288.178765 L233.579031,288.178765 L233.579031,171.423827 Z M10.4769079,229.612681 C7.12107882,231.949453 4.15594302,234.711093 1.19816904,237.492046 L1.19816904,240.636067 C4.5539981,237.476596 7.91796391,234.299101 11.6854093,231.676508 C12.9441519,230.80231 11.7470161,228.730758 10.4769079,229.612681 Z M1.19816904,254.240847 L13.5788186,254.240847 L13.5788186,241.474215 C9.58987274,245.13709 5.54991073,247.77127 1.19816904,250.868942 L1.19816904,254.240847 Z" id="Shape" fill="#304FFE"></path>
                        <path d="M116.331016,214.60455 C116.305185,215.465873 116.281937,216.324621 116.259981,217.179506 C116.238025,218.067866 116.218651,218.953651 116.20057,219.836861 L116.178613,220.928642 L91.3511871,220.928642 C84.1546819,220.928642 77.5807028,225.936931 72.7774359,234.022293 C67.8708452,242.282751 64.8305413,253.711693 64.8305413,266.337989 L64.8305413,290.520688 L57.3382716,290.520688 L57.3382716,266.337989 C57.3382716,259.443545 58.17132,252.742222 59.7625071,246.534004 C61.3562773,240.31291 63.7133523,234.581058 66.7575309,229.63843 C69.9502374,224.453757 73.7176828,220.425238 77.857094,217.685485 C82.0468756,214.913545 86.6124976,213.459982 91.3511871,213.459982 L116.365888,213.459982 L116.331016,214.60455 Z M234.69622,170.310159 L0.0804060357,170.310159 C0.0804060357,189.581129 0.0804060357,208.853386 0.0804060357,228.125644 L1.70897626,227.282346 C2.14823172,227.054462 2.56488509,226.85619 2.95325356,226.692681 C3.33852232,226.530459 3.71733333,226.392698 4.08723267,226.283263 C5.7268528,225.799171 7.32152707,225.591887 8.81726876,225.615062 C10.406906,225.638236 11.8868908,225.921481 13.1901918,226.405573 L14.6965242,226.964339 L14.6965242,190.24418 L221.031643,190.24418 L221.031643,289.292434 L234.69622,289.292434 L234.69622,170.310159 Z M114.033352,217.128007 C114.046268,216.640053 114.059183,216.159824 114.072099,215.688607 L91.3511871,215.688607 C87.0567901,215.688607 82.9070465,217.013422 79.0879392,219.539453 C75.2184615,222.100247 71.6796201,225.894444 68.6612726,230.795873 C65.737208,235.542804 63.4679582,241.067372 61.928433,247.082469 C60.3837417,253.111728 59.5739411,259.627654 59.5739411,266.337989 L59.5739411,288.292063 L62.5961633,288.292063 L62.5961633,266.337989 C62.5961633,253.31 65.7552896,241.478078 70.8569041,232.8906 C76.0618424,224.128025 83.3074264,218.700018 91.3511871,218.700018 L113.997189,218.700018 C114.008813,218.167002 114.020437,217.642998 114.033352,217.128007 Z M169.887635,230.795873 C168.061387,227.829524 166.042697,225.271305 163.876771,223.146966 C162.095726,221.402434 160.21265,219.948871 158.250788,218.801728 L157.605014,221.918713 C162.973979,225.361429 167.556391,231.393263 170.79301,239.080794 C174.042545,246.795362 175.952745,256.202963 175.952745,266.337989 L175.952745,288.297213 L178.974967,288.297213 L178.974967,266.337989 L178.980133,266.337989 C178.980133,259.639242 178.169041,253.123316 176.621766,247.082469 C175.08095,241.067372 172.8117,235.542804 169.887635,230.795873 Z M165.439544,221.563369 C167.735916,223.815168 169.868262,226.515009 171.791377,229.63843 C174.835556,234.581058 177.193922,240.31291 178.787692,246.534004 C180.375005,252.731922 181.206762,259.431958 181.206762,266.337989 L181.210636,266.337989 L181.210636,290.516825 L173.718367,290.516825 L173.718367,266.337989 C173.718367,256.504233 171.871453,247.396614 168.732991,239.943404 C165.538993,232.357584 161.026325,226.511146 155.789098,223.404462 L155.104577,223.000194 L156.671225,215.450423 L157.971814,216.112187 C160.596239,217.444727 163.101842,219.27037 165.439544,221.563369 Z M147.199012,215.688607 L141.099031,215.688607 C140.882051,216.24866 140.645698,216.852487 140.391263,217.497513 C140.241443,217.878607 140.081292,218.279012 139.91339,218.700018 L147.199012,218.700018 C147.643305,218.700018 148.096638,218.720617 148.559012,218.759242 L147.199012,215.688607 Z M139.565964,213.459982 L147.199012,213.459982 C147.321709,213.459982 147.51415,213.470282 147.705299,213.479295 C147.820247,213.485732 147.935195,213.492169 147.968775,213.492169 L148.676543,213.514056 L152.273504,221.635467 L150.174739,221.227337 C149.671035,221.129489 149.176372,221.053527 148.692042,221.004603 C148.216752,220.955679 147.719506,220.928642 147.199012,220.928642 L136.614777,220.928642 L137.230845,219.401693 C137.57698,218.54037 137.938613,217.636561 138.313162,216.68769 C138.6283,215.888166 138.95377,215.051305 139.289573,214.178395 L139.565964,213.459982 Z M232.461842,172.538783 L2.3160038,172.538783 L2.3160038,224.552892 C2.71018424,224.394533 3.09183666,224.259347 3.45850712,224.149912 C5.31291168,223.602734 7.12921557,223.368413 8.84348718,223.39545 C10.114887,223.414762 11.3293295,223.576984 12.461113,223.860229 L12.461113,188.015556 L223.267312,188.015556 L223.267312,287.06381 L232.461842,287.06381 L232.461842,172.538783 Z M11.0701159,230.553827 C9.44948148,231.68552 7.91396011,232.924074 6.42183476,234.221852 C5.04504463,235.417919 3.68013675,236.687372 2.3160038,237.9697 L2.3160038,238.059824 C5.08495347,235.475855 7.91447673,232.947249 11.0479012,230.766261 L11.0479012,230.762399 C11.0968509,230.728924 11.1087331,230.67485 11.0976258,230.625926 C11.0918139,230.601464 11.0823856,230.577002 11.0701159,230.553827 Z M4.95476543,232.549418 C6.51004748,231.198854 8.12060779,229.899788 9.83939981,228.703721 L9.83939981,228.699859 C10.70732,228.096032 11.5826021,228.18873 12.2642811,228.645785 C12.5237531,228.819594 12.7448661,229.044903 12.9157379,229.302399 C13.0806686,229.550882 13.2033656,229.83284 13.2719468,230.130247 C13.4699411,230.987707 13.2382374,231.954603 12.3227882,232.590617 L12.3207217,232.588042 C8.67274454,235.126949 5.36573599,238.240071 2.070868,241.342892 L0.0804634378,243.21746 L0.0804634378,237.014392 L0.434089269,236.682222 C1.90968281,235.295608 3.38953846,233.910282 4.95476543,232.549418 Z M2.3160038,253.127178 L12.461113,253.127178 L12.461113,243.939735 C9.77869706,246.203122 7.06993352,248.102152 4.24583476,250.082293 C3.57965432,250.549647 2.90779107,251.020864 2.3160038,251.439295 L2.3160038,253.127178 Z M14.6965242,255.355802 L0.0804634378,255.355802 L0.0804634378,250.298589 L0.552007597,249.963845 C1.48579677,249.299506 2.22843685,248.778078 2.96216524,248.263086 C6.3839924,245.864515 9.63339791,243.584392 12.8235214,240.655379 L14.6965242,238.936596 L14.6965242,255.355802 Z" id="Shape" fill="url(#linearGradient-2)"></path>
                        <path d="M223.785223,167.351534 L199.077911,167.351534 C198.313314,167.351534 197.693371,167.969524 197.693371,168.732998 C197.693371,169.495185 198.313314,170.111887 199.077911,170.111887 L223.785223,170.111887 C224.54982,170.111887 225.169763,169.495185 225.169763,168.732998 C225.169763,167.969524 224.54982,167.351534 223.785223,167.351534 Z" id="Path" fill="#304FFE"></path>
                        <path d="M220.443989,156.821252 L220.443989,160.31418 L221.284786,160.31418 C221.969307,160.31418 222.525964,159.759277 222.525964,159.078201 L222.525964,158.057231 C222.525964,157.374868 221.969307,156.821252 221.284786,156.821252 L220.443989,156.821252 Z" id="Path" fill="#304FFE"></path>
                        <path d="M202.419145,159.345996 L202.419145,153.634744 L220.443989,153.634744 L220.443989,155.322628 L221.284786,155.322628 C222.797189,155.322628 224.028034,156.550882 224.028034,158.057231 L224.028034,159.076914 C224.028034,160.58455 222.795897,161.810229 221.284786,161.810229 L219.997113,161.810229 C218.988414,164.542257 216.362697,166.494074 213.272023,166.494074 L209.58982,166.494074 C205.629934,166.494074 202.419145,163.293404 202.419145,159.345996 Z" id="Path" fill="#304FFE"></path>
                    </g>
                    <g id="Group" transform="translate(123.000000, 41.000000)">
                        <polygon id="Path" fill="#03A9F4" points="50.2844209 247.65652 70.6082305 247.65652 63.2335097 230.913497"></polygon>
                        <path d="M58.8658436,3.87668845 C52.8,9.08419961 55.7695473,14.0836933 55.7695473,14.0836933 C55.5975309,14.5699678 53.3031158,15.7579956 53.1893004,16.2651105 C47.9874192,21.2826144 53.9148736,27.2412781 53.9148736,27.2412781 L53.9213404,27.2502832 L58.0316285,34.4305509 L56.8326867,20.6572757 L56.8326867,20.6498143 C59.3223986,19.6525656 61.4939447,18.2864944 63.2283363,16.6601764 L63.2296296,16.6631352 L63.2348031,16.6713684 L64.3639036,16.311551 C68.1185185,19.9405996 74.2904174,22.0396846 81.0740741,21.4696628 C81.7724868,21.4112584 82.4527925,21.3178628 83.1240447,21.2063285 L84.0630218,32.2437307 L86.9032334,24.4792904 L86.9071135,24.4680984 L86.3354497,18.1480735 C86.861846,17.4306256 86.9808348,17.1262538 88.1901235,15.4819255 C92.9199295,9.05126673 72.0322163,-7.42713559 58.8658436,3.87668845 Z" id="Path" fill="#212121"></path>
                        <path d="M77.5251029,27.6744227 C76.0235156,27.9018653 75.1168724,29.071883 74.5904762,30.4019338 C74.2774838,31.1911651 75.5630805,31.5084013 75.8696061,30.7311339 C76.6495003,28.760693 78.5998824,28.4232597 79.93204,30.1079822 C80.4493827,30.7640668 81.5875367,30.0922876 81.0611405,29.426426 C80.2010582,28.3364249 78.9943563,27.4514825 77.5251029,27.6744227 Z" id="Path" fill="#D7CCC8"></path>
                        <path d="M66.2560847,31.3842598 C66.6195179,32.1517502 65.3610817,32.5513186 65.0015285,31.7956635 C64.0948854,29.8789957 62.1263962,29.6681481 60.9093474,31.4350742 C60.4333921,32.1233198 59.2538507,31.5271833 59.7362728,30.8269738 C60.5239271,29.6844859 61.6698413,28.7232576 63.1507349,28.8511298 C64.6639624,28.9828613 65.6456202,30.089972 66.2560847,31.3842598 Z" id="Path" fill="#D7CCC8"></path>
                        <path d="M86.90194,24.4777467 L84.0617284,32.2423156 L83.1240447,21.2047847 C82.4514991,21.3155473 81.7724868,21.4090715 81.0727807,21.4682477 C74.2904174,22.0390414 68.1172252,19.9390559 64.3626102,16.3100073 L63.2348031,16.6699533 L63.2283363,16.6617201 C61.4926514,18.2880382 59.3223986,19.6586119 56.8326867,20.6557319 L58.0303351,34.4290072 L53.920047,27.2487395 C52.3512052,27.3010976 50.9039389,28.2924287 50.3555556,29.8536529 C49.8201058,31.392493 51.828689,34.4784065 52.763786,34.8023322 L56.486067,36.0913456 L56.5636684,36.9897956 C56.8831276,40.7474883 58.8296296,44.3189045 61.7060553,46.8728748 C62.1302763,47.2454279 62.571311,47.5985559 63.027866,47.908974 C63.3887125,48.176039 63.7547325,48.4162174 64.1388595,48.6414732 L63.8349206,53.8709825 C63.8349206,53.8709825 63.8349206,53.8722689 63.8375073,53.8735553 L63.5982363,57.9721548 L63.3990594,61.3619255 L63.2348031,64.1779438 C64.9756614,66.3185808 67.4356261,67.8983297 70.3495591,68.5132483 C73.1380364,69.0985787 75.9045267,68.7049279 78.2933568,67.5702874 C80.5580247,66.4935367 82.4825397,64.7529827 83.7552028,62.5364457 L83.4409171,61.1509493 L82.7218107,57.9721548 L81.5060553,52.6089843 L80.957672,50.1817284 L80.9563786,50.1832721 L80.3510876,47.5036166 C80.3510876,47.5028447 80.3510876,47.5020728 80.352381,47.501301 C80.6666667,47.2379666 80.9667255,46.9626683 81.2525573,46.6754062 C81.7453263,46.1869447 82.1889477,45.6647785 82.5937684,45.1238303 C83.7836567,43.532632 84.5984715,41.7582446 85.1080541,40.0218072 C85.4908877,39.691192 85.7017049,39.136093 85.560729,38.0925324 C85.6641975,37.4962672 85.7249853,36.9194273 85.7586126,36.3643282 C85.7987066,35.7150617 85.7948266,35.0985994 85.7469724,34.5374541 L85.6641975,33.5544849 L88.9325103,31.7628592 C90.8221046,30.7259882 91.5101705,28.3634402 90.4677249,26.4827928 C89.7305115,25.1555722 88.3285126,24.4283473 86.90194,24.4777467 Z M60.9080541,31.4343023 C60.4333921,32.1226766 59.2538507,31.5264115 59.7349794,30.8262019 C60.5226337,29.6838427 61.6698413,28.7224857 63.1507349,28.8503579 C64.6639624,28.9820894 65.6443269,30.0893288 66.2560847,31.3834879 C66.6195179,32.151107 65.3597884,32.5505467 65.0015285,31.7948916 C64.0948854,29.8789957 62.1263962,29.6681481 60.9080541,31.4343023 Z M79.93204,30.1079822 C78.5998824,28.4232597 76.6495003,28.760693 75.8696061,30.7311339 C75.5630805,31.5084013 74.2774838,31.1905218 74.5904762,30.4019338 C75.1168724,29.0726548 76.0235156,27.9018653 77.5251029,27.6744227 C78.9943563,27.4514825 80.2010582,28.3371968 81.0611405,29.426426 C81.5875367,30.0922876 80.4506761,30.7640668 79.93204,30.1079822 Z M121.077601,45.6811163 C121.077601,48.5732918 119.583774,51.1152983 117.32428,52.5948335 C116.012816,53.4541757 114.445267,53.957174 112.757437,53.957174 C112.119812,53.957174 111.502881,53.8787011 110.906643,53.7436249 C109.662434,53.4618944 108.52816,52.8984334 107.565902,52.1330013 C106.613992,51.3752879 105.834098,50.4174043 105.292181,49.3199419 C104.748971,48.2217076 104.438566,46.9887831 104.438566,45.6811163 C104.438566,41.1110364 108.163433,37.4057018 112.75873,37.4057018 C113.208818,37.4057018 113.647266,37.4513705 114.076661,37.5194232 C115.315697,37.7161199 116.461611,38.1755078 117.453616,38.8517896 C119.639389,40.3420023 121.077601,42.8436145 121.077601,45.6811163 Z" id="Shape" fill="#FFD8D8"></path>
                        <path d="M140.779306,91.8029671 C139.105703,87.7481067 125.566843,62.2945949 117.322986,52.5948335 C116.012816,53.4528893 114.445267,53.9558875 112.757437,53.9558875 C112.119812,53.9558875 111.501587,53.8787011 110.90535,53.7423384 C111.08642,59.2290072 113.095003,68.5068161 115.377778,77.3240793 C109.896531,69.5938583 104.670076,62.8747795 103.158142,61.2384272 C103.133568,61.2126984 103.106408,61.1908289 103.081834,61.1651001 C101.630688,59.2418716 99.1526161,57.9721548 96.3369782,57.9721548 L82.719224,57.9721548 L83.4396238,61.1509493 L83.7526161,62.5364457 C82.4825397,64.7542691 80.5567313,66.4948231 78.2907701,67.5702874 C75.90194,68.7049279 73.1367431,69.0998651 70.3482657,68.5145347 C67.4330394,67.8996161 64.9730747,66.3185808 63.2335097,64.1779438 L63.397766,61.3619255 L63.596943,57.9721548 L52.745679,57.9721548 C52.600823,57.9721548 52.4585538,57.9850192 52.3162845,57.9914514 C49.3803645,57.8216412 46.3927102,58.9151157 44.2470312,61.2384272 C42.3121693,63.3314659 34.2920635,73.751634 27.4411523,83.9621123 L63.6810112,83.9621123 C67.5067607,83.9621123 70.6082305,87.0469966 70.6082305,90.8522876 L70.6082305,123.542027 C70.6082305,126.8083 68.3202822,129.539413 65.2524397,130.248242 L91.1829512,130.248242 C94.1524985,129.188215 96.24903,126.625625 96.24903,123.626932 L101.40435,86.7871356 C112.01505,95.7767818 125.594004,106.258699 129.405526,105.538292 C131.300294,105.915219 133.321811,105.763419 135.242446,104.978691 C140.4301,102.862496 142.908172,96.9615935 140.779306,91.8029671 Z" id="Path" fill="#03A9F4"></path>
                        <path d="M92.5474427,165.853055 C92.0469136,165.916091 91.501117,165.984272 90.9113463,166.056313 C90.2620811,168.067019 89.3606114,170.553709 88.2780717,173.363295 C87.6456202,175.006079 86.9510876,176.762071 86.2074074,178.600394 C77.7915344,199.431725 63.2348031,230.913497 63.2348031,230.913497 C63.2348031,230.913497 62.5312169,201.653408 62.9968254,178.600394 C63.0330394,176.810955 63.0757202,175.061396 63.1274544,173.363295 C63.1688419,171.981658 63.2154027,170.632182 63.2684303,169.330304 C48.9574368,170.926777 34.6800705,172.321278 31.4350382,171.937919 C24.4858319,171.115883 19.5956496,164.197406 20.5165197,156.485196 C20.9213404,153.103143 22.3802469,150.139185 24.4741917,147.939371 L88.7811875,147.939371 C88.8031746,148.187654 88.840682,148.430792 88.8536155,148.682934 C91.6563198,152.263098 92.9354497,157.334246 91.8968842,162.580351 C91.8360964,162.892956 91.7365079,163.287893 91.6110523,163.744579 L92.5474427,165.853055 Z" id="Path" fill="#1A237E"></path>
                        <path d="M64.1026455,81.2400041 L8.06407995,81.2400041 C4.23833039,81.2400041 1.13686067,84.3248885 1.13686067,88.1301795 L1.13686067,120.819919 C1.13686067,124.62521 4.23833039,127.710094 8.06407995,127.710094 L64.1026455,127.710094 C67.9283951,127.710094 71.0298648,124.62521 71.0298648,120.819919 L71.0298648,88.1301795 C71.0298648,84.3248885 67.9283951,81.2400041 64.1026455,81.2400041 Z" id="Path" fill="#FF9800"></path>
                        <path d="M64.1026455,82.3527752 L8.06407995,82.3527752 C6.46031746,82.3527752 5.00787772,82.9998548 3.9563786,84.0457309 C2.90617284,85.0903206 2.25561434,86.5349933 2.25561434,88.1301795 L2.25561434,120.819919 C2.25561434,122.415105 2.90617284,123.859778 3.95767196,124.904368 C5.00787772,125.950244 6.46031746,126.597323 8.06407995,126.597323 L64.1026455,126.597323 C65.706408,126.597323 67.1588477,125.950244 68.2090535,124.904368 C69.2605526,123.859778 69.9111111,122.415105 69.9111111,120.819919 L69.9111111,88.1301795 L69.9149912,88.1301795 C69.9149912,86.5375661 69.2631393,85.0928935 68.2090535,84.0457309 C67.1588477,82.9998548 65.706408,82.3527752 64.1026455,82.3527752 Z M8.06407995,80.1259467 L64.1026455,80.1259467 C66.3246326,80.1259467 68.3358025,81.0225957 69.7921223,82.4711277 C71.2458554,83.9170868 72.1447384,85.9175018 72.1447384,88.1301795 L72.1499118,88.1301795 L72.1499118,120.819919 C72.1499118,123.030024 71.2484421,125.030439 69.7921223,126.478971 C68.3358025,127.927503 66.3246326,128.822865 64.1026455,128.822865 L8.06407995,128.822865 C5.84209289,128.822865 3.83092299,127.927503 2.37460317,126.478971 C0.918283363,125.030439 0.016813639,123.030024 0.016813639,120.819919 L0.016813639,88.1301795 C0.016813639,85.9200747 0.918283363,83.9196597 2.37460317,82.4711277 C3.83092299,81.0225957 5.84209289,80.1259467 8.06407995,80.1259467 Z" id="Shape" fill="url(#linearGradient-3)"></path>
                        <polygon id="Path" fill="#0BABF4" points="38.9998824 108.938355 36.0833627 107.413923 33.1681364 108.938355 33.7255732 105.709389 31.3651969 103.422098 34.6257496 102.949974 36.0833627 100.011744 37.5409759 102.949974 40.8002352 103.422098 38.4411523 105.709389"></polygon>
                        <polygon id="Path" fill="#03A9F4" points="91.6110523 163.745866 92.5474427 165.853055 95.8933568 173.391597 98.3468548 178.919431 102.746855 188.828883 104.32475 181.235024 105.435744 175.891151 107.99271 163.585061"></polygon>
                    </g>
                    <g id="Group" transform="translate(1.000000, 206.000000)">
                        <path d="M82.7038815,19.6380032 C79.9801086,18.6202899 76.5567111,18.4193237 72.9556148,19.4898551 C72.1537877,19.7281804 71.2921284,20.1004831 70.3960593,20.5668277 C65.7303111,22.9951691 60.0160889,28.2331723 55.6064889,33.5433172 C55.1241086,38.3278583 54.8754074,43.0338164 53.7786568,47.6882448 C57.4148049,43.4190016 61.6289877,39.7410628 65.8340543,36.005153 C67.387121,34.6254428 68.8901136,33.1967794 70.3954173,31.7719807 C73.3356642,28.9880837 76.283358,26.226087 79.6194469,23.8879227 C80.882084,23.005475 82.0721778,25.0782609 80.8208395,25.9542673 C77.075684,28.5771337 73.7313778,31.7565217 70.3954173,34.9178744 C69.0595951,36.1829308 67.7253136,37.4466989 66.3663802,38.6692432 C62.8466864,41.8383253 59.2956642,44.9803543 56.1775901,48.5307568 L65.8728296,48.5307568 C67.4237136,47.3120773 68.9267062,46.2080515 70.3954173,45.1568438 C74.7214321,42.0573269 78.7384,39.4215781 82.7031111,35.7565217 C83.8903802,34.6602254 85.0730272,33.4724638 86.2586272,32.1494364 C90.8207605,27.0608696 88.1872494,21.6863124 82.7038815,19.6380032 Z M41.8397136,48.5307568 L42.572079,48.5307568 C41.7500938,42.4772947 41.8628247,36.3117552 42.290637,30.220934 C42.8088395,22.8161031 43.3681284,15.2476651 46.0075457,8.247343 C46.5443654,6.81996779 48.8493136,7.43832528 48.3064593,8.88244767 C47.2230617,11.752657 46.4980148,14.7259259 45.9701827,17.7429952 C45.5020543,20.9378422 45.1339457,24.1442834 44.8599506,27.3636071 C44.7911309,28.3181965 44.7300148,29.2727858 44.6746765,30.220934 C44.3110617,36.3375201 44.1370864,42.4772947 44.9860346,48.5307568 L51.2922864,48.5307568 C51.3153975,46.2956522 51.4983605,41.8679549 52.3905778,35.0982287 C53.7383407,24.8553945 56.435279,17.8924316 56.1656494,7.64959742 C55.8961481,-2.59194847 43.4912593,-2.18099839 37.8301926,7.64959742 C32.1668148,17.4827697 37.8301926,47.7977456 37.8301926,47.7977456 L41.8397136,48.5307568 Z M33.9102914,48.5307568 C31.8091062,46.3677939 29.6872494,44.2241546 27.550242,42.0985507 C26.1502222,41.0267311 24.7331259,39.9665056 23.3966617,38.8109501 C18.3851457,34.4837359 13.2668049,30.3046699 8.6554963,25.536876 C7.58326914,24.4302738 9.26781235,22.7388084 10.3384988,23.8466989 C15.2059556,28.8798712 20.5750519,33.6412238 26.0957827,37.9452496 C28.833037,40.0772947 31.7008691,42.0972625 34.1089185,44.5513688 C33.2009086,40.789694 32.4818963,36.9906602 32.0951704,33.1426731 C26.8372642,26.8135266 20.6400198,20.5668277 15.6650963,19.089211 C4.81404444,15.8621578 -4.46609383,24.1301127 2.36054321,31.7487923 C8.99754074,39.1536232 15.5478716,42.3845411 23.2570963,48.5281804 L33.9102914,48.5281804 L33.9102914,48.5307568 Z" id="Shape" fill="#FF9800"></path>
                        <polygon id="Path" stroke="url(#linearGradient-4)" stroke-width="2" fill="#1A237E" points="82.7038815 48.5307568 82.7038815 83.2373591 5.91528889 83.2373591 5.91528889 48.5307568"></polygon>
                    </g>
                    <path d="M1.52024565,292 C-0.50674855,292 -0.50674855,289 1.52024565,289 L327.479561,289 C329.506813,289 329.506813,292 327.479561,292 L1.52024565,292 Z" id="Path" fill="#304FFE"></path>
                </g>
            </g>
        </g>
    </g>
</svg>