<?xml version="1.0" encoding="UTF-8"?>
<svg width="404px" height="243px" viewBox="0 0 404 243" version="1.1" xmlns="http://www.w3.org/2000/svg" xmlns:xlink="http://www.w3.org/1999/xlink">
    <!-- Generator: Sketch 64 (93537) - https://sketch.com -->
    <title>Register</title>
    <desc>Created with Sketch.</desc>
    <defs>
        <linearGradient x1="0%" y1="50%" x2="100.000457%" y2="50%" id="linearGradient-1">
            <stop stop-color="#FF9800" offset="0%"></stop>
            <stop stop-color="#FFE0B2" offset="100%"></stop>
        </linearGradient>
        <linearGradient x1="50%" y1="9.98183587%" x2="50%" y2="79.6947138%" id="linearGradient-2">
            <stop stop-color="#03A9F4" offset="0%"></stop>
            <stop stop-color="#B3E5FC" offset="100%"></stop>
        </linearGradient>
        <linearGradient x1="50%" y1="0%" x2="50%" y2="100%" id="linearGradient-3">
            <stop stop-color="#C5CAE9" offset="0%"></stop>
            <stop stop-color="#304FFE" offset="100%"></stop>
        </linearGradient>
        <linearGradient x1="50%" y1="0%" x2="50%" y2="100%" id="linearGradient-4">
            <stop stop-color="#03A9F4" offset="0%"></stop>
            <stop stop-color="#B3E5FC" offset="100%"></stop>
        </linearGradient>
        <linearGradient x1="50%" y1="0%" x2="50%" y2="100%" id="linearGradient-5">
            <stop stop-color="#C5CAE9" offset="0%"></stop>
            <stop stop-color="#304FFE" offset="100%"></stop>
        </linearGradient>
    </defs>
    <g id="Forms" stroke="none" stroke-width="1" fill="none" fill-rule="evenodd">
        <g id="Register" transform="translate(-881.000000, -473.000000)">
            <g id="Right-Side" transform="translate(835.000000, 216.000000)">
                <g id="Register" transform="translate(46.000000, 257.000000)">
                    <g id="Group" transform="translate(185.000000, 0.000000)">
                        <path d="M216.510474,240.517377 L150.135254,240.517377 L118.186024,240.506336 C118.186024,240.506336 130.30852,224.000736 141.403256,203.207845 C144.174565,206.633892 145.975124,210.854935 146.380527,215.470319 C149.002977,209.69399 154.881318,205.660655 161.73041,205.660655 C171.008752,205.660655 178.532459,213.055366 178.532459,222.174142 C178.532459,223.503865 178.358262,224.794153 178.05421,226.030811 C181.178663,223.797255 184.846292,222.268784 188.833809,221.678847 C190.026264,221.500605 191.242472,221.399653 192.487186,221.399653 C192.89734,221.399653 193.301159,221.410695 193.706562,221.429623 C204.977078,221.970661 214.238,229.974236 216.510474,240.517377 Z" id="Path" fill="#FF9800"></path>
                        <path d="M150.135254,242.268258 L218.681596,242.268258 L218.227101,240.15616 C216.998224,234.460277 213.86902,229.456859 209.520441,225.816289 C205.238373,222.232504 199.77652,219.973711 193.788909,219.686629 C193.61788,219.678742 193.404093,219.670855 193.139631,219.664546 C192.7659,219.655082 192.539445,219.648772 192.487186,219.648772 C191.82999,219.648772 191.169627,219.677165 190.502929,219.729218 C189.859985,219.779694 189.218625,219.85383 188.580432,219.948473 C186.467903,220.260792 184.442473,220.819181 182.529478,221.590515 C181.761429,221.901257 181.012384,222.245123 180.283926,222.620537 C180.288677,222.472265 180.29026,222.322414 180.29026,222.174142 C180.29026,217.13129 178.206236,212.563226 174.839492,209.253904 C171.480666,205.954046 166.845454,203.911352 161.73041,203.911352 C158.016856,203.911352 154.558263,204.990273 151.653931,206.846837 C149.99273,207.908407 148.513643,209.223934 147.275264,210.739787 C147.039306,209.921132 146.762176,209.119828 146.443871,208.337452 C145.526964,206.077081 144.28225,203.983911 142.769907,202.11315 L141.099204,200.048373 L139.852907,202.386035 C128.79301,223.115832 116.808287,239.433724 116.773448,239.481045 L114.748017,242.247752 L150.135254,242.260371 L150.135254,242.268258 Z M150.135254,238.774384 L150.135254,238.768074 L214.228499,238.768074 C212.922025,234.720543 210.481689,231.169883 207.270138,228.483622 C203.561336,225.379357 198.824773,223.423419 193.622631,223.172617 C193.389841,223.161575 193.196641,223.153688 193.057284,223.150534 C193.024028,223.150534 192.843497,223.148956 192.487186,223.148956 C191.898085,223.148956 191.329571,223.172617 190.778476,223.215206 C190.205211,223.259372 189.641448,223.325622 189.08877,223.407645 C187.261289,223.677375 185.506655,224.161628 183.847037,224.83201 C182.147829,225.516589 180.549972,226.399916 179.077219,227.452022 L175.221141,230.20611 L176.351835,225.612808 C176.488025,225.065461 176.594126,224.488143 176.670139,223.882433 C176.739818,223.324044 176.776241,222.754614 176.776241,222.174142 C176.776241,218.098218 175.09762,214.410327 172.383321,211.742994 C169.65952,209.066197 165.893707,207.411536 161.73041,207.411536 C158.705724,207.411536 155.896409,208.283821 153.547923,209.785478 C151.117089,211.33761 149.170839,213.561701 147.979968,216.188023 L145.216577,222.273516 L144.630643,215.620169 C144.445361,213.515958 143.949693,211.506388 143.191146,209.637205 C142.750904,208.550397 142.220396,207.507755 141.609125,206.518744 C133.57233,221.235606 125.264738,233.498081 121.573355,238.764919 L150.135254,238.774384 Z" id="Shape" fill="url(#linearGradient-1)"></path>
                        <path d="M99.6657633,217.583995 L99.6657633,217.050844 L0.0665114094,217.050844 L0.0665114094,218.814344 L93.0478781,218.814344 C92.0977151,219.189758 91.1111292,219.647195 90.0833696,220.216625 C75.1673942,228.471003 78.4818794,238.376886 78.4818794,238.376886 L118.257286,240.026815 C118.257286,240.026815 114.942801,235.075451 113.28635,230.122509 C112.036885,226.392029 107.968604,217.986224 99.6657633,217.583995 Z M112.947458,0.11830275 L30.6110844,0.11830275 L30.6110844,1.88211788 L112.947458,1.88211788 L112.947458,0.11830275 Z M107.634464,27.8967348 L25.2996732,27.8967348 L25.2996732,29.66055 L107.634464,29.66055 L107.634464,27.8967348 Z M111.618814,60.9653504 L29.2824398,60.9653504 L29.2824398,62.7288501 L111.618814,62.7288501 L111.618814,60.9653504 Z M118.257286,96.6801619 L35.9224955,96.6801619 L35.9224955,98.4436616 L118.257286,98.4436616 L118.257286,96.6801619 Z M47.8739623,127.102897 L47.8739623,128.866397 L130.210336,128.866397 L130.210336,127.102897 L47.8739623,127.102897 Z M47.8739623,161.935959 L130.210336,161.935959 L130.210336,160.172459 L47.8739623,160.172459 L47.8739623,161.935959 Z M37.2495565,193.242021 L119.58593,193.242021 L119.58593,195.005521 L37.2495565,195.005521 L37.2495565,193.242021 Z" id="Shape" fill="url(#linearGradient-2)"></path>
                    </g>
                    <path d="M162.197739,8.84350403 C165.496107,8.2973074 168.010126,5.44236024 168.010126,2 C168.010126,5.44236024 170.524145,8.2973074 173.822513,8.84350403 C170.58885,9.37821669 168.109551,12.1356287 168.014861,15.4892635 L168.005392,15.4892635 C167.910702,12.1364153 165.431402,9.37916058 162.197739,8.84350403 Z M60.8074944,102.557129 L60.8171212,102.557129 C60.9114956,99.2031793 63.3909527,96.4470258 66.6255625,95.9121558 C63.3273526,95.3662738 60.8127024,92.511012 60.8127024,89.0689664 C60.8127024,92.511012 58.297263,95.3662738 55,95.9121558 C58.2336629,96.4470258 60.7131201,99.2047525 60.8074944,102.557129 Z M168.147427,183 L168.163208,183 C168.324181,177.34139 172.506322,172.688021 177.9652,171.786608 C172.399007,170.864744 168.155317,166.046195 168.155317,160.236563 C168.155317,166.046195 163.911628,170.864744 158.345435,171.786608 C163.804313,172.688021 167.988032,177.34139 168.147427,183 Z M342.187613,20.4690603 C342.187613,23.9114205 339.672016,26.7663677 336.373648,27.3125643 C339.608889,27.847277 342.088189,30.604689 342.182879,33.9583238 L342.192348,33.9583238 C342.287038,30.604689 344.766337,27.8482209 348,27.3125643 C344.701632,26.7663677 342.187613,23.9114205 342.187613,20.4690603 Z" id="Shape" fill="#FF9800"></path>
                    <g id="Group" transform="translate(52.000000, 33.000000)">
                        <path d="M165.197021,145.94597 L164.856324,145.474775 C165.873683,143.225961 167.394201,141.292328 169.413146,139.840921 C171.424205,138.392666 173.73495,137.568469 176.181344,137.313173 L155.901988,111.085416 L111.780153,54.0251132 L120.239217,65.7687438 C119.111447,64.202296 117.455281,63.240995 115.690281,62.9541807 C113.923704,62.6657904 112.048294,63.0518867 110.478879,64.1786574 C108.015136,65.9515485 107.056137,69.0292875 107.854251,71.788694 L112.586153,77.9095019 C113.280166,78.1332802 113.971023,78.3743934 114.636644,78.624962 C115.967886,76.7449095 118.155602,75.5141291 120.635119,75.5141291 C124.695091,75.5141291 127.983764,78.8014632 127.983764,82.8562621 C127.983764,83.2108403 127.95064,83.557539 127.901744,83.8979341 C127.47745,86.8716634 125.275538,89.2654603 122.401696,89.9761927 C122.264471,90.0108625 122.127246,90.0439565 121.986866,90.069171 L122.557849,90.8066937 L126.049993,95.3232322 L154.013959,131.487059 L165.197021,145.94597 Z" id="Path" stroke="url(#linearGradient-3)" stroke-width="3" fill="#01579B"></path>
                        <path d="M86.1537466,36.8209781 L86.0259852,35.9432 L77.8543053,32.6432587 L79.5896516,28.2023635 L81.8401444,29.0801416 C87.1979197,31.1713651 89.5181292,27.0787445 91.60963,21.7231951 L92.5307737,19.3637529 L93.5765241,16.6888148 C93.403021,16.9346557 93.2910327,17.0712865 93.2910327,17.0712865 C93.2910327,17.0712865 93.6380388,12.7566211 90.6947956,9.78919544 C90.1474722,9.23857487 89.4850059,8.70197983 88.7704886,8.19280551 C88.426637,7.9486981 88.070167,7.7143613 87.7105425,7.48522498 C86.5827724,6.76897698 85.4076833,6.12931787 84.3808605,5.61478548 C84.2294396,7.40075656 83.6994665,9.52586202 82.0950362,10.314444 C80.5243601,11.0853758 79.6055823,11.8782127 79.0306562,12.5919393 C78.5191376,13.2271858 78.2801765,13.8008146 78.1090393,14.2386005 C77.8057244,15.0139449 77.2202304,15.9973085 77.0306388,16.3082342 C76.9926258,16.369852 76.9643922,16.4157108 76.9643922,16.4157108 C76.9643922,16.4157108 76.97149,16.362918 76.9811116,16.2888506 C77.0773269,15.5373023 77.5561954,11.3715598 76.3091814,11.561141 C74.0411806,11.9046879 71.535796,18.8202239 71.535796,18.8202239 C71.5578782,19.0800903 71.6143456,19.3338107 71.6558286,19.5911557 L68.4890818,27.6964986 L66.9564186,28.2417611 L67.2562635,30.8498809 L67.4122586,32.2051576 L68.3400269,40.2611747 C68.6892413,40.7812228 69.0507586,41.3186058 69.4230016,41.8701719 L69.7703233,42.0104273 L74.1839263,43.7911979 L77.9292271,45.3040649 L79.5623643,45.9643684 L75.7695868,51.2263091 L79.8480135,45.5688167 L86.1537466,36.8209781 Z M90.6963729,17.2695351 C90.7279189,17.4643168 90.7279189,17.6862039 90.6600949,17.9197528 C90.4992103,18.4870779 90.0843802,18.865925 89.737374,18.7753106 C89.3872132,18.6783926 89.2389469,18.1425855 89.396677,17.5769938 C89.5544071,17.0121901 89.9708145,16.630664 90.3178207,16.7250606 C90.3399029,16.7312066 90.3540986,16.7523237 90.3730262,16.7619367 C90.5433747,16.8394711 90.6537857,17.0244822 90.6963729,17.2695351 Z M83.6805389,15.1964345 C83.518077,15.7647052 83.1032468,16.1443402 82.7590798,16.0518347 C82.4081304,15.9558622 82.2608105,15.4202127 82.4152282,14.8544635 C82.5746934,14.2888718 82.9928358,13.9100247 83.339842,14.0025302 C83.6900027,14.0977148 83.8414236,14.6324187 83.6805389,15.1964345 Z M183.996101,160.625696 C183.996101,160.625696 167.35136,151.323259 164.686635,147.62315 L164.285714,147.064222 C165.488477,144.405584 167.286094,142.119566 169.671107,140.403654 C172.050525,138.693333 174.782381,137.71707 177.674605,137.415249 C177.683929,137.415249 177.691388,137.413386 177.700712,137.413386 L178.105362,137.974178 C180.770087,141.672423 184.130363,159.802207 183.996101,160.625696 Z M127.91594,82.9445126 C127.91594,83.2990909 127.882816,83.6457896 127.83392,83.9861847 C127.409626,86.959914 125.207714,89.3552868 122.333872,90.0644433 C122.196647,90.0991131 122.060999,90.1322071 121.920619,90.1574215 L122.490025,90.8949442 L125.982169,95.4114828 C125.458505,95.6620514 124.901718,95.8716465 124.311807,96.0229332 C120.106723,97.0945474 115.941072,95.001748 115.00731,91.3472285 C114.936331,91.0667177 114.892167,90.784631 114.862198,90.5041202 C107.691789,90.8476671 100.606554,88.7280774 95.9014655,85.7968974 C88.9850015,85.2626662 82.5933055,83.9861847 80.0006962,82.3945224 C79.1382281,81.8634431 78.8604654,80.4435543 79.1418559,78.8077668 C79.6541632,75.8387652 82.0377802,72.1479999 86.3067448,71.690988 C87.0985498,71.6058892 88.4282143,71.7587518 90.02602,72.048718 C90.3730262,72.11333 90.7326508,72.1810938 91.1033165,72.2567372 C93.7247904,72.7878166 96.8557325,73.6025585 99.5623806,74.3511125 C100.112859,74.2880764 100.686996,74.2817728 101.284793,74.3479607 C102.147577,74.4425149 103.362098,74.9672907 104.7517,75.7284519 C104.917317,75.8198543 105.076624,75.9033772 105.245395,76.0010832 C105.655494,76.1255795 105.890511,76.1980711 105.890511,76.1980711 C105.890511,76.1980711 109.196534,76.9245625 112.518329,77.9977525 C113.212342,78.2215308 113.901622,78.4610681 114.56882,78.7132126 C115.898485,76.8331601 118.087778,75.6023797 120.567295,75.6023797 C124.62569,75.6023797 127.91594,78.8897137 127.91594,82.9445126 Z" id="Shape" fill="#FFD8D8"></path>
                        <path d="M112.504628,52.6890282 C111.231238,50.8810047 109.365615,49.771453 107.37372,49.4404065 C105.383604,49.1093599 103.267215,49.5531806 101.499408,50.8555396 C100.997878,51.2247838 100.556815,51.6485962 100.167329,52.1051494 C97.8144029,54.8626581 97.524511,59.0080158 99.706703,62.1093037 L102.628742,66.2601182 L109.246457,75.6658422 C108.704021,74.8946128 108.323427,74.0560828 108.079776,73.1939066 C107.179866,70.0089477 108.26118,66.4565634 111.040941,64.4102591 C112.808747,63.1097191 114.923357,62.6640795 116.915252,62.996945 C118.905369,63.3279915 120.77277,64.4375432 122.04616,66.2437478 L112.504628,52.6890282 Z" id="Path" fill="url(#linearGradient-4)"></path>
                        <path d="M74.1831377,43.7927738 L69.7695346,42.0104273 L69.4220552,41.8701719 C69.4326232,41.8859309 69.4431911,41.9016899 69.4547054,41.9190249 C71.3594538,44.7446193 73.5358134,47.9500064 75.7686404,51.2263091 L79.5615756,45.9643684 L77.9282807,45.3056408 L74.1831377,43.7927738 Z" id="Path" fill="#E65100"></path>
                        <path d="M38.0143687,81.9800599 C38.7709999,81.1668938 39.7938794,80.0527303 40.9490945,78.7573379 C40.0602855,79.5342581 39.0205288,80.5979928 38.0143687,81.9800599 Z" id="Path" fill="#ED1C24"></path>
                        <path d="M37.01783,83.4881992 C34.4780603,87.7273788 32.6501264,94.2815602 35.1025137,103.792136 C36.6624642,109.843604 37.7179938,127.875089 37.4235118,141.55708 C35.8299648,142.652333 34.0831042,143.886265 32.1430242,145.301426 C28.1191721,146.748105 25.657952,151.280403 21.7311039,157.954353 C21.9885194,157.519403 22.2460926,157.098637 22.5061895,156.692054 L34.7928895,164.15238 L44.533826,154.069751 C53.8495222,139.223167 53.5638731,132.328591 53.5629267,132.30968 C54.8998468,128.735532 55.8750919,124.806805 56.820526,120.367486 C58.6555578,131.100962 59.9669256,144.622212 60.5973728,151.863487 C58.8796922,155.138214 57.7613859,159.673663 57.9721133,165.909512 L69.4731598,165.909512 L72.5244482,144.486684 L72.9018962,144.075373 C72.9018962,144.075373 75.5605945,130.987497 75.6266834,115.936046 C75.6646963,107.289065 74.4530138,99.0013903 73.1716147,92.6867462 L37.01783,83.4881992 Z" id="Path" fill="#E65100"></path>
                        <path d="M51.8627542,31.2202181 C56.7490743,28.8752742 66.9554723,28.243337 66.9554723,28.243337 L68.4881354,27.6980745 L71.6548822,19.5919436 C71.6133992,19.3347562 71.5569319,19.0818238 71.5350074,18.8210118 C71.5350074,18.8210118 74.0394456,11.9046879 76.3083928,11.5619289 C77.555249,11.3734509 77.0763805,15.5390358 76.9803229,16.2897961 C76.9707014,16.363706 76.9636035,16.4166563 76.9636035,16.4166563 C76.9636035,16.4166563 76.9908908,16.3717431 77.0296924,16.3091797 C77.219284,15.9980964 77.804778,15.0148904 78.1082507,14.2395461 C78.2793878,13.8016026 78.5181912,13.2281314 79.0297098,12.5928848 C79.6038473,11.8791583 80.5235714,11.0871093 82.0942475,10.3152319 C83.6994665,9.52586202 84.2278623,7.40154452 84.3792832,5.61573102 C85.406106,6.13026341 86.5827724,6.76992252 87.7089652,7.48617052 C88.070167,7.71530684 88.426637,7.94964365 88.7689113,8.19359346 C89.4850059,8.70197983 90.1474722,9.23857487 90.6932183,9.79014098 C93.6380388,12.7566211 93.2894554,17.0720744 93.2894554,17.0720744 C93.2894554,17.0720744 93.4014437,16.9356012 93.5765241,16.6897603 C94.7027169,15.0968374 98.5387124,8.76454319 92.9724179,3.0033563 C91.4124674,1.38837071 86.5181031,0.892276387 82.3843131,0.774241238 C80.5633194,-0.0531079375 78.7123569,-0.423130007 76.583474,0.81474195 L76.5790576,0.81474195 L76.5314231,0.584817674 C76.5314231,0.584817674 76.5173851,0.671965121 76.4820536,0.819154479 C76.1814201,0.832392065 76.0058665,0.842162665 76.0058665,0.842162665 L76.2713262,1.00857804 C75.7705332,1.33289892 75.2563331,1.73727568 74.721155,2.2562206 C74.721155,2.2562206 73.6460668,3.65184046 72.5861206,6.02530826 C71.3913153,6.81042323 69.8471378,7.48790401 67.8382875,7.88440125 C63.628314,8.71695091 52.1256902,5.96810297 47.3310113,13.0580914 C45.5761064,15.652816 43.6202534,20.8033404 51.8064445,31.1508784 C51.8239526,31.1745169 51.8442997,31.1965796 51.8627542,31.2202181 Z" id="Path" fill="#212121"></path>
                        <path d="M97.655424,41.6842153 C94.016591,37.7854308 86.0180987,35.8896193 86.0180987,35.8896193 L86.0259852,35.9432 L77.8550939,32.6432587 L79.590598,28.2023635 L81.8410908,29.0785657 C87.199497,31.1697892 89.5181292,27.0771686 91.6112073,21.7224072 L92.532351,19.3629649 C96.2579355,22.9875423 103.2091,28.3520743 101.967764,35.4136965 C101.655459,37.1865876 100.800562,39.6087508 97.655424,41.6842153 Z" id="Path" fill="#212121"></path>
                        <path d="M69.631994,204.229174 C67.9502759,204.325304 66.3196623,201.840105 64.8586086,198.319537 L69.4748948,165.909512 L57.9572867,165.909512 C57.9713247,166.309791 57.9889904,166.716374 58.0135963,167.129261 C58.1609162,169.584518 58.5047678,172.723717 58.9519326,176.145003 L60.4396427,200.951295 L59.7014659,208.884392 L75.7016052,208.781958 C75.7016052,208.781958 79.3234032,208.844994 79.2475351,207.062648 C79.1267138,204.319 72.3162445,204.077887 69.631994,204.229174 Z" id="Path" fill="#FF9800"></path>
                        <path d="M102.950423,65.8711775 L100.360495,62.2749664 C98.4251467,59.5880515 98.6822468,55.9965681 100.767438,53.6074988 C100.097086,49.730777 99.5781536,46.5773947 99.3873002,45.0487686 C99.2295702,43.7959256 98.5812995,42.6770343 97.655424,41.6842153 C94.016591,37.7870067 86.0180987,35.8896193 86.0180987,35.8896193 L86.0259852,35.9432 L77.8550939,32.6432587 L86.0259852,35.9432 L86.1553239,36.8209781 L79.8481712,45.5703926 L75.7695868,51.227885 C73.5367598,47.9515823 71.3604002,44.7446193 69.4556517,41.9206008 C69.4449261,41.9032658 69.4343582,41.8875068 69.4230016,41.8717478 C69.0507586,41.3201817 68.6892413,40.7827987 68.3400269,40.2643265 L67.4122586,32.2067335 L67.2562635,30.8514568 L66.9564186,28.243337 C66.9564186,28.243337 56.7490743,28.8752742 51.8637005,31.221794 C50.42883,31.9104637 49.4482221,32.7441165 49.3258236,33.7574222 C48.1291255,43.6367594 52.5002991,61.9865761 51.7050241,64.1833852 C50.4121106,67.7449264 44.9208956,74.3038354 40.9500409,78.7573379 C39.7948258,80.0543062 38.7727349,81.1668938 38.0151573,81.9800599 C37.1880208,82.8688693 36.6766599,83.4015246 36.6766599,83.4015246 L37.01783,83.4897751 L73.1725611,92.689898 L74.1232002,92.9310112 C74.1232002,92.9310112 71.2941535,81.8240455 73.7713044,76.7559408 C74.2482802,75.7804567 74.84797,74.8522498 75.5323608,73.9476813 L78.6126715,78.9795402 L79.1435909,78.8077668 C79.6558982,75.8387652 82.0395152,72.1479999 86.3083221,71.690988 C87.1001271,71.6058892 88.4297916,71.7587518 90.0275973,72.048718 C88.783107,70.2380052 86.989716,67.6267336 84.9061017,64.5883923 C86.4723613,63.0881324 88.0244253,61.4854389 89.4723874,59.7204273 L91.1064711,72.2567372 C93.727945,72.7893925 96.8573098,73.6025585 99.5655352,74.3511125 C100.116013,74.2880764 100.690151,74.2817728 101.287948,74.3479607 C102.149154,74.4425149 103.365253,74.9672907 104.754855,75.7284519 C104.216995,72.8193346 103.587652,69.3885934 102.950423,65.8711775 Z" id="Path" fill="#FF9800"></path>
                        <path d="M89.737374,18.775153 C90.0828029,18.8668706 90.4992103,18.4870779 90.6600949,17.9197528 C90.7263416,17.685416 90.7279189,17.4641592 90.6947956,17.2695351 C90.6537857,17.0244822 90.5433747,16.8394711 90.3730262,16.7619367 C90.3525213,16.7523237 90.3383256,16.7312066 90.3178207,16.724903 C89.9692372,16.630664 89.5544071,17.0121901 89.396677,17.5769938 C89.2373696,18.1425855 89.3872132,18.6783926 89.737374,18.775153 Z" id="Path" fill="#D7CCC8"></path>
                        <path d="M82.7590798,16.0518347 C83.1048241,16.1443402 83.5196543,15.7647052 83.6805389,15.1964345 C83.8414236,14.6316308 83.6900027,14.0977148 83.3382647,14.0025302 C82.9912585,13.9100247 82.5739047,14.2888718 82.4142819,14.8544635 C82.2598641,15.4200551 82.4081304,15.9558622 82.7590798,16.0518347 Z" id="Path" fill="#D7CCC8"></path>
                        <path d="M14.1225204,185.549993 C11.389689,190.406927 8.61805607,195.282772 9.44266892,195.590073 C11.9611451,196.529311 19.6508019,203.575174 18.6569447,206.136017 C18.0088318,207.798595 14.717005,206.285728 14.717005,206.285728 L0.0290223346,199.947445 L3.89940302,192.981953 L9.76980111,182.981271 C13.4778775,174.452483 18.3378567,163.731614 21.7320503,157.955929 C21.9894658,157.520979 22.247039,157.100213 22.5071359,156.69363 L34.7938359,164.153956 L14.1225204,185.549993 Z" id="Path" fill="#FF9800"></path>
                    </g>
                    <g id="Group" transform="translate(0.000000, 123.000000)">
                        <path d="M18.4429112,60.5872202 C19.9751299,63.6182336 21.43699,66.685443 22.7966702,69.7982906 C24.3790994,66.5988875 26.1804397,60.6501696 21.8696955,54.8666938 C15.548134,46.3842627 15.4961646,48.4206756 12.6631111,41.864496 C9.83085714,35.3067426 6.87611523,29.1361281 2.51787889,30.9254647 C-1.83859847,32.7132275 0.272159906,40.5488536 4.55971781,45.8366029 C8.8466361,51.1243522 7.50374603,56.5191155 9.88810347,62.8030389 C12.6442422,70.0721205 17.8197578,71.713526 20.160301,72.0817799 C20.9264103,74.15911 21.5388501,76.2836522 22.0599835,78.4365215 L23.648649,78.4018993 C23.1104056,76.1451635 22.4703022,73.9246235 21.6746102,71.7481481 C21.8498671,71.4884819 22.0831699,71.1186542 22.3470147,70.6496812 C20.4292628,66.2117487 18.3095497,61.8650929 16.0486396,57.5892552 C15.9315885,57.7214489 15.7312263,57.7906933 15.5426972,57.6632207 C13.496221,56.2987926 11.6090112,54.7030254 9.4258154,53.5431827 C9.00206467,53.3197124 9.2855779,52.6304165 9.71284656,52.8586081 C11.8298413,53.9838285 13.6804327,55.4898928 15.6482352,56.8338624 C12.7945538,51.4973274 9.7110876,46.2741012 6.46035979,41.1594628 C6.20467019,40.7565866 6.79664198,40.2986298 7.0531311,40.7015059 C10.9044656,46.7588116 14.5271346,52.9640483 17.8071252,59.3345272 C17.9064268,58.1463573 17.9788642,56.9581875 17.7669888,55.7715914 C17.6828783,55.2994709 18.4302787,55.2066205 18.5161481,55.6771673 C18.8014203,57.2776557 18.5885855,58.8860128 18.468816,60.4912224 C18.4660976,60.5305657 18.451866,60.5573192 18.4429112,60.5872202 Z M62.8929242,26.7047076 C58.4532957,23.4958622 51.7724256,30.2865283 48.9812675,37.6830823 C46.1901093,45.0812101 39.9088442,47.0058879 34.9595955,53.1324379 C27.4160329,62.4725546 32.337458,70.0673993 32.337458,70.0673993 C32.337458,70.0673993 32.5646843,70.0894316 32.9642892,70.1067426 C32.5020012,71.3090761 31.7555603,72.4878036 31.2468995,73.4949939 C30.6344597,74.711491 30.0247384,75.9358567 29.5554145,77.2121557 C28.4960376,68.6825125 30.6003998,60.3023742 31.2414627,51.8089269 C33.6910617,50.0243115 37.617552,45.847619 37.1186455,37.5776421 C36.6483621,29.765622 32.6316849,24.6352462 34.6700059,17.0042057 C36.7083269,9.37159137 35.2072898,0.033048433 29.7010888,0.147931081 C24.1948877,0.262813729 24.0009218,8.21804368 24.1216508,16.527364 C24.2414203,24.8351106 23.2114662,22.6901099 20.5320823,34.6725275 C18.7048372,42.8417854 23.4788289,48.3498575 26.7007737,51.0315018 C26.6569594,47.0782797 26.7490653,43.1282051 26.9305585,39.181278 C26.9054533,39.1545245 26.87699,39.1309185 26.8573216,39.0947226 C25.9570511,37.436006 24.9609971,35.8197802 24.4988689,33.9800841 C24.3639083,33.440293 25.2051734,33.1916429 25.341893,33.7330077 C25.6824927,35.0990096 26.3297919,36.3296703 27.0065138,37.5540361 C27.4508924,29.2321259 28.3431675,20.932248 29.5464597,12.6843034 C29.6278519,12.1334961 30.4779118,12.3490978 30.3984386,12.8951838 C29.3819165,19.8621083 28.5969383,26.8636549 28.1106643,33.8825125 C29.5661282,31.5329263 30.8167525,29.0668837 32.5360611,26.8856872 C32.8828971,26.4434676 33.5150053,27.0493556 33.1707278,27.4852802 C31.3988101,29.7357211 30.1497848,32.3134988 28.622843,34.7181658 C28.4806867,34.9432099 28.2349112,34.9620947 28.0462222,34.877113 C27.6814768,40.4859042 27.5044609,46.1072853 27.5868125,51.7318139 C28.6380341,52.5186813 29.3694439,52.9168363 29.3694439,52.9168363 C29.3694439,52.9168363 29.4561129,52.8806403 29.6080235,52.8066748 C28.8588642,61.3205807 26.7955979,69.7085877 28.1293733,78.2933116 C28.1303327,78.2996066 28.1348101,78.302754 28.1356096,78.3106227 L30.8399389,78.2539683 C31.4827607,76.2805047 32.5189512,74.4329399 33.4425679,72.5759327 C33.8528865,71.7512956 34.3257284,70.8416768 34.6297096,69.9021571 C37.9277695,65.4091439 41.0200306,60.7807896 43.956863,56.0564374 C43.751224,56.0186678 43.560776,55.862868 43.5759671,55.601628 C43.7297966,52.7689052 44.2162305,49.9519197 44.079351,47.1081807 C44.0544056,46.5557998 44.9223751,46.4220323 44.9482798,46.9775607 C45.0797225,49.736318 44.6639671,52.4620269 44.4824738,55.2081943 C48.1855755,49.1886583 51.6318683,43.0164699 54.870923,36.7404151 C55.1238942,36.2494098 55.9454909,36.5531407 55.6915603,37.0504409 C51.8571758,44.4800434 47.739438,51.7758784 43.2425632,58.837227 C44.509338,58.2187492 45.7574039,57.5750916 46.8374086,56.6528829 C47.2646772,56.2862027 47.8083574,56.9644824 47.3826878,57.3311627 C45.9281834,58.5775607 44.1696978,59.3329535 42.4665397,60.1811966 C42.4264033,60.2000814 42.3923433,60.2016551 42.3539659,60.2095238 C40.1993933,63.5411206 37.964388,66.8255054 35.6211264,70.0359246 C39.8229747,69.6660969 46.9482234,67.8594492 50.2256555,60.1402795 C55.0317884,48.821978 52.9335026,49.9959843 57.8872287,43.2651201 C62.843833,36.5326821 67.3298342,29.9135531 62.8929242,26.7047076 Z" id="Shape" fill="#FFE0B2"></path>
                        <path d="M43.4240564,77.9895808 L30.8445761,78.2523945 L28.1402469,78.309049 L23.6496085,78.4034731 L22.060943,78.4365215 L13.8681623,78.6080586 C12.3520941,82.8020621 11.5312969,87.7152625 11.6440306,92.9510786 C11.8432734,102.190476 14.9043527,110.304653 19.4325691,115.181658 L39.4439976,114.763044 C43.7566608,109.701913 46.4656273,101.466558 46.2670241,92.2271605 C46.1534909,86.9913445 45.1200188,82.1174875 43.4240564,77.9895808 Z" id="Path" stroke="url(#linearGradient-5)" stroke-width="5" fill="#304FFE"></path>
                    </g>
                </g>
            </g>
        </g>
    </g>
</svg>