<?xml version="1.0" encoding="UTF-8"?>
<svg width="432px" height="410px" viewBox="0 0 432 410" version="1.1" xmlns="http://www.w3.org/2000/svg" xmlns:xlink="http://www.w3.org/1999/xlink">
    <!-- Generator: Sketch 64 (93537) - https://sketch.com -->
    <title>Group</title>
    <desc>Created with Sketch.</desc>
    <g id="Landing" stroke="none" stroke-width="1" fill="none" fill-rule="evenodd" opacity="0.296758743">
        <g transform="translate(-1008.000000, -2876.000000)" id="Ask-Doctor">
            <g transform="translate(112.000000, 2637.000000)">
                <g id="Background" transform="translate(896.000000, 239.000000)">
                    <g id="Group">
                        <path d="M106.978193,244.722764 C41.6007721,200.304673 17.8278403,161.807265 0,147 C34.6673339,266.439322 168.391005,453.983244 226.834988,400.682276 C268.439477,362.184868 197.120681,305.921705 106.978193,244.722764 L106.978193,244.722764 Z" id="Path" fill="#B3E5FC"></path>
                        <path d="M236.055344,227.625831 C236.055344,200.915 227.171539,81.2171852 194.591414,9 C212.362728,134.635134 163,125.732761 163,273.132186 C163,317.647762 190.640127,391.842863 215.321527,395.798625 C239.014143,398.767391 244.939149,368.100728 248.88666,357.216726 C261.721751,329.518829 279.489361,133.644355 270.605556,114.84876 C250.864155,147.497052 239.017847,221.692153 236.055344,227.625831 L236.055344,227.625831 Z" id="Path" fill="#00BCD4"></path>
                        <path d="M229,405.529311 C229,413.453724 337.64093,420.386146 386.037382,337.193073 C423.567425,271.825229 448.260272,265.884725 469,254 C325.789127,254.991919 229,384.731972 229,405.529311 L229,405.529311 Z" id="Path" fill="#01579B"></path>
                        <path d="M289.288841,216.60069 C280.389546,225.508513 279.39911,238.378305 273.467483,248.277514 C266.54535,258.176722 256.655619,262.134976 253.68795,276.983824 C252.697443,283.91252 253.68795,289.853545 251.710718,295.790856 C249.733557,303.711008 245.77538,310.639704 243.798148,318.556141 C242.807712,324.497166 243.798148,330.434477 242.807712,335.384045 C240.830479,351.220635 213.138448,372.998179 230.940748,389.826154 C227.97308,402.695875 229.950312,407.645515 236.876086,408.633185 C251.710718,411.603698 252.697443,395.763393 256.655619,388.834698 C261.60052,379.926875 272.476976,374.977306 275.444645,362.107514 C276.435152,355.178818 274.454209,347.258666 275.444645,341.321356 C276.435152,336.371716 281.379982,335.380331 284.343939,331.422147 C292.256509,322.514324 294.233742,310.635989 294.233742,299.745324 C295.224178,292.816628 291.266073,281.925964 292.256509,275.988653 C295.224178,265.101703 307.091141,263.118861 306.100705,246.290957 C306.100705,241.341317 302.14624,234.412622 303.133037,229.462982 C304.123473,224.513342 308.077866,221.542829 310.055099,216.59319 C316.977161,204.714854 313.022767,189.866006 315,177 C306.100705,190.864964 299.178572,205.710025 289.288841,216.60069 L289.288841,216.60069 Z" id="Path" fill="#C8E6C9"></path>
                        <path d="M244.198767,324.75446 C230.331218,327.71879 216.463742,345.497358 211.5105,362.290312 C209.529932,353.401027 207.549436,344.507965 205.565151,335.618681 C212.498889,323.765066 230.331218,321.790129 236.27285,307.961506 C243.206588,293.143561 229.339112,282.27934 216.459953,294.132955 C210.514604,299.072222 205.565151,312.900845 202.592476,324.75446 C201.600298,317.840184 199.619802,308.9509 198.631413,303.022239 C197.639234,297.093507 196.650845,292.157946 195.658667,286.229286 C204.572973,276.350608 228.346933,270.425726 226.366437,251.657764 C224.38587,238.814827 209.526215,232.889874 202.592476,246.718497 C198.631413,253.632772 195.658667,263.511379 193.67817,273.390056 C190.705496,263.511379 188.724928,252.647157 184.763865,242.76848 C194.670277,229.925543 222.405373,224.986205 223.39748,206.218314 C223.39748,190.414754 204.576761,192.389691 195.662455,202.268369 C187.736539,212.146975 185.755971,225.975598 183.775475,238.818534 C180.802801,230.914865 178.822233,224.00059 175.849559,217.086314 C182.783297,205.232699 199.623519,194.368407 199.623519,177.575453 C199.623519,161.771893 182.783297,148.928957 172.876884,167.696847 C167.923642,177.575453 167.923642,190.414754 169.90421,202.268369 C165.943146,194.3647 161.978293,186.464738 158.017229,178.56114 C159.009336,173.621801 159.997725,166.707525 162.970471,159.793178 C165.943146,151.889509 170.896316,143.989618 167.923642,136.085949 C162.970471,122.257397 154.056165,132.136004 151.083491,143.000296 C149.102923,150.903894 150.091313,159.793178 153.063987,167.696847 C148.110745,158.807563 140.1849,146.953949 134.243268,139.050279 C135.235375,123.246719 162.970471,84.7215455 137.215943,90.6464993 C124.336784,93.6108297 126.321069,119.293067 130.282205,133.121619 C127.309459,129.171673 119.387331,119.293067 118.395224,118.303674 C119.387331,105.460737 130.282205,62.9855466 111.461414,65.949877 C96.6017596,67.9248853 103.535498,91.6321144 107.500351,103.485729 C108.492529,104.475051 108.492529,107.435674 109.480918,109.41439 C104.527676,103.485729 98.5860446,96.5714531 92.6406957,90.6464993 C94.6212634,85.7071606 95.6133702,78.7928848 96.6017596,71.878609 C96.6017596,66.9392703 95.6096528,47.1819867 85.7069574,57.0605928 C81.7458221,61.0106095 83.7263898,74.8429394 86.6990642,84.7178386 C82.7380004,80.7678219 77.7847583,76.8141695 73.819977,72.8642241 C46.0848809,41.2533259 51.038123,-10.1110776 23.299381,1.7425369 C-8.40049636,16.5604818 8.43965466,41.2533259 19.3382457,49.156995 C28.2525516,56.0712708 46.0848809,65.949877 64.9056711,70.8892157 C69.8588417,75.8285544 88.6796319,95.5858381 90.6601281,98.5463902 C72.8277988,85.7034537 37.1668576,61.0106095 31.2252261,81.7535082 C26.2720554,100.521399 76.7926515,99.5357835 94.6212634,103.485729 C101.555002,111.389398 118.395224,133.121619 119.387331,135.096627 C111.461414,130.157288 103.539287,121.268004 93.6328025,118.303674 C85.7069574,116.328665 66.8861673,117.314352 69.8588417,128.18228 C73.819977,143.000296 96.6055484,139.046573 108.492529,139.046573 C116.418374,139.046573 121.371616,142.010903 123.352184,140.035895 C131.278029,150.900187 138.211839,162.753802 145.145577,174.607416 C132.26649,161.76448 99.5782229,136.082242 92.6444131,156.825141 C83.7301071,183.4967 129.297533,171.643086 147.126144,177.56804 C154.059883,189.421654 160.005232,202.264591 164.958474,215.10382 C164.958474,215.10382 164.958474,215.10382 164.958474,215.10382 C156.044168,204.239599 149.11043,193.3716 135.239164,187.446646 C123.352184,181.517985 104.531393,182.507307 109.484636,202.264591 C113.445699,217.082536 139.203945,212.143268 153.071493,216.093214 C159.016842,218.068151 163.966296,221.032552 166.93897,222.021874 C171.892212,233.875489 175.853276,245.729103 178.82595,258.572111 C154.059883,246.718497 124.34429,199.304038 112.45731,227.950535 C102.550897,252.647157 152.079315,243.754095 179.818129,263.511379 C182.790803,274.375671 185.763477,286.229286 187.744045,298.0829 C182.790803,289.193616 175.857065,282.27934 168.923255,275.364993 C163.970084,269.436332 141.18823,255.607709 137.223449,272.400663 C133.262314,288.204223 160.99741,293.143561 169.911716,295.11857 C177.837561,297.093507 183.779192,301.047231 188.732435,306.972184 C188.732435,308.947121 193.685677,335.618681 196.658351,346.482973 C186.751867,328.700698 124.34429,271.411341 117.410552,313.88646 C112.45731,341.543635 166.93897,332.65435 180.806518,338.583082 C190.712931,342.533028 194.674066,346.48668 197.646741,351.426019 C198.638847,357.35468 200.619415,364.269027 202.599983,370.193909 C187.740256,355.375964 153.071493,328.704405 147.126144,357.350973 C139.200228,391.922423 179.814411,372.168918 188.732435,374.143926 C196.658351,376.118863 205.572657,376.118863 207.553153,385.997541 C210.525828,392.911816 212.506395,400.815485 216.467459,407.729761 C218.448027,412.6691 226.373943,408.719083 224.393376,403.779816 C220.432312,393.901138 217.459637,384.022532 214.486963,373.15824 C224.393376,362.294018 251.140011,355.375964 258.073749,346.48668 C266.980621,332.658129 260.046811,320.804514 244.198767,324.75446 L244.198767,324.75446 Z" id="Path" fill="#F8BBD0"></path>
                    </g>
                </g>
            </g>
        </g>
    </g>
</svg>