<?xml version="1.0" encoding="UTF-8"?>
<svg width="348px" height="270px" viewBox="0 0 348 270" version="1.1" xmlns="http://www.w3.org/2000/svg" xmlns:xlink="http://www.w3.org/1999/xlink">
    <!-- Generator: Sketch 64 (93537) - https://sketch.com -->
    <title>illustration</title>
    <desc>Created with Sketch.</desc>
    <g id="Utilities" stroke="none" stroke-width="1" fill="none" fill-rule="evenodd">
        <g id="Error" transform="translate(-189.000000, -233.000000)">
            <g id="Container" transform="translate(189.000000, 210.000000)">
                <g id="illustration" transform="translate(0.000000, 23.000000)">
                    <path d="M180,165.739685 L179.56517,167.712572 L179.56517,168.808557 L177.232966,175.826841 L173.631106,186.666631 C173.849339,181.292482 174.635505,177.408663 175.276419,175.06659 C175.757246,173.309443 176.153948,172.402706 176.153948,172.402706 L175.390446,167.267826 L173.08783,169.392509 C173.08783,169.392509 172.557355,170.273728 171.769531,171.810142 C169.913896,175.432475 166.624277,182.721852 165.440737,190.875561 C164.651277,196.301423 166.352135,202.013273 167.510347,205.090439 L166.053701,209.473002 L165.729309,210.44967 L165.652739,210.679354 C165.652739,210.679354 160.217905,212.65224 156.522057,211.775317 C155.812462,211.606953 155.135077,211.397519 154.503711,211.170163 C152.698353,210.520257 151.269637,209.718915 150.538365,209.270847 C150.193263,209.059403 150,208.925507 150,208.925507 L150.040751,208.841336 L151.967061,204.834243 L170.653057,165.960418 L170.089406,164.291759 L167.592856,156.902617 L167.87977,156.710724 L168.632739,156.206647 L170.435474,155 L171.505951,157.159786 L174.470528,163.13911 L175.65241,165.522295 L179.130675,163.549387 L179.2421,163.830107 L180,165.739685 L180,165.739685 Z" id="color_6" fill="#C8E6C9"></path>
                    <path d="M216.934,142.072416 C216.635275,143.504647 215.701639,144.613884 214.51773,145.203179 C213.401002,145.758809 212.062695,145.853123 210.814313,145.306495 C210.511898,145.174174 210.221857,145.007528 209.946835,144.818878 C207.88143,143.39999 206.700187,140.54353 208.227944,138.554032 C212.0714,133.547066 217.671146,138.54469 216.934,142.072416 Z M170.060492,114.226223 C170.67232,111.450097 168.935721,108.715318 166.19231,108.117362 C163.447234,107.516746 160.727546,109.280609 160.117382,112.055054 C159.983722,112.664331 159.969684,113.271289 160.047555,113.854924 C160.309179,115.803777 161.668201,117.481306 163.610634,118.064919 C163.734267,118.101926 163.858241,118.139911 163.987229,118.168256 C166.730961,118.765212 169.453336,117.002349 170.060492,114.226223 L170.060492,114.226223 Z M196.56462,154.642456 L196.56462,154.642456 C196.191375,155.093088 195.772346,155.515396 195.301176,155.899017 L191.009634,159.388758 C190.290878,159.973372 189.585477,160.521 188.890424,161.003638 C187.649039,161.866896 186.445758,162.51418 185.279556,162.778822 C183.854375,163.100815 182.484024,162.834492 181.164108,161.683587 L179.817459,162.778822 L179.178216,163.298126 L179.064952,163.015821 L175.528584,165 L174.326966,162.603174 L171.312907,156.589628 L170.224554,154.41748 L168.391715,155.631055 L167.626173,156.137995 L167.334447,156.330987 L167.610471,156.107011 L168.244359,155.592048 L176.141436,149.166536 L176.446517,148.918896 C176.525049,148.702901 176.591527,148.483267 176.686103,148.273272 C176.686103,148.273272 178.186466,146.990047 179.777692,146.20876 C179.819144,146.188438 179.860896,146.171775 179.901346,146.152431 C180.817253,145.719462 181.749886,145.462821 182.435232,145.727463 C183.456403,146.123448 182.279513,148.243607 181.999499,148.718904 C181.963401,148.779893 181.940338,148.817559 181.940338,148.817559 C181.940338,148.817559 181.981108,148.795577 182.035916,148.764571 C182.316272,148.609246 183.196764,148.107626 183.76716,147.643651 C184.451525,147.086361 185.627413,146.190438 188.559954,146.379088 C188.946235,146.403752 189.315128,146.335761 189.668681,146.205441 L196.56462,154.642456 L196.56462,154.642456 Z M186.595461,151.097386 C186.823675,151.323042 187.310548,151.214726 187.680123,150.846086 C188.049699,150.481107 188.164649,150.003151 187.930397,149.773834 C187.702183,149.548177 187.214308,149.657494 186.847399,150.024133 C186.479509,150.389453 186.362874,150.870069 186.595461,151.097386 Z M192.171484,154.961086 C191.944272,154.734451 191.456397,154.845428 191.086822,155.211407 C190.71891,155.577386 190.602296,156.056343 190.836548,156.28566 C191.064762,156.511316 191.550973,156.398658 191.920548,156.032679 C192.289122,155.66904 192.402386,155.190084 192.171484,154.961086 Z" id="color_5" fill="#FFD8D8"></path>
                    <path d="M83.4509762,258.364211 C83.2105945,258.353564 82.9695308,258.346572 82.7258025,258.346572 C81.987285,258.346572 81.2647971,258.403825 80.5569961,258.502351 C78.1868804,258.831888 76.0067125,259.68338 74.1527448,260.926976 C74.3320345,260.236597 74.4362063,259.51961 74.4362063,258.777971 C74.4362063,253.695413 69.9637051,249.575518 64.450552,249.575518 C60.3826944,249.575518 56.8881119,251.823027 55.3326122,255.042869 C55.0127641,251.646953 53.2462777,248.638167 50.6127164,246.522783 C50.5940222,244.160746 51.0093664,241.794394 51.3045091,239.459326 C51.4397171,238.386491 51.6109919,237.197492 51.5872884,236.039458 C53.490006,229.805836 55.1162751,223.497322 56.5358847,217.141883 C56.2964835,217.178841 56.0260675,217.077637 55.9449385,216.780064 C55.0307976,213.571549 54.4882602,210.257518 53.2499441,207.14687 C53.012227,206.542712 53.9133437,206.066385 54.1527235,206.675538 C55.3513064,209.691975 55.9379255,212.882849 56.7869457,216.001488 C58.5511086,207.919134 59.9777311,199.762865 61.1365808,191.570659 C61.2257248,190.927885 62.245359,190.956852 62.155874,191.607617 C60.7840126,201.307032 59.051909,210.963857 56.811651,220.502181 C57.9671754,219.338812 59.0906404,218.154148 59.9219682,216.723809 C60.2504919,216.154929 61.107527,216.70617 60.7823499,217.274369 C59.6605476,219.207664 58.0192506,220.704906 56.4734498,222.287347 C56.4363811,222.324305 56.3999945,222.338289 56.3602613,222.361263 C55.266511,226.873942 54.0679281,231.362988 52.7224346,235.812442 C57.1959376,233.827206 64.3270252,229.145423 64.9747149,219.33182 C65.9279069,204.94363 64.0719355,207.034361 66.9402084,197.69277 C69.8031096,188.351157 72.2006165,179.308819 66.1028694,177.402153 C60.005101,175.498144 55.2631644,185.554087 55.0274509,194.828776 C54.790757,204.102806 48.62855,208.595168 45.5382699,217.26504 C40.8237245,230.479235 49.1273467,237.080988 49.1273467,237.080988 C49.1273467,237.080988 49.3881065,237.021078 49.8331441,236.890589 C49.7837333,238.399158 49.4134727,239.991588 49.2421979,241.300428 C49.0682585,242.629564 48.9039966,243.962696 48.8375544,245.300503 C48.6722906,245.205293 48.4983513,245.121751 48.3287391,245.033533 C44.3216536,236.214874 43.3968334,226.506129 40.949255,217.186151 C42.9571462,214.283223 45.6708134,208.165788 41.9658837,199.154393 C38.4626042,190.645953 32.0944198,186.443174 31.4149904,177.193775 C30.7382469,167.943717 25.5222189,158.117469 19.5232933,160.310402 C13.5216818,162.502337 16.3475357,171.422177 19.653151,180.617978 C22.9594484,189.81278 21.0100059,187.812583 22.6459525,202.143541 C23.7624045,211.915193 31.1068236,216.249799 35.6684687,218.02366 C34.1103045,213.642107 32.7020565,209.214649 31.3939514,204.757545 C31.3552201,204.73625 31.314485,204.723265 31.2801022,204.688985 C29.6574994,203.183073 27.9470957,201.759747 26.7368316,199.886362 C26.3815988,199.334144 27.20958,198.74229 27.5688415,199.295529 C28.4636061,200.685234 29.6448164,201.812665 30.8557626,202.920459 C28.1641149,193.498641 25.9726068,183.935006 24.1413408,174.311483 C24.0194766,173.669368 25.0371072,173.589162 25.1563068,174.225921 C26.7031095,182.353882 28.5166832,190.435577 30.6647917,198.424399 C31.3645779,195.266168 31.7955894,192.054976 32.8509494,188.983284 C33.0619575,188.361486 33.9850938,188.797539 33.7767715,189.410348 C32.6893734,192.57725 32.3040849,195.915254 31.5471929,199.161703 C31.4764234,199.463953 31.2150028,199.579119 30.9746212,199.550832 C32.7184059,205.927906 34.6715361,212.24541 36.9107922,218.469361 C38.3637828,218.949365 39.3206411,219.119446 39.3206411,219.119446 C39.3206411,219.119446 39.402772,219.045552 39.5390032,218.907094 C41.6386816,227.324978 42.6306049,236.0025 45.9142007,244.040925 C44.5316598,243.613862 43.0572892,243.370864 41.5178406,243.370864 C40.5189043,243.370864 39.5470181,243.473044 38.6081718,243.65813 C38.4252158,243.423782 38.2522783,243.182463 38.0656345,242.950771 C38.1574429,242.595943 38.2722941,242.098301 38.3838199,241.478182 C34.5817314,237.260399 30.5953438,233.220731 26.4797594,229.313868 C26.4012949,229.504267 26.2059754,229.65637 25.9505659,229.586811 C23.1821377,228.837202 20.5011906,227.769022 17.6619716,227.29701 C17.1117604,227.205476 17.1601693,226.33269 17.7157308,226.4279 C20.4701331,226.885928 23.0749603,227.866208 25.7499175,228.623489 C20.5779712,223.756642 15.1983635,219.104803 9.67450971,214.634395 C9.23981051,214.282883 9.71524477,213.551912 10.1516066,213.904423 C16.6937517,219.196677 23.0399166,224.737263 29.075911,230.594061 C28.7313576,229.235958 28.3577716,227.888523 27.6703275,226.646585 C27.3982275,226.154277 28.1844931,225.771142 28.4565931,226.260793 C29.381392,227.933132 29.7630141,229.802181 30.2427755,231.630617 C30.2551389,231.675566 30.2491277,231.711503 30.2497885,231.747781 C33.0906703,234.544214 35.8661116,237.408208 38.5507463,240.360399 C39.06391,236.207882 38.7697692,228.916409 31.8266469,224.101481 C21.6466751,217.038023 22.3675003,219.321831 16.75284,213.092545 C11.1382009,206.861602 5.53688446,201.107643 1.43532604,204.730916 C-2.662566,208.35319 2.64825468,216.277108 9.37503984,220.548447 C16.1008018,224.822484 16.6867387,231.324054 21.7067865,237.421193 C27.5094122,244.471326 33.8185084,244.35582 36.5285093,243.889142 C36.6019646,243.980017 36.6680658,244.074206 36.7415211,244.164741 C31.4343455,245.961575 27.6419557,250.646015 27.6419557,256.159313 C27.6419557,257.694489 27.9484386,259.157111 28.4856256,260.522206 C28.2081966,260.499232 27.9273996,260.481593 27.6419557,260.481593 C22.4760206,260.481593 18.2756194,264.27295 18.1193724,269 L97,269 C95.6511599,263.125223 90.1476843,258.666461 83.4509762,258.364211 Z" id="color_4" fill="#357A38"></path>
                    <path d="M332.981086,212.104022 C325.075723,217.123364 324.387309,224.757529 318.487647,231.917496 C311.668426,240.196123 304.253457,240.060495 301.067282,239.512005 C300.981321,239.618635 300.902706,239.729946 300.817749,239.836576 C307.055596,241.945543 311.512543,247.447062 311.512543,253.920953 C311.512543,255.723029 311.152275,257.441452 310.521396,259.045266 C310.847877,259.017928 311.177369,258.99761 311.512543,258.99761 C317.583806,258.99761 322.520769,263.449804 322.704757,269 L230,269 C231.587898,262.099928 238.055565,256.862645 245.924451,256.508438 C246.20777,256.496098 246.490769,256.488099 246.777782,256.488099 C247.645145,256.488099 248.494782,256.556072 249.326715,256.671383 C252.111127,257.057587 254.675115,258.058256 256.854084,259.519103 C256.643335,258.708696 256.520576,257.865973 256.520576,256.994933 C256.520576,251.026896 261.775989,246.188476 268.255339,246.188476 C273.037101,246.188476 277.142815,248.828276 278.971553,252.608712 C279.347539,248.621015 281.424145,245.087177 284.518978,242.602664 C284.541061,239.828917 284.053357,237.050149 283.70648,234.308059 C283.54624,233.049134 283.346213,231.651601 283.373635,230.292045 C281.137131,222.972452 279.224439,215.563887 277.557926,208.101666 C277.839259,208.144982 278.157027,208.026693 278.252705,207.676804 C279.327122,203.909367 279.964366,200.016982 281.419468,196.364195 C281.69811,195.654419 280.639732,195.095611 280.35842,195.811365 C278.948467,199.353862 278.259048,203.100982 277.262562,206.762427 C275.187964,197.271552 273.511756,187.693024 272.150666,178.07352 C272.046296,177.318109 270.847753,177.353107 270.952465,178.117517 C272.563109,189.50678 274.599563,200.846706 277.232791,212.048026 C275.875033,210.681491 274.554757,209.291937 273.576659,207.61149 C273.189973,206.943052 272.184453,207.591173 272.565778,208.257611 C273.883727,210.526865 275.813163,212.284965 277.629856,214.144335 C277.674001,214.186672 277.716479,214.20333 277.762653,214.231647 C279.047818,219.530245 280.455743,224.801845 282.037298,230.027469 C276.780881,227.695561 268.399518,222.198362 267.637508,210.674151 C266.516918,193.77803 268.698556,196.233567 265.328434,185.263166 C261.962626,174.293764 259.145432,163.674932 266.312533,161.436336 C273.479656,159.2004 279.051833,171.009184 279.32881,181.900272 C279.606768,192.79036 286.849814,198.0663 290.482198,208.245953 C296.023621,223.76386 286.263101,231.515314 286.263101,231.515314 C286.263101,231.515314 285.957015,231.44466 285.432856,231.292373 C285.490391,233.064473 285.92592,234.932842 286.127613,236.470342 C286.331998,238.03084 286.525021,239.596658 286.601948,241.167794 C286.796636,241.055845 287.000337,240.957874 287.200386,240.853903 C291.910539,230.498965 292.997343,219.098044 295.87376,208.154321 C293.514156,204.745091 290.324649,197.562126 294.677909,186.97961 C298.794984,176.987879 306.279212,172.053168 307.078341,161.191078 C307.873133,150.328307 314.004602,138.790098 321.054967,141.364264 C328.108002,143.93775 324.786382,154.412635 320.901775,165.211411 C317.015481,176.009209 319.306188,173.660302 317.383779,190.48945 C316.073177,201.963345 307.441278,207.054001 302.079508,209.136332 C303.909912,203.99102 305.5647,198.792713 307.103093,193.558451 C307.149266,193.533772 307.195077,193.518794 307.236893,193.478138 C309.143243,191.709378 311.153962,190.037931 312.574594,187.838991 C312.993059,187.19019 312.01966,186.495434 311.5975,187.145214 C310.54617,188.777005 309.158299,190.101245 307.735318,191.401806 C310.897724,180.337774 313.474078,169.107477 315.625624,157.806527 C315.769121,157.051775 314.574273,156.958463 314.43178,157.706875 C312.613741,167.251746 310.482612,176.741961 307.957749,186.122547 C307.135555,182.413446 306.628439,178.643349 305.389425,175.035857 C305.141558,174.306763 304.055758,174.817937 304.301617,175.537351 C305.579756,179.256132 306.032008,183.176175 306.922137,186.988269 C307.005428,187.342816 307.312496,187.478444 307.594812,187.445106 C305.546974,194.934665 303.250927,202.352209 300.619045,209.661143 C298.911058,210.225292 297.786794,210.424575 297.786794,210.424575 C297.786794,210.424575 297.692141,210.338262 297.530897,210.175976 C295.063249,220.060077 293.896827,230.251389 290.037976,239.689289 C291.663014,239.188455 293.395754,238.901881 295.204759,238.901881 C296.37919,238.901881 297.521863,239.021829 298.62539,239.23877 C298.840495,238.963514 299.043876,238.680621 299.262633,238.408365 C299.154589,237.991503 299.019123,237.406696 298.888313,236.679603 C303.355981,231.727234 308.042386,226.982126 312.878992,222.394964 C312.970998,222.617904 313.199451,222.797827 313.500176,222.714854 C316.752558,221.834815 319.904285,220.580229 323.240962,220.026739 C323.886898,219.920109 323.830367,218.894783 323.178066,219.006753 C319.940741,219.544563 316.879353,220.695199 313.736339,221.584557 C319.814971,215.869778 326.137433,210.406895 332.629511,205.157634 C333.140985,204.745091 332.581693,203.88639 332.069216,204.299912 C324.379962,210.514546 316.921832,217.021393 309.8273,223.898147 C310.231734,222.303332 310.671598,220.720516 311.47976,219.263329 C311.798553,218.685862 310.87532,218.234343 310.555866,218.811151 C309.469062,220.775491 309.021146,222.969771 308.455511,225.116736 C308.441459,225.170391 308.448485,225.212048 308.447481,225.254364 C305.109117,228.538625 301.846014,231.902178 298.691638,235.367702 C298.088181,230.491306 298.434054,221.928786 306.594994,216.275301 C318.558893,207.980696 317.711926,210.662812 324.311044,203.346559 C330.90982,196.029625 337.493882,189.273521 342.312762,193.527453 C347.129657,197.783045 340.887453,207.087998 332.981086,212.104022 L332.981086,212.104022 Z" id="color_4_0" fill="#4CAF50"></path>
                    <path d="M191.026557,31.1764473 C190.791249,30.9411842 190.410863,30.9411842 190.174567,31.1764473 C189.941811,31.4117311 189.941811,31.7939796 190.174567,32.0282962 L193.97263,35.8240311 C194.206332,36.0586563 194.589312,36.0586563 194.823982,35.8240311 C195.058673,35.5887474 195.058673,35.2084331 194.823982,34.9721822 L191.026557,31.1764473 Z" id="color_3" fill="#B3E5FC"></path>
                    <path d="M206.822852,45.9707439 L203.027167,42.175984 C202.792523,41.9413387 202.411574,41.9413387 202.175983,42.175984 C201.941339,42.4112672 201.941339,42.7925479 202.175983,43.0278105 L205.972326,46.8235376 C206.205983,47.0588208 206.587899,47.0588208 206.822543,46.8235376 C207.059101,46.5882544 207.059101,46.2069737 206.822852,45.9707439 L206.822852,45.9707439 Z" id="color_3_1" fill="#B3E5FC"></path>
                    <path d="M193.972887,42.1764455 L190.174578,45.9708424 C189.941807,46.2070496 189.941807,46.5882938 190.174578,46.8235545 C190.410889,47.0588152 190.791301,47.0588152 191.026624,46.8235545 L194.823986,43.0281905 C195.058671,42.7929504 195.058671,42.4117062 194.823986,42.1764455 C194.58961,41.9411848 194.207572,41.9411848 193.972887,42.1764455 Z" id="color_3_2" fill="#B3E5FC"></path>
                    <path d="M203.026893,35.8242544 L206.822804,32.0283438 C207.059065,31.7937077 207.059065,31.4117501 206.822804,31.1764555 C206.588168,30.9411815 206.20621,30.9411815 205.972541,31.1764555 L202.175993,34.9723662 C201.941336,35.2086279 201.941336,35.5889598 202.175993,35.8242544 C202.410958,36.0585819 202.79129,36.0585819 203.026893,35.8242544 Z" id="color_3_3" fill="#B3E5FC"></path>
                    <path d="M187.642295,39 L193.358735,39 C193.713011,39 194,38.7770353 194,38.5 C194,38.2237679 193.713011,38 193.358735,38 L187.642295,38 C187.286989,38 187,38.2229647 187,38.5 C187,38.7767619 187.288019,39 187.642295,39 Z" id="color_3_4" fill="#B3E5FC"></path>
                    <path d="M204,38.5 C204,38.7770353 204.287934,39 204.642786,39 L210.358923,39 C210.713095,39 211,38.7770353 211,38.5 C211,38.2237679 210.713095,38 210.358923,38 L204.643136,38 C204.288964,38.0008032 204,38.2237679 204,38.5 Z" id="color_3_5" fill="#B3E5FC"></path>
                    <path d="M198.5,51 C198.776591,51 199,50.7130253 199,50.3587669 L199,44.6412331 C199,44.2869747 198.776591,44 198.5,44 C198.224211,44 198,44.2869747 198,44.6412331 L198,50.3587669 C198,50.7130253 198.225013,51 198.5,51 Z" id="color_3_6" fill="#B3E5FC"></path>
                    <path d="M198.5,34 C198.776591,34 199,33.7140133 199,33.3597028 L199,27.6413275 C199,27.2859867 198.776591,27 198.5,27 C198.224211,27 198,27.2859867 198,27.6413275 L198,33.3597028 C198,33.7140133 198.225013,34 198.5,34 Z" id="color_3_7" fill="#B3E5FC"></path>
                    <path d="M277.972562,17.824016 C278.20628,18.0586613 278.589285,18.0586613 278.823971,17.824016 C279.058676,17.5887328 279.058676,17.2084193 278.823971,16.9721895 L275.026625,13.1764624 C274.791281,12.9411792 274.410869,12.9411792 274.174578,13.1764624 C273.941807,13.4117456 273.941807,13.7939934 274.174578,14.0282889 L277.972562,17.824016 Z" id="color_3_8" fill="#00BCD4"></path>
                    <path d="M287.02721,25.1759691 C286.792573,24.9413436 286.411602,24.9413436 286.175978,25.1759691 C285.941341,25.4112531 285.941341,25.7925349 286.175978,26.0278188 L289.972538,29.823537 C290.206228,30.058821 290.588166,30.058821 290.822803,29.823537 C291.059066,29.5882737 291.059066,29.2069918 290.822803,28.9707408 L287.02721,25.1759691 L287.02721,25.1759691 Z" id="color_3_9" fill="#00BCD4"></path>
                    <path d="M278.82356,25.1759691 C278.588911,24.9413436 278.205964,24.9413436 277.972282,25.1759691 L274.174552,28.9707408 C273.941816,29.2069918 273.941816,29.5882737 274.174552,29.823537 C274.410827,30.058821 274.79118,30.058821 275.026468,29.823537 L278.823231,26.0278188 C279.058868,25.7925349 279.058868,25.4115823 278.82356,25.1759691 L278.82356,25.1759691 Z" id="color_3_10" fill="#00BCD4"></path>
                    <path d="M287.026893,17.8242543 L290.822804,14.0283397 C291.059065,13.7937034 291.059065,13.411766 290.822804,13.1764711 C290.588168,12.9411763 290.20621,12.9411763 289.972541,13.1764711 L286.175993,16.9723857 C285.941336,17.2086271 285.941336,17.5889594 286.175993,17.8242543 C286.410958,18.0585819 286.79129,18.0585819 287.026893,17.8242543 Z" id="color_3_11" fill="#00BCD4"></path>
                    <path d="M271.642263,22 L277.358767,22 C277.713025,22 278,21.7770353 278,21.5 C278,21.2237679 277.713025,21 277.358767,21 L271.642263,21 C271.286975,21 271,21.2229647 271,21.5 C271,21.7770353 271.288005,22 271.642263,22 Z" id="color_3_12" fill="#00BCD4"></path>
                    <path d="M294.358891,21 L288.642818,21 C288.287598,21 288,21.2229647 288,21.5 C288,21.7770353 288.287949,22 288.642818,22 L294.358891,22 C294.713081,22 295,21.7770353 295,21.5 C295,21.2229647 294.713081,21 294.358891,21 Z" id="color_3_13" fill="#00BCD4"></path>
                    <path d="M282.5,33 C282.776591,33 283,32.7130253 283,32.3587669 L283,26.6412331 C283,26.2869747 282.776591,26 282.5,26 C282.224211,26 282,26.2869747 282,26.6412331 L282,32.3587669 C282.000273,32.7130253 282.225013,33 282.5,33 Z" id="color_3_14" fill="#00BCD4"></path>
                    <path d="M282.5,16 C282.776591,16 283,15.7140133 283,15.3597028 L283,9.64132746 C283,9.28598672 282.776591,9 282.5,9 C282.224211,9 282,9.28598672 282,9.64132746 L282,15.3597028 C282.000273,15.7136626 282.225013,16 282.5,16 Z" id="color_3_15" fill="#00BCD4"></path>
                    <path d="M286.026557,67.1764624 C285.791249,66.9411792 285.410863,66.9411792 285.174567,67.1764624 C284.941811,67.4117456 284.941811,67.7939934 285.174567,68.0283095 L288.97263,71.824016 C289.206332,72.0586613 289.589312,72.0586613 289.823982,71.824016 C290.058673,71.5887534 290.058673,71.2084399 289.823982,70.9721895 L286.026557,67.1764624 L286.026557,67.1764624 Z" id="color_3_16" fill="#4CAF50"></path>
                    <path d="M298.02721,79.1759691 C297.792573,78.9413436 297.411602,78.9413436 297.175978,79.1759691 C296.941341,79.4112531 296.941341,79.7925349 297.175978,80.0278188 L300.972538,83.823537 C301.206228,84.058821 301.588166,84.058821 301.822803,83.823537 C302.059066,83.5882531 302.059066,83.2069713 301.822803,82.9707408 L298.02721,79.1759691 L298.02721,79.1759691 Z" id="color_3_17" fill="#4CAF50"></path>
                    <path d="M288.972891,79.1759691 L285.174578,82.9707408 C284.941807,83.2069713 284.941807,83.5882531 285.174578,83.823537 C285.41089,84.058821 285.791301,84.058821 286.026625,83.823537 L289.823971,80.0278188 C290.058676,79.7925349 290.058676,79.4112531 289.823971,79.1759691 C289.589615,78.9413436 289.207577,78.9413436 288.972891,79.1759691 Z" id="color_3_18" fill="#4CAF50"></path>
                    <path d="M298.026893,71.824016 L301.822804,68.0283095 C302.059065,67.7936642 302.059065,67.4117456 301.822804,67.1764624 C301.588168,66.9411792 301.20621,66.9411792 300.972541,67.1764624 L297.175993,70.9721895 C296.941336,71.2084399 296.941336,71.5887534 297.175993,71.824016 C297.410958,72.0586613 297.79129,72.0586613 298.026893,71.824016 L298.026893,71.824016 Z" id="color_3_19" fill="#4CAF50"></path>
                    <path d="M289,75.5 C289,75.2237679 288.713025,75 288.358767,75 L282.642263,75 C282.286975,75 282,75.2229647 282,75.5 C282,75.7770353 282.286975,76 282.642263,76 L288.358767,75.9997266 C288.711995,75.9997266 289,75.7767619 289,75.5 Z" id="color_3_20" fill="#4CAF50"></path>
                    <path d="M305.358923,75 L299.642786,75 C299.287584,75 299,75.2229647 299,75.5 C299,75.7770353 299.287934,76 299.642786,76 L305.358923,76 C305.713095,76 306,75.7770353 306,75.5 C306,75.2232381 305.712066,75 305.358923,75 Z" id="color_3_21" fill="#4CAF50"></path>
                    <path d="M293.5,81 C293.224211,81 293,81.2869747 293,81.6412331 L293,87.3587669 C293,87.7119952 293.224211,88 293.5,88 C293.776591,88 294,87.7130253 294,87.3587669 L294,81.6412331 C293.999727,81.2869747 293.775789,81 293.5,81 Z" id="color_3_22" fill="#4CAF50"></path>
                    <path d="M293.5,64 C293.224211,64 293,64.2859867 293,64.6413275 L293,70.3597028 C293,70.7140133 293.224211,71 293.5,71 C293.776591,71 294,70.7140133 294,70.3597028 L294,64.6413275 C293.999727,64.2863374 293.775789,64 293.5,64 Z" id="color_3_23" fill="#4CAF50"></path>
                    <path d="M261.026557,125.176462 C260.791249,124.941179 260.410863,124.941179 260.174567,125.176462 C259.941811,125.411746 259.941811,125.793993 260.174567,126.02831 L263.97263,129.824016 C264.206332,130.058661 264.589312,130.058661 264.823982,129.824016 C265.058673,129.588753 265.058673,129.20844 264.823982,128.972189 L261.026557,125.176462 L261.026557,125.176462 Z" id="color_3_24" fill="#03ACF2"></path>
                    <path d="M273.02721,137.175969 C272.792573,136.941344 272.411602,136.941344 272.175978,137.175969 C271.941341,137.411253 271.941341,137.792534 272.175978,138.027818 L275.972538,141.823553 C276.206228,142.058816 276.588166,142.058816 276.822803,141.823553 C277.059066,141.588269 277.059066,141.206988 276.822803,140.970737 L273.02721,137.175969 L273.02721,137.175969 Z" id="color_3_25" fill="#03ACF2"></path>
                    <path d="M263.972891,137.176669 L260.174578,140.970886 C259.941807,141.207103 259.941807,141.588329 260.174578,141.823578 C260.41089,142.058807 260.791301,142.058807 261.026625,141.823578 L264.823971,138.028394 C265.058676,137.793144 265.058676,137.411918 264.823971,137.176669 C264.589615,136.94111 264.206609,136.94111 263.972891,137.176669 Z" id="color_3_26" fill="#03ACF2"></path>
                    <path d="M275.972276,125.176686 L272.175966,128.972237 C271.941345,129.208477 271.941345,129.588772 272.175966,129.824024 C272.411246,130.058659 272.792521,130.058659 273.027142,129.824024 L276.822815,126.028493 C277.059062,125.793859 277.059062,125.411958 276.822815,125.176686 C276.587226,124.941105 276.205951,124.941105 275.972276,125.176686 L275.972276,125.176686 Z" id="color_3_27" fill="#03ACF2"></path>
                    <path d="M264,133.5 C264,133.223768 263.713025,133 263.358767,133 L257.642263,133 C257.286975,133 257,133.222965 257,133.5 C257,133.777035 257.286975,134 257.642263,134 L263.358767,134 C263.713025,134 264,133.775976 264,133.5 Z" id="color_3_28" fill="#03ACF2"></path>
                    <path d="M280.358923,133 L274.642786,133 C274.287584,133 274,133.222965 274,133.5 C274,133.777035 274.287934,134 274.642786,134 L280.358923,134 C280.713095,134 281,133.777035 281,133.5 C281,133.223768 280.713095,133 280.358923,133 Z" id="color_3_29" fill="#03ACF2"></path>
                    <path d="M268.5,139 C268.224211,139 268,139.286975 268,139.641211 L268,145.358767 C268,145.711995 268.224211,146 268.5,146 C268.776591,146 269,145.713025 269,145.358767 L269,139.641211 C268.999727,139.286975 268.776318,139 268.5,139 Z" id="color_3_30" fill="#03ACF2"></path>
                    <path d="M268.5,122 C268.224211,122 268,122.285987 268,122.641327 L268,128.359703 C268,128.714013 268.224211,129 268.5,129 C268.776591,129 269,128.714013 269,128.359703 L269,122.641327 C268.999727,122.287017 268.776318,122 268.5,122 Z" id="color_3_31" fill="#03ACF2"></path>
                    <path d="M185.026503,87.177147 C184.791846,86.940951 184.410876,86.940951 184.175252,87.177147 C183.941583,87.4123966 183.941583,87.7936227 184.175252,88.0288723 L187.972772,91.8240566 C188.205494,92.0586478 188.588399,92.0586478 188.824023,91.8240566 C189.058659,91.588807 189.058659,91.2075809 188.824023,90.9723313 L185.026503,87.177147 Z" id="color_3_32" fill="#4CAF50"></path>
                    <path d="M197.027158,98.1764455 C196.792516,97.9411848 196.41157,97.9411848 196.175981,98.1764455 C195.94134,98.4116857 195.94134,98.7929298 196.175981,99.0281905 L199.971633,102.823554 C200.206275,103.058815 200.588188,103.058815 200.82283,102.823554 C201.059057,102.588294 201.059057,102.20705 200.82283,101.970822 L197.027158,98.1764455 L197.027158,98.1764455 Z" id="color_3_33" fill="#4CAF50"></path>
                    <path d="M187.972772,98.1764455 L184.175252,101.970822 C183.941583,102.20705 183.941583,102.587327 184.175252,102.823554 C184.410547,103.058815 184.791846,103.058815 185.026503,102.823554 L188.824023,99.0281905 C189.058659,98.7929298 189.058659,98.4116857 188.824023,98.1764455 C188.588399,97.9411848 188.205494,97.9411848 187.972772,98.1764455 L187.972772,98.1764455 Z" id="color_3_34" fill="#4CAF50"></path>
                    <path d="M197.027158,91.8242948 L200.82283,88.0289231 C201.059057,87.7936619 201.059057,87.412417 200.82283,87.1771558 C200.588188,86.9409481 200.206275,86.9409481 199.971633,87.1771558 L196.175981,90.9725275 C195.94134,91.2077887 195.94134,91.5890336 196.175981,91.8242948 C196.412208,92.0585684 196.792516,92.0585684 197.027158,91.8242948 L197.027158,91.8242948 Z" id="color_3_35" fill="#4CAF50"></path>
                    <path d="M188,95.5 C188,95.2237679 187.712052,95 187.358893,95 L181.642816,95 C181.288627,95 181,95.2237679 181,95.5 C181,95.7770183 181.288627,96 181.642816,96 L187.358893,96 C187.712381,95.9991968 188,95.7762151 188,95.5 Z" id="color_3_36" fill="#4CAF50"></path>
                    <path d="M204.358893,95 L198.642816,95 C198.287597,95 198,95.2237679 198,95.5 C198,95.7770183 198.287948,96 198.642816,96 L204.358893,96 C204.713082,96 205,95.7770183 205,95.5 C205,95.2237679 204.713082,95 204.358893,95 Z" id="color_3_37" fill="#4CAF50"></path>
                    <path d="M192.5,100 C192.224211,100 192,100.286932 192,100.642169 L192,106.358861 C192,106.712038 192.224211,107 192.5,107 C192.776574,107 193,106.713068 193,106.358861 L193,100.642169 C193,100.287962 192.776574,100 192.5,100 Z" id="color_3_38" fill="#4CAF50"></path>
                    <path d="M192.5,83 C192.224211,83 192,83.2869747 192,83.6422632 L192,89.359797 C192,89.7140554 192.224211,90 192.5,90 C192.776574,90 193,89.7140554 193,89.359797 L193,83.6422632 C193,83.2869747 192.776574,83 192.5,83 Z" id="color_3_39" fill="#4CAF50"></path>
                    <path d="M231.794545,11.9285574 C232.464996,11.8667804 233.001092,11.4153693 233.198573,10.8243952 L234.163555,10.9950173 C234.158118,11.2257324 234.161865,11.4577691 234.184243,11.6928328 C234.290111,12.7969737 234.707797,13.7962983 235.334142,14.6256617 L234.266693,15.4844 C234.009855,15.3652161 233.720761,15.3051232 233.417435,15.3324943 C232.515211,15.4172938 231.852558,16.2052593 231.938063,17.0940548 C232.02426,17.9818483 232.823996,18.6339386 233.726524,18.5508019 C234.630438,18.4659811 235.292072,17.6780156 235.206914,16.790222 C235.195368,16.6646856 235.165516,16.5464822 235.127172,16.4323078 L236.212602,15.5585409 C236.975684,16.2086061 237.901997,16.6696951 238.91752,16.8713549 L238.636571,18.4139034 C237.47582,18.6532945 236.651669,19.7063596 236.764642,20.8953213 C236.887472,22.1727702 238.040425,23.1089749 239.335877,22.9897696 C240.634059,22.8695838 241.587495,21.7363877 241.464319,20.4595996 C241.376454,19.5407683 240.753141,18.8058824 239.930009,18.5053965 L240.207557,16.9815431 C240.35753,16.9788784 240.506486,16.9761925 240.657477,16.9621871 C241.702526,16.8660257 242.655962,16.5064274 243.462826,15.9595157 L244.594744,17.2917283 C244.418644,17.5778678 244.327356,17.9170869 244.36232,18.2756833 C244.447478,19.1617928 245.247561,19.8145439 246.150782,19.7297445 C247.054002,19.6466078 247.715636,18.8579601 247.630132,17.9708487 C247.543956,17.0830338 246.744892,16.430304 245.841671,16.5151035 C245.775165,16.521456 245.712407,16.5388081 245.648609,16.5521739 L244.437643,15.1271466 C245.004956,14.5281572 245.44502,13.8163151 245.717823,13.0316963 L247.292535,13.3091598 C247.292535,13.385944 247.283718,13.4610655 247.291516,13.5388729 C247.413653,14.8152987 248.564569,15.7525266 249.861734,15.6316586 C251.158876,15.5124533 252.111315,14.3789162 251.989504,13.1014885 C251.866674,11.8240396 250.715757,10.886833 249.418268,11.0070188 C248.662292,11.0784738 248.032221,11.4971631 247.65524,12.0831277 L246.005227,11.7916589 C246.050005,11.3993389 246.055442,10.9973409 246.01608,10.5893315 C245.934302,9.74493954 245.671334,8.96198352 245.271975,8.26851672 L246.548451,7.24116007 C246.842961,7.42212099 247.194812,7.51760031 247.566356,7.48321582 C248.470248,7.4000791 249.132901,6.61045083 249.046725,5.72432001 C248.961567,4.83552456 248.160813,4.18277343 247.257592,4.26659229 C246.355368,4.34972901 245.692044,5.13835538 245.77822,6.02715083 C245.783657,6.08457912 245.799948,6.13834086 245.812491,6.195087 L244.51602,7.23747221 C243.898492,6.56270051 243.129972,6.03416416 242.26373,5.70027432 L242.481899,4.50664423 C243.183913,4.26991776 243.658941,3.58779166 243.58598,2.82988324 C243.500823,1.94108779 242.70074,1.28933856 241.796847,1.37415933 C240.895663,1.45795688 240.231971,2.24592242 240.318168,3.13305514 C240.372109,3.69663681 240.714819,4.16307642 241.188808,4.40948086 L241.014745,5.36806852 C240.537009,5.29460977 240.044347,5.27190705 239.540832,5.31765356 C238.556851,5.40946634 237.65363,5.73534096 236.877983,6.23015364 L234.83197,3.8228554 C235.228621,3.36276828 235.446118,2.75309902 235.384032,2.10469658 C235.261202,0.827247637 234.110285,-0.108957062 232.813815,0.0102268826 C231.516651,0.131094879 230.563215,1.26363013 230.686044,2.54107908 C230.808874,3.81850671 231.959791,4.75405058 233.256262,4.63552746 C233.429631,4.61883617 233.594552,4.58244787 233.754361,4.53201159 L235.876694,7.0294812 C235.1343,7.76969642 234.599221,8.7018935 234.338983,9.7319361 L233.057091,9.5058895 C232.744579,8.97935696 232.144014,8.64712985 231.486799,8.708246 C230.584596,8.79304545 229.921922,9.57934825 230.007427,10.4688045 C230.090569,11.3596038 230.892342,12.0116941 231.794545,11.9285574 L231.794545,11.9285574 Z" id="color_3_40" fill="#F8BBD0"></path>
                    <path d="M346.226718,28.1587204 C344.715766,27.494505 342.948353,28.1693858 342.277735,29.6644825 C342.183627,29.8745552 342.12212,30.0906099 342.079412,30.3076864 L339.562404,30.742478 C338.941554,29.0266433 337.889441,27.4678308 336.462188,26.2441384 L338.309265,24.0254959 C340.36915,24.6720207 342.634398,23.7177313 343.531539,21.7131425 C344.49727,19.5614942 343.518104,17.0410905 341.352694,16.0848 C339.182562,15.126849 336.641689,16.0954654 335.676624,18.2461131 C334.982827,19.7935789 335.303843,21.5227401 336.338486,22.7331062 L334.514244,24.9244145 C334.274244,24.7963868 334.034909,24.6676779 333.782139,24.5566383 C332.036231,23.7857474 330.195185,23.5146625 328.41835,23.6743884 L327.830443,20.5391155 C328.369269,20.2373755 328.82373,19.7758884 329.094999,19.1707267 C329.764588,17.6772692 329.085256,15.9214125 327.575978,15.2572184 C326.066722,14.5903633 324.299631,15.2652228 323.629034,16.7606813 C322.958437,18.2567785 323.635408,20.0116347 325.14636,20.6758288 C325.257636,20.725175 325.37226,20.7518492 325.485189,20.7861872 L326.114108,24.1401971 C324.669729,24.5953191 323.32583,25.3452198 322.17959,26.3581796 L319.932155,24.5179575 C320.002419,24.3952732 320.0841,24.2825731 320.142925,24.1508625 C321.106982,21.9998955 320.131486,19.480471 317.962042,18.5242018 C315.795623,17.5662509 313.253741,18.5348673 312.28801,20.6874948 C311.322944,22.839143 312.300436,25.3595468 314.467863,26.3158373 C315.73242,26.8726746 317.114647,26.7606344 318.245071,26.1577931 L320.599404,28.0863616 C320.172499,28.6748546 319.799053,29.3133963 319.489476,30.0015823 C318.8518,31.424682 318.560035,32.9111144 318.56274,34.3738954 L315.603009,34.886368 C315.299827,34.3358746 314.829227,33.8710664 314.20769,33.59566 C312.696759,32.9294648 310.927651,33.6043244 310.259737,35.0981012 C309.586436,36.5962207 310.267806,38.3500551 311.776054,39.0169315 C313.283658,39.6831267 315.053431,39.0089271 315.724028,37.5101476 C315.767723,37.4131156 315.789914,37.3124221 315.822857,37.2137297 L318.827935,36.694232 C319.19535,38.3200599 319.93619,39.8471741 321.005127,41.1492287 L319.575857,42.866064 C318.24608,42.6226539 316.87396,43.2921914 316.301183,44.5705734 C315.628891,46.0676712 316.307557,47.8205262 317.818509,48.4857209 C319.326778,49.1509368 321.094878,48.4777378 321.765475,46.9816193 C322.19135,46.0333332 322.069687,44.980692 321.542279,44.1674587 L322.690537,42.7887024 C323.382295,43.3285305 324.142986,43.8033441 324.984349,44.1747819 C326.629755,44.9000094 328.357851,45.1787581 330.038539,45.0753822 L331.100416,50.7410643 C330.052661,51.1265098 329.154511,51.9090667 328.664403,53.0014105 C327.699358,55.154698 328.677859,57.6727813 330.844277,58.6307323 C333.013379,59.5880233 335.554273,58.6200668 336.519339,56.4667581 C337.485049,54.3141305 336.506892,51.7963666 334.340473,50.8384369 C334.050382,50.7103879 333.75424,50.6230209 333.456423,50.5623493 L332.354564,44.6842741 C334.206341,44.1584538 335.901494,43.1411511 337.24977,41.7227348 L339.079034,43.2208331 C339.095838,44.3405111 339.746948,45.4051589 340.846125,45.8896374 C342.354372,46.5538315 344.122472,45.8832935 344.794078,44.3845139 C345.464696,42.8884167 344.784334,41.135221 343.276752,40.4693665 C342.157058,39.9735413 340.897546,40.2196124 340.046439,40.9898434 L338.668954,39.8615011 C338.886763,39.4980677 339.092147,39.1229684 339.269287,38.7261763 C340.10359,36.8646233 340.349985,34.8963735 340.106959,33.013149 L342.581947,32.5853612 C342.88178,33.0044847 343.285486,33.3572527 343.792399,33.5823123 C345.301656,34.2458465 347.068746,33.5716469 347.739343,32.0755284 C348.412967,30.5797718 347.735974,28.8265761 346.226718,28.1587204 L346.226718,28.1587204 Z" id="color_3_41" fill="#01579B"></path>
                    <path d="M337.225237,85.4921413 C338.475224,85.1913647 339.238431,83.9567748 338.932549,82.7352803 C338.624999,81.5128235 337.362606,80.7657771 336.11294,81.0665537 C334.862932,81.3663471 334.099725,82.6009579 334.405606,83.8224315 C334.446483,83.9852877 334.506804,84.1379562 334.579488,84.28278 L332.406829,86.6693916 C331.564564,86.065872 330.563154,85.6890749 329.502771,85.5884743 L329.542643,84.3306223 C330.01939,83.9571095 330.263304,83.336206 330.108182,82.7172688 C329.893765,81.8676554 329.016975,81.346704 328.146581,81.5563983 C327.277834,81.7654441 326.746819,82.6245339 326.959568,83.4741473 C327.117364,84.1051967 327.643032,84.5517803 328.257469,84.6566275 L328.228314,85.6032224 C327.998817,85.6310659 327.768999,85.6674444 327.538839,85.7228176 C326.457344,85.9829691 325.525624,86.5245888 324.792577,87.2424738 L323.785478,86.3453528 C323.866226,86.0825865 323.884643,85.7981687 323.812964,85.5131233 C323.598526,84.6635099 322.720753,84.1435416 321.851343,84.3522527 C320.983622,84.5612985 320.450918,85.4194052 320.663666,86.2700018 C320.878082,87.1205775 321.755856,87.6395835 322.625266,87.4308724 C322.747555,87.4013763 322.861137,87.3571321 322.968346,87.3043947 L323.992194,88.2162428 C323.456815,89.0379918 323.13318,89.9898166 323.079233,90.9878519 L321.5076,90.9409929 C321.103237,89.8659748 319.938662,89.2296747 318.774771,89.5098041 C317.524763,89.8096184 316.761556,91.0451915 317.067459,92.266686 C317.375009,93.4897913 318.637402,94.2361892 319.886405,93.9363958 C320.785291,93.7204676 321.425183,93.019297 321.604434,92.1903308 L323.156623,92.2371899 C323.180409,92.3793779 323.205543,92.5222353 323.24073,92.6644441 C323.487297,93.6483799 323.98182,94.5074907 324.641155,95.2001471 L323.482612,96.4727473 C323.173372,96.3462696 322.822934,96.3072762 322.471149,96.3911623 C321.603429,96.6002081 321.071408,97.4583147 321.286146,98.3089114 C321.498894,99.1594871 322.377352,99.6794762 323.246078,99.4697819 C324.114825,99.2607361 324.647508,98.4035918 324.433091,97.5520329 C324.417006,97.4894425 324.391551,97.4324377 324.368428,97.3734664 L325.60772,96.0114156 C326.284147,96.4674966 327.05437,96.7856571 327.872528,96.9330958 L327.823609,98.4769973 C327.747224,98.4874779 327.67116,98.4900928 327.594775,98.5090874 C326.345793,98.8089018 325.581581,100.043492 325.888468,101.264986 C326.195013,102.48646 327.457406,103.233841 328.707414,102.933713 C329.957423,102.632915 330.721293,101.398325 330.414727,100.176852 C330.234812,99.4651797 329.727584,98.922263 329.092034,98.6457318 L329.142622,97.0281109 C329.537958,97.014346 329.937658,96.9612739 330.338342,96.8652756 C331.164522,96.6667103 331.903943,96.3017117 332.534808,95.8213644 L333.73857,96.8927844 C333.601201,97.199795 333.556988,97.5500665 333.645437,97.8999823 C333.858185,98.7512275 334.737627,99.2715514 335.605369,99.0625055 C336.475763,98.8534597 337.006799,97.994349 336.794051,97.144108 C336.581302,96.2944946 335.702844,95.7735431 334.83245,95.9832374 C334.77583,95.9969813 334.725242,96.0205782 334.670953,96.0386106 L333.448432,94.9498068 C334.029051,94.2630495 334.443146,93.4527852 334.64952,92.5779432 L335.864684,92.6143217 C336.200704,93.251605 336.946157,93.6077548 337.688915,93.4282051 C338.558646,93.2191592 339.090346,92.3620149 338.875929,91.510456 C338.663181,90.6608635 337.784744,90.1398911 336.915997,90.3495854 C336.364533,90.4822761 335.95078,90.8774402 335.774224,91.364649 L334.797263,91.3351529 C334.800942,90.867922 334.753049,90.3944781 334.634098,89.9203648 C334.400922,88.9937686 333.946955,88.1779188 333.343576,87.5078551 L335.437176,85.207096 C335.954117,85.5242523 336.590693,85.644496 337.225237,85.4921413 L337.225237,85.4921413 Z" id="color_3_42" fill="#03ACF2"></path>
                    <path d="M270.00759,89.4264508 C267.744826,89.9792868 265.465942,88.8825934 264.44251,86.9101366 L260.751379,86.7981823 C260.121477,89.5014275 258.861652,92.0073802 257.093819,94.1277904 L260.796698,97.4738478 C260.962904,97.4138707 261.131468,97.3618934 261.307406,97.3185754 C263.956647,96.6714229 266.631399,98.2806342 267.28113,100.906222 C267.930498,103.534491 266.31275,106.191078 263.66353,106.836571 C261.021343,107.482723 258.342882,105.875512 257.692508,103.244584 C257.424216,102.159209 257.547782,101.072175 257.967167,100.120775 L254.312287,96.817036 C252.389653,98.3019528 250.139666,99.4276454 247.62171,100.043139 C246.404545,100.339386 245.186695,100.502339 243.981943,100.544657 L243.828171,105.519947 C245.768577,106.37269 247.307091,108.070558 247.855401,110.274945 C248.791883,114.051224 246.464978,117.866482 242.65564,118.794882 C238.849003,119.723303 235.004764,117.412281 234.072999,113.636002 C233.136539,109.859722 235.464109,106.045464 239.268387,105.118043 C239.501071,105.061725 239.733091,105.017407 239.965796,104.984749 L240.112515,100.24841 C237.619748,99.7898696 235.274386,98.8084922 233.215108,97.3988711 L229.454455,101.590374 C229.524642,101.774645 229.587754,101.963257 229.636461,102.159869 C230.289537,104.788137 228.66808,107.439405 226.022548,108.084877 C223.375987,108.731029 220.702907,107.126477 220.052533,104.49723 C219.399457,101.869621 221.020892,99.2156938 223.66308,98.5705412 C224.733525,98.3096122 225.804956,98.4215878 226.74849,98.8148111 L230.271057,94.8885781 C228.264152,92.7495089 226.758223,90.092922 226.00677,87.0521115 C225.897631,86.6112299 225.823757,86.1703484 225.749218,85.7294881 L221.039693,85.5858537 C220.494062,88.1514644 218.529132,90.3145329 215.789231,90.9826636 C211.985295,91.910085 208.141036,89.6000631 207.205583,85.8211239 C206.273818,82.0475036 208.596671,78.2295868 212.405344,77.3005058 C215.955437,76.4337423 219.539144,78.3921993 220.766041,81.7255976 L225.515527,81.8702319 C225.680725,78.7850822 226.665891,75.8445882 228.296051,73.3036151 L225.180435,70.4884155 C224.852718,70.6533684 224.50352,70.7863222 224.131149,70.8772984 C221.484588,71.5227914 218.810501,69.9178991 218.15676,67.2886306 C217.508379,64.6610429 219.129493,62.0064559 221.775046,61.3609629 C224.420578,60.7154699 227.094665,62.3230217 227.748749,64.9496307 C227.968334,65.8347129 227.92368,66.7207951 227.674875,67.5349005 L230.730058,70.2964633 C232.961587,68.0764176 235.7992,66.4018889 239.091763,65.5987832 C239.792859,65.4278304 240.493612,65.3131953 241.192029,65.2275593 L241.282688,62.305703 C239.409083,61.9831161 237.8108,60.5978561 237.329311,58.6483988 C236.679922,56.0217897 238.29767,53.3668623 240.942538,52.7197098 C243.592786,52.0735573 246.263186,53.6824495 246.916926,56.3083777 C247.390355,58.2241763 246.653008,60.1516343 245.194413,61.3066452 L245.075219,65.1825605 C248.30467,65.4928074 251.357174,66.6594776 253.921779,68.5242989 L260.535137,61.1523516 C260.313193,60.7044915 260.13256,60.2292917 260.0073,59.7247523 C259.075535,55.9484726 261.398409,52.1332152 265.207061,51.205815 C269.014706,50.2757341 272.858966,52.585756 273.794418,56.3626953 C274.726183,60.138975 272.403309,63.9532324 268.594657,64.8833134 C266.66229,65.3551728 264.722206,64.9882893 263.154151,64.0202306 L256.779865,71.1259087 C258.615205,73.1979797 259.999582,75.7186129 260.708396,78.5831516 C261.071035,80.0484094 261.215739,81.5129863 261.204999,82.9555852 L264.174904,83.0465614 C264.709794,81.5379857 265.973971,80.3166574 267.653824,79.9067749 C270.300385,79.261282 272.974472,80.8705146 273.623839,83.4954428 C274.275586,86.1296899 272.658502,88.7809578 270.00759,89.4264508 L270.00759,89.4264508 Z" id="color_3_43" fill="#E91E63"></path>
                    <path d="M173.594571,192.708717 C173.49041,190.412117 173.501159,188.319682 173.580476,186.400942 C173.803602,181.02618 174.607392,177.141954 175.262652,174.799623 C175.75428,173.042282 176.159876,172.135446 176.159876,172.135446 L175.379257,167 L173.025,169.124896 C173.025,169.124896 172.482653,170.006233 171.677169,171.542816 C169.779912,175.165528 166.416546,182.455729 165.206495,190.610316 C164.399337,196.036775 166.138325,201.749276 167.322501,204.82676 C167.871928,206.254319 168.302368,207.116398 168.302368,207.116398 L169.589053,207.914528 L172.951754,210 L178,205.890721 C178,205.890721 175.360442,202.680977 174.156441,197.062286 C173.870132,195.740471 173.665478,194.287391 173.594571,192.708717 L173.594571,192.708717 Z" id="color_2" fill="#01579B"></path>
                    <path d="M217.947218,188 C211.840946,185.298413 205.881399,181.64869 200.316066,177.255954 C205.682942,176.611857 210.365155,175.178138 212.831517,172.8289 C213.233126,172.781292 213.556485,172.651057 213.738477,172.407617 C216.407305,168.828487 217.837753,152.727877 215.166245,145.385118 C216.355938,144.796644 217.294113,143.687951 217.594317,142.256911 C218.335386,138.732384 212.707945,133.738864 208.844043,138.74106 C207.308825,140.728934 208.495837,143.583061 210.57133,145.00079 C209.310783,147.762317 208.392074,151.651843 208.392074,151.651843 C208.392074,151.651843 205.47175,160.080969 204.903263,164.291864 C200.96111,162.991358 197.283253,162.184089 197.283253,162.184089 C197.283253,162.184089 193.577504,161.631592 189.41342,161.172652 C190.111847,160.690748 190.820693,160.143589 191.542981,159.559113 L195.855485,156.072221 C196.328271,155.688893 196.750011,155.26695 197.125101,154.816686 C197.129453,154.816686 201.982917,154.629848 204.505341,152.082461 C207.026778,149.533393 207.10132,143.613701 200.809347,142.122699 C197.359468,141.302417 194.474732,140.863486 194.474732,140.863486 C192.868315,138.31344 191.306577,135.95087 186.832554,137.088524 C186.832554,137.088524 182.01099,139.079077 178.64037,144.097263 C177.030609,146.488793 177.711928,147.20848 177.146121,148.452704 C177.051083,148.662505 176.98428,148.881981 176.905365,149.0978 L176.598793,149.345238 C174.569629,145.646206 172.813121,141.811303 171.392406,137.874488 L167,125.704038 L223.667017,125 L228.059444,137.17045 C236.077698,159.37993 231.440806,178.715316 217.947218,188 L217.947218,188 Z" id="color_2_44" fill="#B2EBF2"></path>
                    <path d="M180.237391,146.526439 C181.159033,146.094342 182.097505,145.838219 182.787142,146.102327 C183.814707,146.497492 182.630448,148.613398 182.34868,149.087735 C182.312357,149.148602 182.289171,149.186192 182.289171,149.186192 C182.289171,149.186192 182.330197,149.164233 182.385326,149.133311 C182.667437,148.978299 183.553463,148.477669 184.127431,148.014651 C184.816059,147.458485 185.999309,146.564369 188.95021,146.752638 C189.338909,146.777253 189.710133,146.709399 190.065879,146.57932 L197.007011,155 L197.006345,155 C197.010725,155 201.870816,154.813387 204.396716,152.269059 C206.921585,149.723074 206.996229,143.81047 200.695638,142.321259 C197.241055,141.501983 194.352346,141.063558 194.352346,141.063558 C192.743751,138.516575 191.179852,136.156864 186.699723,137.29313 C186.699723,137.29313 181.871555,139.281313 178.496296,144.293451 C176.884331,146.682109 177.566583,147.400932 177,148.643661 C177,148.643661 178.509757,147.363023 180.110967,146.583312 C180.153666,146.56337 180.195701,146.546062 180.237391,146.526439 L180.237391,146.526439 Z" id="color_1" fill="#212121"></path>
                    <path d="M191.471323,155.472009 C191.004635,155.941736 190.856713,156.556467 191.153856,156.85079 C191.443341,157.140416 192.060089,156.995821 192.528889,156.526095 C192.997688,156.059809 193.141361,155.444205 192.847195,155.150728 C192.558982,154.859846 191.940122,155.002283 191.471323,155.472009 Z" id="color_1_45" fill="#D7CCC8"></path>
                    <path d="M187.47189,150.471839 C187.005233,150.940291 186.857285,151.557191 187.152315,151.849363 C187.441797,152.138994 188.059379,151.999969 188.528173,151.526819 C188.996968,151.058367 189.142778,150.444908 188.845637,150.150578 C188.556155,149.86051 187.937302,150.001256 187.47189,150.471839 Z" id="color_1_46" fill="#D7CCC8"></path>
                    <path d="M215.565419,145.383052 C214.436157,145.936874 213.082828,146.030903 211.820433,145.486053 C211.514624,145.354162 211.221327,145.188037 210.943218,145 C209.674718,147.754796 208.750213,151.634842 208.750213,151.634842 C208.750213,151.634842 205.811465,160.043422 205.239391,164.244074 C201.272367,162.946738 197.571306,162.141415 197.571306,162.141415 C197.571306,162.141415 193.842177,161.590265 189.65182,161.132465 C188.396502,161.992916 187.179693,162.638095 186.000422,162.901876 C184.559245,163.222822 183.173491,162.957365 181.83878,161.810203 L180.477016,162.901876 L179.830599,163.419492 L180.610149,165.335748 L180.163095,167.313474 L180.163095,168.412147 L177.765333,175.447645 L174.062222,186.314023 C173.982808,188.237279 173.970986,190.334593 174.076417,192.636573 C174.148043,194.218966 174.354505,195.675428 174.638697,197 L183.188355,176.747633 C188.549913,177.659266 194.954892,177.849954 200.622929,177.175886 C206.023665,176.533358 210.735419,175.103134 213.21732,172.759622 C213.621463,172.712131 213.946861,172.582213 214.130002,172.339366 C216.81433,168.769278 218.252789,152.707934 215.565419,145.383052 L215.565419,145.383052 Z" id="color_1_47" fill="#03ACF2"></path>
                    <path d="M195,268.498934 C195.030878,270.024589 191.931518,269.897321 191.931518,269.897321 L178.23587,269.656799 L179.029364,262.889668 C177.820534,258.511104 175.887825,245.056697 175.573235,239.897421 C175.316551,235.710621 175.743254,232.372998 176.561513,229.683443 C173.617428,228.6749 169.74966,227.412824 164.380908,226.341469 C163.304961,225.881795 160.60519,225.751862 157.289273,225.533713 L156.488088,232.87776 C156.488088,232.87776 155.54934,245.816037 149.88775,248.815922 C149.891425,248.827269 149.896446,248.838978 149.901125,248.850325 L149.779995,248.876047 C149.362992,249.084513 148.923575,249.24452 148.455376,249.338387 C146.866017,249.654754 145.606675,249.86789 144.598975,249.981124 L110.249568,257.304141 C110.249568,257.304141 108.785742,260.297009 108.78072,261.378709 C108.767323,263.676735 111.633759,268.974625 109.479514,269.915024 C108.079576,270.52837 107.012667,267.620346 107.012667,267.620346 L102,254.895206 L108.568544,253.039812 C112.160204,250.253063 123.989061,243.313555 128.644981,241.051958 C133.775446,238.556835 137.949449,237.806197 141.315216,237.988599 C140.404908,234.086408 133.588376,218.939301 133.818629,211.746239 C133.751365,211.717851 133.684764,211.695136 133.6175,211.665745 C130.648651,210.381594 129.190166,202.237469 129.190166,202.237469 L151.874347,160.680339 C147.655835,152.807791 144.540749,142.670298 145.629089,136.464749 C145.817847,131.84466 153.933229,118.426661 160.321711,114 C160.583759,115.953271 161.944851,117.634603 163.890295,118.219539 C163.175775,120.653876 162.203566,122.955229 162.203566,122.955229 C162.203566,122.955229 158.66075,134.453678 156.623299,136.627763 C156.601206,136.651481 156.574433,136.669205 156.552339,136.69224 C157.374956,138.039182 163.782198,148.560184 167.484306,155.563806 C167.839387,155.649675 168.187438,155.737868 168.529143,155.830733 L167.894258,156.346863 L167.61783,156.571347 L170.159975,164.019626 L170.73392,165.701641 L151.706678,204.886585 L149.745187,208.925748 L149.703671,209.010615 C149.703671,209.010615 149.900121,209.145902 150.251869,209.358697 C150.996495,209.810351 152.450642,210.617446 154.289656,211.273214 C154.933557,211.503051 155.622287,211.714182 156.344842,211.883211 C160.108188,212.767153 165.64228,210.778476 165.64228,210.778476 L165.720249,210.546955 L166.050586,209.56247 L167.533836,205.144832 C168.081008,206.583636 168.50972,207.452541 168.50972,207.452541 L169.791177,208.256948 L168.870164,210.471793 C172.984916,211.776312 194.495757,218.941967 190.6591,225.068025 C190.631664,225.11145 190.606899,225.149201 190.579464,225.192626 L183.619686,262.965171 C183.619686,262.965171 185.830832,265.45861 186.829493,265.876522 C188.951965,266.769827 194.952909,266.151127 195,268.498934 L195,268.498934 Z" id="color_1_48" fill="#03ACF2"></path>
                </g>
            </g>
        </g>
    </g>
</svg>