<?xml version="1.0" encoding="UTF-8"?>
<svg width="355px" height="345px" viewBox="0 0 355 345" version="1.1" xmlns="http://www.w3.org/2000/svg" xmlns:xlink="http://www.w3.org/1999/xlink">
    <!-- Generator: Sketch 64 (93537) - https://sketch.com -->
    <title>Artwork</title>
    <desc>Created with Sketch.</desc>
    <g id="Forms" stroke="none" stroke-width="1" fill="none" fill-rule="evenodd">
        <g id="Login" transform="translate(-903.000000, -399.000000)">
            <g id="Right-Side" transform="translate(835.000000, 216.000000)">
                <g id="Artwork" transform="translate(68.000000, 183.000000)">
                    <path d="M148,343 L102.333197,343 L56.6656423,343 L11,343 C12.5644537,335.698082 18.9353093,330.15369 26.6904411,329.780074 C26.9683579,329.765894 27.245888,329.758632 27.5299297,329.758632 C28.3866109,329.758632 29.2219088,329.828691 30.041927,329.951183 C32.7852709,330.359279 35.3083359,331.418924 37.458044,332.965517 C37.2499717,332.109521 37.1285711,331.215253 37.1285711,330.294585 C37.1285711,323.979192 42.3052781,318.857054 48.689114,318.857054 C53.4019671,318.857054 57.4455804,321.650499 59.2494183,325.651336 C59.8090774,319.259009 64.1966697,313.962681 70.12888,311.988489 C67.519917,311.281406 63.1472176,309.104706 60.805856,302.378157 C58.5229274,295.824655 60.0037825,290.274143 55.7685158,284.713675 C51.5313363,279.150922 49.5606666,270.999129 54.0219504,269.243908 C58.4832127,267.488666 61.3502567,273.934611 64.0813725,280.77751 C66.8148092,287.622736 66.911775,285.517971 73.1436506,294.42622 C77.3930582,300.502341 75.4323172,306.617124 73.7548657,309.892926 C72.4446462,306.643544 71.0286928,303.438965 69.53677,300.270741 C69.5489767,300.240485 69.561957,300.212168 69.5680819,300.173507 C69.7257372,298.515499 69.9742763,296.857513 69.7196338,295.196058 C69.6448034,294.707967 68.8831968,294.786819 68.9580057,295.277216 C69.1477465,296.511051 69.0469555,297.73646 68.920612,298.964174 C65.7306067,292.302318 62.1874674,285.807003 58.4118208,279.458314 C58.1594778,279.034917 57.5490578,279.496975 57.799875,279.918088 C60.9875808,285.279109 64.0038773,290.747687 66.7854101,296.331904 C64.816653,294.898622 62.9712093,293.30033 60.8459575,292.089855 C60.416854,291.844851 60.1144808,292.551934 60.5397804,292.793857 C62.7295686,294.039566 64.6093544,295.731257 66.6586583,297.186736 C66.8483991,297.323407 67.0514856,297.256795 67.1736599,297.122042 C69.3775674,301.592997 71.4329746,306.135542 73.2814701,310.76767 C73.1593173,310.978216 73.0470717,311.161586 72.9401773,311.331941 C73.6937679,311.22475 74.4584476,311.15163 75.2422111,311.15163 C76.4359728,311.15163 77.5965315,311.288302 78.7147107,311.533306 C78.9773693,305.151301 80.3612587,298.850088 81.0491954,292.465798 C80.8938181,292.538918 80.8048683,292.574131 80.8048683,292.574131 C80.8048683,292.574131 80.0703614,292.146511 79.0208878,291.308897 C79.0602157,285.490042 79.3621806,279.67998 79.8550468,273.884442 C80.0447661,273.978616 80.2933053,273.963315 80.4429446,273.73553 C80.6632236,273.399411 80.8693832,273.053725 81.0805072,272.711486 C82.4109279,270.558126 83.6237948,268.326667 85.2188082,266.350536 C85.577272,265.90686 84.9481337,265.268694 84.5873704,265.718511 C83.2500512,267.374579 82.1742516,269.198739 81.0805072,271.013675 C80.7067421,271.632705 80.3318595,272.251346 79.9439965,272.861174 C80.2539774,269.380946 80.6380365,265.907614 81.0805072,262.440791 C81.5603716,258.684958 82.1097367,254.936365 82.7247556,251.200811 C82.8175092,250.636541 81.9570242,250.395739 81.8619711,250.963845 C81.5851933,252.645191 81.3305507,254.33074 81.0789599,256.017065 C80.0589069,262.859231 79.246518,269.734671 78.7387588,276.633105 C78.0802212,275.352958 77.4487834,274.065528 77.1326992,272.645262 C77.0044216,272.080992 76.1439366,272.320242 76.2699147,272.882228 C76.6982445,274.795563 77.6748004,276.488007 78.5505653,278.222195 C78.571927,278.260856 78.6001871,278.286113 78.623483,278.313309 C78.3528084,282.392244 78.1741353,286.476955 78.1325294,290.566235 C74.9203888,287.724173 70.1941685,281.923291 72.2255277,273.512356 C75.2082344,261.176333 76.2084515,263.418135 76.2699147,254.820749 C76.3225882,246.900965 76.653587,239.313463 81.0778209,238.166152 C81.4557767,238.067775 81.8524293,238 82.2929658,238 C87.8838833,238 89.20401,247.692266 86.9665126,255.541236 C84.7289937,263.390961 88.6947464,268.785665 89.0028361,276.875437 C89.3261842,285.438365 85.2481859,289.675026 82.7232298,291.468153 C82.3364844,295.522608 81.635202,299.546051 81.0789599,303.572943 C80.7132323,306.21976 80.41318,308.868107 80.304373,311.527961 C80.5597677,311.47206 80.8186008,311.425749 81.0789599,311.382088 C81.9467087,311.236236 82.8343149,311.152018 83.7455823,311.151264 C83.8608795,310.913134 83.9750163,310.674272 84.071982,310.433082 C83.668087,310.406661 83.4367404,310.378345 83.4367404,310.378345 C83.4367404,310.378345 78.6055383,302.4149 86.4690689,292.917146 C91.4163203,286.941297 97.518414,284.977061 100.651534,278.12496 C100.784023,277.834399 100.920295,277.550712 101.04247,277.24179 C103.923246,269.939096 110.44718,263.299458 114.887467,265.845981 C115.062315,265.946275 115.236002,266.056548 115.404747,266.186323 C116.806581,267.265859 117.29257,268.680004 117.142157,270.324995 C116.816896,273.881382 113.504717,278.517346 109.966542,283.205743 C108.462412,285.197175 107.57977,286.509862 106.955575,287.657173 C105.42931,290.458656 105.455636,292.263657 101.819356,300.496587 C98.3212611,308.410251 91.0498405,310.124914 86.7763849,310.416618 C89.2250063,307.146957 91.5640684,303.798423 93.8256353,300.398211 C93.8649632,300.390948 93.9004657,300.38903 93.9397721,300.371036 C95.6871111,299.531505 97.4913143,298.785782 98.9943048,297.528974 C99.4348628,297.160315 98.8973391,296.446357 98.4560289,296.813874 C97.3409014,297.746804 96.0570294,298.383806 94.7590381,298.995551 C98.0276991,294.00625 101.103159,288.890254 104.03777,283.693833 C105.341886,281.386583 106.625737,279.067846 107.872193,276.729197 C108.144781,276.221561 107.315586,275.889666 107.046072,276.393079 C105.889704,278.561761 104.70052,280.710898 103.493756,282.852018 C101.127981,287.050406 98.6736431,291.19828 96.0971094,295.268811 C96.3414365,292.434788 96.825513,289.622961 96.7495436,286.767883 C96.7354243,286.191738 95.8497307,286.311945 95.8638716,286.884275 C95.9405931,289.82855 95.3862852,292.730693 95.1679189,295.657749 C95.1465357,295.929174 95.3378023,296.094162 95.5447142,296.136659 C92.4608296,300.960951 89.2196766,305.68191 85.7731162,310.258138 C85.6601184,310.589278 85.5226858,310.913522 85.3791498,311.234706 C93.0273657,311.993467 99.0859409,318.060408 99.7517207,325.655172 C101.554785,321.655455 105.599193,318.860869 110.312047,318.860869 C116.693583,318.860869 121.870268,323.983006 121.870268,330.298399 C121.870268,331.219089 121.750028,332.113357 121.543116,332.969331 C123.691664,331.422738 126.214729,330.363093 128.959212,329.955019 C129.780391,329.831364 130.614915,329.762446 131.470457,329.762446 C131.754112,329.762446 132.033168,329.76973 132.310719,329.783888 C140.057062,330.157526 146.425618,335.693104 147.996175,342.986596 C147.996948,342.988902 148,342.99388 148,343 L148,343 Z" id="color_1" fill="#4CAF50"></path>
                    <g id="Group-2" transform="translate(249.000000, 122.000000)">
                        <polygon id="color_7" fill="#03ACF2" points="97.893163 211 97.6694543 211.207956 95.9753497 212.783568 85 222.999602 100 223"></polygon>
                        <polygon id="color_7_0" fill="#03ACF2" points="63.8923921 211 63.3674207 211.489029 51 223 66 223 64.3245847 213.462893"></polygon>
                        <path d="M84.9511003,19.3103199 C83.9356298,22.616015 82.7544726,22.5335251 82.0227959,24 C82.0227959,24 82.2225913,16.2082531 80.0907704,14.9948626 C78.9188312,14.3270492 77.7702716,18.6278787 77.5743188,19.4048202 C77.5551272,19.4813154 77.5417212,19.5356683 77.5417212,19.5356683 C77.5417212,19.5356683 77.5317476,19.4809354 77.5183199,19.4048202 C77.4512033,19.0257214 77.2502637,17.8284573 77.2502637,16.9454272 C77.2502637,15.8857659 77.1954306,14.1170673 74.8009072,11.5346995 C74.4864587,11.1953469 74.2713142,10.8016414 74.1240636,10.3760418 L61.0612604,10.375303 L61.0581949,10.375303 C61.0581949,10.375303 60.5661864,7.38795805 62.4433572,4.29562211 C64.6794906,0.613846628 76.3483021,-2.2392518 82.4703118,2.44029653 C83.7638337,3.42945733 84.1971665,4.11301722 84.2439473,4.58209922 C84.6182373,5.09618337 84.9745015,5.69311623 85.3062203,6.41342506 C85.3069974,6.413805 87.0817771,12.3802418 84.9511003,19.3103199 L84.9511003,19.3103199 Z" id="color_7_1" fill="#FF6F00"></path>
                        <path d="M63.4219377,15.9977315 C63.6963267,16.0346941 63.9489908,15.6154912 63.993495,15.0664318 C64.0380144,14.5150295 63.8491199,14.0392206 63.5769156,14.0022767 C63.3033362,13.9653142 63.0490375,14.3828489 63.006168,14.9315709 C62.9630082,15.4859722 63.1510931,15.9614437 63.4219377,15.9977315 L63.4219377,15.9977315 Z" id="color_6" fill="#D7CCC8"></path>
                        <path d="M71.4225934,15.9977315 C71.6962322,16.0346941 71.9489805,15.6154912 71.9934969,15.0664318 C72.0380132,14.5150295 71.8490823,14.0392206 71.5767883,14.0022767 C71.3031495,13.9653142 71.0487813,14.3828489 71.0058848,14.9315709 C70.9638136,15.4859722 71.1519345,15.9614437 71.4225934,15.9977315 L71.4225934,15.9977315 Z" id="color_6_2" fill="#D7CCC8"></path>
                        <path d="M101.99461,188.248769 C101.856495,197.41352 99.4214214,206.29078 97.9604508,210.823216 L96.2927077,212.34528 C92.7431058,202.631032 74.0663047,151.251442 71.1946204,137.758179 C69.228381,149.2801 67.8195894,163.800207 67.14435,171.576185 C69.1075225,175.322128 70.3601657,180.573824 69.9143543,187.966987 C69.2790267,198.524316 65.3127698,209.739763 64.0835381,213 L63.6580714,210.62081 L63.1412697,211.093219 C60.5811263,198.421018 50.4314774,147.118879 51.0249927,133.00245 C51.1427843,130.211223 51.3469004,127.22706 51.6016405,124.210638 C51.6016405,124.208735 51.6027851,124.207602 51.6035626,124.205699 C53.4508657,119.764418 54.4763917,114.891325 54.4763917,109.786987 C54.4763917,107.622731 54.2945208,105.498729 53.9304336,103.423726 C53.9975796,102.928507 54.06127,102.456098 54.1234271,102 L54.5692168,104.523897 L92.9441334,104.524645 L93.1095039,103.590067 C94.629176,109.088229 95.52041,115.026519 94.4837614,119.964152 C92.3268395,130.2602 95.6999483,159.554491 97.1451961,170.931726 C100.029148,174.500319 102.120457,179.938494 101.99461,188.248769 L101.99461,188.248769 Z" id="color_6_3" fill="#01579B"></path>
                        <path d="M40.2244545,79.5886043 C37.9556294,77.8203857 35.4743551,76.2936308 32.82082,75.0679948 C32.8177601,75.0668406 32.8147002,75.0660925 32.8116403,75.0638055 C27.9015198,72.7754044 22.4153149,71.4912887 16.6259191,71.4912887 C14.4887784,71.4912887 12.392214,71.6621323 10.3465477,72.0034773 C10.3446514,72.0034773 10.3423457,72.0046315 10.34157,72.0046315 C10.3274124,72.0046315 10.3132549,72.0065338 10.2990974,72.0118346 C10.2948738,72.0129888 10.2910597,72.0118346 10.2868361,72.0137369 C8.32195616,72.3353322 6.40760801,72.8175542 4.55447986,73.4303722 C4.55333778,73.4303722 4.55141994,73.4315051 4.5495021,73.4322745 C1.93042352,72.7211141 1.42108547e-14,70.3271461 1.42108547e-14,67.4767975 C1.42108547e-14,64.0659975 2.7588007,61.3014661 6.16106872,61.3014661 C8.75986992,61.3014661 10.978939,62.9170519 11.8846331,65.1982499 C15.1418349,65.3649255 18.5540585,66.0088856 18.5540585,66.0088856 C18.5540585,66.0088856 28.8148637,66.8780009 33.8210701,68.2631308 C34.7294362,68.514106 35.4667053,68.783698 35.9367698,69.0669481 C39.6782152,71.3272636 40.7305055,76.4819584 40.2279023,79.5931784 C40.2267603,79.5908914 40.2255966,79.5897585 40.2244545,79.5886043 L40.2244545,79.5886043 Z M81.9950321,23.7969014 C81.8664076,24.0600385 81.7247677,24.3151816 81.5758658,24.5665415 L81.5758658,26.6058697 L81.5758658,37.2627173 L81.3040713,37.2627173 C80.2781783,39.4778479 78.3255596,41.2217854 75.4580454,41.683873 C74.971884,41.762081 74.4665873,41.814469 73.9276314,41.814469 C71.0968579,41.814469 69.0022113,40.6753983 67.6317968,38.9907098 C67.2015328,38.4614006 66.837876,37.881627 66.5511699,37.2627173 L66.1645421,37.2627173 L66.1645421,29.8959271 C64.3252052,29.5784998 63.1060198,28.6843126 62.3147712,27.3694395 C61.0821825,25.3221388 60.8582478,22.2781404 60.8582478,18.8696275 L60.8582478,12.1540005 C60.8582478,11.4166353 60.9340348,10.6975024 61.0699212,10 L74.110214,10 C74.2560559,10.4309668 74.4719529,10.8307701 74.7858536,11.173248 C77.1760198,13.7882032 77.2307536,15.5784585 77.2307536,16.6522313 C77.2307536,17.5463971 77.4313509,18.7587598 77.4983245,19.1426394 C77.5125035,19.2200992 77.5216833,19.2751377 77.5216833,19.2751377 C77.5216833,19.2751377 77.5346988,19.2197145 77.5542219,19.1426394 C77.7505957,18.3559 78.8962998,14.0012179 80.066117,14.6770682 C82.1944658,15.9068936 81.9950321,23.7969014 81.9950321,23.7969014 L81.9950321,23.7969014 Z M71.3027993,15.4357006 C71.2419241,16.0655966 71.5072108,16.6089486 71.8903907,16.650329 C72.2762427,16.6924788 72.6326375,16.2144461 72.695409,15.5883334 C72.7581805,14.9595489 72.4917518,14.4169663 72.1078176,14.3748379 C71.7219656,14.3345904 71.363653,14.8099513 71.3027993,15.4357006 Z M63.2863183,15.4357006 C63.225443,16.0655966 63.4918718,16.6089486 63.8739097,16.650329 C64.2609037,16.6924788 64.617277,16.2144461 64.6800701,15.5883334 C64.7428416,14.9595489 64.4764128,14.4169663 64.0924787,14.3748379 C63.7054631,14.3345904 63.3471719,14.8099513 63.2863183,15.4357006 Z M65.0506009,81.0686568 C63.3157754,82.0038396 61.4906175,83.2807522 59.6149279,84.9874773 C57.2905931,86.6964682 54.4303624,89.3543213 52.5921676,91.1267292 C51.8101202,91.8800395 51.2187147,92.4696879 50.9270092,92.7612953 C50.7995483,92.8888776 50.7233735,92.9663375 50.7233735,92.9663375 C50.7233735,92.9663375 48.6520642,94.6138135 46.8341683,96.5419107 C46.3116541,97.0966338 45.8113352,97.6730089 45.3856826,98.2417962 C44.5561634,97.8438738 43.6183185,97.614914 42.6226584,97.614914 C39.9649213,97.614914 37.7114174,99.2153242 36.8861001,101.441462 C36.6694489,102.027328 36.5458022,102.653056 36.5458022,103.306891 C36.5458022,106.451134 39.2670865,109 42.6226584,109 C45.6073116,109 48.0859138,106.981939 48.5973304,104.322568 C48.661244,103.992231 48.6995361,103.653558 48.6995361,103.306891 C48.6995361,103.056685 48.6761773,102.812528 48.6428845,102.570658 C48.8361983,102.552448 49.039834,102.525495 49.2404098,102.498136 C50.6514007,102.311347 52.2392421,101.925565 53.9289014,101.390207 C54.0766397,101.343889 54.2247873,101.295669 54.374465,101.24668 C54.4077578,101.235672 54.4391543,101.225413 54.4736108,101.214405 C60.2488275,99.3037918 67.0476532,95.7844111 71.7816772,92.728657 C73.3557275,91.7129578 74.7058431,90.7474023 75.7072352,89.9116948 C75.9817017,89.6755319 76.2347271,89.4367186 76.4709015,89.1963664 C82.7586984,82.7863896 75.6184328,75.3694557 65.0506009,81.0686568 L65.0506009,81.0686568 Z" id="color_5" fill="#FFF3E0"></path>
                        <path d="M102.20735,43.6432876 C102.524799,44.7729691 102.707838,45.9867532 102.707838,47.2582556 L93.0257647,103.059183 L92.8621132,104 L54.8811303,104 L54.4398954,101.459276 L54.3874825,101.154953 C54.4205291,101.14387 54.451652,101.133562 54.4858315,101.122479 C60.2146394,99.1987511 66.9588306,95.6552745 71.6548127,92.5785585 C73.2162141,91.5559205 74.5554803,90.5837483 75.5488254,89.7423138 C75.8210863,89.5045326 76.0720785,89.2640612 76.3063763,89.0220619 C82.5432393,82.5666311 75.4603518,75.1000328 64.9778478,80.837127 C63.2569631,81.7787184 61.4464506,83.0643814 59.5858337,84.7828024 C57.280177,86.5035045 54.4429307,89.1795713 52.6195074,90.9641251 L49.6003762,73.5674208 C47.0854952,76.5818131 44.4362046,79.0587066 41.8514468,80.604317 C41.3631428,80.1723338 40.863809,79.7606014 40.3553692,79.3492349 C40.8535487,76.2174906 39.8097145,71.0266756 36.0987196,68.7508923 C35.6324111,68.4657011 34.901088,68.1954022 34,67.9415666 C34.8923454,63.5791876 36.0212545,59.9133663 36.0212545,59.9133663 C36.0212545,59.9133663 37.6449229,56.4650754 39.709463,52.4284109 C39.709463,52.4284109 39.709463,52.4284109 39.709463,52.4272703 C40.2642237,51.343858 40.8497652,50.2172324 41.4455243,49.1036052 C41.4614919,49.0733903 41.4778014,49.0428095 41.493769,49.012616 C41.6000698,48.8134428 41.7067768,48.6150227 41.813099,48.4177648 C41.8643576,48.3225791 41.9156163,48.2277593 41.9668963,48.1337142 C42.057251,47.9678118 42.1468788,47.8038032 42.2372548,47.6390199 C42.3044597,47.5155561 42.3720493,47.3932114 42.4392541,47.2708882 C42.5197546,47.1240746 42.5998703,46.9807258 42.6803708,46.8369681 C42.7555701,46.7012591 42.8311328,46.5659375 42.9063108,46.4325097 C42.982643,46.2968007 43.0582057,46.1633729 43.1333837,46.0311072 C43.2127513,45.8915676 43.2909645,45.7539432 43.3695626,45.6162974 C43.4409571,45.4920589 43.5123515,45.3693484 43.5825917,45.2481658 C43.6649946,45.1067108 43.7473975,44.9660305 43.8286461,44.8272441 C43.8951029,44.7148635 43.9604053,44.6036019 44.0264772,44.4935024 C44.1107826,44.3520474 44.1954513,44.2121419 44.2786237,44.0748835 C44.3420237,43.9716706 44.4031579,43.8695983 44.4654464,43.7683008 C44.5497303,43.6306765 44.6332661,43.4972487 44.7164385,43.3657362 C44.7756703,43.2716911 44.8349021,43.1765054 44.8933857,43.0855163 C44.9757886,42.9559192 45.0570372,42.8316807 45.1386706,42.7070333 C45.1960213,42.6198748 45.2533506,42.5311883 45.3084141,42.4470858 C45.3889146,42.3266564 45.4671279,42.213501 45.544593,42.0999583 C45.5977541,42.0219676 45.6520481,41.9420615 45.7044611,41.8682889 C45.7857097,41.7539714 45.8631748,41.6477026 45.9414095,41.5406591 C45.9877304,41.4768074 46.0359537,41.4103087 46.0811417,41.349513 C46.1654471,41.2371108 46.2478286,41.1350385 46.3283291,41.0329663 C46.3644111,40.9886338 46.401626,40.9389212 46.4358055,40.8965041 C46.5504642,40.758105 46.660976,40.6292611 46.7672982,40.5161057 C46.9241095,40.3471258 47.0847471,40.1903912 47.2483986,40.0386278 C48.7243618,38.0055755 50.8097857,36.7291018 53.1306191,36.7291018 L56.3138079,36.7287145 C56.2887344,36.441608 56.2705223,36.1533609 56.2705223,35.8597551 C56.2705223,31.7703436 58.7439988,28.262419 62.2662686,26.7683935 C63.0519071,28.0922986 64.2605471,28.9918387 66.0851034,29.3121946 L66.0851034,36.7294892 L66.4689876,36.7298551 C66.7534112,37.3530059 67.1141457,37.9363867 67.5409521,38.469689 C68.9003327,40.1659223 70.9770141,41.3128203 73.7861728,41.3128203 C74.3208191,41.3128203 74.8220553,41.2600518 75.3042887,41.1813079 C78.1483751,40.7160537 80.085709,38.9601653 81.1033581,36.7298551 L81.3725837,36.7298551 L81.3725837,26 L96.2043791,26 C101.614627,26 106,30.4151045 106,35.8620578 C105.998098,39.0289883 104.509972,41.8399893 102.20735,43.6432876 L102.20735,43.6432876 Z" id="color_4" fill="#03ACF2"></path>
                    </g>
                    <g id="Group-3" transform="translate(157.000000, 123.000000)">
                        <path d="M115.056205,15.6475484 L122.646942,8.05685108 C123.117686,7.58691566 123.117686,6.82461501 122.646942,6.35389897 C122.176936,5.88203368 121.415726,5.88203368 120.94457,6.35389897 L113.353074,13.9445963 C112.882309,14.4153124 112.882309,15.1768324 113.353074,15.6475484 C113.82384,16.1174839 114.586221,16.1174839 115.056205,15.6475484 Z" id="color_3_4" fill="#357A38"></path>
                        <path d="M98.9435273,28.3525497 L91.3538852,35.9423787 C90.8820383,36.4154594 90.8820383,37.1767172 91.3538852,37.6474991 C91.8238239,38.1175003 92.5860948,38.1175003 93.0560119,37.6474991 L100.647562,30.0545906 C101.117479,29.5845677 101.117479,28.8221605 100.647562,28.3521593 C100.176865,27.8825485 99.4134444,27.8825485 98.9435273,28.3525497 Z" id="color_3_5" fill="#357A38"></path>
                        <path d="M120.94457,37.6474974 C121.415335,38.1175009 122.176936,38.1175009 122.646942,37.6474974 C123.117686,37.1767132 123.117686,36.4150613 122.646942,35.9423686 L115.056205,28.3525026 C114.586221,27.8824991 113.82384,27.8824991 113.353074,28.3525026 C112.882309,28.822506 112.882309,29.584917 113.353074,30.0549205 L120.94457,37.6474974 Z" id="color_3_6" fill="#357A38"></path>
                        <path d="M98.9435273,15.6475484 C99.4134444,16.1174839 100.176496,16.1174839 100.647562,15.6475484 C101.117479,15.1768324 101.117479,14.4153124 100.647562,13.9445963 L93.0560119,6.35389897 C92.5860948,5.88203368 91.8238239,5.88203368 91.3538852,6.35389897 C90.8820383,6.82461501 90.8820383,7.58615672 91.3538852,8.05685108 L98.9435273,15.6475484 Z" id="color_3_7" fill="#357A38"></path>
                        <path d="M116,21.999199 C116,22.5517257 116.53337,23 117.191321,23 L127.808701,23 C128.46588,23 129,22.5523557 129,21.999199 C129,21.4476443 128.466652,21 127.808701,21 L117.191685,21 C116.53337,21 116,21.4476443 116,21.999199 Z" id="color_3_8" fill="#357A38"></path>
                        <path d="M86.1923318,23 L96.8076468,23 C97.4647899,23 98,22.5523557 98,21.999199 C98,21.4476443 97.4659264,21 96.8076468,21 L86.1923318,21 C85.5340736,21 85,21.4476443 85,21.999199 C85,22.5523557 85.5340736,23 86.1923318,23 Z" id="color_3_9" fill="#357A38"></path>
                        <path d="M107,45 C107.551653,45 108,44.4665529 108,43.8092784 L108,33.1914938 C108,32.5323103 107.552301,32 107,32 C106.447717,32 106,32.5311734 106,33.1914938 L106,43.8092784 C106.000972,44.4665529 106.448365,45 107,45 Z" id="color_3_10" fill="#357A38"></path>
                        <path d="M106.999685,13 C107.551329,13 107.999676,12.4688787 107.999676,11.8116421 L108,1.19140357 C108,0.534166953 107.552283,0 107,0 C106.447717,0 106,0.533416266 106,1.19140357 L106,11.8104839 C106.000648,12.4677205 106.448041,13 106.999685,13 Z" id="color_3_11" fill="#357A38"></path>
                        <path d="M31.0562054,15.6475484 L38.6469421,8.05685108 C39.117686,7.58691566 39.117686,6.82461501 38.6469421,6.35389897 C38.1769356,5.88203368 37.4157041,5.88203368 36.9445699,6.35389897 L29.3530742,13.9445963 C28.8823086,14.4153124 28.8823086,15.1768324 29.3530742,15.6475484 C29.8238397,16.1174839 30.5866109,16.1174839 31.0562054,15.6475484 Z" id="color_3_12" fill="#4CAF50"></path>
                        <path d="M13.9435057,28.3525497 L6.35388516,35.9423787 C5.88203828,36.4154594 5.88203828,37.1767172 6.35388516,37.6474991 C6.82380224,38.1175003 7.58607313,38.1175003 8.0560119,37.6474991 L15.6475622,30.0545906 C16.1174793,29.5845677 16.1174793,28.8221605 15.6475622,28.3521593 C15.1764742,27.8825485 14.4134444,27.8825485 13.9435057,28.3525497 Z" id="color_3_13" fill="#4CAF50"></path>
                        <path d="M31.0562054,28.3524888 C30.5862205,27.8825037 29.8238397,27.8825037 29.3530742,28.3524888 C28.8823086,28.8224739 28.8823086,29.5848552 29.3530742,30.0548403 L36.9445699,37.6475112 C37.4153354,38.1174963 38.1769356,38.1174963 38.6469421,37.6475112 C39.117686,37.1767454 39.117686,36.4151231 38.6469421,35.9424489 L31.0562054,28.3524888 Z" id="color_3_14" fill="#4CAF50"></path>
                        <path d="M8.0560119,6.35389897 C7.58607313,5.88203368 6.82380224,5.88203368 6.35388516,6.35389897 C5.88203828,6.82461501 5.88203828,7.58615672 6.35388516,8.05685108 L13.9435057,15.6475484 C14.4134444,16.1174839 15.1764742,16.1174839 15.6475622,15.6475484 C16.1174793,15.1768324 16.1174793,14.4153124 15.6475622,13.9445963 L8.0560119,6.35389897 Z" id="color_3_15" fill="#4CAF50"></path>
                        <path d="M43.8087006,21 L33.1912994,21 C32.5341202,21 32,21.4476443 32,21.999199 C32,22.5517257 32.5333696,23 33.1912994,23 L43.8087006,23 C44.4658798,23 45,22.5523557 45,21.999199 C45,21.4476443 44.4658798,21 43.8087006,21 Z" id="color_3_16" fill="#4CAF50"></path>
                        <path d="M13,21.999199 C13,21.4476443 12.4659273,21 11.8076487,21 L1.19235128,21 C0.534094115,21 0,21.4476443 0,21.999199 C0,22.5517257 0.533322116,23 1.19235128,23 L11.8076487,23 C12.4659273,23 13,22.5523557 13,21.999199 Z" id="color_3_17" fill="#4CAF50"></path>
                        <path d="M22,32 C21.4483469,32 21,32.531152 21,33.1914938 L21,43.8092784 C21,44.4665529 21.4476989,45 22,45 C22.5522831,45 23,44.4665529 23,43.8092784 L23,33.1914938 C22.9993519,32.5323103 22.5519591,32 22,32 Z" id="color_3_18" fill="#4CAF50"></path>
                        <path d="M21.999838,0 C21.4482783,0 21,0.533462914 21,1.19152921 L21,11.8115382 C21,12.4688322 21.4476304,13 21.999838,13 C22.5520456,13 22.999694,12.4688322 22.999694,11.8115382 L23,1.19075701 C22.999046,0.533076813 22.5517217,0 21.999838,0 Z" id="color_3_19" fill="#4CAF50"></path>
                    </g>
                    <g id="Group" transform="translate(80.000000, 49.000000)">
                        <path d="M133.908205,106.717309 L133.908205,73.8539186 C133.908205,44.2890634 112.403972,20.2360631 85.971919,20.2360631 L79.0277175,20.2360631 C52.5956649,20.2360631 31.0914105,44.2890634 31.0914105,73.8539186 L31.0914105,156.898089 C28.0304702,159.632696 25,161 22,161 C19,161 16,159.632696 13,156.898089 L13,73.8539186 C13,33.131071 42.6203787,0 79.028081,0 L85.971919,0 C122.380755,0 152,33.131071 152,73.8539186 L152,106.717309 C149.030598,110.090483 146.030598,111.77707 143,111.77707 C139.969402,111.77707 136.938803,110.090483 133.908205,106.717309 Z" id="color_3_20" fill="#03ACF2"></path>
                        <path d="M5.11797429,217.885171 C3.53081676,219.847851 2.32390725,222.064143 1,224.202869 L1,222.515848 C2.08837203,220.713225 3.15890891,218.901484 4.489638,217.25665 C4.84862926,216.811046 5.47583214,217.444489 5.11797429,217.885171 L5.11797429,217.885171 Z M1.77914384,202.602262 C1.50372545,204.272181 1.25035508,205.946296 1,207.621159 L1,214.001228 C1.47752874,210.270899 2.02417403,206.547805 2.63617212,202.837617 C2.72887643,202.277182 1.87336648,202.037653 1.77914384,202.602262 Z M161.997712,152.630512 L161.997712,141 L30.5916837,141 L12.4995677,141 L1,141 C0.333333333,237.666667 0.333333333,288.666667 1,294 L162,294 L161.997712,152.630512 Z" id="color_2" fill="#01579B" opacity="0.74672154"></path>
                    </g>
                    <g id="Group">
                        <path d="M332.577864,109 C332.391722,109.087138 332.199109,109.167284 332,109.24037 C337.455145,121.830161 341.336833,135.154133 343.434046,149 L344,149 C341.936325,135.195243 338.096836,121.783084 332.577864,109 L332.577864,109 Z" id="color_1_27" fill="#00838F"></path>
                        <path d="M16.5306719,250 C16.3614688,250.108804 16.1832502,250.207383 16,250.300803 C24.2195514,267.334818 35.1825959,283.063986 48.672917,296.894893 C52.8542943,301.182161 57.215871,305.216832 61.7346527,309 C61.8197778,308.80597 61.9128714,308.617075 62,308.423045 C43.0677254,292.570695 27.48272,272.664089 16.5306719,250 L16.5306719,250 Z" id="color_1_28" fill="#00838F"></path>
                        <path d="M101,330.417348 C91.9729147,326.633974 83.3445856,322.139678 75.1978859,317 C75.132253,317.195826 75.0656329,317.391651 75,317.588442 C83.2315014,322.774423 91.8749819,327.258124 100.851586,331 L101,330.417348 Z" id="color_1_29" fill="#0984E3"></path>
                        <path d="M172.458023,0.497992464 C240.213457,0.497992464 298.993984,39.0256697 327.430631,95 C327.612672,94.9123361 327.803818,94.8346819 328,94.762961 C319.728882,78.4457477 308.746583,63.3745119 295.271563,50.1020276 C262.467271,17.7932775 218.85159,0 172.459058,0 C126.066479,0 82.4507983,17.7932775 49.6465056,50.1020276 C43.1805051,56.4703525 37.2959682,63.2589704 32,70.3942127 C32.1678537,70.5097316 32.3276596,70.6322482 32.4803605,70.7607207 C63.9993077,28.207276 115.001218,0.497992464 172.458023,0.497992464 Z" id="color_1_30" fill="#00838F"></path>
                        <path d="M12.1881806,237 C4.1930093,216.829362 0,195.131222 0,172.788133 C0,140.247019 8.88178774,109.071917 25.4818716,82 C25.6477838,82.1147965 25.8198066,82.221395 26,82.32095 C9.8356671,108.695104 0.50900878,139.674168 0.50900878,172.788133 C0.50900878,195.387164 4.85471377,216.99187 12.7511201,236.81821 C12.5566918,236.871001 12.3693925,236.931944 12.1881806,237 Z" id="color_1_31" fill="#00838F"></path>
                    </g>
                    <path d="M303,231.920355 C303,237.034163 301.981242,241.916257 300.145049,246.365759 C300.143911,246.367666 300.143139,246.368822 300.143139,246.370707 C297.278293,253.284483 292.436929,259.170242 286.305732,263.327568 C283.783627,265.038889 281.029723,266.448116 278.114526,267.515328 L278.114526,270.032074 L278.114526,276.746497 L278.114526,283.450618 L278.114526,283.460513 L278.114526,290.164655 L278.114526,296.879057 L278.114526,303.583199 L278.114526,310.2976 L278.114526,317.012002 L278.114526,323.716144 L278.114526,330.430545 L278.114526,337.144968 L278.114526,338.957101 L268.699462,345 L261.432084,337.144197 L258.130661,337.143447 L254.771311,335.794703 L258.130661,330.42941 L254.771311,329.090561 L258.130661,323.715009 L254.771311,322.376159 L258.130661,317.010866 L254.771311,315.662122 L258.130661,310.296851 L254.771311,308.958001 L258.130661,303.582428 L254.771311,302.243578 L258.130661,296.878307 L254.771311,295.529563 L258.130661,290.16427 L254.771311,288.82542 L258.130661,283.460127 L258.130661,283.450233 L254.771311,282.111383 L258.130661,276.746112 L254.771311,275.407262 L258.130661,270.031689 L257.111925,269.015108 C251.496202,267.835284 246.342188,265.408319 241.940063,262.049973 C237.563843,258.709895 233.934532,254.445653 231.351065,249.544542 C230.965592,248.812535 230.606432,248.066821 230.268627,247.307786 C228.172411,242.603758 227,237.399396 227,231.920355 C227,219.64015 232.862031,208.724303 241.940814,201.794549 C245.236506,199.277781 248.952742,197.282636 252.971711,195.944943 C252.972849,195.943786 252.974759,195.943786 252.976669,195.943037 C254.822779,195.328955 256.729499,194.845776 258.686185,194.523529 C258.690371,194.521623 258.694191,194.523529 258.698376,194.521623 C258.712477,194.516675 258.7266,194.514384 258.740701,194.514384 C258.741839,194.514384 258.743749,194.513248 258.745659,194.513248 C260.783539,194.170826 262.871385,194 265.000011,194 C270.76709,194 276.231822,195.286355 281.12122,197.579782 C281.124267,197.580917 281.127315,197.581688 281.130384,197.583958 C283.773346,198.812101 286.244734,200.342315 288.504519,202.113755 C288.505657,202.11489 288.506408,202.11489 288.507567,202.115661 C289.018084,202.525421 289.519457,202.93518 290.009755,203.364729 C290.011665,203.366613 290.014713,203.368905 290.017761,203.371946 C293.80873,206.69187 296.934758,210.746456 299.163272,215.31277 C299.036319,215.440611 298.960447,215.518228 298.960447,215.518228 C298.960447,215.518228 296.897391,217.169044 295.086738,219.101051 C294.566306,219.656898 294.068002,220.234442 293.644024,220.804383 C292.81781,220.405654 291.883702,220.17623 290.89203,220.17623 C288.244861,220.17623 286.000336,221.779885 285.178308,224.010537 C284.96252,224.59759 284.839365,225.224587 284.839365,225.879747 C284.839365,229.030366 287.549807,231.5844 290.89203,231.5844 C293.86477,231.5844 296.333496,229.562247 296.842875,226.897484 C296.906556,226.566477 296.944674,226.227117 296.944674,225.879747 C296.944674,225.629034 296.921408,225.384382 296.888248,225.142022 C297.080791,225.123774 297.283616,225.096767 297.483414,225.069353 C298.888761,224.882185 300.470276,224.495621 302.153203,223.959178 C302.274447,224.48155 302.373949,225.005057 302.454778,225.527451 C302.455916,225.532377 302.455916,225.538481 302.456688,225.544564 C302.819282,227.623794 303,229.751728 303,231.920355 L303,231.920355 Z M273.74556,220.846982 C273.74556,216.397479 270.134171,212.793731 265.675233,212.793731 C261.216274,212.793731 257.604906,216.397479 257.604906,220.846982 C257.604906,225.296506 261.216274,228.900233 265.675233,228.900233 C270.134171,228.900233 273.74556,225.296506 273.74556,220.846982 Z" id="color_3" fill="#4CAF50" opacity="0.601376488"></path>
                </g>
            </g>
        </g>
    </g>
</svg>