<?xml version="1.0" encoding="UTF-8"?>
<svg width="426px" height="330px" viewBox="0 0 426 330" version="1.1" xmlns="http://www.w3.org/2000/svg" xmlns:xlink="http://www.w3.org/1999/xlink">
    <!-- Generator: Sketch 64 (93537) - https://sketch.com -->
    <title>Artwork</title>
    <desc>Created with Sketch.</desc>
    <g id="Forms" stroke="none" stroke-width="1" fill="none" fill-rule="evenodd">
        <g id="Register" transform="translate(-868.000000, -418.000000)">
            <g id="Right-Side" transform="translate(835.000000, 216.000000)">
                <g id="Artwork" transform="translate(33.000000, 202.000000)">
                    <g id="Group-2" transform="translate(6.000000, 270.000000)" fill="#4CAF50">
                        <path d="M377.168881,41.0759214 C375.44419,45.5351524 373.78733,50.0201716 372.174253,54.5207068 C372.149365,54.5895406 372.124458,54.6575135 372.09957,54.725506 C372.066933,54.8175649 372.032598,54.9087825 372,55 L377.691699,55 C377.756934,54.9079411 377.825605,54.8175649 377.891718,54.725506 C381.879358,49.1493199 386.454193,43.9061698 390.99641,38.7981242 C391.034161,36.2165424 390.774919,33.6315365 390.18343,31.0999072 C390.155966,30.9837428 390.122489,30.8701415 390.094147,30.7539967 C386.980447,34.3139659 384.282225,38.1398395 382.712073,42.5758063 C382.443383,43.3339372 381.633819,43.4638762 381.083556,43.185919 C380.679184,42.9819807 380.413949,42.5577663 380.61309,41.9958255 C381.0037,40.892645 381.469853,39.8341927 381.978929,38.8007069 C383.868445,34.9636414 386.49538,31.5620213 389.399632,28.3514063 C388.597818,25.9660538 387.496394,23.6942634 386.166588,21.5601798 C386.05068,21.3743207 385.945097,21.1832764 385.825773,21 C382.607369,27.5666067 379.808718,34.2511389 377.168881,41.0759214 L377.168881,41.0759214 Z" id="color_1_11"></path>
                        <path d="M369.878871,21.9192586 C368.191788,26.4680642 366.511505,31.1056814 364.962442,35.805593 C364.430763,37.4192081 363.915261,39.0387634 363.421051,40.6668796 C363.351189,40.8965475 363.277045,41.1253418 363.208887,41.3558443 C361.959771,45.5307287 360.856328,49.7491356 360,54 L362.853588,54 C364.668462,49.727782 366.694686,45.5785608 368.455061,41.6410122 C368.497664,41.5462604 368.540267,41.4514697 368.581999,41.3558443 C369.37017,39.5911232 370.157469,37.8255674 370.948197,36.0625546 C373.352717,30.6984097 375.793892,25.3547643 378.448916,20.1049971 C379.273723,18.4743185 380.131757,16.8641394 381,15.2590851 C380.520282,14.7562269 380.024386,14.2687238 379.515723,13.7957412 C377.953873,16.3211363 376.388652,18.8456967 374.727976,21.3079434 C374.652146,21.4206517 374.562677,21.5068621 374.468946,21.5786102 C373.608356,22.2377187 372.158991,21.259296 372.862788,20.2160165 C373.9313,18.6322965 374.956317,17.0203896 375.970272,15.4016884 C376.604207,14.3891388 377.236417,13.3757156 377.865276,12.3597687 C377.548319,12.1002058 377.218555,11.8552022 376.893072,11.6067626 C376.158606,11.0449877 375.411314,10.50115 374.63593,10 C372.955686,13.9315114 371.368282,17.9049146 369.878871,21.9192586 L369.878871,21.9192586 Z" id="color_1_12"></path>
                        <path d="M367.952144,22.7963049 C368.529916,21.2337772 369.137024,19.6842764 369.742425,18.1338874 C370.792597,15.4454728 371.869533,12.7674797 373,10.113784 C372.612253,9.8958978 372.219303,9.68843318 371.82376,9.48617935 C370.429003,8.77263607 368.987628,8.15541352 367.511693,7.6406502 C365.304269,14.2162977 363.363709,20.8700479 362.184014,27.7382302 C361.944779,29.133223 359.83497,28.5385806 360.072457,27.1531606 C361.255609,20.260681 363.205673,13.5843507 365.4226,6.98701131 C363.661677,6.50349301 361.861873,6.16494928 360.037896,6 C357.684533,18.1217486 355.213703,30.277328 354.337139,42.4433289 C354.320743,42.6768475 354.299987,42.910366 354.284474,43.1438452 C353.997758,47.428638 353.909667,51.714319 354.103973,56 L357.818397,56 C358.671671,51.6778632 359.771053,47.388728 361.021559,43.1438846 C361.09066,42.9095173 361.165791,42.6777159 361.235737,42.4433486 C363.23073,35.7678867 365.584093,29.2017924 367.952144,22.7963049 L367.952144,22.7963049 Z" id="color_1_13"></path>
                        <path d="M380.198182,23.6623765 C377.079111,30.2050347 374.247973,36.8809022 371.415203,43.5628447 C369.73754,47.520527 367.776974,51.6972041 366,56 L369.702488,56 C371.224058,51.5325049 372.78736,47.081641 374.409912,42.6526866 C376.744399,36.2816989 379.068903,29.8677686 381.924238,23.7297978 C382.606132,22.2633987 383.309737,20.7961431 384,19.3209802 C383.675327,18.8724938 383.339798,18.431875 382.995084,18 C382.042755,19.8737555 381.105438,21.7588441 380.198182,23.6623765 L380.198182,23.6623765 Z" id="color_1_14"></path>
                        <path d="M359,6.01131895 C358.848934,6.00871996 358.698741,6 358.547635,6 C355.916465,5.99485871 353.30799,6.34731665 350.77896,7.00627775 C350.140582,15.6673594 349.793019,24.3327726 350.610421,33.0215768 C350.74316,34.4304438 348.52766,34.4165825 348.396648,33.0215768 C347.600234,24.558786 347.909356,16.1185394 348.515408,7.68345144 C345.877249,8.57882183 343.348219,9.8067246 341,11.3169324 C342.067154,21.7653091 343.475736,32.1712161 345.388209,42.4767077 C345.43098,42.7096517 345.47379,42.9425957 345.517434,43.1755002 C346.324332,47.4688086 347.209861,51.7465231 348.210635,56 L352.979627,56 C352.796215,51.7223052 352.891426,47.4480561 353.184822,43.1755199 C353.200548,42.9425957 353.221496,42.7096517 353.23897,42.4767274 C354.13671,30.2999462 356.628172,18.1456698 359,6.01131895 L359,6.01131895 Z" id="color_1_15"></path>
                        <path d="M331.260386,19 C330.386526,20.2707411 329.605783,21.6022531 328.921613,22.9813205 C330.4814,25.933161 332.034139,28.8894267 333.463067,31.9064432 C334.075208,33.19921 332.154474,34.3308089 331.540556,33.033637 C330.347026,30.5132994 329.070924,28.0360921 327.778147,25.567695 C327.48919,26.3153464 327.22835,27.0744312 327,27.8449893 C329.533754,32.2657219 331.960372,36.7454833 334.348329,41.2472304 C334.473897,41.4832455 334.597767,41.7210226 334.723334,41.9578787 C336.615952,45.5332259 338.4884,49.1191455 340.365241,52.703283 C340.767484,53.4711781 341.18113,54.2329259 341.586907,55 L343,55 C341.679985,50.6479474 340.356455,46.2967759 338.999576,41.9579388 C338.925809,41.7210426 338.852042,41.4841465 338.777376,41.2472905 C336.432433,33.7742802 333.981213,26.3400152 331.260386,19 Z" id="color_1_16"></path>
                        <path d="M339.004197,12 C337.892604,12.8132111 336.832313,13.6911878 335.832065,14.6263576 C336.583576,16.8398187 337.340308,19.0515778 338.161375,21.242303 C338.646746,22.5365608 336.51485,23.0890847 336.034721,21.80913 C335.358877,20.0069212 334.729154,18.1895679 334.108132,16.370551 C333.730646,16.7784186 333.355751,17.1888294 333,17.6135242 C335.981639,25.2790068 338.634543,33.0529865 341.171751,40.8664908 C341.244807,41.0927206 341.317014,41.3189504 341.39007,41.5451611 C342.732146,45.6894823 344.044695,49.8438998 345.354593,54 L346,54 C345.010175,49.8699628 344.133415,45.7147039 343.334933,41.5451611 C343.291443,41.3189313 343.248824,41.0927015 343.206224,40.8664908 C341.398753,31.3155431 340.041864,21.6770941 339.004197,12 L339.004197,12 Z" id="color_1_17"></path>
                        <path d="M326.429604,31 C326.091006,32.859986 325.960908,34.7419822 326.01002,36.6180054 C326.72859,38.0353845 327.523796,39.4223794 328.315613,40.80851 C328.444849,41.0348743 328.570638,41.2629671 328.699875,41.4901572 C329.454627,42.8180163 330.199898,44.1483721 330.858991,45.5117049 C332.216828,48.3169048 333.510077,51.1508371 334.768826,54 L339,54 C338.567487,53.1941847 338.130684,52.3908854 337.699014,51.5850509 C335.8983,48.2164372 334.101055,44.8469784 332.278831,41.4901764 C332.155648,41.2629671 332.030702,41.0357386 331.906637,40.8085292 C330.116287,37.5201206 328.301821,34.2444264 326.429604,31 L326.429604,31 Z" id="color_1_18"></path>
                        <path d="M71.9961264,37.0899259 C72.0370104,34.3214465 71.7550834,31.5479159 71.1111465,28.8324549 C71.0813405,28.707916 71.0446979,28.5859027 71.0140398,28.4613447 C67.6257257,32.2799957 64.6888395,36.3830638 62.9801959,41.1416593 C62.4733974,42.5536614 60.1855417,41.9419303 60.6957875,40.5198066 C62.6982883,34.944141 66.2458968,30.2562241 70.2576962,25.8847153 C69.3096957,23.1036078 67.9902921,20.4571417 66.3685487,18 C62.8652327,25.0440729 59.8184575,32.2143492 56.9462962,39.5344205 C56.6243374,40.3540162 56.3168459,41.1786823 56,42 L67.6171848,42 C69.0694467,40.3473195 70.5336387,38.7114764 71.9961264,37.0899259 L71.9961264,37.0899259 Z" id="color_1_19"></path>
                        <path d="M47.842041,41.0851314 C51.2307575,33.0690027 54.5754371,25.0434153 58.324249,17.2050992 C59.1887409,15.396968 60.0890812,13.6113259 61,11.8316886 C60.4964742,11.2741526 59.9766267,10.7338856 59.44294,10.2091215 C57.8044015,13.0097536 56.1634359,15.8086785 54.4214096,18.5394101 C53.6082354,19.8132792 51.6462465,18.6110571 52.4651082,17.3276704 C54.2861492,14.4726603 55.9988484,11.5451593 57.7115292,8.61681456 C56.628668,7.67865236 55.4977681,6.8026392 54.3236464,6 C52.5645202,10.3619136 50.8991,14.7669803 49.3371491,19.2186539 C46.7363739,26.6314835 44.1420829,34.2488535 42,42 L47.4485057,42 C47.5772263,41.696182 47.7149507,41.3863394 47.842041,41.0851314 L47.842041,41.0851314 Z" id="color_1_20"></path>
                        <path d="M47.3558917,18.4331323 C49.1216433,13.745814 51.0062417,9.10628504 53,4.51450611 C51.0388055,3.42972445 48.9816809,2.52563442 46.8646925,1.80043896 C44.3965072,9.01684762 42.2267001,16.3183492 40.9080756,23.8561125 C40.6404799,25.3872716 38.2814344,24.7341553 38.5472889,23.2142721 C39.8702966,15.6504616 42.0506313,8.32378171 44.5285237,1.08304386 C42.5594235,0.552402921 40.5471917,0.180671874 38.5085405,0 C35.7454395,13.9690224 32.8362316,27.9788634 32,42 L39.248842,42 C41.5982204,33.98371 44.466058,26.1037978 47.3558917,18.4331323 L47.3558917,18.4331323 Z" id="color_1_21"></path>
                        <path d="M53.8015363,40.3805419 C56.5271783,33.5634358 59.2403971,26.699325 62.5755058,20.1317385 C63.372392,18.5626856 64.1933166,16.9928166 65,15.4135039 C64.6206564,14.9332355 64.229738,14.4623526 63.8263963,14 C62.7123232,16.0066109 61.6178041,18.0234427 60.5587973,20.0599392 C56.9171877,27.0607893 53.61141,34.2052186 50.3047233,41.3556134 C50.2069937,41.5675331 50.0995072,41.7863121 50,42 L53.1680715,42 C53.3804183,41.4599021 53.5865231,40.9180748 53.8015363,40.3805419 L53.8015363,40.3805419 Z" id="color_1_22"></path>
                        <path d="M36,0.0130420451 C35.8403329,0.0104437326 35.6814875,0.000936271047 35.5226612,0 C32.745226,-0.00599256221 29.9921536,0.380978838 27.3222969,1.10297507 C26.6491576,10.6006929 26.2810788,20.1035878 27.1441332,29.6315996 C27.2836413,31.1760405 24.94573,31.161297 24.8070436,29.6315996 C23.9666705,20.3520612 24.2927498,11.0958683 24.9322589,1.84575781 C22.147276,2.82748687 19.4782409,4.17451505 17,5.8306243 C18.1924777,17.9644286 19.7807791,30.0471327 21.9867682,42 L29.7896462,42 C30.6031152,27.9789351 33.3730027,13.9829872 36,0.0130420451 L36,0.0130420451 Z" id="color_1_23"></path>
                        <path d="M6.48358049,16 C5.56427942,17.3710589 4.74186688,18.8071063 4.02228225,20.2950853 C5.66371614,23.4797941 7.29756294,26.6688749 8.80164387,29.9237121 C9.44623903,31.3181865 7.42479979,32.5385314 6.7785186,31.1397441 C5.5221673,28.4209826 4.17902441,25.7481464 2.81902134,23.0848417 C2.51482929,23.8912103 2.24014255,24.7105371 2,25.541168 C5.03260911,30.964807 7.91690616,36.4715721 10.7624631,42 L15,42 C12.3482776,33.2669335 9.58361114,24.573707 6.48358049,16 Z" id="color_1_24"></path>
                        <path d="M13.2662122,8 C12.106137,8.90188309 11.000679,9.87693209 9.9556142,10.9149324 C10.740029,13.371272 11.5294107,15.8259285 12.3866547,18.2576022 C12.893054,19.6937977 10.668893,20.3072345 10.1674606,18.8863609 C9.46249758,16.8869117 8.80549165,14.8696063 8.15676391,12.8505984 C7.76289148,13.3032327 7.37154014,13.7584207 7,14.2297818 C10.3461942,23.378752 13.294358,32.6672637 16.1225446,42 L18,42 C15.9347049,30.7596878 14.4163535,19.403649 13.2662122,8 L13.2662122,8 Z" id="color_1_25"></path>
                        <path d="M0.504825941,30 C0.106745908,32.0563812 -0.0456106354,34.1357346 0.0116359445,36.2091271 C1.80247109,39.531142 3.99415829,42.7008287 5.7129627,46.039042 C5.87735237,46.3573809 6.03159893,46.6808096 6.19414058,47 L9,44.4142152 C6.22925293,39.5779958 3.42524153,34.7596586 0.504825941,30 L0.504825941,30 Z" id="color_1_26"></path>
                    </g>
                    <g id="Group-4" transform="translate(0.000000, 82.000000)">
                        <path d="M87.921035,230 L115.42244,229.676258 C115.53565,229.674616 115.636847,229.641404 115.722637,229.589113 C115.967057,229.441394 116.082022,229.12769 115.934489,228.852141 L115.341819,227.74004 C114.503851,226.166478 112.962558,225.056056 111.164793,224.729897 L107.00407,223.975507 C104.846939,223.584602 102.319287,222.952211 101.004433,221.252498 L98.5308212,218 L98.2314829,218.236524 L96.110372,219.913799 C95.4525065,220.434175 94.6437139,220.742898 93.7962875,220.79934 L89.8294165,221.059943 L89.3748217,221.089834 C89.3748217,221.089834 87.3317779,225.545729 87.0032839,229.028109 C86.9835478,229.238083 87.0547501,229.427317 87.1636695,229.589981 C87.327507,229.832299 87.5950958,230.004078 87.921035,230 L87.921035,230 Z" id="color_6" fill="#00838F"></path>
                        <path d="M154.592345,216.34153 L150.96434,216.257728 L150.144531,216.238824 C150.144531,216.238824 147.676505,220.451037 147.016001,223.854825 C146.916122,224.36832 147.295021,224.853027 147.840119,224.894106 L175.365709,226.998167 C175.800589,227.031026 176.120082,226.616129 175.956449,226.229999 L175.470758,225.081417 C174.783585,223.457169 173.348032,222.22643 171.582707,221.746635 L167.494858,220.636685 C165.375598,220.06076 162.909256,219.215366 161.757051,217.423496 L159.593852,214 L159.044467,214.35327 L156.990625,215.673565 C156.283617,216.127898 155.444854,216.361238 154.592345,216.34153 L154.592345,216.34153 Z" id="color_6_0" fill="#00838F"></path>
                        <path d="M121.660783,27.482168 L121.660783,27.482168 C120.991977,26.9866771 120.615537,26.1490647 120.762542,25.2829708 L121.028535,23.7151141 C121.238434,22.479256 122.434935,21.6366298 123.687568,21.8437404 C124.940163,22.050832 125.794213,23.2313285 125.584295,24.4672057 L125.433889,25.3559476 L126.702637,25.5655366 L129.432178,18.4271389 L131.456413,17.7890879 L132.684372,14.356549 L142.716257,16.0116041 L140.915524,26.6370445 C142.379718,25.5554899 144.011341,24.6960874 145.755981,24.1536229 C146.468958,23.9322715 147.213373,23.751164 147.823536,23.3252375 C148.433699,22.9001497 148.885786,22.1497548 148.702223,21.4354099 C148.531432,20.7680003 147.875378,20.3236389 147.617057,19.6847681 C147.232077,18.7331343 147.831207,17.6666593 148.56372,16.9405709 C149.296252,16.2153404 150.204675,15.6183531 150.674616,14.704485 C151.667188,12.7727548 150.231881,10.4435796 148.485541,9.13058878 C146.739201,7.81841768 144.586666,6.94227705 143.288161,5.19499055 C142.188504,3.71517115 141.767024,1.68783535 140.233965,0.647325418 C138.612544,-0.452683075 136.38183,0.00843554375 134.609154,0.850242012 C132.835627,1.69202942 131.179368,2.88510807 129.237582,3.20118822 C127.238853,3.52651439 125.173848,2.87502325 123.1785,3.21628686 C120.189749,3.72689548 117.866422,6.72428088 118.1511,9.70407027 C118.341445,11.7028864 119.535415,13.6941532 118.911668,15.6049512 C118.658429,16.3805104 118.128995,17.0344799 117.747435,17.757213 C116.588322,19.9522352 116.881501,22.6721259 117.914864,24.9274855 C118.777397,26.8106216 120.099687,28.4363374 121.481452,30 L121.5622,29.6881139 C121.510358,28.9653808 121.534144,28.2275491 121.660783,27.482168 L121.660783,27.482168 Z" id="color_6_1" fill="#212121"></path>
                        <path d="M383.671086,242.298716 C383.736423,242.198548 383.805201,242.100211 383.871417,242 L394.245123,242 C395.767008,242 397,243.343659 397,245.000021 C397,246.656384 395.766148,248 394.245123,248 L2.75485733,248 C1.23299181,248 0,246.656362 0,245 C0,243.343638 1.23383247,242 2.75485733,242 L3.68347212,242 L3.29655418,242.421366 L119.128557,242.421366 L223.354722,242.421366 L374.287031,242.421366 C375.351481,242.421366 376.37898,242.265015 377.36691,242 L378.071108,242 C378.03844,242.100211 378.004032,242.199463 377.971383,242.298716 L383.671086,242.298716 L383.671086,242.298716 Z" id="color_6_2" fill="#357A38"></path>
                        <path d="M99.4356833,217.281441 C101.672912,207.778269 103.942812,198.505019 106.828458,189.373838 C106.883409,189.199051 106.940957,189.023384 106.996786,188.848559 C108.366635,184.551638 109.86269,180.284009 111.582064,176.043027 C116.401792,164.155462 119.853429,150.165918 122.716755,136.433864 L140.513376,153.185843 L128.944976,200.826581 L128.818729,201.34583 L121.862223,229.991405 L121.860505,230 L132.599291,230 L236.713216,230 L335,230 C334.871176,229.769216 334.746667,229.53669 334.616964,229.305084 L126.734363,229.305084 L138.417001,181.126163 L144.311122,156.76116 L153.0789,165.014023 C148.727232,176.480512 147.722395,199.582303 150.045527,211.573209 L151.025446,211.651547 L159.388708,212.323203 L160.203715,212.388637 C161.523748,203.396119 164.786416,179.377242 166.911166,169.837907 C168.315343,163.53203 167.110407,156.924747 163.578901,151.519587 L149.69852,134.493789 L154.518247,114.569537 L154.674566,113.922845 C153.262656,113.367414 151.861036,112.78878 150.470586,112.180836 L146.118918,130.103043 L131.360825,112 C131.36598,112.224734 131.367699,112.448606 131.373694,112.673398 C125.616129,117.78234 108.881873,117.902891 100.091775,112.966151 C95.4214731,133.544006 107.025941,157.932269 96.8531264,176.179105 C96.1686612,177.407054 95.5399867,178.674592 94.9456613,179.965391 C94.8709484,180.127275 94.7910801,180.285712 94.7180856,180.449338 C89.8828922,191.221772 88.1472122,203.943777 89.385639,215.597133 L90.3543883,215.759877 L98.6300488,217.147125 L99.4356833,217.281441 L99.4356833,217.281441 Z" id="color_3" fill="#03ACF2"></path>
                        <path d="M132.415078,69.0256116 C133.689343,69.1314654 134.967046,69.2088749 136.251662,69.249311 C135.717784,77.8237178 135.202035,85.8449112 134.967046,87.6732014 C136.615373,89.2382365 138.539274,90.9512046 140.602286,92.7390392 C144.039743,95.7176353 147.886699,98.917329 151.612712,102.051644 C152.918917,103.150324 154.209584,104.241296 155.462241,105.31073 C158.284615,107.721461 160.91433,110.028978 163.084456,112.088695 C163.078406,112.09472 163.07322,112.100726 163.06717,112.107632 C164.815717,113.37236 166.297295,114.947704 167.446296,116.743266 C169.159426,118.390015 169.987027,121.16643 169.999996,123.47651 C170.001701,123.830967 169.467822,123.910998 169.374518,123.608128 C168.959853,122.26511 168.495058,120.930661 167.804821,119.721001 C167.79274,119.699483 167.778028,119.678844 167.765947,119.657344 C167.717566,119.738197 167.669186,119.819069 167.619076,119.894796 C168.578011,121.481292 169.046243,123.481655 169.05573,125.217884 C169.057459,125.57236 168.52358,125.652371 168.430256,125.349521 C168.015591,124.006483 167.550797,122.672034 166.860559,121.462375 C166.775033,121.311801 166.682593,121.166411 166.58756,121.022723 C166.584967,121.024425 166.583239,121.026146 166.580646,121.027887 C167.301153,122.489651 167.657066,124.194911 167.664844,125.702256 C167.666553,126.056712 167.132675,126.136743 167.03937,125.833874 C166.624685,124.490856 166.159911,123.156406 165.469674,121.946747 C165.431664,121.880508 165.390198,121.817692 165.35044,121.753155 C165.279588,121.784142 165.20789,121.81509 165.134465,121.845217 C165.708101,123.193419 165.993181,124.699042 166.000979,126.045522 C166.002688,126.399998 165.468809,126.48001 165.375505,126.17716 C164.96084,124.834122 164.496046,123.499673 163.805808,122.290014 C161.328995,120.704359 159.278947,119.026643 159.266867,116.023105 C157.284214,115.359753 155.322285,114.635347 153.375068,113.873928 C151.954816,113.318973 150.544916,112.740817 149.146271,112.133415 C142.655771,109.317424 136.401991,105.962011 130.503278,102.070542 C130.287302,101.927734 130.075629,101.778882 129.860518,101.634352 C129.98751,90.6922337 130.75467,79.8128916 132.415078,69.0256116 L132.415078,69.0256116 Z M153.39147,215.890244 C154.246749,215.910883 155.087334,215.666564 155.79745,215.1899 L157.85785,213.807287 L158.118769,212.190665 L149.706098,211.519586 L149.751886,215.802486 L153.39147,215.890244 L153.39147,215.890244 Z M94.5960583,219.812662 L96.7324964,218.073871 L97.0003099,217.008741 L88.6757381,215.622685 L88.269716,221 L92.265252,220.729839 C93.1196662,220.672168 93.9334585,220.351242 94.5960583,219.812662 L94.5960583,219.812662 Z M126.128454,46.6397281 L127.454557,46.9769889 L128.716702,42.049655 L129.565931,38.7329373 L131.160692,38.9987943 C134.970522,39.6328994 138.57471,37.0715951 139.212264,33.2782323 L140.333608,26.6017981 L142.164204,15.6983548 L131.965841,14 L130.717505,17.5223412 L128.659698,18.177085 L125.88486,25.5022378 L124.595038,25.2871655 L124.747959,24.3751723 C124.961342,23.1070011 124.093119,21.8956009 122.819738,21.6830718 C121.546357,21.4705623 120.32998,22.3352333 120.116578,23.6034045 L119.846191,25.2122795 C119.696746,26.1010518 120.079433,26.9605583 120.759338,27.4690318 L120.759338,27.4690514 C120.630617,28.233894 120.607301,28.9901682 120.658255,29.7309683 L120.576186,30.0510139 L118.523545,38.0662016 L118.439748,38.3939941 C121.540287,40.5440515 124.007573,43.4598318 126.128454,46.6397281 L126.128454,46.6397281 Z M96.5631732,50.3238136 L85.9743459,58.394931 L85.2875459,58.9180179 L75.0001079,66.7594105 C74.9941698,70.9760709 75.2334615,75.1892881 75.690477,79.379265 C76.84378,89.9626234 79.4329121,100.393725 83.2919681,110.326644 C80.9775638,112.255584 80.9948497,114.899502 81.3533552,117.810998 C80.8592144,119.112739 80.1266264,120.321557 79.3534363,121.497666 C79.1797916,121.762662 79.5823565,122.120581 79.8544915,121.892558 C80.889445,121.026166 81.8699873,119.846594 82.5446872,118.544873 C82.6146557,118.581885 82.684644,118.617157 82.7537679,118.651568 C82.7295676,118.722991 82.7071156,118.795256 82.6803225,118.86664 C82.1861817,120.168381 81.4535937,121.377199 80.6804036,122.553327 C80.5067589,122.818304 80.9093238,123.176223 81.1814588,122.94822 C82.3399672,121.978575 83.4293517,120.616621 84.0988657,119.130756 C84.1014586,119.131636 84.1048962,119.132477 84.1075087,119.132477 C84.0573796,119.296804 84.0038326,119.460289 83.942507,119.622014 C83.4483465,120.923775 82.7157586,122.132593 81.9425684,123.308702 C81.7689238,123.573698 82.1714887,123.931617 82.4436433,123.703594 C83.7783696,122.586838 85.0241128,120.949558 85.6374674,119.201279 C85.7281987,119.19097 85.8214836,119.176337 85.9147881,119.161704 C85.9061452,119.184925 85.8992308,119.209026 85.8905878,119.232247 C85.396447,120.533988 84.6638591,121.742806 83.8906689,122.918915 C83.7170243,123.183911 84.1195892,123.54183 84.3917241,123.313827 C86.1679086,121.827962 87.7834128,119.420675 87.9613593,117.055506 C88.6144714,115.028479 88.8840135,112.886168 88.7440763,110.738713 C88.7526996,110.738713 88.7604782,110.739573 88.7691212,110.739573 C89.0731958,106.312125 89.150943,100.757611 89.1958667,95.0438961 C89.2001882,94.5156447 89.2036453,93.986513 89.2079472,93.4565205 C89.2381975,89.2682652 89.2597852,85.0421365 89.3496326,81.1515472 C89.4127064,78.4284985 89.5068753,75.8602885 89.6623501,73.5975305 C90.6178278,72.9935519 93.4358605,70.9846002 97.0711624,68.3578978 C99.3777684,66.6913715 102.010096,64.7779053 104.713256,62.8102505 C101.651551,58.8913735 99.0719456,54.7142689 96.5631732,50.3238136 L96.5631732,50.3238136 Z" id="color_5" fill="#FFD8D8"></path>
                        <path d="M130.622381,112.114959 C130.617157,111.891926 130.614564,111.669766 130.60932,111.446713 C130.530992,108.025221 130.507502,104.608877 130.546666,101.199334 C130.672865,90.3307281 131.444863,79.5253467 133.117692,68.8114015 C134.401454,68.9165162 135.688698,68.9933995 136.982929,69.0335607 C137.332792,63.4971257 137.690512,57.7291469 137.983836,53.2651536 C138.163131,50.5340954 136.836722,48.0568668 134.70958,46.5947818 C133.229108,44.9643579 131.412665,43.3775148 129.390825,42.0179797 L128.119254,46.9118163 L126.783267,46.5768482 C124.646527,43.4176954 122.160814,40.5217373 119.037119,38.3888419 L119.121542,38.0632778 C115.854233,37.7659062 112.595631,38.4931016 109.707811,40.7456063 C109.467583,40.8883175 109.232599,41.042123 109.005452,41.213901 L96.9989452,50.2358884 C99.526434,54.5973317 102.125305,58.7460392 105.210726,62.6375168 C102.487378,64.591795 99.8345606,66.492253 97.5115792,68.1474498 C94.9753631,81.9931908 96.1085446,96.1371777 97.4506465,111.503973 C97.9093138,111.821843 98.4045328,112.120069 98.9215204,112.404637 C107.828694,117.304457 124.787529,117.184809 130.622381,112.114959 L130.622381,112.114959 Z" id="color_1" fill="#B3E5FC"></path>
                    </g>
                    <g id="Group-3" transform="translate(3.000000, 48.000000)">
                        <path d="M341,263 C341.08865,263.333352 341.17519,263.666704 341.263817,264 L344,264 C343.912417,263.666648 343.825853,263.333296 343.73827,263 L341,263 Z" id="color_3_3" fill="#03ACF2"></path>
                        <path d="M335,263 C335.131266,263.333352 335.262531,263.665436 335.393797,264 L338,264 C337.869667,263.666648 337.741096,263.333296 337.610763,263 L335,263 Z" id="color_3_4" fill="#03ACF2"></path>
                        <path d="M346,263 C346.054124,263.333352 346.108272,263.666704 346.163476,264 L349,264 C348.944771,263.666648 348.891728,263.333296 348.836524,263 L346,263 Z" id="color_3_5" fill="#03ACF2"></path>
                        <path d="M378.6328,243.799391 L380,238 C379.07663,239.519785 378.14315,241.032353 377.170133,242.52006 C376.529211,243.498809 377.849851,244.417413 378.6328,243.799391 L378.6328,243.799391 Z" id="color_3_6" fill="#03ACF2"></path>
                        <path d="M356.073206,263 C356.049583,263.333352 356.021261,263.666704 356,264 L358.928002,264 C358.949263,263.666648 358.977584,263.333296 359,263 L356.073206,263 Z" id="color_3_7" fill="#03ACF2"></path>
                        <path d="M373.368732,264 L375,259 C373.997462,260.665328 373.000328,262.333058 372,264 L373.368732,264 L373.368732,264 Z" id="color_3_8" fill="#03ACF2"></path>
                        <path d="M364.257528,263 C364.173425,263.333352 364.083088,263.665436 364,264 L366.741433,264 C366.825513,263.665436 366.915873,263.334564 367,263 L364.257528,263 Z" id="color_3_9" fill="#03ACF2"></path>
                        <path d="M152.821885,139.100114 C151.578229,138.030263 150.296837,136.940642 149,135.842397 L158.571025,96.4255255 C161.054046,86.1982793 170.191056,79 180.689221,79 L191.414661,79 L329.295643,79 L329.744225,79 L397.085141,79 C407.393767,79 414.980065,88.6803043 412.540767,98.7243631 L379.784597,233.622133 C379.04528,233.056263 378.293053,232.508421 377.512567,232.0036 C375.824619,235.965653 374.225873,239.968165 372.727503,244.011937 C371.029258,248.594066 369.337898,253.265638 367.778604,258 L372.409291,238.813173 C373.452252,236.149701 374.521815,233.496593 375.644519,230.867517 C375.259415,230.651654 374.869163,230.446116 374.476336,230.24574 L378.829999,212.205301 L387.882098,174.643495 L404.90903,104.341106 C407.209338,94.7751963 400.054481,86.0658556 390.331673,86.0658556 L182.881449,86.0658556 C172.830989,86.0658556 164.084251,92.5572364 161.706716,102.445621 L155.213988,129.21345 L152.821885,139.100114 L152.821885,139.100114 Z" id="color_3_10" fill="#03ACF2"></path>
                        <path d="M383.850546,263.919122 C384.240822,262.819044 384.706575,261.763569 385.215215,260.73299 L384.376329,264.179108 L384.367748,264.179108 C384.367748,264.49232 384.342882,264.798665 384.32057,265.105868 C383.915725,264.902503 383.651537,264.479462 383.850546,263.919122 L383.850546,263.919122 Z M422.346971,108.162859 L389.399286,243.541835 C389.283477,243.356479 389.177985,243.165972 389.058763,242.983211 C385.842219,249.531367 383.045967,256.197956 380.40843,263.002683 C378.685217,267.449352 377.029757,271.921756 375.418082,276.409632 C375.164172,276.489452 374.9017,276.549488 374.640944,276.613855 C373.655395,276.856691 372.630411,277 371.568489,277 L221,277 L233.814706,264.179108 L331.977571,264.179108 C332.728966,265.52805 333.470902,266.879548 334.127063,268.264527 C335.478859,271.114248 336.766355,273.993176 338.019505,276.887557 L342.231914,276.887596 C341.801325,276.068967 341.366465,275.252913 340.936715,274.434284 C339.144013,271.012204 337.354762,267.589227 335.540645,264.179147 L337.992942,264.179108 C339.841364,267.662999 341.670089,271.157192 343.503085,274.649648 C343.895955,275.397901 344.299922,276.140163 344.696224,276.887557 L346.07632,276.887596 C344.787109,272.646848 343.494484,268.406978 342.16929,264.179147 L344.420022,264.179108 C345.7435,268.407817 347.03786,272.646848 348.329626,276.887557 L348.96607,276.887596 C347.989961,272.673462 347.125351,268.433592 346.337934,264.179147 L348.54063,264.179108 C349.333157,268.433572 350.202935,272.672603 351.185909,276.887557 L355.870059,276.887596 C355.689909,272.648585 355.783426,268.413007 356.071604,264.179147 L358.198823,264.179108 C357.914078,268.414705 357.826587,272.651141 358.019551,276.887557 L361.708712,276.887596 C362.55616,272.615104 363.648078,268.375234 364.890072,264.179147 L367.154535,264.179108 C365.897094,268.375234 364.786296,272.615104 363.924261,276.887557 L366.796868,276.887596 C368.623837,272.593661 370.663566,268.423309 372.435673,264.465727 C372.47856,264.370493 372.521448,264.27522 372.563457,264.179108 L373.650246,264.179108 L374.945445,258.858886 C377.36599,253.467449 379.823435,248.096615 382.496175,242.820137 C383.326479,241.181162 384.190212,239.56281 385.064261,237.94957 C384.581326,237.444153 384.082126,236.954169 383.570072,236.47878 C381.997833,239.017024 380.42216,241.55443 378.750416,244.029224 C378.674081,244.142486 378.584015,244.229135 378.48966,244.301248 L380.000991,238.092879 C380.639151,237.075177 381.275595,236.056598 381.908626,235.035482 C381.589555,234.774599 381.257594,234.528348 380.929942,234.278645 L413.688076,99.680524 C416.126643,89.6596375 408.53989,80 398.231524,80 L400.230023,80 C407.883671,80 414.466015,83.7378871 418.563454,89.3206899 C422.360701,94.4984607 424.026439,101.262859 422.346971,108.162859 L422.346971,108.162859 Z M387.63147,240.957232 C387.297792,240.51788 386.952997,240.086255 386.598743,239.663195 C385.618343,241.500384 384.655087,243.346158 383.722723,245.210819 C380.517335,251.619958 377.607867,258.159548 374.696683,264.705128 C372.972612,268.582013 370.957769,272.673442 369.131639,276.888435 L372.93659,276.888435 C374.500248,272.512124 376.106814,268.152124 377.774268,263.813566 C380.17336,257.572594 382.562193,251.289575 385.496547,245.276883 C386.199028,243.840453 386.922104,242.403106 387.63147,240.957232 L387.63147,240.957232 Z" id="color_4" fill="#01579B"></path>
                        <path d="M183.836693,0 C184.021566,0.0258550154 184.157425,0.139558322 184.159141,0.316136325 C184.160846,0.492753503 184.019826,0.637463241 183.843575,0.639167321 C182.990611,0.648667081 182.140228,0.668450085 181.292406,0.69861427 C181.288984,0.69861427 181.284683,0.69861427 181.281222,0.69861427 C181.110114,0.69861427 180.968233,0.56252287 180.962231,0.390214862 C180.95533,0.213617272 181.093769,0.0654601982 181.270039,0.0594077741 C182.123003,0.0292827637 182.978568,0.00948017233 183.836693,0 Z M188.33366,0.0491049422 C188.330238,0.0491049422 188.325937,0.0491049422 188.323357,0.0491049422 C188.152248,0.0491049422 188.009507,0.186077763 188.004346,0.358366184 C187.998324,0.534983361 188.136763,0.683120848 188.313034,0.688311438 C189.165998,0.716732368 190.017261,0.755495304 190.864203,0.804600246 C190.870225,0.804600246 190.877107,0.805481667 190.883109,0.805481667 C191.051637,0.805481667 191.191817,0.674541683 191.20212,0.50397693 C191.212443,0.32737934 191.078304,0.176636765 190.902034,0.166294758 C190.04819,0.116308395 189.192665,0.0775454592 188.33366,0.0491049422 L188.33366,0.0491049422 Z M155.976825,4.20727698 C155.15395,4.4527821 154.336236,4.70864882 153.522824,4.97483795 C153.355156,5.0291139 153.26401,5.21000107 153.318204,5.37799991 C153.362037,5.51324906 153.487593,5.59853144 153.621712,5.59853144 C153.654401,5.59853144 153.68793,5.59334085 153.7206,5.58217618 C154.528871,5.31769113 155.341423,5.06444909 156.158277,4.81978621 C156.327665,4.76981943 156.423973,4.59151776 156.373219,4.42181484 C156.323344,4.25295417 156.146214,4.15646795 155.976825,4.20727698 L155.976825,4.20727698 Z M167.224462,1.54285887 C167.050773,1.5738653 166.934719,1.73925905 166.965648,1.91327114 C166.993176,2.06834247 167.127295,2.17773661 167.279498,2.17773661 C167.297563,2.17773661 167.316469,2.17603253 167.335394,2.17256561 C168.172033,2.02438895 169.012093,1.88657388 169.855595,1.75994307 C170.030125,1.73322622 170.150519,1.57041797 170.123871,1.39554405 C170.097224,1.22068971 169.938138,1.10438132 169.760147,1.12676941 C168.912325,1.25512389 168.067123,1.39380079 167.224462,1.54285887 L167.224462,1.54285887 Z M162.815181,2.4249654 C161.977701,2.611905 161.143643,2.80916702 160.313886,3.01763287 C160.142777,3.06070498 160.038747,3.23385523 160.081739,3.40528182 C160.11785,3.55085339 160.247687,3.64733961 160.391288,3.64733961 C160.417075,3.64733961 160.442882,3.64391186 160.46867,3.63785944 C161.293266,3.43195949 162.122162,3.23555931 162.954481,3.04950114 C163.12645,3.01071861 163.234781,2.84017345 163.19609,2.66786544 C163.158259,2.49473477 162.98801,2.38620247 162.815181,2.4249654 L162.815181,2.4249654 Z M174.221884,0.556490033 C174.046473,0.574588544 173.919237,0.73222579 173.938142,0.907961546 C173.955347,1.07249346 174.093767,1.19481511 174.255433,1.19481511 C174.266616,1.19481511 174.277799,1.19395327 174.288963,1.19309144 C175.133324,1.10436173 175.981146,1.02597402 176.83237,0.957928322 C177.00778,0.944138981 177.139319,0.789087237 177.125574,0.61335148 C177.11097,0.43675389 176.961347,0.30667574 176.781655,0.319603248 C175.92439,0.387648948 175.071426,0.466898487 174.221884,0.556490033 L174.221884,0.556490033 Z M130.397289,15.9582052 C129.676743,16.4199131 128.962219,16.8920022 128.254556,17.3718282 C128.108375,17.4708999 128.070544,17.6698856 128.169432,17.816319 C128.23135,17.9076146 128.331958,17.9567196 128.434268,17.9567196 C128.495305,17.9567196 128.558083,17.938621 128.613099,17.9016014 C129.31646,17.4243609 130.026703,16.9557387 130.742068,16.4965771 C130.890811,16.4009724 130.933823,16.2037103 130.838376,16.0546523 C130.743789,15.9065148 130.545172,15.8625808 130.397289,15.9582052 Z M124.589908,19.9777003 C123.902872,20.4893946 123.221897,21.0097072 122.549485,21.5386186 C122.410185,21.6480323 122.386098,21.8487416 122.495309,21.9874185 C122.558087,22.0683917 122.651794,22.110602 122.747241,22.110602 C122.816021,22.110602 122.885661,22.0881747 122.944138,22.0425367 C123.613089,21.5170531 124.288942,21.0002074 124.972498,20.4919605 C125.114398,20.386856 125.143607,20.1861466 125.038717,20.0440028 C124.932126,19.9018786 124.731749,19.871734 124.589908,19.9777003 L124.589908,19.9777003 Z M119.07313,24.394305 C118.423085,24.9524991 117.780761,25.5184693 117.144499,26.0939393 C117.013801,26.2119518 117.003479,26.4143848 117.121292,26.5453248 C117.18407,26.6150941 117.270895,26.6512912 117.3586,26.6512912 C117.435122,26.6512912 117.511644,26.6237321 117.572701,26.5686139 C118.204682,25.9974727 118.843564,25.4349498 119.489309,24.8801834 C119.623447,24.7655987 119.638052,24.5631657 119.523699,24.428798 C119.409307,24.2952333 119.207249,24.2797399 119.07313,24.394305 L119.07313,24.394305 Z M149.28035,6.46684863 C148.47726,6.7692152 147.679332,7.08192378 146.886545,7.40495477 C146.723179,7.47127681 146.644056,7.6582164 146.710275,7.82188648 C146.76099,7.9459318 146.880504,8.021734 147.00606,8.021734 C147.046471,8.021734 147.086883,8.01399708 147.126454,7.99848407 C147.914079,7.67803858 148.706846,7.36705367 149.505634,7.06641077 C149.670741,7.00437832 149.754145,6.82002422 149.692228,6.65463047 C149.62945,6.48837489 149.446317,6.40481618 149.28035,6.46684863 L149.28035,6.46684863 Z M136.466065,12.3556614 C135.71543,12.7665603 134.970798,13.1869589 134.231326,13.6159563 C134.078282,13.704686 134.026688,13.9002243 134.115233,14.053572 C134.17457,14.156091 134.282061,14.2129525 134.392132,14.2129525 C134.446307,14.2129525 134.501323,14.1991632 134.552058,14.1698804 C135.286368,13.7434685 136.02668,13.3256554 136.772173,12.917342 C136.926957,12.8329215 136.983693,12.6382254 136.899429,12.4831932 C136.815165,12.3281023 136.620849,12.270379 136.466065,12.3556614 L136.466065,12.3556614 Z M142.767887,9.18726635 C141.990605,9.5447707 141.218444,9.91175522 140.452325,10.2873189 C140.29412,10.3648644 140.228781,10.5569554 140.306143,10.7154545 C140.362039,10.8282959 140.475532,10.894618 140.593326,10.894618 C140.640639,10.894618 140.688773,10.8842955 140.733486,10.8618879 C141.494443,10.4880283 142.261423,10.1236292 143.034424,9.76871039 C143.19435,9.69463185 143.26487,9.50510675 143.191769,9.34400258 C143.117828,9.1838386 142.928673,9.11404964 142.767887,9.18726635 L142.767887,9.18726635 Z M209.297575,2.94613984 C209.122165,2.90392956 208.953637,3.00903412 208.910644,3.18046071 C208.868512,3.35188729 208.973422,3.52589938 209.143651,3.56724782 C209.971708,3.77224675 210.795404,3.98676503 211.614858,4.21246757 C211.643226,4.22020448 211.671594,4.22367141 211.699963,4.22367141 C211.840103,4.22367141 211.9691,4.13061294 212.007791,3.98850829 C212.054224,3.81794354 211.954476,3.64220778 211.784246,3.5948265 C210.959631,3.36824255 210.129913,3.15202019 209.297575,2.94613984 L209.297575,2.94613984 Z M241.037053,17.3511638 C240.938165,17.4976168 240.976856,17.6966024 241.123878,17.7948123 C241.83066,18.2720332 242.53146,18.7587539 243.225339,19.2532115 C243.281235,19.2928558 243.346574,19.3126584 243.410231,19.3126584 C243.50996,19.3126584 243.608008,19.266139 243.669906,19.1782711 C243.772235,19.0344036 243.738705,18.8345561 243.595104,18.732037 C242.896044,18.2341125 242.191823,17.744826 241.479879,17.2641381 C241.334538,17.1668097 241.136782,17.2038489 241.037053,17.3511638 Z M252.169457,26.0009004 C252.051663,26.1326826 252.061967,26.3342538 252.193544,26.4531477 C252.826385,27.0234271 253.452344,27.6023248 254.07146,28.1880976 C254.133358,28.2466827 254.212461,28.2759655 254.290704,28.2759655 C254.375828,28.2759655 254.460092,28.2423736 254.52285,28.1760319 C254.644085,28.047697 254.638063,27.8452444 254.509947,27.7237846 C253.887409,27.1345449 253.256288,26.5522194 252.620006,25.9785123 C252.49189,25.8587762 252.287251,25.8690986 252.169457,26.0009004 L252.169457,26.0009004 Z M113.872783,29.1839074 C113.263149,29.7860747 112.660396,30.3959592 112.065386,31.0136199 C111.942431,31.1410929 111.946713,31.3435456 112.073109,31.4658868 C112.135007,31.5261956 112.214989,31.5554587 112.294933,31.5554587 C112.378336,31.5554587 112.46176,31.5227286 112.524538,31.4572684 C113.115247,30.843917 113.714539,30.2374602 114.320751,29.6387598 C114.446268,29.5147145 114.447988,29.3122619 114.324173,29.1865125 C114.200377,29.0615858 113.998319,29.0598621 113.872783,29.1839074 L113.872783,29.1839074 Z M246.754168,21.4826189 C246.645837,21.6221773 246.670764,21.8228866 246.810064,21.9314189 C247.481596,22.4569025 248.146246,22.9901426 248.804034,23.5319815 C248.863351,23.5810864 248.934732,23.6052178 249.006952,23.6052178 C249.098959,23.6052178 249.190085,23.5655734 249.253723,23.4880671 C249.365515,23.3510943 249.345729,23.150385 249.20903,23.0375239 C248.546941,22.4922377 247.877989,21.9555503 247.202156,21.4266193 C247.062837,21.3198107 246.863359,21.3422184 246.754168,21.4826189 Z M261.992327,36.1038848 C261.857328,36.2176077 261.840143,36.4191789 261.953635,36.554428 C262.502212,37.2056806 263.041327,37.8646701 263.572738,38.5305543 C263.635516,38.6098234 263.728363,38.6511719 263.82209,38.6511719 C263.89171,38.6511719 263.96223,38.6287642 264.021567,38.5814025 C264.159146,38.4711269 264.181493,38.2695753 264.071461,38.1317407 C263.536628,37.4615473 262.993193,36.7982291 262.442915,36.1426869 C262.328542,36.0073986 262.127325,35.9910433 261.992327,36.1038848 L261.992327,36.1038848 Z M257.257172,30.8826799 C257.130776,31.0058438 257.126475,31.2082964 257.249449,31.3349468 C257.841019,31.9474169 258.425726,32.5676826 259.002671,33.1948038 C259.065449,33.2628495 259.151414,33.2981847 259.237398,33.2981847 C259.3148,33.2981847 259.393023,33.2697442 259.4541,33.2137446 C259.583917,33.0940084 259.591679,32.8915558 259.472165,32.7614777 C258.891759,32.1309091 258.304491,31.5063734 257.70862,30.8904168 C257.586506,30.7638056 257.383568,30.7603583 257.257172,30.8826799 Z M235.479864,13.5099899 C235.32768,13.422122 235.131644,13.4746547 235.043939,13.6271405 C234.955354,13.7804686 235.007828,13.9760069 235.160872,14.0647562 C235.899483,14.4920496 236.632933,14.927922 237.359501,15.3741561 C237.411095,15.4060243 237.468692,15.4206559 237.526309,15.4206559 C237.633799,15.4206559 237.738689,15.36638 237.798886,15.2673279 C237.890893,15.1165657 237.843599,14.9201655 237.693116,14.8271266 C236.960507,14.3791689 236.223636,13.9398687 235.479864,13.5099899 L235.479864,13.5099899 Z M216.094639,4.88350315 C215.927832,4.83010863 215.74726,4.92140425 215.693104,5.08940309 C215.638929,5.25738235 215.730935,5.43826952 215.898603,5.49256505 C216.712035,5.7561491 217.522007,6.03009474 218.326798,6.31352055 C218.362068,6.32644806 218.398178,6.33161906 218.432587,6.33161906 C218.564126,6.33161906 218.687961,6.24978402 218.733514,6.1179822 C218.791991,5.95174621 218.705146,5.76823436 218.538318,5.71051108 C217.729207,5.42449976 216.914093,5.14883046 216.094639,4.88350315 L216.094639,4.88350315 Z M202.381818,1.49201068 C202.212429,1.46098466 202.043041,1.57899713 202.012972,1.75302881 C201.982003,1.9270409 202.098956,2.09243465 202.272646,2.12344108 C203.112706,2.26901265 203.950186,2.4266499 204.783404,2.59292507 C204.80403,2.59723424 204.825536,2.59895791 204.846181,2.59895791 C204.994924,2.59895791 205.128202,2.49385335 205.158311,2.34136752 C205.193561,2.16823685 205.080909,1.99939577 204.907219,1.964942 C204.07056,1.79696275 203.22878,1.6393255 202.381818,1.49201068 L202.381818,1.49201068 Z M229.228776,10.1830958 C229.072291,10.1064317 228.879676,10.1718919 228.802294,10.3312724 C228.724892,10.4897715 228.791091,10.6818625 228.949316,10.759408 C229.717156,11.1341294 230.479834,11.518331 231.236491,11.9111314 C231.283784,11.9352627 231.333658,11.9473284 231.383513,11.9473284 C231.498746,11.9473284 231.609658,11.8844341 231.666414,11.7750204 C231.748117,11.6182254 231.68704,11.4252726 231.530574,11.3434179 C230.768776,10.9463476 230.001797,10.5604027 229.228776,10.1830958 L229.228776,10.1830958 Z M195.381835,0.526345436 C195.209846,0.513417928 195.049921,0.635739573 195.031875,0.812317576 C195.01381,0.988053333 195.141086,1.14484833 195.317337,1.16292726 C196.166,1.24991371 197.011241,1.34726176 197.854723,1.45581365 C197.868506,1.45751773 197.882251,1.45839916 197.896014,1.45839916 C198.05422,1.45839916 198.191799,1.34036709 198.212425,1.17928251 C198.234811,1.00440859 198.111836,0.843324008 197.936426,0.820916328 C197.087763,0.711561365 196.2365,0.614213314 195.381835,0.526345436 L195.381835,0.526345436 Z M222.755884,7.30243572 C222.594238,7.23697552 222.405924,7.31536323 222.340566,7.47989514 C222.274366,7.64358481 222.353469,7.83048524 222.517696,7.89682685 C223.310463,8.2164301 224.098088,8.54635577 224.880552,8.88574202 C224.922684,8.90386012 224.965676,8.91159704 225.007789,8.91159704 C225.131604,8.91159704 225.248538,8.83924217 225.301012,8.7186246 C225.370652,8.55669778 225.296711,8.36803451 225.135065,8.29740331 C224.346599,7.9562738 223.553793,7.62462447 222.755884,7.30243572 L222.755884,7.30243572 Z M90.6466206,64.4143041 C90.3327906,65.2145756 90.0292638,66.0208995 89.7360403,66.8306511 C89.6758433,66.9968871 89.7618474,67.180399 89.9277754,67.2407078 C89.9638858,67.2536353 90.000876,67.2596485 90.0369864,67.2596485 C90.1676837,67.2596485 90.2906389,67.1786753 90.3370722,67.0486167 C90.6285752,66.2440361 90.9303815,65.4429028 91.2416309,64.6477827 C91.3061291,64.4832508 91.2253059,64.297173 91.0610593,64.2334169 C90.8959916,64.1696412 90.7111188,64.2489103 90.6466206,64.4143041 Z M90.1014846,136.436858 C90.137595,136.436858 90.1745656,136.430825 90.210676,136.417036 C90.3766235,136.356727 90.4617674,136.172373 90.4015704,136.006117 C90.1100674,135.205865 89.8280465,134.402127 89.556329,133.591494 C89.5004527,133.424376 89.3198811,133.334804 89.1513333,133.389923 C88.9845256,133.445922 88.8942398,133.627671 88.9501356,133.794789 C89.2235541,134.609731 89.5072955,135.420325 89.800519,136.224945 C89.8487118,136.355885 89.9708068,136.436858 90.1014846,136.436858 L90.1014846,136.436858 Z M109.014654,34.3258628 C108.448012,34.9693785 107.889112,35.6197496 107.337954,36.2778969 C107.224442,36.4131461 107.242507,36.6147368 107.377505,36.7284401 C107.437703,36.7784265 107.509923,36.8034001 107.582144,36.8034001 C107.67329,36.8034001 107.763576,36.7646176 107.827194,36.6888154 C108.374911,36.0349577 108.93037,35.3880143 109.493591,34.748847 C109.610524,34.6161833 109.597621,34.4146121 109.465203,34.2974615 C109.334505,34.1811335 109.131587,34.1932188 109.014654,34.3258628 L109.014654,34.3258628 Z M95.8280623,149.282687 C95.8787771,149.282687 95.9303718,149.270641 95.9776653,149.244786 C96.13329,149.162109 96.1926268,148.968255 96.1092033,148.811479 C95.7102489,148.061155 95.3198773,147.305679 94.9389487,146.545033 C94.8607258,146.386514 94.6689516,146.322778 94.5107463,146.402027 C94.3534011,146.481277 94.2889029,146.674249 94.3688658,146.831044 C94.7514953,147.596842 95.1444281,148.357509 95.5459827,149.113004 C95.6036382,149.221517 95.7145501,149.282687 95.8280623,149.282687 L95.8280623,149.282687 Z M279.648416,66.3654567 C279.482468,66.4266078 279.397324,66.6101196 279.458401,66.7763752 C279.750725,67.5766271 280.032766,68.3812469 280.306184,69.1909986 C280.350897,69.3245241 280.475592,69.4080828 280.608851,69.4080828 C280.642361,69.4080828 280.677631,69.4029118 280.71116,69.3908657 C280.877968,69.3340042 280.968254,69.1530975 280.911498,68.9850986 C280.6372,68.170176 280.352578,67.3604243 280.058534,66.5558437 C279.998356,66.3904303 279.815224,66.3051675 279.648416,66.3654567 L279.648416,66.3654567 Z M281.859068,73.0666262 C281.68968,73.1157312 281.592532,73.293171 281.640666,73.4628935 C281.876273,74.2812635 282.101538,75.1039427 282.316519,75.9300496 C282.35433,76.0739171 282.483327,76.1695219 282.625207,76.1695219 C282.650995,76.1695219 282.678522,76.1660941 282.70603,76.1591995 C282.877139,76.1144037 282.979449,75.9395298 282.934736,75.768965 C282.718054,74.9367861 282.491929,74.1089555 282.254601,73.2854145 C282.204727,73.1157312 282.026736,73.0175213 281.859068,73.0666262 Z M123.006055,180.883823 C122.334504,180.357478 121.670714,179.823376 121.012926,179.280655 C120.877086,179.167814 120.675869,179.188478 120.563217,179.323728 C120.450585,179.459839 120.470331,179.662291 120.606209,179.774271 C121.267438,180.320438 121.93553,180.858849 122.611363,181.386899 C122.66984,181.433399 122.73948,181.454945 122.808279,181.454945 C122.903707,181.454945 122.997453,181.412734 123.060192,181.331761 C123.169422,181.193045 123.144495,180.992355 123.006055,180.883823 L123.006055,180.883823 Z M87.9200606,129.72709 C87.9492891,129.72709 87.9793974,129.723662 88.0086454,129.715043 C88.1780339,129.665938 88.2760618,129.488499 88.2270479,129.319658 C88.1135552,128.925114 88.0103659,128.525419 87.9020347,128.129152 C87.8985938,128.659787 87.8942926,129.189579 87.8899914,129.71851 C87.9011354,129.718491 87.9088775,129.72709 87.9200606,129.72709 Z M276.984594,59.8555556 C276.823789,59.9279104 276.751568,60.1174355 276.823789,60.2785397 C277.170308,61.0529562 277.506524,61.8334251 277.834098,62.619065 C277.885693,62.7422289 278.003506,62.816327 278.128162,62.816327 C278.169434,62.816327 278.210686,62.8085901 278.251098,62.7913534 C278.413624,62.7233077 278.491006,62.5363681 278.423087,62.3726784 C278.094632,61.582749 277.754976,60.7971286 277.405895,60.0174824 C277.333694,59.8547133 277.14454,59.7832007 276.984594,59.8555556 L276.984594,59.8555556 Z M128.330218,185.555413 C128.385234,185.593295 128.447152,185.610531 128.50905,185.610531 C128.611359,185.610531 128.711968,185.561426 128.773885,185.470131 C128.872773,185.323678 128.834063,185.124692 128.687881,185.02564 C127.981099,184.546695 127.281179,184.059975 126.58728,183.564636 C126.443679,183.462978 126.245062,183.49659 126.141873,183.639576 C126.039544,183.783443 126.073074,183.983311 126.216675,184.08581 C126.915774,184.583676 127.619975,185.074706 128.330218,185.555413 L128.330218,185.555413 Z M84.7687194,91.9589056 C84.7850444,91.7831698 84.6560871,91.6272563 84.4797971,91.6108814 C84.3061075,91.5945262 84.1487623,91.7237229 84.1324178,91.9003205 C84.0816834,92.4473499 84.0421321,92.9978071 84,93.5474025 L84.6835755,93.0236621 C84.7128432,92.6678815 84.73605,92.3121008 84.7687194,91.9589056 Z M132.116121,187.997596 C132.84787,188.446396 133.584741,188.886597 134.328494,189.316456 C134.379228,189.345739 134.434283,189.359528 134.48842,189.359528 C134.598491,189.359528 134.705962,189.301805 134.765318,189.199305 C134.853884,189.046819 134.801429,188.850419 134.649225,188.762551 C133.910614,188.334416 133.178025,187.8968 132.450597,187.450566 C132.300114,187.358389 132.103198,187.40577 132.011192,187.556532 C131.918345,187.708156 131.965638,187.904557 132.116121,187.997596 L132.116121,187.997596 Z M92.7394989,142.958844 C92.7824912,142.958844 92.8272039,142.950226 92.869336,142.931285 C93.0301221,142.85893 93.1023429,142.669386 93.0309823,142.508301 C92.6853235,141.733003 92.3491273,140.952534 92.0223741,140.166894 C91.9553147,140.003205 91.7678613,139.929146 91.6044944,139.994606 C91.4419683,140.062652 91.3645861,140.250453 91.4325057,140.413261 C91.7609598,141.204072 92.0988765,141.989712 92.4471161,142.770181 C92.5004508,142.888193 92.6174039,142.958844 92.7394989,142.958844 L92.7394989,142.958844 Z M96.7265993,51.6107045 C96.3043989,52.3593052 95.8916807,53.1130572 95.4884251,53.8728421 C95.4058814,54.0287557 95.4643384,54.22259 95.6199631,54.3052868 C95.6672566,54.3311223 95.7188513,54.3431879 95.7695857,54.3431879 C95.8839581,54.3431879 95.99487,54.2820369 96.0516065,54.1734654 C96.452301,53.4179897 96.8624385,52.6693891 97.2820582,51.9259595 C97.3688834,51.7717695 97.3147276,51.5770734 97.1616641,51.4900674 C97.0086201,51.4030809 96.8134246,51.4573765 96.7265993,51.6107045 L96.7265993,51.6107045 Z M93.4626062,57.9035215 C93.0946008,58.6796812 92.7351781,59.4618738 92.3852377,60.2483559 C92.3138575,60.4094405 92.3860979,60.598946 92.5477442,60.6704587 C92.5898567,60.6893994 92.6337288,60.6980178 92.6775618,60.6980178 C92.800517,60.6980178 92.9166099,60.6273866 92.9699055,60.5076504 C93.3173044,59.7254578 93.6741267,58.9492785 94.0404117,58.1774476 C94.116093,58.0180671 94.0481343,57.8268575 93.8890882,57.7510357 C93.7283021,57.6769571 93.5391673,57.7441606 93.4626062,57.9035215 L93.4626062,57.9035215 Z M266.354334,41.639522 C266.212453,41.7437451 266.180644,41.9435926 266.284694,42.0865983 C266.785997,42.7740283 267.278678,43.468353 267.762776,44.1695723 C267.824694,44.2591639 267.924423,44.307407 268.025012,44.307407 C268.087809,44.307407 268.151427,44.2893085 268.206444,44.2505651 C268.351765,44.1506512 268.387875,43.9507841 268.287267,43.8052125 C267.800607,43.099684 267.304466,42.4001883 266.800582,41.7084687 C266.696552,41.5662857 266.496214,41.5352597 266.354334,41.639522 L266.354334,41.639522 Z M100.419636,45.5650968 C99.9467203,46.2818096 99.4824074,47.0054366 99.0275571,47.7341955 C98.9338304,47.8840762 98.9794034,48.0813578 99.129026,48.175239 C99.1814613,48.2079886 99.2408177,48.2243439 99.2984144,48.2243439 C99.4050447,48.2243439 99.5090747,48.1709494 99.5692522,48.0744632 C100.021522,47.3499743 100.482413,46.6315574 100.952748,45.9191342 C101.049935,45.7718194 101.009484,45.5728337 100.862462,45.4754857 C100.71542,45.3764335 100.516784,45.4169201 100.419636,45.5650968 L100.419636,45.5650968 Z M104.522829,39.7942965 C104.00176,40.4765751 103.489274,41.1648474 102.984549,41.8600339 C102.880519,42.0030396 102.912328,42.2029067 103.05505,42.3071298 C103.111786,42.3484782 103.177164,42.3682808 103.242503,42.3682808 C103.341391,42.3682808 103.438539,42.3226036 103.501317,42.236479 C104.002601,41.5456213 104.512486,40.8616386 105.030114,40.184531 C105.137605,40.0441304 105.110938,39.8434015 104.970797,39.735731 C104.830657,39.6271791 104.63028,39.653896 104.522829,39.7942965 L104.522829,39.7942965 Z M86.4222121,77.9372019 C86.2244358,78.7710849 86.0378622,79.6084152 85.8607316,80.4500352 C85.8246212,80.6231854 85.9346729,80.7928883 86.1075218,80.8290658 C86.129888,80.8333749 86.1522346,80.8359604 86.173721,80.8359604 C86.3216231,80.8359604 86.4540409,80.7325795 86.4858501,80.5818566 C86.6612602,79.7453685 86.8469932,78.9132483 87.0438897,78.0845363 C87.0843013,77.9122283 86.9785508,77.7399594 86.8065816,77.6994728 C86.6354336,77.657243 86.4626237,77.764933 86.4222121,77.9372019 L86.4222121,77.9372019 Z M270.319928,47.4619931 C270.170325,47.5558938 270.125613,47.7531754 270.21932,47.9030562 C270.670749,48.6232163 271.113575,49.3502711 271.547799,50.0833587 C271.607117,50.1841541 271.713747,50.2401537 271.822098,50.2401537 C271.877993,50.2401537 271.933889,50.2255025 271.984604,50.1953579 C272.135928,50.1049045 272.186662,49.9085043 272.096396,49.7568804 C271.659591,49.0194836 271.214203,48.2881392 270.760194,47.5636699 C270.665607,47.4129077 270.468691,47.3689542 270.319928,47.4619931 L270.319928,47.4619931 Z M85.0335747,84.8778437 C84.8951352,85.7237728 84.7670185,86.5714255 84.6492247,87.4242689 C84.6251381,87.5991232 84.7472331,87.7610892 84.9218025,87.7852206 C84.9364265,87.7878061 84.951031,87.7886483 84.9656551,87.7886483 C85.1229807,87.7886483 85.2596997,87.6723595 85.2812056,87.5121368 C85.3981392,86.6653262 85.5253956,85.8219826 85.6629553,84.9820668 C85.6913431,84.8080547 85.5735493,84.642661 85.3998401,84.61424 C85.2235893,84.5815099 85.0610827,84.7038316 85.0335747,84.8778437 L85.0335747,84.8778437 Z M88.2932274,71.110283 C88.0378544,71.928653 87.7919244,72.7513321 87.557197,73.5774391 C87.5090628,73.7471616 87.6070712,73.9246014 87.7764401,73.9728445 C87.8056686,73.9805814 87.8357769,73.9848906 87.8641452,73.9848906 C88.0025847,73.9848906 88.1307013,73.893595 88.1711129,73.7531552 C88.4049996,72.9313575 88.6483293,72.1146916 88.9028422,71.301473 C88.9552775,71.1326515 88.8615508,70.9534488 88.6939023,70.9009161 C88.5236536,70.8466793 88.3457019,70.9414419 88.2932274,71.110283 Z M273.869383,53.5437783 C273.713739,53.6264752 273.654422,53.8211713 273.737826,53.9770848 C274.13766,54.7265473 274.529752,55.482023 274.911521,56.2426697 C274.967417,56.354669 275.080049,56.4192869 275.196983,56.4192869 C275.245977,56.4192869 275.294151,56.4080831 275.340564,56.3848136 C275.498789,56.305564 275.561567,56.1126112 275.482464,55.9549739 C275.098955,55.1891562 274.705162,54.4293517 274.302747,53.6747183 C274.217603,53.5187851 274.022447,53.4610618 273.869383,53.5437783 L273.869383,53.5437783 Z M200.815189,176.409476 L233.822089,176.409476 C236.522862,162.495462 241.126478,149.249937 247.156583,138.042572 C240.414515,136.449766 234.082643,134.19278 228.320796,131.330198 C213.9992,143.390407 204.250272,159.371882 200.815189,176.409476 L200.815189,176.409476 Z M316.194409,127.16948 L314.986323,126.01427 C314.83758,125.876435 314.688818,125.73862 314.538355,125.602509 L313.885728,125.027921 C313.743848,124.903876 313.602828,124.77983 313.459227,124.65837 C313.313045,124.533463 313.165182,124.412003 313.01728,124.290544 L312.748143,124.068288 C312.617446,123.959756 312.486748,123.852086 312.35349,123.7461 L311.729251,123.257675 C311.561564,123.127597 311.392195,122.995775 311.222806,122.867441 C311.037914,122.728744 310.85048,122.593495 310.664767,122.457384 C310.420557,122.277339 310.246027,122.148984 310.068896,122.023216 C309.899508,121.903479 309.728399,121.787171 309.55815,121.67002 L309.394764,121.557179 C309.227096,121.44089 309.059428,121.325463 308.890039,121.212622 L308.210765,120.770697 C308.037075,120.657855 307.863385,120.544975 307.687995,120.43558 L306.93734,119.978162 C306.779135,119.881676 306.62093,119.78519 306.460124,119.691309 L305.787712,119.307969 C305.595977,119.198555 305.405083,119.088299 305.210767,118.982333 L304.434325,118.568848 C304.270098,118.480099 304.10501,118.393113 303.939063,118.30783 L303.168623,117.92449 C302.994933,117.837504 302.822104,117.75134 302.647573,117.667781 L301.927888,117.33527 C301.730991,117.243955 301.533234,117.150916 301.333738,117.06393 L300.506581,116.708149 C300.337173,116.635794 300.166943,116.562558 299.996675,116.492789 L299.198727,116.17579 C299.013014,116.102554 298.827281,116.028476 298.640688,115.957844 L297.797167,115.649445 C297.620896,115.584847 297.443766,115.520229 297.265794,115.458196 C297.109309,115.40392 296.953685,115.35223 296.79718,115.300579 L296.389624,115.165329 C296.217635,115.107606 296.044825,115.049021 295.870275,114.993883 L295.054301,114.745793 C294.855684,114.684642 294.657048,114.623471 294.456691,114.565767 L293.565896,114.321104 C293.386185,114.271138 293.206493,114.22119 293.025061,114.174651 L292.158333,113.960153 C291.963138,113.911929 291.768802,113.863666 291.571906,113.818009 C291.409399,113.780108 291.245172,113.745654 291.081786,113.710319 L290.681952,113.623313 C290.488476,113.580241 290.296741,113.537169 290.101546,113.497563 L289.117884,113.3089 C288.951956,113.277032 288.785989,113.244282 288.619162,113.214999 C288.435169,113.183131 288.250316,113.153848 288.065424,113.124546 L287.649284,113.0565 C287.471274,113.026356 287.292442,112.996191 287.113611,112.968632 L286.09812,112.829074 C285.932192,112.805824 285.764505,112.781693 285.596817,112.761028 C285.423128,112.739483 285.248597,112.720542 285.074908,112.701601 C291.404218,116.239527 296.003534,124.611009 298.172914,136.673784 C305.334582,135.135254 312.342307,132.959241 319.016435,130.202646 L318.586513,129.703859 C318.446372,129.542775 318.304492,129.38598 318.161751,129.229224 L317.982059,129.03108 C317.860824,128.896713 317.74043,128.762306 317.616615,128.630504 C317.464431,128.466834 317.310507,128.305749 317.155763,128.145507 L316.617489,127.587313 C316.477309,127.447715 316.335429,127.308157 316.194409,127.16948 L316.194409,127.16948 Z M329.980331,177.865328 L296.976872,177.865328 C294.27696,191.775875 289.674184,205.019695 283.644119,216.229627 C290.385287,217.822433 296.716338,220.078538 302.476445,222.941119 C316.796301,210.882634 326.543509,194.902021 329.980331,177.865328 L329.980331,177.865328 Z M330.257171,176.409476 C333.320807,159.374448 329.670763,143.395578 319.961386,131.34056 C313.067135,134.224667 305.822082,136.491976 298.413663,138.086506 C300.207296,149.281806 299.805761,162.511837 297.25117,176.409476 L330.257171,176.409476 L330.257171,176.409476 Z M277.883131,112.285492 L277.77306,112.283768 L277.652686,111.854771 L277.656107,112.285492 C268.378374,112.360432 258.064543,121.363345 249.306139,137.01317 C256.646638,138.620647 264.435126,139.436412 272.464362,139.436412 C280.566699,139.436412 288.734356,138.606838 296.748127,136.971841 C293.945925,121.347832 287.082642,112.357847 277.883131,112.285492 L277.883131,112.285492 Z M253.026722,241.993602 C262.335405,241.993602 272.692266,232.988104 281.492783,217.259048 C274.156566,215.651591 266.368938,214.835807 258.337141,214.835807 C250.239985,214.835807 242.070588,215.664499 234.049075,217.299535 C236.8642,233.001012 243.767894,241.993602 253.026722,241.993602 Z M295.784271,176.409476 C298.338862,162.593672 298.754161,149.465298 296.988055,138.385425 C288.862511,140.048862 280.575321,140.891344 272.350909,140.891344 C264.094667,140.891344 256.092959,140.041987 248.561565,138.363879 C242.571872,149.445476 237.990621,162.582448 235.291569,176.408594 L295.784271,176.408614 L295.784271,176.409476 L295.784271,176.409476 Z M329.62433,259.724677 C330.341455,261.170169 331.135062,262.584653 331.925288,264 L123.795381,264 L135.491867,215.80063 L141.392994,191.426147 L150.171165,199.682202 C145.814338,211.153151 144.808311,234.263931 147.134176,246.259503 L148.115257,246.337891 L148.160849,250.626141 L147.342275,250.606319 C147.342275,250.606319 144.87797,255.022923 144.218462,258.591875 C144.118713,259.130286 144.497061,259.638514 145.041318,259.681586 L172.525418,261.887743 C172.959642,261.922197 173.278653,261.487167 173.115267,261.082301 L172.630328,259.877986 C171.944172,258.174924 170.510802,256.884465 168.748137,256.381389 L164.66645,255.21758 C162.550384,254.613709 160.087761,253.727293 158.937292,251.848495 L156.777354,248.258859 L156.228777,248.629291 L156.488471,247.01065 L157.304445,247.07611 C158.626023,238.080073 161.892577,214.051871 164.019826,204.508824 C165.425687,198.200474 164.219322,191.59062 160.683631,186.183377 L146.786797,169.150954 L151.612237,149.218911 L151.768742,148.571968 C153.706836,149.334358 155.659535,150.059689 157.632879,150.72385 C157.645763,153.73114 159.685326,155.410953 162.150492,156.998588 C162.837528,158.210639 163.300101,159.545875 163.712819,160.89059 C163.805705,161.193799 164.337077,161.112826 164.335357,160.758788 C164.327634,159.410626 164.043873,157.903983 163.47293,156.553235 C163.546011,156.523071 163.617372,156.492084 163.687872,156.461058 C163.727443,156.525656 163.768695,156.588531 163.806545,156.654892 C164.493562,157.866924 164.956154,159.202179 165.368873,160.546875 C165.461759,160.850104 165.993131,160.76913 165.99141,160.415093 C165.982808,158.906707 165.628566,157.199317 164.912321,155.734885 C164.914902,155.733161 164.916603,155.731457 164.919203,155.729714 C165.01379,155.873561 165.104917,156.019153 165.190901,156.169915 C165.877937,157.381967 166.34051,158.717202 166.753248,160.061898 C166.846114,160.365126 167.377487,160.284153 167.375766,159.930115 C167.366304,158.191738 166.90027,156.188856 165.945857,154.600378 C165.995731,154.523714 166.043865,154.443583 166.092039,154.36261 C166.104942,154.384156 166.118706,154.40482 166.13073,154.426366 C166.817766,155.638398 167.280339,156.973653 167.693057,158.318349 C167.785943,158.621558 168.317315,158.540585 168.315595,158.186567 C168.302691,155.873601 167.479835,153.093697 165.773907,151.444911 C164.631161,149.647086 163.155678,148.069793 161.415341,146.803465 C161.421343,146.797452 161.426524,146.791419 161.432526,146.784525 C159.272589,144.722235 156.65522,142.411834 153.846116,139.998092 L156.244203,130.093232 L162.753244,103.280876 C165.136726,93.3760151 173.905434,86.8737921 183.981115,86.8737921 L391.951956,86.8737921 C401.699144,86.8737921 408.871995,95.5984691 406.565876,105.179456 L389.496214,175.598862 L380.421399,213.223178 L376.05683,231.293641 C374.668154,230.585546 373.233102,229.973037 371.763622,229.462224 C369.565854,235.987638 367.633762,242.590578 366.459225,249.406332 C366.221038,250.790673 364.120456,250.200571 364.356904,248.825711 C365.534901,241.985865 367.476416,235.360517 369.683648,228.813557 C367.930426,228.333731 366.138513,227.997772 364.322514,227.834083 C361.979444,239.863285 359.519401,251.926021 358.64669,264 L356.51516,264 C357.399933,251.885535 359.853075,239.793477 362.187543,227.722945 C362.0388,227.72036 361.890918,227.711742 361.742136,227.711742 C359.151435,227.706551 356.58308,228.05718 354.092948,228.712742 C353.464408,237.328887 353.12219,245.949341 353.927001,254.593044 C354.057698,255.994621 351.876274,255.980832 351.747297,254.593044 C350.963113,246.174181 351.26748,237.777706 351.864211,229.386402 C349.266628,230.277127 346.776496,231.498659 344.464394,233.001012 C345.515135,243.395178 346.902052,253.747115 348.78511,264 L346.577058,264 C344.790307,254.216599 343.449823,244.343627 342.423991,234.430128 C341.325116,235.263149 340.276957,236.162473 339.288153,237.120401 C340.031066,239.387729 340.779139,241.653314 341.590812,243.897353 C342.070629,245.223108 339.963126,245.789098 339.488491,244.477975 C338.82038,242.631907 338.197862,240.770326 337.583946,238.907042 C337.210779,239.324835 336.840173,239.745234 336.488493,240.180264 C339.436016,248.032295 342.058566,255.995464 344.566743,264 L342.309657,264 C340.014721,256.69067 337.614914,249.418378 334.951953,242.237383 C334.096408,243.480461 333.33201,244.782966 332.662178,246.131971 C334.189275,249.019526 335.709489,251.91139 337.10845,254.862681 C337.707781,256.127285 335.827283,257.234232 335.226251,255.965319 C334.057737,253.499867 332.80836,251.076625 331.542678,248.662002 C331.259777,249.393385 331.004424,250.135934 330.78084,250.889686 C333.261509,255.214113 335.637269,259.596284 337.975158,264 L335.512573,264 C333.725822,260.646409 331.914124,257.305725 330.04653,253.996949 C329.706033,255.892102 329.576196,257.811406 329.62433,259.724677 Z M303.799744,223.656089 C318.40248,211.200513 328.26062,194.729732 331.579629,177.216642 C334.898638,159.699222 331.286425,143.214672 321.40766,130.728913 L321.421423,130.722899 L320.807488,129.978608 C310.689694,117.659124 295.487626,110.858883 278.002646,110.8296 L277.884852,110.826172 L277.762757,110.8296 C260.295842,110.860626 242.558108,117.641025 227.816032,129.920885 L226.991456,130.614328 L226.995757,130.616933 C212.393001,143.07337 202.534862,159.543289 199.215852,177.05638 C195.894263,194.587588 199.513358,211.080757 209.409328,223.569925 L209.398145,223.575096 L209.988873,224.294394 C220.128173,236.648332 235.373233,243.452001 252.914931,243.452001 C270.421378,243.452001 288.202143,236.668996 302.981169,224.351255 L303.804045,223.658654 L303.799744,223.656089 L303.799744,223.656089 Z M210.834975,222.931639 C217.729226,220.047531 224.973419,217.780223 232.384438,216.184831 C230.590805,204.991255 230.99234,191.762967 233.546931,177.866171 L200.53831,177.866171 C197.475554,194.900317 201.126439,210.878324 210.834975,222.931639 L210.834975,222.931639 Z M268.166873,112.969455 C267.975978,112.996172 267.786843,113.026297 267.59765,113.056442 L266.568416,113.216664 C266.359476,113.251138 266.151377,113.289019 265.942456,113.326078 L263.380964,113.819693 C263.177186,113.862765 262.973407,113.909285 262.770489,113.955785 L262.35259,114.048843 C262.165156,114.090192 261.978563,114.13152 261.79197,114.174593 C261.592473,114.221974 261.393015,114.27196 261.193518,114.321907 L260.208997,114.567393 C259.982852,114.625978 259.758428,114.688011 259.534024,114.750023 L258.629465,114.997272 C258.414503,115.057581 258.201243,115.121317 257.988021,115.185054 L257.053354,115.461585 C256.840133,115.527045 256.626012,115.595972 256.411911,115.66488 L255.485006,115.962075 C255.246818,116.041325 255.006949,116.124022 254.768761,116.206738 L253.92524,116.497901 C253.704257,116.576269 253.484134,116.658124 253.264891,116.738235 L252.368054,117.069904 C252.163416,117.14743 251.959637,117.227521 251.7567,117.306771 L250.818631,117.676321 C250.574421,117.775393 250.331092,117.877031 250.086882,117.980412 L249.279511,118.318956 C249.037022,118.423179 248.795393,118.530007 248.552943,118.637697 L247.747272,118.995182 C247.503943,119.105457 247.262314,119.219141 247.019825,119.332864 L246.224477,119.706724 C246.008655,119.810085 245.793674,119.916032 245.579612,120.021998 L244.710304,120.451857 C244.498783,120.558666 244.288983,120.66808 244.078342,120.778355 L240.92442,122.49693 C240.693114,122.62787 240.465269,122.75883 240.236544,122.892336 L235.016411,126.218348 L234.440306,126.61632 C234.205579,126.780852 233.971692,126.949693 233.738666,127.117692 L233.027602,127.629386 C232.828965,127.774957 232.631189,127.923134 232.434292,128.070429 L232.245119,128.211711 C232.038759,128.365901 231.832381,128.519229 231.626882,128.676886 L230.963933,129.190304 C230.722323,129.378086 230.480694,129.565907 230.241666,129.755413 L229.586459,130.284324 C235.193522,133.015965 241.347442,135.171294 247.895135,136.695173 C254.59077,124.666852 262.301855,116.305692 269.908892,112.743635 C269.860757,112.749668 269.813464,112.755701 269.765291,112.760872 L268.166873,112.969455 L268.166873,112.969455 Z M236.330247,239.708214 C236.535765,239.766799 236.743845,239.823641 236.953625,239.879641 L237.764457,240.101034 C237.969976,240.154448 238.177195,240.204415 238.384414,240.255224 L239.217593,240.457657 C239.424812,240.50588 239.632912,240.549834 239.842712,240.59463 L240.687953,240.77726 C240.913237,240.82376 241.138502,240.86599 241.364666,240.907319 L242.176339,241.061528 C242.377556,241.096863 242.582195,241.129574 242.786814,241.162324 L243.680189,241.307895 C243.903753,241.341487 244.129038,241.370789 244.354322,241.400954 L245.200404,241.516381 C245.377535,241.537907 245.553805,241.558571 245.730936,241.576689 C239.398184,238.04131 234.796268,229.666381 232.626888,217.596711 C225.458377,219.136984 218.450613,221.312136 211.781666,224.068731 C211.950194,224.266874 212.083472,224.42365 212.218471,224.576997 C212.337985,224.712246 212.456658,224.84491 212.576173,224.976692 L212.802298,225.226506 C212.930414,225.36865 213.058531,225.510775 213.188368,225.650333 C213.321646,225.7942 213.457485,225.934601 213.592484,226.075021 L214.184933,226.690096 C214.332835,226.839115 214.483279,226.987292 214.632901,227.134587 L215.208126,227.69709 C215.36205,227.843563 215.517675,227.988273 215.67416,228.133002 L215.834085,228.281179 C215.974245,228.412119 216.114405,228.543059 216.257126,228.670532 C216.416212,228.813537 216.575277,228.953096 216.736063,229.093516 L217.333674,229.613828 C217.49618,229.751663 217.662128,229.887754 217.827215,230.023885 L218.000905,230.167753 C218.145366,230.287489 218.288947,230.406383 218.436009,230.523533 C218.584752,230.643269 218.733514,230.757854 218.883137,230.873281 L219.021557,230.980971 C219.2434,231.15326 219.402466,231.279029 219.564992,231.400488 C219.740402,231.532271 219.916672,231.662368 220.093803,231.790723 L220.280396,231.926814 C220.425698,232.032781 220.570139,232.139609 220.718041,232.243832 C220.904635,232.375614 221.093789,232.505712 221.282103,232.634909 L221.895158,233.054426 C222.046482,233.155221 222.199565,233.253411 222.352589,233.353345 L223.096362,233.83229 C223.313904,233.967539 223.535748,234.101907 223.757591,234.23457 L224.320792,234.574838 C224.495342,234.677357 224.671612,234.777271 224.847863,234.877204 L226.840133,235.960059 C227.031027,236.05825 227.224463,236.153894 227.417938,236.248637 L228.129902,236.599227 C228.325938,236.692285 228.520254,236.781857 228.716329,236.871449 L229.448058,237.206565 C229.635492,237.290124 229.825507,237.370235 230.01556,237.451208 L230.78254,237.776844 C230.975155,237.856094 231.16947,237.932758 231.363786,238.00858 L232.140228,238.313532 C232.340566,238.389354 232.543484,238.462551 232.745561,238.535767 L233.516842,238.814884 C233.735244,238.890706 233.957948,238.963061 234.178912,239.036297 L234.479017,239.135369 C234.623459,239.184454 234.76792,239.232717 234.914101,239.279236 C235.122201,239.345558 235.332001,239.407571 235.54094,239.471327 L236.330247,239.708214 L236.330247,239.708214 Z M365.514294,263.998276 L367.786024,263.998276 C368.284726,262.355523 368.804916,260.721369 369.341488,259.093247 L373.983796,239.874489 C373.381044,241.413019 372.77659,242.951569 372.201346,244.501283 C369.842772,250.858718 367.499682,257.374652 365.514294,263.998276 L365.514294,263.998276 Z M261.915805,241.401796 C262.158294,241.371632 262.399922,241.341487 262.641532,241.307033 L265.08091,240.911628 C265.333721,240.867714 265.585634,240.82376 265.837566,240.776379 L269.841031,239.896858 C270.097244,239.833963 270.355218,239.771108 270.610591,239.703905 L272.991492,239.039725 C273.251166,238.963903 273.510821,238.88812 273.769635,238.807989 L274.647526,238.528873 C274.878832,238.455656 275.109278,238.38242 275.340564,238.306637 L275.994051,238.081796 C276.299279,237.978416 276.601965,237.875916 276.904612,237.768226 L277.713743,237.471873 C277.963094,237.381419 278.212465,237.290124 278.460096,237.195361 L279.270068,236.880067 C279.515978,236.784443 279.762769,236.687095 280.008679,236.588023 L280.797145,236.260683 C281.048236,236.15646 281.299289,236.052197 281.54952,235.945389 L282.337986,235.598226 C282.584776,235.489694 282.832407,235.38028 283.079158,235.268301 L283.95963,234.857382 C284.173751,234.758311 284.387852,234.659239 284.601074,234.555897 L285.423949,234.151893 C285.654375,234.03817 285.884821,233.924467 286.114406,233.80904 L289.926957,231.74675 C290.146219,231.620981 290.365482,231.496935 290.583024,231.368581 L291.40588,230.877551 C291.620001,230.750078 291.834102,230.620862 292.047323,230.489902 L297.143641,227.095824 C297.35346,226.945924 297.56326,226.795162 297.77132,226.642715 C297.957053,226.507466 298.140186,226.370493 298.323358,226.232658 L299.165999,225.600347 C299.395585,225.424611 299.62343,225.246289 299.853035,225.067126 C300.085182,224.887962 300.314767,224.70876 300.543473,224.526149 L300.544372,224.526149 L301.209023,223.988619 C295.603719,221.25784 289.45064,219.102511 282.903787,217.578613 C276.204711,229.612947 268.489325,237.976692 260.879688,241.536164 C260.933003,241.53015 260.985458,241.524118 261.039614,241.518065 L261.915805,241.401796 L261.915805,241.401796 Z M295.506532,177.865328 L235.01383,177.865328 C232.459239,191.681113 232.043921,204.807782 233.809186,215.885912 C241.942452,214.222475 250.231382,213.379973 258.451494,213.379973 C266.708576,213.379973 274.708603,214.22935 282.238257,215.907438 C288.226229,204.826703 292.80748,191.691435 295.506532,177.865328 Z" id="color_2" fill="#B2EBF2"></path>
                        <path d="M0,276.99913 L0.385416415,276.607852 L8.58535463,268.282312 L11.187339,265.640755 L12.8035134,264 L13.0193474,264 L17.3266013,264 L19.7915643,264 L21.7349074,264 L24.1467639,264 L32.0991834,264 L34.4296762,264 L41.4827713,264 L43.9537324,264 L49.6810152,264 L52.2787152,264 L55.332913,264 L57.8758122,264 L69.5573512,264 L82.9749681,264 C83.1377151,264.254763 83.4049223,264.434754 83.7312341,264.430404 L111.193444,264.0913 C111.306492,264.08958 111.407545,264.054784 111.493193,264 L117.462873,264 L117.461159,264.008699 L128.170598,264.008699 L232,264.008699 L219.204179,277 L115.382469,277 L0,277 L0,276.99913 L0,276.99913 Z" id="color_7" fill="#01579B"></path>
                    </g>
                    <g id="Group" transform="translate(41.000000, 0.000000)">
                        <path d="M283.481553,93 C283.326435,93.0740672 283.165924,93.1421913 283,93.2043141 C287.545954,103.905637 290.780694,115.231013 292.528371,127 L293,127 C291.280271,115.265956 288.080696,103.865622 283.481553,93 L283.481553,93 Z" id="color_1_27" fill="#00838F"></path>
                        <path d="M14.4499174,213 C14.3064627,213.092206 14.1553643,213.175748 14,213.254918 C20.9687501,227.690524 30.2635052,241.020327 41.7009514,252.741434 C45.2460321,256.374713 48.9438907,259.793925 52.7750316,263 C52.8472029,262.835568 52.9261301,262.675487 53,262.511055 C36.9487237,249.07686 23.7353495,232.206855 14.4499174,213 L14.4499174,213 Z" id="color_1_28" fill="#00838F"></path>
                        <path d="M86,281.500584 C78.3616971,278.257692 71.0608032,274.405438 64.1674419,270 C64.1119064,270.167851 64.0555355,270.335701 64,270.504379 C70.9651166,274.949505 78.2788308,278.792678 85.8744186,282 L86,281.500584 Z" id="color_1_29" fill="#0984E3"></path>
                        <path d="M146.579128,0.424604101 C204.262808,0.424604101 254.305689,33.2745184 278.515267,81 C278.670248,80.925255 278.83298,80.8590446 279,80.7978931 C271.958373,66.8853217 262.608577,54.0351101 251.136601,42.7185709 C223.208622,15.1711103 186.076354,0 146.580008,0 C107.083624,0 69.9513553,15.1711103 42.0233764,42.7185709 C36.5185381,48.1484058 31.5087297,53.9365958 27,60.0203288 C27.1429025,60.1188238 27.2789535,60.2232853 27.4089556,60.332825 C54.2426539,24.0504143 97.6631991,0.424604101 146.579128,0.424604101 Z" id="color_1_30" fill="#00838F"></path>
                        <path d="M10.3130759,202 C3.54793095,184.822425 0,166.344008 0,147.316346 C0,119.603913 7.51535886,93.0547936 21.5615837,70 C21.7019709,70.0977622 21.8475287,70.1885428 22,70.2733252 C8.32248754,92.7338951 0.430699737,119.116065 0.430699737,147.316346 C0.430699737,166.561972 4.10783473,184.960818 10.7894094,201.845185 C10.6248931,201.890143 10.466409,201.942043 10.3130759,202 Z" id="color_1_31" fill="#00838F"></path>
                    </g>
                </g>
            </g>
        </g>
    </g>
</svg>