<?xml version="1.0" encoding="UTF-8"?>
<svg width="370px" height="251px" viewBox="0 0 370 251" version="1.1" xmlns="http://www.w3.org/2000/svg" xmlns:xlink="http://www.w3.org/1999/xlink">
    <!-- Generator: Sketch 64 (93537) - https://sketch.com -->
    <title>Artwork</title>
    <desc>Created with Sketch.</desc>
    <g id="Landing" stroke="none" stroke-width="1" fill="none" fill-rule="evenodd">
        <g transform="translate(-882.000000, -2073.000000)" id="Our-Expertise">
            <g transform="translate(112.000000, 1908.000000)">
                <g id="Illustration-&amp;-Title" transform="translate(629.000000, 0.000000)">
                    <g id="Title/WithDeco" transform="translate(141.000000, 169.000000)">
                        <g id="Artwork">
                            <g id="Group-20" transform="translate(48.000000, 9.000000)">
                                <rect id="Rectangle" fill="#03ACF2" x="17" y="105" width="47" height="53"></rect>
                                <path d="M40.8109074,222.349559 L40.0093074,233.269959 C39.9358859,234.269908 40.2994955,235.252916 41.0064976,235.96639 C41.7135185,236.679732 42.695306,237.054198 43.699718,236.993646 L49.32854,236.653851 C49.8564642,236.621897 50.342882,236.357498 50.655657,235.932375 C50.9684508,235.507083 51.0752167,234.965334 50.9468042,234.453946 L47.8223264,222 L40.8109074,222.349559 Z" id="Path_0" fill="#00838F"></path>
                                <path d="M88.7842781,228.587706 C95.3550961,230.120064 100.048887,232.29791 103.13236,235.245478 C104.230354,236.287244 105.66721,236.901177 107.181199,236.975668 C109.115139,237.077123 110.696375,236.861067 111.884708,236.331947 L111.884858,236.331947 C112.50485,236.059456 112.927524,235.473267 112.989212,234.800686 C113.062521,234.117487 112.758335,233.44855 112.194621,233.053072 L96.6111423,222 L89.9918247,224.639579 L88.447635,226.17891 C88.1087721,226.516874 87.9484996,226.993687 88.0146456,227.466855 C88.0806237,227.940172 88.3655961,228.355008 88.7842781,228.587706 L88.7842781,228.587706 L88.7842781,228.587706 Z" id="Path_1" fill="#00838F"></path>
                                <path d="M66.9775923,48 L22,47.5882519 C22.113031,41.1092917 23.6372642,34.7472021 26.9689579,29.0541287 C29.1571189,25.3151637 29.1099175,21.2459098 28.5826214,17.8177118 C27.7687264,12.5271657 29.6611345,7.11434704 33.86613,3.74665204 C37.0796506,1.16847622 41.1355077,-0.158733405 45.2695315,0.0151567812 L46.1430028,0.0512015065 C51.9237838,0.288742766 57.1854433,3.41843082 60.107223,8.35722878 C61.5685084,10.9519274 62.1579423,13.9388337 61.7900876,16.8865284 C61.504939,19.660035 62.1871748,22.4617999 63.782681,25.2900721 C66.5355451,31.5009787 67.1317221,39.4484588 66.9775923,48 Z" id="Path_2" fill="#212121"></path>
                                <path d="M98,222.681328 L89.13709,225 L45.9792483,130.708485 L48.6767469,222.681328 L39.8138369,222.681328 C30.3434876,179.410632 13.2451146,129.471544 20.9323296,113.705048 L66.7875187,111 L98,222.681328 Z" id="Path_3" fill="#01579B"></path>
                                <circle id="Oval" fill="#FFF3E0" cx="45" cy="21" r="12"></circle>
                                <path d="M57,42 L37,40.8333174 C38.9600307,36.3720782 39.7429229,32.0761366 38.9606851,28 L53.8626768,28 C53.8288623,31.1297553 55.3994196,36.5435594 57,42 L57,42 Z" id="Path_4" fill="#FFF3E0"></path>
                                <polygon id="Path_5" fill="#B3E5FC" points="69 113.914037 26 117 30.414951 40.4359304 37.9017612 38.3144577 46.3481164 40.2429453 54.7944716 36 60.1694575 37.9289608"></polygon>
                                <path d="M32.5857031,170 L3,163.253539 C11.7972977,134.173484 27.6462623,67.6470251 22.530461,43.9391915 L38,37 L32.5857031,170 L32.5857031,170 Z" id="Path_6" fill="#03ACF2"></path>
                                <path d="M18.4791533,85 L7,77.9911046 L16.7897101,49.7864439 C17.8815114,46.8760952 19.9728598,44.4324342 22.7021008,42.8782163 L26,41 L24.0207593,69.4247236 L18.4791533,85 L18.4791533,85 Z" id="Path_7" fill="#03ACF2"></path>
                                <path d="M95,163.682011 C85.6094887,169.078604 62.1363027,172.087061 51.8297361,168.317849 C51.0713575,141.987683 49.5838795,67.509368 54.3577349,36 L71.4701832,42.9539938 L69.9145269,63.8158047 C61.7334361,81.6618969 85.4897186,143.82015 95,163.682011 L95,163.682011 Z" id="Path_8" fill="#03ACF2"></path>
                                <polygon id="Path_9" fill="#03ACF2" points="92.8636262 82 82.6362994 78.470578 69 62.3919335 71.2728963 42 94 74.9410021"></polygon>
                                <path d="M61.0698599,97.6631772 C61.4138547,99.2773251 62.915043,100.289489 64.4260902,99.9261165 L73,97.8503882 L71.7607963,92 L63.1867212,94.0753947 C61.6753803,94.4414365 60.7277377,96.0475377 61.0698599,97.6631772 L61.0698599,97.6631772 L61.0698599,97.6631772 Z" id="Path_10" fill="#FFF3E0"></path>
                                <path d="M55.6563944,17 C48.9303492,14.2768712 42.2873312,14.0797573 35.7345101,16.6152663 L33,7 L58,7 L55.6563944,17 L55.6563944,17 Z" id="Path_11" fill="#212121"></path>
                                <path d="M69,90.6250863 L73.8749757,100 C82.0746108,97.6178253 89.1809268,90.1076956 96,81.25 L94.1249343,75 L82.4999172,78.1250863 L69,90.6250863 L69,90.6250863 Z" id="Path_12" fill="#03ACF2"></path>
                                <path d="M64,71 L62.4286045,71 C62.4286045,49.5017766 57.852445,34.5199515 53.3927959,34.5199515 L53,33 C56.9992568,33 59.5490848,39.2353203 60.983745,44.4662413 C62.9289068,51.5576451 64,60.9809044 64,71 L64,71 Z" id="Path_13" fill="#4CAF50"></path>
                                <path d="M29.5173595,67 L28,67 C28,46.644913 32.4489504,34 39,34 L38.6207346,35.571379 C34.0894493,35.571379 29.5173595,45.2894701 29.5173595,67 L29.5173595,67 Z" id="Path_14" fill="#4CAF50"></path>
                                <circle id="Oval_15" fill="#4CAF50" cx="64" cy="72" r="4"></circle>
                                <path d="M22.5556807,76 L21,76 C21,70.4860755 24.1401416,66 28,66 L28,67.5384325 C24.9978434,67.5384325 22.5556807,71.3343614 22.5556807,76 L22.5556807,76 Z" id="Path_16" fill="#4CAF50"></path>
                                <path d="M35,76 L33.4443384,76 C33.4443384,71.3343614 31.0020039,67.5384325 28,67.5384325 L28,66 C31.8597248,66 35,70.4860755 35,76 L35,76 Z" id="Path_17" fill="#4CAF50"></path>
                                <circle id="Oval_18" fill="#357A38" cx="33.5" cy="76.5" r="1.5"></circle>
                                <circle id="Oval_19" fill="#357A38" cx="21.5" cy="76.5" r="1.5"></circle>
                                <polygon id="Path_20" fill="#00838F" points="2 61 11.7394627 62.7186631 34 94 22.173749 91.2498439"></polygon>
                                <path d="M0.81220187,61 C0.511352826,61.0045122 0.236681978,61.1709179 0.0959145984,61.4342143 C-0.0449862463,61.6976805 -0.0297140438,62.01603 0.135572752,62.2649967 L20.8509522,93.3877323 C20.9665138,93.5617088 21.145128,93.6851631 21.3499204,93.7327966 L30.9881483,95.978254 C31.3208574,96.0558307 31.6673705,95.9217659 31.8588355,95.6412513 C32.0501479,95.3608877 32.046735,94.992658 31.8502365,94.715825 L9.10596116,62.6929429 C8.9813049,62.5167197 8.79113643,62.3968148 8.57723026,62.3594707 L0.967593194,61.0138388 C0.916228258,61.0046633 0.864386661,61 0.81220187,61 Z" id="Path_21" fill="#4CAF50"></path>
                                <path d="M14,82.9550273 L14.5622425,89 L23.4351305,88.0598758 C24.9991642,87.894182 26.1411157,86.4066541 25.9858724,84.7375129 C25.8306291,83.0681928 24.4370707,81.8493684 22.8730556,82.0150821 L14,82.9550273 L14,82.9550273 Z" id="Path_22" fill="#FFF3E0"></path>
                                <path d="M6,82.7403774 C6.02729234,86.7543165 9.34695741,89.9954073 13.4357891,90 L14.9197083,90 L16,81.1615097 L7.05495022,78 L6,82.7403774 Z" id="Path_23" fill="#03ACF2"></path>
                            </g>
                            <g id="Group-21" transform="translate(190.000000, 0.000000)">
                                <polygon id="Path_25" fill="#FFFFFF" opacity="0.896740141" points="0 88 176 88 176 0 0 0"></polygon>
                                <rect id="Rectangle_24" stroke="#03ACF2" stroke-width="7" opacity="0.476632254" x="0" y="0" width="176" height="92" rx="10"></rect>
                                <rect id="Rectangle_26" fill="#B3E5FC" x="18" y="17" width="59" height="59"></rect>
                                <circle id="Oval_27" fill="#01579B" cx="62.5" cy="42.5" r="1.5"></circle>
                                <circle id="Oval_28" fill="#01579B" cx="55.5" cy="36.5" r="1.5"></circle>
                                <path d="M55.5369166,42.6798095 C54.8997954,42.6798095 54.2751307,42.8541914 53.7325748,43.1832748 C53.2548155,42.475633 52.6931239,41.8263139 52.0596111,41.2492128 C52.0669813,41.1583164 52.0736797,41.0670986 52.0736797,40.9741038 C52.0746586,39.6058565 51.2449711,38.3696056 49.966487,37.8345686 C48.6880029,37.2993425 47.2086035,37.568969 46.2092281,38.5194862 C45.281866,38.3897585 44.3412414,38.3817049 43.4115953,38.4953064 C43.4122479,38.4687257 43.4156834,38.4426176 43.4156834,38.4156965 C43.4177947,36.8424598 42.3271553,35.4719628 40.7755891,35.098074 C39.2241956,34.7241852 37.6143778,35.4437561 36.8786031,36.8402101 C36.1430011,38.2366451 36.4721852,39.9475119 37.6757387,40.9818361 C37.096063,41.4711224 36.5701861,42.0189015 36.106841,42.6166471 C34.9320774,41.6537091 33.2553517,41.5631341 31.9809558,42.3937544 C30.7064063,43.2243747 30.1353868,44.7798784 30.5756808,46.2212889 C31.0161284,47.6628696 32.3636508,48.649477 33.8919931,48.6493257 L33.9029525,48.6488342 C33.8972137,48.7906612 33.8919931,48.9326395 33.8919931,49.0757521 C33.8921466,49.9340875 33.9973451,50.7891901 34.2053043,51.6227029 C31.3669241,52.67459 29.6465145,55.5222852 30.061435,58.4813322 C30.4763555,61.4403603 32.9163407,63.7219004 35.9378249,63.976535 C38.9594626,64.2311696 41.7572682,62.3910477 42.6766267,59.5444868 C45.0855379,60.0004054 47.5803391,59.636026 49.7511767,58.5106542 C50.3609667,59.9249924 51.8554137,60.7631748 53.4014138,60.5580152 C54.947414,60.3530258 56.1634048,59.1551336 56.3716903,57.632336 C56.5799567,56.1095384 55.7290031,54.6376715 54.2931148,54.0368633 C55.0431309,52.6349457 55.4644428,51.085246 55.5259573,49.501687 L55.5369166,49.5021786 C57.4495854,49.5021786 59,47.9750328 59,46.0910697 C59,44.2069553 57.4495854,42.6798095 55.5369166,42.6798095 L55.5369166,42.6798095 Z" id="Path_29" fill="#4CAF50"></path>
                                <rect id="Rectangle_30" fill="#00838F" x="36" y="17" width="18" height="2"></rect>
                                <rect id="Rectangle_31" fill="#B3E5FC" x="93" y="17" width="59" height="59"></rect>
                                <circle id="Oval_32" fill="#00838F" cx="133.5" cy="56.5" r="1"></circle>
                                <circle id="Oval_33" fill="#00838F" cx="130.5" cy="53.5" r="1"></circle>
                                <path d="M130.447542,56.4426634 C130.161838,56.4426634 129.881983,56.5208386 129.638648,56.6683754 C129.424469,56.3511544 129.172817,56.0600735 128.888737,55.8014416 C128.892006,55.7606684 128.895085,55.7197258 128.895085,55.6781428 C128.895582,55.0647183 128.523647,54.5105233 127.950421,54.2706678 C127.377367,54.0306616 126.714164,54.1515499 126.266268,54.5776248 C125.850492,54.5195254 125.428846,54.5159848 125.012096,54.5668713 C125.012421,54.5548371 125.013874,54.5432737 125.013874,54.5312395 C125.014868,53.8259671 124.525902,53.2115822 123.830425,53.0439696 C123.134967,52.876357 122.413258,53.1988888 122.08354,53.8250066 C121.75365,54.4509737 121.901311,55.2178673 122.44081,55.6815139 C122.181012,55.9008227 121.945171,56.1464599 121.737513,56.4143952 C121.2109,55.982708 120.459364,55.9420855 119.887936,56.3145433 C119.316679,56.6868316 119.06061,57.3840812 119.258154,58.030256 C119.455545,58.6764496 120.059573,59.1187397 120.744591,59.1187397 L120.749658,59.1184195 C120.747039,59.1819993 120.744591,59.2457298 120.744591,59.3097804 C120.744763,59.6946114 120.791874,60.0779734 120.885102,60.4515611 C119.612823,60.9230798 118.841556,62.199704 119.027533,63.5261034 C119.213509,64.8526724 120.307306,65.8753352 121.661722,65.9894813 C123.016311,66.1036273 124.270502,65.2787474 124.68253,64.0027635 C125.762484,64.2071379 126.880735,64.0437062 127.853925,63.5392676 C128.127259,64.1732575 128.797135,64.5490864 129.490317,64.4570878 C130.183347,64.365108 130.728372,63.8282581 130.821771,63.1456228 C130.914999,62.4630064 130.5336,61.8030083 129.889975,61.5337735 C130.226213,60.9054146 130.414943,60.2105945 130.442648,59.5008211 L130.447542,59.5009906 C131.304867,59.5009906 132,58.8164344 132,57.9718175 C132,57.1273702 131.304867,56.4426634 130.447542,56.4426634 L130.447542,56.4426634 L130.447542,56.4426634 Z" id="Path_34" fill="#E91E63"></path>
                                <circle id="Oval_35" fill="#00838F" cx="139.5" cy="42.5" r="1"></circle>
                                <circle id="Oval_36" fill="#00838F" cx="141.5" cy="37.5" r="1"></circle>
                                <path d="M138.505085,38.7444265 C138.429199,38.465097 138.280308,38.2132711 138.07483,38.0167245 C138.32128,37.7185153 138.532649,37.390996 138.704653,37.0409648 C138.744522,37.0326904 138.784372,37.0242412 138.824222,37.0126648 C139.41053,36.8416213 139.841588,36.3228581 139.918895,35.6954979 C139.99637,35.0679436 139.704965,34.4533253 139.178909,34.1342552 C139.12423,33.7115413 139.015993,33.2982671 138.856742,32.9050186 C138.868224,32.901872 138.879855,32.900221 138.891337,32.8967442 C139.565648,32.7005279 140.023317,32.0506365 139.999082,31.3237503 C139.974846,30.5967087 139.475251,29.9812552 138.789459,29.833889 C138.103685,29.686348 137.409757,30.0451586 137.10975,30.7023338 C136.831248,30.5094388 136.533952,30.3476798 136.22278,30.2193486 C136.49586,29.5838695 136.335318,28.8374432 135.827926,28.382933 C135.320514,27.9282479 134.586269,27.8729492 134.020981,28.2466576 C133.455711,28.620366 133.19316,29.3346658 133.374888,30.0046023 L133.376328,30.0093999 C133.314954,30.0246279 133.253431,30.0401861 133.192206,30.0580752 C132.824448,30.1657009 132.470546,30.3190301 132.138188,30.5145666 C131.350049,29.4022208 129.925542,29.0050099 128.706999,29.557706 C127.488624,30.1104021 126.800924,31.4659887 127.051039,32.822391 C127.301005,34.1787933 128.42197,35.1745787 129.750826,35.2207872 C129.84169,36.3337935 130.294422,37.381731 131.034576,38.1923908 C130.501022,38.6368008 130.319611,39.3969789 130.59125,40.0490263 C130.86289,40.7008989 131.520464,41.0838724 132.197804,40.9843657 C132.874976,40.8846842 133.404547,40.3271905 133.49126,39.6226608 C134.181036,39.7756598 134.895047,39.7660451 135.58084,39.5946715 L135.581943,39.5994691 C135.728609,40.1422398 136.14308,40.5623121 136.669136,40.7014039 C137.195042,40.8404763 137.752495,40.6775519 138.131249,40.2736981 C138.510021,39.8700386 138.652536,39.286867 138.505085,38.7444265 L138.505085,38.7444265 L138.505085,38.7444265 Z" id="Path_37" fill="#AD1457"></path>
                            </g>
                            <g id="Group-22" transform="translate(0.000000, 17.000000)">
                                <path d="M10.8974197,203.843719 C16.9067139,212.128023 29.3808172,213 29.3808172,213 C29.3808172,213 32.1118744,200.440432 26.1025803,192.156109 C20.0932861,183.871977 7.61918283,183 7.61918283,183 C7.61918283,183 4.88812557,195.559416 10.8974197,203.843719 Z" id="Path_42" fill="#AD1457"></path>
                                <path d="M42.4582167,206.895855 C38.5391496,212.41864 30.4038625,213 30.4038625,213 C30.4038625,213 28.6226444,204.626949 32.5417115,199.104164 C36.4609247,193.58136 44.5962118,193 44.5962118,193 C44.5962118,193 46.3772656,201.37307 42.4582167,206.895855 L42.4582167,206.895855 Z" id="Path_43" fill="#AD1457"></path>
                                <circle id="Oval_38" fill="#00838F" cx="299.5" cy="14.5" r="1"></circle>
                                <circle id="Oval_39" fill="#00838F" cx="296.5" cy="14.5" r="1"></circle>
                                <path d="M297.502614,16.4966369 C297.315007,16.703253 297.188078,16.9580234 297.136121,17.2325946 C296.763422,17.1748394 296.385337,17.1619258 296.009619,17.1938353 C295.981982,17.164153 295.954028,17.134639 295.92367,17.1067159 C295.475683,16.69543 294.826241,16.5930016 294.274358,16.8465181 C293.722307,17.1000159 293.374878,17.6604808 293.391874,18.2697739 C293.07622,18.5314128 292.796458,18.8337386 292.559745,19.1690968 C292.551173,19.1609556 292.5437,19.1520098 292.534959,19.1438874 C292.020087,18.6706915 291.249754,18.6124497 290.670235,19.0030178 C290.090696,19.3933988 289.85225,20.1312654 290.093081,20.7890496 C290.333764,21.4470022 290.991293,21.8541333 291.684567,21.7746872 C291.674093,22.1095588 291.698711,22.4445988 291.757974,22.7742114 C291.096456,22.8656166 290.572843,23.3817265 290.469582,24.0443017 C290.366172,24.706877 290.707562,25.3590653 291.309501,25.6492637 C291.911421,25.939462 292.631717,25.7990791 293.081773,25.3038741 L293.084941,25.3001872 C293.129593,25.3445423 293.174543,25.3888974 293.22158,25.4319799 C293.502758,25.6896324 293.813809,25.9125121 294.14823,26.0953412 C293.65669,27.3311265 294.082762,28.744014 295.174322,29.4983126 C296.265863,30.2524615 297.732171,30.1471696 298.705691,29.2444967 C299.67921,28.3418237 299.90066,26.882354 299.238826,25.7295146 C300.097959,25.0859353 300.713558,24.1679345 300.98443,23.1264695 C301.627349,23.3536536 302.342222,23.121042 302.730482,22.5584997 C303.118742,21.995976 303.084601,21.2421453 302.646918,20.717258 C302.209422,20.1923707 301.476585,20.0259735 300.856849,20.3109129 C300.618403,19.6467469 300.234914,19.0448089 299.734168,18.5492858 L299.737671,18.5457673 C300.103046,18.1449994 300.227441,17.5788076 300.064134,17.06077 C299.90066,16.5427512 299.474272,16.1517152 298.945572,16.0352503 C298.417039,15.9189539 297.86689,16.0949145 297.502614,16.4966369 L297.502614,16.4966369 L297.502614,16.4966369 Z" id="Path_40" fill="#F8BBD0"></path>
                                <polygon id="Path" fill="#E91E63" opacity="0.502999442" points="40.4411776 229 16.5588224 229 14 208 43 208"></polygon>
                                <rect id="Rectangle_41" fill="#00838F" x="302" y="0" width="18" height="2"></rect>
                                <rect id="Rectangle_44" fill="#03ACF2" x="0" y="229" width="222" height="1"></rect>
                            </g>
                        </g>
                    </g>
                </g>
            </g>
        </g>
    </g>
</svg>