<?xml version="1.0" encoding="UTF-8"?>
<svg width="368px" height="315px" viewBox="0 0 368 315" version="1.1" xmlns="http://www.w3.org/2000/svg" xmlns:xlink="http://www.w3.org/1999/xlink">
    <!-- Generator: Sketch 64 (93537) - https://sketch.com -->
    <title>Artwork</title>
    <desc>Created with Sketch.</desc>
    <g id="Landing" stroke="none" stroke-width="1" fill="none" fill-rule="evenodd">
        <g transform="translate(-963.000000, -3645.000000)" id="Testimonials">
            <g transform="translate(-187.000000, 3427.000000)">
                <g id="Illustration" transform="translate(926.000000, 0.000000)">
                    <g id="Artwork" transform="translate(224.000000, 218.000000)">
                        <g id="Group-27" transform="translate(301.000000, 156.000000)" fill="#B3E5FC">
                            <path d="M31.8292413,1.00464695 C26.4060925,3.54083792 23.4510375,9.86045229 23.7979885,15.7900046 L23.7979885,15.7900046 C23.9946458,19.155957 25.0945488,22.4366018 25.1690064,25.8090651 L25.1690064,25.8090651 C25.2780956,30.8387758 23.1092107,34.6875888 17.5905426,34.1161652 L17.5905426,34.1161652 C15.2563807,33.8772903 13.0378808,33.0117887 10.7435098,32.5257076 L10.7435098,32.5257076 C8.44726579,32.0382262 5.9019225,31.974692 3.91658442,33.2163586 L3.91658442,33.2163586 C2.79982512,33.9134855 1.94905682,34.9789014 1.32957734,36.1370458 L1.32957734,36.1370458 C-0.702124523,39.9496985 -0.264318975,44.7256921 1.68822521,48.5791607 L1.68822521,48.5791607 C3.64218293,52.4293739 6.93577827,55.4632326 10.4939157,57.9451657 L10.4939157,57.9451657 C13.326771,59.9201196 15.8627497,61.2114234 18.5630865,63.4400944 L18.5630865,63.4400944 C19.7313336,64.4039254 21.016197,65.9108958 20.2665314,67.217952 L20.2665314,67.217952 C19.7955079,68.0361267 18.6721757,68.2949545 17.753982,68.0477484 L17.753982,68.0477484 C16.8371665,67.8023625 16.083755,67.1706601 15.3767427,66.540778 L15.3767427,66.540778 C13.7168346,65.0565259 12.0765745,63.4447501 9.98872014,62.6464933 L9.98872014,62.6464933 C7.902244,61.8477815 5.20003423,62.1130853 3.88004467,63.9030021 L3.88004467,63.9030021 C2.91877366,65.2054026 2.90894963,66.9609794 3.10698517,68.5630588 L3.10698517,68.5630588 C3.98588272,75.702248 8.20799051,82.1391995 13.6475363,86.8989508 L13.6475363,86.8989508 C17.9473529,90.661056 22.9785652,93.4769379 28.1652658,95.8493749 L28.1652658,95.8493749 C33.7981824,98.4250167 36.8707724,98.8832687 42.6506961,96.1457633 L42.6506961,96.1457633 C42.8356565,96.0572003 43.0219951,95.9672022 43.2069555,95.877239 L43.2069555,95.877239 C50.3944369,92.3660854 53.9722578,87.03022 59.4234652,81.430941 L59.4234652,81.430941 C62.0713601,78.7110781 64.7801428,75.8970515 66.1876652,72.3854079 L66.1876652,72.3854079 C67.0763867,70.1618476 67.3802603,67.5764744 66.3562286,65.4118278 L66.3562286,65.4118278 C65.333575,63.2452909 62.7119365,61.741576 60.4259759,62.5087482 L60.4259759,62.5087482 C58.5773615,63.1288639 57.2859606,65.0138546 55.3582239,65.3199744 L55.3582239,65.3199744 C50.2207141,66.1284176 49.8030514,58.1548113 50.7661953,54.9558334 L50.7661953,54.9558334 C52.3188872,49.8064402 58.6452816,48.1278397 62.2923655,44.8388636 L62.2923655,44.8388636 C65.5204084,41.9279078 67.0679409,37.3021912 66.2386936,33.0577154 L66.2386936,33.0577154 C66.1281909,32.494623 65.9647868,31.9088123 65.5583263,31.4997425 L65.5583263,31.4997425 C65.0100181,30.9468716 64.1592497,30.8387758 63.3763662,30.8030706 L63.3763662,30.8030706 C62.0811841,30.7455572 60.6755346,31.0006745 59.2647611,31.2576121 L59.2647611,31.2576121 C56.8317935,31.7010219 54.3819341,32.1430666 52.4673079,30.9681897 L52.4673079,30.9681897 C50.6304258,29.8438953 48.2831534,27.2260374 47.2459758,25.322984 L47.2459758,25.322984 C44.0610456,19.4848301 48.8731254,12.6257868 46.7651283,6.51721828 L46.7651283,6.51721828 C45.346333,2.40355657 40.9112062,0 36.5088027,0 L36.5088027,0 C34.8933854,0 33.2831275,0.324217423 31.8292413,1.00464695 L31.8292413,1.00464695 L31.8292413,1.00464695 Z" id="Path"></path>
                        </g>
                        <g id="Group" transform="translate(322.000000, 178.000000)" fill="#03ACF2" fill-rule="nonzero">
                            <polygon id="Path" points="15.8896395 136.710093 14.1022674 136.710093 14.1022674 0.000700767263 15.8896395 0.000700767263"></polygon>
                            <polygon id="Path" points="14.9957093 37.2500898 0.0023372093 22.1888494 1.26418605 20.9209512 14.9957093 34.7114903 28.7267791 20.9209512 29.9904767 22.1888494"></polygon>
                            <polygon id="Path" points="14.9957093 66.224889 0.0023372093 51.1636486 1.26418605 49.8943488 14.9957093 63.6862895 28.7267791 49.8943488 29.9904767 51.1636486"></polygon>
                        </g>
                        <g id="Group-26" transform="translate(140.000000, 47.000000)" fill-rule="nonzero">
                            <path d="M117.919678,126 L137.074601,185.471849 L140,239.349089 L128.959839,242 L123.560371,216.334537 C123.40638,215.609828 123.324747,214.871586 123.313125,214.130525 L123.038084,195.418555 L103,160.284087 L117.919678,126 Z" id="Path" fill="#357A38"></path>
                            <polygon id="Path" fill="#4CAF50" points="129 241.641697 131.914759 255 144 255 139.734499 239"></polygon>
                            <path d="M132.024398,254.533325 L131,256.737798 L131,268 L163.205935,266.637008 L173,257.95791 L172.339037,257.012223 C170.771352,254.770897 167.713648,254.022735 165.232169,255.273312 L162.611804,256.594918 L154.078481,255.231891 L145.395933,251 L143.59709,251 C143.59709,251 141.064306,255.125864 132.024398,254.533325 L132.024398,254.533325 Z" id="Path" fill="#4CAF50"></path>
                            <path d="M171.352267,256 L163.204522,263.203537 L131,264.563532 L131,268 L163.204522,266.639594 L173,257.979798 L172.339002,257.036215 C172.058423,256.635738 171.716164,256.30106 171.352267,256 Z" id="Path" fill="#C8E6C9"></path>
                            <polygon id="Path" fill="#4CAF50" points="89.6667875 55 78 64.5554326 83.8326844 74 96 65.3331554"></polygon>
                            <path d="M78.5409303,64 L58.7205068,80.7579473 C56.335382,82.7733426 56.4468878,86.4569946 58.9505788,88.3268897 L89.6000043,111.230659 L97.6441439,113 L102,106.1426 L102,102.48564 L93.355826,102.787374 C92.6688194,102.810747 92.0021384,102.558125 91.5055509,102.086106 L71.9501809,83.4680789 L84.4064109,73.40233 L78.5409303,64 L78.5409303,64 Z" id="Path" fill="#FFD8D8"></path>
                            <polygon id="Path" fill="#FFD8D8" points="106.890529 49 95 49 99.1099542 29 111 29"></polygon>
                            <path d="M104.852895,33.0647689 L104,37.3132415 C104,38.7975615 105.122288,40 106.507226,40 L108.600656,40 L110,33 L104.852895,33.0647689 Z" id="Path" fill="#D7CCC8"></path>
                            <path d="M112.091463,10.4815611 L112.224217,10.1207801 C111.855055,9.74045481 111.485892,9.36153303 111.11673,8.98075156 C110.077743,7.91142652 109.027003,6.83231175 107.769415,6.0270635 C105.035671,4.27193179 101.61851,3.97673141 98.3617512,4.00136361 C96.7270349,4.01438148 95.0805655,4.09666424 93.4937115,4.49000743 C90.6835019,5.18413009 87.6917555,6.34180823 86.0636238,8.79060644 C84.139008,11.6857316 83.4673077,15.4270184 84.4467143,18.7726812 C85.3750372,21.9383746 87.5613733,24.5592122 89.4606419,27.2655607 C91.2313692,29.7882906 92.7868224,32.4583926 94.1110003,35.2368131 C94.5209804,36.1011155 95.7869943,40.4951905 96.717158,39.953984 C97.1735843,39.6866439 97.4287554,38.2598011 97.6055838,37.8022809 C97.9381771,36.9459086 98.2726112,36.0341664 98.8448699,35.3009551 C100.474913,33.2176046 103.655666,31.7842353 105.998687,30.6577159 C106.999689,30.176967 107.592126,30.0523674 108.187856,29.123888 C108.735723,28.2711999 109.136322,27.2967194 109.567861,26.3831175 C110.752736,23.8753003 111.949328,21.3414122 112.573201,18.6401866 C113.198455,15.9384698 113.215342,13.0191686 112.091463,10.4815611 L112.091463,10.4815611 Z" id="Path" fill="#212121"></path>
                            <path d="M85.8419334,6.7675526 C85.8175029,5.63729367 85.9996526,4.50703474 85.9217326,3.38014723 C85.8433254,2.25133838 85.4467652,1.06536042 84.5438815,0.436609025 C83.4975819,-0.292088605 82.0256977,-0.0480414209 81.005673,0.721439495 C79.9870752,1.49048539 79.3414772,2.68364121 78.8453158,3.88836135 C78.5216293,4.67611318 78.219102,5.52538433 77.5698499,6.05038304 C77.2590747,6.3049795 76.883256,6.46731511 76.59364,6.74688906 C75.7479696,7.57067519 75.9559071,9.00258543 76.299465,10.1530004 C76.4977277,10.8153934 76.7370559,11.5003714 77.2332522,11.9610231 C78.6516468,13.2762025 81.0803913,11.9999213 82.7169202,13 L83.8379033,12.7170909 C84.964907,12.6373369 85.7538862,11.4475162 85.9346439,10.2870233 C86.1149492,9.12602284 85.8677559,7.9434163 85.8419334,6.7675526 L85.8419334,6.7675526 Z" id="Path" fill="#212121"></path>
                            <path d="M112.446263,10 L117.454734,17.6165424 L117.454734,19.959959 C117.454734,19.959959 119.171275,23.583815 120.771917,24.8294016 C121.096723,25.0821375 121.068683,25.5718307 120.725678,25.7980587 L118.928755,26.9897531 L118.928755,33.9832918 C118.928755,36.7532177 116.670073,39 113.881946,39 L109.150595,39 C107.716323,39 106.553563,37.8431585 106.553563,36.4187143 L106.553563,33.21439 C106.553563,33.21439 103.4953,33.5438091 102.280234,31.6770422 C102.280234,31.6770422 101.344122,29.5808214 101.024008,27.6731707 C100.798277,26.3244631 102.207789,25.3441651 103.428004,25.9736905 C103.848146,26.1915735 104.301935,26.3537409 104.727226,26.3686078 C105.589446,26.3978505 106.280182,25.6573149 106.291857,24.8001238 L106.342787,20.7795272 C106.357742,19.6765779 107.224689,18.770158 108.332745,18.6981381 C109.064606,18.6521352 109.610451,17.9933319 109.491731,17.273694 C109.15384,15.2461971 109.043091,11.4685888 112.446263,10 L112.446263,10 Z" id="Path" fill="#FFD8D8"></path>
                            <path d="M89.6755909,55 L87.6627315,56.5485233 L86.0947696,66.7232606 C85.872799,68.1721764 86.0450414,69.6347945 86.5664439,71 L96,64.6899694 L89.6755909,55 L89.6755909,55 Z" id="Path" fill="#4CAF50"></path>
                            <path d="M95.3445422,48 L89.8790752,54.2789317 L88.0969131,66.8410359 C87.8190347,68.8049572 88.1409193,70.8004891 89.0342897,72.5613469 C91.7844125,77.9883955 97.1924513,90.1793689 97.2151709,94.4702882 C97.2332068,97.5972452 97.9520207,100.742128 97.2397081,106.975729 L121.087131,112 L126.340047,80.6521339 C126.77955,78.0351521 127,75.3851342 127,72.7294499 L127,72.4994799 C127,69.7059134 125.872722,67.0341565 123.881225,65.1132499 L107.170315,48.993044 L95.3445422,48 L95.3445422,48 Z" id="Path" fill="#4CAF50"></path>
                            <polygon id="Path" fill="#357A38" points="117.449743 125 103 159.789441 108.014248 169 119 130.039777"></polygon>
                            <path d="M97.1299162,107 L89.6463787,119.219021 C87.0772167,123.415131 85.7147733,128.251057 85.7147733,133.184161 L85.7147733,136.83622 L87.1328452,142.361522 L81.0998471,189.435898 L63.8742201,189.435898 C61.1970548,189.435898 58.5310503,189.799068 55.9503078,190.516027 L32,197.170488 L32,208 L80.6858871,204.92797 C89.2977734,204.383954 96.6589282,198.478198 99.120052,190.138359 L117.711376,127.111599 L121,111.972398 L97.1299162,107 L97.1299162,107 Z" id="Path" fill="#357A38"></path>
                            <polygon id="Path" fill="#4CAF50" points="15 198.461657 15 210 31 208.30752 31 197"></polygon>
                            <path d="M19.1072364,198.054473 L16.1833792,197 L12.588942,197 C11.660734,197 10.8074304,197.522026 10.3666947,198.359452 L0,218.093669 L0,233 L3.28274244,233 C4.88945376,233 6.31064913,231.940816 6.80182139,230.378021 L8.60322849,224.652649 L21.6245641,213.866784 C22.4940283,213.146161 23,212.063317 23,210.919021 L23,208.776958 C23,208.776958 15.9058906,208.12678 19.1072364,198.054473 L19.1072364,198.054473 Z" id="Path" fill="#4CAF50"></path>
                            <path d="M4.48027109,218.093205 L14.7900501,198.359452 C15.2265071,197.522026 16.0750887,197 17,197 L13.5197289,197 C12.5961714,197 11.7476245,197.522026 11.309779,198.359452 L1,218.093205 L1,233 L4.26457648,233 C4.3395524,233 4.40762082,232.969738 4.48027109,232.964527 L4.48027109,218.093205 L4.48027109,218.093205 Z" id="Path" fill="#C8E6C9"></path>
                            <polygon id="Path" fill="#C8E6C9" points="146 260 131 260 131 259 146 259"></polygon>
                            <polygon id="Path" fill="#C8E6C9" points="19 198.257104 18.3745999 198 14 211.731733 14.6209912 212"></polygon>
                            <polygon id="Path" fill="#C8E6C9" points="17.3009328 197 14 204.772623 14.6952666 205 18 197.215508"></polygon>
                            <polygon id="Path" fill="#C8E6C9" points="138 262 131 262 131 261 138 261"></polygon>
                            <path d="M86.9452997,125.501125 C87.0140861,125.315959 87.0118671,125.151009 86.9724709,125 C86.5752851,125.983391 86.2468857,126.983843 86,128 C86.3306183,127.037775 86.7067454,126.145186 86.9452997,125.501125 L86.9452997,125.501125 Z" id="Path" fill="#4A2FAF"></path>
                            <path d="M90.9217992,138.268435 C89.1392278,138.646559 87.8642356,137.679533 86.0848649,137.39574 C86.099302,137.382797 86.1119344,137.371704 86.1263715,137.358308 C86.6659576,136.893738 88.8590666,136.957055 85.9129478,135.655861 C85.904844,135.390068 85.8971488,135.124275 85.8890449,134.858518 C86.1502744,134.449415 86.037025,133.880398 85.7234611,133.544346 C85.3480969,133.138035 85.1554435,132.596751 85.0548266,132 C85.0471654,132.278735 85.0282337,132.556075 85.0282337,132.83481 L85.0282337,136.44675 L86.4065327,141.911354 L84,161 C84.6668299,159.690468 85.1730472,158.309316 85.4735361,156.704863 C86.0194213,153.797401 84.8418796,149.291939 87.0557589,147.026509 C87.5046705,146.568428 87.4663305,145.627775 86.8423692,145.324062 C87.2515789,144.291905 87.6603118,143.259713 88.0695215,142.227521 C88.4963348,142.040325 88.6379817,141.559115 88.5613017,141.115371 C89.7122166,140.606915 91.6219978,139.505859 92.7742747,138.767193 C93.5859181,138.24719 92.0312074,138.131161 90.9217992,138.268435 L90.9217992,138.268435 Z" id="Path" fill="#357A38"></path>
                            <path d="M97.0004837,89.8194388 C97.2501052,89.7872601 97.5274625,89.7269986 98.0068196,89.6262621 C98.9202844,89.4335365 99.2628119,88.0656436 97.677689,88.0656436 C98.5467766,88.0656436 92.8372988,83.612858 95.021025,82.405963 C95.3765308,82.2095579 95.5184539,81.8912762 95.5281527,81.5637955 C95.8397348,81.5246742 98.3983643,81.7192395 98.771907,81.6677257 C99.6913376,81.5361988 97.5861785,79.8454073 96.7970884,79.4558255 C95.5378515,78.8362712 94.277254,78.214426 93.0185056,77.593032 C93.0443922,77.5851869 93.0707325,77.5769252 93.0966191,77.5686289 C93.8908029,77.4600819 97.5681416,78.6040078 93.5759762,75.7647083 C92.0560584,74.6838209 90.7238016,73.3646994 89.2967548,72.1637403 C89.2024534,72.0846298 89.1012092,72.0437034 89,72 C89.0651702,72.1430515 89.1109429,72.2939134 89.1825674,72.4332853 C90.1496546,74.294239 91.4444769,76.9780599 92.7198668,79.8499894 C92.7249604,79.8518292 92.7314146,79.8550575 92.7360547,79.8582858 C92.7328101,79.8615141 92.7314146,79.8665474 92.7281701,79.8679359 C94.867554,84.6937454 96.9385231,90.0466689 97.2907843,93 C97.2829346,91.9435156 97.1932383,90.8939044 97.0004837,89.8194388 L97.0004837,89.8194388 Z" id="Path" fill="#4CAF50"></path>
                            <path d="M124.755088,84.2812438 C124.869974,84.1715877 124.960853,84.03769 125.020027,83.8846542 C125.161895,83.9006198 125.302501,83.9152406 125.444822,83.9312408 L125.780485,81.8390848 C125.877382,81.2300106 125.925815,80.6141087 126,80 C124.79925,80.5994879 124.788509,82.3197441 123.822254,81.2090104 C123.176229,80.466073 119.835521,81.0591126 119.354949,81.2090104 C117.860563,81.6732213 121.541657,82.1004319 121.96477,82.8305416 C121.878614,83.0544401 122.178268,83.786412 122.235726,84.010276 C122.534927,85.177217 122.680257,84.96156 123.383741,85.9009819 C123.903719,86.5959189 124.357276,87.2904422 124.792812,88 L125.276781,84.9789395 C125.10146,84.7486616 124.920121,84.5165562 124.755088,84.2812438 L124.755088,84.2812438 Z" id="Path" fill="#4CAF50"></path>
                            <path d="M107.367773,49 L114.916648,52.2900348 C116.786004,53.1046086 118,54.9831307 118,57.0622188 L118,70 L105.936104,70 L105.936104,58.0052908 L101,49 L107.367773,49 L107.367773,49 Z" id="Path" fill="#4CAF50"></path>
                            <path d="M106,71.0395362 L113.159172,99.5483818 C113.762683,101.951691 116.740184,102.815021 118.540838,101.106724 L143.786982,77.170561 L151.186238,71.2809454 C151.934849,70.439287 152.188666,69.2680752 151.856877,68.1934769 L151.496732,67.0260372 L144.48077,62.5132083 C143.637174,61.9709629 142.521783,62.1402411 141.8795,62.9106937 L140.210713,64.9084757 L139.540537,64.4624523 L139.690345,62.0039858 C139.790538,60.375399 138.493202,59 136.857979,59 L136.187339,68.5862651 L137.08105,72.5997285 L120.655304,86.6469393 L118.309242,71.0395362 L106,71.0395362 L106,71.0395362 Z" id="Path" fill="#FFD8D8"></path>
                            <path d="M87.7731566,10.0658278 L85.4696045,13.4253539 C85.0590625,14.0222734 84.2360965,14.1797099 83.6301645,13.7765901 L83.5830771,13.7447594 C82.9766921,13.3416396 82.8173758,12.5313139 83.2279526,11.9343945 L85.5315047,8.57304851 C85.9401994,7.9779146 86.7631655,7.82051247 87.3690626,8.22315153 L87.418032,8.25546292 C88.022535,8.65810198 88.1823393,9.46887407 87.7731566,10.0658278 L87.7731566,10.0658278 Z" id="Path" fill="#00838F"></path>
                        </g>
                        <g id="Group-25" transform="translate(70.000000, 49.000000)" fill-rule="nonzero">
                            <path d="M97,176.710746 L110.218697,192.813761 C110.218697,192.813761 105.368201,215.978023 110.218697,223.843812 C110.218697,223.843812 117.834196,244.603984 117.221721,254 L133,254 L131.163531,246.352202 C131.163531,246.352202 124.107524,236.081832 126.313035,199.150307 C126.313035,199.150307 131.60343,188.661909 126.533002,182.979866 L122.54259,173 L97,176.710746 L97,176.710746 Z" id="Path" fill="#FFF3E0"></path>
                            <path d="M119,251.482426 L119,261.929145 C119,264.177299 120.770648,266 122.954562,266 L159,266 L159,262.628961 L139.000473,252.946129 L132.803434,246 C132.803434,246 133.576592,252.91936 119,251.482426 L119,251.482426 Z" id="Path" fill="#01579B"></path>
                            <path d="M122.954562,262.717154 C120.770648,262.717154 119,261.05282 119,259 L119,262.282846 C119,264.335666 120.770648,266 122.954562,266 L159,266 L159,262.921857 L158.536091,262.717154 L122.954562,262.717154 L122.954562,262.717154 Z" id="Path" fill="#03ACF2"></path>
                            <polygon id="Path" fill="#01579B" points="106.435368 138 126 172.722252 96.7536496 177 86 163.3913 87.8187053 141.038772"></polygon>
                            <polygon id="Path" fill="#03ACF2" points="138 257.091462 139.550912 258 142 254.835482 140.340719 254"></polygon>
                            <polygon id="Path" fill="#03ACF2" points="147.141486 257 144 260.116972 145.767287 261 149 257.81489"></polygon>
                            <polygon id="Path" fill="#03ACF2" points="144 255.876534 142.452497 255 140 258.070458 141.547503 259"></polygon>
                            <polygon id="Path" fill="#03ACF2" points="137.43988 252 135 254.719181 136.621542 256 139 253.34848 138.576464 253.161893"></polygon>
                            <path d="M56.2464362,179 L53.5385076,186.297392 C53.5385076,186.297392 34.3945544,190.491405 30.8617723,198.878509 L9,217.639101 L10.5458736,230 L18.2746387,226.689124 C18.2746387,226.689124 20.2610863,216.316061 60.8929194,202.631662 L65.6882931,201.222236 C67.4018457,200.71703 68.7903561,199.458337 69.4596899,197.801942 L74,186.55609 L56.2464362,179 L56.2464362,179 Z" id="Path" fill="#FFF3E0"></path>
                            <path d="M12.6353255,214 L4.83761104,214 C2.99692005,214 1.47766146,215.387931 1.37745018,217.161449 L0,244.0708 L5.60480345,251.105707 C6.05341747,251.668626 6.75065107,252 7.48759102,252 L10.5842586,252 C11.763177,252 12.7620076,251.166767 12.9340685,250.042752 L15.3335025,231.71348 L18,226.071079 C18,226.071079 6.6036341,224.85728 12.6353255,214 L12.6353255,214 Z" id="Path" fill="#01579B"></path>
                            <path d="M8.14619098,251.105706 L2.62615332,244.072651 L3.98090045,217.161452 C4.08100093,215.389274 5.57727308,214 7.39060622,214 L4.76445291,214 C2.95111976,214 1.45344221,215.389274 1.35474713,217.161452 L0,244.072651 L5.52003767,251.105706 C5.961829,251.670449 6.64665125,252 7.37430344,252 L10,252 C9.27420998,252 8.58938773,251.670449 8.14619098,251.105706 Z" id="Path" fill="#03ACF2"></path>
                            <path d="M67.4276561,67 L57.3215254,78.0926604 C55.779182,79.7853713 55.5638843,82.3158164 56.7969274,84.2473157 L64.9332992,97 L87,74.3759249 L67.4276561,67 L67.4276561,67 Z" id="Path" fill="#FFF3E0"></path>
                            <polygon id="Path" fill="#FFF3E0" points="64.8589164 69 63.6988357 70.2190796 57 86.850277 63.7679348 97 75.7881564 85.2055268 74.6714559 84.8842941 80 76.4713601"></polygon>
                            <path d="M129.849547,5.58551871 C129.78609,4.94167685 129.715714,4.28187343 129.419885,3.70927462 C129.125873,3.1367112 128.546164,2.66352707 127.909079,2.69870621 C126.894642,2.74981151 126.320036,3.94561894 125.370908,4.31797274 C124.524967,4.64906007 123.456368,4.15432252 123.151244,3.28910693 C121.891889,4.37753661 120.000517,4.38737544 118.442014,3.8265266 C117.001619,3.30881999 115.836716,2.67198564 114.350441,2.23681196 C112.976717,1.83490627 111.887257,0.848722592 110.52835,0.367575377 C109.144877,-0.121995011 107.542416,-0.181558877 106.2687,0.552814401 C105.691787,0.885317386 105.182489,1.37488777 104.533838,1.51556892 C103.561997,1.72565276 102.632717,1.09727698 101.682191,0.812623279 C99.5505138,0.175788929 97.3289977,1.28060486 95.3737491,2.35123262 C93.7258961,3.25442328 91.9456431,4.30813391 91.31967,6.09809357 C91.0080812,6.99141 91.0289074,7.96400335 90.9719499,8.91033622 C90.841402,11.0810728 90.0427045,13.0576872 90.0015064,15.1740271 C89.9593649,17.3987004 90.8117701,18.7239344 91.2543961,20.811678 C91.6414623,22.6429042 91.3558013,24.5838793 92.0581603,26.3536658 C92.5646975,27.6324663 93.2943821,28.8203106 93.5934961,30.1502164 C93.9347168,31.6710238 94.0310204,33.3531102 94.2828912,34.9081412 C94.3430984,35.283751 94.4347545,35.7072101 94.7579445,35.9027835 C95.2237378,36.1836503 95.7936968,35.801493 96.2103949,35.4474366 C96.8502754,34.9048498 97.5151403,34.3838518 98.2388147,33.9571367 C100.721462,32.4963532 103.650403,32.1226191 106.139515,30.6515367 C108.72493,29.124642 108.998116,26.5871788 110.032016,23.9287475 C111.356679,20.5256087 114.557864,18.0603795 117.352589,15.9084004 C118.528603,15.003334 119.554641,14.7074258 121.03578,14.9025036 C122.724831,15.1257177 124.89215,16.6559039 126.543672,15.6551743 C127.153013,15.2846963 127.513662,14.6178499 127.845657,13.981051 C128.183663,13.3325021 128.523486,12.6839531 128.861492,12.0354042 C129.171683,11.4431277 129.481909,10.8461442 129.68472,10.2074341 C130.151876,8.7283886 130.003262,7.13021539 129.849547,5.58551871 L129.849547,5.58551871 Z" id="Path" fill="#FF6F00"></path>
                            <polygon id="Path" fill="#FFF3E0" points="101.421718 58 87 48.7678013 101.578782 26 116 35.2317346"></polygon>
                            <path d="M103.010681,153.778252 L107,138.56952 L101.817907,138 L87.8161878,140.31546 L86,162.91826 L91.5256885,170 L100.495348,158.788229 C101.672892,157.315863 102.529947,155.60822 103.010681,153.778252 L103.010681,153.778252 Z" id="Path" fill="#01579B"></path>
                            <path d="M55.7069576,135.234484 L55.1604064,140.322348 C54.6617311,144.962556 55.6787849,149.640308 58.0575566,153.654323 L53,177.661832 L74.9220085,187 L97.3853944,159.213809 C98.5846318,157.732683 99.4561087,156.013885 99.9430542,154.172919 L104,138.868946 L59.2483245,134 L55.7069576,135.234484 L55.7069576,135.234484 Z" id="Path" fill="#01579B"></path>
                            <path d="M101.412026,26 L101,26.6054833 C101.73076,26.4994016 105.25584,29.1047304 105.25584,29.1047304 L104.356159,35.9376544 C104.356159,39.7148689 106.088523,42.8802901 109.711228,44 L116,34.7721126 L101.412026,26 Z" id="Path" fill="#D7CCC8"></path>
                            <path d="M125.735489,12.2993809 L127.88726,19.6093958 C128.311291,21.0533278 127.502368,22.5757363 126.078885,23.0091763 L125.735489,23.1126583 L127.701337,31.0560142 C127.742341,31.2360822 127.605826,31.4081597 127.423632,31.4081597 L124.712687,31.4081597 L124.2281,37.3791158 C123.923844,41.1206258 120.842003,44 117.141839,44 L113.978941,44 C109.100366,44 105.143491,39.9886379 105.143491,35.0380904 L105.143491,29.6305242 C105.143491,29.6305242 101.785351,29.0387401 101.348273,26.8158931 C101.348273,26.8158931 100.325506,21.3350228 101.785351,20.7432743 C101.785351,20.7432743 105.289781,20.0030982 105.875048,22.2240902 L106.312548,24.4464735 L107.481184,18.2254627 C107.481184,18.2254627 113.030726,4.744555 125.735489,12.2993809 L125.735489,12.2993809 Z" id="Path" fill="#FFF3E0"></path>
                            <path d="M126.78074,14.6937315 C126.847633,12.6262328 126.633001,10.2121483 125.014108,8.91256473 C123.991187,8.09390337 122.601722,7.93605724 121.29405,7.81053265 C117.813235,7.47826167 114.115965,6.36006882 110.815389,7.50131863 C109.602482,7.91944369 107.875327,8.37215419 106.666101,8.80044939 C104.817255,9.45346287 103.506323,10.6302733 101.696919,11.3824805 C99.8880059,12.1328765 98.1836042,13.6211998 98.0112533,15.5617807 C97.9787535,15.9263732 98.0079928,16.3140227 98.2147368,16.6149125 C98.5143524,17.0528903 99.0880607,17.1899433 99.6092855,17.2956153 C101.929642,17.7612822 107.250958,16.6915369 106.544866,23.5114858 C106.338157,25.5055993 107.575676,26.2938547 110.049837,28 C109.481247,27.6077182 110.799121,22.2871334 111.004007,21.6765768 C111.505248,20.1822629 112.283807,18.6630462 112.899797,17.2042581 C113.99473,14.6125097 116.685346,14.4108135 119.137174,14.6351139 C121.615051,14.859867 124.524016,15.2004273 127,15.4265736 L126.78074,14.6937315 L126.78074,14.6937315 Z" id="Path" fill="#FF6F00"></path>
                            <path d="M92.5758897,40 C92.3844098,40.3004951 84.4943708,43.4990884 84.4943708,43.4990884 L71.6967363,59.637092 C70.7107155,60.8788111 70.1095626,62.3830881 69.9676929,63.961332 L66.0198997,107.559756 C65.7178922,110.887067 64.8376994,114.134795 63.4139144,117.157867 L55,135.033246 L86.0581528,143.341916 C91.3651389,144.76336 97.0269935,143.858625 101.627034,140.855228 L108.265086,137.673484 L118.841144,80.6876801 C119.121597,79.3912099 119.029338,78.04232 118.575214,76.7973511 L110.113526,53.6204431 L92.5758897,40 L92.5758897,40 Z" id="Path" fill="#B3E5FC"></path>
                            <path d="M9.57875399,235 L8,235.948277 C9.74405345,239.153895 12.4998958,240 14.473092,240 C14.5649169,240 14.6417843,239.989338 14.7307271,239.985771 L15,238.049598 C13.9084982,238.160898 11.2498436,238.074489 9.57875399,235 L9.57875399,235 Z" id="Path" fill="#03ACF2"></path>
                            <path d="M10.3566079,239 L9,239.88605 C10.2320348,242.351867 12.1833025,243 13.5822495,243 C13.6466201,243 13.7039393,242.991937 13.7670563,242.988604 L14,241.176153 C13.3480523,241.269721 11.5093547,241.30674 10.3566079,239 L10.3566079,239 Z" id="Path" fill="#03ACF2"></path>
                            <path d="M14.9743974,234.968766 C14.8288184,235.008422 11.4301438,235.883017 9.46793009,232 L8,232.946736 C9.62025733,236.153863 12.1818442,237 14.0141796,237 C14.2788532,237 14.5291148,236.982204 14.7591656,236.951714 L15,235.085665 L14.9743974,234.968766 Z" id="Path" fill="#03ACF2"></path>
                            <path d="M10.5416503,228 L9,228.94827 C10.7030521,232.155397 13.3932832,233 15.3190641,233 C15.4672531,233 15.5974928,232.983738 15.7352826,232.974611 L16,231.029785 C15.0647103,231.15888 12.2645393,231.244751 10.5416503,228 L10.5416503,228 Z" id="Path" fill="#03ACF2"></path>
                            <path d="M62.0840048,152.228384 C60.2382513,152.51694 59.3084238,151.384278 57.5531544,150.777985 C57.7965566,150.661696 58.0385863,150.544938 58.280616,150.428649 C58.9829138,150.090797 59.5322581,149.726184 58.8103572,149.396963 C57.8739836,148.968174 56.6088269,147.565627 56.0347763,147 C56.5169703,149.328056 57.3624377,151.578069 58.5618166,153.652961 L55,171 C56.0776779,168.532216 58.6392436,159.433068 60.1575865,159.055021 C61.1266203,158.811933 62.2304121,158.077398 60.417354,157.015556 C60.2872415,156.939932 60.1725088,156.841845 60.0489424,156.754267 C60.3170861,156.490631 60.5786837,156.132663 60.9899969,155.545511 C61.2171042,155.221094 61.1643835,154.787538 60.9718015,154.437732 C61.7286502,154.113784 64.9808293,152.776785 65.7376779,152.4528 C66.943603,152.25854 63.6909664,152.528894 62.0840048,152.228384 L62.0840048,152.228384 Z" id="Path" fill="#01579B"></path>
                            <path d="M92.3949589,73.1494508 C90.4588883,74.237683 88.5135525,75.3069416 86.5529954,76.3571599 C86.2128664,76.5396601 86.0582497,76.8873876 86.0550452,77.2381829 C85.8644127,77.3376193 85.6789005,77.446726 85.4896613,77.5514643 C85.1315245,77.0539487 84.3289385,76.8780842 83.8355512,77.3751664 C82.4731543,78.7532382 83.0426483,80.4848062 82.1930051,81.9887908 C81.784084,82.1169378 81.3834876,82.2662925 80.9718149,82.3895377 C80.204757,82.6153205 79.9670672,83.6567355 80.4978287,84.1401127 C79.9264538,84.2615906 79.3550789,84.3862029 78.7837388,84.537325 C77.9612989,84.7573389 77.6488261,86.0430769 78.5261952,86.421749 C78.9217061,86.5918447 79.3158587,86.7615069 79.7114045,86.9316026 C79.6333821,87.0407426 79.5553945,87.1481153 79.4755608,87.2572553 C78.46113,88.1643211 79.9869212,89.6188542 80.9976598,88.7148562 C81.6603976,88.1223724 82.007458,87.5630007 82.3134522,86.755338 C82.4062083,86.5074471 82.3328533,86.1818277 82.1699118,85.9277679 C83.9006511,85.6317261 91.7548268,87.7171905 90.9019442,86.574605 C90.2179592,85.6595696 88.765558,85.1218726 87.5378891,84.9128626 C86.8105391,84.7882836 86.2664023,83.1936991 85.5372062,83.0690868 C85.6170399,83.0412432 85.6982668,83.0191685 85.7762544,82.991325 C86.8137784,82.6184216 91.7631515,80.8387026 90.4671782,80.9990947 C90.3679782,81.0114659 85.3027558,80.9977609 85.2049143,81.0114659 C85.2049143,81.0101321 85.2049143,81.007031 85.2049143,81.0039632 C85.1887525,81.0101321 85.1725907,81.0145671 85.1559761,81.0194022 C84.952456,81.0507803 84.7489011,81.0834923 84.5587563,81.1237071 C84.5813967,80.9743523 84.6090877,80.8294325 84.6335394,80.6827454 C84.7424573,80.6906817 84.8499819,80.706154 84.97231,80.6889144 C85.9848598,80.553298 85.9604082,80.5347245 86.8691604,80.0871605 C87.3639061,79.8428042 87.4631409,79.3532581 87.326532,78.9277688 C87.9694158,78.5924126 88.6192659,78.2650259 89.2884475,77.9610478 C89.7020012,77.774146 89.8386101,77.3579267 89.7832281,76.9589472 C91.0191868,76.2856004 92.2565039,75.6184225 93.4809335,74.9296033 C94.6758259,74.257557 93.5930907,72.476104 92.3949589,73.1494508 L92.3949589,73.1494508 Z" id="Path" fill="#B3E5FC"></path>
                            <polygon id="Path" fill="#B3E5FC" points="91.7972882 40 65 69.8845961 84.4927776 80 100.756283 67.9059259 101 56.8072766"></polygon>
                            <polygon id="Path" fill="#B3E5FC" points="109.488471 100.278073 77.4166503 90.6463931 82.5929448 82.133314 68.7166426 75 66 105.195202 105.788318 110.787118 111.974507 112.975328 112.128234 113 115 97.4392908"></polygon>
                            <path d="M66.9189944,71 L58.4475538,92.7152572 C56.9228097,96.6224683 59.4535036,100.9234 63.6196603,101.502658 L105.553056,107.343297 L111.770652,109.524354 L127.014828,111.984644 C127.917468,112.108931 128.746612,111.464747 128.841529,110.559949 C128.91039,109.892139 128.559096,109.25261 127.957008,108.953006 L126.47974,108.21516 L128.027274,108.21516 C128.923874,108.21516 129.667407,107.528345 129.736268,106.638352 C129.793506,105.892177 129.355196,105.193742 128.656331,104.918743 L127.426591,104.435946 L128.895958,104.35758 C129.611574,104.318169 130.203865,103.786686 130.314162,103.079921 C130.418841,102.418587 130.074535,101.767472 129.468724,101.479453 L127.134396,100.367347 L129.171403,100.367347 C130.181075,100.367347 131,99.5506804 131,98.544766 C131,97.6970188 130.412344,96.9609932 129.583657,96.7713255 L125.31233,95.7876713 C124.7889,94.441377 123.464208,93.5741345 122.014857,93.6297853 L114.886228,94.0110108 L109.270684,96.878917 L77.0450006,87.2850341 L82.245059,78.8074572 L66.9189944,71 L66.9189944,71 Z" id="Path" fill="#FFF3E0"></path>
                            <polygon id="Path" fill="#00BCD4" points="104.668222 108 101 107.5036 104.481078 96 108 96.9847794"></polygon>
                            <path d="M108,102.500224 C108,104.98606 106.208465,107 104.000648,107 C101.791502,107 100,104.98606 100,102.500224 C100,100.014388 101.791502,98 104.000648,98 C106.208465,98 108,100.014388 108,102.500224 Z" id="Path" fill="#00BCD4"></path>
                            <path d="M107,102.000197 C107,103.656569 105.656863,105 104.000854,105 C102.343137,105 101,103.656569 101,102.000197 C101,100.343431 102.343137,99 104.000854,99 C105.656863,99 107,100.343431 107,102.000197 Z" id="Path" fill="#B2EBF2"></path>
                            <path d="M107,102.500194 C107,103.88149 105.880679,105 104.500987,105 C103.11974,105 102,103.88149 102,102.500194 C102,101.11851 103.11974,100 104.500987,100 C105.880679,100 107,101.11851 107,102.500194 Z" id="Path" fill="#00838F"></path>
                            <polygon id="Path" fill="#01579B" points="79.0889511 83 65 75.7703111 66.4151617 72 81 79.5548757"></polygon>
                            <path d="M72.4976082,87.5860704 L67.7539902,84.955151 C66.1289084,84.0546413 65.5244231,81.9752933 66.4039003,80.3108953 L71.9652474,69.7955086 C72.8460854,68.1315635 74.8768678,67.5125871 76.5019495,68.4144902 L81.2460098,71.0445038 C82.8710916,71.9464069 83.4755769,74.0257549 82.5960997,75.6897001 L77.0347526,86.2036934 C76.1539146,87.8694848 74.1231322,88.4865801 72.4976082,87.5860704 Z" id="Path" fill="#01579B"></path>
                            <path d="M72.1788761,85.7493519 L67.1175652,83.084702 C66.0809261,82.5396085 65.6973956,81.2817797 66.2575306,80.2738025 L71.9317567,70.0867601 C72.49235,69.0801542 73.7859453,68.7053767 74.8207159,69.2500245 L79.8838601,71.916937 C80.9186659,72.4615848 81.3026547,73.7194137 80.7425198,74.7260196 L75.0678352,84.9144333 C74.5077003,85.9210735 73.214105,86.2944454 72.1788761,85.7493519 L72.1788761,85.7493519 Z" id="Path" fill="#C8E6C9"></path>
                            <path d="M73.2480953,85.848409 L67.6716757,82.9030131 C67.0491161,82.5753712 66.8175071,81.8164972 67.1553319,81.2107366 L73.0164864,70.6551861 C73.352397,70.0475235 74.1310119,69.8220979 74.7521269,70.1516066 L80.328077,73.0970025 C80.9511061,73.4246092 81.1822456,74.1821095 80.8448904,74.789279 L74.9832663,85.3448295 C74.6473557,85.9524922 73.8692465,86.1778825 73.2480953,85.848409 L73.2480953,85.848409 Z" id="Path" fill="#03ACF2"></path>
                        </g>
                        <g id="Group" transform="translate(99.000000, 62.000000)" fill-rule="nonzero">
                            <path d="M18.3562286,36.7072419 C18.0420105,36.7072419 17.727299,36.6993133 17.4159,36.6843724 C17.1011886,36.6680219 16.7916219,36.6446943 16.4834648,36.6134029 C16.1724886,36.5807371 15.865741,36.5428914 15.5627286,36.4966943 C15.2615486,36.4504619 14.9585362,36.396301 14.6587657,36.3351276 C14.3636819,36.2744476 14.0671886,36.2048524 13.7725629,36.1292314 C13.477479,36.0549848 13.18754,35.9709419 12.8994333,35.8822124 C12.6113619,35.79306 12.3260743,35.6959438 12.0445219,35.5922733 C11.7676562,35.49188 11.4879714,35.3812324 11.2129733,35.2644886 L12.9704029,31.1085076 C13.1744667,31.1958276 13.38364,31.278461 13.594681,31.3559848 C13.8104086,31.4348829 14.0242333,31.5072619 14.240419,31.5749543 C14.4561467,31.6408143 14.6732486,31.7033619 14.8940857,31.7593905 C15.1149581,31.8168286 15.3372048,31.8681705 15.561319,31.9144029 C15.7900848,31.9601771 16.0160667,32.0012648 16.2448676,32.0362562 C16.4769105,32.0722343 16.707579,32.1021162 16.9414895,32.1249857 C17.1702905,32.1478552 17.4060686,32.1660733 17.6446657,32.1777371 C18.1111124,32.2006419 18.5971867,32.2025095 19.0729714,32.1777371 C19.3068819,32.1660733 19.5422019,32.1478552 19.7761124,32.1249857 L20.2294857,36.6134029 C19.9213286,36.6446943 19.6117619,36.6680219 19.3003276,36.6843724 C18.9856514,36.6993133 18.67094,36.7072419 18.3562286,36.7072419 L18.3562286,36.7072419 Z" id="Path" fill="#E91E63"></path>
                            <g fill="#E91E63" id="Path">
                                <path d="M14.2394676,5.13563524 L12.8989752,0.828341905 C13.1870819,0.73778 13.4784305,0.655146667 13.7716467,0.579490476 C14.0634533,0.50524381 14.3613562,0.436141905 14.662959,0.373594286 C14.9562105,0.314288571 15.2573552,0.259669524 15.5622352,0.213895238 C15.8703924,0.165795238 16.1748495,0.127984762 16.4848743,0.0966933333 C16.7925733,0.0654371429 17.1021048,0.0406647619 17.4168162,0.0262171429 C18.03454,-0.00553238095 18.6751333,-0.00694190476 19.301279,0.0262171429 C19.6094362,0.0406647619 19.9204124,0.0654371429 20.2285695,0.0966933333 C20.5367267,0.127984762 20.8430162,0.165795238 21.1478962,0.212027619 C21.454221,0.259669524 21.7553657,0.314288571 22.0537267,0.37500381 C22.35022,0.436141905 22.6480876,0.50524381 22.944581,0.5809 L21.8146714,4.94933143 C21.5956667,4.89189333 21.3752876,4.84051619 21.1511733,4.79618667 C20.9219143,4.74854476 20.6950162,4.70886667 20.4657571,4.67243048 C20.2402333,4.63789714 20.0095648,4.60847333 19.7756543,4.58514571 C19.5436114,4.56224095 19.3077981,4.5440581 19.0724781,4.53098476 C18.5929581,4.50808 18.1171733,4.50808 17.6442076,4.53098476 C17.4037429,4.5440581 17.1698324,4.56224095 16.9377543,4.58514571 C16.7038438,4.60847333 16.4731752,4.63789714 16.2439514,4.67243048 C16.0184276,4.70886667 15.7910362,4.74854476 15.5655124,4.79431905 C15.338121,4.84051619 15.1172838,4.89189333 14.898279,4.94933143 C14.6746581,5.00722762 14.4551952,5.06790762 14.2394676,5.13563524 L14.2394676,5.13563524 Z"></path>
                                <g transform="translate(0.000000, 1.441238)">
                                    <path d="M9.04882571,6.6685981 L6.01669333,3.32830857 C6.23383048,3.13220857 6.4532581,2.93938571 6.68019143,2.75354 C6.90945048,2.56540381 7.14008381,2.38283524 7.37540381,2.20632762 C7.60934952,2.03172286 7.84981429,1.8608181 8.09538857,1.69600952 C8.33726286,1.53116571 8.58611429,1.37291143 8.83824286,1.21835714 C9.09037143,1.06521238 9.34718667,0.916719048 9.60911143,0.776647619 C9.86779429,0.635166667 10.129719,0.501649524 10.3963305,0.373241905 C10.6680867,0.241557143 10.9384333,0.11970381 11.2134314,0.00250190476 L12.9694867,4.15989238 C12.7617229,4.24721238 12.5557914,4.3396419 12.35504,4.4367581 C12.1570724,4.5325 11.9562857,4.63613524 11.7587762,4.74167333 C11.5640857,4.84858571 11.3698533,4.95877524 11.1802724,5.07410952 C10.9911848,5.19131143 10.8034714,5.30988762 10.6204448,5.4350181 C10.434141,5.55828095 10.2548495,5.68714667 10.0769676,5.82024095 C9.8972181,5.95562571 9.7225781,6.0919619 9.55308286,6.23203333 C9.38358762,6.37210476 9.21363429,6.51873048 9.04882571,6.6685981 Z"></path>
                                    <path d="M7.67284857,8.11184476 L4.19759714,5.23613429 C4.38344286,5.01015238 4.57489143,4.78977333 4.7704981,4.57404571 L8.11128095,7.6061781 C7.9613781,7.77098667 7.81478762,7.9404819 7.67284857,8.11184476 L7.67284857,8.11184476 Z"></path>
                                    <path d="M6.51770857,9.73808286 L2.66195619,7.39605333 C2.81510095,7.14205714 2.97476476,6.89366381 3.13960857,6.6499219 L6.87674952,9.17825524 C6.75348667,9.36082381 6.63300762,9.54853714 6.51770857,9.73808286 L6.51770857,9.73808286 Z"></path>
                                    <path d="M4.58701333,15.4941905 L0.0981380952,15.0408171 C0.129887619,14.7331181 0.167698095,14.4268286 0.213472381,14.1233229 C0.261537143,13.8156238 0.315698095,13.5139857 0.376871429,13.2161181 C0.437586667,12.9196248 0.505279048,12.6212638 0.582767619,12.3266381 C0.65655619,12.0348314 0.739189524,11.7434829 0.829786667,11.4567857 C0.918480952,11.1687143 1.01422286,10.8834267 1.1178581,10.6018743 C1.22152857,10.3203219 1.33030857,10.0420467 1.44892,9.76704857 C1.56284476,9.4967019 1.6846981,9.22494571 1.81310571,8.95787619 L5.87989905,10.911441 C5.78278286,11.11406 5.6903181,11.3185819 5.60303333,11.5258876 C5.51243619,11.735061 5.43167048,11.9442343 5.35460476,12.1552752 C5.27524857,12.3658581 5.20473714,12.5801762 5.13704476,12.7977714 C5.06935238,13.0134638 5.00863714,13.230601 4.95074095,13.4514381 C4.89330286,13.6736848 4.84196095,13.8963895 4.79759619,14.1186362 C4.74995429,14.3493048 4.71027619,14.5766962 4.67433333,14.8054971 C4.63976476,15.0309857 4.60988286,15.2616543 4.58701333,15.4941905 L4.58701333,15.4941905 Z"></path>
                                    <path d="M0.582309524,21.5014752 C0.506688571,21.2063562 0.437586667,20.9084886 0.376413333,20.6068505 C0.31524,20.3136343 0.261079048,20.0124895 0.214846667,19.7075743 C0.168649524,19.3994171 0.129394286,19.0949952 0.0981380952,18.7849705 C0.0668466667,18.4772714 0.0434838095,18.1677048 0.0271685714,17.8530286 C0.0108180952,17.5448362 0.00239619048,17.23016 0.00239619048,16.914039 L4.51558571,16.914039 C4.51558571,17.1526362 4.52073048,17.3898238 4.53239429,17.6256371 C4.54546762,17.8661019 4.56368571,18.1000124 4.58655524,18.3320552 C4.60942476,18.566001 4.64071619,18.7966343 4.67524952,19.0258933 C4.71027619,19.2514171 4.74949619,19.4788086 4.79572857,19.7043324 C4.84196095,19.9316886 4.89284476,20.152561 4.95074095,20.3715305 L0.582309524,21.5014752 L0.582309524,21.5014752 Z"></path>
                                    <path d="M4.77099143,29.2531162 C4.57489143,29.0374238 4.38390095,28.8165514 4.19622286,28.5910629 C4.00850952,28.3618038 3.82548286,28.1297257 3.64946857,27.8939476 C3.47482857,27.6600371 3.30346571,27.4195724 3.13865714,27.1758305 C2.97384857,26.9321238 2.81601714,26.6837305 2.66287238,26.4315667 C2.50786,26.1794381 2.36123429,25.9226581 2.21978857,25.6621076 C2.07784952,25.4020505 1.94429714,25.1400905 1.81588952,24.873021 C1.68424,24.6013 1.56235143,24.3314114 1.44705238,24.0564133 C1.3317181,23.7860667 1.22152857,23.5059238 1.1174,23.2229619 L5.35414667,21.6728029 C5.43167048,21.883879 5.51384571,22.0911848 5.60116571,22.297081 C5.6903181,22.5095314 5.78232476,22.7140181 5.87944095,22.9148048 C5.97514762,23.1141819 6.0788181,23.313559 6.18432095,23.5110333 C6.29123333,23.7071686 6.40191619,23.8999914 6.51862476,24.089079 C6.63395905,24.2800695 6.7544381,24.4663381 6.87770095,24.6507743 C7.00283143,24.8352105 7.13120381,25.0163695 7.26334667,25.1928771 C7.39830857,25.3721686 7.53510286,25.5467733 7.67517429,25.7181362 C7.81478762,25.8862219 7.9613781,26.0557171 8.11128095,26.2205257 L4.77099143,29.2531162 L4.77099143,29.2531162 Z"></path>
                                    <path d="M7.37353619,31.6185086 C7.13962571,31.4424943 6.90708952,31.2613 6.68160095,31.0750314 C6.45420952,30.8873181 6.23333714,30.6944952 6.01764476,30.4988533 L9.04836762,27.1581057 C9.21504381,27.3079733 9.38312952,27.454599 9.55403429,27.5965381 C9.72398762,27.7361162 9.89859238,27.8729457 10.0765095,28.0064629 L7.37353619,31.6185086 Z"></path>
                                    <path d="M9.60819524,33.0505143 C9.34810286,32.9085752 9.09086476,32.7619848 8.83732667,32.60884 L11.1812238,28.7530524 C11.3707695,28.8683867 11.5636276,28.9785762 11.7592343,29.0855238 L9.60819524,33.0505143 Z"></path>
                                </g>
                                <path d="M22.0499914,36.3351276 L21.1507152,31.9144029 C21.3743714,31.8681705 21.5984857,31.8168286 21.8174552,31.7593905 C22.0383276,31.7033619 22.2558876,31.6408143 22.4729895,31.5749543 C22.6891752,31.5072619 22.9030352,31.4348829 23.1154857,31.3573943 C23.3298038,31.278461 23.5371095,31.1958276 23.7430057,31.1085076 C23.952179,31.0212229 24.156701,30.9273486 24.35932,30.8321 C24.5568295,30.7363933 24.7562067,30.6327229 24.9537162,30.52722 C25.1498162,30.4203076 25.342639,30.3082152 25.53222,30.1929162 C25.7231752,30.0775819 25.909021,29.9575962 26.0952895,29.83384 C26.2764838,29.710119 26.4576429,29.5817114 26.6355248,29.4481943 C26.8152743,29.3151 26.9899143,29.1783057 27.1612771,29.0363667 C27.3307724,28.8967533 27.4988581,28.7501629 27.6636667,28.60026 C27.82474,28.4536695 27.984439,28.3005248 28.141319,28.1436448 C28.3023924,27.9839457 28.4541276,27.8242467 28.6040305,27.6613057 C28.750621,27.4964971 28.8972467,27.3284114 29.0405952,27.1570486 L32.5158114,30.0313495 C32.3299657,30.2573314 32.1385524,30.4777105 31.9410429,30.6934381 C31.7435333,30.9142752 31.5409143,31.1267257 31.3317057,31.3344895 C31.127219,31.5385533 30.9147686,31.7411724 30.6976667,31.9386819 C30.4800714,32.1366495 30.2592343,32.32764 30.0337105,32.5139086 C29.8049095,32.7030314 29.5742762,32.8841905 29.3403305,33.0606629 C29.1045524,33.2353029 28.8640876,33.4066657 28.620381,33.5710162 C28.3752295,33.7376924 28.1263781,33.8955238 27.8742495,34.0491267 C27.622121,34.2022714 27.3653057,34.3502714 27.1052486,34.4917524 C26.8446981,34.6318238 26.5827733,34.7672438 26.3161619,34.8956514 C26.0444057,35.027301 25.774059,35.1491895 25.499061,35.2644886 C25.2254371,35.3812324 24.9457876,35.49188 24.6623676,35.594141 C24.3854667,35.6959438 24.1006724,35.79306 23.8125657,35.8822124 C23.5259038,35.9709419 23.2340619,36.0535752 22.9408457,36.1292314 C22.64622,36.2048524 22.3497267,36.2744476 22.0499914,36.3351276 L22.0499914,36.3351276 Z"></path>
                                <path d="M33.5742933,28.6166105 L29.8352848,26.0929638 C29.9585476,25.9085276 30.0789914,25.7208143 30.1957352,25.529859 C30.30966,25.3402781 30.4217171,25.1474552 30.5286295,24.9518133 L34.4931971,27.1028876 C34.3517162,27.3629448 34.2050905,27.6202181 34.0500781,27.8737562 C33.8969333,28.1240171 33.7391019,28.3728686 33.5742933,28.6166105 Z"></path>
                                <path d="M35.2659333,25.499519 L31.11182,23.7420543 C31.1972371,23.5361581 31.2794124,23.328359 31.3569362,23.1177762 L35.59696,24.6609229 C35.4928314,24.9443429 35.3826419,25.2244857 35.2659333,25.499519 L35.2659333,25.499519 Z"></path>
                                <path d="M36.1315571,22.9389781 L31.7617514,21.8155876 C31.81778,21.5965829 31.8700733,21.3743362 31.9163057,21.1488124 C31.9625029,20.9214562 32.0035905,20.6959324 32.038159,20.4666733 C32.0727276,20.2345952 32.1026095,20.0039619 32.1273467,19.7700514 C32.1502162,19.5393829 32.1684343,19.3054724 32.1800981,19.0668752 L36.6848657,19.2989181 C36.6699248,19.6103524 36.6451876,19.919919 36.6157638,20.2262086 C36.5826048,20.5390524 36.5447943,20.8458 36.4971524,21.1488124 C36.4509552,21.4499924 36.3981686,21.7530048 36.335621,22.0527752 C36.2763152,22.347859 36.2072133,22.6443524 36.1315571,22.9389781 Z"></path>
                                <path d="M32.1800981,17.6423048 C32.1665667,17.4051171 32.1502162,17.1697971 32.125479,16.9358867 L36.6157638,16.4829714 C36.6451876,16.789261 36.6699248,17.0988276 36.6848657,17.4102619 L32.1800981,17.6423048 L32.1800981,17.6423048 Z"></path>
                                <path d="M31.9158124,15.5603676 C31.8696152,15.3362533 31.8186962,15.1140067 31.7612933,14.8931343 C31.7052648,14.6722971 31.6426819,14.4547019 31.5749895,14.2376 C31.5091648,14.0218724 31.4367857,13.8075543 31.3592619,13.5970067 C31.2799057,13.380821 31.1977305,13.1735152 31.1104105,12.9675838 C31.0230905,12.75982 30.9292514,12.5557914 30.8335095,12.3531371 C30.7363933,12.15376 30.6346257,11.9543829 30.52722,11.7569086 C30.4217171,11.5626762 30.3101181,11.3679505 30.1947838,11.1788629 C30.0794495,10.9892819 29.9590057,10.8016038 29.8357429,10.6185771 C29.7120219,10.434141 29.5817467,10.2529819 29.4500619,10.0750648 C29.3165448,9.89718286 29.178341,9.7225781 29.03686,9.55121524 C28.8967886,9.38172 28.7515724,9.21222476 28.6017048,9.04741619 C28.4536695,8.88584952 28.3005248,8.7243181 28.1441029,8.56789619 L31.3326571,5.37747429 C31.540421,5.58478 31.7430752,5.79582095 31.9405848,6.01341619 C32.1380943,6.23238571 32.3295076,6.4532581 32.5153533,6.67687905 C32.704899,6.9061381 32.8860581,7.13680667 33.0606981,7.37212667 C33.2367124,7.60790476 33.4066657,7.8465019 33.5728838,8.09024381 C33.7377276,8.33395048 33.8973914,8.58424667 34.0505362,8.83637524 C34.203681,9.09037143 34.3521743,9.34528381 34.4936552,9.60583429 C34.6337267,9.86589143 34.7686533,10.1278514 34.897061,10.394921 C35.0273362,10.6666419 35.1510571,10.9365305 35.2663914,11.2115286 C35.3831,11.4865619 35.4937829,11.7652952 35.5955505,12.0482571 C35.6978114,12.3251229 35.7935181,12.6099524 35.8841152,12.8984819 C35.9728095,13.185179 36.0549848,13.4765276 36.131099,13.7697438 C36.2067552,14.0643695 36.2758571,14.3608629 36.3370305,14.6606333 L31.9158124,15.5603676 L31.9158124,15.5603676 Z"></path>
                                <path d="M27.1603257,7.67376476 C26.9889629,7.53228381 26.8157676,7.39548952 26.6378505,7.26380476 C26.458559,7.12838476 26.2774,7.00001238 26.0943733,6.87674952 C25.9099371,6.75112571 25.722259,6.63114 25.5312686,6.51580571 C25.3417229,6.40047143 25.1488648,6.2902819 24.9532581,6.18291143 L27.1042971,2.21834381 C27.3662571,2.35841524 27.6216276,2.50645048 27.8751657,2.65959524 C28.1272943,2.8131981 28.3743133,2.97289714 28.61802,3.13724762 C28.8631714,3.30205619 29.1040943,3.47341905 29.3394143,3.64989143 C29.5733248,3.82453143 29.8039933,4.00569048 30.0313848,4.19340381 L27.1603257,7.67376476 L27.1603257,7.67376476 Z"></path>
                                <path d="M23.7401867,5.59880476 C23.5342905,5.51148476 23.3265267,5.42930952 23.1159438,5.35178571 L24.6656095,1.11549714 C24.9490295,1.21916762 25.2291724,1.32935714 25.5042057,1.44655905 L23.7401867,5.59880476 L23.7401867,5.59880476 Z"></path>
                            </g>
                            <path d="M27,16.8152087 C27,14.154065 24.7790509,12 22.0376281,12 C20.6507972,12 19.400071,12.554374 18.4997397,13.4470587 C17.5994431,12.554374 16.3473288,12 14.9605326,12 C12.2190751,12 10,14.154065 10,16.8152087 C10,18.1109489 10.5287677,19.2857557 11.3881843,20.1503124 L18.4786057,27 L25.7506619,20.0021267 C25.8288128,19.9142057 26.034809,19.6606832 26.034809,19.6606832 C26.6399577,18.8621515 27,17.8779751 27,16.8152087 L27,16.8152087 Z" id="Path" fill="#E91E63"></path>
                            <path d="M27,18.6259178 L21.3919564,18.6458629 L20.6971903,16.0398419 L19.308611,20.7432347 L17.6670863,14 L16.1148104,18.6476335 L11,18.6476335 C11.0793474,18.8490553 11.183023,19.0380489 11.2876173,19.223969 L16.5413197,19.223969 L17.5782458,16.1177512 L19.2531495,23 L20.6683368,18.2089424 L20.9388392,19.2253053 L26.7331042,19.203623 C26.8363375,19.0194736 26.922456,18.8242659 27,18.6259178 Z" id="Path" fill="#FFFFFF"></path>
                        </g>
                        <g id="Group" transform="translate(276.000000, 138.000000)" fill-rule="nonzero">
                            <polygon id="Path" fill="#4CAF50" points="19.1394589 19.8139152 19.1394589 28.6214036 25.7756223 28.6214036 26.6075063 19.8139152"></polygon>
                            <polygon id="Path" fill="#C8E6C9" points="19.1394589 22.9758402 19.1394589 28.6223437 25.7756223 28.6223437 26.3076241 22.9758402"></polygon>
                            <path d="M20.3353661,28.5231375 L20.3353661,26.0768277 L19.9413616,25.6828232 L20.3353661,25.2887839 L20.3353661,22.5315187 L19.9413616,22.1379321 L20.3353661,21.7439277 L20.3353661,19.8134625 L19.1390063,19.8134625 L19.1390063,28.6223437 L20.2375527,28.6223437 C20.2915607,28.6223437 20.3353661,28.5771107 20.3353661,28.5231375 Z" id="Path" fill="#357A38"></path>
                            <path d="M19.6760571,15.3707357 L19.6760571,18.1981313 L19.2820179,18.591683 L19.6760571,18.9857223 L19.6760571,21.744833 L19.2820179,22.1384196 L19.6760571,22.5324241 L19.6760571,25.2896893 L19.2820179,25.6837286 L19.6760571,26.0777679 L19.6760571,28.5240429 C19.6760571,28.5775634 19.632217,28.6218563 19.5782437,28.6218563 L12.2896312,28.6218563 C12.235658,28.6218563 12.1904598,28.5775634 12.1904598,28.5240429 L12.1904598,26.0777679 L12.5858571,25.6837286 L12.1904598,25.2896893 L12.1904598,22.5324241 L12.5858571,22.1384196 L12.1904598,21.744833 L12.1904598,18.9857223 L12.5858571,18.591683 L12.1904598,18.1981313 L12.1904598,15.3707357 L14.7520982,13.2903295 L14.7520982,12.1086991 L17.1157768,12.1086991 L17.1157768,13.2903295 L19.6760571,15.3707357 Z" id="Path" fill="#C8E6C9"></path>
                            <path d="M13.9492554,28.5231375 L13.9492554,26.0768277 L14.3432946,25.6828232 L13.9492554,25.2887839 L13.9492554,22.5315187 L14.3432946,22.1379321 L13.9492554,21.7439277 L13.9492554,18.9866277 L14.3432946,18.5926232 L13.9492554,18.1985839 L13.9492554,15.3697955 L16.5095357,13.289842 L16.5095357,12.1082464 L14.7516107,12.1082464 L14.7516107,13.289842 L12.1913652,15.3697955 L12.1913652,18.1985839 L12.5854045,18.5926232 L12.1913652,18.9866277 L12.1913652,21.7439277 L12.5854045,22.1379321 L12.1913652,22.5315187 L12.1913652,25.2887839 L12.5854045,25.6828232 L12.1913652,26.0768277 L12.1913652,28.5231375 C12.1913652,28.5771107 12.2352054,28.6223437 12.2891786,28.6223437 L14.0470688,28.6223437 C13.9930955,28.6223437 13.9492554,28.5771107 13.9492554,28.5231375 Z" id="Path" fill="#4CAF50"></path>
                            <path d="M19.1399116,25.4479527 L17.8129366,25.4479527 L17.8129366,25.8876777 L19.1399116,25.8876777 L19.1399116,25.4479527 Z M19.255275,21.9012509 L17.9287527,21.9012509 L17.9287527,22.3409411 L19.255275,22.3409411 L19.255275,21.9012509 Z M19.3724491,18.3563946 L18.0459616,18.3563946 L18.0459616,18.7956321 L19.3724491,18.7956321 L19.3724491,18.3563946 Z M15.0478366,25.4479527 L12.2564116,25.4479527 L12.2564116,25.8876777 L15.0478366,25.8876777 L15.0478366,25.4479527 Z M15.2102438,21.9012509 L12.4206643,21.9012509 L12.4206643,22.3409411 L15.2102438,22.3409411 L15.2102438,21.9012509 Z M15.3749491,18.7956321 L12.584917,18.7956321 L12.584917,18.3563946 L15.3749491,18.3563946 L15.3749491,18.7956321 Z" id="Shape" fill="#357A38"></path>
                            <path d="M17.3303464,11.6962045 L14.5370759,11.6962045 L14.5370759,11.398133 C14.5370759,10.7259054 15.0824491,10.1791393 15.7546768,10.1791393 L16.1113527,10.1791393 C16.7849732,10.1791393 17.3303464,10.7259054 17.3303464,11.398133 L17.3303464,11.6962045 Z" id="Path" fill="#4CAF50"></path>
                            <path d="M22.7581366,18.2188848 C22.6363313,18.2188848 22.5385179,18.1215241 22.5385179,17.9992661 L22.5385179,17.2536696 C22.5385179,17.1318643 22.6363313,17.0340509 22.7581366,17.0340509 C22.8803946,17.0340509 22.978208,17.1318643 22.978208,17.2536696 L22.978208,17.9992661 C22.978208,18.1215241 22.8803946,18.2188848 22.7581366,18.2188848 Z" id="Path" fill="#4CAF50"></path>
                            <path d="M22.7581366,16.5546643 C22.6363313,16.5546643 22.5385179,16.455458 22.5385179,16.3350455 L22.5385179,15.5894143 C22.5385179,15.4676089 22.6363313,15.3697955 22.7581366,15.3697955 C22.8803946,15.3697955 22.978208,15.4676089 22.978208,15.5894143 L22.978208,16.3350455 C22.978208,16.455458 22.8803946,16.5546643 22.7581366,16.5546643 Z" id="Path" fill="#4CAF50"></path>
                            <path d="M22.7581366,14.8904089 C22.6363313,14.8904089 22.5385179,14.7930482 22.5385179,14.6707902 L22.5385179,13.9251937 C22.5385179,13.8033884 22.6363313,13.705575 22.7581366,13.705575 C22.8803946,13.705575 22.978208,13.8033884 22.978208,13.9251937 L22.978208,14.6707902 C22.978208,14.7930482 22.8803946,14.8904089 22.7581366,14.8904089 Z" id="Path" fill="#4CAF50"></path>
                            <path d="M7.28770714,11.2371188 L3.31653214,8.55276964 C3.66115982,8.04016339 4.03719643,7.53908304 4.43123571,7.06060179 C4.82663304,6.58170268 5.24835536,6.11798571 5.68299643,5.68337946 C6.11575714,5.25058393 6.57992679,4.82886161 7.05840804,4.43346429 C7.53361607,4.04081786 8.03514911,3.66662679 8.55099375,3.31827321 C9.06544554,2.96991964 9.60388929,2.64280714 10.151108,2.34518839 C10.6978393,2.04715179 11.26905,1.773525 11.8471554,1.52806875 C12.429892,1.28215982 13.0287857,1.06254107 13.6309179,0.875201786 C14.2463866,0.683266071 14.8729634,0.523644643 15.4944563,0.396755357 L16.4518366,5.09416607 C15.9863089,5.19013393 15.5156973,5.31054643 15.0533732,5.45404554 C14.6026098,5.59385357 14.1518116,5.75995179 13.713967,5.9436 C13.2811714,6.12766607 12.8511616,6.33440089 12.4396071,6.55906875 C12.0275652,6.78192589 11.6224875,7.02786964 11.2367357,7.28993571 C10.8477804,7.55200179 10.4685402,7.83527411 10.1105063,8.1315 C9.75062679,8.42908393 9.40042768,8.74655089 9.07328036,9.07366339 C8.744775,9.40262143 8.42734286,9.750975 8.12927143,10.1122473 C7.8316875,10.4735196 7.54838036,10.8514018 7.28770714,11.2371188 L7.28770714,11.2371188 Z" id="Path" fill="#357A38"></path>
                            <path d="M1.52584018,26.9511589 C1.28038393,26.3702679 1.0603125,25.7714089 0.873460714,25.1688241 C0.682883036,24.5537732 0.52186875,23.9272312 0.394979464,23.3052509 C0.264399107,22.6722321 0.167073214,22.0244491 0.100146429,21.3812625 C0.0351,20.7288482 0.000975,20.0630625 0.000975,19.4005152 C0.000975,18.7379679 0.0351,18.0721821 0.100146429,17.4197679 C0.167073214,16.7765812 0.264399107,16.1287982 0.394979464,15.4938991 C0.52186875,14.8737991 0.682883036,14.2490679 0.873460714,13.6335991 C1.0603125,13.0296214 1.28038393,12.4307277 1.52584018,11.8498366 L5.94182411,13.7166482 C5.75821071,14.1526473 5.59207768,14.6052911 5.45181696,15.0579 C5.30880536,15.5169857 5.18839286,15.9871446 5.092425,16.4526723 C4.99457679,16.9329991 4.91985,17.4211607 4.87092589,17.9046911 C4.82064375,18.3960562 4.79619911,18.8989821 4.79619911,19.4005152 C4.79619911,19.9020482 4.82064375,20.4049741 4.87092589,20.8963393 C4.91985,21.3798696 4.99457679,21.8680313 5.092425,22.3464777 C5.18839286,22.8138857 5.30880536,23.2840446 5.45181696,23.7449759 C5.59207768,24.1957393 5.75821071,24.648383 5.94182411,25.0843821 L1.52584018,26.9511589 Z" id="Path" fill="#357A38"></path>
                            <path d="M15.4917054,38.404275 C14.8651286,38.2755402 14.2385518,38.1145259 13.6313705,37.9258286 C13.0292384,37.7384893 12.4285339,37.5188705 11.8457973,37.2729616 C11.2745866,37.0302563 10.7047688,36.7552714 10.1529536,36.4576527 C9.60758036,36.1614616 9.07052946,35.8343143 8.55283929,35.48415 C8.03563661,35.1357964 7.53410357,34.7597598 7.05886071,34.3675661 C6.58177232,33.9735268 6.11944821,33.5536848 5.68344911,33.1158054 C5.24880804,32.6830446 4.82712054,32.2207205 4.43168839,31.7403937 C4.03629107,31.2601018 3.66025446,30.7590214 3.31513929,30.2464152 L7.28815982,27.5639116 C7.54886786,27.9496286 7.83214018,28.3288687 8.12975893,28.688783 C8.42595,29.0500554 8.74522768,29.3983741 9.072375,29.7255214 C9.40272589,30.0558723 9.75247232,30.3746973 10.1109589,30.6708884 C10.4689929,30.9657214 10.8464223,31.2490286 11.2372232,31.5124875 C11.624333,31.7745536 12.0312563,32.0204625 12.4400598,32.2433196 C12.8548527,32.4680223 13.2848625,32.6747223 13.7144196,32.8569777 C14.1522643,33.0424714 14.6016696,33.2071768 15.0538259,33.3469848 C15.5115187,33.4904491 15.9816777,33.6108964 16.4536821,33.7068643 L15.4917054,38.404275 L15.4917054,38.404275 Z" id="Path" fill="#357A38"></path>
                            <path d="M19.3987393,38.7983143 L19.3987393,34.0030554 C19.8965812,34.0030554 20.3995071,33.9790634 20.8945982,33.9283286 L21.3795214,38.699108 C20.7234161,38.7641545 20.058083,38.7983143 19.3987393,38.7983143 Z" id="Path" fill="#357A38"></path>
                            <path d="M25.1652027,37.9262813 L23.7441402,33.3474375 C24.1949036,33.2076295 24.6461545,33.0415312 25.0807955,32.8574304 C25.5135563,32.675175 25.9431134,32.468475 26.3597518,32.2424143 C26.7667098,32.02095 27.172275,31.7736134 27.5625884,31.5115473 C27.9501857,31.2494813 28.3294259,30.9662089 28.6874598,30.669983 C29.0455286,30.3737571 29.3956929,30.056325 29.724233,29.727367 C30.0545839,29.3970161 30.3720161,29.0472696 30.6682071,28.6873902 C30.9662786,28.3275107 31.2495857,27.9482357 31.5098062,27.5625188 L35.4833143,30.2482607 C35.1363187,30.7595089 34.7621277,31.2610071 34.3681232,31.7394884 C33.9726911,32.2179348 33.5510036,32.6802589 33.1149696,33.1162929 C32.6785179,33.5541375 32.2161937,33.9740143 31.739558,34.3680188 C31.2625045,34.7602125 30.7609714,35.1362491 30.2469723,35.4846027 C29.7292821,35.8329563 29.1922312,36.1600688 28.646858,36.4562946 C28.0931973,36.7557241 27.5219866,37.0307089 26.9489652,37.2734143 C26.3699196,37.5193232 25.7673348,37.738942 25.1652027,37.9262813 L25.1652027,37.9262813 Z" id="Path" fill="#357A38"></path>
                            <path d="M37.270733,26.9530045 L32.8547491,25.0829893 C33.0402429,24.6465375 33.2049482,24.1975848 33.3447562,23.7449759 C33.4882554,23.2877357 33.6086679,22.8171241 33.7060286,22.3451196 C33.8019964,21.8717223 33.8772107,21.383108 33.9261,20.8963393 C33.9763821,20.4017357 34.0022196,19.8988098 34.0022196,19.4005152 L38.7960857,19.4005152 C38.7960857,20.0598241 38.7633188,20.7256098 38.6964268,21.3817152 C38.6299875,22.0276875 38.5321741,22.6754705 38.4020464,23.3070964 C38.2751571,23.9336732 38.1141429,24.56025 37.9236,25.1692768 C37.7362607,25.7700161 37.516642,26.3721134 37.270733,26.9530045 Z" id="Path" fill="#357A38"></path>
                            <path d="M33.7055759,16.4550054 C33.6091205,15.9830009 33.488708,15.5142348 33.3456616,15.0569946 C33.2054009,14.6043509 33.0411482,14.1535875 32.8556893,13.7175536 L37.2697929,11.8470857 C37.5175821,12.4298223 37.7372009,13.0305616 37.9245054,13.6345045 C38.1132375,14.2398402 38.2742518,14.866417 38.4029866,15.4934464 L33.7055759,16.4550054 Z" id="Path" fill="#357A38"></path>
                            <path d="M31.5107116,11.2385116 C31.2486455,10.8527946 30.9658259,10.4735196 30.6677545,10.1104018 L34.3676705,7.06154196 C34.7612223,7.54047589 35.1358661,8.04016339 35.4809812,8.55276964 L31.5107116,11.2385116 L31.5107116,11.2385116 Z" id="Path" fill="#357A38"></path>
                            <path d="M28.6874598,8.13104732 C28.3294259,7.83482143 27.9501857,7.55154911 27.5612304,7.28944821 C27.1754786,7.02738214 26.7699482,6.78147321 26.3583589,6.55861607 C25.9463518,6.33391339 25.5167946,6.12721339 25.0807955,5.9431125 C24.6461545,5.75949911 24.1949036,5.59340089 23.7409018,5.45359286 L25.1670482,0.874749107 C25.7691804,1.06208839 26.3699196,1.28170714 26.9489652,1.52761607 C27.5284634,1.77307232 28.1001268,2.04805714 28.646858,2.34428304 C29.1954696,2.64231964 29.7339134,2.96946696 30.2469723,3.31782054 C30.7609714,3.66478125 31.2625045,4.04036518 31.7377125,4.43301161 L28.6874598,8.13104732 Z" id="Path" fill="#357A38"></path>
                            <path d="M20.8950509,4.87270179 C20.4036509,4.82193214 19.8989143,4.79794018 19.3992268,4.79794018 L19.3992268,0.00271607143 C20.0599286,0.00271607143 20.7275598,0.0368758929 21.3785812,0.101922321 L20.8950509,4.87270179 L20.8950509,4.87270179 Z" id="Path" fill="#357A38"></path>
                        </g>
                        <g id="Group" transform="translate(194.000000, 0.000000)" fill-rule="nonzero">
                            <path d="M1.44540849,25.5017264 C1.21366981,24.9518226 1.00461981,24.3843264 0.827019811,23.8149802 C0.647569811,23.2322302 0.495869811,22.6401953 0.375166038,22.0528377 C0.252577358,21.4538915 0.158227358,20.8401453 0.0962698113,20.2319491 C0.0338235849,19.6135604 0.00282735849,18.9836179 0.00282735849,18.3569217 C0.00282735849,17.7302255 0.0338235849,17.1007717 0.0962698113,16.482383 C0.158227358,15.873733 0.252577358,15.2618368 0.375166038,14.6596443 C0.495869811,14.0741019 0.647569811,13.4816481 0.827019811,12.9007481 C1.00461981,12.3281557 1.21366981,11.7620557 1.44540849,11.212117 L5.62413962,12.9775057 C5.44933208,13.3919057 5.29253585,13.8192906 5.16069717,14.2470943 C5.0251934,14.6827868 4.91094717,15.128183 4.82123962,15.568483 C4.72828585,16.0221868 4.65658962,16.4837792 4.6107934,16.9407292 C4.56360094,17.4074179 4.53909717,17.8824142 4.53909717,18.3569217 C4.53909717,18.8300679 4.56360094,19.3064604 4.6107934,19.7731142 C4.65658962,20.2300991 4.72828585,20.6916566 4.81938962,21.1439991 C4.91094717,21.5861491 5.0251934,22.0315453 5.16069717,22.468634 C5.29253585,22.8945877 5.44933208,23.3219377 5.62413962,23.7363377 L1.44540849,25.5017264 L1.44540849,25.5017264 Z" id="Path" fill="#00BCD4"></path>
                            <path d="M14.6610755,36.3392009 C14.0667368,36.2184972 13.4747368,36.0649472 12.9002943,35.8873472 C12.3309481,35.7092585 11.7616019,35.5020585 11.2116981,35.2689585 C10.6701019,35.040466 10.1312632,34.779616 9.60771321,34.4970198 C9.09201698,34.2163085 8.58466321,33.906416 8.09347075,33.577116 C7.6041283,33.2454774 7.13098208,32.8916736 6.68052453,32.5198236 C6.23048585,32.1474849 5.7929434,31.7492811 5.3785434,31.3367311 C4.96923962,30.9255425 4.56915094,30.4866387 4.19545094,30.0347849 C3.82035472,29.57965 3.46470094,29.1046538 3.13815849,28.6199538 L6.8992783,26.0831151 C7.14393208,26.4466575 7.4117283,26.8041613 7.69387075,27.1468651 C7.9759783,27.4877538 8.27616698,27.8175075 8.58651321,28.1274 C8.89961698,28.4405038 9.22937075,28.7406575 9.56840943,29.0214038 C9.90786698,29.3003 10.2654057,29.5680962 10.6340094,29.8178462 C11.0026481,30.0657462 11.3860519,30.2988462 11.7727019,30.5092925 C12.1644481,30.7215887 12.5723906,30.9172349 12.978483,31.0901925 C13.392883,31.2650349 13.8188368,31.4213774 14.2466755,31.5536349 C14.680483,31.6891387 15.1240292,31.8033849 15.5712755,31.8945236 L14.6610755,36.3392009 L14.6610755,36.3392009 Z" id="Path" fill="#00BCD4"></path>
                            <path d="M18.3574104,36.7124472 L18.3574104,32.1747811 C18.8291953,32.1747811 19.3055528,32.1521274 19.7740915,32.1030849 L20.2324377,36.6176434 C19.6121991,36.6796009 18.9808953,36.7124472 18.3574104,36.7124472 L18.3574104,36.7124472 Z" id="Path" fill="#00BCD4"></path>
                            <path d="M23.8140726,35.8868585 L22.4700302,31.5531811 C22.8973802,31.4213774 23.3233689,31.2645811 23.7345226,31.0901925 C24.1438613,30.9172349 24.5499189,30.7229849 24.9449113,30.5074425 C25.3301651,30.2988462 25.7136038,30.0652925 26.0822075,29.8173925 C26.44945,29.5694925 26.80835,29.3003 27.1478425,29.02095 C27.48545,28.7406575 27.8166,28.44005 28.1297387,28.1287613 C28.4414462,27.8152038 28.7416349,27.4859038 29.0223811,27.1445613 C29.3031274,26.8055575 29.5704349,26.4466575 29.8188236,26.0808113 L33.5762085,28.62135 C33.2501547,29.1042 32.8940123,29.5791962 32.5221623,30.0329349 C32.1484623,30.4847887 31.7507123,30.9218425 31.3376736,31.3362774 C30.9232736,31.7492811 30.4857311,32.1474849 30.0357274,32.5193698 C29.5838387,32.8912198 29.1088425,33.2468736 28.6227462,33.5766623 C28.1329849,33.906416 27.6242,34.2163085 27.1085038,34.4951698 C26.5849538,34.7791623 26.0447538,35.0400123 25.5031575,35.2685047 C24.9532189,35.5020585 24.3852689,35.7092585 23.8140726,35.8868585 L23.8140726,35.8868585 Z" id="Path" fill="#00BCD4"></path>
                            <path d="M35.2694472,25.5035764 L31.090716,23.7331264 C31.2669198,23.3219377 31.421866,22.895984 31.5541236,22.468634 C31.6896623,22.0347915 31.8038736,21.5907915 31.8950123,21.1439991 C31.987966,20.6949028 32.058266,20.2333104 32.1040623,19.7717528 C32.152616,19.3050642 32.1757585,18.8287066 32.1757585,18.3569217 L36.7133896,18.3569217 C36.7133896,18.9804066 36.6805434,19.6117104 36.6185858,20.2319491 C36.5565934,20.8419953 36.4617896,21.4571028 36.3396896,22.0541991 C36.2189858,22.6466877 36.0672858,23.2405377 35.8878358,23.8149802 C35.7097472,24.3843264 35.5025472,24.9536726 35.2694472,25.5035764 L35.2694472,25.5035764 Z" id="Path" fill="#00BCD4"></path>
                            <path d="M31.895466,15.5698792 C31.8043623,15.124483 31.690116,14.6790868 31.5545774,14.2480368 C31.4223198,13.8174406 31.2655236,13.3914519 31.0911698,12.9802981 L35.2699009,11.210267 C35.5030009,11.761567 35.7102358,12.3295519 35.8882896,12.9007481 C36.0658896,13.4733057 36.2194396,14.0671906 36.3401434,14.6591906 L31.895466,15.5698792 Z" id="Path" fill="#00BCD4"></path>
                            <g transform="translate(3.138019, 0.000000)" fill="#00BCD4" id="Path">
                                <path d="M3.75940943,10.6321245 L0.000139622641,8.09343585 C0.328078302,7.60873585 0.682335849,7.1323434 1.05607075,6.68048962 C1.43113208,6.22675094 1.83122075,5.78784717 2.24237453,5.37665849 C2.65031698,4.96690094 3.08876698,4.56915094 3.54250566,4.19356604 C3.99296321,3.82311226 4.46610943,3.46745849 4.95405566,3.13815849 C5.44200189,2.80836981 5.95075189,2.49987358 6.46829811,2.21776604 C6.98678679,1.93701981 7.52698679,1.67616981 8.07367925,1.44443113 C8.62497925,1.21272736 9.19107925,1.00367736 9.76227547,0.827473585 C10.3450604,0.646627358 10.9370604,0.494927358 11.5244528,0.374188679 L12.4318604,4.82029717 C11.9911066,4.91000472 11.5457104,5.02425094 11.1086566,5.15975472 C10.6808179,5.29155849 10.2548642,5.44835472 9.84046415,5.62319717 C9.42927547,5.79755094 9.02503302,5.99319717 8.63468302,6.2036434 C8.24478679,6.41593962 7.86138302,6.6494934 7.49599057,6.8973934 C7.12738679,7.1452934 6.76984811,7.41448585 6.43039057,7.69338208 C6.08950189,7.9741283 5.75835189,8.27428208 5.44985566,8.5846283 C5.13814811,8.89588208 4.83795943,9.22567075 4.55585189,9.56837453 C4.27370943,9.9092283 4.00591321,10.266767 3.75940943,10.6321245 L3.75940943,10.6321245 Z"></path>
                                <path d="M26.6808047,10.6335208 C26.4328698,10.2676745 26.1637123,9.90877453 25.882966,9.56652453 L29.3845972,6.68139717 C29.7564472,7.13373962 30.1107396,7.60688585 30.4386434,8.09113208 L26.6808047,10.6335208 Z"></path>
                                <path d="M24.0093349,7.6928934 C23.6698774,7.41403208 23.3109774,7.14483962 22.9437349,6.89648585 C22.5783425,6.64858585 22.1949387,6.41684717 21.8050425,6.20503962 C21.4151462,5.9927434 21.0086,5.79709717 20.5974462,5.62225472 C20.1848613,5.44790094 19.7575113,5.29295472 19.3297075,5.15884717 L20.67745,0.826984906 C21.2467962,1.00507358 21.8147462,1.21227358 22.3646849,1.44537358 C22.9127387,1.67707736 23.4529387,1.93656604 23.9700311,2.21867358 C24.4889736,2.49941981 24.9995736,2.80931226 25.4861236,3.13906604 C25.9703698,3.46696981 26.4467623,3.82265849 26.8958585,4.19311226 L24.0093349,7.6928934 L24.0093349,7.6928934 Z"></path>
                                <path d="M16.635584,4.60985094 C16.1703264,4.56265849 15.693934,4.53815472 15.2193915,4.53815472 L15.2193915,0.00188490566 C15.845634,0.00188490566 16.4774264,0.0328811321 17.0939302,0.0948386792 L16.635584,4.60985094 L16.635584,4.60985094 Z"></path>
                            </g>
                            <path d="M19.0000179,19.5684046 C16.8207059,19.5684046 15.0547037,17.8599568 15.0547037,15.7506974 C15.0547037,13.6418538 16.8207059,11.933406 19.0000179,11.933406 C21.1792941,11.933406 22.9452963,13.6418538 22.9452963,15.7506974 C22.9452963,17.8599568 21.1792941,19.5684046 19.0000179,19.5684046 Z M26,15.7736365 C26,12.0335136 22.8665161,9 19.0000179,9 C15.1334839,9 12,12.0335136 12,15.7736365 C12,16.9995303 12.3397577,18.1450677 12.9290338,19.1363721 L12.9152831,19.1363721 L19.1152877,27 L25.0842514,19.1363721 L25.0709662,19.1363721 C25.6583802,18.1450677 26,16.9995303 26,15.7736365 L26,15.7736365 Z" id="Shape" fill="#B2EBF2"></path>
                        </g>
                        <g id="Group" transform="translate(272.000000, 12.000000)" fill-rule="nonzero">
                            <path d="M19.7575407,7.09632701 L17.8980455,1.14152409 C18.2974283,1.01847591 18.7000821,0.903836496 19.107871,0.799357664 C19.5142531,0.695859854 19.92672,0.601121168 20.3442869,0.51570219 C20.7520759,0.432140146 21.1715069,0.356951825 21.5923448,0.293360584 C22.0197248,0.227877372 22.4437986,0.175427737 22.8711786,0.130861314 C23.2989807,0.0886072993 23.7310034,0.0556379562 24.1653476,0.0328992701 C25.0219366,-0.00981021898 25.9111655,-0.00981021898 26.7793966,0.0343007299 C27.2086055,0.0556379562 27.6392214,0.0886072993 28.0666014,0.130861314 C28.4958103,0.175427737 28.9199193,0.227877372 29.3426214,0.293360584 C29.7681021,0.356951825 30.1875683,0.432140146 30.6,0.517559124 C31.0129241,0.601121168 31.4253559,0.695859854 31.835009,0.800759124 L30.2681834,6.83775766 C29.9638366,6.75882044 29.6581179,6.68871241 29.3472641,6.62652263 C29.0284966,6.56058394 28.713,6.50487591 28.3956041,6.45754161 C28.0829214,6.41017226 27.7627469,6.36746277 27.4388441,6.33635036 C27.1163483,6.30387153 26.7910386,6.27741898 26.4638648,6.2625635 C25.7979103,6.2281927 25.1370559,6.23004964 24.4808793,6.26116204 C24.1485703,6.27741898 23.8232959,6.30387153 23.4993931,6.33635036 C23.1773545,6.36746277 22.8567228,6.41017226 22.5393621,6.45754161 C22.2252372,6.50487591 21.9111124,6.56058394 21.5988869,6.62466569 C21.281491,6.68871241 20.9757724,6.75882044 20.6714607,6.83775766 C20.3606069,6.91760584 20.0581241,7.00302482 19.7575407,7.09632701 L19.7575407,7.09632701 Z" id="Path" fill="#4CAF50"></path>
                            <path d="M12.5553559,11.2076496 L8.34792621,6.5907854 C8.6489669,6.31872701 8.95468552,6.05364088 9.26694621,5.79643796 C9.58571379,5.53601168 9.90634552,5.28392409 10.2335193,5.03975474 C10.5574221,4.79926423 10.89156,4.56343358 11.2317828,4.33408467 C11.5668703,4.10799416 11.9121931,3.88701898 12.262651,3.67581898 C12.6126517,3.46272701 12.9696517,3.25797372 13.3312945,3.06299562 C13.6897014,2.86801752 14.0559869,2.68327007 14.424629,2.50451387 C14.8011848,2.32439124 15.1772834,2.15586569 15.5589745,1.99525839 L17.994031,7.74022774 C17.7060393,7.86187445 17.4217407,7.98951241 17.14212,8.12370219 C16.8676345,8.25459854 16.5898428,8.39712701 16.3153572,8.5447708 C16.0441428,8.69192409 15.7761641,8.84604964 15.5128283,9.00483504 C15.2499848,9.16544234 14.9899552,9.33070949 14.7350255,9.50109197 C14.4772821,9.67473285 14.2270303,9.85159708 13.982371,10.0349781 C13.7325766,10.2215825 13.4906959,10.4100788 13.2539503,10.6050569 C13.0185766,10.7981781 12.7836952,11.0010394 12.5553559,11.2076496 L12.5553559,11.2076496 Z" id="Path" fill="#4CAF50"></path>
                            <path d="M10.645951,13.2029431 L5.82198414,9.22812263 C6.08014966,8.91706861 6.34672138,8.61207591 6.61937793,8.31261898 L11.2541524,12.5033343 C11.0472331,12.7312818 10.8430924,12.9652555 10.645951,13.2029431 L10.645951,13.2029431 Z" id="Path" fill="#4CAF50"></path>
                            <path d="M9.04324966,15.4503241 L3.69310345,12.2127066 C3.90515793,11.8636029 4.12744759,11.5182131 4.35582207,11.1825635 L9.54097448,14.6759825 C9.36855931,14.9294715 9.20265103,15.1884964 9.04324966,15.4503241 L9.04324966,15.4503241 Z" id="Path" fill="#4CAF50"></path>
                            <path d="M6.36349862,23.4060263 L0.13580069,22.7806949 C0.178675862,22.3531095 0.232735862,21.9306745 0.297066207,21.5114628 C0.362768276,21.0857343 0.436384138,20.669781 0.522134483,20.2570861 C0.60602069,19.8476146 0.701091724,19.4362861 0.806433103,19.0268496 C0.909910345,18.6257518 1.02499448,18.222762 1.14852,17.8249226 C1.27341724,17.4270832 1.40668552,17.0338686 1.5497669,16.6439124 C1.69284828,16.2557781 1.84570759,15.8695358 2.00834483,15.4893197 C2.16633931,15.1160759 2.33692552,14.7409752 2.51447586,14.3723562 L8.15729172,17.0714628 C8.02261655,17.3514044 7.89399103,17.6350599 7.77236483,17.9214832 C7.64933172,18.211165 7.53561931,18.4994803 7.42887103,18.7896175 C7.32029379,19.0844146 7.22008759,19.3792117 7.12642345,19.6786336 C7.03275931,19.9766891 6.94700897,20.2779679 6.86822276,20.584362 C6.78947172,20.8907562 6.71863448,21.1966949 6.65433931,21.504946 C6.58860207,21.8224818 6.53454207,22.1367942 6.48516,22.4529285 C6.4376069,22.7658394 6.39659586,23.0852321 6.36349862,23.4060263 L6.36349862,23.4060263 Z" id="Path" fill="#4CAF50"></path>
                            <path d="M0.806890345,31.7098861 C0.701584138,31.3004496 0.606513103,30.8891212 0.520762759,30.4731679 C0.436876552,30.0669547 0.361361379,29.6510015 0.297523448,29.2303883 C0.231328966,28.8060613 0.179133103,28.3836263 0.134393793,27.9560409 C0.0919758621,27.5303474 0.0589137931,27.1009051 0.0360517241,26.6686949 C0.0146317241,26.2411445 0.00298965517,25.8056759 0.00298965517,25.3683854 L6.26378483,25.3683854 C6.26378483,25.6975182 6.27215586,26.0266511 6.28847586,26.3525606 C6.30479586,26.6849518 6.33135103,27.0076029 6.36399103,27.330254 C6.39518897,27.6515036 6.43806414,27.9708964 6.48561724,28.2884321 C6.53313517,28.5994861 6.58905931,28.914254 6.65338966,29.225273 C6.71772,29.5395854 6.78806483,29.8459796 6.86730828,30.1491153 L0.806890345,31.7098861 L0.806890345,31.7098861 Z" id="Path" fill="#4CAF50"></path>
                            <path d="M6.61892069,42.4241168 C6.34626414,42.1242044 6.08155655,41.8196672 5.82335586,41.5086131 C5.56005517,41.1906219 5.30698966,40.8712292 5.06373724,40.5453197 C4.82044966,40.2226686 4.58370414,39.8902774 4.35346552,39.5513693 C4.12649793,39.2157197 3.90466552,38.8717314 3.69264621,38.5244847 C3.48059172,38.1758365 3.27504414,37.8202161 3.07930966,37.4599708 C2.88357517,37.101127 2.6962469,36.7376234 2.51866138,36.3708613 C2.33597586,35.9943591 2.16679655,35.6206599 2.00556621,35.2408993 C1.84616483,34.8676555 1.69330552,34.4809577 1.55022414,34.0896 L7.42795655,31.9457168 C7.53466966,32.2372555 7.64978897,32.5255708 7.77000828,32.8087358 C7.89494069,33.1021664 8.02307379,33.3853314 8.15778414,33.6638715 C8.29105241,33.9386978 8.43226966,34.2140146 8.58048621,34.4874394 C8.72821034,34.7576409 8.88293379,35.0245839 9.04233517,35.2868672 C9.20356552,35.5505518 9.36947379,35.8091212 9.54378828,36.0630657 C9.71483172,36.3184117 9.89424621,36.5672409 10.0783386,36.8114453 C10.2638028,37.0602745 10.4530303,37.3012204 10.6487648,37.5370511 C10.8426352,37.7710248 11.0467759,38.005454 11.2536952,38.232946 L6.61892069,42.4241168 L6.61892069,42.4241168 Z" id="Path" fill="#4CAF50"></path>
                            <path d="M10.2302483,45.6937577 C9.90448138,45.4509547 9.58434207,45.2007241 9.27021724,44.9435212 C8.95422828,44.681238 8.64850966,44.4175533 8.34792621,44.1459854 L12.5548634,39.5290861 C12.7836952,39.7356964 13.0185766,39.9385577 13.2571862,40.1349372 C13.4920676,40.3266569 13.7339483,40.5165197 13.9818786,40.7017577 L10.2302483,45.6937577 L10.2302483,45.6937577 Z" id="Path" fill="#4CAF50"></path>
                            <path d="M13.3308372,47.6727942 C12.9691945,47.4778161 12.6126517,47.2730978 12.2621938,47.0618628 L15.5142352,41.7309898 C15.7756717,41.8916321 16.0436503,42.0439007 16.3149,42.191054 L13.3308372,47.6727942 Z" id="Path" fill="#4CAF50"></path>
                            <path d="M46.5856862,39.5518599 L41.3967703,36.0635562 C41.5696779,35.8082102 41.7374503,35.5496409 41.8968517,35.2859212 C42.0562179,35.023638 42.2109414,34.7566949 42.3587007,34.4865285 L47.8617062,37.4604263 C47.6659717,37.821162 47.4604593,38.1748905 47.2465407,38.5249401 C47.0344862,38.8721869 46.8140607,39.2148088 46.5856862,39.5518599 L46.5856862,39.5518599 Z" id="Path" fill="#4CAF50"></path>
                            <path d="M48.932671,35.2437022 L43.1681938,32.8133956 C43.2884483,32.5297401 43.4017034,32.2433168 43.5084166,31.9517781 L49.391249,34.0858861 C49.2481676,34.4753869 49.0953083,34.8620847 48.932671,35.2437022 L48.932671,35.2437022 Z" id="Path" fill="#4CAF50"></path>
                            <path d="M50.1336683,31.7047708 L44.0704717,30.1537752 C44.1492228,29.8492029 44.2214669,29.5414423 44.2838979,29.2317898 C44.3500924,28.9156204 44.4060166,28.6027445 44.4535345,28.2884321 C44.5029517,27.965781 44.5439628,27.6463883 44.5765676,27.3251387 C44.6078007,27.0062015 44.6343559,26.6816934 44.6506759,26.3525606 L50.9016931,26.6733547 C50.8802731,27.1041635 50.8471759,27.5317139 50.8047579,27.9560409 C50.7600186,28.3882511 50.7078228,28.8107212 50.6416283,29.2299328 C50.5777903,29.6477431 50.5036821,30.0650978 50.4184241,30.4796496 C50.3345379,30.8872642 50.2389745,31.2985927 50.1336683,31.7047708 L50.1336683,31.7047708 Z" id="Path" fill="#4CAF50"></path>
                            <path d="M44.6506759,24.3837197 C44.6343559,24.0559533 44.6078007,23.7300788 44.5765676,23.4060263 L50.8047579,22.7802394 C50.8471759,23.2045314 50.8802731,23.6335182 50.9016931,24.0624701 L44.6506759,24.3837197 Z" id="Path" fill="#4CAF50"></path>
                            <path d="M44.2843552,21.5054365 C44.2205172,21.1957839 44.14968,20.8879883 44.070929,20.5834511 C43.9916855,20.2789139 43.9064276,19.9776 43.8127283,19.6777226 C43.7190641,19.3796672 43.6184007,19.0834686 43.5116876,18.7919299 C43.4030752,18.4939095 43.287991,18.2069956 43.1681938,17.9219387 C43.0447034,17.6336584 42.9165352,17.3523153 42.78186,17.0719182 C42.6485566,16.7984934 42.5073393,16.5218102 42.3591579,16.2497518 C42.2114338,15.9781839 42.0567103,15.7126423 41.897309,15.4508146 C41.7360434,15.1884964 41.5701352,14.9285255 41.3991269,14.674581 C41.2266766,14.4206365 41.0472621,14.1699504 40.8613055,13.9243796 C40.6772131,13.6769518 40.4866138,13.4364613 40.2908793,13.1987737 C40.0969738,12.9648 39.8933255,12.7321927 39.685949,12.5028788 C39.4804014,12.2800467 39.2683821,12.0572146 39.0497855,11.8394628 L43.4771834,7.43057518 C43.7647531,7.71748905 44.0443738,8.0104292 44.3188593,8.31030657 C44.5933448,8.61162044 44.8580524,8.91615766 45.1162531,9.22903358 C45.3795538,9.54334599 45.6307552,9.86273869 45.8745,10.1872467 C46.1191945,10.5131212 46.3545331,10.8436905 46.5828724,11.181162 C46.813111,11.5186686 47.0349434,11.862692 47.2469979,12.2113401 C47.4590524,12.5618453 47.6645648,12.9155737 47.8602993,13.275819 C48.0560338,13.6346978 48.2433972,13.9982015 48.4209476,14.3667854 C48.6036331,14.7414307 48.7728124,15.115165 48.9340779,15.4948905 C49.094851,15.8751066 49.2481676,16.2599825 49.3907917,16.6513401 C49.5324662,17.0343241 49.6657697,17.4275387 49.7906669,17.8253781 C49.9137,18.2232526 50.0287841,18.6262073 50.1341255,19.0324204 C50.2394669,19.4386336 50.3345379,19.8480701 50.4184241,20.2626569 L44.2843552,21.5054365 L44.2843552,21.5054365 Z" id="Path" fill="#4CAF50"></path>
                            <path d="M37.6856938,10.6046015 C37.4489483,10.4096234 37.2075248,10.2215825 36.9624083,10.0382015 C36.7126138,9.85114161 36.46092,9.67424234 36.2060255,9.50249343 C35.9510959,9.33070949 35.6914883,9.16498686 35.4267807,9.00483504 C35.16348,8.84559416 34.8955014,8.69192409 34.6242517,8.54428029 L37.6083145,3.06439708 C37.9699924,3.25797372 38.3269572,3.46272701 38.6769579,3.67532847 C39.0255517,3.8865635 39.3709097,4.10799416 39.7078614,4.3336292 C40.0485062,4.5629781 40.3822221,4.79880876 40.7093607,5.0429781 C41.0332634,5.28346861 41.3538952,5.53601168 41.6694269,5.7932146 L37.6856938,10.6046015 L37.6856938,10.6046015 Z" id="Path" fill="#4CAF50"></path>
                            <path d="M32.9395283,7.73696934 C32.6538579,7.61581314 32.365831,7.50299562 32.0731614,7.39623942 L34.2253262,1.53981898 C34.6182021,1.68374891 35.004571,1.83647299 35.3876338,1.99851679 L32.9395283,7.73696934 Z" id="Path" fill="#4CAF50"></path>
                            <path d="M16.9398434,20.5323679 C16.8741414,20.5323679 16.8214883,20.5848175 16.8214883,20.6503007 L16.8214883,23.640946 C16.8214883,23.7063942 16.8741414,23.7607007 16.9398434,23.7607007 L18.3454386,23.7607007 L18.3454386,20.5323679 L16.9398434,20.5323679 L16.9398434,20.5323679 Z" id="Path" fill="#357A38"></path>
                            <path d="M16.9398434,27.3678482 C16.8741414,27.3678482 16.8214883,27.4202978 16.8214883,27.485781 L16.8214883,30.4763912 C16.8214883,30.5418745 16.8741414,30.5957255 16.9398434,30.5957255 L18.3454386,30.5957255 L18.3454386,27.3678482 L16.9398434,27.3678482 Z" id="Path" fill="#357A38"></path>
                            <path d="M33.966211,23.950108 L32.560651,23.950108 L32.560651,27.1779854 L33.966211,27.1779854 C34.0319131,27.1779854 34.0846014,27.1255358 34.0846014,27.0586511 L34.0846014,24.0680409 C34.0846014,24.0039591 34.0319131,23.950108 33.966211,23.950108 Z" id="Path" fill="#357A38"></path>
                            <polygon id="Path" fill="#357A38" points="19.7626759 12.498219 19.7626759 15.1156204 18.4964338 16.6666511 18.4964338 17.8783182 32.1672828 17.8783182 32.1672828 16.6666511 30.90294 15.1156204 30.90294 12.498219"></polygon>
                            <polygon id="Path" fill="#357A38" points="19.7626759 38.2380263 19.7626759 35.6206599 18.4964338 34.0700847 18.4964338 32.857962 32.1672828 32.857962 32.1672828 34.0700847 30.90294 35.6206599 30.90294 38.2380263"></polygon>
                            <path d="M32.457631,32.8575066 L18.4484234,32.8575066 C18.2331331,32.8575066 18.0588186,32.6838657 18.0588186,32.4707737 L18.0588186,18.2422774 C18.0588186,18.0277839 18.2331331,17.8555796 18.4484234,17.8555796 L32.457631,17.8555796 C32.6715497,17.8555796 32.8458641,18.0277839 32.8458641,18.2422774 L32.8458641,32.4707737 C32.8458641,32.6838657 32.6715497,32.8575066 32.457631,32.8575066 Z" id="Path" fill="#4CAF50"></path>
                            <path d="M30.4872021,30.8575533 L20.4188524,30.8575533 C20.2049338,30.8575533 20.0306545,30.6844029 20.0306545,30.4713109 L20.0306545,20.2417752 C20.0306545,20.0272818 20.2049338,19.8536409 20.4188524,19.8536409 L30.4872021,19.8536409 C30.7006634,19.8536409 30.8749779,20.0272818 30.8749779,20.2417752 L30.8749779,30.4713109 C30.8749779,30.6844029 30.7006634,30.8575533 30.4872021,30.8575533 Z" id="Path" fill="#FFFFFF"></path>
                            <polygon id="Path" fill="#C8E6C9" points="30.8754352 31.1425752 19.744949 31.1425752 19.744949 19.8536409 20.3172745 19.8536409 20.3172745 30.5724964 30.8754352 30.5724964"></polygon>
                            <polygon id="Path" fill="#4CAF50" points="26.2136131 35.8323504 19.7901807 35.8323504 19.7901807 35.262727 26.2136131 35.262727"></polygon>
                            <polygon id="Path" fill="#4CAF50" points="26.2136131 15.4740088 19.7901807 15.4740088 19.7901807 14.9039299 26.2136131 14.9039299"></polygon>
                            <polygon id="Path" fill="#C8E6C9" points="24.0549062 25.4143182 22.2909393 22.4306453 21.0708434 22.4306453 21.0708434 21.8619679 22.616249 21.8619679 23.9975752 24.1943124 26.174009 19.5663066 27.6602193 21.8619679 28.7437407 21.8619679 28.7437407 22.4306453 27.3498228 22.4306453 26.2532172 20.7403445"></polygon>
                            <polygon id="Path" fill="#C8E6C9" points="30.9309021 22.4311358 29.4591124 22.4311358 29.4591124 21.8610219 30.9309021 21.8610219"></polygon>
                            <path d="M30.2956883,26.1775533 C30.2956883,25.4189781 29.6791159,24.8052438 28.916191,24.8052438 C28.5317214,24.8052438 28.1844993,24.9621723 27.9332979,25.2179387 C27.6830462,24.9621723 27.3363166,24.8052438 26.9499476,24.8052438 C26.1889221,24.8052438 25.5723497,25.4189781 25.5723497,26.1775533 C25.5723497,26.5461372 25.7186669,26.8817869 25.9586834,27.1287591 L27.9281979,29.0813781 L29.9489234,27.0865051 C29.9703786,27.0600526 30.0277097,26.9880876 30.0277097,26.9880876 C30.1954821,26.7606307 30.2956883,26.4802336 30.2956883,26.1775533 L30.2956883,26.1775533 Z" id="Path" fill="#C8E6C9"></path>
                            <path d="M25.3008428,52 C24.8466099,52 24.3938389,51.9895096 23.9459285,51.9701768 C23.4902337,51.9508756 23.0442603,51.9214644 22.6016491,51.8828305 C22.150815,51.8412491 21.7101773,51.7938044 21.2729018,51.7362814 C20.8370517,51.6783146 20.4012381,51.6103012 19.9692984,51.5334453 C19.5436446,51.4591249 19.1151037,51.3734584 18.6913869,51.2785374 C18.2676701,51.1836165 17.8473521,51.0799165 17.4323333,50.9690539 C17.017351,50.8560679 16.6071929,50.7347149 16.2009086,50.6057872 C15.8009103,50.4798069 15.3975497,50.3408008 15,50.1955195 L17.5349916,45 C17.8303946,45.1096266 18.1310969,45.2120905 18.433261,45.3082475 C18.7460966,45.4073519 19.0535964,45.4976457 19.366432,45.5824565 C19.6772941,45.666887 19.9915916,45.7437112 20.3092513,45.8147038 C20.6269109,45.884397 20.9479694,45.9494947 21.2709649,46.0074298 C21.6007214,46.0653965 21.9271156,46.1157886 22.2549351,46.1586377 C22.5914892,46.2044026 22.9246445,46.2400891 23.2592617,46.2711801 C23.5909551,46.2992919 23.930908,46.3215722 24.2742231,46.3379258 C24.9473313,46.3660693 25.6475567,46.3660693 26.3342236,46.3362461 C26.6707776,46.3215722 27.0092321,46.2992919 27.3472481,46.2695003 L28,51.8828305 C27.5574253,51.9214644 27.1114154,51.9508756 26.6625182,51.9701768 C26.2078102,51.9895096 25.7550392,52 25.3008428,52 L25.3008428,52 Z" id="Path" fill="#4CAF50"></path>
                            <path d="M31.1870893,51 L30,44.7390242 C30.2970065,44.6738651 30.5895636,44.5996592 30.8803477,44.5211812 C31.1715666,44.4402978 31.4592728,44.3532396 31.7451726,44.2576371 C32.0315406,44.1620346 32.3143291,44.0597547 32.5945082,43.9489304 C32.8759585,43.8380703 33.1512532,43.7220047 33.4216302,43.5997642 C33.6969249,43.4737182 33.9673019,43.3428975 34.2332963,43.2054353 C34.4961461,43.0693732 34.7585609,42.9252335 35.0196376,42.7739855 C35.2776365,42.6231684 35.5325242,42.465243 35.7829624,42.3025787 C36.0347389,42.1379759 36.2816644,41.9686342 36.5259136,41.7907482 C36.7648102,41.6180678 37.0042085,41.4349045 37.2386891,41.2451355 C37.4749428,41.0572334 37.7050074,40.8626537 37.9315259,40.6628686 C38.1553681,40.4630834 38.3787753,40.2571234 38.5959935,40.0454553 C38.8087623,39.835654 39.0197581,39.6211138 39.2263378,39.3994654 C39.4373336,39.1730422 39.639029,38.9447163 39.8362751,38.7149544 C40.031748,38.4832898 40.2241432,38.2430809 40.4116541,38 L45,42.0728168 C44.7544126,42.3915397 44.5008631,42.7054878 44.2428642,43.0108557 C43.9804494,43.3209984 43.7127153,43.6230635 43.437454,43.917051 C43.1670436,44.2072331 42.8873329,44.4940406 42.6009983,44.7728064 C42.311519,45.0544083 42.0207349,45.3245939 41.7237284,45.588138 C41.421871,45.8568876 41.1169024,46.1118515 40.8074844,46.3620766 C40.4976314,46.6103989 40.1802513,46.8520438 39.8597599,47.0851086 C39.5344177,47.3201119 39.2059308,47.5450991 38.874366,47.762978 C38.5414632,47.9794208 38.2019363,48.1891863 37.8579266,48.3889714 C37.5157235,48.5887566 37.1699742,48.7799975 36.8180024,48.9612222 C36.4585368,49.1476883 36.1021156,49.3203687 35.7390705,49.4849357 C35.3778319,49.6495385 35.0089992,49.8055612 34.6353156,49.9516036 C34.2691927,50.0957433 33.893736,50.2317696 33.51383,50.3592515 C33.1339574,50.4848307 32.7509735,50.6023324 32.3644435,50.7098538 C31.9734641,50.8173393 31.5824847,50.9143778 31.1870893,51 L31.1870893,51 Z" id="Path" fill="#4CAF50"></path>
                        </g>
                        <g id="Group" transform="translate(0.000000, 210.000000)">
                            <polygon id="Path" fill="#C8E6C9" fill-rule="nonzero" points="26.8095302 104.927328 25.0202667 104.927328 25.0202667 16.0008059 26.8095302 16.0008059"></polygon>
                            <path d="M22.8037808,0.717220506 C18.9177718,2.52827921 16.8012396,7.04087314 17.0498394,11.2773064 L17.0498394,11.2773064 C17.190106,13.6851281 17.9781765,16.027109 18.0312102,18.4349307 L18.0312102,18.4349307 C18.1086011,22.0287607 16.5563571,24.7780244 12.6014185,24.3693779 L12.6014185,24.3693779 C10.9281317,24.1979751 9.34119271,23.5799179 7.69651149,23.2333708 L7.69651149,23.2333708 C6.05328179,22.883572 4.22754969,22.8395499 2.80806688,23.725411 L2.80806688,23.725411 C2.00544574,24.2253184 1.3960895,24.9837288 0.95280869,25.8125954 L0.95280869,25.8125954 C-0.50374105,28.5354248 -0.188973082,31.9481315 1.21079026,34.6987938 L1.21079026,34.6987938 C2.6091729,37.4498757 4.96920689,39.6172369 7.51779721,41.388924 L7.51779721,41.388924 C9.54805237,42.8010568 11.3634468,43.722583 13.299884,45.3144755 L13.299884,45.3144755 C14.1353592,46.0043527 15.0557306,47.0796939 14.517676,48.0132484 L14.517676,48.0132484 C14.1817725,48.5984027 13.377275,48.7827779 12.7186732,48.6081232 L12.7186732,48.6081232 C12.0619478,48.4316154 11.5238931,47.9789469 11.0177366,47.5295651 L11.0177366,47.5295651 C9.82621365,46.4685949 8.65115307,45.3177273 7.15707616,44.7473985 L7.15707616,44.7473985 C5.66066266,44.1770698 3.72468565,44.3665849 2.77992151,45.6448333 L2.77992151,45.6448333 C2.09317434,46.5765346 2.08471303,47.8302369 2.22685603,48.9741463 L2.22685603,48.9741463 C2.85405536,54.0737477 5.8792407,58.6697353 9.77838421,62.0708333 L9.77838421,62.0708333 C12.8579839,64.7593962 16.4620789,66.7701451 20.1773039,68.4649072 L20.1773039,68.4649072 C24.2134216,70.3037638 26.4144254,70.6304152 30.5565396,68.6757166 L30.5565396,68.6757166 C30.6893008,68.6136522 30.8215664,68.5496995 30.9538673,68.4843832 L30.9538673,68.4843832 C36.1022053,65.9774332 38.6653462,62.1639824 42.5710393,58.1661215 L42.5710393,58.1661215 C44.4676127,56.2229966 46.4087232,54.2127371 47.418204,51.7053326 L47.418204,51.7053326 C48.0552454,50.116657 48.2719825,48.2698981 47.5387866,46.7233914 L47.5387866,46.7233914 C46.8060509,45.1759756 44.9291969,44.1001798 43.2911006,44.6496339 L43.2911006,44.6496339 C41.9654358,45.0925819 41.0418072,46.440797 39.6584354,46.6566765 L39.6584354,46.6566765 C35.9797817,47.2353621 35.6800246,41.5390326 36.3686482,39.2540112 L36.3686482,39.2540112 C37.4822846,35.5767525 42.0133006,34.378646 44.626643,32.0301615 L44.626643,32.0301615 C46.9397326,29.9494458 48.0486958,26.6460775 47.4543504,23.6128208 L47.4543504,23.6128208 C47.3750477,23.210678 47.2577931,22.7937096 46.9664973,22.4995066 L46.9664973,22.4995066 C46.574303,22.1038325 45.963566,22.0287607 45.4043758,22.002816 L45.4043758,22.002816 C44.4755784,21.9620458 43.467974,22.1450573 42.4570416,22.3280688 L42.4570416,22.3280688 C40.714365,22.643601 38.9585184,22.9586438 37.5883165,22.1205112 L37.5883165,22.1205112 C36.2724936,21.3180788 34.5912411,19.4481725 33.8482032,18.0865305 L33.8482032,18.0865305 C31.5660558,13.9186304 35.0134218,9.01871918 33.5038738,4.65623385 L33.5038738,4.65623385 C32.4863919,1.71748996 29.3087613,0 26.154532,0 L26.154532,0 C24.9996158,0 23.8461156,0.232138599 22.8037808,0.717220506 L22.8037808,0.717220506 L22.8037808,0.717220506 Z" id="Path" fill="#4CAF50"></path>
                            <polygon id="Path" fill="#C8E6C9" fill-rule="nonzero" points="25.9155968 42.9976594 15.0022349 32.0471906 16.2672698 30.7778543 25.9155968 40.458987 35.5643778 30.7778543 36.8294127 32.0471906"></polygon>
                            <polygon id="Path" fill="#C8E6C9" fill-rule="nonzero" points="25.9155968 63.7188917 15.0022349 52.7679673 16.2672698 51.4986311 25.9155968 61.1802193 35.5643778 51.4986311 36.8294127 52.7679673"></polygon>
                        </g>
                    </g>
                </g>
            </g>
        </g>
    </g>
</svg>