<?xml version="1.0" encoding="UTF-8"?>
<svg width="542px" height="372px" viewBox="0 0 542 372" version="1.1" xmlns="http://www.w3.org/2000/svg" xmlns:xlink="http://www.w3.org/1999/xlink">
    <!-- Generator: Sketch 64 (93537) - https://sketch.com -->
    <title>About</title>
    <desc>Created with Sketch.</desc>
    <defs>
        <path d="M0.88185656,2.94989455 C0.666469107,2.36830965 0.449642538,1.78501168 0.23185656,1.19628902 L0.88185656,2.94989455 Z M0.331765672,1.00661223 C0.314215672,0.926662228 0.296665672,0.849312228 0.279115672,0.770012228 L0.331765672,1.00661223 Z M0.293760994,0.825874472 C0.245010994,0.606873492 0.196260994,0.393602189 0.147510994,0.175874472 L0.293760994,0.825874472 Z" id="path-1"></path>
        <rect id="path-3" x="0.00628182799" y="0.175874472" width="1" height="2.77402007"></rect>
    </defs>
    <g id="About" stroke="none" stroke-width="1" fill="none" fill-rule="evenodd">
        <g id="About-" transform="translate(-820.000000, -139.000000)">
            <g id="Banner" transform="translate(107.000000, 139.000000)">
                <g id="illustration" transform="translate(713.000000, 0.000000)">
                    <g id="About">
                        <g id="Group" transform="translate(533.000000, 120.000000)" fill="#FFC16B" fill-rule="nonzero">
                            <path d="M8.76444367,4.13526991 L4.89270012,0.561810312 C4.70034599,0.384252758 4.38962007,0.384252758 4.19726593,0.561810312 L0.325522387,4.13526991 C0.133168249,4.31328274 0.133168249,4.60147231 0.325522387,4.77948514 C0.517876525,4.95704269 0.82860244,4.95704269 1.02095658,4.77948514 L4.54251695,1.52790552 L8.06900948,4.77948514 C8.26136362,4.95704269 8.57208953,4.95704269 8.76444367,4.77948514 C8.95679781,4.60147231 8.95679781,4.31328274 8.76444367,4.13526991 Z" id="Path"></path>
                        </g>
                        <g id="Group" transform="translate(537.000000, 120.000000)" fill="#FFC16B" fill-rule="nonzero">
                            <path d="M0.0956079739,0.932784193 L0.0956079739,14.7558674 C0.0956079739,15.0211414 0.300482204,15.2364363 0.55088404,15.2364363 C0.805838637,15.2364363 1.00616011,15.0211414 1.00616011,14.7558674 L1.00616011,0.932784193 C1.00616011,0.667510172 0.805838637,0.452215315 0.55088404,0.452215315 C0.300482204,0.452215315 0.0956079739,0.667510172 0.0956079739,0.932784193 Z" id="Path"></path>
                        </g>
                        <g id="Group" transform="translate(537.000000, 137.000000)" fill="#FFC16B" fill-rule="nonzero">
                            <path d="M0.0956079739,0.663336811 L0.0956079739,2.12112986 C0.0956079739,2.37244209 0.300482204,2.57640564 0.55088404,2.57640564 C0.805838637,2.57640564 1.00616011,2.37244209 1.00616011,2.12112986 L1.00616011,0.663336811 C1.00616011,0.412024581 0.805838637,0.208061031 0.55088404,0.208061031 C0.300482204,0.208061031 0.0956079739,0.412024581 0.0956079739,0.663336811 Z" id="Path"></path>
                        </g>
                        <g id="Group" transform="translate(537.000000, 142.000000)" fill="#FFC16B" fill-rule="nonzero">
                            <path d="M0.0956079739,0.865479257 L0.0956079739,2.32372758 C0.0956079739,2.57503981 0.300482204,2.77900336 0.55088404,2.77900336 C0.805838637,2.77900336 1.00616011,2.57503981 1.00616011,2.32372758 L1.00616011,0.865479257 C1.00616011,0.614167027 0.805838637,0.410203478 0.55088404,0.410203478 C0.300482204,0.410203478 0.0956079739,0.614167027 0.0956079739,0.865479257 Z" id="Path"></path>
                        </g>
                        <g id="Group" transform="translate(161.000000, 39.000000)" fill-rule="nonzero">
                            <g transform="translate(0.679279, 0.924023)" fill="#FF6F00" id="Path">
                                <path d="M8.53830814,4.25507868 L4.72070155,0.443379005 C4.53103702,0.253498182 4.22271058,0.253498182 4.03304605,0.443379005 L0.215439455,4.25507868 C0.0257749235,4.44447388 0.0257749235,4.75187685 0.215439455,4.94175767 C0.405590305,5.13115286 0.713430429,5.13115286 0.90309496,4.94175767 L4.3768738,1.47339748 L7.85065264,4.94175767 C8.04031717,5.13115286 8.34815729,5.13115286 8.53830814,4.94175767 C8.72797267,4.75187685 8.72797267,4.44447388 8.53830814,4.25507868 Z"></path>
                            </g>
                            <g transform="translate(4.569834, 0.924023)" fill="#FF6F00" id="Path">
                                <path d="M0,0.786718497 L0,20.4867324 C0,20.7547994 0.217871051,20.9723611 0.486319311,20.9723611 C0.75476757,20.9723611 0.972638622,20.7547994 0.972638622,20.4867324 L0.972638622,0.786718497 C0.972638622,0.518651453 0.75476757,0.301089795 0.486319311,0.301089795 C0.217871051,0.301089795 0,0.518651453 0,0.786718497 Z"></path>
                            </g>
                            <g transform="translate(4.569834, 23.262944)" fill="#FF6F00" id="Path">
                                <path d="M0,0.941148424 L0,2.49613153 C0,2.76419857 0.217871051,2.98176023 0.486319311,2.98176023 C0.75476757,2.98176023 0.972638622,2.76419857 0.972638622,2.49613153 L0.972638622,0.941148424 C0.972638622,0.67308138 0.75476757,0.455519722 0.486319311,0.455519722 C0.217871051,0.455519722 0,0.67308138 0,0.941148424 Z"></path>
                            </g>
                            <g transform="translate(4.569834, 28.119231)" fill="#FF6F00" id="Path">
                                <path d="M0,0.671624494 L0,2.2266076 C0,2.49467464 0.217871051,2.7122363 0.486319311,2.7122363 C0.75476757,2.7122363 0.972638622,2.49467464 0.972638622,2.2266076 L0.972638622,0.671624494 C0.972638622,0.403557451 0.75476757,0.185995793 0.486319311,0.185995793 C0.217871051,0.185995793 0,0.403557451 0,0.671624494 Z"></path>
                            </g>
                            <g transform="translate(25.981691, 12.237113)" fill="#BBDEFB" id="Path">
                                <path d="M86.555996,50.5077092 C94.7717887,50.5077092 105.664292,46.2902412 102.59044,35.3641138 C99.8448748,25.6019338 89.4011538,24.0070311 80.8705985,29.3700297 C84.0305188,22.4305452 83.8731376,5.5508509 73.1318676,1.76556593 C62.3893681,-2.01971903 47.3828205,4.44829303 45.4868683,18.012947 C40.1174629,2.23949393 9.47115412,4.76383576 27.7950033,30.6322006 C15.7897652,22.4305452 0.309844325,28.1090866 0.309844325,37.8884556 C0.309844325,47.6678246 9.15516209,50.5077092 14.5257971,50.5077092 L86.555996,50.5077092 Z"></path>
                            </g>
                        </g>
                        <g id="Group" transform="translate(105.000000, 0.000000)">
                            <g transform="translate(0.859414, 40.368366)" fill="#FF6F00" fill-rule="nonzero" id="Path">
                                <path d="M7.44301013,3.35559775 L4.22425231,0.159512473 C4.03275287,-0.0301517479 3.72272949,-0.0301517479 3.53171982,0.159512473 L0.312961997,3.35559775 C0.121462559,3.54526198 0.121462559,3.8531016 0.312961997,4.04325213 C0.503971667,4.23340267 0.813995054,4.23340267 1.00549449,4.04325213 L3.87798606,1.19148036 L6.75047764,4.04325213 C6.94197707,4.23340267 7.25200046,4.23340267 7.44301013,4.04325213 C7.63450957,3.8531016 7.63450957,3.54526198 7.44301013,3.35559775 Z"></path>
                            </g>
                            <g transform="translate(3.798025, 40.368366)" fill="#FF6F00" fill-rule="nonzero" id="Path">
                                <path d="M0.449607377,0.503825982 L0.449607377,15.3190332 C0.449607377,15.587481 0.669023613,15.8053517 0.939375761,15.8053517 C1.20972791,15.8053517 1.42914414,15.587481 1.42914414,15.3190332 L1.42914414,0.503825982 C1.42914414,0.234891843 1.20972791,0.0175074665 0.939375761,0.0175074665 C0.669023613,0.0175074665 0.449607377,0.234891843 0.449607377,0.503825982 Z"></path>
                            </g>
                            <g transform="translate(17.021771, 30.155677)" fill="#FFC107" fill-rule="nonzero" id="Path">
                                <path d="M8.40050732,10.3999214 C6.45857568,10.8697051 2.82596358,13.7472518 3.88729166,19.583074 C3.35638274,19.8058078 2.54042861,20.1097569 2.54042861,20.1097569 C0.0705266473,16.7663171 -1.87532314,4.39291515 6.62852531,0.00291791109 C7.86665978,3.2306139 8.40050732,10.3999214 8.40050732,10.3999214 Z"></path>
                            </g>
                            <g transform="translate(43.959032, 30.155677)" fill="#FFC107" fill-rule="nonzero" id="Path">
                                <path d="M0.271331685,10.3999214 C2.2137531,10.8697051 5.84587543,13.7472518 4.78503711,19.583074 C5.3149665,19.8058078 6.13238994,20.1097569 6.13238994,20.1097569 C8.60082259,16.7663171 10.5466724,4.39291515 2.04282393,0.00291791109 C0.805668992,3.23012758 0.271331685,10.3999214 0.271331685,10.3999214 Z"></path>
                            </g>
                            <g transform="translate(23.388760, 8.757663)" fill="#FFFFFF" fill-rule="nonzero" id="Path">
                                <path d="M17.5097095,0.130333362 L5.36590242,0.130333362 C1.18572926,7.39884989 -2.4243535,18.7787031 2.80980122,34.294209 L20.0653209,34.294209 C25.2999654,18.7787031 21.6898827,7.39884989 17.5097095,0.130333362 Z"></path>
                            </g>
                            <g transform="translate(28.286444, 0.490248)" fill="#FFC107" fill-rule="nonzero" id="Path">
                                <path d="M6.53987723,0.0899689253 C5.2841111,1.59415209 2.78825141,4.3627634 0.468218575,8.39774812 L12.6120257,8.39774812 C10.2915031,4.3627634 7.79564337,1.59415209 6.53987723,0.0899689253 Z"></path>
                            </g>
                            <g transform="translate(28.776212, 18.970352)" fill="#BBDEFB" fill-rule="nonzero" id="Path">
                                <path d="M0.277698674,5.88494035 C0.277698674,2.71949314 2.8626962,0.153676651 6.05010885,0.153676651 C9.23801126,0.153676651 11.8220293,2.71949314 11.8220293,5.88494035 C11.8220293,9.05038757 9.23801126,11.6162041 6.05010885,11.6162041 C2.8626962,11.6162041 0.277698674,9.05038757 0.277698674,5.88494035 Z"></path>
                            </g>
                            <g transform="translate(30.245517, 20.429307)" fill="#2196F3" fill-rule="nonzero" id="Path">
                                <path d="M0.132237464,4.42598481 C0.132237464,1.98612482 2.12412548,0.00875373327 4.5808037,0.00875373327 C7.03797168,0.00875373327 9.0298597,1.98612482 9.0298597,4.42598481 C9.0298597,6.8658448 7.03797168,8.8437022 4.5808037,8.8437022 C2.12412548,8.8437022 0.132237464,6.8658448 0.132237464,4.42598481 Z"></path>
                            </g>
                            <g transform="translate(27.306907, 42.799959)" fill="#FFC107" fill-rule="nonzero" id="Path">
                                <polygon points="13.7634711 3.53456297 1.27437734 3.53456297 0.295330336 0.251912991 14.7434977 0.251912991"></polygon>
                            </g>
                            <g transform="translate(38.571580, 8.757663)" fill="#BBDEFB" fill-rule="nonzero" id="Path">
                                <path d="M4.88250102,34.294209 L0.580865303,34.294209 C2.36656083,27.0130482 6.06872005,15.2436539 0.273290758,0.130333362 L2.32688959,0.130333362 C5.02502362,4.8223344 7.48610975,11.2271492 7.48366273,19.3515864 C7.48366273,20.0231922 7.46651901,20.7069561 7.43125569,21.4014189 C7.26914236,24.6159843 6.720112,28.0805174 5.65976345,31.7984224 C5.42614393,32.6178691 5.16705645,33.4504464 4.88250102,34.294209 Z"></path>
                            </g>
                            <g transform="translate(7.716172, 46.204188)" fill="#BBDEFB" id="Path">
                                <path d="M46.1802609,61.2226379 C49.2001728,59.2627743 49.8623396,54.9316216 46.5578724,52.1508523 C42.5711577,48.7957409 37.9947619,50.8533545 36.0205056,53.9361276 L31.5592054,0.130333362 L22.5802816,0.130333362 L18.8967336,49.687649 C16.1608874,44.0847734 10.697521,45.0851306 7.80788758,48.3006686 C4.25118957,52.258815 7.28775355,58.5960316 10.5256123,61.164766 C5.67396673,59.2598563 -0.88501147,63.3454182 0.714082304,68.9949804 C2.14322645,74.0453982 7.5752476,74.869708 12.0110798,72.0972062 C10.3679069,75.6847779 10.4492085,84.4137089 16.0359964,86.3721136 C21.6237639,88.3300319 29.4287129,84.9856195 30.4136371,77.9699886 C33.207276,86.128468 49.1458085,84.8231891 39.6168748,71.4445667 C45.8599524,75.6857505 53.9102755,72.748873 53.9102755,67.6921331 C53.9112549,62.9266979 49.7398975,60.6439188 46.1802609,61.2226379 Z"></path>
                            </g>
                        </g>
                        <g id="Group" transform="translate(279.000000, 45.000000)">
                            <g id="Clipped">
                                <mask id="mask-2" fill="white">
                                    <use xlink:href="#path-1"></use>
                                </mask>
                                <g id="Shape"></g>
                                <g mask="url(#mask-2)">
                                    <mask id="mask-4" fill="white">
                                        <use xlink:href="#path-3"></use>
                                    </mask>
                                    <g id="Rectangle"></g>
                                </g>
                            </g>
                        </g>
                        <g id="Group" transform="translate(512.000000, 181.000000)" fill="#2196F3">
                            <polygon id="Path" points="9.47960649 7.36370634 4.91242875 0.146978198 0.350183174 7.36370634 2.61897557 7.36370634 2.61897557 25.619089 7.21081409 25.619089 7.21081409 7.36370634"></polygon>
                        </g>
                        <g id="Group" transform="translate(0.000000, 354.000000)" fill="#BBDEFB" fill-rule="nonzero">
                            <path d="M0.0154896794,6.52277404 C0.0154896794,3.13339761 35.2982459,0.385694465 78.8233338,0.385694465 C122.346599,0.385694465 157.630267,3.13339761 157.630267,6.52277404 C157.630267,9.91165724 122.346599,12.6593604 78.8233338,12.6593604 C35.2982459,12.6593604 0.0154896794,9.91165724 0.0154896794,6.52277404 Z" id="Path"></path>
                        </g>
                        <g id="Group" transform="translate(31.000000, 224.000000)" fill="#2196F3">
                            <path d="M4.91759555,1.49841827 C1.97825413,1.74223521 0.0183708839,4.41654226 0.508583417,7.33466625 C0.99879595,10.0089733 3.44792484,11.9547093 6.14167655,11.7108923 C12.2649822,10.9813613 21.8168749,9.52325924 27.6945909,6.84799228 L26.7151327,0.526030245 C23.7767582,1.01270421 14.4694883,0.526030245 4.91759555,1.49841827 Z" id="Path"></path>
                        </g>
                        <g id="Group" transform="translate(54.000000, 202.000000)" fill="#FFD8D8">
                            <path d="M22.9679105,5.24553462 C23.2163556,4.52722717 23.2163556,3.80891973 22.4700384,3.56885382 C22.9679105,2.85149152 22.2215934,2.37230484 21.7237213,2.37230484 C22.4700384,1.41487663 22.7184835,0.456503283 21.9721663,0.217382516 C21.4752762,-0.0217382516 19.9826419,2.85149152 19.2363247,3.80891973 C17.9921355,5.48465538 17.2458183,4.0480405 16.2510561,5.48465538 C15.2562939,7.16039104 15.754166,8.35788516 15.754166,9.79450004 C15.754166,10.7519283 15.2562939,11.2301698 14.7584218,11.9484772 C13.0173424,15.0608278 6.79836011,19.6097932 1.575122,24.1587586 C-0.165957368,25.5953735 1.82356706,29.6651523 3.56464642,29.4260315 C8.04254937,29.1869107 15.754166,17.2157501 18.7384526,13.3850921 C20.9774041,10.5118623 21.9721663,8.35788516 22.9679105,7.39951181 C23.7132457,6.44208359 23.9626727,5.72377615 22.9679105,5.24553462 Z" id="Path"></path>
                        </g>
                        <g id="Group" transform="translate(73.000000, 202.000000)" fill="#FFD8D8">
                            <path d="M3.97844454,5.3274961 C4.20777844,4.5979651 4.20777844,3.8684341 3.51887029,3.62461716 C3.97844454,2.89604608 3.2895364,2.40937211 2.82996215,2.40937211 C3.51887029,1.43698408 3.74820419,0.463636147 3.05929604,0.220779117 C2.60062825,-0.0220779117 1.22281196,2.89604608 0.533903813,3.8684341 C0.0743295631,4.5979651 -0.614578583,7.02941512 1.22281196,8.24466017 C2.3703879,8.97419117 3.74820419,8.00180314 4.20777844,7.51512918 C4.66644623,6.54274115 4.89668658,5.81321015 3.97844454,5.3274961 Z" id="Path"></path>
                        </g>
                        <g id="Group" transform="translate(53.000000, 212.000000)" fill="#2196F3">
                            <path d="M14.9941009,1.09045686 C13.2530215,4.25143788 6.28772205,9.35719494 1.06448395,13.977238 C-0.676595423,15.4362999 2.05924616,20.056343 4.04975258,19.8134859 C8.52667353,19.569669 16.9846073,7.89813295 19.9698759,4.00762094 C18.7256867,3.52190688 16.2382902,1.57617092 15.2435279,0.603782891 C15.2435279,0.84663992 15.2435279,1.09045686 14.9941009,1.09045686 Z" id="Path"></path>
                        </g>
                        <g id="Group" transform="translate(69.000000, 202.000000)" fill="#FFD8D8">
                            <path d="M2.32234562,0.707453085 C1.86367783,2.40937211 1.40410358,3.1389031 1.17476968,3.62461716 L0.71519543,7.27227215 L2.32234562,6.05702709 C2.55258597,5.3274961 2.78191987,4.35414816 2.55258597,3.38176013 C3.24149412,2.40937211 3.01125376,1.43698408 2.32234562,0.707453085 Z" id="Path"></path>
                        </g>
                        <g id="Group" transform="translate(24.000000, 186.000000)" fill="#143549">
                            <polygon id="Path" points="0.896984711 2.00979672 102.309534 42.966169 102.870391 41.6313678 1.45784232 0.675944857"></polygon>
                        </g>
                        <g id="Group" transform="translate(22.000000, 181.000000)" fill="#1565C0" fill-rule="nonzero">
                            <path d="M0.648117532,0.184302568 C1.14598964,2.37289556 1.89230679,4.31767161 2.887069,6.01959063 L11.0955757,9.42438859 C9.85236848,7.72246957 8.60817922,5.53387658 8.35973416,3.34528358 L0.648117532,0.184302568 Z" id="Path"></path>
                        </g>
                        <g id="Group" transform="translate(19.000000, 187.000000)" fill="#1565C0" fill-rule="nonzero">
                            <path d="M0.109077123,2.48542645 L7.86503466,5.40325508 C9.56147097,4.28060435 11.7430134,3.3830154 13.9235991,3.15883968 L5.92556687,0.0159492607 C3.74402441,0.465186769 1.80551343,1.36277572 0.109077123,2.48542645 Z" id="Path"></path>
                        </g>
                        <g id="Group" transform="translate(26.000000, 184.000000)" fill="#143549" fill-rule="nonzero">
                            <path d="M3.93387702,0.222698936 C4.43174912,2.41129193 5.17806628,4.35606798 6.17282849,6.057987 C3.93387702,6.54466097 2.19279765,7.27419197 0.20229123,8.73325396 L1.19803544,9.21896802 C2.93911481,8.00372296 5.17806628,7.03037503 7.41603576,6.787518 C6.17282849,5.08559898 4.92863923,2.89700598 4.68019418,0.708412994 L3.93387702,0.222698936 Z" id="Path"></path>
                        </g>
                        <g id="Group" transform="translate(23.000000, 182.000000)" fill="#143549" fill-rule="nonzero">
                            <path d="M4.39246927,0.926312384 C4.89034138,3.11490537 5.63567654,5.05968143 6.63142074,6.76256036 C4.39246927,7.24827442 2.6513899,7.97780541 0.660883483,9.43686741 L1.65564569,9.92354138 C3.39770706,8.70733641 5.63567654,7.73494839 7.87462801,7.49209136 C6.63142074,5.78921242 5.38723148,3.60157934 5.13878643,1.41298635 L4.39246927,0.926312384 Z" id="Path"></path>
                        </g>
                        <g id="Group" transform="translate(21.000000, 181.000000)" fill="#143549" fill-rule="nonzero">
                            <path d="M3.86906526,0.913833565 C4.36595537,3.10242656 5.11227253,5.04720261 6.10801674,6.74912163 C3.86906526,7.2357956 2.1279859,7.96532659 0.137479476,9.42438859 L1.13224169,9.91010265 C2.87430305,8.69485759 5.11227253,7.96532659 7.351224,7.47865263 C6.10801674,5.7767336 4.86382748,3.58814061 4.61538242,1.40050753 L3.86906526,0.913833565 Z" id="Path"></path>
                        </g>
                        <g id="Group" transform="translate(18.000000, 180.000000)" fill="#143549" fill-rule="nonzero">
                            <path d="M4.07823047,0.901354745 C4.57610257,3.08898783 5.32241973,5.03472379 6.31718194,6.73664281 C4.07823047,7.22331678 2.3371511,7.95284778 0.347626676,9.41190977 L1.34238889,9.89762383 C3.08346826,8.68237877 5.32241973,7.70903084 7.5613712,7.46617381 C6.31718194,5.76425478 5.07397468,3.57566179 4.82454763,1.3870688 L4.07823047,0.901354745 Z" id="Path"></path>
                        </g>
                        <g id="Group" transform="translate(24.000000, 212.000000)" fill="#FFD8D8" fill-rule="nonzero">
                            <path d="M7.63894891,2.48414657 C6.39574164,2.00995143 3.16202796,0.351671352 1.66939364,0.11410613 C1.41996659,0.11410613 0.923076485,-0.122523796 0.923076485,0.11410613 C0.673649434,0.351671352 0.923076485,0.824931204 0.923076485,1.06249643 C2.16628375,3.19497165 1.66939364,10.538917 0.673649434,13.3822173 C0.673649434,13.6188472 5.89786954,14.3296723 8.88313817,14.8038675 C7.63894891,12.6713922 6.6441867,5.5640768 7.63894891,2.48414657 Z" id="Path"></path>
                        </g>
                        <g id="Group" transform="translate(24.000000, 200.000000)" fill="#FFD8D8" fill-rule="nonzero">
                            <path d="M14.9569613,8.70541659 C13.260525,7.73302857 11.3210572,4.81586449 10.8369079,3.11298556 C9.13951473,-1.02038349 2.83791883,0.681535537 0.899407857,5.05872152 C-0.0698476314,7.24731451 -0.0698476314,10.1644786 0.656376372,12.5959286 C1.62658868,15.7578695 3.56509965,18.6750336 6.47382293,19.8912386 C7.44307842,20.3769526 12.048238,21.1064836 13.260525,20.3769526 C14.7148866,19.4045646 14.7148866,12.8397455 15.4420674,10.8940096 C15.9262168,9.19209056 15.4420674,8.94923353 14.9569613,8.70541659 Z" id="Path"></path>
                        </g>
                        <g id="Group" transform="translate(17.000000, 198.000000)" fill="#FFC107" fill-rule="nonzero">
                            <path d="M12.2022855,0.656577897 C2.02271086,-1.04534113 -0.1588316,6.0061519 0.0832430676,11.354766 C0.325317735,16.9481569 5.90068963,21.5682 8.08127527,22.296771 C8.32430676,22.296771 12.6864349,22.540588 14.8679773,17.433871 C15.3530835,16.461483 15.5951581,15.489095 15.110052,15.002421 C13.171541,14.030033 12.4443602,10.8690519 13.4136157,10.1395209 C14.6259027,8.92331598 15.110052,10.8690519 15.8372328,10.382378 C16.5644136,9.89666392 17.5346259,6.0061519 16.322339,4.06041594 C15.8372328,2.84517089 14.1407965,1.14229196 12.2022855,0.656577897 Z" id="Path"></path>
                        </g>
                        <g id="Group" transform="translate(10.000000, 201.000000)" fill="#FFC107" fill-rule="nonzero">
                            <path d="M6.46251739,0.694014356 C3.22782171,0.694014356 0.74042518,3.12642429 0.74042518,6.2874053 C0.74042518,9.44838632 3.22782171,11.8798363 6.46251739,11.8798363 C9.69623107,11.8798363 10.6909933,9.44838632 10.6909933,6.2874053 C10.6909933,3.12642429 9.69623107,0.694014356 6.46251739,0.694014356 Z" id="Path"></path>
                        </g>
                        <g id="Group" transform="translate(51.000000, 350.000000)" fill="#FFD8D8" fill-rule="nonzero">
                            <path d="M15.0689089,7.31066852 C12.4032171,6.33828049 8.76731297,4.39254453 7.55598281,3.17729947 C6.82880199,2.44776848 6.58672733,1.47538045 6.58672733,0.259175486 C5.8595465,0.745849453 4.8893342,0.745849453 3.92007871,0.745849453 C2.95082322,0.745849453 1.98156774,0.502032515 1.25438692,0.259175486 C1.25438692,1.71823748 1.25438692,3.4201565 1.01135543,4.8792185 C1.01135543,5.60874949 0.769280763,6.58113752 1.01135543,7.06781149 C1.49646158,8.04019951 2.70874856,8.04019951 3.67800404,8.04019951 C5.8595465,8.04019951 8.28316363,8.28305654 10.4647061,8.52687348 C12.4032171,8.76973051 14.3426849,9.01258754 16.2811958,8.28305654 C16.766302,8.28305654 17.0083767,7.79734248 17.0083767,7.55352555 C16.5232705,7.79734248 16.0391212,7.79734248 15.0689089,7.31066852 Z" id="Path"></path>
                        </g>
                        <g id="Group" transform="translate(51.000000, 350.000000)" fill="#FFD8D8" fill-rule="nonzero">
                            <path d="M15.0689089,7.31066852 C14.0996534,7.31066852 13.1303979,7.55352555 12.4032171,7.55352555 C8.5252383,7.31066852 4.8893342,4.8792185 3.92007871,0.988706483 C2.95082322,0.988706483 1.98156774,0.745849453 1.25438692,0.502032515 C1.25438692,1.96109451 1.25438692,3.66301353 1.01135543,5.12207553 C1.01135543,5.85160652 0.769280763,6.82399455 1.01135543,7.31066852 C1.49646158,8.28305654 2.70874856,8.28305654 3.67800404,8.28305654 C5.8595465,8.28305654 8.28316363,8.52687348 10.4647061,8.76973051 C12.4032171,9.01258754 14.3426849,9.25640448 16.2811958,8.52687348 C16.766302,8.52687348 17.0083767,8.04019951 17.0083767,7.79734248 C16.5232705,7.79734248 16.0391212,7.79734248 15.0689089,7.31066852 Z" id="Path"></path>
                        </g>
                        <g id="Group" transform="translate(50.000000, 353.000000)" fill="#212121" fill-rule="nonzero">
                            <path d="M19.1842789,3.95770566 C18.6864068,3.71388872 15.2042481,2.49864366 12.9652966,1.76911267 C12.2189795,1.52625564 11.4726623,2.49864366 11.4726623,3.22817466 C6.74631431,3.22817466 2.51783841,0.0671936444 2.01996631,0.552907703 C0.776759042,1.52625564 -0.21800317,4.20056269 2.26939336,5.17295071 C2.51783841,5.41676765 3.26415557,5.41676765 5.7515521,5.41676765 C7.99050357,5.41676765 10.229455,6.63201271 11.7220894,6.63201271 L19.1842789,6.63201271 C19.9305961,6.63201271 20.4274862,4.44341972 19.1842789,3.95770566 Z" id="Path"></path>
                        </g>
                        <g id="Group" transform="translate(51.000000, 355.000000)" fill="#1565C0" fill-rule="nonzero">
                            <path d="M16.766302,3.66478567 C13.8575787,4.11402318 10.4647061,3.44060995 7.55598281,2.99137244 C4.64725953,2.54213494 2.46571707,1.86872171 0.28417461,0.522781322 C-0.199974726,1.64454599 -0.199974726,2.99137244 1.49646158,3.66478567 C1.73853625,3.88896139 2.46571707,3.88896139 4.8893342,3.88896139 C7.07087666,3.88896139 9.25241912,5.01161213 10.7067808,5.01161213 L17.9776321,5.01161213 C18.704813,5.01161213 19.1899191,3.44060995 18.2206636,2.76719672 C17.7355575,3.21554816 17.2504513,3.66478567 16.766302,3.66478567 Z" id="Path"></path>
                        </g>
                        <g id="Group" transform="translate(50.000000, 356.000000)" fill="#1565C0" fill-rule="nonzero">
                            <path d="M6.2494242,2.11682132 L0.776759042,0.769994862 L2.01996631,3.46364777 L6.74631431,3.46364777 C6.74631431,3.46364777 6.2494242,2.56605883 6.2494242,2.11682132 Z" id="Path"></path>
                        </g>
                        <g id="Group" transform="translate(22.000000, 347.000000)" fill="#FFD8D8" fill-rule="nonzero">
                            <path d="M7.66027585,6.29988412 C6.44798888,5.08463907 6.69102036,2.89604608 6.69102036,1.43698408 C6.69102036,-0.264934941 1.35867995,1.19412705 1.35867995,1.43698408 C1.11660529,3.62557707 1.11660529,6.05702709 0.873573801,8.24562008 C0.873573801,8.97419117 0.631499133,9.70372217 0.873573801,10.4332532 C1.35867995,11.4066011 2.57001011,11.4066011 3.54022241,11.4066011 C5.72176488,11.4066011 8.145382,11.6494581 10.3259676,11.8923152 C12.2654354,12.1361321 14.2039464,12.3789891 16.1434142,11.6494581 C16.6285204,11.4066011 16.870595,11.1627842 16.870595,10.9199271 C14.6890526,10.4332532 9.35671216,7.51608909 7.66027585,6.29988412 Z" id="Path"></path>
                        </g>
                        <g id="Group" transform="translate(23.000000, 347.000000)" fill="#FFD8D8" fill-rule="nonzero">
                            <path d="M2.89983496,1.19412705 C2.89983496,0.950310114 3.14828001,0.950310114 3.14828001,0.707453085 C1.90507274,0.950310114 0.660883483,1.19412705 0.660883483,1.43698408 C0.412438429,3.62557707 0.412438429,6.05702709 0.163993375,8.24562008 C0.163993375,8.97419117 -0.0854336746,9.70372217 0.163993375,10.4332532 C0.660883483,11.4066011 1.90507274,11.4066011 2.89983496,11.4066011 C5.13878643,11.4066011 7.12831085,11.6494581 9.36726233,11.6494581 C5.38723148,9.94753911 0.910310533,6.05702709 2.89983496,1.19412705 Z" id="Path"></path>
                        </g>
                        <g id="Group" transform="translate(21.000000, 353.000000)" fill="#212121" fill-rule="nonzero">
                            <path d="M19.2913165,3.95770566 C18.7944264,3.71388872 15.3112857,2.49864366 13.0723342,1.76911267 C12.3260171,1.52625564 11.5796999,2.49864366 11.5796999,3.22817466 C6.8543339,3.22817466 2.624876,0.0671936444 2.1279859,0.552907703 C0.883796634,1.52625564 -0.110965577,4.20056269 2.37643095,5.17295071 C2.624876,5.41676765 3.37119316,5.41676765 5.85858969,5.41676765 C8.09754116,5.41676765 10.3364926,6.63201271 11.8291269,6.63201271 L19.2913165,6.63201271 C20.0376337,6.63201271 20.5355058,4.44341972 19.2913165,3.95770566 Z" id="Path"></path>
                        </g>
                        <g id="Group" transform="translate(21.000000, 355.000000)" fill="#1565C0" fill-rule="nonzero">
                            <path d="M18.0481093,3.66478567 C16.80392,3.88896139 15.3112857,3.88896139 14.0680784,3.66478567 C13.0723342,3.44060995 7.84909611,2.76719672 6.10801674,2.76719672 C4.11751032,2.76719672 2.37643095,1.86872171 1.38166874,0.297719532 C0.63535158,1.42037027 0.38592453,3.21554816 2.37643095,3.88896139 C2.624876,4.11402318 3.37119316,4.11402318 5.85858969,4.11402318 C8.09754116,4.11402318 10.3364926,5.23578785 11.8291269,5.23578785 L19.2913165,5.23578785 C20.0376337,5.23578785 20.5355058,3.66478567 19.7891886,2.99137244 C19.0428715,3.21554816 18.5449994,3.44060995 18.0481093,3.66478567 Z" id="Path"></path>
                        </g>
                        <g id="Group" transform="translate(20.000000, 273.000000)" fill="#1565C0" fill-rule="nonzero">
                            <path d="M3.60687226,30.7695999 C4.35318942,41.2788222 2.11423795,44.1451452 1.61734784,50.1153942 C1.11947574,56.0865861 2.61211005,79.2538301 2.61211005,79.2538301 C2.61211005,79.2538301 6.59214089,80.2098997 9.57740953,79.2538301 C9.57740953,79.2538301 12.8111232,51.0714638 14.0543305,45.3388179 C16.2932819,36.5022459 20.0248677,2.58629076 20.0248677,2.58629076 L0.622585629,0.914583316 C1.11947574,0.914583316 2.86055511,20.4998665 3.60687226,30.7695999 Z" id="Path"></path>
                        </g>
                        <g id="Group" transform="translate(21.000000, 274.000000)" fill="#1565C0" fill-rule="nonzero">
                            <path d="M2.624876,29.8267305 C3.37119316,40.3359528 1.13224169,43.2022758 0.63535158,49.1725248 C0.137479476,55.1437167 1.63011379,78.3109607 1.63011379,78.3109607 C1.63011379,78.3109607 3.37119316,78.7889955 5.36169958,78.7889955 C4.61538242,70.1909695 3.12274811,62.3095242 6.8543339,55.1437167 C8.09754116,52.7554286 8.59541327,46.3071447 8.59541327,43.4408218 C8.59541327,37.9476647 7.10277895,28.6330579 9.59017548,20.9901585 C10.5849377,18.1238356 10.8343647,1.16632945 10.8343647,1.16632945 L0.38592453,0.211202745 C0.137479476,-0.0282860819 1.87855885,19.5569971 2.624876,29.8267305 Z" id="Path"></path>
                        </g>
                        <g id="Group" transform="translate(26.000000, 276.000000)" fill="#1565C0" fill-rule="nonzero">
                            <path d="M0.700163333,-0.00282860819 C0.45171828,0.952298092 0.700163333,2.38545958 1.19803544,3.81862106 C2.4412427,6.92348999 15.1276524,36.0619259 14.8792073,38.68876 C14.3813352,48.2428556 21.0981896,56.8408817 26.0729827,76.9032567 C28.0625071,77.3812915 31.7940929,77.8583834 33.7836173,76.186676 C33.0373002,65.6774537 23.3361591,7.87861669 22.0929519,0.952298092 C22.0929519,0.713752134 6.6697186,2.14691362 0.700163333,-0.00282860819 Z" id="Path"></path>
                        </g>
                        <g id="Group" transform="translate(26.000000, 276.000000)" fill="#1565C0" fill-rule="nonzero">
                            <path d="M25.6718599,56.3628469 C24.2021892,53.019432 20.2833896,46.0931134 19.5485542,42.5102097 C18.5690961,38.2116681 19.0583417,26.0307383 18.0788835,21.9697998 C17.3440482,19.3429657 17.0994253,16.4766427 15.6297546,14.0883545 C14.6502965,12.4166471 13.1806257,11.4615204 12.2011676,9.78981296 C10.4859071,7.16203595 10.2412843,5.01229372 10.7314969,2.62400553 C6.81269725,1.90742479 3.13852048,1.19084405 0.934014412,0.474263307 C0.68939159,1.43033288 0.934014412,2.86255149 1.42422695,4.29571298 C2.64830794,7.40058191 15.1395421,36.5390178 14.8949193,39.1667948 C14.4047067,48.7199475 21.0182249,57.3189164 25.9164827,77.3812915 C26.8959409,77.6198375 28.6112013,78.3364182 30.0799051,77.8583834 C28.8558241,74.7535145 28.6112013,70.2154841 28.1209888,67.1106151 C26.8959409,62.8120736 27.1415306,59.7072046 25.6718599,56.3628469 Z" id="Path"></path>
                        </g>
                        <g id="Group" transform="translate(19.000000, 223.000000)" fill="#2196F3" fill-rule="nonzero">
                            <path d="M28.275691,17.6255739 C28.275691,14.7323911 21.9077625,5.81301325 17.9889629,3.40139315 C14.0701633,0.990724753 12.8460823,-0.214133592 7.9478245,0.509162097 C2.55935419,1.47323911 3.78343519,9.18775866 3.78343519,24.1352351 C3.78343519,25.3400934 1.3343063,51.1351018 0.845060659,53.3049889 C5.00848308,56.1981716 25.0917267,56.1981716 29.9909514,54.5107989 C29.9909514,41.4924282 27.05161,32.090536 27.05161,25.8216561 C27.05161,23.8935021 28.275691,22.2061294 28.275691,17.6255739 Z" id="Path"></path>
                        </g>
                        <g id="Group" transform="translate(19.000000, 223.000000)" fill="#2196F3" fill-rule="nonzero">
                            <path d="M8.07200926,0.509162097 C2.34991705,1.95575348 3.84255137,9.18775866 3.84255137,24.1352351 C3.84255137,25.3400934 1.35515484,51.1351018 0.858264731,53.3049889 C2.5993441,54.5107989 7.3256921,55.2331429 12.5489302,55.474876 C12.5489302,49.4477291 8.32045431,47.277842 8.32045431,42.2157239 C8.32045431,39.0817598 12.3004852,35.4652814 12.0520401,33.054613 C11.554168,28.2332762 10.3099787,16.1789825 12.5489302,8.94697733 C13.2952474,6.53630894 9.81308863,0.0266477359 8.07200926,0.509162097 Z" id="Path"></path>
                        </g>
                        <g id="Group" transform="translate(22.000000, 356.000000)" fill="#1565C0" fill-rule="nonzero">
                            <path d="M0.138688087,0.769994862 L1.28717048,3.46364777 L5.64995325,3.46364777 C5.64995325,3.46364777 5.190379,2.79023455 5.42061936,2.11682132 L0.138688087,0.769994862 Z" id="Path"></path>
                        </g>
                        <g id="Group" transform="translate(30.000000, 228.000000)" fill="#2196F3">
                            <path d="M1.23084922,2.68242936 C0.00580133175,5.05153451 0.740636687,7.8938995 3.18976558,9.31554965 C8.57823588,12.3954799 17.1506704,16.6604303 23.5185989,17.8454505 L26.4579403,12.3954799 C23.7632217,11.2113949 16.6604579,5.52479436 8.33361306,1.02321399 C5.63889446,-0.635066086 2.45493022,0.0757589881 1.23084922,2.68242936 Z" id="Path"></path>
                        </g>
                        <g id="Group" transform="translate(51.000000, 230.000000)" fill="#E8D7B9">
                            <path d="M31.8834546,1.77145091 C29.8939302,2.24564606 30.8886924,0.34980076 29.396058,1.06062583 C27.6549787,1.77145091 26.4107894,2.71890591 25.4160272,4.6147512 C24.9181551,5.5622062 9.74434889,8.4055065 2.78003141,9.11633157 C0.541079939,9.3529615 -0.453682272,13.6179119 1.03797005,14.5653669 C4.76955584,16.9344721 20.6896792,10.7746116 25.6644723,9.58959142 C29.396058,8.64213642 31.3855825,7.4580515 32.6297717,7.22048628 C33.873961,6.98385635 34.3708511,6.27303128 34.122406,5.32557628 C34.8687232,5.08801106 35.1171683,4.37718598 34.6192962,3.6672962 C35.3656133,3.42973098 35.3656133,2.48227598 34.8687232,2.24564606 C36.1119305,1.77145091 37.1076747,1.29725576 36.3613575,0.586430686 C36.3613575,0.113170834 33.1276438,1.53482098 31.8834546,1.77145091 Z" id="Path"></path>
                        </g>
                        <g id="Group" transform="translate(50.000000, 236.000000)" fill="#2196F3">
                            <path d="M21.9201205,0.43579878 C18.4379618,1.89486077 9.98002799,2.1377178 3.01571051,2.8672488 C0.776759042,3.11010583 0.278886938,8.45967984 1.77152125,9.43206786 C5.50310704,11.8644778 19.432724,7.48729181 24.159072,5.78441288 C23.4127548,4.56916782 22.4179926,1.65104384 22.4179926,0.43579878 C22.1695476,0.191981841 21.9201205,0.43579878 21.9201205,0.43579878 Z" id="Path"></path>
                        </g>
                        <g id="Group" transform="translate(30.000000, 229.000000)" fill="#2196F3">
                            <path d="M43.3050639,10.0516277 C37.646823,13.1324932 31.2504663,14.3156429 25.0998244,12.6573628 C24.6074234,12.6573628 22.3930758,11.9465377 21.901646,11.7099078 C21.6549599,11.7099078 21.4092451,11.4732779 21.4092451,11.4732779 C14.7671734,8.8666075 6.64789886,6.0233072 2.22017484,0.811837058 C2.22017484,0.574271836 1.72777386,0.101011984 1.48205897,0.101011984 C1.23634408,0.33764191 1.23634408,0.33764191 0.989657989,0.574271836 C-0.239887658,2.94337698 0.498228212,5.78667728 2.95829071,7.20832743 C7.87841571,10.0516277 15.7510042,13.842383 21.901646,15.2640332 C25.5912542,17.6331383 39.3687696,13.3681879 44.0431797,11.7099078 C44.0431797,11.7099078 43.7964936,10.7624528 43.3050639,10.0516277 Z" id="Path"></path>
                        </g>
                        <g id="Group" transform="translate(78.000000, 229.000000)" fill="#E8D7B9">
                            <path d="M2.88978838,1.87935455 L0.364396151,4.57300746 L2.43112059,4.34794567 C3.12002873,4.12376995 3.80803042,3.45035672 4.03827077,2.55276778 C5.18584671,2.10353027 5.64542096,1.20594132 5.41608707,0.308352373 C4.26760467,1.20594132 3.57869652,1.65517883 2.88978838,1.87935455 Z" id="Path"></path>
                        </g>
                        <g id="Group" transform="translate(73.000000, 202.000000)" fill="#FFD8D8">
                            <path d="M3.05929604,0.203796108 C2.82996215,-0.0203796108 2.60062825,0.203796108 2.141054,0.653033617 C1.45214585,1.77479828 1.45214585,1.99986007 0.763237709,3.12162474 C0.304569917,4.24427548 0.992571604,4.24427548 1.45214585,3.57086225 C2.141054,2.6732733 2.60062825,1.99986007 3.05929604,1.10138506 C3.51887029,0.653033617 3.2895364,0.427971828 3.05929604,0.203796108 Z" id="Path"></path>
                        </g>
                        <g id="Group" transform="translate(73.000000, 204.000000)" fill="#FFD8D8">
                            <path d="M3.2895364,0.676071438 C3.05929604,0.451895719 2.60062825,0.676071438 2.3703879,1.12530895 C1.68147975,2.24707361 1.22281196,2.92048684 0.763237709,4.04313758 C0.0743295631,5.16490224 0.763237709,5.16490224 1.22281196,4.49148902 C1.9117201,3.59390007 2.82996215,2.4721354 3.2895364,1.57366039 C3.74820419,0.901133227 3.51887029,0.676071438 3.2895364,0.676071438 Z" id="Path"></path>
                        </g>
                        <g id="Group" transform="translate(74.000000, 206.000000)" fill="#FFD8D8">
                            <path d="M2.15283795,0.47493354 C1.46392981,1.37340856 1.23459591,2.04682178 0.545687768,2.94441073 C0.0861135182,3.84196687 0.545687768,4.0661754 1.00526202,3.61782396 C1.69417016,2.94441073 2.38307831,1.82176 3.07198645,1.14834677 C3.30132035,0.699995329 3.30132035,0.47493354 3.07198645,0.25075782 C3.07198645,0.0265821011 2.6124122,0.0265821011 2.15283795,0.47493354 Z" id="Path"></path>
                        </g>
                        <g id="Group" transform="translate(76.000000, 207.000000)" fill="#FFD8D8">
                            <path d="M1.94707197,0.48733852 C1.71773807,0.48733852 1.48840418,0.262276731 1.25907028,0.711514239 C0.570162136,1.60910319 0.570162136,2.0583407 0.339921782,2.50669213 C-0.118746009,3.40516715 0.339921782,3.62934287 0.799496032,2.95592964 C1.48840418,2.28251641 1.48840418,2.0583407 1.94707197,1.38492747 C2.40664622,0.711514239 2.17731232,0.48733852 1.94707197,0.48733852 Z" id="Path"></path>
                        </g>
                        <g id="Group" transform="translate(123.000000, 76.000000)" fill-rule="nonzero">
                            <g transform="translate(47.717651, 49.844389)" fill="#143549" id="Path">
                                <path d="M221.120669,0.247398041 L34.6601824,4.85232133 C32.65963,4.85232133 31.059504,6.25371663 30.6590776,8.05584932 L0.649212029,158.220928 L184.108476,163.026615 C190.310741,163.225798 195.512335,159.021612 196.912643,152.81453 L227.522753,7.45513842 C228.122998,4.85232133 227.522753,0.247398041 221.120669,0.247398041 Z"></path>
                            </g>
                            <g transform="translate(42.978877, 49.844389)" fill="#1565C0" id="Path">
                                <path d="M225.259199,0.247398041 L37.7988303,0.247398041 C35.7982779,0.247398041 34.1973621,1.64879334 33.7977255,3.45092604 L0.386999871,160.223034 C-0.213244827,163.026615 1.98712587,165.828615 4.78774126,165.828615 L179.443942,165.828615 C189.047068,165.828615 197.050067,159.221586 199.05062,149.611002 L229.66073,5.65300573 C230.260974,3.05018863 228.059814,0.247398041 225.259199,0.247398041 Z"></path>
                            </g>
                            <g transform="translate(265.610342, 189.227143) rotate(-27.637307) translate(-265.610342, -189.227143) translate(225.610342, 161.727143)" fill="#00BCD4" id="Path">
                                <path d="M0.707988989,49.8146636 C-0.857993213,47.8470989 3.83046618,24.0307552 8.1702707,24.6699482 C11.5512743,25.1666818 11.1160487,28.9918426 10.8575223,30.367076 C10.4472005,32.5345839 9.14211653,37.6799938 10.6980186,37.7431008 C13.5133474,37.8561936 15.2524712,24.3994003 15.8667679,21.1490757 C16.4798786,17.8987512 18.5036186,11.7592494 21.7168172,10.4177563 C24.9312018,9.07688813 26.3780009,8.92505636 25.0070994,14.5522041 C23.635012,20.1781022 19.6355611,30.9087968 23.20453,28.9918426 C26.7740918,27.0761381 28.0584226,17.9862263 30.5932858,13.0588793 C33.1263703,8.1315323 39.5213411,-0.341055247 41.2960419,3.41037659 C42.8827774,6.76442157 33.5289836,20.0437655 36.1990396,20.6029812 C38.3348472,21.0503538 39.5758926,16.4366675 43.4490451,10.2952912 C47.3233835,4.15329005 51.0376252,-1.60194623 54.6741905,0.496206354 C57.5938786,2.18135153 54.3344299,5.55851493 52.285786,8.89881383 C50.2371421,12.2384879 47.5487046,17.004006 49.6720603,16.8646707 C51.7954159,16.7253353 60.3339028,-0.628473409 65.6242069,0.97294561 C69.1243935,2.03139423 66.1981829,5.12176429 64.0190899,9.14999231 C61.839404,13.1775955 61.3543705,14.7658933 62.2443892,14.9514654 C63.1344078,15.1382872 66.9026081,10.2096906 68.903816,7.44485282 C70.9068027,4.67939025 74.6643298,1.43906289 77.1458275,3.32290149 C79.6261394,5.20798974 75.9877953,9.28807799 74.3162679,10.4639932 C72.6453334,11.641158 71.5193205,13.5174987 71.8531516,14.0423493 C72.1846109,14.5671998 77.9593556,11.0988124 79.1606732,14.5340843 C80.3619909,17.9712306 74.5398102,20.7135747 71.1576207,20.0050265 C67.7760241,19.2964782 63.1854016,18.4635904 62.9369553,19.7757168 C62.689695,21.0890928 66.604354,21.910109 69.6888824,22.5561751 C72.7745966,23.2041156 73.8585101,24.2113288 73.6930769,25.0860797 C73.1422259,28.0033741 68.664264,29.6204136 66.4092733,29.1480481 C64.1548756,28.674433 51.8493744,24.2744358 51.483524,26.2138836 C51.1176735,28.1514569 55.8992262,29.2836345 58.390804,29.8066106 C60.8823819,30.3283371 66.6968543,31.5479898 66.0819646,34.7989391 C65.467668,38.0486388 57.3074835,38.1579827 52.6196171,36.8489804 C47.9329365,35.5424774 40.492001,32.8126297 40.2091637,34.3128275 C39.9263263,35.8124006 45.5397884,39.0695981 48.5656147,39.7044174 C51.591441,40.3386118 57.2962175,39.8450023 56.5407986,43.8457382 C55.7853797,47.8470989 51.0127213,47.6908933 45.0719505,46.4449981 C42.5904528,45.9251461 36.458159,44.5705318 33.5455862,41.651363 C30.2292142,38.3285591 28.0619803,37.2532403 27.2929235,38.0386417 C25.7642972,39.6019465 29.0528005,42.1112321 31.7827445,43.3340089 C34.5120955,44.5561609 43.210679,47.8102343 40.6995337,51.962802 C38.1883884,56.1147448 31.8266228,51.5966562 29.0960859,50.0495967 C26.3661419,48.5025372 17.2026853,42.1599682 15.8762551,44.2868626 C14.5492319,46.413757 20.2208032,48.3831962 21.9190133,49.1935905 C23.6154446,50.0046095 26.6193318,52.8769167 25.1612665,53.9028746 C23.7037943,54.9300821 3.50137867,53.3261638 0.707988989,49.8146636 Z"></path>
                            </g>
                            <g transform="translate(51.666629, 56.958071)" fill="#FFFFFF" id="Path">
                                <polygon points="0.501520241 142.898057 183.960784 142.898057 214.770712 0.541430219 31.3114488 0.541430219"></polygon>
                            </g>
                            <g transform="translate(189.880869, 209.507023)" fill="#346790" id="Path">
                                <path d="M10.7356923,0.560400036 L2.13244827,0.560400036 C1.13256697,0.560400036 0.331714175,1.36108443 0.331714175,2.36253273 L0.331714175,2.56250623 C0.331714175,3.56316412 1.13256697,4.36463893 2.13244827,4.36463893 L10.7356923,4.36463893 C11.7355736,4.36463893 12.5356366,3.56316412 12.5356366,2.56250623 L12.5356366,2.36253273 C12.5356366,1.36108443 11.7355736,0.560400036 10.7356923,0.560400036 Z"></path>
                            </g>
                            <g transform="translate(176.454342, 209.507023)" fill="#346790" id="Path">
                                <path d="M7.15633844,0.560400036 L1.95474425,0.560400036 C0.954073152,0.560400036 0.154010153,1.36108443 0.154010153,2.36253273 L0.154010153,2.56250623 C0.154010153,3.56316412 0.954073152,4.36463893 1.95474425,4.36463893 L7.15633844,4.36463893 C8.15700953,4.36463893 8.95707253,3.56316412 8.95707253,2.56250623 L8.95707253,2.36253273 C8.95707253,1.36108443 8.15700953,0.560400036 7.15633844,0.560400036 Z"></path>
                            </g>
                            <g transform="translate(74.570703, 103.592206)" fill="#FF6F00" id="Path">
                                <polygon points="0.405165171 46.008922 35.4160168 46.008922 37.2167509 38.4004442 11.6084165 38.4004442 14.60964 25.9870697 37.6171773 25.9870697 39.6177297 18.177828 16.6101924 18.177828 19.0111712 7.96732351 43.8186528 7.96732351 45.6193869 0.158081816 11.6084165 0.158081816"></polygon>
                            </g>
                            <g transform="translate(202.500000, 63.000000) rotate(15.051227) translate(-202.500000, -63.000000) translate(163.000000, 9.000000)" id="Path">
                                <g transform="translate(16.456494, 73.774145)" fill="#757575">
                                    <path d="M35.9561772,14.9707058 C36.1816305,13.6971764 35.6957606,12.4707921 34.7987702,11.7470845 C35.8868534,11.3858429 36.7615397,10.4080417 36.9869929,9.13512459 C37.3064855,7.32340651 36.1936868,5.6059786 34.4985677,5.29739262 L6.24577854,0.147557978 C4.55246786,-0.160415727 2.92064444,1.05678452 2.59994622,2.86727805 C2.3756986,4.14141975 2.86096563,5.36657956 3.75675049,6.08967487 C2.66927009,6.45336549 1.79398098,7.43055442 1.56973336,8.70408385 C1.34367729,9.97700101 1.82954713,11.2015485 2.72593481,11.9264807 C1.6384544,12.2883345 0.764370928,13.2649111 0.538314857,14.5396651 C0.21821946,16.3495464 1.33162096,18.0675866 3.02613727,18.3767848 L31.2795292,23.5253949 C32.9722371,23.8345932 34.6052662,22.6161684 34.9259644,20.8056748 C35.150212,19.5321454 34.6643421,18.3063733 33.7685573,17.5826657 C34.8560377,17.2214242 35.730724,16.243623 35.9561772,14.9707058 Z"></path>
                                </g>
                                <g transform="translate(19.470575, 92.142358)" fill="#FFECB3">
                                    <path d="M14.1384509,2.58257074 L0.0120563238,0.00857183272 C0.0120563238,0.00857183272 1.42083776,5.80741667 2.04897223,6.39397494 C2.67831233,6.97992093 3.12741039,7.06196561 4.30953294,7.27809825 C5.49165548,7.49300635 13.0286663,8.8663364 13.0286663,8.8663364 C13.0286663,8.8663364 20.5638687,10.2402787 21.7459912,10.4545746 C22.9275109,10.6713195 23.3796231,10.7533641 24.1687095,10.4239609 C24.9577959,10.0957821 28.2654483,5.15718193 28.2654483,5.15718193 L14.1384509,2.58257074 Z"></path>
                                </g>
                                <g transform="translate(22.484656, 79.284609)" fill="#FFECB3">
                                    <path d="M25.8867356,5.08983181 L0.826460995,0.522269522 C0.498528988,0.462266693 0.185667386,0.683909796 0.1265914,1.01637445 C0.0675154132,1.34945138 0.285734874,1.66783374 0.613666881,1.72722429 L25.6739415,6.29478659 C26.0018735,6.35478941 26.3147351,6.13314631 26.3738111,5.80006938 C26.4322843,5.46760473 26.2146676,5.14922237 25.8867356,5.08983181 Z"></path>
                                </g>
                                <g transform="translate(21.279024, 85.407347)" fill="#FFECB3">
                                    <path d="M26.0609495,4.80328769 L1.00067487,0.235113126 C0.672742867,0.175110297 0.359881265,0.3967534 0.300805278,0.729218055 C0.242332108,1.06229498 0.459948752,1.38067734 0.787880759,1.4400679 L25.8481554,6.00824246 C26.1760874,6.06824529 26.488949,5.84660219 26.548025,5.51413753 C26.6064981,5.18106061 26.3888815,4.86267825 26.0609495,4.80328769 Z"></path>
                                </g>
                                <g transform="translate(10.428332, 0.913567)" fill="#FFC107">
                                    <path d="M13.7689246,73.2812102 C13.7526485,68.2826072 10.7729281,61.1196164 5.65682712,53.1716906 L4.89607309,51.8877526 C0.692635801,44.8000714 -0.827666628,36.4082472 0.611858432,28.2576588 C3.88515034,9.72903014 21.3903297,-2.64073675 39.633356,0.683909796 C57.8763823,4.00916862 70.0550778,21.7883742 66.7811831,40.3176152 C65.3422608,48.4682036 61.042373,55.7989574 54.6754284,60.9598129 L53.5198297,61.8978163 C46.0033147,67.5423682 40.6900928,73.5897962 39.0329511,77.8861212 L13.7689246,73.2812102 Z"></path>
                                </g>
                                <g transform="translate(18.867759, 10.709947)" fill="#FFFFFF">
                                    <path d="M1.89224002,2.95360865 C-0.00301408095,5.23310388 -0.482252951,7.986499 0.819830017,9.1045109 C2.12372143,10.2212982 4.71583105,9.27962119 6.61108515,7.00012596 C8.50573643,4.72063073 8.98557812,1.96662334 7.68228952,0.849835987 C6.3783981,-0.268175909 3.78628848,0.674113416 1.89224002,2.95360865 Z"></path>
                                </g>
                                <g transform="translate(31.526899, 35.813172)" fill="#FFFFFF">
                                    <path d="M2.8820642,38.0797546 C2.8820642,38.0797546 6.04865764,20.1566646 6.59360348,17.0701926 C6.75274695,16.1701502 6.83051024,15.2596991 6.83051024,14.3431252 C6.82749616,9.85944445 4.98709833,5.26432984 1.79759788,0.72187077 C1.50764329,0.309198252 0.94280452,0.21307127 0.536506408,0.507574952 C0.129605481,0.802078633 0.034963339,1.37577915 0.325520742,1.78906394 C3.37757911,6.13192176 5.02507575,10.3859999 5.02206167,14.3431252 C5.02206167,15.154388 4.95334063,15.9552421 4.81348727,16.7456875 C4.54101435,18.2892297 3.61328024,23.541314 2.75366435,28.4076659 C1.89344565,33.2746301 1.10194799,37.7552495 1.10194799,37.7552495 C1.01393683,38.2542526 1.3406632,38.7318261 1.83256122,38.8212181 C2.32385641,38.9106101 2.79405304,38.5787577 2.8820642,38.0797546 Z"></path>
                                </g>
                                <g transform="translate(39.966325, 40.099088)" fill="#FFFFFF">
                                    <path d="M1.80302322,35.1347178 C1.80302322,35.1347178 2.59452088,30.6540984 3.45413676,25.7877465 C4.31435547,20.9213946 5.24208958,15.6686979 5.51516532,14.1251558 C5.92688877,11.8009646 6.94263405,9.60412629 8.51779275,7.52423231 C10.0917458,5.4449506 12.2257151,3.48996046 14.8437458,1.6874265 C15.2572777,1.4027192 15.3651818,0.831467774 15.0848723,0.412060244 C14.8045628,-0.00795955895 14.2421353,-0.117556563 13.8286034,0.167150738 C11.0875982,2.05540303 8.80593889,4.1310111 7.08429586,6.40438359 C5.36265282,8.67530699 4.20283447,11.1513421 3.73504911,13.8006507 C3.18889764,16.8889596 0.0229070152,34.8102127 0.0229070152,34.8102127 C-0.0651041484,35.3098281 0.261622226,35.7867893 0.753520237,35.8767936 C1.24481543,35.9661855 1.71501206,35.6337209 1.80302322,35.1347178 Z"></path>
                                </g>
                                <g transform="translate(0.180457, 93.979179)" fill="#6B67E9">
                                    <path d="M14.3795774,0.450021218 C12.9255847,1.25393667 10.2448611,2.53358884 7.52254323,3.67976533 C4.80444503,4.82716637 2.01642015,5.84415309 0.409312192,6.12824812 C0.163363187,6.17233183 -0.00120563238,6.41050633 0.0421971332,6.66031402 C0.0855998989,6.91012172 0.31949258,7.07666018 0.565441585,7.03318875 C2.32807612,6.71603094 5.11549818,5.68618646 7.86916253,4.52837677 C10.61921,3.36995481 13.308373,2.08662899 14.8117966,1.25638577 C15.0312217,1.13515556 15.1126019,0.856570998 14.9932443,0.633703348 C14.8738867,0.410835697 14.5990025,0.328791012 14.3801802,0.450021218 L14.3795774,0.450021218 Z"></path>
                                </g>
                                <g transform="translate(11.031148, 98.265096)" fill="#6B67E9">
                                    <path d="M11.950831,0.470838526 C11.288336,0.559005948 10.4853848,0.825345036 9.57151545,1.22699663 C6.83955248,2.4319514 3.14549488,4.86573962 0.440055818,7.55790736 C0.261622226,7.73546676 0.258608145,8.02568452 0.43342484,8.20691756 C0.608844351,8.38815059 0.894579225,8.39059969 1.07301282,8.21304029 C2.80791781,6.48397918 5.00759408,4.83696275 7.05536068,3.594047 C8.07894257,2.97197686 9.06454704,2.45093188 9.93139672,2.06948533 C10.7958351,1.6874265 11.5481497,1.44802746 12.0665717,1.38190189 C12.3137263,1.34945138 12.4891458,1.11923644 12.4571965,0.867591926 C12.4252473,0.615947408 12.1985884,0.438388016 11.950831,0.470838526 Z"></path>
                                </g>
                                <g transform="translate(23.087472, 101.938738)" fill="#6B67E9">
                                    <path d="M6.32595309,0.281033658 C3.16900471,0.882286496 0.741463913,2.89789173 0.710720287,2.91809677 C0.516613474,3.07790022 0.487075481,3.36689344 0.644410506,3.56404559 C0.801745532,3.76119774 1.08627477,3.79119916 1.28038159,3.6313957 L1.30268578,3.61363977 C1.54562071,3.41465079 3.79291946,1.6874265 6.49112473,1.18413746 C6.73647091,1.13760466 6.89862847,0.898205614 6.85281444,0.649010192 C6.80760322,0.399202495 6.57129928,0.234500852 6.32595309,0.281033658 Z"></path>
                                </g>
                            </g>
                            <g transform="translate(117.219668, 83.041570)" fill="#FFECB3" id="Path">
                                <path d="M56.5880689,1.28757639 C53.9872718,0.886838986 51.3864747,0.486891992 48.7856777,0.486891992 C46.1848806,0.486891992 43.5840835,0.686865489 41.1831047,1.08760289 C21.3766092,4.49110438 4.57133726,21.1094552 1.16968737,40.7305702 C-2.63080933,62.7553192 10.3731761,82.1764606 31.7797976,85.9806995 C34.1807764,86.3814369 36.5817552,86.5814104 39.1825523,86.5814104 C41.5827413,86.5814104 43.9837201,86.3814369 46.3846989,85.9806995 C66.3910126,82.7771715 83.3968927,65.9588472 86.7977528,46.1369683 C90.7988576,24.7137206 77.7948721,5.29178878 56.5880689,1.28757639 Z"></path>
                            </g>
                            <g transform="translate(35.080920, 102.801797)" fill="#FF6F00" id="Path">
                                <path d="M26.4905361,0.347779994 C22.8890679,0.347779994 19.8886342,0.948490894 17.087229,1.9499392 C14.2866136,2.95059709 12.0862429,4.55275629 10.2855088,6.55486248 C8.48477473,8.55696868 7.28428533,10.7598388 6.68404063,13.161892 C5.88397764,16.7661574 6.48422233,19.7697119 8.68459303,22.372529 C10.2855088,24.1738712 13.2859425,25.7760304 18.0879001,26.9774522 C21.6885785,27.9781101 24.0895573,28.578821 25.0902284,28.9795584 C26.4905361,29.5802693 27.4912072,30.1809802 27.8908438,30.9816646 C28.2912702,31.782349 28.4910885,32.5838238 28.0906621,33.7844552 C27.6910255,35.3866144 26.4905361,36.9879832 24.689802,38.189405 C22.8890679,39.3908268 20.4888789,39.9915377 17.4876554,39.9915377 C14.68704,39.9915377 12.6856978,39.1908533 11.2853901,37.789458 C9.88508243,36.3872723 9.48465603,34.1851926 9.68526413,31.1816381 L0.48177535,31.9831129 C-0.117679553,37.1887471 0.682383447,40.992986 3.28318054,43.5958031 C5.68415933,46.1986202 9.88508243,47.6000155 15.6869213,47.6000155 C19.6880261,47.6000155 23.089676,46.9993046 26.0901097,45.9978563 C29.0913332,44.9971984 31.492312,43.1950657 33.4928644,40.7922221 C35.4934168,38.5901424 36.8937245,35.9873253 37.4939692,33.3845082 C38.2940322,30.5809272 38.0942139,27.9781101 37.4939692,26.1767678 C36.6939062,24.1738712 35.4934168,22.5725025 33.4928644,21.5710542 C31.6921303,20.3704228 28.4910885,19.3689745 24.2901654,18.3675262 C20.0884525,17.3668683 17.4876554,16.36542 16.4869843,15.3647621 C15.6869213,14.5640777 15.487103,13.7626029 15.8867396,12.5611811 C16.0873477,11.3605497 16.8874107,10.3591014 18.0879001,9.75918089 C19.8886342,8.55696868 22.0890049,8.15702169 24.8896203,8.15702169 C27.4912072,8.15702169 29.2911515,8.75773259 30.2918226,9.75918089 C31.2917039,10.7598388 31.6921303,12.5611811 31.6921303,14.7640512 L41.0954374,14.3633138 C41.8955004,10.1591279 41.2952557,6.75483598 38.8942769,4.35278279 C36.0936615,1.54920179 32.0925567,0.347779994 26.4905361,0.347779994 Z"></path>
                            </g>
                            <g transform="translate(124.327829, 90.155252)" fill="#FF6F00" id="Path">
                                <path d="M48.0796003,1.38163507 C46.0782581,0.981688075 43.8778874,0.780924169 41.6775168,0.780924169 C39.4763563,0.780924169 37.2759856,0.981688075 35.2754332,1.38163507 C18.4693714,4.38518957 4.06507824,18.4007233 1.06385475,35.2190477 C-2.13718704,53.0388204 8.46660943,69.0564603 25.8721261,72.0592244 C27.8726785,72.4599618 29.8732309,72.6599353 31.8737833,72.6599353 C33.8743357,72.6599353 35.8756779,72.4599618 37.8762303,72.0592244 C54.8813205,69.2564338 69.2864035,55.0409266 72.2868372,38.2226022 C75.6884871,20.4028295 65.2845089,4.58516306 48.0796003,1.38163507 Z"></path>
                            </g>
                            <g transform="translate(133.015581, 98.849752)" fill="#FFFFFF" id="Path">
                                <path d="M37.9907506,0.896323895 C36.3906246,0.696350398 34.7897088,0.495586492 33.1895828,0.495586492 C31.588667,0.495586492 29.7887227,0.696350398 28.187807,0.896323895 C14.9840032,3.099194 3.38032541,14.3111468 0.979346613,27.7259696 C-1.42163218,41.340766 6.3807591,52.5527188 18.985108,54.7555889 C20.3854157,54.9555624 21.9855417,55.1563263 23.5864575,55.1563263 C25.1865835,55.1563263 26.7874993,54.9555624 28.3876253,54.7555889 C41.5922188,52.5527188 53.3957149,41.340766 55.7966937,27.9259431 C57.9978542,14.5119107 50.1946731,3.29916749 37.9907506,0.896323895 Z"></path>
                            </g>
                            <g transform="translate(141.703334, 107.544252)" fill="#FF6F00" id="Path">
                                <path d="M25.1020753,0.810959714 C24.1014042,0.610986217 22.9009148,0.411012721 21.7012152,0.411012721 C20.5007258,0.411012721 19.5000547,0.411012721 18.2995653,0.610986217 C9.49729276,2.21314542 2.29435638,9.22091231 0.894048682,17.830048 C-0.706077316,27.2406585 4.89515347,35.6498206 14.0986423,37.2511894 C15.0985236,37.4519533 16.0991946,37.4519533 17.299684,37.4519533 C18.2995653,37.4519533 19.5000547,37.4519533 20.5007258,37.2511894 C29.3029984,35.8497941 36.7057531,28.4412899 38.1060608,19.8321542 C39.7069766,11.0222546 34.3047743,2.61309241 25.1020753,0.810959714 Z"></path>
                            </g>
                            <g transform="translate(150.391086, 116.238752)" fill="#FFECB3" id="Path">
                                <path d="M14.8134073,0.526412446 C14.2131626,0.32564854 13.6129179,0.32564854 13.013463,0.32564854 C12.4132183,0.32564854 11.8129736,0.32564854 11.2127289,0.526412446 C6.01113474,1.32709684 1.60960355,5.93202013 0.608932451,10.9376808 C-0.191130549,15.7425776 2.40966655,19.74679 6.81119773,20.5482648 C7.41144243,20.5482648 8.01168713,20.7482383 8.61193183,20.7482383 C9.21217653,20.7482383 9.81242123,20.7482383 10.4126659,20.5482648 C15.6142601,19.74679 20.2156096,15.1418667 21.0156726,10.1369964 C22.0163437,5.33130923 19.4155466,1.32709684 14.8134073,0.526412446 Z"></path>
                            </g>
                            <g transform="translate(159.078838, 124.933251)" fill="#FEC230" id="Path">
                                <path d="M2.92461331,0.241074769 L2.32436861,0.241074769 C1.52430562,0.441048266 0.724242616,1.04175916 0.524424315,1.84244356 C0.323816219,2.64312796 0.724242616,3.24383886 1.52430562,3.44460276 L1.92473201,3.44460276 C2.72479501,3.24383886 3.52485801,2.64312796 3.72546611,1.64247006 C3.92528441,1.04175916 3.52485801,0.241074769 2.92461331,0.241074769 Z"></path>
                            </g>
                            <g transform="translate(0.074872, 146.996059)" fill="#143549" id="Path">
                                <polygon points="3.58883146 4.60650411 0.588397764 7.60926819 10.3913414 7.4092947 3.58883146 0.401527812"></polygon>
                            </g>
                        </g>
                        <g id="Group" transform="translate(314.000000, 241.000000)" fill-rule="nonzero">
                            <g transform="translate(0.756844, 54.621031)" fill="#FFECB3" id="Path">
                                <path d="M0.229150582,5.66743871 C0.229150582,2.59757607 16.011473,0.109551006 35.4820055,0.109551006 C54.9476934,0.109551006 70.7314692,2.59757607 70.7314692,5.66743871 C70.7314692,8.73681445 54.9476934,11.2258133 35.4820055,11.2258133 C16.011473,11.2258133 0.229150582,8.73681445 0.229150582,5.66743871 Z"></path>
                            </g>
                            <g transform="translate(21.992114, 0.954724)" id="Path">
                                <g transform="translate(0.035046, 0.143821)" fill="#FFC107">
                                    <path d="M11.2298437,57.3920314 C7.09737748,56.1192929 -2.02020915,49.5847013 0.746072445,40.5007377 C1.99598602,36.3889259 2.5628073,35.3844655 4.12762158,34.6526653 C5.14014847,34.1764839 6.23987863,34.294312 6.57415785,33.3482788 C7.19427001,31.6178609 0.750917072,29.2978155 2.39324538,22.799254 C4.03072906,16.3021531 8.8898892,16.3970972 9.31137169,14.636492 C9.73285418,12.8763736 7.32023029,11.3962187 9.13212052,8.76164044 C10.9391661,6.12803593 15.3041744,9.02845783 18.0946791,5.96492676 C20.9966103,2.77869864 26.9700344,-1.43438693 29.983392,1.33457385 C32.9919049,4.10353463 30.6325719,6.45279359 31.136413,9.21737233 C31.6450988,11.9804904 37.7202601,17.2944411 33.4327659,22.0017231 C29.1694948,26.6802785 26.9070543,27.7874733 30.4920777,34.8649506 C34.0771012,41.9438887 30.1432646,48.8509535 26.548552,50.2882618 C22.9538393,51.7250832 24.8577774,52.9179711 27.1202179,52.8166974 C29.3923476,52.7163974 27.6773499,55.7721382 25.109698,56.9698951 C22.5468907,58.167652 16.4087492,58.9905013 11.2298437,57.3920314 Z"></path>
                                </g>
                                <g transform="translate(10.208762, 6.473431)" fill="#FF6F00">
                                    <path d="M1.54543578,53.2018298 C1.40494162,51.3058683 1.33227222,49.4196446 1.33227222,47.5475408 C1.33227222,29.0767661 8.07114736,11.9931496 15.8225494,1.19191419 C15.9775774,0.9737861 15.9291312,0.669477944 15.711123,0.512211489 C15.4931148,0.354945033 15.192748,0.404608125 15.0328753,0.622736211 C7.16520225,11.5977925 0.368191596,28.8352671 0.36334697,47.5475408 C0.36334697,49.4435023 0.436016364,51.3545576 0.581355152,53.2758375 C0.600733657,53.5441156 0.833275718,53.7447155 1.09973016,53.724266 C1.36618461,53.7038165 1.56965891,53.469621 1.54543578,53.2018298 Z"></path>
                                </g>
                                <g transform="translate(13.115537, 11.342361)" fill="#FF6F00">
                                    <path d="M6.83576767,6.11294224 C6.68073963,5.86267922 6.40459593,5.48825846 6.03155971,5.02376249 C5.47442768,4.32993989 4.70413211,3.4535324 3.85632251,2.6272749 C3.00366829,1.80150429 2.0831893,1.02685744 1.18693344,0.536069248 C0.949546749,0.408016376 0.654024546,0.496144018 0.528064263,0.732287147 C0.40210398,0.96891717 0.489307253,1.26446125 0.721849314,1.39251412 C1.74891008,1.94611152 2.96491128,3.05671457 3.96774891,4.12933996 C4.47159005,4.66540921 4.92214029,5.19222749 5.28064263,5.63578705 C5.63430035,6.07691216 5.9007548,6.44354262 6.0121812,6.62515373 C6.15267536,6.85399347 6.44819756,6.92459296 6.675895,6.78339397 C6.90359243,6.6417081 6.97626183,6.34178198 6.83576767,6.11294224 Z"></path>
                                </g>
                                <g transform="translate(20.382477, 13.776827)" fill="#FF6F00">
                                    <path d="M0.750917072,1.57120387 C1.26444746,1.39981752 2.1946157,1.25326271 3.16838558,1.16221371 C4.14215546,1.06873024 5.17406086,1.0229623 5.93466718,1.0229623 C6.33677116,1.0229623 6.66620575,1.03610841 6.85514617,1.0580186 C7.12160062,1.08869286 7.3589873,0.896370105 7.38805506,0.629065821 C7.42196744,0.362248429 7.22818239,0.120749476 6.96172795,0.0905621073 C6.70496276,0.0618354174 6.35614967,0.0496630911 5.93466718,0.0491761981 C5.13530385,0.0491761981 4.08401995,0.0964048239 3.07633768,0.192809648 C2.06381079,0.290675151 1.10941942,0.430413456 0.450550243,0.646107077 C0.193785051,0.729852682 0.0581355152,1.00494726 0.140494162,1.26056611 C0.222852808,1.51618496 0.498996506,1.65543637 0.750917072,1.57120387 Z"></path>
                                </g>
                                <g transform="translate(7.786448, 23.027795)" fill="#FF6F00">
                                    <path d="M7.31054104,6.93433082 C6.59838098,5.52867058 4.97058655,2.72952244 0.842964971,0.536069248 C0.605578284,0.409963948 0.314900708,0.500526055 0.188940425,0.738129864 C0.0629801415,0.975733672 0.155028041,1.27030397 0.387570102,1.39640927 C4.30687275,3.49053628 5.76510526,6.05013304 6.44819756,7.37837728 C6.56931322,7.61792866 6.8599908,7.71238591 7.09737748,7.58968886 C7.33476417,7.46747871 7.4316567,7.1738822 7.31054104,6.93481771 L7.31054104,6.93433082 Z"></path>
                                </g>
                                <g transform="translate(15.537851, 23.027795)" fill="#FF6F00">
                                    <path d="M1.04643927,2.61851082 C1.15302105,2.55180648 1.33711685,2.46708708 1.56965891,2.38382837 C2.38840075,2.08682361 3.79334237,1.79420089 5.19828399,1.5760728 C6.60807023,1.35648404 8.03723498,1.2050603 8.93349084,1.16513507 C9.19994529,1.15344964 9.40826421,0.926070581 9.39373034,0.657305618 C9.38404108,0.388540654 9.15634365,0.180637322 8.8898892,0.192809648 C7.79984829,0.241498953 6.07031672,0.43576928 4.43283304,0.714272104 C3.61893582,0.853523517 2.82926174,1.01371133 2.15585869,1.18947972 C1.81673485,1.27760736 1.5115234,1.36963015 1.24022432,1.46700876 C0.968925254,1.56536116 0.736383193,1.66663491 0.537753516,1.78835817 C0.310056081,1.92907026 0.237386687,2.22899638 0.377880849,2.45783612 C0.518375011,2.68716274 0.81874184,2.75922291 1.04643927,2.61851082 Z"></path>
                                </g>
                                <g transform="translate(11.662150, 38.608372)" fill="#FF6F00">
                                    <path d="M0.804207961,2.20173037 C1.65201756,1.76450041 2.72267996,1.55562329 3.80303162,1.45873158 C4.88822791,1.35989229 5.97342419,1.36816947 6.87452468,1.32824424 C7.14097912,1.31655881 7.34929805,1.08917975 7.3396088,0.820414789 C7.32507492,0.551649826 7.10222211,0.343746493 6.83092304,0.35591882 C5.96857956,0.394870264 4.85916015,0.385132403 3.71582835,0.488840622 C2.57249655,0.594009521 1.39525237,0.808729356 0.36334697,1.33408696 C0.125960283,1.45629711 0.0290677576,1.74940673 0.150183414,1.98895811 C0.271299071,2.22850949 0.566821274,2.32394053 0.804207961,2.20173037 Z"></path>
                                </g>
                                <g transform="translate(5.364135, 39.095265)" fill="#FF6F00">
                                    <path d="M6.54024546,6.96500508 C6.16236461,5.90114377 5.33393352,4.66248785 4.30687275,3.44768969 C3.27981198,2.23629978 2.05412154,1.06386131 0.862343476,0.199626151 C0.64917992,0.0423596954 0.343968465,0.0910490004 0.188940425,0.309177087 C0.0290677576,0.527305173 0.0775140203,0.831613329 0.295522202,0.988879785 C1.40494162,1.7932271 2.59187505,2.92330587 3.57048956,4.07918997 C4.54910407,5.23166582 5.32424427,6.42601447 5.62945572,7.29073653 C5.716659,7.54440781 5.9928027,7.67684272 6.24956789,7.58676751 C6.50148845,7.49669229 6.63229336,7.21867636 6.54024546,6.96500508 Z"></path>
                                </g>
                            </g>
                        </g>
                        <g id="Group" transform="translate(207.000000, 272.000000)">
                            <g transform="translate(15.753262, 30.604843)" fill="#2196F3" id="Path">
                                <path d="M53.5926938,12.2397841 C51.4623391,8.30549497 48.8584965,4.45138653 46.8691662,3.03395525 C42.7256365,0.082219168 33.058309,0.47564808 26.9165924,0.672702284 C20.7735132,0.47564808 11.1068669,0.082219168 6.96401851,3.03395525 C4.94266819,4.47380994 2.39469038,8.22939127 0.239809677,12.2397841 C-0.609062077,13.8189357 6.84002601,15.3049962 8.93631684,16.2664848 C9.51404016,25.2976829 1.833999,43.7664183 1.833999,43.7664183 C1.833999,43.7664183 15.4997442,54.0777892 26.9165924,54.0777892 C38.3327593,54.0777892 51.9985045,43.7664183 51.9985045,43.7664183 C51.9985045,43.7664183 44.6665961,25.7712924 44.8955054,16.2664848 C47.3760367,15.1290064 54.216744,13.3922114 53.5926938,12.2397841 Z"></path>
                            </g>
                            <g transform="translate(60.036299, 42.835793)" fill="#FFF3E0" fill-rule="nonzero" id="Path">
                                <path d="M0.612468464,4.03553421 C0.612468464,4.03553421 6.77530464,1.21630009 9.30965691,0.00883346433 C11.5299403,4.17211316 13.4218478,8.77842506 14.1835161,11.9564337 C15.693227,18.2526553 4.3281559,31.5354677 4.3281559,31.5354677 C4.3281559,31.5354677 2.91654894,32.5988809 0.630181679,34.0400946 L5.42160627,13.9731816 C5.42160627,13.9731816 1.84558072,6.29961907 0.612468464,4.03553421 Z"></path>
                            </g>
                            <g transform="translate(10.303042, 42.835793)" fill="#FFF3E0" fill-rule="nonzero" id="Path">
                                <path d="M14.3865368,4.03553421 C14.3865368,4.03553421 8.22438187,1.21630009 5.6900296,0.00883346433 C3.47042754,4.17211316 1.57715739,8.77842506 0.815489156,11.9564337 C-0.693540485,18.2526553 10.6715306,31.5354677 10.6715306,31.5354677 C10.6715306,31.5354677 12.0824563,32.5988809 14.3695048,34.0400946 L9.57808024,13.9731816 C9.57808024,13.9731816 13.1541058,6.29961907 14.3865368,4.03553421 Z"></path>
                            </g>
                            <g transform="translate(36.191587, 25.848362)" fill="#FFF3E0" fill-rule="nonzero" id="Path">
                                <path d="M10.1816921,0.313248235 L2.77348066,0.313248235 C2.28977365,2.7730283 1.14931513,4.39023177 0.230953069,5.29464262 C1.2106301,7.86789873 3.92279579,8.87287518 6.47826766,8.87287518 C9.03373952,8.87287518 11.8835233,7.86789873 12.8638816,5.29464262 C11.9448382,4.39023177 10.6653991,2.7730283 10.1816921,0.313248235 Z"></path>
                            </g>
                            <g transform="translate(33.466477, 4.104450)" fill="#FFF3E0" fill-rule="nonzero" id="Path">
                                <path d="M-0.00272510996,13.0178084 C-0.00272510996,8.97140228 0.432611207,4.0375727 3.00920268,1.91142578 C4.38878959,0.771908883 6.6070291,0.411775337 9.20337762,0.411775337 C11.8317462,0.411775337 14.1242449,0.848012576 15.5378957,2.14653183 C17.8923907,4.31141009 18.4087991,9.13380212 18.4087991,13.0178084 C18.4087991,19.2331698 14.2877515,24.2709625 9.20337762,24.2709625 C4.11900371,24.2709625 -0.00272510996,19.2331698 -0.00272510996,13.0178084 Z"></path>
                            </g>
                            <g transform="translate(49.817136, 12.258417)" fill="#FFF3E0" fill-rule="nonzero" id="Path">
                                <path d="M0.673102161,2.71730953 C0.585217364,1.60769051 1.10026315,0.663189322 1.82446112,0.606111553 C2.54797781,0.549033783 3.20609187,1.40180284 3.29397667,2.51006287 C3.38186146,3.61968189 2.86681568,4.56486257 2.14329899,4.62194034 C1.41910101,4.67901811 0.760986957,3.82624905 0.673102161,2.71730953 Z"></path>
                            </g>
                            <g transform="translate(32.103922, 12.258417)" fill="#FFF3E0" fill-rule="nonzero" id="Path">
                                <path d="M2.74486701,2.71730953 C2.83275181,1.60769051 2.31702475,0.663189322 1.59350805,0.606111553 C0.869310078,0.549033783 0.2118773,1.40180284 0.123992503,2.51006287 C0.036107707,3.61968189 0.551834767,4.56486257 1.27535146,4.62194034 C1.99954943,4.67901811 2.65698221,3.82624905 2.74486701,2.71730953 Z"></path>
                            </g>
                            <g transform="translate(28.016257, 0.027466)" fill="#212121" fill-rule="nonzero" id="Path">
                                <path d="M21.6734808,4.48875888 L21.6762059,4.48875888 C16.4944093,-0.479725063 16.6987926,1.98005501 17.4986123,2.69216813 L17.4979311,2.69216813 C14.5016727,1.72524353 12.0034281,1.07292617 11.5299403,1.24212098 C11.2908119,1.32705814 11.4461431,1.94608014 11.6648332,2.35174 C10.7369333,2.05887669 9.68708464,1.66476828 8.40628296,1.12252947 C-1.46202149,-3.05230168 -1.2167616,6.23506683 4.76894243,8.61670471 C10.1959989,10.7754675 15.700721,11.0560999 22.9542825,9.66584847 C23.8304053,7.7530637 23.1573032,5.75873925 21.6734808,4.48875888 Z"></path>
                            </g>
                            <g transform="translate(18.478372, 55.066744)" fill="#F5F5F5" fill-rule="nonzero" id="Path">
                                <path d="M0.329738305,2.6248979 L4.64699376,29.2503184 L43.7346085,29.2503184 L48.051864,2.6248979 C48.2289961,1.53090732 47.3828495,0.538841324 46.2710046,0.538841324 L2.11127894,0.538841324 C1.00011536,0.538841324 0.153287435,1.53090732 0.329738305,2.6248979 Z"></path>
                            </g>
                            <g transform="translate(60.717576, 90.400601)" fill="#FFF3E0" fill-rule="nonzero" id="Path">
                                <path d="M0.768481009,0.838499615 C1.25355058,0.838499615 1.68139285,0.633291443 2.16782497,0.367608016 C3.99978015,2.46657504 4.13603565,4.96780444 1.79039725,6.18614302 C1.38163075,5.90347216 0.946294434,5.63099376 0.161462765,5.3748233 C-0.293630598,3.92953263 0.768481009,0.838499615 0.768481009,0.838499615 Z"></path>
                            </g>
                            <g transform="translate(0.765157, 69.336186)" fill="#1565C0" fill-rule="nonzero" id="Path">
                                <path d="M60.7209002,21.9029146 C44.3014314,15.1269679 31.8905993,7.37254523 21.325348,3.53270624 C10.3969758,-0.43827573 1.76587126,-0.340428126 0.630862956,3.8146976 C-1.68752434,12.3029773 26.3368252,26.4392383 60.1138819,26.4392383 C60.1138819,24.6222626 60.7209002,21.9029146 60.7209002,21.9029146 Z"></path>
                            </g>
                            <g transform="translate(76.386959, 89.041607)" fill="#424242" fill-rule="nonzero" id="Path">
                                <path d="M4.42353475,6.32136298 C4.17486846,3.69918306 2.9540192,1.86182248 0.304531038,0.540879816 L1.13228319,0.540879816 C2.45668663,0.540879816 5.52107278,2.93542815 5.52107278,6.40358215 C5.52107278,9.87105665 2.45668663,10.4499883 0.304531038,10.4499883 C2.20870162,10.2658446 4.62723672,8.47265129 4.42353475,6.32136298 Z"></path>
                            </g>
                            <g transform="translate(62.080131, 89.041607)" fill="#424242" fill-rule="nonzero" id="Path">
                                <path d="M0.427842264,7.54513754 C2.77348066,6.32679896 2.63722517,3.82556955 0.805269994,1.72660253 C1.70251245,1.23668501 2.80141304,0.540879816 4.8425204,0.540879816 L14.6113583,0.540879816 C17.2608465,1.86182248 18.4816958,3.69918306 18.730362,6.32136298 C18.934064,8.47265129 16.5155289,10.2658446 14.6113583,10.4499883 C12.4592027,10.4499883 5.39163006,9.45792231 3.26945068,8.88034965 C1.61599021,8.43052246 1.05461756,7.97661829 0.427842264,7.54513754 Z"></path>
                            </g>
                            <g transform="translate(20.522204, 90.400601)" fill="#FFF3E0" fill-rule="nonzero" id="Path">
                                <path d="M2.77620577,0.838499615 C2.2911362,0.838499615 1.86329394,0.633291443 1.37686181,0.367608016 C-0.455093364,2.46657504 -0.591348862,4.96780444 1.75428954,6.18614302 C2.16305603,5.90347216 2.59839235,5.63099376 3.38322402,5.3748233 C3.83899866,3.92953263 2.77620577,0.838499615 2.77620577,0.838499615 Z"></path>
                            </g>
                            <g transform="translate(23.247314, 69.336186)" fill="#1565C0" fill-rule="nonzero" id="Path">
                                <path d="M0.0510958118,21.9029146 C16.4705646,15.1269679 28.8820779,7.37254523 39.446648,3.53270624 C50.3750202,-0.43827573 59.0061247,-0.340428126 60.141133,3.8146976 C62.4595203,12.3029773 34.435852,26.4392383 0.658114056,26.4392383 C0.658114056,24.6222626 0.0510958118,21.9029146 0.0510958118,21.9029146 Z"></path>
                            </g>
                            <g transform="translate(2.808990, 89.041607)" fill="#424242" fill-rule="nonzero" id="Path">
                                <path d="M1.16498451,6.32136298 C1.41365079,3.69918306 2.63450006,1.86182248 5.28398822,0.540879816 L4.45623607,0.540879816 C3.13183262,0.540879816 0.0688090265,2.93542815 0.0688090265,6.40358215 C0.0688090265,9.87105665 3.13183262,10.4499883 5.28398822,10.4499883 C3.37981763,10.2658446 0.961282539,8.47265129 1.16498451,6.32136298 Z"></path>
                            </g>
                            <g transform="translate(3.490267, 89.041607)" fill="#424242" fill-rule="nonzero" id="Path">
                                <path d="M18.7862268,7.54513754 C16.4405884,6.32679896 16.5768439,3.82556955 18.4087991,1.72660253 C17.5115566,1.23668501 16.412656,0.540879816 14.3715487,0.540879816 L4.60271073,0.540879816 C1.95322257,1.86182248 0.732373302,3.69918306 0.483707018,6.32136298 C0.280005049,8.47265129 2.69854014,10.2658446 4.60271073,10.4499883 C6.75486632,10.4499883 13.822439,9.45792231 15.9446184,8.88034965 C17.5980789,8.43052246 18.1594515,7.97661829 18.7862268,7.54513754 Z"></path>
                            </g>
                            <g transform="translate(39.597974, 67.977192)" fill="#1565C0" fill-rule="nonzero" id="Path">
                                <polygon points="4.46849906 0.444391206 1.65073536 0.444391206 0.241172232 2.13837787 1.65073536 3.83236453 4.46849906 3.83236453 5.87669963 2.13837787"></polygon>
                            </g>
                        </g>
                        <g id="Group" transform="translate(360.000000, 117.000000)">
                            <g transform="translate(11.657887, 108.546424)" fill="#BBDEFB" fill-rule="nonzero" id="Path">
                                <path d="M33.9183479,12.0439901 C33.9183479,12.0439901 31.5658571,8.12126098 29.7842717,5.15135986 C22.3238828,4.23384428 8.93753423,2.16075832 4.51317802,1.95070996 C3.37072352,0.778701011 1.62839994,0.299547222 0.00707999975,0.720861608 L4.32587985,7.92156283 C5.2655889,7.06980152 5.75282162,5.88074517 5.70776707,4.67890326 C11.6710578,6.23569645 28.0097663,10.5012002 33.9183479,12.0439901 Z"></path>
                            </g>
                            <g transform="translate(0.716069, 113.417110)" fill="#B2EBF2" fill-rule="nonzero" id="Path">
                                <path d="M1.08066542,5.88074517 C2.96780717,3.87036929 11.1104505,0.380522386 11.1104505,0.380522386 C11.1104505,0.380522386 8.32543607,8.52978981 6.52132341,10.4506668 C5.18706527,11.8722984 2.88735263,12.0007628 1.38510541,10.739255 C-0.11778545,9.47652951 -0.254236355,7.30176796 1.08066542,5.88074517 Z"></path>
                            </g>
                            <g transform="translate(72.159703, 177.953707)" fill="#424242" fill-rule="nonzero" id="Path">
                                <path d="M20.6478538,7.97453161 C20.6478538,7.97453161 20.544872,6.13706504 20.4225811,3.6189201 C20.3517811,2.07613014 19.9591629,2.18145874 19.5343629,2.5820727 C18.5689084,3.32424357 14.114945,3.83383915 13.8059995,2.5820727 C13.6386541,1.91783283 13.2202904,0.197871641 12.8212359,0.334250864 C12.4028723,0.477936117 10.8903269,2.38968059 8.81781787,3.08192691 C4.7500362,4.43597777 0.456981802,5.57754493 0.456981802,6.49445167 C0.456981802,7.97879339 1.68632721,7.97453161 2.52305446,7.97453161 L20.6478538,7.97453161 Z"></path>
                            </g>
                            <g transform="translate(85.676066, 117.070125)" fill="#FFF3E0" fill-rule="nonzero" id="Path">
                                <path d="M12.982145,14.1012464 C14.417454,9.2944876 16.4384721,4.27950696 15.0031631,2.92850028 C13.5742904,1.57505826 2.34927264,-2.30809659 1.89872721,3.18847318 C1.57690904,7.13312044 3.27610898,13.917378 3.27610898,15.3286594 C1.52541813,25.8706516 3.58505442,53.3242763 1.57047267,61.6927246 C1.57047267,62.273554 0.965454511,63.2793507 0.289636353,63.4656545 C0.598581797,64.7174209 5.05254528,64.2078254 6.01799979,63.4656545 C5.97294524,62.8616894 5.93432706,62.2632038 5.93432706,61.6927246 C5.93432706,55.987933 13.2910904,37.5255956 13.2910904,33.3964711 C13.2910904,24.6462827 11.546836,18.9080052 12.982145,14.1012464 Z"></path>
                            </g>
                            <g transform="translate(142.316064, 142.032394)" fill="#424242" fill-rule="nonzero" id="Path">
                                <path d="M10.7937814,1.48373289 C10.7937814,1.48373289 8.92079968,0.981443338 6.35912705,0.27519379 C4.79509074,-0.157079641 4.77578165,0.227704596 5.03967255,0.73669134 C5.46447253,1.84111951 4.53119984,5.99398863 3.17956352,5.86613311 C2.46512719,5.79611699 0.60501816,5.61468391 0.61782441,6.01468905 C0.624327251,6.43600343 2.04676356,8.40863148 2.06607265,10.4914588 C2.10469083,14.5694411 1.85367266,18.7831938 2.77407263,19.0803057 C4.25443621,19.5600683 4.65349074,18.4574667 4.92381801,17.7079898 C5.19414527,16.9572952 10.7358542,1.6420302 10.7937814,1.48373289 Z"></path>
                            </g>
                            <g transform="translate(96.617884, 119.505468)" fill="#FFF3E0" fill-rule="nonzero" id="Path">
                                <path d="M50.7378528,23.2636166 L50.7378528,23.2617901 C50.1199619,23.1095811 49.5085073,22.9464131 48.935671,22.7625447 C43.2266167,20.918381 27.1485809,8.35444509 23.0164356,7.0168328 C14.2629813,4.18391974 7.95534517,3.88802553 3.61723624,1.04780644 C-0.727309065,-1.79423916 0.289636353,9.67440115 1.69919994,10.131028 C11.6755632,15.1082608 39.8024713,22.1579708 47.519671,26.6712707 C48.0989438,26.8587921 48.9163619,27.7221213 48.8777437,28.3930584 C50.22938,28.5209139 51.1626527,24.3680448 50.7378528,23.2636166 Z"></path>
                            </g>
                            <g transform="translate(83.745157, 74.451618)" fill="#FF6F00" id="Path">
                                <path d="M3.79101805,0.580220534 L22.3599265,0.580220534 C27.5154536,5.45943078 32.394217,12.9328904 28.6675626,24.7710941 C22.6817447,43.8026929 28.6675626,50.0718753 28.6675626,50.0718753 L3.32116352,50.0718753 C1.99527266,42.8230761 -2.84487263,19.0504727 3.79101805,0.580220534 Z"></path>
                            </g>
                            <g transform="translate(103.697883, 31.224275)" fill="#FFF3E0" fill-rule="nonzero" id="Path">
                                <path d="M36.4426896,47.5592099 C35.6059624,47.4599697 33.0764716,47.1232835 33.0764716,47.1232835 C34.0419261,46.9972545 35.8505442,46.8085154 35.9921442,45.7698414 C34.8464715,46.0091139 31.879308,46.5661987 30.5405444,46.435299 C29.2082172,46.3025728 28.8091626,46.9187146 27.4124718,46.5461071 C26.5821809,46.3257085 25.5266173,45.7960214 24.7928719,45.3972339 C19.2125448,38.0181438 8.8306906,3.53185658 4.35741803,0.452973849 C0.714436338,-2.05542972 -0.907527241,8.29904103 0.579272707,9.94411541 C2.07250902,11.5904075 8.47025425,22.3059179 9.94418147,26.8210443 C11.4245451,31.3361707 21.0147265,46.1187044 22.8555265,48.148563 C23.9175264,49.1233091 25.8613082,50.1698979 27.5476354,48.7793169 C28.9700717,47.6115698 30.3731989,48.189355 30.3731989,48.189355 C30.4568717,48.842027 30.8108716,51.4606298 31.8213807,51.5062925 C31.6540352,50.8688414 31.4416353,48.1010738 31.4416353,48.1010738 C32.6581079,48.9881476 34.5954533,50.3519398 35.5930897,49.5050492 C34.7241806,49.0691227 33.4111625,48.1990964 33.4111625,48.1990964 C34.2865079,48.2587623 36.1723624,48.4645488 36.4426896,47.5592099 Z"></path>
                            </g>
                            <g transform="translate(81.814248, 26.962424)" fill="#FFC107" id="Path">
                                <path d="M24.2908355,48.0694143 C21.6326174,43.3990348 22.475781,29.655175 26.8975627,18.1548753 C31.3193443,6.65457549 24.1685446,1.6828222 20.5319993,0.982052174 C13.3940723,-0.390872595 8.96585423,2.10900727 4.71141802,6.13219436 C-0.411927258,12.2302939 -1.64770903,26.3230166 3.95192713,27.437795 C6.62301795,32.4564286 8.10338153,39.1012627 5.72192707,48.0694143 L24.2908355,48.0694143 Z"></path>
                            </g>
                            <g transform="translate(41.908795, 84.801827)" fill="#BBDEFB" fill-rule="nonzero" id="Shape">
                                <path d="M9.81481056,21.0072711 C4.38831257,19.5905101 1.20424359,14.2814618 2.70198536,9.148367 C4.19972712,4.01648989 9.81223602,1.00336143 15.238734,2.42073121 C20.6645884,3.83749216 23.8467264,9.14654049 22.3534901,14.2790264 C20.8531738,19.4115124 15.2413086,22.424032 9.81481056,21.0072711 Z M15.7864685,0.541863878 C9.26385785,-1.16165874 2.51533082,2.4596967 0.715079975,8.63024772 C-1.08581451,14.8007987 2.74317808,21.1832246 9.2664324,22.8867472 C15.7896867,24.5902698 22.5401447,20.9676967 24.33589,14.7983634 C26.1380718,8.62781238 22.3084356,2.24477766 15.7864685,0.541863878 Z"></path>
                            </g>
                            <g transform="translate(36.116068, 94.543200)" fill="#BBDEFB" fill-rule="nonzero" id="Path">
                                <path d="M12.868865,26.9373319 C11.6736323,27.5796537 10.1385596,27.1790397 9.46016694,26.047214 L0.958374512,11.8735161 C0.281269081,10.7422992 0.704138157,9.29083458 1.90001448,8.64851279 L16.8832249,0.60700931 C18.0797448,-0.0359213133 19.6148175,0.365301491 20.2925666,1.49651844 L28.7962899,15.6708251 C29.4721081,16.8026509 29.0473081,18.2535067 27.8565808,18.8952196 L12.868865,26.9373319 Z"></path>
                            </g>
                            <g transform="translate(56.712430, 31.224275)" fill="#FFF3E0" fill-rule="nonzero" id="Path">
                                <path d="M34.2157079,1.10625468 C31.0618898,-0.59544143 28.7512353,1.89408823 25.9449809,8.84455793 C21.7935265,19.1168358 20.9503629,25.8462981 19.4893084,27.2259201 C18.0282539,28.6055421 7.21516338,47.7528197 4.13407622,52.884088 C1.64513449,53.0399499 0.176999994,53.7614204 0.176999994,54.8469747 C0.176999994,55.9319201 0.537436345,56.4555189 0.0296072717,56.9358903 C0.628832705,57.8710622 1.83886903,58.9760992 4.62388347,58.0281418 C7.40825428,57.0801844 6.60370886,55.3176047 8.00683608,53.9872985 C9.41639967,52.6563834 23.3833083,33.3045369 25.32709,29.8877503 C27.2708718,26.4709637 34.2478897,10.6674124 34.8078533,8.56449345 C35.3613806,6.46218337 37.0798896,2.64965348 34.2157079,1.10625468 Z"></path>
                            </g>
                            <g transform="translate(89.537884, 3.826663)" fill="#FFF3E0" fill-rule="nonzero" id="Path">
                                <path d="M14.044145,23.121149 C14.6105449,24.6255823 10.2917451,26.2542181 6.93196339,26.2542181 C4.56338166,26.2542181 1.46749086,25.7963736 2.638909,25.1753611 C3.5528726,24.6895101 4.91094528,24.2578455 5.49021799,23.6599687 C6.20465433,22.9238862 5.67687253,20.0556607 5.67687253,18.8769545 C2.61316354,19.3000954 1.52541813,17.770091 1.73781812,13.6641023 C0.843163607,13.6641023 0.334690897,13.2616618 0.334690897,13.2616618 C0.334690897,12.6978798 1.48679995,11.4101921 1.48679995,10.1218955 C1.48679995,8.83420772 1.39669086,7.66646062 1.82149084,5.57328308 C2.25272719,3.48010554 4.89163619,0.101066746 10.0793451,0.521772296 C16.1552722,1.01492931 17.6163267,5.04176941 17.4296721,10.0031725 C17.2237085,15.5113101 12.1711632,18.1597459 14.044145,23.121149 Z"></path>
                            </g>
                            <g transform="translate(90.181520, 0.782484)" fill="#212121" id="Path">
                                <path d="M0.817418153,6.76599244 C-0.296072717,9.46861464 -0.836727243,14.8227168 3.81032714,16.0135997 C9.38421785,17.4419285 5.5417089,23.362248 4.56338166,25.4803878 C2.32996355,30.3328093 5.59963617,35.7337918 10.9611269,38.5466133 C15.9621813,41.1719133 26.0672718,41.1092033 31.9050534,31.646677 C25.0181446,30.6609718 20.8151993,27.8323206 19.5021811,23.6630129 C17.7965448,18.2388946 20.1779993,11.6981714 19.5601084,8.69843733 C18.5045448,3.5373361 14.6041086,0.546734564 9.69316329,0.546734564 C4.77578165,0.546734564 2.46512719,2.77872667 0.817418153,6.76599244 Z"></path>
                            </g>
                        </g>
                    </g>
                </g>
            </g>
        </g>
    </g>
</svg>