<?xml version="1.0" encoding="UTF-8"?>
<svg width="403px" height="315px" viewBox="0 0 403 315" version="1.1" xmlns="http://www.w3.org/2000/svg" xmlns:xlink="http://www.w3.org/1999/xlink">
    <!-- Generator: Sketch 64 (93537) - https://sketch.com -->
    <title>Background</title>
    <desc>Created with Sketch.</desc>
    <g id="Landing" stroke="none" stroke-width="1" fill="none" fill-rule="evenodd">
        <g transform="translate(-317.000000, -146.000000)" id="Banner">
            <g transform="translate(0.000000, 124.000000)">
                <g id="Illustration">
                    <g id="Artwork">
                        <g id="Background" transform="translate(317.000000, 22.000000)">
                            <g id="Group" transform="translate(0.000000, 102.000000)">
                                <path d="M0.484407848,200.459685 L5.88404158,205.948331 C10.3027494,210.366797 16.2972965,212.847737 22.5476716,212.847737 L352.420334,212.847737 C358.667681,212.847737 364.659201,210.366797 369.080936,205.948331 L374.569882,200.459685 L0.484407848,200.459685 Z" id="Path_7" fill="#1565C0" fill-rule="nonzero"></path>
                                <path d="M361.351603,200.459685 L355.862657,205.948331 C351.440921,210.366797 345.449402,212.847737 339.197513,212.847737 L352.420334,212.847737 C358.667681,212.847737 364.659201,210.366797 369.080936,205.948331 L374.569882,200.459685 L361.351603,200.459685 Z" id="Path_8" fill="#1565C0" fill-rule="nonzero"></path>
                                <path d="M85.1982578,0.0832530351 L289.818188,0.0832530351 C296.740679,0.0832530351 302.361324,5.70056237 302.361324,12.6287286 L302.361324,152.655793 L72.6520946,152.655793 L72.6520946,12.6287286 C72.6520946,5.70056237 78.2697118,0.0832530351 85.1982578,0.0832530351 Z" id="Path_9" fill="#1565C0" fill-rule="nonzero"></path>
                                <rect id="Rectangle" fill="#FFFFFF" x="80.0090388" y="12.6287286" width="214.995341" height="132.669918"></rect>
                                <path d="M302.361324,152.655793 L72.6520946,152.655793 L0.790190302,198.390469 C-0.375416082,199.130664 0.147140298,200.930443 1.52891227,200.930443 L373.490561,200.930443 C374.869832,200.930443 375.391862,199.130664 374.227769,198.390469 L302.361324,152.655793 Z" id="Path_10" fill="#2196F3" fill-rule="nonzero"></path>
                                <polygon id="Path_11" fill="#1565C0" fill-rule="nonzero" points="226.318374 197.600322 146.936038 197.600322 154.627526 175.041777 218.626886 175.041777"></polygon>
                                <path d="M278.838781,162.111824 L292.727663,162.111824 L294.592633,163.483228 L299.551758,167.119115 L312.664073,167.119115 L300.337407,159.061735 L275.198154,159.061735 L278.838781,162.111824 Z M167.231213,159.061735 L155.372304,159.061735 L154.333854,162.111824 L166.711988,162.111824 L167.231213,159.061735 Z M166.477353,163.483228 L153.864584,163.483228 L152.624803,167.119115 L165.856706,167.119115 L166.477353,163.483228 Z M115.090763,157.693358 L117.642987,154.697763 L106.987528,154.697763 L103.923649,157.693358 L115.090763,157.693358 Z M155.416203,154.697763 L144.374732,154.697763 L142.842792,157.693358 L154.392891,157.693358 L155.416203,154.697763 Z M128.203078,157.693358 L130.24516,154.697763 L119.439838,154.697763 L116.8861,157.693358 L128.203078,157.693358 Z M141.306311,157.693358 L142.836737,154.697763 L131.90123,154.697763 L129.859148,157.693358 L141.306311,157.693358 Z M153.928163,159.061735 L142.143428,159.061735 L140.581213,162.111824 L152.8882,162.111824 L153.928163,159.061735 Z M85.6962897,162.111824 L97.4477213,162.111824 L100.567611,159.061735 L89.3369174,159.061735 L85.6962897,162.111824 Z M152.420443,163.483228 L139.881849,163.483228 L138.02142,167.119115 L151.180662,167.119115 L152.420443,163.483228 Z M79.7229354,167.119115 L92.3266221,167.119115 L96.0489936,163.483228 L84.0614132,163.483228 L79.7229354,167.119115 Z M99.4050318,162.111824 L111.322979,162.111824 L113.922129,159.061735 L102.526435,159.061735 L99.4050318,162.111824 Z M138.345368,163.483228 L125.912737,163.483228 L123.433175,167.119115 L136.484939,167.119115 L138.345368,163.483228 Z M140.606947,159.061735 L128.925149,159.061735 L126.846736,162.111824 L139.044731,162.111824 L140.606947,159.061735 Z M110.155858,163.483228 L98.0047903,163.483228 L94.2839325,167.119115 L107.055648,167.119115 L110.155858,163.483228 Z M124.255154,163.483228 L111.954223,163.483228 L108.855526,167.119115 L121.777105,167.119115 L124.255154,163.483228 Z M241.562084,168.487493 L244.377704,172.61987 L258.234796,172.61987 L254.716784,168.487493 L241.562084,168.487493 Z M256.513635,168.487493 L260.031647,172.61987 L273.743416,172.61987 L269.519985,168.487493 L256.513635,168.487493 Z M286.445498,168.487493 L291.374348,172.61987 L304.734922,172.61987 L299.103681,168.487493 L286.445498,168.487493 Z M101.966338,157.693358 L105.031732,154.697763 L94.5443018,154.697763 L90.9702801,157.693358 L101.966338,157.693358 Z M122.499176,168.487493 L119.683555,172.61987 L242.720121,172.61987 L239.904501,168.487493 L122.499176,168.487493 Z M271.475782,168.487493 L275.700727,172.61987 L289.244467,172.61987 L284.314104,168.487493 L271.475782,168.487493 Z M314.760651,168.487493 L301.416728,168.487493 L307.04797,172.61987 L321.077632,172.61987 L314.760651,168.487493 Z M107.686892,168.487493 L104.16888,172.61987 L118.025972,172.61987 L120.843107,168.487493 L107.686892,168.487493 Z M87.2070366,159.061735 L74.9939038,159.061735 L70.8355651,162.111824 L83.5648951,162.111824 L87.2070366,159.061735 Z M92.4129072,154.697763 L80.9460652,154.697763 L76.8619015,157.693358 L88.8373718,157.693358 L92.4129072,154.697763 Z M81.9315324,163.483228 L68.9675674,163.483228 L64.0054145,167.119115 L77.5930546,167.119115 L81.9315324,163.483228 Z M92.8836911,168.487493 L88.6602602,172.61987 L102.369002,172.61987 L105.891556,168.487493 L92.8836911,168.487493 Z M62.141958,168.487493 L56.509203,172.61987 L71.0293283,172.61987 L75.9596919,168.487493 L62.141958,168.487493 Z M78.0895727,168.487493 L73.1607228,172.61987 L86.7044635,172.61987 L90.9278944,168.487493 L78.0895727,168.487493 Z M258.478514,157.693358 L255.416148,154.697763 L244.760689,154.697763 L247.312913,157.693358 L258.478514,157.693358 Z M238.970502,167.119115 L236.492453,163.483228 L224.059823,163.483228 L225.918738,167.119115 L238.970502,167.119115 Z M224.382257,167.119115 L222.520314,163.483228 L209.98172,163.483228 L211.221501,167.119115 L224.382257,167.119115 Z M253.54815,167.119115 L250.449454,163.483228 L238.148522,163.483228 L240.628085,167.119115 L253.54815,167.119115 Z M268.116716,167.119115 L264.398886,163.483228 L252.246304,163.483228 L255.348028,167.119115 L268.116716,167.119115 Z M298.246885,157.693358 L293.664689,154.697763 L282.614135,154.697763 L286.699812,157.693358 L298.246885,157.693358 Z M282.680741,167.119115 L278.342263,163.483228 L266.354683,163.483228 L270.077054,167.119115 L282.680741,167.119115 Z M297.238711,167.119115 L292.279585,163.483228 L280.472144,163.483228 L284.810622,167.119115 L297.238711,167.119115 Z M195.172463,159.061735 L195.691688,162.111824 L208.071336,162.111824 L207.031373,159.061735 L195.172463,159.061735 Z M220.260249,159.061735 L208.475514,159.061735 L209.515477,162.111824 L221.819436,162.111824 L220.260249,159.061735 Z M209.775846,167.119115 L208.536065,163.483228 L195.923296,163.483228 L196.543943,167.119115 L209.775846,167.119115 Z M276.708901,162.111824 L273.066759,159.061735 L261.834552,159.061735 L264.955955,162.111824 L276.708901,162.111824 Z M235.13157,159.061735 L237.214523,162.111824 L249.283848,162.111824 L246.681669,159.061735 L235.13157,159.061735 Z M248.478519,159.061735 L251.080698,162.111824 L262.998645,162.111824 L259.877242,159.061735 L248.478519,159.061735 Z M221.79673,159.061735 L223.358945,162.111824 L235.558454,162.111824 L233.478528,159.061735 L221.79673,159.061735 Z M194.538192,163.483228 L181.886064,163.483228 L181.886064,167.119115 L195.158839,167.119115 L194.538192,163.483228 Z M113.122857,162.111824 L125.189153,162.111824 L127.269079,159.061735 L115.722007,159.061735 L113.122857,162.111824 Z M180.517612,154.697763 L169.364121,154.697763 L168.853979,157.693358 L180.517612,157.693358 L180.517612,154.697763 Z M167.97599,154.697763 L156.860344,154.697763 L155.838546,157.693358 L167.465848,157.693358 L167.97599,154.697763 Z M193.784332,159.061735 L181.886064,159.061735 L181.886064,162.111824 L194.303557,162.111824 L193.784332,159.061735 Z M180.517612,159.061735 L168.619344,159.061735 L168.10012,162.111824 L180.517612,162.111824 L180.517612,159.061735 Z M167.244837,167.119115 L180.517612,167.119115 L180.517612,163.483228 L167.865485,163.483228 L167.244837,167.119115 Z M219.560885,157.693358 L218.030459,154.697763 L206.987474,154.697763 L208.007758,157.693358 L219.560885,157.693358 Z M245.517577,157.693358 L242.963839,154.697763 L232.158516,154.697763 L234.200598,157.693358 L245.517577,157.693358 Z M271.436424,157.693358 L267.860889,154.697763 L257.371945,154.697763 L260.437338,157.693358 L271.436424,157.693358 Z M193.039555,154.697763 L181.886064,154.697763 L181.886064,157.693358 L193.549697,157.693358 L193.039555,154.697763 Z M232.544529,157.693358 L230.502447,154.697763 L219.56694,154.697763 L221.097366,157.693358 L232.544529,157.693358 Z M206.562103,157.693358 L205.543333,154.697763 L194.427686,154.697763 L194.937828,157.693358 L206.562103,157.693358 Z M284.385251,157.693358 L280.301088,154.697763 L269.990769,154.697763 L273.566305,157.693358 L284.385251,157.693358 Z" id="Shape_12" fill="#1565C0" fill-rule="nonzero"></path>
                                <rect id="Rectangle_13" fill="#BBDEFB" x="89.5488458" y="91.3028468" width="19.4043188" height="45.3980314"></rect>
                                <rect id="Rectangle_15" fill="#00BCD4" x="118.969054" y="81.9119044" width="19.4043188" height="54.7883683"></rect>
                                <rect id="Rectangle_16" fill="#00838F" x="118.969054" y="75.4832564" width="19.4043188" height="7.55680231"></rect>
                                <rect id="Rectangle_17" fill="#FFC107" x="148.387748" y="99.5766848" width="19.4014426" height="37.1243448"></rect>
                                <rect id="Rectangle_18" fill="#FF6F00" x="148.387748" y="90.7170482" width="19.4014426" height="8.85918252"></rect>
                                <rect id="Rectangle_19" fill="#B2EBF2" x="177.806442" y="74.0528179" width="19.4014426" height="62.6479089"></rect>
                                <rect id="Rectangle_20" fill="#00838F" x="177.806442" y="56.9950279" width="19.4014426" height="17.0585469"></rect>
                                <rect id="Rectangle_21" fill="#FFECB3" x="207.223622" y="59.9194799" width="19.4014426" height="76.7820038"></rect>
                                <rect id="Rectangle_22" fill="#FFC107" x="207.223622" y="32.4944165" width="19.4014426" height="29.7617491"></rect>
                                <rect id="Rectangle_23" fill="#FFC107" x="236.64383" y="71.7550341" width="19.4014426" height="64.9469037"></rect>
                                <rect id="Rectangle_24" fill="#FF6F00" x="236.64383" y="52.3025841" width="19.4014426" height="19.4518446"></rect>
                                <rect id="Rectangle_25" fill="#2196F3" x="266.061011" y="61.6571978" width="19.4043188" height="75.0427722"></rect>
                                <rect id="Rectangle_26" fill="#1565C0" x="266.061011" y="41.9398517" width="19.4043188" height="19.7173461"></rect>
                                <path d="M128.670835,23.7876627 C118.592124,23.7876627 110.420769,31.9555423 110.420769,42.0337006 C110.420769,46.7382539 112.199454,51.022001 115.121039,54.2582735 L128.670835,42.0337006 L128.670835,23.7876627 Z" id="Path_27" fill="#FFECB3" fill-rule="nonzero"></path>
                                <path d="M128.670835,23.7876627 L128.670835,42.0337006 L146.318418,37.3821265 C144.262712,29.5593685 137.138889,23.7876627 128.670835,23.7876627 Z" id="Path_28" fill="#FFC107" fill-rule="nonzero"></path>
                                <path d="M115.121039,54.2582735 C118.460425,57.956222 123.293908,60.2842796 128.670835,60.2842796 L128.670835,42.0337006 L115.121039,54.2582735 Z" id="Path_29" fill="#00BCD4" fill-rule="nonzero"></path>
                                <path d="M128.670835,42.0337006 L128.670835,60.2842796 C138.751059,60.2842796 146.919387,52.1133726 146.919387,42.0337006 C146.919387,40.4261602 146.707458,38.8700853 146.318418,37.3821265 L128.670835,42.0337006 Z" id="Path_30" fill="#BBDEFB" fill-rule="nonzero"></path>
                                <polygon id="Path_31" fill="#FFC107" fill-rule="nonzero" points="145.90213 29.4231363 152.742877 25.8235778 152.191863 24.7791306"></polygon>
                                <polygon id="Path_32" fill="#FFC107" fill-rule="nonzero" points="145.354144 55.6917394 152.191863 59.2897842 152.742877 58.2438234"></polygon>
                                <polygon id="Path_33" fill="#FFC107" fill-rule="nonzero" points="111.989039 28.3802028 105.148292 24.7791306 104.600306 25.8235778"></polygon>
                                <polygon id="Path_34" fill="#FFC107" fill-rule="nonzero" points="111.438025 54.6457786 104.600306 58.2438234 105.148292 59.2897842"></polygon>
                                <path d="M157.891224,63.51147 L167.311443,63.51147 C167.801906,63.51147 168.200029,63.1133691 168.200029,62.6259604 C168.200029,62.137038 167.801906,61.7404509 167.311443,61.7404509 L157.891224,61.7404509 C157.400761,61.7404509 157.00718,62.137038 157.00718,62.6259604 C157.00718,63.1133691 157.400761,63.51147 157.891224,63.51147 Z M157.891224,59.9467264 L163.033516,59.9467264 C163.520952,59.9467264 163.919074,59.5501392 163.919074,59.0581894 C163.919074,58.5707808 163.520952,58.1726799 163.033516,58.1726799 L157.891224,58.1726799 C157.400761,58.1726799 157.00718,58.5707808 157.00718,59.0581894 C157.00718,59.5501392 157.400761,59.9467264 157.891224,59.9467264 Z M157.891224,27.4780427 L167.311443,27.4780427 C167.801906,27.4780427 168.200029,27.0799418 168.200029,26.5925331 C168.200029,26.1036107 167.801906,25.7070236 167.311443,25.7070236 L157.891224,25.7070236 C157.400761,25.7070236 157.00718,26.1036107 157.00718,26.5925331 C157.00718,27.0799418 157.400761,27.4780427 157.891224,27.4780427 Z M157.891224,23.9102717 L163.033516,23.9102717 C163.520952,23.9102717 163.919074,23.5136845 163.919074,23.0247621 C163.919074,22.5373535 163.520952,22.1392526 163.033516,22.1392526 L157.891224,22.1392526 C157.400761,22.1392526 157.00718,22.5373535 157.00718,23.0247621 C157.00718,23.5136845 157.400761,23.9102717 157.891224,23.9102717 Z M93.6890192,23.9102717 L98.8313112,23.9102717 C99.3187466,23.9102717 99.7168693,23.5136845 99.7168693,23.0247621 C99.7168693,22.5373535 99.3187466,22.1392526 98.8313112,22.1392526 L93.6890192,22.1392526 C93.1985562,22.1392526 92.8049748,22.5373535 92.8049748,23.0247621 C92.8049748,23.5136845 93.1985562,23.9102717 93.6890192,23.9102717 Z M89.4080648,27.4780427 L98.8313112,27.4780427 C99.3187466,27.4780427 99.7168693,27.0799418 99.7168693,26.5925331 C99.7168693,26.1036107 99.3187466,25.7070236 98.8313112,25.7070236 L89.4080648,25.7070236 C88.9206294,25.7070236 88.5225067,26.1036107 88.5225067,26.5925331 C88.5225067,27.0799418 88.9206294,27.4780427 89.4080648,27.4780427 Z M89.4080648,63.51147 L98.8313112,63.51147 C99.3187466,63.51147 99.7168693,63.1133691 99.7168693,62.6259604 C99.7168693,62.137038 99.3187466,61.7404509 98.8313112,61.7404509 L89.4080648,61.7404509 C88.9206294,61.7404509 88.5225067,62.137038 88.5225067,62.6259604 C88.5225067,63.1133691 88.9206294,63.51147 89.4080648,63.51147 Z M93.6890192,59.9467264 L98.8313112,59.9467264 C99.3187466,59.9467264 99.7168693,59.5501392 99.7168693,59.0581894 C99.7168693,58.5707808 99.3187466,58.1726799 98.8313112,58.1726799 L93.6890192,58.1726799 C93.1985562,58.1726799 92.8049748,58.5707808 92.8049748,59.0581894 C92.8049748,59.5501392 93.1985562,59.9467264 93.6890192,59.9467264 Z" id="Path_35" fill="#FF6F00" fill-rule="nonzero"></path>
                                <path d="M99.4413624,114.560717 L128.631477,104.630901 L157.832187,118.67039 C158.054712,118.776348 158.318109,118.735479 158.49522,118.564432 L187.632352,90.791219 C187.870015,90.565679 187.877584,90.1917972 187.652032,89.9541476 C187.426479,89.7195254 187.052577,89.7089296 186.817942,89.9344696 L157.977509,117.427649 L128.925149,103.462331 C128.785882,103.394215 128.628449,103.385133 128.480099,103.433571 L99.061405,113.440586 C98.7541087,113.546544 98.5875935,113.884097 98.6935577,114.19289 C98.7964944,114.50017 99.1340661,114.666676 99.4413624,114.560717 Z" id="Path_36" fill="#FFC107" fill-rule="nonzero"></path>
                                <path d="M125.678102,103.993637 C125.678102,102.340686 127.017793,101.004096 128.670835,101.004096 C130.322363,101.004096 131.662053,102.340686 131.662053,103.993637 C131.662053,105.648102 130.322363,106.984691 128.670835,106.984691 C127.017793,106.984691 125.678102,105.648102 125.678102,103.993637 Z" id="Path_38" fill="#FF6F00" fill-rule="nonzero"></path>
                                <path d="M155.095283,118.139084 C155.095283,116.486133 156.438001,115.146516 158.089529,115.146516 C159.739543,115.146516 161.079233,116.486133 161.079233,118.139084 C161.079233,119.790522 159.739543,121.130139 158.089529,121.130139 C156.438001,121.130139 155.095283,119.790522 155.095283,118.139084 Z" id="Path_39" fill="#FF6F00" fill-rule="nonzero"></path>
                                <path d="M184.233929,90.3628443 C184.233929,88.7083795 185.573619,87.3687625 187.223633,87.3687625 C188.878189,87.3687625 190.216366,88.7083795 190.216366,90.3628443 C190.216366,92.0157955 188.878189,93.3523851 187.223633,93.3523851 C185.573619,93.3523851 184.233929,92.0157955 184.233929,90.3628443 Z" id="Path_40" fill="#FF6F00" fill-rule="nonzero"></path>
                                <path d="M197.20849,130.490807 L191.602983,130.490807 C191.394082,130.490807 191.191236,130.477184 190.988391,130.454479 C188.540617,130.148713 186.636289,128.049223 186.636289,125.521358 L186.636289,93.2948649 C186.823997,93.3327072 187.023815,93.3523851 187.223633,93.3523851 C188.878189,93.3523851 190.216366,92.0157955 190.216366,90.3628443 C190.216366,88.7083795 188.878189,87.3687625 187.223633,87.3687625 C187.023815,87.3687625 186.823997,87.3929815 186.636289,87.4293101 L186.636289,74.0528179 L197.20849,74.0528179 L197.20849,118.889875 C196.56665,119.684563 195.915727,120.470169 195.252693,121.246693 C195.072554,121.183118 194.881819,121.146789 194.678973,121.146789 C193.75557,121.146789 193.010793,121.894553 193.010793,122.817905 C193.010793,123.739743 193.75557,124.484479 194.678973,124.484479 C195.600862,124.484479 196.348666,123.739743 196.348666,122.817905 C196.348666,122.52879 196.274491,122.257839 196.14582,122.020189 C196.503071,121.600897 196.857294,121.178577 197.20849,120.75323 L197.20849,130.490807 Z" id="Path_41" fill="#FFFFFF" fill-rule="nonzero"></path>
                                <path d="M197.20849,74.0528179 L186.636289,74.0528179 L186.636289,66.2330874 C186.636289,63.5023878 188.869106,61.2666654 191.602983,61.2666654 L197.20849,61.2666654 L197.20849,67.3229453 L194.678973,67.3229453 L194.678973,70.671231 L197.20849,70.671231 L197.20849,74.0528179 Z" id="Path_42" fill="#FFFFFF" fill-rule="nonzero"></path>
                                <path d="M226.627184,130.490807 L207.225136,130.490807 L207.225136,107.78392 C208.870609,105.639019 210.494889,103.583426 212.129766,101.697367 C214.831853,98.5821894 217.555133,95.9286882 220.426764,94.0698749 C222.411322,92.7847508 224.459459,91.8735085 226.627184,91.4330243 L226.627184,130.490807 Z M207.225136,105.849423 L207.225136,61.2666654 L207.225136,62.2566197 L226.627184,62.2566197 L226.627184,67.3229453 L223.310504,67.3229453 L223.310504,70.671231 L226.627184,70.671231 L226.627184,90.2311532 C224.202117,90.6852606 221.931456,91.6812697 219.78341,93.078407 C215.296582,95.9922632 211.289621,100.627187 207.225136,105.849423 Z M208.996252,67.3229453 L208.996252,70.671231 L218.147019,70.671231 L218.147019,67.3229453 L208.996252,67.3229453 Z" id="Shape_43" fill="#FFFFFF" fill-rule="nonzero"></path>
                                <rect id="Rectangle_44" fill="#FFFFFF" x="207.223622" y="61.263638" width="19.4014426" height="7.55680231"></rect>
                                <path d="M256.044365,130.490807 L236.64383,130.490807 L236.64383,93.0042361 C239.233898,94.3801817 241.562084,96.3207343 244.056784,97.9963908 C246.758872,99.8097933 249.698622,101.320457 253.386177,101.31743 C254.271735,101.31743 255.158806,101.181198 256.044365,100.932952 L256.044365,110.419257 L248.844853,110.419257 L248.844853,119.324305 L256.044365,119.324305 L256.044365,121.340542 L251.180607,121.340542 C250.855146,121.340542 250.591749,121.606952 250.591749,121.932395 C250.591749,122.257839 250.855146,122.519708 251.180607,122.519708 L256.044365,122.519708 L256.044365,123.800291 L248.844853,123.800291 C248.519391,123.800291 248.255995,124.065187 248.255995,124.39063 C248.255995,124.716074 248.519391,124.982484 248.844853,124.982484 L256.044365,124.982484 L256.044365,126.261553 L248.844853,126.261553 C248.519391,126.261553 248.255995,126.524935 248.255995,126.850379 C248.255995,127.175823 248.519391,127.440719 248.844853,127.440719 L256.044365,127.440719 L256.044365,130.490807 Z M253.390718,100.138264 L253.386177,100.138264 C251.148818,100.135237 249.218755,99.5358151 247.390116,98.6109496 C244.651697,97.2259218 242.164566,95.0946441 239.392845,93.2721595 C238.513342,92.695443 237.603563,92.1535414 236.64383,91.6767286 L236.64383,71.7565478 L256.044365,71.7565478 L256.044365,99.6977801 C255.139127,99.9838678 254.247514,100.138264 253.390718,100.138264 Z" id="Shape_45" fill="#FFFFFF" fill-rule="nonzero"></path>
                                <rect id="Rectangle_46" fill="#FFFFFF" x="236.64383" y="61.2651517" width="19.4014426" height="10.4898824"></rect>
                                <path d="M277.459733,130.490807 L266.061011,130.490807 L266.061011,124.982484 L268.031945,124.982484 C268.357407,124.982484 268.622317,124.716074 268.622317,124.39063 C268.622317,124.065187 268.357407,123.800291 268.031945,123.800291 L266.061011,123.800291 L266.061011,122.519708 L268.031945,122.519708 C268.357407,122.519708 268.622317,122.257839 268.622317,121.932395 C268.622317,121.606952 268.357407,121.340542 268.031945,121.340542 L266.061011,121.340542 L266.061011,119.324305 L277.453678,119.324305 L277.453678,110.419257 L266.061011,110.419257 L266.061011,94.2091346 C267.826072,92.4441702 269.46549,90.5308641 270.908117,88.6826467 C272.290193,86.9070865 273.486075,85.1935877 274.423101,83.734389 C274.909023,82.9805707 275.323797,82.2978958 275.656827,81.703015 C275.723433,81.7120971 275.788526,81.7151245 275.855132,81.7151245 C276.77702,81.7151245 277.524825,80.9688746 277.524825,80.0470364 C277.524825,79.1236846 276.77702,78.375921 275.855132,78.375921 C274.931729,78.375921 274.186952,79.1236846 274.186952,80.0470364 C274.186952,80.4754111 274.345899,80.8644299 274.609295,81.158086 C274.080988,82.0920337 273.334697,83.283309 272.42946,84.6047617 C270.764308,87.0296955 268.545115,89.9057095 266.061011,92.5183411 L266.061011,61.6571978 L279.389795,61.6571978 C281.174535,62.4140436 282.432482,64.1850627 282.432482,66.2330874 L282.432482,125.521358 C282.432482,125.695432 282.420372,125.867993 282.400693,126.03904 C282.143351,128.53209 280.014984,130.490807 277.459733,130.490807 Z" id="Path_47" fill="#FFFFFF" fill-rule="nonzero"></path>
                                <path d="M194.678973,124.484479 C193.75557,124.484479 193.010793,123.739743 193.010793,122.817905 C193.010793,121.894553 193.75557,121.146789 194.678973,121.146789 C194.881819,121.146789 195.072554,121.183118 195.252693,121.246693 C194.915122,121.64328 194.576036,122.038354 194.235437,122.425859 C194.018967,122.671077 194.044701,123.046472 194.289933,123.259903 C194.401952,123.356779 194.541219,123.405217 194.678973,123.405217 C194.843974,123.405217 195.007462,123.340128 195.124023,123.20541 C195.466136,122.81185 195.809762,122.41829 196.14582,122.020189 C196.274491,122.257839 196.348666,122.52879 196.348666,122.817905 C196.348666,123.739743 195.600862,124.484479 194.678973,124.484479 Z" id="Path_48" fill="#F27B6A" fill-rule="nonzero"></path>
                                <path d="M275.855132,81.7151245 C275.788526,81.7151245 275.723433,81.7120971 275.656827,81.703015 C275.97472,81.1459765 276.222979,80.6691637 276.394036,80.2892271 C276.528761,79.9895162 276.394036,79.6413671 276.097336,79.5066486 C276.020133,79.4733473 275.936876,79.455183 275.856646,79.455183 C275.631093,79.455183 275.414623,79.5838468 275.317742,79.8048458 C275.163337,80.1469401 274.92416,80.6071023 274.609295,81.158086 C274.345899,80.8644299 274.186952,80.4754111 274.186952,80.0470364 C274.186952,79.1236846 274.931729,78.375921 275.855132,78.375921 C276.77702,78.375921 277.524825,79.1236846 277.524825,80.0470364 C277.524825,80.9688746 276.77702,81.7151245 275.855132,81.7151245 Z" id="Path_49" fill="#F27B6A" fill-rule="nonzero"></path>
                                <path d="M197.20849,120.75323 L197.20849,118.889875 C200.708337,114.572827 203.943273,110.077163 207.144906,105.953867 C207.17064,105.919052 207.196374,105.884237 207.225136,105.849423 L207.225136,107.78392 C204.038641,111.939004 200.776457,116.445263 197.20849,120.75323 Z M256.044365,100.932952 L256.044365,99.6977801 C256.855748,99.4449936 257.680755,99.084735 258.50879,98.6366823 C260.272337,97.6845704 262.051022,96.3373849 263.752504,94.785851 C264.541181,94.0668476 265.313206,93.303947 266.061011,92.5183411 L266.061011,94.2091346 C264.435217,95.8378667 262.708,97.3364213 260.933856,98.5398061 C259.33531,99.6220955 257.692865,100.469763 256.044365,100.932952 Z M236.64383,93.0042361 C236.422819,92.8876818 236.203322,92.7756687 235.980797,92.6666829 C234.071927,91.7418173 232.016222,91.1363407 229.607806,91.1363407 C228.586008,91.1363407 227.594486,91.2392717 226.627184,91.4330243 L226.627184,90.2311532 C227.594486,90.0510239 228.586008,89.9541476 229.603265,89.9541476 L229.616889,89.9541476 C232.287187,89.9541476 234.577528,90.6534731 236.64383,91.6767286 L236.64383,93.0042361 Z" id="Shape_50" fill="#FF826A" fill-rule="nonzero"></path>
                                <path d="M194.678973,123.405217 C194.541219,123.405217 194.401952,123.356779 194.289933,123.259903 C194.044701,123.046472 194.018967,122.671077 194.235437,122.425859 C194.576036,122.038354 194.915122,121.64328 195.252693,121.246693 C195.915727,120.470169 196.56665,119.684563 197.20849,118.889875 L197.20849,120.75323 C196.857294,121.178577 196.503071,121.600897 196.14582,122.020189 C195.809762,122.41829 195.466136,122.81185 195.124023,123.20541 C195.007462,123.340128 194.843974,123.405217 194.678973,123.405217 Z" id="Path_51" fill="#F27B6A" fill-rule="nonzero"></path>
                                <path d="M207.225136,107.78392 L207.225136,105.849423 C211.289621,100.627187 215.296582,95.9922632 219.78341,93.078407 C221.931456,91.6812697 224.202117,90.6852606 226.627184,90.2311532 L226.627184,91.4330243 C224.459459,91.8735085 222.411322,92.7847508 220.426764,94.0698749 C217.555133,95.9286882 214.831853,98.5821894 212.129766,101.697367 C210.494889,103.583426 208.870609,105.639019 207.225136,107.78392 Z" id="Path_52" fill="#F27B6A" fill-rule="nonzero"></path>
                                <path d="M253.386177,101.317435 C249.698622,101.320457 246.758872,99.8097933 244.056784,97.9963908 C241.562084,96.3207343 239.233898,94.3801817 236.64383,93.0042361 L236.64383,91.6767286 C237.603563,92.1535414 238.513342,92.695443 239.392845,93.2721595 C242.164566,95.0946441 244.651697,97.2259218 247.390116,98.6109496 C249.218755,99.5358151 251.148818,100.135237 253.386177,100.138264 L253.390718,100.138264 C254.247514,100.138264 255.139127,99.9838678 256.044365,99.6977801 L256.044365,100.932952 C255.158806,101.181198 254.271735,101.317435 253.386177,101.317435 Z" id="Path_53" fill="#F27B6A" fill-rule="nonzero"></path>
                                <path d="M266.061011,94.2091346 L266.061011,92.5183411 C268.545115,89.9057095 270.764308,87.0296955 272.42946,84.6047617 C273.334697,83.283309 274.080988,82.0920337 274.609295,81.158086 C274.92416,80.6071023 275.163337,80.1469401 275.317742,79.8048458 C275.414623,79.5838468 275.631093,79.455183 275.856646,79.455183 C275.936876,79.455183 276.020133,79.4733473 276.097336,79.5066486 C276.394036,79.6413671 276.528761,79.9895162 276.394036,80.2892271 C276.222979,80.6691637 275.97472,81.1459765 275.656827,81.703015 C275.323797,82.2978958 274.909023,82.9805707 274.423101,83.734389 C273.486075,85.1935877 272.290193,86.9070865 270.908117,88.6826467 C269.46549,90.5308641 267.826072,92.4441702 266.061011,94.2091346 Z" id="Path_54" fill="#F27B6A" fill-rule="nonzero"></path>
                                <rect id="Rectangle_55" fill="#00BCD4" x="197.20849" y="67.3229453" width="7.55721656" height="7.55680231"></rect>
                                <rect id="Rectangle_56" fill="#00BCD4" x="194.678973" y="67.3229453" width="7.55721656" height="7.55680231"></rect>
                                <rect id="Rectangle_57" fill="#FF6F00" x="208.996252" y="67.3229453" width="9.15091838" height="7.55680231"></rect>
                                <rect id="Rectangle_58" fill="#00838F" x="226.627184" y="67.3229453" width="7.55721656" height="7.55680231"></rect>
                                <rect id="Rectangle_59" fill="#00838F" x="223.310504" y="67.3229453" width="7.55721656" height="7.55680231"></rect>
                                <polygon id="Rectangle_60" fill="#7977FB" fill-rule="nonzero" points="248.844853 119.324305 277.456705 119.324305 277.456705 110.419257 248.844853 110.419257"></polygon>
                            </g>
                            <g id="Group" transform="translate(357.000000, 180.000000)" fill="#00BCD4" fill-rule="nonzero">
                                <path d="M2.20546773,35.700453 L3.17402727,35.9702986 C3.74854551,33.9531652 5.60896191,32.6412084 7.61977575,32.635245 C8.04239257,32.6412084 8.46651337,32.6933885 8.89965801,32.8141482 C10.9300235,33.3881293 12.2595369,35.232323 12.2595369,37.2300753 C12.2595369,37.6460252 12.2008819,38.0694294 12.07906,38.4898519 C11.5045418,40.5069854 9.64412536,41.8249055 7.6287996,41.8249055 C7.2106947,41.8249055 6.78657391,41.766762 6.35342926,41.6460024 C4.31855183,41.0720213 2.99355034,39.233791 2.99355034,37.2345478 C2.99355034,36.8200888 3.05220534,36.3951937 3.17402727,35.9747712 L2.20546773,35.700453 L1.2414201,35.4246439 C1.06094317,36.0284422 0.978224574,36.636713 0.978224574,37.2345478 C0.978224574,40.1074349 2.88225623,42.7373118 5.80899051,43.5677208 C6.41208427,43.736188 7.02570584,43.8181853 7.6287996,43.8181853 C10.5314703,43.8181853 13.1844812,41.9307566 14.022195,39.0355066 C14.1921441,38.4361809 14.2748627,37.829401 14.2748627,37.2300753 C14.2748627,34.3586791 12.370831,31.7228387 9.45462458,30.8983932 C8.84100301,30.7239626 8.22286951,30.6419653 7.61977575,30.6419653 C4.73214481,30.6419653 2.07462195,32.5293939 1.2414201,35.4246439 L2.20546773,35.700453 Z" id="Path_117"></path>
                                <path d="M11.0232699,25.3479217 C16.5097687,26.8969252 20.087724,31.8540344 20.087724,37.2345478 C20.087724,38.3601471 19.9283027,39.4991641 19.6064521,40.638181 C19.4560547,41.1689272 19.7568496,41.7190545 20.3027923,41.8681405 C20.8336953,42.0172265 21.3886619,41.713091 21.5390593,41.1838358 C21.9240768,39.8703882 22.1045537,38.5435229 22.1045537,37.2345478 C22.1045537,30.9803905 17.9460643,25.2316346 11.5782365,23.4276941 C11.0413176,23.2771173 10.492367,23.5857253 10.3404655,24.1119988 C10.1855562,24.642745 10.492367,25.1988357 11.0232699,25.3479217 Z" id="Path_118"></path>
                                <path d="M13.1544017,17.8772226 C22.0940259,20.4012485 27.912903,28.4757458 27.912903,37.2449839 C27.912903,39.074269 27.6587313,40.9318805 27.1233164,42.7805468 C26.972919,43.3112929 27.2842417,43.8614202 27.8196566,44.0164696 C28.3550715,44.1655556 28.916054,43.8569476 29.0664514,43.3306741 C29.6499935,41.298632 29.9237264,39.2576448 29.9237264,37.2449839 C29.9327407,27.6021019 23.5212976,18.735958 13.7108723,15.9614676 C13.1754574,15.8064182 12.6144749,16.1150262 12.4640775,16.6457723 C12.31368,17.1765185 12.6250027,17.7266458 13.1544017,17.8772226 Z" id="Path_119"></path>
                                <path d="M15.2870375,10.4109962 C27.6692592,13.9100444 35.74109,25.0974572 35.74109,37.253929 C35.74109,39.7883909 35.3861521,42.3660877 34.6552205,44.9288759 C34.5048231,45.459622 34.8161458,46.0097493 35.3470487,46.1588353 C35.8824636,46.3138848 36.4329183,46.0052768 36.5938436,45.4730398 C37.3819262,42.7328392 37.7519039,39.9717667 37.7519039,37.253929 C37.7519039,24.2238133 29.1100667,12.2447539 15.8329802,8.48927773 C15.3020773,8.34019173 14.7471107,8.64879974 14.5967132,9.17507329 C14.4448118,9.70581942 14.7471107,10.2604193 15.2870375,10.4109962 Z" id="Path_120"></path>
                                <path d="M17.4151614,2.93880624 C33.2444925,7.41287686 43.570781,21.7191687 43.570781,37.264365 C43.570781,40.5025128 43.1180847,43.7988041 42.1826126,47.0712416 C42.0322152,47.6019877 42.334514,48.1565876 42.8744409,48.3071645 C43.4098558,48.4562505 43.9648224,48.152115 44.1152198,47.6213689 C45.1093469,44.1655556 45.5815949,40.6858886 45.5815949,37.264365 C45.5815949,20.8455247 34.6853,5.74758633 17.965616,1.02305124 C17.434713,0.869492673 16.8797465,1.17810068 16.7188212,1.70884681 C16.5684237,2.23959294 16.8797465,2.78972025 17.4151614,2.93880624 Z" id="Path_121"></path>
                            </g>
                            <g id="Group" transform="translate(264.000000, 0.000000)" fill-rule="nonzero">
                                <polygon id="Path_147" fill="#FF6F00" points="57.3920683 89.3314939 110.810201 41.7791339 109.600677 40.423118"></polygon>
                                <polygon id="Path_148" fill="#FF6F00" points="57.5896339 88.217785 18.3841627 17.0833915 16.7915724 17.9562985"></polygon>
                                <path d="M32.9753665,94.3010436 C29.847495,81.1758337 37.9763414,68.0069785 51.133309,64.8855835 C64.2797197,61.7702086 77.4849477,69.8822235 80.6037703,83.0059283 C83.7316418,96.1311382 75.6027955,109.304509 62.4458278,112.421388 C49.297909,115.542783 36.0972055,107.426253 32.9753665,94.3010436 Z" id="Path_149" fill="#FFC107"></path>
                                <path d="M59.7884944,87.5013993 C61.082474,86.1273233 61.6812035,84.1602726 61.2106655,82.1947269 C60.4716794,79.082362 57.3438079,77.1634716 54.2249853,77.9009275 C51.1152114,78.6383834 49.1878152,81.7597784 49.9268012,84.8721433 C50.3973392,86.8346789 51.8195103,88.3261459 53.5915687,88.967281 C50.3536033,91.346705 48.7444236,96.0393325 49.8875897,100.850856 L68.446696,96.4517058 C67.3020218,91.6416874 63.7443319,88.1681196 59.7884944,87.5013993 Z" id="Path_150" fill="#FFECB3"></path>
                                <path d="M94.3323211,33.8070852 C98.3620571,25.0644703 108.742549,21.2312047 117.509336,25.2616269 C126.276123,29.286029 130.11131,39.6465318 126.074033,48.3951667 C122.035248,57.1422967 111.663806,60.9710472 102.897018,56.940625 C94.1347554,52.9162229 90.2950443,42.5602351 94.3323211,33.8070852 Z" id="Path_151" fill="#1565C0"></path>
                                <path d="M112.398267,41.7701038 C113.726934,41.5684322 114.936458,40.7256255 115.533679,39.413255 C116.488329,37.3408534 115.58194,34.8876838 113.506746,33.9350112 C111.42552,32.9778235 108.971785,33.8868508 108.017136,35.9592524 C107.404833,37.2716229 107.554138,38.7329895 108.262962,39.8737887 C105.399014,39.786498 102.42648,41.7174284 100.943984,44.923104 L113.316721,50.6075344 C114.790169,47.3973438 114.32868,43.8861507 112.398267,41.7701038 Z" id="Path_152" fill="#FFFFFF"></path>
                                <path d="M0.648497946,21.8016042 C-1.72228989,12.4660146 3.93924799,2.97992381 13.2942079,0.614044907 C22.6506759,-1.74882398 32.1564493,3.90099117 34.5272372,13.2380858 C36.8935006,22.5706654 31.2334709,32.0567562 21.8815272,34.4226351 C12.5250592,36.788514 3.01928579,31.1386988 0.648497946,21.8016042 Z" id="Path_153" fill="#00BCD4"></path>
                                <path d="M19.7173538,16.6619882 C20.6222347,15.6747003 21.0279229,14.261494 20.6765275,12.8603278 C20.1124851,10.6479601 17.86084,9.3100044 15.6438819,9.87137389 C13.4269238,10.4327434 12.0846838,12.6812313 12.6487262,14.893599 C13.004646,16.2887452 14.0331939,17.3377386 15.3045515,17.7772021 C13.0227436,19.5109759 11.9218053,22.8776878 12.7935072,26.2970752 L25.9896863,22.9604635 C25.1225088,19.5365611 22.5496309,17.1014517 19.7173538,16.6619882 Z" id="Path_154" fill="#FFFFFF"></path>
                            </g>
                        </g>
                    </g>
                </g>
            </g>
        </g>
    </g>
</svg>