<?xml version="1.0" encoding="UTF-8"?>
<svg width="317px" height="342px" viewBox="0 0 317 342" version="1.1" xmlns="http://www.w3.org/2000/svg" xmlns:xlink="http://www.w3.org/1999/xlink">
    <!-- Generator: Sketch 64 (93537) - https://sketch.com -->
    <title>Banner1-Foreground</title>
    <desc>Created with Sketch.</desc>
    <g id="Landing" stroke="none" stroke-width="1" fill="none" fill-rule="evenodd">
        <g transform="translate(0.000000, -124.000000)" id="Banner">
            <g transform="translate(0.000000, 124.000000)">
                <g id="Illustration">
                    <g id="Artwork">
                        <g id="Banner1-Foreground">
                            <g id="Group" transform="translate(0.000000, 248.000000)" fill-rule="nonzero">
                                <g transform="translate(0.000000, 11.029774)">
                                    <path d="M143.551471,38.5165739 C144.536223,41.9947299 145.029356,45.1419928 145.029356,47.9568514 C145.023305,53.121203 143.397178,57.1523586 140.032986,60.2845121 C136.670306,63.4121329 131.490903,65.6331969 124.370735,66.9174856 C120.389371,67.6351763 117.165858,67.872392 114.440015,67.872392 C111.730812,67.872392 109.507177,67.6381982 107.493805,67.4009825 C105.481946,67.1637668 103.678836,66.9205074 101.82732,66.9205074 C98.9018037,66.9174856 95.8855271,67.5505644 91.9162644,69.717235 L92.5198223,70.8217233 C96.3620202,68.7366428 99.0848376,68.1836432 101.82732,68.1775995 C103.566898,68.1775995 105.321602,68.4117933 107.347076,68.649009 C109.369524,68.8892465 111.658203,69.129484 114.440015,69.129484 C117.243004,69.129484 120.545177,68.8862246 124.593099,68.1564465 C131.853945,66.8449611 137.264788,64.5710146 140.892186,61.2061781 C144.524122,57.8428526 146.296978,53.3825935 146.290943,47.9568514 C146.290943,44.9954327 145.769054,41.7393831 144.764637,38.1766152 L143.551471,38.5165739 Z" id="Path_87" fill="#FFC107"></path>
                                    <path d="M40.2871087,68.9693257 C42.795126,69.2851096 45.8900618,69.8109125 49.0757581,69.8109125 C51.6836121,69.8109125 54.3686126,69.4588663 56.8448638,68.3211376 C59.3211149,67.181898 61.5765153,65.2433775 63.2797889,62.173172 C65.9602513,57.3563339 68.3790208,51.6057423 71.5359763,46.5879507 C73.1136977,44.0767886 74.8684022,41.7514706 76.9180786,39.8129501 C78.9722931,37.8759405 81.3108907,36.3227066 84.0745504,35.3436253 C86.2528043,34.5670084 88.8939371,34.1318612 91.6273433,34.1318612 C95.8008173,34.1288393 100.172452,35.1547594 103.444371,37.4377714 C105.084112,38.578522 106.451571,40.0290128 107.413633,41.8345716 C108.380234,43.6386195 108.942949,45.8052901 108.942949,48.4010642 C108.942949,50.6191064 108.529989,53.1483997 107.590617,56.0176517 C106.655783,58.8717945 105.183949,60.9931373 103.377813,62.7246607 C100.671635,65.3204348 97.1894541,67.0187178 93.7042479,68.7895253 C90.2281177,70.5633546 86.7489621,72.4127304 84.1350574,75.4224987 L85.0895562,76.2474654 C86.6945058,74.3935568 88.6988019,72.9793283 90.8906699,71.7192144 C94.1746902,69.8260218 97.8671331,68.2984737 101.145103,66.0985627 C104.423072,63.9046954 107.292619,60.9961592 108.788656,56.410493 C109.759794,53.4369869 110.201496,50.774732 110.201496,48.4010642 C110.201496,45.6224678 109.591887,43.2367127 108.525451,41.2407769 C106.926552,38.2461178 104.318698,36.147439 101.317548,34.8072459 C98.3148853,33.4685638 94.9083382,32.8762801 91.6273433,32.8762801 C88.7608216,32.8762801 85.9911113,33.3265366 83.6540263,34.156036 C80.7027948,35.2031091 78.2068789,36.8651297 76.0528278,38.9003496 C72.8202385,41.9554458 70.350038,45.8506179 68.1838855,49.8651534 C66.017733,53.8781778 64.1541158,58.0166094 62.1800732,61.5642681 C60.5857123,64.4199218 58.5662894,66.1378468 56.3184524,67.1758543 C54.0691027,68.2138617 51.5746994,68.5538205 49.0757581,68.5538205 C46.0262027,68.5538205 42.9932866,68.0431269 40.4459397,67.7212992 L40.2871087,68.9693257 Z" id="Path_88" fill="#FFC107"></path>
                                    <path d="M134.720467,21.6742607 L139.548929,36.7064823 C140.191817,38.7084618 142.336792,39.8099282 144.338063,39.1677839 C146.342359,38.5271504 147.442074,36.3846547 146.799187,34.3841861 L141.970724,19.3489426 L134.720467,21.6742607 Z" id="Path_89" fill="#FF6F00"></path>
                                    <path d="M139.710786,20.074188 L144.164105,33.9429952 C144.755561,35.7878381 144.12175,37.6432576 142.745214,38.0859595 C141.364141,38.5271504 139.768267,37.3879108 139.173786,35.5445788 L139.548929,36.7064823 C140.191817,38.7084618 142.336792,39.8099282 144.338063,39.1677839 C146.342359,38.5271504 147.442074,36.3846547 146.799187,34.3841861 L141.970724,19.3489426 L139.710786,20.074188 Z" id="Path_90" fill="#FFC107"></path>
                                    <path d="M123.974414,16.1699503 C121.888433,9.6790041 125.4644,2.72873578 131.962858,0.64667714 C138.461315,-1.43689243 145.419626,2.13494112 147.50712,8.62890921 C149.590075,15.1168336 146.014108,22.0671019 139.51565,24.1506715 C133.017193,26.2327301 126.058882,22.6593857 123.974414,16.1699503 Z" id="Path_91" fill="#FFC107"></path>
                                    <path d="M134.375576,12.8338215 C134.135061,12.0828904 134.549534,11.2790767 135.301334,11.0358174 C136.054647,10.7955798 136.862416,11.2095741 137.102932,11.9605052 C137.343447,12.7129473 136.928974,13.5182719 136.175661,13.7600204 C135.423861,14.0002579 134.619117,13.5862636 134.375576,12.8338215 Z" id="Path_92" fill="#F5F5F5"></path>
                                    <path d="M137.087805,7.56974876 C136.847289,6.8188176 137.26025,6.0119821 138.013563,5.77174456 C138.765363,5.53150703 139.570107,5.94550127 139.813648,6.69643244 C140.054163,7.44887453 139.63969,8.25117724 138.88789,8.49443663 C138.13609,8.7361851 137.328321,8.32219085 137.087805,7.56974876 Z" id="Path_93" fill="#F5F5F5"></path>
                                    <path d="M131.832767,9.25292244 C131.587714,8.50048034 130.784483,8.08799703 130.03117,8.33125642 C129.276344,8.57149395 128.861871,9.37379667 129.105412,10.1292606 C129.345928,10.8801918 130.153697,11.294186 130.905497,11.0509266 C131.65881,10.8106891 132.073283,10.0038536 131.832767,9.25292244 Z" id="Path_94" fill="#F5F5F5"></path>
                                    <path d="M139.648766,15.5429153 C139.889282,16.2938464 140.697051,16.7078407 141.450364,16.4676031 C142.202164,16.2273656 142.616637,15.4205301 142.376121,14.6695989 C142.132581,13.9171569 141.327837,13.5031626 140.576037,13.7449111 C139.819698,13.9851486 139.405225,14.7904732 139.648766,15.5429153 Z" id="Path_95" fill="#F5F5F5"></path>
                                    <path d="M134.390703,17.2291108 C134.634244,17.980042 134.216745,18.7838556 133.464945,19.027115 C132.713145,19.2673525 131.908401,18.8533583 131.66486,18.1024271 C131.424345,17.349985 131.838818,16.5431495 132.590618,16.302912 C133.343931,16.0596526 134.150188,16.4736469 134.390703,17.2291108 Z" id="Path_96" fill="#F5F5F5"></path>
                                    <path d="M21.4663898,61.8694755 L37.1210771,64.0512554 C39.2025197,64.3398426 40.6562017,66.2632538 40.3657678,68.3453125 C40.0768467,70.4228383 38.1512097,71.87484 36.0682544,71.5847419 L20.4120544,69.4044729 L21.4663898,61.8694755 Z" id="Path_97" fill="#FF6F00"></path>
                                    <path d="M20.7403051,67.0519582 L35.1848514,69.0660251 C37.107463,69.3334593 38.8243507,68.3906403 39.0255366,66.9567697 C39.2236972,65.5274319 37.8290096,64.1479548 35.906398,63.8805205 L37.1210771,64.0512554 C39.2025197,64.3398426 40.6562017,66.2632538 40.3657678,68.3453125 C40.0768467,70.4228383 38.1512097,71.87484 36.0682544,71.5847419 L20.4120544,69.4044729 L20.7403051,67.0519582 Z" id="Path_98" fill="#FFECB3"></path>
                                    <path d="M10.7823569,76.6826126 C4.02523171,75.7428154 -0.691293082,69.5041942 0.252616947,62.7548792 C1.19350162,56.0025425 7.43631683,51.2944911 14.1964673,52.2357992 C20.9566179,53.1786182 25.6701173,59.4127067 24.7292326,66.1665544 C23.7838099,72.9158693 17.5425074,77.6254316 10.7823569,76.6826126 Z" id="Path_99" fill="#FFC107"></path>
                                </g>
                                <path d="M130.562119,5.25047444 L129.246091,1.15737077 C129.141716,0.827988487 128.786237,0.64667714 128.453448,0.752442092 C128.125198,0.859717973 127.942164,1.21176417 128.048051,1.54416831 L129.361054,5.6327392 C129.468454,5.96514333 129.820908,6.14796561 130.153697,6.04068973 C130.484973,5.93492478 130.668007,5.58136765 130.562119,5.25047444 Z" id="Path_100" fill="#FF6F00"></path>
                                <path d="M135.60387,4.96944185 L136.487272,0.764529515 C136.556856,0.427592595 136.337518,0.0921666017 136.000191,0.0226639184 C135.658326,-0.0513715485 135.324024,0.167712996 135.252929,0.506160845 L134.369526,4.71409504 C134.299943,5.05254288 134.516255,5.38645795 134.856607,5.45747156 C135.198472,5.5299961 135.531261,5.31091155 135.60387,4.96944185 Z" id="Path_101" fill="#FF6F00"></path>
                                <path d="M125.952995,7.41110133 L122.783938,4.50407606 C122.528295,4.26988223 122.128949,4.28499151 121.894484,4.54184926 C121.660019,4.79719607 121.675146,5.19608103 121.930788,5.43027486 L125.099845,8.33881106 C125.355487,8.57300488 125.754834,8.55487375 125.989299,8.29952693 C126.223764,8.04418012 126.208637,7.64831701 125.952995,7.41110133 Z" id="Path_102" fill="#FF6F00"></path>
                            </g>
                            <g id="Group" transform="translate(169.000000, 133.000000)">
                                <path d="M130.756104,20.2990715 C131.983974,19.8597565 132.974436,18.8316688 133.30711,17.4714528 C133.830316,15.3201679 132.508692,13.1492573 130.352358,12.6269102 C128.197536,12.1045631 126.026081,13.4225082 125.49985,15.5753028 C125.170201,16.9385381 125.578483,18.303283 126.466118,19.2573967 C123.721555,19.7057698 121.247669,22.0970928 120.437153,25.4274328 L133.272331,28.5433992 C134.084358,25.2160785 132.986533,21.9566932 130.756104,20.2990715 Z" id="Path_103" fill="#807DFB" fill-rule="nonzero"></path>
                                <polygon id="Path_104" fill="#00838F" fill-rule="nonzero" points="116.889636 34.0476692 120.09087 36.241225 117.777271 39.6017585 114.57755 37.4082027"></polygon>
                                <path d="M143.627573,30.1844144 C138.026548,38.3260843 126.880449,40.3898081 118.726905,34.8009964 C110.574874,29.2091653 108.50322,18.081361 114.104245,9.94271048 C119.702246,1.80255031 130.85137,-0.264192884 139.003401,5.32612854 C147.155432,10.91645 149.225573,22.0457639 143.627573,30.1844144 Z M139.674798,4.35087938 C130.981415,-1.60780241 119.097383,0.593301734 113.127393,9.2724154 C107.158914,17.9500194 109.363637,29.8160541 118.055508,35.7762455 C126.748891,41.736437 138.632923,39.5308038 144.604426,30.8547095 C150.572904,22.1755959 148.365157,10.3110708 139.674798,4.35087938 Z" id="Shape_105" fill="#2196F3" fill-rule="nonzero"></path>
                                <path d="M128.849275,37.9441369 C125.354684,37.9441369 121.825312,36.9251072 118.726905,34.8009964 C113.671769,31.3347857 110.955937,25.7369159 110.955937,20.0454464 C110.955937,16.5581003 111.97513,13.0330124 114.104245,9.94271048 C117.574642,4.89436189 123.180204,2.18298806 128.881031,2.18298806 C132.37411,2.18298806 135.904994,3.20050808 139.003401,5.32612854 C144.06005,8.79233918 146.775881,14.390209 146.775881,20.0831882 C146.772857,23.5690246 145.753664,27.0941125 143.627573,30.1844144 C140.154151,35.232763 134.550102,37.9441369 128.849275,37.9441369 Z M129.401212,12.512175 C127.591162,12.512175 125.947449,13.742559 125.49985,15.5753028 C125.170201,16.9385381 125.578483,18.303283 126.466118,19.2573967 C123.721555,19.7057698 121.247669,22.0970928 120.437153,25.4274328 L133.272331,28.5433992 C134.084358,25.2160785 132.986533,21.9566932 130.756104,20.2990715 C131.983974,19.8597565 132.974436,18.8316688 133.30711,17.4714528 C133.830316,15.3201679 132.508692,13.1492573 130.352358,12.6269102 C130.034805,12.5499168 129.714228,12.512175 129.401212,12.512175 Z" id="Shape_106" fill="#FFFFFF" fill-rule="nonzero"></path>
                                <path d="M133.272331,28.5433992 L120.437153,25.4274328 C121.247669,22.0970928 123.721555,19.7057698 126.466118,19.2573967 C125.578483,18.303283 125.170201,16.9385381 125.49985,15.5753028 C125.947449,13.742559 127.591162,12.512175 129.401212,12.512175 C129.714228,12.512175 130.034805,12.5499168 130.352358,12.6269102 C132.508692,13.1492573 133.830316,15.3201679 133.30711,17.4714528 C132.974436,18.8316688 131.983974,19.8597565 130.756104,20.2990715 C132.986533,21.9566932 134.084358,25.2160785 133.272331,28.5433992 Z" id="Path_107" fill="#BBDEFB" fill-rule="nonzero"></path>
                                <path d="M116.132046,14.1758353 C115.90371,14.1758353 115.670838,14.1184677 115.459137,13.9961842 C114.804373,13.6217851 114.57755,12.7929743 114.951052,12.1392856 C115.170315,11.7573382 115.409235,11.3784101 115.661765,11.0100497 C118.84939,6.37384204 124.326418,3.73493254 129.951637,4.10631226 C130.701666,4.15613149 131.270237,4.80529114 131.220336,5.55408926 C131.168922,6.30439705 130.520207,6.86901499 129.768666,6.8222151 C125.096105,6.50971266 120.553589,8.70326844 117.908829,12.5499168 C117.698639,12.8563806 117.499035,13.1719024 117.319088,13.4904435 C117.065046,13.9297585 116.605351,14.1758353 116.132046,14.1758353 Z" id="Path_108" fill="#F5F5F5" fill-rule="nonzero"></path>
                                <path d="M133.505203,5.96924951 C134.017824,5.22045139 135.044577,5.02872284 135.793094,5.54352155 C136.543124,6.05832025 136.733655,7.08036929 136.21801,7.83067708 C135.703877,8.5794752 134.678636,8.7681844 133.928606,8.2533857 C133.178577,7.74009667 132.989558,6.71653795 133.505203,5.96924951 Z" id="Path_109" fill="#F5F5F5" fill-rule="nonzero"></path>
                                <path d="M112.979201,36.3136893 L100.869858,53.9134644 C99.6571095,55.6782729 100.10622,58.0892217 101.872418,59.3014896 C103.638615,60.5122478 106.05504,60.0653845 107.269301,58.300576 L119.377132,40.6992912 L112.979201,36.3136893 Z" id="Path_110" fill="#2196F3" fill-rule="nonzero"></path>
                                <path d="M118.082727,39.8131128 L105.973384,57.4128879 C105.173454,58.5768463 103.688517,59.0010646 102.161239,57.9548607 C100.63245,56.9071472 100.107732,55.0215649 100.869858,53.9134644 C99.6571095,55.6782729 100.10622,58.0892217 101.872418,59.3014896 C103.638615,60.5122478 106.05504,60.0653845 107.269301,58.300576 L119.377132,40.6992912 L118.082727,39.8131128 Z" id="Path_111" fill="#00838F" fill-rule="nonzero"></path>
                                <g>
                                    <path d="M0.130045391,202.73709 C0.130045391,199.375047 23.0195463,196.645557 51.2575419,196.645557 C79.4970497,196.645557 102.382014,199.375047 102.382014,202.73709 C102.382014,206.103662 79.4970497,208.833152 51.2575419,208.833152 C23.0195463,208.833152 0.130045391,206.103662 0.130045391,202.73709 Z" id="Path_155" fill="#BBDEFB" fill-rule="nonzero"></path>
                                    <path d="M68.2224167,89.4542009 C68.2224167,103.225444 68.1725156,164.962037 68.1725156,193.158211 L63.1612316,193.158211 C60.3501341,186.169932 41.5812575,102.752916 39.6744292,89.4542009 L68.2224167,89.4542009 Z" id="Path_156" fill="#1565C0" fill-rule="nonzero"></path>
                                    <path d="M63.1612316,194.992465 L63.1612316,193.158211 L68.1725156,193.158211 C68.2390504,194.868671 68.5596275,195.785043 68.7501591,196.488551 C67.448193,196.989763 65.5413647,195.698992 63.1612316,194.992465 Z" id="Path_157" fill="#FFF3E0" fill-rule="nonzero"></path>
                                    <path d="M63.1612316,194.08666 C65.5413647,194.793188 67.448193,196.083959 68.7501591,195.582747 C69.4412142,196.083959 79.6044127,199.734349 80.6417515,200.437857 C81.6957241,201.16552 81.5429963,202.287207 80.4224889,202.287207 C78.7848243,202.287207 65.2873225,201.695415 65.2873225,201.695415 C65.010598,201.991311 64.7883111,202.287207 64.7883111,202.287207 L61.7050256,202.287207 C60.785635,200.692992 61.0366528,195.916385 63.1612316,194.08666 Z" id="Path_158" fill="#2196F3" fill-rule="nonzero"></path>
                                    <path d="M26.3099971,194.992465 C28.6855937,195.698992 30.592422,196.989763 31.8974124,196.488551 C32.5839311,196.989763 42.7516661,200.640154 43.7844684,201.343661 C44.8429774,202.071324 44.6902497,203.193012 43.566718,203.193012 C41.9320777,203.193012 28.4345759,202.60122 28.4345759,202.60122 C28.1578514,202.897116 27.9355645,203.193012 27.9355645,203.193012 L24.852279,203.193012 C23.9328883,201.598796 24.1808819,196.822189 26.3099971,194.992465 Z" id="Path_159" fill="#2196F3" fill-rule="nonzero"></path>
                                    <path d="M31.2547462,89.4542009 C30.970461,94.6791813 26.3099971,164.962037 26.3099971,193.158211 L31.3197689,193.158211 C34.136915,186.169932 57.9004419,102.752916 59.8027338,89.4542009 L31.2547462,89.4542009 Z" id="Path_160" fill="#1565C0"></path>
                                    <path d="M113.730743,53.0771053 C114.631987,52.1109141 115.019099,49.4961594 114.775642,48.5752585 C114.476235,47.449042 109.188227,49.8343263 108.234057,49.9324551 C108.645363,49.5791915 110.638384,47.6135964 110.251272,47.2527844 C109.859624,46.8904627 108.134254,48.6582906 106.585807,49.192715 C104.948142,49.7603523 104.905802,51.005833 103.497985,50.7461692 C102.938487,50.6978596 102.176361,50.5695374 101.266043,50.3762991 L101.616863,55.2646223 C102.539278,55.2600933 103.086679,55.2555643 103.086679,55.2555643 C103.086679,55.2555643 104.589761,55.1695129 105.849387,55.5937312 C107.039454,55.992285 110.913597,56.1115492 113.730743,53.0771053 Z" id="Path_161" fill="#FFF3E0" fill-rule="nonzero"></path>
                                    <path d="M56.7678373,30.6735487 C59.7861001,32.2768221 65.8710146,44.3255273 78.1663526,46.4843605 C90.5115918,48.6507422 103.036777,49.9988807 103.036777,49.9988807 C103.036777,51.8889921 102.983852,55.992285 102.983852,55.992285 C95.3943426,56.3500777 67.1971752,60.1559649 57.5995229,52.4777648 C48.004895,44.7980551 50.8175046,36.7786688 51.443537,35.010841 C52.0695695,33.2460325 53.9839586,29.1970879 56.7678373,30.6735487 Z" id="Path_162" fill="#2196F3" fill-rule="nonzero"></path>
                                    <path d="M31.2547462,89.4542009 L68.2224167,89.4542009 C67.2591735,76.1147247 66.9703518,42.1787714 60.8430969,34.714945 C53.589286,25.8833543 48.3874704,26.8993646 41.2773142,33.9993597 C31.6917592,43.5691808 29.7879552,78.3309256 31.2547462,89.4542009 Z" id="Path_163" fill="#2196F3" fill-rule="nonzero"></path>
                                    <path d="M46.7120018,20.1737686 C46.9342887,21.9536738 47.0174573,28.7366374 45.5007651,30.676568 C46.597078,31.5083982 52.3538548,32.6708469 56.6604742,30.9483093 C55.7335228,29.8100154 54.2712682,29.0415915 55.453774,27.0231579 C56.7345698,24.8190344 58.9120741,27.7795043 60.6374437,24.1698747 C62.6470987,19.963924 63.2564974,11.6682674 61.2634762,9.35846679 C59.0315344,6.76937653 54.5812601,3.60661029 48.5643926,7.13471754 C43.6529109,10.0076264 46.2674281,16.5520616 46.7120018,20.1737686 Z" id="Path_164" fill="#FFF3E0" fill-rule="nonzero"></path>
                                    <path d="M46.052702,29.0446108 C47.0749192,29.5548805 53.444119,30.6690197 55.6352327,29.3948551 C56.0919037,29.9338086 56.4336509,30.4229429 56.6604742,30.9483093 C55.133197,31.8616618 49.4006147,32.8308723 45.402475,30.7762065 C45.6580293,30.084776 46.052702,29.0446108 46.052702,29.0446108 Z" id="Path_165" fill="#1565C0" fill-rule="nonzero"></path>
                                    <path d="M75.9344108,69.4178126 C74.8305372,69.1792841 73.0189746,71.8468774 70.9034688,71.8846193 C71.1786811,71.3547238 73.3985257,69.3483676 72.7513231,69.1460713 C72.3400167,68.8094141 71.0592208,70.4987389 69.5485773,71.1403502 C67.9547652,71.8106452 67.9713989,73.2448352 66.5514847,73.0802808 C65.9904749,73.0682034 65.0604992,72.8719458 63.9445282,72.7843847 L63.4001522,77.4462569 C65.5383404,77.2077284 66.3322221,77.3888893 66.3322221,77.3888893 C66.3322221,77.3888893 69.1856599,77.7255465 70.29407,77.7255465 C73.2337007,77.7255465 75.2554529,74.6926122 75.362816,74.568819 C76.0871385,73.7309501 76.8825324,70.1288688 75.9344108,69.4178126 Z" id="Path_166" fill="#FFF3E0" fill-rule="nonzero"></path>
                                    <path d="M44.0445592,34.2786493 C38.8306463,32.7901111 35.7428244,39.6878099 33.9388226,44.3542111 C30.5621789,53.1027697 20.1993759,76.9827871 32.8394854,78.2524226 C45.4765706,79.5220581 65.3236142,78.1452358 65.3236142,78.1452358 L65.3236142,72.0899349 C61.6097598,72.0899349 37.2126397,69.0026523 37.8311114,67.4114563 C39.6789657,62.6318296 45.3238429,51.2730453 46.3868884,48.3004979 C47.4484217,45.3249312 50.5543895,36.1370575 44.0445592,34.2786493 Z" id="Path_167" fill="#2196F3" fill-rule="nonzero"></path>
                                    <path d="M45.053167,7.54081975 C50.8129681,0.848436576 50.5619503,4.17122822 49.8164575,5.29291572 C55.4174822,1.4251319 63.6436093,-0.77899159 65.6003387,0.344205586 C67.5555561,1.47042211 68.662454,5.66731478 64.6401199,9.16069955 C60.6087128,12.655594 55.3267529,10.625083 53.200662,11.0477916 C51.0775954,11.4720099 50.1506439,13.5145983 50.2202031,14.4279508 C50.2368368,14.6483632 50.2413733,14.8748142 50.2368368,15.1012653 C50.0720118,14.9653946 49.8905531,14.8461304 49.6849,14.75555 C48.6717556,14.311706 47.567882,14.5909956 47.218574,15.3850839 C46.869266,16.1776625 47.403057,17.1815955 48.4162013,17.6254396 C48.8653116,17.8262261 49.3310555,17.8715164 49.7468983,17.8020714 C49.034673,19.8869306 47.6873423,21.476617 46.6333697,21.2139338 C45.053167,20.8153799 39.2888295,14.2332029 45.053167,7.54081975 Z" id="Path_168" fill="#212121" fill-rule="nonzero"></path>
                                    <path d="M26.2963877,194.974348 L26.2963877,193.141605 L31.3076717,193.141605 C31.3742065,194.852065 31.6947836,195.768437 31.8853152,196.470435 C30.5833491,196.973156 28.6765208,195.682385 26.2963877,194.974348 Z" id="Path_169" fill="#FFF3E0" fill-rule="nonzero"></path>
                                </g>
                            </g>
                            <g id="Group">
                                <path d="M137.841498,62.4753578 C137.161235,62.5928239 136.897274,64.3367425 137.251735,66.3667963 C137.607704,68.3983561 138.452377,69.948004 139.13264,69.827526 L142.997016,69.1513434 L141.705874,61.7991752 L137.841498,62.4753578 Z" id="Path_173" fill="#2196F3" fill-rule="nonzero"></path>
                                <path d="M162.365658,52.1775033 L143.132767,55.5448626 C141.371022,55.8535874 140.687742,60.3579575 141.607832,65.6047731 C142.532446,70.8530948 144.707478,74.8559753 146.47224,74.5472505 L165.703622,71.1798913 C167.466876,70.8741784 168.150156,66.3698083 167.225541,61.1199807 C166.305452,55.8716591 164.13042,51.8687785 162.365658,52.1775033 Z" id="Path_174" fill="#1565C0" fill-rule="nonzero"></path>
                                <path d="M163.932827,55.162345 C162.757827,55.3686635 162.302307,58.3745889 162.916203,61.874474 C163.531608,65.377371 164.981126,68.047464 166.160651,67.8441574 L197.108847,75.6225164 L190.820562,37.8285769 L163.932827,55.162345 Z" id="Path_175" fill="#2196F3" fill-rule="nonzero"></path>
                                <path d="M188.35442,57.7947887 C186.515749,47.3132052 187.8808,38.3135008 191.401274,37.6990631 C194.924765,37.0831195 199.271812,45.0813508 201.113499,55.5629343 C202.953679,66.0445177 201.590136,75.0442222 198.065137,75.6601658 C194.544662,76.2791214 190.197616,68.2778781 188.35442,57.7947887 Z" id="Path_176" fill="#1565C0" fill-rule="nonzero"></path>
                                <path d="M187.660582,52.2362363 C187.788791,54.0102744 188.019568,55.877683 188.35442,57.7947887 C188.69078,59.7118944 189.113117,61.5476775 189.595787,63.2614766 C192.500857,62.6048717 194.411928,59.7871931 193.89155,56.827953 C193.372679,53.8672068 190.616935,51.8657665 187.660582,52.2362363 Z" id="Path_177" fill="#FFC107" fill-rule="nonzero"></path>
                                <path d="M145.831194,63.5551417 C145.223332,58.8715605 145.927728,55.0569268 147.547689,54.7707916 L146.152471,55.0162655 C144.537035,55.2993887 143.832639,59.1170344 144.435976,63.7976036 L145.831194,63.5551417 Z" id="Path_178" fill="#BBDEFB" fill-rule="nonzero"></path>
                                <path d="M148.832798,63.0295565 C148.227952,58.3474814 148.932349,54.5283297 150.549293,54.2467124 L149.157092,54.4891743 C147.541656,54.7738035 146.835751,58.5929552 147.440597,63.2720184 L148.832798,63.0295565 Z" id="Path_179" fill="#BBDEFB" fill-rule="nonzero"></path>
                                <path d="M151.837419,62.5024654 C151.232573,57.8218962 151.936969,54.0042505 153.552406,53.7226333 L152.161713,53.9650952 C150.54326,54.2467124 149.840372,58.0658641 150.445218,62.7479393 L151.837419,62.5024654 Z" id="Path_180" fill="#BBDEFB" fill-rule="nonzero"></path>
                                <path d="M154.840531,61.9783862 C154.232669,57.297817 154.938573,53.4786654 156.557026,53.1940362 L155.166333,53.43951 C153.546372,53.7226333 152.841976,57.540279 153.449838,62.2208481 L154.840531,61.9783862 Z" id="Path_181" fill="#BBDEFB" fill-rule="nonzero"></path>
                                <path d="M149.974614,73.9343189 C150.585494,77.4010725 154.136135,89.3479693 157.353432,92.4442531 C159.130261,92.1325164 160.70648,91.8554171 161.382218,91.737951 C162.059464,91.618979 162.605484,91.2153778 162.009689,90.2395063 C161.412385,89.2591168 158.644574,79.8151498 157.733534,72.5744238 C156.682219,72.7596586 149.974614,73.9343189 149.974614,73.9343189 Z" id="Path_182" fill="#2196F3" fill-rule="nonzero"></path>
                                <path d="M216.770107,53.4575817 L244.793624,48.5571402 C245.133002,48.4953953 245.360762,48.1716107 245.300428,47.8282485 C245.243111,47.4894042 244.914292,47.2589901 244.574915,47.3192291 L216.551397,52.2241885 C216.210511,52.2844275 215.982751,52.608212 216.040068,52.9515742 C216.100402,53.2919245 216.426204,53.5193267 216.770107,53.4575817 Z" id="Path_183" fill="#FF6F00" fill-rule="nonzero"></path>
                                <path d="M214.101847,45.60543 L238.580757,31.1315077 C238.8779,30.9553087 238.97896,30.5712851 238.802483,30.2731022 C238.62299,29.9764252 238.239871,29.8755249 237.942727,30.0547358 L213.460801,44.5256461 C213.163657,44.7048571 213.064106,45.0873747 213.242091,45.3870636 C213.418567,45.6837406 213.801686,45.781629 214.101847,45.60543 Z" id="Path_184" fill="#FF6F00" fill-rule="nonzero"></path>
                                <path d="M208.825661,39.2005198 L226.606016,17.0250433 C226.821709,16.7554738 226.779476,16.3609085 226.507974,16.1425421 C226.23798,15.9271878 225.842794,15.9693551 225.624084,16.2404305 L207.846745,38.417413 C207.628036,38.6869825 207.674794,39.0815478 207.944788,39.2999141 C208.214781,39.5152685 208.609967,39.4731012 208.825661,39.2005198 Z" id="Path_185" fill="#FF6F00" fill-rule="nonzero"></path>
                                <path d="M216.483522,61.7479721 L244.434639,67.0429789 C244.778541,67.1092418 245.105852,66.8848516 245.169202,66.5460073 C245.234061,66.2026451 245.012334,65.8743426 244.668432,65.8110917 L216.717315,60.5160848 C216.377937,60.448316 216.049119,60.6727062 215.985768,61.0130565 C215.919401,61.3534067 216.144144,61.6832152 216.483522,61.7479721 Z" id="Path_186" fill="#FF6F00" fill-rule="nonzero"></path>
                                <path d="M213.28885,69.3998292 L237.559608,84.2156077 C237.855243,84.3948187 238.244396,84.3014483 238.422381,84.0062772 C238.60489,83.7126122 238.511373,83.3240707 238.215738,83.1448597 L213.941962,68.3290813 C213.646327,68.1498703 213.257174,68.2402288 213.07919,68.5384117 C212.89668,68.8320768 212.990198,69.2206182 213.28885,69.3998292 Z" id="Path_187" fill="#FF6F00" fill-rule="nonzero"></path>
                                <path d="M15.4605229,186.977293 C15.4394061,185.807151 14.9356193,184.888506 15.4514729,184.159615 C16.391171,182.834357 18.760779,182.652134 22.447171,181.921736 C22.7609065,184.359909 23.6568626,186.983317 24.5377353,188.801028 C23.4321194,189.337155 22.6824726,189.895872 22.3747705,190.492238 C19.5496427,195.992057 20.0639879,201.582235 17.6883466,201.842769 C16.6219476,201.957223 15.5495152,191.876229 15.4605229,186.977293 Z" id="Path_188" fill="#FFC107" fill-rule="nonzero"></path>
                                <path d="M3.65924182,148.397235 C4.26710433,146.526814 3.62605826,145.94099 4.95641741,144.645852 C6.08013346,143.547996 8.83587741,144.367247 12.9642141,145.151859 C12.5388612,147.317451 12.1346251,150.508611 11.9822824,152.103438 C10.624773,152.159159 9.60060767,152.404633 9.00933693,152.898593 C4.25805427,156.856294 2.33491605,162.694958 0.253401742,161.51578 C-0.730038352,160.960075 1.96084681,153.610919 3.65924182,148.397235 Z" id="Path_189" fill="#FFC107" fill-rule="nonzero"></path>
                                <path d="M15.4333728,144.864218 C14.600767,144.73621 13.7621279,144.557 13.0185145,144.415438 C12.5901449,146.581029 12.1346251,150.508611 11.9822824,152.103438 C21.5059645,151.725439 47.5339434,160.630267 57.6896216,157.35176 L52.9413556,145.061501 C36.8895619,142.680555 29.9391141,147.105109 15.4333728,144.864218 Z" id="Path_190" fill="#00838F"></path>
                                <path d="M83.2862142,112.655939 C65.1046392,123.253482 71.4864414,134.457934 52.9413556,145.061501 L55.9821765,157.274955 C68.0051842,159.320069 94.2579063,131.400805 99.2369489,125.137457 C99.2369489,125.137457 87.1370157,115.595601 83.2862142,112.655939 Z" id="Path_191" fill="#00838F"></path>
                                <path d="M54.4813745,109.16509 C54.4813745,109.16509 47.865779,111.658984 47.4027175,114.682981 C46.944181,117.706978 47.9381795,118.161782 48.3846493,118.39822 C49.4480316,118.952419 53.4240256,114.175467 54.4542243,115.000741 C55.4844231,115.826015 52.5522029,117.670834 52.8810219,117.952452 C53.2083324,118.231057 57.0636589,115.750717 57.6096794,113.056528 C57.8751479,111.743318 61.4288056,108.491919 65.5058586,105.255579 L62.4740878,101.428898 C58.2627922,105.467922 54.4813745,109.16509 54.4813745,109.16509 Z" id="Path_192" fill="#FFD8D8" fill-rule="nonzero"></path>
                                <path d="M150.703144,83.903871 C150.703144,83.903871 156.909979,82.3963904 157.493708,79.3964889 C158.075928,76.3935754 159.643097,74.3590037 159.207186,74.1075059 C158.167937,73.5066221 151.967136,78.9416845 150.970121,78.0742431 C150.840404,77.6013671 150.627727,76.7971767 150.499518,76.2971931 C149.831322,76.6721808 148.395378,77.2218615 147.739249,79.8874366 C147.41948,81.1916106 145.111714,83.3541902 142.242845,89.3931485 L144.689378,92.751472 C149.060558,88.890153 150.703144,83.903871 150.703144,83.903871 Z" id="Path_193" fill="#FFD8D8" fill-rule="nonzero"></path>
                                <path d="M74.916415,90.197339 C74.1697849,90.4879921 60.4483822,103.132155 55.52364,107.854892 L58.525244,111.84723 C63.3066935,108.737393 76.2648743,98.1865344 78.5168314,97.1007267 C82.8276777,95.0194698 97.4178864,93.2875989 97.4178864,93.2875989 L103.128476,77.5652237 C98.4661852,79.1419792 79.2393281,88.5166713 74.916415,90.197339 Z" id="Path_194" fill="#FFC107"></path>
                                <path d="M25.1305144,180.683825 C24.097299,180.944359 23.1922928,181.215434 22.3084034,181.387115 C22.6206305,183.829806 23.6568626,186.983317 24.5377353,188.801028 C33.6390812,184.393041 66.2766223,180.489554 75.0868578,174.539449 L65.8889779,164.991569 C51.2399439,168.354411 39.3587206,177.087558 25.1305144,180.683825 Z" id="Path_195" fill="#00838F"></path>
                                <path d="M102.526646,127.521414 C102.526646,127.521414 87.6604109,115.883242 83.2862142,112.655939 C69.7744713,127.961159 81.9332299,142.438093 65.8889779,164.991569 L75.0868578,174.539449 C87.3964508,167.551726 100.692501,135.307303 102.526646,127.521414 Z" id="Path_196" fill="#00838F"></path>
                                <path d="M145.791977,82.0530281 C143.75873,86.09657 136.325612,98.6503746 135.23508,99.5810669 C130.642173,94.2514227 122.91342,81.9686936 120.352252,81.1765509 C118.901226,80.7277705 116.008222,80.4913324 114.392786,79.4687757 C107.157262,74.8891068 99.1494649,77.1209612 96.0664104,83.6433374 C93.9788627,88.055843 90.135603,101.222579 83.2862142,112.655939 L102.526646,127.521414 C107.549431,121.485468 113.454597,115.273323 117.278248,105.547738 C118.14102,103.353533 120.147118,99.5057682 121.230108,100.421401 C126.762713,105.112512 134.27879,111.925541 139.21409,109.768985 C141.888384,107.842844 149.704621,88.6928703 150.654877,84.7291451 L145.791977,82.0530281 Z" id="Path_197" fill="#FFC107"></path>
                                <path d="M114.548146,76.7670572 C114.714064,77.9793667 114.89054,79.7398511 114.89054,79.7398511 C113.152928,81.0560729 106.525266,78.9175889 106.636883,77.3920366 C107.642948,75.1345807 108.830015,70.3455813 108.830015,70.3455813 L114.548146,76.7670572 Z" id="Path_198" fill="#FFD8D8" fill-rule="nonzero"></path>
                                <path d="M122.24824,64.1560255 C121.954113,66.7884692 121.2829,74.7189317 118.982676,76.9492801 C117.100263,78.7775333 114.496862,78.3859799 110.908512,75.8017274 C107.317146,73.2174749 109.386594,65.9029561 109.504244,63.6424882 C109.689771,60.0673044 122.673593,60.3398858 122.24824,64.1560255 Z" id="Path_199" fill="#FFD8D8" fill-rule="nonzero"></path>
                                <path d="M109.63547,58.8022857 C115.294776,54.3069514 114.581329,56.9393951 113.812074,57.7255138 C118.907259,55.4755877 125.85469,54.9680743 127.251416,56.172854 C128.652668,57.3731158 128.898528,60.9166741 125.12616,63.1063612 C121.349268,65.2990603 120.942015,63.9120577 119.171219,63.9256114 C117.397407,63.9436831 117.810693,67.2673691 117.724718,68.0098146 C117.706617,68.1920376 117.400424,68.2989618 117.245064,68.1920376 C116.501451,67.6800062 116.088165,67.6137433 115.762362,68.1528822 C115.395835,68.75979 115.303826,69.9148726 115.872472,70.363653 C116.190732,70.6121388 116.486367,70.6437643 116.825745,70.6497882 C113.9252,75.7746199 109.137717,72.4840653 108.335278,72.1105836 C107.124078,71.5473491 103.976165,63.294608 109.63547,58.8022857 Z" id="Path_200" fill="#FF6F00" fill-rule="nonzero"></path>
                                <g transform="translate(128.812552, 0.000000)" fill-rule="nonzero">
                                    <path d="M0.00452503111,14.8835473 C0.00452503111,6.72568273 6.62615388,0.112948098 14.7983601,0.112948098 C22.9720746,0.112948098 29.5952118,6.72568273 29.5952118,14.8835473 C29.5952118,23.0429179 22.9720746,29.6571585 14.7983601,29.6571585 C6.62615388,29.6571585 0.00452503111,23.0429179 0.00452503111,14.8835473 Z" id="Path_201" fill="#FFECB3"></path>
                                    <polygon id="Path_202" fill="#FF6F00" points="10.7092403 8.6397765 10.7092403 21.1288242 20.8830186 14.8835473"></polygon>
                                    <path d="M30.0054813,35.8482203 C25.5000586,35.8482203 21.7638913,32.5727254 21.0489364,28.2776858 C25.2632487,26.3154008 28.3975869,22.4269743 29.3191849,17.7479111 C29.5424198,17.7283334 29.7747047,17.7223095 30.0054813,17.7223095 C35.0177074,17.7223095 39.0826937,21.7778992 39.0826937,26.7852649 C39.0826937,31.7896186 35.0177074,35.8482203 30.0054813,35.8482203 Z" id="Path_203" fill="#FF6F00"></path>
                                    <path d="M21.0489364,28.2776858 C20.9674858,27.7927619 20.9282689,27.2927784 20.9282689,26.7852649 C20.9282689,22.0083134 24.6252193,18.0988032 29.3191849,17.7479111 C28.3975869,22.4269743 25.2632487,26.3154008 21.0489364,28.2776858 Z" id="Path_204" fill="#FF6F00"></path>
                                    <path d="M22.9600078,26.7852649 C22.9600078,22.8998503 26.1139545,19.7523633 30.0054813,19.7523633 C33.8939913,19.7523633 37.0464297,22.8998503 37.0464297,26.7852649 C37.0464297,30.6676675 33.8939913,33.8166605 30.0054813,33.8166605 C26.1139545,33.8166605 22.9600078,30.6676675 22.9600078,26.7852649 Z" id="Path_205" fill="#F6F6FB"></path>
                                    <path d="M30.6314439,30.5682732 L30.6314439,27.4102444 L33.7929323,27.4102444 C34.142868,27.4102444 34.4219116,27.1316391 34.4219116,26.7852649 C34.4219116,26.4403967 34.142868,26.1572735 33.7929323,26.1572735 L30.6314439,26.1572735 L30.6314439,23.0007506 C30.6314439,22.6543765 30.350892,22.3727592 30.0054813,22.3727592 C29.6585622,22.3727592 29.3765019,22.6543765 29.3765019,23.0007506 L29.3765019,26.1572735 L26.2135052,26.1572735 C25.8680945,26.1572735 25.5845259,26.4403967 25.5845259,26.7852649 C25.5845259,27.1316391 25.8680945,27.4102444 26.2135052,27.4102444 L29.3765019,27.4102444 L29.3765019,30.5682732 C29.3765019,30.9161533 29.6585622,31.1947586 30.0054813,31.1947586 C30.350892,31.1947586 30.6314439,30.9161533 30.6314439,30.5682732 Z" id="Path_206" fill="#FFC107"></path>
                                </g>
                            </g>
                        </g>
                    </g>
                </g>
            </g>
        </g>
    </g>
</svg>