<?xml version="1.0" encoding="UTF-8"?>
<svg width="482px" height="312px" viewBox="0 0 482 312" version="1.1" xmlns="http://www.w3.org/2000/svg" xmlns:xlink="http://www.w3.org/1999/xlink">
    <!-- Generator: Sketch 64 (93537) - https://sketch.com -->
    <title>Banner2-Foreground</title>
    <desc>Created with Sketch.</desc>
    <g id="Landing" stroke="none" stroke-width="1" fill="none" fill-rule="evenodd">
        <g transform="translate(-661.000000, -154.000000)" id="Banner">
            <g transform="translate(0.000000, 124.000000)">
                <g id="Illustration">
                    <g id="Artwork">
                        <g id="Banner2-Foreground" transform="translate(661.000000, 30.000000)">
                            <g id="Group" transform="translate(93.000000, 73.000000)">
                                <path d="M125.806121,232.101186 C125.806121,228.356691 97.6537974,225.326586 62.9203912,225.326586 C28.196027,225.326586 0.0391820792,228.356691 0.0391820792,232.101186 C0.0391820792,235.842654 28.196027,238.8773 62.9203912,238.8773 C97.6537974,238.8773 125.806121,235.842654 125.806121,232.101186 Z" id="Path_62" fill="#BBDEFB" fill-rule="nonzero"></path>
                                <path d="M104.096235,233.446722 C104.096235,233.446722 103.992252,231.519987 103.873199,228.883402 C103.796342,227.266943 103.418084,227.380458 102.993109,227.798195 C102.045204,228.576154 97.6507834,229.111947 97.3418478,227.798195 C97.1821054,227.101967 96.7676796,225.30237 96.3803798,225.444642 C95.964447,225.595996 94.478542,227.596894 92.4229898,228.318852 C88.4113477,229.738552 84.1766692,230.934248 84.1766692,231.895345 C84.1766692,233.451263 85.3943276,233.446722 86.2141373,233.446722 L104.096235,233.446722 Z" id="Path_63" fill="#2196F3" fill-rule="nonzero"></path>
                                <path d="M98.4088059,226.149951 C98.7358256,224.671224 102.569641,223.640504 102.779115,225.806378 C102.834874,226.396658 102.947899,227.165536 102.993109,227.798195 C102.045204,228.576154 97.6507834,229.111947 97.3418478,227.798195 C98.0199991,227.605976 98.4088059,226.758394 98.4088059,226.149951 Z" id="Path_64" fill="#FFF3E0" fill-rule="nonzero"></path>
                                <path d="M76.0267967,105.592039 L85.6957282,105.592039 C90.1534432,113.274763 92.501354,121.52809 92.6972644,131.481122 C92.9429059,144.070738 92.2542055,165.550882 92.2542055,167.848434 C100.167478,184.037246 101.968347,209.065124 103.017221,226.634284 L98.2174165,226.634284 C95.7233265,221.822744 75.7585501,166.387869 69.7817761,127.474784 C67.0209465,109.469726 76.0267967,105.592039 76.0267967,105.592039 Z" id="Path_65" fill="#00838F" fill-rule="nonzero"></path>
                                <path d="M45.3502427,233.446722 C45.3502427,233.446722 45.2462595,231.519987 45.1362482,228.883402 C45.0593911,227.266943 44.6705843,227.380458 44.2471164,227.798195 C43.2992115,228.576154 38.9047906,229.111947 38.598869,227.798195 C38.4406337,227.101967 38.0247009,225.30237 37.6328801,225.444642 C37.2184542,225.595996 35.7280282,227.596894 33.6769971,228.318852 C29.669876,229.738552 25.4306764,230.934248 25.4306764,231.895345 C25.4306764,233.451263 26.6438139,233.446722 27.4726655,233.446722 L45.3502427,233.446722 Z" id="Path_66" fill="#2196F3" fill-rule="nonzero"></path>
                                <path d="M39.6567852,226.149951 C39.9898328,224.671224 43.8236486,223.640504 44.033122,225.806378 C44.0873741,226.396658 44.2019063,227.165536 44.2561585,227.798195 L44.2471164,227.798195 C43.2992115,228.576154 38.9047906,229.111947 38.598869,227.798195 C39.2694854,227.605976 39.6567852,226.758394 39.6567852,226.149951 Z" id="Path_67" fill="#FFF3E0" fill-rule="nonzero"></path>
                                <path d="M39.579928,226.634284 C39.579928,221.268788 39.1790652,197.138438 42.2865055,169.062292 C44.7489485,146.776946 49.8169997,125.437561 56.2443677,105.592039 L76.0267967,105.592039 C83.5482489,121.285924 65.6164196,154.041932 56.8637459,170.778645 C56.0258522,187.515358 45.1995424,222.661244 44.1657383,226.634284 L39.579928,226.634284 Z" id="Path_68" fill="#00838F" fill-rule="nonzero"></path>
                                <path d="M102.975025,0.152867426 C102.975025,0.152867426 102.975025,0.166489276 102.975025,0.166489276 C101.581047,-0.0726498659 100.282011,0.519143833 99.7259266,1.6860823 C98.3666098,4.56937386 100.077058,6.20399584 101.808605,7.02433391 C101.198269,17.3648315 98.7539096,29.2082732 97.7020215,33.5581839 C96.8535788,37.0922972 88.079807,54.4662099 85.8087534,56.6305705 C85.8087534,56.6305705 86.7159693,67.2662081 89.9937009,68.8266667 C95.1853264,60.8609116 102.364689,48.8706567 104.643278,39.4640126 C105.377188,36.4187724 107.821547,18.8950193 107.346841,8.45614168 C107.801956,7.66456085 108.686567,6.51578485 108.486135,4.84937855 C108.166651,2.07960241 105.509804,0.440439812 102.975025,0.152867426 Z" id="Path_69" fill="#FFF3E0" fill-rule="nonzero"></path>
                                <path d="M56.2443677,105.592039 C56.2443677,99.1095525 52.7571626,61.1030778 58.5335053,56.2098067 C61.4631192,53.7230623 85.3852856,53.7230623 88.1069331,58.3015174 C92.8012476,66.1855414 88.2485914,73.9227521 87.2810954,81.0318442 C86.3105855,88.1454769 85.083885,98.2725655 85.6957282,105.592039 L56.2443677,105.592039 Z" id="Path_70" fill="#2196F3"></path>
                                <path d="M58.5335053,56.2098067 C56.0077682,53.7972257 48.8736158,47.5432831 45.3231166,37.7552272 C44.7308644,36.1130375 41.7259003,19.3702705 41.8539956,9.86675991 C43.553895,8.27300348 43.6955533,7.65547962 44.02408,7.04249637 C44.3526067,5.52290335 44.6705843,1.82381434 42.4417268,1.33342775 C41.5073849,1.12758646 40.2309533,1.12304584 38.576264,1.78597587 C35.2216752,3.13756608 33.621238,4.39531689 34.0642969,6.73524798 C34.3747395,8.36532935 35.9736697,9.3990764 35.9736697,9.3990764 C35.7461123,10.6628814 35.9420227,36.8122925 37.6690481,41.487614 C41.1894073,50.9956652 47.4510049,60.9063178 55.3642779,69.9572802 C58.6374885,63.1357605 58.5335053,56.2098067 58.5335053,56.2098067 Z" id="Path_71" fill="#FFF3E0" fill-rule="nonzero"></path>
                                <path d="M73.1182808,23.8518591 C79.9193855,23.8518591 88.3887427,31.5209606 85.7545013,46.4444538 C83.115739,61.3694607 85.083885,73.1750639 92.501354,78.0789298 C86.8169385,84.3056287 81.8619125,87.8669857 72.1387288,87.8669857 C64.2209348,87.8669857 57.8357629,84.5387137 52.0006471,80.070747 C55.386883,76.9119914 60.1414776,71.7841217 60.9251192,65.5528821 C62.0553714,56.5579206 59.344273,49.2369331 59.850626,38.6345933 C60.4067101,26.9198024 67.284672,23.8518591 73.1182808,23.8518591 Z" id="Path_72" fill="#212121" fill-rule="nonzero"></path>
                            </g>
                            <g id="Group" transform="translate(0.000000, 97.000000)" fill-rule="nonzero">
                                <polygon id="Path_114" fill="#BBDEFB" points="73.7018141 36.3285227 8.78375612 51.9342254 0.109684262 15.7215904 65.0277422 0.118897725"></polygon>
                                <polygon id="Path_115" fill="#00838F" points="0.109684262 15.7215904 36.9034954 26.0265616 65.0277422 0.118897725"></polygon>
                                <polygon id="Path_116" fill="#00BCD4" points="0.109684262 15.7215904 39.1137084 35.2448979 65.0277422 0.118897725 36.9034954 26.0265616"></polygon>
                            </g>
                            <g id="Group" transform="translate(218.000000, 0.000000)">
                                <path d="M104.944012,20.4282222 L175.653121,20.4282222 C178.910285,20.4282222 181.543159,23.084331 181.543159,26.3608559 L181.543159,65.8490478 C181.543159,69.1255726 178.910285,71.7816814 175.653121,71.7816814 L122.20095,71.7816814 L109.650313,83.0492863 L111.328657,71.7816814 L104.944012,71.7816814 C101.686849,71.7816814 99.0464346,69.1255726 99.0464346,65.8490478 L99.0464346,26.3608559 C99.0464346,23.084331 101.686849,20.4282222 104.944012,20.4282222 Z" id="Path_122" fill="#FF6F00" fill-rule="nonzero"></path>
                                <path d="M165.516706,42.4537503 L115.072888,42.4537503 C114.451614,42.4537503 113.946452,42.9573643 113.946452,43.5868818 C113.946452,44.2103317 114.451614,44.7184964 115.072888,44.7184964 L165.516706,44.7184964 C166.140996,44.7184964 166.641634,44.2103317 166.641634,43.5868818 C166.641634,42.9573643 166.140996,42.4537503 165.516706,42.4537503 Z" id="Path_123" fill="#FFFFFF" fill-rule="nonzero"></path>
                                <path d="M156.538394,57.047938 L124.054215,57.047938 C123.432942,57.047938 122.92778,57.5561027 122.92778,58.1810695 C122.92778,58.8060363 123.432942,59.314201 124.054215,59.314201 L156.538394,59.314201 C157.164192,59.314201 157.66483,58.8060363 157.66483,58.1810695 C157.66483,57.5561027 157.164192,57.047938 156.538394,57.047938 Z" id="Path_124" fill="#FFFFFF" fill-rule="nonzero"></path>
                                <path d="M165.516706,49.7500857 L115.072888,49.7500857 C114.451614,49.7500857 113.946452,50.2567335 113.946452,50.8817003 C113.946452,51.5066671 114.451614,52.0148318 115.072888,52.0148318 L165.516706,52.0148318 C166.140996,52.0148318 166.641634,51.5066671 166.641634,50.8817003 C166.641634,50.2567335 166.140996,49.7500857 165.516706,49.7500857 Z" id="Path_125" fill="#FFFFFF" fill-rule="nonzero"></path>
                                <path d="M141.659488,35.4031543 C141.659488,34.6462163 141.053294,34.0288341 140.294797,34.0288341 C139.542332,34.0288341 138.928597,34.6462163 138.928597,35.4031543 C138.928597,36.163126 139.542332,36.7759575 140.294797,36.7759575 C141.053294,36.7759575 141.659488,36.163126 141.659488,35.4031543 Z" id="Path_126" fill="#FFFFFF" fill-rule="nonzero"></path>
                                <path d="M136.081595,35.4031543 C136.081595,34.6462163 135.475401,34.0288341 134.716904,34.0288341 C133.964438,34.0288341 133.350704,34.6462163 133.350704,35.4031543 C133.350704,36.163126 133.964438,36.7759575 134.716904,36.7759575 C135.475401,36.7759575 136.081595,36.163126 136.081595,35.4031543 Z" id="Path_127" fill="#FFFFFF" fill-rule="nonzero"></path>
                                <path d="M144.507999,35.4031543 C144.507999,34.6462163 145.121733,34.0288341 145.87269,34.0288341 C146.631187,34.0288341 147.238889,34.6462163 147.238889,35.4031543 C147.238889,36.163126 146.631187,36.7759575 145.87269,36.7759575 C145.121733,36.7759575 144.507999,36.163126 144.507999,35.4031543 Z" id="Path_128" fill="#FFFFFF" fill-rule="nonzero"></path>
                                <path d="M64.4647029,0.294280472 C64.4647029,0.294280472 3.97193047,17.3049053 3.97193047,17.3049053 C1.18675371,18.0906645 -0.44032031,20.9940295 0.337779964,23.7972785 L9.72474547,57.5818902 C10.5058616,60.3881731 13.3935787,62.0203678 16.1787555,61.2391594 L61.9042101,48.3787994 L75.3234239,54.9985931 L71.2097465,45.7636471 L76.6715279,44.2285346 C79.4567047,43.4442923 81.0837787,40.5363765 80.3071864,37.7331275 L70.9187129,3.95154963 C70.1375967,1.14678369 67.2513876,-0.489961816 64.4647029,0.294280472 Z" id="Path_129" fill="#FFC107" fill-rule="nonzero"></path>
                                <path d="M18.4482146,35.7687295 L61.6026209,23.6319354 C62.2027835,23.4635584 62.5511191,22.8401086 62.383737,22.2363785 C62.216355,21.6341654 61.5965891,21.2837593 60.9964265,21.4506193 L17.8420202,33.5874134 C17.2418576,33.7557904 16.893522,34.3792402 17.0609041,34.9829703 C17.2282861,35.5851834 17.84956,35.9355895 18.4482146,35.7687295 Z" id="Path_130" fill="#FFFFFF" fill-rule="nonzero"></path>
                                <path d="M29.6009852,46.0958504 L57.3909269,38.2822488 C57.9895816,38.1138718 58.3379172,37.488905 58.1720431,36.8866919 C58.0046611,36.2829619 57.3833872,35.9295219 56.7847325,36.0978989 L28.9947908,43.9145343 C28.3961361,44.0829113 28.0462926,44.707878 28.2136746,45.3100912 C28.3810567,45.9138212 29.0023305,46.2642273 29.6009852,46.0958504 Z" id="Path_131" fill="#FFFFFF" fill-rule="nonzero"></path>
                                <path d="M20.1838608,42.0123296 L63.339775,29.8755355 C63.9384296,29.7071585 64.2867652,29.0821918 64.1208911,28.4799786 C63.9535091,27.8777655 63.3322352,27.5258425 62.7320726,27.6942194 L19.5776664,39.8310135 C18.9790117,39.9993905 18.6261523,40.6228404 18.7935343,41.2265704 C18.9609164,41.8287835 19.5852061,42.1791897 20.1838608,42.0123296 Z" id="Path_132" fill="#FFFFFF" fill-rule="nonzero"></path>
                                <path d="M36.6099195,21.9405811 C36.4289659,21.2898269 36.8059525,20.6178359 37.4483376,20.4358068 C38.0952465,20.2522607 38.7677906,20.633005 38.9457282,21.2837593 C39.1266818,21.9329966 38.7496952,22.6049876 38.1027863,22.7885336 C37.4604011,22.967529 36.7878571,22.5867846 36.6099195,21.9405811 Z" id="Path_133" fill="#FFFFFF" fill-rule="nonzero"></path>
                                <path d="M41.3825694,20.599633 C41.2001079,19.9503957 41.5740786,19.273854 42.2209875,19.0948586 C42.8678965,18.9113126 43.5359167,19.2920569 43.7168702,19.9428111 C43.8993317,20.5890146 43.5208372,21.2640394 42.8754362,21.4445517 C42.2315431,21.6265808 41.560507,21.2473534 41.3825694,20.599633 Z" id="Path_134" fill="#FFFFFF" fill-rule="nonzero"></path>
                                <path d="M34.1776021,22.6231905 C33.9951406,21.9739532 33.3271204,21.5977596 32.6802115,21.7767549 C32.0348105,21.9587841 31.656316,22.630775 31.8387775,23.2815293 C32.019731,23.9322835 32.6877512,24.3115109 33.3346602,24.1294818 C33.9770453,23.9459357 34.3555398,23.2739447 34.1776021,22.6231905 Z" id="Path_135" fill="#FFFFFF" fill-rule="nonzero"></path>
                                <path d="M172.115479,111.526232 C170.666343,109.70594 170.509516,107.861377 171.109679,105.501066 C171.700794,103.142271 177.994961,89.1927704 167.219177,85.7478685 C160.083576,83.4649195 158.409755,90.1105007 157.468797,92.7150346 C156.532362,95.3241191 154.371475,106.594758 161.336679,106.699425 C161.976048,108.02217 161.074296,109.806056 160.240402,110.701032 C164.601383,111.533816 172.115479,111.526232 172.115479,111.526232 Z" id="Path_136" fill="#FFD8D8" fill-rule="nonzero"></path>
                                <path d="M243.789673,212.875515 C225.468126,216.180861 219.178482,211.812162 198.990097,213.09395 C186.303745,193.066192 205.52252,176.513674 185.911679,153.461198 C180.529819,155.46807 160.294688,163.014695 160.294688,163.014695 C162.448035,173.006579 175.568676,224.795391 190.403851,229.233869 C203.379729,233.114124 236.144385,220.93789 248.238114,221.135088 C247.996843,219.099396 247.378585,215.029527 246.775406,212.27937 C245.84048,212.479602 244.845235,212.684385 243.789673,212.875515 Z" id="Path_137" fill="#FF6F00"></path>
                                <path d="M258.673103,216.141422 C257.858812,213.770492 258.642944,213.002936 256.923885,211.384393 C255.461177,210.014624 251.992901,211.146238 246.775406,212.27937 C247.378585,215.029527 247.996843,219.099396 248.238114,221.135088 C249.957173,221.16391 251.254007,221.441504 252.023059,222.055853 C258.17548,226.972157 260.799307,234.374676 263.408054,232.806191 C264.62949,232.065939 260.99534,222.753631 258.673103,216.141422 Z" id="Path_138" fill="#FFC107" fill-rule="nonzero"></path>
                                <path d="M177.551625,113.341972 C182.363482,117.349647 201.481224,138.771445 205.842205,142.747265 C207.241579,144.02147 220.431585,172.90798 220.431585,172.90798 C220.431585,172.90798 227.157026,178.899773 226.327655,182.720868 C225.498285,186.541964 224.110974,186.632978 223.477637,186.710341 C221.960643,186.89237 219.418245,179.374566 217.816806,179.888798 C216.225923,180.407581 218.861813,183.940464 218.34308,184.127044 C217.822838,184.313624 214.387737,179.593001 214.95774,176.129896 C215.535284,172.663758 204.139734,152.599594 199.923516,148.036729 C194.598958,142.286125 176.708683,129.201262 176.708683,129.201262 L177.551625,113.341972 Z" id="Path_139" fill="#F5D3D4" fill-rule="nonzero"></path>
                                <path d="M185.911679,153.461198 L157.27578,164.143276 C157.679909,152.423632 155.405926,142.527314 150.016526,136.835869 C146.163724,132.773585 141.470995,127.593338 149.552079,117.337512 C152.61321,113.451189 158.409755,110.634288 160.69731,110.696482 C164.256063,110.799631 167.703228,110.901264 171.073488,111.150037 C174.210016,111.383642 176.876065,112.662396 177.551625,113.341972 C177.729563,116.026902 177.512419,118.905997 177.672261,122.452531 C177.940675,128.682479 178.670521,135.702737 185.911679,153.461198 Z" id="Path_140" fill="#FFC107"></path>
                                <path d="M155.279259,112.592619 C148.876519,112.333227 134.356504,113.894127 131.839742,110.327872 C129.327504,106.761618 130.609258,82.785344 131.488391,80.7951585 C132.373555,78.8080069 132.958638,78.1966923 133.335625,77.2546914 C133.717135,76.3126905 134.483172,73.8461954 134.483172,73.8461954 C133.680944,74.559143 131.945298,76.1003232 131.945298,76.1003232 C132.185062,74.4453748 132.058394,66.7485752 130.416241,67.4964117 C128.778611,68.2487989 125.32089,71.4161062 125.153508,75.9986902 C125.04192,79.0628477 126.406612,81.8539615 126.065816,83.7683015 C123.693816,97.0336763 120.709591,112.636609 125.393272,117.020478 C131.633153,122.862097 145.114193,123.069914 148.884059,123.396049 C152.747417,123.728252 156.674109,122.485903 157.889514,118.496431 C159.098887,114.506959 158.513804,112.72459 155.279259,112.592619 Z" id="Path_141" fill="#FFD8D8" fill-rule="nonzero"></path>
                                <path d="M225.61892,248.680651 C224.50304,248.439462 223.296683,248.161868 221.98477,247.806911 C203.990447,242.945215 192.368705,234.823681 173.564615,227.337732 C172.515085,190.326653 200.761934,173.164338 185.911679,153.461198 C180.268944,155.566669 157.27578,164.143276 157.27578,164.143276 C154.991241,174.106339 147.409287,227.897472 158.95714,238.265549 C169.256413,247.511113 211.370336,251.632557 222.844299,257.440804 C223.990338,255.132067 225.166536,251.793349 225.61892,248.680651 Z" id="Path_142" fill="#FF6F00"></path>
                                <path d="M234.380088,255.277691 C234.440406,253.780501 235.088823,252.615514 234.455485,251.676547 C233.279287,249.962439 230.278474,249.684845 225.61892,248.680651 C225.166536,251.793349 223.990338,255.132067 222.844299,257.440804 C224.23161,258.146167 225.166536,258.872767 225.543523,259.640323 C229.041958,266.724291 228.272906,273.862868 231.288798,274.239061 C232.63087,274.407438 234.184055,261.539494 234.380088,255.277691 Z" id="Path_143" fill="#FFC107" fill-rule="nonzero"></path>
                                <path d="M206.496654,108.449938 C200.777014,104.782051 208.253411,102.42629 206.579591,98.9738038 C203.575762,92.7559911 195.295629,96.3389317 195.168961,94.2319442 C195.055865,92.3494593 201.986386,93.6540016 201.429954,91.6926375 C200.663918,88.9713015 194.424036,89.4855339 187.009464,90.2819115 C179.382272,91.1040765 177.722023,85.8646706 173.44398,83.1478854 C166.373219,78.6578329 159.392936,82.9582717 158.6269,89.6099205 C161.308028,89.8116695 159.361269,94.3441955 160.831517,95.3711433 C161.3216,95.7154818 162.66518,93.2125809 163.67852,94.201606 C164.975353,95.4621579 159.601033,99.6594469 161.427156,102.411121 C161.65184,102.750909 162.095176,102.963276 162.695339,103.127102 L162.785815,103.15289 C164.72051,103.601895 168.807045,107.119609 166.457664,112.633575 C164.06757,118.226421 163.995188,122.452531 167.641402,122.628493 C170.630152,122.774116 169.758559,117.349647 172.902627,115.464129 C174.83129,114.306726 176.393522,117.492237 177.610435,120.00879 C178.706712,122.284154 183.188328,123.995228 184.462543,120.833989 C185.199929,119.01218 181.67435,116.512313 184.067461,116.491076 C187.850898,119.650799 191.311635,122.135497 192.833153,121.704695 C197.188101,120.480549 195.006103,115.822119 196.872941,114.930176 C198.208981,114.294591 207.389358,119.796422 210.287631,117.228294 C213.185903,114.657133 208.9154,110.003254 206.496654,108.449938 Z" id="Path_144" fill="#212121"></path>
                                <path d="M206.496654,108.449938 C200.777014,104.782051 208.253411,102.42629 206.579591,98.9738038 C203.575762,92.7559911 195.295629,96.3389317 195.168961,94.2319442 C195.055865,92.3494593 201.986386,93.6540016 201.429954,91.6926375 C200.663918,88.9713015 194.424036,89.4855339 187.009464,90.2819115 C179.382272,91.1040765 177.722023,85.8646706 173.44398,83.1478854 C166.373219,78.6578329 159.392936,82.9582717 158.6269,89.6099205 C159.098887,89.6463263 159.423095,89.8253217 159.655319,90.089264 L159.662859,90.089264 C162.012239,85.8039942 165.284482,82.6791603 169.766099,85.2230178 C174.246207,87.7608076 179.305367,93.1397693 185.650805,93.2201655 C191.994735,93.2960109 189.702656,97.1868842 193.324743,97.5008845 C201.82202,98.2274842 196.878972,101.895372 199.389703,105.596631 C201.894402,109.297891 210.767158,109.305475 211.218034,115.603684 C211.65383,113.027972 208.464524,109.71049 206.496654,108.449938 Z" id="Path_145" fill="#212121" fill-rule="nonzero"></path>
                                <path d="M184.067461,116.491076 C187.850898,119.650799 191.311635,122.135497 192.833153,121.704695 C196.308969,120.729322 195.619837,117.568082 196.15365,115.876728 C194.184272,122.156734 188.781301,114.616176 185.628185,112.856561 C182.244354,110.960424 181.620064,114.99692 179.557194,115.1835 C178.010041,115.321539 176.974082,111.204646 173.909935,111.533816 C170.847296,111.861468 169.238317,113.76974 169.594193,111.230434 C170.230546,106.675154 167.543386,103.430484 164.038919,102.315556 C160.540483,101.202144 161.478426,99.8505775 161.731761,98.8266635 C161.096916,100.069013 160.718421,101.347767 161.427156,102.411121 C161.65184,102.750909 162.095176,102.963276 162.695339,103.127102 L162.785815,103.15289 C164.72051,103.601895 168.807045,107.119609 166.457664,112.633575 C164.06757,118.226421 163.995188,122.452531 167.641402,122.628493 C170.630152,122.774116 169.758559,117.349647 172.902627,115.464129 C174.83129,114.306726 176.393522,117.492237 177.610435,120.00879 C178.706712,122.284154 183.188328,123.995228 184.462543,120.833989 C185.199929,119.01218 181.67435,116.512313 184.067461,116.491076 Z" id="Path_146" fill="#212121" fill-rule="nonzero"></path>
                            </g>
                        </g>
                    </g>
                </g>
            </g>
        </g>
    </g>
</svg>