<?xml version="1.0" encoding="UTF-8"?>
<svg width="230px" height="349px" viewBox="0 0 230 349" version="1.1" xmlns="http://www.w3.org/2000/svg" xmlns:xlink="http://www.w3.org/1999/xlink">
    <!-- Generator: Sketch 64 (93537) - https://sketch.com -->
    <title>CaseStudy</title>
    <desc>Created with Sketch.</desc>
    <g id="Landing" stroke="none" stroke-width="1" fill="none" fill-rule="evenodd">
        <g transform="translate(-147.000000, -3251.000000)" id="Case-Studies">
            <g transform="translate(0.000000, 2843.000000)">
                <g id="illustration" transform="translate(75.000000, 274.000000)">
                    <g id="CaseStudy" transform="translate(72.000000, 134.000000)">
                        <g id="Path_18" transform="translate(49.698689, 247.403128)" fill="#BBDEFB" fill-rule="nonzero">
                            <path d="M115.552566,0.0735918219 L8.55186678,0.0735918219 C3.7952664,0.0735918219 0.095688335,3.77771352 0.095688335,8.54445653 L0.095688335,30.5183055 C0.095688335,56.2018514 20.9668719,77.1175392 46.5946559,77.1175392 L77.5064387,77.1175392 C103.134223,77.1175392 124.008744,56.2018514 124.008744,30.5183055 L124.008744,8.54445653 C124.008744,4.04309009 120.309166,0.0735918219 115.552566,0.0735918219 Z" id="Path"></path>
                        </g>
                        <g id="Path_19" transform="translate(49.698689, 247.403128)" fill="#2196F3" fill-rule="nonzero">
                            <path d="M115.552566,0.0735918219 L8.55186678,0.0735918219 C3.7952664,0.0735918219 0.095688335,3.77771352 0.095688335,8.54445653 L0.095688335,30.5183055 C0.095688335,55.9364748 20.1757742,76.5901311 45.2772723,77.1175392 L45.2772723,61.4960024 C45.2772723,56.7292594 49.2383243,52.7586461 53.9949247,52.7586461 L118.196234,52.7586461 C121.100264,47.4644951 122.949497,41.3730993 123.47912,35.019672 L52.4082786,35.019672 C47.6550161,35.019672 43.6895135,31.0501737 43.6895135,26.2834307 C43.6895135,21.5166877 47.6550161,17.5460744 52.4082786,17.5460744 L123.743932,17.5460744 L123.743932,8.54445653 C124.008744,4.04309009 120.309166,0.0735918219 115.552566,0.0735918219 Z" id="Path"></path>
                        </g>
                        <g id="Path_20" transform="translate(73.660557, 317.708333)" fill="#2196F3" fill-rule="nonzero">
                            <path d="M0.0899343188,0.0419812793 L5.30064101,6.24046044 C7.64112682,9.20297721 10.7701831,11.0875963 14.4136197,11.8988561 L24.8328396,14.5901965 C29.2593629,15.6714981 33.9480118,31.0264347 38.6333705,31.0264347 C43.3231162,31.0264347 47.7496395,15.6714981 52.4382884,14.5901965 L62.854218,11.8988561 C66.2399161,11.0875963 69.6256142,8.93293547 71.970487,6.24046044 L77.1779035,0.0419812793 L0.0899343188,0.0419812793 Z" id="Path"></path>
                        </g>
                        <g id="Path_21" fill="#FFECB3" fill-rule="nonzero">
                            <path d="M111.426956,0.0928121729 C90.8702383,0.0928121729 70.0493467,5.91424124 52.1265972,17.2911418 C45.272508,21.7891339 38.6837025,26.8141387 32.6232447,32.9009682 C-10.8655351,76.5527727 -10.8655351,147.455479 32.6232447,191.375804 C46.8553308,205.66197 54.7627853,229.736311 54.4986115,247.461988 L168.884758,247.461988 C168.358631,229.736311 176.531369,205.66197 190.763455,191.375804 C198.931753,183.173124 205.259715,174.17714 210.529871,164.654143 C232.930256,122.32377 226.34145,68.6152706 190.763455,32.9009682 C168.623914,10.9391346 140.155302,0.0928121729 111.426956,0.0928121729 Z" id="Path"></path>
                        </g>
                        <g id="Path_23" transform="translate(43.486353, 41.827148)" fill="#00838F" fill-rule="nonzero">
                            <path d="M3.47528897,3.73318932 C1.3715039,5.82628838 0.0553919185,8.70746844 0.0553919185,11.8476681 C0.0553919185,18.1280675 5.31873201,23.3657751 11.631195,23.3657751 L88.1795029,23.3657751 L88.1795029,0.0716437277 L11.631195,0.0716437277 C8.47496353,0.333969992 5.57907403,1.64009026 3.47528897,3.73318932 Z" id="Path"></path>
                        </g>
                        <g id="Path_24" transform="translate(119.809339, 42.717087)" fill="#00BCD4" fill-rule="nonzero">
                            <path d="M0.0289231276,11.5588888 C0.0289231276,17.8392882 5.3107312,23.0736892 11.6493459,23.0736892 L62.3649377,23.0736892 L62.3649377,19.670061 L11.6493459,19.670061 C7.15847409,19.670061 3.45965104,16.0085154 3.45965104,11.5588888 C3.45965104,7.11036442 7.15847409,3.44440999 11.6493459,3.44440999 L62.3649377,3.44440999 L62.3649377,0.0418840254 L11.6493459,0.0418840254 C5.3107312,-0.217135605 0.0289231276,5.01616315 0.0289231276,11.5588888 Z" id="Path"></path>
                        </g>
                        <g id="Path_25" transform="translate(69.223174, 41.827148)" fill="#00838F" fill-rule="nonzero">
                            <path d="M37.1196545,0.00330663359 L10.9733244,0.00330663359 C8.04096271,0.262326264 5.37487294,1.57175316 3.50535192,3.40252596 C1.37068248,5.49562502 0.0370758376,8.37680508 0.0370758376,11.5170048 C0.0370758376,17.5350779 4.84008207,22.509357 10.9733244,23.0351118 L37.1196545,23.0351118 C30.9852886,22.509357 26.1822824,17.5350779 26.1822824,11.5170048 C26.1822824,8.37680508 27.5170125,5.49562502 29.6505585,3.40252596 C31.516709,1.57175316 34.1861693,0.262326264 37.1196545,0.00330663359 Z" id="Path"></path>
                        </g>
                        <g id="Path_26" transform="translate(123.359245, 45.386905)" fill="#00BCD4" fill-rule="nonzero">
                            <path d="M56.0038552,0.100939341 L8.08531462,0.100939341 C3.65769455,0.100939341 0.0109675999,3.95867852 0.0109675999,8.64249599 C0.0109675999,13.3263135 3.65769455,17.1840526 8.08531462,17.1840526 L56.0038552,17.1840526 C51.5762351,17.1840526 47.9295081,13.3263135 47.9295081,8.64249599 C47.9295081,3.95867852 51.5762351,0.100939341 56.0038552,0.100939341 Z" id="Path"></path>
                        </g>
                        <g id="Path_27" transform="translate(31.061680, 105.012838)" fill="#2196F3" fill-rule="nonzero">
                            <path d="M2.92370151,3.15673286 C1.06590954,4.98860787 0.00335543402,7.60635946 0.00335543402,10.4842329 C0.00335543402,16.2432864 4.78596739,20.692913 10.3593433,20.692913 L91.0989151,20.692913 L91.0989151,0.0165331679 L10.3593433,0.0165331679 C7.43899721,0.27665501 4.78596739,1.32596007 2.92370151,3.15673286 Z" id="Path"></path>
                        </g>
                        <g id="Path_28" transform="translate(111.822050, 105.012838)" fill="#387BFE" fill-rule="nonzero">
                            <path d="M0.0834155482,10.8148962 C0.0834155482,16.5739497 4.8381018,21.0235763 10.3846797,21.0235763 L63.2022926,21.0235763 L63.2022926,17.8833766 L10.3846797,17.8833766 C6.4207728,17.8833766 2.99072546,14.7431769 2.99072546,10.55257 C2.99072546,6.62759592 6.15940408,3.22506996 10.3846797,3.22506996 L63.2022926,3.22506996 L63.2022926,0.084870262 L10.3846797,0.084870262 C4.57339646,0.607318369 0.0834155482,5.31927123 0.0834155482,10.8148962 Z" id="Path"></path>
                        </g>
                        <g id="Path_29" transform="translate(67.448220, 105.902778)" fill="#2196F3" fill-rule="nonzero">
                            <path d="M32.3313876,0.0537687374 L9.67122956,0.0537687374 C7.06971487,0.304689512 4.98696766,1.30520974 3.16086228,2.80862581 C1.33914394,4.56085408 0.0361930795,7.06479038 0.0361930795,9.81753888 C0.0361930795,15.075278 4.20278427,19.3314425 9.41458772,19.5823633 L32.0703587,19.5823633 C26.8629423,19.0794675 22.6930609,14.8233029 22.6930609,9.81753888 C22.6930609,7.06479038 23.7338861,4.56085408 25.8210203,2.80862581 C27.6427387,1.30520974 29.7254859,0.304689512 32.3313876,0.0537687374 Z" id="Path"></path>
                        </g>
                        <g id="Path_30" transform="translate(115.371956, 109.462535)" fill="#B2EBF2" fill-rule="nonzero">
                            <path d="M58.53813,0.00311212573 L7.50254698,0.00311212573 C3.5335582,0.00311212573 0.0991133563,2.95859419 0.0991133563,6.89854536 C0.0991133563,10.5926386 3.27185439,13.795016 7.50254698,13.795016 L58.53813,13.795016 C54.5691412,13.795016 51.1346964,10.8395339 51.1346964,6.89854536 C51.1346964,2.95859419 54.3074374,0.00311212573 58.53813,0.00311212573 Z" id="Path"></path>
                        </g>
                        <g id="Path_31" transform="translate(64.785791, 157.519258)" fill="#FF6F00" fill-rule="nonzero">
                            <path d="M129.203075,0.0915110845 L0.0377445937,0.0915110845 L0.0377445937,36.3050457 L129.203075,36.3050457 C138.955611,36.3050457 146.864214,28.2599786 146.864214,18.3315908 C146.864214,8.40546258 138.955611,0.0915110845 129.203075,0.0915110845 Z" id="Path"></path>
                        </g>
                        <g id="Path_32" transform="translate(10.649719, 161.968954)" fill="#FFC108" fill-rule="nonzero">
                            <path d="M71.8047608,0.0477861886 L0.00783894769,0.0477861886 C3.73245895,3.56007105 5.85905347,8.42402239 5.85905347,14.0980634 C5.85905347,19.5001782 3.46481488,24.6315047 0.00783894769,28.1437895 L71.8047608,28.1437895 C79.2495214,28.1437895 85.3639006,21.931585 85.3639006,14.0980634 C85.3639006,6.53077911 79.2495214,0.0477861886 71.8047608,0.0477861886 Z" id="Path"></path>
                        </g>
                        <g id="Path_33" transform="translate(7.987289, 157.519258)" fill="#FFC107" fill-rule="nonzero">
                            <path d="M73.8278608,0.0892791068 L0.00894612067,0.0892791068 L0.00894612067,4.27657944 L73.8278608,4.27657944 C81.2620871,4.27657944 87.3678145,10.2946526 87.3678145,17.8844789 C87.3678145,25.4765096 81.2620871,31.4945827 73.8278608,31.4945827 L0.00894612067,31.4945827 L0.00894612067,35.681883 L73.8278608,35.681883 C83.6529379,35.681883 91.6194583,27.8297305 91.6194583,18.1468051 C91.6194583,8.46387977 83.6529379,0.0892791068 73.8278608,0.0892791068 Z" id="Path"></path>
                        </g>
                        <g id="Path_34" transform="translate(97.622424, 64.965570)" fill="#FF6F00" fill-rule="nonzero">
                            <path d="M73.4678744,0.0374751806 L0.0166302194,0.0374751806 L0.0166302194,17.5725531 L73.4678744,17.5725531 C78.2074869,17.5725531 82.1543923,13.647579 82.1543923,8.6732999 C82.1543923,3.7023274 78.468027,0.0374751806 73.4678744,0.0374751806 Z" id="Path"></path>
                        </g>
                        <g id="Path_35" transform="translate(39.048970, 67.635387)" fill="#FFC107" fill-rule="nonzero">
                            <path d="M67.0168979,0.0363729694 L0.0732582815,0.0363729694 C1.91692503,1.60812613 2.9714003,4.2236733 2.9714003,6.84142489 C2.9714003,9.46027869 1.91692503,11.8168062 0.0732582815,13.647579 L67.0168979,13.647579 C70.7086713,13.647579 73.8709871,10.5073793 73.8709871,6.84142489 C73.8709871,3.1798793 70.7086713,0.0363729694 67.0168979,0.0363729694 Z" id="Path"></path>
                        </g>
                        <g id="Path_36" transform="translate(38.161493, 65.855509)" fill="#FF6F00" fill-rule="nonzero">
                            <path d="M67.9876287,0.0374751806 L0.0144236691,0.0374751806 L0.0144236691,2.13057424 L67.9876287,2.13057424 C71.6778689,2.13057424 74.8388715,5.27408057 74.8388715,8.93562616 C74.8388715,12.6015806 71.9386045,15.7417803 67.9876287,15.7417803 L0.0144236691,15.7417803 L0.0144236691,17.8348794 L67.9876287,17.8348794 C72.7274682,17.8348794 76.6817726,13.9110075 76.6817726,8.93562616 C76.6817726,3.96465367 72.9915323,0.0374751806 67.9876287,0.0374751806 Z" id="Path"></path>
                        </g>
                        <g id="Path_37" transform="translate(0.000000, 193.116830)" fill="#1565C0" fill-rule="nonzero">
                            <path d="M6.686071,6.67358017 C2.72773927,10.6759295 0.093294014,16.2825912 0.093294014,22.6885986 C0.093294014,35.2364133 10.114626,45.1129972 22.2461798,45.1129972 L141.712497,45.1129972 L141.712497,0 L22.2461798,0 C16.1787369,0.264200024 10.6444027,2.66673385 6.686071,6.67358017 Z" id="Path"></path>
                        </g>
                        <g id="Path_38" transform="translate(122.471769, 193.116830)" fill="#1565C0" fill-rule="nonzero">
                            <path d="M0.0405801195,22.4637475 C0.0405801195,35.0115623 9.93774223,44.8881461 21.9165548,44.8881461 L107.334416,44.8881461 L107.334416,38.214566 L21.9165548,38.214566 C13.3234403,38.214566 6.55204416,31.0080887 6.55204416,22.4637475 C6.55204416,13.9216549 13.3234403,6.71630187 21.9165548,6.71630187 L107.334416,6.71630187 L107.334416,0.0393489397 L21.9165548,0.0393489397 C9.6756166,0.0393489397 0.0405801195,9.9159328 0.0405801195,22.4637475 Z" id="Path"></path>
                        </g>
                        <g id="Path_39" transform="translate(60.348408, 193.116830)" fill="#1565C0" fill-rule="nonzero">
                            <path d="M50.8754055,0.0393489397 L14.9367742,0.0393489397 C11.0323087,0.306921729 7.38448499,2.97815261 4.7829703,6.71630187 C1.9160397,10.7197754 0.0943213588,16.3253129 0.0943213588,22.7313203 C0.0943213588,34.4786652 6.60468864,44.3552491 14.9367742,45.1557189 L50.8754055,45.1557189 C42.5433199,44.3552491 36.0329526,34.4786652 36.0329526,22.7313203 C36.0329526,16.589513 37.8546709,10.7197754 40.7216015,6.71630187 C43.3231162,2.70945556 46.709911,0.306921729 50.8754055,0.0393489397 Z" id="Path"></path>
                        </g>
                        <g id="Path_41" transform="translate(104.722237, 82.764356)" fill="#1565C0" fill-rule="nonzero">
                            <path d="M79.7609035,0.0492908847 L0.0872412844,0.0492908847 L0.0872412844,22.6405643 L79.7609035,22.6405643 C85.8711489,22.6405643 90.6492869,17.7435722 90.6492869,11.4813372 C90.6492869,8.48834886 89.3238905,5.49192159 87.4627431,3.58791788 C85.3376349,1.41109486 82.684605,0.0492908847 79.7609035,0.0492908847 Z" id="Path"></path>
                        </g>
                        <g id="Path_42" transform="translate(41.711400, 82.764356)" fill="#2196F3" fill-rule="nonzero">
                            <path d="M62.5017167,0.0492908847 L0.0299736479,0.0492908847 L0.0299736479,3.31509857 L62.5017167,3.31509857 C66.71912,3.31509857 70.1461071,6.85372557 70.1461071,11.2119568 C70.1461071,15.5656029 66.71912,19.1053762 62.5017167,19.1053762 L0.0299736479,19.1053762 L0.0299736479,22.3700375 L62.5017167,22.3700375 C68.5663848,22.3700375 73.308882,17.1967872 73.308882,11.2119568 C73.308882,5.22254117 68.5663848,0.0492908847 62.5017167,0.0492908847 Z" id="Path"></path>
                        </g>
                        <path d="M171.246629,82.8136466 L157.976535,82.8136466 C160.414063,83.0864659 162.85273,84.1754506 164.475847,86.0794543 C166.373856,87.9868969 167.457455,90.9798853 167.457455,93.9763126 C167.457455,99.961143 163.392248,104.861574 157.976535,105.134393 L171.246629,105.134393 C176.394294,104.588755 180.727549,99.6917626 180.727549,93.9763126 C180.727549,90.9798853 179.64395,87.9868969 177.745941,86.0794543 C176.122824,84.1754506 173.684156,83.0864659 171.246629,82.8136466 Z" id="Path" fill="#1565C0" fill-rule="nonzero"></path>
                        <path d="M150.896262,82.8136466 C150.896262,82.8136466 137.626168,82.8136466 137.626168,82.8136466 C140.063695,83.0864659 142.502363,84.1754506 144.12548,86.0794543 C146.023489,87.9868969 147.105947,90.9798853 147.105947,93.9763126 C147.105947,99.961143 143.041881,104.861574 137.626168,105.134393 L150.896262,105.134393 C156.043927,104.588755 160.377182,99.6917626 160.377182,93.9763126 C160.377182,90.9798853 159.293583,87.9868969 157.398996,86.0794543 C155.772457,84.1754506 153.333789,83.0864659 150.896262,82.8136466 Z" id="Path" fill="#1565C0" fill-rule="nonzero"></path>
                        <g id="Path_45" transform="translate(42.598876, 86.324113)" fill="#B2EBF2" fill-rule="nonzero">
                            <path d="M60.7730091,0.107036954 L0.0977683187,0.107036954 C4.31847108,0.107036954 7.74813926,3.69859213 7.74813926,8.1220106 C7.74813926,12.5407753 4.31847108,16.1334939 0.0977683187,16.1334939 L60.7730091,16.1334939 C64.9937119,16.1334939 68.4233801,12.5407753 68.4233801,8.1220106 C68.4233801,3.69859213 64.9937119,0.107036954 60.7730091,0.107036954 Z" id="Path"></path>
                        </g>
                        <path d="M202.022449,125.533247 L129.622032,125.533247 L129.622032,157.204183 L202.022449,157.204183 C210.615564,157.204183 217.649086,150.136805 217.649086,141.499878 C217.649086,132.864053 210.615564,125.533247 202.022449,125.533247 Z" id="Path" fill="#2196F3" fill-rule="nonzero"></path>
                        <g id="Path_47" transform="translate(132.234011, 130.821078)" fill="#2196F3" fill-rule="nonzero">
                            <path d="M70.355806,0.0540083486 L0.0665208774,0.0540083486 L0.0665208774,23.3437309 L70.355806,23.3437309 C76.9369381,23.3437309 81.9404168,18.1104321 81.9404168,11.5677065 C81.9404168,5.2873071 76.6719633,0.0540083486 70.355806,0.0540083486 Z" id="Path"></path>
                        </g>
                        <g id="Path_48" transform="translate(44.373829, 130.821078)" fill="#B2EBF2" fill-rule="nonzero">
                            <path d="M90.4072725,0.0540083486 L0.0424080528,0.0540083486 C6.6669923,0.0540083486 11.7035066,5.2873071 11.7035066,11.8300328 C11.7035066,18.3727584 6.40138397,23.6071594 0.0424080528,23.6071594 L90.4072725,23.6071594 C97.0318568,23.6071594 102.065023,18.3727584 102.065023,11.8300328 C102.065023,5.2873071 96.7662485,0.0540083486 90.4072725,0.0540083486 Z" id="Path"></path>
                        </g>
                        <rect id="Rectangle" fill="#2196F3" x="41.7136152" y="125.534349" width="88.1240002" height="5.33963585"></rect>
                        <rect id="Rectangle" fill="#2196F3" x="41.7136152" y="154.66698" width="88.1240002" height="2.66981793"></rect>
                        <g id="Path_50" transform="translate(79.872893, 14.239029)" fill="#FF6F00" fill-rule="nonzero">
                            <path d="M6.17728971,0.0220442239 C6.17728971,3.42126355 3.37211513,6.30244361 0.00708675683,6.56476988 C3.65322315,7.08611577 6.17728971,9.70496957 6.17728971,13.1074955 C6.17728971,9.70496957 8.98364541,6.82378951 12.3486738,6.56476988 C8.70253739,6.30244361 6.17728971,3.42126355 6.17728971,0.0220442239 Z" id="Path"></path>
                        </g>
                        <g id="Path_51" transform="translate(93.185041, 9.789332)" fill="#FF6F00" fill-rule="nonzero">
                            <path d="M4.64839785,0.0495995038 C4.64839785,2.40612704 2.64450768,4.4992261 0.0651475432,4.76155236 C2.64450768,5.02057199 4.64839785,7.11367105 4.64839785,9.47019859 C4.64839785,7.11367105 6.65228802,5.02057199 9.23164815,4.76155236 C6.65228802,4.4992261 4.64839785,2.40612704 4.64839785,0.0495995038 Z" id="Path"></path>
                        </g>
                        <g id="Path_52" transform="translate(99.397378, 11.569211)" fill="#FF6F00" fill-rule="nonzero">
                            <path d="M0.337925931,0.00495814348 L0.337925931,0.67817392 L0.337925931,0.00495814348 Z" id="Path"></path>
                        </g>
                        <g id="Path_53" transform="translate(7.099813, 92.553688)" fill="#FF6F00" fill-rule="nonzero">
                            <path d="M9.43761968,0.0756557764 C9.43761968,5.7922521 5.27212525,10.4187175 0.0636120792,11.2348828 C5.27212525,11.7805214 9.43761968,16.6809524 9.43761968,22.3975487 C9.43761968,16.6809524 13.6042109,12.0533407 18.8149176,11.2348828 C13.6042109,10.4187175 9.43761968,5.7922521 9.43761968,0.0756557764 Z" id="Path"></path>
                        </g>
                        <g id="Path_54" transform="translate(17.749532, 92.553688)" fill="#FF6F00" fill-rule="nonzero">
                            <path d="M0.374670119,0.0219574925 C0.374670119,0.0219574925 0.374670119,1.53669299 0.374670119,0.0219574925 C0.374670119,1.53669299 0.374670119,0.0219574925 0.374670119,0.0219574925 Z" id="Path"></path>
                        </g>
                    </g>
                </g>
            </g>
        </g>
    </g>
</svg>