<?xml version="1.0" encoding="UTF-8"?>
<svg width="338px" height="339px" viewBox="0 0 338 339" version="1.1" xmlns="http://www.w3.org/2000/svg" xmlns:xlink="http://www.w3.org/1999/xlink">
    <!-- Generator: Sketch 64 (93537) - https://sketch.com -->
    <title>Register</title>
    <desc>Created with Sketch.</desc>
    <g id="Forms" stroke="none" stroke-width="1" fill="none" fill-rule="evenodd">
        <g id="Register" transform="translate(-911.000000, -434.000000)">
            <g id="Right-Side" transform="translate(835.000000, 216.000000)">
                <g id="Register" transform="translate(76.000000, 218.000000)">
                    <g id="Group" transform="translate(0.000000, 18.000000)">
                        <g>
                            <g id="color_6" transform="translate(194.317170, 0.013504)" fill="#212121">
                                <path d="M25.3844617,2.35953398 C25.7090598,2.43127061 26.0336578,2.52024006 26.3575078,2.61586218 C27.5339886,2.96380487 28.6947631,3.46620174 29.7598036,4.1174421 C30.4740688,4.55267103 31.1427107,5.05442668 31.7440398,5.62030445 C33.1583597,6.95324317 34.1912395,8.63725054 34.5031228,10.6450746 C34.7948123,12.5150362 34.4245911,14.4274786 34.473206,16.3222875 C34.5195771,18.1714093 34.9638426,19.9796533 35.1949504,21.8135462 C36.1837028,29.6332396 33.3139274,37.2974368 30.2018253,44.5223975 L30.0013823,43.0940771 L18.8573493,44.2667105 L15.9075462,37.3319025 C16.3316178,37.5459101 16.7998167,37.6765589 17.2979326,37.6861772 C19.1879306,37.7246505 20.7480953,36.1143836 20.7839955,34.0897274 L20.8228874,31.936827 C20.8587877,29.9113693 19.356213,28.2393848 17.4669629,28.2009116 C16.4400664,28.1792703 15.5201227,28.6553771 14.8799018,29.4112167 L14.4072153,29.3687358 L13.760263,21.2548821 L10.7094905,18.9833558 L10.7842827,14.4395015 L7.05364934,14.017097 L6.08583869,23.8309886 C5.97140668,23.7123627 5.86221011,23.5913321 5.74254264,23.4767138 C4.48229461,22.2591949 2.99318255,21.3246149 1.80249124,20.0285464 C0.612547854,18.7324779 -0.275983099,16.9017912 0.101717348,15.1296159 C0.621522914,12.6921736 3.30431797,11.2093494 3.56010719,8.72381541 C3.7366167,7.00935003 2.6670887,5.34858694 2.87201924,3.63844981 C3.11733755,1.59327456 5.137474,0.262580111 7.05514519,0.0939389164 C8.97356429,-0.0747022782 10.8545873,0.598259447 12.7423416,0.997018926 C16.3308698,1.75598445 20.0480406,1.5371677 23.6672336,2.05447296 C24.2423853,2.1355073 24.8152933,2.23305308 25.3844617,2.35953398 Z" id="Path"></path>
                            </g>
                            <g id="color_5" transform="translate(149.292285, 13.960067)" fill="#FFD8D8">
                                <path d="M95.4692105,61.4859063 L97.5955518,59.8331585 L109.397756,76.9922397 C111.306452,79.7671248 111.821022,83.3691853 110.773932,86.6289939 C109.889888,89.3846423 107.975209,91.6209015 105.489865,92.8023517 L99.6889846,95.5612062 C99.0869076,83.9767424 97.7593467,72.4844542 95.5574652,61.8858681 C95.5290442,61.7512116 95.4976315,61.6213643 95.4692105,61.4859063 Z M87.6863375,284.820871 L90.5665839,287.078771 C91.558328,287.856252 92.7213462,288.309115 93.8940874,288.376443 L98.8864646,288.660183 L98.7862431,282.39465 L87.2675014,282.423505 L87.6863375,284.820871 Z M61.0663091,288.458199 L66.0055839,288.742741 L67.0025635,282.474803 L55.4830738,282.503658 L55.4830738,284.901825 L57.9669217,287.160527 C58.8217962,287.938809 59.9055347,288.391672 61.0663091,288.458199 Z M63.8829822,30.3193463 L60.933927,23.3845383 C61.3572507,23.5985459 61.8254496,23.7291947 62.3235655,23.738813 C64.2135636,23.7772863 65.7737282,22.1670194 65.8103763,20.1423632 L65.8485204,17.9886613 C65.8844206,15.9640051 64.3825939,14.2920206 62.4925958,14.2527458 C61.4656993,14.2319061 60.5457557,14.7080129 59.9055347,15.463051 L59.4328482,15.4213716 L58.7858959,7.30751793 L55.7351234,5.03599157 L55.8099156,0.492137327 L52.0792823,0.0697328134 L51.1114716,9.88362439 L49.8422485,22.7529353 L49.8041045,23.1464849 L49.7397833,23.7933168 C49.2349361,28.9134687 52.6993093,33.5022084 57.4762851,34.0432389 L59.4934299,34.1690786 L60.4530134,41.0069019 C65.4274404,37.9859482 71.0690137,36.7243453 76.1601165,37.2228949 L76.0262385,36.2642691 L75.9529422,35.7440783 L75.2274582,30.5742318 L75.0277631,29.1467129 L63.8829822,30.3193463 Z M33.5308247,57.5576245 L25.9237133,62.3331199 L14.7048881,31.6138118 L11.2861381,18.5401116 L0.0620774993,13.4728605 L0.0620774993,14.951677 L5.23769551,18.5401116 L0.569168397,20.7507219 L0.0620774993,24.9587365 L3.32825147,27.5757208 L4.81362392,26.8920186 L4.81362392,29.0529343 L8.1560859,32.1692697 L11.8396002,70.4798362 C12.1185749,73.3781563 13.5104572,76.021591 15.6809259,77.7769342 C18.248541,79.8520866 21.6037177,80.4444147 24.656734,79.3591477 L34.7843414,75.7586903 L43.5365209,72.6471641 L38.1163325,54.6777394 L33.5308247,57.5576245 Z" id="Shape"></path>
                            </g>
                            <g id="color_4" transform="translate(0.007118, 159.597448)" fill="#1565C0">
                                <path d="M337.522095,157.804555 C337.522095,159.359517 336.345614,160.619517 334.895394,160.619517 L2.65886156,160.619517 C1.20789351,160.619517 0.0321606321,159.358715 0.0321606321,157.804555 C0.0321606321,156.251197 1.20864143,154.990395 2.65886156,154.990395 L334.895394,154.990395 C336.346362,154.990395 337.522095,156.249594 337.522095,157.804555 Z M239.852499,141.44139 C239.852499,141.44139 236.973,139.183489 236.973,139.183489 L236.203389,138.57994 L233.362034,143.583069 C231.847493,146.19845 228.484837,147.214786 225.59038,147.855206 L220.007893,149.092763 C219.370664,149.233831 218.771578,149.462266 218.212881,149.760434 C217.470195,146.18242 216.408146,143.169481 216.408146,143.169481 L215.292247,143.105359 L210.352224,142.820817 C209.19145,142.75429 208.108459,142.300626 207.252837,141.523146 L204.769737,139.264444 L204.105582,138.660894 L200.389907,143.666428 C198.417638,146.283412 194.87922,147.299748 191.874071,147.94177 L186.076182,149.179328 C183.571392,149.714747 181.34483,151.438831 180.041202,153.852228 L179.820565,154.261006 L213.644575,154.176044 L251.840935,154.080663 C252.419079,148.98135 249.300993,143.088527 249.300993,143.088527 L248.173127,143.024405 L243.181498,142.740664 C242.006513,142.671733 240.844243,142.218871 239.852499,141.44139 Z M199.321875,0.03526717 C198.784867,12.7691201 198.442319,25.652057 198.664452,38.3939252 C198.809549,46.7466338 199.190989,55.0400294 199.92844,63.1843411 C199.941154,63.331822 199.956861,63.4785014 199.971071,63.6259823 C200.299409,67.1951802 200.692815,70.7363247 201.165502,74.2414005 C201.785529,78.8469722 202.260459,83.4445288 202.629185,88.0444899 C202.63816,88.1623143 202.646387,88.2785356 202.65611,88.39636 C203.181899,95.0594506 203.481815,101.726549 203.629904,108.428914 C203.634391,108.607655 203.639627,108.787197 203.643366,108.966738 C203.783228,115.624218 203.781732,122.316164 203.726386,129.069827 C203.72489,129.23414 203.72489,129.398453 203.723394,129.563567 C203.7032,131.991391 203.676275,134.424826 203.64561,136.870284 L204.768241,136.867078 L216.28773,136.838223 L217.636981,136.835016 C219.083462,132.50517 220.265926,128.016621 221.197088,123.455935 C221.238972,123.253148 221.277116,123.049561 221.317504,122.846774 C222.539608,116.693455 223.292017,110.411089 223.490964,104.180022 C223.497695,103.982045 223.511158,103.783266 223.516393,103.58609 C223.737778,95.2125422 222.970411,86.9576198 221.112573,79.2685752 C221.086396,79.1595676 221.061714,79.05056 221.034789,78.9415524 C220.954014,78.6169341 220.884457,78.2859036 220.80069,77.9628884 C219.70648,73.7572784 219.29288,69.4723172 219.358697,65.1264401 C220.18889,68.1682335 221.054235,71.1947979 221.983154,74.1884997 C222.342156,75.3459041 222.685452,76.502507 223.027253,77.6591098 C223.058665,77.7657129 223.091574,77.8715144 223.122987,77.9773159 C226.095975,88.094986 228.426499,98.1894119 230.434669,108.360784 C230.470569,108.540326 230.507217,108.719067 230.54237,108.89941 C231.107051,111.776089 231.640319,114.663989 232.162368,117.555897 C232.194529,117.737042 232.226689,117.918989 232.25885,118.100935 C233.368766,124.284713 234.406881,130.503758 235.42929,136.790131 L236.552668,136.786925 L248.07141,136.75807 L249.420661,136.754864 C250.940438,127.215094 251.104232,116.927501 249.883624,106.716853 C249.860439,106.520479 249.835009,106.322502 249.80958,106.126128 C249.726561,105.456052 249.655508,104.783571 249.559774,104.114296 C249.531353,103.916319 249.511159,103.717541 249.481242,103.519564 C248.166396,94.6763209 245.785013,85.9589177 242.278757,77.9083846 C240.504686,73.8366295 239.356627,69.6887294 238.652832,65.485524 C238.630395,65.350066 238.610201,65.2138065 238.588511,65.0775469 C238.266905,63.0721274 238.036545,61.0538835 237.904163,59.0236166 C237.89444,58.8729296 237.880229,58.7230441 237.871254,58.5707541 C236.837626,41.1102988 242.106735,22.8058361 243.410362,4.68251834 C229.20359,7.34358662 211.904909,7.6834339 199.321875,0.03526717 Z" id="Shape"></path>
                            </g>
                        </g>
                        <g id="color_2_8" transform="translate(187.361498, 49.628000)" fill="#2196F3">
                            <path d="M39.5687964,1.74572491 C39.0826473,1.66236615 38.589019,1.60465623 38.0909031,1.55576311 C33.0005482,1.05721357 27.3582271,2.31881643 22.3838,5.33977015 C21.0001449,6.18057154 19.671836,7.15923551 18.4190672,8.26774678 L0.046371144,19.0114092 L5.46655954,36.9808338 L12.0766913,34.6307579 C15.7878787,57.2867085 13.5074655,88.3867417 10.4290199,109.019639 C10.9323712,109.364296 11.4469413,109.688914 11.9674948,110.005517 C24.5505291,117.652882 41.8492096,117.313035 56.0552339,114.652768 C57.1696372,114.445173 58.2660904,114.223951 59.3386101,113.989104 C61.6354775,98.0627707 62.6025403,78.8565906 61.6175274,59.894876 C61.0161984,48.3104122 59.6886374,36.8181239 57.486756,26.2195378 C57.458335,26.0840798 57.4269223,25.9542325 57.3992492,25.8187745 L59.5255905,24.1660267 L55.3529354,18.1000735 C54.9154013,16.7823638 54.4412189,15.5263716 53.924405,14.3385092 C60.5435119,21.3101875 66.387024,29.3559114 71.2081271,38.4099557 C91.2569156,76.0560567 88.36919,121.121889 67.3181864,154.944708 C67.41766,155.017647 67.5156378,155.0978 67.6106238,155.184365 C73.7525566,145.335206 78.4367901,134.379941 81.436704,122.619942 C88.7371675,93.9894126 85.1980021,64.0267456 71.4706476,38.2496504 C66.5194061,28.9543466 60.4530134,20.6096532 53.4726604,13.3654559 C51.0284523,8.17076206 47.7054363,4.39557182 43.0077402,2.6434347 C42.1917577,2.33965612 41.3353874,2.11442715 40.4640586,1.92446534 C39.6129237,1.29366392 38.751318,0.679694549 37.8829809,0.0761450261 L37.9555293,0.596335783 C38.4977725,0.973053281 39.0347803,1.35698452 39.5687964,1.74572491 Z" id="Path"></path>
                        </g>
                    </g>
                    <g id="color_3" transform="translate(21.000000, 44.000000)" fill="#FF6F00">
                        <polygon id="Path" points="0.00533076491 0.0325802305 36.3885628 0.0325802305 45.909309 134.592111 91.9587409 134.592111 93.4376474 155.492726 11.0042219 155.492726 5.78159532 81.6683075 5.67878771 80.2172953"></polygon>
                    </g>
                    <g id="Group" transform="translate(5.000000, 254.000000)">
                        <g id="color_2" transform="translate(281.854710, 35.118052)" fill="#FFC107">
                            <path d="M21.1668384,27.172277 C20.8917405,27.5980423 20.6158951,28.0230249 20.3363119,28.4480075 C19.4556997,29.7871332 17.4582498,28.3728725 18.3381145,27.0329641 C19.1036043,25.8683709 19.8563857,24.6982991 20.5650618,23.4992689 C20.2391306,21.9934373 19.822746,20.5087375 19.3024522,19.0631705 C19.0602465,18.3885203 18.7888863,17.7263927 18.5055654,17.0697437 C17.8409947,18.4519155 17.1659583,19.8270434 16.3571107,21.1270363 C15.5078955,22.491207 13.5126884,21.073033 14.3589134,19.7127756 C15.4316456,17.9885827 16.2703951,16.1321209 17.1607255,14.3046174 C16.0678094,12.2900589 14.7880063,10.3866377 13.3400046,8.63348661 C12.9692205,9.37857583 12.5737673,10.1158385 12.1678484,10.8554491 C11.3941356,12.2673619 9.4011711,10.8429266 10.169651,9.44118837 C10.6667709,8.53643717 11.1728613,7.62464206 11.6131674,6.68388864 C9.02216396,3.98685348 6.01552352,1.7281061 2.72481462,0.0633951967 C1.47042808,3.55482696 0.608504554,7.2294004 0.245943487,10.9329321 C1.37399431,11.1340749 2.50204514,11.3352177 3.63009596,11.5363605 C5.14986225,11.8079424 4.97344078,14.3273145 3.44171372,14.0533846 C2.32113838,13.8538071 1.20056304,13.653447 0.0792401508,13.4538695 C-0.0127083261,16.1282076 0.16969353,18.7994151 0.670551087,21.4111407 C2.42130989,21.7868159 4.16384566,22.2055373 5.91236182,22.596083 C7.42913791,22.9334081 6.61879524,25.3150326 5.12070786,24.9816208 C3.8506228,24.6982991 2.58427548,24.3977589 1.31419043,24.1128718 C1.48014621,24.6967337 1.65881033,25.2766824 1.86064845,25.8511525 C2.6029642,27.9643257 3.59346608,29.9538391 4.77608796,31.8173449 C5.9183422,32.015357 7.05835381,32.225109 8.19088993,32.4857337 C8.82705378,32.6328732 9.12906341,33.5024048 8.93395323,34.092528 C8.69847542,34.8000497 8.03614737,35.018411 7.39923597,34.8704888 C7.23103753,34.831356 7.061344,34.803963 6.89314557,34.7679608 C9.09243353,37.515086 11.7170766,39.9272341 14.5495383,42.0051878 L19.7711652,42.0051878 C21.2415932,37.2411561 21.7192768,32.145278 21.1668384,27.172277 Z" id="Path"></path>
                        </g>
                        <g id="color_2_0" transform="translate(303.234600, 26.508828)" fill="#FF6F00">
                            <path d="M18.2850386,38.8651689 C17.7303575,39.0256135 17.1749289,39.1829275 16.6187528,39.3394589 C14.8605185,39.8301847 14.1099797,36.9789661 15.8674664,36.4874577 C17.3954557,36.0601271 18.9167171,35.617926 20.4192898,35.1154604 C21.2236521,33.5149273 21.9315806,31.8619563 22.5206489,30.1604605 C22.7949992,29.3660639 23.0357099,28.5607101 23.260722,27.7498777 C21.6647058,28.4511382 20.0634567,29.1367455 18.3979184,29.6501683 C16.6501498,30.1878535 15.9040963,27.3350696 17.6466321,26.7973845 C19.8556382,26.1172557 21.952512,25.1334562 24.0733073,24.2153998 C24.5644467,21.5512363 24.8096427,18.8354173 24.7939442,16.1195984 C23.9223025,16.4882298 23.0342148,16.8294681 22.1349138,17.1652278 C20.4192898,17.8046584 19.6807118,14.9487439 21.3836275,14.3132266 C22.484019,13.9031145 23.5971189,13.4945677 24.6735888,13.0085378 C24.3282214,8.54191577 23.292119,4.13477561 21.5735048,0.0297409565 C17.9187398,2.1390009 14.4792687,4.72411614 11.4629101,7.73264869 C12.3203483,8.81036703 13.1792817,9.88886804 14.0367199,10.967369 C15.1931776,12.4191973 13.2054459,14.522196 12.0400176,13.0578452 C11.1863171,11.9871708 10.3348593,10.9157137 9.48190634,9.84503926 C7.45530211,12.1523114 5.67538891,14.6755967 4.222902,17.4008075 C5.50943312,19.1312616 6.75559663,20.8922393 8.02941943,22.6336506 C9.13429625,24.1441781 6.68158932,25.6179207 5.59016837,24.126177 C4.66545076,22.8614037 3.75568413,21.5841079 2.83246162,20.3201172 C2.55661619,20.9720703 2.29347908,21.6310673 2.05575863,22.3025867 C1.17963168,24.7757821 0.616727589,27.3358523 0.31322286,29.9389687 C1.18710716,31.0245136 2.04903069,32.120233 2.8675964,33.2550853 C3.32733878,33.8937332 2.96477772,34.908839 2.361506,35.278253 C1.63787897,35.7220194 0.890330373,35.387825 0.429092892,34.7483944 C0.307242471,34.5801232 0.176421468,34.4204612 0.0523284015,34.254538 C0.00149509718,39.7667895 1.00395776,45.354176 2.67398131,50.6151947 L6.77951818,50.6151947 C11.3298465,47.5784865 15.2746604,43.5540655 18.2850386,38.8651689 Z" id="Path"></path>
                        </g>
                        <g id="color_2_1" transform="translate(37.780095, 13.203663)" fill="#FF6F00">
                            <path d="M22.0825854,52.8833339 C21.8261762,52.9389026 21.568272,52.9803834 21.3133579,53.0398653 C20.3422923,53.2637051 19.3338492,52.933424 18.976521,51.854923 C18.6782491,50.956433 19.1387391,49.6321778 20.1083096,49.4091206 C21.8314091,49.011531 23.5664694,48.6914244 25.3067625,48.3916669 C27.1076071,45.5529708 28.6161601,42.5248719 29.745706,39.30737 C30.0529485,38.4331424 30.3243086,37.5495229 30.5777276,36.6619901 C28.644567,37.0947993 26.7166391,37.5518709 24.7827309,37.9838974 C22.5012126,38.4926243 21.2677574,34.8673582 23.5776826,34.3523701 C26.2397031,33.7591163 28.8920055,33.1204683 31.5585114,32.5499116 C32.3210109,28.5732326 32.5998466,24.5065482 32.4578123,20.4343851 C30.7511589,20.7388386 29.0445055,21.043292 27.3393471,21.3477455 C25.006248,21.7633362 24.7393731,17.9283182 27.053036,17.5158581 C28.7701551,17.2090566 30.4872742,16.9030378 32.2051409,16.597019 C31.8807048,13.2832504 31.2864037,9.98670013 30.4700806,6.75041447 C30.3923356,6.44283037 30.3153381,6.13524626 30.2338553,5.82844482 C29.7113188,3.87336826 29.1110373,1.9417714 28.4307681,0.046959405 C27.5337097,0.50090032 26.6553402,0.993974072 25.7874362,1.50504893 C25.6424118,1.58957586 25.4981349,1.67410279 25.3538581,1.76097769 C21.5406127,4.05650994 18.0189113,6.87877018 14.8978959,10.1267957 C15.5691945,11.5582749 16.3399171,12.9459253 17.0964363,14.3249665 C18.2663499,16.4577061 15.2335452,18.6272306 14.0546611,16.4772726 C13.4364384,15.3510295 12.8346618,14.2286997 12.2710101,13.0930648 C10.0642467,15.7627069 8.11613507,18.6608849 6.4520919,21.727334 C7.8073975,24.5104614 9.08421049,27.336635 10.7168566,29.9616657 C12.0063779,32.0333581 8.96759291,34.1911428 7.6750814,32.1147544 C6.44386887,30.1361982 5.41598955,28.0418087 4.40380876,25.9380274 C3.97247322,26.93748 3.55907885,27.9463246 3.18978984,28.9739529 C2.39813588,31.1755663 1.76421468,33.4350964 1.26784241,35.7267153 C2.34655503,37.5518709 3.49254702,39.3339803 4.65872283,41.1066978 C5.9983299,43.1455187 2.95730223,45.3001727 1.61620006,43.2597865 C1.19234,42.6140947 0.771470147,41.9660549 0.352842936,41.3172325 C-0.487401682,48.8956978 0.239963098,56.6604354 2.48186133,63.9172288 L10.4058764,63.9172288 C14.7267073,60.7513822 18.7283349,57.0721129 22.0825854,52.8833339 Z" id="Path"></path>
                        </g>
                        <g id="color_2_2" transform="translate(0.028891, 0.055030)" fill="#FFC107">
                            <path d="M37.6966329,52.1405927 C37.5089982,52.3941735 37.3086551,52.6367971 37.1247582,52.8927258 C36.4228101,53.8663508 35.2842936,54.3750777 34.1824069,53.7012102 C33.2636697,53.13848 32.7112313,51.5919503 33.4109368,50.6206733 C34.6571003,48.8933498 35.9690481,47.2255083 37.3011797,45.5717546 C36.8406897,41.6099461 35.9817564,37.7115328 34.6481297,33.9461712 C34.2855686,32.9224562 33.8848826,31.9198729 33.4647603,30.9282468 C32.0593689,32.8535824 30.6741614,34.7984844 29.2657798,36.72382 C27.6039793,38.9950899 23.8707216,36.7504304 25.552706,34.4509848 C27.491847,31.8016917 29.3898729,29.119527 31.3477027,26.4851044 C29.1357064,22.3370236 26.4273378,18.4933963 23.3407097,14.9808329 C22.0429653,16.6111069 20.7444734,18.2429462 19.4467291,19.8732202 C17.6720487,22.1030093 14.645972,18.9011605 16.4057014,16.6893725 C17.7124163,15.0481413 19.0183837,13.4069101 20.3250987,11.7648963 C15.7321601,7.18557162 10.4963298,3.25037348 4.93157806,0.037567524 C2.31366289,6.28786433 0.737830461,12.9975806 0.210808703,19.7980851 C1.84943522,20.5384784 3.54562297,21.1591252 5.22013182,21.7836853 C7.81337789,22.7502664 6.6890648,27.09949 4.07713002,26.125865 C2.70836855,25.6155728 1.3553056,25.0958887 0.0284068465,24.5339411 C0.00448529155,28.6679341 0.377512039,32.801927 1.12655573,36.8592196 C4.3567132,38.2578273 7.54874568,39.7566149 10.9112193,40.7920698 C13.5642692,41.6091635 12.4279953,45.9529084 9.76821745,45.1334668 C7.23253263,44.353158 4.79477667,43.3075286 2.36524375,42.2415501 C2.7061259,43.4757998 3.07242471,44.7022229 3.49105193,45.9114276 C4.38811024,48.5020215 5.46532776,51.0198282 6.6905599,53.4570213 C8.97880614,54.221677 11.2954592,54.8939791 13.6210829,55.5443669 C16.2973069,56.2925867 15.1550526,60.6347664 12.4773336,59.8865465 C11.630361,59.6501842 10.784136,59.4083433 9.94015363,59.164937 C14.5286069,66.3121585 20.5426353,72.4466221 27.4791387,77.0689928 L33.7002381,77.0689928 C36.2471361,69.0522397 37.7751255,60.5384996 37.6966329,52.1405927 Z" id="Path"></path>
                        </g>
                    </g>
                    <g id="color_2_3" transform="translate(58.000000, 21.000000)" fill="#FFC107">
                        <polygon id="Path" points="11.0293526 155.491137 93.4627781 155.491137 91.9838716 134.590521 45.9344397 134.590521 36.4136936 0.0312293429 0.0304615138 0.0312293429 1.50936801 20.9316061"></polygon>
                    </g>
                    <g id="color_2_4" transform="translate(238.000000, 233.000000)" fill="#F99B1D">
                        <path d="M8.9949268,0.265608985 C8.91807235,0.202895753 8.84240028,0.135017901 8.76968414,0.0604998245 C6.12411743,4.22170726 3.19537163,8.14755563 0.00118237618,11.7982036 C0.0183268308,11.92363 0.0348800974,12.0483187 0.052024552,12.1737452 C3.29410004,8.49874973 6.28432941,4.51977957 8.9949268,0.265608985 Z" id="Path"></path>
                    </g>
                    <g id="color_2_5" transform="translate(73.000000, 215.000000)" fill="#2196F3">
                        <path d="M2.20432756,3.70864034 C1.54144018,2.4857138 0.905794745,1.25561233 0.292094212,0.0167414977 C0.205071325,0.0677632049 0.116534996,0.11639327 0.0264852265,0.162631692 C0.642455922,1.40548859 1.27507447,2.64276499 1.93871858,3.86808318 C15.8275713,29.5056938 38.3634722,47.9117747 65.3927809,55.6933822 C86.0792562,61.6501666 107.500507,60.8298332 127.325078,53.5608343 C127.315997,53.4436438 127.307673,53.3280478 127.297836,53.2108573 C80.6724864,70.2560936 27.5347982,50.4652517 2.20432756,3.70864034 Z" id="Path"></path>
                    </g>
                    <g id="color_2_6" transform="translate(220.000000, 253.000000)" fill="#F99B1D">
                        <path d="M2.55014895,0.101022221 C1.71775612,0.717371277 0.877796077,1.32236952 0.0302688303,1.91715204 C0.0643212643,2.07038799 0.0955359955,2.2258941 0.128642529,2.38026514 C0.982791082,1.7809423 1.83031833,1.17253881 2.67027837,0.552784512 C2.63149643,0.401818722 2.58987679,0.251988012 2.55014895,0.101022221 Z" id="Path"></path>
                    </g>
                    <g id="color_2_7" transform="translate(68.000000, 199.000000)" fill="#2196F3">
                        <path d="M2.8982405,7.82348366 C3.01458631,7.76193704 3.13187803,7.70442626 3.25200745,7.64994237 C2.25124425,5.14267426 1.33561213,2.61623589 0.482409482,0.0766810366 L0.0756720756,0.0766810366 C0.952522252,2.67980044 1.87477567,5.26677646 2.8982405,7.82348366 Z" id="Path"></path>
                    </g>
                    <g id="color_2_9" transform="translate(178.000000, 47.000000)" fill="#2196F3">
                        <path d="M15.9467549,4.14884767 C16.9553454,4.52216324 17.9557421,4.9217118 18.9524142,5.33336789 L18.9136796,5.82876775 C12.7697692,3.27710536 6.45602225,1.48619957 0.0566121716,0.515579075 C0.0797039784,0.356163236 0.0968366093,0.194729475 0.107265167,0.0312777913 C5.40869708,0.842482442 10.7019351,2.20760669 15.9467549,4.14884767 Z" id="Path"></path>
                    </g>
                    <g id="color_1" transform="translate(26.000000, 0.000000)" fill="#00838F">
                        <path d="M4.67833966,122.08032 L4.77929488,123.532115 C1.94880965,135.32695 0.43298572,147.674357 0.43298572,160.393857 C0.43298572,179.782387 3.93127103,198.31781 10.2892064,215.327496 C10.1336606,215.374405 9.98260168,215.42529 9.83602966,215.48492 C3.39882573,198.179468 0.0231823097,179.563743 0.0231823097,160.394652 C0.0239301261,147.280799 1.62051823,134.433293 4.67833966,122.08032 Z M189.979028,20.6417963 C190.553351,20.7235293 191.126178,20.8196531 191.695267,20.9451148 C192.019819,21.0162734 192.344371,21.104526 192.668176,21.1993776 C178.968179,15.4310791 164.393236,11.9760312 149.368856,11.0219495 L149.400264,11.4731506 C163.59382,12.3916928 177.225766,15.5497032 189.979028,20.6417963 Z M266.383434,93.8514277 C266.530754,93.7743061 266.685552,93.7067253 266.844837,93.6439149 C260.14141,79.3684673 251.240899,66.1830581 240.319787,54.5710886 C227.39378,40.8275416 212.391835,30.0973026 196.071489,22.6880631 C196.785653,23.119785 197.454201,23.6174977 198.054698,24.1788157 C227.680194,38.3183067 251.89449,63.064006 266.383434,93.8514277 Z M124.377578,309.041377 C124.385057,308.893495 124.397022,308.746407 124.413474,308.599319 C95.0085833,304.949957 68.36164,291.586452 47.3666934,271.632628 C47.4489532,271.944295 47.5259783,272.256757 47.6037512,272.569219 C69.2433156,292.942043 95.8461377,305.542283 124.377578,309.041377 Z M14.9428681,226.413131 C14.8045221,226.505359 14.6579501,226.589636 14.5083868,226.668348 C21.2357435,241.126661 30.2095408,254.476649 41.2517984,266.215829 C41.6593583,266.648347 42.0736487,267.072913 42.4856955,267.499864 C42.6300241,267.411612 42.7736048,267.325745 42.919429,267.239082 C31.5563582,255.471279 22.056846,241.678438 14.9428681,226.413131 Z M240.31904,266.216625 C266.904662,237.951159 281.546908,200.36829 281.546908,160.393857 C281.546908,141.041104 278.106204,122.253645 271.548602,104.808261 C271.407265,104.883793 271.26144,104.953759 271.110382,105.017364 C277.573011,122.148696 281.136357,140.835977 281.136357,160.393857 C281.136357,210.612742 257.681094,255.115089 221.806096,282.173641 C221.831521,282.368433 221.856947,282.564815 221.88013,282.759606 C228.393611,277.859602 234.562349,272.337059 240.31904,266.216625 Z M140.785419,309.613826 C138.992155,309.613826 137.207117,309.576458 135.430305,309.504902 C135.42881,309.648014 135.423575,309.789536 135.413853,309.931853 C137.198891,310.002615 138.989164,310.049524 140.785419,310.049524 C152.730291,310.049524 164.446331,308.472108 175.72789,305.422227 C175.729386,305.258443 175.729386,305.095454 175.730133,304.932465 C164.554017,307.987117 152.844707,309.613826 140.785419,309.613826 Z M204.161367,293.511312 C200.630178,295.417885 197.012989,297.16783 193.318776,298.759557 C193.278394,298.960709 193.239508,299.162656 193.198378,299.363808 C196.953912,297.764131 200.645134,295.996695 204.258583,294.051958 C204.225679,293.871478 204.193523,293.690998 204.161367,293.511312 Z M78.4594054,155.573359 L159.406796,155.573359 L149.400264,11.4725145 L149.368856,11.0209954 L148.606083,0.0298150534 L67.6579448,0.0298150534 L69.1102043,20.941537 L78.4594054,155.573359 Z" id="Shape"></path>
                    </g>
                </g>
            </g>
        </g>
    </g>
</svg>