<?xml version="1.0" encoding="UTF-8"?>
<svg width="346px" height="399px" viewBox="0 0 346 399" version="1.1" xmlns="http://www.w3.org/2000/svg" xmlns:xlink="http://www.w3.org/1999/xlink">
    <!-- Generator: Sketch 64 (93537) - https://sketch.com -->
    <title>Speciality</title>
    <desc>Created with Sketch.</desc>
    <g id="Landing" stroke="none" stroke-width="1" fill="none" fill-rule="evenodd">
        <g transform="translate(-801.000000, -2085.000000)" id="Our-Expertise">
            <g transform="translate(113.000000, 2042.000000)">
                <g id="illustration" transform="translate(688.000000, 0.000000)">
                    <g id="Speciality" transform="translate(0.000000, 43.000000)">
                        <path d="M300.089066,333.351039 C305.025029,325.16397 308.708554,316.429413 311.097895,307.420142 L330.607764,303.699364 L330.803882,282.11633 L331,260.533297 L311.607607,256.420347 C309.374579,247.372247 305.848337,238.559062 301.068686,230.294334 L312.194991,213.882337 L297.072536,198.487656 L281.989888,183.093946 L265.379072,193.904877 C257.190655,188.969727 248.454661,185.287778 239.443907,182.89786 L235.722517,163.391201 L214.135932,163.196086 L192.549346,163 L188.436691,182.428031 C179.386131,184.660692 170.571496,188.186354 162.305408,192.965219 L145.89071,181.840744 L130.494467,196.96071 L115.098224,212.040877 L125.909963,228.648961 C120.974,236.83506 117.291446,245.570587 114.902105,254.579858 L95.3922362,258.300636 L95.1961181,279.88367 L95,301.465733 L114.432199,305.578682 C116.665227,314.627753 120.190499,323.440938 124.970149,331.705666 L113.843844,348.117663 L128.966299,363.511373 L144.088753,378.905083 L160.69957,368.094152 C168.887016,373.030273 177.623981,376.712222 186.633764,379.101169 L190.356124,398.607828 L211.941739,398.803914 L233.528324,399 L237.64195,379.570998 C246.691539,377.338338 255.506175,373.813646 263.773233,369.034781 L280.187931,380.159256 L295.584175,365.03929 L310.980418,349.919323 L300.089066,333.351039 Z M175.167935,318.124803 C154.67212,297.235913 154.986422,263.665004 175.875358,243.168262 C196.764294,222.672492 230.335277,222.98582 250.832065,243.875683 C271.32788,264.764573 271.013578,298.335482 250.124642,318.831252 C229.235706,339.327995 195.664723,339.013693 175.167935,318.124803 Z" id="Shape" fill="#1565C0"></path>
                        <g id="Group" transform="translate(150.000000, 58.000000)">
                            <path d="M109.775449,156.43912 C109.775449,156.43912 114.158311,163.747299 115.991245,164.935329 C118.495737,166.564096 116.929876,168.192863 115.723065,168.192863 C114.515146,168.192863 108.478876,168.633601 107.136867,167.136837 C105.795966,165.640073 105.125516,161.149781 103.873269,160.005389 C102.621023,158.816269 101.32445,154.193974 104.499393,153.049582 C107.272065,151.993556 109.775449,156.43912 109.775449,156.43912 Z" id="Path_3" fill-opacity="0.7" fill="#FFFFFF"></path>
                            <path d="M107.898188,153.226313 C107.898188,153.226313 112.906065,161.76616 113.756041,163.042555 C114.604909,164.31895 112.145852,164.31895 110.581098,163.702571 C109.060672,163.086192 105.169843,156.968224 104.588047,155.867469 C103.917597,154.546346 104.453957,153.005944 104.453957,153.005944 L107.898188,153.226313 Z" id="Path_4" fill="#FFF3E0"></path>
                            <polygon id="Path_5" fill="#1565C0" points="102.799441 157.848609 103.963032 166.564096 104.588047 166.607733 104.40963 160.313033"></polygon>
                            <path d="M66.9364388,159.521014 C66.9364388,159.521014 71.3193006,166.828102 73.1522344,168.017223 C75.6567268,169.64599 74.0919731,171.274757 72.8840542,171.274757 C71.6772435,171.274757 65.6398653,171.714404 64.2989645,170.21764 C62.9569555,168.720876 62.2865051,164.230584 61.0342589,163.086192 C59.7820126,161.898163 58.4411118,157.143864 61.660382,156.131476 C64.4330546,155.206362 66.9364388,159.521014 66.9364388,159.521014 Z" id="Path_6" fill-opacity="0.7" fill="#FFFFFF"></path>
                            <path d="M65.2830305,156.351845 C65.2830305,156.351845 70.022727,164.848054 70.8715948,166.123358 C71.7215708,167.400844 69.2625139,167.400844 67.696652,166.784465 C66.1773338,166.168086 62.2865051,160.049027 61.7047093,158.948272 C61.0342589,157.62824 61.5706192,156.086747 61.5706192,156.086747 L65.2830305,156.351845 Z" id="Path_7" fill="#FFF3E0"></path>
                            <polygon id="Path_8" fill="#1565C0" points="59.9615382 160.929412 61.1240216 169.64599 61.7047093 169.689627 61.5262919 163.394927"></polygon>
                            <path d="M47.529947,93.1812005 L87.0599247,110.922 C87.0599247,110.922 91.4871137,112.330399 91.9780386,117.173063 C93.4984649,132.227979 104.94599,156.086747 104.94599,156.086747 C108.612966,157.848609 108.344786,156.307116 108.344786,156.307116 C106.019819,149.000028 103.202819,118.890196 102.218753,106.78408 C101.9949,104.230199 101.86081,102.469429 101.86081,101.897778 C101.86081,101.501769 101.414212,101.017393 100.698327,100.444652 C95.2870715,96.1310912 72.973817,87.1505067 72.973817,87.1505067 C56.1604723,86.7108596 47.529947,93.1812005 47.529947,93.1812005 Z" id="Path_9" fill="#FFF3E0"></path>
                            <path d="M40.1062325,100.797024 C41.3141514,111.31801 56.5627425,110.12889 56.5627425,110.12889 L75.0306037,110.12889 C75.0306037,110.12889 70.1568171,120.78297 68.3227751,129.718826 C66.3557512,139.227424 61.660382,156.086747 61.660382,156.086747 C61.660382,156.086747 61.9739976,156.659489 65.3273578,156.351845 C65.3273578,156.351845 79.8157357,127.86969 85.4054082,120.738242 C86.6122189,119.19784 90.0110146,110.833635 90.5917023,105.858967 C90.7712278,104.186562 90.681465,102.865439 90.0110146,102.382154 C89.3848915,101.85305 87.9087924,100.840662 85.9417685,99.6526324 C80.1736787,96.0427254 70.1124898,90.5400446 64.4773819,89.3072871 C56.9650128,87.6348823 45.1152174,84.5529883 45.1152174,84.5529883 C45.1152174,84.5529883 38.8550945,90.2760381 40.1062325,100.797024 Z" id="Path_10" fill="#FFF3E0"></path>
                            <path d="M52.6719138,19.798305 C52.6719138,19.798305 49.8992412,14.6479966 51.2412502,9.10167836 C52.5832592,3.59899759 57.7706614,-1.90368318 65.3716851,0.649106871 C72.973817,3.15825948 79.0998498,8.96967512 74.5385707,15.7040225 C69.9772916,22.4394609 78.6521441,25.4777174 76.4612673,28.6468863 C74.2703905,31.8607835 75.0760392,35.1619556 76.0146698,35.9103376 C76.9533003,36.6587197 79.9498258,39.2998755 79.6362102,42.4254069 C79.3237027,45.5509383 64.8796521,33.2691818 64.8796521,33.2691818 C64.8796521,33.2691818 57.0991028,17.8171654 52.6719138,19.798305 Z" id="Path_11" fill="#212121"></path>
                            <path d="M75.8351442,85.8741117 C75.8351442,85.8741117 74.6726608,91.3320641 45.1595447,84.4209851 C45.1595447,84.4646225 55.0423161,81.2081788 75.8351442,85.8741117 Z" id="Path_12" fill="#EB4747"></path>
                            <path d="M44.8470372,86.006115 C44.3993315,86.8865003 43.9527339,87.7232481 43.4607009,88.6036334 C54.2377756,88.9112773 65.0591777,89.2200122 75.8351442,89.5276561 C74.1363004,83.8929721 74.6726608,76.2771484 74.9862764,70.5104612 C75.3442194,63.4673789 79.3237027,58.5374395 78.875997,51.4059914 C81.0225464,51.7572728 81.3804894,51.8020011 83.5270389,52.1543734 C80.2623333,42.9970573 79.1452853,38.4194902 68.9943337,34.8979491 C65.6853008,33.7535573 63.4933158,33.5331882 59.9161027,33.7971947 C48.1560701,34.7659458 44.6231844,34.8979491 38.8107672,45.3742067 C47.8424545,46.7836959 46.3674636,49.9965022 49.0947007,58.8450834 C50.4367097,63.158644 51.823046,68.0013086 51.1071601,72.5352383 C50.4367097,76.9818931 44.8470372,81.9118325 44.8470372,86.006115 Z" id="Path_13" fill="#FFECB3"></path>
                            <path d="M63.5830786,37.0547294 C58.7536193,36.1743441 59.7820126,33.5331882 59.7820126,33.5331882 C59.7820126,33.5331882 60.0058655,32.0364242 60.0956283,30.1436503 C60.1399556,29.6592748 60.1399556,29.1748993 60.1399556,28.6468863 C60.1399556,27.8548668 60.0956283,27.0617564 60.0058655,26.3133743 C59.6035953,23.1442055 68.7261535,25.0369793 68.7261535,25.0369793 C68.7261535,25.0369793 68.188685,31.4636828 69.4409312,33.401185 C70.7375048,35.3375963 68.4125379,37.9351147 63.5830786,37.0547294 Z" id="Path_14" fill="#FFF3E0"></path>
                            <path d="M54.416193,33.4895508 C54.416193,33.4895508 64.1194389,44.5385498 67.696652,47.0913398 C67.696652,47.0913398 71.8113336,43.4377954 69.2625139,33.7535573 C69.3068412,33.7535573 64.6114719,31.4200454 54.416193,33.4895508 Z" id="Path_15" fill="#FFF3E0"></path>
                            <path d="M54.6843732,6.94489805 C54.6843732,6.94489805 49.631061,16.497133 54.6400459,25.5649923 C59.6479226,34.6339426 69.4863667,21.603804 70.1124898,20.1070399 C70.7375048,18.5655475 74.1363004,9.93842621 67.4284718,7.34090779 C60.7217514,4.69975193 56.1150368,4.34737963 54.6843732,6.94489805 Z" id="Path_16" fill="#FFF3E0"></path>
                            <path d="M56.3388896,10.334436 C56.3388896,10.334436 52.8514393,14.8247282 52.4480609,18.1259003 C52.4480609,18.1259003 51.0628328,11.8748375 54.9525534,5.84414371 C58.8433821,-0.186550042 68.8148081,5.53540885 70.1124898,7.95728659 C71.4533906,10.3780734 75.3442194,12.4912163 68.7704808,22.8365616 C68.8602436,22.8365616 57.0547755,14.7799998 56.3388896,10.334436 Z" id="Path_17" fill="#212121"></path>
                            <path d="M64.4330546,26.5337434 C64.4330546,26.5337434 63.5387513,28.4265172 60.1399556,30.1872878 C60.1842829,29.7029122 60.1842829,29.2185367 60.1842829,28.6905237 C60.1399556,28.6468863 62.4649225,28.3828798 64.4330546,26.5337434 Z" id="Path_18" fill="#FFF3E0"></path>
                            <path d="M13.4555518,77.3779028 C13.4555518,77.3779028 11.0408222,78.4350197 9.92266602,77.9506441 C8.80450989,77.4662686 7.01701153,77.3779028 6.47954302,77.3779028 C5.71932983,77.3779028 3.43869027,76.5411549 3.43869027,77.4662686 C3.48412575,78.3466539 7.19542891,78.9630327 7.9556421,79.2706766 C8.71585529,79.5346831 5.67500254,81.2081788 5.40682237,81.9118325 C5.13864221,82.6602145 8.58176521,87.4581507 10.5044618,86.0944808 C12.4271585,84.7297199 13.4998791,82.0001983 13.9032575,81.8234667 C14.3055278,81.647826 15.3782484,80.8994439 15.3782484,80.8994439 L13.4555518,77.3779028 Z" id="Path_19" fill="#FFF3E0"></path>
                            <path d="M5.76476532,81.4721853 C5.76476532,81.4721853 0.129657351,86.0497524 0.0410027522,86.6661312 C-0.0487600296,87.28251 0.264855615,87.5912449 0.801215941,87.1505067 C1.33757627,86.754497 6.39088842,82.8805836 6.39088842,82.8805836 C6.39088842,82.8805836 0.755780459,89.4392903 0.577363078,89.9236658 C0.487600296,90.1876723 1.02396062,90.8040511 1.33757627,90.6284105 C1.65008373,90.4516788 7.64202646,84.2889818 7.64202646,84.2889818 C7.64202646,84.2889818 2.41029692,90.4080414 2.36596962,90.8924169 C2.32164232,91.2884267 2.99209273,91.7291648 3.39436297,91.2884267 C3.79663321,90.8487795 9.02836275,85.478102 9.02836275,85.478102 C9.02836275,85.478102 5.49658515,90.1876723 5.71932983,90.5836821 C5.85341992,90.8487795 6.30112564,91.3767925 7.15110161,90.1440349 C7.9999694,88.9112773 10.3703717,86.1817556 10.3703717,86.1817556 L5.76476532,81.4721853 Z" id="Path_20" fill="#FFF3E0"></path>
                            <path d="M73.1079071,110.12889 L56.5627425,110.12889 C56.5627425,110.12889 41.3141514,111.31801 40.1062325,100.797024 C38.8994218,90.2760381 45.1152174,84.4209851 45.1152174,84.4209851 C45.1152174,84.4209851 53.1639468,86.534128 60.1842829,88.2065327 C63.7171687,87.4581507 67.9659403,86.9748661 72.8840542,87.1068693 C72.8840542,87.1068693 102.710786,96.7911075 101.816483,101.897778 C101.816483,101.941416 89.3405642,95.3827092 73.1079071,110.12889 Z" id="Path_21" fill="#00838F"></path>
                            <polygon id="Path_22" fill-opacity="0.38" fill="#000000" points="62.3308324 91.9048055 93.9007352 91.4640674 77.9816937 99.4322633"></polygon>
                            <path d="M72.1692765,87.9425262 C72.1692765,87.9425262 65.0591777,90.6284105 56.3843251,88.2065327 L55.9809467,84.9937264 L73.9124476,85.9624775 L72.1692765,87.9425262 Z" id="Path_23" fill="#2196F3"></path>
                            <polygon id="Path_24" fill="#000000" points="77.9816937 99.4322633 62.3308324 93.445207 62.3308324 91.9048055 79.1896126 97.8918618"></polygon>
                            <path d="M72.0351864,89.4392903 C71.9454237,90.5836821 73.1079071,91.4204299 74.2260632,90.9807828 L76.0589971,90.1876723 C76.5964656,89.9673033 76.908973,89.3956529 76.8192103,88.8229115 C76.0589971,84.1133411 74.4044806,65.8445283 76.8192103,62.6753594 C77.7135135,61.5298767 78.2498739,60.5174882 78.5634895,59.5934655 C80.1282432,63.5993821 82.0963753,68.7496906 82.9009158,71.5228497 L97.7915639,91.0680576 L102.799441,92.3008152 C96.5847532,77.509906 91.531441,69.6737133 91.531441,69.6737133 C90.547375,67.0772859 87.7747024,59.2858215 85.2713181,52.3300141 C83.7054563,47.9280877 82.2747927,43.8785336 81.5145795,41.7206623 C81.1123092,40.619908 80.352096,39.6958852 79.3237027,39.0795065 C76.9987358,37.7147456 73.1522344,35.5579653 69.6647841,33.929198 L69.6204568,33.929198 C69.530694,33.8855605 69.3966039,33.8408322 69.3068412,33.7535573 C75.924907,43.6134361 73.33176,71.5228497 72.0351864,89.4392903 Z" id="Path_25" fill="#00BCD4"></path>
                            <path d="M47.3958569,34.5892142 C45.2493075,34.8979491 40.0175779,39.9598917 37.200578,45.0229253 C34.0256352,50.83325 30.7609296,57.4366851 28.3018726,59.5934655 C23.8303563,63.5993821 11.264675,77.7302751 10.6828792,77.3779028 C10.4601345,77.2458995 14.1260022,81.6041885 14.5737079,81.7798292 C14.7975608,81.868195 35.1881186,64.4797674 37.1551426,61.8386116 C39.0335119,59.329459 43.9970612,48.808473 45.4731603,49.028842 C45.6072504,49.2481201 47.3958569,53.1220336 49.0947007,58.7567176 C49.1401362,58.8450834 49.1401362,58.9334492 49.1844635,59.0207241 C50.3469469,62.9393659 50.2571841,67.2092891 49.631061,72.0072253 C49.1401362,75.6171322 46.4117909,81.5594602 44.7572744,84.4209851 C44.5788571,84.7733574 44.6231844,85.4333736 44.8027099,85.9177492 C44.9356918,86.226484 45.1152174,86.4468531 45.3390702,86.534128 L51.331013,88.7356366 L52.7173493,89.2636496 C53.7457426,89.6160219 54.774136,89.4392903 55.5786765,88.8676399 C56.250235,88.3832643 56.6968326,87.6785197 56.8309227,86.8428628 C58.1729317,76.761524 59.8274481,66.4609071 61.1683489,62.5869936 C67.0716371,45.5509383 58.8877094,32.7848062 58.8877094,32.7848062 C58.8877094,32.7848062 49.2742263,33.8855605 47.3958569,34.5892142 Z" id="Path_26" fill="#00BCD4"></path>
                            <polygon id="Path_27" fill="#424242" points="77.9816937 99.4322633 87.3724321 74.2087339 117.601434 74.6931095 108.658401 97.9354992"></polygon>
                            <path d="M97.0313507,85.3460987 C96.0927201,87.1505067 96.4052276,89.1316464 97.6574738,89.7480252 C98.90972,90.364404 100.698327,89.3956529 101.636957,87.5912449 C102.576696,85.7857459 102.26308,83.8046063 101.010834,83.1882275 C99.7142605,82.5718487 97.9699813,83.5405998 97.0313507,85.3460987 Z" id="Path_28" fill="#FFC107"></path>
                            <path d="M65.1478323,16.4534955 C65.1478323,16.4534955 67.0716371,19.4022953 65.2830305,21.9998137 C63.4933158,24.5526038 65.7296281,27.0617564 66.1318983,29.791278 C66.5341686,32.5207997 58.6649647,39.6958852 67.3841445,43.3494296 C76.1487599,46.9593366 78.9214324,40.9722803 76.6851202,37.6711082 C74.4499161,34.3699361 72.8840542,31.6840519 72.6613096,26.9744815 C72.481784,22.2638202 70.9170303,14.9567314 65.1478323,16.4534955 Z" id="Path_29" fill="#212121"></path>
                        </g>
                        <g id="Group" transform="translate(303.000000, 115.000000)">
                            <path d="M10.6689144,41.6818661 L10.6689144,47.4029066 L16.6558964,41.6818661 L39.9496749,41.6818661 C41.4355901,41.6818661 42.6150082,40.3755395 42.6150082,38.797899 L42.6150082,2.89066622 C42.6150082,1.31414219 41.4355901,0.00781562903 39.9496749,0.00781562903 L2.67183148,0.00781562903 C1.18591628,0.00781562903 0.00649817142,1.31414219 0.00649817142,2.89066622 L0.00649817142,38.797899 C0.00649817142,40.3755395 1.18591628,41.6818661 2.67183148,41.6818661 L10.6689144,41.6818661 Z" id="Path_30" fill="#FFC107"></path>
                            <path d="M33.2630565,33.0310813 L33.2630565,31.589656 C33.2630565,26.8143067 29.6793149,22.9846484 25.2659735,22.9846484 L17.2678075,22.9846484 C12.8544661,22.9846484 9.27072456,26.8589674 9.27072456,31.589656 L9.27072456,33.0310813 L33.2630565,33.0310813 Z" id="Path_31" fill="#FFFFFF"></path>
                            <path d="M26.6208422,12.9382156 C26.6208422,16.0912636 24.2165188,18.659256 21.2890926,18.659256 C18.3605833,18.659256 15.9573429,16.0912636 15.9573429,12.9382156 C15.9573429,9.78405102 18.3605833,7.17139789 21.2890926,7.17139789 C24.2165188,7.21605863 26.6208422,9.78405102 26.6208422,12.9382156 Z" id="Path_32" fill="#FFFFFF"></path>
                        </g>
                        <g id="Group" transform="translate(85.000000, 106.000000)">
                            <path d="M48.9037941,37.8861567 C48.9037941,40.1303232 47.1573489,41.9252116 45.0536258,41.9252116 L42.5016411,41.9252116 L42.5016411,51.3934145 L33.5020115,41.9252116 L3.90786529,41.9252116 C1.75865034,41.9252116 0.0576970457,40.1303232 0.0576970457,37.8861567 L0.0576970457,4.14136573 C0.0576970457,1.89719923 1.80303268,0.102310861 3.90786529,0.102310861 L45.0980082,0.102310861 C47.2472231,0.102310861 48.9481764,1.89719923 48.9481764,4.14136573 L48.9481764,37.8861567 L48.9037941,37.8861567 Z" id="Path_33" fill="#00BCD4"></path>
                            <rect id="Rectangle" fill="#CCE9FF" x="7.75803354" y="12.2628464" width="33.4449802" height="2.69244376"></rect>
                            <rect id="Rectangle_34" fill="#CCE9FF" x="7.75803354" y="18.9942338" width="33.4449802" height="2.69244376"></rect>
                            <rect id="Rectangle_35" fill="#CCE9FF" x="7.75803354" y="25.7701042" width="33.4449802" height="2.69244376"></rect>
                        </g>
                        <g id="Group">
                            <path d="M41.1600588,51.6925466 C46.8555982,46.95374 50.1483147,40.3812357 50.5927102,32.7362122 C50.6379216,32.2442716 50.6379216,31.7977579 50.6379216,31.3058172 C50.6820303,28.3541734 50.3258524,25.8512592 49.525279,23.0791072 C49.4811702,22.9893612 49.4811702,22.9450423 49.4359588,22.8552963 C49.4359588,22.9450423 49.4811702,22.9893612 49.525279,23.0791072 L42.0499524,25.4933834 C42.583668,27.2816541 42.8505258,29.2039898 42.8505258,31.2160713 C42.7623083,37.3409539 39.8698786,42.7057661 35.4204107,46.0141777 L39.9139873,52.7207468 C40.314274,52.3628711 40.7597721,52.0504223 41.1600588,51.6925466 Z" id="Path_36" fill="#2196F3"></path>
                            <path d="M10.9918948,41.5435009 C8.94414717,38.4589001 7.74328707,34.7028668 7.7873958,30.6798117 C7.9208247,20.4853391 15.8857581,12.3938019 25.5411585,12.5278668 C33.3285543,12.6619317 39.8246671,18.0721708 42.0058437,25.4933834 L49.4811702,23.0791072 C49.4811702,22.9893612 49.4359588,22.9450423 49.3918501,22.8552963 C49.3025299,22.5428476 49.169101,22.1849718 49.0808835,21.8714151 C49.0356721,21.7827771 49.0356721,21.6930312 48.9915634,21.6032852 C45.4319891,11.5439855 36.8881286,4.92716225 26.6990126,4.34658365 C26.4762635,4.34658365 26.2094057,4.34658365 25.9866567,4.3011567 L24.2961897,4.3011567 C24.0282292,4.3011567 23.7624741,4.34658365 23.4945136,4.34658365 C23.3169759,4.34658365 23.1394383,4.39090263 22.960798,4.39090263 C22.8273691,4.39090263 22.6498314,4.4352216 22.5164025,4.4352216 C22.2043333,4.48064856 21.8933668,4.52496753 21.626509,4.57039448 L21.5812975,4.57039448 C19.4012237,4.92716225 17.3545787,5.55316779 15.3961512,6.40298417 C15.1745049,6.4927301 14.9076471,6.62679501 14.684898,6.71543296 C6.89750222,10.5157852 1.24717426,18.3403006 0.223851791,27.7292758 L0.223851791,27.9076597 C0.178640345,28.2201085 0.178640345,28.5336652 0.134531618,28.846114 C0.134531618,29.0256059 0.0893201727,29.1596708 0.0893201727,29.3380547 C0.0893201727,29.5618655 0.0893201727,29.7856763 0.0452114454,29.9640602 L0.0452114454,30.5003198 C-0.0430060091,36.3570726 1.69156969,41.7673117 4.67331965,46.2379885 L10.9918948,41.5435009 Z" id="Path_37" fill="#BBDEFB"></path>
                            <path d="M39.9139873,52.6764279 L35.4204107,45.9698587 C32.4827695,48.1603241 28.9231952,49.4123352 25.0967631,49.3225893 C19.2677948,49.2339513 14.1511824,46.1482426 11.0360036,41.4991819 L4.67331965,46.2379885 C4.94017745,46.6856102 5.25114398,47.0878049 5.56321322,47.4899996 C9.83404074,53.1683685 15.6189003,56.5654181 22.4270824,57.3709155 L22.5605113,57.3709155 C22.9166892,57.4152345 23.2728672,57.4595534 23.5838337,57.4595534 L23.9400117,57.4595534 C24.2961897,57.4595534 24.6512649,57.5049804 25.0074429,57.5049804 C30.4361245,57.5936183 35.5086282,55.8507746 39.6912382,52.8104928 C40.1808451,52.496936 40.314274,52.3628711 39.9139873,52.6764279 Z" id="Path_38" fill="#FFC107"></path>
                            <path d="M25.809119,30.5457468 L53.351711,39.9336141 C58.2907858,23.9289236 49.9696744,6.76085991 34.7521635,1.57421006 C31.7263048,0.546009794 29.0125153,0.0988313183 25.809119,0.0988313183 L25.809119,30.5457468 Z" id="Path_39" fill="#1565C0"></path>
                        </g>
                    </g>
                </g>
            </g>
        </g>
    </g>
</svg>