<?xml version="1.0" encoding="UTF-8"?>
<svg width="297px" height="354px" viewBox="0 0 297 354" version="1.1" xmlns="http://www.w3.org/2000/svg" xmlns:xlink="http://www.w3.org/1999/xlink">
    <!-- Generator: Sketch 64 (93537) - https://sketch.com -->
    <title>SuccessStory</title>
    <desc>Created with Sketch.</desc>
    <g id="Landing" stroke="none" stroke-width="1" fill="none" fill-rule="evenodd">
        <g transform="translate(-962.000000, -3948.000000)" id="Succes-Story">
            <g transform="translate(-187.000000, 3721.000000)">
                <g id="illustration" transform="translate(1103.000000, 210.000000)">
                    <g id="SuccessStory" transform="translate(46.000000, 17.000000)">
                        <g id="Group" transform="translate(194.765654, 0.000000)" fill-rule="nonzero">
                            <g id="Path_0" transform="translate(0.057937, 0.007456)" fill="#FFECB3">
                                <path d="M1.68572608,0.0562364237 L99.953335,0.0562364237 C100.851638,0.0562364237 101.578423,0.784883707 101.578423,1.68154706 L101.578423,70.8249666 C101.578423,71.7235362 100.851638,72.4505372 99.953335,72.4505372 L1.68572608,72.4505372 C0.787422924,72.4505372 0.0606376289,71.7235362 0.0606376289,70.8249666 L0.0606376289,1.68154706 C0.0606376289,0.784883707 0.787422924,0.0562364237 1.68572608,0.0562364237 Z" id="Path"></path>
                            </g>
                            <g id="Path_1" transform="translate(72.996342, 37.267336)" fill="#1565C0">
                                <path d="M0.694733977,0.0545900569 L18.3090989,0.0545900569 C18.6530009,0.0545900569 18.9336665,0.332739395 18.9336665,0.679342931 L18.9336665,4.46078751 C18.9336665,4.80565803 18.6530009,5.08467387 18.3090989,5.08467387 L0.694733977,5.08467387 C0.350831996,5.08467387 0.0701663991,4.80565803 0.0701663991,4.46078751 L0.0701663991,0.679342931 C0.0701663991,0.332739395 0.350831996,0.0545900569 0.694733977,0.0545900569 Z" id="Path"></path>
                            </g>
                            <g id="Path_2" transform="translate(72.996342, 46.712282)" fill="#BBDEFB">
                                <path d="M0.694733977,0.0259952652 L18.3090989,0.0259952652 C18.6530009,0.0259952652 18.9336665,0.305877621 18.9336665,0.650748139 L18.9336665,4.43305923 C18.9336665,4.77879625 18.6530009,5.0578121 18.3090989,5.0578121 L0.694733977,5.0578121 C0.350831996,5.0578121 0.0701663991,4.77879625 0.0701663991,4.43305923 L0.0701663991,0.650748139 C0.0701663991,0.305877621 0.350831996,0.0259952652 0.694733977,0.0259952652 Z" id="Path"></path>
                            </g>
                            <g id="Path_3" transform="translate(72.996342, 58.063548)" fill="#FF6F00">
                                <path d="M0.694733977,0.0641216542 L18.3090989,0.0641216542 C18.6530009,0.0641216542 18.9336665,0.266018214 18.9336665,0.517305778 L18.9336665,3.26500531 C18.9336665,3.51542636 18.6530009,3.71905594 18.3090989,3.71905594 L0.694733977,3.71905594 C0.350831996,3.71905594 0.0701663991,3.51542636 0.0701663991,3.26500531 L0.0701663991,0.517305778 C0.0701663991,0.266018214 0.350831996,0.0641216542 0.694733977,0.0641216542 Z" id="Path"></path>
                            </g>
                            <g id="Shape" transform="translate(9.413457, 7.286130)" fill="#FF6F00">
                                <path d="M35.2269974,48.0392501 C24.8146502,51.7730367 13.290902,46.7871448 8.88254638,36.6385933 C8.70063349,36.214004 8.52565062,35.7755505 8.36452778,35.3292984 C4.45513322,24.4008889 10.1438091,12.3721865 21.0689773,8.46154548 C31.9950118,4.55211754 44.0203198,10.2425677 47.9288481,21.172277 C51.8373764,32.1006865 46.1487006,44.1295622 35.2226661,48.0392501 L35.2269974,48.0392501 Z M54.5348847,18.8127734 C49.40061,4.20906669 33.4044035,-3.46750843 18.8028625,1.66932928 C4.20392019,6.80478057 -3.46933862,22.8056462 1.66493604,37.4097862 C1.69698736,37.5042356 1.73163743,37.5986851 1.76542125,37.6931346 C1.98198421,38.2849601 2.2124072,38.867254 2.45842273,39.4408829 C8.65125714,53.6282321 25.168081,60.1071187 39.3529549,53.91418 C52.8456936,48.0201869 59.4785839,32.68558 54.5348847,18.8127734 Z"></path>
                            </g>
                            <g id="Path_4" transform="translate(10.799460, 7.459432)" fill="#1565C0">
                                <path d="M6.70912051,21.8195591 L0.0147262813,19.7260737 C3.58801513,8.32238416 13.9847697,0.429875036 25.9251851,0.0566696782 L26.1356843,7.06889247 C17.1821053,7.34912143 9.38670495,13.2678101 6.70912051,21.8195591 Z" id="Path"></path>
                            </g>
                            <g id="Path_5" transform="translate(9.500082, 27.129182)" fill="#00BCD4">
                                <path d="M8.80025246,16.7955409 C8.80025246,16.7955409 2.36400127,19.5978304 2.36400127,19.5978304 C2.11798575,19.0285341 1.88669651,18.4445072 1.6709998,17.8500821 C-0.387214573,12.1172596 -0.515419846,5.86886437 1.30630778,0.0563230746 L8.00156826,2.14980843 C6.6354891,6.50574837 6.73077681,11.1892287 8.27357134,15.486246 C8.4433567,15.932498 8.61660707,16.3709515 8.80025246,16.7955409 Z" id="Path"></path>
                            </g>
                            <g id="Path_6" transform="translate(46.489036, 38.740401)" fill="#FFF3E0">
                                <path d="M0.42792841,13.4230884 C0.42792841,13.4230884 -0.928621974,11.0471212 1.23960638,4.67741472 C3.32207581,-1.4799971 10.5292911,-0.920232388 12.8179285,3.02324934 C15.1082984,6.96846409 14.3347355,9.42241713 10.9624171,13.8728065 C7.59009863,18.324929 1.82779139,15.4749814 0.42792841,13.4230884 Z" id="Path"></path>
                            </g>
                            <g id="Path_7" transform="translate(63.640822, 162.131260)" fill="#FFF3E0">
                                <path d="M0.0155925331,0.397727558 C0.0155925331,0.397727558 0.372488292,3.01285124 0.420132143,3.40624625 C0.469508498,3.79877476 4.38929808,3.17488839 4.38929808,3.17488839 L4.70461375,0.0615221277 C4.70461375,0.0615221277 0.506757327,0.0285947917 0.0155925331,0.397727558 Z" id="Path"></path>
                            </g>
                            <g id="Path_8" transform="translate(57.143933, 164.990739)" fill="#FFC107">
                                <path d="M6.8693771,0.214894192 C6.8693771,0.214894192 5.62890446,1.79107377 4.43694193,2.47734877 C3.24584565,3.16189076 1.34875412,3.43224152 0.635828851,4.1462448 C0.124740265,4.65748502 -1.23267637,6.86708256 3.76126549,6.8220241 C8.75434111,6.77696564 11.1607887,7.13396728 11.6961324,6.29085418 C12.231476,5.44860759 10.9225695,0.0355268624 10.9225695,0.0355268624 C10.9225695,0.0355268624 9.68642809,0.380397381 6.8693771,0.214894192 Z" id="Path"></path>
                            </g>
                            <g id="Path_9" transform="translate(51.859797, 96.536540)" fill="#FF6F00">
                                <path d="M10.4755835,0.0675876895 C10.4755835,0.0675876895 12.5026128,6.31598294 12.2219472,11.7030684 C11.9421479,17.0910204 13.2597169,22.9867465 13.7950606,28.6129884 C14.3910418,34.8899785 16.8217445,49.740207 16.9118347,53.0953292 C17.0010586,56.4530509 16.5350151,67.1717653 16.5350151,67.1717653 L11.6710111,67.285278 C11.6710111,67.285278 7.58143611,41.3385372 6.51941136,38.6722895 C5.45825285,36.0043088 0.205301686,17.1326128 0.0346500737,15.0165982 C-0.135135287,12.8988506 10.4755835,0.0675876895 10.4755835,0.0675876895 Z" id="Path"></path>
                            </g>
                            <g id="Path_10" transform="translate(35.920763, 94.630221)" fill="#FF6F00">
                                <path d="M6.21882197,1.3430887 C6.21882197,1.3430887 3.26317069,17.8708783 2.90714118,21.1670779 C2.55024542,24.4624111 2.31895618,37.1238382 2.14570581,39.1869958 C1.97072294,41.2510198 0.965870803,66.1518844 0.0259875552,69.2123936 L5.45652035,69.2123936 C5.45652035,69.2123936 11.0334497,51.1066914 11.0334497,42.5395185 C11.0334497,33.9732121 14.725415,23.9199765 17.1128051,18.2634068 C19.5001952,12.6085701 24.951518,12.4785938 26.4354074,1.99470335 C26.4146174,1.97390714 8.20513744,-2.00250193 6.21882197,1.3430887 Z" id="Path"></path>
                            </g>
                            <g id="Path_11" transform="translate(48.827916, 51.824684)" fill="#FFF3E0">
                                <path d="M0.059771377,2.02156512 C0.059771377,2.02156512 0.672211429,3.80484032 0.059771377,5.0777418 C-0.552668675,6.35064329 7.88549051,5.58464948 7.88549051,5.58464948 C7.88549051,5.58464948 7.5043397,2.95392864 8.60707829,0.788523045 C9.70981689,-1.37688255 0.059771377,2.02156512 0.059771377,2.02156512 Z" id="Path"></path>
                            </g>
                            <g id="Path_12" transform="translate(41.811276, 95.929984)" fill="#FFC107">
                                <path d="M20.9173832,2.03716228 C20.9173832,2.03716228 17.8811705,5.15486109 0.0563063697,1.55018432 L0.328309448,0.0225292298 L20.5925388,0.7841905 L20.9173832,2.03716228 Z" id="Path"></path>
                            </g>
                            <g id="Path_13" transform="translate(22.753735, 35.534318)" fill="#FFF3E0">
                                <path d="M24.8579628,21.7822992 C24.8579628,21.7822992 21.7403225,22.098575 20.8480831,22.2675442 C19.9575762,22.4382464 13.9587822,21.1930732 12.7425646,21.0526988 C11.526347,20.9105913 6.2578033,17.3301768 6.09927921,16.9055875 C5.94248763,16.4783986 2.91060619,8.82799206 2.74082083,7.1746932 C2.57016921,5.52052782 -0.202702931,6.36364092 0.0363825773,7.51436466 C0.479037268,9.64857594 1.05076348,14.8121021 1.36607915,16.32416 C1.70218487,17.9471311 2.60655179,21.6159295 3.11677412,22.0691137 C3.62786271,22.5231643 8.34893525,26.1235085 12.9703888,27.639899 C15.8056311,28.5869931 18.5256619,29.8529626 21.075041,31.415278 L43.8574645,31.415278 C43.8574645,31.415278 52.7209533,18.7451857 52.912395,16.8189366 C53.1021041,14.8935539 46.7230256,2.22432819 45.4496354,0.628218909 C44.1771114,-0.969623392 42.3380587,1.15072374 42.3380587,1.15072374 C42.3380587,1.15072374 46.1521656,12.3399524 46.6571904,13.9291296 C47.164814,15.5174403 42.2037897,22.5439605 40.8541693,22.5638902 C39.5036827,22.5846864 36.0109553,22.1393009 34.4629633,22.0777787 C33.3706197,21.9911279 32.2973337,21.7398403 31.2812202,21.3308481 L24.8579628,21.7822992 Z" id="Path"></path>
                            </g>
                            <g id="Path_14" transform="translate(32.888882, 53.297749)" fill="#FFC107">
                                <path d="M4.9142467,12.4785938 C4.9142467,12.4785938 7.70271137,14.3363888 7.95738941,17.5147432 C8.29696014,20.8646664 8.8929414,24.1851282 9.74186821,27.444068 C10.246893,29.1614885 9.29488226,41.6322837 9.16494448,42.5247878 C9.0350067,43.4164254 26.8000995,45.5333065 29.5235953,43.4164254 C29.5235953,43.4164254 30.2893619,31.7722796 30.6055438,28.4604829 C30.9208595,25.1486861 32.449794,17.1334793 32.9600163,16.0546758 C33.4711049,14.9758723 39.6396843,6.32464802 39.8952286,5.16959174 C39.8952286,5.16959174 36.701358,0.0823183398 34.4109881,0.016463668 C34.4109881,0.016463668 30.7640679,4.28142018 29.5885641,4.47725118 C28.4121941,4.67048265 21.1261499,3.34905667 21.1261499,3.31612933 C21.1261499,3.28493501 20.3153382,4.39926538 16.1122842,3.1263639 C16.1122842,3.1263639 11.0906223,3.69392719 10.2720143,3.79444221 C9.28275473,3.92441854 2.40471511,2.93659846 2.40471511,2.93659846 C2.40471511,2.93659846 -0.355163255,7.59321697 0.127339021,9.95012101 L4.9142467,12.4785938 Z" id="Path"></path>
                            </g>
                            <g id="Path_15" transform="translate(19.375353, 31.028472)" fill="#FFF3E0">
                                <path d="M6.26819832,12.690022 C6.26819832,12.690022 5.64796201,9.7430254 6.3981361,8.89557975 C6.82433201,8.41293433 7.84910793,7.13656681 7.94179688,6.9494009 C8.03621833,6.7631015 9.15801447,6.13834862 9.15801447,5.82293941 C9.15801447,5.50753019 8.08039718,5.14532949 7.13185141,6.01270484 C6.18330564,6.8809467 5.60811442,7.06637959 5.23475988,6.97366315 C4.86227159,6.8809467 4.31913168,3.76324789 4.27408658,2.9894555 C4.22904149,2.21393009 3.92585334,0.175034786 3.46414111,0.317142236 C3.00242888,0.459249685 3.00589389,1.34655474 3.00589389,1.34655474 C3.00589389,1.34655474 2.44196394,-0.201030051 2.06601064,0.106580587 C1.68919109,0.414191226 1.73683494,1.16025534 1.73683494,1.16025534 C1.73683494,1.16025534 1.0360372,0.292013479 0.849793056,0.925431441 C0.73371531,1.32142598 0.73371531,1.7442823 0.849793056,2.14200985 C0.849793056,2.14200985 0.120409006,1.73561721 0.0753639102,2.7251703 C0.0311850663,3.7147234 0.286729359,6.59239926 0.800416701,7.62701081 C1.31583655,8.66075586 3.23285187,11.3564649 3.47626864,12.4101396 C3.71968541,13.4638144 6.26819832,12.690022 6.26819832,12.690022 Z" id="Path"></path>
                            </g>
                            <g id="Path_16" transform="translate(58.183435, 25.222863)" fill="#FFF3E0">
                                <path d="M7.51646723,13.3182409 C7.51646723,13.3182409 5.39588272,9.75429001 4.67862619,9.43454825 C3.96050342,9.11480649 2.94005875,8.93543916 2.04781935,8.30028818 C1.15644621,7.66340418 -0.0181912887,7.13310077 0.0459113476,6.92080611 C0.110013984,6.71024446 1.15644621,6.79516233 2.28430611,7.28214029 C3.40956725,7.76825175 3.9050633,7.53342786 4.00554851,7.28214029 C4.10689998,7.03171924 3.40610224,5.22591482 3.06566527,4.80479152 C2.72522829,4.38366822 0.309251907,1.96697507 0.715524021,1.58571118 C1.12006363,1.20444729 2.68451446,2.56313315 2.94005875,2.83781645 C2.94005875,2.83781645 1.68832484,0.207962122 2.17775713,0.0823183398 C2.66805567,-0.043325442 3.57675385,0.892504105 3.57675385,0.892504105 C3.57675385,0.892504105 3.47020488,-1.35348681 5.88618126,2.29538192 C5.88618126,2.29538192 5.37942393,1.07880351 6.12093551,1.48432964 C6.86331334,1.88898927 7.58490112,4.1557764 7.81965537,5.30390061 C8.05440962,6.45029181 9.10863811,10.0991605 10.013005,10.9795335 C10.9165057,11.8599065 7.51646723,13.3182409 7.51646723,13.3182409 Z" id="Path"></path>
                            </g>
                            <g id="Path_17" transform="translate(47.008787, 37.180685)" fill="#212121">
                                <path d="M10.4262072,15.4325224 C10.4262072,15.4325224 9.31134104,15.533904 6.93607849,14.7150531 C4.5616822,13.8962023 4.38410057,9.74042587 3.86868072,10.2317364 C2.82311475,11.2360201 1.84165141,10.5428131 1.43624555,9.94752149 C1.43624555,9.94752149 2.59615677,8.41899989 2.05648187,7.6850669 C1.66147103,7.18422479 1.18503252,6.75530292 0.646223874,6.41216542 C-0.82813676,5.24497801 -0.471241002,-3.84903227 9.91944983,2.03023021 C18.5282606,6.89914339 10.4262072,15.4325224 10.4262072,15.4325224 Z" id="Path"></path>
                            </g>
                            <g id="Path_18" transform="translate(48.827916, 55.723974)" fill="#FFF3E0">
                                <path d="M0.059771377,1.17845202 L0.326576944,0.0112646149 C0.326576944,0.0112646149 5.18971478,-0.0857843752 7.82398663,0.298079041 L8.10465223,1.68969224 C8.10465223,1.68969224 4.71674128,3.22601241 0.059771377,1.17845202 Z" id="Path"></path>
                            </g>
                            <g id="Path_19" transform="translate(49.347667, 45.759122)" fill="#FFF3E0">
                                <path d="M0.735447813,0.634284471 C1.17723625,-0.0979154989 2.80578971,-0.580560923 2.99983013,1.48173012 C3.14795919,3.10470117 0.0866251841,4.84725045 0.0589051252,3.35165619 C-0.00779626657,2.39762996 0.228690486,1.44620325 0.735447813,0.634284471 Z" id="Path"></path>
                            </g>
                        </g>
                        <g id="Group" transform="translate(0.000000, 9.161091)" fill-rule="nonzero">
                            <g id="Path_20" transform="translate(0.229742, 36.310996)" fill="#2196F3">
                                <path d="M7.53200605,6.22932271 C7.53200605,6.22932271 6.523078,20.4500336 9.28835214,22.1764931 C11.0213954,23.2446747 17.9294023,26.8452284 17.7239918,27.5191382 C17.5185813,28.1947848 13.8229184,33.5296139 13.8229184,33.5296139 C13.8229184,33.5296139 0.55409051,24.7409974 0.1294604,21.9698043 C-0.273592978,19.2637441 0.784530022,1.11768274 2.60992166,0.280506237 C3.97443427,-0.345639264 4.69337102,0.171082751 6.41778354,1.45897981 C8.82747312,3.26273044 7.53200605,6.22932271 7.53200605,6.22932271 Z" id="Path"></path>
                            </g>
                            <g id="Path_21" transform="translate(0.747583, 145.734482)" fill="#FFF3E0">
                                <path d="M5.47099649,0.449852107 C5.47099649,0.449852107 5.06708004,3.3287319 5.00666519,3.76034676 C4.9471134,4.19109318 0.420314764,3.50415686 0.420314764,3.50415686 L0.0526472292,0.0755543114 C0.0526472292,0.0755543114 4.90654915,0.0382113759 5.47099649,0.449852107 Z" id="Path"></path>
                            </g>
                            <g id="Path_22" transform="translate(0.057128, 148.860867)" fill="#2196F3">
                                <path d="M5.7463156,0.268348072 C5.7463156,0.268348072 7.18418911,2.00262347 8.57286766,2.76337723 C9.96154622,3.52326254 12.1468378,3.81940071 12.9702059,4.60447079 C13.5639976,5.16895703 15.1296054,7.60145848 9.35567155,7.55369426 C3.58173772,7.50419316 0.794886854,7.89933352 0.176929213,6.96489169 C-0.440165359,6.03044987 1.07365825,0.0573170638 1.07365825,0.0573170638 C1.07365825,0.0573170638 2.44248621,0.568828436 5.7463156,0.268348072 Z" id="Path"></path>
                            </g>
                            <g id="Path_23" transform="translate(23.446307, 145.734482)" fill="#FFF3E0">
                                <path d="M5.48653174,0.449852107 C5.48653174,0.449852107 5.08347836,3.3287319 5.01788509,3.76034676 C4.95401796,4.19109318 0.430671596,3.50415686 0.430671596,3.50415686 L0.0630040611,0.0755543114 C0.0630040611,0.0755543114 4.91690598,0.0382113759 5.48653174,0.449852107 Z" id="Path"></path>
                            </g>
                            <g id="Path_24" transform="translate(22.755851, 148.860867)" fill="#2196F3">
                                <path d="M5.76098778,0.268348072 C5.76098778,0.268348072 7.19886129,2.00262347 8.58753984,2.76337723 C9.97621839,3.52326254 15.0968087,4.1398552 15.9167246,4.92492529 C16.5105163,5.48941152 17.5004568,7.76906747 9.37465907,7.55369426 C3.5964099,7.40345408 0.814737448,7.89933352 0.192464461,6.96489169 C-0.428945457,6.03044987 1.08833043,0.0573170638 1.08833043,0.0573170638 C1.08833043,0.0573170638 2.37775601,0.60096073 5.76098778,0.268348072 Z" id="Path"></path>
                            </g>
                            <g id="Path_25" transform="translate(0.057128, 72.090739)" fill="#1565C0">
                                <path d="M7.78833764,0.0460273391 C7.78833764,0.0460273391 3.52477515,6.86415261 3.8441108,13.0274739 C4.16344645,19.1907951 3.46436029,25.7692308 2.82223671,32.2095845 C2.11106758,39.3855072 0.165709312,54.3174708 0.0595517838,58.1559772 C-0.0448796052,61.9962205 0.196779807,76.440989 0.196779807,76.440989 L7.59501011,76.3836719 C7.59501011,76.3836719 10.220467,47.2023389 11.4917681,44.1723505 C12.7639323,41.1397568 17.9846387,19.2194536 18.200406,16.7973735 C18.4135842,14.3770302 7.78833764,0.0460273391 7.78833764,0.0460273391 Z" id="Path"></path>
                            </g>
                            <g id="Path_26" transform="translate(5.667079, 70.961767)" fill="#1565C0">
                                <path d="M24.6268203,2.10075723 C24.6268203,2.10075723 26.3098055,18.8529718 26.7344356,22.6237398 C27.1590657,26.3945079 26.8716636,42.7368186 27.0813895,45.0928973 C27.2911153,47.4507129 25.6642296,72.3810303 25.2654916,77.1313991 L17.1319262,77.0784242 C17.1319262,77.0784242 16.5709312,56.9088969 16.5709312,47.1120211 C16.5709312,37.3168823 14.0757977,25.9064444 11.2121337,19.4426428 C8.34933271,12.9779728 1.79604728,12.8233904 0.0353858426,0.829360545 C0.0353858426,0.829360545 22.2438859,-1.70214311 24.6268203,2.10075723 Z" id="Path"></path>
                            </g>
                            <g id="Path_27" transform="translate(9.809811, 13.210483)" fill="#FFF3E0">
                                <path d="M2.54260225,1.45203228 C2.54260225,1.45203228 7.62262833,-1.96449894 11.1922831,1.69606402 C14.7619378,5.35654015 16.5113794,13.9540997 13.9506527,15.6692694 C11.390789,17.3835707 7.0409196,17.837765 4.9781839,15.5068711 C2.91458513,13.1751087 0.713758337,9.62839828 0.171750797,7.03523536 C-0.368530604,4.44294089 1.25490281,2.5453987 2.54260225,1.45203228 Z" id="Path"></path>
                            </g>
                            <g id="Path_28" transform="translate(13.003168, 25.802868)" fill="#FFF3E0">
                                <path d="M9.02943134,3.6578708 C9.02943134,3.6578708 8.96383807,7.24974013 9.35567155,8.01744141 C9.74836809,8.78601113 1.94276906,8.79382709 1.94276906,8.79382709 C1.52590658,6.18850601 0.912264283,3.61965942 0.104431389,1.10986678 C-1.09437191,-2.40384292 9.02943134,3.6578708 9.02943134,3.6578708 Z" id="Path"></path>
                            </g>
                            <g id="Path_29" transform="translate(9.119356, 12.428886)" fill="#212121">
                                <path d="M4.18588625,14.4473738 C4.18588625,14.4473738 4.9134537,15.195101 6.97705247,14.3501085 C9.03978817,13.5059845 10.9782419,10.0191964 11.7981578,9.4738159 C12.6172105,8.93017223 12.5050115,8.41779242 12.5050115,8.41779242 L13.2558819,9.10820251 L14.2216564,8.9423304 C14.2216564,8.9423304 12.7553016,6.58451482 13.8168769,5.22887941 C14.8793153,3.87063869 10.5139106,-2.7514796 4.21436754,1.29571302 C4.21436754,1.29571302 -0.719799822,4.00958915 0.176929213,6.98312894 C1.07365825,9.95753718 2.65134898,13.228952 4.18588625,14.4473738 Z" id="Path"></path>
                            </g>
                            <g id="Path_30" transform="translate(14.038851, 31.534574)" fill="#BBDEFB">
                                <path d="M8.78431965,2.19281191 C8.78431965,2.19281191 8.76015371,0.729489903 8.10249488,0.567959996 C7.44397298,0.404693208 0.833724974,-0.212767888 0.0258920799,0.107686605 L0.0258920799,1.84283045 C0.0258920799,1.84283045 1.57251232,2.79811484 8.78431965,2.19281191 Z" id="Path"></path>
                            </g>
                            <g id="Path_31" transform="translate(19.217267, 18.942189)" fill="#FFF3E0">
                                <path d="M2.00749926,0.839781829 C1.76929213,0.36040275 0.149310994,-0.785070086 0.0241659413,0.884940728 C-0.100979112,2.55495154 1.61566579,4.34307025 2.2569263,4.00090474 C2.89991295,3.65960768 2.61251086,2.05125613 2.00749926,0.839781829 Z" id="Path"></path>
                            </g>
                            <g id="Path_32" transform="translate(8.169980, 15.468428)" fill="#212121">
                                <path d="M2.71348998,0.07208055 C2.71348998,0.07208055 -4.55527993,2.03388733 4.84095588,11.1116944 L2.71348998,0.07208055 Z" id="Path"></path>
                            </g>
                            <g id="Path_33" transform="translate(61.076130, 52.811363)" fill="#FFF3E0">
                                <path d="M14.726552,1.60053559 L7.32055406,1.536271 C7.95922537,1.15849944 8.99231936,0.488063483 8.76619519,0.178898714 C8.43909192,-0.255321466 6.34269651,0.703436692 5.49171015,0.792017609 C4.7080432,0.870177242 3.39963009,0.767701279 2.40710036,1.13331467 L0.0647301998,2.13723173 L2.20945749,4.13203924 C2.20945749,4.13203924 6.0811865,4.69218327 7.21525961,4.7703429 C9.06050183,4.90495116 14.6980707,2.693902 14.7904191,2.35694714 C14.9613068,1.75511797 14.726552,1.60053559 14.726552,1.60053559 Z" id="Path"></path>
                            </g>
                            <g id="Path_34" transform="translate(1.696960, 33.358299)" fill="#2196F3">
                                <path d="M30.7925876,2.39602696 C26.0810921,1.58403522 21.1262111,0.364744952 21.1262111,0.364744952 L12.3557005,0.0191056879 C12.3557005,0.0191056879 4.3084421,1.80288219 1.13838845,3.24536163 C0.835451112,3.38431209 0.835451112,10.4690486 0.0112199013,12.3309847 L2.63667681,17.9098456 C2.63667681,17.9098456 4.15395269,28.9607492 4.46983606,33.8735163 C4.61483171,36.1331981 1.34034667,55.0295919 1.34034667,55.0295919 C4.45689002,55.8520049 7.63125902,56.4234387 10.8375616,56.7369457 C16.8212213,57.3995657 31.7747605,56.4929139 31.8714242,55.7860035 C31.9689511,55.079093 28.9766897,29.297704 28.843777,27.9611743 C28.6375035,25.9307607 29.428938,16.4465236 29.428938,16.4465236 C30.5586958,17.9697679 37.0765954,23.6867108 40.2639104,25.5034881 C42.5234259,26.7948589 48.0815924,26.0071835 49.7162457,25.8404429 C53.2574192,25.4748295 63.0411731,24.7713929 63.2319114,24.4222798 C63.3803594,24.2112488 62.665738,20.6237217 62.2583692,20.4847712 C61.8501375,20.3466892 49.270902,19.7370441 46.1060267,19.9003109 C44.8174642,19.9697861 40.6255365,15.260234 40.6255365,15.260234 C40.6255365,15.260234 33.3904263,3.57015832 30.7925876,2.39602696 Z" id="Path"></path>
                            </g>
                            <g id="Path_35" transform="translate(57.623852, 23.631767)" fill="#00838F">
                                <polygon id="Path" points="0.0768131704 0.0191056879 23.2588554 0.0191056879 23.2588554 20.4847712 19.7176819 16.9259026 0.0768131704 16.9259026"></polygon>
                            </g>
                            <g id="Path_36" transform="translate(35.442970, 0.010189)" fill="#BBDEFB">
                                <polygon id="Path" points="23.229511 0.0733832105 0.0474688132 0.0733832105 0.0474688132 20.5403514 3.58519 16.9797459 23.229511 16.9797459"></polygon>
                            </g>
                        </g>
                        <g id="Group" transform="translate(30.551475, 124.438154)">
                            <g id="Path_71" transform="translate(40.550190, 101.944570)" fill="#00838F" fill-rule="nonzero">
                                <path d="M15.3641609,63.3660409 C16.5450884,65.8463936 18.1548154,68.6400178 20.492464,69.3371329 C22.1108361,69.8156465 26.6642367,66.7681347 27.5754356,65.5434498 C28.4849054,64.3204862 25.6622638,5.27655883 23.6237374,1.68082195 C20.8849538,-3.1507881 -0.701986196,3.51655837 0.0423612359,11.8836608 C0.993327757,22.579644 4.05025287,33.954669 7.68208046,44.5568429 C9.88054216,50.9677198 12.4446937,57.2469195 15.3641609,63.3660409 Z" id="Path"></path>
                            </g>
                            <g id="Path_72" transform="translate(17.208284, 209.265870)" fill="#FFF3E0" fill-rule="nonzero">
                                <path d="M0.0570579913,10.8508977 C2.45090008,11.1960127 4.89142598,11.0023696 7.2005456,10.2820173 C7.3215777,7.51249095 7.44606786,4.74210392 7.57315157,1.97257753 C7.61637732,1.6291838 7.57055802,1.27890498 7.43915174,0.957027144 C7.14435212,0.548225081 6.68097207,0.294337485 6.17782433,0.264215228 C4.28107838,-0.0740146892 1.35555955,-0.178151636 1.04865672,2.22646513 C0.684695895,5.09582528 0.388167244,7.97551307 0.0570579913,10.8508977 Z" id="Path"></path>
                            </g>
                            <g id="Path_73" transform="translate(67.177252, 209.265870)" fill="#FFF3E0" fill-rule="nonzero">
                                <path d="M1.09706956,10.8508977 C3.44595687,11.2054797 5.84412153,11.010976 8.10309928,10.2820173 C7.59130638,7.51249095 7.07605543,4.74210392 6.55734642,1.97257753 C6.51844325,1.60938917 6.39395308,1.26169226 6.1933856,0.957027144 C5.82250866,0.557692076 5.31503834,0.310689567 4.76952936,0.264215228 C2.79670609,-0.0740146892 -0.152154643,-0.178151636 0.0950966521,2.22646513 C0.385573699,5.09582528 0.765960307,7.97551307 1.09706956,10.8508977 Z" id="Path"></path>
                            </g>
                            <g id="Path_74" transform="translate(52.912754, 153.496662)" fill="#00838F" fill-rule="nonzero">
                                <path d="M14.5731297,5.01578614 C11.4911336,0.108440126 4.05716899,-3.25492505 0.942321371,5.25762484 C-3.81856284,18.2351539 11.2810565,42.5128326 13.5175568,58.1884552 L21.6076884,58.1884552 C21.8385139,56.6702935 16.2848694,7.73797756 14.5731297,5.01578614 Z" id="Path"></path>
                            </g>
                            <g id="Path_75" transform="translate(25.421177, 96.866818)" fill="#093C5F">
                                <path d="M2.94021558,21.1337757 C4.90871628,22.6803384 7.51004197,22.9135707 9.95402593,22.9135707 C30.0514066,22.9135707 41.6799981,16.4063026 38.9023114,7.20954711 C36.0468182,-2.23248958 18.0588542,-0.706582091 8.66244049,2.33318398 C6.63947535,2.98984919 3.68715656,3.62585913 2.30393253,5.50548798 C0.298257682,8.24403148 -1.84573957,17.3857062 2.94021558,21.1337757 Z" id="Path"></path>
                            </g>
                            <g id="Path_76" transform="translate(53.950172, 39.290275)" fill="#B2EBF2" fill-rule="nonzero">
                                <path d="M20.5702704,42.1961185 C22.1030555,43.4724416 24.1381239,44.6687255 25.989915,43.9234148 C27.0645072,43.4276885 27.8572675,42.4775465 28.1503381,41.334622 C28.433899,40.204607 28.4978731,39.0306996 28.3353443,37.8765869 C27.4708293,28.7762226 16.262392,7.43417308 9.36096863,0.564577164 C6.8901847,-2.97952156 -0.281831896,13.8527958 0.0821289268,16.3968356 C0.44608975,18.9425966 13.4509892,36.285271 20.5702704,42.1961185 Z" id="Path"></path>
                            </g>
                            <g id="Path_77" transform="translate(21.357956, 104.182224)" fill="#00838F" fill-rule="nonzero">
                                <path d="M0.00172903004,60.8581478 C0.42534139,63.3385006 3.64133726,66.4023644 5.76890872,67.0994795 C7.24204232,67.5779931 12.7213385,64.5304813 14.0086014,63.3057964 C15.2949997,62.0828328 29.6822587,12.5463504 28.7399373,8.94544976 C27.4734228,4.1138397 23.3808087,1.00178021 18.9181822,0.285731126 C12.4472872,-0.762523426 5.42915432,1.49234269 2.83647378,9.64256485 C-3.42434399,29.3339147 4.33727185,44.0421826 0.00172903004,60.8581478 Z" id="Path"></path>
                            </g>
                            <g id="Path_78" transform="translate(100.633984, 90.498113)" fill="#FFF3E0" fill-rule="nonzero">
                                <path d="M9.07567867,4.20420647 C10.018,5.2111505 11.0338052,6.45907258 10.7294959,7.79994335 C10.4710059,8.93081895 9.29785903,9.67268711 8.13767988,9.8138314 C7.78582226,9.84911747 4.05976253,8.31890681 0.0267999656,6.45046622 L4.07186574,0.0086063592 C5.82596672,1.30128151 7.49793876,2.70239679 9.07567867,4.20420647 Z" id="Path"></path>
                            </g>
                            <g id="Path_79" transform="translate(74.352727, 74.318157)" fill="#B2EBF2" fill-rule="nonzero">
                                <path d="M30.3487998,16.168767 L26.3780823,24.0091603 C17.1191264,19.7197508 2.89353177,10.9206092 0.721005526,7.05979646 C-0.852411809,4.26617226 0.491044531,1.74450901 2.92897689,0.214298344 C5.57525736,-1.44845025 21.7382302,9.51174819 30.3487998,16.168767 Z" id="Path"></path>
                            </g>
                            <g id="Path_80" transform="translate(17.381187, 153.324535)" fill="#00838F" fill-rule="nonzero">
                                <path d="M20.5374188,5.18791333 C19.1299883,0.292616213 11.9743975,-3.57852416 6.82188802,5.42975202 C-1.46967553,19.9254428 0.46683811,41.6100255 0.00950966521,58.3605824 L8.09964122,58.3605824 C8.83620801,56.8424206 21.3223984,7.91010474 20.5374188,5.18791333 Z" id="Path"></path>
                            </g>
                            <g id="Path_81" transform="translate(19.283120, 29.823280)" fill="#B2EBF2" fill-rule="nonzero">
                                <path d="M47.2154878,13.4104289 C49.2626593,16.421794 48.52177,20.7223917 48.0246738,24.2088278 C46.9371139,31.6670987 47.2526619,84.3405989 47.3529457,85.5162276 C47.4540939,86.6918563 46.9483526,88.0008835 45.7345736,88.5318959 C44.9997358,88.7935292 44.2164852,88.8993874 43.4375571,88.8408642 C32.8852868,88.7728739 16.1724825,88.7057443 5.61502505,88.6360328 C4.91822594,88.6928348 4.22056232,88.5628788 3.59292442,88.257353 C2.32295186,87.4526584 2.76385452,85.7606482 3.21686039,84.4533422 C6.26168229,75.6989537 7.76766745,52.6425173 5.00467745,43.8270236 C2.24946808,35.0812414 -1.10830825,24.2501383 0.414102694,15.0895296 C4.1384334,10.5634453 11.7383849,0.0542187599 26.85443,0.0542187599 C37.4404165,0.0499168834 45.3801224,10.7045896 47.2154878,13.4104289 Z" id="Path"></path>
                            </g>
                            <g id="Path_82" transform="translate(0.004435, 39.290275)" fill="#B2EBF2" fill-rule="nonzero">
                                <path d="M25.4271157,0.146308106 C26.8673978,-0.284009854 37.0150751,0.358885179 34.3255688,7.54261321 C30.965199,16.4622439 24.2418657,23.7217079 18.6372148,31.4416121 C16.9133718,33.812664 15.1618644,36.2129776 12.893377,38.0693693 C10.6240251,39.9249003 7.73135782,41.2132723 4.80324545,40.9757368 C3.26613774,40.8483627 1.00456645,40.131453 0.252438386,38.6322252 C-0.353586643,37.424753 0.398541424,35.4435691 0.657031415,34.242982 C1.63220436,29.9828342 17.4234357,2.52166325 25.4271157,0.146308106 Z" id="Path"></path>
                            </g>
                            <g id="Path_83" transform="translate(11.934743, 65.969989)" fill="#CD3470">
                                <path d="M0.627389548,0.054220063 C0.457045755,0.34592285 0.376356591,0.646333183 0.376356591,0.946743515 L0.627389548,0.054220063 Z" id="Path"></path>
                            </g>
                            <g id="Path_84" transform="translate(23.692147, 92.993957)" fill="#FFF3E0" fill-rule="nonzero">
                                <path d="M9.97563881,5.73527777 C10.1174193,7.21729283 7.14435212,8.55299978 5.69196689,8.88692651 C5.28650934,8.98503901 3.10360892,6.8308673 0.0605160514,4.73263693 L4.71679395,0.021515898 C6.86857183,2.71530633 9.94710981,5.44180092 9.97563881,5.73527777 Z" id="Path"></path>
                            </g>
                            <g id="Path_85" transform="translate(34.585036, 28.876581)" fill="#FFECB3" fill-rule="nonzero">
                                <path d="M20.1553032,53.0341085 C18.2395379,42.9259378 16.2805468,32.8513337 13.9913111,23.7027739 C11.8265655,15.0533829 6.6135399,8.95749866 0.044954781,3.27644095 C5.46892201,-0.940675061 14.9336324,-1.33828886 19.5812652,4.16978103 C25.3216449,10.9670835 23.4966537,23.2956931 23.2416218,31.4459153 C23.0358672,37.9118729 21.1546825,53.0401311 20.1553032,53.0341085 Z" id="Path"></path>
                            </g>
                            <g id="Path_86" transform="translate(46.688246, 32.491251)" fill="#FFC107" fill-rule="nonzero">
                                <path d="M1.59762376,5.28602582 C0.836850539,4.19818202 -0.170309459,3.04751179 0.0605160514,1.74278774 C0.23255454,0.866660372 0.934540736,0.191061174 1.81980412,0.0473349756 C5.02283226,-0.403638247 3.55402124,3.06386388 3.09755731,4.59407454 C6.17523078,9.18814909 9.8770841,18.8272714 11.1029664,30.3322524 C10.7701281,37.1975451 9.01084005,51.0374314 8.05209289,51.028829 C6.7458107,44.142877 5.41964466,37.2775843 3.98368521,30.706629 C3.70876943,23.1123776 3.01283484,7.3197085 1.59762376,5.28602582 Z" id="Path"></path>
                            </g>
                            <g id="Path_87" transform="translate(0.004435, 71.994440)" fill="#B2EBF2" fill-rule="nonzero">
                                <path d="M0.091638592,3.75495452 C0.495367106,2.38482214 1.88723629,1.58012755 3.2289636,1.09214698 C5.48188974,0.287452397 8.31922803,-0.279706674 10.7122056,0.198806898 C12.3625648,0.533594271 12.8726286,2.02679759 13.81495,3.23082725 C16.176805,6.24305297 25.4080964,17.1714079 30.0315227,22.924759 L24.9706518,29.2555968 C17.499513,24.0960845 3.9370014,11.0385163 1.65727529,8.08309256 C0.698528136,6.8188184 -0.313818952,5.28860773 0.091638592,3.75495452 Z" id="Path"></path>
                            </g>
                            <g id="Path_88" transform="translate(35.017294, 0.991977)" fill="#212121">
                                <path d="M12.80779,1.85897359 C11.6389657,0.695393824 3.58860185,-2.35814242 0.995921302,3.42791287 C0.0942321371,5.44180092 -0.24119969,8.87659888 0.23255454,11.0307706 C0.858463414,13.8898031 5.79743772,24.4997227 7.37431311,23.2397518 C8.96674978,21.9487979 9.8831357,20.0089245 9.8658454,17.9640536 C9.83472286,15.6902535 8.63304698,13.4069864 9.28316228,11.223553 C9.68861982,9.90764072 10.6802185,8.87659888 11.6493399,7.90321966 C12.435184,7.11659843 13.7501114,6.25165933 13.9515434,5.13627517 C14.0933238,3.92622107 13.670576,2.71960951 12.80779,1.85897359 Z" id="Path"></path>
                            </g>
                            <g id="Path_89" transform="translate(48.071470, 3.143567)" fill="#212121">
                                <path d="M7.19535851,3.37541408 C7.05790062,2.41236248 6.74926876,1.42177054 6.0265342,0.770269149 C4.8698131,-0.277124766 3.02493805,-0.112743306 1.61318503,0.556831441 C0.852411809,0.913995348 0.0726192616,1.53451385 0.0682966865,2.3719126 C0.0682966865,3.07677342 0.606025029,3.64823567 1.13597274,4.11556097 C2.34975182,5.19049524 4.10471731,6.78181105 5.71444428,7.20782583 C7.70109979,7.75260837 7.35356475,4.52264176 7.19535851,3.37541408 Z" id="Path"></path>
                            </g>
                            <g id="Path_90" transform="translate(37.870193, 14.417897)" fill="#FFF3E0" fill-rule="nonzero">
                                <path d="M12.5103968,4.92111619 C11.4755724,0.376097897 8.02097035,-0.686787465 6.01443099,0.402777611 C4.72889716,8.90758178 3.41396981,12.6883554 0.0648386264,17.3151341 C4.2309365,19.9736384 11.33725,19.4779122 12.8743577,17.3151341 C12.9400608,16.6636327 13.0446671,7.26893098 12.5103968,4.92111619 Z" id="Path"></path>
                            </g>
                            <g id="Path_91" transform="translate(41.328253, 4.348457)" fill="#FFF3E0" fill-rule="nonzero">
                                <path d="M0.598244393,4.26359035 C2.53648707,-0.35027882 8.8872144,-1.47082679 12.461984,2.49670481 C15.7384959,6.11998203 16.1275277,15.7074662 14.907697,18.0793788 C12.7844481,22.2233407 5.16115467,20.397932 3.53586643,18.2282688 C1.15326304,15.0559648 -1.02704384,8.14936153 0.598244393,4.26359035 Z" id="Path"></path>
                            </g>
                            <g id="Path_92" transform="translate(45.996634, 0.045277)" fill="#212121">
                                <path d="M8.70393721,7.71301912 C8.84225962,8.78451084 8.78087905,9.87579719 9.02294326,10.93524 C9.26587198,11.9938222 9.90993567,13.0360523 10.9404376,13.3501844 C10.4148124,12.5205314 10.4148124,11.457646 10.6093283,10.4963157 C10.8029797,9.53412473 11.1712631,8.61238366 11.3208242,7.64158634 C11.884488,4.04240692 9.41197502,0.66871411 5.7965732,0.106718854 C4.97441942,-0.021515898 4.13583985,0.00602445144 3.32406025,0.187618631 C2.14313273,0.401056339 1.0996631,1.0852619 0.43571557,2.08015702 C-0.166851399,3.09484677 -0.102012772,4.54071512 0.783250608,5.32905762 C1.56736573,5.9228964 2.58489991,6.11826076 3.5341374,5.85748807 C4.3113364,5.67933644 4.54475546,5.15262726 5.18449657,4.80234844 C7.17979724,3.70245573 8.50077619,6.10707249 8.70393721,7.71301912 Z" id="Path"></path>
                            </g>
                            <g id="Path_93" transform="translate(38.648257, 14.503961)" fill="#FFF3E0" fill-rule="nonzero">
                                <path d="M0.0622450814,2.63354592 C0.287018986,3.77388851 0.945779431,4.78341445 1.90366207,5.45126792 C4.62169729,7.31110214 5.65652177,3.4382405 4.58884572,1.50525222 C3.31887316,-0.797809498 -0.532541252,-0.431178596 0.0622450814,2.63354592 Z" id="Path"></path>
                            </g>
                            <g id="Path_94" transform="translate(39.253417, 3.401757)" fill="#212121">
                                <path d="M9.26241392,1.83315451 C9.26241392,2.70583933 6.90488146,4.12760987 6.26081777,4.72316993 C5.61848311,5.31959062 4.89056146,5.86265189 4.4894265,6.64066676 C3.971582,7.64244697 4.08483347,8.85422235 4.38482018,9.94636933 C4.68307786,11.0376557 5.11274182,12.0962379 5.19314172,13.2193677 C5.27354162,14.3433583 4.93810979,15.5955835 3.97936263,16.1997499 C4.38482018,15.1609624 3.94824009,13.9603753 3.27564741,13.0575682 C2.60478375,12.1564824 1.71865586,11.4275238 1.07977926,10.5057827 C-0.153019158,8.68467707 -0.324193132,6.34805055 0.631095964,4.36858793 C1.31924992,2.99673427 3.19524751,0.770269149 4.63120696,0.229789791 C5.83720541,-0.213437708 9.30650418,-0.145447471 9.26241392,1.83315451 Z" id="Path"></path>
                            </g>
                            <g id="Path_95" transform="translate(65.275319, 215.548512)" fill="#00838F">
                                <path d="M25.4236577,8.63906337 C25.528264,7.48753251 24.4294654,6.53308727 23.3004088,6.26715077 C22.1722167,6.00207491 20.9852376,6.20346371 19.8267875,6.18711163 C16.4430757,6.10535122 13.3662667,4.21539474 11.7764236,1.24275827 C11.6156238,0.815022217 11.3355209,0.442366863 10.9672375,0.171266548 C10.4424769,-0.123070937 9.75345845,0.0989731309 9.28489131,0.48109548 C8.81545965,0.863217828 8.47570525,1.3873451 8.07197674,1.81422052 C7.28440355,2.57932585 6.22277911,3.00189809 5.12225149,2.98984919 C4.21278169,2.98984919 3.19697654,2.28498837 2.32381637,2.74026477 C1.55180446,3.14304238 1.34518537,4.20592774 1.15153401,4.96242672 C0.816102178,6.26715077 0.507470316,7.57962055 0.188464274,8.88864779 C0.108064377,9.18212464 0.0544644462,9.4807653 0.0259354506,9.78370914 L6.33603058,9.78370914 C6.63255923,9.3800709 6.87116537,8.17173806 6.99652005,7.67601177 C7.01553938,8.18378697 7.21870041,9.3921198 7.54202903,9.78370914 L24.8902519,9.78370914 C25.1902386,9.4712983 25.3787029,9.06938133 25.4236577,8.63906337 Z" id="Path"></path>
                            </g>
                            <g id="Path_96" transform="translate(16.170866, 215.720639)" fill="#00838F">
                                <path d="M11.1496502,8.46693619 C11.1989276,7.31540532 10.7130701,6.36096009 10.2151095,6.09502359 C9.71801333,5.82994773 8.94600142,3.89695945 7.91895758,1.07063109 C7.44952592,-0.222044067 4.82831638,-0.58437179 3.51771161,1.64209334 C3.09237022,2.3624456 2.70939007,2.85042617 2.22353263,2.817722 C1.8189396,2.817722 1.37457888,2.11286118 1.00975354,2.56813759 C0.645792719,3.02255335 0.577496033,4.03380056 0.491909046,4.79029953 C0.345806008,6.09502359 0.20834812,7.40749337 0.088180532,8.7165206 C0.0553289612,9.00655491 0.0224773905,9.31208066 0.0146967553,9.61158196 L10.9352505,9.61158196 C11.0718439,9.24495106 11.1444631,8.85766489 11.1496502,8.46693619 Z" id="Path"></path>
                            </g>
                            <g id="Path_97" transform="translate(36.659872, 27.671690)" fill="#FFECB3" fill-rule="nonzero">
                                <path d="M16.1647018,8.42992884 L14.1417367,6.9651265 C13.668847,6.61915086 13.1345767,6.26112632 12.5518936,6.3205102 C11.9692104,6.38161535 11.5395465,6.84463748 11.1522437,7.27495544 L9.16731726,9.50142056 C8.88894343,9.88440355 8.49472458,10.1666921 8.04171871,10.3069758 C7.44693238,10.4231616 6.87721698,10.0375967 6.40000469,9.66752329 C4.26378808,8.00821724 2.24687454,6.20260308 0.363960823,4.26359035 C0.0285289956,4.06306218 -0.0803998968,3.63102295 0.121032103,3.29709621 C0.165122369,3.22222089 0.223044875,3.15681256 0.291341562,3.10259249 L2.791519,0.075735961 C4.6450392,0.97682177 6.54610773,1.85897359 8.58290511,2.14814726 C10.1762063,2.40891994 11.8110042,2.16449934 13.2556088,1.44758962 C13.4898924,1.32279741 13.9351176,0.889036906 14.2057108,1.04653328 C14.4771685,1.20230838 14.5290394,2.03626459 14.6111683,2.30994681 L15.3382255,5.18102824 L16.1647018,8.42992884 Z" id="Path"></path>
                            </g>
                            <g id="Path_98" transform="translate(53.950172, 89.121095)" fill="#BBDEFB" fill-rule="nonzero">
                                <polygon id="Path" points="0.0181548154 0.0189339902 0.870566624 0.00258190776 1.41175303 28.8356065 0.558476702 28.8519586"></polygon>
                            </g>
                            <g id="Path_99" transform="translate(31.818588, 34.470714)" fill="#BBDEFB" fill-rule="nonzero">
                                <path d="M20.3454965,49.0252646 C15.5396575,39.868959 9.06357546,31.6843114 1.24576614,24.8887302 L0.841173114,24.5350088 L5.84066347,20.955624 L1.44374008,19.50201 L1.39186918,19.2722202 C-0.226502935,12.6040131 -0.719276496,6.79041741 2.11633277,0.0765965969 L2.90477046,0.407941426 C0.190193304,6.82570349 0.635418539,12.4353284 2.16388109,18.8419022 L7.72098364,20.6733354 L2.23736487,24.6038597 C9.9522969,31.3994409 16.3540306,39.5419174 21.127018,48.6302327 L20.3454965,49.0252646 Z" id="Path"></path>
                            </g>
                            <g id="Path_100" transform="translate(56.803072, 35.761668)" fill="#BBDEFB" fill-rule="nonzero">
                                <path d="M1.0477922,47.948609 L0.292206077,47.5458314 C4.44792977,39.580646 6.98960393,30.8804775 7.77458357,21.9393309 L3.32578928,20.2240835 L5.38333503,20.1440444 C6.44063689,20.1035945 7.2697068,19.1250514 7.54375806,18.1783519 C7.86017056,17.0913687 7.67775789,15.9045518 7.43050659,14.7840038 C6.2737855,9.50314183 3.7182791,4.62505744 0.0293935107,0.659247115 L0.655302385,0.0826210484 C4.44533623,4.15256832 7.07346189,9.15802683 8.26389907,14.5791725 C8.53535679,15.8107425 8.73246621,17.1275155 8.36591184,18.3952322 C8.10309928,19.3092275 7.50917746,20.0924062 6.69826237,20.5950176 L8.6684921,21.3549591 L8.6399631,21.674255 C7.89042858,30.8469127 5.30812222,39.7803135 1.0477922,47.948609 Z" id="Path"></path>
                            </g>
                            <g id="Path_101" transform="translate(25.680531, 98.329899)" fill="#FFF3E0" fill-rule="nonzero">
                                <path d="M10.1130967,4.62677871 C10.3776383,5.96764947 10.3370061,7.44622198 9.54424581,8.57365504 C8.79298226,9.53842791 7.67775789,10.1563645 6.45792719,10.2837386 C5.25019971,10.4007851 4.03036902,10.3164428 2.8494415,10.0358755 C2.00826839,9.86977274 1.1221405,9.63223722 0.524760617,9.03581653 C-0.0743482917,8.44025647 -0.21180618,7.28872561 0.46683811,6.76459833 C1.27602417,6.14580111 2.58662894,6.73361544 3.38025373,6.10104804 C4.17214948,5.46848064 3.81683381,4.22486173 3.85746602,3.20931135 C3.91711755,1.6747975 5.5199284,-0.16868464 7.18671336,0.097251859 C9.02640132,0.399335067 9.81570353,3.10087122 10.1130967,4.62677871 Z" id="Path"></path>
                            </g>
                            <g id="Shape_103" transform="translate(45.564377, 89.465349)" fill="#BBDEFB" fill-rule="nonzero">
                                <path d="M2.02555869,0.928616013 C1.41434657,0.92604425 0.918114951,1.41660673 0.917240227,2.02335505 C0.91465689,2.63010337 1.40656594,3.12582966 2.01777806,3.12670046 C2.62726114,3.12927221 3.12349276,2.63957037 3.12522179,2.03110077 L3.12522179,2.02335505 C3.12522179,1.41918863 2.63244823,0.928616013 2.02555869,0.928616013 Z M2.02555869,3.97269541 C0.944050401,3.97269541 0.0674321715,3.10001059 0.0674321715,2.02335505 C0.0674321715,0.947560148 0.944050401,0.0748753251 2.02555869,0.0748753251 C3.10620246,0.0748753251 3.98282069,0.947560148 3.98282069,2.02335505 C3.98282069,3.10001059 3.10620246,3.97269541 2.02555869,3.97269541 Z" id="Shape"></path>
                            </g>
                            <g id="Shape_104" transform="translate(46.169537, 100.223298)" fill="#BBDEFB" fill-rule="nonzero">
                                <path d="M1.97022973,0.857188861 C1.36074664,0.855472105 0.864515019,1.34603458 0.86191693,1.9527829 C0.860192444,2.55953123 1.35210149,3.05353625 1.96158458,3.05612267 C2.57193218,3.05783943 3.0681638,2.56727695 3.07075735,1.96052863 L3.07075735,1.9527829 C3.0681638,1.34861649 2.57711927,0.859775285 1.97022973,0.857188861 Z M1.97022973,3.90040199 C0.88872144,3.90040199 0.0129677253,3.02943844 0.0129677253,1.9527829 C0.0129677253,0.876127367 0.88872144,0.00258190776 1.97022973,0.00258190776 C3.05173802,0.00258190776 3.92835625,0.876127367 3.92835625,1.9527829 C3.92835625,3.02943844 3.05173802,3.90040199 1.97022973,3.90040199 Z" id="Shape"></path>
                            </g>
                            <g id="Path_105" transform="translate(50.837918, 96.866818)" fill="#BBDEFB" fill-rule="nonzero">
                                <path d="M3.45806008,0.00172127184 C3.13040888,7.43073054 3.05433156,14.7960527 0.0363096308,21.5924946 C1.71087522,21.6535998 3.77274354,22.5348909 5.18881915,21.4349982 C6.75445585,20.2283867 5.67381207,17.1989482 5.4680575,15.5852559 C4.82140026,10.6529514 3.20735072,4.95898417 3.45806008,0.00172127184 Z" id="Path"></path>
                            </g>
                        </g>
                        <g id="Group" transform="translate(135.190277, 132.072397)">
                            <g id="Path_102" transform="translate(0.032964, 88.406361)" fill="#FFF3E0" fill-rule="nonzero">
                                <path d="M7.93394565,9.56658157 C16.3225038,7.50484059 11.7998935,0.0448204561 6.50217763,0.0731830892 C4.75078743,0.0731830892 2.89314681,0.315467056 1.52756758,1.39977732 C-3.0446843,5.02075301 4.05406334,10.3974839 7.93394565,9.56658157 Z" id="Path"></path>
                            </g>
                            <g id="Path_106" transform="translate(33.562811, 203.646649)" fill="#FFF3E0" fill-rule="nonzero">
                                <path d="M7.18409634,10.9042998 C4.78214002,11.2568299 2.3296712,11.0611714 0.0165471973,10.3311151 L0.970188304,1.93072734 C0.982380976,1.57130176 1.08253506,1.21963356 1.26368333,0.906752303 C1.61727081,0.49905854 2.11978306,0.248236372 2.66148605,0.209449439 C4.64105339,-0.133599436 7.62912885,-0.242202849 7.55074739,2.18930689 C7.47759136,5.09315529 7.30602306,8.00045141 7.18409634,10.9042998 Z" id="Path"></path>
                            </g>
                            <g id="Path_107" transform="translate(33.649901, 95.215623)" fill="#1565C0">
                                <path d="M37.7432861,16.3836006 C37.4079876,13.9486431 36.1826241,11.7188254 34.3005982,10.117356 C32.6693929,2.57545236 14.0686013,-2.86506146 11.1589073,1.64801369 C9.0487042,4.91473539 2.91579034,53.496662 2.30876947,64.1311772 C1.0381189,78.4961333 -0.155892017,109.608425 0.112346761,110.822887 L8.33194929,110.822887 C9.20459622,98.4205499 17.7037593,80.688888 18.5546336,67.2686091 C24.7075783,54.433582 30.3327544,41.3666951 35.4284203,28.0662248 C36.8662847,24.320269 38.2884727,20.3640018 37.7432861,16.3836006 Z" id="Path"></path>
                            </g>
                            <g id="Path_108" transform="translate(51.416366, 90.044032)" fill="#093C5F">
                                <path d="M37.0012749,21.3405706 C34.999935,22.9015292 32.3549961,23.1394224 29.8737874,23.1394224 C9.45193327,23.1394224 -2.36886193,16.567192 0.454612473,7.27901445 C3.35559743,-2.25826144 21.6428631,-0.717127297 31.1818869,2.35565974 C33.2398357,3.01589953 36.239233,3.65803876 37.6440029,5.58187064 C39.6732119,8.32022812 41.8617964,17.5515182 37.0012749,21.3405706 Z" id="Path"></path>
                            </g>
                            <g id="Path_109" transform="translate(33.388630, 34.535621)" fill="#2196F3" fill-rule="nonzero">
                                <path d="M21.13948,15.7940392 C18.6939784,24.7839883 15.0265969,33.7730756 8.33194929,40.3289292 C6.88973041,41.7407736 4.93019389,43.1207265 2.99504271,42.5277173 C1.86373696,42.1182997 0.97802645,41.2305099 0.578281,40.1074127 C0.195082747,38.9937968 0.0296107741,37.8181217 0.0931868479,36.6433086 C0.182890075,27.4085708 4.73424023,18.8642404 9.18804902,10.7491521 C11.0221752,7.40571843 13.7724936,1.39288187 17.8187188,0.182729552 C22.0321577,-1.07482901 22.7079801,5.47930075 22.5729898,8.06768209 C22.3674562,10.6853691 21.8867166,13.2746124 21.13948,15.7940392 Z" id="Path"></path>
                            </g>
                            <g id="Path_111" transform="translate(63.870309, 11.608233)" fill="#FFF3E0" fill-rule="nonzero">
                                <path d="M4.76385101,4.99661892 C7.79634264,0.406831832 13.190729,-0.670582977 15.7659954,0.430965924 C14.7914526,9.02442644 15.4402769,12.8479561 18.7732308,17.5342796 C11.8094734,20.2200592 1.60246542,19.7192768 0.0818650813,17.5342796 C0.212500849,16.8438722 3.17880369,7.39106559 4.76385101,4.99661892 Z" id="Path"></path>
                            </g>
                            <g id="Path_112" transform="translate(62.825223, 1.782210)" fill="#212121">
                                <path d="M2.01179083,2.41254724 C1.1225967,3.07882056 0.227306236,3.89765581 0.0391907304,4.98713767 C-0.102766804,5.8214877 0.202049988,6.65669966 0.50338316,7.45053889 L1.66429969,10.5233259 C2.52997937,9.42608668 2.91143582,8.043548 3.3677901,6.72479227 C3.82414438,5.40603655 4.42855254,4.05797514 5.56421281,3.23569215 C6.26964596,2.7280143 7.22241616,2.34876428 7.42185344,1.5101046 C7.70315579,0.299952283 6.4124744,-0.255993759 5.49192769,0.236169326 C4.27701505,0.873998893 3.11348581,1.60146937 2.01179083,2.41254724 Z" id="Path"></path>
                            </g>
                            <g id="Path_113" transform="translate(63.870309, 2.299370)" fill="#FFF3E0" fill-rule="nonzero">
                                <path d="M14.5432446,3.77181376 C12.2161861,-0.728332411 5.69659039,-1.36185232 2.38453822,2.91677737 C-0.64795341,6.83253375 -0.284785974,16.5068568 1.13740209,18.8021813 C3.61948168,22.8101644 11.1972271,20.3821024 12.6734113,18.0678154 C14.833256,14.683871 16.4992975,7.5591423 14.5432446,3.77181376 Z" id="Path"></path>
                            </g>
                            <g id="Path_114" transform="translate(63.609038, 14.797381)" fill="#212121">
                                <path d="M2.46988692,0.573184678 C3.50539311,-0.132737504 5.08260228,-0.233583531 5.93086387,0.681788091 C6.38112182,1.16964152 6.54920651,1.84281029 6.77302912,2.47288247 C6.99772264,3.10209272 7.33215021,3.75026547 7.94613832,4.01746434 C8.79875443,4.38464731 9.75239554,3.85111149 10.5257593,3.34429557 L13.16286,1.6049171 C13.5704436,1.32737504 14.1600464,1.04897106 14.5597918,1.36271425 C14.9595373,1.67818131 14.8498032,2.19792621 14.7104584,2.63406373 C13.5268983,6.19987578 10.4778595,8.84773041 6.75386921,9.54934294 C5.35084106,9.79585544 3.827628,9.72776283 2.60487722,9.00201621 C1.08514778,8.10560709 0.335298471,6.38001953 0.0905741325,4.70614789 C-0.129764863,3.19862909 1.25497428,1.37909096 2.46988692,0.573184678 Z" id="Path"></path>
                            </g>
                            <g id="Path_115" transform="translate(75.975890, 5.919483)" fill="#212121">
                                <path d="M0.518188547,1.06707163 C0.175922834,1.72817335 -0.126281242,11.382672 0.155021111,11.3300941 C1.15830381,11.1447788 2.88705047,8.77791393 4.6097008,9.23732361 C5.16011284,9.38299009 5.83245159,9.90273499 6.10939942,8.80118609 C7.7388629,1.83246711 7.93046203,2.24878019 6.80612352,1.34461368 C4.32752754,-0.630934112 1.12956394,-0.110327276 0.518188547,1.06707163 Z" id="Path"></path>
                            </g>
                            <g id="Path_116" transform="translate(77.369339, 11.866813)" fill="#FFF3E0" fill-rule="nonzero">
                                <path d="M4.97635186,2.53925122 C4.84136156,3.70199728 4.25698423,4.76648312 3.34688838,5.51205416 C0.742882068,7.59620537 -0.61398811,3.76578024 0.314396748,1.74541199 C1.4108663,-0.658515931 5.33429386,-0.593009111 4.97635186,2.53925122 Z" id="Path"></path>
                            </g>
                            <g id="Path_117" transform="translate(67.441020, 0.058347)" fill="#212121">
                                <path d="M0.256046105,6.10161555 C0.284785974,6.74634057 0.492932298,7.49622128 1.10430769,7.71429003 C1.71568309,7.93149686 8.89890852,4.3518939 9.28907401,4.39068083 C9.68098132,4.43205356 8.64547513,6.9204508 9.00515895,7.2910815 C9.36397185,7.66257412 9.81945523,7.54104173 10.2758095,7.46777752 C12.2153152,7.14972467 14.1461119,7.65826446 16.0420723,8.17369971 C16.2955057,7.50053094 16.3416637,6.76788886 16.1727081,6.06886214 C15.9758835,5.52239735 15.6928394,5.01127176 15.3331556,4.55272402 C13.8134261,2.47115861 11.6649032,0.692993205 9.13579471,0.206001711 C7.60648532,-0.0499920471 6.04321063,-0.0267198873 4.52173939,0.274094327 C-1.33771026,1.31789379 0.210759039,5.11728938 0.256046105,6.10161555 Z" id="Path"></path>
                            </g>
                            <g id="Path_118" transform="translate(17.886519, 209.938752)" fill="#1565C0">
                                <path d="M0.0748978404,8.72533609 C-0.0304816792,7.56431389 1.08427687,6.59636443 2.23038801,6.30503146 C3.37475734,6.01542236 4.58096093,6.24124851 5.75842466,6.22918146 C9.19762898,6.146436 12.3241784,4.23725696 13.9414492,1.23256254 C14.1008248,0.801596618 14.3847399,0.425794333 14.7557455,0.151700005 C15.3366392,-0.0922267077 16.0072361,0.0301676147 16.4635904,0.462857402 C16.9399755,0.865379575 17.2778867,1.37736709 17.7133392,1.80833302 C18.5119592,2.58493361 19.5901398,3.01158987 20.708382,2.99435124 C21.6289287,2.99435124 22.6653058,2.28498133 23.5605962,2.744391 C24.3435399,3.14777511 24.5551699,4.22518992 24.7546071,4.9905854 C25.0925183,6.30934112 25.4069151,7.63671617 25.7326336,8.95891962 C25.8127569,9.25456224 25.8676239,9.55451453 25.8963638,9.85791454 L19.4830184,9.85791454 C19.1851689,9.45539236 18.9404446,8.24524005 18.8098088,7.73325253 C18.8098088,8.24524005 18.5859862,9.46401168 18.2559131,9.85791454 L0.624438971,9.85791454 C0.319622179,9.55192873 0.125410337,9.15285429 0.0748978404,8.72533609 Z" id="Path"></path>
                            </g>
                            <g id="Path_119" transform="translate(78.414425, 205.284320)" fill="#FFF3E0" fill-rule="nonzero">
                                <path d="M7.28860495,10.7784578 C4.89013225,11.2085617 2.42372895,11.0939248 0.0775105557,10.4440282 C0.14457025,7.63930196 0.211629944,4.83543766 0.280431449,2.03157336 C0.258658821,1.67731937 0.327460325,1.32392732 0.479868721,1.00242674 C0.801232711,0.583527861 1.28371415,0.312881261 1.81235356,0.257717622 C3.76492284,-0.146528414 6.73906382,-0.355977853 6.88624679,2.07122223 C7.06478234,4.96731324 7.15361466,7.87460936 7.28860495,10.7784578 Z" id="Path"></path>
                            </g>
                            <g id="Path_120" transform="translate(60.822141, 93.750338)" fill="#1565C0">
                                <path d="M32.4063795,11.0292799 C32.3384489,2.52459838 24.8930811,-0.323224443 18.1217937,0.0362011376 C16.6908966,0.114636936 15.2800303,0.410279559 13.9405783,0.911923894 C11.5569109,0.105155685 8.83533245,0.761947753 6.78173817,2.20654553 C4.7281439,3.65028137 3.22757438,5.88785645 2.20948629,8.21852016 C-0.610504489,14.6718039 -0.236015288,22.0421831 0.702820432,29.0195214 C1.48402233,34.7461966 2.62839165,40.4177082 4.12896118,46.0013027 C5.3229721,50.436804 6.57272094,56.0833195 8.20218442,60.6524202 C7.3478265,63.9717198 16.5027811,112.540717 17.1681526,114.04565 L25.3825297,113.771556 C26.0748993,97.0716266 29.4574948,75.4604094 22.4719648,61.0359799 C24.6344222,55.3860166 26.4554848,49.614521 27.9255727,43.7516606 C30.519999,33.249021 32.4960828,21.9008263 32.4063795,11.0292799 Z" id="Path"></path>
                            </g>
                            <g id="Path_121" transform="translate(75.366257, 211.835002)" fill="#1565C0">
                                <path d="M0.0853487018,8.6796537 C-2.77555756e-17,7.52294116 0.456354283,6.54206272 0.953641107,6.26107294 C1.44918612,5.97835929 2.1763919,3.99850184 3.11609852,1.11016822 C3.54806746,-0.208587507 6.20171536,-0.663687522 7.59864718,1.53854835 C8.05500146,2.25481371 8.47129411,2.71594725 8.95638826,2.68319384 C9.36223004,2.65475009 9.79158627,1.94107052 10.198299,2.38841315 C10.6058826,2.83747964 10.6825222,3.85714502 10.7966108,4.61823084 C10.9934353,5.92922918 11.1719709,7.25229456 11.3600864,8.56674063 C11.400148,8.86238325 11.4454351,9.1640594 11.4619823,9.46659748 L0.36229653,9.83291851 C0.202920893,9.46659748 0.109734045,9.07786622 0.0853487018,8.6796537 Z" id="Path"></path>
                            </g>
                            <g id="Path_122" transform="translate(75.801709, 94.267498)" fill="#F8B690" fill-rule="nonzero">
                                <path d="M6.77128731,0.0913647758 C5.92912206,1.08775799 8.7761109,1.7566171 9.78287722,2.59182906 L1.71132856,3.02020919 C1.23320165,2.99435124 0.761171075,3.13829386 0.378843727,3.42273137 C-0.0043545256,3.84680183 -0.0740269352,4.46308311 0.202920893,4.95869392 C0.485094152,5.43792802 0.884839602,5.83700247 1.36557923,6.12057805 C3.97481097,7.86857583 7.15100194,8.58828893 10.2679714,8.13663664 C11.4785295,8.0030372 12.6298661,7.55310878 13.6052798,6.83425762 C14.5833062,6.09127236 15.1136875,4.90870187 15.0161461,3.69337797 C14.7661963,1.86177279 13.3849408,1.83074324 11.9758163,1.47562732 C11.0866222,1.21704777 7.05694419,-0.259441486 6.77128731,0.0913647758 Z" id="Path"></path>
                            </g>
                            <g id="Path_123" transform="translate(42.271862, 26.088688)" fill="#2196F3" fill-rule="nonzero">
                                <path d="M58.7442922,15.9698733 C55.7614421,12.5186981 50.5255606,5.76373826 41.1328488,2.06518871 C35.5425089,4.88801551 28.3061582,4.26656264 23.3925115,0.0163767051 C13.9057421,2.03329723 6.77999636,9.63122646 4.89361587,11.8282907 C2.39585999,14.7364488 3.05078064,19.0874808 3.47404053,22.5912337 C4.38413638,30.1090033 0.21424266,82.7928636 0.0269980587,83.9625051 C-0.159375637,85.1312847 1.7513902,86.4707268 3.0960677,87.0637359 C3.93997476,87.3645501 4.83178161,87.5093547 5.72881388,87.4903922 C17.8953584,87.9791075 37.157167,88.7893235 49.3271951,89.2771769 C50.1423623,89.3099303 50.998462,89.3288928 51.6742844,89.0022206 C53.173983,88.2807837 52.7454977,86.5474387 52.2856598,85.215754 C49.1808831,76.299931 60.068068,25.2123685 58.7442922,15.9698733 Z" id="Path"></path>
                            </g>
                            <g id="Path_124" transform="translate(55.770892, 26.347268)" fill="#BBDEFB" fill-rule="nonzero">
                                <path d="M25.1769961,0.47578638 C20.9757498,3.75371319 14.7252638,2.13328132 10.1007576,0.073264207 C8.54009561,0.625762521 7.10136035,1.467008 5.85944965,2.55304213 C-1.3943191,9.03735542 0.236015288,21.4707223 0.154150206,29.6366646 C0.101895899,36.1218399 1.67039602,51.3607949 2.88008323,51.4133728 C5.66697962,41.4080679 8.49829217,31.4389641 11.694514,22.4145377 C14.7182965,13.8771027 21.2988556,8.06595823 29.5045237,2.74266714 C28.1668134,1.80402336 26.7132728,1.04293754 25.1769961,0.47578638 Z" id="Path"></path>
                            </g>
                            <g id="Path_125" transform="translate(55.857982, 28.760677)" fill="#00838F" fill-rule="nonzero">
                                <path d="M12.1813499,5.38965984 C13.1018966,4.34155071 14.3168093,3.24431147 14.1130175,1.92555575 C13.9005166,0.988635829 13.1254111,0.278403987 12.1648027,0.139632959 C8.49829217,-0.481819903 10.0258597,3.06761544 10.482214,4.6199547 C6.72164572,9.05545599 2.0065654,18.5039529 0.0583506431,29.9495459 C0.120184907,36.8363814 1.50492405,50.7746813 2.61010265,50.8151921 C4.43551978,43.9955873 6.2766132,37.1958069 8.24572968,30.6951169 C8.912843,23.1135644 10.4534742,7.35486445 12.1813499,5.38965984 Z" id="Path"></path>
                            </g>
                            <g id="Path_126" transform="translate(62.128499, 24.623404)" fill="#BBDEFB" fill-rule="nonzero">
                                <path d="M0.0304816792,7.60051503 L2.78515458,6.25331555 C3.43223708,5.86544622 4.18121548,5.67668315 4.93716113,5.70771269 C5.64172337,5.85337917 6.28183863,6.21797635 6.76257826,6.74892636 L9.31345936,9.09596678 C9.70797938,9.51917532 10.2148462,9.82343726 10.7757091,9.97427534 C11.5917472,10.1276992 12.3442092,9.77689294 13.0052262,9.43039634 C15.8853094,7.93494459 18.6617549,6.25331555 21.3171446,4.39412856 C21.5531599,4.22863764 21.8065933,4.03125525 21.8065933,3.78474274 C21.7682735,3.56753592 21.6472177,3.37273932 21.4686821,3.24000181 L18.2689767,0.0586113656 C15.7555445,0.864517643 8.98686994,2.67974611 6.24874424,2.84523703 C4.13854113,2.97021715 3.34427566,0.19134887 2.98894637,0.320638647 C2.63448799,0.449928424 2.50907765,1.29289777 2.40195632,1.55923471 L1.29851953,4.38206151 C0.877001456,5.45775246 0.455483378,6.52999567 0.0304816792,7.60051503 Z" id="Path"></path>
                            </g>
                            <g id="Path_127" transform="translate(61.780137, 31.605052)" fill="#1565C0" fill-rule="nonzero">
                                <path d="M0.0243853434,48.0828681 C6.17994273,38.9834536 14.0294106,31.1286687 23.1573672,24.9391361 L23.6424613,24.6047065 L18.0425414,20.7648001 C18.0425414,20.7648001 36.7861614,13.3901112 23.3402572,0.073264207 C31.649563,11.7963993 24.7293509,16.5232335 15.9245001,20.3821024 L22.0652521,24.6003969 C7.22502888,34.5781199 0.0243853434,48.0828681 0.0243853434,48.0828681 Z" id="Path"></path>
                            </g>
                            <g id="Path_128" transform="translate(46.800569, 31.777439)" fill="#1565C0" fill-rule="nonzero">
                                <path d="M7.61693618,47.8915192 C7.61693618,47.8915192 1.54498568,30.4365374 1.09821136,21.5198524 L6.28880587,20.0407774 L3.92168576,19.8520143 C2.7729619,19.6942808 1.83064256,18.8754455 1.52582577,17.7704489 C1.21229993,16.6689 1.47618418,15.4871914 1.81409537,14.3787471 C3.39130454,9.16061167 10.3028076,0.0258579554 10.3028076,0.0258579554 C5.85422422,3.73992229 2.57787916,8.63828097 0.860454259,14.1408539 C0.489448678,15.3510062 0.201179083,16.6645903 0.567830139,17.9523165 C0.853487018,18.9176802 1.50231133,19.7373774 2.3819255,20.2424694 L0.079252366,20.9001234 L0.079252366,21.2181763 C0.560862898,30.5528982 3.13700024,39.6626559 7.61693618,47.8915192 Z" id="Path"></path>
                            </g>
                            <g id="Path_129" transform="translate(7.087295, 84.182895)" fill="#BBDEFB" fill-rule="nonzero">
                                <path d="M1.47444237,4.65184618 C0.613117205,5.73270872 -0.299591361,7.07215081 0.121055812,8.37797756 C0.475514196,9.48642191 1.7174249,10.1285611 2.8922759,10.1483856 C3.25021791,10.1483856 6.86011963,8.31333267 10.7478401,6.11540646 L6.14249381,0.033615342 C4.49125771,1.47562732 2.93059573,3.01676147 1.47444237,4.65184618 Z" id="Path"></path>
                            </g>
                            <g id="Path_130" transform="translate(13.183631, 64.358463)" fill="#2196F3" fill-rule="nonzero">
                                <path d="M0.0461579714,19.8546001 L4.70375856,27.3275492 C13.6279233,22.2662854 28.4968864,12.2894243 30.3466889,8.24782585 C31.6835283,5.33277234 27.2950374,1.45407903 24.7145455,0.138771027 C21.9189401,-1.28858811 8.12293206,12.4988737 0.0461579714,19.8546001 Z" id="Path"></path>
                            </g>
                            <g id="Path_131" transform="translate(0.381326, 88.233975)" fill="#FFF3E0" fill-rule="nonzero">
                                <path d="M5.30381218,9.68552817 C2.50472313,9.25628611 0.356200194,7.00319626 0.0827359864,4.2139848 C0.0827359864,2.17379212 0.634018928,0.516297177 5.91780029,0.104293754 C7.66222325,-0.033615342 9.53205654,0.0439585242 10.987339,1.01190799 C15.8330551,4.23725696 9.21504708,10.1863106 5.30381218,9.68552817 Z" id="Path"></path>
                            </g>
                            <g id="Path_132" transform="translate(91.652183, 108.920339)" fill="#FFF3E0" fill-rule="nonzero">
                                <path d="M0.10537952,6.95665194 C-0.39452002,11.0465186 1.19923635,14.5588908 3.64735064,14.89763 C5.68439772,15.1398329 6.09285222,11.8575964 9.00515895,8.04182414 C11.4985603,4.74321096 7.92088207,0.380111945 5.46492963,0.101707958 C3.00723538,-0.175834097 0.607020869,2.86419953 0.10537952,6.95665194 Z" id="Path"></path>
                            </g>
                            <g id="Path_133" transform="translate(94.003626, 103.145396)" fill="#BBDEFB" fill-rule="nonzero">
                                <path d="M0.0566088328,7.77203947 C0.802103616,9.06579917 4.02532347,8.47365199 5.42399709,7.90908663 C5.83070978,7.74876731 6.36370371,4.73976323 7.65612691,1.27910686 L1.0877605,0.0706784115 C0.863066974,3.50461489 -0.0931868479,7.50656446 0.0566088328,7.77203947 Z" id="Path"></path>
                            </g>
                            <g id="Path_134" transform="translate(94.787441, 72.115849)" fill="#2196F3" fill-rule="nonzero">
                                <path d="M13.6235688,0.753328435 C12.5122939,-0.149976141 10.8810886,-0.00948125032 9.49286581,0.349082398 C7.15274375,0.966225601 5.03905703,3.97953934 3.34340476,5.74994735 C2.17377918,6.96009967 0.515575831,26.2242765 0.0391907304,33.5756932 L7.89040039,35.8779131 C11.060495,27.3766793 14.686944,8.89858439 14.8463196,5.17762461 C14.9151211,3.60459899 14.8715758,1.76437449 13.6235688,0.753328435 Z" id="Path"></path>
                            </g>
                            <g id="Path_135" transform="translate(94.439079, 41.000109)" fill="#2196F3" fill-rule="nonzero">
                                <path d="M13.0914458,12.9556976 C15.4350514,21.9732286 16.7353128,31.5777352 14.1931407,40.5478599 C13.6462123,42.4828969 12.6281242,44.6360026 10.647686,45.0669686 C9.46151323,45.2660748 8.2483424,44.9273356 7.34347198,44.1438396 C6.45340694,43.3612054 5.72184664,42.418252 5.1879818,41.3666951 C0.661016986,33.3007369 0.354458384,23.6221042 0.18027736,14.4080528 C0.106250425,10.6008998 -0.501641349,4.02608366 2.41240718,1.00242674 C5.44838243,-2.15051996 9.33958651,3.20811034 10.4813431,5.5318786 C11.6074234,7.90994856 12.4826831,10.3983458 13.0914458,12.9556976 Z" id="Path"></path>
                            </g>
                        </g>
                    </g>
                </g>
            </g>
        </g>
    </g>
</svg>