<?xml version="1.0" encoding="UTF-8"?>
<svg width="328px" height="291px" viewBox="0 0 328 291" version="1.1" xmlns="http://www.w3.org/2000/svg" xmlns:xlink="http://www.w3.org/1999/xlink">
    <!-- Generator: Sketch 64 (93537) - https://sketch.com -->
    <title>Artwork</title>
    <desc>Created with Sketch.</desc>
    <defs>
        <path d="M53.2215,76.1315 C49.01,76.1315 45.161,74.534 42.2565,71.9195 C42.184,70.758 42.0385,69.523 41.9665,68.362 L53.875,60.8095 L52.641,58.196 L41.385,63.5695 C41.1675,61.972 40.877,60.447 40.5865,58.9945 C38.335,59.575 35.94,59.8655 33.4705,59.8655 C32.889,59.8655 32.2355,59.8655 31.654,59.7925 C31.654,62.842 31.5095,66.1105 31.291,69.5225 L17.495,64.222 L16.478,66.0375 L30.783,74.3155 C27.8055,78.818 22.7225,81.722 16.9865,81.722 C7.837,81.722 0.4295,74.3155 0.4295,65.1655 C0.4295,58.1225 4.86,52.022 11.1045,49.6985 C6.5295,44.4705 3.7705,37.6445 3.7705,30.1645 C3.7705,13.754 17.132,0.3925 33.4705,0.3925 C49.8815,0.3925 63.1705,13.754 63.1705,30.1645 C63.1705,35.2485 61.8635,40.041 59.613,44.18 C65.6395,46.649 69.8515,52.603 69.8515,59.502 C69.7785,68.724 62.2985,76.1315 53.2215,76.1315 Z M53.0765,82.739 C49.228,81.5045 48.9375,85.7885 48.9375,85.7885 C50.3175,85.3525 51.8415,86.5865 54.166,86.2235 C56.4905,85.8605 58.813,82.303 58.813,82.303 C58.813,82.303 56.9255,83.901 53.0765,82.739 Z M65.3485,122.751 C64.259,117.159 58.813,119.701 58.813,119.701 C60.2655,121.1535 59.8295,123.84 61.791,126.454 C63.824,129.0675 69.7785,129.5765 69.7785,129.5765 C69.7785,129.5765 66.4375,128.2695 65.3485,122.751 Z M5.513,91.889 C8.5625,89.8555 5.6575,87.241 5.6575,87.241 C5.1495,88.475 3.4795,88.838 2.3905,90.7265 C1.3735,92.615 2.535,96.2455 2.535,96.2455 C2.535,96.2455 2.464,93.922 5.513,91.889 Z M6.094,119.0465 C0.648,117.304 0.285,123.3315 0.285,123.3315 C2.246,122.75 4.352,124.421 7.6205,123.912 C10.8875,123.4035 14.1545,118.3935 14.1545,118.3935 C14.1545,118.3935 11.541,120.7165 6.094,119.0465 Z" id="path-1"></path>
        <linearGradient x1="35.0963669%" y1="44.2040036%" x2="64.9036331%" y2="55.7957642%" id="linearGradient-3">
            <stop stop-color="#9C26B0" offset="0%"></stop>
            <stop stop-color="#FFA000" offset="100%"></stop>
        </linearGradient>
        <path d="M249.542,63.8714877 L138.9475,0.215910082 L138.9475,3.69241144 L138.875,4.2713297 L138.8025,4.77844414 L138.6565,5.28605722 L138.439,5.79317166 L138.2205,6.3002861 L137.9305,6.80789918 L137.641,7.31501362 L137.2775,7.82212807 L136.914,8.32924251 L136.4785,8.83685559 L135.462,9.85058583 L134.8815,10.2853978 L134.3,10.7192125 L133.6465,11.1540245 L132.9205,11.5878392 L132.194,12.0226512 L131.396,12.3846621 L130.5965,12.746673 L129.7985,13.1091826 L128.9275,13.3983924 L128.0555,13.6881008 L127.184,13.9050082 L126.313,14.1224142 L125.368,14.3393215 L124.4245,14.4844251 L123.48,14.6295286 L122.5355,14.7746322 L121.5915,14.8469346 L120.647,14.9197357 L117.7415,14.9197357 L116.7255,14.8469346 L115.781,14.7746322 L114.8365,14.7018311 L113.892,14.5567275 L112.948,14.4121226 L112.0035,14.1947166 L111.059,13.9778093 L110.1155,13.7609019 L109.2435,13.4711935 L108.3725,13.181485 L107.5005,12.8194741 L106.7025,12.4574632 L105.9045,12.0949537 L105.105,11.7329428 L104.379,11.2991281 L103.6525,10.8643161 L102.9995,10.4300027 L102.346,9.92288828 L101.765,9.41577384 L101.2565,8.9086594 L100.7485,8.40104632 L100.3125,7.89393188 L99.9495,7.38681744 L99.5865,6.879703 L99.297,6.37308719 L99.0065,5.79317166 L98.788,5.21425341 L98.6435,4.63483651 L98.4975,4.05492098 L98.425,3.47600272 L98.425,1.37574114 L6.348,54.3859046 L13.102,50.4755886 C24.8655,60.5415858 60.375,47.8682125 66.983,61.1210027 C74.099,75.2414223 35.4675,71.4762098 28.7865,81.7601117 C22.1065,91.9707139 46.7225,98.7786131 47.739,112.320613 C48.7555,125.862114 5.549,120.792965 0.9745,134.91488 C-3.4545,148.528933 11.4315,158.088714 12.5205,158.739635 L51.37,181.117394 C55.001,183.217655 59.575,183.217655 63.2785,181.117394 L95.157,162.795404 L80.1975,143.097673 C80.1975,143.097673 62.915,150.339437 59.7925,150.194981 C56.67,150.049928 51.1515,146.356718 48.5375,143.097673 C45.9235,139.766724 51.1515,129.193014 51.1515,129.193014 C58.5575,114.419877 74.388,88.4224087 78.963,86.3221471 C84.9175,83.6424687 93.7035,83.1348556 94.285,83.1348556 C100.603,78.8630272 107.792,76.1110463 114.1815,83.4250627 C116.7235,86.3211499 117.813,89.0731308 117.9575,91.4635995 C123.9845,94.1427793 130.883,97.4741771 131.7545,98.8499183 C133.207,101.239888 137.128,122.530218 137.5635,124.99249 C138.072,124.268469 138.363,123.690049 138.363,123.690049 L138.871,126.948646 L138.871,127.310657 C141.3395,130.279545 143.373,132.814619 144.608,134.334466 L249.901,73.7215749 C250.4085,73.4318665 250.8455,73.0698556 251.208,72.7078447 L251.2805,72.6350436 C251.4255,72.4899401 251.571,72.2730327 251.7155,72.1274305 C251.7155,72.0551281 251.7885,72.0551281 251.7885,71.9828256 C251.934,71.8382207 252.007,71.6936158 252.0785,71.4762098 C252.1515,71.4034087 252.1515,71.3316049 252.1515,71.2583052 C252.2245,71.1137003 252.297,70.969594 252.37,70.8244905 C252.37,70.7511907 252.443,70.6793869 252.443,70.6065858 C252.5155,70.4619809 252.588,70.317376 252.588,70.0994714 C252.588,70.0271689 252.588,69.9548665 252.661,69.882564 C252.734,69.6646594 252.734,69.5205531 252.806,69.3026485 L252.806,69.230346 C252.7375,67.492594 251.72,65.1031226 249.542,63.8714877 Z M64.9525,34.1806104 C64.88,35.918861 62.5565,37.1494986 60.305,37.1494986 C57.9815,37.1494986 55.585,35.8460599 55.5125,34.1078093 L55.5125,34.0355068 C55.5125,33.3109864 55.9475,32.659267 56.892,32.0798501 C58.635,31.0661199 61.467,31.0661199 63.3555,32.007049 C63.428,32.0798501 63.5,32.0798501 63.573,32.1521526 C63.646,32.224455 63.7185,32.224455 63.7905,32.2972561 C64.5895,32.8048692 64.9525,33.4555913 64.9525,34.1806104 Z M36.0515,158.666834 C32.2755,158.666834 28.4995,156.639374 28.354,153.814841 L28.354,153.742339 C28.354,152.584153 29.0805,151.497024 30.5325,150.628347 C33.3645,149.034502 37.9395,148.962848 40.9165,150.483892 C40.989,150.556394 41.134,150.628347 41.2795,150.700849 C41.3525,150.773351 41.497,150.846152 41.57,150.918654 C42.8765,151.78738 43.531,152.873613 43.531,153.960144 C43.4585,156.638526 39.827,158.666834 36.0515,158.666834 Z M75.627,153.814841 C75.627,153.308375 75.9905,152.801111 76.6435,152.43885 C77.9505,151.714579 79.9835,151.642925 81.3635,152.366299 C81.436,152.366299 81.436,152.43885 81.509,152.43885 C81.582,152.511602 81.582,152.511602 81.6545,152.511602 C82.2355,152.873613 82.5255,153.380877 82.5255,153.887343 C82.453,155.190831 80.783,156.060106 79.113,156.060106 C77.442,156.13206 75.6995,155.190831 75.627,153.814841 Z M56.8195,87.1897766 C55.0765,87.1897766 53.4065,86.2478501 53.3335,85.0182098 L53.3335,84.9454087 C53.3335,84.4377956 53.697,83.9316785 54.35,83.5696676 C55.657,82.8451471 57.69,82.8451471 59.07,83.4963678 C59.1425,83.5696676 59.1425,83.5696676 59.2155,83.5696676 C59.2885,83.5696676 59.2885,83.64197 59.361,83.64197 C60.0145,84.0039809 60.232,84.5110954 60.232,85.0182098 C60.16,86.2488474 58.49,87.1897766 56.8195,87.1897766 Z M92.6915,20.8550191 C89.424,21.3626322 87.318,19.6961853 85.358,20.2761008 C85.358,20.2761008 85.721,14.337327 91.167,16.0027766 C96.541,17.6682262 99.2275,15.3515559 99.2275,15.3515559 C99.2275,15.3515559 95.9595,20.3484033 92.6915,20.8550191 Z M124.4975,38.1632289 L124.4975,38.3811335 C124.207,43.9573978 116.8,47.9410136 109.4665,47.9410136 C102.2045,47.9410136 94.943,44.0297003 94.7245,38.5252398 L94.7245,35.7009564 C94.798,33.6729973 96.0315,31.7183379 98.5005,30.0528883 C98.719,29.9077847 98.9355,29.8359809 99.154,29.6903787 C99.3725,29.5452752 99.663,29.4011689 99.8805,29.3283678 C105.762,26.3589809 114.6945,26.4312834 120.2855,29.6903787 C123.1895,31.356327 124.642,33.528891 124.642,35.7732589 L124.642,38.1632289 L124.4975,38.1632289 Z M160.152,23.8249046 C160.152,23.1003842 160.587,22.4486649 161.5315,21.9415504 C163.2745,20.9278202 166.1065,20.8550191 167.995,21.8687493 C168.0675,21.8687493 168.1395,21.9415504 168.2125,21.9415504 C168.285,22.0138529 168.358,22.0138529 168.431,22.086654 C169.302,22.594267 169.665,23.3172916 169.665,23.9700082 C169.592,25.7082589 167.2695,26.9388965 164.945,26.9388965 C162.5485,26.9388965 160.224,25.7072616 160.152,23.8249046 C160.152,23.8962098 160.152,23.8962098 160.152,23.8249046 Z M135.3175,85.6694305 C132.993,85.6694305 130.6705,84.4377956 130.525,82.6282398 L130.525,82.5554387 C130.525,81.8314169 130.96,81.1796975 131.9045,80.599782 C133.6475,79.5865504 136.4795,79.5865504 138.3675,80.5269809 C138.4405,80.599782 138.5125,80.599782 138.5855,80.6725831 C138.6585,80.7448856 138.731,80.7448856 138.8035,80.8166894 C139.602,81.3233052 140.038,82.0478256 139.965,82.7000436 C139.8925,84.4377956 137.6415,85.6694305 135.3175,85.6694305 Z M146.791,23.3900926 C144.7575,20.7832153 145.1925,18.1040354 143.813,16.6554932 C143.813,16.6554932 149.26,14.1204196 150.3485,19.6971826 C151.437,25.2734469 154.778,26.5040845 154.778,26.5040845 C154.778,26.5040845 148.824,25.9964714 146.791,23.3900926 Z M189.416,92.9116431 C184.769,92.3317275 187.9635,87.6250872 192.9015,86.393951 C197.8395,85.1623161 199.292,77.8478011 197.1855,75.0958202 C197.1855,75.0958202 197.6215,78.5000191 193.4105,81.3971035 C189.199,84.294188 185.8585,86.9738665 183.6795,85.5976267 C183.607,85.5976267 183.607,85.524327 183.534,85.524327 L183.6075,85.5976267 C183.317,85.9596376 182.4455,86.9010654 180.921,87.2630763 C179.1055,87.7696921 177.871,85.8863379 178.2345,85.0910109 L176.5645,86.3221471 L175.1845,87.2635749 L176.347,88.4947112 C176.347,88.4947112 177,89.2915341 176.056,90.0155559 C175.1125,90.7400763 166.7615,94.3601853 166.7615,94.3601853 C164.7285,97.3300708 163.4215,97.618782 159.427,97.3300708 C156.3045,97.1126649 154.562,95.2293106 154.562,95.2293106 C154.562,95.2293106 150.786,94.8672997 149.552,92.4055259 C149.552,92.4055259 150.35,90.7400763 153.3275,90.6667766 C153.3275,90.6667766 152.6015,86.249346 156.8135,84.1495831 C156.8135,84.1495831 156.45,81.0355913 160.662,77.6323896 C160.8795,77.4872861 161.097,77.2703787 161.315,77.1247766 L161.3885,77.0524741 C163.0575,75.5321281 165.1645,72.9970545 167.923,70.4619809 C167.85,70.534782 167.85,70.534782 167.778,70.6075831 C172.425,66.2619564 178.6705,61.9896294 186.9485,63.0033597 C186.9485,63.0033597 201.3995,64.6683106 202.4155,76.762267 C203.358,88.8552262 194.0635,93.4910599 189.416,92.9116431 Z M209.458,65.8271444 C206.045,65.8271444 202.5595,63.9437902 202.414,61.3374114 L202.414,61.2646104 C202.414,60.2508801 203.0675,59.2371499 204.447,58.4398283 C207.062,56.9194823 211.2735,56.9194823 214.033,58.2952234 C214.1055,58.3685232 214.2505,58.4398283 214.396,58.5126294 C214.469,58.5854305 214.6145,58.5854305 214.6865,58.6572343 C215.9205,59.4540572 216.502,60.4677875 216.4295,61.482515 C216.284,63.9437902 212.8715,65.8271444 209.458,65.8271444 Z M133.5015,138.461689 L135.171,139.982285 L109.8285,154.538514 C109.3925,154.031798 109.102,153.597036 108.884,153.380029 L110.264,152.148494 L107.286,148.238577 L106.633,148.890346 L95.886,135.927613 L93.562,131.581986 L112.224,118.909112 L131.975,137.013147 C131.975,137.664866 132.0485,138.243785 132.484,138.389387 C132.7025,138.53449 133.139,138.53449 133.5015,138.461689 Z M112.08,104.497986 C111.4995,104.570787 111.1355,104.715891 111.1355,104.715891 L89.568,113.333346 C90.44,110.001948 93.272,106.525447 95.813,103.919068 C96.8295,104.352883 97.92,104.56979 99.0095,104.714894 C100.825,104.9323 102.7125,104.714894 104.4555,104.207779 C105.4,103.919068 106.198,103.627864 106.9245,103.339153 L112.08,104.497986 Z" id="path-4"></path>
        <linearGradient x1="0.000135343595%" y1="50.0002049%" x2="100%" y2="50.0002049%" id="linearGradient-6">
            <stop stop-color="#9C26B0" offset="0%"></stop>
            <stop stop-color="#E1BEE7" offset="100%"></stop>
        </linearGradient>
    </defs>
    <g id="Utilities" stroke="none" stroke-width="1" fill="none" fill-rule="evenodd">
        <g id="Error" transform="translate(-197.000000, -239.000000)">
            <g id="Artwork" transform="translate(197.000000, 239.000000)">
                <path d="M169.789825,265.695111 L172.613872,269.457408 L138.006456,289.425617 C134.386291,291.524794 129.825442,291.524794 126.133493,289.425617 L2.98174883,218.30474 C0.882033503,217.074736 -0.130884725,214.904668 0.0135330176,212.80584 L0.0135330176,208.176263 L0.0135330176,208.248001 C0.0135330176,208.393469 0.0135330176,208.610177 0.086065919,208.755147 C0.086065919,208.900117 0.158798223,208.971855 0.158798223,209.044091 C0.158798223,209.188563 0.231331125,209.261795 0.231331125,209.333034 C0.303814175,209.477506 0.303814175,209.622975 0.375748867,209.766948 C0.375748867,209.839682 0.448231918,209.91142 0.448231918,209.984653 C0.520714968,210.128626 0.593198019,210.34633 0.665132711,210.490802 C0.665132711,210.563038 0.737615761,210.563038 0.737615761,210.635274 C0.810098812,210.779746 0.954516554,210.996952 1.09978176,211.141922 C1.09978176,211.214158 1.17231466,211.214158 1.17231466,211.286892 C1.31728076,211.431364 1.4616985,211.575338 1.60696371,211.720308 C1.67944676,211.79354 1.67944676,211.79354 1.67944676,211.865278 C1.82441286,212.010248 1.9688306,212.15472 2.11324835,212.299192 C2.18578125,212.299192 2.18578125,212.371926 2.2582643,212.443166 C2.47601255,212.588136 2.69291335,212.733106 2.90981414,212.877578 L87.4717114,261.642226 L87.3994277,261.642226 L126.132496,283.999402 C129.752162,286.097732 134.313509,286.097732 138.005459,283.999402 L169.789825,265.695111 Z M326.967874,172.288944 L326.967874,172.361678 C326.967874,172.578884 326.895092,172.723356 326.823307,172.94106 C326.823307,173.013296 326.823307,173.085532 326.751023,173.157768 C326.677244,173.302738 326.677244,173.44721 326.605459,173.664416 C326.605459,173.736652 326.533175,173.809386 326.533175,173.881124 C326.460393,174.026094 326.388608,174.171064 326.315327,174.315536 C326.315327,174.38827 326.243043,174.460008 326.243043,174.532742 C326.170261,174.677214 326.025694,174.894918 325.95341,175.03939 C325.95341,175.111626 325.881127,175.111626 325.881127,175.183364 C325.736559,175.401068 325.590995,175.54554 325.446926,175.689514 L325.374144,175.762746 C325.012227,176.124424 324.577528,176.4866 324.071543,176.775544 L219.092756,237.333184 C219.309607,237.622626 219.526458,237.839832 219.671523,238.05654 C219.816589,237.694862 219.889371,237.55039 219.889371,237.55039 L221.408823,239.576484 C221.408823,239.576484 221.408823,239.865926 221.33654,240.371577 C221.554388,240.661019 221.770242,240.878724 221.916304,241.022697 L323.999758,182.128477 C325.954407,180.971705 326.967874,179.017349 326.967874,176.991753 L326.967874,172 C327.040158,172.072236 326.967874,172.216708 326.967874,172.288944 Z M212.432191,244.785692 L209.970559,242.542442 L184.775969,257.085333 C185.644869,258.170815 186.803401,259.762048 187.382169,260.992501 L213.51844,245.943062 L212.432191,244.785692 Z" id="Fill-1" fill="#FF6F00"></path>
                <path d="M251.42111,189.831142 L250.044661,190.777326 L245.18992,186.048911 L251.42111,189.831142 Z M265.695473,176.518952 C269.82532,176.664211 272,178.627705 272,178.627705 C270.477375,173.899792 265.695473,176.518952 265.695473,176.518952 Z M233.669953,199.870507 C235.843136,200.524672 236.42335,198.487546 236.42335,198.487546 C235.336758,199.870507 233.669953,199.870507 233.669953,199.870507 Z M261.492788,184.957469 L261.058251,185.176359 C261.131089,185.102728 261.20293,185.102728 261.276267,185.030599 L261.492788,184.957469 L258.73939,184.521193 C258.73939,184.521193 253.59579,182.629827 252.219341,179.065484 C250.769554,175.50064 252.219341,172.73572 252.219341,172.73572 C252.219341,172.73572 250.769554,175.064364 251.131751,178.19243 C251.639127,182.411939 255.261598,184.448063 254.465363,187.066723 L254.247346,187.721888 L253.016075,188.594942 C252.653379,189.394866 253.958486,191.213602 255.696634,190.776324 C257.145922,190.412677 258.086836,189.466994 258.377193,189.103347 L258.304354,189.031218 C258.232015,188.957587 258.160174,188.885459 258.087335,188.885459 L258.013998,188.81283 C258.013998,188.739199 257.941658,188.667571 257.941658,188.667571 L257.941658,188.085536 C257.941658,188.011905 258.013998,187.940277 258.013998,187.867147 C258.013998,187.867147 258.013998,187.794017 258.087335,187.794017 C258.160174,187.721388 258.160174,187.648257 258.232015,187.5035 L258.304354,187.429368 C258.377193,187.35774 258.450031,187.28461 258.522371,187.139853 L258.59521,187.066222 C258.667549,186.993592 258.73939,186.920963 258.812728,186.847833 C258.885566,186.774703 258.885566,186.774703 258.957407,186.702074 C259.029747,186.629945 259.102086,186.556815 259.174925,186.484186 C259.247763,186.411056 259.319604,186.411056 259.319604,186.338427 C259.391944,186.266298 259.464283,186.193168 259.537621,186.193168 C259.609961,186.120539 259.6823,186.120539 259.75464,186.04841 C259.82698,185.974779 259.899818,185.974779 259.899818,185.903152 C259.972657,185.829521 260.043999,185.829521 260.116837,185.757393 C260.190175,185.757393 260.190175,185.684763 260.262015,185.684763 C260.334854,185.611132 260.406695,185.611132 260.479034,185.538503 C260.479034,185.538503 260.552871,185.538503 260.552871,185.465874 L259.755638,185.974779 C263.813145,186.920963 267.073419,183.21036 267.073419,183.21036 C265.333276,185.175357 261.492788,184.957469 261.492788,184.957469 Z M237.872139,189.903771 C237.872139,190.267919 240.697876,183.283991 236.206331,181.902032 C236.206331,181.902032 240.04632,176.664211 242.5822,174.044549 C242.655038,173.97192 242.655038,173.97192 242.72638,173.899792 C240.045821,176.445321 237.872139,178.991853 236.206331,180.519572 L236.132994,180.592702 C235.915975,180.81109 235.698457,180.956349 235.480939,181.102108 C231.206911,184.448063 231.640949,187.648257 231.640949,187.648257 L233.379596,186.848835 L234.829882,182.629326 C239.466605,184.811209 237.872139,189.684882 237.872139,189.903771 Z M243.596452,193.177096 C243.089077,191.940896 241.060073,190.849454 241.060073,190.849454 C241.060073,190.849454 242.074326,191.503117 242.510359,193.177096 C243.016737,194.850073 241.640288,197.97814 241.640288,197.97814 C241.640288,197.97814 243.089575,197.323475 244.828721,196.523051 C243.306594,196.450421 244.103329,194.414298 243.596452,193.177096 Z M237.655619,197.106088 C239.756962,196.233034 238.814051,194.268539 238.814051,194.268539 C238.958731,196.014646 237.655619,197.106088 237.655619,197.106088 Z M80.0648939,65 L36.6641349,90.1697906 L15,102.754686 L15,135.053162 L20.3614672,138.181229 L20.3614672,105.882752 L42.025602,93.2978572 L85.4265107,68.1280665 L80.0648939,65 Z M31.0124609,131.926098 L31.9547225,132.94441 L37.3161897,136.072476 L32.6787678,130.907786 L31.0124609,131.926098 Z M95.0636515,111.120573 L104.627455,111.557351 L104.627455,112.212016 C104.627455,112.285146 104.627455,112.285146 104.555115,112.357775 L94.4115967,111.848369 L84.6307744,123.560711 C84.6307744,123.633841 84.703114,123.70597 84.7754537,123.70597 L84.0510592,123.270194 L83.9787195,123.197064 L83.8335413,123.051305 L83.7607027,122.978675 L83.7607027,110.609664 L83.8335413,110.537035 L83.8335413,110.463905 L83.905881,110.463905 L83.905881,110.390775 L84.0510592,110.390775 L103.106825,99.333598 L103.179664,99.333598 L103.252003,99.2609688 L103.615697,99.2609688 L104.340092,99.697746 C104.194914,99.6246159 104.050234,99.6246159 103.905555,99.7703753 L85.5746823,110.609664 L94.1242336,111.046441 L102.891303,100.5708 L103.978393,99.9161347 C104.195412,99.8435054 104.340591,99.8435054 104.485769,99.9161347 L95.0636515,111.120573 Z M93.542024,111.775238 L84.7021162,111.338461 C84.7749548,111.193704 84.8477934,111.047944 84.9919738,110.974814 C84.7749548,111.047944 84.6297766,111.411591 84.6297766,111.629479 L84.6297766,122.395638 L93.542024,111.775238 Z M69.631019,119.340701 L59.8501966,131.052543 C59.8501966,131.125673 59.9225363,131.125673 59.9225363,131.125673 C59.9225363,131.125673 59.9225363,131.198303 59.9953748,131.198303 L59.2709803,130.762527 L59.1981418,130.689898 L59.1253032,130.616768 L58.980125,130.471008 L58.980125,117.95724 L59.0529635,117.884109 L59.0529635,117.81148 L59.1253032,117.73835 L59.1981418,117.73835 L59.1981418,117.665721 L59.2709803,117.665721 L78.3267462,106.608043 L78.3995848,106.535414 L78.8351195,106.535414 L79.559514,106.971189 L79.4143358,106.971189 L79.559514,106.971189 L70.2127297,118.173625 L79.8493716,118.610402 L79.8493716,118.974049 C79.8493716,119.047179 79.8493716,119.192438 79.776533,119.337696 L69.631019,119.337696 L69.631019,119.340701 Z M79.1958201,107.4831 C79.2681598,107.40997 79.3400005,107.40997 79.4128391,107.40997 C79.3400005,107.410972 79.2676609,107.410972 79.1958201,107.4831 Z M59.8501966,130.979914 L59.8501966,130.906784 C59.777358,130.907786 59.777358,130.979914 59.8501966,130.979914 Z M68.6891066,119.267571 L59.8501966,118.831295 C59.777358,118.903924 59.777358,119.049684 59.777358,119.194942 L59.777358,130.034231 L68.6891066,119.267571 Z M69.3411614,118.541279 L78.1082306,108.065637 L60.1390564,118.468149 L60.7911112,118.104502 L69.3411614,118.541279 Z M90.2807521,130.761525 L99.8450543,131.197802 L99.8450543,131.852968 C99.8450543,131.926098 99.8450543,131.926098 99.7722157,131.998727 L89.6286973,131.48932 L79.8468771,143.201162 C79.8468771,143.201162 79.8468771,143.273791 79.9197157,143.273791 L79.9920554,143.346921 L79.2676609,142.910144 L79.1953212,142.837515 L79.1224826,142.764385 L79.0496441,142.691756 L78.9773044,142.619126 L78.9773044,130.250115 L79.1224826,130.104356 L79.1224826,130.031727 L79.2676609,130.031727 L98.3239256,118.974049 L98.3962653,118.900919 L98.8318,118.900919 L99.5566934,119.337195 L99.4115152,119.337195 L99.5566934,119.337195 L90.2807521,130.761525 Z M99.1934984,119.631719 C99.265838,119.558589 99.3381777,119.558589 99.4105174,119.558589 C99.3381777,119.559591 99.2653392,119.559591 99.1934984,119.631719 Z M79.8478749,143.201162 L79.8478749,143.128533 L79.8478749,143.201162 Z M88.7596234,131.41619 L79.9202146,130.980415 C79.9930531,130.834655 80.0648939,130.689898 80.2100722,130.616768 C79.9930531,130.689898 79.8478749,131.052543 79.8478749,131.271433 L79.8478749,142.037591 L88.7596234,131.41619 Z M98.1064077,120.286885 L80.7902862,130.32575 L89.3398375,130.762527 L98.1064077,120.286885 Z" id="Fill-2" fill="#FF6F00"></path>
                <path d="M77.7373298,189.616914 L77.3034275,190.197658 L76.8685277,190.777903 L79.9103325,172.140666 C80.7791346,171.995356 81.6489341,171.995356 82.4449204,172.140666 L82.5177362,172.285478 L82.6623703,172.719912 L82.8075031,173.154846 L82.8798202,173.58978 L82.952636,174.097119 L83.024953,174.604459 L83.024953,175.620137 L82.952636,176.200381 L82.8798202,176.781125 L82.8075031,177.36087 L82.7346874,177.941614 L82.6623703,178.522358 L82.5177362,179.17401 L82.3726034,179.82716 L82.2274705,180.47931 L82.0105194,181.131961 L81.7930695,181.784611 L81.5756196,182.437261 L81.2858527,183.089912 L80.9965845,183.742063 L80.7068175,184.395212 L80.4170506,185.046864 L80.0549666,185.700513 L79.6928826,186.352165 L79.3302999,187.004815 L78.9682159,187.657465 L78.5343136,188.310116 L78.0994138,188.962766 L77.7373298,189.616914 Z M166.104775,203.251164 C163.78664,202.961541 162.265987,201.36512 161.252052,199.480074 C159.875534,196.941379 159.51345,193.968749 159.440635,193.097883 C159.440635,192.95357 159.368318,192.880665 159.368318,192.880665 L159.585269,192.735355 L164.293857,190.052348 C164.293857,190.052348 157.774849,192.372327 155.74648,193.533316 C155.74648,193.533316 156.615282,201.220808 156.832732,201.438025 C156.978364,201.655242 164.293857,208.037433 164.293857,208.037433 L166.24941,203.323071 L166.24941,203.250166 L166.104775,203.251164 Z M156.689096,256.04698 C156.616778,255.973476 156.616778,255.973476 156.543963,255.973476 C156.471147,255.973476 156.471147,255.900871 156.39883,255.900871 C155.022312,255.175565 152.994442,255.24822 151.69074,255.973476 C151.039388,256.336004 150.676806,256.843993 150.676806,257.351482 L150.676806,257.424936 C150.749621,258.729438 152.488223,259.67256 154.154009,259.67256 C155.819795,259.67256 157.485581,258.802593 157.557898,257.497542 C157.630713,256.916898 157.268629,256.409458 156.689096,256.04698 Z M141.839662,164.88661 C148.937705,179.0282 110.40369,175.257609 103.740047,185.555702 C97.0764053,195.781389 121.631286,202.598514 122.645221,216.159359 C123.659156,229.720704 80.5616847,224.644313 75.9982294,238.785902 C71.579907,252.419653 86.4288418,261.993089 87.514595,262.64579 L87.5874108,262.64579 L2.9142692,213.766475 C2.69726818,213.621164 2.48026715,213.476352 2.26241827,213.33204 C2.18985185,213.33204 2.18985185,213.258636 2.11708594,213.187229 C1.97200297,213.041918 1.8275185,212.896607 1.6824854,212.751796 C1.60966962,212.67939 1.60966962,212.67939 1.60966962,212.607483 C1.46463652,212.462672 1.32015204,212.317361 1.17506908,212.17205 C1.17506908,212.099145 1.10255253,212.099145 1.10255253,212.027239 C0.957220199,211.882427 0.885252266,211.664711 0.740219175,211.519899 C0.740219175,211.446495 0.667702629,211.446495 0.667702629,211.374589 C0.595186083,211.229278 0.522370294,211.01206 0.449853749,210.86675 C0.449853749,210.794843 0.377287329,210.721938 0.377287329,210.649033 C0.304770784,210.504222 0.304770784,210.35941 0.232104616,210.214599 C0.232104616,210.141194 0.159588071,209.996882 0.159588071,209.924976 C0.159588071,209.85257 0.087071525,209.707759 0.087071525,209.634853 C0.087071525,209.490042 0.0145549793,209.272325 0.0145549793,209.127514 C-0.130777355,206.952346 0.810641019,204.77568 2.91132665,203.542285 L28.9875583,188.458423 L30.870395,200.061317 C30.870395,207.966026 40.7944888,214.347718 53.1071399,214.347718 C64.4788714,214.347718 73.8227331,208.908799 75.198752,201.802051 C78.4580066,199.335262 81.7182587,195.56517 84.3251637,190.996119 C90.047188,181.13246 90.9164888,170.907272 86.6428005,167.426304 L87.0048845,167.788832 L84.1800309,164.960514 L83.6009958,164.742298 L83.0214619,164.597986 L82.4414293,164.452176 L81.7895783,164.37977 L81.2100444,164.37977 C81.1372287,164.524582 81.1372287,164.742298 81.0644129,164.88711 C80.7023289,165.902787 80.2684266,166.917466 79.6155782,167.860738 C79.4709441,168.078954 79.32631,168.296171 79.1816759,168.513389 C79.1816759,168.513389 79.1816759,168.586294 79.1093588,168.586294 C78.964226,168.80401 78.8195919,169.021228 78.6016432,169.238445 C78.6016432,169.238445 78.6016432,169.31135 78.5293262,169.31135 C77.6605241,170.399433 76.5732747,171.486518 75.4147056,172.42979 C75.3423886,172.42979 75.3423886,172.503194 75.2695728,172.503194 C75.0526217,172.648006 74.834673,172.792318 74.6905377,172.938128 C74.6177219,173.011033 74.5449061,173.011033 74.472589,173.083439 C74.2556379,173.228251 74.0386867,173.373062 73.8935539,173.517873 C73.8207381,173.591278 73.7479223,173.663184 73.603787,173.663184 C73.3863371,173.807496 73.1693859,173.953307 72.951936,174.098118 C72.8791202,174.170524 72.7339874,174.24243 72.6621691,174.24243 C72.4452179,174.387741 72.2282668,174.533052 72.0103182,174.604958 C71.9380011,174.678363 71.8651853,174.678363 71.793367,174.750269 C71.069199,175.185203 70.2717165,175.547731 69.4757302,175.910259 C69.3305974,175.983663 69.2577816,176.05507 69.1136462,176.05507 C68.8956976,176.128475 68.6787465,176.200381 68.4617953,176.345692 C68.3889795,176.345692 68.3166625,176.418098 68.3166625,176.418098 C68.2438467,176.491003 68.0992126,176.491003 68.0268955,176.562909 C67.8099444,176.635315 67.5929932,176.70822 67.4473616,176.781125 C67.3027275,176.853531 67.0852777,176.925937 66.9401448,176.998342 C66.7231937,177.071747 66.5780608,177.143653 66.3611097,177.216558 C66.1431611,177.288964 65.9990257,177.36087 65.7810771,177.434275 C65.5641259,177.50718 65.4189931,177.578587 65.2020419,177.651492 C64.984592,177.724397 64.7676409,177.796803 64.550191,177.869708 C64.3327411,177.942114 64.188107,177.942114 63.9706571,178.015019 C63.753706,178.086925 63.4634403,178.159331 63.1736733,178.232236 C63.029538,178.232236 62.8844051,178.305141 62.739771,178.305141 C62.3048713,178.378545 61.9427873,178.449453 61.508885,178.594764 C61.3637521,178.594764 61.219118,178.667669 61.0739852,178.667669 C60.7842182,178.741073 60.5662696,178.741073 60.2775002,178.811981 C60.1323673,178.811981 59.9154162,178.885386 59.7702833,178.885386 C59.4810151,178.958291 59.2630665,178.958291 58.9732996,179.030197 C58.7563484,179.030197 58.6112156,179.103601 58.3942644,179.103601 C58.1044975,179.103601 57.8865489,179.175508 57.5972806,179.175508 C57.3803295,179.175508 57.2346979,179.248912 57.0177468,179.248912 C56.7284786,179.248912 56.4387116,179.321817 56.220763,179.321817 C56.0756302,179.321817 55.858679,179.321817 55.7135462,179.394223 C55.4237792,179.394223 55.134511,179.394223 54.7719283,179.467628 L51.1500909,179.467628 C50.860324,179.467628 50.570557,179.467628 50.2084731,179.394223 C50.0633402,179.394223 49.8463891,179.394223 49.7012064,179.321817 C49.4116888,179.321817 49.1214231,179.248912 48.9044221,179.248912 C48.6872714,179.248912 48.5420887,179.248912 48.3249381,179.175508 C48.0354205,179.175508 47.8176714,179.103601 47.5281538,179.103601 C47.3110032,179.103601 47.1659701,179.030197 46.9486698,179.030197 C46.6591023,179.030197 46.4417023,178.957791 46.1518855,178.885386 C46.0068026,178.885386 45.7898015,178.811981 45.6444692,178.811981 L45.4999847,178.811981 C45.2824351,178.740574 45.0653842,178.740574 44.8482335,178.667669 C44.7030508,178.667669 44.4859002,178.594764 44.3410167,178.594764 C43.9061169,178.522358 43.5440828,178.449453 43.1097815,178.305141 C42.9646985,178.232236 42.7475479,178.232236 42.6023652,178.16033 C42.3853642,178.086925 42.0952481,178.015019 41.8779977,177.942114 C41.6603982,177.869708 41.5159137,177.797302 41.2980648,177.797302 C41.0810638,177.724397 40.9359809,177.652491 40.7189798,177.652491 C40.5019788,177.579586 40.2848282,177.507679 40.0671289,177.434774 C39.9220459,177.36137 39.7047457,177.289963 39.5597126,177.289963 C39.3427115,177.217058 39.1257105,177.145151 38.9078118,177.072246 C38.7627787,176.998842 38.6182942,176.926935 38.4732611,176.926935 C38.2559608,176.85453 38.0389598,176.781624 37.8213603,176.709718 C37.6768758,176.636314 37.5315435,176.636314 37.4590269,176.564407 C37.2420259,176.491502 37.0250249,176.346691 36.7346096,176.274285 C36.6620931,176.274285 36.5895765,176.201879 36.5176086,176.201879 C35.6487067,175.766945 34.7792563,175.331013 33.9104043,174.897078 L33.8378379,174.897078 C33.5483204,174.751767 33.3311697,174.606456 33.0413529,174.461645 C32.968986,174.461645 32.968986,174.389239 32.8964694,174.389239 C32.6793188,174.243928 32.3890531,174.099117 32.1720521,173.954805 C32.0995355,173.954805 32.0995355,173.8814 32.0267197,173.8814 C31.8097187,173.736589 31.5193034,173.518872 31.3023024,173.374061 L31.2297858,173.300656 C28.1158635,170.980177 25.8702446,168.224265 24.8560603,165.105825 C24.4214597,163.87293 24.2041595,162.568129 24.2041595,161.262329 C24.2041595,151.109546 37.0250249,142.914216 52.815378,142.914216 C67.0837814,142.914216 78.8909114,149.586529 81.0639141,158.361106 L87.8008708,154.444205 C99.9017576,164.234459 135.248836,151.615887 141.839662,164.88661 Z M77.2296142,161.043114 C77.2296142,153.429027 66.3655983,147.192146 53.1096336,147.192146 C39.8549158,147.192146 28.9897029,153.429027 28.9897029,161.043114 C28.9897029,161.406141 28.9897029,161.76867 29.0622194,162.059291 L29.0622194,162.131198 C29.9311212,168.368078 37.8261981,173.372563 48.2568104,174.604958 L48.329327,174.604958 C48.6916603,174.678363 49.0537443,174.678363 49.3432619,174.678363 L49.4885942,174.678363 C49.7781118,174.678363 50.1406446,174.751268 50.4299128,174.751268 L50.646864,174.751268 C50.9366309,174.751268 51.2987149,174.751268 51.5894793,174.823673 L54.6302866,174.823673 C54.9200536,174.823673 55.2098205,174.823673 55.4995875,174.751268 L55.7888557,174.751268 C56.0786226,174.751268 56.3683895,174.678363 56.6581565,174.678363 L56.9474247,174.678363 C57.2371916,174.678363 57.5274573,174.604958 57.8895413,174.604958 L58.1069912,174.604958 C58.3962594,174.533052 58.7583434,174.533052 59.048609,174.460147 L59.1932431,174.460147 C59.5558259,174.387741 59.8450941,174.387741 60.2071781,174.315835 L60.2799938,174.315835 C60.6420778,174.24243 61.0041618,174.170524 61.2939288,174.098118 C67.2339017,172.865223 72.0143081,170.326528 74.7663459,167.063776 C74.7663459,167.063776 74.7663459,166.990871 74.8391617,166.990871 C74.9842945,166.84556 75.1289286,166.628343 75.2735627,166.483032 C75.3463785,166.410626 75.3463785,166.337721 75.4191943,166.265815 C75.4915113,166.120005 75.5638284,166.047599 75.7084625,165.902787 C75.7807795,165.757976 75.8535953,165.685071 75.9264111,165.540259 C75.9987282,165.467354 75.9987282,165.394949 76.071544,165.249638 C76.143861,165.104826 76.2156793,164.960514 76.2884951,164.815203 C76.2884951,164.741799 76.3608122,164.669892 76.3608122,164.596987 C76.433628,164.452176 76.5064437,164.234459 76.5782621,164.089149 C76.5782621,164.016743 76.5782621,164.016743 76.6505791,163.944337 C76.7233949,163.72662 76.7957119,163.581809 76.8675303,163.364092 L76.8675303,163.291187 C76.940346,163.072971 77.0126631,162.855754 77.0126631,162.638537 C77.1582947,162.204103 77.2296142,161.623359 77.2296142,161.043114 Z M213.475436,184.033184 C213.40262,183.959779 213.331301,183.959779 213.258485,183.887873 C211.37475,182.9451 208.549897,183.017007 206.811794,183.960279 C205.869178,184.468617 205.435276,185.193673 205.435276,185.919228 L205.435276,185.991634 C205.507593,187.731869 207.898046,189.037669 210.215683,189.037669 C212.533319,189.037669 214.779138,187.804274 214.923772,186.06404 C214.923772,185.41089 214.561189,184.685834 213.765203,184.178495 C213.620569,184.10509 213.548252,184.033184 213.475436,184.033184 Z M135.321651,140.447427 C137.639288,140.447427 139.885107,139.215032 139.956925,137.474298 C139.956925,136.821648 139.594841,136.168997 138.798356,135.588253 C138.726039,135.515348 138.653223,135.515348 138.580407,135.442942 C138.50809,135.370537 138.436272,135.370537 138.363456,135.297632 C136.48022,134.355358 133.655866,134.355358 131.917264,135.370537 C130.975646,135.878376 130.541245,136.602932 130.541245,137.328987 L130.541245,137.401393 C130.68538,139.142127 133.003017,140.447427 135.321651,140.447427 Z M116.778064,254.233042 C116.705746,254.160137 116.561112,254.08838 116.488795,254.015725 C116.343164,253.94287 116.271345,253.870214 116.126213,253.797609 C113.156725,252.274991 108.59327,252.347047 105.768416,253.94287 C104.319581,254.812787 103.522598,255.900871 103.595413,257.06131 L103.595413,257.134165 C103.740047,259.962483 107.506519,261.993089 111.273489,261.993089 C114.967644,261.993089 118.661798,260.034489 118.806432,257.20682 C118.806931,256.191642 118.154581,255.103559 116.778064,254.233042 Z M134.379535,187.006313 C134.306719,186.933907 134.306719,186.933907 134.233903,186.933907 C134.161586,186.860503 134.089768,186.860503 134.089768,186.860503 C132.713749,186.208352 130.68538,186.208352 129.38118,186.933907 C128.729329,187.296435 128.367245,187.803276 128.367245,188.311614 L128.367245,188.384519 C128.439562,189.68932 130.105348,190.559188 131.843949,190.559188 C133.509735,190.559188 135.175521,189.68932 135.248337,188.384519 C135.321651,187.87668 135.031386,187.368841 134.379535,187.006313 Z M213.403618,231.099409 L213.403618,230.736382 L212.897398,227.47313 C212.897398,227.47313 212.607133,228.053375 212.099916,228.777931 C211.448564,229.721203 210.361813,230.881193 208.84116,231.171316 C207.175374,231.533844 205.436772,231.171316 204.350022,230.808788 C203.698171,230.590572 203.263271,230.44576 203.263271,230.44576 L205.436274,234.72419 C205.436274,234.72419 205.653723,234.869501 206.377891,234.942406 C207.029742,235.014812 208.116493,235.014812 209.855095,234.72419 C211.95578,234.361662 212.824582,232.983456 213.114349,231.968278 C213.331301,231.680153 213.403618,231.317126 213.403618,231.099409 Z M219.777493,238.931213 C219.270775,240.164607 217.894756,243.355054 217.024956,243.935698 C215.938206,244.73301 212.67945,245.603527 212.534816,245.676182 L213.548252,246.836272 L214.417553,247.779444 C214.417553,247.779444 214.635501,247.779444 215.069403,247.706788 C215.865888,247.561577 217.241907,247.1988 218.835875,245.89285 C220.646794,244.514894 221.153512,242.411632 221.370962,241.251692 C221.443279,240.744852 221.443279,240.45473 221.443279,240.45473 L219.922626,238.423874 C219.994444,238.351468 219.84981,238.568685 219.777493,238.931213 Z M204.349523,113.396644 C204.493658,113.323739 204.638791,113.323739 204.783425,113.250834 C205.073192,113.106522 205.363458,113.033617 205.580409,112.888805 C205.869178,112.8159 206.159444,112.671089 206.376894,112.525778 C206.593845,112.380467 206.883113,112.308561 207.17288,112.16325 C207.390829,112.017939 207.680596,111.873627 207.897547,111.728815 C208.04268,111.65591 208.114997,111.583005 208.259631,111.5106 C208.404764,111.438194 208.47758,111.365289 208.621715,111.293382 C208.695029,111.220477 208.839664,111.148071 208.983799,111.076165 C209.057113,111.00326 209.201748,110.930854 209.346382,110.857949 C209.419696,110.785543 209.563832,110.713138 209.63565,110.640732 C209.708466,110.567827 209.853599,110.495421 209.925417,110.423515 C209.997235,110.351608 210.143365,110.278204 210.215184,110.206298 C210.287501,110.133392 210.432634,110.060987 210.504951,109.988581 C210.721902,109.84377 210.867035,109.698958 211.01117,109.480742 C211.156802,109.335431 211.300937,109.191119 211.518886,108.972903 C211.663021,108.827592 211.807655,108.610375 211.952788,108.464565 C212.097422,108.247348 212.242555,108.102037 212.315371,107.956726 C212.387688,107.884321 212.459506,107.811415 212.459506,107.739509 C212.532821,107.667103 212.604639,107.521792 212.676956,107.449387 C212.749772,107.304575 212.894905,107.086859 212.966723,106.941548 C213.038541,106.796237 213.183674,106.57902 213.25649,106.433709 C213.329306,106.216492 213.400625,106.071181 213.473441,105.92587 C213.546257,105.708154 213.618574,105.563342 213.690891,105.417532 C213.690891,105.345126 213.763707,105.200315 213.763707,105.127909 C213.763707,105.055004 213.836522,104.909693 213.836522,104.837787 C213.909837,104.62057 213.909837,104.475259 213.909837,104.258041 C213.909837,104.112731 213.982154,103.895014 213.982154,103.749703 L213.982154,103.387175 C213.909837,100.631263 212.171235,97.8758503 208.839664,95.6267784 C208.549897,95.4095612 208.259631,95.2642503 207.969864,95.1189395 C207.681095,94.9736287 207.319011,94.7564115 207.028745,94.6111007 C205.652227,93.8855452 204.131076,93.3058 202.537607,92.8703669 C202.46529,94.1027625 202.46529,95.3361567 202.392474,96.4242402 C202.754558,96.5690516 203.189458,96.7867682 203.551542,96.9315797 C203.768493,97.0768905 204.05826,97.1497956 204.276208,97.2941077 C204.49316,97.4384198 204.710111,97.5113249 204.928059,97.6566357 C210.143365,101.065198 209.997734,106.213995 204.420344,109.478245 C198.626002,112.813903 189.137008,112.813903 183.269851,109.40534 C177.402694,105.996778 177.402694,100.557859 183.197035,97.2212026 C184.500737,96.4961466 185.949572,95.9164013 187.543539,95.4809682 C187.832807,94.3209784 188.123073,93.1604892 188.340024,92 C185.080271,92.5078389 181.966149,93.5230172 179.358246,94.97263 C175.44764,97.2212026 173.491089,100.267237 173.491089,103.240366 L173.491089,103.820112 C173.491089,103.893017 173.491089,104.037329 173.563905,104.110234 C173.563905,104.183139 173.563905,104.327451 173.63722,104.400356 C173.63722,104.618572 173.709537,104.762884 173.781854,104.980601 C173.853173,105.198817 173.854171,105.343628 173.925989,105.560845 C173.925989,105.63375 173.999304,105.778063 173.999304,105.850968 C173.999304,105.923373 174.072119,106.068185 174.072119,106.140591 C174.144437,106.358807 174.216255,106.503618 174.361388,106.648929 C174.434203,106.866645 174.578339,107.011457 174.651155,107.229173 C174.723472,107.446391 174.868106,107.592201 175.013239,107.737512 C175.157873,107.881824 175.230688,108.10004 175.375323,108.24535 C175.519957,108.462568 175.664591,108.608378 175.809724,108.75269 C175.882041,108.825595 175.953859,108.898001 176.026675,108.970407 C176.099989,109.043312 176.171808,109.115218 176.244623,109.188123 C176.31694,109.261028 176.389258,109.333434 176.533892,109.40534 C176.606209,109.478245 176.75184,109.550651 176.823659,109.622558 C177.04061,109.767868 177.185743,109.985086 177.402694,110.130396 C177.476008,110.203301 177.620642,110.276207 177.692461,110.348612 C177.765276,110.421018 177.910409,110.493424 177.982228,110.56583 C178.126363,110.638735 178.199677,110.71164 178.344312,110.783047 C178.416629,110.855952 178.56226,110.928857 178.706396,111.000264 C178.924344,111.146074 179.214111,111.290386 179.431062,111.435697 C179.648512,111.581008 179.938279,111.725819 180.15523,111.870631 C180.300363,111.943037 180.373179,112.015442 180.517314,112.088347 C180.662946,112.161252 180.807081,112.233159 180.879897,112.305565 C181.169165,112.450875 181.387114,112.523281 181.676881,112.668093 C181.96565,112.813903 182.255916,112.885809 182.472867,113.03112 C182.762634,113.103526 183.0529,113.248337 183.342667,113.320743 C183.631436,113.393648 183.921702,113.538459 184.211469,113.610865 C184.355604,113.683271 184.500737,113.683271 184.645371,113.756176 C184.790504,113.829081 184.935138,113.829081 185.080271,113.901487 C185.224406,113.974392 185.36904,113.974392 185.514672,114.047297 C185.658807,114.119703 185.80394,114.119703 185.948574,114.192608 C186.237842,114.265014 186.599926,114.337919 186.890691,114.409825 C187.180956,114.481731 187.542542,114.555136 187.83181,114.627042 C188.194393,114.699448 188.483661,114.699448 188.773926,114.772353 C189.063693,114.845258 189.425777,114.845258 189.716043,114.917664 C190.078626,114.99007 190.367894,114.99007 190.65816,114.99007 C191.020742,114.99007 191.309512,115.062975 191.599778,115.062975 C191.961862,115.062975 192.251628,115.13588 192.613712,115.13588 L195.656016,115.13588 C196.0181,115.13588 196.307867,115.062975 196.598133,115.062975 C196.960217,115.062975 197.249983,114.99007 197.539252,114.99007 C197.901834,114.99007 198.191103,114.917664 198.481867,114.917664 C198.626002,114.917664 198.771135,114.845258 198.989084,114.845258 C199.133718,114.845258 199.277853,114.772353 199.495802,114.772353 C199.785569,114.699448 200.147653,114.627042 200.437919,114.555136 C200.727187,114.482231 201.089769,114.409825 201.379038,114.33692 C201.524171,114.264514 201.668805,114.264514 201.813937,114.192608 C201.958572,114.119703 202.102707,114.119703 202.248339,114.119703 C202.537607,114.047297 202.827872,113.974392 203.117141,113.83008 C203.406409,113.757175 203.697173,113.611864 203.986441,113.539458 C204.059756,113.541955 204.204889,113.46905 204.349523,113.396644 Z M243.173305,125.363065 C243.10049,125.29016 243.028173,125.29016 242.955357,125.217754 C242.88304,125.144849 242.811221,125.144849 242.737907,125.144849 C240.854671,124.201577 238.029818,124.201577 236.291216,125.217754 C235.349099,125.725593 234.915197,126.45015 234.915197,127.103799 L234.915197,127.176205 C234.987514,128.916939 237.377967,130.222239 239.695603,130.222239 C242.01324,130.222239 244.259059,128.989844 244.403693,127.24911 C244.404191,126.595461 244.042108,125.870405 243.173305,125.363065 Z M289.312581,161.91398 C289.239765,161.841075 289.095131,161.841075 289.023313,161.76867 C288.949998,161.696763 288.805364,161.623858 288.661229,161.551452 C285.908692,160.173247 281.707321,160.173247 279.099419,161.696763 C277.722901,162.493226 277.07105,163.509903 277.07105,164.524582 L277.07105,164.597986 C277.216682,167.208088 280.693386,169.093633 284.097774,169.093633 C287.501164,169.093633 290.90605,167.208088 290.977868,164.670392 C291.123998,163.72662 290.543966,162.711442 289.312581,161.91398 Z M183.778564,256.843993 L185.155081,255.610698 L182.184596,251.695196 L181.533244,252.347896 L175.087052,258.802593 L173.855168,260.035338 L177.331873,262.718395 L178.563258,261.557706 C178.636073,261.195178 178.780708,260.905855 178.780708,260.905855 L183.561114,256.482364 C183.561114,256.55412 183.633431,256.698782 183.778564,256.843993 Z M189.210322,274.684167 C188.413837,276.207334 186.675735,279.253169 185.6618,279.905869 C184.647865,280.486513 181.967645,281.066558 180.808577,281.283825 C180.446493,281.356431 180.229542,281.356431 180.229542,281.356431 L182.256415,283.967731 C182.256415,283.967731 182.546182,284.040336 183.053398,283.967731 C183.995016,283.895125 185.588485,283.604953 187.544537,282.299852 C189.427274,281.067107 190.36939,279.181412 190.803791,277.876062 C191.093059,276.933489 191.165875,276.280838 191.165875,276.280838 L189.645222,273.742442 C189.718537,273.741594 189.500588,274.104372 189.210322,274.684167 Z M189.718537,135.225725 C189.500588,134.790292 188.922052,134.717886 188.486653,134.935603 L184.358098,137.61861 L180.230041,134.935603 C179.795141,134.64598 179.287924,134.790292 178.998157,135.225725 C178.708889,135.66016 178.854022,136.168498 179.287924,136.458121 L182.691813,138.633788 L179.287924,140.881862 C178.854022,141.171984 178.780708,141.679823 178.998157,142.114757 C179.287924,142.55019 179.794642,142.622595 180.230041,142.332473 L184.358098,139.649466 L188.486653,142.332473 C188.921553,142.622595 189.42877,142.477285 189.718537,142.114757 C190.007805,141.679823 189.862672,141.171984 189.42877,140.881862 L186.024382,138.633788 L189.42877,136.458121 C189.862672,136.168498 189.935488,135.661158 189.718537,135.225725 Z M199.423984,138.92441 L199.423984,139.141627 C199.134217,144.725857 191.745908,148.714165 184.430914,148.714165 C177.187239,148.714165 169.944063,144.798263 169.726114,139.286439 L169.726114,138.923411 C169.799429,136.893055 171.029816,134.935104 173.492586,133.266276 C173.710534,133.120965 173.926488,133.049059 174.144437,132.903748 C174.362385,132.758437 174.652152,132.614125 174.869103,132.54122 C180.735762,129.568091 189.645721,129.639997 195.222612,132.903748 C197.975648,134.573075 199.423984,136.748243 199.423984,138.92441 Z M192.253125,134.50017 C188.196388,132.107285 181.605561,132.03438 177.260055,134.282953 C177.042106,134.355858 176.897472,134.50017 176.753336,134.573075 C176.608204,134.64598 176.46357,134.718386 176.318437,134.863197 C172.479149,137.328987 172.624781,141.172483 176.680521,143.565867 C180.954708,146.031657 187.834802,146.031657 192.181306,143.493462 C196.526813,140.955266 196.526813,136.96596 192.253125,134.50017 Z" id="Fill-3" fill="#D1C4E9"></path>
                <path d="M213.857423,103.865299 L213.857423,106.969144 L213.785639,107.546176 L213.713855,108.051638 L213.569297,108.557597 L213.353946,109.063058 L213.137604,109.56852 L212.850469,110.074479 L212.563829,110.579941 L212.20392,111.085403 L211.844011,111.590865 L211.412813,112.096824 L210.406355,113.107251 L209.831589,113.540646 L209.255834,113.973047 L208.60879,114.406443 L207.889962,114.838844 L207.170638,115.272239 L206.380522,115.63307 L205.58892,115.993901 L204.798803,116.35523 L203.936407,116.643497 L203.073021,116.932261 L202.210131,117.148462 L201.347735,117.365159 L200.41207,117.58136 L199.477891,117.725991 L198.542721,117.870621 L197.607552,118.015252 L196.672877,118.087319 L195.737708,118.159883 L192.86091,118.159883 L191.854947,118.087319 L190.919778,118.015252 L189.984608,117.942688 L189.049439,117.798058 L188.114764,117.653924 L187.179595,117.437226 L186.244425,117.221026 L185.310246,117.004825 L184.44686,116.716061 L183.584464,116.427296 L182.721078,116.066465 L181.930962,115.705634 L181.140845,115.344306 L180.349243,114.983474 L179.630415,114.551073 L178.911092,114.117678 L178.264542,113.68478 L177.617498,113.179318 L177.042238,112.673856 L176.538761,112.168394 L176.035779,111.662435 L175.604087,111.156973 L175.244672,110.651511 L174.885258,110.146049 L174.598618,109.641084 L174.310988,109.063058 L174.094647,108.486027 L173.951574,107.908498 L173.807016,107.330472 L173.735233,106.75344 L173.735233,103 L173.735233,103.577032 C173.735233,103.649596 173.735233,103.794226 173.807016,103.865796 C173.807016,103.937863 173.807016,104.081997 173.879295,104.154561 C173.879295,104.370761 173.952069,104.515392 174.023358,104.731592 C174.094647,104.947793 174.095142,105.092921 174.166925,105.309121 C174.239699,105.525819 174.310988,105.669952 174.383267,105.88665 C174.455051,106.103348 174.526339,106.247481 174.670402,106.392609 C174.742681,106.60881 174.885754,106.75344 174.958032,106.969641 C175.029816,107.185841 175.173384,107.330472 175.317446,107.475103 C175.461014,107.62023 175.532798,107.836431 175.67686,107.981062 C175.820428,108.197262 175.964491,108.341893 176.107563,108.486524 C176.251131,108.631154 176.467472,108.847355 176.61104,108.991986 C176.754607,109.136119 176.970454,109.353314 177.114517,109.497448 C177.329868,109.641581 177.473931,109.858776 177.690272,110.003407 C177.905623,110.147043 178.120975,110.291674 178.336326,110.508372 C178.480389,110.580438 178.552668,110.653002 178.69574,110.725069 C178.839803,110.797633 178.912082,110.869203 179.056144,110.94127 C179.271496,111.086397 179.559126,111.230034 179.775467,111.374168 C179.990819,111.518798 180.277954,111.662435 180.494296,111.807563 C180.709647,111.951697 180.997277,112.09583 181.284412,112.168394 C181.572043,112.313025 181.787394,112.384595 182.075024,112.529225 C182.362654,112.673856 182.65078,112.745426 182.866131,112.890057 C183.152771,112.96262 183.440897,113.107251 183.728527,113.178821 C184.016157,113.250391 184.304282,113.395022 184.591417,113.467585 C184.734985,113.539652 184.878553,113.539652 185.022615,113.611719 C185.165688,113.683786 185.310246,113.683786 185.453318,113.755853 C185.597381,113.828417 185.740948,113.828417 185.884021,113.900981 C186.028579,113.973047 186.171651,113.973047 186.315714,114.045114 C186.602849,114.117678 186.962263,114.190242 187.250388,114.261812 C187.538513,114.333382 187.897432,114.406443 188.185558,114.478012 C188.544972,114.550079 188.832602,114.550079 189.120727,114.622643 C189.408358,114.69471 189.767772,114.69471 190.055402,114.767274 C190.414816,114.839341 190.701951,114.839341 190.990571,114.839341 C191.349985,114.839341 191.637616,114.911904 191.925741,114.911904 C192.285155,114.911904 192.572785,114.984468 192.932199,114.984468 L194.945116,114.984468 C195.30453,114.984468 195.592655,114.984468 195.87979,114.911904 C196.239204,114.911904 196.526835,114.839341 196.81496,114.839341 C197.174374,114.839341 197.462004,114.767274 197.750129,114.767274 C198.110038,114.767274 198.397174,114.69471 198.684804,114.69471 C198.972434,114.622643 199.331848,114.622643 199.619973,114.550079 C199.907604,114.478012 200.267018,114.405449 200.555143,114.333382 C200.842773,114.261315 201.202187,114.189248 201.489818,114.117181 C201.776953,114.044617 202.136367,113.972053 202.352708,113.900981 C202.640338,113.828417 202.928464,113.755853 203.216094,113.612216 C203.502734,113.539652 203.790859,113.395519 204.07849,113.323452 C204.365625,113.250888 204.654245,113.106257 204.94138,113.034687 C205.22802,112.890057 205.516146,112.818487 205.731992,112.673856 C206.019622,112.601292 206.307748,112.457656 206.522109,112.313025 C206.73845,112.168394 207.026081,112.096824 207.312721,111.951697 C207.528567,111.807563 207.816693,111.663429 208.032539,111.518798 C208.176107,111.446235 208.24789,111.374168 208.391953,111.302598 C208.535521,111.230034 208.607304,111.157967 208.751367,111.086397 C208.894935,111.013834 208.966718,110.94127 209.111276,110.869203 C209.18306,110.796639 209.326628,110.725069 209.47069,110.653002 C209.542474,110.580438 209.686042,110.508372 209.75832,110.436802 C209.830104,110.364238 209.973672,110.291674 210.044961,110.220601 C210.261302,110.075473 210.404375,109.93134 210.620221,109.714642 C210.836562,109.570011 210.98013,109.426375 211.123698,109.20918 C211.26776,109.06455 211.410833,108.920416 211.627174,108.703718 C211.770247,108.558591 211.914805,108.34239 212.057877,108.197759 C212.20194,107.981559 212.345507,107.836928 212.417291,107.692297 C212.561849,107.547667 212.633633,107.331466 212.7772,107.186835 C212.849974,107.042205 212.993047,106.825507 213.064335,106.680876 C213.136614,106.53724 213.280677,106.320045 213.351966,106.175414 C213.423749,105.959214 213.495533,105.814583 213.568307,105.669952 C213.640091,105.453752 213.71138,105.309121 213.783658,105.164988 C213.855442,104.947793 213.855442,104.803659 213.927721,104.659526 C214,104.442331 214,104.298197 214,104.0815 C213.857423,104.22613 213.857423,104.00993 213.857423,103.865299 Z M184.595378,148.546248 C177.406107,148.546248 170.216342,144.648674 170,139.16215 L170,141.615902 C170.216342,147.102426 177.406107,151 184.595378,151 C191.857423,151 199.263035,147.030359 199.478881,141.472266 L199.478881,138.801816 L199.478881,139.018017 C199.26254,144.575613 191.929206,148.546248 184.595378,148.546248 Z" id="Fill-4" fill="#FFA000"></path>
                <path d="M41.02856,103.403452 C41.1023187,104.054196 41.6915768,104.560054 42.3543399,104.488358 L50.0164703,103.837613 L41.3230369,113.020726 C40.8807382,113.527082 40.8807382,114.250021 41.3967956,114.683684 C41.9129037,115.11685 42.6491212,115.11685 43.0911662,114.610992 L53.5527289,103.548338 L63.8667742,102.681011 C64.529791,102.608817 65.0456962,102.030267 64.9721404,101.379523 C64.8980773,100.728778 64.3091236,100.222423 63.6455995,100.294617 L56.0576844,101.018053 L64.6769026,91.9793291 C65.119252,91.4729733 65.119252,90.7500347 64.6033468,90.3163711 C64.0874416,89.8832054 63.350869,89.8832054 62.9090269,90.3885654 L52.4473627,101.379523 L42.1330638,102.247348 C41.4705543,102.174655 40.9553593,102.752708 41.02856,103.403452 Z" id="Fill-5" fill="#FFFFFF"></path>
                <g id="Group-8" transform="translate(160.000000, 0.000000)">
                    <mask id="mask-2" fill="white">
                        <use xlink:href="#path-1"></use>
                    </mask>
                    <g id="Clip-7"></g>
                    <path d="M53.2215,76.1315 C49.01,76.1315 45.161,74.534 42.2565,71.9195 C42.184,70.758 42.0385,69.523 41.9665,68.362 L53.875,60.8095 L52.641,58.196 L41.385,63.5695 C41.1675,61.972 40.877,60.447 40.5865,58.9945 C38.335,59.575 35.94,59.8655 33.4705,59.8655 C32.889,59.8655 32.2355,59.8655 31.654,59.7925 C31.654,62.842 31.5095,66.1105 31.291,69.5225 L17.495,64.222 L16.478,66.0375 L30.783,74.3155 C27.8055,78.818 22.7225,81.722 16.9865,81.722 C7.837,81.722 0.4295,74.3155 0.4295,65.1655 C0.4295,58.1225 4.86,52.022 11.1045,49.6985 C6.5295,44.4705 3.7705,37.6445 3.7705,30.1645 C3.7705,13.754 17.132,0.3925 33.4705,0.3925 C49.8815,0.3925 63.1705,13.754 63.1705,30.1645 C63.1705,35.2485 61.8635,40.041 59.613,44.18 C65.6395,46.649 69.8515,52.603 69.8515,59.502 C69.7785,68.724 62.2985,76.1315 53.2215,76.1315 Z M53.0765,82.739 C49.228,81.5045 48.9375,85.7885 48.9375,85.7885 C50.3175,85.3525 51.8415,86.5865 54.166,86.2235 C56.4905,85.8605 58.813,82.303 58.813,82.303 C58.813,82.303 56.9255,83.901 53.0765,82.739 Z M65.3485,122.751 C64.259,117.159 58.813,119.701 58.813,119.701 C60.2655,121.1535 59.8295,123.84 61.791,126.454 C63.824,129.0675 69.7785,129.5765 69.7785,129.5765 C69.7785,129.5765 66.4375,128.2695 65.3485,122.751 Z M5.513,91.889 C8.5625,89.8555 5.6575,87.241 5.6575,87.241 C5.1495,88.475 3.4795,88.838 2.3905,90.7265 C1.3735,92.615 2.535,96.2455 2.535,96.2455 C2.535,96.2455 2.464,93.922 5.513,91.889 Z M6.094,119.0465 C0.648,117.304 0.285,123.3315 0.285,123.3315 C2.246,122.75 4.352,124.421 7.6205,123.912 C10.8875,123.4035 14.1545,118.3935 14.1545,118.3935 C14.1545,118.3935 11.541,120.7165 6.094,119.0465 Z" id="Fill-6" fill="url(#linearGradient-3)" mask="url(#mask-2)"></path>
                </g>
                <path d="M204.517247,109.486219 C198.769915,112.850081 189.357903,112.850081 183.539335,109.412698 C177.719777,105.975818 177.719777,100.490407 183.46612,97.126042 C184.759245,96.3943518 186.196326,95.8097046 187.777362,95.3705897 C188.064778,94.2007917 188.351699,93.0304901 188.56689,91.8601885 C189.86051,85.8631483 190.722264,79.9396296 191.225366,74.3081827 L191.153141,74.2346612 L177,65.8975214 L178.005214,64.069051 L191.655748,69.407419 C191.871928,65.8970178 191.943164,62.6061741 192.014894,59.6079057 C192.590221,59.6814273 193.236784,59.6814273 193.811616,59.6814273 C196.254405,59.6814273 198.62497,59.3888519 200.852568,58.8042047 C201.139984,60.3400996 201.427401,61.8754909 201.642592,63.4118894 L212.778111,58 L214,60.6321714 L202.217919,68.2386281 C202.360885,69.4089297 202.43311,70.6517456 202.50484,71.8215436 C203.079672,79.3544788 203.007447,86.887414 202.720031,92.6648967 C202.648301,93.9077127 202.648301,95.1515358 202.577065,96.2483159 C202.936211,96.3943518 203.366594,96.6144128 203.726235,96.7604487 C203.94192,96.9064846 204.229337,96.9800061 204.444528,97.126042 C204.660708,97.2715744 204.875404,97.3450959 205.09109,97.4916354 C210.265569,101.002037 210.049389,106.194872 204.517247,109.486219 Z" id="Fill-9" fill="#6A1B9A"></path>
                <path d="M87,167.322961 C86.6358011,167.176481 86.1977578,167.030504 85.8330566,166.957516 L85.7597145,166.957516 C85.4678531,166.883521 85.1031519,166.811036 84.8107881,166.811036 L83.8628664,166.811036 C82.9872821,166.811036 82.0383556,166.957516 81.0170918,167.248966 L81.381793,164.909817 C81.4551351,164.764343 81.4551351,164.544372 81.5279749,164.398395 L82.1116978,164.398395 L82.7682604,164.47088 L83.3514809,164.617864 L83.9347014,164.764343 L84.519429,164.983308 L87,167.322961 Z M85.7602168,177.045001 L85.7602168,176.972013 C85.7602168,176.679556 85.6873771,176.387603 85.6873771,176.094643 C85.4688577,174.486384 84.8122951,173.243569 83.8628664,172.439188 C83.5715073,172.293715 83.2068061,172.21972 82.9149446,172.147738 L82.9882867,172.293715 L83.1344686,172.731645 L83.2806505,173.170078 L83.3539926,173.608511 L83.4268324,174.119932 L83.4996722,174.631354 L83.4996722,175.655707 L83.4268324,176.240116 L83.3539926,176.825533 L83.2806505,177.409943 L83.2073084,177.995359 L83.1344686,178.580775 L82.9882867,179.238173 L82.8416025,179.896578 L82.695923,180.553473 L82.258382,181.869275 L82.0398627,182.527177 L81.7480012,183.185078 L81.4566421,183.841973 L81.1647807,184.500881 L80.8729193,185.157776 L80.5082181,185.81618 L80.1435169,186.473578 L79.7788157,187.13148 L79.4136121,187.789381 L78.9760711,188.447282 L78.5385302,189.105184 L78.1004868,189.762582 L77.6634482,190.347495 L77.2254049,190.932911 L76.204141,197 C76.3503229,196.854527 76.4960025,196.70855 76.6421844,196.56207 L76.8607037,196.343105 L77.1525651,196.050145 C77.298747,195.904169 77.5172663,195.684701 77.6634482,195.538724 L77.7367903,195.465232 L78.1748336,194.953308 L78.6118723,194.441886 L78.9765735,194.00295 C79.0499156,193.930465 79.0499156,193.857477 79.1227554,193.783985 L79.4874566,193.346055 L79.9254999,192.760639 L80.3625385,192.175222 L80.5810578,191.883772 C80.7277421,191.737292 80.8005819,191.518328 80.9462614,191.371848 L81.2381228,190.933918 L81.4566421,190.56797 C81.6756638,190.276017 81.8213434,189.910068 82.040365,189.617108 L82.4055686,188.959207 L82.7702698,188.301306 L82.9887891,187.863376 C83.0616289,187.716896 83.134971,187.570919 83.2073084,187.351451 L83.3539926,186.985503 L83.6453517,186.328608 L83.9372132,185.670707 L84.1562348,185.012806 L84.3752565,184.354904 C84.4480962,184.062951 84.5937758,183.770495 84.6666156,183.477535 L84.8127975,183.039102 L84.8861396,182.746142 C84.9589793,182.454692 85.0323215,182.161732 85.1046589,181.869275 L85.1046589,181.796287 L85.1774987,181.503831 C85.1774987,181.357854 85.2508408,181.211374 85.2508408,180.992409 L85.3241829,180.480484 L85.3970227,180.26152 C85.4703648,179.602611 85.5432046,178.871722 85.615542,178.286809 L85.615542,177.263463 L85.7602168,177.045001 Z M77.5885991,160.962409 C77.5885991,153.28706 66.6460559,147 53.2942744,147 C39.9437488,147 29,153.28706 29,160.962409 C29,161.328357 29,161.693802 29.0730407,161.986761 C30.094606,155.845678 40.5272707,151.020396 53.2942744,151.020396 C66.0613283,151.020396 76.5673352,155.845678 77.5157593,161.986761 C77.516764,161.693298 77.5885991,161.328357 77.5885991,160.962409 Z M77.516764,162.058743 C77.516764,162.278715 77.4434219,162.497679 77.3700797,162.717148 C77.4434219,162.498183 77.4434219,162.278715 77.516764,162.058743 Z" id="Fill-10" fill="#212121"></path>
                <path d="M215.225793,239.139363 C215.225793,239.139363 214.57879,240.584438 213.570358,240.584438 C213.570358,240.584438 212.346258,241.884856 211.410211,241.595741 C210.546548,241.307721 210.115213,240.873453 210.115213,240.873453 C210.115213,240.873453 209.467219,241.307224 208.747335,241.45198 C208.386897,241.524109 208.026955,241.524109 207.667013,241.379353 C207.234687,241.162468 207.162302,240.657065 207.162302,240.006905 C207.234687,239.139363 207.450354,238.12806 207.307072,237.694289 L207.090412,237.55003 C207.090412,237.55003 205.362096,236.610856 205.578756,236.032826 C205.722038,235.60005 206.370033,235.238905 206.80236,234.587751 C207.450354,234.660378 208.530676,234.660378 210.258496,234.371363 C212.346754,234.009224 213.211407,232.636776 213.498468,231.626468 L215.94766,237.405771 C216.018062,237.333144 216.16184,238.705592 215.225793,239.139363 Z M182.464141,206.268268 C186.496382,204.678438 187.792372,202.944348 187.792372,202.944348 C185.416061,204.09991 183.040246,204.461552 181.168152,203.884517 C181.096263,203.884517 181.096263,203.884517 181.023878,203.811393 C180.880595,203.738766 180.736817,203.738766 180.592542,203.667134 C180.520157,203.667134 180.520157,203.59401 180.448764,203.59401 C180.30449,203.522378 180.232601,203.449751 180.088822,203.377622 C180.015941,203.377622 179.944548,203.304995 179.944548,203.304995 C179.872163,203.231871 179.72888,203.161234 179.656495,203.087612 C179.584606,203.015483 179.584606,203.015483 179.513213,202.943851 C179.440828,202.870726 179.296553,202.726965 179.22516,202.654836 C179.153767,202.583701 179.153271,202.582706 179.081382,202.51008 C178.937107,202.366318 178.865218,202.22206 178.793329,202.077303 C178.793329,202.077303 175.985187,202.726965 175.840913,202.800089 C175.625245,202.871224 177.281672,201.138627 176.705071,199.259781 C176.200855,197.38193 174.905362,196.875532 171.952946,198.175851 C169.001522,199.548298 168.569195,200.848617 169.433353,201.787791 C169.433353,201.787791 159.352501,195.213075 164.465064,190.37394 C165.040674,189.940169 165.617275,189.506398 166.192884,189 L166.120499,189.073124 L160.215668,192.468179 L160,192.612935 C160,192.612935 160,192.685065 160.071889,192.829323 C160.144274,193.696866 160.576105,196.658149 161.87259,199.187154 C162.880527,201.065005 164.392183,202.654836 166.696605,202.943851 L166.840383,202.943851 C166.840383,203.016478 166.913264,203.016478 166.913264,203.087612 C168.064979,204.966458 169.648525,206.194149 171.449721,206.916935 C172.457658,207.350706 173.537979,207.567095 174.617805,207.711851 C176.418506,207.928736 178.290104,207.711851 180.017925,207.20595 C180.880595,206.845801 181.744257,206.557283 182.464141,206.268268 Z M187.792372,261.391323 C187.21577,260.162687 186.136441,258.646179 185.199402,257.48992 C184.768067,256.984667 184.479518,256.550945 184.26385,256.334458 C184.119576,256.189801 184.047687,256.045691 184.047687,256.045691 L179.295066,260.452348 C179.295066,260.452348 179.151783,260.741413 179.079398,261.102507 C178.935124,261.535433 178.863235,262.041483 178.863235,262.475204 C178.935124,263.197741 181.670881,264.859254 181.670881,266.809532 C181.670881,268.832438 180.662944,270.133353 181.310939,270.422119 C181.959429,270.783562 183.471582,269.772259 183.471582,269.772259 C183.471582,269.772259 183.543471,270.85589 184.623297,271 C185.054632,271 185.846901,269.772259 186.567776,268.182229 C187.575217,265.942886 188.367981,262.908975 187.862773,261.680388 C187.864261,261.607761 187.864261,261.463055 187.792372,261.391323 Z" id="Fill-11" fill="#FFF3E0"></path>
                <g id="Group-14" transform="translate(75.000000, 103.000000)">
                    <mask id="mask-5" fill="white">
                        <use xlink:href="#path-4"></use>
                    </mask>
                    <g id="Clip-13"></g>
                    <path d="M249.542,63.8714877 L138.9475,0.215910082 L138.9475,3.69241144 L138.875,4.2713297 L138.8025,4.77844414 L138.6565,5.28605722 L138.439,5.79317166 L138.2205,6.3002861 L137.9305,6.80789918 L137.641,7.31501362 L137.2775,7.82212807 L136.914,8.32924251 L136.4785,8.83685559 L135.462,9.85058583 L134.8815,10.2853978 L134.3,10.7192125 L133.6465,11.1540245 L132.9205,11.5878392 L132.194,12.0226512 L131.396,12.3846621 L130.5965,12.746673 L129.7985,13.1091826 L128.9275,13.3983924 L128.0555,13.6881008 L127.184,13.9050082 L126.313,14.1224142 L125.368,14.3393215 L124.4245,14.4844251 L123.48,14.6295286 L122.5355,14.7746322 L121.5915,14.8469346 L120.647,14.9197357 L117.7415,14.9197357 L116.7255,14.8469346 L115.781,14.7746322 L114.8365,14.7018311 L113.892,14.5567275 L112.948,14.4121226 L112.0035,14.1947166 L111.059,13.9778093 L110.1155,13.7609019 L109.2435,13.4711935 L108.3725,13.181485 L107.5005,12.8194741 L106.7025,12.4574632 L105.9045,12.0949537 L105.105,11.7329428 L104.379,11.2991281 L103.6525,10.8643161 L102.9995,10.4300027 L102.346,9.92288828 L101.765,9.41577384 L101.2565,8.9086594 L100.7485,8.40104632 L100.3125,7.89393188 L99.9495,7.38681744 L99.5865,6.879703 L99.297,6.37308719 L99.0065,5.79317166 L98.788,5.21425341 L98.6435,4.63483651 L98.4975,4.05492098 L98.425,3.47600272 L98.425,1.37574114 L6.348,54.3859046 L13.102,50.4755886 C24.8655,60.5415858 60.375,47.8682125 66.983,61.1210027 C74.099,75.2414223 35.4675,71.4762098 28.7865,81.7601117 C22.1065,91.9707139 46.7225,98.7786131 47.739,112.320613 C48.7555,125.862114 5.549,120.792965 0.9745,134.91488 C-3.4545,148.528933 11.4315,158.088714 12.5205,158.739635 L51.37,181.117394 C55.001,183.217655 59.575,183.217655 63.2785,181.117394 L95.157,162.795404 L80.1975,143.097673 C80.1975,143.097673 62.915,150.339437 59.7925,150.194981 C56.67,150.049928 51.1515,146.356718 48.5375,143.097673 C45.9235,139.766724 51.1515,129.193014 51.1515,129.193014 C58.5575,114.419877 74.388,88.4224087 78.963,86.3221471 C84.9175,83.6424687 93.7035,83.1348556 94.285,83.1348556 C100.603,78.8630272 107.792,76.1110463 114.1815,83.4250627 C116.7235,86.3211499 117.813,89.0731308 117.9575,91.4635995 C123.9845,94.1427793 130.883,97.4741771 131.7545,98.8499183 C133.207,101.239888 137.128,122.530218 137.5635,124.99249 C138.072,124.268469 138.363,123.690049 138.363,123.690049 L138.871,126.948646 L138.871,127.310657 C141.3395,130.279545 143.373,132.814619 144.608,134.334466 L249.901,73.7215749 C250.4085,73.4318665 250.8455,73.0698556 251.208,72.7078447 L251.2805,72.6350436 C251.4255,72.4899401 251.571,72.2730327 251.7155,72.1274305 C251.7155,72.0551281 251.7885,72.0551281 251.7885,71.9828256 C251.934,71.8382207 252.007,71.6936158 252.0785,71.4762098 C252.1515,71.4034087 252.1515,71.3316049 252.1515,71.2583052 C252.2245,71.1137003 252.297,70.969594 252.37,70.8244905 C252.37,70.7511907 252.443,70.6793869 252.443,70.6065858 C252.5155,70.4619809 252.588,70.317376 252.588,70.0994714 C252.588,70.0271689 252.588,69.9548665 252.661,69.882564 C252.734,69.6646594 252.734,69.5205531 252.806,69.3026485 L252.806,69.230346 C252.7375,67.492594 251.72,65.1031226 249.542,63.8714877 Z M64.9525,34.1806104 C64.88,35.918861 62.5565,37.1494986 60.305,37.1494986 C57.9815,37.1494986 55.585,35.8460599 55.5125,34.1078093 L55.5125,34.0355068 C55.5125,33.3109864 55.9475,32.659267 56.892,32.0798501 C58.635,31.0661199 61.467,31.0661199 63.3555,32.007049 C63.428,32.0798501 63.5,32.0798501 63.573,32.1521526 C63.646,32.224455 63.7185,32.224455 63.7905,32.2972561 C64.5895,32.8048692 64.9525,33.4555913 64.9525,34.1806104 Z M36.0515,158.666834 C32.2755,158.666834 28.4995,156.639374 28.354,153.814841 L28.354,153.742339 C28.354,152.584153 29.0805,151.497024 30.5325,150.628347 C33.3645,149.034502 37.9395,148.962848 40.9165,150.483892 C40.989,150.556394 41.134,150.628347 41.2795,150.700849 C41.3525,150.773351 41.497,150.846152 41.57,150.918654 C42.8765,151.78738 43.531,152.873613 43.531,153.960144 C43.4585,156.638526 39.827,158.666834 36.0515,158.666834 Z M75.627,153.814841 C75.627,153.308375 75.9905,152.801111 76.6435,152.43885 C77.9505,151.714579 79.9835,151.642925 81.3635,152.366299 C81.436,152.366299 81.436,152.43885 81.509,152.43885 C81.582,152.511602 81.582,152.511602 81.6545,152.511602 C82.2355,152.873613 82.5255,153.380877 82.5255,153.887343 C82.453,155.190831 80.783,156.060106 79.113,156.060106 C77.442,156.13206 75.6995,155.190831 75.627,153.814841 Z M56.8195,87.1897766 C55.0765,87.1897766 53.4065,86.2478501 53.3335,85.0182098 L53.3335,84.9454087 C53.3335,84.4377956 53.697,83.9316785 54.35,83.5696676 C55.657,82.8451471 57.69,82.8451471 59.07,83.4963678 C59.1425,83.5696676 59.1425,83.5696676 59.2155,83.5696676 C59.2885,83.5696676 59.2885,83.64197 59.361,83.64197 C60.0145,84.0039809 60.232,84.5110954 60.232,85.0182098 C60.16,86.2488474 58.49,87.1897766 56.8195,87.1897766 Z M92.6915,20.8550191 C89.424,21.3626322 87.318,19.6961853 85.358,20.2761008 C85.358,20.2761008 85.721,14.337327 91.167,16.0027766 C96.541,17.6682262 99.2275,15.3515559 99.2275,15.3515559 C99.2275,15.3515559 95.9595,20.3484033 92.6915,20.8550191 Z M124.4975,38.1632289 L124.4975,38.3811335 C124.207,43.9573978 116.8,47.9410136 109.4665,47.9410136 C102.2045,47.9410136 94.943,44.0297003 94.7245,38.5252398 L94.7245,35.7009564 C94.798,33.6729973 96.0315,31.7183379 98.5005,30.0528883 C98.719,29.9077847 98.9355,29.8359809 99.154,29.6903787 C99.3725,29.5452752 99.663,29.4011689 99.8805,29.3283678 C105.762,26.3589809 114.6945,26.4312834 120.2855,29.6903787 C123.1895,31.356327 124.642,33.528891 124.642,35.7732589 L124.642,38.1632289 L124.4975,38.1632289 Z M160.152,23.8249046 C160.152,23.1003842 160.587,22.4486649 161.5315,21.9415504 C163.2745,20.9278202 166.1065,20.8550191 167.995,21.8687493 C168.0675,21.8687493 168.1395,21.9415504 168.2125,21.9415504 C168.285,22.0138529 168.358,22.0138529 168.431,22.086654 C169.302,22.594267 169.665,23.3172916 169.665,23.9700082 C169.592,25.7082589 167.2695,26.9388965 164.945,26.9388965 C162.5485,26.9388965 160.224,25.7072616 160.152,23.8249046 C160.152,23.8962098 160.152,23.8962098 160.152,23.8249046 Z M135.3175,85.6694305 C132.993,85.6694305 130.6705,84.4377956 130.525,82.6282398 L130.525,82.5554387 C130.525,81.8314169 130.96,81.1796975 131.9045,80.599782 C133.6475,79.5865504 136.4795,79.5865504 138.3675,80.5269809 C138.4405,80.599782 138.5125,80.599782 138.5855,80.6725831 C138.6585,80.7448856 138.731,80.7448856 138.8035,80.8166894 C139.602,81.3233052 140.038,82.0478256 139.965,82.7000436 C139.8925,84.4377956 137.6415,85.6694305 135.3175,85.6694305 Z M146.791,23.3900926 C144.7575,20.7832153 145.1925,18.1040354 143.813,16.6554932 C143.813,16.6554932 149.26,14.1204196 150.3485,19.6971826 C151.437,25.2734469 154.778,26.5040845 154.778,26.5040845 C154.778,26.5040845 148.824,25.9964714 146.791,23.3900926 Z M189.416,92.9116431 C184.769,92.3317275 187.9635,87.6250872 192.9015,86.393951 C197.8395,85.1623161 199.292,77.8478011 197.1855,75.0958202 C197.1855,75.0958202 197.6215,78.5000191 193.4105,81.3971035 C189.199,84.294188 185.8585,86.9738665 183.6795,85.5976267 C183.607,85.5976267 183.607,85.524327 183.534,85.524327 L183.6075,85.5976267 C183.317,85.9596376 182.4455,86.9010654 180.921,87.2630763 C179.1055,87.7696921 177.871,85.8863379 178.2345,85.0910109 L176.5645,86.3221471 L175.1845,87.2635749 L176.347,88.4947112 C176.347,88.4947112 177,89.2915341 176.056,90.0155559 C175.1125,90.7400763 166.7615,94.3601853 166.7615,94.3601853 C164.7285,97.3300708 163.4215,97.618782 159.427,97.3300708 C156.3045,97.1126649 154.562,95.2293106 154.562,95.2293106 C154.562,95.2293106 150.786,94.8672997 149.552,92.4055259 C149.552,92.4055259 150.35,90.7400763 153.3275,90.6667766 C153.3275,90.6667766 152.6015,86.249346 156.8135,84.1495831 C156.8135,84.1495831 156.45,81.0355913 160.662,77.6323896 C160.8795,77.4872861 161.097,77.2703787 161.315,77.1247766 L161.3885,77.0524741 C163.0575,75.5321281 165.1645,72.9970545 167.923,70.4619809 C167.85,70.534782 167.85,70.534782 167.778,70.6075831 C172.425,66.2619564 178.6705,61.9896294 186.9485,63.0033597 C186.9485,63.0033597 201.3995,64.6683106 202.4155,76.762267 C203.358,88.8552262 194.0635,93.4910599 189.416,92.9116431 Z M209.458,65.8271444 C206.045,65.8271444 202.5595,63.9437902 202.414,61.3374114 L202.414,61.2646104 C202.414,60.2508801 203.0675,59.2371499 204.447,58.4398283 C207.062,56.9194823 211.2735,56.9194823 214.033,58.2952234 C214.1055,58.3685232 214.2505,58.4398283 214.396,58.5126294 C214.469,58.5854305 214.6145,58.5854305 214.6865,58.6572343 C215.9205,59.4540572 216.502,60.4677875 216.4295,61.482515 C216.284,63.9437902 212.8715,65.8271444 209.458,65.8271444 Z M133.5015,138.461689 L135.171,139.982285 L109.8285,154.538514 C109.3925,154.031798 109.102,153.597036 108.884,153.380029 L110.264,152.148494 L107.286,148.238577 L106.633,148.890346 L95.886,135.927613 L93.562,131.581986 L112.224,118.909112 L131.975,137.013147 C131.975,137.664866 132.0485,138.243785 132.484,138.389387 C132.7025,138.53449 133.139,138.53449 133.5015,138.461689 Z M112.08,104.497986 C111.4995,104.570787 111.1355,104.715891 111.1355,104.715891 L89.568,113.333346 C90.44,110.001948 93.272,106.525447 95.813,103.919068 C96.8295,104.352883 97.92,104.56979 99.0095,104.714894 C100.825,104.9323 102.7125,104.714894 104.4555,104.207779 C105.4,103.919068 106.198,103.627864 106.9245,103.339153 L112.08,104.497986 Z" id="Fill-12" fill="url(#linearGradient-6)" mask="url(#mask-5)"></path>
                </g>
                <path d="M220,238.753313 C219.492499,239.985719 218.114356,243.17361 217.243213,243.753789 C216.154784,244.550462 212.890996,245.420282 212.746139,245.492879 L210.278567,243.246157 L208.611208,241.725059 C209.336494,241.580363 209.989851,241.14478 209.989851,241.14478 C209.989851,241.14478 210.351995,241.579864 211.294567,241.869255 C212.238138,242.159245 213.470925,240.85489 213.470925,240.85489 C214.486426,240.782542 215.138784,239.405441 215.138784,239.405441 C216.154285,238.971354 215.936998,237.6666 215.936998,237.6666 L213.470426,231.8698 C213.614784,231.507064 213.687712,231.217673 213.687712,230.926785 C216.154285,233.89853 218.185286,236.434194 219.419072,237.955492 C219.564429,238.24638 219.782714,238.53627 220,238.753313 Z M48.1423755,174.478088 C48.1423755,174.478088 48.2144546,174.478088 48.1423755,174.478088 C48.5778969,174.551433 48.8679115,174.551433 49.2308044,174.623282 L49.3760615,174.623282 C49.6663258,174.623282 50.0287691,174.696129 50.3199825,174.696129 L50.5372687,174.696129 C50.8269836,174.696129 51.1901262,174.696129 51.4798411,174.768975 L54.5258435,174.768975 C54.8160579,174.768975 55.1062723,174.768975 55.3959872,174.696129 L55.6862016,174.696129 C55.976416,174.696129 56.2671299,174.623282 56.5563453,174.623282 L56.8465597,174.623282 C57.1367741,174.623282 57.4269885,174.550435 57.7896316,174.550435 L58.0074173,174.550435 C58.2976317,174.477589 58.6602748,174.477589 58.9504892,174.406239 L59.0958462,174.406239 C59.4584893,174.332893 59.7487037,174.332893 60.1113468,174.261044 L60.1837756,174.261044 C60.5469182,174.188198 60.9095613,174.11585 61.1992762,174.043003 C67.1484216,172.811096 71.93621,170.274934 74.692997,167.014795 C74.692997,167.014795 74.692997,166.941948 74.7654257,166.941948 C74.9107827,166.796754 75.0556401,166.579711 75.2009971,166.434516 C75.2739253,166.36167 75.2739253,166.289821 75.3458545,166.216475 C75.4187827,166.07178 75.4912115,165.999432 75.6360689,165.854238 C75.7084976,165.709542 75.7809264,165.636695 75.8533551,165.492 C75.9257838,165.419652 75.9257838,165.347304 75.998712,165.202609 C76.0716403,165.058412 76.144069,164.913218 76.2159982,164.768024 C76.2159982,164.696175 76.2889264,164.623328 76.2889264,164.55098 C76.3613552,164.405287 76.4342834,164.188244 76.5062126,164.043049 C76.5062126,163.970203 76.5062126,163.970203 76.5791408,163.898853 C76.6515696,163.680812 76.7239983,163.536116 76.7969265,163.318574 L76.7969265,163.245727 C76.8693552,163.028684 76.9422835,162.811641 76.9422835,162.5936 C77.0147122,162.376058 77.0147122,162.159514 77.0871409,161.94247 C76.144069,155.854783 65.6973496,151 53.0023428,151 C40.3071862,151 29.9330953,155.781437 28.9175947,161.869125 L28.9175947,161.94247 C29.7886874,168.174854 37.7685844,173.246679 48.1423755,174.478088 Z M84.2695727,190.782274 C81.5852143,195.420512 78.3204272,199.116733 75.1285683,201.580048 C73.7499251,208.609255 64.3916346,214.117163 53.0023428,214.117163 C40.6698293,214.117163 30.7315596,207.740084 30.7315596,199.842206 L28.8449662,188.247109 L25,164.769022 C26.0155006,167.884964 28.2646872,170.638668 31.3841174,172.958286 L31.4570456,173.030634 C31.6743817,173.175828 31.8923173,173.393371 32.1825816,173.538066 C32.2552101,173.538066 32.2552101,173.610913 32.3278387,173.610913 C32.5452247,173.755608 32.8360385,173.900803 33.0533747,174.044999 C33.1260032,174.044999 33.1260032,174.117846 33.1989314,174.117846 C33.4162675,174.26304 33.7068316,174.408235 33.9970959,174.552431 L34.0697245,174.552431 C34.867889,174.987017 35.7381326,175.495447 36.6810047,175.857185 C36.7536332,175.857185 36.8265615,175.929034 36.8983408,175.929034 C37.1165261,176.001881 37.3338622,176.146576 37.6238768,176.218924 C37.7685844,176.291272 37.9138415,176.291272 37.9867697,176.363619 C38.2041058,176.436466 38.4214419,176.508315 38.6393775,176.58166 C38.7849342,176.654008 38.9296418,176.726356 39.0748989,176.726356 C39.292235,176.798704 39.5095711,176.870552 39.7278063,176.943898 C39.8730634,177.016745 40.0903995,177.088594 40.2359563,177.088594 C40.4532924,177.16144 40.6706784,177.23279 40.8888637,177.306136 C41.1067493,177.378982 41.2514569,177.450831 41.4696422,177.450831 C41.6870283,177.524177 41.8322853,177.595527 42.0496214,177.595527 C42.2669575,177.668373 42.5578213,177.740721 42.7751574,177.813069 C42.9207142,177.886414 43.0654218,177.886414 43.2833074,177.957764 C43.6462502,178.03111 44.0817716,178.102959 44.5164438,178.248153 C44.6617508,178.248153 44.8064584,178.320002 45.0246437,178.320002 C45.2419798,178.393348 45.4599153,178.393348 45.6772515,178.465196 L45.8228082,178.465196 C45.9675158,178.465196 46.1854014,178.538043 46.3308083,178.538043 C46.6209727,178.611389 46.8383089,178.611389 47.1282735,178.68224 C47.3456096,178.68224 47.4911664,178.755585 47.7085525,178.755585 C47.9985171,178.755585 48.2167024,178.828432 48.506667,178.828432 C48.7240531,178.828432 48.8696099,178.90078 49.086946,178.90078 C49.3769106,178.90078 49.6677744,178.974125 49.8849107,178.974125 C50.0302676,178.974125 50.2475538,178.974125 50.3934103,179.046473 C50.6831252,179.046473 50.9733396,179.046473 51.3359827,179.119819 L54.9629134,179.119819 C55.2531278,179.119819 55.5438417,179.119819 55.9064848,179.046473 C56.0513423,179.046473 56.269128,179.046473 56.4149844,178.974125 C56.7046993,178.974125 56.9949137,178.90078 57.2121999,178.90078 C57.4294861,178.90078 57.574843,178.90078 57.7921292,178.828432 C58.0823436,178.828432 58.3006288,178.755585 58.5903437,178.755585 C58.8076298,178.755585 58.9534863,178.68224 59.1707725,178.68224 C59.4609869,178.68224 59.6787725,178.61089 59.9689869,178.538043 C60.1143439,178.538043 60.3316301,178.465196 60.476987,178.465196 C60.7672014,178.392849 61.0569163,178.392849 61.2752015,178.320002 C61.4200589,178.320002 61.5654159,178.248153 61.7097738,178.248153 C62.1453452,178.174807 62.5079883,178.102959 62.9430601,177.957764 C63.0884171,177.957764 63.2332745,177.885915 63.378132,177.885915 C63.6688459,177.81257 63.8866316,177.740721 64.1758469,177.667874 C64.3931331,177.594529 64.5384901,177.594529 64.7567753,177.523678 C64.9740614,177.449833 65.1913476,177.378483 65.4096328,177.305637 C65.627918,177.232291 65.7722759,177.160442 65.9905611,177.088095 C66.2078473,177.015248 66.3532042,176.943399 66.5704904,176.870053 C66.7882761,176.797706 67.0060617,176.725358 67.1504197,176.65301 C67.2962761,176.580164 67.5135623,176.507317 67.6589192,176.434969 C67.8772044,176.362621 68.0944906,176.290274 68.2398476,176.217926 C68.3122763,176.14458 68.4571337,176.14458 68.530062,176.072732 C68.6024907,176.072732 68.6749194,175.999885 68.6749194,175.999885 C68.8927051,175.927537 69.1104908,175.855688 69.3277769,175.710494 C69.4731339,175.637647 69.5455626,175.565299 69.6909196,175.565299 C70.4886345,175.202563 71.2863495,174.840325 72.0121352,174.406738 C72.084564,174.333392 72.1574922,174.333392 72.2299209,174.261543 C72.4472071,174.116349 72.6649928,173.972152 72.8827784,173.899306 C72.9557067,173.826459 73.1010636,173.754111 73.1729928,173.754111 C73.390279,173.609416 73.6075652,173.46472 73.8258504,173.319526 C73.8982791,173.247178 73.9702083,173.175329 74.1160648,173.175329 C74.3338504,173.030135 74.5511366,172.88544 74.6964936,172.741243 C74.7694218,172.667398 74.841351,172.667398 74.9137797,172.59555 C75.1315654,172.450355 75.3488516,172.306159 75.4942085,172.161463 C75.5671368,172.161463 75.5671368,172.088118 75.6395655,172.088118 C76.8723523,171.1461 77.8888519,170.059886 78.7589956,168.972175 C78.7589956,168.972175 78.7589956,168.900327 78.8314244,168.900327 C78.9772808,168.682286 79.1216388,168.465242 79.3399239,168.247201 C79.3399239,168.247201 79.3399239,168.175851 79.4128522,168.175851 C79.5577096,167.95781 79.7025671,167.740767 79.8474245,167.522726 C80.4283528,166.580709 80.9353539,165.566343 81.2984965,164.551978 L80.9353539,166.871097 C81.8784258,166.581707 82.8214977,166.509359 83.7650691,166.436512 C84.054784,166.436512 84.3449984,166.436512 84.7076416,166.509858 C84.997856,166.509858 85.3604991,166.582704 85.6517125,166.654054 L85.7241412,166.654054 C86.0867843,166.726901 86.5223557,166.872095 86.8849988,167.016791 C90.9430053,170.710517 90.0004329,180.928013 84.2695727,190.782274 Z M85.4299308,177.812071 L85.4299308,176.725358 C85.4299308,176.435468 85.3570025,176.145578 85.3570025,175.856187 C85.1397164,174.261543 84.4868588,173.029636 83.5432874,172.232314 C83.253073,172.087619 82.8904299,172.015271 82.6002155,171.942923 C81.8025005,171.798228 80.9318573,171.798228 80.0607146,171.942923 L77.0142127,190.566228 L75.998712,196.580071 C76.144069,196.434877 76.2889264,196.290681 76.4342834,196.145985 C76.5791408,196.00129 76.7969265,195.783747 76.9422835,195.639052 C77.0871409,195.493858 77.3049266,195.276814 77.4502835,195.13162 C77.8848559,194.623689 78.3933555,194.117255 78.8289268,193.610322 C78.9013555,193.536976 78.9013555,193.464628 78.9742838,193.392281 C79.4822838,192.812501 79.9897844,192.160872 80.4253558,191.507747 C80.5697137,191.363051 80.6426419,191.145509 80.7879989,191.001313 C80.9333558,190.783272 81.150642,190.493881 81.295999,190.276338 C81.5137846,189.986947 81.6586421,189.624211 81.8764278,189.333822 C82.2390709,188.753543 82.5292853,188.102414 82.8190002,187.522135 C82.8919284,187.377439 82.9648566,187.232245 83.0372854,187.015202 C83.5447859,185.999839 83.9803573,184.986472 84.2700722,183.971607 C84.3425009,183.682217 84.4873583,183.391828 84.5602866,183.101938 C84.6332148,182.883897 84.7056435,182.595005 84.7780722,182.377463 C84.8510005,182.088072 84.9229297,181.797184 84.9958579,181.507793 C84.9958579,181.362598 85.0682866,181.290251 85.0682866,181.145555 C85.0682866,181.000361 85.1412149,180.855665 85.1412149,180.638123 C85.2136436,180.42108 85.2136436,180.130691 85.2865718,179.913648 C85.3590006,179.26152 85.4309298,178.536546 85.503858,177.956267 C85.4299308,177.956267 85.4299308,177.884918 85.4299308,177.812071 Z M184.308124,271.361685 C183.220195,271.289138 183.148266,270.130227 183.148266,270.130227 C183.148266,270.130227 181.551837,271.144592 180.971408,270.782354 C180.31905,270.419867 181.40648,269.115812 181.334551,267.15878 C181.334551,265.202348 178.577764,263.535805 178.504835,262.811081 C178.432407,262.448893 178.577764,261.868714 178.723121,261.434228 L177.489335,262.593439 L174.007262,259.912282 L175.241047,258.680773 L154.275679,240.057568 L149.995392,228.391121 C145.42489,231.143828 140.564173,233.897533 136.429242,236.361347 C130.988596,238.101684 126.926094,233.825684 126.054952,232.811319 C126.054952,232.811319 120.90452,243.46325 123.443521,246.724587 C126.054952,250.058221 131.569025,253.681196 134.688455,253.82634 C137.807885,253.970886 155.073394,246.724587 155.073394,246.724587 L170.017688,266.434654 L172.846903,270.202774 L181.044336,281 C182.205194,280.782358 184.816624,280.203576 185.905053,279.623148 C186.920554,279.042969 188.66134,276.000422 189.460054,274.405928 L186.340624,268.463684 C185.614339,270.202774 184.816125,271.434232 184.308124,271.361685 Z M206.941851,237.811296 C206.941851,237.811296 205.201064,236.869278 205.41835,236.289498 C205.563707,235.855412 206.216564,235.493174 206.652136,234.840049 C205.92635,234.767701 205.708065,234.623006 205.708065,234.623006 L203.532706,230.347504 C203.532706,230.347504 203.967278,230.565046 204.620635,230.709742 C202.80692,225.782112 198.381775,214.695945 196.930703,211.144918 C196.423701,210.564639 195.987131,210.130054 195.625487,209.767816 L187.210268,207.739086 C186.630339,207.811933 186.267197,207.957127 186.267197,207.957127 L164.7209,216.579979 L164.7209,216.724675 C164.503614,217.44915 163.923185,218.319319 162.980613,219.333684 L166.389758,233.899029 L170.96026,239.405441 L168.639544,235.05809 L187.282697,222.37628 L207.014779,240.491654 C207.087707,239.622484 207.304993,238.608119 207.160136,238.173034 L206.941851,237.811296 Z" id="Fill-15" fill="#4527A0"></path>
                <path d="M233.007639,249.155875 C232.281543,250.825491 227.567912,250.027168 222.128184,250.172659 C220.53317,250.245379 219.154886,250.317549 218.28447,250.53601 C215.89095,251.116722 215.238263,249.300765 215.021033,247.84846 C215.81854,247.702969 217.196325,247.339618 218.792338,246.032503 C220.60558,244.652317 221.112948,242.545729 221.330677,241.383405 C221.548406,241.673986 221.765136,241.892047 221.910955,242.037087 C222.273503,242.400289 222.708462,242.472159 223.506468,242.69062 C228.800377,243.780174 234.965701,244.361986 233.007639,249.155875 Z M198.268392,284.093128 C193.336033,281.98654 191.377971,279.081629 190.797693,277.991275 C190.362735,279.29839 189.419409,281.188217 187.534257,282.421762 C185.575695,283.729177 183.98118,284.020408 183.037356,284.092278 C183.037356,286.634238 185.140737,288.813546 190.362735,288.959137 C192.901074,289.031907 196.890108,291.137745 199.210718,290.992855 C205.084405,290.631054 204.431718,286.707658 198.268392,284.093128 Z M79.6161232,107.878133 C79.6161232,107.588052 79.543214,107.369491 79.3988937,107.297471 L70.0430425,118.483094 L79.6885331,118.918715 L79.6885331,107.878133 L79.6161232,107.878133 Z M59.5990461,118.700655 C59.5261368,118.773175 59.5261368,118.918715 59.5261368,119.063756 L59.5261368,129.886777 L68.5194395,119.209297 L59.5990461,118.700655 Z M60.4689629,118.047972 L69.0268077,118.483094 L77.8028808,108.023174 L59.8162756,118.410073 L60.4689629,118.047972 Z M97.8923678,120.15406 L80.5594487,130.177859 L89.1172935,130.61398 L97.8923678,120.15406 Z M59.5990461,130.903561 C59.5990461,130.976582 59.6714559,130.976582 59.6714559,130.976582 C59.8162756,131.122122 60.0345039,131.122122 60.2517334,131.049102 L79.3259845,120.00852 C79.3988937,119.935999 79.543214,119.790959 79.6161232,119.645418 L69.4627649,119.136276 L59.5990461,130.903561 Z M176.219844,134.753636 C176.364664,134.680616 176.509483,134.535075 176.655302,134.463055 C176.799622,134.390035 177.01785,134.245494 177.162171,134.172474 C181.514252,131.994366 188.040626,132.065886 192.174479,134.390035 C196.454151,136.859724 196.381241,140.85534 192.102069,143.324529 C187.749988,145.794218 180.860566,145.866239 176.581394,143.397549 C172.520949,141.0729 172.37563,137.223326 176.219844,134.753636 Z M182.674807,138.53019 L179.266051,140.782819 C178.831592,141.0729 178.759182,141.582042 178.976412,142.017164 C179.266051,142.453286 179.774418,142.525806 180.209876,142.235725 L184.343729,139.547975 L188.477582,142.235725 C188.912041,142.525806 189.420408,142.380265 189.710048,142.017164 C190.000186,141.582042 189.855367,141.0729 189.420408,140.782819 L186.012152,138.53019 L189.420408,136.352082 C189.855367,136.061501 189.928276,135.552859 189.710048,135.117738 C189.492818,134.681616 188.91304,134.608596 188.477582,134.827157 L184.343729,137.514407 L180.209876,134.827157 C179.774918,134.536576 179.266051,134.681616 178.976412,135.117738 C178.686273,135.552859 178.831592,136.061501 179.266051,136.352082 L182.674807,138.53019 Z M264.19331,196.276812 C259.552089,195.69515 262.742616,190.974332 267.674476,189.739487 C272.606335,188.504142 274.057029,181.167594 271.953148,178.407323 C270.430544,173.686505 265.643005,176.301735 265.643005,176.301735 C269.777357,176.446776 271.953148,178.407323 271.953148,178.407323 C271.953148,178.407323 272.388606,181.821777 268.182843,184.727588 C263.97658,187.633399 260.640234,190.321149 258.463944,188.940764 C258.391534,188.940764 258.391534,188.867243 258.318624,188.867243 C258.245715,188.795223 258.174304,188.722703 258.101395,188.722703 L258.027986,188.649683 C258.027986,188.577162 257.955077,188.504142 257.955077,188.504142 L257.955077,187.92398 C257.955077,187.85196 258.027986,187.778439 258.027986,187.705919 C258.027986,187.705919 258.027986,187.632899 258.101395,187.632899 C258.174304,187.559378 258.174304,187.487858 258.245715,187.342318 L258.318624,187.269797 C258.392033,187.195777 258.463944,187.124757 258.536853,186.979216 L258.609263,186.906696 C258.682172,186.833176 258.754582,186.761656 258.827491,186.688135 C258.899901,186.615115 258.899901,186.615115 258.971811,186.543095 C259.04472,186.469574 259.11713,186.398054 259.190039,186.324534 C259.262949,186.252013 259.33436,186.252013 259.33436,186.179993 C259.407269,186.106473 259.480178,186.034953 259.552588,186.034953 C259.625497,185.961432 259.697408,185.961432 259.769818,185.889412 C259.843226,185.816892 259.915636,185.816892 259.915636,185.743871 C259.988046,185.671351 260.059956,185.671351 260.132866,185.599331 C260.206274,185.599331 260.206274,185.526311 260.278185,185.526311 C260.350594,185.45379 260.422505,185.45379 260.496413,185.38077 C260.496413,185.38077 260.568823,185.38077 260.568823,185.30775 L259.770816,185.816892 C263.832759,186.761656 267.096196,183.056621 267.096196,183.056621 C265.066223,185.017669 261.22201,184.872628 261.22201,184.872628 L258.46644,184.436506 C258.46644,184.436506 253.316852,182.54898 251.939068,178.988986 C250.488374,175.429992 251.939068,172.669721 251.939068,172.669721 C251.939068,172.669721 250.488374,174.99437 250.850922,178.117742 C251.358291,182.330919 254.984775,184.364486 254.186769,186.979216 L253.969539,187.632899 L252.736075,188.504142 L251.068152,189.739487 L244.831916,185.962432 L249.690367,190.68325 L250.850922,191.918595 C250.850922,191.918595 251.50361,192.717318 250.561283,193.443521 C249.618457,194.170224 241.277842,197.802238 241.277842,197.802238 C241.277842,197.802238 242.728535,197.148555 244.469867,196.349332 C242.946264,196.276812 243.743771,194.170224 243.236403,192.935879 C242.728535,191.701035 240.698563,190.61123 240.698563,190.61123 C240.698563,190.61123 241.713799,191.264413 242.149257,192.935879 C242.656126,194.606346 241.278341,197.729718 241.278341,197.729718 C239.247869,200.708049 237.942494,200.99763 233.952962,200.708049 C230.834345,200.489488 229.094011,198.600961 229.094011,198.600961 C229.094011,198.600961 225.322707,198.237359 224.090241,195.76817 C224.090241,195.76817 224.887249,194.097704 227.861047,194.024683 C227.861047,194.024683 227.135949,189.593946 231.342712,187.487858 L233.083045,186.688635 L234.533739,182.475959 C239.17496,184.582547 237.579946,189.448906 237.579946,189.667467 C237.579946,190.030568 240.408424,183.057121 235.912022,181.677236 C235.912022,181.677236 239.755737,176.447276 242.293577,173.832046 C246.935797,169.474329 253.172532,165.188133 261.440238,166.205917 C261.440238,166.205917 275.873268,167.875883 276.889003,180.00627 C278.117973,192.208176 268.835031,196.857974 264.19331,196.276812 Z M236.271075,198.237359 C235.255839,199.618245 233.515007,199.618245 233.515007,199.618245 C235.762708,200.271427 236.271075,198.237359 236.271075,198.237359 Z M238.809415,194.024683 C238.954734,195.76817 237.649859,196.857974 237.649859,196.857974 C239.679831,195.986231 238.809415,194.024683 238.809415,194.024683 Z M84.692303,110.928985 C84.4750734,111.001505 84.3297544,111.364106 84.3297544,111.582667 L84.3297544,122.332668 L93.2506471,111.655188 L84.4026636,111.219066 C84.4750734,111.074525 84.6198931,110.928985 84.692303,110.928985 Z M85.1277608,100.178484 L42.8458551,124.801858 L36.9711196,135.91546 L32.3292491,130.758021 L30.6612759,131.702284 L20,137.949028 L20,105.699025 L41.6851003,93.1325164 L85.1277608,68 L85.1277608,100.178484 Z M55.6095133,101.558869 L64.0944489,92.4788339 C64.5299067,91.9701919 64.5299067,91.2444893 64.0220391,90.8083676 C63.5141714,90.3732461 62.7890742,90.3732461 62.3541158,90.881388 L52.0554384,101.92197 L41.9018305,102.793213 C41.2490932,102.865734 40.7419247,103.446896 40.8136853,104.100578 C40.8862949,104.753761 41.4663727,105.262403 42.11911,105.189883 L49.6614192,104.5362 L41.1035744,113.616235 C40.6684162,114.124877 40.6684162,114.85108 41.1764836,115.286701 C41.6845011,115.721823 42.408999,115.721823 42.8444568,115.213681 L53.1430842,104.101079 L63.2964425,103.229835 C63.9486305,103.157315 64.4569975,102.576153 64.3840883,101.92247 C64.3116785,101.268788 63.7314009,100.760146 63.0787136,100.832666 L55.6095133,101.558869 Z M184.995418,204.121002 C185.575695,203.976462 186.155473,203.757901 186.73625,203.46832 C186.155973,203.757901 185.575695,203.976462 184.995418,204.121002 Z M103.767053,99.8884025 C103.984283,99.8153822 104.129602,99.8153822 104.202511,99.8884025 C104.057192,99.743362 103.911873,99.743362 103.767053,99.8884025 Z M93.9033345,110.928985 L102.679408,100.469065 L103.767053,99.8153822 L85.3449903,110.492863 L93.9033345,110.928985 Z M166.138396,233.974836 L162.72964,219.37476 C163.672466,218.429997 164.325154,217.558753 164.469474,216.760031 L164.469474,216.61449 C165.34039,213.273057 168.168868,209.786584 170.706708,207.171354 C168.893466,206.445151 167.298951,205.209806 166.137397,203.321779 C166.064988,203.248758 166.064988,203.248758 166.064988,203.176238 L166.064988,203.249759 L164.106426,207.971077 C164.106426,207.971077 156.781546,201.579292 156.636227,201.360731 C156.418998,201.143171 155.548581,193.443521 155.548581,193.443521 C157.579053,192.282697 164.106426,189.957048 164.106426,189.957048 L159.392296,192.644798 L165.33989,189.230345 C166.427536,188.359602 167.587592,187.560879 168.748147,186.761656 C168.240279,186.761656 159.392296,187.269797 153.4452,189.957048 C148.875889,192.064136 133.065075,218.067395 125.667286,232.958053 C126.537203,233.974836 130.526735,238.260033 136.038373,236.516546 C140.172725,234.119877 145.031676,231.286586 149.600987,228.526816 L153.879659,240.22158 L174.839562,258.889042 L181.294526,252.424137 L170.56089,239.422357 L166.138396,233.974836 Z M192.538027,195.259528 C192.683346,198.3834 191.087333,200.92461 188.766722,202.450536 C188.114035,202.886657 187.462346,203.249759 186.80866,203.54034 C186.95348,203.46832 187.098799,203.395299 187.243618,203.322779 C187.243618,203.322779 185.865335,205.065766 181.876801,206.663712 L186.95348,207.899057 L195.366005,209.932624 L196.164012,210.150185 C196.164012,210.150185 196.308832,210.586307 196.598471,211.31251 C198.049165,214.871503 202.546066,225.984606 204.286898,230.923985 C205.374544,231.214566 207.187287,231.577667 208.7833,231.287586 C210.233494,230.997505 211.39355,229.834681 212.046237,228.890417 C211.611778,226.494248 207.695155,205.139286 206.244461,202.669097 C205.446954,201.215191 198.558031,197.947278 192.538027,195.259528 Z M99.4149721,119.499878 L90.0591208,130.61298 L99.632701,131.048602 L99.632701,120.008019 C99.7056102,119.718439 99.5607905,119.572398 99.4149721,119.499878 Z M89.4808409,131.339683 L79.6161232,143.033948 C79.6885331,143.106468 79.6885331,143.179488 79.7614423,143.179488 C79.9067613,143.252509 80.051581,143.325029 80.2693099,143.179488 L99.3440604,132.138906 C99.4164702,132.065886 99.5612899,131.993366 99.6336997,131.848325 L89.4808409,131.339683 Z M79.6161232,130.831041 C79.6885331,130.6855 79.7614423,130.54046 79.9057626,130.46794 C79.6885331,130.54046 79.543214,130.903061 79.543214,131.121622 L79.543214,141.871623 L88.4636074,131.194142 L79.6161232,130.831041 Z M84.4750734,123.422473 C84.4750734,123.494993 84.5479827,123.567013 84.6208919,123.567013 C84.7662109,123.640033 84.9105313,123.712554 85.1287595,123.567013 L104.20351,112.526431 C104.27592,112.453911 104.420739,112.38089 104.493149,112.23635 L94.3397911,111.727708 L84.4750734,123.422473 Z M94.84666,111.001505 L104.419741,111.437627 L104.419741,100.397045 C104.419741,100.106463 104.347331,99.8884025 104.202511,99.8158823 L94.84666,111.001505 Z" id="Fill-16" fill="#FFA000"></path>
                <path d="M166.169766,188.715197 C165.5949,189.152426 165.020529,189.590158 164.444673,190.101767 C159.339209,194.992202 169.406048,201.634068 169.406048,201.634068 C168.543502,200.684728 168.902978,199.371029 171.922882,197.984962 C174.871483,196.597387 176.165798,197.108995 176.668868,199.079543 C177.172433,200.977219 175.589942,202.729152 175.806321,202.655778 C176.02171,202.583409 178.753933,201.926057 178.753933,201.926057 C178.826225,202.0718 178.970312,202.218548 179.041614,202.363789 C179.041614,202.437163 179.113905,202.437163 179.184711,202.509532 C179.257993,202.583409 179.329294,202.729152 179.472887,202.801018 C179.544683,202.874392 179.544683,202.874392 179.61648,202.947766 C179.688771,203.019633 179.831869,203.093007 179.90416,203.166381 C179.976452,203.166381 180.047753,203.239253 180.047753,203.239253 C180.191345,203.313129 180.263637,203.384996 180.40723,203.458872 C180.479521,203.458872 180.479521,203.531744 180.550822,203.531744 C180.69491,203.605118 180.838503,203.67799 180.982096,203.67799 C181.054387,203.67799 181.054387,203.67799 181.125688,203.751364 C183.355336,204.408213 186.447531,203.751364 189.252045,201.926057 C191.553489,200.393241 193.13499,197.911588 192.990902,194.699711 C192.847309,192.291431 191.768878,189.517789 189.252045,186.598404 C182.924063,179.225309 175.804341,181.927085 169.54865,186.306415 C168.397928,187.108505 167.247206,187.984973 166.16828,188.788068 L166.16828,188.715197 L166.169766,188.715197 Z" id="Fill-17" fill="#212121"></path>
            </g>
        </g>
    </g>
</svg>