<?xml version="1.0" encoding="UTF-8"?>
<svg width="471px" height="411px" viewBox="0 0 471 411" version="1.1" xmlns="http://www.w3.org/2000/svg" xmlns:xlink="http://www.w3.org/1999/xlink">
    <!-- Generator: Sketch 64 (93537) - https://sketch.com -->
    <title>Group 14</title>
    <desc>Created with Sketch.</desc>
    <defs>
        <linearGradient x1="6.25216894%" y1="40.1960848%" x2="54.1198702%" y2="46.0188721%" id="linearGradient-1">
            <stop stop-color="#FFA000" offset="0%"></stop>
            <stop stop-color="#FFECB3" offset="100%"></stop>
        </linearGradient>
        <linearGradient x1="64.198358%" y1="29.8708405%" x2="50%" y2="71.3973574%" id="linearGradient-2">
            <stop stop-color="#E1BEE7" offset="0%"></stop>
            <stop stop-color="#FFECB3" offset="100%"></stop>
        </linearGradient>
        <linearGradient x1="52.6406127%" y1="106.278564%" x2="54.2376771%" y2="4.38382461%" id="linearGradient-3">
            <stop stop-color="#E1BEE7" offset="0%"></stop>
            <stop stop-color="#FFECB3" offset="100%"></stop>
        </linearGradient>
        <path d="M453.921387,84.62475 L322.878738,8.81907353 L322.878738,57.1743529 L333.611565,50.9225294 C334.100177,50.7261176 334.587865,50.7261176 335.075552,50.9225294 L349.809823,59.4210441 C350.298435,59.7147353 350.298435,60.3984706 349.809823,60.6912353 L301.217825,88.8253676 C300.82823,89.1181324 300.24245,89.1181324 299.754762,88.8253676 L285.020492,80.325 C284.532804,80.0313088 284.532804,79.3475735 285.020492,79.0548088 L304.144875,68.0159118 L252.919179,38.4170294 L243.160802,66.6484412 C243.160802,66.6484412 242.575948,70.2626029 236.525661,71.7282794 L236.623754,71.7282794 C236.623754,71.7282794 254.870855,93.9033529 259.35721,98.5922206 C262.967208,102.402794 271.456857,120.962779 274.676335,127.996544 L276.43275,129.950471 C276.43275,129.950471 276.43275,130.244162 276.335583,130.828765 C277.701478,130.828765 282.384944,130.731485 285.018641,129.167603 C288.141877,127.312809 289.8002,127.019118 291.166095,130.04775 C293.50829,133.661912 285.800607,137.960735 282.970724,142.062221 C281.214308,144.602603 278.190091,149.095985 274.481075,148.413176 C273.018012,148.118559 271.749284,147.630309 271.261597,145.383618 C270.383389,143.722456 270.676742,142.062221 270.676742,142.062221 C270.286222,141.867662 269.310847,138.644471 268.920327,137.079662 C268.237379,137.079662 267.748766,136.981456 267.748766,136.981456 L266.872409,135.320294 C266.872409,135.320294 267.163911,135.223941 267.748766,135.125735 C265.797091,132.879044 261.505071,127.799206 259.456228,124.674221 C258.284667,122.915779 256.040565,119.594382 253.699294,116.370265 L212.913073,140.010088 C212.522552,140.304706 211.936772,140.304706 211.547177,140.010088 L196.812907,131.5125 C196.32522,131.218809 196.32522,130.536 196.812907,130.242309 L204.229089,125.942559 C196.32522,127.017265 176.615982,129.850412 169.882748,130.827838 C169.784655,131.217882 169.686563,131.511574 169.686563,131.511574 L167.63772,131.901618 L167.63772,131.11875 C167.63772,131.11875 162.466567,137.566059 161.295931,141.670324 C160.125296,145.773662 162.661827,148.508603 160.709226,150.461603 C160.417724,150.755294 160.027204,151.047132 159.637609,151.145338 C159.539516,151.145338 159.441423,151.145338 159.441423,151.244471 C159.246163,151.244471 159.051829,151.34175 158.953736,151.34175 L158.855643,151.34175 C158.758476,151.34175 158.56229,151.34175 158.466048,151.244471 L158.367956,151.244471 C158.173621,151.145338 157.977435,151.145338 157.783101,151.048059 C157.685933,151.048059 157.587841,150.949853 157.587841,150.8535 C157.587841,150.8535 157.489748,150.8535 157.489748,150.755294 C157.392581,150.656162 157.392581,150.656162 157.294488,150.559809 C157.196395,150.461603 157.099228,150.36525 157.00206,150.36525 C156.903968,150.267044 156.8068,150.168838 156.8068,150.168838 C156.708708,150.070632 156.708708,150.070632 156.610615,149.974279 C156.512522,149.876074 156.512522,149.876074 156.415355,149.778794 L156.317262,149.680588 C156.220095,149.582382 156.122002,149.486029 156.122002,149.290544 C156.023909,149.192338 156.023909,149.095059 155.926742,148.9005 C155.828649,148.606809 155.634315,148.411324 155.536222,148.118559 C155.536222,148.020353 155.439054,147.922147 155.439054,147.824868 C155.340962,147.532103 155.242869,147.335691 155.146627,147.042926 C155.146627,146.944721 155.048534,146.847441 155.048534,146.652882 C154.950442,146.261912 154.853274,145.870941 154.756107,145.381765 C153.585472,139.813676 154.365587,127.211824 155.340962,123.890426 C155.439054,123.597662 155.536222,123.402176 155.536222,123.207618 C155.536222,123.109412 155.634315,123.011206 155.634315,122.913926 C155.731482,122.717515 155.731482,122.522956 155.829575,122.328397 C155.829575,122.229265 155.829575,122.229265 155.927667,122.229265 C156.024835,122.131985 156.024835,121.9365 156.122927,121.839221 C156.122927,121.839221 156.122927,121.741015 156.22102,121.741015 C156.319113,121.643735 156.41628,121.44825 156.41628,121.350971 L156.514373,121.252765 C156.61154,121.155485 156.61154,121.057279 156.708708,121.057279 L156.8068,120.96 C156.903968,120.861794 157.00206,120.861794 157.00206,120.763588 C157.00206,120.763588 157.100153,120.763588 157.100153,120.667235 L157.197321,120.667235 C157.393506,120.667235 157.490673,120.568103 157.783101,120.568103 C158.075528,120.568103 158.466974,120.667235 158.953736,120.762662 C161.099746,121.154559 167.930147,122.131059 167.930147,122.131059 L167.539627,121.544603 L169.58847,120.96 C169.58847,120.96 169.78373,121.155485 169.978065,121.544603 C173.490895,120.470824 180.907077,118.126853 185.004762,117.051221 C190.566435,115.585544 201.397355,112.460559 201.397355,112.460559 C201.397355,112.460559 203.54429,86.9631618 204.422498,81.88425 C205.300706,76.8044118 208.910704,66.2537647 208.910704,66.2537647 C207.544808,64.9835735 207.641976,64.0070735 207.641976,64.0070735 C207.641976,64.0070735 226.083411,14.6762206 231.06023,9.69273529 C236.037048,4.71110294 236.329476,4.61382353 236.329476,4.61382353 L236.230458,4.90566176 L237.108665,2.75717647 L237.88878,0.608691176 L103.52856,78.2700882 C105.675496,78.0746029 107.627171,78.95475 107.627171,78.95475 C105.675496,80.9086765 106.357518,84.5219118 103.626653,88.0387941 C100.894863,91.5556765 92.8938266,92.2394118 92.8938266,92.2394118 C92.8938266,92.2394118 97.3811069,90.5791765 98.8450948,83.0562353 C99.0412802,81.88425 99.430875,81.0050294 99.9185625,80.3212941 L4.88113185,135.318441 C1.85580363,137.076882 0.489630847,140.301 0.782983669,143.329632 C0.782983669,143.427838 0.782983669,143.62425 0.88079879,143.719676 C0.88079879,143.915162 0.978891532,144.111574 0.978891532,144.207926 C0.978891532,144.404338 1.07642903,144.501618 1.07642903,144.697103 C1.07642903,144.795309 1.17405907,144.990794 1.17405907,145.088074 C1.27187419,145.283559 1.27187419,145.478118 1.36950423,145.673603 C1.46759698,145.772735 1.46759698,145.869088 1.56411653,146.0655 C1.66193165,146.260059 1.76011694,146.454618 1.85765444,146.651029 C1.95528448,146.748309 1.95528448,146.845588 2.0530996,146.943794 C2.15119234,147.139279 2.34534194,147.333838 2.44343468,147.53025 C2.5412498,147.627529 2.5412498,147.724809 2.63887984,147.724809 C2.83451008,147.919368 2.93130726,148.114853 3.12703004,148.310338 C3.22456754,148.408544 3.22456754,148.408544 3.3224752,148.505824 C3.51810544,148.700382 3.71253266,148.895868 3.90714496,148.994074 C4.20040524,149.188632 4.4929252,149.385044 4.78516754,149.579603 L177.395171,249.324909 C182.566325,252.352893 188.810946,252.352893 193.983024,249.324909 L454.506242,98.7886324 C455.872137,98.0076176 456.94653,96.9338382 457.629478,95.6627206 L457.629478,95.5645147 C457.823812,95.27175 457.921905,94.9799118 458.019073,94.6862206 C458.019073,94.5870882 458.019073,94.5870882 458.117165,94.4916618 C458.214333,94.1970441 458.312425,94.0024853 458.410518,93.7087941 C458.410518,93.6105882 458.410518,93.5142353 458.507685,93.4151029 C458.605778,93.2205441 458.605778,92.9268529 458.605778,92.7322941 L458.605778,92.3413235 C458.312425,89.6063824 456.94653,86.3831912 453.921387,84.62475 Z M179.932627,47.4056471 C187.152623,45.1589559 187.738403,53.1692206 187.738403,53.1692206 C185.10378,52.3872794 182.274823,54.7331029 177.882859,53.9502353 C173.491821,53.2665 169.101708,46.5264265 169.101708,46.5264265 C169.101708,46.5264265 172.613613,49.6523382 179.932627,47.4056471 Z M173.1013,162.871676 L124.509302,190.908344 C124.021615,191.201757 123.533927,191.201757 123.045315,190.908344 L108.31197,182.409181 C107.824282,182.116324 107.824282,181.43194 108.31197,181.237103 L156.903968,153.103897 C157.294488,152.907485 157.880268,152.907485 158.270788,153.103897 L173.004133,161.603338 C173.588988,161.895176 173.588988,162.677118 173.1013,162.871676 Z M375.666514,88.2389118 C372.934724,91.7557941 364.932762,92.4395294 364.932762,92.4395294 C364.932762,92.4395294 369.421893,90.7792941 370.884956,83.2554265 C372.348944,75.8316176 379.667032,79.1539412 379.667032,79.1539412 C377.81345,81.1069412 378.398304,84.7211029 375.666514,88.2389118 Z M223.938327,92.6340882 L241.892075,104.063956 L215.448677,119.40075 L223.938327,92.6340882 Z" id="path-4"></path>
        <linearGradient x1="-5.17157294e-05%" y1="50.0002169%" x2="99.999963%" y2="50.0002169%" id="linearGradient-6">
            <stop stop-color="#FFA000" offset="0%"></stop>
            <stop stop-color="#FFECB3" offset="100%"></stop>
        </linearGradient>
    </defs>
    <g id="Pricing" stroke="none" stroke-width="1" fill="none" fill-rule="evenodd">
        <g transform="translate(-109.000000, -1333.000000)" id="Group-14">
            <g transform="translate(109.000000, 1333.000000)">
                <path d="M458,244.123993 L458,251.149572 C458,253.979422 456.634454,256.809272 453.805295,258.370408 L193.346853,408.731586 C188.177023,411.756138 181.836856,411.756138 176.764168,408.731586 L4.19932525,309.108747 C1.27265335,307.352352 -0.0928924953,304.32817 0.00489761028,301.399303 L0.00489761028,294.959498 L0.00489761028,295.252847 C0.00489761028,295.351864 0.00489761028,295.546196 0.102410166,295.643363 C0.102410166,295.83862 0.200015238,296.032953 0.200015238,296.131044 C0.200015238,296.326302 0.298082894,296.423468 0.298082894,296.618726 C0.298082894,296.716818 0.395872999,296.91115 0.395872999,297.009242 C0.493478072,297.203574 0.493478072,297.398832 0.590990627,297.59409 C0.688873249,297.691256 0.688873249,297.789347 0.786940905,297.98368 C0.884453461,298.178938 0.982336083,298.374195 1.07910851,298.568528 C1.17689861,298.666619 1.17689861,298.764711 1.27441117,298.861877 C1.37201624,299.05621 1.56685632,299.252393 1.66446139,299.446725 C1.76252904,299.544817 1.76252904,299.642908 1.8600416,299.642908 C2.05469664,299.836315 2.15248675,300.031573 2.34788193,300.226831 C2.44567203,300.324923 2.44567203,300.324923 2.54346214,300.421163 C2.73811718,300.617347 2.93341985,300.811679 3.12807489,300.909771 C3.42024249,301.105028 3.71370532,301.299361 4.00578041,301.495544 L176.570808,401.116624 C181.740639,404.141917 187.983663,404.141917 193.154419,401.116624 L453.611935,250.75628 C454.977481,249.976174 456.050674,248.902719 456.732522,247.633081 L456.732522,247.535915 C456.928657,247.243491 457.0258,246.951067 457.122942,246.657717 C457.122942,246.559626 457.122942,246.559626 457.220085,246.463385 C457.319077,246.170035 457.41622,245.974778 457.514288,245.681428 C457.514288,245.584262 457.514288,245.487096 457.61143,245.388079 C457.709498,245.193746 457.709498,244.900397 457.709498,244.706065 L457.709498,244.3174 C457.902858,244.320176 457.902858,244.222084 458,244.123993 Z M259.388943,32.6820142 L259.290876,32 L318.795738,66.345938 L318.990949,66.4431042 L319.186159,66.5411958 L319.380444,66.6392874 L319.574729,66.8336198 L319.770864,66.9317114 L319.965149,67.1269692 L320.160359,67.3213016 L320.354644,67.5174848 L320.550779,67.7127426 L320.939349,68.1041836 L321.038342,68.2994413 L321.233552,68.4946991 L321.330695,68.6890315 L321.428762,68.8852147 L321.52683,69.0804725 L321.624898,69.2757303 L321.722965,69.4719135 L321.820108,69.6662459 L321.919101,69.8615037 L322.017168,70.0576869 L322.114311,70.3501109 L322.212379,70.5453686 L322.310446,70.8377926 L322.409439,71.131142 L322.409439,71.3263998 L322.506582,71.6188238 L322.506582,216.223413 L322.409439,216.515837 L322.310446,216.808261 L322.212379,217.004444 L322.114311,217.295942 L322.017168,217.492126 L321.919101,217.687383 L321.820108,217.882641 L321.722965,218.076974 L321.527755,218.271306 L321.625823,218.564655 L321.430613,218.759913 L321.236328,218.858005 L314.212463,222.859401 L314.406748,222.760384 L314.601958,222.566052 L314.796243,222.370794 L314.992379,222.175536 L315.090446,221.980279 L315.187589,221.785946 L315.285657,221.590688 L315.383724,221.396356 C315.383724,221.396356 315.383724,221.297339 315.481792,221.297339 L315.579859,221.103007 L315.677927,220.907749 L315.677927,220.809657 L315.77507,220.615325 L315.873137,220.321976 L315.873137,189.878417 C317.726246,189.38981 319.38507,188.804037 319.77549,188.511613 C320.750615,187.732432 321.823809,187.341917 322.506582,185.682688 C323.189354,184.02346 322.604649,179.046699 322.506582,177.389322 C322.407589,175.730093 321.238178,174.559472 320.458263,176.510199 C319.77549,178.072261 316.94633,178.364685 315.873137,178.364685 L315.873137,76.0061091 L315.772294,75.7118343 L315.772294,75.4194103 L315.674226,75.1269863 L315.577084,74.9317285 L315.479016,74.6393045 L315.380023,74.4440467 L315.282881,74.1516227 L315.282881,74.0535311 C315.184813,73.8582733 315.184813,73.7611072 315.088596,73.5658494 L314.989603,73.4677578 L314.891536,73.2725 L314.793468,73.1744084 C314.793468,73.0772422 314.696325,72.9791506 314.696325,72.9791506 L314.598258,72.881059 L314.50019,72.6858012 L314.402122,72.4905434 L314.304055,72.3924518 C314.205987,72.2943602 314.205987,72.197194 314.10977,72.197194 L314.010777,72.0991024 L313.816492,71.9029193 L313.718424,71.8057531 C313.620357,71.7076615 313.523214,71.6104953 313.425147,71.5124037 L313.328004,71.4143121 L313.131869,71.2190543 L312.937584,71.0237965 C312.839516,70.9257049 312.743299,70.8276133 312.644306,70.8276133 L312.547163,70.7304471 L312.351953,70.6323555 C312.254811,70.5342639 312.058676,70.4380231 311.962458,70.3399315 L260.162382,40.3859057 L260.162382,38.6350633 L260.064315,37.1710926 L259.967172,35.7071219 L259.771037,34.2440765 L259.388943,32.6820142 Z M317.625403,93.2757816 L317.72347,93.3738732 L317.72347,93.569131 L317.822463,93.6672226 L317.920531,93.7653141 L318.017673,93.8624803 L318.798514,94.3501621 L318.700446,94.2529959 L318.602379,94.1549043 L318.504311,94.0577381 L318.504311,87.4198986 L318.602379,87.3227324 L318.700446,87.2246408 L318.798514,87.2246408 L320.553555,86.2483519 L320.652548,86.1511857 L321.141961,86.1511857 L321.240028,86.2483519 L321.141961,86.1511857 L320.458263,85.7606701 L319.674647,85.7606701 L317.920531,86.8341252 L317.822463,86.8341252 L317.72347,86.9322168 L317.625403,87.0303084 L317.625403,93.2757816 Z M317.625403,96.1028553 L317.625403,102.448271 L317.72347,102.545437 L317.72347,102.643529 L317.822463,102.740695 L317.920531,102.838786 L318.017673,102.936878 L318.798514,103.42456 L318.700446,103.326468 L318.602379,103.229302 L318.504311,103.229302 L318.504311,96.4942963 L318.602379,96.3962047 L318.700446,96.2990385 L318.798514,96.2990385 L320.553555,95.3227495 L320.652548,95.2246579 L321.141961,95.2246579 L321.240028,95.3227495 L321.141961,95.2246579 L320.458263,94.8350677 L319.674647,94.8350677 L317.920531,95.9075975 L317.822463,95.9075975 L317.72347,96.0047637 L317.625403,96.1028553 Z M302.310195,62.6378908 L310.113975,67.1269692 C310.601538,67.4193932 311.186243,67.4193932 311.773724,67.1269692 L312.943135,66.4431042 C313.52784,66.1516056 313.52784,65.3696491 312.943135,65.0772251 L305.139355,60.5899975 C304.651792,60.2957227 304.067087,60.2957227 303.481456,60.5899975 L302.213053,61.272937 C301.72549,61.5644356 301.72549,62.3445414 302.310195,62.6378908 Z" id="Fill-1" fill="#9C27B0"></path>
                <path d="M94.0502922,211.542257 C86.1712096,216.136222 73.4285084,216.136222 65.64694,211.639626 C58.1567144,207.239472 57.8653715,200.298449 64.9654485,195.701701 C65.2570682,195.506036 65.5484111,195.310371 65.8410456,195.213001 C66.132573,195.017336 66.423916,194.821671 66.8137878,194.724302 C67.2999744,194.431267 67.7866222,194.234674 68.3695848,194.039009 C68.2722553,192.571982 68.1754792,191.007585 68.1754792,189.248451 C67.8828447,181.524766 67.7866222,171.453095 68.5644285,161.382352 C68.6622193,159.817028 68.8559559,158.155263 68.95347,156.590867 L53,146.520123 L54.654326,143 L69.7312763,150.234985 C70.0228037,148.08452 70.4127678,146.030496 70.8016248,144.074769 C73.817919,144.857431 77.0266582,145.247834 80.3340185,145.247834 C81.1121938,145.247834 81.9875141,145.247834 82.7663352,145.150465 C82.7663352,149.256658 82.9610866,153.656812 83.2527063,158.252632 L101.735177,151.115016 L103,153.56037 L83.8376986,164.70681 L83.7404612,164.805106 C84.4213992,172.235757 85.588247,180.156035 87.3390722,188.173682 C87.7279293,189.739005 88.0205638,191.302474 88.408406,192.866871 C90.5480882,193.45294 92.4937571,194.235602 94.2449513,195.213929 C102.027627,199.613156 101.929836,207.043806 94.0502922,211.542257 Z" id="Fill-2" fill="#207A70"></path>
                <path d="M187.848179,204.715635 C185.213173,203.936271 182.383804,206.274362 177.991202,205.495923 C173.599525,204.812708 169.208774,198.086883 169.208774,198.086883 C169.208774,198.086883 172.819297,201.206187 180.041268,198.964245 C187.262314,196.721379 187.848179,204.715635 187.848179,204.715635 Z M102.945823,229.962209 C101.676911,230.061132 100.310817,230.644499 99.3353006,232.010003 C98.8466166,232.691369 98.4569652,233.568731 98.2607512,234.739163 C96.797476,242.244352 92.3085253,243.902002 92.3085253,243.902002 C92.3085253,243.902002 100.310817,243.218787 103.043005,239.710264 C105.776118,236.201741 105.092145,232.59522 107.044105,230.644499 C107.044105,230.742497 105.092145,229.768062 102.945823,229.962209 Z M199.265613,110.256391 C192.044567,112.498333 188.433119,109.379029 188.433119,109.379029 C188.433119,109.379029 192.824796,116.104854 197.215547,116.788069 C201.606298,117.470358 204.534699,115.229341 207.169706,116.008705 C207.169706,115.909782 206.584766,107.916451 199.265613,110.256391 Z M371.119465,234.835312 C369.655264,242.343274 365.166406,244 365.166406,244 C365.166406,244 373.168606,243.31771 375.901719,239.808262 C378.633906,236.29789 378.048966,232.692293 380,230.742497 C379.902819,230.742497 372.58274,227.331048 371.119465,234.835312 Z M80.0118306,66 C57.9570986,66 40,83.936458 40,105.869581 C40,112.693405 41.7564856,119.12616 44.7822536,124.780475 C50.0514327,134.52853 59.3231923,141.937569 70.4474158,144.667654 C73.4731839,145.447017 76.6938702,145.837161 80.0108125,145.837161 C80.7921514,145.837161 81.6694687,145.837161 82.4509928,145.739163 C93.3803906,145.055949 103.237368,139.987774 110.067836,132.18859 C116.216184,125.169695 120.021995,116.00778 120.021995,105.966655 C120.023846,83.9373825 102.066562,66 80.0118306,66 Z" id="Fill-3" fill="url(#linearGradient-1)"></path>
                <path d="M158.549052,284.264797 C157.670043,290.216197 158.158176,295.096881 159.134441,298.023071 C159.720756,299.779525 159.231697,301.731244 158.841747,303 L158.743565,303 C158.645382,303 158.449944,303 158.353614,302.902831 L158.255432,302.902831 C158.059067,302.80381 157.864555,302.80381 157.669117,302.706641 C157.570935,302.706641 157.472752,302.608546 157.472752,302.512302 C157.375496,302.414207 157.277314,302.317037 157.180984,302.317037 C157.082802,302.218942 156.98462,302.122698 156.88829,302.122698 C156.790108,302.024603 156.691926,301.927434 156.593743,301.828414 L156.496487,301.731244 C156.398305,301.633149 156.398305,301.633149 156.301049,301.536905 C156.202867,301.43881 156.104684,301.340715 156.104684,301.146376 C156.104684,301.048281 156.007428,301.048281 156.007428,300.951112 C155.909246,300.853017 155.909246,300.755847 155.81199,300.561509 C155.713808,300.268149 155.519296,300.07381 155.421113,299.779525 C155.421113,299.682356 155.322931,299.585186 155.322931,299.487092 C155.224749,299.194658 155.127493,298.998468 155.030237,298.706959 C155.030237,298.607939 154.932981,298.51077 154.932981,298.316431 C154.834799,297.926827 154.737543,297.535373 154.640287,297.046749 C153.468583,291.484953 154.24941,278.898265 155.226601,275.580621 C155.323857,275.287261 155.421113,275.091997 155.421113,274.897658 C155.421113,274.799563 155.519296,274.702394 155.519296,274.604299 C155.616552,274.40996 155.616552,274.21377 155.714734,274.019431 C155.714734,273.921336 155.714734,273.921336 155.81199,273.921336 C155.910172,273.824166 155.910172,273.627977 156.008355,273.531733 C156.008355,273.531733 156.008355,273.432712 156.105611,273.432712 C156.203793,273.335543 156.301975,273.140278 156.301975,273.043109 L156.400157,272.945014 C156.497413,272.847844 156.497413,272.750675 156.593743,272.750675 L156.691926,272.65258 C156.790108,272.554485 156.88829,272.554485 156.88829,272.45639 C156.88829,272.45639 156.985546,272.45639 156.985546,272.360146 L157.083728,272.360146 C157.27824,272.360146 157.376423,272.261126 157.669117,272.261126 C157.669117,272.261126 157.767299,272.261126 157.767299,272.360146 C160.989716,274.1166 159.329879,278.409641 158.549052,284.264797 Z M284.144556,197.324015 L279.846766,194.883672 C279.650401,194.883672 279.358633,194.786503 279.162268,194.786503 C275.353537,194.201635 269.88497,191.664123 265.19723,189.029442 L265.19723,190.005764 C265.19723,190.785896 265.58718,191.371689 266.270751,191.761293 L283.65457,201.81232 C284.337215,202.201923 285.217151,201.714225 285.217151,200.933167 L285.217151,199.177638 C285.120821,198.397506 284.729018,197.713618 284.144556,197.324015 Z M110.009034,132.238965 C103.172399,140.045839 93.4069676,145.217107 82.3709097,145.8029 C82.3709097,149.900676 82.5656997,154.292737 82.8592276,158.878212 L101.415306,151.756151 L102.685192,154.195568 L83.4458204,165.319161 C87.4492488,171.271486 94.2869031,175.273018 102.001621,175.273018 C114.30775,175.273018 124.26862,165.319161 124.26862,153.024907 C124.463132,143.558748 118.40825,135.36227 110.009034,132.238965 Z M44.7701563,124.823544 C36.6647466,128.141188 31,136.142402 31,145.412371 C31,157.707551 40.9622587,167.758578 53.267554,167.758578 C58.9320227,167.758578 64.1083588,165.611595 68.0144386,162.098686 C68.112343,160.536571 68.3079666,158.878212 68.4048521,157.317022 L52.3885448,147.26692 L54.0484736,143.754012 L69.185679,150.974168 C69.4794848,148.82811 69.8698983,146.778297 70.2605896,144.826578 C59.3216952,141.998483 50.0446746,134.581212 44.7701563,124.823544 Z M449,124.141507 L449,180.051906 C449,182.589418 447.438346,183.760079 445.483963,182.687513 L352.020924,128.825077 C351.043733,128.239283 350.262906,126.775263 350.262906,125.507433 L350.262906,69.4980128 C350.262906,66.960501 351.82456,65.78984 353.778943,66.8642569 L372.53083,77.6954161 L447.243834,120.726694 C448.218247,121.311561 449,122.872751 449,124.141507 Z M380.929119,112.52929 L369.697438,94.868504 L358.466683,99.5520735 L362.371744,101.795301 L362.371744,117.21286 L376.924024,125.604602 L376.924024,110.187968 L380.929119,112.52929 Z M428.58735,149.706337 C416.087635,142.486181 403.586068,135.2651 391.085427,128.044944 L391.085427,133.996344 C403.68425,141.314595 416.087635,148.437581 428.58735,155.658663 L428.58735,149.706337 Z M428.58735,139.265707 C416.087635,132.044626 403.586068,124.823544 391.085427,117.603389 L391.085427,123.555714 C403.68425,130.873039 416.087635,137.996951 428.58735,145.217107 L428.58735,139.265707 Z M428.58735,128.923171 C416.087635,121.70209 403.586068,114.481009 391.085427,107.260853 L391.085427,113.213178 C403.68425,120.531429 416.087635,127.654416 428.58735,134.874571 L428.58735,128.923171 Z M311.781939,85.793799 L311.781939,182.29791 C311.000186,183.467645 310.024847,184.639232 310.024847,184.639232 C309.926664,184.639232 309.926664,184.737327 309.830335,184.737327 L309.732152,184.737327 C309.633044,184.834496 309.535788,184.834496 309.341276,184.932591 L309.144911,184.932591 C309.144911,184.932591 309.046729,184.932591 309.046729,185.030686 L307.289637,185.518384 C305.727057,185.810818 304.067221,185.907988 302.50464,185.810818 L302.50464,180.931984 L279.650401,167.758578 L272.326559,163.465537 L249.863197,150.487395 C250.351329,148.926205 251.0349,147.462185 251.0349,147.462185 C251.0349,147.462185 253.086539,148.82811 254.062804,148.047978 C255.039996,147.26692 255.624458,142.582426 255.624458,140.534463 C255.624458,138.484649 254.941813,132.337985 254.941813,131.361663 C254.941813,130.386266 254.355499,129.409944 254.355499,129.409944 C255.33269,128.726056 256.60165,127.458226 257.871535,124.238677 C260.117686,118.675955 256.309882,112.919819 256.309882,112.919819 C255.137252,115.749765 254.747301,117.505294 246.054465,118.969314 C245.272712,119.067409 244.590068,119.164578 244.003753,119.262673 L244.003753,63.156084 C242.733867,63.4485179 241.366725,63.5466129 239.903253,63.3513485 C236.777167,62.9617451 233.359312,61.3996298 230.038714,58.3744197 C229.647837,57.9848163 229.257887,57.6923824 228.86701,57.3018536 C228.476134,56.9113248 228.086183,56.4236265 227.695307,56.0330977 C218.221644,45.4943724 213.436647,26.9544336 217.050867,13.5876134 C218.906141,6.65896604 222.714872,2.4630949 227.207174,1.2924339 C227.499868,1.19433898 227.792563,1.19433898 228.086183,1.09716949 C228.378878,1 228.671572,1 228.965193,1 L230.820467,1 C230.918649,1 231.114088,1 231.3086,1.09716949 C231.406782,1.09716949 231.603146,1.09716949 231.797658,1.1952644 C232.091279,1.1952644 232.383047,1.2924339 232.773924,1.39052881 C233.066618,1.48862372 233.359312,1.48862372 233.751115,1.58671864 C233.946554,1.68388813 234.04381,1.68388813 234.239248,1.78198304 C234.33743,1.78198304 234.531942,1.88007796 234.72738,1.88007796 C234.825563,1.97724745 235.020075,1.97724745 235.215513,2.07534236 C235.411878,2.17251185 235.60639,2.17251185 235.704572,2.27060677 C236.094522,2.36870168 236.389069,2.56304066 236.680837,2.75830507 C236.875349,2.85639998 236.974458,2.95356947 237.16897,3.05073896 C237.364408,3.14790845 237.463517,3.24600336 237.658029,3.34317286 C237.852541,3.44126777 237.951649,3.53936268 238.146161,3.63560675 C238.340673,3.73370166 238.439782,3.83179658 238.634294,3.92896607 C238.828806,4.02706098 238.927914,4.12423047 239.123353,4.31949488 C239.317865,4.41666437 239.416973,4.51383386 239.611485,4.70909826 C239.905106,5.00153216 240.29413,5.19772199 240.587751,5.49015588 C240.881371,5.7835152 241.271321,6.0759491 241.564942,6.36745757 C241.858563,6.66081689 242.150331,6.95325078 242.541207,7.24568468 C242.93301,7.53811857 243.225704,7.83055247 243.518399,8.2220067 C243.812019,8.61161008 244.104714,8.9049694 244.397408,9.29549821 C244.691029,9.68602702 244.98187,9.97938634 245.275491,10.3680643 C245.570038,10.7585931 245.86088,11.1491219 246.1545,11.4415558 C246.447194,11.8320846 246.739889,12.221688 247.033509,12.6122168 C247.326204,13.0027456 247.618898,13.4904439 247.814336,13.8800473 C247.913445,14.0762371 248.107957,14.2705761 248.205213,14.4658405 C248.303395,14.6620304 248.498833,14.8563693 248.596089,15.0507083 C248.888784,15.4412371 249.084222,15.9289354 249.27966,16.3203897 C249.377843,16.5156541 249.475099,16.709993 249.669611,17.0033524 C249.767793,17.1986168 249.865049,17.3938812 250.059561,17.6872405 C250.255926,18.1749388 250.54862,18.5654676 250.744058,19.0531659 C250.93857,19.5408642 251.133082,19.931393 251.329447,20.4190913 C251.426703,20.6152811 251.523959,20.9067896 251.622141,21.1029794 C251.72125,21.2982438 251.817579,21.5906777 251.915762,21.7859421 C252.013944,21.982132 252.1112,22.2745659 252.209382,22.4698303 C252.306638,22.6650947 252.403894,22.9575286 252.502077,23.152793 C252.600259,23.3489828 252.697515,23.6414167 252.697515,23.8366811 C252.795697,24.0328709 252.892027,24.3243794 252.990209,24.5205692 C253.088392,24.8120777 253.185648,25.0082675 253.185648,25.3007014 C253.28383,25.4959658 253.381086,25.7883997 253.381086,26.0808336 C253.478342,26.5685319 253.674706,27.0562302 253.771036,27.5448539 C253.868292,28.0325522 254.064657,28.5202505 254.160987,29.0079488 C254.259169,29.3003827 254.259169,29.4965726 254.356425,29.7890065 C254.455533,30.0823658 254.455533,30.2767048 254.551863,30.5700641 C254.650045,31.0577624 254.747301,31.5463861 254.844557,32.1303285 C254.943666,32.6180268 255.039996,33.1066505 255.138178,33.5943488 C255.23636,34.0820471 255.23636,34.5697454 255.33269,35.1555386 C255.431799,35.6441623 255.431799,36.1318606 255.431799,36.6195589 C255.529981,37.1072572 255.529981,37.5958809 255.529981,38.0835792 C255.529981,38.5712775 255.529981,39.0589758 255.627237,39.5475996 L255.627237,42.4747148 C255.627237,42.9633385 255.627237,43.4510368 255.529981,43.9387351 C255.529981,44.4273588 255.431799,44.9150571 255.431799,45.3046605 C255.33269,45.7932842 255.33269,46.2809825 255.23636,46.6705859 C255.23636,46.8667758 255.138178,47.1592097 255.138178,47.3544741 C255.138178,47.5497385 255.039996,47.8421724 255.039996,48.0374368 C254.94274,48.5260605 254.844557,48.9156639 254.747301,49.4033622 C254.649119,49.8919859 254.551863,50.2815893 254.356425,50.6730435 C254.356425,50.8673825 254.258243,51.0635723 254.160987,51.2579113 C254.064657,51.4522503 254.063731,51.6475147 253.965548,51.8427791 C253.868292,52.2323825 253.672854,52.6238367 253.576524,53.0134401 C253.477416,53.4039689 253.282904,53.7944977 253.185648,54.0869316 C253.088392,54.476535 252.892027,54.7698943 252.697515,55.1604231 C252.599333,55.3556875 252.502077,55.452857 252.403894,55.6481214 C252.305712,55.8443112 252.209382,55.9405553 252.1112,56.1358197 C251.915762,56.4282536 251.72125,56.7206875 251.524885,57.0140468 C251.426703,57.1121417 251.330373,57.3064807 251.232191,57.4045756 C251.133082,57.5017451 251.036753,57.697935 250.93857,57.794179 C250.840388,57.8913485 250.744058,58.0866129 250.64495,58.1847078 C250.546767,58.2828027 250.450438,58.4771417 250.352255,58.5752366 C250.156817,58.8676705 249.962305,59.0629349 249.668684,59.3553688 C249.473246,59.5506332 249.278734,59.8430671 248.985114,60.0383315 C248.789675,60.2335959 248.496981,60.4288603 248.300616,60.6231993 C248.106104,60.8193892 247.812484,61.0137281 247.617972,61.2080671 C247.42346,61.4042569 247.129839,61.5985959 246.836219,61.6957654 C246.543524,61.7938603 246.34716,61.9900502 246.054465,62.0862942 C245.761771,62.1843891 245.566333,62.2815586 245.272712,62.476823 C245.175456,62.5739925 244.980018,62.5739925 244.882762,62.5739925 C244.78458,62.6720874 244.590068,62.6720874 244.491885,62.6720874 L249.277808,61.4024061 L250.155891,61.1099722 L251.719397,60.32984 L252.500224,59.8421417 L253.184721,59.2563485 L253.868292,58.6714807 L254.551863,57.988518 L255.137252,57.206535 L255.72264,56.4264028 L256.308955,55.5481757 L256.894344,54.670874 L257.382477,53.694552 L257.870609,52.6219859 L258.261486,51.5475689 L258.651436,50.4759283 L308.26405,79.0650432 C310.414797,80.9140398 311.781939,83.2562872 311.781939,85.793799 Z M289.12499,154.487076 L289.12499,150.48647 C280.823957,145.705731 272.424742,140.826897 264.025526,136.045232 L264.025526,139.94867 C272.423815,144.924673 280.726701,149.608242 289.12499,154.487076 Z M289.12499,147.56028 L289.12499,143.558748 C280.823957,138.778009 272.424742,133.899175 264.025526,129.11751 L264.025526,133.020022 C272.423815,137.899782 280.726701,142.68052 289.12499,147.56028 Z M289.12499,140.631632 L289.12499,136.631026 C280.823957,131.849361 272.424742,126.971453 264.025526,122.189788 L264.025526,126.190395 C272.423815,130.971134 280.726701,135.752798 289.12499,140.631632 Z M300.258489,89.7934804 C300.258489,89.2086126 299.868539,88.5247244 299.476736,88.3303855 L299.281298,88.2322905 L299.184042,88.1351211 L257.677023,64.2286501 C257.677023,64.2286501 257.577915,64.2286501 257.577915,64.1305552 L257.187964,63.9352908 C256.309882,63.4475925 255.625384,63.9352908 255.625384,65.1059518 L255.625384,90.3774227 C255.625384,90.9632159 256.016261,91.6471041 256.407138,91.841443 L298.598653,116.235612 C299.476736,116.723311 300.160307,116.235612 300.160307,115.064951 L300.160307,89.7925549 L300.258489,89.7925549 L300.258489,89.7934804 Z M279.650401,179.07651 L269.006887,172.92892 C274.768149,177.709659 281.116651,182.881852 281.116651,182.881852 C281.116651,182.881852 284.43725,183.36955 288.245981,183.954418 L279.650401,179.07651 Z M311.197476,191.273594 L311.099294,191.371689 L311.000186,191.468859 L307.668472,191.468859 C303.567047,192.152747 295.948658,193.323408 289.308387,193.811106 L306.497695,203.764038 C308.841102,205.130889 311.770824,203.374435 311.770824,200.738828 L311.770824,190.102933 C311.391989,191.079255 311.197476,191.176425 311.197476,191.273594 Z" id="Fill-4" fill="url(#linearGradient-2)"></path>
                <path d="M228.648906,1.07530391 L230.504726,1.07530391 C230.79736,1.07530391 231.089994,1.17356444 231.383554,1.17356444 C231.677114,1.17356444 231.969749,1.27089798 232.359619,1.36915851 C232.652253,1.46741904 232.944887,1.46741904 233.336609,1.56475258 C233.629244,1.66301311 233.921878,1.76127364 234.312674,1.8576802 C234.605308,1.95594073 234.898868,2.1515348 235.289665,2.24886834 C235.679535,2.34620189 235.973095,2.54179596 236.265729,2.73739003 C236.558363,2.93298411 236.94916,3.12857818 237.24272,3.32417225 C237.437192,3.42243278 237.53628,3.51883934 237.730752,3.61709987 C237.925224,3.7153604 238.024312,3.81362093 238.218784,3.91002748 C238.414183,4.00828801 238.512345,4.10562156 238.706817,4.30121563 C238.902215,4.39854917 239.000377,4.4968097 239.195775,4.69147679 C239.489335,4.98533139 239.878279,5.18092546 240.17184,5.47385308 C240.4654,5.7667807 240.85527,6.05970831 241.14883,6.35356291 C241.442391,6.64649053 241.734099,6.93941815 242.124895,7.23327275 C242.516617,7.52712735 242.809251,7.82005497 243.101886,8.21124311 C243.395446,8.60150427 243.68808,8.89443189 243.980714,9.28562003 C244.273348,9.67588119 244.565982,9.96973579 244.858617,10.3609239 C245.152177,10.7521121 245.444811,11.1423732 245.737445,11.4353009 C246.030079,11.825562 246.322713,12.2167502 246.616274,12.6079383 C246.908908,12.9981995 247.201542,13.4876481 247.397866,13.8788363 C247.496028,14.0744304 247.6905,14.2700244 247.787736,14.4646915 C247.884046,14.6602856 247.983134,14.8558797 248.178533,15.0514737 C248.472093,15.4426619 248.666565,15.9311836 248.861963,16.3223717 C249.056435,16.7126329 249.350921,17.2011546 249.545393,17.5932697 C249.739865,18.0817914 250.033426,18.4729795 250.227898,18.9615012 C250.423296,19.4500229 250.618694,19.8412111 250.814092,20.3297327 C250.912254,20.5253268 251.008564,20.8182544 251.106726,21.0147755 C251.205814,21.2103696 251.302124,21.5032972 251.400287,21.6998182 C251.594759,22.1883399 251.790157,22.6768616 251.985555,23.1653833 C252.180953,23.654832 252.279115,24.1433537 252.473587,24.6318754 C252.668985,25.1203971 252.767147,25.6098457 252.961619,26.0983674 C253.060708,26.5868891 253.25518,27.0754108 253.352416,27.5648595 C253.449652,28.0533812 253.645976,28.5419028 253.743212,29.0304245 C253.840448,29.3242791 253.840448,29.5198732 253.937684,29.8128008 C254.035846,30.1057284 254.035846,30.3022495 254.133082,30.5951771 C254.231244,31.0836988 254.32848,31.5722205 254.425716,32.1590027 C254.524804,32.6475244 254.622041,33.1369731 254.719277,33.6254948 C254.817439,34.1140165 254.817439,34.6025381 254.914675,35.1883934 C255.012837,35.6778421 255.012837,36.1663637 255.012837,36.6548854 C255.110999,37.1434071 255.110999,37.6328558 255.110999,38.1213775 C255.110999,38.6098992 255.110999,39.0984209 255.208235,39.5878695 L255.208235,42.5199267 C255.208235,43.0084483 255.208235,43.497897 255.110999,43.9864187 C255.110999,44.4749404 255.012837,44.9634621 255.012837,45.3546502 C254.914675,45.8431719 254.914675,46.3326206 254.817439,46.7228818 C254.817439,46.9184758 254.719277,47.2114034 254.719277,47.4079245 C254.719277,47.6035186 254.622041,47.8964462 254.622041,48.0920403 C254.523878,48.580562 254.425716,48.9717501 254.32848,49.4602718 C254.230318,49.9487935 254.133082,50.3399816 253.937684,50.7320968 C253.839522,51.1223579 253.743212,51.6118066 253.547814,52.0020677 C253.449652,52.3932559 253.254254,52.785371 253.157944,53.1747052 C253.059782,53.5658933 252.864383,53.9561545 252.767147,54.2500091 C252.668985,54.6411972 252.473587,54.9350519 252.279115,55.324386 C252.180953,55.5209071 252.082791,55.6182406 251.985555,55.8138347 C251.887393,56.0094288 251.790157,56.1076893 251.692921,56.3023564 C251.497523,56.596211 251.302124,56.8891386 251.106726,57.1820662 C250.912254,57.4759208 250.717782,57.7688484 250.521458,58.0608491 C250.326986,58.3547037 250.131588,58.6467043 249.93619,58.8432254 C249.740792,59.13708 249.546319,59.3317471 249.252759,59.6256017 C249.058287,59.8211957 248.862889,60.1141233 248.569329,60.3106444 C248.374857,60.5053115 248.081297,60.7009056 247.885898,60.8955726 C247.6905,61.0920937 247.397866,61.2867608 247.202468,61.4823549 C247.007996,61.6788759 246.714436,61.873543 246.420876,61.9718035 C246.128241,62.0691371 245.932843,62.2638042 245.640209,62.3620647 C245.346649,62.4603252 245.152177,62.5585858 244.858617,62.7532528 C244.56413,62.8505864 244.273348,62.9488469 244.076098,63.0461805 L248.861037,61.7752825 L249.738939,61.4823549 L251.302124,60.7009056 L252.082791,60.2123839 L252.767147,59.6265286 L253.450578,59.0397464 L254.134008,58.3556307 L255.304545,56.7918051 L255.890739,55.9120952 L256.476008,55.0333124 L256.96404,54.055342 L257.452072,52.9800381 L257.842868,51.9047342 L258.232739,50.8303573 L307.835155,79.4677397 C309.983609,80.7395647 311.350469,82.986579 311.350469,85.527448 L311.350469,182.194488 C311.64403,181.705967 311.935738,181.314778 312.0339,180.922663 C312.522858,179.750953 313.011816,175.742665 312.912728,174.471767 C312.814566,173.200869 313.597085,171.832637 314.084191,172.223826 C314.573149,172.516753 315.158418,174.961216 314.963946,176.426781 C314.767621,177.893273 315.255654,178.381794 315.255654,178.381794 L315.64645,178.381794 L315.64645,76.9259437 C315.64645,75.9479734 315.451052,74.97093 315.158418,74.0921472 C315.060256,73.8965531 315.060256,73.7982925 314.963946,73.6026985 C314.864857,73.4080314 314.767621,73.3097709 314.767621,73.1141768 C314.767621,73.0159163 314.669459,72.9195097 314.669459,72.9195097 C314.572223,72.7229886 314.376825,72.5283216 314.279589,72.234467 C314.181427,72.1362064 314.181427,72.0397999 314.084191,72.0397999 C313.986955,71.9415393 313.888793,71.7450183 313.790631,71.6486117 C313.693395,71.5522052 313.597085,71.4530176 313.498923,71.3556841 C313.302599,71.16009 313.108126,71.0627565 312.912728,70.8671624 C312.814566,70.7689019 312.71733,70.6715683 312.620094,70.6715683 C312.521006,70.5733078 312.42377,70.5733078 312.326534,70.4750473 C312.228372,70.3767868 312.032974,70.2794532 311.935738,70.1821197 L260.087632,40.1765057 L260.087632,38.4124511 L259.988544,36.9459591 L259.890381,35.479467 L259.695909,34.013902 L259.500511,32.4491494 L259.402349,31.7641066 L259.305113,30.9826573 L259.011553,29.4188317 L258.620757,27.9523397 L258.230886,26.4858476 L257.841016,25.0202826 L257.352058,23.5537905 L256.864026,22.0872984 L256.277831,20.6208064 L255.693489,19.2525749 L255.108221,17.8843433 L254.423864,16.5161118 L253.740434,15.2452138 L253.057003,13.9743159 L252.276337,12.7043449 L251.494744,11.4325199 L250.615916,10.2598825 L249.737087,9.18550553 L248.859185,8.11020162 L247.980356,7.03397073 L247.003366,6.05692735 L246.026375,5.1781445 L245.05031,4.29750768 L244.07332,3.51605838 L243.097255,2.83101563 L242.120265,2.24608739 L240.170914,1.27089798 L239.194849,0.879709834 L238.217858,0.488521689 L237.241794,0.293854602 L236.264803,0.0982605295 L235.288739,0 L234.40991,0 L233.531081,0.0982605295 L232.652253,0.195594073 L231.773424,0.392115132 L226.989411,1.66301311 C227.282046,1.56475258 227.57468,1.56475258 227.86824,1.46741904 C228.063638,1.07530391 228.356272,1.07530391 228.648906,1.07530391 Z" id="Path" fill="url(#linearGradient-3)"></path>
                <path d="M300.034886,88.2830407 L275.759951,89.6517927 L256.651588,63.4479805 C257.041762,63.3496826 257.431936,63.4479805 257.920116,63.643649 C257.920116,63.643649 258.017197,63.643649 258.017197,63.7419469 L299.450549,87.6969625 L299.547631,87.7952605 C299.644712,87.7943331 299.839799,87.9900016 300.034886,88.2830407 Z M339.712455,44.9670458 L339.712455,44.2826697 L339.614449,43.9896307 L339.516443,43.599221 L339.419362,43.306182 L339.321356,42.914845 L339.22335,42.621806 L339.125344,42.3296942 L339.027338,42.0348005 L338.929333,41.7426888 L338.832251,41.4496497 L338.733321,41.1566107 L338.635315,40.8626443 L338.538234,40.5696052 L338.440228,40.2765661 L338.244216,39.9825998 L338.050054,39.6895607 L337.855891,39.3965216 L337.660804,39.1034826 L337.27063,38.5164771 L337.076468,38.321736 L336.880456,38.1251402 L336.687218,37.9294717 L336.492131,37.7338032 L336.296119,37.5381347 L336.101957,37.3415389 L335.712707,36.9511292 L335.516695,36.8528313 L335.419614,36.7545334 L333.951376,36.7545334 L333.85337,36.3641238 L333.756289,35.9727868 L333.657358,35.5823772 L333.559353,35.1910402 L333.461347,34.7997033 L333.364266,34.4092936 L333.265335,34.0179567 L333.167329,33.6266197 L333.070248,33.3335806 L332.972242,32.9422437 L332.874236,32.6492046 L332.775306,32.3561655 L332.582068,32.0631265 L332.386981,31.7700874 L332.191894,31.476121 L331.997731,31.183082 L331.80172,30.8909702 L331.704638,30.4996333 L331.509551,30.2065942 L331.315389,29.9135552 L331.120302,29.6195888 L330.925215,29.3265497 L330.730128,29.0335107 L330.535965,28.7404716 L330.341803,28.5448031 L330.145791,28.3482073 L329.951629,28.1525388 L329.756541,27.9568703 L329.561454,27.7602745 L329.366367,27.5655333 L329.074199,27.3698649 L328.879112,27.173269 L328.781106,26.3915224 L328.6831,25.6088485 L328.586019,24.728804 L328.488013,23.94613 L328.292926,23.0660855 L328.097839,22.2843389 L327.902752,21.4042944 L327.708589,20.6225478 L327.415496,19.8408012 L327.123328,19.0571999 L326.830235,18.2754533 L326.440061,17.4937067 L326.147893,16.7110328 L325.758643,15.9292862 L325.368469,15.1475396 L324.979219,14.3639383 L324.589045,13.6795623 L324.199796,12.9951863 L323.810546,12.3108102 L323.323291,11.6264342 L322.835111,11.0394288 L322.346931,10.4533506 L321.859675,9.86634519 L321.37242,9.28119441 L320.885164,8.69418896 L320.299903,8.10811084 L319.716491,7.61847596 L319.132155,7.12976842 L318.546893,6.64106088 L317.962557,6.24972391 L317.37822,5.85931428 L316.792959,5.46797731 L316.305703,5.17493825 L315.818448,4.97926976 L315.330268,4.78360128 L314.843013,4.58793279 L314.355757,4.39226431 L313.868502,4.2939664 L313.380322,4.19659582 L312.405811,4 L311.528381,4 L311.138207,4.09829791 L310.749882,4.19659582 L310.359708,4.2939664 L309.970458,4.39226431 L303.244115,8.30377933 L303.145184,8.20548142 L303.048103,8.10811084 L302.950097,8.00981293 L302.852091,7.91151502 L302.753161,7.81414445 L302.65608,7.71584653 L302.558074,7.61847596 L302.460993,7.52017805 L302.362987,7.42188014 L302.264056,7.32358223 L302.166051,7.22621165 L301.970964,7.02961583 L301.873882,6.93224526 L301.774952,6.83394734 L301.676946,6.73657677 L301.286772,6.53998095 L300.897522,6.34431246 L300.508273,6.14864398 L300.119023,6.05034607 L299.728849,5.95204815 L299.339599,5.85467758 L298.949425,5.75637967 L297.780752,5.75637967 L297.391502,5.85467758 L297.098409,5.95204815 L290.078973,10.0592317 C291.346577,9.56959678 293.00343,9.86263583 294.660283,10.8409783 C296.22098,11.7210228 297.58474,13.0897748 298.852344,14.7524933 C300.315035,8.68955226 304.89727,6.34338512 310.356934,9.56959678 C316.596022,13.0897748 321.665513,22.574596 322.249849,31.1784453 C324.785057,33.0359049 326.93009,36.6534535 327.710439,40.3693 C328.002607,40.4675979 328.392781,40.5649685 328.684949,40.760637 C331.123076,42.227687 333.171028,46.1373473 333.171028,49.5601548 C333.171028,51.5159123 332.487761,52.7872938 331.512325,53.3742992 C331.610331,53.2760013 331.707412,53.2760013 331.806343,53.1777034 L338.824855,49.0714472 L338.92286,48.9731493 L339.019942,48.8757788 L339.117948,48.6810376 L339.215953,48.4844418 L339.314884,48.2887733 L339.411965,48.0921775 L339.509971,47.896509 L339.607052,47.7017678 L339.705983,47.5060994 L339.803988,47.2130603 L339.901994,46.9190939 L340,46.6260548 L340,45.1599322 L339.712455,44.9670458 Z M107.300871,205.129583 C107.300871,205.421695 107.202865,205.61829 107.202865,205.91133 C107.104859,206.205296 107.104859,206.400037 107.007778,206.694003 C106.909772,206.98797 106.811766,207.182711 106.715609,207.476677 C106.617604,207.769716 106.519598,207.965385 106.325435,208.258424 C106.227429,208.551463 106.033267,208.748059 105.935261,208.943727 C105.83818,209.236766 105.643093,209.432435 105.448006,209.725474 C105.448006,209.823772 105.350924,209.92207 105.253843,209.92207 C105.155837,210.116811 105.058756,210.214182 104.863669,210.410777 C104.668582,210.703816 104.473495,210.899485 104.278408,211.094226 C104.084245,211.289895 103.889158,211.583861 103.596065,211.778602 C103.303897,211.974271 103.10881,212.169939 102.815717,212.462978 C102.523549,212.659574 102.328462,212.854315 102.036293,213.148281 C101.744125,213.343023 101.451032,213.537764 101.158864,213.73436 C101.061782,213.832658 100.86762,213.929101 100.769614,214.027399 C100.575452,214.125697 100.477446,214.223067 100.282359,214.321365 C100.086347,214.418736 99.9901904,214.516106 99.7941787,214.615331 C99.5990917,214.713629 99.502935,214.810073 99.3069233,214.90837 C98.9176737,215.104039 98.6236563,215.29878 98.2353313,215.494449 C97.8460817,215.690117 97.5529888,215.885786 97.1628146,216.081454 C96.7726405,216.275268 96.4795475,216.374493 96.090298,216.570162 C95.7001238,216.667532 95.3108742,216.864128 95.0187059,217.058869 C94.6285317,217.157167 94.237433,217.352836 93.849108,217.449279 C93.4589338,217.547577 93.0687597,217.742318 92.6794176,217.840616 C92.4841457,217.937986 92.2897058,217.937986 92.0941564,218.036284 C91.8989769,218.133655 91.7044445,218.133655 91.5100047,218.231025 C91.3147327,218.329323 91.1202928,218.329323 90.9250208,218.426694 C90.7294714,218.524064 90.5350316,218.524064 90.3408691,218.621435 C89.9508798,218.719733 89.4636244,218.818031 89.0726181,218.915401 C88.6830912,219.013699 88.1953735,219.11107 87.8056616,219.20844 C87.4159497,219.307666 86.928232,219.307666 86.5374107,219.405036 C86.1476988,219.502407 85.6599811,219.502407 85.2705466,219.502407 C84.8807423,219.601632 84.3930246,219.601632 84.0033127,219.601632 C83.6136008,219.601632 83.1258831,219.698075 82.7350618,219.698075 C82.3443329,219.698075 81.8580945,219.797301 81.4681053,219.797301 L78.8344297,219.797301 C78.4444404,219.797301 77.9570001,219.797301 77.5674732,219.698075 C77.0797555,219.698075 76.6900436,219.601632 76.3003317,219.601632 C75.9103425,219.502407 75.4229022,219.502407 75.0320808,219.502407 C74.6423689,219.502407 74.1549286,219.405036 73.7651243,219.405036 C73.3754124,219.306738 72.8876947,219.306738 72.4969658,219.20844 C72.1071615,219.11107 71.6194438,219.11107 71.2297319,219.013699 C70.84002,218.916329 70.3524872,218.818958 69.9617583,218.719733 C69.5720465,218.621435 69.0845137,218.524064 68.6946169,218.426694 C68.3048126,218.328396 67.9151007,218.231025 67.5253888,218.036284 C67.1353996,217.937059 66.7456877,217.840616 66.3559759,217.644947 C65.966264,217.546649 65.5762747,217.351908 65.1865629,217.25361 C64.796851,217.058869 64.4068618,216.959644 64.1138613,216.764903 C63.7238721,216.570162 63.3341602,216.470936 63.0421768,216.275268 C62.6524649,216.081454 62.3591871,215.885786 61.9694752,215.78656 C61.5796709,215.591819 61.2866704,215.397078 60.9945021,215.20141 C60.6047902,215.004814 60.4102579,214.810073 60.019529,214.615331 C59.7275456,214.418736 59.4342678,214.223994 59.142007,214.028326 C58.9470124,213.930028 58.850116,213.833585 58.7525725,213.735287 C58.654844,213.636989 58.4592947,213.539618 58.3628606,213.441321 C58.0705998,213.246579 57.8751429,213.049984 57.5828821,212.855242 C57.2898817,212.660501 57.0956267,212.464833 56.9001698,212.268237 C56.7048978,212.073496 56.5104579,211.878755 56.3149086,211.583861 C56.1196366,211.38912 55.9251967,211.194379 55.7307568,210.900412 C55.5354848,210.705671 55.3409525,210.411705 55.145773,210.215109 C55.0477671,210.020368 54.8535122,209.824699 54.6579628,209.53166 C54.5605117,209.335992 54.3660719,209.042025 54.2682509,208.846357 C54.1707999,208.651616 53.9762675,208.357649 53.8785391,208.162908 C53.7805332,207.968167 53.6830822,207.674201 53.5855386,207.478532 C53.4878102,207.184566 53.4878102,206.989825 53.3910987,206.695858 C53.2932778,206.501117 53.2932778,206.207151 53.1958267,206.010555 C53.1958267,205.815814 53.0978209,205.521847 53.0978209,205.327106 C53.0978209,205.03314 53,204.838399 53,204.544432 L53,208.748059 L53.0978209,209.433362 L53.1958267,210.215109 L53.3910987,210.900412 L53.5855386,211.583861 L53.8785391,212.268237 L54.2682509,212.952613 L54.6579628,213.637916 L55.145773,214.322292 L55.7307568,215.005741 L56.3149086,215.691044 L56.9001698,216.277123 L57.5828821,216.960571 L58.3628606,217.547577 L59.2398279,218.133655 L60.1172575,218.719733 L61.0922306,219.306738 L62.0672037,219.892816 L63.1388882,220.381524 L64.2115898,220.870232 L65.2835517,221.359866 L66.4524099,221.750276 L67.6221002,222.141613 L68.7915132,222.532023 L70.0594868,222.825062 L71.3267207,223.119028 L72.5944169,223.314697 L73.8616508,223.510365 L75.1298092,223.705106 L76.3967658,223.804332 L77.6639997,223.900775 L78.9321581,224 L81.4673656,224 L82.7343221,223.900775 L84.0022957,223.804332 L85.2691597,223.705106 L86.5363936,223.510365 L87.8046446,223.314697 L89.0715086,223.119028 L90.3397596,222.825062 L91.6069935,222.532023 L93.9461893,221.750276 L95.1148626,221.359866 L96.1883038,220.870232 L97.2589713,220.381524 L98.3314879,219.892816 L99.4049292,219.306738 L100.37944,218.719733 L102.134299,217.547577 L102.913723,216.864128 L103.694996,216.178825 L104.377338,215.494449 L104.961675,214.810073 L105.44893,214.125697 L105.936186,213.441321 L106.32636,212.659574 L106.715609,211.974271 L107.008702,211.192524 L107.203789,210.40985 L107.300871,209.627176 L107.398877,208.843575 L107.398877,203.759904 L107.398877,204.540723 C107.397952,204.639948 107.397952,204.932987 107.300871,205.129583 Z" id="Fill-5" fill="#9C27B0"></path>
                <path d="M243.588066,119.440308 C241.928571,119.635903 240.659872,119.831497 239.488409,119.92883 L239.488409,63.4345876 C240.854344,63.6311087 242.221205,63.5328482 243.588066,63.2389936 L243.588066,119.440308 Z M259.016183,164.693917 C259.699614,165.37896 263.99652,169.093393 268.586061,172.904233 L279.227388,179.062202 L279.227388,178.963942 L287.723965,183.948346 C292.020872,184.633389 296.803959,185.414838 297.586477,185.513099 C298.268981,185.610432 300.027565,185.90336 302.077856,185.90336 L302.077856,181.017216 L279.228314,167.821568 L271.905977,163.520353 L249.447231,150.521226 C249.251833,151.009748 249.153671,151.400936 249.056435,151.889458 L249.056435,155.018036 C249.447231,156.679195 250.033426,158.535948 250.228824,159.025397 C250.228824,159.025397 252.961619,160.88215 254.817439,161.76186 C256.575096,162.544236 257.453924,163.032758 259.016183,164.693917 Z M288.601867,143.484475 C280.303466,138.695664 271.905977,133.808593 263.508488,129.018856 L263.508488,132.927957 C271.905977,137.815954 280.205304,142.604765 288.601867,147.491836 L288.601867,143.484475 Z M288.601867,136.447723 C280.303466,131.657986 271.905977,126.770915 263.508488,121.981177 L263.508488,125.987611 C271.905977,130.875609 280.205304,135.66442 288.601867,140.552418 L288.601867,136.447723 Z M257.259452,64.0204429 L256.869582,63.8248488 C255.990753,63.3363271 255.306397,63.8248488 255.306397,64.9974863 L255.306397,90.3116234 C255.306397,90.8974786 255.697193,91.5815944 256.087989,91.7781155 L298.269908,116.212543 C299.148736,116.701991 299.832166,116.212543 299.832166,115.040832 L299.832166,89.7257682 C299.832166,89.1408399 299.442296,88.4557972 299.050574,88.2592761 L298.855176,88.1619426 C299.050574,88.3575367 299.245972,88.4557972 299.44137,88.7487248 L275.127731,90.1169563 L255.988901,63.9221824 C256.379698,63.6292547 256.77142,63.7275153 257.259452,64.0204429 Z M263.604798,139.868302 C272.002287,144.7563 280.30254,149.544183 288.699103,154.432181 L288.699103,150.42482 C280.399776,145.636009 272.002287,140.748939 263.604798,135.959201 L263.604798,139.868302 Z M318.28664,103.21527 L318.28664,96.2749252 L318.383876,96.1766646 L318.482038,96.0784041 L318.5802,96.0784041 L320.336931,95.1013607 L320.435093,95.0031002 L320.925904,95.0031002 L320.242473,94.612839 L319.457176,94.612839 L317.701372,95.687216 L317.602283,95.687216 L317.504121,95.7854765 L317.406885,95.88281 L317.406885,102.432894 L317.504121,102.530228 L317.504121,102.628488 L317.602283,102.726749 L317.701372,102.825009 L317.799534,102.922343 L318.5802,103.410864 L318.482038,103.312604 L318.383876,103.21527 L318.28664,103.21527 Z M320.141533,85.6220006 L320.043371,85.5237401 L319.454398,85.5237401 L317.698593,86.599044 L317.599505,86.599044 L317.501343,86.6973045 L317.404107,86.795565 L317.404107,93.5412431 L317.599505,93.7368372 L317.698593,93.8350977 L318.47926,94.3236194 L318.282936,94.1280253 L318.1857,94.0297648 L318.1857,87.1858262 L318.282936,87.0875657 L318.381098,86.9893051 L318.47926,86.9893051 L320.235991,86.0113348 L320.334153,85.9140012 L320.824037,85.9140012 L320.141533,85.6220006 Z M293.582205,33.9165684 L309.204794,43.0065944 L320.336005,49.4574908 L327.660194,53.6604459 C328.73442,54.2472281 329.710485,54.3454887 330.492077,53.856967 C331.469068,53.2701848 332.151572,51.9992868 332.151572,50.044273 C332.151572,46.6227673 330.102207,42.7136668 327.660194,41.2471747 C327.270323,41.0525076 326.975837,40.8569135 326.684129,40.8569135 C325.8053,37.1424801 323.754083,33.5263073 321.214834,31.669554 C320.629565,22.9697892 315.454756,13.5868357 309.302956,10.0679963 C303.833661,6.84301159 299.245046,9.28654702 297.780023,15.2489218 C296.510398,13.5859087 295.143537,12.2176772 293.581279,11.3388943 C291.920857,10.3609239 290.359525,10.1662569 288.991738,10.556518 C288.699103,10.6547785 288.407395,10.7521121 288.211071,10.9477062 C288.211071,10.9477062 288.111983,10.9477062 288.111983,11.0459667 C287.917511,11.1433002 287.723039,11.3388943 287.527641,11.4362278 C287.429479,11.5344884 287.429479,11.5344884 287.332243,11.6318219 C287.136845,11.828343 287.038682,11.9247495 286.942372,12.1212706 C286.942372,12.2186041 286.84421,12.2186041 286.84421,12.3168647 C286.45434,12.8053864 286.16078,13.3921686 285.965382,13.9780238 C285.965382,14.0762843 285.868146,14.1736179 285.868146,14.2709514 C285.769058,14.4665455 285.671822,14.7594731 285.671822,15.0533277 C285.671822,15.1515882 285.574586,15.3462553 285.574586,15.4445159 C285.476423,15.7383705 285.476423,16.0312981 285.476423,16.2268922 L285.476423,16.6180803 C285.476423,17.0083415 285.378261,17.4968631 285.378261,17.8889783 C285.380114,24.1424267 289.0899,31.2774389 293.582205,33.9165684 Z M236.166641,154.626848 L235.288739,156.777456 C235.288739,156.777456 240.170914,155.116297 242.709237,155.702152 C245.248487,156.288007 250.228824,159.122731 250.228824,159.122731 L250.129736,159.025397 C250.0325,158.634209 249.641703,157.753572 249.251833,156.580935 C249.251833,156.580935 244.369658,154.23566 242.709237,153.844472 C241.049742,153.551544 236.166641,154.626848 236.166641,154.626848 Z M303.346555,60.2086759 L302.07693,60.8927917 C301.588898,61.1857193 301.588898,61.9690226 302.07693,62.2610232 L309.887299,66.7569059 C310.376257,67.0498335 310.961525,67.0498335 311.54772,66.7569059 L312.719182,66.0727902 C313.304451,65.7798626 313.304451,64.9984132 312.719182,64.7045586 L304.908814,60.2086759 C304.518017,59.9157483 303.834587,59.9157483 303.346555,60.2086759 Z M307.153577,192.355183 L308.722318,192.355183 C308.821406,192.159589 308.918642,192.062256 308.918642,191.768401 C308.918642,191.671067 309.015878,191.573734 309.015878,191.475473 C309.015878,191.37814 309.114041,191.279879 309.114041,191.182546 C309.114041,190.986952 309.212203,190.792285 309.212203,190.597618 L309.212203,190.402023 C309.212203,190.107242 309.310365,189.814314 309.310365,189.522314 C309.408527,186.883184 307.455472,185.80788 307.455472,185.80788 L307.35731,185.905214 L307.259147,185.905214 C307.259147,185.905214 307.160985,185.905214 307.160985,186.003474 C307.062823,186.003474 307.062823,186.101735 306.966513,186.101735 L306.573865,186.101735 L304.816208,186.590257 L306.378467,186.101735 C306.378467,186.101735 306.280305,186.101735 306.280305,186.199068 L306.182143,186.297329 L305.29961,186.297329 C305.29961,186.297329 307.155429,187.763821 306.764633,189.816168 C308.033331,191.085212 307.153577,192.355183 307.153577,192.355183 Z M168.207913,276.707213 C168.109751,278.173705 167.230923,282.960661 167.230923,282.960661 L167.230923,283.743965 L169.281214,283.353703 C169.281214,283.353703 169.37845,283.059849 169.476612,282.669588 C169.769246,281.496023 170.355441,279.249009 170.453603,277.684256 C170.550839,276.120431 169.672936,274.459271 169.183978,273.578635 C168.98858,273.1893 168.794108,272.992779 168.794108,272.992779 L166.743816,273.578635 L167.133687,274.165417 C167.230923,274.165417 168.207913,275.338054 168.207913,276.707213 Z M276.00656,282.765994 C276.104722,282.277472 276.104722,281.887211 276.104722,281.887211 L274.347065,279.932198 C274.347065,279.932198 274.053505,284.42808 271.905977,285.406051 C270.440954,286.090166 268.487899,286.676022 267.316436,286.968949 C266.828404,287.068137 266.437608,287.16547 266.437608,287.16547 L267.316436,288.827556 C267.316436,288.827556 267.804469,288.923963 268.487899,288.923963 C269.660288,288.923963 271.417019,288.827556 273.076514,288.142514 C275.127731,287.163616 275.810236,284.232486 276.00656,282.765994 Z M158.150929,284.42808 C157.2721,290.389528 157.760133,295.278453 158.736197,298.209583 C159.322392,299.969003 158.833433,301.924016 158.443563,303.194914 C158.638961,303.194914 158.833433,303.194914 158.931595,303.097581 C159.028832,303.097581 159.126994,303.097581 159.126994,302.998393 C159.908586,302.705466 160.298456,300.262857 160.005822,299.382221 C159.322392,297.230686 158.248165,290.292195 159.322392,283.45011 C159.6141,281.494169 159.906734,279.735677 160.200294,278.07359 C160.492928,276.217764 160.492928,273.088259 158.150003,272.697998 C157.759207,272.59881 157.465646,272.59881 157.07485,272.59881 C160.59109,274.26275 158.931595,278.563039 158.150929,284.42808 Z M391.226631,165.37896 L392.398186,165.37896 L392.398186,153.259358 L391.226631,153.259358 L391.226631,165.37896 Z M391.226631,182.289041 L390.640436,182.581042 L391.226631,183.657272 L392.104533,183.167824 L392.398094,182.97223 L392.398094,171.438668 L391.226631,171.438668 L391.226631,182.289041 Z M469.145107,98.1326054 L375.699425,44.1792318 C373.74637,43.1039279 372.185037,44.2774924 372.185037,46.8183613 L372.185037,77.6072785 L446.881759,120.711206 C447.85875,121.297062 448.639416,122.763554 448.639416,124.034452 L448.639416,149.251255 L467.484686,160.100701 C469.339579,161.176005 471,160.00244 471,157.461571 L471,101.358517 C470.90369,100.184953 470.122098,98.7193876 469.145107,98.1326054 Z M376.969976,190.49843 L377.555244,191.573734 L386.050896,186.686663 L385.464701,185.610432 L376.969976,190.49843 Z M390.63951,113.087673 C403.235744,120.418279 415.63658,127.553291 428.133726,134.785637 L428.133726,128.725929 C415.63658,121.493583 403.137582,114.26031 390.63951,107.027964 L390.63951,113.087673 Z M390.63951,123.44767 C403.235744,130.777349 415.63658,137.913288 428.133726,145.145634 L428.133726,139.085925 C415.63658,131.852653 403.137582,124.61938 390.63951,117.387034 L390.63951,123.44767 Z M390.63951,133.905927 C403.235744,141.236533 415.63658,148.371545 428.133726,155.604818 L428.133726,149.544183 C415.63658,142.311837 403.137582,135.078564 390.63951,127.846219 L390.63951,133.905927 Z M157.955531,304.954334 C157.564735,304.757813 156.97854,304.757813 156.587744,304.954334 L107.961392,333.103195 C107.47336,333.396401 107.47336,334.080887 107.961392,334.275925 L122.705153,342.779818 C123.095949,343.073394 123.682144,343.073394 124.170176,342.779818 L172.796528,314.727549 C173.28456,314.434621 173.28456,313.750505 172.796528,313.457578 L157.955531,304.954334 Z M241.635937,255.887104 L215.173844,271.232433 L214.393178,273.578635 C214.393178,273.578635 211.853928,276.90188 206.582809,277.390402 C205.995689,277.488662 205.019624,277.585996 203.848161,277.684256 L196.427663,281.984545 C195.938704,282.278399 195.938704,282.962515 196.427663,283.255443 L211.171424,291.760541 C211.561294,292.053468 212.147488,292.053468 212.538285,291.760541 L253.353342,268.106636 C250.228824,263.707159 247.201542,259.505131 247.201542,259.505131 L241.635937,255.887104 Z M369.255917,94.7120266 L358.02747,99.4035033 L361.931729,101.650518 L361.931729,117.094107 L376.481018,125.500017 L376.481018,110.057355 L380.387128,112.305296 L369.255917,94.7120266 Z M98.6850743,192.746371 C95.2679222,190.791358 91.0689924,189.423126 86.5777988,188.73901 C86.9681321,190.302836 87.2615997,191.866662 87.6519329,193.430487 C89.8000158,194.016342 91.753071,194.799646 93.5102651,195.776689 C101.32156,200.272572 101.32156,207.700512 93.412103,212.198248 C85.5031091,216.790538 72.7120329,216.790538 64.9009233,212.295582 C57.3822626,207.897033 57.0898137,200.957615 64.2168446,196.363471 C64.5095714,196.167877 64.8020203,195.972283 65.0957658,195.87495 C65.3883999,195.678429 65.6808489,195.483761 66.0722008,195.385501 C66.5602331,195.0935 67.0487284,194.896979 67.6339041,194.701385 C67.536205,193.234893 67.4390616,191.671067 67.4390616,189.911648 C65.2905156,190.49843 63.240317,191.279879 61.3852387,192.25785 C60.8969286,192.453444 60.5065953,192.746371 60.1152434,192.941965 C59.7246324,193.138487 59.3342992,193.430487 58.9439659,193.627008 C54.1600456,196.754659 51.8163794,200.664687 52.0112219,204.574714 C52.0112219,204.867642 52.0112219,205.063236 52.1088283,205.356164 C52.1088283,205.454424 52.1088283,205.551758 52.2069904,205.746425 C52.2069904,205.844685 52.2069904,206.041206 52.3049673,206.137613 C52.4025738,206.430541 52.4025738,206.626135 52.5002728,206.822656 C52.5984349,207.115583 52.5984349,207.311177 52.6963192,207.604105 C52.7940183,207.799699 52.8910691,208.092627 52.9887681,208.288221 C53.0866524,208.581148 53.1843515,208.777669 53.3791014,208.972337 C53.4767078,209.070597 53.4767078,209.167004 53.5738513,209.363525 C53.6718281,209.460858 53.6718281,209.558192 53.7694346,209.753786 C53.8675967,210.046713 54.0618835,210.243235 54.2579299,210.436975 C54.4535132,210.632569 54.6482631,210.926423 54.8441243,211.12109 C55.0397076,211.317611 55.2344575,211.610539 55.4293,211.806133 C55.6240499,212.001727 55.8196332,212.294655 56.015124,212.490249 C56.2109851,212.685843 56.5034341,212.88051 56.6990174,213.076104 C56.8937673,213.271698 57.1875127,213.468219 57.4799617,213.662886 C57.577846,213.761147 57.7725958,213.857553 57.8702949,213.956741 C57.9681792,214.055001 58.1630217,214.152335 58.2611838,214.249669 C58.3587902,214.347929 58.5543736,214.44619 58.651517,214.543523 C58.7481048,214.641784 58.9439659,214.73819 59.0415724,214.836451 C59.1394567,214.935638 59.3342992,215.032045 59.5300677,215.130305 C59.7256511,215.228566 59.8227945,215.324972 60.0183778,215.42416 C60.3108268,215.618827 60.7021787,215.814421 60.9949054,216.010015 C61.3852387,216.205609 61.6787063,216.401203 62.0690395,216.498537 C62.4596506,216.694131 62.7531182,216.791465 63.1427105,216.987059 C63.5330438,217.085319 63.9243957,217.279986 64.2168446,217.476507 C64.6071778,217.573841 64.9980667,217.769435 65.3883999,217.866768 C65.7784553,217.965029 66.1688812,218.160623 66.5596774,218.25703 C66.7552608,218.356217 66.9500106,218.356217 67.1448531,218.452624 C67.339603,218.549957 67.5351864,218.550884 67.7310475,218.648218 C67.9265383,218.746478 68.1213807,218.746478 68.3161306,218.746478 C68.511714,218.844739 68.7064639,218.844739 68.9020472,218.942072 C69.0979084,218.942072 69.2926582,219.039406 69.4871303,219.039406 C69.6829915,219.138593 69.8777414,219.138593 70.0733247,219.138593 C70.4636579,219.235927 70.951968,219.33326 71.3423013,219.33326 C71.7326345,219.431521 72.2211298,219.431521 72.6125743,219.527928 C73.0029075,219.627115 73.4914028,219.627115 73.8817361,219.627115 C74.2720693,219.725376 74.7603794,219.725376 75.1507126,219.725376 L75.8347913,219.725376 C76.0303746,219.725376 76.2251245,219.725376 76.5185921,219.823636 C76.9089253,219.823636 77.3975133,219.823636 77.7888652,219.921897 L81.7936007,219.921897 C82.1842118,219.921897 82.672244,219.823636 83.0631329,219.823636 C83.5510726,219.823636 83.9414058,219.725376 84.3328503,219.725376 C84.7231835,219.725376 85.2116789,219.627115 85.6020121,219.627115 C85.7978732,219.627115 85.9926231,219.527928 86.1882065,219.527928 C86.3829563,219.527928 86.5785397,219.431521 86.7733822,219.431521 C87.1637154,219.332334 87.6519329,219.235 88.0433774,219.137666 C88.4337106,219.038479 88.9222059,218.942072 89.3125392,218.842885 C89.5081225,218.745551 89.7028724,218.745551 89.8977149,218.648218 C90.0932056,218.648218 90.2880481,218.549957 90.4838167,218.549957 C90.6794,218.451697 90.8741499,218.451697 91.0697332,218.35529 C91.2645757,218.25703 91.4603443,218.25703 91.654909,218.159696 C92.04552,218.060509 92.4360384,217.865841 92.8259086,217.768508 C93.2167049,217.671174 93.6075011,217.474653 93.9973713,217.378247 C94.1927695,217.279059 94.3881676,217.279059 94.5835657,217.18358 C94.7780378,217.084392 94.974362,217.084392 95.168834,216.987059 C95.3633061,216.890652 95.5587042,216.791465 95.7550284,216.694131 C95.9495005,216.594943 96.1448986,216.594943 96.3402968,216.498537 C96.7301669,216.302943 97.0237272,216.108276 97.4145234,215.912682 C97.8043936,215.718015 98.0988799,215.522421 98.487824,215.325899 C98.6841482,215.228566 98.7813843,215.131232 98.9758563,215.033899 C99.1712545,214.935638 99.2694165,214.837378 99.4638886,214.739117 C99.6602128,214.641784 99.7574488,214.54445 99.952847,214.44619 C100.051009,214.347929 100.245481,214.250596 100.342717,214.153262 C100.440879,214.055001 100.635351,213.957668 100.733513,213.85848 C100.831676,213.761147 101.026148,213.663813 101.12431,213.56648 C101.221546,213.468219 101.41787,213.369959 101.51418,213.175292 C101.612342,213.077031 101.806814,212.980625 101.904976,212.881437 C102.003138,212.784104 102.19761,212.68677 102.294846,212.491176 C102.393008,212.392915 102.588407,212.295582 102.685643,212.198248 C102.783805,212.099061 102.881041,212.002654 102.978277,211.80706 C103.075513,211.7088 103.173675,211.611466 103.369073,211.415872 C103.466309,211.318538 103.564471,211.221205 103.660781,211.026538 C103.758943,210.92735 103.857105,210.732683 103.954341,210.634423 C104.052503,210.537089 104.149739,210.439756 104.246975,210.245089 L104.345138,210.145901 C104.442374,210.048567 104.442374,209.950307 104.540536,209.950307 C104.73686,209.656452 104.931332,209.462712 105.028568,209.167931 C105.12673,208.973264 105.321202,208.679409 105.419364,208.484742 C105.517526,208.190887 105.711998,207.99622 105.81016,207.701439 C105.907397,207.604105 105.907397,207.507698 105.907397,207.312104 C106.005559,207.212917 106.005559,207.115583 106.005559,206.919989 C106.103721,206.725322 106.103721,206.431468 106.201883,206.13854 C106.299119,205.845612 106.299119,205.650018 106.299119,205.357091 C106.397281,205.064163 106.397281,204.868569 106.397281,204.575641 L106.397281,203.792338 C106.692693,199.881384 104.055282,195.874023 98.6850743,192.746371 Z M285.769984,289.316078 C282.84179,292.149875 278.739355,298.014916 275.419439,298.795438 C273.759944,299.185699 272.196759,298.894626 271.514255,298.111323 C271.319783,297.916655 271.220695,297.721061 271.026223,297.428134 C271.026223,297.328946 270.928061,297.328946 270.928061,297.231613 C271.513329,299.479554 272.684792,299.969003 274.150741,300.262857 C277.763291,301.044307 280.790573,296.450163 282.645466,293.908367 C285.574586,289.8046 293.287718,285.503384 290.847557,281.887211 C291.727311,283.547443 288.797266,286.382167 285.769984,289.316078 Z M334.788058,202.814368 C334.2991,202.618774 333.811067,202.618774 333.323035,202.814368 L322.58262,209.068743 L322.58262,216.302016 L322.484458,216.594943 L322.386296,216.889725 L322.287208,217.084392 L322.189046,217.378247 L322.09181,217.572914 L321.993648,217.768508 L321.896412,217.964102 L321.797324,218.159696 L321.602852,218.35529 L321.50469,218.549957 L321.309291,218.745551 L321.113893,218.842885 L314.083265,222.851173 C314.572223,222.459985 314.962094,221.970536 315.254728,221.384681 C315.254728,221.384681 315.254728,221.28642 315.353816,221.28642 C315.353816,221.18816 315.451052,221.091753 315.451052,220.992566 L315.451052,220.895232 C315.549214,220.601378 315.549214,220.211116 315.549214,219.819928 L315.549214,189.911648 C313.888793,190.40017 312.132988,190.791358 311.252307,191.084285 L311.252307,201.738137 C311.252307,204.4746 308.324114,206.136686 305.981188,204.768454 L288.795413,194.798719 C285.085627,195.092573 281.764785,195.18898 279.324624,194.994313 L283.62153,197.437848 C284.206799,197.829036 284.694831,198.513152 284.694831,199.197268 L284.694831,200.955761 C284.694831,201.738137 283.816002,202.226659 283.132572,201.836397 L265.753251,191.768401 C265.167057,191.37814 264.678099,190.694024 264.678099,190.009908 L264.678099,189.031938 C259.406053,186.099881 255.110073,183.167824 255.110073,183.167824 L252.668985,190.205502 L303.930897,219.820855 L284.792993,230.865895 C284.304035,231.15975 284.304035,231.842938 284.792993,232.136793 L299.53768,240.641891 C300.025712,240.934818 300.513745,240.934818 301.001777,240.641891 L349.628129,212.588509 C350.117087,212.295582 350.117087,211.611466 349.628129,211.318538 L334.788058,202.814368 Z" id="Fill-6" fill="#FFFFFF"></path>
                <path d="M254.441177,131.755624 C254.441177,132.727402 255.128732,138.84638 255.128732,140.884811 C255.128732,142.925084 254.540729,147.586855 253.560102,148.363356 C252.578545,149.140778 250.51774,147.78121 250.51774,147.78121 C250.51774,147.78121 249.832046,149.238417 249.341733,150.793262 C249.144491,151.27869 249.04587,151.667401 248.94911,152.15283 C248.850489,152.54062 248.752798,152.832614 248.752798,153.220404 C248.654178,153.80347 248.752798,154.483255 248.94911,155.356473 C249.341733,157.008035 249.929736,158.853032 250.126048,159.339381 C250.027427,158.95067 249.634804,158.075609 249.243112,156.910397 C249.243112,156.910397 244.338118,154.579972 242.669936,154.191261 C240.904994,153.899267 236,154.967762 236,154.967762 L236.784315,152.831693 L237.765872,150.305991 C237.765872,150.305991 242.474555,150.403629 245.221054,149.722924 C247.967553,149.140778 248.163864,144.090296 248.163864,143.799223 C248.163864,143.508151 246.691994,137.874602 248.750938,135.446538 C250.714982,133.017554 253.460551,135.446538 253.460551,135.446538 C253.460551,135.446538 252.283613,131.561269 252.578545,130.979123 C252.578545,130.881485 252.677166,130.881485 252.677166,130.783846 L252.774856,130.687129 C252.774856,130.687129 252.873477,130.590412 252.971168,130.590412 C253.167479,130.492773 253.461481,130.298418 253.853173,130.007345 C253.852243,129.910628 254.441177,130.783846 254.441177,131.755624 Z M322.62078,177.403398 C322.522159,175.752757 321.346152,174.586624 320.561837,176.529259 C319.874281,178.084103 317.029162,178.374255 315.950844,178.374255 L315.559152,178.374255 C315.559152,178.374255 315.067908,177.888827 315.26515,176.43162 C315.460531,174.974414 314.773906,172.546351 314.382214,172.255278 C313.89097,171.965126 313.105725,173.324694 313.204346,174.488985 C313.303897,175.751836 312.812653,179.732902 312.321409,180.899036 C312.222788,181.190108 311.930647,181.676458 311.634785,182.162808 C310.849539,183.327099 309.869843,184.493233 309.869843,184.493233 C309.869843,184.493233 311.832026,185.658445 311.733406,188.184147 C311.733406,188.476141 311.733406,188.864852 311.634785,189.058286 L311.634785,189.252642 C311.634785,189.447919 311.537094,189.641353 311.537094,189.834788 C311.537094,189.932426 311.438473,190.029143 311.438473,190.126781 C311.438473,190.22442 311.339852,190.322058 311.339852,190.417854 C311.241231,190.61221 311.143541,190.806566 311.143541,191 C311.143541,191 311.339852,190.902362 311.731545,190.902362 C312.614481,190.708006 314.381284,190.222578 316.048535,189.737149 C317.912098,189.251721 319.58028,188.668654 319.972902,188.377581 C320.953529,187.60108 322.031846,187.212369 322.719401,185.560807 C323.308335,184.007804 322.818022,178.957322 322.62078,177.403398 Z" id="Fill-7" fill="#FFF3E0"></path>
                <path d="M293.582205,33.9165684 L309.204794,43.0065944 L320.336005,49.4574908 L327.660194,53.6604459 C328.73442,54.2472281 329.710485,54.3454887 330.492077,53.856967 C331.469068,53.2701848 332.151572,51.9992868 332.151572,50.044273 C332.151572,46.6227673 330.102207,42.7136668 327.660194,41.2471747 C327.270323,41.0525076 326.975837,40.8569135 326.684129,40.8569135 C325.8053,37.1424801 323.754083,33.5263073 321.214834,31.669554 C320.629565,22.9697892 315.454756,13.5868357 309.302956,10.0679963 C303.833661,6.84301159 299.245046,9.28654702 297.780023,15.2489218 C296.510398,13.5859087 295.143537,12.2176772 293.581279,11.3388943 C291.920857,10.3609239 290.359525,10.1662569 288.991738,10.556518 C288.699103,10.6547785 288.407395,10.7521121 288.211071,10.9477062 C288.211071,10.9477062 288.111983,10.9477062 288.111983,11.0459667 C287.917511,11.1433002 287.723039,11.3388943 287.527641,11.4362278 C287.429479,11.5344884 287.429479,11.5344884 287.332243,11.6318219 C287.136845,11.828343 287.038682,11.9247495 286.942372,12.1212706 C286.942372,12.2186041 286.84421,12.2186041 286.84421,12.3168647 C286.45434,12.8053864 286.16078,13.3921686 285.965382,13.9780238 C285.965382,14.0762843 285.868146,14.1736179 285.868146,14.2709514 C285.769058,14.4665455 285.671822,14.7594731 285.671822,15.0533277 C285.671822,15.1515882 285.574586,15.3462553 285.574586,15.4445159 C285.476423,15.7383705 285.476423,16.0312981 285.476423,16.2268922 L285.476423,16.6180803 C285.476423,17.0083415 285.378261,17.4968631 285.378261,17.8889783 C285.380114,24.1424267 289.0899,31.2774389 293.582205,33.9165684 Z" id="Path" fill="#E1BEE7"></path>
                <g id="Group-10" transform="translate(0.000000, 151.000000)">
                    <mask id="mask-5" fill="white">
                        <use xlink:href="#path-4"></use>
                    </mask>
                    <g id="Clip-9"></g>
                    <path d="M453.921387,84.62475 L322.878738,8.81907353 L322.878738,57.1743529 L333.611565,50.9225294 C334.100177,50.7261176 334.587865,50.7261176 335.075552,50.9225294 L349.809823,59.4210441 C350.298435,59.7147353 350.298435,60.3984706 349.809823,60.6912353 L301.217825,88.8253676 C300.82823,89.1181324 300.24245,89.1181324 299.754762,88.8253676 L285.020492,80.325 C284.532804,80.0313088 284.532804,79.3475735 285.020492,79.0548088 L304.144875,68.0159118 L252.919179,38.4170294 L243.160802,66.6484412 C243.160802,66.6484412 242.575948,70.2626029 236.525661,71.7282794 L236.623754,71.7282794 C236.623754,71.7282794 254.870855,93.9033529 259.35721,98.5922206 C262.967208,102.402794 271.456857,120.962779 274.676335,127.996544 L276.43275,129.950471 C276.43275,129.950471 276.43275,130.244162 276.335583,130.828765 C277.701478,130.828765 282.384944,130.731485 285.018641,129.167603 C288.141877,127.312809 289.8002,127.019118 291.166095,130.04775 C293.50829,133.661912 285.800607,137.960735 282.970724,142.062221 C281.214308,144.602603 278.190091,149.095985 274.481075,148.413176 C273.018012,148.118559 271.749284,147.630309 271.261597,145.383618 C270.383389,143.722456 270.676742,142.062221 270.676742,142.062221 C270.286222,141.867662 269.310847,138.644471 268.920327,137.079662 C268.237379,137.079662 267.748766,136.981456 267.748766,136.981456 L266.872409,135.320294 C266.872409,135.320294 267.163911,135.223941 267.748766,135.125735 C265.797091,132.879044 261.505071,127.799206 259.456228,124.674221 C258.284667,122.915779 256.040565,119.594382 253.699294,116.370265 L212.913073,140.010088 C212.522552,140.304706 211.936772,140.304706 211.547177,140.010088 L196.812907,131.5125 C196.32522,131.218809 196.32522,130.536 196.812907,130.242309 L204.229089,125.942559 C196.32522,127.017265 176.615982,129.850412 169.882748,130.827838 C169.784655,131.217882 169.686563,131.511574 169.686563,131.511574 L167.63772,131.901618 L167.63772,131.11875 C167.63772,131.11875 162.466567,137.566059 161.295931,141.670324 C160.125296,145.773662 162.661827,148.508603 160.709226,150.461603 C160.417724,150.755294 160.027204,151.047132 159.637609,151.145338 C159.539516,151.145338 159.441423,151.145338 159.441423,151.244471 C159.246163,151.244471 159.051829,151.34175 158.953736,151.34175 L158.855643,151.34175 C158.758476,151.34175 158.56229,151.34175 158.466048,151.244471 L158.367956,151.244471 C158.173621,151.145338 157.977435,151.145338 157.783101,151.048059 C157.685933,151.048059 157.587841,150.949853 157.587841,150.8535 C157.587841,150.8535 157.489748,150.8535 157.489748,150.755294 C157.392581,150.656162 157.392581,150.656162 157.294488,150.559809 C157.196395,150.461603 157.099228,150.36525 157.00206,150.36525 C156.903968,150.267044 156.8068,150.168838 156.8068,150.168838 C156.708708,150.070632 156.708708,150.070632 156.610615,149.974279 C156.512522,149.876074 156.512522,149.876074 156.415355,149.778794 L156.317262,149.680588 C156.220095,149.582382 156.122002,149.486029 156.122002,149.290544 C156.023909,149.192338 156.023909,149.095059 155.926742,148.9005 C155.828649,148.606809 155.634315,148.411324 155.536222,148.118559 C155.536222,148.020353 155.439054,147.922147 155.439054,147.824868 C155.340962,147.532103 155.242869,147.335691 155.146627,147.042926 C155.146627,146.944721 155.048534,146.847441 155.048534,146.652882 C154.950442,146.261912 154.853274,145.870941 154.756107,145.381765 C153.585472,139.813676 154.365587,127.211824 155.340962,123.890426 C155.439054,123.597662 155.536222,123.402176 155.536222,123.207618 C155.536222,123.109412 155.634315,123.011206 155.634315,122.913926 C155.731482,122.717515 155.731482,122.522956 155.829575,122.328397 C155.829575,122.229265 155.829575,122.229265 155.927667,122.229265 C156.024835,122.131985 156.024835,121.9365 156.122927,121.839221 C156.122927,121.839221 156.122927,121.741015 156.22102,121.741015 C156.319113,121.643735 156.41628,121.44825 156.41628,121.350971 L156.514373,121.252765 C156.61154,121.155485 156.61154,121.057279 156.708708,121.057279 L156.8068,120.96 C156.903968,120.861794 157.00206,120.861794 157.00206,120.763588 C157.00206,120.763588 157.100153,120.763588 157.100153,120.667235 L157.197321,120.667235 C157.393506,120.667235 157.490673,120.568103 157.783101,120.568103 C158.075528,120.568103 158.466974,120.667235 158.953736,120.762662 C161.099746,121.154559 167.930147,122.131059 167.930147,122.131059 L167.539627,121.544603 L169.58847,120.96 C169.58847,120.96 169.78373,121.155485 169.978065,121.544603 C173.490895,120.470824 180.907077,118.126853 185.004762,117.051221 C190.566435,115.585544 201.397355,112.460559 201.397355,112.460559 C201.397355,112.460559 203.54429,86.9631618 204.422498,81.88425 C205.300706,76.8044118 208.910704,66.2537647 208.910704,66.2537647 C207.544808,64.9835735 207.641976,64.0070735 207.641976,64.0070735 C207.641976,64.0070735 226.083411,14.6762206 231.06023,9.69273529 C236.037048,4.71110294 236.329476,4.61382353 236.329476,4.61382353 L236.230458,4.90566176 L237.108665,2.75717647 L237.88878,0.608691176 L103.52856,78.2700882 C105.675496,78.0746029 107.627171,78.95475 107.627171,78.95475 C105.675496,80.9086765 106.357518,84.5219118 103.626653,88.0387941 C100.894863,91.5556765 92.8938266,92.2394118 92.8938266,92.2394118 C92.8938266,92.2394118 97.3811069,90.5791765 98.8450948,83.0562353 C99.0412802,81.88425 99.430875,81.0050294 99.9185625,80.3212941 L4.88113185,135.318441 C1.85580363,137.076882 0.489630847,140.301 0.782983669,143.329632 C0.782983669,143.427838 0.782983669,143.62425 0.88079879,143.719676 C0.88079879,143.915162 0.978891532,144.111574 0.978891532,144.207926 C0.978891532,144.404338 1.07642903,144.501618 1.07642903,144.697103 C1.07642903,144.795309 1.17405907,144.990794 1.17405907,145.088074 C1.27187419,145.283559 1.27187419,145.478118 1.36950423,145.673603 C1.46759698,145.772735 1.46759698,145.869088 1.56411653,146.0655 C1.66193165,146.260059 1.76011694,146.454618 1.85765444,146.651029 C1.95528448,146.748309 1.95528448,146.845588 2.0530996,146.943794 C2.15119234,147.139279 2.34534194,147.333838 2.44343468,147.53025 C2.5412498,147.627529 2.5412498,147.724809 2.63887984,147.724809 C2.83451008,147.919368 2.93130726,148.114853 3.12703004,148.310338 C3.22456754,148.408544 3.22456754,148.408544 3.3224752,148.505824 C3.51810544,148.700382 3.71253266,148.895868 3.90714496,148.994074 C4.20040524,149.188632 4.4929252,149.385044 4.78516754,149.579603 L177.395171,249.324909 C182.566325,252.352893 188.810946,252.352893 193.983024,249.324909 L454.506242,98.7886324 C455.872137,98.0076176 456.94653,96.9338382 457.629478,95.6627206 L457.629478,95.5645147 C457.823812,95.27175 457.921905,94.9799118 458.019073,94.6862206 C458.019073,94.5870882 458.019073,94.5870882 458.117165,94.4916618 C458.214333,94.1970441 458.312425,94.0024853 458.410518,93.7087941 C458.410518,93.6105882 458.410518,93.5142353 458.507685,93.4151029 C458.605778,93.2205441 458.605778,92.9268529 458.605778,92.7322941 L458.605778,92.3413235 C458.312425,89.6063824 456.94653,86.3831912 453.921387,84.62475 Z M179.932627,47.4056471 C187.152623,45.1589559 187.738403,53.1692206 187.738403,53.1692206 C185.10378,52.3872794 182.274823,54.7331029 177.882859,53.9502353 C173.491821,53.2665 169.101708,46.5264265 169.101708,46.5264265 C169.101708,46.5264265 172.613613,49.6523382 179.932627,47.4056471 Z M173.1013,162.871676 L124.509302,190.908344 C124.021615,191.201757 123.533927,191.201757 123.045315,190.908344 L108.31197,182.409181 C107.824282,182.116324 107.824282,181.43194 108.31197,181.237103 L156.903968,153.103897 C157.294488,152.907485 157.880268,152.907485 158.270788,153.103897 L173.004133,161.603338 C173.588988,161.895176 173.588988,162.677118 173.1013,162.871676 Z M375.666514,88.2389118 C372.934724,91.7557941 364.932762,92.4395294 364.932762,92.4395294 C364.932762,92.4395294 369.421893,90.7792941 370.884956,83.2554265 C372.348944,75.8316176 379.667032,79.1539412 379.667032,79.1539412 C377.81345,81.1069412 378.398304,84.7211029 375.666514,88.2389118 Z M223.938327,92.6340882 L241.892075,104.063956 L215.448677,119.40075 L223.938327,92.6340882 Z" id="Fill-8" fill="url(#linearGradient-6)" mask="url(#mask-5)"></path>
                </g>
                <path d="M271.904193,285.275027 C270.438177,285.960436 268.483488,286.547398 267.309562,286.84088 C265.353019,284.588689 261.052333,279.496416 258.998426,276.363781 C257.825428,274.601036 255.577721,271.271508 253.230797,268.039499 C250.101255,263.633564 247.070931,259.422663 247.070931,259.422663 L241.399738,255.799655 L223.410668,244.342737 L214.806515,271.173991 L214.023898,273.524628 C214.023898,273.524628 211.481319,276.854155 206.202361,277.3436 C205.615398,277.442047 204.637127,277.540493 203.465056,277.637082 C195.545228,278.714418 175.796197,281.554501 169.049369,282.53432 C169.342387,281.358537 169.92935,279.107275 170.02764,277.540493 C170.125004,275.972783 169.244096,274.308483 168.755424,273.426182 C172.27442,272.350703 179.706502,269.999137 183.811533,268.9218 C189.384436,267.453465 200.23815,264.319901 200.23815,264.319901 C200.23815,264.319901 202.38942,238.761019 203.268474,233.668746 C204.148455,228.576473 207.767596,218 207.767596,218 C207.962323,218.195964 208.256268,218.391928 208.548359,218.587891 C208.646649,218.587891 208.646649,218.685409 208.74494,218.685409 C208.843231,218.783855 208.940595,218.783855 209.037958,218.882302 C209.136249,218.979819 209.233612,218.979819 209.330976,219.077337 C209.428339,219.175783 209.52663,219.175783 209.623994,219.272372 C209.721357,219.371747 209.819648,219.371747 209.917939,219.469264 C210.015302,219.469264 210.112666,219.566782 210.112666,219.566782 C210.210957,219.665228 210.406611,219.665228 210.503974,219.761817 C210.601338,219.761817 210.601338,219.861192 210.699629,219.861192 C210.895283,219.959638 210.992647,220.057156 211.188301,220.057156 L211.286592,220.057156 C212.45959,220.546601 213.828243,221.036046 215.588205,221.525491 L215.686496,221.525491 C215.980441,221.624866 216.371749,221.721455 216.664767,221.819901 L216.860422,221.819901 C217.154367,221.918348 217.545675,222.015865 217.936057,222.114311 C218.034347,222.114311 218.132638,222.114311 218.229074,222.211829 C218.620383,222.311204 218.914328,222.407793 219.30471,222.407793 C219.403,222.407793 219.501291,222.407793 219.597727,222.506239 C219.989036,222.605614 220.379417,222.702203 220.67429,222.702203 C220.771653,222.702203 220.96638,222.800649 221.064671,222.800649 C221.45598,222.899095 221.847288,222.899095 222.140306,222.995684 C222.629906,223.095059 223.215014,223.191648 223.801977,223.290094 C224.487231,223.38854 225.073266,223.485129 225.659302,223.485129 C225.855884,223.485129 225.95232,223.485129 226.148902,223.584504 C226.637574,223.584504 227.028882,223.682951 227.517554,223.682951 L228.006227,223.682951 C228.494899,223.682951 228.886207,223.780468 229.37488,223.780468 L232.894803,223.780468 C233.18782,223.780468 233.480838,223.682951 233.774783,223.682951 L234.165165,223.682951 C234.458183,223.682951 234.752128,223.584504 234.946855,223.584504 C235.045146,223.584504 235.143436,223.584504 235.2408,223.485129 C235.533818,223.387612 235.925126,223.387612 236.219071,223.290094 L236.316435,223.290094 C236.316435,223.290094 254.600377,245.519449 259.097644,250.219794 C262.714931,254.039695 271.221721,272.645113 274.446772,279.696095 C274.251118,279.69238 273.957172,284.295208 271.904193,285.275027 Z M290.871534,281.749536 C289.503809,278.71349 287.841211,279.0079 284.711669,280.868163 C282.072654,282.533391 277.379732,282.62998 276.011079,282.533391 C275.814498,284.001726 275.131098,287.037772 273.078119,287.919145 C271.415521,288.604554 269.655559,288.799589 268.483488,288.703 C268.873869,290.268853 269.852141,293.500863 270.241595,293.697756 C270.241595,293.697756 269.948577,295.362984 270.828558,297.027283 C270.828558,297.124801 270.926849,297.124801 270.926849,297.222318 C271.02514,297.418282 271.220794,297.614246 271.415521,297.908656 C272.198138,298.790029 273.762445,298.985064 275.325825,298.593136 C278.650094,297.81021 282.659617,291.934081 285.68994,289.094928 C288.721191,286.252988 291.655079,283.412906 290.871534,281.749536 Z M158,272.642326 C160.346925,273.033325 160.346925,276.166889 160.053907,278.029009 C159.760889,279.594862 159.467871,281.455126 159.173926,283.413835 C158.196582,290.3673 159.173926,297.221389 159.85918,299.376991 C160.15127,300.160847 159.760889,302.608072 158.979199,303 C159.370507,302.900625 159.761816,302.608072 160.054834,302.313662 C162.01045,300.258364 159.468798,297.613317 160.641797,293.500863 C161.814796,289.388409 166.996389,282.92439 166.996389,282.92439 C166.996389,282.92439 167.87637,278.125598 167.974661,276.657263 C168.072024,275.286445 166.996389,274.111591 166.996389,274.111591 C166.996389,274.111591 160.15127,273.033325 158,272.642326 Z" id="Fill-11" fill="#FF6F00"></path>
                <path d="M265.115694,188.37981 C269.811777,191.005375 275.290076,193.534105 279.105586,194.116949 C279.3023,194.116949 279.594587,194.213783 279.791301,194.213783 C282.138879,194.505205 285.562816,194.311538 289.280896,194.019194 C295.933912,193.435428 303.565859,192.366573 307.673656,191.685974 C307.673656,191.685974 308.554229,190.519364 308.945801,188.378888 C309.337374,186.33709 307.478797,184.975891 307.478797,184.879058 C305.913436,185.17048 304.249719,185.267313 302.685285,185.17048 C300.629995,185.072725 298.869776,184.879058 298.184061,184.781303 C297.400916,184.684469 292.607404,183.906115 288.301966,183.226437 C284.584813,182.642671 281.160876,182.156661 281.160876,182.156661 C281.160876,182.156661 274.898504,177.100121 269.028632,172.237248 C264.429979,168.445073 260.125468,164.847488 259.44068,164.069133 C257.875319,162.417435 256.993818,162.028257 255.135242,161.153069 C253.276666,160.277881 250.634945,158.528427 250.537516,158.430672 L250.635873,158.528427 C250.635873,158.528427 245.645647,155.708274 243.102283,155.124508 C240.557992,154.541664 235.666123,156.194285 235.666123,156.194285 L235.76448,155.901941 C235.76448,155.901941 235.471264,155.999696 230.481966,160.958481 C225.49174,165.917265 207.001551,215.022785 207.001551,215.022785 C207.001551,215.022785 206.903194,215.995729 208.272769,217.259172 C208.469483,217.453761 208.762699,217.648349 209.054986,217.842938 C209.153343,217.842938 209.153343,217.939771 209.2517,217.939771 C209.349129,218.037527 209.447486,218.037527 209.544915,218.13436 C209.642344,218.232116 209.740701,218.232116 209.839058,218.329871 C209.936487,218.426704 210.033916,218.426704 210.132273,218.523538 C210.229703,218.621293 210.32806,218.621293 210.424561,218.717204 C210.522918,218.717204 210.621275,218.815882 210.621275,218.815882 C210.719632,218.913637 210.91449,218.913637 211.011919,219.009548 C211.110276,219.009548 211.110276,219.108226 211.208633,219.108226 C211.404419,219.204137 211.502776,219.301892 211.697634,219.301892 L211.795991,219.301892 C212.96978,219.787903 214.340283,220.274836 216.100502,220.760847 L216.198859,220.760847 C216.492074,220.858602 216.883647,220.954513 217.176862,221.053191 L217.373576,221.053191 C217.666791,221.149102 218.058363,221.246857 218.449008,221.344613 C218.547365,221.344613 218.644794,221.344613 218.742223,221.441446 C219.133795,221.540124 219.42701,221.636035 219.818582,221.636035 C219.916939,221.636035 220.014369,221.636035 220.111798,221.734712 C220.50337,221.831546 220.894942,221.927457 221.188157,221.927457 C221.286514,221.927457 221.481372,222.026134 221.57973,222.026134 C221.970374,222.12389 222.361946,222.12389 222.655161,222.220723 C223.144163,222.317556 223.731521,222.414389 224.317951,222.513067 C225.002739,222.6099 225.590097,222.706734 226.176528,222.706734 C226.372314,222.706734 226.469743,222.706734 226.665529,222.804489 C227.155458,222.804489 227.546102,222.901322 228.036032,222.901322 L228.525033,222.901322 C229.014034,222.901322 229.405607,223 229.894608,223 L233.415974,223 C233.709189,223 234.002405,222.901322 234.296548,222.901322 L234.68812,222.901322 C234.982263,222.901322 235.275478,222.804489 235.471264,222.804489 C235.569621,222.804489 235.66705,222.804489 235.76448,222.706734 C236.058623,222.608978 236.448339,222.608978 236.74341,222.513067 C242.907425,221.054113 243.396426,217.456527 243.396426,217.456527 L253.180164,189.354598 L255.626099,182.353094 C255.430313,182.545838 259.832253,185.462824 265.115694,188.37981 Z" id="Fill-12" fill="#9C27B0"></path>
                <path d="M245.225352,149.504248 C247.950199,148.91514 248.144039,143.812325 248.144039,143.519167 C248.144039,143.225078 246.683773,137.533155 248.728331,135.079933 C250.675045,132.62578 253.399892,135.079933 253.399892,135.079933 C253.399892,135.079933 252.232232,131.154405 252.523916,130.566227 C252.523916,130.467577 252.62176,130.467577 252.62176,130.368927 L252.719603,130.271207 C252.719603,130.271207 252.817447,130.172557 252.914367,130.172557 C253.108208,130.073907 253.401738,129.878468 253.789419,129.584379 C254.764161,128.897552 256.027818,127.621615 257.293321,124.383846 C259.53172,118.789642 255.737057,113 255.737057,113 C254.568474,115.845961 254.17987,117.612356 245.517959,119.083731 C244.738904,119.182381 244.057693,119.281031 243.473401,119.37782 C241.819294,119.57512 240.553791,119.770559 239.387054,119.869209 C235.88223,120.261017 234.812414,120.653756 233.546911,123.792876 C231.79496,128.307513 234.812414,129.877538 234.812414,129.877538 C234.812414,129.877538 232.767856,133.803066 233.936438,138.610861 C235.006254,143.320936 237.828944,149.993776 237.828944,149.993776 C237.828944,149.993776 242.596503,150.092426 245.225352,149.504248 Z" id="Fill-13" fill="#212121"></path>
            </g>
        </g>
    </g>
</svg>