<?xml version="1.0" encoding="UTF-8"?>
<svg width="417px" height="307px" viewBox="0 0 417 307" version="1.1" xmlns="http://www.w3.org/2000/svg" xmlns:xlink="http://www.w3.org/1999/xlink">
    <!-- Generator: Sketch 64 (93537) - https://sketch.com -->
    <title>Feature3</title>
    <desc>Created with Sketch.</desc>
    <defs>
        <linearGradient x1="-0.000217262364%" y1="50.0003371%" x2="99.9995655%" y2="50.0003371%" id="linearGradient-1">
            <stop stop-color="#9C27B0" offset="0%"></stop>
            <stop stop-color="#E1BEE7" offset="100%"></stop>
        </linearGradient>
    </defs>
    <g id="Landing" stroke="none" stroke-width="1" fill="none" fill-rule="evenodd">
        <g transform="translate(-72.000000, -4455.000000)" id="Top-Coins">
            <g transform="translate(-10.000000, 4200.000000)">
                <g id="Feature3" transform="translate(82.000000, 255.000000)">
                    <g id="Group">
                        <path d="M49.130422,47.9572149 C48.9348122,47.8588914 48.7404767,47.7612065 48.5455041,47.6635215 L48.5455041,44.7310567 L40.1559473,39.8429768 L40.1559473,48.1519464 L37.0338369,46.2946548 L38.7892276,49.0317497 C37.8137273,48.1519464 36.8382271,47.4681515 35.7646034,46.8814032 C35.3746582,46.5883482 34.8865895,46.3929783 34.4966443,46.1969698 L34.4966443,31.0449438 L56.057047,43.459875 L56.057047,55.1910112 C54.2035328,52.1608614 51.8613128,49.5201746 49.130422,47.9572149 Z" id="color_12" fill="#E1BEE7"></path>
                        <path d="M60.8137203,129.353933 L53.0123883,124.796895 L51.7449664,124.003636 L51.7449664,91.4101124 L79.3422819,107.657053 L79.3422819,123.111381 C77.1972181,121.922785 75.1483255,121.724147 73.5879318,122.219772 L69.7843923,119.941577 L69.7843923,109.04364 L59.0577997,102.702739 L59.0577997,113.600677 L54.9619252,111.222839 L62.9587841,124.002989 C61.5932803,125.192231 60.8137203,126.976095 60.8137203,129.353933 Z" id="color_12_7" fill="#E1BEE7"></path>
                        <polygon id="color_12_8" fill="#E1BEE7" points="18.0624443 121.592697 8.62416107 106.687408 12.710716 109.025704 12.710716 98.3089888 23.5107606 104.544446 23.5107606 115.261162 27.5973154 117.598822"></polygon>
                        <path d="M33.5350972,107.010865 C30.8389945,105.218401 28.2420228,102.927743 25.945705,100.138888 C24.3472174,100.636433 22.4500324,100.337906 20.3526288,99.2426566 C20.1530624,99.1424972 19.9534961,99.0429882 19.7545819,98.9441295 C19.5543633,98.7444611 19.3554491,98.6449521 19.0547952,98.5460934 C18.1560943,97.9483889 17.3578287,97.3513347 16.5582588,96.5539617 C14.859988,97.4501933 12.5636703,97.3506843 10.0671339,96.0557662 C9.86756755,95.9562571 9.66800117,95.8567481 9.46843478,95.7572391 C9.2688684,95.6570797 9.06930202,95.458712 8.76930026,95.3585526 C7.47081441,94.5624803 6.27276393,93.4665803 5.17449664,92.2724719 L5.17449664,119.059262 L33.6342282,135.390449 L33.5350972,107.010865 Z" id="color_12_9" fill="#E1BEE7"></path>
                        <path d="M125.050336,49.6051028 L125.050336,57.7780899 C124.073874,56.3825113 122.899567,55.1861152 121.725261,54.4889768 C119.287298,52.9938071 117.13653,53.6922473 116.351532,55.8839044 C115.572915,55.0871749 114.692185,54.3893856 113.811455,53.7905366 C110.977802,52.1970775 108.635571,52.6950335 107.556996,54.8873416 C107.365533,54.7877504 107.167688,54.588568 106.976225,54.4889768 C106.389072,54.090612 105.801918,53.8914296 105.214765,53.7905366 L105.214765,37.9438202 L125.050336,49.6051028 Z" id="color_12_10" fill="#E1BEE7"></path>
                        <polygon id="color_12_11" fill="#E1BEE7" points="71.5325591 210.41573 62.0939597 195.51067 66.1806515 197.849031 66.1806515 187.132022 76.9810578 193.366378 76.9810578 204.083386 81.0671141 206.421747"></polygon>
                        <polygon id="color_12_12" fill="#E1BEE7" points="58.6442953 175.921348 58.6442953 208.148092 71.925199 215.69074 73.7226832 216.670196 80.2134534 220.295017 87.1040268 224.213483 87.0042391 191.986099"></polygon>
                        <path d="M136.819807,163.834553 L146.308987,159.761311 L142.200204,157.376547 L142.200204,146.446865 L131.337169,140.087495 L131.337169,140.783781 C131.241319,140.485929 131.139078,140.187428 130.947378,139.889576 C131.53526,139.392506 131.829201,138.598234 131.829201,137.504812 C131.829201,135.617117 130.845138,133.43157 129.477673,131.941011 L151.689385,144.957605 L151.785235,177.646067 L151.395444,177.447499 L130.749287,165.32576 C130.653437,162.444576 129.867464,159.364824 128.5,156.383706 C129.285973,155.68742 129.771614,154.595296 129.969705,153.104737 L136.819807,163.834553 Z" id="color_12_13" fill="#E1BEE7"></path>
                        <path d="M174.208054,89.4538902 L174.208054,62.0898876 L202.563799,78.4084671 L202.667785,78.308385 L202.667785,89.6521048 C199.483207,88.756565 196.994037,90.1499157 195.999668,93.1348315 C194.608852,91.7421307 193.11405,90.5476445 191.521761,89.6521048 C186.647407,86.8660534 182.46846,87.7615931 180.674697,91.4425343 C180.375737,91.2436699 179.97929,90.9453733 179.680329,90.7465089 C177.587606,89.6521048 175.800343,89.254376 174.208054,89.4538902 Z" id="color_12_14" fill="#E1BEE7"></path>
                        <path d="M195.768456,183.770799 C195.768456,181.808577 195.173618,179.65026 194.281361,177.58935 C194.876199,177.099114 195.270603,176.118003 195.270603,174.940157 C195.270603,171.997464 193.195134,168.563254 190.615346,167.091266 C189.037731,166.208202 187.550636,166.305608 186.755363,167.288001 C185.371717,164.245339 183.095814,161.498099 180.522491,160.027393 C180.128088,159.830658 179.830669,159.635205 179.533249,159.536517 L179.533249,162.479851 L151.317222,178.571743 L150.922819,178.375008 L150.922819,184.850599 C151.317222,185.243428 151.808611,185.636898 152.306464,185.930398 C152.403449,186.029086 152.603884,186.127133 152.700868,186.127133 C152.804318,186.22518 152.901303,186.22518 153.095272,186.323868 C154.284948,186.91215 155.377641,187.108244 156.366883,186.814103 C157.653544,188.384137 159.14064,189.756796 160.718254,190.738548 C160.918689,190.935283 161.216108,191.03333 161.416543,191.131377 C161.610512,191.229424 161.810946,191.327471 162.108366,191.424878 C166.065334,193.485788 169.433929,192.602083 171.018009,189.560702 L171.114994,189.658749 C171.315429,189.756796 171.612848,189.95289 171.813282,190.051578 C172.007251,190.149625 172.207686,190.34636 172.401655,190.443766 C175.175412,191.817066 177.65175,191.817066 179.429799,190.737907 C180.225072,191.523565 180.916895,192.111207 181.809153,192.602083 C182.009587,192.70013 182.106572,192.798818 182.307006,192.896865 C182.500975,192.994912 182.70141,193.092318 182.798395,193.191006 C186.755363,195.153229 189.923523,193.583194 190.421377,189.462655 C193.486088,189.95289 195.768456,187.89198 195.768456,183.770799 Z" id="color_11" fill="#4527A0"></path>
                        <path d="M153.514429,221.290615 C159.797217,223.194766 162.134228,216.379358 162.134228,216.379358 C160.406296,214.475207 153.309196,215.97876 153.514429,221.290615 Z" id="color_11_15" fill="#4527A0"></path>
                        <path d="M179.38255,49.9433044 C179.38255,47.9792437 178.792288,45.8189053 177.906894,43.7560644 C178.497156,43.1665896 178.888526,42.2826982 178.888526,41.0062512 C178.888526,38.0595188 176.829023,34.6227334 174.371734,33.1493672 C172.799839,32.2661172 171.324182,32.3642561 170.541442,33.3462864 C169.16844,30.3014151 166.910044,27.4541045 164.3501,25.9807383 C161.501442,24.3117358 158.947914,24.7042913 157.773805,26.668352 C156.689518,24.9005691 155.316516,23.329064 153.74462,22.3470337 C151.287331,20.8736675 149.125174,21.5606397 148.342434,23.7216196 C147.553278,22.9365085 146.6743,22.2482534 145.788906,21.6600615 C142.933832,19.9910589 140.579197,20.5792508 139.501326,22.7402307 C139.302433,22.5439529 139.10354,22.445814 138.911063,22.3470337 C135.671035,20.4811119 133.014853,21.9544781 133.014853,25.6863216 C133.014853,26.1776575 133.117507,26.7658494 133.213746,27.2584681 C131.051588,26.5702131 129.2808,27.0615489 128.202929,28.5342737 L125.059139,26.668352 L105.214765,38.0608016 L105.214765,53.6764307 C105.805028,53.775211 106.39529,54.0696277 106.985553,54.3640444 C107.17803,54.4621833 107.376923,54.658461 107.5694,54.7559585 C108.653687,52.5956201 111.110976,52.1049256 113.863396,53.6764307 C114.742374,54.1677666 115.627768,54.8547388 116.416924,55.7386302 C117.103425,53.5782918 119.265583,52.8906782 121.81911,54.3640444 C123.095874,55.1504383 124.276399,56.2293247 125.155377,57.604552 C125.35427,57.8996101 125.649401,58.2928071 125.848294,58.5872237 C127.022404,56.7206606 129.383454,56.328105 132.03322,57.7033323 C132.135875,57.8014712 132.328352,57.8014712 132.42459,57.8996101 C133.900247,58.7835015 135.279665,60.0599485 136.453774,61.632095 C137.140275,62.6141253 137.826777,63.5961557 138.320801,64.6769663 L144.807274,60.9451228 L144.807274,56.8200823 C144.903512,56.9182212 145.095989,57.0170015 145.198644,57.114499 C145.397537,57.2126379 145.590014,57.4095571 145.788906,57.5070545 C149.715436,59.4711152 153.051703,58.6853626 154.726253,55.6411328 L154.822491,55.7399131 C155.021384,55.9361909 155.316516,56.0343298 155.515408,56.1324687 C155.707885,56.2293247 155.906778,56.3287464 156.20191,56.4262439 C158.947914,57.8014712 161.405203,57.8996101 163.175991,56.7219434 C163.862492,57.4095571 164.651648,58.0965293 165.434387,58.5872237 C165.63328,58.6866455 165.825757,58.7847844 165.928411,58.8829233 C166.120888,58.9810622 166.217127,59.0798425 166.41602,59.1773399 C170.348965,61.142042 173.492756,59.5698955 173.980364,55.4454964 C177.124154,56.1311858 179.38255,54.0683448 179.38255,49.9433044 Z" id="color_11_16" fill="#4527A0"></path>
                        <path d="M254.737883,80.3150284 C256.113147,83.471791 257,86.7264776 257,89.6861036 C257,95.801848 253.555413,99.0571789 248.735562,98.1687757 C248.04793,104.383088 243.221652,106.849229 237.322154,103.889603 C237.026537,103.791034 236.827316,103.593253 236.531699,103.495329 C236.236081,103.297549 236.043287,103.200269 235.747669,103.001844 C235.548449,102.903275 235.349228,102.705495 235.060037,102.509002 C234.860817,105.073066 234.468802,107.439994 233.774744,109.511861 C231.711847,104.975142 228.562878,100.832053 224.822673,98.1687757 L230.43298,94.9134448 L230.43298,62.5598493 L202.387873,46.2844833 L174.541986,62.5598493 L174.541986,89.6861036 C171.688634,90.0803768 169.818532,92.6444411 169.818532,96.7881752 C169.818532,97.6759342 169.914929,98.5636931 170.114149,99.5500204 C166.373945,98.2679882 163.128578,99.3528838 161.354873,102.115373 C163.61699,103.693754 165.589915,106.15925 166.765959,108.922384 C167.556415,107.936057 169.028076,107.836844 170.602561,108.724603 C173.166722,110.204416 175.229618,113.754808 175.229618,116.615866 C175.229618,117.898542 174.837603,118.785657 174.246368,119.278498 C175.229618,121.350365 175.724456,123.520156 175.724456,125.493455 C175.724456,129.537332 173.455913,131.707768 170.210546,131.116358 C169.715708,135.258159 166.573165,136.837185 162.63374,134.86453 C162.43452,134.765318 162.338122,134.667394 162.138902,134.568825 C161.946108,134.469613 161.746887,134.371045 161.65049,134.27312 C160.962858,133.779635 160.371623,133.286793 159.780388,132.694095 C159.683991,132.595527 159.484771,132.496958 159.388374,132.300466 C157.614668,133.483286 155.153331,133.483286 152.402803,132.003473 C152.203582,131.90426 152.004362,131.806336 151.811567,131.609199 C151.612347,131.510631 151.316729,131.312206 151.117509,131.214926 L151.021112,131.116358 C149.446627,134.174552 146.098437,134.963099 142.165439,132.9898 C141.966218,132.891232 141.773424,132.793307 141.574204,132.694095 C141.278586,132.496958 141.085792,132.399034 140.886571,132.300466 C139.312087,131.313494 137.833999,129.932894 136.555132,128.353868 C135.668279,128.649573 134.588633,128.452437 133.309765,127.860383 C133.213368,127.761814 133.110545,127.761814 132.917751,127.663246 C132.814927,127.564678 132.622133,127.465465 132.525736,127.367541 C132.030898,127.071836 131.53606,126.676275 131.047649,126.184077 C130.360016,126.578351 129.376767,126.677563 128.387091,126.38057 L123.76646,129.045135 L123.76646,130.031462 C122.487593,127.664535 120.713888,125.494099 118.650991,124.309991 C116.093257,122.830178 113.927537,123.224451 112.745067,124.901401 C111.858214,123.323664 110.579347,121.842562 109.107686,121.054016 C106.839143,119.771984 104.96904,120.362749 104.384232,122.336692 C103.690173,121.546858 102.906144,120.956092 102.118902,120.462606 C99.658207,118.982793 97.4937724,119.476279 96.5098801,121.449578 C96.3125876,121.350365 96.1165803,121.152584 96.0182553,121.05466 C93.2625857,119.476279 90.9998263,120.561819 90.8025337,123.521445 L90.8025337,124.014286 C90.8025337,124.507772 90.9008587,124.902045 90.9008587,125.395531 C87.8502142,124.409204 85.4897724,126.185366 85.4897724,130.031462 C85.4897724,131.01779 85.6870649,132.103329 85.9820398,133.188225 C84.5052374,133.385362 83.5213451,134.667394 83.5213451,136.837185 C83.5213451,140.092516 85.6857797,143.939901 88.4420919,145.714774 C88.5404169,145.813987 88.6393845,145.912555 88.8353918,145.912555 C88.9337167,146.011123 89.031399,146.011123 89.1303666,146.110336 C90.4092338,146.800958 91.5904187,146.800958 92.475986,146.406041 C92.8692859,146.800314 93.2625857,147.096663 93.7548532,147.391724 C93.8531782,147.491581 93.9521458,147.491581 94.1481531,147.590149 C94.246478,147.688717 94.3454456,147.688717 94.443128,147.78793 C95.5253452,148.379984 96.5098801,148.478552 97.2964799,148.280771 C98.4770221,149.662016 99.7565319,150.846124 101.134367,151.831807 C101.331017,151.930375 101.527667,152.127512 101.724316,152.22608 C101.921609,152.324649 102.117616,152.423861 102.314909,152.521785 C105.855893,154.297303 108.805642,153.606681 110.28373,150.844836 L110.386553,150.844836 C110.579347,150.944048 110.778568,151.140541 110.971362,151.239753 C111.170582,151.338321 111.369803,151.436245 111.562597,151.534814 C114.023934,152.816846 116.189654,152.816846 117.860536,151.830519 C118.548168,152.521785 119.242226,153.113839 119.929858,153.507468 C120.122652,153.606037 120.225476,153.704605 120.41827,153.803173 C120.617491,153.901741 120.713888,154.00031 120.810285,154.00031 C124.357695,155.775828 127.108223,154.394583 127.506665,150.646411 C128.489914,150.844191 129.273943,150.744979 129.968002,150.350706 C130.064399,150.942115 130.160796,151.632738 130.160796,152.225436 C130.160796,152.521141 130.160796,152.718278 130.064399,153.013983 C129.968002,154.493796 129.376767,155.578691 128.586311,156.268669 C129.968002,159.227007 130.752031,162.286489 130.848428,165.146903 L130.848428,165.639744 C130.848428,171.756133 127.403841,175.01082 122.58399,174.123061 C122.384769,176.194928 121.697137,177.871877 120.617491,179.055985 C119.242226,180.634367 117.172904,181.324345 114.81439,181.02864 C113.63192,180.831503 112.449449,180.535798 111.170582,179.844532 C110.971362,179.745319 110.682171,179.549471 110.48295,179.450259 C110.187333,179.252478 109.988112,179.154554 109.692494,178.956773 C109.596097,178.858205 109.4997,178.758992 109.30048,178.758992 C108.220833,177.970446 107.13476,177.082687 106.15151,176.096359 C103.497379,177.871877 99.7578172,177.772665 95.5266305,175.702086 C95.2316556,175.504305 94.8370705,175.406381 94.5427382,175.208601 C94.1494384,175.01082 93.8531782,174.814327 93.5588459,174.616546 L93.4598783,174.517334 C91.0981512,179.054697 85.9820398,180.338018 79.9790758,177.279179 C79.6847436,177.081398 79.2901584,176.98283 78.9958262,176.786338 C78.7008513,176.588557 78.3062662,176.39142 78.0112913,176.194284 C75.6502068,174.615258 73.3868047,172.544679 71.4183775,170.177108 C70.4344852,170.472812 69.3516253,170.3736 68.1717257,170.078539 C67.6794582,169.880758 67.0895084,169.684266 66.5965983,169.387273 C66.400591,169.288704 66.2032985,169.19078 66.1049735,169.091568 C65.9076809,168.992999 65.711031,168.893787 65.5150237,168.697295 C64.7271387,168.203809 64.038864,167.613043 63.3512319,166.921777 C61.8744295,167.710967 59.9066449,167.613043 57.7415677,166.527503 C57.5449178,166.428935 57.3489105,166.329723 57.2499429,166.232443 C57.0526503,166.132586 56.856643,166.034662 56.6593505,165.837525 C52.0348639,162.779331 48.295302,156.269958 48.295302,150.844191 C48.295302,147.194587 49.9681117,144.926228 52.5264887,144.629235 C52.0348639,142.755148 51.7386037,140.980275 51.7386037,139.204757 C51.7386037,132.793307 55.6748155,129.735113 60.8905372,131.412063 C60.6932446,130.622228 60.6932446,129.833681 60.6932446,129.045135 L60.6932446,128.847354 C60.7922122,126.38057 61.5788119,124.605696 62.8589644,123.618725 C64.4321638,122.435905 66.6962086,122.435905 69.2545856,123.816505 C69.3529106,123.915718 69.4505929,123.915718 69.5489178,124.013642 C69.8438927,124.211423 70.1388676,124.407915 70.4344852,124.605696 C70.827785,123.91443 71.2210849,123.323664 71.81232,122.830178 C72.3045874,122.336692 72.8945372,122.040343 73.5834546,121.843851 C75.254979,121.350365 77.2234062,121.64607 79.3884834,122.73161 C79.5851333,122.830178 79.7824259,122.929391 79.8807509,123.027315 C80.1757258,123.224451 80.3730183,123.323664 80.6673506,123.520156 C81.1602607,122.73161 81.8478928,122.336692 82.7347454,122.238124 C82.3414456,121.05466 82.144153,119.771984 82.144153,118.687733 C82.144153,114.446074 84.7031727,112.374207 88.2447993,113.558315 C88.1458317,112.966906 88.0475067,112.47342 88.0475067,111.980578 C88.0475067,108.232406 90.7048514,106.752593 93.9515031,108.626679 C94.1481531,108.725248 94.3441603,108.823816 94.5414529,109.020952 C95.6230275,106.851161 97.9847546,106.35832 100.838749,107.936057 C101.724316,108.428898 102.609884,109.119521 103.400982,110.007924 C103.985791,108.232406 105.560275,107.441927 107.430378,108.034625 L107.430378,91.8578274 C108.31723,93.7319136 109.692494,95.5074315 111.266979,96.5929713 C111.369803,96.6915396 111.4662,96.7901079 111.66542,96.7901079 C111.761817,96.8886762 111.858214,96.8886762 111.961038,96.9872445 C113.239905,97.6778669 114.415949,97.6778669 115.302801,97.2835937 C115.701242,97.6778669 116.189654,98.0721401 116.581668,98.367845 C116.678065,98.4670575 116.780889,98.4670575 116.973683,98.5656258 C117.076507,98.6648384 117.172904,98.6648384 117.269301,98.7634067 C118.355374,99.3541723 119.338623,99.454029 120.122652,99.2568924 C121.305123,100.637493 122.58399,101.821601 124.062078,102.807284 C124.261298,102.905852 124.454092,103.102989 124.653313,103.201557 C124.846107,103.30077 124.94893,103.398694 125.141724,103.497262 L125.238121,103.497262 C128.785532,105.27278 131.831678,104.582158 133.213368,101.820957 L133.309765,101.919525 C133.508986,102.018738 133.70178,102.21523 133.901,102.313798 C134.100221,102.413011 134.293015,102.511579 134.492236,102.609503 C136.947146,103.892824 139.112866,103.892824 140.790174,102.905208 C141.477807,103.59583 142.165439,104.088028 142.853071,104.582158 C143.052291,104.680726 143.148688,104.779294 143.347909,104.877863 C143.540703,104.977075 143.643526,105.074999 143.83632,105.074999 C147.280907,106.850517 150.134259,105.469272 150.5327,101.7211 C151.708744,101.918237 152.794817,101.7211 153.578846,101.12969 C154.761316,100.3405 155.448949,98.7627624 155.448949,96.6902512 C155.448949,94.9153775 154.960537,92.9420788 154.170081,91.1672051 C154.761316,90.6737193 155.056934,89.8838845 155.056934,88.7996331 C155.056934,86.2342804 153.186832,83.0775178 150.924715,81.7961298 C149.742245,81.1048632 148.662598,81.1048632 147.974966,81.598349 C147.775745,81.6969173 147.679348,81.7961298 147.576525,81.9926222 C146.400481,79.230777 144.331158,76.7646368 141.972645,75.3833921 C139.408484,73.9035791 137.24919,74.2984965 136.06672,75.9760904 C135.179868,74.3970648 133.901,72.9172518 132.422913,72.1287054 C130.160796,70.8466733 128.290694,71.4374388 127.705885,73.3115251 C127.011826,72.6209027 126.227797,71.9309246 125.437342,71.5360072 C122.976004,70.0568384 120.816711,70.5496799 119.833461,72.5229786 C119.634241,72.4237661 119.43502,72.3251978 119.338623,72.2272737 C116.388874,70.5509684 114.120331,71.8330005 114.120331,75.1856113 C114.120331,75.679097 114.223155,76.1725827 114.223155,76.566856 C111.170582,75.5805287 108.812068,77.3554024 108.812068,81.2027873 C108.812068,82.1897588 109.011289,83.2740101 109.30048,84.3595499 C108.516451,84.4581182 107.925216,84.8523914 107.533201,85.4444455 C107.141187,86.0358553 106.845569,86.9242585 106.845569,88.0085098 C106.845569,89.0940496 107.13476,90.2768692 107.533201,91.4616215 L92.4766287,82.7805244 C92.6739212,82.1897588 92.7716036,81.4984922 92.7716036,80.7099458 C92.7716036,75.7770211 89.2299769,69.6612767 84.8998226,67.1951365 C82.1454383,65.6173994 79.7830686,65.8138918 78.3075514,67.4914856 C77.0286843,64.7296404 75.3558746,62.0663636 73.3868047,59.6994359 L78.2085838,56.9369465 L78.2085838,33.2631597 C78.8981439,33.9537821 79.6847436,34.6437602 80.471986,35.1366017 C80.6686359,35.2364585 80.8652858,35.3350268 80.9636108,35.4329508 C81.1609034,35.5315191 81.259871,35.6307317 81.4558782,35.7280115 C84.6054903,37.307037 87.2615497,36.6157704 88.4420919,34.2488427 L88.5404169,34.347411 C88.7377094,34.4459793 88.9337167,34.5439034 89.0326843,34.6431159 C89.2299769,34.7416842 89.4259842,34.8408968 89.5243091,34.9381766 C91.6887437,36.0237164 93.6571709,36.0237164 95.034363,35.1359574 C95.6243128,35.7273673 96.2149053,36.2214972 96.9038227,36.6157704 C97.0027903,36.7143387 97.1987975,36.8135513 97.2977652,36.9114753 C97.3967328,37.0100436 97.5927401,37.0100436 97.691065,37.1092562 C100.74171,38.6876375 103.298159,37.4049611 103.690173,34.1502744 C106.15151,34.6437602 108.021613,32.9668106 108.021613,29.7114797 C108.021613,28.1324541 107.533201,26.4561488 106.845569,24.7791992 C107.333981,24.3842817 107.629598,23.5950911 107.629598,22.6087638 C107.629598,20.3404044 106.055113,17.5785593 103.985791,16.3944512 C102.706923,15.7031846 101.627277,15.8023971 100.938359,16.4930195 C99.8554995,14.1254475 98.0843649,11.8570881 96.0182553,10.6736243 C93.7548532,9.39094786 91.786426,9.687297 90.8025337,11.16711 C90.0152913,9.78650954 88.9330741,8.50318891 87.6542069,7.8132108 C85.6857797,6.62974694 84.0136126,7.12194421 83.4230202,8.89875059 C82.8324277,8.207484 82.1428677,7.71528673 81.454593,7.31972505 C80.5690256,6.82688354 79.6834583,6.53117864 78.8968586,6.6291027 C82.4391279,2.09173965 88.8353918,1.4011173 96.1165803,5.64277545 C96.8054977,6.03704866 97.4937724,6.43261034 98.0843649,6.92545185 C101.724959,-0.472968906 110.090936,-2.34769935 119.730638,3.27584774 C122.879607,5.05136564 125.835783,7.51750589 128.586311,10.279351 C131.047649,2.78236199 138.425234,0.513358347 146.991716,5.54485139 C152.4992,8.70032551 157.319051,14.126736 160.860035,20.3404044 C165.294298,13.632606 173.847927,12.2513613 183.693277,17.9734767 C192.542523,23.1022496 200.414947,32.769674 205.144828,43.3235688 C207.99818,39.9696696 212.818031,39.5753964 218.325514,42.7315148 C221.969322,44.9013059 225.413908,48.2558493 228.06804,52.2018026 C229.938142,51.7083168 232.200259,52.2018026 234.661596,53.582403 C238.594595,55.8507625 241.942785,60.0924206 244.012108,64.7289962 C245.290975,63.248539 247.353871,63.0520466 249.815208,64.4332913 C253.65181,66.6024382 256.704382,72.0288487 256.704382,76.3684309 C256.312368,78.0460247 255.721133,79.4272694 254.737883,80.3150284 Z" id="color_11_17" fill="#4527A0"></path>
                        <path d="M218.195363,197.144548 C224.484971,199.048699 226.815436,192.233291 226.815436,192.233291 C225.09407,190.32914 217.996744,191.832693 218.195363,197.144548 Z" id="color_11_18" fill="#4527A0"></path>
                        <path d="M235.415327,138.680636 C235.415327,135.70183 233.331289,132.226232 230.85245,130.736505 C229.266769,129.842799 227.784643,129.942676 226.988567,130.935611 C225.603523,127.856279 223.325321,124.977351 220.742927,123.486975 C217.869285,121.799439 215.293363,122.196354 214.102484,124.182224 C213.112243,122.39546 211.630117,120.805855 210.044436,119.81292 C207.565597,118.323193 205.384477,119.019091 204.691955,121.203419 C203.895879,120.408941 203.009192,119.713691 202.116033,119.117671 C199.242391,117.429486 196.860634,118.024858 195.773311,120.209835 C195.572673,120.110606 195.378508,119.9115 195.177871,119.81292 C191.909427,117.926278 189.229951,119.416005 189.229951,123.189289 C189.229951,123.686081 189.333505,124.182224 189.430588,124.778894 C185.961507,123.686081 183.288502,125.671952 183.288502,129.942676 C183.288502,131.13342 183.482667,132.325461 183.883942,133.516854 C182.194706,133.715311 181.107383,135.205687 181.107383,137.687052 C181.107383,141.261878 183.586222,145.730411 186.654029,147.71693 C186.757583,147.816159 186.951748,147.916685 187.055303,147.916685 C187.152386,148.015914 187.249468,148.115142 187.450105,148.115142 C188.938703,148.908972 190.226664,148.908972 191.216906,148.412828 C191.70879,148.809743 192.207147,149.206658 192.699032,149.603572 C192.802586,149.703449 192.996751,149.802678 193.093834,149.802678 C193.197388,149.902555 193.294471,150.001784 193.495108,150.001784 C194.685987,150.597156 195.773311,150.795613 196.763552,150.497927 C197.753793,151.789197 198.944672,152.88201 200.13555,153.775068 C200.43327,154.072754 200.828072,154.27186 201.125792,154.470317 C201.319957,154.668774 201.617676,154.768652 201.818313,154.866583 C202.018951,154.96646 202.213116,155.164918 202.510835,155.264146 C206.471801,157.250665 209.843799,156.455539 211.42948,153.376856 L211.526562,153.476733 C211.727199,153.675839 212.024919,153.775068 212.219084,153.873648 C212.419721,153.973525 212.620358,154.072754 212.814523,154.171334 C215.591083,155.561184 218.069922,155.661061 219.849768,154.46902 C220.645844,155.164918 221.338366,155.85887 222.134442,156.355662 C222.328607,156.455539 222.529244,156.554768 222.626327,156.653996 C222.826964,156.753874 222.924046,156.851805 223.124684,156.951682 C225.998325,158.44141 228.574247,157.944618 229.862208,155.85887 C230.360565,155.162972 230.651813,154.270563 230.755367,153.178399 C233.926729,153.774419 236.302013,151.588794 236.302013,147.517824 C236.302013,145.531954 235.713046,143.347626 234.813415,141.261878 C235.014052,140.865612 235.415327,139.872677 235.415327,138.680636 Z" id="color_11_19" fill="#4527A0"></path>
                        <path d="M211.291946,26.0317905 C209.064934,23.584029 199.790976,25.4662604 200.08749,32.3380649 C208.389891,34.7845969 211.291946,26.0317905 211.291946,26.0317905 Z" id="color_11_20" fill="#4527A0"></path>
                        <path d="M29.3221477,145.899447 C29.3221477,145.899447 32.2198687,154.65267 40.5269216,152.206022 C40.8165044,145.334505 31.5429137,143.452184 29.3221477,145.899447 Z" id="color_11_21" fill="#4527A0"></path>
                        <path d="M180.244966,159.411212 L180.244966,144.154527 C179.250825,144.056167 178.250186,143.662728 177.061115,143.170287 C176.859688,143.071284 176.658261,142.97421 176.463331,142.875208 C176.261904,142.776848 175.963011,142.580771 175.768082,142.481769 C174.871405,141.890968 174.072194,141.301452 173.27948,140.512646 C171.583592,141.398526 169.296417,141.301452 166.807815,140.020847 C166.612885,139.921845 166.411458,139.823485 166.216528,139.725768 C166.015101,139.628051 165.820171,139.430689 165.514781,139.332329 C165.215889,139.136253 165.020959,139.03725 164.819532,138.839888 L151.889197,146.22201 L151.785235,146.12365 L151.889197,178.508427 L180.238469,162.365861 L180.238469,159.411212 L180.244966,159.411212 Z" id="color_10" fill="#FFECB3"></path>
                        <path d="M125.050336,58.4369447 C125.250174,58.7320182 125.540262,59.1275972 125.7401,59.423315 C126.926238,57.5491471 129.292066,57.1548567 131.960876,58.5355173 L131.960876,51.3339193 L139.657876,46.8942869 L139.657876,54.4908195 L142.616774,52.8137968 L136.499141,62.480354 C137.188905,63.4673685 137.87867,64.4537387 138.375043,65.5393258 L144.885906,61.7909901 L144.885906,38.8061798 L125.050336,50.2496208 L125.050336,58.4369447 Z" id="color_10_22" fill="#FFECB3"></path>
                        <path d="M88.2005659,112.631165 C88.2005659,108.911395 90.8868442,107.443048 94.1710844,109.302613 C94.3706216,109.401057 94.568859,109.498862 94.7670963,109.694471 C95.8622763,107.541492 98.2508737,107.05119 101.136689,108.617981 C102.032332,109.107643 102.927975,109.792275 103.726774,110.673156 C104.318236,108.911395 105.917134,108.128958 107.802013,108.715146 L107.802013,92.6636902 C107.70452,92.5658856 107.70452,92.3709157 107.607026,92.2724719 L79.4423755,108.226763 L79.3422819,108.128958 L79.3422819,123.397339 C79.5418191,123.495143 79.7400565,123.593587 79.8401501,123.690752 C80.138481,123.886362 80.3380183,123.983527 80.6356992,124.179775 C81.1335674,123.397339 81.8296729,123.00612 82.7259657,122.907677 C82.3281911,121.734022 82.1286538,120.460645 82.1286538,119.384794 C82.1286538,115.176001 84.7167885,113.120188 88.2993596,114.295121 C88.2005659,113.608571 88.2005659,113.118909 88.2005659,112.631165 Z" id="color_10_23" fill="#FFECB3"></path>
                        <path d="M212.289885,98.3089888 C212.949017,97.2736166 213.706711,96.4457244 214.741611,95.9287142 L208.704698,93.1348315 C210.022963,94.5838118 211.347387,96.3423224 212.289885,98.3089888 Z" id="color_10_24" fill="#FFECB3"></path>
                        <path d="M208.113622,93.5101489 L212.188478,91.1593443 L212.188478,80.3859424 L222.978597,74.11713 L222.978597,84.8905319 L227.059801,82.5403669 L218.802186,95.6645734 C220.160472,95.8609536 221.620311,96.448175 223.175358,97.3296467 C223.752947,97.6226178 224.241676,98.0153781 224.724057,98.3089888 L230.265101,95.0767123 L230.265101,62.9522472 L202.667785,79.0144798 L202.667785,90.1800022 C203.448482,90.3763824 204.318039,90.766584 205.193942,91.2565748 C206.165053,91.8457153 207.142511,92.6293168 208.113622,93.5101489 Z" id="color_10_25" fill="#FFECB3"></path>
                        <path d="M56.1547317,44.017454 L56.057047,43.9182595 L56.057047,55.8306695 C58.1946921,52.4554651 62.371029,51.8609467 67.2260841,54.6396879 C69.2660445,55.8306695 71.1112699,57.5182718 72.8594449,59.502809 L77.6174497,56.7240679 L77.6174497,32.8998962 C77.3269329,32.6029611 77.0345132,32.2048867 76.7439965,31.9073034 L56.1547317,44.017454 Z" id="color_10_26" fill="#FFECB3"></path>
                        <path d="M51.4400287,106.468374 C51.2449401,106.368837 51.1483491,106.268649 50.953896,106.170413 L50.856034,106.070225 C48.2296467,111.249419 42.4881974,112.744431 35.7744829,109.258672 C35.3849413,109.058947 35.0926262,108.860523 34.7043555,108.660147 C34.3154494,108.461073 34.0231343,108.262649 33.6342282,107.962735 L33.7314547,136.252809 L52.6073826,125.096169 L51.3428021,124.29922 L51.3428021,106.468374 L51.4400287,106.468374 Z" id="color_10_27" fill="#FFECB3"></path>
                        <path d="M111.022577,179.599269 C112.315995,180.295565 113.505419,180.593422 114.701342,180.791344 L114.701342,207.91704 C93.6101899,220.102546 118.276114,205.614656 86.3410544,224.213483 L86.2416107,191.523907 L86.3410544,191.623193 L109.131198,178.508427 C109.228692,178.607712 109.332685,178.706349 109.527673,178.706349 C109.826654,178.906218 110.028141,179.005503 110.320622,179.203425 C110.522109,179.401347 110.82109,179.501282 111.022577,179.599269 Z" id="color_10_28" fill="#FFECB3"></path>
                        <path d="M154.441929,88.7823898 C154.441929,86.2247912 152.565877,83.0782127 150.296563,81.8000557 C149.110331,81.1115209 148.02725,81.1115209 147.33743,81.6028727 C147.137576,81.701143 147.040872,81.8000557 146.937721,81.9959541 C145.757936,79.2424571 143.68203,76.7837711 141.316012,75.407986 C138.750141,73.932646 136.577531,74.3257275 135.391298,75.9969659 C134.501624,74.4233555 133.218689,72.9486578 131.742345,72.1618526 C129.473032,70.882411 127.59698,71.4726755 127.003864,73.3417392 C126.307597,72.6525621 125.521073,71.9646696 124.73455,71.5709458 C122.265382,70.0962481 120.092772,70.5875999 119.106394,72.554934 C118.90654,72.4560214 118.713132,72.3583933 118.609982,72.260123 C115.650848,70.5888845 113.381535,71.8670415 113.381535,75.210803 C113.381535,75.7027971 113.478238,76.1941489 113.478238,76.5872304 C110.415954,75.6038845 108.049937,77.3740356 108.049937,81.2091489 C108.049937,82.1931371 108.249791,83.2747534 108.546349,84.3563697 C107.753379,84.4552824 107.160263,84.8483638 106.767001,85.4386283 C106.373739,86.0288928 106.077181,86.913326 106.077181,87.9962269 C106.077181,89.0772009 106.373739,90.2577298 106.767001,91.4369742 C106.767001,91.5358869 106.863705,91.6341572 106.863705,91.7330699 C106.966855,91.8313402 106.966855,92.0272387 107.063559,92.1261513 C107.953233,93.9945728 109.332873,95.7647239 110.912367,96.8463402 C111.015517,96.9452529 111.112221,97.0435232 111.305628,97.0435232 C111.408779,97.1424359 111.505483,97.1424359 111.602186,97.2407062 C112.885122,97.9298834 114.071354,97.9298834 114.961028,97.5355173 C115.35429,97.9285988 115.850703,98.3229648 116.243964,98.6177759 C116.340668,98.7160463 116.443819,98.7160463 116.637226,98.8149589 C116.740377,98.9132293 116.83708,98.9132293 116.933784,99.0114997 C118.023313,99.6011218 119.00969,99.7006768 119.796214,99.5041361 C120.982446,100.880563 122.265382,102.061092 123.748172,103.043154 C123.941579,103.142066 124.141434,103.338607 124.341288,103.436877 C124.534696,103.535148 124.637846,103.633418 124.831254,103.732331 L124.934404,103.732331 C128.486654,105.502482 131.542491,104.813305 132.928577,102.061092 L133.025281,102.159363 C133.225135,102.258275 133.418543,102.454174 133.618397,102.552444 C133.818252,102.651357 134.011659,102.748985 134.211513,102.847255 C136.680681,104.126055 138.846844,104.126055 140.529489,103.142066 C141.219309,103.830601 141.909128,104.321953 142.598948,104.813305 C142.798803,104.911575 142.895506,105.010488 143.095361,105.108116 C143.295215,105.206386 143.391919,105.305299 143.585326,105.305299 C147.040872,107.074808 149.903302,105.69838 150.296563,101.960895 C151.482795,102.15872 152.572324,101.960895 153.358847,101.371915 C154.54508,100.584468 155.234899,99.0114997 155.234899,96.9458952 C155.234899,95.1763863 154.744934,93.2090522 153.951963,91.4382588 C154.048667,90.6508113 154.441929,89.8640061 154.441929,88.7823898 Z" id="color_8" fill="#E1BEE7"></path>
                        <path d="M248.444755,123.297337 C248.444755,118.379549 244.890135,112.279537 240.638782,109.819358 C237.877661,108.245845 235.503613,108.442454 234.019833,110.114271 C234.019833,110.015966 233.923065,110.015966 233.923065,109.918305 C231.852224,105.392448 228.691128,101.261094 224.936519,98.6049488 C224.439775,98.2117313 223.846263,97.9161757 223.355971,97.6212625 C221.775423,96.7358807 220.291643,96.1447694 218.911082,95.9481606 C217.233766,95.6532475 215.749986,95.8498563 214.562962,96.5386294 C213.575925,97.0301513 212.685657,97.8172288 211.995377,98.8009151 C210.911573,96.9318469 209.62778,95.26003 208.144,93.8818412 C207.156964,92.9964593 206.169928,92.1110774 205.079672,91.5206087 C204.189404,91.0284443 203.402356,90.6358693 202.512088,90.4379755 C199.350991,89.5525936 196.880175,90.9301399 195.893139,93.8818412 C194.512578,92.5042949 193.028798,91.3233574 191.44825,90.4379755 C186.609837,87.6835255 182.461704,88.5689074 180.681168,92.2087393 C180.384412,92.011488 179.990888,91.7165749 179.694132,91.5193236 C177.720059,90.4366905 175.842755,89.9451686 174.358975,90.2400817 C171.494634,90.6332992 169.61733,93.1911405 169.61733,97.3231369 C169.61733,98.2085187 169.72055,99.0939006 169.914086,100.077587 C166.159478,98.7989875 162.901613,99.8809782 161.127528,102.636071 C163.398357,104.210226 165.372429,106.66912 166.559453,109.424855 C167.346502,108.440526 168.830282,108.342222 170.41083,109.226961 C172.978414,110.703455 175.049255,114.24434 175.049255,117.097094 C175.049255,118.376978 174.655731,119.261718 174.062219,119.75324 C175.049255,121.819559 175.545999,123.98354 175.545999,125.951555 C175.545999,129.984605 173.27517,132.149229 170.017306,131.55876 C169.520562,135.690114 166.359465,137.264911 162.41132,135.296896 C162.211333,135.198592 162.114564,135.099645 161.914577,135.002626 C161.714589,134.903679 161.521052,134.805374 161.424284,134.707713 C160.727553,134.215548 160.140492,133.723384 159.54698,133.132915 C160.92754,135.199234 162.604857,136.969998 164.482161,138.346902 C164.682149,138.544796 164.978905,138.740762 165.172441,138.839066 C165.372429,139.036318 165.572417,139.134622 165.869173,139.232284 C166.062709,139.331231 166.262697,139.429535 166.462685,139.527197 C168.92705,140.807081 171.197878,140.904743 172.881646,140.019361 C173.668695,140.807081 174.462194,141.396265 175.352462,141.986734 C175.545999,142.183343 175.745987,142.28229 176.042743,142.380594 C176.236279,142.478898 176.436267,142.577203 176.636255,142.674865 C177.720059,143.265976 178.803864,143.560889 179.797351,143.659193 C180.681168,143.757498 181.474668,143.757498 182.164948,143.560889 C182.261716,143.659193 182.261716,143.659193 182.364936,143.757498 C184.538996,146.315981 187.003361,148.578267 189.674165,150.349031 C190.067689,150.643302 190.461214,150.841195 190.854738,151.038447 C191.254713,151.235698 191.551469,151.431664 191.944994,151.62763 C194.906102,153.103481 197.673675,153.69395 200.144491,153.398394 C198.957467,152.51237 197.770443,151.430379 196.783407,150.15178 C195.893139,150.447978 194.809334,150.250727 193.525542,149.659615 C193.422322,149.561311 193.228786,149.561311 193.125566,149.463006 C193.028798,149.36406 192.835262,149.265113 192.732042,149.265113 C192.24175,148.970842 191.745006,148.576982 191.254713,148.08546 C190.267677,148.576982 188.983885,148.576982 187.500105,147.789905 C187.396885,147.6916 187.300117,147.6916 187.10658,147.592011 C187.003361,147.493706 186.809824,147.396687 186.706605,147.396687 C183.545509,145.428672 181.177912,141.002405 181.177912,137.460235 C181.177912,135.099002 182.261716,133.526132 183.945484,133.328239 C183.545509,132.147944 183.351972,130.868702 183.351972,129.787354 C183.351972,125.557053 185.919556,123.490734 189.474177,124.671671 C189.377409,124.081845 189.27419,123.590323 189.27419,123.098159 C189.27419,119.360022 191.944994,117.884172 195.202858,119.75324 C195.402846,119.851544 195.596383,119.950491 195.79637,120.146457 C196.880175,117.983118 199.254223,117.490312 202.118563,119.063824 C203.008831,119.556631 203.892648,120.245404 204.686148,121.130144 C205.376428,118.966805 207.550488,118.277389 210.021305,119.75324 C211.601853,120.638622 213.079182,122.213419 214.066218,124.081845 C215.356461,122.114472 217.820826,121.720612 220.685167,123.392429 C223.259203,124.868922 225.530031,127.721677 226.910592,130.77104 C227.704091,129.787354 229.18142,129.689692 230.761968,130.573789 C233.329553,132.049639 235.310077,135.590524 235.310077,138.443921 C235.310077,139.722521 234.910101,140.607903 234.316589,141.198371 C235.310077,143.264691 235.800369,145.428672 235.800369,147.396687 C235.800369,151.429737 233.529541,153.59436 230.271676,153.003892 C230.168456,154.086525 229.8717,154.971907 229.381408,155.66068 C234.910101,157.234192 239.161453,154.381438 239.851734,148.281426 C245.283659,149.265113 249.238255,145.625923 249.238255,138.641173 C249.238255,135.197307 248.244768,131.557475 246.664219,128.015947 C247.754475,126.937812 248.444755,125.363657 248.444755,123.297337 Z" id="color_8_29" fill="#E1BEE7"></path>
                        <path d="M163.168003,57.0472458 C163.856898,57.7398721 164.635094,58.4312074 165.419669,58.9256638 C165.611029,59.024426 165.808767,59.1231882 165.904447,59.2219504 C166.102186,59.3207126 166.197865,59.4194748 166.395604,59.5188824 C170.299342,61.4960627 173.424884,59.9139312 173.916041,55.7626919 C177.041583,56.355265 179.38255,54.1812059 179.38255,50.1293743 C179.38255,48.1521941 178.795714,45.9787806 177.915459,43.9028382 C178.502296,43.308974 178.891394,42.4194689 178.891394,41.1355605 C178.891394,38.1701129 176.843845,34.7108544 174.400819,33.2281307 C172.838048,32.339271 171.370957,32.4380332 170.59276,33.4263005 C169.227728,30.3620908 166.98244,27.4966964 164.437356,26.0146181 C161.605232,24.33437 159.066526,24.7294187 157.899232,26.7065989 C156.821239,24.9275886 155.456206,23.3461026 153.893435,22.3571898 C151.450409,20.8751115 149.300802,21.5664468 148.522606,23.7411514 C147.738031,22.9510539 146.864155,22.2584276 145.9839,21.6665 C143.145397,19.9862518 140.80443,20.5788249 139.732816,22.752884 C139.535077,22.5560052 139.337339,22.4565975 139.145979,22.3571898 C135.924757,20.4794173 133.283993,21.962141 133.283993,25.7183316 C133.283993,26.2121425 133.386052,26.8047156 133.481731,27.2998175 C131.332124,26.6071912 129.571614,27.1022932 128.5,28.5843715 L145.007965,38.2701661 L145.007965,57.1466535 C145.103645,57.2460612 145.295005,57.3448234 145.397064,57.4435856 C145.594802,57.5429932 145.786162,57.7398721 145.9839,57.8386343 C149.887638,59.8158145 153.20454,59.024426 154.86937,55.9615073 L154.96505,56.0602695 C155.162788,56.2577938 155.456206,56.356556 155.653945,56.4553182 C155.845304,56.5540804 156.043043,56.6534881 156.336461,56.7528958 C158.970847,58.2330375 161.413872,58.2330375 163.168003,57.0472458 Z" id="color_8_30" fill="#E1BEE7"></path>
                        <path d="M131.323433,140.569722 C131.918892,140.074214 132.210149,139.280105 132.210149,138.189987 C132.210149,136.30576 131.219875,134.12358 129.834786,132.635112 C129.336413,132.040502 128.747427,131.544994 128.054882,131.14794 C127.355865,130.750238 126.760406,130.651136 126.268505,130.55333 C125.575961,130.55333 124.980502,130.750885 124.585687,131.247041 C124.482129,130.949736 124.287957,130.652431 124.184399,130.354479 C122.896396,127.974096 121.116492,125.792564 119.032386,124.602049 C116.456379,123.114228 114.275187,123.510635 113.090742,125.196011 C112.197554,123.609089 110.90955,122.121269 109.420903,121.328455 C107.142626,120.039486 105.259163,120.634096 104.663704,122.617425 C103.97116,121.823964 103.175057,121.229354 102.38478,120.733198 C99.906506,119.245377 97.7266087,119.740886 96.7356875,121.724862 C96.5369855,121.625113 96.3395779,121.427557 96.2405505,121.328455 C93.4651944,119.740886 91.1856226,120.832299 90.9875678,123.80794 L90.9875678,124.303448 C90.9875678,124.799604 91.0872424,125.196011 91.0872424,125.692167 C88.0141569,124.700502 85.6368521,126.485628 85.6368521,130.353183 C85.6368521,131.344848 85.8355541,132.436909 86.1326363,133.526379 C84.6452836,133.725878 83.6543624,135.014847 83.6543624,137.195732 C83.6543624,140.469325 85.8349069,144.33688 88.610263,146.121358 C88.7092904,146.221107 88.8076705,146.320209 89.0063726,146.320209 C89.1054,146.419958 89.2050746,146.419958 89.3034548,146.519708 C90.5921054,147.214067 91.7810814,147.214067 92.6729752,146.816365 C93.0690848,147.212772 93.4651944,147.511372 93.9609787,147.808029 C94.0600061,147.907779 94.1596807,147.907779 94.3570882,148.00688 C94.4561156,148.10663 94.555143,148.10663 94.6541704,148.205731 C95.7441191,148.799694 96.7356875,148.900738 97.5279067,148.701887 C98.7168827,150.090606 100.006181,151.280474 101.393211,152.27149 C101.591913,152.37124 101.789321,152.568795 101.988023,152.668545 C102.186725,152.767646 102.38478,152.865452 102.582187,152.965202 C106.152352,154.749679 109.123174,154.05532 110.611821,151.279826 L110.708906,151.279826 C110.90955,151.379575 111.103722,151.576483 111.304365,151.676233 C111.505009,151.775334 111.69918,151.875084 111.899824,151.974185 C114.378745,153.263155 116.553465,153.263155 118.242756,152.27149 C118.9353,152.96585 119.627845,153.560459 120.320389,153.957514 C120.521033,154.056616 120.618119,154.155717 120.818762,154.254171 C121.019406,154.353273 121.116492,154.453022 121.213577,154.453022 C124.779858,156.238147 127.556509,154.849429 127.951324,151.080975 C128.941598,151.279826 129.737701,151.180077 130.430245,150.78367 C130.527331,150.78367 130.527331,150.684568 130.630889,150.684568 C131.12279,150.387263 131.524077,150.090606 131.815334,149.593802 C132.410793,148.701887 132.812081,147.511372 132.812081,146.0242 C132.812081,144.536379 132.410793,142.850356 131.815334,141.263434 C131.517605,141.164332 131.420519,140.867027 131.323433,140.569722 Z" id="color_8_31" fill="#E1BEE7"></path>
                        <path d="M92.1824521,81.1666327 C92.1824521,76.2513295 88.6521475,70.1566361 84.3366192,67.6996265 C81.5915384,66.1266781 79.2377885,66.3237782 77.7666148,67.9943136 C76.4920672,65.2419749 74.8255483,62.5885073 72.8637698,60.2284427 C71.1959699,58.2625783 69.2354724,56.5920429 67.1757011,55.4120106 C62.2734966,52.5614429 58.0566016,53.2496881 55.8981969,56.5907589 C54.1330446,53.5437331 51.6819424,50.7913945 49.0335735,49.3173172 C48.8369473,49.2184461 48.6416021,49.1202171 48.4462569,49.0219881 C44.425988,47.0554816 41.0903882,48.2355139 39.914474,51.6767397 C39.4238693,51.1849526 39.0318979,50.7913945 38.5412931,50.3978364 C37.5600836,49.5131332 36.5795147,48.82553 35.5003123,48.2355139 C35.1089814,47.9408268 34.6183767,47.7437268 34.2251243,47.5472687 C30.0082293,45.5807622 26.4785652,46.6619235 24.8107653,50.0049203 C24.5167867,49.8084623 24.1235344,49.6120042 23.8295558,49.4155462 C18.2401204,46.1714204 13.8278802,48.726659 13.8278802,55.1173235 C13.8278802,56.0020268 13.925873,56.88673 14.1218587,57.7714332 C8.23844478,55.9037977 3.82428312,59.3443815 3.82428312,66.5195942 C3.82428312,68.4861007 4.11826168,70.5508362 4.70749974,72.6149297 C1.86314514,73.0072037 0,75.5637264 0,79.6925554 C0,84.3125294 2.45174272,89.7196197 5.88341396,93.5524776 C6.96133533,94.7318679 8.1385305,95.8136712 9.41371853,96.6001454 C9.60970423,96.6990164 9.90368279,96.8954744 10.100309,96.9937035 C10.2962947,97.0919325 10.4922804,97.1901615 10.6882661,97.2877485 C13.1400088,98.5653678 15.3951253,98.6642388 17.0616443,97.7801776 C17.8468681,98.5653678 18.6314514,99.156026 19.513387,99.7460421 C19.7106537,99.8442711 19.9059989,100.040087 20.2006179,100.138958 C20.3959632,100.237187 20.5932298,100.336058 20.788575,100.433645 C22.8483464,101.515449 24.7114915,101.712549 26.2812986,101.317706 C28.5357746,104.070687 30.9881578,106.331239 33.7338791,108.101287 L33.8318719,108.101287 C34.2244838,108.298387 34.5184624,108.593074 34.9104338,108.789532 C35.3024052,108.987274 35.5970242,109.18309 35.9889956,109.378906 C42.7562667,112.820132 48.443695,111.344771 51.1887758,106.233652 L51.2874091,106.332523 C51.3854019,106.430752 51.5813876,106.528981 51.7773733,106.627852 L51.7773733,92.0790423 L79.7264718,75.9566425 L92.2785235,83.2307262 C92.0838187,82.6419941 92.1824521,81.9537489 92.1824521,81.1666327 Z" id="color_8_32" fill="#E1BEE7"></path>
                        <path d="M64.978304,24.5019396 C65.6691649,26.6629179 67.1488446,28.8245378 68.9243314,30.0044782 C69.0235782,30.1026462 69.1221806,30.1026462 69.2214274,30.2001725 C69.3200297,30.2983405 69.4192765,30.2983405 69.5172344,30.3965084 C70.7004626,30.9861578 71.687775,30.9861578 72.4772383,30.5941276 C72.8722921,30.9861578 73.2667015,31.2819449 73.6611109,31.4776392 C73.7597133,31.5764488 73.8576712,31.5764488 73.956918,31.6746167 C74.0555203,31.7727847 74.1541227,31.7727847 74.252725,31.8709527 C75.239393,32.3617925 76.0282118,32.4599604 76.8183195,32.2636245 C76.9175663,32.3617925 76.9175663,32.4599604 77.0161687,32.4599604 C77.3119757,32.8532739 77.6071383,33.1484194 77.9042343,33.4429232 C78.5950952,34.1307406 79.3845584,34.8185579 80.1733772,35.3093977 C80.3718709,35.4075657 80.5677866,35.5063752 80.6670334,35.60326 C80.8648826,35.7020695 80.9628405,35.8008791 81.1606897,35.8984055 C84.3191871,37.470376 86.9827395,36.7825587 88.1666122,34.4246028 L88.2652145,34.5227708 C88.4630637,34.6209387 88.6596239,34.7191067 88.7582263,34.8172747 C88.9567199,34.9154426 89.1532801,35.0136106 89.2525269,35.1117785 C91.4230675,36.1922677 93.3964035,36.1922677 94.7787697,35.3081145 C95.3703838,35.8971222 95.9619979,36.3892452 96.6535033,36.7825587 C96.7527501,36.8807267 96.9486659,36.9788946 97.0479127,37.0777042 C97.1471595,37.1758722 97.3450087,37.1758722 97.4423221,37.2733985 C100.502217,38.8453691 103.065234,37.568544 103.464799,34.3264349 C105.926635,34.8185579 107.802013,33.1484194 107.802013,29.9056686 C107.802013,28.3330564 107.312224,26.6642011 106.622652,24.9927794 C107.112441,24.6001075 107.408893,23.8147638 107.408893,22.8324426 C107.408893,20.5732964 105.829966,17.822027 103.76125,16.6427283 C102.474909,15.954911 101.390283,16.0530789 100.698777,16.7408962 C99.6128627,14.383582 97.837376,12.1237941 95.7647932,10.9457786 C93.4950058,9.66767025 91.5216699,9.96281575 90.5350019,11.4366184 C89.7448942,10.0609837 88.6596239,8.78351701 87.37586,8.09634129 C85.4025241,6.91768417 83.7256397,7.40916558 83.1340256,9.17747208 C82.541767,8.48901313 81.8502616,7.99945658 81.1606897,7.6055015 C80.272624,7.11402009 79.3845584,6.81951621 78.5944507,6.91768417 C77.5098249,6.91768417 76.7197172,7.50669192 76.226061,8.48901313 C76.0295007,8.39084517 75.9302539,8.29267721 75.7330492,8.19450925 C73.1668103,6.72134825 71.094872,7.900647 71.094872,10.846969 C71.094872,11.2402825 71.094872,11.6335959 71.1941188,12.1244357 C68.4313196,11.2409241 66.4573393,12.812253 66.4573393,16.1525301 C66.4573393,17.0366834 66.6551884,18.0190046 66.8523931,19.0013258 C65.5686292,19.1983033 64.6812081,20.3769604 64.6812081,22.2434349 L64.6812081,22.7342747 C64.6812081,23.3226408 64.7804549,23.9116486 64.978304,24.5019396 Z" id="color_8_33" fill="#E1BEE7"></path>
                        <path d="M174.135541,279.181608 C174.232224,278.389906 174.232224,277.500049 174.135541,276.708347 L174.135541,276.609546 C173.639234,271.96201 170.480916,267.314475 164.75727,263.557443 C164.260963,263.261039 163.771101,262.865834 163.274794,262.568138 C162.681804,262.271089 162.095259,261.876529 161.502269,261.57948 C158.936941,260.293125 156.075118,259.206311 153.110166,258.415255 C151.930631,254.459974 151.137828,248.923227 150.74465,242.59607 C149.461986,222.624001 151.434324,195.038421 151.531007,184.161884 L151.531007,177.635187 L130.711889,165.573034 L130.711889,166.067686 C130.711889,172.197887 127.25063,175.460267 122.416469,174.570409 C122.223103,176.646528 121.533429,178.328087 120.444132,179.514349 L120.444132,182.678573 C120.444132,194.740726 123.995629,241.112759 119.264597,258.71295 C116.202962,259.702255 113.341139,260.888516 110.775811,262.371181 C106.728007,264.74435 103.769501,267.512723 102.088502,270.478699 C100.904455,272.456663 100.312109,274.434626 100.114231,276.509453 C100.015614,277.102907 100.015614,277.69636 100.114231,278.288522 L100.114231,284.51817 C100.015614,285.111623 100.015614,285.705077 100.114231,286.297885 L100.114231,286.69309 C100.60796,291.736476 104.259363,296.77728 110.969177,300.63505 C125.478104,309.037681 148.965679,309.138419 163.274794,300.832653 C170.970778,296.383366 174.52872,290.450122 173.935729,284.617617 L173.935729,279.179671 L174.135541,279.179671 L174.135541,279.181608 Z" id="color_7" fill="url(#linearGradient-1)"></path>
                        <path d="M57.4649232,44.8426966 L78.4798658,32.9254456 C78.3808089,32.8278312 78.3808089,32.7295788 78.2817521,32.7295788 C77.5877067,32.9254456 76.6955477,32.8278312 75.7043317,32.3391211 C75.6052749,32.2415067 75.5055706,32.2415067 75.4065138,32.1438923 C75.3074569,32.0456399 75.2077526,32.0456399 75.1093432,31.9473875 C74.7131158,31.6539063 74.316241,31.3610631 73.9200136,31.0682199 C73.1275588,31.4593155 72.1356955,31.4593155 70.9470133,30.8729911 C70.8479565,30.7747387 70.7482522,30.7747387 70.6491954,30.6771243 C70.5494911,30.5788719 70.4504342,30.5788719 70.3520248,30.4825335 C68.5677067,29.3092467 66.9815023,27.1604538 66.3865138,25.011023 L64.5031388,23.9366266 L57.3652189,19.8342697 L35.3590604,32.3384831 L57.4649232,44.8426966 Z" id="color_2" fill="#FFA000"></path>
                        <polygon id="color_2_34" fill="#FFA000" points="24.450356 105.40617 13.5943188 99.1713483 13.5943188 109.887428 9.48657718 107.549131 18.9725156 122.455056 28.4597315 118.461182 24.35199 116.122885 24.35199 105.40617"></polygon>
                        <path d="M70.6594665,125.042135 L73.2428517,123.953852 C73.7391575,123.459119 74.3347245,123.162666 75.0302013,122.965032 L71.156421,120.690293 L71.156421,109.812627 L60.2292595,103.483146 L60.2292595,114.360812 L56.057047,111.987902 L64.2029497,124.743745 C65.7917771,123.657399 68.0760813,123.657399 70.6594665,125.042135 Z" id="color_2_35" fill="#FFA000"></path>
                        <path d="M41.1932076,49.613044 L37.9463087,47.7756876 L39.7725237,50.4840355 C40.2801001,50.8699499 40.6862938,51.257759 41.1932076,51.741573 C42.4098008,48.2607648 45.8594652,47.0992322 50.0201342,49.1298616 L50.0201342,46.2288722 L41.2945904,41.3932584 L41.2945904,49.613044 L41.1932076,49.613044 Z" id="color_2_36" fill="#FFA000"></path>
                        <path d="M80.6865952,108.657303 L108.66443,92.3719796 C108.66443,92.2721457 108.567571,92.1716592 108.567571,92.0718253 L93.4396008,83.2805693 L80.7840992,75.8876404 L52.6073826,92.2721457 L80.5865083,108.657303 L80.6865952,108.657303 Z" id="color_2_37" fill="#FFA000"></path>
                        <path d="M132.812081,50.9882917 L132.812081,58.1605053 C132.906852,58.2593173 133.096394,58.2593173 133.197483,58.3562044 C134.650638,59.2410213 136.002704,60.5185197 137.165229,62.0898876 L143.161074,52.4627725 L140.261081,54.1323109 L140.261081,46.5674157 L132.812081,50.9882917 Z" id="color_2_38" fill="#FFA000"></path>
                        <polygon id="color_2_39" fill="#FFA000" points="204.060972 79.3370787 231.989933 63.0020135 203.958198 46.5674157 175.932886 63.0020135 203.958198 79.3370787"></polygon>
                        <polygon id="color_2_40" fill="#FFA000" points="126.008947 50.0168539 145.748322 38.424276 129.055147 28.6317391 125.912752 26.7331461 106.077181 38.3250714"></polygon>
                        <path d="M213.695621,80.6114159 L213.695621,91.5250006 L209.567114,93.9062524 L215.859395,96.5842697 C217.137114,95.9900906 218.613874,95.7905191 220.186944,95.9900906 L228.540268,82.6952542 L224.411761,85.076506 L224.411761,74.1629213 L213.695621,80.6114159 Z" id="color_2_41" fill="#FFA000"></path>
                        <polygon id="color_2_42" fill="#FFA000" points="66.2012008 187.132022 66.2012008 197.848102 62.0939597 195.509805 71.5802175 210.41573 81.0671141 206.421856 76.959873 204.084196 76.959873 193.366844"></polygon>
                        <path d="M128.945223,131.361479 C129.530729,131.752402 130.116235,132.241056 130.695376,132.828079 L152.817318,145.641033 L152.912781,145.738764 L165.583893,138.403845 C163.731912,137.034975 162.172684,135.274543 160.708919,133.22028 C160.613456,133.122549 160.416166,133.02418 160.320703,132.829357 C158.57055,134.002765 156.133063,134.002765 153.402824,132.536164 C153.211898,132.438434 153.014608,132.340064 152.817318,132.145241 C152.626392,132.046872 152.333639,131.85141 152.136349,131.753679 L152.040886,131.655949 C150.481658,134.688797 147.165913,135.470643 143.271025,133.51475 C143.073735,133.41638 142.88281,133.31865 142.68552,133.221558 C142.392767,133.024818 142.195477,132.928365 142.004551,132.829996 C140.445323,131.852049 138.981558,130.48254 137.715083,128.918848 C136.836824,129.211401 135.76764,129.016578 134.501165,128.429555 C134.399338,128.331185 134.303875,128.331185 134.112949,128.233455 C134.011122,128.135724 133.820196,128.037993 133.718369,127.940262 C133.23469,127.646431 132.744647,127.255508 132.260968,126.766854 C131.573635,127.157138 130.599913,127.255508 129.626192,126.962316 L125.050336,129.603602 L127.093242,130.77701 C127.678748,130.775094 128.264254,130.969917 128.945223,131.361479 Z" id="color_2_43" fill="#FFA000"></path>
                        <path d="M95.7681647,176.307204 C95.4720427,176.11225 95.0757048,176.014136 94.7782897,175.819819 C94.3825983,175.623591 94.0851832,175.429274 93.7884147,175.23432 L93.6894918,175.136206 C91.3127573,179.623335 86.1648899,180.891173 80.1267169,177.867474 C79.8293018,177.671883 79.4336104,177.575043 79.1368419,177.380089 C78.8400734,177.184498 78.4437354,176.989544 78.1463203,176.795227 C75.7708789,175.23432 73.4937138,173.186028 71.5139637,170.844668 C70.5240887,171.137736 69.4352908,171.040259 68.2469235,170.747191 L58.6442953,176.209727 L86.7590736,192.208066 L86.858643,192.30618 L109.526846,179.429655 C108.440634,178.649839 107.354422,177.771271 106.358728,176.796501 C103.688458,178.452973 99.9261571,178.452973 95.7681647,176.307204 Z" id="color_2_44" fill="#FFA000"></path>
                        <path d="M137.956897,164.710674 L147.473154,160.7168 L143.352647,158.378503 L143.352647,147.661788 L132.465023,141.426966 L132.465023,142.109049 C133.054582,143.667913 133.445486,145.226142 133.445486,146.785006 C133.445486,148.247157 133.054582,149.513337 132.465023,150.292133 L132.465023,152.045696 L131.285904,151.363613 C131.18978,151.363613 131.18978,151.460327 131.087248,151.460327 C131.18978,152.045696 131.285904,152.728415 131.285904,153.311876 C131.285904,153.603924 131.285904,153.798623 131.18978,154.090672 L137.956897,164.710674 Z" id="color_2_45" fill="#FFA000"></path>
                    </g>
                    <g id="Group" transform="translate(337.000000, 184.500000) scale(-1, 1) translate(-337.000000, -184.500000) translate(257.000000, 62.000000)">
                        <path d="M32.8444274,42.1293327 C32.6824758,43.3110832 31.5933277,44.138592 30.408524,43.9761131 C29.2275086,43.8136342 28.398809,42.7282375 28.5607606,41.5464869 C28.7236593,40.3675703 29.8118603,39.5410062 30.9938227,39.7034851 C32.1786264,39.865964 33.0073261,40.9513608 32.8444274,42.1293327 Z" id="Path_72" fill="#FFFFFF" fill-rule="nonzero"></path>
                        <path d="M40.6290259,42.1326717 C40.4661046,43.3109201 39.3777531,44.1386231 38.1927854,43.9761061 C37.0106594,43.8173685 36.1818451,42.7279375 36.3447663,41.5496891 C36.5038987,40.3676612 37.5960391,39.5446826 38.7772179,39.7024753 C39.9621855,39.8649923 40.7881582,40.9506438 40.6290259,42.1326717 Z" id="Path_73" fill="#FFFFFF" fill-rule="nonzero"></path>
                        <path d="M47.5481552,43.8552101 C47.385339,45.0372141 46.2939027,45.8639555 45.1134854,45.7014418 C43.9283351,45.5389281 43.1038416,44.4542433 43.2628713,43.2712945 C43.4256875,42.0930698 44.5171238,41.2663284 45.6975411,41.4288422 C46.8817448,41.5904111 47.7062383,42.6769855 47.5481552,43.8552101 Z" id="Path_74" fill="#FFFFFF" fill-rule="nonzero"></path>
                        <path d="M119.301065,22.4295775 C119.890239,20.7440304 120.216216,18.9465171 120.216216,17.0741073 C120.216216,7.64472748 112.082884,0 102.054054,0 L102.054054,17.0741073 L119.301065,22.4295775 Z" id="Path_75" fill="#FFA000" fill-rule="nonzero"></path>
                        <path d="M100.427891,0.862676056 C91.2955516,0.862676056 83.8918919,8.39464499 83.8918919,17.6852521 C83.8918919,26.9750733 91.2955516,34.5070423 100.427891,34.5070423 C102.202915,34.5070423 103.911511,34.2147217 105.513514,33.6874446 L100.427891,17.6852521 L100.427891,0.862676056 Z" id="Path_76" fill="#D1C4E9" fill-rule="nonzero"></path>
                        <path d="M120.216216,24.0884378 L102.054054,18.1161972 L107.939351,36.2323944 C113.725648,34.3690232 118.310256,29.8379712 120.216216,24.0884378 Z" id="Path_77" fill="#6A1B9A" fill-rule="nonzero"></path>
                        <path d="M11.940726,112.687451 L5.73643857,111.393249 C5.40024566,111.322724 5.06013441,111.285211 4.72394149,111.285211 C2.5476997,111.285211 0.593235519,112.730966 0.112064305,114.847454 C0.0352649912,115.173068 0,115.497931 0,115.817543 C0,117.903271 1.50934162,119.772173 3.72084841,120.235085 L9.9220012,121.533038 C10.2613288,121.603562 10.60144,121.637324 10.9344983,121.637324 C13.1138747,121.637324 15.0652043,120.19232 15.5526448,118.075081 C15.6294441,117.734462 15.4021808,117.396844 15.0463963,117.320317 C14.687477,117.246792 14.3348271,117.465118 14.2580278,117.804987 C13.9116472,119.330269 12.4986966,120.370132 10.9344983,120.370132 C10.6939127,120.370132 10.4509761,120.345373 10.2072558,120.293605 L4.00296834,118.995652 C2.4097744,118.664036 1.32674734,117.314315 1.32674734,115.817543 C1.32674734,115.587213 1.35260833,115.353881 1.40354665,115.12055 C1.74992723,113.596018 3.16287788,112.555405 4.72394149,112.555405 C4.9645271,112.555405 5.21138204,112.580163 5.45431864,112.632682 L11.6586061,113.926883 C12.0143907,114.00416 12.3701753,113.785834 12.4469746,113.442214 C12.5237739,113.101595 12.2996453,112.763977 11.940726,112.687451 Z" id="Path_78" fill="#4527A0" fill-rule="nonzero"></path>
                        <path d="M15.7350297,121.960335 L21.9361409,123.255381 C22.2762499,123.325911 22.6155752,123.362676 22.9486312,123.362676 C25.1279931,123.362676 27.0793095,121.917567 27.5636121,119.800175 C27.6372763,119.475288 27.6756757,119.149651 27.6756757,118.830766 C27.6756757,116.744137 26.1663442,114.875849 23.9548522,114.412154 L17.7506064,113.114107 C17.4112811,113.043577 17.0743068,113.010563 16.7381161,113.010563 C14.5626726,113.010563 12.6074378,114.454922 12.1231352,116.572314 C12.0463364,116.912958 12.2712472,117.2506 12.630164,117.327133 C12.9851625,117.400663 13.3409447,117.186073 13.4185272,116.842428 C13.7641218,115.317786 15.1778466,114.277097 16.7381161,114.277097 C16.9787001,114.277097 17.2224187,114.301858 17.469272,114.353629 L23.6735178,115.651676 C25.2627828,115.983316 26.3489372,117.333135 26.3489372,118.830766 C26.3489372,119.061113 26.3238601,119.293711 26.2690038,119.530061 C25.9226255,121.052452 24.512819,122.092391 22.9486312,122.092391 C22.7088309,122.092391 22.4651123,122.06763 22.2213936,122.015858 L16.0171478,120.720813 C15.6582309,120.647282 15.3055834,120.861872 15.2287846,121.205517 C15.1488511,121.546161 15.3761129,121.883803 15.7350297,121.960335 Z" id="Path_79" fill="#FF6F00" fill-rule="nonzero"></path>
                        <polygon id="Path_80" fill="#4527A0" fill-rule="nonzero" points="68.3243243 245 107.243243 229.573353 107.243243 184.612676 68.3243243 200.033064"></polygon>
                        <polygon id="Path_81" fill="#FF6F00" fill-rule="nonzero" points="68.3243243 245 29.4054054 229.573353 29.4054054 184.612676 68.3243243 200.033064"></polygon>
                        <polygon id="Path_82" fill="#D1C4E9" fill-rule="nonzero" points="69.1876364 201.003521 31.1351351 185.476928 69.1876364 169.947183 107.243243 185.476928"></polygon>
                        <polygon id="Path_83" fill="#9C27B0" fill-rule="nonzero" points="125.405405 201.003521 160 186.897448 160 145.792254 125.405405 159.888218"></polygon>
                        <polygon id="Path_84" fill="#E1BEE7" fill-rule="nonzero" points="124.540541 201.003521 89.9459459 186.897448 89.9459459 145.792254 124.540541 159.888218"></polygon>
                        <polygon id="Path_85" fill="#FFECB3" fill-rule="nonzero" points="124.972973 159.59507 89.9459459 145.364056 124.972973 131.126761 160 145.364056"></polygon>
                        <path d="M117.115145,75.915493 C117.515575,75.5523203 117.950693,75.0910137 118.154302,75.1451033 C118.35791,75.1984201 119.258312,75.4510956 119.924187,74.5725268 C121.454266,72.5634865 121.176002,72.0295454 120.725801,71.9978644 C120.809506,71.5775114 120.587045,71.2297929 120.238649,71.2931549 C120.294453,70.7337144 119.986023,70.6162629 119.699463,70.6765341 C119.7613,70.5281742 119.723595,70.2469085 119.584839,70.1619107 C119.088638,69.848964 118.638437,70.142593 118.089449,70.2028642 C117.854922,70.2314544 118.003481,69.8335099 117.660363,69.880645 C117.069144,69.9656429 116.489237,70.5343558 116.146873,70.9330731 C115.665754,71.4948316 116.008118,72.6925287 115.665754,73.0433381 C115.32339,73.3941474 115.027027,73.8399998 115.027027,73.8399998 C115.351292,74.1714915 117.115145,75.915493 117.115145,75.915493 Z" id="Path_86" fill="#FFF3E0" fill-rule="nonzero"></path>
                        <path d="M85.6291091,71.7836151 C89.0836132,76.4991807 97.1250939,84.3349538 99.3738388,83.9700127 C101.332523,83.6531106 113.109311,73.3425566 113.109311,73.3425566 C114.484787,74.1127295 115.891892,76.0141422 115.891892,76.0141422 C113.500431,79.676725 104.055702,92.8866622 98.7242871,92.4240936 C94.1265103,92.0250603 88.0298275,88.0060596 86.4452916,86.9120111 C85.2565041,95.4451238 82.8064136,104.44313 82.4338085,106.270159 C82.4338085,106.270159 65.0602295,106.394131 63.1864041,106.270159 C62.8739712,101.879244 62.725855,94.0233258 62.9372293,88.982335 C62.3787074,89.4077122 52.5143162,96.9072126 51.2746136,99.4393303 C50.0063678,102.024136 47.0818423,115.1194 46.756295,118.998158 C46.756295,118.998158 43.3118196,119.036124 42.3783784,119.049296 C42.3783784,119.049296 42.7154972,100.965729 44.725096,95.8557794 C46.7030657,90.8209872 57.6906722,78.4408842 60.5650542,75.7483784 L65.4582921,74.4490022 C68.9853115,73.384397 81.5975686,70.9158147 85.6291091,71.7836151 Z" id="Path_87" fill="#FFECB3"></path>
                        <path d="M43.4766009,119.102091 C43.4887809,119.66124 43.5078122,120.361176 43.2923786,120.478765 C43.0807513,120.597154 42.2745882,121.018715 42.3895369,122.163411 C42.6544516,124.79037 43.3083648,124.960754 43.7163945,124.636784 C43.971413,125.00315 44.4319689,125.084743 44.6748074,124.767172 C45.0638058,125.215931 45.415503,125.062345 45.6149504,124.796769 C45.6773728,124.950355 45.9232564,125.123939 46.1097625,125.081543 C46.7758556,124.920758 46.9288668,124.361609 47.3460314,123.897652 C47.5264475,123.69767 47.7099086,124.096833 47.9588371,123.799261 C48.398078,123.279308 48.4475592,122.424987 48.4292892,121.875437 C48.401123,121.100308 47.4670701,120.563557 47.265339,120.0932 C47.0628466,119.622043 47.1526741,119.049296 47.1526741,119.049296 C46.6175158,119.058895 43.4766009,119.102091 43.4766009,119.102091 Z" id="Path_88" fill="#FFF3E0" fill-rule="nonzero"></path>
                        <path d="M79.5675676,117.424878 C76.5025251,131.821979 73.7669497,138.509424 70.2910334,147.803235 C69.7565133,149.23138 68.9339976,150.485664 67.6430087,151.406197 C58.2305406,158.125465 42.9299039,165.904976 38.7904454,168.221831 C38.7904454,168.221831 37.6791659,166.050895 37.1891892,165.095435 C41.8562558,158.896198 48.6583308,149.745978 60.1873755,143.470677 C59.9139716,133.681672 60.9254125,114.45061 63.2839055,106.109155 C67.9978195,106.578735 79.5675676,117.424878 79.5675676,117.424878 Z" id="Path_89" fill="#4527A0"></path>
                        <path d="M36.3243243,165.441477 C36.9172496,165.069745 37.4001851,164.771127 37.4001851,164.771127 L38.9189189,168.319315 C37.9392082,168.989666 37.4985204,169.550787 37.1408714,169.947183 C36.4525244,169.209005 36.6317131,167.386462 36.3243243,165.441477 Z" id="Path_90" fill="#FFF3E0" fill-rule="nonzero"></path>
                        <path d="M35.5861656,165.835333 C35.8973471,167.521789 35.7159475,169.102079 36.4127877,169.742138 C36.327987,170.32644 37.2814414,177.729128 37.1818928,178.590687 C37.076445,179.472105 36.3611699,179.734086 36.0175429,179.043617 C35.5139007,178.0377 31.7207303,169.564174 31.7207303,169.564174 C31.4611665,169.489322 31.2170881,169.448841 31.2170881,169.448841 L30.2702703,167.55616 C30.9331902,166.481502 33.846646,165.113548 35.5861656,165.835333 Z" id="Path_91" fill="#4527A0" fill-rule="nonzero"></path>
                        <path d="M119.299868,144.060578 C119.035456,143.432002 118.486486,141.894994 118.486486,141.894994 L122.265479,141.478873 C122.533248,142.692069 123.353345,143.300132 123.675676,143.69574 C122.883279,144.309664 121.18097,143.949954 119.299868,144.060578 Z" id="Path_92" fill="#FFF3E0" fill-rule="nonzero"></path>
                        <path d="M118.855576,145.309046 C120.547684,145.193986 122.078964,145.568121 122.791748,144.929577 C123.354274,145.085022 130.740356,144.997394 131.570176,145.206178 C132.422649,145.418772 132.592539,146.182281 131.872959,146.452786 C130.823413,146.849018 122.038945,149.721702 122.038945,149.721702 C121.93399,149.976967 121.863014,150.223088 121.863014,150.223088 L119.889265,150.96831 C118.916736,150.15832 117.932127,147.007511 118.855576,145.309046 Z" id="Path_93" fill="#4527A0" fill-rule="nonzero"></path>
                        <path d="M84.2371216,106.61803 C99.6695479,104.112852 110.283951,103.638162 114.663266,105.58213 C116.057038,106.204138 116.739558,107.431005 116.987254,109.014863 C119.485948,124.981279 122.083254,138.014595 122.810811,142.761493 C122.810811,142.761493 120.384329,143.067041 119.315124,143.204225 C115.126821,136.606114 109.642584,126.43185 108.137776,116.387755 C95.2141385,121.704438 79.3631926,124.579858 72.7049257,120.314664 C67.5033245,116.987159 64.8648649,111.734392 64.8648649,106.61803 L84.2371216,106.61803 Z" id="Path_94" fill="#4527A0"></path>
                        <path d="M77.6533718,68.9194524 C77.965101,70.0888829 78.7027027,72.5525797 78.7027027,72.5525797 C78.2650223,73.2967628 75.18709,73.7252318 71.4951456,72.8022515 C71.7139858,70.0695535 70.9189189,65.5633803 70.9189189,65.5633803 L77.6533718,68.9194524 Z" id="Path_95" fill="#FFF3E0" fill-rule="nonzero"></path>
                        <path d="M80.2753986,57.1764715 C80.8944778,59.2566345 82.9312717,65.4528006 81.852372,67.8492324 C80.964739,69.815208 78.7999136,70.3282998 75.1549191,69.489173 C71.5052406,68.6538025 70.7620333,62.4884369 70.1234371,60.7463286 C69.1171407,57.9878027 79.3752747,54.1632778 80.2753986,57.1764715 Z" id="Path_96" fill="#FFF3E0" fill-rule="nonzero"></path>
                        <path d="M68.4107249,56.7517749 C71.3709488,51.5573822 71.6561969,53.7824678 71.3143643,54.62218 C74.5536352,51.3125924 79.7966187,48.7525314 81.2670415,49.229985 C82.74134,49.7074387 84.0691387,52.3288867 81.8375377,55.1769357 C79.6067117,58.0280162 75.7612887,57.3989899 74.3885323,57.9666293 C73.0165511,58.5335108 72.6708429,60.00907 72.8452473,60.5979295 C72.8863292,60.7434392 72.9212101,60.8919803 72.9498899,61.0405215 C72.8227685,60.9753452 72.683245,60.9200212 72.5282188,60.8889489 C71.7864188,60.7305555 71.0826002,61.0655309 70.9562539,61.6362017 C70.8291325,62.2061147 71.3267664,62.7980057 72.0716669,62.9556412 C72.4018725,63.0276382 72.7243269,62.9935343 72.9909718,62.8912228 C72.8010648,64.3629927 72.1127488,65.5967936 71.3647478,65.5626898 C70.2423586,65.5126708 65.4505011,61.9454098 68.4107249,56.7517749 Z" id="Path_97" fill="#212121" fill-rule="nonzero"></path>
                        <polygon id="Path_98" fill="#E1BEE7" fill-rule="nonzero" points="77.9624247 72.6239541 78.4028249 72.4647887 78.7027027 72.9009017 77.8378378 73.3274648"></polygon>
                        <path d="M76.1091107,73.9598199 C76.0539008,73.818935 78.2968773,73.0466982 78.4109372,73.4360318 C78.5280306,73.82595 78.8799177,74.9109396 78.592341,75.0401329 C78.3047644,75.1669878 76.2450119,74.3088171 76.1091107,73.9598199 Z" id="Path_99" fill="#D1C4E9" fill-rule="nonzero"></path>
                        <path d="M79.0928776,75.0528169 C80.0316417,76.0338847 89.3626817,87.2494275 75.4688117,98.0796316 C73.7093365,98.1844498 70.9189189,98.3450704 70.9189189,98.3450704 C71.0377805,97.4937057 71.5568904,94.6198784 71.5568904,94.6198784 C73.487785,94.202868 80.5806691,88.8624206 80.1440346,82.9631944 C79.7041659,77.0639682 78.0611266,75.2104212 78.0611266,75.2104212 L79.0928776,75.0528169 Z" id="Path_100" fill="#D1C4E9" fill-rule="nonzero"></path>
                        <path d="M76.972973,72.4431598 C74.2594034,72.5663739 71.5573158,70.7394366 71.5573158,70.7394366 L70.9189189,72.7330232 C72.3932024,73.7080989 73.9838364,74.9366943 76.5098673,75.0528169 C76.8321276,74.2550277 76.972973,73.109757 76.972973,72.4431598 Z" id="Path_101" fill="#E1BEE7" fill-rule="nonzero"></path>
                        <path d="M78.7027027,72.0428216 L79.9304201,73.3274648 C80.4450272,73.1107193 80.6568752,72.0300361 80.1147445,71.3329193 C79.5692777,70.6382379 79.3065528,70.7453929 79.3065528,70.7453929 C79.3849533,70.9371762 79.5275753,71.7962432 78.7027027,72.0428216 Z" id="Path_102" fill="#E1BEE7" fill-rule="nonzero"></path>
                    </g>
                </g>
            </g>
        </g>
    </g>
</svg>