<?xml version="1.0" encoding="UTF-8"?>
<svg width="505px" height="319px" viewBox="0 0 505 319" version="1.1" xmlns="http://www.w3.org/2000/svg" xmlns:xlink="http://www.w3.org/1999/xlink">
    <!-- Generator: Sketch 64 (93537) - https://sketch.com -->
    <title>Feature2</title>
    <desc>Created with Sketch.</desc>
    <defs>
        <linearGradient x1="50%" y1="-23.2877541%" x2="5.90863186%" y2="100%" id="linearGradient-1">
            <stop stop-color="#E1BEE7" offset="0%"></stop>
            <stop stop-color="#9C27B0" offset="100%"></stop>
        </linearGradient>
        <linearGradient x1="12.8092539%" y1="23.4058935%" x2="87.1885175%" y2="76.5944656%" id="linearGradient-2">
            <stop stop-color="#FFA000" offset="0%"></stop>
            <stop stop-color="#9C27B0" offset="100%"></stop>
        </linearGradient>
    </defs>
    <g id="Landing" stroke="none" stroke-width="1" fill="none" fill-rule="evenodd">
        <g transform="translate(-782.000000, -1529.000000)" id="More-Feature">
            <g transform="translate(112.000000, 1528.000000)">
                <g id="Feature-1">
                    <g id="Feature2" transform="translate(669.500000, 0.500000)">
                        <ellipse id="Oval" fill="#D1C4E9" cx="237" cy="245" rx="149.5" ry="16.5"></ellipse>
                        <path d="M279.004277,281.5 C404.081717,281.5 505.5,274.189434 505.5,264.999601 C505.5,255.809768 404.081717,248.5 279.004277,248.5 C159.416361,248.5 53.1400995,255.809768 52.5,264.999601 C51.8721693,273.980538 153.922804,281.5 279.004277,281.5 Z" id="Path" fill="#D1C4E9"></path>
                        <ellipse id="Oval_0" fill="#D1C4E9" cx="335" cy="284" rx="149.5" ry="16.5"></ellipse>
                        <ellipse id="Oval_1" fill="#D1C4E9" cx="150" cy="292" rx="149.5" ry="16.5"></ellipse>
                        <ellipse id="Oval_2" fill="#D1C4E9" cx="298" cy="303" rx="149.5" ry="16.5"></ellipse>
                        <g id="Group" transform="translate(383.500000, 187.500000)">
                            <ellipse id="Oval_3" fill="#E1BEE7" cx="39.758864" cy="12.5745796" rx="5.70919236" ry="5.73854406"></ellipse>
                            <line x1="85.046015" y1="75.0449292" x2="85.046015" y2="9.70328269" id="Path_4" stroke="#4527A0" stroke-width="0.5"></line>
                            <ellipse id="Oval_5" fill="#6A1B9A" cx="84.7635772" cy="9.70328269" rx="9.19272639" ry="9.23998739"></ellipse>
                            <path d="M66.6569361,46.2890322 C53.377121,66.757451 57.0194004,92.7902731 57.0194004,92.7902731 C57.0194004,92.7902731 82.1849723,85.6375444 95.4647874,65.1691257 C108.744603,44.7007069 105.102323,18.6678848 105.102323,18.6678848 C105.102323,18.6678848 79.9367512,25.8198035 66.6569361,46.2890322 Z" id="Path_6" fill="#FFECB3" fill-rule="nonzero"></path>
                            <path d="M56.9468771,92.5529558 C56.9468771,92.5529558 56.6245515,92.5003086 56.0282491,92.379625 C55.5528188,92.2832401 54.9001095,92.1447375 54.1023536,91.9543977 C46.9708995,90.2640178 28.0100955,84.5505824 15.6086176,69.5283133 C0.0966976829,50.7170661 0.749407043,24.4363972 0.749407043,24.4363972 C0.749407043,24.4363972 24.4725719,28.3112307 40.105364,45.2036901 C40.7822478,45.9294114 41.4430153,46.6818613 42.0876665,47.4602298 C55.5850514,63.8278372 56.8421213,85.8497531 56.9468771,91.2942829 C56.9549352,92.1099094 56.9468771,92.5529558 56.9468771,92.5529558 Z" id="Path_7" fill="#FFA000" fill-rule="nonzero"></path>
                            <path d="M47.3818646,46.2890322 C60.6536216,66.757451 57.0194004,92.7902731 57.0194004,92.7902731 C57.0194004,92.7902731 31.8538284,85.6375444 18.5740133,65.1691257 C5.29419814,44.7007069 8.92841939,18.6678848 8.92841939,18.6678848 C8.92841939,18.6678848 34.1020495,25.8198035 47.3818646,46.2890322 Z" id="Path_8" stroke="#6A1B9A" stroke-width="0.5"></path>
                            <path d="M76.6329137,49.9079193 C75.5853555,74.3208278 57.5512376,93.3653424 57.5512376,93.3653424 C57.5512376,93.3653424 41.2254455,72.8280773 42.2730037,48.4151689 C43.3286201,24.0022604 61.3546798,4.95774569 61.3546798,4.95774569 C61.3546798,4.95774569 77.6804719,25.4950108 76.6329137,49.9079193 Z" id="Path_9" fill="#673AB7" fill-rule="nonzero"></path>
                            <line x1="57.5512376" y1="92.6736393" x2="61.5158426" y2="5.95318262" id="Path_10" stroke="#D1C4E9" stroke-width="0.5"></line>
                        </g>
                        <path d="M354.951643,189.727082 C354.951643,189.727082 347.606035,181.623795 333.123939,187.856117 C318.431923,194.090025 317.172401,212.787782 326.198172,226.5 C326.198172,226.5 344.667952,222.760448 354.322683,209.463825 C363.977414,196.167201 383.5,203.022913 383.5,203.022913 C383.5,203.022913 371.74206,182.870577 354.951643,189.727082 Z" id="Path_11" fill="#E9F6FF"></path>
                        <path d="M332.958446,187.856117 C318.459034,194.090025 317.216024,212.787782 326.123472,226.5 C337.722527,189.103691 354.5,189.727082 354.5,189.727082 C354.5,189.727082 347.250689,181.623795 332.958446,187.856117 Z" id="Path_12" fill="#004EA0"></path>
                        <path d="M191.330686,144.258934 C183.537357,125.211729 161.844197,116.323142 143.099365,124.153372 C124.354532,132.196081 115.50955,153.995016 123.302075,173.041413 C131.094599,192.088618 152.787759,200.977206 171.532592,192.935304 C190.488077,185.104266 199.333863,163.094467 191.330686,144.258934 Z M168.16296,184.680923 C154.051673,190.607725 137.624015,184.046716 131.515904,169.443805 C125.619249,155.052566 132.357709,138.544611 146.468996,132.619425 C160.79174,126.481758 177.008746,133.254439 183.116857,147.644871 C189.224164,162.03611 182.4849,178.544064 168.16296,184.680923 Z M191.330686,144.258934 C183.537357,125.211729 161.844197,116.323142 143.099365,124.153372 C124.354532,132.196081 115.50955,153.995016 123.302075,173.041413 C131.094599,192.088618 152.787759,200.977206 171.532592,192.935304 C190.488077,185.104266 199.333863,163.094467 191.330686,144.258934 Z M168.16296,184.680923 C154.051673,190.607725 137.624015,184.046716 131.515904,169.443805 C125.619249,155.052566 132.357709,138.544611 146.468996,132.619425 C160.79174,126.481758 177.008746,133.254439 183.116857,147.644871 C189.224164,162.03611 182.4849,178.544064 168.16296,184.680923 Z M207.548496,163.941154 L207.33704,151.454958 L218.078696,145.10562 C217.026238,140.449655 215.341021,135.794497 213.44515,131.349395 L201.018277,133.042768 L193.436404,123.095822 L198.491254,111.455505 C194.91097,108.28124 191.120034,105.530318 186.906989,103.413603 L177.850551,112.090519 L166.057242,108.28124 L163.529415,95.795044 C158.685218,95.371701 153.841021,95.371701 148.996823,96.0067156 L146.680453,108.492911 L134.885536,112.513862 L125.619249,104.048617 C121.406205,106.587868 117.615268,109.339597 114.034985,112.725534 L119.511139,124.153372 L112.349767,134.311989 L99.9228929,133.042768 C98.8704357,135.370346 98.0278268,137.698733 97.1852179,140.237983 C96.5532612,142.56637 95.9213045,144.682277 95.5,147.009856 L106.66296,152.936658 L106.873613,165.422046 L96.1319567,171.772192 C97.1852179,176.639021 98.6597835,181.294986 100.766306,185.73928 L113.192376,184.046716 L120.5644,193.993661 L115.50955,205.633171 C117.404616,207.326543 119.511139,209.019107 121.617661,210.5 C124.775836,210.5 128.146272,210.289136 131.515904,210.077465 L136.570753,205.209828 L146.680453,208.384901 C162.055654,206.056514 178.693964,201.61222 195.963427,195.474554 L194.700318,192.722824 L201.86169,182.353344 L214.287759,183.623373 C215.341021,181.294986 216.182825,178.967407 216.814782,176.639021 C217.446739,174.311442 218.078696,171.983055 218.5,169.655477 L207.548496,163.941154 Z M173.217006,196.744583 C152.367259,205.633171 128.567577,195.687033 119.720987,174.522306 C111.085853,153.359194 120.774248,129.23268 141.625603,120.344092 C162.476154,111.667176 186.486489,121.614122 195.121622,142.56637 C203.756756,163.73029 194.068361,187.855995 173.217006,196.744583 Z M143.099365,124.153372 C124.354532,132.196081 115.50955,153.995016 123.302075,173.041413 C131.094599,192.088618 152.787759,200.977206 171.532592,192.935304 C190.277425,185.104266 199.123211,163.094467 191.330686,144.258934 C183.537357,125.211729 161.844197,116.11147 143.099365,124.153372 Z M168.16296,184.680923 C154.051673,190.607725 137.624015,184.046716 131.515904,169.443805 C125.619249,155.052566 132.357709,138.544611 146.468996,132.619425 C160.79174,126.481758 177.008746,133.254439 183.116857,147.644871 C189.224164,162.03611 182.4849,178.544064 168.16296,184.680923 Z M191.330686,144.258934 C183.537357,125.211729 161.844197,116.323142 143.099365,124.153372 C124.354532,132.196081 115.50955,153.995016 123.302075,173.041413 C131.094599,192.088618 152.787759,200.977206 171.532592,192.935304 C190.488077,185.104266 199.333863,163.094467 191.330686,144.258934 Z M168.16296,184.680923 C154.051673,190.607725 137.624015,184.046716 131.515904,169.443805 C125.619249,155.052566 132.357709,138.544611 146.468996,132.619425 C160.79174,126.481758 177.008746,133.254439 183.116857,147.644871 C189.224164,162.03611 182.4849,178.544064 168.16296,184.680923 Z M191.330686,144.258934 C183.537357,125.211729 161.844197,116.323142 143.099365,124.153372 C124.354532,132.196081 115.50955,153.995016 123.302075,173.041413 C131.094599,192.088618 152.787759,200.977206 171.532592,192.935304 C190.488077,185.104266 199.333863,163.094467 191.330686,144.258934 Z M168.16296,184.680923 C154.051673,190.607725 137.624015,184.046716 131.515904,169.443805 C125.619249,155.052566 132.357709,138.544611 146.468996,132.619425 C160.79174,126.481758 177.008746,133.254439 183.116857,147.644871 C189.224164,162.03611 182.4849,178.544064 168.16296,184.680923 Z" id="Shape_13" fill="#E1BEE7"></path>
                        <path d="M342.942956,14.4509637 L342.942956,11.9139847 L345.287659,10.6463021 C345.074504,9.58922752 344.648195,8.74437479 344.221885,7.68730021 L341.664841,8.11013004 L340.172758,5.99598088 L341.238532,3.67122374 C340.599068,3.03697899 339.746448,2.40273424 338.893829,1.97990441 L336.975437,3.88183172 L334.418393,3.03697899 L333.778929,0.5 L330.795575,0.5 L330.369266,3.03697899 L327.811409,3.88183172 L325.893829,2.19131933 C325.04121,2.61414916 324.188591,3.2483939 323.549127,4.09405357 L324.614901,6.41881071 L323.122817,8.53215294 L320.565774,8.32154496 C320.351805,8.74437479 320.139464,9.37781261 319.92631,9.80144937 C319.713968,10.2234723 319.713968,10.6463021 319.5,11.2805468 L321.844702,12.5482294 L321.844702,15.0852084 L319.5,16.3536979 C319.713968,17.4107725 320.139464,18.2556252 320.565774,19.3126998 L323.122817,18.8906769 L324.614901,21.0040191 L323.549127,23.3287763 C324.40256,23.963021 325.04121,24.5972658 326.106171,25.0200956 L328.024563,23.1173613 L330.581607,23.963021 L331.221071,26.5 L334.205238,26.5 L334.631548,23.963021 L337.189405,23.1173613 L339.106984,24.8086807 C339.959603,24.3858508 340.811409,23.7516061 341.450873,22.9067534 L340.385099,20.5803824 L341.877183,18.4678471 L344.43504,18.678455 C344.648195,18.2556252 344.861349,17.6213805 345.074504,17.1993576 C345.287659,16.7765277 345.287659,16.142283 345.5,15.7194532 L342.942956,14.4509637 Z M335.484167,21.4268489 C331.00873,23.3287763 325.893829,21.215434 324.188591,16.7765277 C322.271012,12.3376214 324.40256,7.26447038 328.877183,5.36173613 C333.352619,3.45980882 338.46752,5.57315105 340.172758,10.0120574 C342.090337,14.4509637 339.959603,19.5241147 335.484167,21.4268489 Z M329.090337,6.2073958 C325.04121,7.8979082 323.122817,12.5482294 324.828056,16.3536979 C326.53248,20.3697744 331.00873,22.2717017 335.057857,20.5803824 C339.106984,18.8906769 341.025377,14.2395487 339.320139,10.4348872 C337.828056,6.41881071 333.139464,4.51607647 329.090337,6.2073958 Z M334.418393,18.8906769 C331.43504,20.1583595 328.024563,18.678455 326.746448,15.7194532 C325.466706,12.7604513 326.959603,9.16720462 329.942956,7.8979082 C332.92631,6.63022563 336.335972,8.11013004 337.614901,11.0691319 C338.893829,14.0281338 337.401746,17.6213805 334.418393,18.8906769 Z" id="Shape_14" fill="#D1C4E9"></path>
                        <path d="M357.689819,39.5 L195.303493,39.5 C173.792065,39.5 156.5,56.7932936 156.5,78.3052492 L156.5,240.694751 C156.5,262.205901 173.792065,279.5 195.303493,279.5 L357.689819,279.5 C379.197222,279.5 396.5,262.205901 396.5,240.694751 L396.5,78.3052492 C396.70746,56.7932936 379.197222,39.5 357.689819,39.5 Z" id="Path_17" fill="url(#linearGradient-1)"></path>
                        <circle id="Oval_48" fill="#D1D9E8" cx="389.5" cy="179.5" r="2"></circle>
                        <circle id="Oval_49" fill="#E1BEE7" cx="389.5" cy="179.5" r="2"></circle>
                        <path d="M150.20385,167.5 L136.01046,167.5 C136.435,169.957389 133.468879,172.825254 132.198493,174.872948 C130.715433,176.921423 130.502758,184.5 143.001222,184.5 C155.498877,184.5 155.075954,177.126271 154.016626,174.872948 C152.957297,172.825254 149.77931,169.957389 150.20385,167.5 Z" id="Path_50" fill="#212121" fill-rule="nonzero"></path>
                        <path d="M150.416285,167.5 L148.085758,167.5 C151.051074,172.620407 147.873892,179.174746 147.873892,179.174746 C147.873892,179.174746 146.390829,175.897185 145.75604,176.511728 C143.213647,179.788507 138.765268,182.04183 134.740621,179.378812 C132.833826,178.150508 132.622768,175.897185 132.833826,174.054339 C132.622768,174.259187 132.410902,174.668882 132.198228,174.872948 C130.715165,176.921423 130.504108,184.5 143.00178,184.5 C155.500262,184.5 155.075721,177.126271 154.016391,174.872948 C153.169735,172.825254 149.991744,169.957389 150.416285,167.5 Z" id="Path_51" fill="#212121" fill-rule="nonzero"></path>
                        <path d="M149.723833,279.984647 C149.512357,279.142992 148.87793,278.51175 148.454978,276.828438 C146.975455,271.35928 148.454978,267.151001 146.975455,259.998531 C146.763172,258.525633 145.918076,257.263953 146.129552,255.791055 C146.129552,254.31896 146.340221,253.055673 146.340221,252.003603 C146.340221,250.952336 145.918076,249.689852 145.705793,248.427368 C145.072173,241.695727 145.283649,233.491188 145.495125,226.969157 L134.5,221.5 C134.711476,228.231641 137.248378,245.061548 137.460661,245.693593 C138.728708,252.003603 138.305756,252.846062 138.940991,258.316023 C139.574611,263.996397 143.168892,272.620961 144.860698,278.722164 C145.495125,280.8255 145.918076,290.082913 145.918076,291.766224 C145.918076,292.816688 145.072173,294.5 146.552504,294.5 C147.820551,294.5 150.992687,293.238319 151.414832,291.766224 C151.837783,290.292523 150.569736,287.557945 150.146784,285.03378 C149.723833,282.298398 150.146784,281.036717 149.723833,279.984647 Z" id="Path_52" fill="#FFF3E0"></path>
                        <path d="M141.214332,259.418931 C139.499673,253.949031 138.213678,248.269522 139.499673,242.58921 C140.999182,236.698486 139.714005,230.387742 140.999182,224.286607 L133.5,220.5 C133.713514,227.231567 136.284686,244.062092 136.499836,244.693327 C137.785013,251.00407 137.356348,251.844914 137.999346,257.315618 C138.642343,262.995126 142.285995,271.620399 143.999836,277.721534 C144.642834,279.825651 145.070681,289.082158 145.070681,290.764648 C145.070681,291.816707 144.214169,293.5 145.714496,293.5 C146.357493,293.5 147.428338,293.079177 148.5,292.658353 C148.285668,287.609276 145.714496,282.561002 145.499346,277.511925 C144.857166,270.779555 143.142507,265.519263 141.214332,259.418931 Z" id="Path_53" fill="#FFF3E0"></path>
                        <path d="M150.603303,286.642872 C150.391865,287.595352 150.180428,288.737601 149.334679,289.69008 C148.277493,291.023552 145.952491,290.452791 145.740247,289.500312 L145.740247,291.023552 C145.740247,291.976032 144.895305,293.5 146.374559,293.5 C147.643989,293.5 150.813933,292.356297 151.237614,291.023552 C151.871119,289.881304 151.237614,288.16684 150.603303,286.642872 C150.813933,286.452376 150.603303,286.452376 150.603303,286.642872 Z" id="Path_54" fill="#FFA000"></path>
                        <path d="M150.598854,285.678826 C150.386368,286.871 150.173882,288.300698 149.323938,289.492871 C149.323938,289.732216 149.111452,289.732216 148.898966,289.969741 L148.898966,290.44752 C148.261508,292.830047 146.137458,293.545351 145.5,293.545351 C145.5,294.022221 145.711675,294.5 146.349133,294.5 C147.624861,294.5 150.810529,293.069392 151.236312,291.400349 C151.87296,289.732216 151.236312,287.586304 150.598854,285.678826 C150.810529,285.440391 150.598854,285.440391 150.598854,285.678826 Z" id="Path_55" fill="#FFA000"></path>
                        <path d="M147.552505,181.470133 C144.394991,182.323242 145.026654,178.698344 144.605545,175.5 L140.1839,176.992126 C140.815564,179.977193 141.236673,182.109965 138.710822,182.963074 C137.236941,183.602905 135.131396,184.242737 133.868872,184.4552 C131.764131,184.882568 130.921913,198.743144 130.5,203.00706 L134.289981,204.5 C135.131396,201.514933 136.605277,198.315775 136.605277,194.690877 L154.5,186.161418 C153.235869,181.043579 151.552237,180.403747 147.552505,181.470133 Z" id="Path_56" fill="#FFF3E0"></path>
                        <path d="M150.5,185.59836 C150.5,185.59836 155.805804,198.191724 157.642968,200.5 L160.5,197.771892 C159.479353,195.462815 157.847098,187.697521 155.398325,183.5 L150.5,185.59836 Z" id="Path_57" fill="#E8D7B9"></path>
                        <path d="M157.407404,197.973177 C156.151367,195.657726 156.360707,191.868294 156.570046,191.447157 C156.988725,190.604882 157.826083,188.709765 157.616744,187.868294 C156.988725,185.341471 153.430753,186.394314 153.012074,184.709765 L153.012074,184.5 L150.5,185.552039 C150.5,185.552039 155.942028,198.184549 157.826083,200.5 L159.5,199.02602 C159.29146,198.605686 157.826083,198.394314 157.407404,197.973177 Z" id="Path_58" fill="#F0BF97"></path>
                        <path d="M182.031561,200.490892 C180.528372,200.279844 181.816,199.225409 180.528372,199.435651 C179.239925,199.435651 177.952297,199.858553 176.878591,200.913794 C175.804885,201.75718 165.714507,198.803313 160.775459,197.536219 C159.058349,197.114928 156.696195,200.490892 157.769901,201.335084 C162.70813,205.133144 171.940363,203.867661 175.590964,204.288952 C178.38096,204.5 179.884149,204.288952 180.957855,204.5 C181.816,204.5 182.460224,204.288952 182.460224,203.655808 C182.889706,203.655808 183.320008,203.233711 183.320008,202.600567 C183.963412,202.600567 184.178154,201.967423 183.963412,201.75718 C184.823197,201.75718 185.681342,201.75718 185.466601,201.124036 C185.466601,200.490892 182.889706,200.70194 182.031561,200.490892 Z" id="Path_59" fill="#FFF3E0"></path>
                        <path d="M182.031888,199.699603 C181.816348,199.699603 181.602446,199.699603 181.173005,199.899664 C180.528842,200.100489 179.670777,200.299786 179.240516,200.899969 C178.381632,201.69945 177.308027,202.500458 176.449963,202.299633 C174.088033,202.099572 170.439415,201.099267 168.077485,201.099267 C165.716374,200.899969 163.354443,200.100489 160.992513,199.299481 C160.777792,199.299481 158.846123,198.5 158.20196,198.5 C157.772518,198.899359 157.128355,199.899664 157.772518,200.499847 C162.710281,204.100183 171.941643,202.90058 175.591899,203.299939 C176.665504,203.299939 180.314121,203.5 180.958284,203.5 C181.816348,203.5 182.460511,203.299939 182.460511,202.699756 C182.889953,202.699756 183.320214,202.299633 183.320214,201.69945 C183.963557,201.69945 184.178278,201.099267 183.963557,200.899969 C184.823261,200.899969 185.681325,200.899969 185.466604,200.299786 C185.466604,199.699603 182.889953,199.899664 182.031888,199.699603 Z" id="Path_60" fill="#FFF3E0"></path>
                        <path d="M177.5,198.95505 L179.23913,199.5 C179.673913,199.5 180.326087,199.136237 180.76087,198.590594 C181.847826,198.590594 182.281779,198.226831 182.5,197.5 C181.195652,197.863068 180.542649,197.863068 180.108696,197.863068 L177.5,198.95505 Z" id="Path_61" fill="#FFF3E0"></path>
                        <path d="M147.868604,181.066919 C144.71109,181.86241 145.342754,178.482332 144.921645,175.5 L140.5,176.89135 C140.711358,177.487968 140.711358,177.885714 140.711358,178.482332 C141.973882,180.271428 144.289981,182.856774 146.395526,182.459028 C147.447495,182.260155 148.500268,181.066919 149.763595,180.868805 C150.605009,180.868805 151.657782,180.868805 152.5,181.066919 C151.657782,180.47106 149.974149,180.47106 147.868604,181.066919 Z" id="Path_62" fill="#FFD8D8"></path>
                        <path d="M135.500424,194.5 C135.500424,195.128018 135.500424,195.965376 135.278155,196.593395 C135.278155,198.68679 134.167656,201.406605 133.5,203.29146 L135.055885,203.5 C135.722694,201.198065 137.278579,198.68679 137.5,195.965376 C136.83404,195.756037 135.500424,194.710138 135.500424,194.5 Z" id="Path_63" fill="#FFF3E0"></path>
                        <path d="M145.647745,163.096896 C144.629082,162.674827 143.611198,162.252758 141.981337,162.674827 C138.518663,163.096896 137.5,166.261608 137.5,169.216092 L137.5,169.849195 C137.5,170.692528 137.5,171.325631 137.70451,171.958735 C137.907465,173.013102 138.111975,173.858046 138.518663,174.701378 C138.926128,175.334482 141.166407,178.5 143,178.5 C144.833593,178.5 147.277605,175.334482 147.68507,174.491149 C147.888802,173.858046 148.092535,173.013102 148.296267,171.958735 C148.296267,171.536666 148.296267,170.904368 148.5,170.481493 L148.5,169.637355 C148.296267,166.472643 147.481337,164.152068 145.647745,163.096896 Z" id="Path_64" fill="#FFF3E0"></path>
                        <path d="M145.499004,216.70921 C142.13029,223.848804 142.761271,228.258246 142.971866,237.916376 C142.971866,244.216725 142.971866,245.896818 142.550676,250.305459 C142.340081,251.564727 142.13029,252.825598 141.918891,253.875656 C141.918891,255.134924 142.13029,256.184983 142.13029,257.654262 C142.340081,259.334355 141.498506,260.594425 141.287107,261.854495 C139.813747,268.993287 141.498506,274.032764 139.813747,279.492265 C139.392557,281.172358 138.760773,281.172358 138.339583,281.801591 C137.918393,282.851649 138.339583,284.111719 137.918393,286.211835 C137.498007,288.941185 136.023844,291.460523 136.654824,292.929802 C136.865419,293.77065 139.181962,296.5 140.445531,296.5 C141.918891,296.5 141.708297,293.979861 141.918891,292.929802 C142.13029,291.880546 142.13029,284.531742 142.13029,283.901707 C142.340081,281.801591 148.025338,266.053926 148.867717,260.384413 C149.499502,255.134924 149.288907,252.614785 150.341077,246.316039 C152.025836,237.916376 153.289405,230.357561 153.5,223.008757 L152.657621,216.5 L145.499004,216.70921 Z" id="Path_65" fill="#FFF3E0"></path>
                        <path d="M140.330208,293.576539 C137.990624,293.576539 137.405727,288.731673 137.405727,288.5 C136.821576,290.578007 136.236679,292.423461 136.625866,293.576539 C136.821576,294.500587 138.96545,297.5 140.135242,297.5 C141.5,297.5 141.30429,294.730498 141.5,293.576539 L141.5,292.654253 C141.109325,293.115836 140.719394,293.576539 140.330208,293.576539 Z" id="Path_66" fill="#FFA000"></path>
                        <path d="M140.071429,293.451645 C139.833333,293.451645 139.356234,293.451645 139.119048,293.214416 L139.119048,294.16697 C138.880952,294.881385 137.928571,295.357662 137.214286,295.357662 C136.977099,295.357662 136.738095,295.118615 136.5,295.118615 C137.45329,296.309307 138.880952,297.5 139.833333,297.5 C141.5,297.5 141.260996,294.642338 141.5,293.451645 L141.5,292.5 C141.022901,292.976277 140.54671,293.451645 140.071429,293.451645 Z" id="Path_67" fill="#FFA000"></path>
                        <path d="M154.851714,208.76505 C152.821501,209.397575 140.231699,210.451783 135.561201,207.5 C135.155004,209.608416 131.5,213.613602 131.5,220.148888 C131.5,229.845993 135.358103,249.239398 135.358103,249.239398 C135.358103,249.239398 144.089802,251.768693 150.384315,249.661886 C152.821501,237.012999 156.476505,223.942427 155.257912,214.456969 C155.46101,214.246127 154.851714,208.975891 154.851714,208.76505 Z" id="Path_68" fill="#FF6F00"></path>
                        <path d="M155.590411,209.5 C155.590411,209.5 155.590411,209.706773 155.590411,209.5 C150.817601,214.25499 141.054998,215.909174 142.139916,218.389661 C143.00785,220.043845 150.383634,221.904013 151.686363,222.937878 C154.289338,225.212381 146.912725,228.313187 147.346693,233.688496 C147.563676,236.169772 146.261775,240.717989 145.610824,243.198476 C144.525907,246.919601 138.885991,246.712038 136.5,249.60765 C139.31913,250.22718 146.044791,251.260255 151.034585,249.60765 C153.638387,237.202848 157.543263,224.3845 156.241361,215.082082 C156.241361,214.875309 155.808223,210.327092 155.590411,209.5 Z" id="Path_69" fill="#FF6F00"></path>
                        <path d="M157.461088,184.464604 C152.607846,178.2898 147.754604,181.171742 147.754604,181.171742 C145.855194,182.81778 143.112407,185.082163 143.112407,185.082163 L137.626834,183.435339 C137.626834,183.435339 132.139649,183.641192 131.507318,188.580879 C131.296273,190.226917 135.726618,190.226917 134.883242,192.4913 C133.616968,195.579095 135.938469,196.813427 137.203937,197.842692 C137.626834,200.518781 137.837074,202.164034 137.414983,203.605005 C136.993697,205.663535 135.305333,206.486161 135.516378,208.338838 C135.938469,211.425847 154.507256,210.809074 155.983769,208.956397 C157.672134,207.10372 155.983769,195.784162 155.351438,189.815211 C154.718301,186.522349 157.883179,185.287231 157.461088,184.464604 Z" id="Path_70" fill="#FFA000"></path>
                        <path d="M141.551427,174.8695 C141.362463,175.1305 141.741114,175.1305 141.930802,175.3935 L143.068927,175.3935 C143.258615,175.3935 143.63799,175.3935 143.448302,175.1305 C143.448302,175.1305 142.879239,174.6065 142.499864,174.6065 C142.120489,174.6065 141.741114,174.8695 141.551427,174.8695 Z" id="Path_71" fill="#FFD8D8"></path>
                        <path d="M145.654134,162.116862 C144.637754,161.681192 143.622149,161.243857 141.99594,161.681192 C138.337746,162.335113 137.321365,165.608049 137.524641,169.099236 C137.524641,169.973074 137.524641,170.626995 137.728693,171.5 C141.590164,166.699305 144.028701,164.953295 144.231977,164.953295 C144.028701,165.827133 142.606544,168.00798 142.606544,168.00798 C144.841806,167.135808 146.468015,165.389798 146.468015,165.389798 C147.483619,166.262803 148.093448,167.57231 148.5,168.663567 C148.296724,165.827133 147.483619,163.426369 145.654134,162.116862 Z" id="Path_72" fill="#FFD8D8" fill-rule="nonzero"></path>
                        <path d="M147.676669,162.190186 C147.676669,162.190186 146.323514,159.5 142.715963,159.5 C138.206309,159.5 135.5,162.810209 135.5,165.706542 C135.5,168.189002 136.176577,169.431416 135.725526,171.5 C140.460706,166.327355 143.618066,164.672645 143.618066,164.672645 C143.39254,165.499605 141.81386,167.775917 141.81386,167.775917 C144.294643,166.948167 146.098849,165.292668 146.098849,165.292668 C148.353246,166.948167 148.578772,170.052228 148.578772,170.052228 C149.931926,168.603666 150.833169,166.74123 150.382978,164.878793 C150.156591,162.810209 147.676669,162.190186 147.676669,162.190186 Z" id="Path_73" fill="#212121" fill-rule="nonzero"></path>
                        <path d="M136.5,171.5 C141.225043,166.641856 144.375644,165.087012 144.375644,165.087012 C144.150601,165.864434 142.575301,168.002344 142.575301,168.002344 C143.475472,167.613633 145.050773,166.058789 145.5,164.503946 C140.099828,164.310332 136.5,171.305645 136.5,171.5 Z" id="Path_74" fill="#212121" fill-rule="nonzero"></path>
                        <path d="M149.210482,164.5 C149.780885,166.154601 149.210482,168.223838 147.5,168.636896 C147.880268,169.671515 147.880268,170.5 147.880268,170.5 C149.021074,169.051534 149.780885,167.189219 149.401342,165.326905 C149.401342,164.913848 149.401342,164.706134 149.210482,164.5 Z" id="Path_75" fill="#212121" fill-rule="nonzero"></path>
                        <path d="M147.46204,170.945293 C147.046856,170.72307 146.631672,170.72307 146.008896,170.72307 C145.178528,170.72307 144.348952,170.72307 143.933768,171.389737 C143.933768,171.611111 143.518584,171.611111 143.518584,171.611111 L142.273032,171.611111 C142.273032,171.611111 141.857848,171.611111 141.857848,171.389737 C141.443456,170.72307 140.612296,170.5 139.78272,170.5 L139.159944,170.5 L138.952352,170.72307 L139.78272,170.72307 C141.235072,170.72307 141.857848,171.166667 141.857848,172.055556 C141.857848,173.166667 140.82068,174.055556 139.78272,174.055556 C138.74476,174.055556 137.915184,173.166667 137.7068,172.277778 L137.5,172.500848 C137.7068,173.388889 138.537168,174.277778 139.78272,174.277778 C141.02748,174.277778 142.06544,173.388889 142.273032,172.277778 C142.481416,172.055556 142.895808,171.833333 143.1034,171.833333 C143.310992,171.833333 143.726176,172.055556 143.933768,172.277778 C143.933768,173.388889 144.971728,174.5 146.216488,174.5 C147.046856,174.5 147.877224,174.055556 148.292408,173.388889 C148.292408,172.944444 148.292408,172.277778 148.5,171.833333 L148.5,171.166667 C147.877224,170.945293 147.669632,170.945293 147.46204,170.945293 Z M148.084816,172.277778 C148.084816,173.388889 147.046856,174.277778 146.008896,174.277778 C144.764136,174.277778 143.933768,173.388889 143.933768,172.277778 C143.933768,171.389737 144.555752,170.945293 146.008896,170.945293 C147.46204,170.945293 148.084816,171.389737 148.084816,172.277778 Z" id="Shape_76" fill="#FFD8D8" fill-rule="nonzero"></path>
                        <path d="M139.890871,168.5 C138.804564,168.5 137.5,168.5 137.5,170.055037 C137.5,171.388653 138.587137,172.277731 139.890871,172.5 C141.196266,172.5 142.282573,171.610923 142.5,170.277306 C142.282573,168.721421 140.761411,168.5 139.890871,168.5 Z M139.674274,172.055461 C138.36971,172.055461 137.5,171.166384 137.5,170.055037 C137.5,169.166808 138.153112,168.721421 139.674274,168.721421 C141.196266,168.721421 141.848548,169.166808 141.848548,170.055037 C141.848548,171.166384 140.978008,172.055461 139.674274,172.055461 Z" id="Shape_77" fill="#673AB7"></path>
                        <path d="M138.5,169.5 L137.5,169.5 L137.5,170.166384 C137.5,170.166384 137.64239,170.166384 137.64239,170.38936 C137.64239,170.61064 137.64239,171.054896 137.785325,171.5 C137.785325,171.5 137.785325,170.38936 137.928805,170.166384 C138.214675,169.722976 138.5,169.5 138.5,169.5 Z" id="Path_78" fill="#673AB7"></path>
                        <path d="M145.891701,170.5 C144.804564,170.5 143.5,170.5 143.5,172.055556 C143.5,173.388889 144.586307,174.277778 145.891701,174.5 C147.195436,174.5 148.282573,173.611111 148.5,172.277778 C148.282573,170.72307 146.978008,170.5 145.891701,170.5 Z M145.891701,174.055556 C144.586307,174.055556 143.717427,173.166667 143.717427,172.055556 C143.717427,171.166667 144.36971,170.72307 145.891701,170.72307 C147.412863,170.72307 148.065145,171.166667 148.065145,172.055556 C148.065145,173.166667 146.978008,174.055556 145.891701,174.055556 Z" id="Shape_79" fill="#673AB7"></path>
                        <path d="M148.275862,169.722976 C148.12069,169.722976 147.655172,169.722976 147.5,169.5 C147.5,169.5 147.810345,169.722976 147.965517,170.166384 C148.12069,170.61064 148.12069,171.5 148.12069,171.5 C148.275862,171.054896 148.275862,170.61064 148.275862,170.38936 C148.275862,170.166384 148.275862,170.166384 148.431034,170.166384 C148.586207,170.166384 148.431034,170.166384 148.431034,170.166384 L148.431034,169.722976 L148.275862,169.722976 Z" id="Path_80" fill="#673AB7"></path>
                        <path d="M142.5,170.700763 L141.9,170.700763 C141.9,170.700763 141.5,170.700763 141.5,170.5 L141.7,171.5 C141.9,171.3 142.300763,171.1 142.5,171.1 C142.7,171.1 143.1,171.3 143.3,171.5 L143.5,170.700763 C143.5,170.9 143.1,170.9 143.1,170.9 C142.9,170.700763 142.7,170.700763 142.5,170.700763 Z" id="Path_81" fill="#673AB7"></path>
                        <path d="M151.379828,206.05833 C150.132553,205.871727 151.379828,205.122454 150.132553,205.122454 C148.884485,205.122454 147.844427,205.122454 146.596359,205.871727 C146.18113,206.246363 145.557095,206.05833 144.932267,206.05833 C142.436924,205.871727 139.316752,203.998545 134.742088,203.436591 C133.286008,203.249988 132.453962,202.688033 130.78987,202.5 C130.373847,204.373182 130.373847,206.432967 130.998676,206.808318 C132.869985,208.11883 136.405386,208.306148 138.901523,208.493466 C141.189649,208.680785 142.020901,208.306148 145.141073,208.868103 C147.636416,209.242739 149.092496,209.242739 150.132553,209.430057 C150.963805,209.61666 151.379828,209.430057 151.58784,208.868103 C152.003863,208.868103 152.419885,208.493466 152.419885,208.11883 C152.835908,208.11883 153.251137,207.744909 153.04392,207.369557 C153.875966,207.369557 154.5,207.369557 154.5,206.808318 C154.5,206.432967 152.211874,206.246363 151.379828,206.05833 Z" id="Path" fill="#FFF3E0"></path>
                        <path d="M151.108732,203.944444 L148.5,204.833333 L150.891268,205.5 C151.108732,205.277778 151.327025,204.833333 151.761122,204.611111 C152.630976,204.611111 153.283367,204.167515 153.5,203.5 C152.196049,203.944444 151.543659,203.944444 151.108732,203.944444 Z" id="Path" fill="#E8D7B9"></path>
                        <path d="M129.5,205.5 C129.5,206 129.919124,206.5 130.338248,206.5 L150.662552,206.5 C151.080876,206.5 151.5,206 151.5,205.5 L129.5,205.5 Z" id="Path" fill="#6A1B9A"></path>
                        <path d="M152.637867,187.700193 L148.5,204.499839 C148.5,204.699871 148.5,205.5 149.534664,205.5 L166.5,205.299204 L166.5,186.5 L154.292541,186.5 C153.465599,186.5 152.8448,187.100096 152.637867,187.700193 Z" id="Path" fill="#6A1B9A"></path>
                        <path d="M176.991248,186.5 L154.614594,186.5 C154.401452,186.5 154.18831,186.700032 154.18831,186.900064 L149.5,204.899904 C149.5,205.299204 149.713142,205.5 149.92547,205.5 L170.810944,205.5 C171.875027,205.5 172.940737,204.699871 173.154692,203.700474 L177.416718,187.100096 C177.629047,186.900064 177.416718,186.5 176.991248,186.5 Z" id="Path" fill="#E1BEE7"></path>
                        <path d="M175.58331,203.980822 C175.795672,204.414862 176.432757,204.631882 176.85667,204.414862 L215.5,182.5 L176.008034,202.679532 C175.58331,202.895723 175.370949,203.546783 175.58331,203.980822 Z" id="Path_82" fill="#FFA000" fill-rule="nonzero"></path>
                        <path d="M184.756275,200.549 L182.277193,200.549 C181.286507,200.549 181.286507,201.073 182.030231,201.335 C183.020918,201.335 183.764642,201.596 184.756275,201.335 C185.252092,201.335 185.5,201.073 185.5,200.812 C185.5,200.812 185.252092,200.549 184.756275,200.549 Z" id="Path" fill="#FFF3E0"></path>
                        <path d="M184.148071,200.5 L181.168791,200.5 C180.316524,200.5 180.316524,201.000478 180.955115,201.250716 C181.805757,201.5 182.870076,201.5 183.722343,201.5 C184.148071,201.5 184.360122,201.250716 184.360122,201.000478 C184.572985,200.749284 184.572985,200.5 184.148071,200.5 Z" id="Path" fill="#FFF3E0"></path>
                        <path d="M184.033031,202.699237 C183.099985,202.699237 182.165157,202.5 181.232111,202.5 C180.299065,202.5 180.299065,202.9 180.998627,203.099237 C181.932564,203.299237 182.866501,203.5 183.799547,203.5 C184.267407,203.5 184.5,203.299237 184.5,203.099237 C184.5,202.9 184.5,202.699237 184.033031,202.699237 Z" id="Path" fill="#FFF3E0"></path>
                        <path d="M181.957434,203.700763 C180.873338,203.700763 180.330772,203.700763 179.24564,203.5 C178.160508,203.5 178.432826,203.9 178.974357,204.100763 C180.059489,204.3 180.601019,204.3 181.687187,204.5 C182.229752,204.5 182.5,204.3 182.5,204.100763 C182.5,203.9 182.229752,203.9 181.957434,203.700763 Z" id="Path" fill="#FFF3E0"></path>
                        <path d="M340.190656,169.132342 C338.112312,164.357307 334.912449,160.164203 328.513527,156.634899 C325.206011,154.767105 321.653465,153.368868 317.95872,152.483532 C320.444378,151.329305 322.730797,149.787392 324.732017,147.916387 C327.673191,145.289275 329.903375,141.96144 331.214491,138.242708 C332.421168,134.463777 332.914443,130.493812 332.668609,126.535084 C332.211485,119.559954 330.840116,112.792713 327.18313,107.935004 C323.526947,103.077295 318.374067,99.3409047 311.558994,96.7250301 C306.323366,94.732021 300.962411,93.4870927 292.651444,93.0303782 L292.651444,66.5 L276.02951,76.8800215 L276.02951,93.0713139 L262.731963,93.0713139 L262.731963,76.0492666 L245.694682,66.5 L245.694682,93.0713139 L209.5,93.0713139 L221.135354,113.000602 C224.729676,113.004615 227.165524,113.336115 228.40755,113.954967 C229.567631,114.451012 230.521243,115.330729 231.108514,116.446429 C231.649189,117.48427 231.898236,119.933994 231.898236,123.71132 L231.898236,195.620179 C231.898236,199.357372 231.649189,201.765357 231.108514,202.844135 C230.568642,203.923715 230.277819,204.878882 228.989197,205.460009 C227.701379,206.041136 227.659603,206.000201 224.086169,206.000201 L224.044393,206.000201 L209.5,225.928686 L245.652907,225.928686 L245.652907,252.5 L262.690188,252.5 L262.690188,225.928686 L275.987735,225.928686 L275.987735,252.5 L292.609668,252.5 L292.609668,225.762535 C303.414327,225.222344 311.101871,223.811264 317.293521,221.485953 C325.313664,218.496841 331.463539,214.137585 335.868472,208.408186 C340.273404,202.678786 342.060122,193.918536 342.434497,187.150493 C342.72532,181.13053 342.060122,173.367185 340.190656,169.132342 Z M262.690188,115.491261 L262.694205,115.491261 L262.694205,114.93903 L274.313491,114.93903 C280.849791,114.93903 302.632638,112.763817 302.994159,130.537155 C303.3605,148.311297 274.313491,147.584085 274.313491,147.584085 L262.694205,147.584085 L262.694205,146.213942 L262.690188,146.213942 L262.690188,115.491261 Z M262.690188,166.142427 L275.987735,166.142427 C278.689502,166.142427 287.980592,166.554193 291.362822,166.707501 C292.742226,166.757266 294.107972,167.000473 295.419088,167.429897 C295.8971,167.592034 296.350206,167.774238 296.840268,167.978115 C298.88969,168.639508 300.823426,169.61715 302.570778,170.875723 C303.709971,171.627817 304.711786,172.568537 305.533643,173.657749 C305.889541,174.148978 306.216517,174.660273 306.514571,175.189228 C307.30108,176.519238 307.885137,177.959213 308.247461,179.461796 C308.642724,180.912206 308.84839,182.408367 308.85803,183.912555 C308.85803,187.146479 308.259512,189.824961 306.784506,192.091678 C304.785697,195.437975 301.507103,197.808235 297.816375,199.481785 C288.275433,203.816158 275.987735,203.508739 275.987735,203.508739 L262.690188,203.508739 L262.690188,166.142427 Z" id="Shape_83" fill="#FFECB3" fill-rule="nonzero"></path>
                        <g id="Group" transform="translate(347.500000, 214.500000)">
                            <path d="M59.1237133,66.1762763 C46.4190115,71.9913422 30.0557359,71.5785868 30.0557359,71.5785868 L12.3477874,71.5785868 L12.3477874,68.1759908 C19.5634199,66.1487052 29.5409091,64.8950319 40.5698052,64.8950319 C46.7767316,64.8739481 52.9780183,65.3012999 59.1237133,66.1762763 Z" id="Path_84" fill-opacity="0.1" fill="#000000" fill-rule="nonzero"></path>
                            <path d="M80.4120851,76.0345604 C80.4120851,82.1885884 62.5712001,87.174089 40.5698052,87.174089 C18.5676046,87.174089 0.727525253,82.1885884 0.727525253,76.0345604 C0.727525253,72.9652501 5.16518759,70.1862471 12.3477874,68.1759908 L12.3477874,71.5785868 L30.0557359,71.5785868 C30.0557359,71.5785868 46.4190115,71.9913422 59.1237133,66.1762763 C71.7792689,68.0365135 80.4120851,71.7513116 80.4120851,76.0345604 Z" id="Path_85" fill="#D1C4E9" fill-rule="nonzero"></path>
                            <rect id="Rectangle" fill="#2F2E41" x="28.706229" y="6.67544582" width="16.9522246" height="17.0932607"></rect>
                            <path d="M35.0098365,18.763744 C35.0098365,18.763744 36.4133237,23.7062662 33.9576239,24.0598248 C32.4340909,24.2990444 30.9903199,24.9047974 29.7479678,25.825185 L34.3088985,31.827572 L42.727405,31.827572 L47.9892737,26.5314913 C47.9892737,26.5314913 40.9734488,21.2354105 42.376936,18.0574377 C43.7804233,14.8794649 35.0098365,18.763744 35.0098365,18.763744 Z" id="Path_86" fill="#FFF3E0" fill-rule="nonzero"></path>
                            <polygon id="Path_87" fill="#FFF3E0" fill-rule="nonzero" points="37.1150673 80.1994158 45.1839105 83.0230191 50.7954425 83.3765777 50.4449735 78.4332447 38.8690236 74.9876702"></polygon>
                            <path d="M47.4631674,79.139551 C47.4631674,79.139551 47.4631674,84.082884 48.164911,84.082884 C48.8666546,84.082884 58.3381794,83.0238301 61.1443482,84.082884 C63.9513228,85.141938 68.1601732,81.2576589 66.055748,79.139551 C63.9513228,77.021443 60.5175325,73.8434702 58.3752405,74.5497765 C56.2329485,75.2560828 47.4631674,77.021443 47.4631674,77.021443 L47.4631674,79.139551 Z" id="Path_88" fill="#FFA000" fill-rule="nonzero"></path>
                            <path d="M21.6799303,74.5497765 C21.6799303,74.5497765 17.4702742,83.0238301 20.276443,83.7293254 C23.0834175,84.4356317 26.2400553,83.3765777 26.59133,83.0238301 C26.9417989,82.6702715 31.8531987,81.2576589 32.5549423,81.9647761 C33.2558802,82.6702715 33.2558802,79.139551 33.2558802,79.139551 L21.6799303,74.5497765 Z" id="Path_89" fill="#FFA000" fill-rule="nonzero"></path>
                            <path d="M28.8488336,64.5876954 C28.8488336,64.5876954 22.1834776,73.7672443 27.0940717,76.2389108 C32.0054714,78.7105773 55.5094517,78.7105773 57.2634079,76.2389108 C59.0173641,73.7672443 59.7183021,65.999497 57.2634079,65.2940017 C54.8069024,64.5876954 28.8488336,64.5876954 28.8488336,64.5876954 Z" id="Path_90" fill="#4527A0" fill-rule="nonzero"></path>
                            <ellipse id="Oval_91" fill="#FFF3E0" cx="37.816811" cy="13.1141047" rx="8.06803752" ry="8.12049495"></ellipse>
                            <path d="M25.1878427,25.825185 L32.2036676,24.4125724 C32.2036676,24.4125724 33.9576239,30.0622118 39.5707672,29.0023469 C45.1831049,27.9432929 46.5865921,24.4125724 46.5865921,24.4125724 C46.5865921,24.4125724 50.7962482,26.1779327 51.1467172,26.1779327 C51.4971861,26.1779327 56.0581169,27.9432929 56.0581169,29.0023469 C56.0581169,29.0023469 58.5138167,34.2984276 59.2155604,35.0047339 C59.9164983,35.7110402 58.1625421,35.3582925 57.1103295,36.7700942 C56.0581169,38.1827067 55.0059043,40.6543732 52.9006734,40.6543732 C52.3318663,40.6543732 51.7114959,40.3956916 51.1096561,40.0194274 L50.7962482,40.6543732 L51.4971861,59.7205883 L25.5383117,59.014282 L27.2777658,40.4629975 C26.2191077,40.2894618 24.8897427,40.0007764 24.4860991,39.5945084 C23.7843555,38.889013 22.3816739,38.1827067 19.925974,36.0637879 C17.4702742,33.9456799 25.1878427,25.825185 25.1878427,25.825185 Z" id="Path_92" fill="url(#linearGradient-2)" fill-rule="nonzero"></path>
                            <path d="M21.3286556,35.0047339 C21.3286556,35.0047339 19.2242304,53.7182012 20.6277177,55.1308138 C22.0303992,56.5426155 27.6435426,60.4268945 27.6435426,60.4268945 L27.6435426,56.1898678 L24.8373737,50.893787 L27.6435426,38.5354544 L21.3286556,35.0047339 Z" id="Path_93" fill="#FFF3E0" fill-rule="nonzero"></path>
                            <path d="M57.6364358,34.4752069 C57.6364358,34.4752069 56.4085859,53.7182012 56.4085859,54.4245075 C56.4085859,55.1308138 53.2511424,57.6024803 52.1989298,57.6024803 C51.1467172,57.6024803 50.4457792,55.8363092 50.4457792,55.8363092 L52.9006734,53.011895 L51.1467172,38.5354544 L57.6364358,34.4752069 Z" id="Path_94" fill="#FFF3E0" fill-rule="nonzero"></path>
                            <path d="M54.3041607,61.4859485 C54.3041607,61.4859485 70.0897667,52.6591473 70.4410414,61.4859485 C70.7915103,70.3127497 62.3721982,73.8434702 62.3721982,73.8434702 C62.3721982,73.8434702 40.6229798,80.4078208 39.7464045,78.0083256 C38.8690236,75.6088305 37.1150673,71.7253623 38.5177489,71.3718037 C39.9212362,71.019056 41.6751924,70.3127497 42.376936,71.019056 C43.0786797,71.7253623 51.8484608,65.7229753 51.8484608,65.7229753 L54.3041607,61.4859485 Z" id="Path_95" fill="#4527A0" fill-rule="nonzero"></path>
                            <path d="M61.6704545,60.4268945 C61.6704545,60.4268945 58.5138167,61.8386962 57.4607985,62.8985611 C56.4085859,63.957615 51.8484608,65.7229753 51.8484608,65.7229753" id="Path_96" stroke-opacity="0.2" stroke="#000000" stroke-width="0.5"></path>
                            <path d="M25.8895863,64.6639213 C25.8895863,64.6639213 12.5588745,55.1308138 7.9987494,62.1914439 C3.43862434,69.2536958 27.6435426,78.7868033 31.151455,80.1986049 C34.6593675,81.6112175 37.816811,83.0238301 37.816811,83.0238301 C37.816811,83.0238301 40.9734488,75.2560828 40.9734488,73.8434702 C40.9734488,72.4308577 38.5177489,72.4308577 37.816811,72.4308577 C37.1150673,72.4308577 33.9576239,71.7253623 33.2558802,70.6654974 C32.5549423,69.6064435 25.8895863,64.6639213 25.8895863,64.6639213 Z" id="Path_97" fill="#4527A0" fill-rule="nonzero"></path>
                            <path d="M18.5224868,62.1914439 C18.5224868,62.1914439 22.0303992,65.016669 25.1878427,65.7229753 C28.3452862,66.4284706 29.3974988,68.1946418 29.3974988,68.1946418" id="Path_98" stroke-opacity="0.2" stroke="#000000" stroke-width="0.5"></path>
                            <path d="M23.4690421,48.9167782 L23.7497114,63.8659817 C23.7690476,64.89341 24.6085618,65.7132443 25.6301587,65.702008 L53.2704786,65.3888786 C54.2469577,65.3783367 55.0494108,64.6079682 55.1058081,63.6259511 L55.9445166,48.9889495 C55.9743266,48.4748299 55.7914382,47.9712522 55.4401635,47.5966098 C55.0888889,47.2219675 54.5998437,47.0095079 54.0882395,47.0095079 L25.328836,47.0095079 C24.829317,47.0095079 24.3507456,47.2114256 24.0010823,47.5706606 C23.6522246,47.9290847 23.4604738,48.4140114 23.4690421,48.9167782 Z" id="Path_99" fill="#FFA000" fill-rule="nonzero"></path>
                            <path d="M20.2724146,25.9143856 C21.0257215,24.2422805 22.0368446,22.6723505 22.5194444,20.9021248 C23.0963083,18.7807732 22.8715248,16.5353518 22.8030423,14.3361524 C22.6934704,12.3915801 22.8578283,10.4405205 23.2920875,8.54217034 C23.7327922,6.63490011 24.7229678,4.9003546 26.1377345,3.55585883 C29.8140332,0.253005235 36.5422318,0.0154073701 41.0306518,1.39071788 C42.8007215,1.93321949 44.6860029,2.96551328 45.1242905,4.77385198 C45.1903559,5.04713007 45.2201659,5.32851731 45.2942881,5.59936265 C45.6616763,6.94629116 47.0305195,7.79775109 47.5243987,9.10332298 C48.1632997,10.7908355 47.1779582,12.6267452 47.0498557,14.4285966 C46.8991943,16.5321081 47.926431,18.5188479 48.9391655,20.3652996 C49.5410053,21.4632774 50.1670154,22.6318048 50.1073954,23.8838564 C50.0574435,24.5690789 49.8503848,25.2332176 49.5031385,25.8235632 C48.1914983,28.0016788 45.8590669,29.3469854 43.3292448,29.3859093 C42.5203463,29.4507825 41.7114478,29.2585958 41.0169553,28.8361095 C39.9212362,28.0770938 39.6005772,26.5477096 39.8285835,25.2291631 C40.0573954,23.9098056 40.7220779,22.7177617 41.2433502,21.485983 C41.4036797,21.108097 41.5478956,20.7229128 41.6808321,20.3352958 C45.0171356,18.4604621 46.5277778,14.4399494 45.2588384,10.8119192 C43.989899,7.18469994 40.3095719,5.00334071 36.5422318,5.64639568 C32.7740861,6.29026156 30.0146465,9.57040956 30.0049784,13.4165757 C29.9953102,17.2619309 32.7386364,20.5566753 36.5027537,21.2191923 C36.8959235,23.2116085 36.7170635,25.2761961 35.9879269,27.1704917 C35.3248557,28.7112287 34.4917869,30.173307 33.5048341,31.5275338 C33.1011905,32.2216763 32.5638047,32.8274292 31.9232924,33.3091123 C31.5011183,33.5604957 31.0483285,33.7551151 30.5762025,33.888105 C28.59424,34.5295382 26.5083454,35.0452796 24.446621,34.7574051 C22.3848966,34.4687196 20.3433141,33.2166681 19.6407648,31.2453356 C19.0252285,29.5172774 19.5199134,27.5856798 20.2724146,25.9143856 Z" id="Path_100" fill="#212121" fill-rule="nonzero"></path>
                            <ellipse id="Oval_101" fill="#212121" cx="37.4260582" cy="8.55433405" rx="8.56272246" ry="4.8833254"></ellipse>
                        </g>
                        <g id="Group" transform="translate(19.500000, 163.500000)">
                            <ellipse id="Oval_102" fill="#FFECB3" cx="88.7548749" cy="18.5692215" rx="18.4331565" ry="18.3674436"></ellipse>
                            <ellipse id="Oval_103" fill="#FFA000" cx="57.4232879" cy="61.7973232" rx="18.4331565" ry="18.3674436"></ellipse>
                            <ellipse id="Oval_104" fill="#FFECB3" cx="18.8608362" cy="96.3191097" rx="18.4331565" ry="18.3674436"></ellipse>
                            <line x1="19.128541" y1="129.536604" x2="19.128541" y2="96.2182207" id="Path_105" stroke="#9C27B0" stroke-width="0.5"></line>
                            <ellipse id="Oval_106" fill="#9C27B0" cx="18.8446362" cy="96.2182207" rx="4.72877653" ry="4.71191877"></ellipse>
                            <path d="M18.8446362,116.753567 C18.8446362,116.753567 18.1690967,102.276402 4.32053683,103.95923 L18.8446362,116.753567 Z" id="Path_107" fill="#9C27B0" fill-rule="nonzero"></path>
                            <line x1="89.0501196" y1="129.770666" x2="89.0501196" y2="18.6370189" id="Path_108" stroke="#4527A0" stroke-width="0.5"></line>
                            <ellipse id="Oval_109" fill="#4527A0" cx="88.7662149" cy="18.5837495" rx="4.72877653" ry="4.71191877"></ellipse>
                            <ellipse id="Oval_110" fill="#4527A0" cx="74.2429255" cy="98.9898427" rx="4.72877653" ry="4.71191877"></ellipse>
                            <path d="M88.7662149,42.6510167 C88.7662149,42.6510167 88.0906753,28.1746592 74.2429255,29.8574873 L88.7662149,42.6510167 Z" id="Path_111" fill="#4527A0" fill-rule="nonzero"></path>
                            <path d="M88.7662149,83.6918454 C88.7662149,83.6918454 88.0906753,69.2146808 74.2429255,70.8975089 L88.7662149,83.6918454 Z" id="Path_112" fill="#4527A0" fill-rule="nonzero"></path>
                            <path d="M88.7662149,128.475252 C88.7662149,128.475252 91.8061426,100.336105 74.2429255,98.9898427" id="Path_113" stroke="#4527A0" stroke-width="0.5"></path>
                            <ellipse id="Oval_114" fill="#4527A0" cx="103.291934" cy="98.9898427" rx="4.72877653" ry="4.71191877"></ellipse>
                            <path d="M88.7686448,128.475252 C88.7686448,128.475252 85.7287171,100.336105 103.291934,98.9898427" id="Path_115" stroke="#4527A0" stroke-width="0.5"></path>
                            <ellipse id="Oval_116" fill="#4527A0" cx="103.579484" cy="54.7932069" rx="4.72877653" ry="4.71191877"></ellipse>
                            <path d="M89.0561946,82.7773877 C89.0561946,82.7773877 86.0162669,56.1394694 103.579484,54.7932069" id="Path_117" stroke="#4527A0" stroke-width="0.5"></path>
                            <line x1="57.7233926" y1="129.614086" x2="57.7233926" y2="61.7763383" id="Path_118" stroke="#6A1B9A" stroke-width="0.5"></line>
                            <ellipse id="Oval_119" fill="#6A1B9A" cx="57.4394878" cy="61.7763383" rx="4.72877653" ry="4.71191877"></ellipse>
                            <path d="M57.4394878,80.9654217 C57.4394878,80.9654217 56.7639483,66.488257 42.9161985,68.1710852 L57.4394878,80.9654217 Z" id="Path_120" fill="#6A1B9A" fill-rule="nonzero"></path>
                            <path d="M57.4394878,128.318672 C57.4394878,128.318672 60.4794156,100.479771 42.9161985,99.1335086" id="Path_121" stroke="#6A1B9A" stroke-width="0.5"></path>
                            <ellipse id="Oval_122" fill="#6A1B9A" cx="42.9161985" cy="99.1335086" rx="4.72877653" ry="4.71191877"></ellipse>
                        </g>
                    </g>
                </g>
            </g>
        </g>
    </g>
</svg>