<?xml version="1.0" encoding="UTF-8"?>
<svg width="372px" height="341px" viewBox="0 0 372 341" version="1.1" xmlns="http://www.w3.org/2000/svg" xmlns:xlink="http://www.w3.org/1999/xlink">
    <!-- Generator: Sketch 64 (93537) - https://sketch.com -->
    <title>Register</title>
    <desc>Created with Sketch.</desc>
    <defs>
        <path d="M262.93461,48.0128727 C261.608039,40.5994909 261.747558,31.5076364 261.887076,26.2622182 L264.959535,28.0109455 C265.588512,29.8299273 266.147349,31.7176364 266.147349,33.2563636 C266.216727,36.1933091 265.728031,39.1310182 265.378853,40.74 C265.239335,41.5097455 265.100579,41.9992364 265.100579,41.9992364 C265.100579,41.9992364 263.424831,44.1672 262.935372,45.0064364 C262.446676,45.8456727 263.494209,47.1751636 263.494209,47.1751636 C263.494209,47.1751636 263.07489,47.4538909 262.93461,48.0128727 Z M72.866064,104.595273 L72.5866457,105.155018 L72.3769866,105.785018 L72.1677849,106.413491 L72.0275039,107.112982 L71.8883665,107.812473 L71.8183023,108.582218 L71.748543,109.3512 L71.748543,111.028909 L71.8183023,111.868145 L71.8883665,112.708145 L72.0275039,113.547382 L72.1677849,114.386618 L72.3076085,115.225855 L72.7260118,116.905091 L73.0054302,117.743564 L73.2846198,118.583564 L73.6337975,119.4228 L73.9829752,120.262036 L74.3321529,121.101273 L74.6813306,121.940509 L75.1006488,122.779745 L75.5192045,123.548727 L76.0079008,124.318473 L76.4973595,125.087455 L76.9860558,125.855673 L77.4747521,126.555164 L78.0335888,127.255418 L78.5924256,127.954909 L79.1512624,128.6544 L79.7093368,129.353891 L80.3375517,129.983891 L80.9665289,130.612364 L81.5947438,131.2416 L82.2229587,131.801345 L82.8511736,132.361091 L83.4793884,132.850582 L84.1083657,133.340073 L84.8067211,133.829564 L84.8760992,133.899818 L85.0163802,133.970836 L85.1566612,134.040327 L85.2954174,134.110582 L85.3655579,134.180836 L85.5050764,134.251091 L85.6453574,134.321345 L85.784876,134.392364 L85.8542541,134.461855 L85.9945351,134.532109 L86.0646756,134.602364 L86.2041942,134.672618 L86.2743347,134.742873 L86.4146157,134.813127 L86.4847562,134.883382 L86.5541343,134.953636 L87.2524897,135.303382 L87.8814669,135.582873 L88.5790599,135.862364 L89.2080372,136.072364 L89.8362521,136.212109 L90.4644669,136.351855 L91.0926818,136.422109 L91.2329628,136.422109 C91.9313182,134.953636 92.3506364,133.065164 92.3506364,130.896436 C92.3506364,122.153564 86.1348161,111.453491 78.4551942,106.977055 C76.427219,105.364255 74.541812,104.735018 72.866064,104.595273 Z M312.302083,55.6370182 C312.162564,55.9867636 312.023808,56.3365091 311.883527,56.616 C311.883527,56.6862545 311.814149,56.826 311.744771,57.0352364 C317.121192,58.0142182 321.101665,61.1611636 321.101665,64.9388727 C321.101665,65.4986182 321.031525,66.1278545 320.822628,66.6876 L318.238866,82.4246182 C318.238866,85.9923273 313.770459,88.7887636 308.253756,88.7887636 C302.737816,88.7887636 298.268647,85.9213091 298.268647,82.4246182 L295.685647,66.6876 C295.824403,67.1068364 296.034824,67.5268364 296.313862,67.9460727 C295.755025,67.0365818 295.405847,65.9881091 295.405847,64.9388727 C295.405847,62.1409091 297.570291,59.6926909 300.851647,58.2242182 C300.64275,57.6644727 300.502469,57.0352364 300.502469,56.5449818 C300.083913,52.3495636 300.083913,50.6008364 296.38324,47.4531273 C292.681804,44.3756727 292.613188,47.3836364 289.330308,46.0541455 C286.117568,44.7254182 285.211079,42.5574545 285.211079,40.5994909 C285.211079,40.32 285.281219,40.0405091 285.281219,39.8297455 L273.68974,33.0463636 C273.271184,37.1730545 272.851866,40.8094909 272.642207,42.0687273 C272.572066,42.4184727 272.572066,42.5582182 272.572066,42.5582182 C272.572066,42.5582182 272.222888,42.7682182 271.594674,42.9079636 C271.873711,42.8384727 272.08337,42.7682182 272.222888,42.6987273 C272.152748,46.3351636 273.688977,50.3221091 272.222888,51.3713455 C270.7568,52.4205818 265.728793,50.7421091 265.030438,50.3221091 C264.541742,50.0426182 263.564349,49.6928727 263.076415,49.1331273 C263.564349,51.5110909 264.192564,53.6790545 265.030438,55.4277818 L262.865994,56.9672727 C263.215171,62.6319273 264.192564,79.9076727 264.192564,80.5369091 C264.192564,81.3058909 267.055364,121.591527 267.055364,121.591527 L266.985223,121.591527 C266.985223,121.662545 267.963378,124.389491 264.192564,125.508982 C260.352372,126.627709 258.676624,122.921018 257.698469,120.543055 C257.698469,120.543055 254.696913,120.193309 251.903492,119.074582 C249.110833,118.025345 248.691514,115.228145 248.621374,113.129673 C248.551233,111.101455 249.877804,109.912473 251.554314,109.144255 C252.531707,108.654 254.207455,110.472218 256.23238,112.151455 C256.442039,110.751709 256.650936,108.794509 256.581558,106.346291 C256.511417,100.960364 251.554314,77.3212364 251.554314,77.3212364 C251.554314,77.3212364 249.947944,72.2850545 248.481855,68.0881091 C246.595686,74.8035273 244.082064,84.0351273 243.384471,87.1118182 C242.266798,92.0082545 237.72825,122.013055 237.72825,122.013055 C237.72825,122.013055 237.449213,122.222291 237.029895,122.501782 L237.029895,127.328727 C236.960517,128.028218 235.424287,129.285927 235.424287,129.285927 C235.424287,129.285927 229.418888,129.915164 229.070473,129.285927 C228.790674,128.586436 228.651917,127.047709 228.651917,127.047709 C228.651917,127.047709 224.182748,129.215673 219.923238,129.005673 C215.663727,128.796436 210.635721,124.669745 210.84538,121.591527 C211.054277,118.514073 212.730787,120.892036 218.526527,120.753055 C223.902948,120.542291 226.556089,119.354073 227.324585,119.073818 C227.254444,118.724073 227.254444,118.514073 227.254444,118.514073 C227.254444,118.514073 230.116481,94.6649455 230.116481,89.5585091 C230.116481,85.7113091 233.398599,67.5978545 235.074347,58.6449818 C232.839762,57.3162545 231.094636,56.2670182 230.814837,56.0577818 C230.814837,56.0577818 241.079746,26.6119636 238.425843,14.0929091 C238.425843,14.0929091 223.343349,15.8416364 222.365957,16.0508727 C221.80712,16.1906182 214.335632,7.23774545 208.88907,0.524618182 L208.88907,62.9809091 C208.88907,66.4081091 207.073804,69.6253091 204.070723,71.3740364 L122.583477,118.514073 C119.3715,120.403309 115.321649,118.025345 115.321649,114.317127 L115.321649,114.667636 L115.391027,115.017382 L115.461167,115.367127 L115.531308,115.646618 L115.601448,115.925345 L115.740967,116.2056 L115.880486,116.485091 L116.020767,116.764582 L116.160285,117.044073 L116.300566,117.324327 L116.509463,117.533564 L116.719122,117.743564 L116.928781,117.953564 L117.137678,118.163564 L108.549279,113.1984 L108.270242,112.9884 L108.061345,112.7784 L108.130723,112.708145 L107.921826,112.428655 L107.711405,112.149164 L107.572649,111.868909 L107.432368,111.590182 L107.292849,111.310691 L107.152568,111.0312 L107.082428,110.750945 L107.01305,110.4012 L106.942909,110.051455 L106.872769,109.701709 L106.872769,54.7282909 L90.324186,64.4501455 L90.324186,95.8539273 L91.231438,96.6229091 L92.1386901,97.4629091 L93.0474669,98.3013818 L93.954719,99.2108727 L94.792593,100.121127 L95.6297045,101.099345 L96.4675785,102.078327 L97.3054525,103.128327 L98.142564,104.177564 L98.9110599,105.2268 L99.6787934,106.345527 L100.377149,107.464255 L101.075504,108.583745 L101.77386,109.701709 L102.402074,110.820436 L103.030289,112.010182 L103.589888,113.199164 L104.147963,114.388145 L104.636659,115.577127 L105.126118,116.766109 L105.615576,117.955855 L106.03337,119.144073 L106.38331,120.333818 L106.732488,121.522036 L107.011525,122.711782 L107.290562,123.9 L107.709118,126.279491 L107.848636,127.467709 L107.988917,128.657455 L108.059058,129.846436 L108.059058,132.293891 L107.988917,133.482873 L107.848636,134.6016 L107.63974,135.720327 L107.430081,136.769564 L107.151043,137.749309 L106.801866,138.728291 L106.452688,139.637018 L106.03337,140.477018 L105.544674,141.315491 L105.055977,142.085236 L104.49714,142.784727 L103.868926,143.414727 L103.240711,144.183098 L102.611733,144.742462 L95.349905,148.939255 C91.5097128,151.806556 85.9930103,152.016938 79.7085744,148.798975 C79.2198781,148.589433 78.8013223,148.310018 78.3820041,148.09956 C77.8933079,147.820756 77.4046116,147.540425 76.9159153,147.260553 C65.2549816,139.637018 55.96777,123.200509 55.96777,109.632218 C55.96777,101.659091 59.1805097,96.3434182 64.2081347,94.5252 L63.928945,94.5962182 L63.2306659,94.8757091 L62.5323868,95.2254545 L69.7939866,91.0285091 L70.4924944,90.6787636 L71.1907736,90.3992727 L71.8889764,90.1190182 L72.6568624,89.9097818 L73.4249008,89.7700364 L74.1926343,89.7005455 L74.1926343,73.7535273 L0.525215083,116.065091 L162.873093,209.785495 L368.513591,88.4390182 L312.302083,55.6370182 Z" id="path-1"></path>
        <linearGradient x1="0%" y1="49.9999818%" x2="99.9999793%" y2="49.9999818%" id="linearGradient-3">
            <stop stop-color="#9C26B0" offset="0%"></stop>
            <stop stop-color="#E1BEE7" offset="100%"></stop>
        </linearGradient>
    </defs>
    <g id="Forms" stroke="none" stroke-width="1" fill="none" fill-rule="evenodd">
        <g id="Register" transform="translate(-906.000000, -453.000000)">
            <g id="Right-Side" transform="translate(835.000000, 216.000000)">
                <g id="Register" transform="translate(71.000000, 237.000000)">
                    <polygon id="Fill-1" fill="#4527A0" points="166.353006 330.895881 4 237.523489 4 246.790803 166.353006 341 372 222.193354 372 210"></polygon>
                    <path d="M333.039626,144.321726 C330.677471,143.137845 327.760987,145.853092 327.760987,145.853092 C327.760987,145.853092 330.608464,136.242897 327.760987,131.159127 C324.91351,126.075357 321.440422,127.746629 320.815569,124.961429 C320.329488,122.802005 322.759892,120.085998 323.176966,116.6735 C323.386261,115.142135 323.454509,113.122617 323.247489,110.824048 C322.899422,107.064065 321.650475,102.53688 318.663468,97.9405008 C311.231969,86.7289865 305.188947,94.1805186 303.80047,97.7321621 C302.411235,101.352998 303.80047,111.451345 303.80047,111.451345 C303.80047,111.451345 295.049501,110.824048 292.549333,117.300798 C290.049164,123.706834 299.633523,136.033797 306.092102,136.451235 C306.092102,136.451235 302.202698,136.172943 301.716617,138.471513 C301.230537,140.769322 306.717713,150.240371 306.717713,154.071067 C306.717713,154.071067 299.21569,146.201337 292.132259,149.195636 C284.979062,152.120743 289.284782,160.686203 289.284782,160.686203 C289.284782,160.686203 288.381627,160.686203 288.103325,161.870084 C288.034318,162.078423 288.034318,162.358235 288.034318,162.635767 C288.034318,164.585331 288.936714,166.744755 292.131501,168.067782 C295.326287,169.391569 295.465059,166.39651 299.146684,169.460762 C302.827551,172.525015 302.827551,174.267 303.243866,178.514374 C303.31439,179.071718 303.452403,179.628302 303.591933,180.185646 C303.799712,180.74223 304.007491,181.370287 304.355558,181.996064 C304.563336,182.414262 304.84088,182.901653 305.050175,183.319091 C304.910645,183.389044 304.771873,183.389044 304.63386,183.458997 C304.49433,183.528951 304.424564,183.528951 304.286551,183.598143 C304.147021,183.667336 303.939242,183.736529 303.799712,183.807243 C303.66094,183.877196 303.522168,183.945628 303.452403,183.945628 C303.31439,184.016342 303.174859,184.084774 303.036088,184.155488 C302.897316,184.22468 302.827551,184.293873 302.688779,184.364587 C302.550007,184.43378 302.480242,184.503733 302.342228,184.573686 C302.132933,184.712832 301.925154,184.851978 301.785624,184.991124 C301.715859,185.061077 301.646852,185.129509 301.577087,185.200223 C301.507322,185.270176 301.36855,185.409322 301.299543,185.477754 C301.229778,185.548468 301.160772,185.6169 301.091006,185.686853 C301.021241,185.757567 300.952993,185.896713 300.882469,185.965906 C300.812704,186.035099 300.743698,186.105052 300.743698,186.174245 C300.673933,186.31339 300.604926,186.384104 300.535161,186.52249 C300.535161,186.593203 300.465396,186.662396 300.465396,186.731589 C300.39563,186.941448 300.326624,187.079834 300.326624,187.288933 C300.742939,190.493092 305.396726,193 311.021915,193 C316.717628,193 321.30165,190.493092 321.717965,187.288933 C321.717965,187.150547 321.6482,186.941448 321.578435,186.802302 C321.578435,186.731589 321.50867,186.663156 321.50867,186.663156 C321.438905,186.593203 321.438905,186.454057 321.370657,186.384104 C321.300891,186.314151 321.300891,186.244958 321.231126,186.175005 C321.161361,186.105812 321.161361,186.035859 321.092355,185.966666 C321.023348,185.896713 321.023348,185.82676 320.954341,185.757567 C320.883818,185.686853 320.814811,185.617661 320.745046,185.548468 C320.676039,185.477754 320.607032,185.409322 320.536509,185.338608 C320.466744,185.269416 320.397737,185.200223 320.327972,185.129509 C320.258965,185.060317 320.1892,184.991124 320.051186,184.92041 C319.981421,184.851217 319.911656,184.851217 319.841891,184.781264 C319.634112,184.642118 319.425576,184.503733 319.217039,184.363826 C319.147273,184.293873 319.078267,184.293873 319.008502,184.22468 C318.86973,184.155488 318.799965,184.085534 318.661951,184.015581 C318.592186,183.945628 318.452656,183.945628 318.383649,183.877196 C318.244877,183.807243 318.175112,183.807243 318.03634,183.737289 C317.897568,183.667336 317.827803,183.667336 317.689031,183.598143 C317.55026,183.52743 317.480494,183.52743 317.341723,183.459758 C317.202951,183.389044 317.064179,183.319852 316.855642,183.319852 C316.785877,183.319852 316.647105,183.249898 316.578098,183.249898 C316.369561,183.179945 316.161783,183.111513 315.953246,183.040799 C315.882722,183.040799 315.882722,183.040799 315.813715,182.970846 C314.981084,182.762507 314.146936,182.622601 313.24454,182.483455 C313.383312,181.857678 313.592607,181.299574 313.731379,180.812183 C314.008923,179.976547 314.216702,179.280057 314.356232,178.862619 C314.425997,178.65352 314.495004,178.444421 314.495004,178.444421 C314.633775,178.096175 314.772547,177.74793 314.910561,177.470399 C315.327635,176.56481 315.744709,175.65922 316.161024,174.824345 C318.592186,170.367112 324.287141,168.48674 324.842986,165.70078 C325.467839,162.914819 325.051523,162.079183 325.051523,162.079183 C325.051523,162.079183 330.955015,162.636527 334.288573,156.787075 C337.622889,150.937622 335.47003,145.505607 333.039626,144.321726 Z M308.869814,188.056137 C309.28613,188.404382 309.634197,188.752627 310.050512,189.030919 C309.634197,188.752627 309.216365,188.404382 308.869814,188.056137 Z M310.119519,189.030919 C310.466828,189.309211 310.883144,189.517549 311.230452,189.657456 C310.814137,189.517549 310.466828,189.309211 310.119519,189.030919 Z M312.620446,185.897473 C312.690211,184.852738 312.897231,183.73805 313.175533,182.693315 C312.967755,183.73805 312.759218,184.852738 312.620446,185.897473 Z M313.522084,160.896062 L313.174775,161.383453 C311.09168,164.586852 309.007828,167.581151 308.174438,170.367112 C307.965901,171.063602 307.826371,171.830045 307.688357,172.595728 C307.688357,173.361411 307.618592,173.848802 307.618592,173.918755 C307.47982,179.489916 311.160687,184.991124 313.591849,190.005701 C313.591849,190.074893 313.661614,190.074893 313.661614,190.145607 C313.661614,190.074893 313.591849,190.074893 313.591849,190.005701 C309.146599,184.782025 305.326961,180.186406 306.228599,172.456582 C306.575908,160.200333 298.519556,156.508783 291.574138,156.230491 C299.839026,155.534001 305.951055,159.782134 307.409297,168.139256 C308.381458,165.979832 309.770694,163.751216 311.368466,161.384214 C311.64601,160.896823 311.993318,160.409432 312.340627,159.92128 C315.60442,154.977417 319.07675,149.684548 319.07675,143.835095 C319.07675,139.238717 316.090501,135.966125 313.312789,132.901873 C312.062325,131.578085 310.881627,130.255058 309.910224,128.862078 C303.241591,127.050899 299.560724,123.36087 299.700255,116.535875 C302.061651,121.759551 302.756269,124.613944 308.798532,126.912514 C307.895378,125.031382 307.548827,122.872719 308.242687,120.365811 C309.006311,117.370751 310.048996,115.421187 310.95215,113.679961 C314.909803,106.158476 312.756943,102.745979 310.257533,97.244771 C314.633017,103.999813 316.299796,106.785774 312.340627,114.376452 C311.437473,116.047724 310.464553,117.928095 309.700929,120.714056 C308.451223,125.309674 311.368466,128.513073 314.493487,131.855617 C317.549501,135.198922 320.675281,138.680612 320.675281,143.834335 C320.675281,148.012515 319.077508,151.912404 316.993655,155.534001 C322.966912,151.35582 326.091933,151.564159 332.550512,151.843211 C325.190295,153.583676 318.454172,154.280166 313.522084,160.896062 Z" id="Fill-2" fill="#9C27B0"></path>
                    <path d="M260.167812,123.965373 C260.167812,126.540924 258.351443,129.673535 256.117202,130.925972 C254.999319,131.55219 253.951589,131.622107 253.253103,131.204122 L252.974014,130.995889 C252.485226,130.507986 252.206136,129.951685 252.135983,129.325467 L252.135983,127.933196 L252.206136,127.655045 L252.275527,127.446812 L252.346444,127.168662 L252.415835,126.959669 L252.415835,126.820594 C252.486751,126.680759 252.486751,126.472526 252.556142,126.332691 L252.626296,126.262774 L252.626296,126.123698 C253.115084,124.940419 253.81357,123.757141 254.651601,122.852012 L254.791146,122.713697 L254.93069,122.573862 L255.140389,122.434787 L255.279933,122.294951 L255.350087,122.225034 L255.489632,122.085959 L255.69933,121.946124 L255.909029,121.807048 L256.610565,121.807048 L256.889654,121.667213 C256.959808,121.667213 257.029199,121.597296 257.099353,121.597296 L257.169506,121.597296 C257.23966,121.597296 257.309051,121.528138 257.378442,121.528138 L257.449358,121.528138 C258.076929,121.388303 258.706024,121.45746 259.264965,121.736371 C259.748415,121.876966 260.167812,122.712937 260.167812,123.965373 Z M42.0571683,150.067427 L41.1495175,150.83272 C40.311944,150.344817 36.5401182,148.048177 35.9110993,147.909102 C32.070035,146.725823 28.0193485,150.83272 26.1338169,153.686421 C24.0391207,156.88743 22.7121493,160.646259 22.3630587,164.544164 C20.2676762,166.144668 18.940476,168.720219 18.3121434,171.296529 C15.0996405,172.200898 13.004258,178.604435 15.0996405,180.553007 L20.4075259,183.615701 C19.8483557,183.129318 19.4298739,182.223429 19.4298739,180.971753 C19.4298739,178.46536 20.8966951,175.610899 22.7121493,174.567455 C22.9913913,174.42914 23.2006321,174.290065 23.4798741,174.290065 C24.108283,171.574679 25.645334,168.929971 27.5306369,167.53846 C28.0199585,161.20408 31.7209444,154.382557 36.2610287,151.737849 C40.311944,149.441208 43.6642967,151.11163 44.7119498,155.565836 C45.6198295,154.313399 46.6672538,153.339113 47.7849843,152.712135 C49.0419546,152.015999 50.1596851,151.877684 51.1373371,152.155834 L45.9697589,149.162298 C44.7811122,148.605237 43.1050502,149.301373 42.0571683,150.067427 Z M300.744831,186.401004 C300.744831,186.330327 300.814984,186.261929 300.814984,186.192012 C300.885138,186.052936 300.954529,185.983019 301.024683,185.843944 C301.094836,185.773266 301.094836,185.704868 301.164227,185.634191 C301.234381,185.565033 301.303772,185.425198 301.374688,185.356801 C301.444079,185.286123 301.51347,185.216965 301.583624,185.147808 C301.653778,185.07713 301.793322,184.938055 301.862714,184.869657 C301.932105,184.8005 302.002258,184.729822 302.072412,184.660665 C302.28211,184.52159 302.421655,184.381754 302.631353,184.242679 C302.771661,184.173522 302.841052,184.104364 302.980597,184.033687 C303.120141,183.964529 303.190295,183.894611 303.32984,183.824694 C303.469384,183.755536 303.608929,183.685619 303.749236,183.616461 C303.888019,183.545783 303.958172,183.477386 304.097717,183.477386 C304.237262,183.407468 304.377569,183.337551 304.586505,183.268393 C304.726812,183.198476 304.796203,183.198476 304.935748,183.129318 C305.076055,183.0594 305.214838,182.989483 305.354382,182.989483 C305.076055,182.572257 304.865594,182.085114 304.655896,181.667889 C302.141803,182.78125 300.535895,184.52159 300.535895,186.540079 L300.535895,187.026463 C300.675439,186.749072 300.675439,186.609237 300.744831,186.401004 Z M71.3206158,84.7089371 C73.4151596,81.8552363 75.8600139,79.4879185 78.4439555,77.9573317 C81.3766828,76.2869097 84.1004741,75.9388418 86.3354776,76.7041352 L74.1835707,69.744297 C71.3206158,68.4911006 67.339473,70.1615225 64.8249987,71.9018621 L62.6593863,73.6422016 C60.7040061,72.5288403 51.8339932,67.2386641 50.5074794,66.8214386 C41.4281494,64.0368953 32.1396548,73.7121192 27.7400302,80.394567 C22.7112342,87.9813835 19.7082771,96.6823212 18.8706274,105.731327 C13.9119088,109.489396 10.8388743,115.544866 9.44182556,121.46126 C1.96924273,123.549668 -2.98909461,138.514308 2.03863383,143.109108 L14.4003917,150.347857 C13.0034192,149.233736 12.0957683,147.07617 12.0957683,144.152552 C12.0957683,138.375993 15.5181222,131.624387 19.7782783,129.187912 C20.4066109,128.839844 20.9651711,128.631611 21.5243414,128.491776 C22.9213902,122.157396 26.5531374,115.962851 30.9523045,112.761083 C32.070035,97.9355176 40.799588,81.9259138 51.4853601,75.8012866 C60.9145433,70.3697553 68.8756852,74.4067351 71.3206158,84.7089371 Z M316.459246,182.712852 C316.668182,182.78125 316.87788,182.851168 317.087579,182.921085 C317.157732,182.921085 317.297277,182.991003 317.366668,182.991003 C317.506213,183.06168 317.645758,183.06168 317.855456,183.130078 C317.995001,183.199995 318.065154,183.199995 318.204699,183.269153 C318.344244,183.339071 318.413635,183.339071 318.553942,183.408988 C318.693487,183.478146 318.763641,183.478146 318.903185,183.547303 C318.973339,183.617981 319.112884,183.617981 319.182275,183.686379 C319.32182,183.757056 319.391973,183.826214 319.531518,183.895371 C319.601672,183.966049 319.671063,183.966049 319.741216,184.034447 C319.950915,184.173522 320.159851,184.313357 320.369549,184.452432 C320.440465,184.52159 320.509094,184.52159 320.579247,184.590747 C320.649401,184.661425 320.718792,184.729822 320.859099,184.8005 C320.928491,184.869657 320.997882,184.938815 321.068035,185.009493 C321.138952,185.07865 321.20758,185.147808 321.278496,185.218485 C321.347887,185.287643 321.417278,185.357561 321.488195,185.426718 C321.557586,185.497396 321.626977,185.565793 321.626977,185.635711 C321.69713,185.706388 321.766522,185.774786 321.766522,185.844704 C321.837438,185.914621 321.837438,185.983779 321.906066,186.054456 C321.97622,186.123614 321.97622,186.262689 322.045611,186.331847 C322.045611,186.402524 322.115765,186.471682 322.115765,186.471682 C322.185918,186.609997 322.185918,186.749832 322.256072,186.958065 C322.256072,186.81975 322.325463,186.609997 322.325463,186.471682 C322.325463,183.617221 318.903948,181.250663 314.293634,180.48537 C314.154852,180.973273 313.944391,181.598731 313.805608,182.155792 C314.713031,182.225709 315.551061,182.433942 316.389092,182.642935 C316.319701,182.642175 316.389092,182.712852 316.459246,182.712852 Z M65.8733381,158.837522 C66.083189,158.906679 66.1525801,158.906679 66.2926586,158.976597 C66.2926586,158.976597 66.3625073,158.976597 66.3625073,159.046515 L66.4325084,159.046515 C66.502357,159.046515 66.502357,159.116432 66.5723582,159.116432 L77.3977512,165.380135 L77.3977512,158.629289 L71.6703165,155.358363 L65.4548564,158.907439 L65.5248575,158.837522 L65.8733381,158.837522 Z M323.512737,189.185548 C323.441821,189.324623 323.37243,189.463698 323.303039,189.602773 C323.232885,189.671931 323.163494,189.811766 323.092578,189.880923 C323.022424,190.019999 322.883642,190.159074 322.814251,190.298149 C322.743335,190.368066 322.673944,190.437224 322.604553,190.576299 C322.465008,190.715374 322.324701,190.85445 322.185918,190.994285 C322.115765,191.063442 322.045611,191.1326 321.975457,191.202517 C321.836675,191.342353 321.696368,191.480668 321.487432,191.619743 C321.416516,191.690421 321.347125,191.758818 321.276971,191.829496 C321.067273,191.967811 320.859099,192.106886 320.648639,192.245961 C320.579247,192.315879 320.509094,192.315879 320.439703,192.385796 C319.879999,192.733864 319.251666,193.081932 318.623333,193.359323 C318.623333,193.359323 318.55318,193.359323 318.55318,193.43 C318.27409,193.569075 317.924847,193.638233 317.644995,193.778068 C317.574842,193.778068 317.435297,193.847986 317.365906,193.847986 C317.086816,193.917143 316.877118,193.987061 316.598028,194.056218 C316.458484,194.056218 316.389092,194.126896 316.248785,194.126896 C315.969696,194.196813 315.759997,194.265971 315.480908,194.335889 C315.340601,194.335889 315.201818,194.405046 315.062274,194.405046 C314.783184,194.475724 314.572723,194.475724 314.293634,194.544881 C314.154852,194.544881 314.014544,194.614039 313.875,194.614039 C313.59591,194.614039 313.316058,194.684717 313.036969,194.684717 L312.687725,194.684717 C312.269091,194.684717 311.849694,194.753874 311.43106,194.753874 C311.012426,194.753874 310.593029,194.753874 310.174395,194.684717 L309.825152,194.684717 C309.546062,194.684717 309.26621,194.614039 308.987121,194.614039 C308.847576,194.614039 308.708031,194.544881 308.568487,194.544881 C308.288635,194.474204 308.079699,194.474204 307.800609,194.405046 C307.660302,194.405046 307.52152,194.335889 307.381975,194.335889 C307.102886,194.265971 306.892425,194.196813 306.682726,194.196813 C306.543944,194.196813 306.404399,194.126896 306.333483,194.126896 C306.055156,194.056218 305.844695,193.987821 305.565606,193.917143 C305.495452,193.917143 305.35667,193.847986 305.286516,193.847986 C305.007427,193.70815 304.658184,193.638233 304.379094,193.499918 L304.308178,193.499918 C303.609692,193.221007 303.051513,192.872939 302.422418,192.524872 L302.351501,192.456474 C302.072412,192.317399 301.861951,192.108406 301.652253,191.969331 C301.582099,191.969331 301.582099,191.899413 301.512708,191.899413 C301.30301,191.760338 301.094074,191.551345 300.884375,191.41151 C300.814222,191.41151 300.814222,191.343113 300.744831,191.343113 C300.535132,191.13412 300.395587,190.925127 300.185889,190.785292 L300.115735,190.715374 C299.556794,190.019239 299.13816,189.323103 298.85907,188.557809 L301.442554,204.219345 C301.442554,207.769182 305.912561,210.552965 311.430298,210.552965 C316.947271,210.552965 321.416516,207.700024 321.416516,204.219345 L324,188.557809 C323.792589,188.558569 323.652282,188.83748 323.512737,189.185548 Z M200.315318,0.347307934 L208.905327,5.28941624 L208.626237,5.21949867 L208.347148,5.1495811 L208.068058,5.07966353 L207.788969,5.01050593 L206.81063,5.01050593 L206.532303,5.07966353 L206.182298,5.1495811 L205.903971,5.21949867 L205.624881,5.35857384 L205.345029,5.49840898 L205.06594,5.63748415 L123.563422,52.5506544 L123.28357,52.6904895 L123.144025,52.8295647 L123.003718,52.8994822 L122.864936,52.9693998 L122.724629,53.0393174 L122.445539,53.2483101 L122.16645,53.4565429 L121.955989,53.6655356 L121.747053,53.8737684 L121.467201,54.1526787 L121.326894,54.2925138 L121.117958,54.5015066 L120.908259,54.7097393 L120.699324,54.9878897 L120.489625,55.1968824 L120.35008,55.4051152 L120.279927,55.4750328 L120.140382,55.6832655 L120.000837,55.9614159 L119.86053,56.2403262 L119.720985,56.5184765 L119.580678,56.7966268 L119.441133,57.0747772 L119.300826,57.3529275 L119.230672,57.6318378 L119.161281,57.9099882 L119.091128,58.1881385 L119.020974,58.4662888 L118.95082,58.7451991 L118.95082,58.8143567 L118.881429,59.0932671 L118.811276,59.3714174 L118.741122,59.7194853 L118.741122,235.819807 L118.811276,236.167875 L118.881429,236.516703 L119.020974,237.072244 L119.161281,237.350394 L119.300063,237.628545 L119.440371,237.907455 L119.579916,238.185605 L119.720223,238.462996 L119.929159,238.671988 L120.138857,238.881741 L120.348555,239.089974 L120.557491,239.299727 L111.967483,234.357618 L111.688393,234.147866 L111.479458,233.939633 L111.199606,233.939633 L110.99067,233.661482 L110.780971,233.383332 L110.641427,233.104422 L110.361575,232.548881 L110.221267,232.269971 L110.151876,231.99258 L110.081723,231.643753 L110.011569,231.295685 L109.941415,230.947617 L109.941415,55.1262049 L110.011569,54.778137 L110.081723,54.4999866 L110.151876,54.1519187 L110.221267,53.8737684 L110.291421,53.5948581 L110.361575,53.3167077 L110.430966,53.0385574 L110.501882,52.7604071 L110.641427,52.4814968 L110.780971,52.2033464 L111.060823,51.6470457 L111.200368,51.3681354 L111.340675,51.0899851 L111.48022,50.8118348 L111.619765,50.5336844 L111.829463,50.2555341 L111.969008,49.9766238 L112.178706,49.6992334 L112.388405,49.4902407 L112.597341,49.2120903 L112.807802,49.0023376 L113.225673,48.5858721 L113.505525,48.3761194 L114.342794,47.7506611 L114.621883,47.610826 L114.901735,47.4717508 L196.335624,0.626978218 L196.614714,0.48790305 L196.893803,0.348827881 L197.243046,0.208992739 L197.522136,0.139075168 L197.800463,0.069917571 L198.149706,0 L199.05789,0 L199.33698,0.069917571 L199.616069,0.139075168 L199.895159,0.208992739 L200.315318,0.347307934 Z M116.227792,84.6390196 L116.227792,84.4292669 L116.087484,84.2901917 L116.018093,84.2202741 L115.94794,84.1503566 L115.877786,84.080439 L113.712173,82.8280025 L113.642782,82.7580849 L113.222623,82.7580849 L113.152469,82.8280025 L112.245047,83.3843032 L112.315201,83.3151456 L112.384592,83.245228 L112.665207,83.245228 L112.734598,83.3151456 L112.804751,83.3843032 L114.970364,84.6374996 L115.180062,84.8464924 L115.250216,84.9164099 L115.320369,84.9863275 L115.389761,85.0554851 L115.389761,92.3649112 L115.320369,92.4348287 L115.250216,92.5047463 L115.109909,92.6438215 L115.039755,92.7137391 L114.970364,92.7836566 L115.039755,92.7137391 L115.877786,92.226596 L115.94794,92.1566784 L116.018093,92.0867608 L116.087484,92.0168433 L116.157638,91.9476857 L116.227792,91.8777681 L116.297945,91.8078505 L116.297945,84.6382596 L116.227792,84.6382596 L116.227792,84.6390196 Z M116.227792,73.5016065 L116.227792,73.2926138 L116.157638,73.2226962 L116.087484,73.1527786 L116.018093,73.082861 L115.94794,73.0129435 L115.877786,72.9437859 L113.712173,71.6905894 L113.642782,71.6206718 L113.222623,71.6206718 L113.152469,71.6905894 L112.245047,72.2476501 L112.315201,72.1777325 L112.384592,72.1078149 L112.665207,72.1078149 L112.734598,72.1777325 L112.804751,72.2476501 L114.970364,73.5000866 L115.039755,73.5700041 L115.109909,73.6399217 L115.250216,73.7789969 L115.320369,73.8489144 L115.389761,73.918832 L115.389761,81.2282581 L115.320369,81.2974157 L115.250216,81.3673332 L115.180062,81.4372508 L114.970364,81.6462435 L115.039755,81.576326 L115.877786,81.0891829 L116.297945,80.6704374 L116.297945,73.5008465 L116.227792,73.5008465 L116.227792,73.5016065 Z M135.154786,41.4140012 L133.618269,40.5088727 C132.989937,40.1608048 132.221297,40.1608048 131.592964,40.5088727 L122.024617,46.0072817 C121.326131,46.3553496 121.326131,47.3296357 122.024617,47.7476212 L123.490981,48.6519898 C124.119314,49.0008177 124.887954,49.0008177 125.516286,48.6519898 L135.084633,43.1535808 C135.85251,42.7371153 135.85251,41.7620692 135.154786,41.4140012 Z M93.4606474,256.980512 L92.8315523,256.842197 L92.2032197,256.702362 L91.574887,256.493369 L90.8764008,256.215219 L90.2480682,255.937069 L89.5495819,255.589001 L89.4794283,255.519083 L89.4092747,255.449166 L89.2697299,255.379248 L89.1995763,255.30933 L89.059269,255.240173 L88.9891153,255.169495 L88.8495706,255.099578 L88.779417,255.02966 L88.6398722,254.959743 L88.4995649,254.890585 L88.3600202,254.819907 L88.2898666,254.74999 L88.1503218,254.680072 L88.0107771,254.610915 L87.8712323,254.540997 L87.8010787,254.47032 L87.1025924,253.983176 L86.4742598,253.496033 L85.8459272,253.00889 L85.2168321,252.45183 L84.5884995,251.895529 L83.3318342,250.642332 L82.7035016,250.016114 L82.1445601,249.319978 L81.5856186,248.623843 L81.0274396,247.927707 L80.4684981,247.231571 L79.9789477,246.535435 L79.4901598,245.769382 L79.0006094,245.004088 L78.5118216,244.239555 L78.0924248,243.473502 L77.6737906,242.638291 L77.3245474,241.80308 L76.9753043,240.967869 L76.6260612,240.131898 L76.2768181,239.297447 L75.9977286,238.461476 L75.7184866,237.627025 L75.5092457,236.791054 L75.3000049,235.956603 L75.1599264,235.120632 L75.0200766,234.285421 L74.8799981,233.45021 L74.8099969,232.614999 L74.7401483,231.779028 L74.7401483,230.108606 L74.8099969,229.344072 L74.8799981,228.578779 L75.0200766,227.882643 L75.1599264,227.186507 L75.3691672,226.559529 L75.5784081,225.933311 L75.8578788,225.37625 C74.2516655,225.237175 72.7846156,225.586003 71.5276453,226.281379 L71.1092399,226.559529 L70.899084,226.698604 C70.8293116,226.768522 70.6898431,226.838439 70.619842,226.907597 L70.2705226,227.186507 L69.921432,227.603733 L69.5721126,228.020958 L69.5721126,228.090876 C69.2928706,228.508101 69.0129423,228.926847 68.8037015,229.41323 L68.7337003,229.622983 L68.4546108,230.180043 L68.2452175,230.805502 L68.0352903,231.43248 L67.8952118,232.127856 L67.8252107,232.475924 C67.7553621,232.685676 67.7553621,232.963827 67.7553621,233.172819 L67.6853609,233.520887 L67.6152835,234.285421 L67.6152835,235.121392 C67.6152835,235.538617 67.6152835,235.956603 67.6853609,236.373828 L67.6853609,236.721896 L67.7553621,237.139122 C67.7553621,237.417272 67.8252107,237.76534 67.8946018,238.04425 L67.9646029,238.393078 L68.0344515,238.671228 C68.1746826,239.506439 68.3839234,240.410808 68.5936218,241.246019 L68.733014,241.733162 L68.8730926,242.08123 C69.0129423,242.498455 69.1524108,242.846523 69.2922606,243.264509 L69.3622617,243.403584 L69.3622617,243.473502 C69.5021115,243.890727 69.7113523,244.308713 69.8516596,244.795856 L69.9915094,245.074006 L70.3406,245.909217 L70.6898431,246.744428 L71.1092399,247.580399 L71.5276453,248.345692 L71.7368862,248.69376 C71.876736,248.971911 72.0859768,249.250821 72.2260553,249.528211 L72.4359825,249.876279 L72.7154532,250.294265 C72.855303,250.503257 72.9944665,250.781408 73.2046224,250.9904 L73.4838644,251.407626 L73.6931052,251.685776 C73.9023461,252.033844 74.1822744,252.311994 74.3915152,252.660062 L74.531365,252.869055 L75.0204579,253.426116 C75.090764,253.496033 75.090764,253.496033 75.1607651,253.565191 L75.7190966,254.191409 L75.9983386,254.539477 C76.2078082,254.817627 76.4880415,255.02738 76.6969774,255.30553 L76.9059132,255.513763 L77.0462205,255.653598 C77.32531,255.931749 77.5350084,256.140741 77.8148604,256.349734 L78.1641035,256.627885 L78.443193,256.905275 C79.2118329,257.531493 79.9804728,258.158471 80.8177412,258.646374 C80.957286,258.716292 81.0274396,258.78545 81.1669844,258.855367 C81.3065291,258.924525 81.4460739,258.994442 81.5162275,259.06436 L81.5863811,259.06436 L81.7259259,259.134277 C81.9356243,259.273353 82.2154763,259.412428 82.4244121,259.482345 L82.4945658,259.551503 C83.5422952,260.039406 84.5198709,260.457392 85.427293,260.665624 L85.7772987,260.735542 L85.9168434,260.735542 C87.5235143,261.08361 88.9898779,261.013692 90.3166967,260.596467 L90.8062472,260.387474 C92.3427644,259.691338 93.6001922,258.507299 94.3688321,256.76848 L94.2285248,256.76848 L93.4606474,256.980512 Z M69.2950057,215.217683 L70.1328079,215.147006 L70.9706864,215.077848 L71.8082599,215.077848 L72.7158345,215.147006 L73.1352313,215.217683 C73.4844744,215.287601 73.833565,215.287601 74.1831132,215.356758 L74.5322038,215.426676 L75.4398546,215.634909 L76.3484968,215.913819 C76.6977399,216.052894 77.046983,216.122812 77.3962262,216.261887 L77.3962262,210.971711 L76.6283488,211.042388 L75.8600139,211.180703 L75.0911453,211.390456 L74.3928115,211.667847 L73.6944015,211.945997 L72.9957628,212.294065 L65.7328021,216.47088 L66.4312121,216.122812 L67.1296221,215.844661 L67.4088641,215.774744 C67.8980332,215.634909 68.3865161,215.495834 68.8756852,215.356758 L69.2950057,215.217683 Z M110.989907,249.949997 L110.850362,248.766718 L110.710055,247.584199 L110.500357,246.40016 L110.290658,245.216881 L110.011569,244.033602 L109.732479,242.850323 L109.383236,241.666284 L109.033993,240.483005 L108.614596,239.300487 L108.125809,238.116448 L107.637021,236.933169 L107.14747,235.74989 L106.588529,234.566611 L106.029587,233.383332 L105.401255,232.199293 L104.772922,231.085932 L104.074436,229.973331 L103.37595,228.859209 L102.677463,227.745848 L101.908823,226.632487 L101.140946,225.588283 L100.303678,224.544079 L99.4656466,223.499875 L98.6283781,222.524829 L97.7903471,221.551303 L96.9523161,220.645415 L96.0441315,219.740286 L95.1367094,218.905075 L94.2285248,218.069864 L93.3203401,217.304571 L93.3203401,152.918847 L93.2501865,152.779772 L93.1800329,152.640697 L93.1106418,152.500862 L93.0404881,152.361787 L92.9703345,152.221952 L92.9001808,152.082117 L92.8307897,151.943041 L92.7598735,151.803966 L92.6904824,151.664891 L92.6203288,151.525056 L92.5501752,151.385221 L92.4800215,151.246146 L92.3404768,151.10631 L92.2001695,150.898078 L92.0613873,150.759003 L91.92108,150.619167 L91.7815353,150.480092 L91.641228,150.271099 L91.5009207,150.131264 L91.361376,149.992949 L91.2225938,149.853114 L91.0822865,149.714039 L90.9419792,149.574204 L90.8016719,149.434369 L90.5927361,149.295293 L90.3838002,149.155458 L90.1733393,149.017143 L89.9644035,148.877308 L89.8240962,148.80739 L89.6151603,148.668315 L89.4062245,148.52924 L89.1957636,148.459322 L88.9868277,148.320247 L88.7771293,148.180412 L88.5681935,148.042097 L88.3577326,147.972179 L88.1487967,147.832344 L87.9398609,147.693269 L87.7995536,147.554194 L87.5906178,147.484276 L87.3809194,147.345201 L87.171221,147.205366 L87.0316763,147.136208 L86.8219779,146.996373 L86.6816706,146.926456 L86.545176,146.864898 L86.3354776,146.725823 L85.9160809,146.51607 L85.7765361,146.446152 L85.6362288,146.376995 L85.4966841,146.307077 L85.2168321,146.167242 L85.0772873,146.098084 L84.93698,146.028167 L84.7974353,145.958249 L84.657128,145.888332 L84.5175833,145.818414 L73.3440146,139.414877 L73.0638576,139.275801 L72.6447658,139.275801 L72.5044585,139.344959 L72.3646088,139.414877 L65.1012668,143.591692 L65.871203,143.591692 L66.0110528,143.661609 L66.4303733,143.869842 L77.1156116,150.064387 C77.32531,150.204222 77.6745531,150.343297 77.9528801,150.55229 L78.0230337,150.55229 C78.0931873,150.55229 78.1625784,150.622207 78.1625784,150.622207 L78.2334946,150.691365 L78.3730394,150.761282 L78.5125841,150.8312 L78.5835003,150.901118 C78.6528914,150.971035 78.723045,150.971035 78.7924361,151.040193 C78.9319809,151.11011 79.1416793,151.248426 79.281224,151.319103 L79.4215313,151.319103 C79.4916849,151.388261 79.6312297,151.458178 79.7006208,151.458178 L79.7707744,151.458178 L79.9110817,151.528096 C80.2603248,151.736329 80.678959,151.945321 81.0282022,152.154314 L81.0983558,152.224232 C81.3080542,152.363307 81.5177526,152.502382 81.7266884,152.5723 L81.7968421,152.5723 L82.0065404,152.711375 C82.1468477,152.781292 82.2162388,152.85121 82.3557836,152.920367 L82.565482,153.059443 L82.9841162,153.339113 L83.1236609,153.478188 L83.2639682,153.618023 L83.4035129,153.757098 L83.5438202,153.896934 L83.6139739,154.035249 L83.683365,154.105166 L83.963217,154.383317 L84.1027617,154.593069 L84.1027617,154.662987 C84.1729154,154.732144 84.1729154,154.802062 84.243069,154.87122 L84.3132227,155.010295 L84.4520049,155.15013 L84.5923121,155.358363 L84.6624658,155.42828 C84.6624658,155.498198 84.7318569,155.498198 84.7318569,155.568115 L84.8020105,155.706431 L84.8721642,155.846266 L84.9415553,155.986101 L85.0124715,156.125176 L85.0818626,156.265011 L85.1520162,156.404086 L85.2221698,156.543922 L85.2221698,156.682997 C85.2221698,156.752154 85.2221698,156.752154 85.2923235,156.822072 L85.2923235,156.891989 L85.3617146,157.031065 L85.4318682,157.1709 L85.4318682,221.485185 L86.3400529,222.251239 L86.8296033,222.668464 C88.0862685,223.781826 89.2735426,224.965105 90.3914256,226.287459 L90.7406688,226.704684 L91.5779372,227.67973 L91.8577892,228.096196 C93.3935439,230.045528 94.8606701,232.064018 96.1173353,234.222343 L96.6762768,235.195869 L97.3046094,236.30999 L97.5135453,236.658058 C97.7933973,237.144441 98.0030957,237.632344 98.2821852,238.119488 L98.5612746,238.676548 L98.9799089,239.581677 C99.1202162,239.859067 99.2597609,240.207135 99.3993056,240.486805 L99.6082415,241.043866 L99.7485488,241.391934 C100.447035,243.132273 101.075368,244.942531 101.564155,246.752028 L101.635072,247.099336 L101.914161,248.283374 L102.193251,249.466653 L102.263404,249.953796 C102.333558,250.301864 102.402949,250.649932 102.47234,250.928083 L102.612647,251.902369 L102.752192,253.085648 L102.752192,253.433716 C102.822346,253.990776 102.822346,254.547077 102.892499,255.03422 L102.892499,257.818003 L102.822346,258.375824 C102.752192,259.559103 102.61341,260.604066 102.403712,261.64751 L102.263404,262.343646 L102.194013,262.621796 C101.985077,263.456247 101.704463,264.221541 101.355982,264.988126 L101.285829,265.196663 L100.867194,266.032482 L100.797041,266.171405 C99.9590097,267.702904 98.8411267,269.025638 97.5844614,270 L104.847651,265.823109 L105.475984,265.266656 L106.733411,264.014068 L107.292353,263.317932 L107.781903,262.551879 L108.270691,261.716668 L108.689325,260.880697 L109.038568,259.976328 L109.387812,259.002042 L109.666901,258.027756 L109.876599,256.983552 L110.085535,255.869431 L110.225843,254.75683 L110.295234,253.573551 L110.295234,251.137075 L110.989907,249.949997 Z" id="Fill-3" fill="#FF6F00"></path>
                    <path d="M204.40606,99.9218176 C204.054765,100.270096 203.774803,100.618374 203.493307,101.036612 C203.00088,101.802368 202.790717,102.568124 202.720151,102.917162 L180.099979,90.0323895 C179.818483,89.82251 179.60832,89.6141515 179.467955,89.4050325 C179.60832,89.5449521 179.818483,89.6141515 180.099979,89.5449521 C180.31091,89.4050325 180.380708,89.1966739 180.380708,88.9867944 L180.240344,88.0818794 L183.260867,88.2909985 C183.401231,88.2909985 183.612929,88.2210386 183.682727,88.0818794 L204.40606,99.9218176 Z M204.687556,101.52481 C204.406827,101.941527 204.406827,102.847963 204.406827,102.847963 C204.406827,102.847963 204.47816,102.917923 204.547959,102.917923 C204.687556,102.429725 204.969052,101.803128 205.390146,101.245731 C205.531278,101.037372 205.670875,100.827493 205.812007,100.688334 L205.531278,100.549175 C205.109417,100.896692 204.828688,101.31493 204.687556,101.52481 Z M208.83253,104.936872 C209.113259,105.006071 209.464554,103.752878 209.675484,103.473799 C209.74605,103.333879 209.815849,103.26468 209.887181,103.125521 L209.324189,102.847202 C209.113259,103.125521 208.411436,104.657793 208.83253,104.936872 Z M206.93569,101.871567 C206.584395,102.428964 206.584395,103.822077 206.865125,103.961236 C207.145854,104.099635 207.356784,102.359005 207.708079,101.871567 L207.778645,101.802368 L207.21642,101.45409 C207.076055,101.663209 207.006256,101.802368 206.93569,101.871567 Z M185.580334,102.220606 C163.661985,114.75634 171.53007,110.298683 149.612488,122.835178 L149.612488,132.446287 C171.600636,119.770634 163.592186,124.36745 185.580334,111.691796 L185.580334,102.220606 Z M185.580334,118.795759 C163.661985,131.333014 171.53007,126.874597 149.612488,139.411091 L149.612488,149.022961 C171.600636,136.346547 163.592186,140.943363 185.580334,128.267709 L185.580334,118.795759 Z M185.580334,135.372433 C163.661985,147.908927 171.53007,143.45127 149.612488,155.987765 L149.612488,165.599635 C171.600636,152.923221 163.592186,157.520798 185.580334,144.845144 L185.580334,135.372433 Z M243.676691,126.24876 L243.606125,126.178801 C242.342077,124.577329 243.254831,122.139382 243.254831,122.139382 L211.360626,103.892037 C211.360626,103.961236 211.29006,103.961236 211.29006,103.961236 C211.009331,104.587833 211.07913,106.886621 211.07913,107.583178 L212.69524,108.628012 L212.624674,108.628012 L236.298731,122.139382 L243.815522,126.38792 C243.747257,126.38792 243.747257,126.31796 243.676691,126.24876 Z M163.31069,172.981917 L135,189.208791 L135,203 L163.31069,186.701645 L163.31069,186.840804 L200.683715,165.320556 L200.683715,151.670028 L172.373025,167.897663 L163.31069,172.981917 Z M250,116.776049 L249.719271,116.63689 L249.437775,116.56693 C249.298177,116.56693 249.08648,116.497731 248.946115,116.497731 L248.805751,116.497731 C248.665386,116.497731 248.525022,116.497731 248.384657,116.56693 C248.244292,116.56693 248.033362,116.63689 247.892997,116.70609 L247.822432,116.70609 C246.979477,116.984408 246.136523,117.611765 245.433933,118.377521 L245.363367,118.377521 C234.403426,112.109274 223.445018,105.841026 212.557176,99.572779 C210.167911,98.1796662 207.779412,96.8565131 205.390913,95.4634003 L196.751206,90.518306 L196.399911,90.309187 C196.119181,90.1700278 195.837685,89.9609088 195.485623,89.8209892 L194.853599,89.472711 L194.642669,89.3335518 C194.221575,89.1251932 193.799715,88.8461144 193.379388,88.6369954 L193.027326,88.4286368 L192.606232,88.2195178 C192.535666,88.149558 192.465868,88.149558 192.395302,88.0795981 L192.816396,88.2887172 L192.044007,87.8712396 C191.903642,87.8012798 191.763278,87.7320804 191.693479,87.6621206 L191.201052,87.3830417 L190.638827,87.035524 C189.304213,86.2690077 187.969599,85.5032519 186.634985,84.7367357 L186.493854,84.6667759 C186.56442,84.5968161 186.56442,84.5968161 186.634985,84.5283771 C186.705551,84.3884575 186.705551,84.1800989 186.634985,84.0401793 L184.597782,81.0455951 L185.510535,80.9056754 C185.791264,80.9056754 185.932396,80.6973168 185.932396,80.418238 L185.932396,80.2783184 C185.932396,80.209119 185.861063,80.209119 185.861063,80.1391592 C185.861063,80.0699598 185.790497,80.0699598 185.720698,80.0699598 C185.720698,80.0699598 185.650899,80.0699598 185.650899,80 C185.790497,80.0699598 185.931629,80.1391592 186.141792,80.209119 L212.556409,95.3227202 L250,116.776049 Z" id="Fill-4" fill="#E1BEE7"></path>
                    <path d="M275.364469,173.661965 C273.895796,174.706431 268.856303,173.035286 268.156353,172.619019 C267.66654,172.339482 266.68615,171.99234 266.196338,171.435544 C266.126801,171.017758 266.0565,170.600731 265.916663,170.113821 C266.127565,169.557025 266.547077,169.209123 266.547077,169.209123 C266.547077,169.209123 265.497151,167.88664 265.9862,167.052587 C266.476777,166.217014 268.156353,164.060477 268.156353,164.060477 C268.365727,164.199486 268.575865,164.339255 268.785238,164.477504 C268.785238,164.477504 268.856303,164.477504 268.856303,164.547388 C269.066441,164.687157 269.206279,164.756281 269.415653,164.825406 C269.415653,164.825406 269.486717,164.825406 269.486717,164.89529 C269.696091,164.965175 269.906229,165.034299 270.115603,165.103424 C270.956155,165.382201 271.866244,165.451326 272.635731,165.451326 L272.706032,165.451326 C272.91617,165.451326 273.056008,165.451326 273.195845,165.382201 C274.105934,165.312317 274.875421,165.034299 275.294933,164.894531 C275.294933,168.653088 276.833907,172.619019 275.364469,173.661965 Z M211.817198,99.9857377 C211.537523,100.124747 210.277459,101.44647 209.438435,102.838078 C209.36737,102.977847 209.297834,103.046212 209.227533,103.185981 C209.087696,103.463998 208.73772,104.716597 208.387745,104.647473 C207.968233,104.369455 208.597883,102.907963 208.877558,102.490176 C209.227533,101.933381 210.907109,99.6378357 210.907109,99.6378357 C211.118011,99.0119159 210.418061,98.6640139 210.068085,98.7331386 C209.787647,98.8721474 208.247908,100.194631 207.268282,101.585479 L207.197982,101.654604 C206.848006,102.141515 206.637868,103.881025 206.35743,103.742016 C206.078519,103.602248 206.078519,102.211399 206.428494,101.654604 C206.498795,101.585479 206.568332,101.445711 206.708169,101.306702 C207.337819,100.471889 208.527582,99.0111563 208.527582,99.0111563 C208.73772,98.3852365 208.037006,97.9674503 207.687794,98.1064592 C207.40812,98.1755838 206.218356,99.2891741 205.237967,100.471889 C205.098894,100.680782 204.958292,100.889675 204.819219,101.029444 C204.399707,101.654604 204.188805,102.211399 203.978667,102.69907 C203.908366,102.69907 203.83883,102.629185 203.83883,102.629185 C203.83883,102.629185 203.83883,101.724488 204.119268,101.306702 C204.258342,101.097809 204.53878,100.680782 204.887992,100.33288 C205.378568,99.776085 205.868381,99.2200495 205.868381,99.2200495 C206.007454,98.7323789 205.448869,98.4543612 205.237967,98.5242454 C205.098894,98.5933701 204.469244,99.080281 203.908366,99.7062007 C203.558391,100.054103 203.278716,100.402005 202.998277,100.819791 C202.508465,101.58472 202.298327,102.350408 202.22879,102.69755 C202.22879,102.906444 202.158489,103.046212 202.158489,103.046212 C201.528839,108.820018 202.85844,108.333107 204.677854,112.78519 L205.588706,114.802717 C206.078519,114.107673 206.498795,113.620762 206.848006,113.202976 C207.827632,112.021021 208.527582,111.393582 210.836808,110.071858 C210.696971,109.932849 210.487597,109.237804 210.696971,108.820018 C210.836808,108.472116 211.187548,108.263983 211.817198,108.333107 C211.887499,108.333107 211.956271,108.333107 212.026572,108.402992 L212.097637,108.402992 L210.487597,107.359285 C210.487597,106.663481 210.418061,104.367936 210.697735,103.742016 L210.768036,103.672132 C211.187548,102.976328 212.587449,100.819031 212.587449,100.819031 C212.867124,100.124747 212.097637,99.8459692 211.817198,99.9857377 Z M257.58832,110.839065 C256.95867,110.90819 256.32902,110.769181 255.768906,110.630172 C255.629069,110.560288 255.558768,110.560288 255.418931,110.490404 L255.34863,110.490404 C255.278329,110.420519 255.138492,110.420519 255.06972,110.351395 C254.998655,110.351395 254.998655,110.351395 254.929118,110.28227 C254.858817,110.212386 254.71898,110.212386 254.649444,110.142502 C254.579143,110.142502 254.579143,110.072617 254.509606,110.072617 C254.439306,110.002733 254.369769,110.002733 254.299468,109.933608 L254.229167,109.863724 C254.158867,109.79384 254.08933,109.79384 254.019029,109.723956 L253.948729,109.654831 C253.878428,109.584947 253.808891,109.515063 253.738591,109.515063 L253.66829,109.515063 C253.108177,109.097276 252.688665,108.749374 252.40899,108.610365 C251.498901,108.262463 251.14969,109.236285 251.14969,109.236285 C251.219227,108.401472 249.539651,106.661962 249.539651,106.661962 C249.750553,106.661962 251.359828,107.288642 252.129315,106.661962 C252.829266,106.036042 251.849641,100.887396 250.799715,100.400486 C249.680252,99.9135746 248.909236,102.904924 248.000676,102.000987 C247.089823,101.09553 247.230425,99.496548 246.949986,97.5481448 C246.949986,97.4083763 246.879685,97.2693674 246.879685,97.1303585 C246.879685,97.0604743 246.879685,96.9913496 246.810148,96.9214654 C246.810148,96.8523408 246.810148,96.7824565 246.739084,96.7133319 C246.739084,96.5735634 246.669547,96.5051984 246.669547,96.3654299 C246.669547,96.2955456 246.669547,96.2955456 246.598482,96.226421 C246.598482,96.1565367 246.528181,96.0866525 246.528181,96.0175278 L246.528181,95.9476436 C246.318808,95.3916081 246.039133,94.9039376 245.689158,94.2780178 C245.618093,94.2081335 245.618093,94.1390089 245.548556,94 C244.988443,94.1390089 243.658842,94.695804 243.589305,96.7824565 C243.519005,99.3567795 243.589305,100.051824 243.589305,100.46961 C243.589305,100.957281 241.839429,102.279005 241.769892,103.113058 C241.699591,104.018515 243.799443,105.131345 243.799443,105.131345 C243.799443,105.131345 243.589305,106.800971 243.939281,108.540481 C244.989971,113.201457 245.129044,112.644661 248.557733,111.671599 C248.557733,111.671599 249.327984,113.341225 248.907708,114.384931 L248.068684,115.636771 L249.538122,116.471584 L252.197324,118.00296 C253.737827,117.376281 257.655564,115.010851 257.796165,114.454056 C257.936002,113.966385 257.866466,111.531831 257.796165,110.697778 C257.657856,110.839065 257.58832,110.839065 257.58832,110.839065 Z" id="Fill-8" fill="#FFF3E0"></path>
                    <g id="Group-11" transform="translate(3.000000, 122.000000)">
                        <mask id="mask-2" fill="white">
                            <use xlink:href="#path-1"></use>
                        </mask>
                        <g id="Clip-10"></g>
                        <path d="M262.93461,48.0128727 C261.608039,40.5994909 261.747558,31.5076364 261.887076,26.2622182 L264.959535,28.0109455 C265.588512,29.8299273 266.147349,31.7176364 266.147349,33.2563636 C266.216727,36.1933091 265.728031,39.1310182 265.378853,40.74 C265.239335,41.5097455 265.100579,41.9992364 265.100579,41.9992364 C265.100579,41.9992364 263.424831,44.1672 262.935372,45.0064364 C262.446676,45.8456727 263.494209,47.1751636 263.494209,47.1751636 C263.494209,47.1751636 263.07489,47.4538909 262.93461,48.0128727 Z M72.866064,104.595273 L72.5866457,105.155018 L72.3769866,105.785018 L72.1677849,106.413491 L72.0275039,107.112982 L71.8883665,107.812473 L71.8183023,108.582218 L71.748543,109.3512 L71.748543,111.028909 L71.8183023,111.868145 L71.8883665,112.708145 L72.0275039,113.547382 L72.1677849,114.386618 L72.3076085,115.225855 L72.7260118,116.905091 L73.0054302,117.743564 L73.2846198,118.583564 L73.6337975,119.4228 L73.9829752,120.262036 L74.3321529,121.101273 L74.6813306,121.940509 L75.1006488,122.779745 L75.5192045,123.548727 L76.0079008,124.318473 L76.4973595,125.087455 L76.9860558,125.855673 L77.4747521,126.555164 L78.0335888,127.255418 L78.5924256,127.954909 L79.1512624,128.6544 L79.7093368,129.353891 L80.3375517,129.983891 L80.9665289,130.612364 L81.5947438,131.2416 L82.2229587,131.801345 L82.8511736,132.361091 L83.4793884,132.850582 L84.1083657,133.340073 L84.8067211,133.829564 L84.8760992,133.899818 L85.0163802,133.970836 L85.1566612,134.040327 L85.2954174,134.110582 L85.3655579,134.180836 L85.5050764,134.251091 L85.6453574,134.321345 L85.784876,134.392364 L85.8542541,134.461855 L85.9945351,134.532109 L86.0646756,134.602364 L86.2041942,134.672618 L86.2743347,134.742873 L86.4146157,134.813127 L86.4847562,134.883382 L86.5541343,134.953636 L87.2524897,135.303382 L87.8814669,135.582873 L88.5790599,135.862364 L89.2080372,136.072364 L89.8362521,136.212109 L90.4644669,136.351855 L91.0926818,136.422109 L91.2329628,136.422109 C91.9313182,134.953636 92.3506364,133.065164 92.3506364,130.896436 C92.3506364,122.153564 86.1348161,111.453491 78.4551942,106.977055 C76.427219,105.364255 74.541812,104.735018 72.866064,104.595273 Z M312.302083,55.6370182 C312.162564,55.9867636 312.023808,56.3365091 311.883527,56.616 C311.883527,56.6862545 311.814149,56.826 311.744771,57.0352364 C317.121192,58.0142182 321.101665,61.1611636 321.101665,64.9388727 C321.101665,65.4986182 321.031525,66.1278545 320.822628,66.6876 L318.238866,82.4246182 C318.238866,85.9923273 313.770459,88.7887636 308.253756,88.7887636 C302.737816,88.7887636 298.268647,85.9213091 298.268647,82.4246182 L295.685647,66.6876 C295.824403,67.1068364 296.034824,67.5268364 296.313862,67.9460727 C295.755025,67.0365818 295.405847,65.9881091 295.405847,64.9388727 C295.405847,62.1409091 297.570291,59.6926909 300.851647,58.2242182 C300.64275,57.6644727 300.502469,57.0352364 300.502469,56.5449818 C300.083913,52.3495636 300.083913,50.6008364 296.38324,47.4531273 C292.681804,44.3756727 292.613188,47.3836364 289.330308,46.0541455 C286.117568,44.7254182 285.211079,42.5574545 285.211079,40.5994909 C285.211079,40.32 285.281219,40.0405091 285.281219,39.8297455 L273.68974,33.0463636 C273.271184,37.1730545 272.851866,40.8094909 272.642207,42.0687273 C272.572066,42.4184727 272.572066,42.5582182 272.572066,42.5582182 C272.572066,42.5582182 272.222888,42.7682182 271.594674,42.9079636 C271.873711,42.8384727 272.08337,42.7682182 272.222888,42.6987273 C272.152748,46.3351636 273.688977,50.3221091 272.222888,51.3713455 C270.7568,52.4205818 265.728793,50.7421091 265.030438,50.3221091 C264.541742,50.0426182 263.564349,49.6928727 263.076415,49.1331273 C263.564349,51.5110909 264.192564,53.6790545 265.030438,55.4277818 L262.865994,56.9672727 C263.215171,62.6319273 264.192564,79.9076727 264.192564,80.5369091 C264.192564,81.3058909 267.055364,121.591527 267.055364,121.591527 L266.985223,121.591527 C266.985223,121.662545 267.963378,124.389491 264.192564,125.508982 C260.352372,126.627709 258.676624,122.921018 257.698469,120.543055 C257.698469,120.543055 254.696913,120.193309 251.903492,119.074582 C249.110833,118.025345 248.691514,115.228145 248.621374,113.129673 C248.551233,111.101455 249.877804,109.912473 251.554314,109.144255 C252.531707,108.654 254.207455,110.472218 256.23238,112.151455 C256.442039,110.751709 256.650936,108.794509 256.581558,106.346291 C256.511417,100.960364 251.554314,77.3212364 251.554314,77.3212364 C251.554314,77.3212364 249.947944,72.2850545 248.481855,68.0881091 C246.595686,74.8035273 244.082064,84.0351273 243.384471,87.1118182 C242.266798,92.0082545 237.72825,122.013055 237.72825,122.013055 C237.72825,122.013055 237.449213,122.222291 237.029895,122.501782 L237.029895,127.328727 C236.960517,128.028218 235.424287,129.285927 235.424287,129.285927 C235.424287,129.285927 229.418888,129.915164 229.070473,129.285927 C228.790674,128.586436 228.651917,127.047709 228.651917,127.047709 C228.651917,127.047709 224.182748,129.215673 219.923238,129.005673 C215.663727,128.796436 210.635721,124.669745 210.84538,121.591527 C211.054277,118.514073 212.730787,120.892036 218.526527,120.753055 C223.902948,120.542291 226.556089,119.354073 227.324585,119.073818 C227.254444,118.724073 227.254444,118.514073 227.254444,118.514073 C227.254444,118.514073 230.116481,94.6649455 230.116481,89.5585091 C230.116481,85.7113091 233.398599,67.5978545 235.074347,58.6449818 C232.839762,57.3162545 231.094636,56.2670182 230.814837,56.0577818 C230.814837,56.0577818 241.079746,26.6119636 238.425843,14.0929091 C238.425843,14.0929091 223.343349,15.8416364 222.365957,16.0508727 C221.80712,16.1906182 214.335632,7.23774545 208.88907,0.524618182 L208.88907,62.9809091 C208.88907,66.4081091 207.073804,69.6253091 204.070723,71.3740364 L122.583477,118.514073 C119.3715,120.403309 115.321649,118.025345 115.321649,114.317127 L115.321649,114.667636 L115.391027,115.017382 L115.461167,115.367127 L115.531308,115.646618 L115.601448,115.925345 L115.740967,116.2056 L115.880486,116.485091 L116.020767,116.764582 L116.160285,117.044073 L116.300566,117.324327 L116.509463,117.533564 L116.719122,117.743564 L116.928781,117.953564 L117.137678,118.163564 L108.549279,113.1984 L108.270242,112.9884 L108.061345,112.7784 L108.130723,112.708145 L107.921826,112.428655 L107.711405,112.149164 L107.572649,111.868909 L107.432368,111.590182 L107.292849,111.310691 L107.152568,111.0312 L107.082428,110.750945 L107.01305,110.4012 L106.942909,110.051455 L106.872769,109.701709 L106.872769,54.7282909 L90.324186,64.4501455 L90.324186,95.8539273 L91.231438,96.6229091 L92.1386901,97.4629091 L93.0474669,98.3013818 L93.954719,99.2108727 L94.792593,100.121127 L95.6297045,101.099345 L96.4675785,102.078327 L97.3054525,103.128327 L98.142564,104.177564 L98.9110599,105.2268 L99.6787934,106.345527 L100.377149,107.464255 L101.075504,108.583745 L101.77386,109.701709 L102.402074,110.820436 L103.030289,112.010182 L103.589888,113.199164 L104.147963,114.388145 L104.636659,115.577127 L105.126118,116.766109 L105.615576,117.955855 L106.03337,119.144073 L106.38331,120.333818 L106.732488,121.522036 L107.011525,122.711782 L107.290562,123.9 L107.709118,126.279491 L107.848636,127.467709 L107.988917,128.657455 L108.059058,129.846436 L108.059058,132.293891 L107.988917,133.482873 L107.848636,134.6016 L107.63974,135.720327 L107.430081,136.769564 L107.151043,137.749309 L106.801866,138.728291 L106.452688,139.637018 L106.03337,140.477018 L105.544674,141.315491 L105.055977,142.085236 L104.49714,142.784727 L103.868926,143.414727 L103.240711,144.183098 L102.611733,144.742462 L95.349905,148.939255 C91.5097128,151.806556 85.9930103,152.016938 79.7085744,148.798975 C79.2198781,148.589433 78.8013223,148.310018 78.3820041,148.09956 C77.8933079,147.820756 77.4046116,147.540425 76.9159153,147.260553 C65.2549816,139.637018 55.96777,123.200509 55.96777,109.632218 C55.96777,101.659091 59.1805097,96.3434182 64.2081347,94.5252 L63.928945,94.5962182 L63.2306659,94.8757091 L62.5323868,95.2254545 L69.7939866,91.0285091 L70.4924944,90.6787636 L71.1907736,90.3992727 L71.8889764,90.1190182 L72.6568624,89.9097818 L73.4249008,89.7700364 L74.1926343,89.7005455 L74.1926343,73.7535273 L0.525215083,116.065091 L162.873093,209.785495 L368.513591,88.4390182 L312.302083,55.6370182 Z" id="Fill-9" fill="url(#linearGradient-3)" mask="url(#mask-2)"></path>
                    </g>
                    <path d="M212.247805,111.371303 C212.524993,111.720645 212.803696,112.07075 213.010451,112.349156 C213.010451,112.349156 210.722512,113.257598 209.472893,115.214067 C208.848841,116.19192 208.36414,117.169772 208.016519,117.937868 C207.669655,117.519115 207.461385,117.239183 207.253873,116.960015 L207.253873,113.188187 C208.224789,112.000576 208.918517,111.371303 211.207213,110.044108 C211.276889,110.044108 211.763104,110.742792 212.247805,111.371303 Z M173.196075,77.2799314 L171.531431,77 C171.323161,77 171.184567,77.0701735 171.045216,77.2097579 C170.976297,77.3493422 170.976297,77.5583373 171.114891,77.7680951 L173.196075,80.4926589 L174.166991,81.8206168 L174.166991,81.7496805 L174.236667,81.4705119 L174.306343,81.1913432 L174.376018,80.9815854 L174.514612,80.7718275 L174.653207,80.4926589 L174.791801,80.282901 L174.931152,80.0731432 L175.069746,79.8641481 L175.209098,79.655153 L175.348449,79.4446324 L175.487043,79.2356373 L175.625637,79.0258795 L175.764231,78.8168844 L175.903583,78.6071265 L176.042934,78.3973687 L176.181528,78.2577843 L176.389798,78.1174373 L176.459474,78.0472637 L173.684562,77.4889265 L173.196075,77.2799314 Z M233.611746,246.061014 C231.323807,244.803992 230.768673,242.497418 230.559646,241.519566 C229.797757,241.798734 227.16144,243.057281 221.820644,243.196103 C216.063308,243.33645 214.328231,240.961228 214.189637,244.035134 C213.981367,247.10904 218.976057,251.160036 223.207342,251.44073 C227.438628,251.650488 231.878941,249.484262 231.878941,249.484262 C231.878941,249.484262 232.017535,251.021978 232.293966,251.720662 C232.571154,252.349173 238.606435,251.720662 238.606435,251.720662 C238.606435,251.720662 240.132485,250.462878 240.201403,249.764193 L240.201403,244.944339 C238.813948,245.781845 235.831523,247.319561 233.611746,246.061014 Z M269.889321,244.035134 C262.468099,244.453887 262.329505,242.846761 258.653353,237.188638 C258.653353,237.188638 258.929784,236.350369 259.138054,234.673832 C257.126546,232.997295 255.461902,231.18041 254.490986,231.6701 C252.826342,232.508368 251.438886,233.625806 251.57748,235.651685 C251.647913,237.677564 252.063696,240.471539 254.83785,241.589739 C257.612761,242.707176 260.594428,243.056519 260.594428,243.056519 C261.565344,245.43174 263.229988,249.134157 267.046249,248.01672 C270.860995,246.829109 269.889321,244.105308 269.889321,244.035134 Z M252.826342,131.770444 C252.340884,131.280755 252.063696,130.722418 251.99402,130.093907 L251.99402,129.813213 C251.923587,129.114529 251.99402,128.346434 252.20229,127.578338 C252.271208,127.437991 252.271208,127.228996 252.340884,127.088649 C252.340884,127.018476 252.41056,126.949065 252.41056,126.878891 C252.89526,125.692043 253.589746,124.50367 254.422068,123.59599 C254.491743,123.525054 254.560662,123.386232 254.699256,123.316059 C254.768931,123.245885 254.906768,123.107064 254.977201,123.03689 L255.04612,122.966717 C255.323308,122.687548 255.670172,122.47779 255.948117,122.338206 L256.017793,122.338206 C256.156387,122.268032 256.226063,122.198622 256.364657,122.198622 C256.434333,122.198622 256.503251,122.129211 256.572927,122.129211 L256.642603,122.129211 C256.712278,122.129211 256.781197,122.059037 256.850872,122.059037 L256.920548,122.059037 C257.5446,121.91869 258.168653,121.988864 258.723786,122.268032 L258.446598,122.127685 L258.376922,122.127685 L255.186228,120.311564 L255.116553,120.24139 L251.856183,118.355858 C248.111113,116.399389 242.770317,124.922423 245.752741,127.996329 L252.412074,131.83833 L252.826342,131.770444 Z" id="Fill-12" fill="#6A1B9A"></path>
                    <polygon id="Fill-13" fill="#9C27B0" points="115.930762 73.7487215 115.930762 73.6792611 115.862277 73.6090375 115.723801 73.4693535 115.654563 73.3991298 115.585325 73.3289062 113.447977 72.0709869 113.379492 72 112.964817 72 112.895579 72.0709869 112 72.6297229 112.137723 72.4892756 112.414675 72.4892756 112.483161 72.5594993 112.552399 72.6297229 114.689746 73.8876422 114.965945 74.1685368 115.035183 74.2379971 115.103669 74.3082207 115.103669 81.6496451 115.035183 81.7198687 114.896707 81.8595527 114.827469 81.9297764 114.758231 82 115.585325 81.5099611 115.723801 81.3695138 115.862277 81.2298298 115.930762 81.1596061 116 81.0893825 116 73.8181818"></polygon>
                    <polygon id="Fill-14" fill="#9C27B0" points="115.930762 84.7487215 115.930762 84.6792611 115.862277 84.6090375 115.792286 84.5388138 115.723801 84.4685902 115.585325 84.3289062 113.447977 83.0702236 113.379492 83 112.964817 83 112.895579 83.0702236 112 83.6297229 112.137723 83.4900389 112.414675 83.4900389 112.483161 83.5602626 112.552399 83.6297229 114.689746 84.8884055 114.758231 84.9586291 114.827469 85.0280895 114.896707 85.0983131 114.965945 85.1685368 115.103669 85.3082207 115.103669 92.6504084 114.965945 92.7900924 114.896707 92.860316 114.827469 92.9305397 114.758231 93 115.585325 92.5107244 115.654563 92.4405007 115.792286 92.3000534 115.862277 92.2305931 115.930762 92.1603694 116 92.0901458 116 84.8189451"></polygon>
                    <path d="M306.800244,172.266765 C305.897328,180.016574 309.719169,184.624075 314.16774,189.860494 C314.16774,189.930628 314.236787,189.930628 314.236787,190 C314.236787,189.929866 314.16774,189.929866 314.16774,189.860494 C311.735177,184.833714 308.052187,179.247387 308.191039,173.731956 C308.191039,173.661822 308.260845,173.173933 308.260845,172.405508 C308.33065,171.707218 308.538548,170.939555 308.747206,170.171892 C309.581076,167.378729 311.596325,164.376688 313.750426,161.165007 L314.097935,160.675593 C319.032108,154.042592 325.772874,153.344301 333,151.738842 C326.537697,151.45983 323.410115,151.249428 317.433415,155.439174 C319.518469,151.808213 321.117163,147.899004 321.117163,143.709259 C321.117163,138.542211 317.920534,135.050756 314.932563,131.700332 C311.874787,128.349145 308.955863,125.136702 310.137242,120.529202 C310.901307,117.736038 311.874787,115.781434 312.777704,114.175212 C316.738397,106.564908 315.070657,103.771745 310.693408,97 C313.195777,102.515431 315.418924,105.936752 311.388426,113.477684 C310.48551,115.223411 309.442224,117.178778 308.678159,120.180819 C307.983141,122.694209 308.33065,124.789082 309.234325,126.743686 C303.188578,124.439936 302.494319,121.577401 300.130802,116.340219 C299.99195,123.18286 303.743985,126.953326 310.345899,128.699053 C311.318621,130.095635 312.500759,131.422083 313.750426,132.748531 C316.600304,135.890077 319.518469,139.102521 319.518469,143.710021 C319.518469,149.574597 316.113184,154.881151 312.777704,159.839321 C312.430195,160.32721 312.082686,160.74649 311.804982,161.305275 C310.276094,163.679159 308.817011,165.913537 307.844289,168.077782 C306.315401,159.629682 300.199848,155.440698 292,156.138989 C299.01771,156.27697 307.148512,159.977302 306.800244,172.266765 Z" id="Fill-15" fill="#FBC02D"></path>
                    <path d="M171.219335,76.0934884 L172.899885,76.3738261 L173.599924,76.513613 C174.509362,74.6940917 175,72.6660359 175,70.91679 C175,66.5093015 171.849064,64.7600556 167.999618,66.929426 C164.150172,69.1675441 161,74.5550687 161,78.9625573 C161,82.3907736 162.820405,84.2095311 165.479939,83.8596819 L163.870462,101 L173.459305,95.4734524 L170.519297,80.9913769 C171.14979,80.361954 171.709973,79.6622556 172.269392,78.8922819 L172.899885,79.6622556 L170.799006,76.9337376 C170.659152,76.7931868 170.659152,76.5838884 170.729461,76.37459 C170.869316,76.1645277 171.009171,76.0934884 171.219335,76.0934884 Z" id="Fill-16" fill="#E1BEE7"></path>
                    <path d="M314.462141,179 C314.320199,179.420569 314.03863,180.123049 313.826489,180.964187 C318.488963,181.665901 321.951104,184.121134 321.951104,186.998468 C321.951104,187.137891 321.951104,187.348559 321.880904,187.488748 C321.456622,190.71694 316.723178,193.243417 311.000771,193.243417 C305.277593,193.243417 300.543378,190.71694 300.119867,187.488748 L300.119867,186.998468 C300.119867,185.033515 301.744481,183.27923 304.28863,182.087235 C304.005519,181.455233 303.722407,180.823997 303.511809,180.262472 C300.190838,181.736378 298,184.191612 298,186.998468 C298,188.401896 298.566224,189.734846 299.555186,190.927607 L299.625386,190.998085 C299.767327,191.207986 299.979468,191.418654 300.191609,191.558843 C300.191609,191.558843 300.26258,191.630087 300.332779,191.630087 C300.54492,191.840755 300.755519,191.980944 300.968431,192.121134 C301.039402,192.121134 301.039402,192.191612 301.109601,192.191612 C301.321742,192.331801 301.604083,192.542469 301.816995,192.682658 L301.887194,192.753136 C302.452647,193.103993 303.088298,193.45485 303.79492,193.735229 L303.865891,193.735229 C304.148232,193.875419 304.501543,194.015609 304.784655,194.086086 C304.856397,194.086086 304.997567,194.15733 305.066995,194.15733 C305.349335,194.227042 305.562248,194.296754 305.843817,194.367232 C305.984987,194.367232 306.126157,194.437709 306.197899,194.437709 C306.409269,194.508953 306.691609,194.577899 306.904522,194.577899 C307.045692,194.577899 307.186091,194.648377 307.328032,194.648377 C307.610373,194.718855 307.821742,194.718855 308.104854,194.788567 C308.246024,194.788567 308.387194,194.85981 308.528365,194.85981 C308.810705,194.85981 309.093817,194.929522 309.376157,194.929522 L309.729468,194.929522 C310.152979,194.929522 310.577261,195 311.000771,195 C311.424282,195 311.848564,195 312.272075,194.929522 L312.626157,194.929522 C312.907726,194.929522 313.190838,194.85981 313.473178,194.85981 C313.614348,194.85981 313.755519,194.788567 313.896689,194.788567 C314.179029,194.718089 314.391942,194.718089 314.674282,194.648377 C314.815452,194.648377 314.955851,194.577899 315.097793,194.577899 C315.380133,194.508187 315.592274,194.437709 315.874614,194.367232 C316.016556,194.367232 316.086755,194.296754 316.227925,194.296754 C316.510266,194.22551 316.722407,194.15733 317.004747,194.086086 C317.075718,194.086086 317.216888,194.015609 317.287088,194.015609 C317.569428,193.875419 317.922739,193.805707 318.205851,193.664752 C318.205851,193.664752 318.276822,193.664752 318.276822,193.594274 C318.912473,193.313894 319.548125,192.963037 320.114348,192.611414 C320.184548,192.541703 320.254747,192.541703 320.325718,192.471991 C320.53863,192.331801 320.749229,192.191612 320.96137,192.051422 C321.03234,191.980944 321.103311,191.910466 321.174282,191.840755 C321.314681,191.700565 321.527593,191.559609 321.667992,191.420186 C321.738963,191.349708 321.809934,191.279996 321.880904,191.208752 C322.021303,191.069329 322.163245,190.929139 322.304415,190.788183 C322.374614,190.717706 322.445585,190.647994 322.516556,190.507038 C322.656955,190.367615 322.727925,190.227425 322.798896,190.086469 C322.869867,190.016758 322.940066,189.876568 323.010266,189.80609 C323.081237,189.666667 323.152207,189.526477 323.223178,189.385521 C323.434548,189.03543 323.576489,188.683807 323.71766,188.403428 C323.929801,187.841904 324,187.281911 324,186.649143 C323.929801,183.140573 319.902207,179.982093 314.462141,179 Z" id="Fill-17" fill="#FBC02D"></path>
                    <path d="M94.4217426,251.327333 C94.4217426,242.615759 88.1642362,231.953232 80.4296789,227.492821 C78.4613012,226.378098 76.562784,225.749593 74.8753838,225.610348 C73.2583048,225.471863 71.7815609,225.819596 70.5158572,226.516583 C70.3052777,226.656589 70.0946213,226.795834 69.8835044,226.935079 C69.8127994,227.005082 69.6728481,227.074324 69.6021431,227.145088 C69.1801395,227.492821 68.8285338,227.842075 68.4770817,228.258289 L68.4770817,228.329053 C68.1956436,228.746788 67.9145126,229.165285 67.7032421,229.653023 C67.2819294,230.559258 66.9304773,231.603977 66.7189765,232.719461 C66.648425,232.92947 66.648425,233.207199 66.648425,233.417208 C66.5781807,234.044192 66.5073989,234.671176 66.5073989,235.368162 C66.5073989,235.785898 66.5073989,236.204394 66.5781807,236.62213 C66.5781807,236.830617 66.648425,237.109868 66.648425,237.319117 C66.648425,237.598368 66.7189765,237.946861 66.7892208,238.225352 C66.7892208,238.4346 66.8599258,238.643087 66.8599258,238.783093 C67.0007216,239.620086 67.211378,240.52556 67.4229555,241.361792 C67.4931999,241.640282 67.5637513,241.918773 67.6336119,242.197263 C67.7744077,242.615759 67.9145126,242.964253 68.055769,243.382749 C68.055769,243.452752 68.1260134,243.521234 68.1260134,243.591237 C68.2668092,244.009733 68.4774655,244.428229 68.6187219,244.915207 C69.1808304,246.239178 69.8136439,247.493906 70.5167785,248.748634 C70.6575743,249.027886 70.8684609,249.307137 71.0092567,249.584866 C71.1500525,249.863357 71.3607089,250.073366 71.5018885,250.351856 C71.6426843,250.560343 71.782866,250.838834 71.9943668,251.048843 C72.1351626,251.25733 72.2753443,251.465817 72.4868451,251.675827 C72.6975014,252.02432 72.9793233,252.30281 73.1901332,252.651304 C73.4007895,252.929033 73.6114459,253.209045 73.8227931,253.417533 C73.8932678,253.487536 73.8932678,253.487536 73.9635889,253.556017 C74.2447199,253.905271 74.5260813,254.183761 74.8070587,254.532255 C75.0177151,254.810745 75.2991531,255.019993 75.5102701,255.299245 C75.6515265,255.437729 75.721387,255.507732 75.8618758,255.646977 C76.1428532,255.925467 76.3539702,256.134716 76.6349477,256.344725 C76.8460646,256.553212 77.0571816,256.693218 77.2675308,256.901705 C78.0413704,257.528689 78.8144423,258.156434 79.6581424,258.644933 C79.7993988,258.714936 79.870027,258.784178 80.0097481,258.853421 C80.1510045,258.923424 80.2914932,258.993427 80.3613537,259.06343 C80.431982,259.06343 80.5026102,259.132672 80.5026102,259.132672 C80.7137271,259.271917 80.9947046,259.411162 81.2058215,259.481926 C81.2764498,259.481926 81.2764498,259.551168 81.3463103,259.551168 C82.4011273,260.039668 83.3860839,260.458164 84.2996445,260.666651 C84.4401332,260.736654 84.6512502,260.736654 84.7917389,260.805136 C86.4092786,261.15439 87.8855618,261.084387 89.222124,260.666651 C89.4324733,260.595887 89.5737297,260.526645 89.784079,260.457403 C91.3309904,259.760416 92.5969244,258.57493 93.370764,256.833224 C94.0701369,255.369248 94.4217426,253.557539 94.4217426,251.327333 Z M102.929372,254.742264 C102.929372,255.230002 103,255.787744 103,256.276244 C103,256.902466 103,257.52945 102.929372,258.087192 C102.858744,259.271917 102.719023,260.318158 102.507906,261.362877 C102.437277,261.711371 102.367417,261.989861 102.297556,262.338354 C102.085672,263.174586 101.804694,263.940815 101.453089,264.707881 C101.313367,265.056451 101.101483,265.404792 100.961762,265.75359 C100.961762,265.823212 100.891134,265.892454 100.891134,265.962381 C100.047434,267.495904 98.9219882,268.820027 97.6568219,269.79558 C93.7899271,272.653454 88.2348644,272.862246 81.9067298,269.656715 C81.4146354,269.447239 80.9924015,269.168596 80.5709353,268.958968 C80.0780732,268.680934 79.5859788,268.401607 79.0938843,268.123116 C67.3517899,260.526645 58,244.149739 58,230.630022 C58,222.684677 61.2343884,217.388795 66.2967426,215.576325 C66.7892208,215.436319 67.2812385,215.297835 67.7737168,215.15859 C69.1096648,214.879339 70.586639,214.810096 72.1330131,215.019345 C72.4846187,215.088587 72.8363012,215.088587 73.1879836,215.15859 C73.8911182,215.297835 74.6647275,215.436319 75.3674783,215.715571 C75.7198516,215.855577 76.0714573,215.92558 76.423063,216.064064 L76.423063,174.112461 L65.454194,167.840341 L65.454194,167.770338 C64.5401728,167.212596 63.7665635,165.958629 63.7665635,164.913149 L63.7665635,160.035002 C63.7665635,159.617267 63.9073593,158.850277 64.4698516,158.641029 C64.6107242,158.571026 64.7508291,158.571026 64.9623299,158.641029 C65.1031257,158.641029 65.1729862,158.711032 65.3137821,158.781035 C65.3137821,158.781035 65.3845638,158.781035 65.3845638,158.850277 L65.4548082,158.850277 C65.5253596,158.850277 65.5253596,158.92028 65.595604,158.92028 L76.4944589,165.1924 L76.4944589,158.433302 L70.7287399,155.157617 L65.5259738,152.161183 L65.5259738,152.091179 C64.6113384,151.60268 63.8383433,150.27871 63.8383433,149.23399 L63.8383433,144.146596 C63.8383433,143.588854 64.0489996,143.171119 64.4006821,143.031112 L64.4711567,143.031112 C64.6121829,143.031112 64.682504,142.961109 64.8228392,143.031112 L64.963635,143.031112 C65.0341864,143.031112 65.1046611,143.101115 65.1742913,143.101115 L65.5964485,143.310364 L76.4238307,149.512481 C76.6349477,149.651726 76.987321,149.79021 77.2675308,150.000219 C77.2675308,150.000219 77.338159,150.000219 77.338159,150.070222 C77.4087872,150.070222 77.4786478,150.139464 77.4786478,150.139464 C77.5485083,150.209467 77.6191365,150.209467 77.6897647,150.27947 C77.7603929,150.349473 77.8294857,150.349473 77.900114,150.419477 C77.9707422,150.488719 78.0413704,150.488719 78.1112309,150.558722 C78.2517196,150.628725 78.4628366,150.767209 78.6033253,150.837212 C78.6033253,150.837212 78.6739535,150.837212 78.6739535,150.907215 C78.7445818,150.977218 78.8850705,151.047221 78.954931,151.047221 C79.0255592,151.117224 79.0961874,151.117224 79.166048,151.185705 C79.5176536,151.395715 79.9391198,151.604202 80.2914932,151.81345 L80.3613537,151.882692 C80.5724707,152.021937 80.7828199,152.161183 80.9939369,152.231186 C81.0645651,152.301189 81.1351933,152.301189 81.2756821,152.371192 C81.4161708,152.440434 81.4860313,152.510437 81.6272877,152.579679 C81.9082652,152.719685 82.1892427,152.928172 82.4003596,153.137421 C82.6114766,153.345908 82.8218258,153.485914 83.0337105,153.694401 L83.103571,153.764404 C83.2448274,153.903649 83.3853162,154.112898 83.5250372,154.252143 C83.5956654,154.322146 83.5956654,154.392149 83.6662936,154.461391 C83.8075501,154.670639 83.9472711,154.809884 84.0178993,155.018372 C84.0178993,155.088375 84.0877598,155.088375 84.0877598,155.158378 C84.369505,155.576874 84.509226,155.99461 84.6504825,156.412345 C84.6504825,156.482348 84.6504825,156.482348 84.7211107,156.55159 C84.7917389,156.690836 84.7917389,156.830081 84.8615994,156.970087 L84.8615994,221.293747 C85.3544615,221.711483 85.8465559,222.129979 86.2680221,222.547715 C87.5339561,223.662437 88.7284942,224.847923 89.8539395,226.171133 C90.3468016,226.728875 90.9087565,227.356619 91.400851,227.983603 C92.9469947,229.934557 94.4240457,231.956275 95.689212,234.115717 C96.1820741,234.95271 96.6741685,235.788181 97.0956347,236.625173 C97.3773799,237.112151 97.5884968,237.600651 97.8687066,238.088389 C98.0805912,238.576128 98.3615687,239.063866 98.5719179,239.552366 C98.7124067,239.830095 98.8536631,240.178589 98.9933841,240.45784 C99.1338729,240.737091 99.2743616,241.015581 99.3449898,241.364075 C100.048201,243.106542 100.680784,244.919012 101.173646,246.730721 C101.454624,247.776201 101.735601,248.890923 101.947486,249.937164 C102.017347,250.284897 102.087207,250.63339 102.157835,250.912641 C102.299092,251.748112 102.438813,252.584344 102.509441,253.420576 C102.859511,253.626781 102.929372,254.184522 102.929372,254.742264 Z" id="Fill-18" fill="#FFA000"></path>
                    <path d="M121.479881,47.9148377 L122.945716,48.7565148 C123.573496,49.0811617 124.341459,49.0811617 124.969239,48.7565148 L134.529165,43.6392591 C135.156945,43.3160268 135.156945,42.4085715 134.529165,42.0846319 L132.994,41.2429547 C132.36622,40.9190151 131.598257,40.9190151 130.970477,41.2429547 L121.410551,46.3602104 C120.852101,46.68415 120.852101,47.5258272 121.479881,47.9148377 Z" id="Fill-19" fill="#9C27B0"></path>
                    <path d="M32.1047407,143.870048 L51.0957667,132.842575 L77.9484955,117.348027 C78.2963652,117.139228 78.6434754,116.930429 78.9921046,116.720106 C82.7480337,114.207662 86.086975,109.880802 88.3830668,104.924498 C90.6085213,100.178516 92,94.8739594 92,89.8483093 C92,88.3829074 91.861004,86.9876132 91.6521303,85.7310101 C91.0262687,82.2408694 89.495794,79.6583177 87.4784537,78.1929159 C87.2703396,78.0534627 87.130584,77.9140094 86.9224699,77.8439018 C86.8525921,77.8439018 86.7827144,77.7737942 86.7827144,77.7737942 C86.5047224,77.634341 86.1568528,77.4948877 85.8788608,77.3546725 C83.6526468,76.5880608 80.9395671,76.9370749 78.0183733,78.6112755 C75.4441377,80.0774394 73.0090499,82.4496682 70.9219078,85.381234 C68.4875037,75.0517893 60.5566067,71.0030737 51.2352943,76.3777379 C40.6615752,82.5197759 31.8959429,98.6430066 30.7829878,113.438765 C26.4002856,116.649237 22.8527744,122.86062 21.3917218,129.211457 C20.8351303,129.351672 20.2790705,129.630579 19.6522974,129.909485 C15.408895,132.352584 12,139.122542 12,144.915566 C12,148.54516 13.3217529,150.988258 15.408895,151.755632 C15.5475112,151.824978 15.6870388,151.824978 15.8259588,151.895085 C15.8954568,151.895085 15.9652586,151.965193 16.0343768,151.965193 L16.1038748,151.965193 C17.1474838,152.104646 18.3994349,151.824978 19.6514619,151.127712 L32.1047407,143.870048 Z" id="Fill-20" fill="#FFA000"></path>
                    <path d="M53.8585918,155.516597 C53.8585918,155.373757 53.8585918,155.303114 53.787733,155.160274 C53.5044524,153.525379 52.7249281,152.316675 51.7329047,151.747645 C51.7329047,151.747645 51.6620459,151.747645 51.6620459,151.676225 L51.5910324,151.676225 C51.4489279,151.604805 51.3077518,151.534162 51.1656474,151.463518 C50.1738561,151.107971 49.0408112,151.250035 47.7650431,152.031772 C46.6318436,152.672222 45.5681104,153.738863 44.6471006,154.946791 C43.5845278,150.467521 40.1124458,148.690563 36.0746537,151.036551 C31.4691402,153.738863 27.6435377,160.706185 27.2183848,167.176672 C25.3055836,168.59886 23.7469991,171.300395 23.108883,174.07335 C22.8256024,174.143994 22.6126392,174.215414 22.3297455,174.357477 C20.4876483,175.423342 19,178.339137 19,180.898609 C19,182.17718 19.3546035,183.101757 19.9917913,183.600144 C20.6295207,184.096978 21.409045,184.168398 22.4010684,183.600144 L27.856501,180.470866 L36.1458993,175.636049 L47.8359019,168.881434 C48.048169,168.738594 48.260436,168.597307 48.4735539,168.455244 C50.1029972,167.317183 51.5201735,165.326742 52.5828237,163.12204 C52.5828237,163.051397 52.6539146,163.051397 52.6539146,162.980753 C52.6539146,162.909333 52.7249281,162.837913 52.7249281,162.766493 C53.5044524,160.847472 54,158.78561 54,156.794392 C54,156.368202 54,155.941235 53.9289865,155.514268 C53.8585918,155.586465 53.8585918,155.516597 53.8585918,155.516597 Z" id="Fill-21" fill="#6A1B9A"></path>
                    <path d="M182,198.271119 C182,197.30601 180.932249,196.684452 180.077581,197.167383 L158.281613,209.381551 C157.498491,209.794416 157,210.623159 157,211.520462 L157,213.728686 C157,214.695302 158.068529,215.315352 158.923197,214.832421 L180.718387,202.619007 C181.501509,202.136076 182,201.377399 182,200.410783 L182,198.271119 Z" id="Fill-22" fill="#FBC02D"></path>
                    <path d="M156,43.0226895 C156,43.7794248 156.831354,44.2611202 157.456005,43.8485605 L174.02933,34.3506692 C174.653981,34.0064937 175,33.3181426 175,32.6989273 L175,30.9780498 C175,30.2205631 174.168646,29.7388677 173.543995,30.1514274 L156.97067,39.6500702 C156.346019,39.9942457 156,40.6825967 156,41.3709477 L156,43.0226895 Z" id="Fill-23" fill="#FBC02D"></path>
                    <path d="M277.52335,138.725659 C278.431844,140.748563 277.872712,148.560657 277.244166,155.048267 C276.825389,159.164145 276.406612,162.791053 276.19608,164.04699 C276.125902,164.395819 276.125902,164.535198 276.125902,164.535198 C276.125902,164.535198 275.147994,165.024168 273.681132,165.162786 C273.540777,165.162786 273.33177,165.162786 273.192178,165.232856 L273.122,165.232856 C272.353862,165.232856 271.515546,165.162786 270.607052,164.884027 C270.397282,164.813957 270.187513,164.744648 269.978506,164.675339 C269.978506,164.675339 269.908328,164.675339 269.908328,164.605269 C269.698558,164.535198 269.558203,164.395819 269.349197,164.32651 C269.349197,164.32651 269.279019,164.32651 269.279019,164.256439 C269.068487,164.11706 268.85948,163.977681 268.650473,163.838302 C268.650473,163.838302 268.789302,163.350093 268.929657,162.583127 C269.208079,160.978361 269.697796,158.049111 269.697796,155.1191 C269.697796,153.585166 269.137901,151.70088 268.509355,149.887426 C267.32244,146.677894 265.715222,143.748645 265.715222,143.748645 C265.715222,143.748645 265.576393,145.422719 265.505453,148.143281 C265.295683,153.374954 265.227031,162.443747 266.554301,169.838465 C266.624479,170.256603 266.693131,170.744811 266.832723,171.163711 C267.32244,173.535444 267.950986,175.698488 268.788539,177.441872 L266.623716,178.975805 C266.973078,184.626378 267.950986,201.856094 267.950986,202.484444 C267.950986,203.25141 270.814533,243.432248 270.814533,243.432248 L270.745119,243.432248 C263.269689,243.850386 263.130097,242.24562 259.427471,236.595047 C259.427471,236.595047 259.705892,235.758771 259.916425,234.083935 C260.125432,232.688619 260.335201,230.735786 260.265787,228.293983 C260.195609,222.923691 255.235128,199.345744 255.235128,199.345744 C255.235128,199.345744 253.628673,194.322759 252.161048,190.137572 C250.274646,196.834632 247.758935,206.041281 247.060974,209.110672 C245.943474,213.994278 241.401769,243.919694 241.401769,243.919694 C241.401769,243.919694 241.123347,244.129906 240.703045,244.408664 C239.375775,245.24494 236.371873,246.780397 234.136109,245.52446 C231.830931,244.268523 231.271036,241.966861 231.062029,240.990445 C230.991089,240.641616 230.991089,240.431404 230.991089,240.431404 C230.991089,240.431404 233.856162,216.644769 233.856162,211.551713 C233.856162,207.715356 237.139249,189.647841 238.816643,180.719189 C236.580117,179.394705 234.83407,178.347456 234.554886,178.138006 C234.554886,178.138006 244.825211,148.770107 242.169908,136.283856 C242.169908,136.283856 227.079456,138.028001 226.100785,138.236689 C225.541653,138.376069 218.066987,129.447417 212.617551,122.750357 L212.617551,185.043755 C212.617551,188.461213 210.800564,191.669983 207.796662,193.414128 L126.26566,240.431404 C123.052751,242.314929 119,239.942434 119,236.245456 L119,61.015999 C119,60.3876498 119.070178,59.7600622 119.210533,59.1324746 L119.210533,59.0624042 C119.419539,57.9458467 119.909256,56.8292892 120.467625,55.8528726 L120.607217,55.6441845 L120.678158,55.574114 C120.747572,55.4347348 120.887165,55.2953555 120.957342,55.1552146 C121.166349,54.876456 121.446296,54.527627 121.726243,54.3181773 L121.795658,54.2488684 L121.865836,54.178798 C122.215198,53.829969 122.633974,53.4811399 123.122928,53.1323109 L123.263283,53.0622405 L123.403638,52.99217 C123.54323,52.9228612 123.682823,52.7834819 123.821652,52.7134115 L205.213062,5.62758757 C205.9812,5.13861764 206.819516,5 207.657832,5 L207.72801,5 C210.243721,5.06930882 212.478722,7.02290363 212.478722,9.81277411 L212.478722,94.6376322 L186.210977,79.5001286 L207.519003,91.7776913 L207.519003,26.2069762 C207.519003,22.8580653 203.955969,20.8351617 201.021482,22.4399275 L128.502949,64.2247689 C125.847646,65.7602259 124.171014,68.6194052 124.171014,71.6887959 L124.171014,213.924207 C124.171014,217.272357 127.734811,219.294499 130.669298,217.621186 L203.187068,175.837106 C205.841608,174.301649 207.519003,171.441708 207.519003,168.372317 L207.519003,116.542266 C207.728773,116.821787 208.007957,117.101307 208.287141,117.518683 C208.636503,116.751716 209.125457,115.7753 209.754004,114.798883 C211.011096,112.775218 213.3178,111.93818 213.3178,111.93818 C213.45663,112.07756 213.596985,112.217701 213.596985,112.287771 C213.805992,112.42715 222.887876,120.867594 226.940627,125.820509 L227.010804,125.890579 L227.080982,125.890579 C227.569936,125.68113 231.621924,123.588156 236.093451,121.355802 L236.303221,121.495943 L243.778651,125.7512 L243.918243,125.821271 L243.639058,125.611821 L243.568881,125.540989 C242.311025,123.936985 243.219519,121.495181 243.219519,121.495181 L211.431399,103.218978 C211.850175,102.52132 213.247623,100.358276 213.247623,100.358276 C213.387215,99.6606177 212.619839,99.3818591 212.339892,99.5212384 C212.059945,99.6606177 210.80209,100.985863 209.963774,102.381179 L209.404642,102.102421 C209.754004,101.544904 211.430636,99.2424799 211.430636,99.2424799 C211.641168,98.6148923 210.942445,98.2660633 210.593083,98.3353721 C210.313135,98.475513 208.776096,99.8007586 207.798187,101.196075 L207.239056,100.847246 C207.867602,100.009447 209.05528,98.5448218 209.05528,98.5448218 C209.26505,97.9172343 208.566326,97.4983348 208.216964,97.6377141 C207.93778,97.7077845 206.750102,98.8235804 205.771431,100.009447 L205.492246,99.8708291 C205.981963,99.3117887 206.470154,98.7542716 206.470154,98.7542716 C206.610509,98.2653016 206.052141,97.9865431 205.841608,98.0566135 C205.702779,98.1259224 205.07347,98.6141307 204.514338,99.2417182 L183.834859,87.3137462 C183.764681,87.4531255 183.555674,87.5231959 183.416082,87.5231959 L180.41218,87.3137462 L180.551772,88.2208539 C180.62195,88.429542 180.481595,88.7090622 180.272588,88.7791327 C180.063581,88.8484415 179.782871,88.8484415 179.644041,88.6389918 L174.055013,81.3836529 L174.055013,81.3143441 L174.125191,81.0355856 L174.195368,80.756827 L174.264783,80.5473773 L174.405138,80.3386892 L174.54473,80.059169 L174.685085,79.8504809 L174.82544,79.6417928 L174.965033,79.432343 L175.105388,79.2228933 L175.244217,79.0134436 L175.384572,78.8047555 L175.524164,78.5953057 L175.664519,78.385856 L175.804874,78.1771679 L175.944466,77.9677181 L176.084821,77.8283389 L176.293828,77.688198 L176.364006,77.6181275 L185.375713,79.2929637 C185.446653,79.2929637 185.515305,79.2929637 185.515305,79.3622726 C185.585482,79.3622726 185.585482,79.432343 185.654897,79.432343 C185.654897,79.5024135 185.725074,79.5024135 185.725074,79.5724839 L185.725074,79.7118632 C185.725074,79.9906218 185.515305,80.1307627 185.306298,80.2008331 L184.397804,80.3402124 L186.424561,83.3402943 C186.493976,83.4796736 186.56339,83.6891233 186.424561,83.8285026 C186.353621,83.9678819 186.144614,84.1080228 186.005022,84.1080228 C186.144614,84.1080228 186.214791,84.1080228 186.284206,84.0379523 L186.424561,84.1080228 L187.332292,84.6663015 L188.240785,85.1545098 L189.149279,85.7127886 L190.057772,86.2009969 L190.407897,86.4104466 L190.966266,86.7592756 L191.455983,87.0380342 L191.595575,87.1081046 L191.874759,87.2474839 L192.362951,87.5270041 L192.78249,87.7356922 L193.131852,87.9443803 L193.690221,88.2932093 L194.388945,88.7121088 L194.599477,88.8522497 L195.228024,89.2010787 L195.507208,89.4097668 L196.06634,89.7585958 L196.415702,89.9672839 L205.008632,94.9201989 L212.134699,99.0360767 L243.084503,116.894142 L244.690195,117.80125 L244.761136,117.87132 C244.690195,117.941391 244.690195,117.941391 244.620781,118.011461 C244.690958,117.941391 244.690958,117.87132 244.761136,117.87132 C245.459859,117.104353 246.297413,116.476004 247.136491,116.197246 L247.206669,116.197246 C247.345498,116.127175 247.556031,116.127175 247.69486,116.057105 C247.835215,116.057105 247.974807,115.987796 248.1144,115.987796 L248.253992,115.987796 C248.393584,115.987796 248.603354,115.987796 248.743709,116.057105 L249.02213,116.127175 L249.301315,116.267316 L252.09621,117.87132 C248.322644,115.918487 242.943386,124.428239 245.948051,127.49763 L252.654579,131.333988 L252.794934,131.473367 L253.074118,131.682817 C253.772842,132.100954 254.820928,132.032407 255.938428,131.404058 C258.174192,130.078812 259.990416,127.009422 259.990416,124.428239 C259.990416,123.173064 259.57164,122.336027 258.872916,121.847819 L258.593732,121.707678 L258.523554,121.707678 L255.309882,119.893462 L255.239705,119.823392 L251.885678,117.87132 C253.42348,117.242971 257.335113,114.871238 257.474705,114.313721 C257.474705,114.243651 257.544883,114.17358 257.544883,114.034201 C257.544883,114.034201 259.081923,115.359447 259.710469,116.197246 C269.209604,119.821107 273.611717,129.726937 277.52335,138.725659 Z" id="Fill-24" fill="#673AB7"></path>
                    <path d="M212,111 C211.595283,110.388538 211.1893,109.70963 211.1893,109.70963 C211.073577,109.573997 210.899675,108.895089 211.073577,108.488189 C211.1893,108.148735 211.478926,107.944915 212,108.013102 L212,111 Z" id="Fill-25" fill="#FBC02D"></path>
                    <path d="M246.073195,95.7082764 C246.073195,95.7803813 246.145449,95.8517024 246.145449,95.9230235 C246.145449,95.9943447 246.145449,95.9951284 246.217703,96.0672333 C246.289957,96.2106594 246.289957,96.2819805 246.289957,96.4261903 C246.289957,96.4975114 246.362997,96.5696163 246.362997,96.6409375 C246.362997,96.7130424 246.362997,96.7851473 246.434465,96.8564684 C246.434465,96.9998944 246.50672,97.1433205 246.50672,97.2875303 C246.794165,99.2249574 246.650442,100.947637 247.585819,101.881866 C248.521195,102.814527 249.312063,99.7273404 250.463417,100.230507 C251.613984,100.733674 252.62083,106.04514 251.829176,106.690949 C251.109777,107.336758 249.383532,106.690949 249.167555,106.690949 C249.167555,106.690949 250.894585,108.485734 250.822331,109.347074 C250.822331,109.347074 251.182031,108.341524 252.115836,108.701265 C252.404067,108.844691 252.90749,109.203648 253.410912,109.63471 L253.483166,109.63471 C253.554635,109.706814 253.626889,109.778136 253.699143,109.778136 L253.771397,109.85024 C253.843652,109.922345 253.91512,109.922345 253.987374,109.99445 L254.059628,110.065771 C254.131883,110.137876 254.203351,110.137876 254.275605,110.209981 C254.347859,110.209981 254.347859,110.282086 254.419328,110.282086 C254.491582,110.354191 254.562266,110.354191 254.706774,110.425512 C254.706774,110.425512 254.779028,110.425512 254.850497,110.497617 C254.921965,110.569722 255.066474,110.569722 255.137942,110.641043 L255.210196,110.641043 C255.353919,110.712364 255.426173,110.712364 255.569896,110.784469 C256.145573,110.928679 256.720464,111 257.439863,111 C257.728094,111 258.01554,110.928679 258.302986,110.928679 C261.684006,110.28287 265.783641,102.888983 265.999617,97.6488385 C265.999617,97.6488385 266.072657,94.9927137 264.200333,93.7724167 C264.200333,93.7724167 265.064241,89.4657168 263.841419,87.9577841 C262.547128,86.4498513 259.885507,85.7327211 259.454339,84.8713811 C259.022385,84.0100412 253.411698,83.5789793 250.462631,84.8713811 C247.512779,86.1629992 245.571343,85.3737641 244.851158,84.0813623 C244.851158,84.0813623 244.420775,83.7224053 243.988821,84.5124242 C242.477768,87.2398701 242.837468,89.178081 244.132544,92.0497368 C244.492244,92.9110767 244.851158,93.5568858 245.139389,94.0592688 C245.569772,94.6321892 245.857218,95.1337885 246.073195,95.7082764 Z" id="Fill-26" fill="#212121"></path>
                </g>
            </g>
        </g>
    </g>
</svg>