<?xml version="1.0" encoding="UTF-8"?>
<svg width="600px" height="307px" viewBox="0 0 600 307" version="1.1" xmlns="http://www.w3.org/2000/svg" xmlns:xlink="http://www.w3.org/1999/xlink">
    <!-- Generator: Sketch 64 (93537) - https://sketch.com -->
    <title>Artwork</title>
    <desc>Created with Sketch.</desc>
    <g id="About" stroke="none" stroke-width="1" fill="none" fill-rule="evenodd">
        <g transform="translate(-757.000000, -206.000000)" id="Banner">
            <g>
                <g id="Artwork" transform="translate(757.000000, 206.000000)">
                    <g id="g10775" transform="translate(277.500000, 247.000000) scale(-1, 1) rotate(-180.000000) translate(-277.500000, -247.000000) translate(99.000000, 231.000000)" fill="#DCEDC8" fill-rule="nonzero">
                        <path d="M178.5,32 C79.9149771,32 2.43907458e-14,24.8350095 2.43907458e-14,16 C2.43907458e-14,7.16281598 79.9149771,6.14523447e-14 178.5,6.14523447e-14 C277.082629,6.14523447e-14 357,7.16281598 357,16 C357,24.8350095 277.082629,32 178.5,32" id="path10777"></path>
                    </g>
                    <path d="M329,281 C179.88361,281 59,273.837184 59,265.002175 C59,256.16499 179.88361,249 329,249 C478.118779,249 599,256.16499 599,265.002175 C599,273.837184 478.118779,281 329,281" id="path10781" fill="#FFECB3" fill-rule="nonzero" transform="translate(329.000000, 265.000000) scale(-1, 1) rotate(-180.000000) translate(-329.000000, -265.000000) "></path>
                    <path d="M397.5,304 C298.917371,304 219,296.837184 219,288.002175 C219,279.162816 298.917371,272 397.5,272 C496.082629,272 576,279.162816 576,288.002175 C576,296.837184 496.082629,304 397.5,304" id="path10785" fill="#DCEDC8" fill-rule="nonzero" transform="translate(397.500000, 288.000000) scale(-1, 1) rotate(-180.000000) translate(-397.500000, -288.000000) "></path>
                    <path d="M178.5,307 C79.9173707,307 0,299.837184 0,291 C0,282.16499 79.9173707,275 178.5,275 C277.082629,275 357,282.16499 357,291 C357,299.837184 277.082629,307 178.5,307" id="path10789" fill="#DCEDC8" fill-rule="nonzero" transform="translate(178.500000, 291.000000) scale(-1, 1) rotate(-180.000000) translate(-178.500000, -291.000000) "></path>
                    <g id="g10791" transform="translate(529.000000, 222.000000) scale(-1, 1) rotate(-180.000000) translate(-529.000000, -222.000000) translate(463.000000, 182.000000)" fill="#DCEDC8" fill-rule="nonzero">
                        <path d="M107.08912,46.4976636 C89.0244619,49.8954778 78.907397,39.3955145 59.5177436,47.5954859 C37.2235672,57.0150182 49.6409382,54.9650253 33.0820648,71.2301859 C16.5231913,87.4975204 -1.22204093e-14,76.1497339 -1.22204093e-14,76.1497339 L-1.22204093e-14,4.88975646e-14 L123.631342,4.88975646e-14 C133.872105,5.64998026 138.201533,34.9911821 115.874053,43.9041944 C112.726892,45.1607118 109.812854,45.9911437 107.08912,46.4976636 Z" id="path10793"></path>
                    </g>
                    <path d="M583.031548,222.293883 C581.62314,223.248059 580.062156,224.092483 578.341551,224.809235 C575.236013,226.103869 572.360515,226.959491 569.672804,227.481377 C551.847062,230.982263 541.863801,220.163785 522.730587,228.612501 C500.728917,238.317773 512.984408,236.205594 496.644535,252.964155 C480.304663,269.724956 464,258.032937 464,258.032937 L464,204.776013 C466.267536,205.295658 468.767459,201.620063 472.084258,205.499484 C474.635823,208.480725 478.645089,206.090805 479.541775,205.5622 C486.896009,201.248248 488.865432,208.037235 493.069528,210.678019 C497.6046,213.529348 500.470709,206.928509 503.11382,205.676432 C507.162991,203.7636 514.289532,207.139055 515.740192,207.36752 C535.011899,210.382358 537.335771,204.404197 535.042414,193.500605 C532.983792,183.714699 539.725369,181 553.027776,181 C570.170441,181 583.961097,187.13943 587.71685,194.349509 C592.850494,204.21157 592.449098,215.930468 583.031548,222.293883" id="path10797" fill="#DCEDC8" fill-rule="nonzero" transform="translate(527.500000, 221.500000) scale(-1, 1) rotate(-180.000000) translate(-527.500000, -221.500000) "></path>
                    <g id="Group-8" transform="translate(469.000000, 172.000000)" fill-rule="nonzero">
                        <g id="g10803" transform="translate(36.000000, 61.500000) scale(-1, 1) rotate(-180.000000) translate(-36.000000, -61.500000) translate(34.000000, 59.000000)" fill="#E9F6FF">
                            <path d="M1.035518,5 C1.035518,5 -1.42456958,1.76405489 3.33562443,3.87568765e-14 C3.33562443,3.87568765e-14 5.87117482,2.60513502 1.035518,5" id="path10805"></path>
                        </g>
                        <g id="g10807" transform="translate(58.000000, 64.500000) scale(-1, 1) rotate(-180.000000) translate(-58.000000, -64.500000) translate(56.000000, 62.000000)" fill="#D4EEFF">
                            <path d="M1.03457057,5 C1.03457057,5 -1.42328376,1.76262179 3.3354121,3.87568765e-14 C3.3354121,3.87568765e-14 5.87177283,2.6040744 1.03457057,5" id="path10809"></path>
                        </g>
                        <g id="g10811" transform="translate(6.000000, 65.000000) scale(-1, 1) rotate(-180.000000) translate(-6.000000, -65.000000) translate(4.000000, 62.000000)" fill="#D4EEFF">
                            <path d="M0.721974023,3.93531361e-14 C0.721974023,3.93531361e-14 4.44135659,0.709584087 3.42365552,6 C3.42365552,6 -0.773091827,4.66980108 0.721974023,3.93531361e-14" id="path10813"></path>
                        </g>
                        <path d="M76,86.5400407 C76,86.5400407 77.13695,82.9429304 83,84.3100211 C83,84.3100211 81.117433,88.331987 76,86.5400407" id="path10817" fill="#558B2F" transform="translate(79.500000, 85.500000) scale(-1, 1) rotate(-180.000000) translate(-79.500000, -85.500000) "></path>
                        <g id="g10819" transform="translate(16.500000, 62.500000) scale(-1, 1) rotate(-180.000000) translate(-16.500000, -62.500000) translate(15.000000, 60.000000)" fill="#E9F6FF">
                            <path d="M0.209878595,3.87568765e-14 C0.209878595,3.87568765e-14 3.58630819,0.421480531 2.91060127,5 C2.91060127,5 -0.92471963,4.06718015 0.209878595,3.87568765e-14" id="path10821"></path>
                        </g>
                        <g id="g10823" transform="translate(66.000000, 83.000000) scale(-1, 1) rotate(-180.000000) translate(-66.000000, -83.000000) translate(60.000000, 79.000000)" fill="#E9F6FF">
                            <path d="M-2.52637417e-14,1.02451766 C-2.52637417e-14,1.02451766 7.05827227,-2.21295587 11.5555556,6.51805383 C11.5555556,6.51805383 2.97053985,9.41025992 -2.52637417e-14,1.02451766" id="path10825"></path>
                        </g>
                        <path d="M41,58.0843836 C41,58.0843836 48.2125773,56.6106474 50,65.9809006 C50,65.9809006 41.5006719,66.7773255 41,58.0843836" id="path10829" fill="#558B2F" transform="translate(45.500000, 62.000000) scale(-1, 1) rotate(-180.000000) translate(-45.500000, -62.000000) "></path>
                        <path d="M73,67.9176416 C73,67.9176416 77.8460616,62.9513305 85,69.0031384 C85,69.0031384 78.7145142,74.150003 73,67.9176416" id="path10833" fill="#558B2F" transform="translate(79.000000, 68.500000) scale(-1, 1) rotate(-180.000000) translate(-79.000000, -68.500000) "></path>
                        <g id="g10835" transform="translate(6.000000, 49.000000) scale(-1, 1) rotate(-180.000000) translate(-6.000000, -49.000000) translate(0.000000, 44.000000)" fill="#D4EEFF">
                            <path d="M-1.17607074e-14,0.637678167 C-1.17607074e-14,0.637678167 8.63885944,-1.69737032 11.5862069,9.47553852 C11.5862069,9.47553852 1.32666491,11.0880524 -1.17607074e-14,0.637678167" id="path10837"></path>
                        </g>
                        <path d="M95,74.0788799 C95,74.0788799 101.287317,72.8631522 103,79.9772551 C103,79.9772551 95.5758803,80.6941152 95,74.0788799" id="path10841" fill="#558B2F" transform="translate(99.000000, 77.000000) scale(-1, 1) rotate(-180.000000) translate(-99.000000, -77.000000) "></path>
                        <g id="g10843" transform="translate(7.500000, 7.000000) scale(-1, 1) rotate(-180.000000) translate(-7.500000, -7.000000) translate(3.000000, 0.000000)" fill="#8ED1FF">
                            <path d="M2.29652522,4.22019322e-14 C2.29652522,4.22019322e-14 12.7000277,2.78129456 7.58617492,13.5757576 C7.58617492,13.5757576 -3.92983328,9.32370459 2.29652522,4.22019322e-14" id="path10845"></path>
                        </g>
                        <path d="M81.8641677,38 C81.8641677,38 86.7306026,39.8427368 84.3388016,47 C84.3388016,47 78.9505192,44.1807506 81.8641677,38" id="path10849" fill="#558B2F" transform="translate(83.000000, 42.500000) scale(-1, 1) rotate(-180.000000) translate(-83.000000, -42.500000) "></path>
                        <path d="M38,33.5427913 C38,33.5427913 43.0543046,31.1208322 47,36.50899 C47,36.50899 40.7870199,38.7832003 38,33.5427913" id="path10853" fill="#558B2F" transform="translate(42.500000, 35.000000) scale(-1, 1) rotate(-180.000000) translate(-42.500000, -35.000000) "></path>
                        <path d="M97.3866228,38 C97.3866228,38 100.944821,38.8589385 99.7574697,44 C99.7574697,44 95.7675078,42.5104749 97.3866228,38" id="path10857" fill="#558B2F" transform="translate(98.500000, 41.000000) scale(-1, 1) rotate(-180.000000) translate(-98.500000, -41.000000) "></path>
                        <path d="M121,78.9603431 C121,78.9603431 125.82575,75.7591444 131,81.0459725 C131,81.0459725 124.92788,84.2316503 121,78.9603431" id="path10861" fill="#558B2F" transform="translate(126.000000, 80.000000) scale(-1, 1) rotate(-180.000000) translate(-126.000000, -80.000000) "></path>
                    </g>
                    <g id="g10863" transform="translate(210.000000, 196.500000) scale(-1, 1) rotate(-180.000000) translate(-210.000000, -196.500000) translate(130.000000, 157.000000)" fill="#DCEDC8" fill-rule="nonzero">
                        <path d="M87.8561193,47.0007241 C64.3531144,38.9032616 52.0916206,49.274151 30.1945458,45.918037 C26.8934671,45.4188339 23.360903,44.595473 19.5486274,43.3571901 C-0.691680674,36.7735721 -2.86113276,18.9116655 2.52274986,7.98724812 C4.33861432,4.3026839 7.01371865,1.40730322 10.1445318,7.28210285e-14 L160,7.28210285e-14 L160,75.1959721 C160,75.1959721 139.969276,86.4053498 119.899972,70.3400878 C99.8282563,54.2769869 114.882043,56.3040538 87.8561193,47.0007241 Z" id="path10865"></path>
                    </g>
                    <path d="M250.15724,228.187247 C230.214297,211.840645 245.171504,213.903488 218.318969,204.435962 C194.966752,196.195585 182.783923,206.749513 161.027333,203.334166 C157.747432,202.826153 154.237532,201.98826 150.449715,200.728122 C148.348566,200.02658 146.443876,199.201882 144.723666,198.273823 C133.230838,192.0677 132.742088,180.636294 139.0072,171.019223 C143.592831,163.986204 160.41879,158 181.344026,158 C197.578213,158 205.807912,160.647828 203.294679,170.190127 C200.493946,180.825425 203.330617,186.653287 226.848147,183.712965 C228.621066,183.493046 237.320348,180.198655 242.262959,182.067969 C245.487755,183.286322 248.988072,189.725559 254.520058,186.945779 C259.65194,184.366126 262.054964,177.744355 271.032163,181.958009 C272.124664,182.470421 277.019358,184.799367 280.13155,181.894233 C284.182909,178.107222 287.232809,181.694106 290,181.188292 L290,233.128834 C290,233.128834 270.097787,244.536048 250.15724,228.187247" id="path10869" fill="#FFECB3" fill-rule="nonzero" transform="translate(212.500000, 197.500000) scale(-1, 1) rotate(-180.000000) translate(-212.500000, -197.500000) "></path>
                    <g id="Group-7" transform="translate(123.000000, 148.000000)" fill-rule="nonzero">
                        <g id="g10875" transform="translate(117.500000, 60.500000) scale(-1, 1) rotate(-180.000000) translate(-117.500000, -60.500000) translate(116.000000, 58.000000)" fill="#E9F6FF">
                            <path d="M0.483846239,1.29189588e-13 C3.9547768,1.60296681 2.16226017,4.54545455 2.16226017,4.54545455 C-1.36388138,2.36695983 0.483846239,1.29189588e-13 0.483846239,1.29189588e-13" id="path10877"></path>
                        </g>
                        <g id="g10879" transform="translate(92.500000, 63.000000) scale(-1, 1) rotate(-180.000000) translate(-92.500000, -63.000000) translate(91.000000, 61.000000)" fill="#558B2F">
                            <path d="M0.55296713,1.36424205e-13 C4.51974492,1.41061079 2.47115448,4 2.47115448,4 C-1.55872158,2.08292465 0.55296713,1.36424205e-13 0.55296713,1.36424205e-13" id="path10881"></path>
                        </g>
                        <g id="g10883" transform="translate(153.000000, 65.000000) scale(-1, 1) rotate(-180.000000) translate(-153.000000, -65.000000) translate(151.000000, 62.000000)" fill="#D4EEFF">
                            <path d="M0.220982185,6 C-1.05294775,0.70793882 3.59689651,1.18059408e-13 3.59689651,1.18059408e-13 C5.46745029,4.67152221 0.220982185,6 0.220982185,6" id="path10885"></path>
                        </g>
                        <path d="M60,84.3105837 C67.5381848,82.9418579 69,86.5404662 69,86.5404662 C62.4180963,88.3312157 60,84.3105837 60,84.3105837" id="path10889" fill="#558B2F" transform="translate(64.500000, 85.500000) scale(-1, 1) rotate(-180.000000) translate(-64.500000, -85.500000) "></path>
                        <g id="g10891" transform="translate(140.000000, 61.500000) scale(-1, 1) rotate(-180.000000) translate(-140.000000, -61.500000) translate(138.000000, 59.000000)" fill="#E9F6FF">
                            <path d="M0.107842349,5 C-0.705476733,0.422231797 3.34844358,1.16270629e-13 3.34844358,1.16270629e-13 C4.70890459,4.06721241 0.107842349,5 0.107842349,5" id="path10893"></path>
                        </g>
                        <path d="M73,84.559367 C78.4482371,76.5781174 87,79.5359898 87,79.5359898 C83.4002251,87.2038225 73,84.559367 73,84.559367" id="path10897" fill="#558B2F" transform="translate(80.000000, 82.000000) scale(-1, 1) rotate(-180.000000) translate(-80.000000, -82.000000) "></path>
                        <g id="g10899" transform="translate(108.000000, 60.000000) scale(-1, 1) rotate(-180.000000) translate(-108.000000, -60.000000) translate(102.000000, 56.000000)" fill="#E9F6FF">
                            <path d="M5.05274834e-14,7.56093179 C2.29344921,-1.31714633 11.5555556,0.0800813265 11.5555556,0.0800813265 C10.9140131,8.31414224 5.05274834e-14,7.56093179 5.05274834e-14,7.56093179" id="path10901"></path>
                        </g>
                        <path d="M57,68.0034807 C65.944333,61.9510528 72,66.9177649 72,66.9177649 C64.8560682,73.1496861 57,68.0034807 57,68.0034807" id="path10905" fill="#558B2F" transform="translate(64.500000, 67.500000) scale(-1, 1) rotate(-180.000000) translate(-64.500000, -67.500000) "></path>
                        <g id="g10907" transform="translate(153.500000, 48.500000) scale(-1, 1) rotate(-180.000000) translate(-153.500000, -48.500000) translate(146.000000, 44.000000)" fill="#D4EEFF">
                            <path d="M4.87229305e-14,8.91541173 C3.81469979,-1.5951232 15,0.599551245 15,0.599551245 C13.2815735,10.4343003 4.87229305e-14,8.91541173 4.87229305e-14,8.91541173" id="path10909"></path>
                        </g>
                        <path d="M38,78.9773881 C39.9275664,71.8636331 47,73.0787941 47,73.0787941 C46.3527879,79.692561 38,78.9773881 38,78.9773881" id="path10913" fill="#558B2F" transform="translate(42.500000, 76.000000) scale(-1, 1) rotate(-180.000000) translate(-42.500000, -76.000000) "></path>
                        <g id="g10915" transform="translate(152.000000, 7.000000) scale(-1, 1) rotate(-180.000000) translate(-152.000000, -7.000000) translate(147.000000, 0.000000)" fill="#8ED1FF">
                            <path d="M2.00202233,14 C-3.73124103,2.86610815 7.92959192,1.15019105e-13 7.92959192,1.15019105e-13 C14.9098585,9.61340442 2.00202233,14 2.00202233,14" id="path10917"></path>
                        </g>
                        <g id="g10919" transform="translate(61.000000, 43.500000) scale(-1, 1) rotate(-180.000000) translate(-61.000000, -43.500000) translate(58.000000, 39.000000)" fill="#8ED1FF">
                            <path d="M1.37791684,9 C-1.93620723,2.18382029 4.80474991,0.428571429 4.80474991,0.428571429 C8.83589503,6.31537219 1.37791684,9 1.37791684,9" id="path10921"></path>
                        </g>
                        <g id="g10923" transform="translate(111.000000, 33.500000) scale(-1, 1) rotate(-180.000000) translate(-111.000000, -33.500000) translate(105.000000, 31.000000)" fill="#8ED1FF">
                            <path d="M5.05274834e-14,4.44282379 C5.07011197,-1.68048027 11.5555556,1.07094147 11.5555556,1.07094147 C7.98011566,7.02522351 5.05274834e-14,4.44282379 5.05274834e-14,4.44282379" id="path10925"></path>
                        </g>
                        <g id="g10927" transform="translate(45.000000, 41.000000) scale(-1, 1) rotate(-180.000000) translate(-45.000000, -41.000000) translate(43.000000, 38.000000)" fill="#558B2F">
                            <path d="M0.322024017,6 C-1.25705909,0.860154603 3.48448706,1.18059408e-13 3.48448706,1.18059408e-13 C5.64364151,4.509487 0.322024017,6 0.322024017,6" id="path10929"></path>
                        </g>
                        <g id="g10931" transform="translate(6.000000, 80.000000) scale(-1, 1) rotate(-180.000000) translate(-6.000000, -80.000000) translate(0.000000, 78.000000)" fill="#558B2F">
                            <path d="M4.70428294e-14,3.04611029 C6.20890688,-2.24081033 12,0.960247259 12,0.960247259 C7.28744939,6.23154343 4.70428294e-14,3.04611029 4.70428294e-14,3.04611029" id="path10933"></path>
                        </g>
                    </g>
                    <g id="Group-5" transform="translate(216.000000, 0.000000)">
                        <g id="g10959" transform="translate(146.000000, 131.500000) scale(-1, 1) rotate(-180.000000) translate(-146.000000, -131.500000) " fill="#E1BEE7" fill-rule="nonzero">
                            <path d="M281.815474,262.442519 C280.934321,262.599268 280.048365,262.612515 279.184018,262.486673 L13.6590805,223.140355 C5.65907062,221.952591 0,216.029228 0,208.743691 L0,53.8288743 C0,46.5433366 5.65907062,40.6133505 13.6590805,39.4277948 L279.184018,0.0858913084 C280.050766,-0.0421575357 280.934321,-0.0267033648 281.817875,0.130046082 C284.406114,0.584840253 286.838289,2.20311271 288.677427,4.68019553 C290.547778,7.20143311 291.570588,10.3143447 291.570588,13.4559568 L291.570588,249.1144 C291.570588,255.516842 287.227246,261.488776 281.815474,262.442519" id="path10961"></path>
                        </g>
                        <polygon id="path11121" fill="#6A1B9A" fill-rule="nonzero" transform="translate(122.000000, 152.500000) scale(-1, 1) rotate(-180.000000) translate(-122.000000, -152.500000) " points="119 141.161769 125 141 125 164 119 163.822719"></polygon>
                        <polygon id="path11125" fill="#558B2F" fill-rule="nonzero" transform="translate(135.000000, 147.000000) scale(-1, 1) rotate(-180.000000) translate(-135.000000, -147.000000) " points="132 130.172418 138 130 138 164 132 163.657403"></polygon>
                        <polygon id="path11129" fill="#FFECB3" fill-rule="nonzero" transform="translate(148.000000, 149.000000) scale(-1, 1) rotate(-180.000000) translate(-148.000000, -149.000000) " points="145 134.179204 151 134 151 164 145 163.712389"></polygon>
                        <polygon id="path11133" fill="#6A1B9A" fill-rule="nonzero" transform="translate(155.000000, 141.500000) scale(-1, 1) rotate(-180.000000) translate(-155.000000, -141.500000) " points="151 119.193397 159 119 159 164 151 163.476691"></polygon>
                        <polygon id="path11137" fill="#FFC107" fill-rule="nonzero" transform="translate(171.000000, 137.000000) scale(-1, 1) rotate(-180.000000) translate(-171.000000, -137.000000) " points="167 110.195956 175 110 175 164 167 163.198947"></polygon>
                        <polygon id="path11141" fill="#6A1B9A" fill-rule="nonzero" transform="translate(147.500000, 170.500000) scale(-1, 1) rotate(-180.000000) translate(-147.500000, -170.500000) " points="120 170.382302 175 168 175 170.962075 120 173"></polygon>
                        <g id="g11143" transform="translate(26.500000, 113.000000) scale(-1, 1) rotate(-180.000000) translate(-26.500000, -113.000000) translate(16.000000, 77.000000)" fill="#DCEDC8" fill-rule="nonzero">
                            <path d="M6.06316651,71.5739645 C1.71316769,62.4609966 -0.371624367,50.8648257 0.05435478,38.2938792 C0.811094205,15.8740415 10.0473244,-1.07586359 21,0.531547745 L19.5441536,42.3737344 L6.06316651,71.5739645 Z" id="path11145"></path>
                        </g>
                        <g id="g11147" transform="translate(41.500000, 126.500000) scale(-1, 1) rotate(-180.000000) translate(-41.500000, -126.500000) translate(35.000000, 105.000000)" fill="#6A1B9A" fill-rule="nonzero">
                            <path d="M1.49534746,6.65518246e-14 C5.80894872,0.630599987 9.52544051,3.57121034 13,9.13275189 L0,42.5742574 L1.49534746,6.65518246e-14 Z" id="path11149"></path>
                        </g>
                        <g id="g11151" transform="translate(44.500000, 103.000000) scale(-1, 1) rotate(-180.000000) translate(-44.500000, -103.000000) translate(34.000000, 66.000000)" fill="#9C27B0" fill-rule="nonzero">
                            <path d="M6.84245377,74 L0,33.2659152 L12.5378779,9.17095857e-14 C15.7381402,5.27715808 17.8906828,11.5169674 19.28847,19.5797157 C23.2732807,42.5396003 17.5778566,67.1024517 6.84245377,74" id="path11153"></path>
                        </g>
                        <g id="g11155" transform="translate(31.500000, 84.000000) scale(-1, 1) rotate(-180.000000) translate(-31.500000, -84.000000) translate(21.000000, 62.000000)" fill="#FFC107" fill-rule="nonzero">
                            <path d="M0,30.4809232 L13.59713,7.28478766e-14 L20.5625,42.0106637 C13.0284768,46.9096242 5.6081843,42.6463381 0,30.4809232" id="path11157"></path>
                        </g>
                        <polygon id="path11161" fill="#6A1B9A" fill-rule="nonzero" transform="translate(87.000000, 64.500000) scale(-1, 1) rotate(-180.000000) translate(-87.000000, -64.500000) " points="78 60 96 61.9142781 96 69 78 66.9314224"></polygon>
                        <polygon id="path11165" fill="#6A1B9A" fill-rule="nonzero" transform="translate(103.500000, 62.500000) scale(-1, 1) rotate(-180.000000) translate(-103.500000, -62.500000) " points="101 59 106 59.5987692 106 66 101 65.3516923"></polygon>
                        <g id="g11167" transform="translate(89.500000, 115.500000) scale(-1, 1) rotate(-180.000000) translate(-89.500000, -115.500000) translate(82.000000, 112.000000)" fill="#9C27B0" fill-rule="nonzero">
                            <polygon id="path11169" points="0 3.51091705e-14 15 0.557891434 15 7 0 6.31251961"></polygon>
                        </g>
                        <polygon id="path11173" fill="#9C27B0" fill-rule="nonzero" transform="translate(98.000000, 142.000000) scale(-1, 1) rotate(-180.000000) translate(-98.000000, -142.000000) " points="91 139 105 139.040161 105 145 91 144.855422"></polygon>
                        <polygon id="path11177" fill="#9C27B0" fill-rule="nonzero" transform="translate(85.500000, 142.000000) scale(-1, 1) rotate(-180.000000) translate(-85.500000, -142.000000) " points="81 139 90 139.026712 90 145 81 144.903425"></polygon>
                        <polygon id="path11181" fill="#9C27B0" fill-rule="nonzero" transform="translate(86.000000, 88.500000) scale(-1, 1) rotate(-180.000000) translate(-86.000000, -88.500000) " points="82 85 90 85.6231975 90 92 82 91.3043887"></polygon>
                        <polygon id="path11185" fill="#9C27B0" fill-rule="nonzero" transform="translate(91.000000, 88.500000) scale(-1, 1) rotate(-180.000000) translate(-91.000000, -88.500000) " points="88 85 94 85.503645 94 92 88 91.4364501"></polygon>
                        <path d="M76.4787472,74.9848752 C74.557047,74.7148001 73,70.9382124 73,66.5567459 C73,62.1618871 74.557047,58.7892962 76.4787472,59.0102667 C78.4205817,59.2312373 80,63.0055928 80,67.4473241 C80,71.8756633 78.4205817,75.2549503 76.4787472,74.9848752" id="path11189" fill="#9C27B0" fill-rule="nonzero" transform="translate(76.500000, 67.000000) scale(-1, 1) rotate(-180.000000) translate(-76.500000, -67.000000) "></path>
                        <path d="M76.4787472,99.9921536 C74.557047,99.7977809 73,96.0823575 73,91.6922149 C73,87.2953698 74.557047,83.8592175 76.4787472,84.0044385 C78.4205817,84.1496595 80,87.8606146 80,92.3066114 C80,96.7459057 78.4205817,100.186526 76.4787472,99.9921536" id="path11193" fill="#DCEDC8" fill-rule="nonzero" transform="translate(76.500000, 92.000000) scale(-1, 1) rotate(-180.000000) translate(-76.500000, -92.000000) "></path>
                        <path d="M76.4787472,122.997083 C74.557047,122.880829 73,119.223322 73,114.832525 C73,110.430549 74.557047,106.929537 76.4787472,107.001077 C78.4205817,107.068146 80,110.721182 80,115.167871 C80,119.610088 78.4205817,123.115572 76.4787472,122.997083" id="path11197" fill="#FFC107" fill-rule="nonzero" transform="translate(76.500000, 115.000000) scale(-1, 1) rotate(-180.000000) translate(-76.500000, -115.000000) "></path>
                        <g id="g11199" transform="translate(76.500000, 142.000000) scale(-1, 1) rotate(-180.000000) translate(-76.500000, -142.000000) translate(73.000000, 134.000000)" fill="#8BC34A" fill-rule="nonzero">
                            <path d="M3.4787472,15.9996622 C1.55704698,15.9571694 1.40436682e-13,12.3676487 1.40436682e-13,7.96852896 C1.40436682e-13,3.57388213 1.55704698,0.00672604868 3.4787472,-2.15083207e-14 C5.42058166,-0.00892918177 7,3.58506444 7,8.02891342 C7,12.4772353 5.42058166,16.0399185 3.4787472,15.9996622" id="path11201"></path>
                        </g>
                        <g id="g11203" transform="translate(25.500000, 184.500000) scale(-1, 1) rotate(-180.000000) translate(-25.500000, -184.500000) translate(18.000000, 168.000000)" fill="#DCEDC8" fill-rule="nonzero">
                            <polygon id="path11205" points="5.01559578e-14 1.56410776 15 1.17239551e-13 15 32.3092971 5.01559578e-14 33"></polygon>
                        </g>
                        <polygon id="path11209" fill="#9C27B0" fill-rule="nonzero" transform="translate(47.500000, 172.000000) scale(-1, 1) rotate(-180.000000) translate(-47.500000, -172.000000) " points="37 170.946102 58 170 58 173.173274 37 174"></polygon>
                        <polygon id="path11213" fill="#9C27B0" fill-rule="nonzero" transform="translate(81.500000, 171.500000) scale(-1, 1) rotate(-180.000000) translate(-81.500000, -171.500000) " points="69 170.290389 94 169 94 172.877301 69 174"></polygon>
                        <polygon id="path11217" fill="#9C27B0" fill-rule="nonzero" transform="translate(51.500000, 180.500000) scale(-1, 1) rotate(-180.000000) translate(-51.500000, -180.500000) " points="37 179.737805 66 178 66 181.431784 37 183"></polygon>
                        <polygon id="path11221" fill="#9C27B0" fill-rule="nonzero" transform="translate(56.000000, 189.000000) scale(-1, 1) rotate(-180.000000) translate(-56.000000, -189.000000) " points="53 187.420091 59 187 59 190.61238 53 191"></polygon>
                        <polygon id="path11225" fill="#9C27B0" fill-rule="nonzero" transform="translate(63.000000, 189.000000) scale(-1, 1) rotate(-180.000000) translate(-63.000000, -189.000000) " points="59 187.61553 67 187 67 190.433712 59 191"></polygon>
                        <polygon id="path11229" fill="#9C27B0" fill-rule="nonzero" transform="translate(80.500000, 180.500000) scale(-1, 1) rotate(-180.000000) translate(-80.500000, -180.500000) " points="69 179.472071 92 178 92 181.67339 69 183"></polygon>
                        <polygon id="path11233" fill="#9C27B0" fill-rule="nonzero" transform="translate(43.000000, 190.000000) scale(-1, 1) rotate(-180.000000) translate(-43.000000, -190.000000) " points="37 188.920449 49 188 49 191.151461 37 192"></polygon>
                        <polygon id="path11237" fill="#9C27B0" fill-rule="nonzero" transform="translate(58.000000, 200.500000) scale(-1, 1) rotate(-180.000000) translate(-58.000000, -200.500000) " points="37 201.117603 79 196 79 200.217829 37 205"></polygon>
                        <polygon id="path11241" fill="#9C27B0" fill-rule="nonzero" transform="translate(66.500000, 210.500000) scale(-1, 1) rotate(-180.000000) translate(-66.500000, -210.500000) " points="43 211.828996 90 205 90 209.560682 43 216"></polygon>
                        <polygon id="path11245" fill="#9C27B0" fill-rule="nonzero" transform="translate(28.000000, 206.000000) scale(-1, 1) rotate(-180.000000) translate(-28.000000, -206.000000) " points="18 205.481442 38 203 38 206.662778 18 209"></polygon>
                        <polygon id="path11249" fill="#9C27B0" transform="translate(111.500000, 186.500000) scale(-1, 1) rotate(-180.000000) translate(-111.500000, -186.500000) " points="104 185.041488 119 184 119 188.05047 104 189"></polygon>
                        <polygon id="path11253" fill="#9C27B0" transform="translate(114.000000, 196.000000) scale(-1, 1) rotate(-180.000000) translate(-114.000000, -196.000000) " points="103 195.005036 125 193 125 197.141727 103 199"></polygon>
                        <polygon id="path11257" fill="#9C27B0" transform="translate(137.000000, 186.000000) scale(-1, 1) rotate(-180.000000) translate(-137.000000, -186.000000) " points="126 184.725446 148 183 148 187.428571 126 189"></polygon>
                        <polygon id="path11261" fill="#9C27B0" transform="translate(154.000000, 188.500000) scale(-1, 1) rotate(-180.000000) translate(-154.000000, -188.500000) " points="148 186.895277 160 186 160 190.186858 148 191"></polygon>
                        <polygon id="path11265" fill="#9C27B0" transform="translate(161.500000, 202.500000) scale(-1, 1) rotate(-180.000000) translate(-161.500000, -202.500000) " points="148 201.635965 175 199 175 203.554825 148 206"></polygon>
                        <polygon id="path11269" fill="#9C27B0" transform="translate(111.500000, 207.500000) scale(-1, 1) rotate(-180.000000) translate(-111.500000, -207.500000) " points="104 206.375392 119 205 119 208.708856 104 210"></polygon>
                        <polygon id="path11273" fill="#9C27B0" transform="translate(125.500000, 219.000000) scale(-1, 1) rotate(-180.000000) translate(-125.500000, -219.000000) " points="104 219.912102 147 214 147 218.40371 104 224"></polygon>
                        <polygon id="path11277" fill="#9C27B0" transform="translate(140.000000, 208.000000) scale(-1, 1) rotate(-180.000000) translate(-140.000000, -208.000000) " points="126 207.467456 154 204 154 208.747929 126 212"></polygon>
                        <polygon id="path11281" fill="#9C27B0" transform="translate(167.000000, 212.000000) scale(-1, 1) rotate(-180.000000) translate(-167.000000, -212.000000) " points="158 210.764213 176 209 176 213.348797 158 215"></polygon>
                        <polygon id="path11285" fill="#9C27B0" transform="translate(168.500000, 222.500000) scale(-1, 1) rotate(-180.000000) translate(-168.500000, -222.500000) " points="154 222.153476 183 218 183 223.070321 154 227"></polygon>
                        <polygon id="path11289" fill="#9C27B0" transform="translate(137.500000, 197.500000) scale(-1, 1) rotate(-180.000000) translate(-137.500000, -197.500000) " points="132 195.980881 143 195 143 199.091854 132 200"></polygon>
                        <g id="g11291" transform="translate(247.500000, 117.000000) scale(-1, 1) rotate(-180.000000) translate(-247.500000, -117.000000) translate(233.000000, 101.000000)" fill="#DCEDC8" fill-rule="nonzero">
                            <path d="M0,32 L0.0237921551,1.50904533 L29,9.09494702e-14 C29.0105677,16.0054204 16.2447548,30.3348465 0,32" id="path11293"></path>
                        </g>
                        <g id="g11295" transform="translate(234.500000, 152.000000) scale(-1, 1) rotate(-180.000000) translate(-234.500000, -152.000000) translate(212.000000, 137.000000)" fill="#FFC107" fill-rule="nonzero">
                            <path d="M-3.01645501e-15,9.50277189 C5.03183724,3.82890468 11.801522,0.243913014 19.1256406,0.012058764 C33.6014909,-0.449462432 44.9906818,12.3943881 45,28.6285602 L19.1815499,30 L-3.01645501e-15,9.50277189 Z" id="path11297"></path>
                        </g>
                        <g id="g11299" transform="translate(216.500000, 130.500000) scale(-1, 1) rotate(-180.000000) translate(-216.500000, -130.500000) translate(202.000000, 104.000000)" fill="#6A1B9A" fill-rule="nonzero">
                            <path d="M0,23.5820756 C-0.00486227303,14.49493 3.45342849,6.10230035 8.96089646,9.49123345e-14 L29,21.0624886 L28.9780967,52.8483934 C13.2636819,54.5678261 0.00973993989,41.4641757 0,23.5820756" id="path11301"></path>
                        </g>
                        <g id="g11303" transform="translate(244.500000, 197.500000) scale(-1, 1) rotate(-180.000000) translate(-244.500000, -197.500000) translate(232.000000, 178.000000)" fill="#DCEDC8" fill-rule="nonzero">
                            <path d="M4.23243487,39 L-1.83761052e-14,23.7891156 C7.51541766,21.1835075 11.7944197,12.7217521 9.62904803,4.84021901 C9.6238739,4.81864941 9.61611271,4.79923677 9.60835153,4.77766716 L23.8760033,1.33988059e-13 C28.2326172,16.0887672 19.5556083,33.4803385 4.23243487,39" id="path11305"></path>
                        </g>
                        <g id="g11307" transform="translate(231.000000, 225.000000) scale(-1, 1) rotate(-180.000000) translate(-231.000000, -225.000000) translate(207.000000, 211.000000)" fill="#FFC107" fill-rule="nonzero">
                            <path d="M19.7812634,17.7161777 C16.9298689,18.7977366 14.5842193,21.0059193 12.9617163,23.8292386 L-2.4145877e-14,17.0785086 C3.38002384,9.70813552 8.95466031,3.89475657 15.9252443,1.34408022 C29.8458164,-3.74375299 44.1096544,6.07364705 48,23.0113097 L35.379261,28 C33.4340882,19.7801525 26.4932539,15.1519819 19.7812634,17.7161777" id="path11309"></path>
                        </g>
                        <g id="g11311" transform="translate(218.500000, 197.500000) scale(-1, 1) rotate(-180.000000) translate(-218.500000, -197.500000) translate(201.000000, 174.000000)" fill="#6A1B9A" fill-rule="nonzero">
                            <path d="M1.13185277,25.1055492 C-1.08213444,16.43618 0.0541447103,7.43463427 3.64806681,9.80418601e-14 L16.9155902,6.54737339 C14.6078892,10.3455493 13.7457228,15.2757477 14.9382302,20.0092626 C16.9882183,28.1454012 24.2838333,32.5292566 31.1671079,29.8565471 L35,45.2677878 C20.7812821,50.9978322 5.46142776,42.0618477 1.13185277,25.1055492" id="path11313"></path>
                        </g>
                        <path d="M230.947533,99.8775938 C213.921238,97.5719084 197.506082,55.5974557 177.768897,54.0120226 C160.813941,52.6505703 156.906929,92.9385788 141.255103,90.7492757 C125.945705,88.6082822 126.730437,38.66055 127.179874,35 L267,42.742711 C267,42.742711 254.551305,103.070419 230.947533,99.8775938" id="path11317" fill="#6A1B9A" fill-rule="nonzero" transform="translate(197.000000, 67.500000) scale(-1, 1) rotate(-180.000000) translate(-197.000000, -67.500000) "></path>
                        <path d="M252.154455,71.7042249 C240.171783,75.7767071 233.42234,64.3614826 226.378815,55.8855469 C226.366762,55.8899306 226.35471,55.8943143 226.342657,55.8986981 C221.627689,50.2327312 209.384682,42.7190236 202.047073,54.8466037 C200.304271,57.728904 191.527584,102.381545 175.782099,99.9003554 C161.128576,97.596707 153.586074,49.7790155 153.369127,47.3285123 C151.973439,31.6588809 143.396825,56.236245 131.884204,55.0789412 C125.028699,54.3906961 119,25 119,25 L278,33.8200582 C278,33.8200582 268.531496,66.1390838 252.154455,71.7042249" id="path11321" fill="#FFECB3" fill-rule="nonzero" transform="translate(198.500000, 62.500000) scale(-1, 1) rotate(-180.000000) translate(-198.500000, -62.500000) "></path>
                        <g id="g11323" transform="translate(202.500000, 78.000000) scale(-1, 1) rotate(-180.000000) translate(-202.500000, -78.000000) translate(127.000000, 57.000000)" fill="#8BC34A" fill-rule="nonzero">
                            <path d="M122.108003,31.3534577 C95.7807288,30.0272029 101.386204,12.5696295 81.4221639,11.1948262 C63.3670943,9.95242782 61.2492546,43.7862689 49.8950105,41.9259814 C40.3477307,40.3591912 33.9480658,7.64417072 24.2599205,6.98435345 C15.8808527,6.41501279 15.5991217,20.8316893 9.0901647,20.0880156 C-1.25130507,18.9051994 0.0529150458,1.03536227e-13 0.0529150458,1.03536227e-13 L151,7.53383338 C151,7.53383338 137.666353,32.1346461 122.108003,31.3534577" id="path11325"></path>
                        </g>
                    </g>
                    <g id="Group-4" transform="translate(491.000000, 154.000000)">
                        <path d="M34.7650016,24.678959 C35.1108999,21.9645233 31.6686156,18.9209943 30.533115,16.5333178 C29.3618319,14.0662854 28.9228989,6 42.5393637,6 C56.1558285,6 55.7836897,14.2926829 54.2855923,16.5333178 C52.8113499,18.7366087 49.729277,23.2855642 50.0751752,26 L34.7650016,24.678959 Z" id="path11329" fill="#000000" fill-rule="nonzero" transform="translate(42.500000, 16.000000) scale(-1, 1) rotate(-180.000000) translate(-42.500000, -16.000000) "></path>
                        <path d="M54.5801703,15.9668874 C54.9589074,14.0101212 54.6909573,11.5450456 52.446875,10.2787705 C47.683031,7.58653005 42.3832867,9.93015119 39.5105522,13.389354 C38.9179702,14.1000875 37.0835424,10.5621642 37.0835424,10.5621642 C37.0835424,10.5621642 33.3837696,17.6874922 36.7872514,23 L34.1463968,23 C34.5199812,20.3842309 30.8021732,17.4513308 29.5757861,15.1526927 C28.3107523,12.7730851 27.8366867,5 42.5430262,5 C57.2493657,5 56.8474405,12.9935024 55.2268576,15.1526927 C55.0336243,15.4090966 54.8146266,15.6812445 54.5801703,15.9668874" id="path11333" fill="#424242" fill-rule="nonzero" transform="translate(42.500000, 14.000000) scale(-1, 1) rotate(-180.000000) translate(-42.500000, -14.000000) "></path>
                        <path d="M39.5859482,105.245027 C39.4673898,103.912254 39.0326757,102.810986 38.9462269,101.703227 C38.8548381,100.543542 39.1117146,99.3730392 39.1734638,97.8650159 C39.3513014,96.2617946 38.5263326,95.030711 38.2101768,93.648176 C36.5972887,86.5970311 38.3040356,82.2893203 36.5404795,76.9127952 C35.9674472,75.1602861 35.3598355,74.5436625 35.0584995,73.7864054 C34.653425,72.7651902 35.0313299,71.5167979 34.6089656,69.4895126 C34.063103,66.865076 32.6033528,64.206022 33.102286,62.7391069 C33.5715797,61.3479175 37.23701,60 38.6053715,60 C40.2404893,60 39.4426901,61.6573111 39.3661212,62.6785264 C39.2426229,64.2968928 39.9045739,73.4986478 40.5195955,75.5194423 C42.2955015,81.3568123 46.2968473,90.0739227 47.1020564,95.6235351 C47.867746,100.883226 47.3638728,101.876315 48.7248244,108.053369 C48.8829022,108.769517 51.7678231,125.329647 52,132 L39.7168564,126.571549 C40.0009026,120.128373 40.19356,111.962979 39.5859482,105.245027" id="path11337" fill="#FFF3E0" transform="translate(42.500000, 96.000000) scale(-1, 1) rotate(-180.000000) translate(-42.500000, -96.000000) "></path>
                        <g id="g11343" transform="translate(36.500000, 129.000000) scale(-1, 1) rotate(-180.000000) translate(-36.500000, -129.000000) translate(33.000000, 125.000000)" fill="#FF6F00">
                            <path d="M6.73414252,4.6140503 C6.45499347,3.43683145 3.82003517,2.8054351 2.54429793,4.3550159 C1.71206853,5.36339983 1.3885687,6.69788956 1.15898817,7.85429315 C1.1485527,7.90517491 1.12768174,7.94911824 1.11724626,8 C0.470246598,5.96472969 -0.283716717,4.09366869 0.107613723,2.92801388 C0.603298948,1.44087887 4.47486144,2.39340711e-14 5.9201752,2.39340711e-14 C7.64724688,2.39340711e-14 6.804582,1.77161029 6.72370704,2.86325528 C6.70022721,3.18936109 6.70544495,3.81150622 6.73414252,4.6140503" id="path11345"></path>
                        </g>
                        <g id="g11351" transform="translate(43.000000, 28.500000) scale(-1, 1) rotate(-180.000000) translate(-43.000000, -28.500000) translate(30.000000, 14.000000)" fill="#FFF3E0">
                            <path d="M22.290128,19.9097555 C21.0234004,20.1902368 18.5659963,20.8483741 17.066362,21.3894601 C14.4711152,22.3258701 14.9274223,24.4438352 15.5215722,27.4319549 L10.7279707,29 C10.269287,25.8219481 11.0606947,22.1867337 7.53382084,23.0878075 C3.32723949,24.1611454 1.3166362,23.4301272 0,18.2997487 L19.4714808,9.78592643 C19.4714808,6.23905262 21.0091408,2.92628132 21.9193784,1.16868372e-13 L26,1.51504074 C25.5460695,5.58533242 24.6001828,19.3995888 22.290128,19.9097555" id="path11353"></path>
                        </g>
                        <g id="g11355" transform="translate(29.500000, 26.500000) scale(-1, 1) rotate(-180.000000) translate(-29.500000, -26.500000) translate(22.000000, 19.000000)" fill="#FFF3E0">
                            <path d="M0,3.23691062 L2.55500355,1.70530257e-13 C5.46132009,1.82455887 15,11.9127857 15,11.9127857 L9.92193045,15 C5.8738467,11.6632919 1.69535131,5.12221579 0,3.23691062" id="path11357"></path>
                        </g>
                        <path d="M22.0951817,23.4039961 C17.0433875,25.272495 7.98571927,28.4523822 7.67455803,29.7889894 C7.3424784,31.2195947 6.59203071,32.221477 5.49642938,33.0812157 C4.48711647,33.874468 4.82181091,32.2902561 3.48564795,33.0926789 C2.69597826,33.5649621 0.570145622,35.1766857 0.258984387,34.9841042 C-0.373797286,34.594356 0.258984387,34.0876833 1.01989127,33.5443283 C0.596293625,33.3655027 0.405413203,32.8152699 0.876077257,32.4690817 C0.447250008,32.0930893 0.512620016,31.5336859 0.936217664,31.1966683 C0.418487205,30.6533134 0.695656036,30.151226 1.58991774,29.6537238 C2.54431985,29.1218321 3.83603119,28.0190738 6.38546149,26.5357379 C9.72456147,24.5938746 16.9100327,18.1057126 23.7948019,18.0002514 C25.2172532,17.9750324 25.0394468,19.8549945 24.9243956,20.2516206 C24.4485019,21.8771001 23.8287943,22.7620578 22.0951817,23.4039961" id="path11365" fill="#FFF3E0" transform="translate(12.500000, 26.500000) scale(-1, 1) rotate(-180.000000) translate(-12.500000, -26.500000) "></path>
                        <path d="M43.1083473,18.9016232 C41.1017628,19.1481122 39.553203,18.9179008 38.3617935,18.3621379 C35.8808263,17.2110807 34.9838612,14.6438745 35.0002193,11.8348301 C35.0002193,11.7278632 35.0002193,11.6185709 35.0083983,11.5092786 C35.0083983,11.4092878 35.0165773,11.3069716 35.0165773,11.2069808 C35.0247563,11.069784 35.0247563,10.9325873 35.0411143,10.7884145 C35.0929147,10.1745174 35.1528942,9.62573057 35.2210526,9.12112573 C35.3900855,7.97239397 35.6163716,7.08410343 35.9898798,6.33533495 C36.4560835,5.374958 39.553203,1.93806421 42.0069069,2.00084914 C44.2588617,2.06828481 47.2987281,5.3168238 47.7894689,6.06559228 C48.3729052,6.9771365 48.6537179,7.93751345 48.7954875,8.96997681 C48.904541,9.70479308 48.9399834,10.4768152 48.9808784,11.2999955 L48.9808784,11.3302253 C48.9917838,11.5185801 49,11.7185617 49,11.9069165 C49.0081418,15.2066136 47.6695101,18.3551618 43.1083473,18.9016232" id="path11389" fill="#FFF3E0" transform="translate(42.000000, 10.500000) scale(-1, 1) rotate(-180.000000) translate(-42.000000, -10.500000) "></path>
                        <g id="g11391" transform="translate(42.000000, 97.500000) scale(-1, 1) rotate(-180.000000) translate(-42.000000, -97.500000) translate(33.000000, 57.000000)" fill="#FFF3E0">
                            <path d="M14.5625656,17.3050079 C12.8904547,22.7990825 14.5836131,27.9945661 13.0564965,35.2027743 C12.7571536,36.6138933 11.9760556,37.8746109 12.1420974,39.5135438 C12.2029014,41.0551581 12.4461175,42.2495221 12.3595887,43.4372508 C12.2777371,44.5696849 11.8684792,45.6954836 11.753887,47.0579433 C11.3867242,51.4505489 11.3282588,53.1912239 11.4054332,59.5700126 C11.5176868,69.2089727 12.3338639,73.7807329 8.63183387,81 L0.912060474,80.9734586 L-4.87229305e-14,74.4088799 C0.24087751,66.9418929 1.59025929,59.2072798 3.31381972,50.7582601 C4.60473609,44.4436131 4.23055743,41.9465076 4.95318996,36.5696576 C5.71557897,30.8964284 11.863802,14.8808913 12.0462141,12.700071 C12.0976637,12.1073125 12.2309648,4.55406586 12.3549115,3.53664464 C12.4835354,2.49931735 12.3525729,4.8466494e-14 13.8539647,4.8466494e-14 C15.1495583,4.8466494e-14 17.5723651,2.64750696 17.8927556,3.60520998 C18.3978968,5.09595325 16.9830337,7.82308448 16.4638609,10.50598 C16.066296,12.5784228 16.4241044,13.8524111 16.0405713,14.8985855 C15.7575987,15.6727104 15.1074632,15.5112501 14.5625656,17.3050079 Z" id="path11393"></path>
                        </g>
                        <g id="g11395" transform="translate(48.000000, 134.000000) scale(-1, 1) rotate(-180.000000) translate(-48.000000, -134.000000) translate(45.000000, 129.000000)" fill="#FF6F00">
                            <path d="M1.31859439,4.29287599 C0.757699762,4.29287599 0.373929753,4.94722955 -2.43614652e-14,5.31134565 C0.0221405775,4.80211082 0.0418210908,4.40897098 0.0615016041,4.22163588 C0.194345069,2.98153034 0.0590415399,2.36847579e-14 1.63840273,2.36847579e-14 C3.00127828,2.36847579e-14 5.54990475,3.15831135 5.88693354,4.30079156 C6.27808374,5.60949868 5.57696546,7.70976253 4.96440948,10 C4.86846698,9.57783641 4.12798767,4.29287599 1.31859439,4.29287599" id="path11397"></path>
                        </g>
                        <g id="g11403" transform="translate(41.000000, 68.000000) scale(-1, 1) rotate(-180.000000) translate(-41.000000, -68.000000) translate(27.000000, 46.000000)" fill="#558B2F">
                            <path d="M0.999136034,42.8130535 C0.947784998,42.5023462 0.253323363,37.189028 0.216644052,36.8984384 C-0.981546796,27.1681591 3.04828691,13.7563337 5.9728507,0.889922535 C13.2011204,-1.31632274 23.4199766,1.27439486 23.4199766,1.27439486 C23.4199766,1.27439486 28,21.1440142 28,31.0441767 C28,37.8350309 23.8014415,41.8608138 23.3955237,44 C18.0525707,41.1812814 3.41752532,42.2452862 0.999136034,42.8130535" id="path11405"></path>
                        </g>
                        <g id="g11407" transform="translate(38.500000, 69.000000) scale(-1, 1) rotate(-180.000000) translate(-38.500000, -69.000000) translate(27.000000, 48.000000)" fill="#8BC34A">
                            <path d="M12.4983484,7.50219449 C11.6915205,10.0002508 10.1448855,14.6687134 10.4207021,17.2503314 C11.0084234,22.8049883 2.41428834,25.9341556 5.45084836,28.3156652 C6.86086392,29.4239578 15.2590919,31.1523665 16.3030705,32.922556 C17.769796,35.4074184 6.52060423,37.1864039 1.14862538,41.8790554 C1.10480405,41.9164383 1.07644908,41.9604181 1.03520548,42 C0.90631923,41.1621836 0.264465711,36.5662878 0.228377561,36.2980106 C-1.03470768,26.7257931 3.21338308,13.5318339 6.29634215,0.87442895 C12.0781793,-0.770417973 19.6721571,0.298292728 23,0.909612841 C20.1232589,3.94862146 13.7433896,3.66495134 12.4983484,7.50219449" id="path11409"></path>
                        </g>
                        <g id="g11411" transform="translate(41.500000, 34.000000) scale(-1, 1) rotate(-180.000000) translate(-41.500000, -34.000000) translate(27.000000, 19.000000)" fill="#558B2F">
                            <path d="M22.1451302,27.0796358 L16.0141044,25.3887659 C16.0141044,25.3887659 12.9145572,27.6582605 10.782555,29.3577027 C10.782555,29.3577027 5.44890286,32.1608179 0.0690613999,26.0552558 C-0.541123962,25.3609062 3.10540211,24.1243638 2.6435088,20.6076114 C1.86315223,14.684209 0.0860785216,3.39031212 1.89475545,1.49799505 C3.60619169,-0.289312349 24.0048585,-0.919370353 24.5907337,2.12805305 C24.9335071,3.91964656 23.1029511,4.83687386 22.538955,6.86848946 C22.1402682,8.31505121 22.2885602,9.9051976 22.7942119,12.5925879 C24.1166853,13.5462471 26.6060471,14.7999339 25.2957287,17.9287934 C24.3427699,20.2068603 29.2388389,20.1361395 28.9908751,21.8312955 C28.2542769,26.888904 22.1451302,27.0796358 22.1451302,27.0796358" id="path11413"></path>
                        </g>
                        <g id="g11439" transform="translate(42.000000, 6.500000) scale(-1, 1) rotate(-180.000000) translate(-42.000000, -6.500000) translate(35.000000, 2.000000)" fill="#F0BF97" fill-rule="nonzero">
                            <path d="M7.86495471,8.46729899 C5.91860295,8.67546251 4.41652713,8.47919405 3.26088078,8.00735674 C0.85438607,7.02601443 -0.0156543242,4.83732371 0.000212673864,2.44245197 C0.412754623,3.3881091 1.14263653,4.55382482 2.42257438,5.32898611 C2.42257438,5.32898611 4.55668562,3.79055858 7.35721078,2.959887 C7.35721078,2.959887 5.62241899,4.92257162 5.29450103,5.72152304 C5.4928385,5.62834508 8.57103613,4.10379511 13.381381,8.63309424e-14 C13.487161,0.632420599 13.5215395,1.30449139 13.561207,2.01026485 C13.725166,4.99592448 12.5457191,7.97563658 7.86495471,8.46729899" id="path11441"></path>
                        </g>
                        <path d="M41.874654,11 C38.3409836,11 37.0207876,8.50596191 37.0207876,8.50596191 C37.0207876,8.50596191 34.5172877,8.08311087 34.0903701,6.14700125 C33.7237779,4.47908881 34.498726,2.77789642 35.9395726,1.48389393 C35.9395726,1.48389393 36.3038446,4.40469834 38.482516,5.88663463 C38.482516,5.88663463 40.3526003,4.36554547 42.8096962,3.54137747 C42.8096962,3.54137747 41.2783616,5.49510589 40.9952968,6.27816337 C40.9952968,6.27816337 44.0069213,4.67289553 48.7308564,0 C48.4292299,2.03986474 49,3.02651717 49,5.33849439 C49,7.9813134 46.2969625,11 41.874654,11" id="path11445" fill="#000000" fill-rule="nonzero" transform="translate(41.500000, 5.500000) scale(-1, 1) rotate(-180.000000) translate(-41.500000, -5.500000) "></path>
                        <g id="g11463" transform="translate(50.500000, 9.000000) scale(-1, 1) rotate(-180.000000) translate(-50.500000, -9.000000) translate(49.000000, 8.000000)" fill="#FFFFFF" fill-rule="nonzero">
                            <path d="M1.8084575,1.86575 C1.6010825,1.86125 0.884457501,1.85825 0.485457501,1.90625 C0.485457501,1.90625 0.957957501,1.79825 1.3779575,1.51475 C1.7034575,1.29125 1.7008325,0.59375 1.7008325,0.59375 C1.8583325,0.83375 1.8767075,1.16075 1.8688325,1.29725 C1.8609575,1.43375 1.9160825,1.46675 2.0237075,1.47425 C2.1313325,1.48175 2.1418325,1.51475 2.1392075,1.54775 C2.1365825,1.58375 2.1260825,1.75325 2.1234575,1.80725 C2.1208325,1.86125 2.0184575,1.87025 1.8084575,1.86575" id="path11465"></path>
                        </g>
                        <g id="g11479" transform="translate(37.500000, 46.500000) scale(-1, 1) rotate(-180.000000) translate(-37.500000, -46.500000) translate(29.000000, 36.000000)" fill="#FF6F00" fill-rule="nonzero">
                            <polygon id="path11481" points="0 19.6516959 3.04541632 1.7408297e-13 17 1.34830412 13.9545837 21"></polygon>
                        </g>
                        <g id="g11483" transform="translate(38.000000, 48.000000) scale(-1, 1) rotate(-180.000000) translate(-38.000000, -48.000000) translate(29.000000, 39.000000)" fill="#FFC107" fill-rule="nonzero">
                            <polygon id="path11485" points="0 18 3.05011933 1.66564437e-13 18 1.66564437e-13 14.9522673 18"></polygon>
                        </g>
                        <path d="M51.4502415,46.9012248 C46.5118559,46.0899588 42.9817462,43.9637285 40.3441726,43.8277745 C39.7271688,43.796572 39.1290048,43.6026705 38.5614555,44.0060748 C37.3651274,44.8596871 36.0957951,44.8151121 34.7699434,44.7727658 C33.5524206,44.7326482 34.8947571,43.8188595 33.4582215,43.5915267 C32.608075,43.4555728 30.0811853,43.3307626 30.015246,43.0142797 C29.8810123,42.3657126 30.6534446,42.3857714 31.5342058,42.452634 C31.3858422,42.0759748 31.6543096,41.5789629 32.205374,41.6146229 C32.1959541,41.0975522 32.6363347,40.7431805 33.1497196,40.7587818 C33.2015291,40.0723259 33.7384637,39.8851106 34.6757443,40.0634109 C35.6742543,40.2528549 37.2968331,40.2417111 40.007411,40.7075205 C43.5587155,41.3181988 44.2722733,40.8657619 46.8533275,41.0797222 C49.3896371,41.289225 53.2706383,41.5678191 55.3830521,43.0098222 C56.1366446,43.5224354 56.1366446,45.7734758 55.7221688,48 C54.0336507,47.6679158 53.1175648,47.1753614 51.4502415,46.9012248" id="path11489" fill="#FFF3E0" transform="translate(43.000000, 44.000000) scale(-1, 1) rotate(-180.000000) translate(-43.000000, -44.000000) "></path>
                        <g id="g11491" transform="translate(34.500000, 44.000000) scale(-1, 1) rotate(-180.000000) translate(-34.500000, -44.000000) translate(32.000000, 43.000000)" fill="#E8D7B9">
                            <path d="M0,1.82 C0.12250384,1.23 0.682219662,0.878 1.55664363,0.94 C1.8671275,0.66 2.07834101,0.34 2.2937788,0.18 L4.58333333,0.83 L2.11213518,1.646 C1.64746544,1.64 1.12154378,1.616 0,1.82" id="path11493"></path>
                        </g>
                    </g>
                    <g id="Group-6" transform="translate(164.000000, 130.000000)">
                        <g id="g10951" transform="translate(36.500000, 18.000000) scale(-1, 1) rotate(-180.000000) translate(-36.500000, -18.000000) translate(20.000000, 10.000000)" fill="#E1BEE7">
                            <path d="M20.0196106,5.61125562 C16.8165664,3.43756452 13.975646,3.98366425 10.3333805,3.55535073 C6.48552212,3.09919684 3.56516814,1.10539741 1.46168791e-13,1.35167768 C0.95320354,0.0603124278 2.28955752,-0.0874557359 3.59086726,0.0346136168 C8.2260531,0.460785567 15.2722832,1.46089763 20.1247434,3.30264576 L20.1294159,3.30264576 C23.7179469,3.4654049 30.5188673,12.1858681 33,15.2290357 C32.5747965,15.3468219 32.0164248,15.6423582 31.4463717,16 C28.619469,11.8025275 23.9445664,8.2753657 20.0196106,5.61125562" id="path10953"></path>
                        </g>
                        <g id="g10947" transform="translate(44.000000, 15.500000) scale(-1, 1) rotate(-180.000000) translate(-44.000000, -15.500000) translate(35.000000, 8.000000)" fill="#9C27B0">
                            <path d="M13.2596849,14.61273 C11.5630662,12.1577945 5.22561716,8.1804873 0.504123524,4.62383544 C-1.11452065,3.40638327 1.53930294,-0.0701437663 3.19021244,0.00107829851 C7.32017499,0.170230702 15.1445181,9.23323844 18,12.3959433 C16.7389633,12.7097655 14.48039,14.2299114 13.5688944,15 C13.4613432,14.8731357 13.3537921,14.7484971 13.2596849,14.61273" id="path10949"></path>
                        </g>
                        <g id="g10963" transform="translate(15.500000, 17.500000) scale(-1, 1) rotate(-180.000000) translate(-15.500000, -17.500000) translate(11.000000, 12.000000)" fill="#FFF3E0" fill-rule="nonzero">
                            <path d="M8.60604364,6.37697833 C9.78298827,7.98082984 6.887409,9.12152624 4.73049792,9.83142773 C3.45752642,10.2500876 2.16239487,10.6222297 0.847565513,10.9417865 C0.603805014,11.0004393 0.303413287,11.0510021 0.121208469,10.9033588 C-0.102854213,10.7274003 0.0251816054,10.4199785 0.172915242,10.1954798 C1.16765506,8.67455123 0.754000877,3.35939137 0.000559332721,1.245867 C-0.0511474399,1.1042912 9,6.01228469e-15 9,6.01228469e-15 C9,6.01228469e-15 7.16071623,4.40300724 8.60604364,6.37697833" id="path10965"></path>
                        </g>
                        <g id="g10971" transform="translate(19.500000, 8.500000) scale(-1, 1) rotate(-180.000000) translate(-19.500000, -8.500000) translate(12.000000, 1.000000)" fill="#FFF3E0" fill-rule="nonzero">
                            <path d="M14.343358,9.01143297 C12.6311062,9.81221841 10.9350587,11.9845619 10.311194,13.2006483 C8.69346716,16.3526761 2.74379718,15.0535295 0.745269821,11.6991756 C-0.2837017,9.9698198 -0.145965355,7.93165047 0.545417084,6.10219649 C1.4231487,3.7807706 3.31364755,1.57009163 6.1412937,0.624483286 C7.05143387,0.322058996 11.5454197,-0.316865561 12.5986977,0.187884839 C14.0705861,0.890701852 14.0219732,5.91903811 14.7349614,7.29485566 C15.3453224,8.48112559 14.7673699,8.81123661 14.343358,9.01143297" id="path10973"></path>
                        </g>
                        <g id="g10979" transform="translate(14.000000, 9.000000) scale(-1, 1) rotate(-180.000000) translate(-14.000000, -9.000000) translate(6.000000, 0.000000)" fill="#FFC107" fill-rule="nonzero">
                            <path d="M11.4616305,17.7599829 C1.89635084,19.2572577 -0.183174138,13.4347831 0.012199509,9.02040399 C0.21560221,4.49337722 5.50139609,0.618767991 7.6398008,0.0250210889 C7.92349404,-0.0524241591 11.8978758,-0.207314655 14.0951602,4.02166525 C14.5340818,4.87121616 14.7963643,5.71372658 14.306592,5.95544963 C12.5669636,6.81204101 11.9005521,9.30202307 12.6258433,9.93097236 C13.7472345,10.9025582 14.2717994,9.26447386 15.007796,9.75496043 C15.6608257,10.19147 16.5413453,13.2634649 15.5644771,14.9062428 C14.8365095,16.128939 13.2467568,17.4807106 11.4616305,17.7599829" id="path10981"></path>
                        </g>
                        <g id="g10983" transform="translate(9.000000, 9.000000) scale(-1, 1) rotate(-180.000000) translate(-9.000000, -9.000000) translate(5.000000, 2.000000)" fill="#FF6F00" fill-rule="nonzero">
                            <path d="M5.79981442,6.95034781 C5.87947871,7.62973856 6.39480706,9.07120906 6.55164612,9.73719078 C7.24124009,12.6648285 4.33349366,15.0225826 1.61246041,13.5475896 C-0.0032308863,12.6760027 -1.25047486,7.66996564 2.20994255,3.7143024 C3.49701867,2.24377901 6.18817782,-0.00223317149 7.6345825,5.90638649e-14 C9.1407354,0.00447134248 5.48364679,4.21937579 5.79981442,6.95034781" id="path10985"></path>
                        </g>
                        <g id="g10987" transform="translate(4.000000, 5.500000) scale(-1, 1) rotate(-180.000000) translate(-4.000000, -5.500000) translate(0.000000, 1.000000)" fill="#FFC107" fill-rule="nonzero">
                            <path d="M4.57972698,9 C2.04937554,9 4.78681422e-14,6.98224702 4.78681422e-14,4.49885874 C4.78681422e-14,2.01318793 2.04937554,2.892924e-14 4.57972698,2.892924e-14 C7.11007842,2.892924e-14 8,2.01318793 8,4.49885874 C8,6.98224702 7.11007842,9 4.57972698,9" id="path10989"></path>
                        </g>
                        <g id="g10991" transform="translate(43.000000, 117.000000) scale(-1, 1) rotate(-180.000000) translate(-43.000000, -117.000000) translate(36.000000, 114.000000)" fill="#FFF3E0" fill-rule="nonzero">
                            <path d="M12.3092596,1.21071096 C9.96382524,1.89785183 6.83912602,3.30110937 5.84849196,4.03585337 C5.20929105,4.5201635 5.05140079,5.265256 5.01829477,6 C4.30269536,5.73300852 3.48523126,5.62124464 2.67286039,5.62745375 C1.83756997,5.62952345 1.00737278,5.75370553 0.314692924,5.97309388 C0.251027496,4.87822184 0.271400433,3.7812801 0.108416936,2.70089597 C0.026925188,2.17312211 -0.128418457,1.60188453 0.20264177,1.14861992 C0.6381133,0.54426711 1.67458647,0.475966964 2.53534306,0.465618457 C4.48859841,0.442851741 6.44185375,0.347645477 8.382376,0.169651157 C10.0555035,0.0309811628 11.7897497,-0.171849574 13.3890253,0.266927122 C13.7149923,0.349715178 14.0918916,0.562894423 13.9798405,0.827816202 C13.5163561,0.887837542 12.9408207,1.02443783 12.3092596,1.21071096" id="path10993"></path>
                        </g>
                        <g id="g10999" transform="translate(42.500000, 119.000000) scale(-1, 1) rotate(-180.000000) translate(-42.500000, -119.000000) translate(35.000000, 117.000000)" fill="#6A1B9A" fill-rule="nonzero">
                            <path d="M14.3634972,1.74423636 C14.0409069,1.85455835 11.1638791,2.68197322 9.52942148,3.13657588 C8.91530508,3.30966727 8.4421726,2.64393116 8.43978305,2.25209791 C4.71685174,2.26160842 1.48139026,4.26832726 0.970024857,3.96969706 C0.0261494624,3.41238084 -0.70983439,1.66244593 1.15879994,0.987199302 C1.40492441,0.899702556 1.99036611,0.842639461 3.9689201,0.836933152 C5.74197211,0.833128946 7.49112854,0.0209308941 8.5903252,0.0171266878 C10.4876342,0.0114203783 13.8593005,2.27373675e-14 14.3706659,2.27373675e-14 C14.9895614,-0.00379644705 15.4077341,1.39234728 14.3634972,1.74423636" id="path11001"></path>
                        </g>
                        <g id="g11011" transform="translate(35.000000, 114.000000) scale(-1, 1) rotate(-180.000000) translate(-35.000000, -114.000000) translate(33.000000, 113.000000)" fill="#D0AECF" fill-rule="nonzero">
                            <path d="M1.92,0.8304 L1.92,0.8368 C1.82044444,0.8144 1.73511111,0.7856 1.63555556,0.7632 C1.73511111,0.7856 1.82044444,0.8064 1.92,0.8304" id="path11013"></path>
                        </g>
                        <g id="g11015" transform="translate(15.500000, 114.500000) scale(-1, 1) rotate(-180.000000) translate(-15.500000, -114.500000) translate(8.000000, 110.000000)" fill="#FFF3E0" fill-rule="nonzero">
                            <path d="M6.25197915,4.50038423 C5.06527169,5.41732988 5.4199199,7.19796424 5.338078,8.35109286 C5.23986773,9.6987251 0.512134297,8.56180512 0.479397539,8.35803942 C0.179310593,6.57740506 0.362090824,4.7597224 0.111109015,2.97908804 C0.0265390573,2.39326165 -0.134416668,1.75417832 0.217503477,1.24939511 C0.689458402,0.56863243 1.79432398,0.496851331 2.72732157,0.489904773 C4.81701794,0.471380619 6.90671431,0.369497768 8.98549843,0.186571742 C10.783292,0.0268009093 12.6438311,-0.186226868 14.3543267,0.302347708 C14.6980627,0.401915039 15.0963599,0.645044567 14.9790532,0.936800002 C12.6656556,1.2239244 7.61601073,3.44913846 6.25197915,4.50038423" id="path11017"></path>
                        </g>
                        <g id="g11023" transform="translate(16.500000, 118.000000) scale(-1, 1) rotate(-180.000000) translate(-16.500000, -118.000000) translate(8.000000, 116.000000)" fill="#6A1B9A" fill-rule="nonzero">
                            <path d="M16.2733298,1.76312841 C15.9078766,1.87272308 12.6431613,2.69948995 10.7888247,3.15709579 C10.0931101,3.32629459 9.5625262,2.65334482 9.5625262,2.2553431 C5.34221849,2.2553431 1.66602999,4.27419242 1.08942605,3.96848095 C0.0228441165,3.40320314 -0.800102352,1.63238388 1.32223328,0.955588678 C1.59835347,0.865221137 2.26158336,0.811385155 4.50302966,0.811385155 C6.51166874,0.811385155 8.49865133,2.27373675e-14 9.74389927,2.27373675e-14 L16.2922792,2.27373675e-14 C16.993408,2.27373675e-14 17.4590224,1.41127181 16.2733298,1.76312841" id="path11025"></path>
                        </g>
                        <g id="g11031" transform="translate(15.500000, 85.500000) scale(-1, 1) rotate(-180.000000) translate(-15.500000, -85.500000) translate(7.000000, 56.000000)" fill="#6A1B9A" fill-rule="nonzero">
                            <path d="M2.1729525,36.5657881 C2.76581979,28.7633462 0.928199463,26.6198664 0.461417074,22.1268873 C-0.0107306296,17.5703489 1.38425122,0.337034316 1.38425122,0.337034316 C1.38425122,0.337034316 4.79659145,-0.421292895 7.6026511,0.337034316 C7.6026511,0.337034316 10.3926148,21.4452695 11.6480985,25.819897 C13.5340066,32.3884133 17,57.7857998 17,57.7857998 L1.44950718e-13,59 C1.44950718e-13,59 1.58008521,44.3660382 2.1729525,36.5657881" id="path11033"></path>
                        </g>
                        <g id="g11051" transform="translate(28.000000, 85.500000) scale(-1, 1) rotate(-180.000000) translate(-28.000000, -85.500000) translate(15.000000, 57.000000)" fill="#6A1B9A" fill-rule="nonzero">
                            <path d="M0.122907244,57 C-0.146994129,56.2241152 0.0536405202,55.1780756 0.471629373,54.2595491 C1.53929233,51.90596 11.4086063,30.4815992 11.2844039,28.5883539 C10.8186449,21.486523 16.0709734,15.0957397 19.978572,0.379864333 C21.5048285,-0.0437384834 24.4880746,-0.383052984 26,0.91801281 C25.3646569,8.76330987 17.7453173,51.3937464 16.8376843,56.5461398 C16.73259,56.602332 4.7422812,55.5390025 0.122907244,57" id="path11053"></path>
                        </g>
                        <g id="g11071" transform="translate(20.500000, 39.500000) scale(-1, 1) rotate(-180.000000) translate(-20.500000, -39.500000) translate(7.000000, 19.000000)" fill="#9C27B0" fill-rule="nonzero">
                            <path d="M25.4507969,28.1920105 C25.4507969,30.3631513 19.4511054,36.9442856 15.9001542,38.6851299 C12.3464267,40.4281585 11.0665296,41.4438331 6.54940874,40.8104016 C1.64359897,40.1245483 2.61809769,34.456429 2.61809769,23.3145883 C2.61809769,22.4321528 0.347043702,3.33310273 9.59232693e-14,1.71676043 C3.94796915,-0.454380441 22.5328535,-0.353905109 27,0.843061891 C27,10.5542212 24.3402571,17.4629924 24.3402571,22.0455412 C24.3402571,23.6378568 25.4507969,24.8129813 25.4507969,28.1920105" id="path11073"></path>
                        </g>
                        <g id="g11079" transform="translate(25.500000, 28.000000) scale(-1, 1) rotate(-180.000000) translate(-25.500000, -28.000000) translate(15.000000, 19.000000)" fill="#9C27B0">
                            <path d="M7.71669937,16.8628993 C5.83079866,18.4853253 2.84820569,18.3561887 1.14167054,16.5741028 C-0.485431291,14.8788907 -0.357313037,12.319637 1.4235307,10.7653012 C5.40032132,7.29974297 11.9651007,2.17888758 17.3409426,7.79863978e-14 L21,4.0431513 C18.9629198,5.58105148 13.9355594,11.50725 7.71669937,16.8628993" id="path11081"></path>
                        </g>
                        <g id="g11083" transform="translate(48.000000, 34.500000) scale(-1, 1) rotate(-180.000000) translate(-48.000000, -34.500000) translate(33.000000, 31.000000)" fill="#FFF3E0">
                            <path d="M23.9919461,6.96262815 C22.4737164,6.65699261 21.1285113,6.08071795 20.0221289,4.77185122 C19.4981812,4.15591394 18.7402849,4.26090325 18.0286909,4.13258298 C14.9897946,3.57497309 8.54889417,4.79751528 2.80496592,5.47644615 C0.835897601,5.70975572 -0.701827782,2.42708997 0.331445692,1.38652925 C2.93168814,-1.2335373 15.0263491,0.616607646 19.2471738,0.873248182 C22.4712794,1.06689513 24.3136255,1.52184881 25.5053018,1.56851072 C26.6214321,1.61750573 27.1770603,1.97913558 27.0308424,2.78405362 C27.6181511,2.90304151 28.0153765,3.43032115 27.8496628,4.02292748 C28.4881479,4.13258298 28.6416767,4.77418432 28.3614256,5.1684775 C29.3873882,5.32712802 30.2695698,5.51377568 29.9235207,6.22303679 C29.7529331,6.57300116 26.843196,6.03172294 25.8367291,5.95939697 C24.1357271,5.8310767 25.3907644,7.24493274 23.9919461,6.96262815 Z" id="path11085"></path>
                        </g>
                        <g id="g11087" transform="translate(42.000000, 36.000000) scale(-1, 1) rotate(-180.000000) translate(-42.000000, -36.000000) translate(32.000000, 33.000000)" fill="#9C27B0">
                            <path d="M19.5302879,4.63099196 C19.3569717,4.61417071 19.1836554,4.60155477 19.0103392,4.5763229 C15.8780879,4.07168537 8.61387715,5.38164028 2.69349517,5.99141063 C0.66393698,6.20167626 -0.692450917,2.49048779 0.372564765,1.55270305 C3.03008031,-0.791758791 15.5540619,0.146025945 20,0.398344709 C19.5001459,1.34033476 19.4247911,3.6175116 19.5302879,4.63099196" id="path11089"></path>
                        </g>
                        <g id="g11091" transform="translate(35.500000, 30.500000) scale(-1, 1) rotate(-180.000000) translate(-35.500000, -30.500000) translate(19.000000, 22.000000)" fill="#E1BEE7">
                            <path d="M32.5402633,2.19292004 C27.434152,0.765203959 22.2556964,1.04768153 17.6466609,3.25275836 C17.2756043,3.43231774 15.7447044,4.28412994 15.3783153,4.52062279 C15.2406276,4.61040248 15.0982726,4.70237192 14.960585,4.79653111 C10.2698703,7.86655863 4.46365239,11.5759927 1.88959356,16.2817625 C1.82191658,16.4065781 1.52787178,16.8729946 1.4601948,17 C1.25016281,16.8467176 1.21982485,16.8094919 1.03779712,16.6146042 C-0.441761631,15.0336058 -0.325077188,12.6467798 1.29683658,11.1971662 C4.66901701,8.18845168 10.0808415,3.84618022 14.7622214,1.62139566 C14.7622214,1.61920591 14.7645551,1.61701616 14.7645551,1.61701616 C17.2359316,-0.824553517 28.8717044,0.152074354 33,0.414844185 C32.8039701,0.830896417 32.6826183,1.50095948 32.610274,2.21043803 C32.5869371,2.20605853 32.5589328,2.19729954 32.5402633,2.19292004" id="path11093"></path>
                        </g>
                        <g id="g10955" transform="translate(50.500000, 3.500000) scale(-1, 1) rotate(-180.000000) translate(-50.500000, -3.500000) translate(49.000000, 1.000000)" fill="#FFF3E0">
                            <path d="M2.04831234,5 C1.54731234,3.72128305 1.13031234,3.1881231 0.785312343,2.70914608 L0.263312343,1.01736801e-13 L1.98231234,0.840918942 C2.27931234,1.34156914 2.52231234,2.12180321 2.26131234,2.89553533 C2.98431234,3.77113134 2.85831234,4.54703078 2.04831234,5" id="path10957"></path>
                        </g>
                        <g id="g10939" transform="translate(29.000000, 21.500000) scale(-1, 1) rotate(-180.000000) translate(-29.000000, -21.500000) translate(17.000000, 17.000000)" fill="#9C27B0">
                            <path d="M4.03731597,8.145278 C1.50120805,7.90074524 -0.311742483,5.79822053 0.0447791691,3.51515295 C0.383601165,1.3372116 2.55560187,-0.198545573 4.97286925,0.0208483092 C10.3611504,0.512199191 18.7634302,1.70515342 24,3.96079677 L23.0518041,9 C20.4853539,8.59777788 12.4143106,8.95429294 4.03731597,8.145278" id="path10941"></path>
                        </g>
                    </g>
                    <g id="Group-3" transform="translate(80.000000, 147.000000)">
                        <g id="g11495" transform="translate(33.500000, 40.000000) scale(-1, 1) rotate(-180.000000) translate(-33.500000, -40.000000) translate(25.000000, 26.000000)" fill="#FF6F00" fill-rule="nonzero">
                            <path d="M12.7426753,22.3039359 C9.52863184,27.1168151 4.67923127,29.1652544 1.9914166,27.3392413 C-2.17523587,24.5091327 1.09277976,21.6027638 3.66995146,11.2122829 C5.12989899,5.32540291 7.24290993,1.93605135 9.08605995,0.618440927 C10.4947339,-0.389891161 17.4517482,-0.470388261 16.976793,2.74102234 C16.6232752,5.14322526 15.7192411,17.8448202 12.7426753,22.3039359" id="path11497"></path>
                        </g>
                        <g id="g11499" transform="translate(31.500000, 40.000000) scale(-1, 1) rotate(-180.000000) translate(-31.500000, -40.000000) translate(26.000000, 26.000000)" fill="#FFC107" fill-rule="nonzero">
                            <path d="M1.33027995,27.0279478 C-1.49611343,24.1658734 0.744498939,19.7416308 2.84842908,11.5134519 C4.03951713,6.85431394 6.07998766,1.52697857 7.74702279,0.108484304 C8.83559917,-0.819694419 10.158488,4.44150537 10.5099566,6.99798779 C11.3154055,12.86353 11.1177044,16.7746516 9.99251667,21.6025493 C8.33524456,28.7246676 3.09982676,28.8181697 1.33027995,27.0279478" id="path11501"></path>
                        </g>
                        <path d="M57.7088673,68.2600332 C56.7441575,68.611986 56.019247,69.619451 55.5837495,70 C54.8202506,69.313692 52.0225923,67.3031614 51,66.7862307 C51.3665897,66.4628741 52.3147616,65.8689537 52.6978892,65.5016029 C54.9966547,63.299698 56.2204579,62.4968056 57.0528646,61.6697164 C57.8301451,60.8932205 58.7287033,60.8008329 59.3847059,61.3463598 C59.886355,60.9900075 61.0164436,61.091194 61.4629664,61.531135 C61.9839096,61.1351881 62.9706699,61.4783421 63.1553429,61.8940864 C63.9794807,61.2473731 65.0930314,61.6873141 64.9938041,62.3582242 C64.8863079,63.0841269 63.3537975,64.3841527 62.6233744,65.0660613 C61.3885459,66.2187068 59.5638663,67.5803243 57.7088673,68.2600332" id="path11505" fill="#FFF3E0" transform="translate(58.000000, 65.500000) scale(-1, 1) rotate(-180.000000) translate(-58.000000, -65.500000) "></path>
                        <g id="g11511" transform="translate(43.500000, 54.500000) scale(-1, 1) rotate(-180.000000) translate(-43.500000, -54.500000) translate(31.000000, 44.000000)" fill="#FF6F00" fill-rule="nonzero">
                            <path d="M2.50313407,13.3186662 C6.6958155,9.7357145 19.1318242,1.7408297e-13 19.1318242,1.7408297e-13 C22.7037573,2.17629527 25,4.06995479 25,4.06995479 C25,4.06995479 15.6572118,12.1337701 12.961165,15.0884008 C11.2514769,16.9624932 8.85791346,20.171496 6.31442353,20.8780854 C3.55261957,21.6455502 -3.84375445,18.7496208 2.50313407,13.3186662 Z" id="path11513"></path>
                        </g>
                        <g id="g11515" transform="translate(43.500000, 55.000000) scale(-1, 1) rotate(-180.000000) translate(-43.500000, -55.000000) translate(33.000000, 45.000000)" fill="#FFC107" fill-rule="nonzero">
                            <path d="M12.7276221,7.56043958 C7.76470095,12.2885695 7.40569188,16.6263224 4.39962301,19.9964387 C0.903076954,20.1210271 -2.46705746,16.9627111 2.52367422,12.7204759 C6.55367741,9.29844781 18.5071624,1.7300171e-13 18.5071624,1.7300171e-13 C19.4350239,0.562724287 20.2693407,1.10260737 21,1.59473156 C19.7788635,3.21022785 14.3608605,6.00723749 12.7276221,7.56043958" id="path11517"></path>
                        </g>
                        <path d="M9.91918594,138.498407 C8.41424985,139.616023 8.86597224,141.797846 8.76210025,143.20624 C8.63648761,144.853982 2.65056204,143.465369 2.60708075,143.214152 C2.22541156,141.040241 2.45731182,138.818856 2.13844896,136.640989 C2.03457697,135.924923 1.82924861,135.147537 2.27613974,134.524442 C2.87521543,133.693648 4.27386389,133.606612 5.45269023,133.596722 C8.10263387,133.574963 10.7501619,133.452322 13.3856118,133.22682 C15.6587175,133.032968 18.0187858,132.771862 20.1831882,133.37122 C20.6180012,133.491883 21.1228674,133.788595 20.9730985,134.14465 C18.0453577,134.496749 11.6463598,137.21661 9.91918594,138.498407" id="path11521" fill="#FFF3E0" fill-rule="nonzero" transform="translate(11.500000, 138.500000) scale(-1, 1) rotate(-180.000000) translate(-11.500000, -138.500000) "></path>
                        <g id="g11527" transform="translate(12.551299, 141.910310) scale(-1, 1) rotate(-175.000000) translate(-12.551299, -141.910310) translate(1.051299, 138.410310)" fill="#6A1B9A" fill-rule="nonzero">
                            <path d="M21.7609552,3.02535489 C21.2726097,3.21199141 16.9078637,4.63135059 14.428182,5.41476313 C13.4970362,5.70739076 12.7860254,4.55070519 12.7860254,3.8709796 C7.1460145,3.8709796 2.22966585,7.32951554 1.45792815,6.80647246 C0.0308459906,5.83872756 -1.06982908,2.8018519 1.76662323,1.63825387 C2.13857549,1.48617967 3.02670641,1.39631764 6.02256684,1.39631764 C8.7072019,1.39631764 11.3665341,1.4623684e-13 13.0314633,1.4623684e-13 L21.7862581,1.4623684e-13 C22.7224645,1.4623684e-13 23.3423849,2.42166641 21.7609552,3.02535489" id="path11529"></path>
                        </g>
                        <g id="g11539" transform="translate(54.500000, 135.500000) scale(-1, 1) rotate(-180.000000) translate(-54.500000, -135.500000) translate(43.000000, 130.000000)" fill="#FFF3E0" fill-rule="nonzero">
                            <path d="M9.72400426,6.71121539 C7.64042758,7.19564088 6.83905193,9.37251524 5.93944314,10.6352645 C4.88472938,12.1108367 -0.0993101228,8.64891734 0.00150810374,8.40163738 C0.864925736,6.25516629 2.34617814,4.29111484 3.27422284,2.16288571 C3.5792626,1.46361042 3.82484546,0.671098435 4.60812553,0.259640803 C5.65508404,-0.289645 7.0536138,0.140054595 8.19622036,0.559619766 C10.7632075,1.50414812 13.3870665,2.35341289 16.0548719,3.10538718 C18.3555955,3.75196346 20.777818,4.37016335 22.527919,5.71196114 C22.8769052,5.98153683 23.1974555,6.43961281 22.8510544,6.71324227 C19.8290927,5.97342929 12.1152058,6.15584893 9.72400426,6.71121539" id="path11541"></path>
                        </g>
                        <path d="M66.1808867,142.998069 C65.6591857,142.973141 61.1111511,142.533497 58.5400888,142.266086 C57.5740683,142.164106 57.4867021,140.863306 57.8062127,140.260496 C52.791393,138.066812 46.798072,139.222575 46.3562486,138.458865 C45.5424949,137.044755 45.994303,133.928726 49.0621045,134.001244 C49.4614929,134.010309 50.2927198,134.273189 52.9586369,135.438017 C55.3449822,136.48047 58.3628602,136.276512 59.8430932,136.924646 C62.3966823,138.039617 66.9347322,140.024811 67.6261732,140.326216 C68.4574002,140.688808 67.8707985,143.077386 66.1808867,142.998069" id="path11549" fill="#6A1B9A" fill-rule="nonzero" transform="translate(57.000000, 138.500000) scale(-1, 1) rotate(-180.000000) translate(-57.000000, -138.500000) "></path>
                        <g id="g11559" transform="translate(36.000000, 100.500000) scale(-1, 1) rotate(-180.000000) translate(-36.000000, -100.500000) translate(18.000000, 62.000000)" fill="#E1BEE7" fill-rule="nonzero">
                            <path d="M0.00136914979,71.6105273 C4.08623744,58.1566273 8.9992772,48.4744791 12.8555235,37.4691407 C15.4753448,29.984983 25.3760764,3.81131195 27.6926236,0.107697939 C31.0099753,-0.402235859 34.5559489,0.931944381 36,3.40468371 C32.2277373,13.9264643 20.9599395,63.1460658 16.7724246,77 C12.3352919,76.5845798 -0.15026788,72.1138671 0.00136914979,71.6105273" id="path11561"></path>
                        </g>
                        <g id="g11567" transform="translate(14.000000, 101.000000) scale(-1, 1) rotate(-180.000000) translate(-14.000000, -101.000000) translate(1.000000, 65.000000)" fill="#E1BEE7" fill-rule="nonzero">
                            <path d="M2.98985563,70.9756857 C2.56494074,61.0091195 4.26460027,47.4791006 3.71092331,34.5063568 C3.24480456,23.5651141 0.538225518,13.5696849 9.69133699e-14,0.945515685 C1.864475,0.170659007 6.20375728,-0.53759108 9.5386953,0.579179433 C11.197151,5.4192584 28.4976248,65.8403176 25.6931866,70.3029592 C23.833862,73.262512 6.83211626,71.5773653 2.98985563,70.9756857" id="path11569"></path>
                        </g>
                        <g id="g11575" transform="translate(19.000000, 46.500000) scale(-1, 1) rotate(-180.000000) translate(-19.000000, -46.500000) translate(3.000000, 22.000000)" fill="#FF6F00" fill-rule="nonzero">
                            <path d="M14.7842145,49 C4.27370437,49 0.199551606,40.7995901 0.301228082,34.5064544 C0.417091974,27.4899448 -0.228435422,2.98864076 0.0884168527,1.21822115 C0.360342313,-0.321935298 30.9625971,-0.606505813 31.9202477,1.56796048 C32.3978906,2.65410748 30.61737,41.2101537 29.574595,43.9515887 C28.7493603,46.1173659 19.1917716,49 14.7842145,49" id="path11577"></path>
                        </g>
                        <g id="g11579" transform="translate(18.000000, 41.000000) scale(-1, 1) rotate(-180.000000) translate(-18.000000, -41.000000) translate(5.000000, 28.000000)" fill="#FF6F00" fill-rule="nonzero">
                            <path d="M10.2607266,26 L0,20.206073 C0,20.206073 1.80918299,17.7033446 9.16061821,8.56506378 C13.3264315,3.39128189 17.247197,0.864190651 19.5256205,0.201964288 C21.2644174,-0.309655411 26.6841457,-0.0394493362 25.9281471,3.27832689 C25.1721484,6.59610312 10.2607266,26 10.2607266,26" id="path11581"></path>
                        </g>
                        <g id="g11583" transform="translate(19.500000, 40.500000) scale(-1, 1) rotate(-180.000000) translate(-19.500000, -40.500000) translate(7.000000, 28.000000)" fill="#FFC107" fill-rule="nonzero">
                            <path d="M1.00436001,25 L9.80058946e-14,20.0596138 C9.80058946e-14,20.0596138 1.80110038,17.5751294 9.11969272,8.50346331 C13.266895,3.36739645 17.1701443,0.860925461 19.4383889,0.201327833 C20.6244161,-0.14825891 23.5284958,-0.13066964 25,0.973057058 C15.5247586,5.63421363 2.98193709,18.1357873 1.00436001,25" id="path11585"></path>
                        </g>
                        <path d="M26.458364,18.046905 C25.9307058,18.9786327 24.9130792,19.4702065 23.7470488,19.6779427 C22.171141,19.95561 20.5481208,20.1139831 18.9604349,19.9021333 C17.372749,19.6923403 15.8133306,19.0876428 14.7533029,18.0325074 C13.5213152,16.8046013 13.0808148,15.1077462 13.0125019,13.4746516 C12.9418334,11.8415571 13.19624,10.2105193 13.1420608,8.5774248 C13.1255715,8.06116948 15.6413705,2.88833223 21.6741058,1.17296592 C24.3288862,0.418122472 27.4877686,2.24455566 28.5383738,4.50497242 C29.1932354,5.90770602 29.0142085,7.48526712 28.8281147,8.99289722 C28.4441491,12.0863156 28.0366274,15.2558354 26.458364,18.046905" id="path11597" fill="#FFF3E0" fill-rule="nonzero" transform="translate(21.000000, 10.500000) scale(-1, 1) rotate(-180.000000) translate(-21.000000, -10.500000) "></path>
                        <path d="M30,12.8530431 C28.3881969,13.1891696 26.0219328,16.6176598 20.1111717,15.9020356 C13.1103613,15.0541295 9.48257959,10.0252435 13.9872998,0 C14.4478149,0.145293384 16.2457837,1.62858704 16.7283448,2.9774301 C17.1104744,4.04219206 19.5796196,4.30458758 18.8349568,10.4979892 C18.719828,11.4608289 25.6202068,9.9948837 30,12.8530431" id="path11613" fill="#424242" fill-rule="nonzero" transform="translate(21.000000, 8.000000) scale(-1, 1) rotate(-180.000000) translate(-21.000000, -8.000000) "></path>
                        <g id="g11619" transform="translate(16.000000, 12.000000) scale(-1, 1) rotate(-180.000000) translate(-16.000000, -12.000000) translate(13.000000, 9.000000)" fill="#FFF3E0" fill-rule="nonzero">
                            <path d="M3.01888615,5.81057747 C2.20633584,6.09681149 1.21625352,6.10883813 0.585787314,5.49307418 C-0.131168843,4.79552908 -0.106132279,3.57362248 0.214790953,2.59946467 C0.467432647,1.82975973 0.881673983,1.09854003 1.49848388,0.612663789 C2.33379471,-0.0512067224 3.51734138,-0.188310415 4.47328292,0.263891238 C7.61650976,1.76241054 5.28810929,5.01441392 3.01888615,5.81057747" id="path11621"></path>
                        </g>
                        <g id="g11627" transform="translate(21.000000, 14.500000) scale(-1, 1) rotate(-180.000000) translate(-21.000000, -14.500000) translate(12.000000, 5.000000)" fill="#424242" fill-rule="nonzero">
                            <path d="M15.3742215,12.6092485 C14.7966855,13.1315372 11.5052652,12.5263099 10.125596,12.1923141 C8.49726536,11.8000372 7.65235163,10.748735 7.60689741,9.75347244 C4.78338821,10.3340423 1.79677858,19 1.79677858,19 L1.46168791e-13,16.8817046 C1.46168791e-13,16.8817046 3.62029493,14.0954176 2.85826831,10.6344143 C2.52671988,9.13255411 0.192511991,3.6832672 5.46787529,1.05613258 C10.8902964,-1.64721584 17.0346374,1.24890867 17.9437218,5.12236313 C18.25388,6.44713835 17.2218018,7.50964842 16.3234125,9.44637565 C15.9223459,10.3205928 16.7218054,11.387586 15.3742215,12.6092485" id="path11629"></path>
                        </g>
                        <g id="g11639" transform="translate(27.500000, 27.000000) scale(-1, 1) rotate(-180.000000) translate(-27.500000, -27.000000) translate(24.000000, 18.000000)" fill="#FFF3E0">
                            <path d="M6.97766503,12.7995646 C7.11994261,14.0019128 6.57217395,14.6992285 5.62839937,14.6876452 C5.59520127,15.3386275 4.71308031,16.0313099 4.00880631,15.9594933 C3.99694985,16.6614423 3.00100683,17.0460084 2.50066403,16.8166587 C2.49829273,17.9402404 1.33161662,18.3363898 0.805189599,17.6877241 C0.238450594,16.9927251 0.160197928,14.819695 0.067717505,13.7308632 C-0.0864165339,11.8914326 -0.0152777467,9.46588614 0.681882368,7.60328887 C1.04706147,6.63724028 0.745907276,1.43633123 0.715080468,0.808515483 C1.85567236,0.871065392 5.649741,0.259466287 6.82590229,1.24778237e-13 C6.85672909,0.53051589 6.57691653,5.93297465 6.63145627,6.5098238 C6.97292245,9.98250205 6.82590229,11.5184498 6.97766503,12.7995646" id="path11641"></path>
                        </g>
                        <g id="g11651" transform="translate(28.000000, 30.000000) scale(-1, 1) rotate(-180.000000) translate(-28.000000, -30.000000) translate(25.000000, 29.000000)" fill="#6A1B9A">
                            <path d="M5.74827614,1.68705545 C5.14747569,1.79991256 2.72134255,2.19491244 0.256226176,1.88163667 C0.155328389,1.8699618 0.0750687862,1.80380418 0.0658962602,1.71624263 C0.0314992875,1.43215405 -0.0327083948,0.793927646 0.02003363,0.328878528 C0.033792419,0.219913045 0.155328389,0.149863805 0.279157491,0.169321927 C0.969390076,0.276341599 3.15245127,0.537080435 5.69094786,0.00587370155 C5.82165635,-0.0213676694 5.95465798,0.0486815701 5.96612364,0.16348449 C6.00052061,0.468977007 6.03721071,1.05272067 5.92026101,1.54306535 C5.90420909,1.61700621 5.83541514,1.67148895 5.74827614,1.68705545" id="path11653"></path>
                        </g>
                        <path d="M60.6064345,68.8857573 C60.3972731,69.162411 60.0298274,68.8776799 60.0034467,68.6535299 C59.9054611,67.807414 61.929239,65.238776 61.929239,65.238776 C62.1384004,64.9621224 62.5190364,64.9197157 62.7771906,65.1438657 C63.0353448,65.3700351 63.0749158,65.7759283 62.8657544,66.0525819 L60.6064345,68.8857573 Z" id="path11661" fill="#FFF3E0" transform="translate(61.500000, 67.000000) scale(-1, 1) rotate(-180.000000) translate(-61.500000, -67.000000) "></path>
                        <g id="g11663" transform="translate(59.000000, 70.000000) scale(-1, 1) rotate(-180.000000) translate(-59.000000, -70.000000) translate(57.000000, 68.000000)" fill="#E8D7B9">
                            <path d="M0.718737156,3.49606383 C0.470842165,3.7468307 0.0353509662,3.49061237 0.00408493144,3.28709144 C-0.112046055,2.52570507 2.28650547,0.21428872 2.28650547,0.21428872 C2.53440046,-0.0328438464 2.98552468,-0.0728211733 3.29148516,0.128882612 C3.59744565,0.332403549 3.6443447,0.697650945 3.39644971,0.948417814 L0.718737156,3.49606383 Z" id="path11665"></path>
                        </g>
                        <path d="M57.606911,70.9140402 C57.3981586,71.1217302 57.0302582,70.9090557 57.003389,70.7395806 C56.9062468,70.10488 58.929699,68.1791785 58.929699,68.1791785 C59.1384515,67.9714885 59.518753,67.9399196 59.77711,68.1077331 C60.0354671,68.2772081 60.0747373,68.5829278 59.8659849,68.7889563 L57.606911,70.9140402 Z" id="path11669" fill="#FFF3E0" transform="translate(58.500000, 69.500000) scale(-1, 1) rotate(-180.000000) translate(-58.500000, -69.500000) "></path>
                        <g id="g11671" transform="translate(27.000000, 43.500000) scale(-1, 1) rotate(-180.000000) translate(-27.000000, -43.500000) translate(22.000000, 33.000000)" fill="#FF6F00" fill-rule="nonzero">
                            <path d="M8.62807289,20.6751934 C8.62807289,20.6751934 6.0356514,21.2158684 1.65768659,20.9020649 C1.65768659,20.9020649 0.29640502,10.2369868 0.0152990754,5.38363413 C-0.403757009,-1.97378556 7.91749953,-0.351760757 8.82588818,1.87878838 C9.70824851,4.04996929 10.1611414,6.49466811 9.94770913,8.7761043 C9.6119437,12.3763633 8.62807289,20.6751934 8.62807289,20.6751934" id="path11673"></path>
                        </g>
                        <g id="g11675" transform="translate(24.000000, 45.500000) scale(-1, 1) rotate(-180.000000) translate(-24.000000, -45.500000) translate(21.000000, 35.000000)" fill="#FFC107" fill-rule="nonzero">
                            <path d="M3.48853176,2.23298932 C-0.365430422,7.3944474 2.3606542,13.9766848 3.20313764,19.572859 C3.28304799,20.1030005 3.50223067,20.5780073 3.81273947,21 C3.10952837,21 2.32412375,20.9745532 1.45424248,20.9045745 C1.45424248,20.9045745 0.257870333,10.2360061 0.0135729677,5.37990953 C-0.258122233,-0.0254136547 3.61182202,-0.581001993 6,0.390217316 C5.05934099,0.706181677 4.18489341,1.30206077 3.48853176,2.23298932" id="path11677"></path>
                        </g>
                    </g>
                </g>
            </g>
        </g>
    </g>
</svg>