<?xml version="1.0" encoding="UTF-8"?>
<svg width="329px" height="382px" viewBox="0 0 329 382" version="1.1" xmlns="http://www.w3.org/2000/svg" xmlns:xlink="http://www.w3.org/1999/xlink">
    <!-- Generator: Sketch 64 (93537) - https://sketch.com -->
    <title>Banner2-Foreground</title>
    <desc>Created with Sketch.</desc>
    <g id="Landing" stroke="none" stroke-width="1" fill="none" fill-rule="evenodd">
        <g transform="translate(-994.000000, -137.000000)" id="Banner">
            <g>
                <g id="Artwork">
                    <g id="Illustration-Group" transform="translate(0.000000, 137.000000)">
                        <g id="Banner2-Foreground" transform="translate(994.000000, 0.000000)">
                            <g id="Group-18" transform="translate(160.000000, 171.000000)">
                                <g id="Group" transform="translate(104.693909, 14.744143) scale(-1, 1) rotate(71.389374) translate(-104.693909, -14.744143) translate(98.193909, 8.244143)" fill="#5652CC" fill-rule="nonzero">
                                    <path d="M2.34302452,0.338639647 L12.015047,0.338639647 C12.0106313,4.70386666 10.8625644,8.99825835 8.69095159,12.7790939 L0.313595421,7.93572845 C1.6400543,5.62472591 2.34037514,3.00381882 2.34302452,0.338639647" id="Path"></path>
                                </g>
                                <g id="Group" transform="translate(136.331370, 24.708861) scale(-1, 1) rotate(41.385191) translate(-136.331370, -24.708861) translate(130.831370, 16.708861)" fill="#9C27B0" fill-rule="nonzero">
                                    <polygon id="Path" points="0.40515163 15.8684792 10.3341674 15.8684792 10.3341674 0.630024973 2.953861 0.630024973"></polygon>
                                </g>
                                <g id="Group" transform="translate(97.000000, 9.000000)" fill="#4E4DCC" fill-rule="nonzero">
                                    <path d="M12.5183044,10.3221153 C8.44237687,11.1725931 4.21386073,10.9129736 0.260349006,9.5880186 L4.04230625,4.75372351 C6.475966,5.26401021 8.99410986,5.26401021 11.4389767,4.75372351 L12.5183044,10.3221153 Z M10.6570676,0.970759022 C9.44411709,1.42120902 8.2053041,1.58208402 6.97769819,1.46947152 L6.98804319,1.45338402 C8.21220076,1.56599652 9.44411709,1.40512152 10.6544813,0.938584022 L10.6570676,0.970759022 Z" id="Shape"></path>
                                </g>
                                <g id="Group" transform="translate(24.000000, 75.000000)" fill="#8BC34A" fill-rule="nonzero">
                                    <path d="M2.02870945,0.0482284085 C5.54429912,0.56909522 10.6538748,2.10275861 17.3286349,5.85492879 C24.2797099,9.77107555 29.8690115,5.71988924 29.8690115,5.71988924 C31.6493075,7.060639 29.3190818,15.2691141 21.0674366,15.1340746 C13.4305246,14.999035 8.65666704,10.8128092 6.17973341,9.87717805 C3.70189972,8.95119261 -1.73979386,-0.51122113 2.02870945,0.0482284085" id="Path"></path>
                                </g>
                                <g id="Group" transform="translate(10.000000, 74.000000)" fill="#8BC34A">
                                    <path d="M7.25438022,2.61845279 C3.1022139,4.6091943 -1.34929674,9.49637502 1.16052105,19.0106846 C3.95889597,29.6190054 10.951687,46.8631311 10.951687,46.8631311 C12.4834669,46.4237332 34.2376183,40.2631953 34.2376183,40.2631953 C33.5589247,34.3447746 30.0009524,18.1408562 25.5970851,9.8999037 C21.1932179,1.64998395 16.9152011,1.25542257 14.6112387,0.744286238 C11.0271973,0.905697712 7.25438022,2.61845279 7.25438022,2.61845279" id="Path"></path>
                                </g>
                                <g id="Group" transform="translate(102.050195, 70.420052) scale(-1, 1) rotate(50.906733) translate(-102.050195, -70.420052) translate(44.550195, 29.920052)" fill="#6A1B9A">
                                    <rect id="Rectangle" x="0.615791038" y="0.0193234445" width="114.086161" height="80.5221283"></rect>
                                </g>
                                <g id="Group" transform="translate(48.500000, 206.000000) scale(-1, 1) translate(-48.500000, -206.000000) translate(0.000000, 202.000000)" fill="#DCEDC8">
                                    <path d="M48.1279903,0.736225205 C21.679828,0.736225205 0.238548269,2.29047841 0.238548269,4.19921043 C0.238548269,6.11703164 21.679828,7.67128485 48.1279903,7.67128485 C74.5770297,7.67128485 96.0174324,6.11703164 96.0174324,4.19921043 C96.0174324,2.29047841 74.5770297,0.736225205 48.1279903,0.736225205" id="Path"></path>
                                </g>
                                <g id="Group" transform="translate(103.000000, 8.000000)" fill="#E1BEE7" fill-rule="nonzero">
                                    <polygon id="Path" points="4.92446212 0.711851309 -0.00345636927 58.7537763 55.5403978 42.0252706"></polygon>
                                </g>
                                <g id="Group" transform="translate(100.000000, 53.000000)" fill="#E1BEE7" fill-rule="nonzero">
                                    <polygon id="Path" points="5.65399254 17.7282737 0.735752195 76.8254653 61.0993464 0.698172295"></polygon>
                                </g>
                                <g id="Group" transform="translate(44.000000, 73.000000)" fill="#E1BEE7" fill-rule="nonzero">
                                    <polygon id="Path" points="50.8872607 58.6423523 55.8151792 0.270643579 0.269596803 17.0854672"></polygon>
                                </g>
                                <g id="Group" transform="translate(21.000000, 116.000000)" fill="#558B2F">
                                    <path d="M0.16180631,5.37190988 C3.55178114,26.5990387 13.5740463,25.4222491 16.2045041,46.1193735 C16.7739208,50.6019538 6.8126646,74.5599532 4.58804888,79.8779643 C6.09647273,80.3091544 8.28572095,80.9379733 8.28572095,80.9379733 C24.94735,58.5071055 38.8290936,43.6669798 15.3556841,0.637802009 C9.21853875,2.56019116 0.16180631,5.37190988 0.16180631,5.37190988" id="Path"></path>
                                </g>
                                <g id="Group" transform="translate(28.254310, 196.363030) scale(-1, 1) rotate(90.750367) translate(-28.254310, -196.363030) translate(26.254310, 193.363030)" fill="#FFD8D8" fill-rule="nonzero">
                                    <path d="M1.60898789,0.121298693 C1.2460221,0.6260004 0.518324281,1.38748017 0.518324281,1.38748017 L1.60898789,5.07091719 C2.54245463,4.406836 3.36553032,3.91984312 3.92808313,3.91098871 C4.0110972,2.83960438 2.64754691,1.71509356 1.60898789,0.121298693" id="Path"></path>
                                </g>
                                <g id="Group" transform="translate(23.000000, 113.000000)" fill="#558B2F">
                                    <path d="M0.160793904,7.06073774 C3.529558,28.2788835 20.0491547,22.6464629 33.4451321,46.5864961 C36.3306358,51.7428109 35.5846575,76.5901399 35.0644937,80.06661 C36.5775379,80.4439013 38.7750546,80.9828889 38.7750546,80.9828889 C48.3480032,57.4021808 47.4570468,24.6227508 22.8125253,0.485088852 C16.3948277,1.47323281 0.160793904,7.06073774 0.160793904,7.06073774" id="Path"></path>
                                </g>
                                <g id="Group" transform="translate(59.258032, 195.204974) scale(-1, 1) rotate(96.529339) translate(-59.258032, -195.204974) translate(56.758032, 192.704974)" fill="#FFD8D8">
                                    <path d="M1.82812755,0.259524627 C1.22583367,0.472030713 0.506083652,0.73766332 0.506083652,0.73766332 L1.82812755,4.35026678 C2.7969199,3.8367104 3.81958312,3.94296345 4.38036994,3.88983693 C4.39626626,2.81845208 2.96471438,1.78248491 1.82812755,0.259524627" id="Path"></path>
                                </g>
                                <g id="Group" transform="translate(53.000000, 193.000000)" fill="#8BC34A">
                                    <path d="M2.91878328,0.860098017 C4.12256436,0.990982497 7.10790284,2.43071179 8.63288511,1.86042941 C9.03511004,2.59899183 9.52703981,5.09514586 11.5941094,6.44138623 C13.5193875,7.70348658 16.4275605,8.85340024 15.6800202,11.4430432 L0.462028153,5.80566161 C0.895119261,4.23504784 1.77769914,1.17796033 2.91878328,0.860098017" id="Path"></path>
                                </g>
                                <g id="Group" transform="translate(60.910692, 201.754703) scale(-1, 1) rotate(-108.616968) translate(-60.910692, -201.754703) translate(59.410692, 193.754703)" fill="#558B2F" fill-rule="nonzero">
                                    <path d="M1.32108778,0.161546141 C1.07448548,0.152691722 0.811364355,0.161546141 0.529364589,0.179254979 L1.32108778,15.0723876 C1.52639305,15.081242 1.80013341,15.0900964 2.11635072,15.1078053 L1.32108778,0.161546141 Z" id="Path"></path>
                                </g>
                                <g id="Group" transform="translate(62.000000, 197.000000)" fill="#DCEDC8" fill-rule="nonzero">
                                    <path d="M0.816429876,2.89638829 C1.00627585,2.96304395 1.22655514,2.92305056 1.36712812,2.76307696 L2.48011825,1.57660614 C2.65692137,1.38997028 2.63373407,1.09668536 2.42649763,0.936711769 C2.22071039,0.776738176 1.90913112,0.790069309 1.7308788,0.990036301 L0.617888668,2.17650712 C0.441085548,2.36314298 0.462823637,2.6564279 0.671509286,2.81640149 L0.816429876,2.89638829 Z" id="Path"></path>
                                </g>
                                <g id="Group" transform="translate(60.000000, 197.000000)" fill="#DCEDC8" fill-rule="nonzero">
                                    <path d="M1.10005761,2.27157976 C1.21707157,2.3365163 1.35524764,2.32028217 1.47101678,2.2391115 L2.72331518,1.23259518 C2.92248789,1.07025383 2.98597419,0.745571151 2.86522573,0.485825004 C2.74323245,0.226078857 2.48057344,0.128674052 2.28140073,0.291015394 L1.03034716,1.29753171 C0.829929623,1.44363892 0.766443322,1.78455574 0.888436606,2.04430188 C0.940719442,2.15794082 1.01416438,2.2391115 1.10005761,2.27157976" id="Path"></path>
                                </g>
                                <g id="Group" transform="translate(60.000000, 197.000000)" fill="#DCEDC8" fill-rule="nonzero">
                                    <path d="M0.832051342,2.18091037 L1.08797725,2.2018508 L2.40617095,1.51081651 C2.616521,1.38517392 2.73688798,0.987305692 2.67261435,0.6103779 C2.60950934,0.233450107 2.38864177,0.0240457784 2.17829172,0.128747943 L0.858929405,0.840722662 C0.648579347,0.945424826 0.528212369,1.34329305 0.592485998,1.72022084 C0.629881564,1.95056561 0.721033256,2.11808907 0.832051342,2.18091037" id="Path"></path>
                                </g>
                                <g id="Group" transform="translate(20.000000, 196.000000)" fill="#8BC34A">
                                    <path d="M4.55855844,0.51122113 C5.66192241,1.03208794 8.02154366,3.40492564 9.67025963,3.34705155 C9.80464995,4.20551722 9.42777276,6.79055991 10.9391769,8.78721602 C12.3493013,10.6391869 14.7342425,12.7130085 13.1429833,14.9893893 L0.531718203,4.5334704 C1.48121499,3.13484655 3.35975788,0.443701358 4.55855844,0.51122113" id="Path"></path>
                                </g>
                                <g id="Group" transform="translate(27.068107, 203.551530) scale(-1, 1) rotate(-127.650760) translate(-27.068107, -203.551530) translate(26.068107, 195.551530)" fill="#558B2F" fill-rule="nonzero">
                                    <path d="M0.921317372,0.17571324 C0.67353515,0.166858819 0.410414029,0.166858819 0.128414263,0.193422081 L0.921317372,15.0777029 C1.12544273,15.0865573 1.39918308,15.1042661 1.7154004,15.1131206 L0.921317372,0.17571324 Z" id="Path"></path>
                                </g>
                                <g id="Group" transform="translate(29.000000, 202.000000)" fill="#DCEDC8" fill-rule="nonzero">
                                    <path d="M0.448844444,2.55406009 C0.57987692,2.70183111 0.773953323,2.73466912 0.930945062,2.6033171 L2.18811514,1.63459598 C2.38960847,1.47040596 2.45759702,1.14202591 2.3389261,0.862902877 C2.22272749,0.600198844 1.964371,0.501684831 1.76287767,0.665874852 L0.50694375,1.63459598 C0.305450415,1.798786 0.237461866,2.14358504 0.354896632,2.40628908 L0.448844444,2.55406009 Z" id="Path"></path>
                                </g>
                                <g id="Group" transform="translate(29.000000, 200.000000)" fill="#DCEDC8" fill-rule="nonzero">
                                    <path d="M0.262937573,2.33716048 C0.354089265,2.46316048 0.477962077,2.52616048 0.604172112,2.48416048 L1.94690665,1.95916048 C2.16309977,1.87516048 2.29865869,1.47616048 2.25191424,1.09816048 C2.20400117,0.720160483 1.99131389,0.468160483 1.77745799,0.552160483 L0.434723454,1.07716048 C0.21969895,1.16116048 0.0829714119,1.53916048 0.129715869,1.93816048 L0.262937573,2.33716048 Z" id="Path"></path>
                                </g>
                                <g id="Group" transform="translate(26.000000, 200.000000)" fill="#DCEDC8" fill-rule="nonzero">
                                    <path d="M0.807510502,2.02870835 L1.04590723,2.19670835 L2.42136289,2.30170835 C2.64106184,2.30170835 2.82687106,2.00770835 2.83505134,1.60870835 C2.84440023,1.20970835 2.67378296,0.873708347 2.45408402,0.873708347 L1.07979697,0.768708347 C0.860098017,0.747708347 0.674288798,1.04170835 0.666108518,1.44070835 C0.660265461,1.67170835 0.715190199,1.88170835 0.807510502,2.02870835" id="Path"></path>
                                </g>
                                <g id="Group" transform="translate(8.000000, 61.000000)" fill="#FFD8D8" fill-rule="nonzero">
                                    <path d="M6.20328165,14.3270525 C7.18170158,15.2616119 8.57483249,16.7020337 8.81736805,18.5197088 C10.0068684,20.2087749 18.9219129,19.1541804 15.5851864,16.1875974 C15.1787531,15.818918 14.5364063,14.5585489 14.4196913,14.0012428 C14.0215356,12.0892544 16.7390928,12.7237259 15.9808588,9.7571429 C15.0984597,6.29327143 11.4604263,1.13175999 9.2254569,0.771654535 C6.72477451,0.36010545 2.69520751,0.7202109 0.989180888,5.7616872 C-0.40146672,9.88575199 4.21333115,12.423638 6.20328165,14.3270525" id="Path"></path>
                                </g>
                                <g id="Group" transform="translate(3.000000, 56.000000)" fill="#FF6F00" fill-rule="nonzero">
                                    <path d="M11.5622415,14.3985913 C12.4543373,13.7402736 10.0438814,12.0269594 10.223625,11.0394827 C10.4383712,9.8832066 12.6775977,7.61285428 15.3888875,5.97549981 C18.1001773,4.34658531 16.9034636,0.28695903 14.1779835,0.28695903 C11.4515573,0.28695903 11.5783239,3.02994976 10.0628018,3.57854791 C8.29469267,4.2031058 7.11311522,2.52355147 5.21634756,4.22842571 C3.46242874,5.80670038 5.81233939,6.72665727 4.8757808,7.91669325 C3.90989562,9.14048911 0.696269823,9.04764943 0.829658471,11.9256797 C0.928990443,14.0609925 3.32998611,13.5377143 4.51061755,15.099109 C5.24662016,16.0781457 5.25986442,20.6019704 9.01082889,19.6820135 C12.7617934,18.7620566 9.80926874,16.7871033 8.70526483,15.8755864 C7.60126091,14.9725094 7.4801705,13.917513 8.02791538,13.4701945 C8.57471423,13.014436 10.2889003,15.3354282 11.5622415,14.3985913" id="Path"></path>
                                </g>
                                <g id="Group" transform="translate(21.000000, 87.000000)" fill="#FFD8D8" fill-rule="nonzero">
                                    <path d="M17.579461,7.31272518 C14.5033954,6.73565372 10.2239279,3.85975663 6.24191024,0.463549203 C4.18878155,3.12186198 2.05131497,6.31940546 0.00272057689,8.68445241 C4.24228623,12.5158285 9.59819526,15.968797 16.2926281,16.2526027 C26.8539076,16.6972315 43.9055767,10.3305251 43.9055767,10.3305251 C43.3723436,8.78851448 42.8654094,6.99107879 42.8654094,6.99107879 C40.1792932,7.90871701 23.0015707,8.34388565 17.579461,7.31272518" id="Path"></path>
                                </g>
                                <g id="Group" transform="translate(12.000000, 80.000000)" fill="#8BC34A">
                                    <path d="M0.587477663,2.82859616 C-0.45030494,4.62062602 2.81913597,10.9981441 9.13759541,16.075562 C11.4818299,14.0463517 14.7304584,10.2778183 16.2753071,7.65126476 C9.84994755,2.7758894 3.43972429,-2.09070151 0.587477663,2.82859616" id="Path"></path>
                                </g>
                                <g id="Group" transform="translate(63.000000, 89.000000)" fill="#FFD8D8">
                                    <path d="M0.234890899,4.55368923 C1.23580659,4.31737003 0.913269837,3.45389602 1.83179843,2.58133282 C2.70299825,1.76330481 2.8309612,0.254497602 3.19118568,0.390835602 C3.55053369,0.527173603 3.29986654,2.24503241 3.12808066,2.60860042 C3.7302077,2.26321081 6.68474957,0.190873201 7.20098367,0.872563205 C7.6234367,1.43609361 8.25623979,1.40882601 8.32197419,2.23594321 C8.38770858,3.06306042 7.80311071,4.75365163 6.39113594,5.63530403 C4.99318451,6.51695644 4.05800321,7.11684364 3.15963317,7.18955724 C2.21042853,7.27136004 1.24018889,7.77126605 1.24018889,7.77126605 C1.06752655,7.25318164 0.234890899,4.55368923 0.234890899,4.55368923" id="Path"></path>
                                </g>
                            </g>
                            <g id="Group-19" transform="translate(31.000000, 284.000000)">
                                <g id="Group" transform="translate(51.000000, 0.000000)" fill="#9C27B0">
                                    <path d="M0.981995904,51.13116 C0.864177061,51.0850602 0.777545559,50.9928608 0.761085573,50.8809044 C0.690047741,50.426493 0.605148869,49.7152404 0.534977352,48.7734893 C0.566164693,48.7866606 0.595619404,48.7932463 0.624207799,48.8064176 C0.630272005,48.8130033 0.63460358,48.8130033 0.640667785,48.8130033 L0.726432972,48.8525173 C0.732497177,48.8525173 0.738561383,48.859103 0.744625588,48.859103 C0.945610673,48.9447167 1.20030729,48.898617 1.32159139,48.7471466 C1.44807339,48.5890904 1.38483239,48.3849346 1.18124836,48.2927352 L1.05909794,48.2400498 C0.881503361,48.1610217 0.690047741,48.1017507 0.486463711,48.0424796 C0.457875315,47.5551399 0.433618494,47.0217004 0.417158509,46.4421613 C0.473468985,46.4619183 0.528046832,46.4816753 0.580025733,46.5014323 C0.585223623,46.5014323 0.589555198,46.508018 0.593020459,46.508018 L0.62940569,46.5211893 C0.632004635,46.5211893 0.63460358,46.5211893 0.637202525,46.527775 C0.8433855,46.6133887 1.10241369,46.5541177 1.22023254,46.4026472 C1.25921671,46.3499618 1.27827564,46.2972765 1.27914196,46.2380054 C1.3337198,48.457377 1.5009186,50.0379383 1.62133639,50.8018763 C1.64905847,50.9862752 1.47926073,51.150917 1.24275673,51.170674 C1.14832839,51.1772597 1.05909794,51.1640883 0.981995904,51.13116 Z M1.54058466,46.2248341 C1.531647,46.1128776 1.43221552,46.0075069 1.26128275,45.9548215 L1.1953675,45.9284788 C0.946230199,45.8494507 0.682569196,45.783594 0.408853324,45.7309086 C0.384274756,44.4796309 0.404384493,43.0439543 0.504933181,41.4502216 C0.503815973,41.48315 0.511636427,41.5160784 0.529511749,41.5490067 C0.575317262,41.6346205 0.67139712,41.7004772 0.793172752,41.7399912 C0.921651631,41.7795052 1.07917791,41.7926766 1.23000094,41.7663339 C1.31714314,41.7465769 1.44450481,41.7334055 1.60649992,41.7136485 C1.57968693,42.1614742 1.5606944,42.6027143 1.5461707,43.0241973 C1.46014571,42.991269 1.38752722,42.9583406 1.32719801,42.9319979 C1.30373664,42.9188266 1.27804087,42.9056552 1.25122789,42.8990695 C1.01661428,42.8266271 0.714968218,42.8595555 0.542918241,42.9846833 C0.351875734,43.1295681 0.395446832,43.3337239 0.636763683,43.4456803 C0.823337359,43.5312941 1.11828018,43.6630075 1.52606097,43.8013066 C1.50930285,44.6706154 1.5160061,45.4806531 1.54058466,46.2248341 Z M0.463509454,41.4304646 C0.510087314,40.5743272 0.576072614,39.6786758 0.666317217,38.7435103 C1.03020674,38.7171676 1.2436886,38.6974106 1.24659972,38.6974106 C1.47366678,38.6776536 1.64445227,38.5591115 1.67065231,38.407641 C1.57846696,39.3230495 1.5076298,40.2055296 1.45620008,41.0419099 C1.19711074,41.0682526 0.97683628,41.101181 0.802169307,41.1341094 C0.605183777,41.1802091 0.476124291,41.2987512 0.463509454,41.4304646 Z M0.650928494,38.0717717 C0.699908086,37.623946 0.756030535,37.1695346 0.817255025,36.7085376 C0.90909176,36.7414659 0.999908086,36.7743943 1.089704,36.8073226 C1.09582645,36.8139083 1.10092849,36.8139083 1.10705094,36.8139083 C1.34582645,36.8995221 1.64888768,36.8534223 1.789704,36.7019519 C1.8264387,36.6624378 1.84888768,36.6163381 1.85807135,36.5768241 C1.77541829,37.1892916 1.70296931,37.7885878 1.639704,38.3747127 C1.639704,38.3615413 1.6386836,38.34837 1.63562237,38.3286129 C1.61521421,38.2232422 1.5141938,38.1310428 1.37541829,38.0849431 C1.28562237,38.0520147 1.17949992,38.0388434 1.06929584,38.045429 C1.06929584,38.045429 0.918275433,38.0586004 0.650928494,38.0717717 Z M1.80233287,36.5373101 C1.80865299,36.4253536 1.71701126,36.3068115 1.54847473,36.2475405 C1.31568366,36.1553411 1.07446576,36.0697273 0.826927736,35.9775279 C0.893288993,35.5297022 0.965970369,35.0752908 1.04602522,34.6142938 C1.02917157,34.7394215 1.13766695,34.8645493 1.31568366,34.9238204 C1.36308456,34.9435774 1.41575222,34.9567487 1.47157994,34.9633344 C1.4726333,34.9633344 1.67803719,34.9830914 2.03407059,35.0291911 C1.94980233,35.5362879 1.87185419,36.0433846 1.80233287,36.5373101 Z M0.968667584,34.5945367 C1.0494952,34.0215832 1.13822986,33.4486298 1.23575014,32.8559192 C1.27001402,32.6517634 1.3042779,32.4476076 1.3402989,32.2434517 C1.33502753,32.2895514 1.34117746,32.3356511 1.36402005,32.3817508 C1.40179817,32.4607789 1.4755973,32.5266356 1.56521052,32.559564 C1.67151641,32.6056637 1.802422,32.618835 1.92542055,32.5859067 C1.98779838,32.5661497 2.07214024,32.5463926 2.17581044,32.5332213 C2.15296785,32.6649347 2.13012527,32.8032339 2.10816124,32.941533 C2.02733363,33.4222871 1.95265594,33.9030411 1.88412818,34.3706239 C1.6311026,34.3311098 1.48701859,34.3113528 1.48614003,34.3113528 C1.24804999,34.2784245 1.017867,34.3969666 0.972181828,34.5747797 C0.970424706,34.5813654 0.968667584,34.5879511 0.968667584,34.5945367 Z M1.2561778,32.217109 C1.34596528,31.6770839 1.44240369,31.1238874 1.54632439,30.5641053 C1.75998535,30.5180056 1.97281495,30.4719059 2.18481318,30.4126348 C2.33529035,30.3731208 2.43921105,30.2743357 2.46332065,30.1557936 C2.35524312,30.7287471 2.25298516,31.2885292 2.15820948,31.8417257 C1.90713706,31.8746541 1.6959702,31.9141681 1.52637162,31.9668535 C1.37921991,32.0063675 1.2802874,32.1051526 1.2561778,32.217109 Z M1.60145875,29.8528527 C1.73937646,29.0362293 1.89181181,28.2064346 2.05876483,27.3700542 C2.11538367,27.4095682 2.1727284,27.4490823 2.23079901,27.4885963 C2.24676843,27.5017676 2.26346373,27.5083533 2.28088492,27.5215247 C2.43332028,27.5939671 2.62858271,27.5610387 2.74036864,27.4359109 C2.77448512,27.3963969 2.79698749,27.3502972 2.80860161,27.3041975 C2.61551682,28.2722913 2.44203087,29.2206281 2.28524021,30.1426222 C2.29249904,30.0965225 2.28741786,30.0438372 2.26999668,29.9977375 C2.24023549,29.9121237 2.17853546,29.8528527 2.10086602,29.8133386 C2.01593775,29.7672389 1.91141065,29.7606532 1.81123884,29.7869959 C1.74082822,29.8133386 1.67114349,29.8330956 1.60145875,29.8528527 Z M2.74044864,27.2712691 C2.7563321,27.1658984 2.71144406,27.0473562 2.61269039,26.9749139 L2.61130922,26.9749139 C2.45730873,26.8563718 2.30745175,26.7444153 2.16035711,26.6456302 C2.35786446,25.6380224 2.57677996,24.6172432 2.81710359,23.5767069 C2.79638604,23.675492 2.82815296,23.7874484 2.90964201,23.8664765 C3.0539743,24.0047756 3.20728421,24.1364891 3.36749997,24.2550312 C3.13822569,25.2758104 2.92966897,26.2834183 2.74044864,27.2712691 Z M2.80322457,23.5569499 C3.12432242,22.1212733 3.4863972,20.6658398 3.89347941,19.1774778 C3.93848685,19.2169919 3.98215079,19.2630916 4.02648648,19.3091913 C4.05066958,19.3289483 4.07821144,19.3487053 4.10709682,19.3684623 C4.23204284,19.434319 4.39259177,19.4211477 4.50141573,19.3157769 C4.54373616,19.2762629 4.57329328,19.2301632 4.58941535,19.1774778 C4.40199631,19.8558021 4.22398181,20.5275406 4.05470009,21.1992792 C3.82428887,21.2651359 3.61335848,21.3375783 3.42728295,21.4297778 C3.26203175,21.5088058 3.19552822,21.706376 3.27949733,21.8710178 C3.31174146,21.9302889 3.35943591,21.9829742 3.4165349,22.0093169 C3.50990855,22.0620023 3.62746529,22.068588 3.73091523,22.0159026 C3.77323566,21.9961456 3.81891485,21.9763886 3.86795281,21.9566315 C3.73897626,22.4834853 3.61537374,23.0037534 3.497817,23.5306072 C3.45348131,23.4845075 3.40981738,23.4449935 3.3681687,23.4054795 C3.3439856,23.3791368 3.31845899,23.3593797 3.29091712,23.3462084 C3.16395584,23.2803517 3.00139165,23.293523 2.8925677,23.3988938 C2.84823201,23.4449935 2.81800313,23.4976789 2.80322457,23.5569499 Z M4.60877983,19.1511351 C4.6342586,19.0457644 4.60533675,18.9338079 4.52201428,18.8481942 C4.38360258,18.7098951 4.23968196,18.5847673 4.09231825,18.4662252 C4.24932257,17.9196144 4.41459028,17.3664179 4.58605552,16.8132215 C4.63219275,16.8593212 4.67213245,16.8988352 4.70518599,16.9383492 C4.73410784,16.9712776 4.76784999,16.9976203 4.80434661,17.0173773 C4.9241657,17.083234 5.07772694,17.0700627 5.18997126,16.9844489 C5.24368326,16.9449349 5.28017988,16.8856638 5.29946111,16.8329785 C5.05637986,17.6100878 4.82638231,18.3871971 4.60877983,19.1511351 Z M5.27258798,16.8198071 C5.30147335,16.721022 5.28132077,16.6090656 5.20809971,16.5234519 C5.09793224,16.3917384 4.95686415,16.2534393 4.79026945,16.1085545 C5.19466465,14.8045914 5.63466276,13.4874569 6.11429428,12.1505654 C6.06324106,12.3020359 6.12638583,12.4666777 6.26946918,12.5457058 C6.37963665,12.6049768 6.49517813,12.6708336 6.61475014,12.743276 C6.12705758,14.1196815 5.6810137,15.47633 5.27258798,16.8198071 Z M6.11698129,12.1439798 C6.31735154,11.6105403 6.52404926,11.0836865 6.73707447,10.5502471 C6.72090424,10.5897611 6.71527982,10.6424465 6.7216073,10.6885462 C6.73566837,10.8005026 6.80527066,10.892702 6.90088594,10.9388017 C6.96275465,10.9717301 7.03587221,10.9849014 7.11180199,10.9783158 C7.17859207,10.9717301 7.24889742,10.9651444 7.32412415,10.9585588 C7.17156154,11.3471134 7.0225142,11.7290824 6.87627907,12.1110514 C6.78839738,12.058366 6.70262485,12.0122663 6.61755538,11.9727523 L6.61685233,11.9727523 C6.44741643,11.8805529 6.23439122,11.9398239 6.14018205,12.0978801 C6.13174541,12.1110514 6.12401182,12.1308084 6.11698129,12.1439798 Z M6.71752832,10.5239044 C6.91166489,10.0168076 7.11184723,9.50312517 7.3174036,8.9960284 C7.46451747,9.04212811 7.59953979,9.07505647 7.71911179,9.09481348 C7.90182856,9.12115617 8.07379729,8.9960284 8.10268266,8.81821525 C8.1248505,8.67991613 8.05297295,8.54820268 7.93272919,8.48234596 C7.89981331,8.46258894 7.8628669,8.4494176 7.82323348,8.44283192 C7.75672995,8.43624625 7.66940208,8.41648923 7.56729565,8.38356087 C7.68418065,8.10037696 7.8030809,7.81060738 7.92399641,7.52742347 C7.94414899,7.5669375 7.96161457,7.60645154 7.97773663,7.64596557 C8.00796551,7.71840797 8.06170574,7.77767902 8.12619401,7.81060738 C8.21217837,7.85670709 8.31764357,7.86987843 8.41504773,7.8303644 C8.49767333,7.79743604 8.55947459,7.73816498 8.59373398,7.65913692 C8.22091116,8.54161701 7.86622566,9.41092576 7.52833399,10.2868202 C7.33218216,10.2934058 7.1508089,10.3065772 6.98891647,10.3263342 C6.86329869,10.3395056 6.76253576,10.4185336 6.71752832,10.5239044 Z M8.60313852,7.6393799 C8.63135214,7.5669375 8.63269565,7.48132376 8.59977976,7.4022957 C8.51916942,7.20472553 8.40362793,6.98081267 8.25920107,6.74372846 C8.73816084,5.64392118 9.24466248,4.53752823 9.78206474,3.42454961 C9.72362224,3.55626306 9.76191216,3.72090487 9.88282767,3.81310428 C9.99165162,3.89871802 10.1051779,3.97774609 10.2240781,4.05018848 C9.64972943,5.24878084 9.11031191,6.44737321 8.60313852,7.6393799 Z M9.79348454,3.40479259 C10.3073755,2.34449935 10.8488082,1.27762043 11.4191264,0.217327187 C11.5051108,0.0592710509 11.7086519,-0.00658567233 11.8718878,0.0790280679 C11.8745748,0.0790280679 11.8759183,0.0790280679 11.8786053,0.0790280679 C12.0378108,0.171227481 12.0989403,0.362211978 12.0136276,0.526853786 C11.81143,0.902237109 11.6139347,1.27103476 11.4191264,1.65300375 C11.1786389,1.67276077 10.966365,1.70568913 10.7997703,1.72544615 C10.61571,1.74520317 10.4833747,1.90984497 10.5055425,2.08765813 C10.5189776,2.19961456 10.5854811,2.2852283 10.6768395,2.33791368 C10.7366255,2.37084204 10.8064878,2.38401338 10.8783654,2.37742771 C10.9347926,2.37084204 10.9945786,2.36425637 11.0590669,2.35767069 C10.8743348,2.71988267 10.6929616,3.08209465 10.5142753,3.4508923 C10.4397108,3.39820692 10.3671615,3.35210721 10.2986427,3.29942184 C10.2838641,3.28625049 10.2690855,3.27307915 10.2529635,3.26649347 C10.1112236,3.18746541 9.92985036,3.22039377 9.82707218,3.35210721 C9.81430888,3.36527856 9.80288908,3.38503558 9.79348454,3.40479259" id="Shape"></path>
                                </g>
                                <g id="Group" transform="translate(60.000000, 2.000000)" fill="#9C27B0">
                                    <path d="M1.09343077,2.79817516 C1.00412938,2.75272916 0.916873056,2.70079087 0.831661805,2.64885259 C0.711002674,2.57743744 0.595797064,2.49953002 0.485363283,2.4151303 C0.362659082,2.3242383 0.323802752,2.16842344 0.383109782,2.03208544 C0.386518232,2.02559316 0.390608372,2.01910087 0.394698512,2.01260858 C0.404242172,1.99313173 0.415830903,1.98014715 0.428783013,1.9606703 C0.533081583,1.83731687 0.717137884,1.80485544 0.860974475,1.87627058 C0.877335035,1.88276287 0.892332215,1.89574744 0.907329396,1.90873201 C0.976861776,1.9606703 1.0504843,2.01260858 1.12615189,2.05805458 C1.22022511,2.11648516 1.31975185,2.17491573 1.42336873,2.22685401 C1.42336873,2.22685401 1.42473211,2.2333463 1.42609549,2.2333463 C1.93940806,2.49953002 2.55156569,2.6878063 3.13304726,2.76571373 C3.71452883,2.84362116 4.26533436,2.81115973 4.64367231,2.66183716 C4.89794268,2.55796059 5.06972856,2.42162259 5.17402713,2.24633087 C5.23537923,2.13596201 5.27628063,2.01260858 5.28582429,1.85030144 C5.29809471,1.64904058 5.257875,1.50621029 5.19106938,1.39584144 C5.12290038,1.28547258 5.01996519,1.19458058 4.86794832,1.11667315 C4.86385818,1.11018086 4.86044973,1.11018086 4.85635959,1.11018086 C4.48620192,0.915412291 3.84541331,0.843997148 3.2053064,0.85698172 C2.64495722,0.869966291 2.08801648,0.928396863 1.67900248,0.980335149 C1.61356024,0.986827435 1.55288983,0.99331972 1.49562787,0.999812006 C1.42268704,1.00630429 1.35179128,0.99331972 1.29112087,0.960858292 C1.19841103,0.908920006 1.13092372,0.824520291 1.11728992,0.714151433 C1.09479415,0.538859718 1.22908708,0.376552574 1.41587014,0.357075716 C1.58492926,0.337598859 1.8003433,0.311629716 2.04438832,0.285660573 C2.3865967,0.246706859 2.78470367,0.21424543 3.1916726,0.207753144 C3.89244992,0.201260858 4.62253992,0.246706859 5.19788628,0.545352003 C5.19856797,0.545352003 5.19924966,0.545352003 5.19993135,0.545352003 C5.43238764,0.668705433 5.64030309,0.843997148 5.78004955,1.07122715 C5.92184107,1.29845715 5.98660162,1.58411772 5.96683261,1.88925515 C5.95183543,2.13596201 5.88502981,2.36319201 5.77050589,2.55796059 C5.57895099,2.88906716 5.26060176,3.12278945 4.90066944,3.25912745 C4.53869205,3.40195774 4.12763298,3.46038831 3.69680489,3.46038831 C2.83583042,3.45389602 1.88759962,3.21368145 1.09343077,2.79817516" id="Path"></path>
                                </g>
                                <g id="Group" transform="translate(53.000000, 4.000000)" fill="#9C27B0">
                                    <path d="M2.70358256,5.03087223 C2.18549815,4.74456243 1.65105319,4.38326673 1.20863638,3.98106962 C0.767582945,3.57205562 0.405605552,3.10850642 0.273357692,2.57678822 C0.185419681,2.22230941 0.220185871,1.83374611 0.417194283,1.48608421 C0.462867513,1.39746451 0.518084403,1.31566171 0.580118194,1.24067581 C0.866427995,0.872563205 1.24203919,0.654422404 1.63264756,0.620337904 C2.02257424,0.579436504 2.39818543,0.702140704 2.74516565,0.893013905 C3.34096271,1.22022511 3.88426964,1.77921091 4.33623012,2.35183051 C4.58232021,2.66540792 4.79841594,2.98580222 4.97292858,3.28574582 C5.11949193,3.53115422 5.23674261,3.76292882 5.31854541,3.96061892 C5.35194822,4.04242172 5.35058484,4.13104143 5.32195386,4.21284423 C5.3192271,4.21966113 5.31650034,4.22647803 5.3124102,4.23329493 C5.27764401,4.30828083 5.21492853,4.36963293 5.13108066,4.40371743 C5.03223561,4.44461883 4.92521028,4.43780193 4.83795396,4.39008363 C4.77251172,4.35599913 4.71797652,4.29464703 4.68730047,4.21966113 C4.67093991,4.17875973 4.65321597,4.13785833 4.63276527,4.09695693 C4.46984136,3.74247812 4.16785269,3.24484442 3.79974008,2.77447832 C3.38731763,2.24276011 2.88423041,1.74512641 2.42272627,1.49290111 C2.41999951,1.49290111 2.41795444,1.48608421 2.41522768,1.48608421 C2.41454599,1.48608421 2.4138643,1.48608421 2.41250092,1.48608421 C2.14323337,1.33611241 1.90055173,1.27476031 1.70149825,1.29521101 C1.50312646,1.32247861 1.32043354,1.40428141 1.11524485,1.66332361 C1.07434345,1.71104191 1.04094064,1.76557711 1.01367304,1.81329541 C0.902557566,2.01780241 0.886197005,2.20185871 0.935960376,2.41999951 C0.987087126,2.63132342 1.12069837,2.86991492 1.3231603,3.11532332 C1.72467571,3.59932322 2.38455163,4.07650622 3.02193179,4.43098503 C3.02534024,4.43098503 3.02874869,4.43098503 3.03283883,4.43098503 C3.04033742,4.43780193 3.04715432,4.44461883 3.0553346,4.44461883 C3.50865845,4.69684413 3.95925554,4.88090043 4.27078788,4.97633703 C4.37440476,5.01042153 4.46302446,5.03087223 4.53051177,5.04450603 C4.57073148,5.05132293 4.60822443,5.06495673 4.64162724,5.07859053 C4.76364975,5.14675953 4.83659058,5.28991443 4.81409481,5.43306933 C4.78478214,5.61712563 4.6102695,5.74664674 4.42484982,5.71256223 C4.303509,5.69892843 4.16648931,5.66484393 4.01719919,5.61712563 C3.64022462,5.49442143 3.18417401,5.28991443 2.70358256,5.03087223" id="Path"></path>
                                </g>
                                <g id="Group" transform="translate(56.000000, 11.000000)" fill="#9C27B0">
                                    <path d="M3.22780217,4.04469402 C2.31092911,3.55777259 1.35247297,2.88257487 0.577391434,2.42811487 C0.456050613,2.35669973 0.338799932,2.29177687 0.227002771,2.2333463 C0.0818028005,2.15543887 0.0177239401,1.99313173 0.0695323804,1.85030144 C0.0708957604,1.84380915 0.0715774504,1.84380915 0.0722591404,1.83731687 C0.0790760405,1.8243323 0.0865746305,1.81134773 0.0947549106,1.79187087 C0.186101371,1.63605601 0.392653442,1.57762544 0.556940733,1.66851744 L0.557622423,1.66851744 C0.640106914,1.70747115 0.723273094,1.75940944 0.808484345,1.80485544 C1.65173488,2.28528459 2.64427553,2.99294373 3.54955985,3.46688059 L3.56523872,3.47986516 C3.96743582,3.68761831 4.35054561,3.84992545 4.67230329,3.92783288 C4.99951449,4.00574031 5.24628627,3.99275574 5.41739046,3.91484831 C5.53259607,3.85641774 5.63484957,3.77201802 5.73301294,3.60321859 C5.80186363,3.48635745 5.86457911,3.32405031 5.91093403,3.11629716 C6.01864105,2.63586802 5.95456219,2.2787923 5.79163828,1.98663944 C5.62666929,1.6879943 5.34444963,1.44777972 4.96952013,1.24651886 C4.96270323,1.24651886 4.95656802,1.24002658 4.94975112,1.24002658 C3.91494569,0.694674576 2.23321645,0.590798004 1.24272088,0.668705433 C1.16978005,0.675197718 1.10161105,0.681690004 1.0368505,0.68818229 C0.963227976,0.701166861 0.892332215,0.681690004 0.832343495,0.649228575 C0.739633655,0.603782575 0.672146344,0.512890575 0.658512544,0.402521717 C0.652377334,0.357075716 0.657830854,0.311629716 0.673509724,0.266183716 C0.675554794,0.25969143 0.678963244,0.253199144 0.681690004,0.246706859 C0.727363234,0.136338001 0.829616735,0.0584305718 0.957092766,0.0454460003 C1.12138006,0.025969143 1.30543636,0.0129845715 1.50448984,0.00649228575 C2.60405582,-0.0389537145 4.1535372,0.0843997148 5.2987764,0.681690004 C5.75278195,0.915412291 6.14748046,1.24002658 6.39220717,1.67500972 C6.63829726,2.11648516 6.71600992,2.64885259 6.57762685,3.25263516 C6.5196832,3.50583431 6.43856209,3.73306431 6.32949169,3.9213406 C6.1788382,4.18103203 5.96819599,4.38229288 5.71733407,4.49266174 C5.46715383,4.61601517 5.19243276,4.64198431 4.91907507,4.62250746 C4.37235969,4.58355374 3.80860205,4.34333917 3.22780217,4.04469402" id="Path"></path>
                                </g>
                                <g id="Group" transform="translate(47.000000, 14.000000)" fill="#9C27B0">
                                    <path d="M1.47472271,3.61295702 C1.12693096,3.42890072 0.824844905,3.17667542 0.644878744,2.82901352 C0.46348428,2.48135162 0.422777648,2.05870381 0.514903183,1.58152081 C0.556323966,1.36338001 0.626310807,1.16568991 0.725577856,0.995267406 C0.95696292,0.593070304 1.35617357,0.340845002 1.79680501,0.238591501 C2.23957889,0.129521101 2.72948678,0.149971801 3.24653241,0.238591501 C4.27848123,0.415830903 5.42969334,0.893013905 6.45878556,1.43154901 C7.05010295,1.74512641 7.59857125,2.07915451 8.05419986,2.39954881 C8.28201417,2.55633752 8.48626148,2.71312622 8.66337103,2.85628112 C8.84048059,3.00625292 8.99045239,3.14940782 9.10757322,3.28574582 C9.18541573,3.37436552 9.20684027,3.49025282 9.17613176,3.59250632 C9.17470346,3.59932322 9.17398931,3.59932322 9.17327516,3.60614012 C9.15327892,3.66749222 9.11542889,3.72202742 9.05972508,3.76292882 C8.94331839,3.85836542 8.78406263,3.86518232 8.65980028,3.80383022 C8.62195025,3.78337952 8.58695683,3.75611192 8.55696247,3.71521052 C8.5226832,3.68112602 8.48126242,3.63340772 8.43341427,3.58568942 C8.24987735,3.40845002 7.97135829,3.18349232 7.63285052,2.94490082 C7.20578796,2.64495722 6.68160081,2.32456291 6.11813533,2.03143621 C6.11670702,2.03143621 6.11456457,2.03143621 6.11385042,2.03143621 C6.11242211,2.03143621 6.11099381,2.02461931 6.10956551,2.02461931 C5.37398953,1.63605601 4.56985502,1.28839411 3.83142244,1.07707021 C3.0908474,0.858929405 2.41526015,0.783943505 1.97105795,0.899830806 C1.67397096,0.974816706 1.48543498,1.09752091 1.35046036,1.32247861 C1.29332825,1.42473211 1.2469084,1.54743631 1.21762819,1.69740811 C1.1454989,2.08597141 1.18763383,2.33819671 1.28475843,2.52906992 C1.38402548,2.71994312 1.55470767,2.87673182 1.82465691,3.01988672 C1.82822767,3.01988672 1.83179843,3.01988672 1.83608333,3.01988672 C2.33241858,3.28574582 3.13012573,3.45616832 4.03138484,3.66749222 C4.93978546,3.87881612 5.95745125,4.13785833 6.91227172,4.64230893 C7.26006347,4.82636523 7.59999955,5.03768913 7.92136769,5.29673133 C8.0741961,5.41943553 8.22345375,5.54895663 8.36699819,5.69892843 C8.45341051,5.78073124 8.48340487,5.90343544 8.45698127,6.01250584 C8.45483881,6.01932274 8.45269636,6.02613964 8.44983975,6.03295654 C8.43270012,6.08749174 8.40127746,6.13521004 8.35628592,6.17611144 C8.24059338,6.28518184 8.06991119,6.29881564 7.93707903,6.23064664 C7.90637051,6.21701284 7.87709031,6.18974524 7.85138085,6.16929454 C7.80424686,6.12157624 7.75782702,6.07385794 7.70997887,6.03295654 C7.35933052,5.71256223 6.97368874,5.45352003 6.56733658,5.23537923 C6.56590827,5.23537923 6.56519412,5.23537923 6.56519412,5.23537923 C5.70892655,4.78546383 4.75696269,4.53323853 3.8614168,4.32873153 C2.96372845,4.11740763 2.12888542,3.95380202 1.47900762,3.61295702 C1.47757931,3.61295702 1.47615101,3.61295702 1.47472271,3.61295702" id="Path"></path>
                                </g>
                                <g id="Group" transform="translate(52.000000, 22.000000)" fill="#9C27B0">
                                    <path d="M1.50762005,4.30146393 C1.22186673,4.15149213 0.950581931,3.98788652 0.697382786,3.79701332 C0.529547925,3.67430912 0.368947325,3.53797112 0.217751264,3.39481622 C0.132386981,3.31301342 0.0991093794,3.19712612 0.120812163,3.09487262 C0.121535589,3.08805572 0.122982442,3.08123882 0.12515272,3.07442192 C0.141068095,3.01306982 0.17362227,2.95853462 0.221368395,2.91081632 C0.338563427,2.80174592 0.51363255,2.78811212 0.650360088,2.85628112 C0.680020559,2.86991492 0.707510752,2.89036562 0.733554093,2.91763322 C0.778406513,2.95853462 0.825429211,2.99943602 0.873175335,3.04033742 C1.16182236,3.29256272 1.49315153,3.51070352 1.85631144,3.70157672 C1.85992857,3.70157672 1.86209885,3.70839362 1.86426913,3.70839362 C3.19682005,4.39690053 4.96921407,4.67639343 6.58100748,4.65594273 C8.19207746,4.64912583 9.6606325,4.33554843 10.3023115,3.96061892 C10.4846149,3.85836542 10.5887882,3.75611192 10.6177253,3.70157672 L10.6350875,3.65385842 C10.6300235,3.38118242 10.5236799,3.13577402 10.306652,2.88354872 C10.0917945,2.63132342 9.76408243,2.39273191 9.35172954,2.17459111 C9.35100612,2.17459111 9.34883584,2.17459111 9.34738899,2.17459111 C9.34449528,2.17459111 9.34087815,2.17459111 9.33798445,2.16777421 C8.23331275,1.59515461 6.54917673,1.22704201 4.95691582,1.10433781 C3.46593457,0.988450506 2.03355084,1.11115471 1.27178313,1.41109831 C1.21897302,1.43154901 1.16978005,1.45881661 1.1242042,1.47926731 C1.01279658,1.53380251 0.886197005,1.52698561 0.785640774,1.47245041 C0.724149553,1.43836591 0.672786298,1.39064761 0.638061844,1.32929551 C0.547633578,1.15887301 0.619252765,0.954366006 0.797215592,0.872563205 C0.997604629,0.777126605 1.22476043,0.695323804 1.47289559,0.633971704 C2.42058382,0.381746402 3.68440926,0.334028102 5.01478991,0.429464703 C6.6895214,0.552168903 8.44310633,0.927098406 9.69752723,1.58152081 C10.1677542,1.82692921 10.5699791,2.10642211 10.8673073,2.45408402 C11.163912,2.78811212 11.3527262,3.19712612 11.358594,3.64704152 C11.3606839,3.79019642 11.3187252,3.91971752 11.2514466,4.03560482 C11.1212298,4.25374563 10.9186705,4.41053433 10.6727056,4.54687233 C10.4260173,4.69002723 10.1279658,4.80591453 9.78650864,4.90816803 C9.10431781,5.11267503 8.24705785,5.25582993 7.30660388,5.31718203 C5.4271428,5.41943553 3.22069312,5.18766093 1.50762005,4.30146393" id="Path"></path>
                                </g>
                                <g id="Group" transform="translate(40.000000, 25.000000)" fill="#9C27B0">
                                    <path d="M2.58565019,4.05751629 C1.94417989,3.7283574 1.40291803,3.39286854 0.987768816,3.08902956 C0.571256223,2.77886061 0.286991492,2.52566147 0.130202791,2.29145226 C0.0852112505,2.22182249 0.0456732303,2.15219273 0.0306760502,2.04458309 C0.0149971801,1.93064348 0.0497633703,1.82303384 0.0974816706,1.7470741 C0.208597141,1.5698347 0.363340772,1.46855504 0.550123833,1.36727538 C0.736906895,1.26599572 0.963909666,1.17104604 1.22431525,1.07609636 C1.74512641,0.892526984 2.39886712,0.715287583 3.08873741,0.563368096 C4.47256812,0.259529123 5.97024106,0.0443098503 6.80871976,0.0696297647 C8.01122093,0.107609636 9.12851085,0.151919487 10.5682401,0.886197005 C10.5736937,0.892526984 10.5791472,0.892526984 10.5846007,0.898856963 C10.9452147,1.08242634 11.3262794,1.31030557 11.7359751,1.58882463 C11.8811751,1.68377431 12.0291018,1.79138395 12.1811187,1.89899358 L12.1824821,1.89899358 C12.2799637,1.97495333 12.3242736,2.08256296 12.3085947,2.1901726 C12.3072313,2.20283256 12.3051863,2.21549251 12.3024595,2.22182249 C12.2915525,2.26613234 12.2704201,2.31044219 12.2383806,2.34842206 C12.1334004,2.46869166 11.9500258,2.50034155 11.8068709,2.42438181 C11.7905103,2.41805183 11.7748314,2.41172185 11.7598343,2.39906189 C11.7052991,2.36108202 11.6514456,2.32310215 11.5982737,2.28512228 C11.1026851,1.93064348 10.66095,1.6584544 10.2553444,1.4495651 C8.92468553,0.77225739 8.00235896,0.746937476 6.78281554,0.702627626 C6.18429172,0.677307711 4.97974548,0.829227198 3.80996543,1.06343641 C2.64086708,1.29131564 1.46972365,1.61414455 0.940050516,1.88633363 C0.852794195,1.93064348 0.785306885,1.97495333 0.743723795,2.00660322 C0.761447735,2.02559316 0.783943505,2.05724305 0.811892795,2.08256296 C0.906647706,2.1901726 1.05798289,2.32310215 1.25430961,2.47502164 C1.64628136,2.77886061 2.21821927,3.14599937 2.91490646,3.50047817 C2.91831491,3.50680815 2.92240505,3.50680815 2.92649519,3.50680815 C4.99610604,4.57024456 8.15164907,5.51974135 11.168809,4.66519424 C11.2342513,4.6462043 11.2996935,4.62721436 11.3658174,4.60822443 C11.4598907,4.58290451 11.558054,4.58923449 11.6378118,4.63354434 C11.7107526,4.67152421 11.7686962,4.72849402 11.7966455,4.81078374 C11.8130061,4.85509359 11.8177779,4.90573342 11.810961,4.95004327 C11.810961,4.95637325 11.8102793,4.95637325 11.8082343,4.96270323 C11.7884652,5.07664285 11.703254,5.17159252 11.5798681,5.2095724 C11.4060371,5.26021223 11.2315245,5.31085205 11.0563302,5.3551619 C7.86533927,6.12741929 4.68321033,5.12728267 2.58565019,4.05751629 Z" id="Shape"></path>
                                </g>
                                <g id="Group" transform="translate(51.000000, 33.000000)" fill="#9C27B0">
                                    <path d="M0.439933513,3.63568002 C0.332956875,3.57724945 0.267758095,3.45389602 0.277886061,3.32405031 C0.277886061,3.31755802 0.278519059,3.31106573 0.279785055,3.30457345 C0.279785055,3.30457345 0.28105105,3.29808116 0.282317046,3.29158888 C0.315232935,3.11629716 0.481078374,2.99943602 0.652620795,3.03189745 C0.653253793,3.03189745 0.757065442,3.0513743 0.939368826,3.09032802 C1.34701945,3.16823545 2.14712874,3.31755802 3.05927866,3.49284974 C4.37781321,3.73306431 5.93055696,4.0122326 6.84650486,4.13558603 C7.94095817,4.29140088 9.68613327,4.36281603 10.8160345,4.20050888 C11.1907692,4.14207831 11.4977731,4.0576786 11.6623526,3.9667866 C11.7592013,3.9213406 11.7990801,3.86940231 11.8022451,3.86291002 L11.8035111,3.84992545 C11.7655312,3.53180345 11.6414637,3.25912745 11.4306754,2.99943602 C11.2198871,2.7332523 10.9198461,2.49953002 10.5476434,2.28528459 C10.5451114,2.28528459 10.5432124,2.28528459 10.5400474,2.28528459 C9.56586368,1.7334403 8.11313358,1.38934915 6.63128559,1.21405744 C5.14500661,1.04525801 3.62581175,1.03227343 2.50730453,1.10368858 C1.92051551,1.14264229 1.43437315,1.20756515 1.14952412,1.27248801 C1.07483037,1.29196487 1.01406257,1.31144172 0.969119725,1.32442629 C0.880500025,1.36338001 0.786183343,1.35039544 0.709590602,1.30494944 C0.64502482,1.26599572 0.591853,1.20756515 0.564634092,1.12965772 C0.548176148,1.08421172 0.543745163,1.03876572 0.54754315,0.99331972 C0.548176148,0.986827435 0.549442143,0.973842863 0.550708139,0.967350577 C0.569065077,0.85698172 0.644391823,0.759597433 0.756432444,0.714151433 C0.885564008,0.668705433 1.04634546,0.629751718 1.23751082,0.597290289 C1.56350472,0.532367432 1.97748532,0.486921432 2.46679266,0.454460003 C3.23905005,0.402521717 4.18348286,0.396029431 5.18172049,0.441475431 C7.18009474,0.551844289 9.3810283,0.889443148 10.8540143,1.72045572 C11.2755909,1.9606703 11.6395647,2.23983859 11.9161847,2.58392973 C12.1934378,2.92152859 12.3808052,3.32405031 12.432711,3.77851031 C12.4491689,3.91484831 12.420051,4.0576786 12.3561182,4.17453974 C12.2611686,4.34983146 12.1149461,4.46020031 11.9560636,4.54460003 C11.7940161,4.62899974 11.6091808,4.6939226 11.4034565,4.74586089 C10.9913749,4.84973746 10.4900406,4.90167574 9.94946038,4.92764489 C8.86956603,4.97309089 7.63965118,4.90167574 6.76231615,4.7848146 C5.20197642,4.57056917 1.93001048,3.94081745 0.871638055,3.73306431 C0.657684778,3.69411059 0.534250195,3.66814145 0.533617197,3.66814145 C0.50006831,3.66164917 0.468418417,3.64866459 0.439933513,3.63568002" id="Path"></path>
                                </g>
                                <g id="Group" transform="translate(38.000000, 34.000000)" fill="#9C27B0">
                                    <path d="M1.27095636,3.55160492 C1.05062143,3.42890072 0.857156614,3.31301342 0.694592428,3.19712612 C0.532028243,3.08805572 0.402379946,2.98580222 0.29893001,2.86309802 C0.233098233,2.78811212 0.162564185,2.69949242 0.139052836,2.54270372 L0.139052836,2.54270372 C0.124946027,2.43363331 0.15651841,2.32456291 0.197495333,2.24957701 C0.293555988,2.08597141 0.417158509,2.00416861 0.560913615,1.91554891 C0.705340474,1.83374611 0.877309199,1.75194331 1.0781633,1.67695741 C1.47785623,1.52016871 1.98771663,1.36338001 2.55601953,1.22022511 C3.69061006,0.927098406 5.04822253,0.674873104 6.13444686,0.545352003 C8.00729376,0.320394302 9.87409488,1.15887301 11.4285309,2.02461931 C11.7126824,2.18140801 11.985414,2.34501361 12.2467259,2.50180232 C12.4045878,2.59723892 12.5584192,2.68585862 12.7068766,2.78129522 C12.814357,2.84264732 12.8727995,2.96535152 12.868769,3.08123882 C12.868769,3.09487262 12.8674255,3.10850642 12.8654102,3.12214022 C12.8593645,3.16304162 12.8445859,3.20394302 12.8204028,3.24484442 C12.7277009,3.40163312 12.5281903,3.45616832 12.3710002,3.36754862 C12.3669696,3.36754862 12.3636109,3.36754862 12.3595804,3.36073172 C12.3004661,3.32664722 12.2406801,3.29256272 12.1802224,3.25166132 C11.8409872,3.04715432 11.4802559,2.82901352 11.1040743,2.61768962 C11.0919828,2.61087272 11.080563,2.60405582 11.0691432,2.59723892 C9.56576033,1.75876021 7.81517245,1.02253501 6.2137137,1.22022511 C5.32364119,1.32929551 4.22331006,1.52698561 3.2385204,1.75194331 C2.25574601,1.97690101 1.37306279,2.24957701 0.968667584,2.46771782 C0.943140976,2.48135162 0.919629627,2.49498542 0.898133537,2.50180232 C0.913583852,2.51543612 0.931049425,2.52906992 0.949186752,2.54952062 C1.09428536,2.65859102 1.31663555,2.80174592 1.5893672,2.95171772 C1.59138246,2.95171772 1.59339772,2.95853462 1.59541298,2.95853462 C1.6021305,2.95853462 1.60951979,2.96535152 1.61623731,2.97216842 C2.89726996,3.68794292 5.2537789,4.62867513 6.59459755,4.81273143 C8.06170574,5.01723843 10.5794354,4.81954833 11.7288044,4.70366103 C11.8624833,4.69002723 11.9766812,4.68321033 12.0707266,4.66957653 C12.2467259,4.64912583 12.3461453,4.64230893 12.3461453,4.64230893 C12.4186946,4.62867513 12.4885569,4.64912583 12.5476712,4.67639343 C12.6390295,4.73092863 12.7055331,4.82636523 12.7189681,4.93543563 C12.7209834,4.95588633 12.7216551,4.96952013 12.7216551,4.98315393 C12.7209834,4.99678773 12.7203116,5.00360463 12.7189681,5.01723843 C12.7008308,5.17402713 12.5826023,5.29673133 12.4254121,5.31718203 C12.4233969,5.31718203 12.2756113,5.33081583 12.0237039,5.35808343 C11.6327438,5.39898483 10.9925633,5.46033693 10.2563222,5.50805523 C9.04112137,5.58985803 7.57535669,5.63757633 6.50323917,5.48760453 C4.99112354,5.27628063 2.6319276,4.30828083 1.27095636,3.55160492" id="Path"></path>
                                </g>
                                <g id="Group" transform="translate(49.000000, 42.000000)" fill="#9C27B0">
                                    <path d="M1.19906026,2.88906716 C1.1983461,2.88906716 1.1969178,2.88906716 1.1969178,2.88906716 C1.17906402,2.88257487 1.16192438,2.8695903 1.14478475,2.86309802 C0.884119474,2.72676002 0.695583496,2.60340659 0.576320206,2.51900687 C0.422063497,2.40863801 0.394211591,2.20088487 0.516331486,2.05805458 C0.626310807,1.93470115 0.819131694,1.90223973 0.969103495,1.98014715 C0.986243129,1.98663944 1.00266861,1.99962401 1.01766579,2.0061163 C1.05622997,2.03208544 1.10264981,2.06454687 1.15763947,2.10350058 C1.25690652,2.16842344 1.38331133,2.23983859 1.54185294,2.3242383 C2.06675425,2.58392973 2.93087748,2.88906716 4.22634818,2.92152859 C5.42612259,2.95399002 7.51001647,3.03189745 8.89404195,2.85660573 C9.35252717,2.79817516 9.73174158,2.70728316 9.94241625,2.60340659 C10.0645361,2.54497602 10.1209541,2.49303773 10.134523,2.46706859 L10.1430928,2.4151303 C10.12024,2.23983859 10.0445399,2.09051601 9.90528037,1.94119344 C9.76744915,1.79187087 9.56248769,1.6425483 9.30110826,1.51270258 C9.30039411,1.51270258 9.29967996,1.51270258 9.29896581,1.51270258 C9.29539505,1.51270258 9.29182429,1.50621029 9.28896769,1.50621029 C8.51625584,1.11667315 7.27148989,0.869966291 5.98101825,0.753105147 C4.68411925,0.636244004 3.33580134,0.636244004 2.33670349,0.694674576 C1.86179279,0.720643719 1.45829723,0.766089719 1.19620365,0.805043434 C1.09265169,0.824520291 1.01123843,0.843997148 0.955534617,0.85698172 C0.859124174,0.889443148 0.758428822,0.876458577 0.676301407,0.831012577 C0.598458901,0.792058862 0.537041878,0.727136004 0.507761669,0.649228575 C0.496335246,0.610274861 0.491336186,0.577813432 0.492050337,0.545352003 C0.492050337,0.538859718 0.492050337,0.532367432 0.492764489,0.525875146 C0.502048457,0.396029431 0.597030598,0.279168287 0.742003339,0.240214573 C0.870550597,0.201260858 1.03266297,0.175291715 1.2233414,0.142830287 C1.51257273,0.103876572 1.87179091,0.0714151433 2.2909978,0.0454460003 C2.98372469,0.00649228575 3.82713753,-0.00649228575 4.71054285,0.025969143 C6.48092425,0.0908920006 8.40056331,0.324614288 9.64390095,0.941381434 C9.96241249,1.10368858 10.2387891,1.29196487 10.4523204,1.51919487 C10.6658517,1.75291715 10.813681,2.03208544 10.8529593,2.33722287 C10.8736697,2.49303773 10.8393904,2.64885259 10.7594055,2.7786983 C10.6458554,2.96697459 10.4680317,3.08383573 10.2737825,3.18122002 C10.0759626,3.27211202 9.85029071,3.34352716 9.59819526,3.39546545 C9.09686095,3.50583431 8.48911808,3.56426488 7.84352519,3.59023402 C6.55448185,3.64866459 5.11618087,3.59672631 4.20635194,3.57075716 C2.79661701,3.53829574 1.81180219,3.20069688 1.19906026,2.88906716" id="Path"></path>
                                </g>
                                <g id="Group" transform="translate(45.000000, 45.000000)" fill="#9C27B0">
                                    <path d="M0.812574485,2.67482173 C0.690551974,2.60989887 0.618292834,2.47356087 0.640788604,2.33722287 C0.673509724,2.13596201 0.746450555,1.94119344 0.848022365,1.76590173 C1.26385327,1.06473486 2.10165028,0.623259432 3.00148109,0.415506288 C3.72611756,0.253199144 4.50528924,0.246706859 5.1828891,0.454460003 C5.34990315,0.506398289 5.51078199,0.571321146 5.66279886,0.655720861 L5.70301857,0.675197718 C5.80731715,0.73362829 5.86798756,0.831012577 5.87344108,0.941381434 C5.87344108,0.94787372 5.87344108,0.954366006 5.87344108,0.960858292 C5.87275939,1.01279658 5.85776221,1.06473486 5.82708616,1.11667315 C5.73437632,1.27248801 5.530551,1.32442629 5.36830878,1.24002658 C5.36626371,1.24002658 5.36421864,1.24002658 5.36217357,1.23353429 L5.33354259,1.22054972 C5.33081583,1.22054972 5.32740738,1.22054972 5.32331724,1.21405744 C5.28241584,1.19458058 5.23946937,1.17510372 5.19515952,1.15562686 C4.64571738,0.915412291 3.86927246,0.889443148 3.1575881,1.05175029 C2.38114318,1.22054972 1.70422501,1.62307144 1.44450112,2.07753144 C1.43359408,2.10350058 1.42268704,2.12297744 1.41314338,2.1424543 C1.86578554,2.20737716 2.53247837,2.25931544 3.21280499,2.33722287 C3.92039921,2.42162259 4.64912583,2.52549916 5.24969472,2.7332523 C5.40989187,2.79168287 5.56054536,2.85660573 5.70029181,2.92802088 L5.79641011,2.97995916 C5.95660726,3.07734345 6.00637063,3.27860431 5.90684389,3.42792688 C5.81140729,3.57724945 5.61099042,3.62269545 5.45283834,3.53829574 C5.44806651,3.53829574 5.44329468,3.53829574 5.43852285,3.53180345 L5.37103554,3.49284974 C5.36626371,3.49284974 5.36285526,3.49284974 5.35808343,3.49284974 C5.33558766,3.47986516 5.3124102,3.46688059 5.28786936,3.45389602 C4.79228073,3.22017373 3.95039357,3.07734345 3.1303205,2.97995916 C2.25434884,2.87608259 1.41178,2.83063659 0.893013905,2.70079087 C0.863701235,2.69429859 0.837797015,2.6878063 0.812574485,2.67482173" id="Path"></path>
                                </g>
                                <g id="Group" transform="translate(0.000000, 49.000000)" fill="#558B2F" fill-rule="nonzero">
                                    <path d="M55.1456126,36.5795703 C54.8424069,9.03590686 32.241311,-3.53377936 0.0265387887,1.31443382 C5.291171,26.1169413 27.8789976,49.605015 55.1456126,36.5795703" id="Path"></path>
                                </g>
                                <g id="Group" transform="translate(4.000000, 52.000000)" fill="#DCEDC8" fill-rule="nonzero">
                                    <path d="M51.9684243,33.1685314 C47.5859912,30.6710419 40.3039727,25.4356626 32.1770681,19.7395166 C24.0448748,14.0366928 15.051929,7.86642441 7.15178179,3.46576763 C5.00056179,2.2637673 2.92999601,1.19532255 0.977106071,0.300500083 C0.643911579,0.153588932 0.25187917,0.300500083 0.101809428,0.634389065 C-0.0495825138,0.968278047 0.0985039274,1.36894482 0.43103732,1.52253376 C2.34360015,2.39732289 4.38573862,3.44573429 6.51315901,4.63437907 C14.3313298,8.98829139 23.3017982,15.1385264 31.424075,20.8346725 C39.5509796,26.5308185 46.8151484,31.7595199 51.3185629,34.3304651 C51.636552,34.5107651 52.0391621,34.3972429 52.2189813,34.0767095 C52.3988006,33.756176 52.2864135,33.3488315 51.9684243,33.1685314" id="Path"></path>
                                </g>
                                <g id="Group" transform="translate(49.000000, 36.000000)" fill="#558B2F" fill-rule="nonzero">
                                    <path d="M4.07334124,26.2102851 C14.0525525,22.3238173 15.7053099,11.9665811 9.77791796,0.327211202 C1.43690514,5.72953492 -4.18854685,17.575916 4.07334124,26.2102851" id="Path"></path>
                                </g>
                                <g id="Group" transform="translate(38.000000, 36.000000)" fill="#DCEDC8" fill-rule="nonzero">
                                    <path d="M12.2429744,32.6957368 C21.5547708,22.3658756 17.6606403,9.84523405 4.31993912,0.458072252 C-2.25535329,11.4982774 -2.09909325,28.0685432 12.2429744,32.6957368" id="Path"></path>
                                </g>
                                <g id="Group" transform="translate(51.000000, 34.000000)" fill="#8BC34A" fill-rule="nonzero">
                                    <path d="M5.67454145,48.357574 C27.9586849,44.7515854 35.3569664,25.2485859 27.4492751,0.233289468 C7.9996963,7.44526674 -8.24662139,28.2746835 5.67454145,48.357574" id="Path"></path>
                                </g>
                                <g id="Group" transform="translate(54.000000, 40.000000)" fill="#DCEDC8" fill-rule="nonzero">
                                    <path d="M1.54113879,41.5736417 C3.16517016,37.3806337 6.65395294,30.5629453 10.3973817,23.1684753 C14.1414736,15.7675246 18.1448535,7.76386948 20.8252679,1.11467909 C20.9598855,0.777683086 20.792774,0.401802928 20.4519197,0.27218908 C20.1110655,0.142575233 19.7257808,0.304592542 19.5918264,0.635107854 C16.9425796,7.21301063 12.9511362,15.1972236 9.2083706,22.5916937 C5.46494182,29.9926444 1.97483276,36.7973714 0.300402699,41.1135125 C0.170427138,41.4440278 0.342843699,41.819908 0.685024257,41.9495218 C1.02786796,42.072655 1.41050009,41.904157 1.54113879,41.5736417" id="Path"></path>
                                </g>
                                <g id="Group" transform="translate(54.000000, 72.000000)" fill="#DCEDC8" fill-rule="nonzero">
                                    <path d="M0.632534126,13.8876114 C12.0331116,22.2670562 24.4505046,17.3123106 32.8060764,3.21635256 C20.9361994,-2.38296566 4.04277725,-0.800832722 0.632534126,13.8876114" id="Path"></path>
                                </g>
                            </g>
                            <g id="illustration3" transform="translate(160.000000, 0.000000)">
                                <path d="M14,64.0638532 C10.5885038,64.834584 4.2096518,69.5578072 6.07345492,79.135688 C5.14098686,79.5016011 3.70829442,80 3.70829442,80 C-0.629438256,74.5123548 -4.04659948,54.2041772 10.8881852,47 C13.0613004,52.2968026 14,64.0638532 14,64.0638532" id="Fill-32" fill="#9C27B0"></path>
                                <path d="M47,64.0638532 C50.4122463,64.834584 56.7908752,69.5572815 54.9281048,79.135688 C55.8583569,79.5016011 57.2933926,80 57.2933926,80 C61.6290926,74.5123548 65.0464378,54.2041772 50.1108492,47 C47.9393167,52.2968026 47,64.0638532 47,64.0638532" id="Fill-33" fill="#9C27B0"></path>
                                <path d="M19.103283,16 C10.9133589,27.9144914 3.84024265,46.5675068 14.0962928,72 L47.9032731,72 C58.1599553,46.5675068 51.0868391,27.9144914 42.8962829,16 L19.103283,16 Z" id="Fill-34" fill="#558B2F"></path>
                                <path d="M31.4997476,0 C29.5353965,2.89821098 25.6304157,8.22887107 22,16 L41,16 C37.3690796,8.22887107 33.4640988,2.89821098 31.4997476,0" id="Fill-35" fill="#6A1B9A"></path>
                                <path d="M22,40 C22,35.0291751 26.2535491,31 31.5,31 C36.7475129,31 41,35.0291751 41,40 C41,44.9708249 36.7475129,49 31.5,49 C26.2535491,49 22,44.9708249 22,40" id="Fill-36" fill="#8BC34A"></path>
                                <path d="M25,41 C25,36.5820463 28.1338965,33 31.9997462,33 C35.8666111,33 39,36.5820463 39,41 C39,45.4179537 35.8666111,49 31.9997462,49 C28.1338965,49 25,45.4179537 25,41" id="Fill-37" fill="#558B2F"></path>
                                <path d="M23.9936415,44 C22.7795293,42.6578645 22.0352365,40.9374282 22.0006182,39.054535 L22.0006182,39.0040184 C22,38.9902411 22,38.9776119 22,38.9632606 L22,38.9161883 C22,34.5447761 25.8166645,31 30.5247494,31 L30.6248951,31 C30.6397315,31.0011481 30.6551861,31.0011481 30.6687862,31.0011481 L30.6731134,31.0011481 C32.7007551,31.0332951 34.5534508,31.7244546 36,32.8513203 L23.9936415,44 Z" id="Fill-38" fill="#DCEDC8"></path>
                                <polygon id="Fill-39" fill="#6A1B9A" points="42.4408869 76 22.5591131 76 21 69 44 69"></polygon>
                                <polygon id="Fill-40" fill="#9C27B0" points="40.2056738 76 34 76 34.8971631 69 42 69"></polygon>
                                <path d="M46.9495747,72 L38.5981834,72 C42.0651414,60.0650315 49.2527372,40.7730273 38,16 L41.9874715,16 C47.2270566,23.6909691 52.005007,34.1893939 52,47.5068257 C52,48.6073357 51.9667985,49.7283228 51.8991505,50.8676868 C51.58346,56.1365887 50.5173783,61.8145065 48.4585,67.9087909 C48.0050081,69.2513501 47.5026594,70.6170117 46.9495747,72" id="Fill-41" fill="#8BC34A"></path>
                                <path d="M42,16 L37.6033576,16 C35.4140148,10.8630475 32.5906604,5.52683529 29,0 C31.6879881,2.89821098 37.031504,8.22887107 42,16" id="Fill-42" fill="#9C27B0"></path>
                                <path d="M31.4997345,75.0111276 L22,75 C22,90.7163986 31.4997345,200 31.4997345,200 C31.4997345,200 41,90.7163986 41,75 L31.4997345,75.0111276 Z" id="Fill-43" fill="#FFC107"></path>
                            </g>
                            <g id="Group-43" transform="translate(9.000000, 132.000000)">
                                <g id="Group" transform="translate(25.000000, 0.000000)" fill="#9C27B0">
                                    <path d="M83.1917797,12.543412 L82.7693802,12.543412 L82.7693802,11.8048279 L83.0872254,11.8048279 C83.2043262,11.8048279 83.3005162,11.7088537 83.3005162,11.5961883 L83.3005162,7.8031206 C83.3005162,7.68628243 83.2043262,7.59448101 83.0872254,7.59448101 L82.7693802,7.59448101 L82.7693802,5.44132046 L82.7693802,5.44132046 C82.7693802,2.90843586 80.7117513,0.855422311 78.1731724,0.855422311 L77.7047691,0.855422311 L77.7047691,0.329650549 C77.7047691,0.21281238 77.6127613,0.116838169 77.4956604,0.116838169 L73.6940654,0.116838169 C73.5811468,0.116838169 73.4849568,0.21281238 73.4849568,0.329650549 L73.4849568,0.855422311 L4.84713818,0.855422311 L4.84713818,0.855422311 C2.30855934,0.855422311 0.250930363,2.90843586 0.250930363,5.44132046 L0.250930363,103.034574 L0.250930363,103.034574 C0.250930363,105.567459 2.30855934,107.620472 4.84713818,107.620472 L78.1731724,107.620472 C80.7117513,107.620472 82.7693802,105.567459 82.7693802,103.034574 L82.7693802,16.7537589 L83.1917797,16.7537589 C83.3088805,16.7537589 83.4050705,16.6577847 83.4050705,16.5409465 L83.4050705,12.7520516 C83.4050705,12.6352135 83.3088805,12.543412 83.1917797,12.543412 L83.1917797,12.543412 Z" id="Path"></path>
                                </g>
                                <g id="Group" transform="translate(28.000000, 3.000000)" fill="#FFFFFF">
                                    <rect id="Rectangle" x="0.284410037" y="0.100049815" width="75.5639825" height="99.9310063"></rect>
                                </g>
                                <g id="Group" transform="translate(0.000000, 92.000000)" fill="#558B2F">
                                    <path d="M4.65776984,6.89876733 C7.249123,4.02038933 10.7445335,2.14392462 14.5357415,1.58777784 L12.910938,0.0933986962 L14.7065541,0 L16.931285,2.04628053 L14.9231946,4.31332161 L13.1234123,4.4067203 L14.473249,2.89111419 C6.99915324,4.11803342 1.50815088,10.6899053 1.50815088,18.4037885 C1.50815088,27.0813765 8.41148238,34.1202419 16.9271188,34.1202419 L16.931285,34.1202419 L16.931285,35.3938605 C7.72406554,35.3938605 0.258302084,27.7818667 0.258302084,18.4037885 C0.258302084,14.1414117 1.8289454,10.0318691 4.65776984,6.89876733 L4.65776984,6.89876733 Z" id="Path"></path>
                                </g>
                                <g id="Group" transform="translate(51.000000, 9.000000)" fill="#6A1B9A">
                                    <rect id="Rectangle" x="0.362116494" y="0.0619120145" width="45.6654764" height="1.62457126"></rect>
                                </g>
                                <g id="Group" transform="translate(51.000000, 14.000000)" fill="#6A1B9A">
                                    <rect id="Rectangle" x="0.362116494" y="0.284795267" width="45.6654764" height="1.62457126"></rect>
                                </g>
                                <g id="Group" transform="translate(51.000000, 20.000000)" fill="#6A1B9A">
                                    <rect id="Rectangle" x="0.362116494" y="0.090804288" width="45.6654764" height="1.62457126"></rect>
                                </g>
                                <g id="Group" transform="translate(37.000000, 9.000000)" fill="#6A1B9A">
                                    <rect id="Rectangle" x="0.102154824" y="0.279677207" width="9.8068631" height="10.1700803"></rect>
                                </g>
                                <g id="Group" transform="translate(51.000000, 87.000000)" fill="#6A1B9A">
                                    <rect id="Rectangle" x="0.202835552" y="0.165098705" width="44.763271" height="1.62457126"></rect>
                                </g>
                                <g id="Group" transform="translate(51.000000, 92.000000)" fill="#6A1B9A">
                                    <rect id="Rectangle" x="0.202835552" y="0.387981958" width="44.763271" height="1.62457126"></rect>
                                </g>
                                <g id="Group" transform="translate(51.000000, 98.000000)" fill="#6A1B9A">
                                    <rect id="Rectangle" x="0.202835552" y="0.193990979" width="44.763271" height="1.62457126"></rect>
                                </g>
                                <g id="Group" transform="translate(37.000000, 89.000000)" fill="#6A1B9A">
                                    <rect id="Rectangle" x="0.377140476" y="0.385615543" width="10.1700803" height="10.1700803"></rect>
                                </g>
                                <g id="Group" transform="translate(48.000000, 55.000000) scale(-1, 1) rotate(-90.000000) translate(-48.000000, -55.000000) translate(40.000000, 47.000000)" fill="#6A1B9A">
                                    <path d="M7.85891851,0.215728975 C11.991229,0.215728975 15.341412,3.74223732 15.341412,8.09203788 C15.341412,12.4462411 11.991229,15.9727494 7.85891851,15.9727494 C3.72242548,15.9727494 0.372242548,12.4462411 0.372242548,8.09203788 C0.372242548,3.74223732 3.72242548,0.215728975 7.85891851,0.215728975" id="Path"></path>
                                </g>
                                <g id="Group" transform="translate(69.000000, 55.000000) scale(-1, 1) rotate(-90.000000) translate(-69.000000, -55.000000) translate(63.000000, 49.000000)" fill="#6A1B9A">
                                    <path d="M5.97492215,0.292775038 C9.08758308,0.292775038 11.6108416,2.81603359 11.6108416,5.92484221 C11.6108416,9.03750313 9.08758308,11.5607617 5.97492215,11.5607617 C2.86226122,11.5607617 0.342854978,9.03750313 0.342854978,5.92484221 C0.342854978,2.81603359 2.86226122,0.292775038 5.97492215,0.292775038" id="Path"></path>
                                </g>
                                <g id="Group" transform="translate(90.000000, 55.000000) scale(-1, 1) rotate(-90.000000) translate(-90.000000, -55.000000) translate(86.000000, 51.000000)" fill="#6A1B9A">
                                    <path d="M3.92274524,0.208024369 C6.00723432,0.208024369 7.70114704,1.89769169 7.70114704,3.98218077 C7.70114704,6.07091525 6.00723432,7.76058258 3.92274524,7.76058258 C1.83825616,7.76058258 0.14434344,6.07091525 0.14434344,3.98218077 C0.14434344,1.89769169 1.83825616,0.208024369 3.92274524,0.208024369" id="Path"></path>
                                </g>
                            </g>
                            <g id="Group-41" transform="translate(0.000000, 23.000000)">
                                <g id="Group" fill="#FF6F00">
                                    <path d="M38.3191813,18.3227809 L37.8989984,18.3227809 L37.8989984,6.75288624 L37.8989984,6.75288624 C37.8989984,3.05505715 34.9239533,0.0529341586 31.2548561,0.0529341586 L6.92551486,0.0529341586 L6.92551486,0.0529341586 C3.2564176,0.0529341586 0.281372489,3.05505715 0.281372489,6.75288624 L0.281372489,70.2360665 C0.281372489,73.9338956 3.2564176,76.9360185 6.92551486,76.9360185 L31.2548561,76.9360185 L31.2548561,76.9360185 C34.9239533,76.9360185 37.8989984,73.9338956 37.8989984,70.2360665 L37.8989984,26.5616046 L38.3191813,26.5616046 L38.3191813,18.3227809 Z" id="Path"></path>
                                </g>
                                <g id="Group" transform="translate(2.000000, 2.000000)" fill="#FFECB3">
                                    <path d="M34.2168461,5.31466733 L34.2168461,68.6899962 C34.2168461,68.6899962 34.2168461,68.6899962 34.2168461,68.6899962 C34.2168461,71.4493896 32.0210334,73.6909243 29.3096497,73.6909243 L5.14458164,73.6909243 C2.43319795,73.6909243 0.237385166,71.4493896 0.237385166,68.6899962 L0.237385166,5.31466733 C0.237385166,2.55149392 2.43319795,0.313739252 5.14458164,0.313739252 L8.07480477,0.313739252 C7.95982133,0.597238576 7.90418419,0.903417846 7.90418419,1.20959712 C7.90418419,2.52125399 8.94645343,3.58721145 10.2335261,3.58721145 L24.0129932,3.58721145 C24.0129932,3.58721145 24.0129932,3.58721145 24.0129932,3.58721145 C25.3000659,3.58721145 26.3423351,2.52125399 26.3423351,1.20959712 C26.3423351,0.903417846 26.2829888,0.597238576 26.1717145,0.313739252 L29.3096497,0.313739252 C32.0210334,0.313739252 34.2168461,2.55149392 34.2168461,5.31466733 L34.2168461,5.31466733 Z" id="Path"></path>
                                </g>
                                <g id="Group" transform="translate(11.000000, 11.000000)" fill="#8BC34A">
                                    <rect id="Rectangle" x="0.256210221" y="0.251775526" width="21.6978523" height="1"></rect>
                                </g>
                                <g id="Group" transform="translate(11.000000, 14.000000)" fill="#8BC34A">
                                    <rect id="Rectangle" x="0.256210221" y="0.107314159" width="21.6978523" height="1.68813426"></rect>
                                </g>
                                <g id="Group" transform="translate(11.000000, 16.000000)" fill="#8BC34A">
                                    <rect id="Rectangle" x="0.256210221" y="0.272412864" width="21.6978523" height="1"></rect>
                                </g>
                                <g id="Group" transform="translate(5.000000, 12.000000)" fill="#8BC34A">
                                    <rect id="Rectangle" x="0.0564637573" y="0.273403456" width="3.7063999" height="3.7063999"></rect>
                                </g>
                                <g id="Group" transform="translate(11.000000, 65.000000)" fill="#8BC34A">
                                    <rect id="Rectangle" x="0.256210221" y="0.090804288" width="21.6978523" height="1.68813426"></rect>
                                </g>
                                <g id="Group" transform="translate(11.000000, 68.000000)" fill="#8BC34A">
                                    <rect id="Rectangle" x="0.256210221" y="0.260030461" width="21.6978523" height="1"></rect>
                                </g>
                                <g id="Group" transform="translate(11.000000, 71.000000)" fill="#8BC34A">
                                    <rect id="Rectangle" x="0.256210221" y="0.132078964" width="21.6978523" height="1.68813426"></rect>
                                </g>
                                <g id="Group-45" transform="translate(7.000000, 35.000000)" fill="#8BC34A">
                                    <g id="Group" transform="translate(4.097977, 4.121569) scale(-1, 1) rotate(-90.000000) translate(-4.097977, -4.121569) translate(0.097977, 0.621569)">
                                        <path d="M3.62611385,0.242982546 C5.58240605,0.242982546 7.16930203,1.62535622 7.16930203,3.32951758 C7.16930203,5.03367895 5.58240605,6.41605262 3.62611385,6.41605262 C1.66982166,6.41605262 0.0829256806,5.03367895 0.0829256806,3.32951758 C0.0829256806,1.62535622 1.66982166,0.242982546 3.62611385,0.242982546" id="Path"></path>
                                    </g>
                                    <g id="Group" transform="translate(12.022238, 3.057236) scale(-1, 1) rotate(-90.000000) translate(-12.022238, -3.057236) translate(9.022238, 0.057236)">
                                        <path d="M2.57655953,0.234664224 C3.96032948,0.234664224 5.08275788,1.40448289 5.08275788,2.8509952 C5.08275788,4.29750751 3.96032948,5.47082863 2.57655953,5.47082863 C1.19614012,5.47082863 0.0737117161,4.29750751 0.0737117161,2.8509952 C0.0737117161,1.40448289 1.19614012,0.234664224 2.57655953,0.234664224" id="Path"></path>
                                    </g>
                                    <g id="Group" transform="translate(21.074821, 2.659462) scale(-1, 1) rotate(-90.000000) translate(-21.074821, -2.659462) translate(19.074821, 0.659462)">
                                        <path d="M1.93325728,0.0840588266 C2.83790107,0.0840588266 3.57501823,0.851095619 3.57501823,1.80025987 C3.57501823,2.74942412 2.83790107,3.51646091 1.93325728,3.51646091 C1.02526296,3.51646091 0.288145799,2.74942412 0.288145799,1.80025987 C0.288145799,0.851095619 1.02526296,0.0840588266 1.93325728,0.0840588266" id="Path"></path>
                                    </g>
                                </g>
                            </g>
                        </g>
                    </g>
                </g>
            </g>
        </g>
    </g>
</svg>