<?xml version="1.0" encoding="UTF-8"?>
<svg width="427px" height="321px" viewBox="0 0 427 321" version="1.1" xmlns="http://www.w3.org/2000/svg" xmlns:xlink="http://www.w3.org/1999/xlink">
    <!-- Generator: Sketch 64 (93537) - https://sketch.com -->
    <title>Banner1-Foreground</title>
    <desc>Created with Sketch.</desc>
    <g id="Landing" stroke="none" stroke-width="1" fill="none" fill-rule="evenodd">
        <g transform="translate(-740.000000, -174.000000)" id="Banner">
            <g>
                <g id="Artwork">
                    <g id="Illustration-Group" transform="translate(740.000000, 137.000000)">
                        <g id="Banner1-Foreground" transform="translate(0.000000, 37.000000)">
                            <g id="Group-24" transform="translate(0.000000, 115.000000)">
                                <g id="Group" transform="translate(87.000000, 198.851746) scale(-1, 1) translate(-87.000000, -198.851746) translate(42.000000, 192.351746)" fill="#DCEDC8">
                                    <path d="M44.985739,0.412352892 C20.3660175,0.412352892 0.404798654,3.06732678 0.404798654,6.34444713 C0.404798654,9.62156749 20.3660175,12.2765414 44.985739,12.2765414 C69.6120964,12.2765414 89.5733153,9.62156749 89.5733153,6.34444713 C89.5733153,3.06732678 69.6120964,0.412352892 44.985739,0.412352892" id="Path"></path>
                                </g>
                                <g id="Group" transform="translate(74.000000, 139.351746)" fill="#FFD8D8">
                                    <path d="M13.6141563,8.52195977 L13.6206671,8.52195977 L10.7103238,0.170177384 L0.279965911,3.42972882 C0.279965911,3.42972882 5.13704893,11.5786074 6.9470611,13.8563662 C7.00565861,13.9349096 7.59814461,14.8250683 8.38595566,15.5319589 C14.6949549,21.2329013 31.9747114,36.9415829 33.6545068,37.8841038 C34.201417,36.8957659 35.2952373,34.9190902 35.2952373,34.9190902 C27.0850742,27.0647494 22.1433503,14.3145361 13.6141563,8.52195977" id="Path"></path>
                                </g>
                                <g id="Group" transform="translate(107.000000, 174.351746)" fill="#558B2F" fill-rule="nonzero">
                                    <path d="M6.17728005,3.77266725 C6.43671179,3.34222871 7.29213536,3.0763696 7.90215053,3.2852589 C8.27376896,2.68391093 8.37193233,2.52566147 8.38595566,2.50034155 C8.38595566,2.50034155 7.41133373,1.0064666 5.31484481,0.487408353 C3.9756161,0.151919487 4.09481447,0.563368096 4.22803617,0.993806642 C4.41033956,1.89899358 3.02904084,4.53859466 1.95625554,4.26640558 C1.66176546,4.97536319 -0.350583431,12.8371966 0.343571762,13.1853454 C1.46543874,13.7487135 1.95625554,12.9511362 2.29281564,12.4067581 C6.22636173,6.00081972 5.2727748,6.6274876 6.17728005,3.77266725" id="Path"></path>
                                </g>
                                <g id="Group" transform="translate(108.000000, 172.351746)" fill="#F7D3C9" fill-rule="nonzero">
                                    <path d="M0.53756126,4.04209711 C-0.498607546,3.19225691 0.521979775,-0.414207831 2.50082847,0.806991119 C2.9604823,1.08551018 3.45129911,1.27118955 3.92653442,1.32118015 L3.92653442,1.32118015 C4.121303,2.3424167 2.35280436,10.0552522 0.155814858,10.3551958 C0.179187087,9.3696668 1.79966161,4.6848334 0.53756126,4.04209711" id="Path"></path>
                                </g>
                                <g id="Group" transform="translate(58.000000, 147.351746)" fill="#FFD8D8" fill-rule="nonzero">
                                    <path d="M9.66102709,10.072262 L9.6676037,10.072262 L9.85832513,1.39982956 L0.249910844,0.351585098 C0.249910844,0.351585098 0.578740902,9.596971 1.37450964,12.3770976 C1.40081605,12.481271 1.59811408,13.5230046 2.05189956,14.4735865 C5.7150664,22.1498612 15.698347,43.244967 16.8952884,44.7619916 C17.7897061,44.0653322 19.571965,42.6785244 19.571965,42.6785244 C13.685907,28.6541855 15.3497871,18.6926077 9.66102709,10.072262" id="Path"></path>
                                </g>
                                <g id="Group" transform="translate(70.000000, 190.351746)" fill="#558B2F" fill-rule="nonzero">
                                    <path d="M9.95434351,4.47077346 C10.3956334,4.11629466 11.3288531,4.18140301 11.8063144,4.64439573 C12.4284609,4.15970023 12.5948489,4.02948353 12.6165517,4.00778074 C12.6165517,4.00778074 12.3561182,2.04729594 10.5909585,0.658317775 C9.469648,-0.224262099 9.40453965,0.260433406 9.3394313,0.759597433 C9.10070068,1.78686253 6.61934906,4.015015 5.72230066,3.29882314 C5.12909124,3.93543813 -0.260433406,11.40843 0.245964883,12.0522793 C1.06343641,13.0940129 1.88090793,12.4501636 2.43794605,12.0088737 C9.02835806,6.8363769 7.82747069,7.11851309 9.95434351,4.47077346" id="Path"></path>
                                </g>
                                <g id="Group" transform="translate(72.000000, 188.351746)" fill="#FFD8D8" fill-rule="nonzero">
                                    <path d="M3.19712612,3.25341424 C2.67222482,2.11752392 4.83318213,-0.792318553 5.97160444,1.00266861 C6.23746354,1.41635706 6.57149164,1.75992882 6.93960424,1.96326721 L6.93960424,1.96326721 C6.71464654,2.95892416 2.44045021,9.32551926 0.558985803,8.82769079 C0.933915306,7.94422054 3.98106962,4.27010619 3.19712612,3.25341424" id="Path"></path>
                                </g>
                                <g id="Group" transform="translate(58.000000, 54.351746)" fill="#212121" fill-rule="nonzero">
                                    <path d="M12.8941664,0.527544591 C5.34883193,3.16526755 -4.69051415,16.0800934 3.67771757,22.2637173 C10.2419054,27.1184631 9.39368826,17.455716 9.53294779,14.9582264 C9.65954736,12.454059 12.8941664,0.527544591 12.8941664,0.527544591" id="Path"></path>
                                </g>
                                <g id="Group" transform="translate(38.000000, 36.351746)" fill="#FFD8D8" fill-rule="nonzero">
                                    <path d="M26.3371629,37.9961487 C23.0249842,36.7864968 9.00832472,25.5073096 5.70950159,7.82677509 C5.72285715,7.15983185 6.2637573,6.99636537 6.2637573,5.22438872 C6.2637573,2.68085028 7.53253543,1.47773698 7.53253543,0.850025699 C7.53253543,-0.150389162 5.42903484,2.42584257 5.42903484,2.42584257 L0.661100184,2.42584257 C0.881466912,4.36782436 2.45074513,6.98328805 2.35057843,8.28448124 C2.02336723,12.4299912 7.11851309,33.6283244 24.1134623,46.6075629 C28.3872412,43.7763235 26.3371629,37.9961487 26.3371629,37.9961487" id="Path"></path>
                                </g>
                                <g id="Group" transform="translate(56.000000, 107.351746)" fill="#558B2F">
                                    <path d="M22.1693937,0.0651083514 L6.41968345,0.0651083514 C1.04173362,4.16042366 -0.423204284,30.0670367 0.905006085,43.6356171 C6.75173604,44.9768492 11.0293547,45.2437934 18.2173167,44.1434623 C26.2777306,42.9064036 30.3665351,39.9439736 35.9853858,32.1960798 C32.3262965,30.2298076 27.5473435,24.4351643 26.6618699,16.4528804 C25.7373313,8.06692474 24.3375018,0.0651083514 22.1693937,0.0651083514" id="Path"></path>
                                </g>
                                <g id="Group" transform="translate(57.000000, 72.351746)" fill="#8BC34A">
                                    <path d="M2.69114519,35.1975748 C1.77628938,35.2105964 2.19031172,33.4201168 2.38396733,31.8249622 C2.96493416,27.1046067 3.99331222,22.748858 3.16526755,20.1770781 C2.34390065,17.6052982 0.981633606,14.9163233 0.373955659,11.6478841 C0.968278047,8.95239832 2.65775629,4.25808618 4.20032339,1.62119795 C4.98830139,0.279965911 7.21867978,-0.46878013 12.5876146,1.90116386 C16.9882714,3.84139273 21.7895949,2.94289748 22.3972729,7.81951301 C22.7912619,10.9707572 21.4022837,15.6520477 20.393939,21.4076259 C19.8330055,24.5458485 22.2102951,33.4201168 20.5408502,33.9540053 C20.9281614,35.3994107 2.69114519,35.1975748 2.69114519,35.1975748" id="Path"></path>
                                </g>
                                <g id="Group" transform="translate(63.000000, 56.351746)" fill="#FFD8D8" fill-rule="nonzero">
                                    <path d="M9.78578522,18.1908788 C9.78578522,18.1908788 10.8861164,15.0932996 12.1427075,13.8305922 C12.1427075,13.8305922 15.5478743,10.8908515 16.3812612,7.23426127 C17.4490382,2.56487445 10.4498904,-0.434055676 8.09296808,0.105225618 C5.01334306,1.02594978 3.99765278,3.34748999 2.61735573,6.40560952 C2.61735573,6.40560952 0.585975163,9.06913299 0.514355976,9.25985442 C0.403671779,9.54264827 1.3151887,9.74652291 1.3151887,9.90436134 C1.32169953,10.0556232 0.572953492,11.7852693 0.918027755,12.6994168 C1.26961285,13.6135644 3.49631847,13.7122134 3.54189432,14.3698735 C3.56142682,14.8631186 3.34656926,16.4678093 2.73455076,17.197812 L2.73455076,17.197812 C4.15391282,19.1970988 7.0772778,20.0849399 9.78578522,18.1908788" id="Path"></path>
                                </g>
                                <g id="Group" transform="translate(45.000000, 78.351746)" fill="#FFD8D8" fill-rule="nonzero">
                                    <path d="M31.7661977,0.304592542 C27.1718853,-0.0518455391 25.756196,11.4902676 23.1385064,18.3533208 C22.2036173,20.7965419 14.9181597,30.485177 9.8029805,35.0087003 C9.26208035,35.2744087 8.76124688,34.8272409 7.19864644,35.3586577 C5.02836806,36.0974566 3.52586765,35.7539799 3.01835639,36.0132076 C2.22370062,36.4279719 5.16192366,36.9593887 5.16192366,36.9593887 C3.93988998,37.3287881 0.427377896,38.8128667 0.654422404,39.3702062 C0.881466912,39.9210651 4.22035673,38.4629093 5.34890149,37.879647 C4.32052342,38.4175445 0.7212002,40.4784046 1.0484114,40.556173 C2.00333389,40.7959586 4.74122354,39.4414939 5.74289048,38.9230385 C4.74122354,39.4414939 1.17528922,41.8004659 1.34223371,42.1115391 C1.46243374,42.3318827 3.43905651,41.4245857 6.29714619,39.7201636 C6.61767962,39.5322236 3.51918987,42.2217109 4.06009002,42.3772475 C4.47411235,42.5003807 9.36892482,39.0785751 11.031692,37.963896 C14.1568928,35.7345378 26.1301517,25.5857735 28.1334856,21.7686457 C31.2520087,15.8258508 34.1301317,7.21301063 34.4439873,3.92729959 C34.6042541,2.28120372 33.4089315,0.43420639 31.7661977,0.304592542" id="Path"></path>
                                </g>
                                <g id="Group" transform="translate(69.000000, 56.351746)" fill="#212121" fill-rule="nonzero">
                                    <path d="M10.0099917,1.37450964 C14.424004,4.16956513 15.5124821,8.42462608 12.6009702,13.5675282 C10.7779363,16.7703329 14.9181597,18.5788983 17.2553826,20.2427784 C19.5992832,21.9000818 25.2086181,20.3743104 26.3571962,27.3915438 C27.0049408,31.3506577 25.6894182,34.1062536 22.9915953,33.9023789 C21.7027838,33.8103065 22.484084,37.9141056 20.4473612,38.4402337 C15.6527155,39.6832114 16.2804267,33.4091339 13.909815,30.9626382 C11.6393699,28.6213682 2.03672279,28.5358724 2.60433406,19.1970988 L2.60433406,19.1970988 C2.67778963,17.1912354 3.32553426,15.2774445 4.34723454,13.9029348 C5.3756126,12.5218486 4.95491249,10.7198599 3.01167861,9.86490173 C0.834722454,8.90471796 -0.500833472,6.93173762 1.9031672,1.61784388 C3.15858977,-0.177568231 6.6243574,-0.776038936 10.0099917,1.37450964" id="Path"></path>
                                </g>
                                <g id="Group" transform="translate(68.000000, 58.351746)" fill="#212121">
                                    <path d="M2.99076418,8.03760876 C0.928396863,7.12781428 -0.364727339,5.29513476 1.59153748,0.536713288 C1.42575233,1.87195123 0.497355462,5.37367817 3.04381543,6.51255759 C5.33828196,7.53362189 7.87147912,9.10449005 6.50540945,12.1153207 C4.54251322,16.4417534 6.71098304,22.6663185 14.8344556,24.5186339 C22.1091081,26.1745907 16.0546343,36.6994074 20.9088236,36.1496036 C20.7430385,36.3001451 20.5440963,36.4179602 20.3053657,36.4768678 C15.544016,37.7139264 16.1673682,31.4697255 13.813219,29.0348798 C11.5585409,26.7047587 2.02257888,26.61967 2.5862484,17.331912 L2.5862484,17.3253668 C2.65919387,15.3356004 3.30244027,13.4243775 4.31704541,12.0564131 C5.33828196,10.6819035 4.92050337,8.88849568 2.99076418,8.03760876" id="Path"></path>
                                </g>
                                <g id="Group" transform="translate(28.915952, 31.465502) scale(-1, 1) rotate(30.402134) translate(-28.915952, -31.465502) translate(3.915952, 17.465502)" fill="#9C27B0">
                                    <rect id="Rectangle" x="0.48519553" y="0.193355292" width="49.2457569" height="27.4322401"></rect>
                                </g>
                                <g id="Group" transform="translate(0.000000, 5.351746)" fill="#9C27B0" fill-rule="nonzero">
                                    <polygon id="Path" points="0.246266311 25.6693849 27.7114406 25.0349958 41.65141 0.641066845"></polygon>
                                </g>
                                <g id="Group" transform="translate(21.816078, 19.500000) scale(-1, 1) rotate(170.354951) translate(-21.816078, -19.500000) translate(2.816078, 3.000000)" fill="#E1BEE7" fill-rule="nonzero">
                                    <polygon id="Path" points="0.198221966 0.54572186 32.3615719 0.54572186 37.900557 32.2387313 27.8665493 5.89329365"></polygon>
                                </g>
                            </g>
                            <g id="illustration2" transform="translate(186.000000, 0.000000)">
                                <polygon id="Fill-1" fill="#E1BEE7" opacity="0.403111049" points="202 281 241 281 241 150 202 150"></polygon>
                                <polygon id="Fill-2" fill="#E1BEE7" opacity="0.403111049" points="17 281 56 281 56 232 17 232"></polygon>
                                <polygon id="Fill-3" fill="#E1BEE7" opacity="0.403111049" points="63 281 102 281 102 212 63 212"></polygon>
                                <polygon id="Fill-4" fill="#E1BEE7" opacity="0.403111049" points="110 282 149 282 149 192 110 192"></polygon>
                                <polygon id="Fill-5" fill="#E1BEE7" opacity="0.403111049" points="155 281 194 281 194 171 155 171"></polygon>
                                <path d="M76.3673083,200.205032 C71.8590298,199.224701 57.7656581,202.013457 53.8225534,203.217026 L48.3584217,204.683427 C45.1462438,207.7258 32.807937,219.422877 29.8997292,224.777153 C26.9471749,230.21301 24,250.424499 24,250.424499 C25.0398728,250.545334 28.8606969,251 28.8606969,251 C29.7739183,246.704222 34.8756126,232.456987 36.6481269,229.743666 C38.3836578,227.088033 50.3834319,220.114434 51.0084516,219.635191 C50.7707491,225.327395 50.9361658,234.20124 51.2881807,239.161608 C53.3807697,239.300534 72.7953826,239.161608 72.7953826,239.161608 C73.5199214,235.561484 81.3109826,207.317215 76.3673083,200.205032" id="Fill-6" fill="#8BC34A"></path>
                                <path d="M20.4544356,257.393953 L21.2327679,253.852935 C21.2681091,253.683918 21.4139619,253.570778 21.5686582,253.570084 L21.6472272,253.580148 L21.6477882,253.580148 L30.2388447,255.667693 C30.3990847,255.705175 30.5071213,255.858227 30.5071213,256.021344 L30.4980468,256.10429 L29.7199125,259.646002 L31.1745131,260 L31.9526804,256.457594 C31.9845568,256.312871 32,256.165372 32,256.021344 C32,255.138085 31.4253006,254.345755 30.5748339,254.138215 L21.9842395,252.050323 L21.9846355,252.050323 C21.8458114,252.016312 21.7060633,252 21.5686582,252 C20.7292459,252 19.9762564,252.605267 19.7782333,253.498937 L19,257.040649 L20.4544356,257.393953 Z" id="Fill-7" fill="#FFC107"></path>
                                <path d="M110.413977,204 C110.877393,203.578966 111.381268,203.045423 111.616205,203.107617 C111.851143,203.169811 112.891873,203.461216 113.662986,202.445143 C115.432329,200.113906 115.109332,199.493361 114.588457,199.457023 C114.684336,198.97065 114.428319,198.566037 114.026102,198.64081 C114.091722,197.991614 113.734045,197.857442 113.403568,197.924877 C113.472588,197.752271 113.432128,197.42907 113.27131,197.328092 C112.695355,196.966457 112.1755,197.307127 111.542426,197.377707 C111.270089,197.407756 111.441447,196.947938 111.047051,197.004891 C110.360937,197.103424 109.691484,197.761006 109.296068,198.223619 C108.739493,198.874214 109.132869,200.263801 108.738133,200.671558 C108.343397,201.078966 108,201.591544 108,201.591544 C108.374676,201.978337 110.413977,204 110.413977,204" id="Fill-8" fill="#FFD8D8"></path>
                                <path d="M77,200 C80.8799002,205.252964 89.9133949,213.978739 92.4411779,213.571558 C94.6414106,213.21721 107.874581,201.738761 107.874581,201.738761 C109.421065,202.592831 111,204.713197 111,204.713197 C108.313005,208.791058 97.7005756,223.501039 91.7127248,222.986848 C85.725212,222.473666 77.4783114,216.544312 77.4783114,216.544312 L77,200 Z" id="Fill-9" fill="#8BC34A"></path>
                                <path d="M23.6849333,250 C23.6230731,250.616899 23.5445331,251.393669 23.2815498,251.492721 C23.018601,251.590729 22.0328013,251.936888 22.0041975,253.219689 C21.9381329,256.162382 22.666222,256.448067 23.1802645,256.150218 C23.4235008,256.592994 23.9405761,256.750434 24.2674528,256.439378 C24.650469,256.991285 25.0776661,256.872771 25.3427171,256.611762 C25.3953758,256.791445 25.6546372,257.020132 25.8754039,256.998584 C26.6638369,256.921775 26.9186181,256.327467 27.4652966,255.875654 C27.7001241,255.681375 27.8544816,256.150218 28.1855628,255.858972 C28.7624994,255.351551 28.9412563,254.414213 28.995776,253.802875 C29.0727652,252.942345 28.0739043,252.212841 27.9085877,251.661282 C27.7433056,251.107985 27.9256811,250.489348 27.9256811,250.489348 C27.3092849,250.420881 23.6849333,250 23.6849333,250" id="Fill-10" fill="#FFD8D8"></path>
                                <path d="M70,250.75426 C66.5297036,266.978954 63.4312004,274.515453 59.4920918,284.990546 C58.8865708,286.597664 57.9540347,288.010912 56.4936607,289.04805 C45.8334393,296.621325 28.5051266,305.389141 23.815579,308 C23.815579,308 22.5554849,305.554322 22,304.475496 C27.2881482,297.490281 34.989696,287.179481 48.049612,280.106764 C47.7392189,269.073563 48.8844507,247.400156 51.5582411,238 C56.8936098,238.530816 70,250.75426 70,250.75426" id="Fill-11" fill="#558B2F"></path>
                                <path d="M21,305.64959 C21.684573,305.291533 22.241889,305 22.241889,305 L24,308.4262 C22.8656586,309.075491 22.3563021,309.617601 21.9436202,310 C21.1475905,309.286439 21.3537508,307.524971 21,305.64959" id="Fill-12" fill="#FFD8D8"></path>
                                <path d="M20.14814,305.234004 C20.5063012,307.186732 20.2975706,309.020848 21.1035248,309.763838 C21.0057779,310.439321 22.1086976,319.022054 21.9912284,320.019775 C21.870001,321.040389 21.0444244,321.344015 20.646752,320.546778 C20.0644283,319.37972 15.6782258,309.555171 15.6782258,309.555171 C15.3774023,309.470295 15.095503,309.421262 15.095503,309.421262 L14,307.225889 C14.7654452,305.983486 18.1348677,304.396228 20.14814,305.234004" id="Fill-13" fill="#558B2F"></path>
                                <path d="M112.942808,281.992047 C112.632196,281.263831 112,279.48106 112,279.48106 L116.367488,279 C116.676966,280.405079 117.623936,281.111429 118,281.570622 C117.081783,282.281942 115.115203,281.86383 112.942808,281.992047" id="Fill-14" fill="#FFD8D8"></path>
                                <path d="M113.427439,282.438211 C115.382751,282.304887 117.152815,282.739653 117.979277,282 C118.629345,282.181554 127.167403,282.078547 128.129736,282.318667 C129.113521,282.566711 129.309325,283.4514 128.479458,283.764555 C127.265476,284.223436 117.106163,287.553044 117.106163,287.553044 C116.985956,287.852936 116.903208,288.137118 116.903208,288.137118 L114.619627,289 C113.497588,288.062808 112.358521,284.407746 113.427439,282.438211" id="Fill-15" fill="#558B2F"></path>
                                <path d="M72.7301903,238.531306 C90.04056,235.692164 101.947681,235.154657 106.860065,237.36016 C108.425057,238.06271 109.1887,239.453682 109.466913,241.247096 C112.271806,259.347657 115.183704,274.119118 116,279.499705 C116,279.499705 113.278333,279.846673 112.078517,280 C107.381503,272.521756 101.226161,260.989122 99.5395566,249.606714 C85.0439309,255.633688 67.2620593,258.889053 59.7920835,254.057689 C53.9567381,250.284111 51,244.331562 51,238.531306 L72.7301903,238.531306" id="Fill-16" fill="#558B2F"></path>
                                <path d="M67.7889941,196.891775 C68.147574,198.245103 69,201.103586 69,201.103586 C68.4940828,201.963934 64.9352663,202.461648 60.6656805,201.390126 C60.9181065,198.222894 60,193 60,193 L67.7889941,196.891775 Z" id="Fill-17" fill="#FFD8D8"></path>
                                <path d="M68.973945,183.279071 C69.6405375,185.688117 71.8253525,192.87179 70.6673973,195.648272 C69.7157294,197.927256 67.3922997,198.522895 63.4757827,197.552349 C59.5586117,196.582482 58.7589623,189.434806 58.074716,187.415948 C56.9926065,184.219054 68.0069118,179.784017 68.973945,183.279071" id="Fill-18" fill="#FFD8D8"></path>
                                <path d="M57.099412,182.785322 C60.5217971,176.763642 60.8548445,179.34539 60.4560962,180.319369 C64.2020929,176.483062 70.2622971,173.513504 71.9656265,174.066442 C73.6693053,174.620065 75.2052374,177.659511 72.6243823,180.962408 C70.0431778,184.266332 65.5996338,183.537989 64.0123293,184.195074 C62.4232774,184.851816 62.0269755,186.560648 62.2279223,187.245825 C62.2768484,187.413693 62.3166883,187.584645 62.3495387,187.757995 C62.2006634,187.682283 62.039906,187.619246 61.8627234,187.581562 C61.0040693,187.399305 60.1894487,187.7878 60.0426702,188.448996 C59.8962412,189.110877 60.4739193,189.795369 61.332923,189.978311 C61.7159449,190.059505 62.0867353,190.022163 62.3974165,189.902599 C62.1751519,191.609376 61.3797523,193.037285 60.5183024,192.999258 C59.2196622,192.941703 53.677027,188.806658 57.099412,182.785322" id="Fill-19" fill="#212121"></path>
                                <polygon id="Fill-20" fill="#6A1B9A" points="67.288449 201.183455 68.3056341 201 69 201.504404 67 202"></polygon>
                                <path d="M65.0015677,202.734174 C64.915853,202.570193 68.3728876,201.674383 68.5505175,202.125859 C68.7288768,202.577334 69.2741677,203.835753 68.8295459,203.984922 C68.3841947,204.134091 65.2116596,203.136984 65.0015677,202.734174" id="Fill-21" fill="#558B2F"></path>
                                <path d="M67,201.5805 C63.8600454,201.69628 60.7387316,200 60.7387316,200 L60,201.847979 C61.7035704,202.753368 63.5438406,203.894804 66.464247,204 C66.8353388,203.259461 67,202.198204 67,201.5805" id="Fill-22" fill="#558B2F"></path>
                                <path d="M67,201.016822 L68.4190122,203 C69.0152832,202.664701 69.2598107,200.994077 68.6311868,199.919213 C68.0021867,198.84435 67.697844,199.009064 67.697844,199.009064 C67.7888835,199.306578 67.9559146,200.633466 67,201.016822" id="Fill-23" fill="#558B2F"></path>
                                <polygon id="Fill-24" fill="#FFC107" points="6.12998655 254 44 262.634374 40.869911 276 3 267.365626"></polygon>
                                <polygon id="Fill-25" fill="#FF6F00" points="3.13001574 268 41 276.633918 37.8699501 290 0 281.366115"></polygon>
                                <polygon id="Fill-26" fill="#FFC107" points="31.8940741 272 34 272.560073 33.1059259 277 31 276.440293"></polygon>
                                <polygon id="Fill-27" fill="#E1BEE7" points="34.8866798 290 32 289.42339 32.1133202 289 35 289.576641"></polygon>
                                <polygon id="Fill-28" fill="#FFECB3" points="33.1135537 272 35 272.469846 34.8864463 273 33 272.529846"></polygon>
                                <path d="M68.773775,203 C69.7827608,204.137911 79.8038861,217.136624 64.8844394,229.693534 C62.9968233,229.811825 60,230 60,230 C60.1290012,229.014128 60.6859749,225.681186 60.6859749,225.681186 C62.7577817,225.1995 70.3742703,219.007803 69.9043131,212.168744 C69.4340174,205.330366 67.6669379,203.182379 67.6669379,203.182379 L68.773775,203 Z" id="Fill-29" fill="#558B2F"></path>
                                <path d="M143.844408,27.1899415 C144.086799,25.4835017 144.053869,23.6913229 143.689944,21.852438 C142.31572,14.8678781 136.243063,9.48733828 129.032461,8.85447096 C124.859885,8.48816189 120.976209,9.64613893 117.891674,11.8309824 L117.878773,11.835653 C115.217912,4.92215307 108.439811,0 100.473522,0 C91.4996494,0 84.0106723,6.23993161 82.2467228,14.5459398 C80.4349064,13.8306696 78.4347452,13.4730345 76.3386464,13.5701165 C69.5100979,13.8833808 63.7606615,19.2512432 63.0392279,25.9308792 L63.0243925,26.0823403 C62.7145472,29.2777031 65.3989007,32 68.6654662,32 L138.235823,32 C141.065407,32 143.455022,29.9442655 143.844408,27.1899415" id="Fill-30" fill="#FFECB3"></path>
                                <path d="M193.890436,108.542749 C194.061093,107.31606 194.037976,106.02795 193.781651,104.706402 C192.814821,99.6860174 188.541259,95.81896 183.467106,95.3641125 C180.531263,95.1010311 177.798372,95.933269 175.627426,97.503568 L175.618247,97.506639 C173.74612,92.5374379 168.976225,89 163.370383,89 C157.055397,89 151.78509,93.4850085 150.543918,99.4546695 C149.26909,98.9407907 147.861341,98.6838513 146.38628,98.7534604 C141.58103,98.9786663 137.535237,102.836852 137.027686,107.637831 L137.017147,107.746681 C136.799237,110.043439 138.688021,112 140.986791,112 L189.94391,112 C191.93502,112 193.616773,110.522513 193.890436,108.542749" id="Fill-31" fill="#FFECB3"></path>
                            </g>
                            <g id="illustration3" transform="translate(115.000000, 20.000000)">
                                <polygon id="Fill-1" fill="#FFC107" points="32.5756413 69 73 69 73 140 19 140 19 82.4116652"></polygon>
                                <polygon id="Fill-2" fill="#558B2F" points="33 82 20 82 33 69"></polygon>
                                <polygon id="Fill-3" fill="#DCEDC8" points="20 82 30.6069642 85 31 82"></polygon>
                                <polygon id="Fill-4" fill="#558B2F" points="54 92 57 92 57 89 54 89"></polygon>
                                <polygon id="Fill-5" fill="#558B2F" points="46 92 49 92 49 89 46 89"></polygon>
                                <polygon id="Fill-6" fill="#558B2F" points="38 92 41 92 41 89 38 89"></polygon>
                                <polygon id="Fill-7" fill="#558B2F" points="25 99 68 99 68 98 25 98"></polygon>
                                <polygon id="Fill-8" fill="#558B2F" points="25 103 68 103 68 102 25 102"></polygon>
                                <polygon id="Fill-9" fill="#558B2F" points="25 107 68 107 68 106 25 106"></polygon>
                                <path d="M48,133.634076 L51.4807284,133.634076 L52.8218194,135 L53.3657113,134.969059 L56.0124122,131.607118 L57.8978442,133.526558 L58.4417361,133.49475 L63.0389923,127.59756 L62.7560428,127.368469 L62.7560428,127.736612 C63.0241712,127.736612 63.2056182,127.780833 63.3291279,127.839841 C63.539319,127.942932 63.6336355,128.090426 63.727952,128.359997 C63.8581986,128.760907 63.8730198,129.358416 64.1119549,129.922018 C64.2354646,130.202769 64.4384697,130.479732 64.7573493,130.666246 C65.0694921,130.854219 65.4678671,130.949187 65.9686428,130.949187 L70,130.949187 L70,130.212307 L65.9686428,130.212307 C65.6493141,130.212307 65.4247509,130.166671 65.257676,130.100408 C64.9823616,129.981025 64.8588519,129.821802 64.7501633,129.564735 C64.5907235,129.179387 64.5763515,128.602551 64.3877184,128.052777 C64.2934019,127.77878 64.126327,127.497937 63.8510126,127.299102 C63.5756982,127.098579 63.2056182,126.999139 62.7560428,127 L62.4735424,127.139879 L58.1224073,132.71301 L56.2374245,130.795075 L55.6935326,130.825378 L53.0468316,134.188094 L51.8867385,133.005626 L51.6257962,132.897195 L48,132.897195 L48,133.634076 Z" id="Fill-10" fill="#558B2F"></path>
                                <path d="M13.9992531,112.401837 C13.3167283,112.401837 11.5725425,112.145691 9.83736375,111 C8.15609632,111.751677 1,115 1,115 L14,114.995239 L13.9992531,112.401837 Z" id="Fill-11" fill="#8BC34A"></path>
                                <path d="M14,117.594434 C13.3166751,117.594434 11.5727335,117.852359 9.83920394,119 C8.15729498,118.249491 1,115.004763 1,115.004763 L13.9985063,115 L14,117.594434 Z" id="Fill-12" fill="#558B2F"></path>
                                <path d="M9.27099155,115 C8.95769264,115 8.69268112,115.135954 8.58927588,115.326017 L0.631673221,115.328131 C0.23731029,115.436738 0,115.501805 0,115.501805 C0,115.501805 0.23731029,115.567424 0.631673221,115.675641 L8.58927588,115.674081 C8.6934875,115.864143 8.95864131,116 9.27165562,116 C9.67365536,115.999545 10.0008049,115.775924 10,115.499691 C10,115.22362 9.67299129,115 9.27099155,115" id="Fill-13" fill="#8BC34A"></path>
                                <path d="M57,119 C56.8900068,118.071056 56.824373,116.839822 56.824373,115.484927 C56.824373,114.144715 56.8900068,112.925319 56.992305,112 L14.4309682,112 C14.192197,112 13.9990979,113.566792 14,115.49961 C14,117.433345 14.1950034,119 14.4339104,119 L57,119 Z" id="Fill-14" fill="#558B2F"></path>
                                <path d="M13.6329575,115.562845 C13.6319166,113.854847 13.7881647,112.422146 14,112 C13.7698438,112.013315 13.5884045,112.025806 13.4656232,112.034424 C13.2084541,112.034424 12.9992732,113.586811 13,115.501937 C13.0008867,117.417014 13.2100676,118.968868 13.4690064,118.968868 C13.5815862,118.977486 13.746266,118.988332 13.9504503,119 C13.7655758,118.462283 13.6329575,117.127869 13.6329575,115.562845" id="Fill-15" fill="#8BC34A"></path>
                                <path d="M80.9423469,111 L56.5068024,111 C56.2236029,111 56,112.791173 56,114.999612 C56,117.208963 56.2236029,119 56.5068024,119 L80.9423469,119 C83.1876155,119 85,117.208963 85,114.999612 C85,112.791173 83.1876155,111 80.9423469,111" id="Fill-16" fill="#558B2F"></path>
                                <path d="M83.1761395,117 L59.8234051,117 C59.3675265,117 59,116.552172 59,115.999445 C59,115.447828 59.3675265,115 59.8234051,115 L83.1761395,115 C83.6324735,115 84,115.447828 84,115.999445 C84,116.552172 83.6324735,117 83.1761395,117" id="Fill-17" fill="#558B2F"></path>
                                <path d="M83.1765799,114 L59.8234201,114 C59.3675332,114 59,114.447828 59,114.999445 C59,115.552172 59.3675332,116 59.8234201,116 L83.1765799,116 C83.6324668,116 84,115.552172 84,114.999445 C84,114.447828 83.6324668,114 83.1765799,114 Z" id="Fill-18" fill="#8BC34A"></path>
                                <path d="M83.1765799,114 L59.8234201,114 C59.3675332,114 59,114.447828 59,114.999445 C59,115.552172 59.3675332,116 59.8234201,116 L83.1765799,116 C83.6324668,116 84,115.552172 84,114.999445 C84,114.447828 83.6324668,114 83.1765799,114 Z" id="Stroke-19" stroke="#8BC34A" stroke-width="0.216"></path>
                                <polygon id="Fill-20" fill="#558B2F" points="31 4 69 4 69 3 31 3"></polygon>
                                <polygon id="Fill-21" fill="#558B2F" points="29 10 64 10 64 9 29 9"></polygon>
                                <polygon id="Fill-22" fill="#558B2F" points="31 21 69 21 69 20 31 20"></polygon>
                                <polygon id="Fill-23" fill="#558B2F" points="29 27 64 27 64 26 29 26"></polygon>
                                <polygon id="Fill-24" fill="#558B2F" points="31 39 69 39 69 38 31 38"></polygon>
                                <polygon id="Fill-25" fill="#558B2F" points="29 44 64 44 64 43 29 43"></polygon>
                                <polygon id="Fill-26" fill="#558B2F" points="8 12 20 12 20 0 8 0"></polygon>
                                <polygon id="Fill-27" fill="#8BC34A" points="8 30 20 30 20 18 8 18"></polygon>
                                <polygon id="Fill-28" fill="#558B2F" points="8 47 20 47 20 35 8 35"></polygon>
                                <polygon id="Fill-29" fill="#FFFFFF" points="10 7.38923761 13.7547533 11 20 4.99503073 18.9660424 4 13.7547533 9.01131163 11.0337672 6.39512227"></polygon>
                                <polygon id="Fill-30" fill="#FFFFFF" points="17.003467 27 11 20.9968543 11.996533 20 18 26.0036044"></polygon>
                                <polygon id="Fill-31" fill="#FFFFFF" points="11 26.0036044 17.0035062 20 18 20.9963956 11.9964938 27"></polygon>
                            </g>
                        </g>
                    </g>
                </g>
            </g>
        </g>
    </g>
</svg>