<?xml version="1.0" encoding="UTF-8"?>
<svg width="286px" height="229px" viewBox="0 0 286 229" version="1.1" xmlns="http://www.w3.org/2000/svg" xmlns:xlink="http://www.w3.org/1999/xlink">
    <!-- Generator: Sketch 64 (93537) - https://sketch.com -->
    <title>Error</title>
    <desc>Created with Sketch.</desc>
    <g id="Utilities" stroke="none" stroke-width="1" fill="none" fill-rule="evenodd">
        <g id="404" transform="translate(-215.000000, -268.000000)">
            <g id="Container" transform="translate(215.000000, 210.000000)">
                <g id="Error" transform="translate(0.000000, 58.000000)">
                    <g id="Group-3" transform="translate(243.000000, 72.000000)" fill="#558B2F">
                        <g id="Group" transform="translate(21.000000, 3.000000)">
                            <path d="M0.468429164,6.28428764 C0.0733684233,5.8892269 0.0733684233,5.25430785 0.468429164,4.86206897 L5.02573699,0.30193928 C5.41797587,-0.0902995979 6.05571678,-0.0902995979 6.44795566,0.30193928 C6.8430164,0.697000021 6.8430164,1.33191907 6.44795566,1.72415795 L1.89064783,6.28428764 C1.69311746,6.47899615 1.43632798,6.57781856 1.1795385,6.57781856 C0.922749016,6.5805832 0.663137672,6.47899615 0.468429164,6.28428764" id="Path"></path>
                        </g>
                        <g id="Group" transform="translate(5.000000, 20.000000)">
                            <path d="M6.29275323,0.42892309 C6.68499211,0.821161968 6.68499211,1.45608102 6.29275323,1.85114176 L1.73262353,6.40844959 C1.53791503,6.60597996 1.28112554,6.70474514 1.0215142,6.70474514 C0.76472472,6.70474514 0.507935238,6.60597996 0.310404868,6.40844959 C-0.0818340106,6.01621071 -0.0818340106,5.38129166 0.310404868,4.98623092 L4.87053456,0.42892309 C5.26277344,0.0338623492 5.90051435,0.0338623492 6.29275323,0.42892309" id="Path"></path>
                        </g>
                        <g id="Group" transform="translate(21.000000, 20.000000)">
                            <path d="M6.45077752,4.98623092 C6.8430164,5.38129166 6.8430164,6.01621071 6.45077752,6.40844959 C6.25324715,6.60597996 5.99645767,6.70474514 5.73684633,6.70474514 C5.48005685,6.70474514 5.22326737,6.60597996 5.02573699,6.40844959 L0.468429164,1.85114176 C0.0733684233,1.45608102 0.0733684233,0.821161968 0.468429164,0.42892309 C0.860668042,0.0338623492 1.49840895,0.0338623492 1.89064783,0.42892309 L6.45077752,4.98623092 Z" id="Path"></path>
                        </g>
                        <g id="Group" transform="translate(5.000000, 3.000000)">
                            <path d="M0.310404868,1.72697981 C-0.0818340106,1.33191907 -0.0818340106,0.697000021 0.310404868,0.30193928 C0.705465608,-0.0902995979 1.34038466,-0.0902995979 1.73262353,0.30193928 L6.29275323,4.86206897 C6.68499211,5.25430785 6.68499211,5.89204876 6.29275323,6.28428764 C6.09522286,6.48181801 5.83843338,6.5805832 5.58164389,6.5805832 C5.32203255,6.5805832 5.06524307,6.48181801 4.87053456,6.28428764 L0.310404868,1.72697981 Z" id="Path"></path>
                        </g>
                        <g id="Group" transform="translate(23.000000, 14.000000)">
                            <path d="M8.56999621,1.14285429 C8.56999621,1.69593932 8.12132008,2.14743731 7.56541319,2.14743731 L1.11745752,2.14743731 C0.561550624,2.14743731 0.110052635,1.69876119 0.110052635,1.14285429 C0.110052635,0.586947386 0.561550624,0.135449397 1.11745752,0.135449397 L7.56541319,0.135449397 C8.12132008,0.135449397 8.56999621,0.586947386 8.56999621,1.14285429" id="Path"></path>
                        </g>
                        <g id="Group" transform="translate(0.000000, 14.000000)">
                            <path d="M0.163668021,1.14285429 C0.163668021,0.586947386 0.615166011,0.135449397 1.17107291,0.135449397 L7.61902857,0.135449397 C8.17211361,0.135449397 8.6236116,0.586947386 8.6236116,1.14285429 C8.6236116,1.69593932 8.17211361,2.14743731 7.61902857,2.14743731 L1.17107291,2.14743731 C0.615166011,2.14743731 0.163668021,1.69593932 0.163668021,1.14285429" id="Path"></path>
                        </g>
                        <g id="Group" transform="translate(15.000000, 21.000000)">
                            <path d="M2.13050614,1.19082595 L2.13050614,7.63595975 C2.13050614,8.19186665 1.67900815,8.64336463 1.12310125,8.64336463 C0.567194349,8.64336463 0.11569636,8.19186665 0.11569636,7.63595975 L0.11569636,1.19082595 C0.11569636,0.634919048 0.567194349,0.183421058 1.12310125,0.183421058 C1.67900815,0.183421058 2.13050614,0.634919048 2.13050614,1.19082595" id="Path"></path>
                        </g>
                        <g id="Group" transform="translate(15.000000, 0.000000)">
                            <path d="M2.13050614,1.13721056 L2.13050614,7.58234436 C2.13050614,8.13825126 1.67900815,8.58974925 1.12310125,8.58974925 C0.567194349,8.58974925 0.11569636,8.13825126 0.11569636,7.58234436 L0.11569636,1.13721056 C0.11569636,0.581303661 0.567194349,0.129805672 1.12310125,0.129805672 C1.67900815,0.129805672 2.13050614,0.581303661 2.13050614,1.13721056" id="Path"></path>
                        </g>
                    </g>
                    <g id="Group-4" transform="translate(133.000000, 154.000000)" fill="#558B2F">
                        <g id="Group" transform="translate(27.000000, 5.000000)">
                            <path d="M0.553085037,8.58692739 C0.0282186243,8.06206097 0.0282186243,7.21268038 0.553085037,6.68781397 L6.64266417,0.601056698 C7.16470872,0.0761902857 8.01691117,0.0761902857 8.54177759,0.601056698 C9.066644,1.12592311 9.066644,1.9753037 8.54177759,2.50017012 L2.45219846,8.58692739 C2.19258711,8.85218246 1.84831989,8.98198813 1.50405268,8.98198813 C1.15978546,8.98198813 0.815518243,8.84936059 0.553085037,8.58692739" id="Path"></path>
                        </g>
                        <g id="Group" transform="translate(6.000000, 27.000000)">
                            <path d="M8.48534034,0.54461945 C9.01020675,1.06948586 9.01020675,1.92168832 8.48534034,2.44373287 L2.39858307,8.533312 C2.13614986,8.79574521 1.79188265,8.92555088 1.44761543,8.92555088 C1.10334821,8.92555088 0.761902857,8.79574521 0.499469651,8.533312 C-0.0253967619,8.00844559 -0.0253967619,7.15906499 0.499469651,6.63419858 L6.58622692,0.54461945 C7.11109333,0.019753037 7.96047393,0.019753037 8.48534034,0.54461945" id="Path"></path>
                        </g>
                        <g id="Group" transform="translate(27.000000, 27.000000)">
                            <path d="M8.54177759,6.63419858 C9.066644,7.15906499 9.066644,8.00844559 8.54177759,8.533312 C8.27934438,8.79574521 7.93507716,8.92837274 7.59080995,8.92837274 C7.24654273,8.92837274 6.90509738,8.79574521 6.64266417,8.533312 L0.553085037,2.44655473 C0.0282186243,1.92168832 0.0282186243,1.06948586 0.553085037,0.54461945 C1.07795145,0.0225748995 1.9301539,0.0225748995 2.45219846,0.54461945 L8.54177759,6.63419858 Z" id="Path"></path>
                        </g>
                        <g id="Group" transform="translate(6.000000, 5.000000)">
                            <path d="M8.48534034,6.68781397 C9.01020675,7.21268038 9.01020675,8.06206097 8.48534034,8.58692739 C8.22290713,8.85218246 7.88146178,8.98198813 7.53719456,8.98198813 C7.19292734,8.98198813 6.84866013,8.85218246 6.58622692,8.58692739 L0.499469651,2.50017012 C-0.0253967619,1.9753037 -0.0253967619,1.12592311 0.499469651,0.601056698 C1.02433606,0.0761902857 1.87371666,0.0761902857 2.39858307,0.601056698 L8.48534034,6.68781397 Z" id="Path"></path>
                        </g>
                        <g id="Group" transform="translate(30.000000, 19.000000)">
                            <path d="M11.3777493,1.61410531 C11.3777493,2.35625513 10.7766926,2.95731183 10.0345428,2.95731183 L1.42786239,2.95731183 C0.682890709,2.95731183 0.0818340106,2.35625513 0.0818340106,1.61410531 C0.0818340106,0.871955492 0.682890709,0.270898794 1.42786239,0.270898794 L10.0345428,0.270898794 C10.7766926,0.270898794 11.3777493,0.871955492 11.3777493,1.61410531" id="Path"></path>
                        </g>
                        <g id="Group" transform="translate(0.000000, 19.000000)">
                            <path d="M10.153061,2.95731183 L1.54355875,2.95731183 C0.801408931,2.95731183 0.200352233,2.35625513 0.200352233,1.61410531 C0.200352233,0.871955492 0.801408931,0.270898794 1.54355875,0.270898794 L10.153061,0.270898794 C10.8952109,0.270898794 11.4962676,0.871955492 11.4962676,1.61410531 C11.4962676,2.35625513 10.8952109,2.95731183 10.153061,2.95731183" id="Path"></path>
                        </g>
                        <g id="Group" transform="translate(19.000000, 30.000000)">
                            <path d="M2.75978146,1.45890288 L2.75978146,10.0684052 C2.75978146,10.810555 2.1559029,11.4116117 1.41657494,11.4116117 C0.674425122,11.4116117 0.0733684233,10.810555 0.0733684233,10.0684052 L0.0733684233,1.45890288 C0.0733684233,0.719574921 0.674425122,0.11569636 1.41657494,0.11569636 C2.1559029,0.11569636 2.75978146,0.716753058 2.75978146,1.45890288" id="Path"></path>
                        </g>
                        <g id="Group" transform="translate(19.000000, 0.000000)">
                            <path d="M2.75978146,1.34320652 L2.75978146,9.94988694 C2.75978146,10.6920368 2.1559029,11.2959153 1.41657494,11.2959153 C0.674425122,11.2959153 0.0733684233,10.6920368 0.0733684233,9.94988694 L0.0733684233,1.34320652 C0.0733684233,0.601056698 0.674425122,0 1.41657494,0 C2.1559029,0 2.75978146,0.601056698 2.75978146,1.34320652" id="Path"></path>
                        </g>
                    </g>
                    <g id="Group-5" transform="translate(22.000000, 74.000000)" fill="#558B2F">
                        <g id="Group" transform="translate(15.000000, 2.000000)">
                            <path d="M0.225748995,4.68993537 C-0.0677246984,4.39646167 -0.0677246984,3.91956692 0.225748995,3.62891509 L3.63173695,0.225748995 C3.92238878,-0.0705465608 4.39928353,-0.0705465608 4.69275723,0.225748995 C4.98623092,0.516400825 4.98623092,0.993295577 4.69275723,1.28676927 L1.28959113,4.68993537 C1.14285429,4.83667221 0.95096764,4.91004063 0.759080995,4.91004063 C0.567194349,4.91004063 0.372485841,4.83667221 0.225748995,4.68993537" id="Path"></path>
                        </g>
                        <g id="Group" transform="translate(3.000000, 14.000000)">
                            <path d="M4.77176938,1.36578142 L1.36691016,4.76894751 C1.2204555,4.91568436 1.0277223,4.98905278 0.835553467,4.98905278 C0.643384635,4.98905278 0.450651431,4.91568436 0.30419677,4.76894751 C0.010440891,4.47547382 0.010440891,3.99857907 0.30419677,3.70510538 L3.70792724,0.30193928 C4.00140093,0.0084655873 4.47829568,0.0084655873 4.77176938,0.30193928 C5.06524307,0.595412974 5.06524307,1.06948586 4.77176938,1.36578142" id="Path"></path>
                        </g>
                        <g id="Group" transform="translate(15.000000, 14.000000)">
                            <path d="M0.225748995,1.36578142 C-0.0677246984,1.06948586 -0.0677246984,0.595412974 0.225748995,0.30193928 C0.519222688,0.0084655873 0.996117439,0.0084655873 1.28959113,0.30193928 L4.69275723,3.70510538 C4.98623092,3.99857907 4.98623092,4.47547382 4.69275723,4.76894751 C4.54602038,4.91568436 4.35413374,4.98905278 4.16224709,4.98905278 C3.97036044,4.98905278 3.77565194,4.91568436 3.63173695,4.76894751 L0.225748995,1.36578142 Z" id="Path"></path>
                        </g>
                        <g id="Group" transform="translate(3.000000, 2.000000)">
                            <path d="M0.304761143,1.28676927 C0.0112874497,0.993295577 0.0112874497,0.516400825 0.304761143,0.225748995 C0.597670463,-0.0677246984 1.07400084,-0.0677246984 1.36775672,0.225748995 L4.77176938,3.62891509 C5.06524307,3.92238878 5.06524307,4.39928353 4.77176938,4.68993537 C4.62503253,4.83667221 4.43314588,4.91004063 4.23843738,4.91004063 C4.04655073,4.91004063 3.85466408,4.83667221 3.70792724,4.68993537 L0.304761143,1.28676927 Z" id="Path"></path>
                        </g>
                        <g id="Group" transform="translate(17.000000, 10.000000)">
                            <path d="M0.914283429,0.259611344 L5.72838074,0.259611344 C6.14601638,0.259611344 6.48181801,0.595412974 6.48181801,1.01304861 C6.48181801,1.42786239 6.14601638,1.76366402 5.72838074,1.76366402 L0.914283429,1.76366402 C0.499469651,1.76366402 0.163668021,1.42786239 0.163668021,1.01304861 C0.163668021,0.595412974 0.499469651,0.259611344 0.914283429,0.259611344" id="Path"></path>
                        </g>
                        <g id="Group" transform="translate(0.000000, 10.000000)">
                            <path d="M5.77578803,1.76366402 L0.961972904,1.76366402 C0.546594753,1.76366402 0.210228751,1.42786239 0.210228751,1.01304861 C0.210228751,0.598234836 0.546594753,0.259611344 0.961972904,0.259611344 L5.77578803,0.259611344 C6.19031962,0.259611344 6.52696781,0.598234836 6.52696781,1.01304861 C6.52696781,1.42786239 6.19031962,1.76366402 5.77578803,1.76366402" id="Path"></path>
                        </g>
                        <g id="Group" transform="translate(11.000000, 15.000000)">
                            <path d="M0.0536153862,5.70016212 L0.0536153862,0.886064804 C0.0536153862,0.471251026 0.389417016,0.132627534 0.804230794,0.132627534 C1.22186643,0.132627534 1.55766806,0.471251026 1.55766806,0.886064804 L1.55766806,5.70016212 C1.55766806,6.11497589 1.22186643,6.45077752 0.804230794,6.45077752 C0.389417016,6.45077752 0.0536153862,6.11497589 0.0536153862,5.70016212" id="Path"></path>
                        </g>
                        <g id="Group" transform="translate(11.000000, 0.000000)">
                            <path d="M0.0536153862,5.65219046 L0.0536153862,0.838093143 C0.0536153862,0.423279365 0.389417016,0.0874777354 0.804230794,0.0874777354 C1.22186643,0.0874777354 1.55766806,0.423279365 1.55766806,0.838093143 L1.55766806,5.65219046 C1.55766806,6.06700423 1.22186643,6.40280586 0.804230794,6.40280586 C0.389417016,6.40280586 0.0536153862,6.06700423 0.0536153862,5.65219046" id="Path"></path>
                        </g>
                    </g>
                    <g id="Group-6" transform="translate(15.000000, 68.000000)">
                        <g id="Group" transform="translate(14.000000, 39.000000)" fill="#8BC34A">
                            <path d="M40.9313028,16.9727066 C43.2895982,21.5423872 45.3255565,29.6231883 46.9096919,37.6187546 L43.6725457,37.6187546 C42.4465627,32.7988688 38.1459796,29.1750186 32.9307305,28.9248135 C32.7378792,28.916565 32.5450279,28.911066 32.3494216,28.911066 C31.7598478,28.911066 31.181294,28.9605571 30.6137603,29.0430423 C28.7183079,29.323492 26.9716265,30.0548609 25.4866717,31.1161706 C25.6299327,30.5277761 25.7153382,29.914636 25.7153382,29.2794999 C25.7153382,24.9325294 22.1338148,21.4104109 17.7202759,21.4104109 C14.4638446,21.4104109 11.6675013,23.3323163 10.4222332,26.0845728 C9.95388012,20.7890223 5.65880702,16.5795271 0.272746784,16.1478545 C0.537228515,14.9765646 0.757629957,13.8080241 0.89262584,12.7164698 C9.42767168,4.75939659 20.4257036,-1.50947934 32.9114453,0.646134142 C34.1208982,0.855096673 35.2780058,1.0640592 36.4103182,1.27302173 C37.2010084,6.59331775 38.5647423,12.3892785 40.9313028,16.9727066" id="Path"></path>
                        </g>
                        <g id="Group" transform="translate(0.000000, 69.000000)" fill="#558B2F">
                            <path d="M0.31774171,0.0761902857 C0.732837674,0.182548667 1.1507555,0.270409939 1.57149519,0.349022656 C1.03110853,0.436883927 0.508499611,0.617230748 0.0064902836,0.876190286 C0.108077331,0.612606471 0.212768428,0.344398378 0.31774171,0.0761902857" id="Path"></path>
                        </g>
                        <g id="Group" transform="translate(88.000000, 0.000000)" fill="#8BC34A">
                            <path d="M156.390438,69.2061405 C155.750502,71.6815211 155.233631,74.3576825 154.796068,76.9925876 L10.4304048,76.9925876 C9.36384534,71.3679729 7.5944505,64.1178581 4.72020942,57.1840421 C3.21882184,53.5617351 1.67641273,49.4883589 0.218781433,45.4562389 C5.90709869,44.6421137 12.254495,42.6260538 20.7131322,38.8002155 C47.1473988,26.8468777 64.2697808,-8.93612393 94.7405649,2.37636537 C118.587741,11.2299766 145.724843,51.9334848 156.390438,69.2061405" id="Path"></path>
                        </g>
                        <g id="Group" transform="translate(107.500000, 19.500000) scale(-1, 1) translate(-107.500000, -19.500000) translate(106.000000, 18.000000)" fill="#558B2F">
                            <rect id="Rectangle" x="0.242680169" y="0.0253967619" width="2.01565634" height="2.01565634"></rect>
                        </g>
                        <g id="Group" transform="translate(107.500000, 17.500000) scale(-1, 1) translate(-107.500000, -17.500000) translate(106.000000, 16.000000)" fill="#558B2F">
                            <rect id="Rectangle" x="0.242680169" y="0.0677246984" width="2.01565634" height="2.80295596"></rect>
                        </g>
                        <g id="Group" transform="translate(106.500000, 22.500000) scale(-1, 1) rotate(-90.000000) translate(-106.500000, -22.500000) translate(105.000000, 21.000000)" fill="#558B2F">
                            <rect id="Rectangle" x="0.129805672" y="0.155202434" width="2.80436689" height="2.01565634"></rect>
                        </g>
                        <g id="Group" transform="translate(104.500000, 19.500000) scale(-1, 1) rotate(90.000000) translate(-104.500000, -19.500000) translate(103.000000, 18.000000)" fill="#558B2F">
                            <rect id="Rectangle" x="0.0902995979" y="0.185184722" width="2.01565634" height="2.62909396"></rect>
                        </g>
                        <g id="Group" transform="translate(109.500000, 19.500000) scale(-1, 1) rotate(-90.000000) translate(-109.500000, -19.500000) translate(108.000000, 18.000000)" fill="#558B2F">
                            <rect id="Rectangle" x="0.112874497" y="0.185184722" width="2.01565634" height="2.62909396"></rect>
                        </g>
                        <g id="Group" transform="translate(17.000000, 100.000000)" fill="#558B2F">
                            <path d="M2.08622855,4.83949407 C2.08622855,4.15942523 2.30787302,3.50757501 2.69298028,3.05043329 C3.11964588,2.54531992 3.7208565,2.28853043 4.47721824,2.28853043 C6.36396677,2.28853043 6.86820794,3.89417016 6.86820794,4.83949407 C6.86820794,5.52238478 6.64933403,6.17423501 6.26422676,6.63137672 C5.83756116,7.1364901 5.23635055,7.39327958 4.47721824,7.39327958 C2.59046971,7.39327958 2.08622855,5.78763985 2.08622855,4.83949407 Z M7.76309748,7.94354275 C8.4640481,7.11673706 8.84915537,6.01338885 8.84915537,4.83949407 C8.84915537,2.57071668 7.3475141,0.273720656 4.47721824,0.273720656 C3.13626922,0.273720656 2.00034132,0.778834032 1.19133901,1.7354454 C0.49315894,2.56507295 0.108051678,3.66842116 0.108051678,4.83949407 C0.108051678,7.11109333 1.60969295,9.40808935 4.47721824,9.40808935 C5.82093783,9.40808935 6.95686572,8.90297598 7.76309748,7.94354275" id="Shape"></path>
                        </g>
                    </g>
                    <g id="Group-7" transform="translate(11.000000, 0.000000)">
                        <g id="Group" transform="translate(65.000000, 11.000000)" fill="#FFD8D8">
                            <path d="M78.755806,31.4283772 C75.564142,38.5628781 67.7046012,48.2575022 61.9710241,53.2030705 C58.7195504,58.4352198 46.2872848,59.1011793 34.9914039,57.4117164 C33.7924909,57.6737333 32.5011447,57.8702459 31.1445516,58.0067131 C24.0897234,58.708154 15.2351665,57.7528842 8.0879051,55.8996608 L9.18622902,50.2881329 L11.5568688,38.1643941 C14.8899013,38.4318697 19.6746787,39.5590881 22.8445938,40.3833495 C24.7965655,40.8910071 26.1395656,41.2840324 26.1395656,41.2840324 C26.1395656,41.2840324 27.9338571,41.8872171 30.3507135,42.8643217 C31.3457297,43.2682643 32.441335,43.7322525 33.5641265,44.2480982 L33.871331,42.5013191 C33.871331,41.0383916 33.6076245,39.6600737 33.1536144,38.4236817 C34.9451873,38.6911572 36.9216266,39.0978292 38.7594162,39.5236066 C43.0059062,35.8226184 48.1441047,31.9032828 48.1441047,31.9032828 C48.1441047,31.9032828 50.3597829,29.8944868 52.9316008,27.9457364 C51.9528963,26.8894809 51.3493619,25.4402001 51.3493619,23.8435348 C51.3493619,23.3822759 51.4037344,22.9373931 51.4961676,22.5088864 C51.5532587,22.2550576 51.6239429,22.0094167 51.7109388,21.771964 C52.496621,19.563926 54.497528,17.9918248 56.8491374,17.9918248 C59.8885585,17.9918248 62.3516314,20.6119935 62.3516314,23.8408055 C62.3516314,24.2420188 62.3135707,24.6323147 62.2428865,25.008964 C62.1640464,25.4101773 62.0498642,25.7950146 61.9003399,26.1607465 C61.5768237,26.9577144 61.0874715,27.6618848 60.4812184,28.229588 C59.4508601,32.3918351 55.7589693,38.2817559 51.5342283,43.6039734 C52.0942647,43.8468849 52.6733316,44.1034431 53.2523984,44.373648 C56.0389875,40.6863065 67.5632328,31.9032828 67.5632328,31.9032828 C67.5632328,31.9032828 69.4173341,30.2220079 71.7036965,28.4424767 L76.5020671,29.5587777 C77.2116279,30.2301959 77.9646866,30.8552153 78.755806,31.4283772 Z M6.55206804,0.439588576 C6.34397048,0.50922792 6.1281656,0.563391855 5.92777536,0.633031199 L5.92777536,0.656244314 C6.13587292,0.578867264 6.34397048,0.50922792 6.55206804,0.439588576 Z M6.27050718,0.452730147 C6.00625631,0.561058015 5.74751066,0.708074409 5.49977547,0.839615392 C5.68695317,0.731287524 5.88514132,0.661648179 6.07231902,0.56879572 C6.13838174,0.522369491 6.20444446,0.475943261 6.27050718,0.452730147 Z M0.432261147,32.9377035 L0.432261147,21.3298105 C0.296329969,21.1005457 0.165836037,20.8685516 0.0489352242,20.6283695 C0.0489352242,20.6283695 -0.133212555,13.4119883 1.80788467,12.2902286 C2.87630373,11.6733972 3.9229738,15.6527784 4.10240296,16.3733248 C4.12143332,16.4442877 4.13230782,16.4934158 4.13230782,16.4934158 C4.13230782,16.4934158 4.14318231,16.4442877 4.15405681,16.3733248 C4.21658515,16.0212396 4.39873293,14.9131266 4.39873293,14.0970533 C4.39873293,13.11449 4.44766815,11.4768846 6.63072287,9.0859807 C7.6719557,7.94238625 7.5795225,6.14647898 7.20163382,4.57983647 C8.40598406,5.75891237 10.72497,7.49750345 14.9687413,9.0859807 C16.6271017,9.70827075 18.0842839,9.96209959 19.3430067,9.94845288 C19.3430067,9.96209959 19.3430067,9.97028762 19.3430067,9.98393433 L19.3430067,16.1249546 C19.3430067,21.2397422 18.7911261,25.4620348 14.5011381,26.2044159 L14.5011381,32.9377035 L0.432261147,32.9377035 Z M15.8577313,13.122678 C15.9148223,13.6958399 16.2410572,14.1325347 16.5944782,14.0943239 C16.9424621,14.0561131 17.1844196,13.5593728 17.1300471,12.9834816 C17.072956,12.4103197 16.7467212,11.9763542 16.3933001,12.014565 C16.0425977,12.0527758 15.8006402,12.5467868 15.8577313,13.122678 Z M8.53919662,13.122678 C8.59628771,13.6958399 8.92252254,14.1325347 9.2759436,14.0943239 C9.62392742,14.0561131 9.86588491,13.5593728 9.81151244,12.9834816 C9.75442135,12.4103197 9.42818652,11.9763542 9.07476546,12.014565 C8.72406302,12.0527758 8.48210552,12.5467868 8.53919662,13.122678" id="Shape"></path>
                        </g>
                        <g id="Group" transform="translate(164.000000, 0.000000)" fill="#9C27B0">
                            <path d="M20.9485191,13.5819587 C21.6143375,12.1943198 22.3654467,10.8884671 23.2018468,9.68075779 C23.265127,9.58806678 23.3339099,9.50082819 23.3971902,9.40813718 C26.2943258,5.3351853 30.1104009,2.40451376 34.4134589,1.19953068 C35.764355,0.82058803 37.1620235,0.610670162 38.5954591,0.588860513 C33.4064773,-0.0190834426 27.5901956,-0.0654289459 21.1521164,0.588860513 C17.7679979,0.932362479 14.5627149,2.14007177 11.7178543,4.04568982 L9.21965949,4.38919179 C9.80844109,4.44371591 10.3889687,4.50641865 10.9612424,4.5718476 C8.34198973,6.48837047 6.05289492,9.02101592 4.26178829,12.0498309 C3.4501501,13.4156601 2.74306193,14.8850852 2.14602638,16.4417489 C0.789627656,19.9912692 0.0247618429,24.0015183 0.0247618429,28.3389122 C0.0247618429,30.9996893 0.316401325,33.5432396 0.850156605,35.9450272 C0.877669763,36.0677064 0.902431606,36.1903857 0.929944765,36.3103388 C1.95618559,40.6968044 3.81057248,44.5734694 6.2564923,47.7086064 C5.56866333,47.7494995 4.86707778,47.7876664 4.15173565,47.8176546 L6.85077652,48.4365034 C10.617328,52.9129338 15.6412307,55.7181999 21.1521164,56.0862377 C27.1004613,56.4815376 32.3664799,56.4242872 37.0162038,55.9826419 C34.7628761,55.7291047 32.611347,55.0066601 30.6138917,53.8970942 C26.8308324,51.7924631 23.6117928,48.2865621 21.3364546,43.8701082 C20.965027,43.1503898 20.6183612,42.4061356 20.3019598,41.6400717 C20.1148703,41.1984263 19.9415374,40.7486023 19.7737072,40.2933259 C19.2867243,38.9493063 18.8740269,37.5507625 18.5521229,36.1004209 C18.0073624,33.6359306 17.7129716,31.0324038 17.7129716,28.3389122 C17.7129716,23.230002 18.7667256,18.4455103 20.6018533,14.3371178 C20.7119059,14.0808544 20.8302125,13.8300434 20.9485191,13.5819587" id="Path"></path>
                        </g>
                        <g id="Group" transform="translate(112.000000, 8.000000)" fill="#9C27B0">
                            <path d="M32.3843573,0.0520835181 L9.30119057,3.27029669 L9.30119057,3.81306177 C6.66913988,4.64091558 4.37670863,6.20616236 2.74708308,8.30595051 C1.13389072,10.38655 0.169809722,12.9879847 0.169809722,15.9211091 C0.169809722,19.9041276 1.9445952,23.3361573 4.71358921,25.6333146 C5.50786049,23.4183945 7.52366622,21.8394415 9.89278573,21.8394415 C12.9520996,21.8394415 15.4335126,24.4682885 15.4335126,27.7139141 C15.4335126,28.1141348 15.3951685,28.508873 15.323958,28.8871639 C15.2472697,29.2873846 15.1294984,29.6738991 14.9815996,30.041225 L24.8552133,32.3328998 L29.6893126,33.454066 C28.7745312,32.5850936 27.9309604,31.6421078 27.1777721,30.6223674 C27.1668166,30.6086612 27.1558611,30.5922138 27.1449057,30.5757663 C24.5375048,27.0286046 22.9927841,22.6371417 22.9927841,17.7714446 C22.9927841,12.8920413 24.5511991,8.5444382 27.1722943,5.03291259 C28.6129381,3.10033994 30.379507,1.42544365 32.3843573,0.0520835181" id="Path"></path>
                        </g>
                        <g id="Group" transform="translate(216.000000, 0.000000)" fill="#9C27B0">
                            <path d="M14.3767905,55.9826419 C20.2927824,56.3779417 25.530159,56.3206914 30.154593,55.879046 C27.9135212,55.6255089 25.7736943,54.9030642 23.7871032,53.7907722 C20.0246199,51.6888673 16.8230887,48.1829663 14.5601261,43.7665124 C12.286218,39.3337013 10.9563512,33.9903374 10.9563512,28.2353164 C10.9563512,21.0490371 13.0250329,14.5061426 16.4181087,9.57716196 C19.3213776,5.35972115 23.1905785,2.32817999 27.5687409,1.09593484 C28.9122894,0.716992199 30.302356,0.507074331 31.7252587,0.485264682 C26.5672362,-0.122679274 20.7798529,-0.169024777 14.3767905,0.485264682 C11.0110782,0.831492854 7.82596515,2.03647594 4.99657775,3.94209399 C4.74209706,4.11384497 4.49035273,4.28559596 4.2440811,4.46825177 C3.04008646,5.35426874 1.90723696,6.37386982 0.861950707,7.51069775 C4.87070558,12.5650838 7.37446716,19.6886603 7.37446716,27.5864793 C7.37446716,35.4079646 4.92269626,42.4688383 0.979613819,47.5095934 C0.752496649,47.8012974 0.522643127,48.087549 0.284580551,48.3628959 C0.268162442,48.3847055 0.249007982,48.4065152 0.229853522,48.4283248 C3.9677096,52.8475049 8.93418749,55.6173302 14.3767905,55.9826419" id="Path"></path>
                        </g>
                        <g id="Group" transform="translate(0.000000, 134.000000)" fill="#558B2F">
                            <path d="M7.15934718,0.948145778 C7.15934718,0.665959534 7.18135771,0.389417016 7.20167512,0.11569636 C3.78722157,0.694178159 -3.36337783,2.19823084 2.06052395,3.91674506 C3.03011588,4.22432806 4.06009567,4.45007706 5.11406129,4.61374508 C5.52943944,4.67864792 5.94735727,4.73508516 6.36781477,4.78023496 C6.62855486,4.7548382 6.89183462,4.74072889 7.15934718,4.74072889 C7.39525488,4.74072889 7.62551886,4.7548382 7.85408971,4.77459124 C7.47313828,3.74461145 7.24400305,2.64126324 7.18474394,1.49558709 C7.1754318,1.31216603 7.15934718,1.13156684 7.15934718,0.948145778" id="Path"></path>
                        </g>
                        <g id="Group" transform="translate(239.000000, 206.000000)" fill="#FFC107">
                            <path d="M1.29241299,0.101587048 C1.33191907,0.62645346 1.35731583,1.15414174 1.35731583,1.68747374 C1.35731583,4.25536855 0.874777354,6.70474514 0.0338623492,8.98480999 C0.468429164,8.94530392 0.908639704,8.91708529 1.35731583,8.91708529 C1.86525107,8.91708529 2.36754258,8.94248205 2.86419037,8.99045371 C5.70016212,8.68287071 8.49944965,8.16364802 11.0758101,7.34530792 C21.4038266,4.07194749 7.80527149,1.20775712 1.29241299,0.101587048" id="Path"></path>
                        </g>
                        <g id="Group" transform="translate(45.000000, 45.000000)" fill="#E1BEE7">
                            <path d="M9.2299089,61.1797412 L44.1522706,61.1797412 L44.2475084,60.627538 L50.4923908,25.1033764 C43.433905,25.805932 34.5686211,24.8518779 27.4148974,22.992976 L28.5142144,17.3725315 L30.8897187,5.23226205 C34.2257648,5.49742894 39.0121474,6.62917214 42.1849286,7.45474327 C44.1413862,7.96320761 45.4828795,8.35412374 45.4828795,8.35412374 C45.4828795,8.35412374 47.2787934,8.95826685 49.6978349,9.93965769 C50.6937508,10.3415085 51.7903467,10.8089677 52.9141534,11.3256331 L53.2216357,9.57334467 C53.2216357,8.11082628 52.9576907,6.73031827 52.5032701,5.49196158 C51.3087153,2.24981801 48.7454564,0 45.7685931,0 L33.833929,0 L7.55100153,0 C3.43400502,0 0.0979589388,4.28640904 0.0979589388,9.57334467 L9.16732402,61.1797412 L9.2299089,61.1797412 L9.2299089,61.1797412 Z" id="Path"></path>
                        </g>
                        <g id="Group" transform="translate(83.000000, 193.000000)" fill="#6A1B9A">
                            <path d="M23.6460314,27.6624823 L23.5225749,0.161865165 L0.307269465,0.161865165 C-0.732508457,0.161865165 12.1508613,31.8572592 13.2619696,34.5897626 L13.2619696,34.7104756 L13.3113522,34.7132191 C13.327813,34.7516278 13.338787,34.7790626 13.338787,34.7790626 L13.4896782,34.7132191 L34.7132191,34.7132191 L23.6460314,27.6624823 Z" id="Path"></path>
                        </g>
                        <g id="Group" transform="translate(52.000000, 192.000000)" fill="#6A1B9A">
                            <path d="M14.3942117,29.8059962 L24.5067899,36.3315531 L3.2912684,36.3315531 L3.2912684,33.5344933 C2.78116249,25.7285535 1.12603164,1.40402508 0.225206329,0.0346197965 L6.36004379,0.0346197965 L23.3183517,0.0346197965 L14.3942117,29.8059962 Z" id="Path"></path>
                        </g>
                        <g id="Group" transform="translate(134.000000, 3.000000)" fill="#6A1B9A">
                            <path d="M38.9786545,0.521737826 C39.5709097,0.576948178 40.1493915,0.640440083 40.7251186,0.706692505 C38.0999131,2.64733638 35.810778,5.21185723 34.0147298,8.27879228 C33.2048553,9.66181159 32.494149,11.1497306 31.8991392,12.7259861 C30.5383296,16.32018 29.7752846,20.3809014 29.7752846,24.7728849 C29.7752846,27.4671501 30.0672802,30.042713 30.6016872,32.474729 C30.6264792,32.5989523 30.654026,32.7231756 30.6815727,32.8446384 C31.7090666,37.2835507 33.5657177,41.2117672 36.014624,44.3863625 C35.3232005,44.4277702 34.623513,44.4664175 33.9072974,44.4940227 C30.1223737,44.6513722 25.9683234,44.623767 21.4120906,44.3836019 C16.9026872,44.1461974 12.7183356,42.6168707 9.28050086,40.1351654 C8.47613569,39.5554567 7.71309065,38.9232981 6.99687509,38.2442108 C6.07681356,37.3691267 5.22837359,36.4167482 4.4708379,35.3898356 C4.45706453,35.376033 4.4488005,35.3594699 4.4377818,35.3429068 C1.81533098,31.770797 0.261694147,27.3484478 0.261694147,22.4485291 C0.261694147,17.5348078 1.82634968,13.1566269 4.46532855,9.62040383 C5.91428773,7.67699944 7.69105325,5.98756267 9.70472085,4.60730387 C13.0654246,2.30503219 17.0955145,0.858520973 21.4120906,0.513456273 C27.8607853,-0.0055210352 33.6841687,0.0303656936 38.8767316,0.513456273 C38.9125423,0.516216791 38.9455984,0.518977308 38.9786545,0.521737826" id="Path"></path>
                        </g>
                        <g id="Group" transform="translate(97.000000, 16.000000)" fill="#6A1B9A">
                            <path d="M19.9438487,16.9035501 C19.8578491,17.1388043 19.7879744,17.3794052 19.7315371,17.6253528 L4.54991724,14.1259463 L4.54991724,13.8211852 C2.01024105,13.0619556 0.126311938,10.8003072 0.126311938,7.96121652 C0.126311938,5.12479922 2.01292854,2.92463763 4.54991724,2.133328 L4.54991724,1.87134035 L18.0142323,0.00534668672 C16.4313018,2.0344143 15.485306,4.57141714 15.485306,7.43189454 C15.4826186,11.3162624 17.2267983,14.6632883 19.9438487,16.9035501" id="Path"></path>
                        </g>
                        <g id="Group" transform="translate(61.000000, 11.000000)" fill="#212121">
                            <path d="M1.19064389,16.293562 C-0.759172023,9.96091786 0.865674572,4.51177323 0.865674572,4.51177323 C2.97934056,-0.0592591111 6.06791451,0.261278808 9.34764688,0.678786182 C9.44049526,0.641075838 9.5388053,0.616833475 9.63165368,0.584510323 C9.6644237,0.568348747 9.69719371,0.552187172 9.72996373,0.544106384 L9.72996373,0.552187172 C9.80369626,0.525251212 9.8774288,0.501008848 9.95116133,0.479460081 C10.0904339,0.433668949 10.2324373,0.390571414 10.3771715,0.352861071 C10.5410216,0.309763535 10.7076025,0.272053192 10.8769143,0.237036444 C10.9943402,0.210100485 11.1090352,0.183164525 11.2291919,0.161615758 C11.4285429,0.12659901 11.6306246,0.102356646 11.8327064,0.0781142828 C11.9310164,0.064646303 12.0238648,0.0511783232 12.1221748,0.0404039394 C12.4252975,0.0134679798 12.731151,0 13.0397353,0 C15.8606874,0 18.411287,1.12861671 20.2627928,2.94948758 C20.5522613,3.23500875 20.8198831,3.54477228 21.0738507,3.8653102 L21.3742425,3.87069739 C21.3742425,3.87069739 22.4583839,-0.832321152 27.2264211,1.09090636 C31.025012,2.62356246 29.8562148,9.97438584 23.2530567,10.0417257 C21.9886803,10.0551937 20.524953,9.80468929 18.8591438,9.19054941 C14.596311,7.62018297 12.2669091,5.90705594 11.0571493,4.74072889 C11.4367354,6.28685297 11.5295837,8.06193271 10.4836741,9.19054941 C8.29081389,11.5501395 8.24165886,13.1662971 8.24165886,14.133298 C8.24165886,14.9413768 8.05869294,16.0349767 7.99588375,16.3824506 C7.98496041,16.4497905 7.97403707,16.5009688 7.97403707,16.5009688 C7.97403707,16.5009688 7.96311373,16.4524841 7.94399789,16.3824506 C7.76376281,15.6713413 6.71239148,11.7413848 5.63917348,12.3528311 C3.68935756,13.459899 3.87232348,20.5790731 3.87232348,20.5790731 C3.203269,19.2376623 2.12185849,19.313083 1.19064389,16.293562" id="Path"></path>
                        </g>
                        <g id="Group" transform="translate(80.804465, 24.403952) scale(-1, 1) rotate(-83.755932) translate(-80.804465, -24.403952) translate(79.304465, 23.403952)" fill="#212121">
                            <path d="M1.27726493,0.0812569127 C0.697281092,0.0894618319 0.229463942,0.384838924 0.229463942,0.737650451 C0.232199715,1.09319695 0.700016865,1.3721642 1.27726493,1.36669426 C1.85724876,1.36122431 2.32506591,1.06311225 2.32506591,0.71030072 C2.32506591,0.352019247 1.85451299,0.0730519935 1.27726493,0.0812569127" id="Path"></path>
                        </g>
                        <g id="Group" transform="translate(73.444317, 24.425787) scale(-1, 1) rotate(-83.755932) translate(-73.444317, -24.425787) translate(71.944317, 23.425787)" fill="#212121">
                            <path d="M1.30188688,0.0812569127 C0.719167275,0.0894618319 0.251350125,0.384838924 0.251350125,0.737650451 C0.254085898,1.09319695 0.721903047,1.3721642 1.30188688,1.36669426 C1.87913494,1.36122431 2.34695209,1.06311225 2.34695209,0.71030072 C2.34695209,0.352019247 1.87639917,0.0730519935 1.30188688,0.0812569127" id="Path"></path>
                        </g>
                        <g id="Group" transform="translate(54.000000, 106.000000)" fill="#9C27B0">
                            <path d="M49.5101191,48.7768737 L49.5019791,49.2873547 C49.5074057,49.3364919 49.5101191,49.3692501 49.5101191,49.3692501 L49.5019791,49.3747098 L48.9728799,88.179459 L34.5976614,88.179459 C33.7321094,84.8353987 32.9832305,81.6660484 32.4948313,79.045397 C30.8071405,69.9986901 33.0347838,63.4006543 36.3748921,58.7189698 L36.3721788,58.7216997 C36.3721788,58.7216997 34.4592816,54.995461 31.5804393,49.8251342 C30.6036408,54.0454749 29.6838221,56.6442875 29.6838221,56.6442875 L19.5142641,86.9646779 L3.92076079,86.9646779 C4.27078026,82.0891744 4.71576626,77.5439822 5.2855654,74.2872769 C6.72091659,66.0567937 10.2075447,61.4460852 14.1065988,58.9209784 C13.5340864,54.6378513 12.4379013,47.0543414 10.9265769,39.3862063 C9.36641262,31.4478165 7.36126229,23.4220716 5.03865244,18.8877988 C2.7079026,14.334417 1.36480462,8.5799034 0.586079121,3.30038282 C0.461265975,2.44048159 0.350019475,1.59149974 0.249626292,0.764356651 L35.0724941,0.764356651 L35.1674606,0.212927924 C36.027586,2.7189258 36.9609712,5.39417408 37.9323431,8.08580142 C39.3785476,12.0877545 40.9088653,16.1306552 42.3984831,19.7258613 C45.2474788,26.607801 47.0057162,33.8036729 48.0639146,39.3862063 C48.9321799,43.9859954 49.3256127,47.4801972 49.4558525,48.7932528 C49.4911258,48.7823334 49.5101191,48.7768737 49.5101191,48.7768737" id="Path"></path>
                        </g>
                        <g id="Group" transform="translate(227.000000, 1.000000)" fill="#6A1B9A">
                            <path d="M26.7196382,1.18790678 C24.9546915,0.558534151 23.095982,0.226138217 21.1848757,0.226138217 L20.9421955,0.226138217 C19.5081763,0.247934672 18.1072499,0.457725548 16.7532049,0.836438948 C12.3408382,2.06793864 8.43865134,5.09764583 5.51270066,9.31253525 C2.09587419,14.238534 0.0110309168,20.7774704 0.0110309168,27.9594022 C0.0110309168,33.7109417 1.35128731,39.0510731 3.64296027,43.4812025 C5.92360231,47.8949846 9.15014547,51.3987646 12.9420231,53.5021225 C14.9441345,54.6110172 17.1006787,55.3330247 19.359259,55.5864085 C19.9632017,55.657247 20.5699021,55.6899417 21.1848757,55.6899417 C23.595131,55.6899417 25.9061081,55.1641022 28.06541,54.1859863 C36.385479,50.4478943 42.3614782,40.1218239 42.3614782,27.9594022 C42.3614782,15.1539851 35.7291395,4.37291372 26.7196382,1.18790678" id="Path"></path>
                        </g>
                        <g id="Group" transform="translate(232.000000, 8.000000)" fill="#E1BEE7">
                            <path d="M21.3467253,42.0384761 C19.7034055,42.7972436 17.9450532,43.2055984 16.1127515,43.2055984 C15.6416665,43.2055984 15.1815369,43.180766 14.7214073,43.125583 C13.6696826,43.0041802 12.6426077,42.7475788 11.6566157,42.3695747 C7.96188486,40.9513693 4.81218841,37.8142108 2.71969441,33.6478877 C1.005164,30.2265362 0,26.1181554 0,21.6924717 C0,16.0886292 1.60497576,10.9897119 4.23428758,7.16276477 C6.21996578,4.26565267 8.79450027,2.10247564 11.7004376,0.998813885 C13.0479599,0.488370325 14.4639539,0.198659115 15.9265086,0.17658588 L16.1100126,0.17658588 C17.5643507,0.17658588 18.9776058,0.433187238 20.3223893,0.921557563 C27.1777721,3.39375989 32.2227641,11.7567568 32.2227641,21.6924717 C32.2227641,31.1260206 27.6762458,39.1386049 21.3467253,42.0384761" id="Path"></path>
                        </g>
                        <g id="Group" transform="translate(182.000000, 0.000000)" fill="#6A1B9A">
                            <path d="M39.3003988,4.68623775 C38.7240334,4.62084839 38.1449102,4.56090814 37.5519985,4.506417 C37.5189057,4.50369244 37.485813,4.49824333 37.4499625,4.49551877 C35.8284177,4.34566815 34.1379297,4.2475841 32.3950449,4.18764385 C30.682495,2.80084442 28.8044815,1.72191992 26.813401,1.01898426 C25.0484543,0.38688707 23.1897448,0.0572156935 21.2786385,0.0572156935 L21.0359583,0.0572156935 C19.5991814,0.0790121481 18.198255,0.288803024 16.8442099,0.667516424 C12.5311215,1.87177054 8.70615107,4.80066914 5.80226223,8.8738816 C5.73883446,8.96379198 5.66989123,9.05370236 5.60646346,9.14633729 C4.77087151,10.3505914 4.01525371,11.6556541 3.34788324,13.0424536 C3.22930089,13.2903882 3.11347626,13.5410475 2.99765164,13.7944312 C1.16100399,17.9030629 0.104793709,22.6846602 0.104793709,27.7904797 C0.104793709,30.4823418 0.397113004,33.0842936 0.945901114,35.547293 C1.2657977,36.9967572 1.67945708,38.3944549 2.17033288,39.7376614 C2.33579663,40.1926624 2.5122913,40.6422143 2.69705915,41.0835925 C3.01695574,41.849193 3.36442962,42.592997 3.73672306,43.31228 C6.01736511,47.726062 9.24390827,51.2298421 13.0357859,53.3332 C15.0378973,54.4420946 17.1916838,55.1641022 19.4530218,55.417486 C20.0569644,55.4883245 20.6609071,55.5210191 21.2786385,55.5210191 C23.6888938,55.5210191 25.9998709,54.9951797 28.1591728,54.0170638 C30.7983197,52.8318815 33.2030595,50.9791829 35.2548101,48.6197167 C35.2713564,48.5979202 35.2906605,48.5761238 35.3072069,48.5543273 C35.5471293,48.2764225 35.7815363,47.9930686 36.0104279,47.701541 C39.9815579,42.6638354 42.4524833,35.6072332 42.4524833,27.7904797 C42.4524833,19.8974385 39.9319188,12.775447 35.8890878,7.72684318 C36.945298,6.59070298 38.0869979,5.57171872 39.3003988,4.68623775" id="Path"></path>
                        </g>
                        <g id="Group" transform="translate(187.000000, 7.000000)" fill="#E1BEE7">
                            <path d="M32.3131467,21.444679 C32.3131467,27.8698348 30.1877863,33.6296556 26.8217194,37.5584308 C25.7206951,38.8423622 24.4827275,39.9200948 23.1488995,40.769634 C22.5929096,41.124296 22.0259642,41.4487155 21.4398468,41.7181486 C21.3494642,41.7593884 21.2618205,41.7923802 21.1741768,41.8308707 C19.6075451,42.5127015 17.9395754,42.8811101 16.2031341,42.8811101 C15.7320491,42.8811101 15.2746584,42.8563662 14.8145288,42.8013799 C13.7600652,42.6804099 12.7357291,42.4247233 11.7497372,42.0480668 C10.7062291,41.6494157 9.7065428,41.1105494 8.76163387,40.4534624 C7.2634739,39.4142203 5.90225726,38.0698039 4.72728354,36.4834475 C4.01791713,35.5239356 3.37702237,34.4791948 2.81007701,33.3574731 C1.09554659,29.948319 0.0903825938,25.8545848 0.0903825938,21.444679 C0.0903825938,15.8608145 1.69535835,10.7800752 4.32467017,6.96677136 C6.31034837,4.08273697 8.88214399,1.92452248 11.7908202,0.824795347 C11.7935591,0.824795347 11.7962979,0.822046029 11.7990368,0.822046029 C13.1410814,0.313422232 14.5570753,0.0274931782 16.0168912,0.00549863564 L16.2031341,0.00549863564 C16.5674033,0.00549863564 16.9316726,0.0219945426 17.2904641,0.0549863564 C18.3640997,0.15121248 19.4076079,0.384904495 20.4127719,0.747814448 C23.0338671,1.68808114 25.3838145,3.49163363 27.2955433,5.908284 C30.3849847,9.81231531 32.3131467,15.3274469 32.3131467,21.444679" id="Path"></path>
                        </g>
                    </g>
                    <g id="Group-8" transform="translate(8.000000, 203.000000)" fill="#FF6F00">
                        <g id="Group" transform="translate(0.000000, 10.000000)">
                            <path d="M8.9490664,0.575659937 C2.8409436,-1.32373567 -2.38218939,3.54425922 1.46011225,8.03384235 C4.03741327,11.0419477 6.59375189,12.881802 9.35541459,14.9248304 L16.3901833,14.9248304 C16.1394406,14.6567535 15.8911167,14.3914984 15.6384929,14.1262433 C14.8507901,13.496968 14.0534124,12.8733364 13.3009158,12.1904457 C10.4803971,9.64230394 7.59914116,7.18163989 5.00383397,4.37388677 C4.4010304,3.72203655 5.34863868,2.72309725 5.95144225,3.37776933 C8.6907988,6.34072489 11.7136853,9.14565615 14.8201528,11.6825105 C16.1235844,12.7435308 17.4775409,13.7622231 18.6850293,14.9220086 L19.1897395,14.9220086 C18.7481853,12.9213081 18.3942431,10.8980327 18.1972502,8.85500432 C15.2372509,5.12450218 11.7499664,1.44479357 8.9490664,0.575659937" id="Path"></path>
                        </g>
                        <g id="Group" transform="translate(20.000000, 0.000000)">
                            <path d="M12.4472352,4.52583321 C12.2892109,-1.27526475 4.96083416,-1.0473451 1.61128345,4.52583321 C-0.948992337,8.78847348 0.41086317,19.8452902 1.18800408,24.7998295 L4.13967219,24.7998295 C3.98446976,22.3062799 4.06912563,19.793737 4.24972483,17.3083274 C4.55730783,13.110807 4.88746574,8.82374676 6.44795566,4.85957271 C6.76400425,4.05100059 8.12414195,4.40102007 7.80527149,5.2204455 C7.16188686,6.84572973 6.73578563,8.52799387 6.4225589,10.2401046 C6.14883824,12.0498953 5.93155484,13.8651125 5.76506495,15.6884698 C5.72838074,16.2284223 5.69169653,16.7656615 5.66065604,17.3083274 C5.50263175,19.8045903 5.41233215,22.3117065 5.55624713,24.7998295 L9.70438491,24.7998295 C9.79750637,23.5408447 9.95835253,21.969827 10.2179639,20.0704966 C11.0137291,14.2693986 12.6080814,10.3242178 12.4472352,4.52583321" id="Path"></path>
                        </g>
                        <g id="Group" transform="translate(31.000000, 10.000000)">
                            <path d="M10.556453,0.572838074 C9.75020658,0.823983831 8.8472106,1.31216603 7.89583984,1.96119439 C5.53891283,3.56965598 2.90248707,6.19398804 0.79280897,8.85500432 C0.604684807,10.8190206 0.475685382,12.7604619 0.20424909,14.6906158 L2.00217858,14.6906158 C3.46148459,13.1724538 5.00410272,11.7417696 6.54940833,10.3054416 C7.06271855,9.82290313 7.5679663,9.33472093 8.06783907,8.84089501 C10.0834551,6.8655913 12.0372589,4.83102849 14.3108738,3.16612965 C15.0176831,2.6440851 15.6895551,3.86595153 14.9854333,4.38235236 C12.5290692,6.17987873 10.3817663,8.42325937 8.19415101,10.5763404 C7.748028,11.0109072 7.30190498,11.4482959 6.85040699,11.8715753 C5.8614114,12.8056117 4.86972831,13.7311826 3.9076076,14.6906158 L10.4704534,14.6906158 C13.1122541,12.737887 15.5659307,10.9262513 18.0437946,8.03384235 C21.88959,3.54425922 16.6678008,-1.32627534 10.556453,0.572838074" id="Path"></path>
                        </g>
                    </g>
                    <g id="Group-9" transform="translate(0.000000, 92.000000)" fill="#558B2F">
                        <g id="Group" transform="translate(10.000000, 31.000000)">
                            <path d="M52.110639,12.5970393 C51.9191864,12.5889418 51.7277339,12.5835434 51.5362814,12.5835434 C50.9482487,12.5835434 50.3738912,12.6321285 49.8104738,12.7131037 C47.9287691,12.9884193 46.1947563,13.7063993 44.720572,14.74828 C44.8627938,14.170657 44.9475799,13.5687415 44.9475799,12.9452326 C44.9475799,8.67784043 41.3947683,5.22020012 37.0132408,5.22020012 C33.7776933,5.22020012 31.0016319,7.10692188 29.7653957,9.80879382 C29.3004396,4.61018708 25.0365186,0.477753579 19.6895234,0.0539834553 C19.3914045,0.0296909004 19.0905506,0.0134958638 18.7869616,0.0134958638 C18.0876129,0.0134958638 17.4057685,0.0809751829 16.7422487,0.20513713 C12.002705,1.07157159 8.33119285,4.88280353 7.82274967,9.61715255 C7.81098902,9.72781864 7.81016851,9.84118389 7.8019634,9.95184998 C7.78172414,10.2163689 7.76093786,10.4781887 7.76093786,10.7481059 C7.76093786,10.9262513 7.77652757,11.0989984 7.78555319,11.2744446 C7.84298894,12.3703088 8.06480035,13.4229861 8.4343037,14.4108834 C8.21276579,14.3919892 7.98876635,14.3757941 7.76093786,14.3757941 C7.50220347,14.3757941 7.24647761,14.38929 6.99376029,14.4135826 C6.47027442,14.4648668 5.96347227,14.5728337 5.47718289,14.7212882 C2.48286559,15.6444053 0.29483687,18.3300822 0.194734556,21.528602 L62.8812103,21.528602 C62.8511249,21.3963425 62.8100994,21.2667822 62.777279,21.1345227 C61.5574529,16.3974745 57.2880619,12.842664 52.110639,12.5970393" id="Path"></path>
                        </g>
                        <g id="Group">
                            <path d="M28.7255014,22.7086426 C25.4346983,22.399944 24.0243932,25.4207805 23.448407,27.4741777 C24.4199566,22.4633375 26.707226,9.00187241 22.5722628,11.8766284 C17.5149562,15.3908315 18.9506845,22.9980476 18.9506845,22.9980476 C18.9506845,22.9980476 16.7929915,21.8376715 15.732324,16.6669695 C14.6719298,11.4962676 13.914974,-4.08474431 7.39514906,1.30921292 C0.87532409,6.70317015 3.56881824,15.8042671 7.92821651,19.651975 C12.2889816,23.4996829 1.72221792,14.9388085 0.348270734,19.8752302 C-0.812449468,24.0426617 6.74890729,30.7044883 9.86338804,32.6007798 C6.43644775,32.1652943 0.952140477,31.9696014 4.76179586,35.9964647 C8.75023386,40.2079959 15.0344157,41.2801724 17.9326624,41.5502837 C18.4416735,36.7158427 22.1105444,32.8240351 26.8477371,31.9392828 C27.5109277,31.8152521 28.1924339,31.7408337 28.8922558,31.7408337 C29.1956942,31.7408337 29.4963989,31.7601273 29.79437,31.7849335 C30.0568032,30.6107762 30.2754975,29.4393752 30.4094478,28.3451488 C30.7839618,25.310531 30.5105939,22.8767731 28.7255014,22.7086426" id="Path"></path>
                        </g>
                    </g>
                    <g id="Group-2" transform="translate(147.000000, 125.000000)">
                        <g id="Group" transform="translate(0.000000, 60.000000)" fill="#FF6F00">
                            <path d="M119.484938,41.9113509 L0.188427588,41.9113509 C2.23109188,32.3113749 10.5519449,25.0211261 20.6833414,24.5277595 C21.0465424,24.5112221 21.4097434,24.5001971 21.778406,24.5001971 C22.8980482,24.5001971 23.9903821,24.5939092 25.0608692,24.753771 C28.6437243,25.2912374 31.9398416,26.6858937 34.7471396,28.7172409 C34.476787,27.5899396 34.3156678,26.4157824 34.3156678,25.205794 C34.3156678,16.904006 41.0799451,10.1705172 49.419914,10.1705172 C55.5724844,10.1705172 60.8539185,13.8418259 63.2106288,19.1007274 C64.0899575,8.98533499 72.205998,0.931608351 82.3810878,0.107493271 C82.9491014,0.0633934677 83.5225767,0.0330748527 84.1015136,0.0330748527 C94.9456578,0.0330748527 103.867295,8.22461337 104.970552,18.7286353 C104.992398,18.9463781 105.008783,19.1641209 105.022438,19.3791075 C105.060669,19.8917677 105.087978,20.4071841 105.087978,20.9281131 C105.087978,23.4362894 104.621005,25.8287037 103.804485,28.0557438 C104.227765,28.0171565 104.653775,27.9895941 105.087978,27.9895941 C105.579528,27.9895941 106.065616,28.0144002 106.543512,28.0640125 C113.673722,28.7778781 119.26374,34.6734706 119.484938,41.9113509" id="Path"></path>
                        </g>
                        <g id="Group" transform="translate(81.000000, 0.000000)" fill="#FFC107">
                            <path d="M49.1576902,68.281755 C41.5716774,76.3016273 29.6239118,78.3382456 24.1110273,78.8556567 C23.0062682,68.3643206 14.0945444,60.1875735 3.26517702,60.1875735 C2.68415555,60.1875735 2.11404527,60.2150954 1.543935,60.2618826 C-0.349158445,51.8319343 -1.03656413,43.429508 3.58160186,42.9946625 C9.83917587,42.4056945 12.5206036,48.1522606 13.6171794,52.063118 C11.7677307,42.5240385 7.42234476,16.9066836 15.2838654,22.378031 C24.9020894,29.065845 22.1715613,43.5450998 22.1715613,43.5450998 C22.1715613,43.5450998 26.274173,41.3350938 28.2927453,31.4960259 C28.9037725,28.520912 29.4629716,23.7293547 30.2840395,18.7781707 C30.7232154,16.1415757 31.2387696,13.4636979 31.8770749,10.9867298 C33.9993036,2.74117807 37.4963436,-3.24207607 44.1494487,2.26504975 C56.5473013,12.5334588 51.4272201,29.8529704 43.134707,37.1765395 C34.8394661,44.5028609 54.9378991,28.2071627 57.5511318,37.6031285 C59.7551945,45.5321787 45.3769589,58.2115034 39.4521765,61.8223725 C45.9716193,60.9939643 56.4027279,60.622419 49.1576902,68.281755" id="Path"></path>
                        </g>
                    </g>
                </g>
            </g>
        </g>
    </g>
</svg>