<?xml version="1.0" encoding="UTF-8"?>
<svg width="1014px" height="419px" viewBox="0 0 1014 419" version="1.1" xmlns="http://www.w3.org/2000/svg" xmlns:xlink="http://www.w3.org/1999/xlink">
    <!-- Generator: Sketch 64 (93537) - https://sketch.com -->
    <title>Feature3</title>
    <desc>Created with Sketch.</desc>
    <g id="Landing" stroke="none" stroke-width="1" fill="none" fill-rule="evenodd">
        <g transform="translate(-208.000000, -2652.000000)" id="Feature">
            <g transform="translate(-66.000000, 1216.000000)">
                <g id="Feature-3" transform="translate(274.000000, 1201.000000)">
                    <g id="Feature3" transform="translate(0.000000, 235.000000)">
                        <g id="Group" transform="translate(0.000000, 273.000000)" fill="#E1BEE7">
                            <path d="M427.48507,29.4387114 C288.746699,31.7437533 75.8624831,-18.3865987 20.6219479,28.6941646 C-44.6337009,84.311117 52.4309623,137.011762 282.215481,123.005881 C512,109 662,-97 743,57 C774.062836,116.057738 943,186 996,118 C1049,50 989.904666,27.1346544 706.318496,27.1346544 C612.015887,27.1346544 505.163947,28.2869291 427.48507,29.4387114 Z" id="Path"></path>
                        </g>
                        <g id="Group-16" transform="translate(773.000000, 207.000000)" fill-rule="nonzero">
                            <g id="Group" transform="translate(82.000000, 0.000000)" fill="#8BC34A">
                                <path d="M21.5629291,15.9159085 C16.5460507,20.3890604 18.740935,26.773431 18.740935,26.773431 C18.740935,26.773431 16.2324958,25.4965569 12.1562822,25.1773384 C7.76651361,24.8581198 3.69029994,34.4346757 3.69029994,34.4346757 L6.51229402,47.5226354 L1.17784083,44.9688872 C-5.09325711,88.0715738 16.5460507,121.274393 16.5460507,121.274393 C17.8002703,118.401427 18.740935,115.52846 18.740935,113.29393 C19.3680448,102.755626 10.9020626,96.052037 11.5291724,76.8948327 C12.783392,32.200146 36.6175841,47.5226354 39.4395782,29.9656163 C41.9480173,13.6813788 50.1004447,0.912637591 50.7275545,0.274200532 C39.4395782,6.02013406 26.5798074,11.1276305 21.5629291,15.9159085" id="Path"></path>
                            </g>
                            <g id="Group" transform="translate(106.414570, 97.240206) scale(-1, 1) rotate(53.129297) translate(-106.414570, -97.240206) translate(80.914570, 83.240206)" fill="#DCEDC8">
                                <path d="M11.4187581,0.362125117 C18.7169491,-0.454171286 58.9779639,9.27302576 48.7887216,22.8243503 C45.3896194,27.3401181 30.4827619,23.6366255 11.4187581,19.1811752 C0.7254971,16.6719685 0.7254971,27.6537689 0.7254971,27.6537689 C0.7254971,27.6537689 -4.05663245,2.11937402 11.4187581,0.362125117" id="Path"></path>
                            </g>
                            <g id="Group" transform="translate(92.000000, 23.000000)" fill="#558B2F">
                                <path d="M67.10963,4.8123876 C56.3008728,4.18625544 49.3096073,14.5174362 49.3096073,14.5174362 C49.3096073,14.5174362 49.9451769,10.134511 54.3941641,4.49932152 C53.7585945,4.49932152 33.4203676,7.31691626 31.8314436,9.50837884 C30.2425196,11.6998414 27.0646717,19.8435732 27.0646717,19.8435732 C27.0646717,19.8435732 23.8827496,13.891304 24.5183192,12.3259736 C24.836104,10.7606432 -9.80651284,33.9315469 2.90895312,85.908544 C2.90895312,86.5346761 3.22673792,87.1608083 3.22673792,87.7869405 C3.22673792,87.4738744 2.90895312,86.5346761 2.90895312,84.9693457 C2.59116833,81.5256188 2.59116833,75.2642972 4.81566189,68.3728297 C7.35794025,60.5461776 12.442497,51.7803273 22.6116104,44.5757937 C29.9247348,39.2536703 43.589481,37.6883399 55.983088,30.48782 C68.3807692,23.2873001 71.8764019,23.2873001 91.9009182,0.116396364 C91.9009182,0.116396364 77.914313,5.43851977 67.10963,4.8123876" id="Path"></path>
                            </g>
                            <g id="Group" transform="translate(0.000000, 88.000000)" fill="#143549">
                                <path d="M29.0986396,2.57523315 C22.2359038,4.72191605 6.94672031,11.4686337 0.395927064,24.6593318 C0.395927064,24.6593318 15.9930538,5.94859199 38.4569157,5.94859199 C57.8013521,5.94859199 84.6284102,18.5259521 87.1279497,28.9526976 L94.9265131,22.2059799 C94.9265131,22.2059799 66.5357431,-8.77151932 29.0986396,2.57523315" id="Path"></path>
                            </g>
                            <g id="Group-15" transform="translate(7.000000, 1.000000)">
                                <g id="Group" transform="translate(84.100917, 0.000000)" fill="#DCEDC8">
                                    <path d="M0.783703736,58.9427007 C-1.81752569,76.9312163 2.7346258,102.357635 6.63646994,111.353881 C7.28677729,101.117322 3.05977948,92.7452085 3.71008684,74.4466147 C5.01070155,31.0316801 29.7223811,45.9154376 32.6529328,28.8611322 C35.2541622,13.0431646 43.7081578,0.640033372 44.3584652,0.0198768128 C43.7081578,0.640033372 31.9984568,13.9733994 26.1456906,26.380506 C19.642617,40.9541851 4.36039419,35.9929326 0.783703736,58.9427007" id="Path"></path>
                                </g>
                                <g id="Group" transform="translate(0.000000, 99.035294)" fill="#4AF6D1">
                                    <path d="M23.83576,4.46512723 C17.9325482,7.24642209 4.89214246,15.2812739 0.234854683,29.1917102 C0.234854683,29.1917102 12.3438029,8.79158591 32.5293639,6.93738933 C48.6746282,5.39222552 73.2069911,14.0451429 79.1062222,23.6291205 L85.009434,18.3755635 C85.009434,18.3755635 56.4407551,-10.3684454 23.83576,4.46512723" id="Path"></path>
                                </g>
                                <g id="Group" transform="translate(69.070948, 87.427310) scale(-1, 1) rotate(43.299149) translate(-69.070948, -87.427310) translate(54.070948, 52.427310)" fill="#6A1B9A">
                                    <path d="M28.4142609,0.232135729 C28.4142609,0.232135729 22.2213141,6.03084618 23.6352289,18.483617 C25.6551072,32.9482673 33.2336905,62.8654369 28.4142609,67.3791145 C14.1943178,80.6992825 0.701530892,24.8967338 0.0632493546,16.4596904 C-0.970928326,-1.08100715 28.4142609,0.232135729 28.4142609,0.232135729" id="Path"></path>
                                </g>
                                <g id="Group" transform="translate(84.100917, 103.905882)" fill="#9C27B0">
                                    <path d="M25.5408375,2.35259628 C25.5408375,2.35259628 8.2049992,-7.71958266 0.181053142,17.4608647 L24.2528913,17.4608647 C17.1918188,13.6837976 18.796608,7.07393016 25.5408375,2.35259628" id="Path"></path>
                                </g>
                                <g id="Group" transform="translate(78.385321, 97.411765)" fill="#8BC34A">
                                    <path d="M59.9964828,3.60578688 C51.1864029,-2.21066612 38.2859287,0.69963029 37.3419916,1.01839675 C12.1663008,-4.79391642 2.09763807,18.1365698 0.205729888,23.3030704 L4.92944947,23.3030704 C6.18803231,12.9700692 25.066775,-1.88775984 35.768763,13.9387881 C47.4106543,31.0569611 65.6641395,38.806712 65.6641395,38.806712 C72.5863451,24.2717893 70.6984709,11.0326315 59.9964828,3.60578688" id="Path"></path>
                                </g>
                                <g id="Group" transform="translate(132.287720, 117.299911) scale(-1, 1) rotate(-7.123807) translate(-132.287720, -117.299911) translate(114.787720, 99.299911)" fill="#558B2F">
                                    <path d="M12.3619567,2.5452593 C21.8190371,-1.96440754 31.2801572,1.10361157 34.2897792,2.42478734 C24.7519035,2.50510198 16.3895984,5.88634817 12.3619567,10.1189295 C3.49064163,20.0658972 3.84210084,29.8964087 2.47262187,35.7272513 C-2.64575526,20.8851065 0.868836773,8.06287482 12.3619567,2.5452593" id="Path"></path>
                                </g>
                                <g id="Group" transform="translate(96.348624, 66.564706)" fill="#8BC34A">
                                    <path d="M36.9376764,2.22775508 C26.7580981,-2.79072568 21.0320853,2.85506518 21.0320853,2.85506518 C6.07675144,-1.54012671 0.0326268534,11.3237515 0.0326268534,11.3237515 C0.0326268534,11.3237515 14.3476588,6.9325808 20.7139735,16.9695423 C27.0762099,26.6928488 40.4369064,30.1470756 40.4369064,30.1470756 C47.7534782,20.7334029 47.4394448,7.24623585 36.9376764,2.22775508" id="Path"></path>
                                </g>
                                <g id="Group" transform="translate(115.944954, 66.564706)" fill="#558B2F">
                                    <path d="M16.5247364,2.22775508 C6.1012484,-2.79072568 0.238036385,2.85506518 0.238036385,2.85506518 C0.238036385,2.85506518 12.6159284,2.85506518 20.1078104,30.1470756 C27.5996924,20.7334029 27.2781345,7.24623585 16.5247364,2.22775508" id="Path"></path>
                                </g>
                                <g id="Group" transform="translate(17.146789, 51.952941)" fill="#E9F6FF">
                                    <path d="M27.8404847,3.4826526 C27.8404847,3.4826526 21.9680682,-3.04433248 10.2232352,1.92860853 C-1.52556029,6.90154955 -2.7618585,22.4459749 4.65989325,33.6350922 C4.65989325,33.6350922 18.8773227,30.2161953 27.2223356,19.6486956 C38.352982,5.34750548 50.7159641,14.3609611 50.7159641,14.3609611 C50.7159641,14.3609611 41.4437275,-2.11190604 27.8404847,3.4826526" id="Path"></path>
                                </g>
                                <g id="Group" transform="translate(17.146789, 51.952941)" fill="#4AF6D1">
                                    <path d="M10.4125544,1.92860853 C-1.55381141,6.90154955 -2.81300403,22.4459749 4.74618757,33.6350922 C14.5049304,2.86103497 28.3560492,3.4826526 28.3560492,3.4826526 C28.3560492,3.4826526 22.3748843,-3.04433248 10.4125544,1.92860853" id="Path"></path>
                                </g>
                                <g id="Group" transform="translate(92.266055, 20.294118)" fill="#8BC34A">
                                    <path d="M0.238835271,68.0272828 C2.72272209,60.2570625 7.69049572,51.550431 17.626043,44.4018283 C24.7711982,39.1180785 38.1220898,37.5640344 50.231038,30.4154317 C62.3439668,23.2628443 65.7593112,23.2628443 85.3239005,0.262992073 C84.0779765,1.50622733 65.7593112,19.2223297 47.1261795,20.7763737 C29.1180001,21.7127849 2.10175038,26.3749171 0.238835271,68.0272828" id="Path"></path>
                                </g>
                            </g>
                        </g>
                        <g id="Group-37" transform="translate(221.000000, 0.000000)">
                            <g id="Group" transform="translate(14.000000, 14.000000)" fill="#FAFAFA" stroke="#9C27B0">
                                <rect id="Rectangle" x="0.162965297" y="0.43037988" width="627.554667" height="315.286406"></rect>
                            </g>
                            <g id="Group" fill="#9C27B0">
                                <path d="M659.77833,8.28143068 C659.77833,3.77142953 656.310402,0.110000028 652.04485,0.110000028 L8.17935681,0.110000028 C3.90885071,0.110000028 0.445876507,3.77142953 0.445876507,8.28143068 C0.445876507,12.7914318 3.90885071,16.4528613 8.17935681,16.4528613 L652.04485,16.4528613 C656.310402,16.4528613 659.77833,12.7914318 659.77833,8.28143068 Z" id="Path"></path>
                            </g>
                            <g id="Group" transform="translate(19.000000, 86.000000)" fill="#DCEDC8" fill-rule="nonzero">
                                <path d="M557.421014,37.185228 C523.408784,98.6891813 528.819821,181.34328 480.11058,181.34328 C454.601407,181.34328 410.535154,36.4164902 371.493434,89.0799586 C297.275021,189.799396 269.441877,87.9268518 227.694639,119.834399 C185.560898,152.126315 172.028352,207.864735 133.759637,207.864735 C110.56948,207.864735 96.6504306,174.419712 72.3007656,184.8026 C42.5351087,197.486774 41.7621035,227.472477 0.401368104,244.384709 C1.94737858,243.615971 623.909375,244.384709 623.909375,244.384709 L623.909375,4.12457406 C610.768286,-5.86901757 575.978095,3.74020515 557.421014,37.185228" id="Path"></path>
                            </g>
                            <g id="Group" transform="translate(205.000000, 233.000000)" fill="#8BC34A">
                                <rect id="Rectangle" x="0.298263381" y="0.183794732" width="9.694057" height="53.7671068"></rect>
                            </g>
                            <g id="Group" transform="translate(223.000000, 252.000000)" fill="#8BC34A">
                                <rect id="Rectangle" x="0.129247465" y="0.180372717" width="9.6945541" height="33.2226503"></rect>
                            </g>
                            <g id="Group" transform="translate(242.000000, 238.000000)" fill="#8BC34A">
                                <rect id="Rectangle" x="0.0762605236" y="0.182881708" width="9.91590169" height="48.7445791"></rect>
                            </g>
                            <g id="Group" transform="translate(260.000000, 245.000000)" fill="#8BC34A">
                                <rect id="Rectangle" x="0.402655565" y="0.178667513" width="9.6945541" height="40.2652054"></rect>
                            </g>
                            <g id="Group" transform="translate(278.000000, 225.000000)" fill="#8BC34A">
                                <rect id="Rectangle" x="0.347973945" y="0.175931255" width="9.6945541" height="61.3785051"></rect>
                            </g>
                            <g id="Group" transform="translate(333.000000, 205.000000)" fill="#FFC107" fill-rule="nonzero">
                                <path d="M89.3297879,19.6907557 C78.623743,38.2962325 76.7119493,72.8450894 61.0352406,72.8450894 C48.0301412,72.8450894 51.8537286,0.330937071 29.2945625,0.330937071 C-2.82847433,0.330937071 0.230395656,81.9555923 0.230395656,81.9555923 L122.98226,81.9555923 C122.98226,81.9555923 120.688107,55.3784255 119.541031,46.6475269 C113.80565,3.36777137 96.5995062,6.78420996 89.3297879,19.6907557" id="Path"></path>
                            </g>
                            <g id="Group" transform="translate(333.000000, 221.000000)" fill="#FFECB3" fill-rule="nonzero">
                                <path d="M137.612953,0.227720809 C116.578836,0.227720809 107.232559,53.9054758 83.861872,53.9054758 C64.3904604,53.9054758 62.053891,6.40588536 36.346635,6.40588536 C8.30280962,6.40588536 0.124816741,67.8112965 0.124816741,67.8112965 L167.598927,67.8112965 C167.598927,67.8112965 161.368076,0.227720809 137.612953,0.227720809" id="Path"></path>
                            </g>
                            <g id="Group" transform="translate(331.000000, 231.000000)" fill="#FF6F00" fill-rule="nonzero">
                                <path d="M122.639937,0.229967846 C98.1059585,0.229967846 107.841664,47.4183699 84.4709777,47.4183699 C64.9995661,47.4183699 67.7255637,16.6076779 42.407736,16.6076779 C14.3639106,16.6076779 0.344494205,57.9468978 0.344494205,57.9468978 L167.823597,57.9468978 C168.597461,57.9468978 144.842339,0.229967846 122.639937,0.229967846" id="Path"></path>
                            </g>
                            <g id="Group" transform="translate(327.000000, 45.000000)" fill="#FFECB3" fill-rule="nonzero">
                                <path d="M157.570105,59.5979946 C152.160058,56.1083131 151.000762,46.8024956 150.61433,40.2108749 C149.068602,2.59489142 131.287778,-5.93544129 118.535524,4.145861 C99.9867902,18.4923296 116.216932,77.4391159 87.6160135,77.4391159 C64.4300964,77.4391159 72.9315993,23.5379518 40.4663612,23.1502094 C2.59107577,22.7624671 0.272484068,87.9081606 0.272484068,87.9081606 L181.920272,87.9081606 C181.53384,49.9044348 165.685176,64.6436168 157.570105,59.5979946" id="Path"></path>
                            </g>
                            <g id="Group" transform="translate(327.000000, 45.000000)" fill="#FF6F00" fill-rule="nonzero">
                                <path d="M167.651883,60.5872349 C164.931022,60.9700062 162.210161,60.9700062 160.266689,59.8117501 C156.379744,57.4803246 154.047578,51.2764463 153.658883,41.195144 C152.881494,20.639826 146.662383,6.29335735 136.945022,1.6404486 C131.498317,-1.07374817 125.279206,0.0894790144 119.44879,4.35464537 C110.897512,10.9462661 109.342734,26.0682195 108.176651,40.4196592 C106.233179,59.4190366 104.289707,77.2601579 89.1256405,77.2601579 C79.0195852,77.2601579 75.5213353,66.7911132 70.8570021,54.3783855 C65.8039744,39.6441744 59.9735579,23.3589938 41.3112418,22.9662804 L40.9225474,22.9662804 C24.9860756,22.9662804 12.9315648,34.2157809 5.93506502,55.1538703 C0.493342936,71.0562795 0.104648502,87.3414602 0.104648502,87.3414602 L2.04812067,87.3414602 C2.04812067,86.5659754 4.76898172,24.9099634 40.9225474,24.9099634 L41.3112418,24.9099634 C58.4187802,25.2977058 63.855519,40.4196592 68.9135299,54.7661279 C73.1891687,67.1788556 77.4648075,78.8111275 88.7369461,78.8111275 C105.844484,78.8111275 107.787957,59.4190366 109.731429,40.4196592 C111.286207,26.0682195 112.45229,11.7217509 120.614873,5.51787255 C125.667901,1.6404486 131.109623,0.864963806 136.16265,2.80367578 C145.107606,7.06884214 150.938022,20.639826 151.715411,40.4196592 C152.104105,51.2764463 154.436272,57.868067 159.100605,60.5872349 C161.821466,62.1382044 164.931022,61.750462 167.651883,61.750462 C171.150133,61.3577486 174.648383,61.3577486 177.374227,63.689174 C180.872477,66.7911132 182.815949,74.5459611 182.815949,86.9537178 L184.759421,86.9537178 C184.370727,73.7704763 182.427255,66.0156284 178.54031,62.5209758 C175.425771,59.8117501 171.150133,60.1994925 167.651883,60.5872349" id="Path"></path>
                            </g>
                            <path d="M454.222686,48.6259017 C456.300287,48.6259017 457.982613,46.9435757 457.982613,44.8659755 C457.982613,42.7883752 456.300287,41.1060492 454.222686,41.1060492 C452.145086,41.1060492 450.46276,42.7883752 450.46276,44.8659755 C450.46276,46.9435757 452.145086,48.6259017 454.222686,48.6259017" id="Path" fill="#FF6F00" fill-rule="nonzero"></path>
                            <rect id="Rectangle" fill="#FF6F00" x="455.412146" y="53.2277648" width="1.2" height="2.53849252"></rect>
                            <rect id="Rectangle" fill="#FF6F00" x="455.412146" y="115.368762" width="1.2" height="5.07590045"></rect>
                            <rect id="Rectangle" fill="#FF6F00" x="455.412146" y="124.227765" width="1.2" height="5.07752734"></rect>
                            <rect id="Rectangle" fill="#FF6F00" x="455.412146" y="110.390454" width="1.2" height="5.07644275"></rect>
                            <rect id="Rectangle" fill="#FF6F00" x="455.412146" y="69.4609525" width="1.2" height="5.07752734"></rect>
                            <rect id="Rectangle" fill="#FF6F00" x="455.412146" y="75.3199553" width="1.2" height="5.07752734"></rect>
                            <rect id="Rectangle" fill="#FF6F00" x="455.412146" y="102.536874" width="1.2" height="5.07590045"></rect>
                            <rect id="Rectangle" fill="#FF6F00" x="455.412146" y="57.0867675" width="1.2" height="5.07644275"></rect>
                            <rect id="Rectangle" fill="#FF6F00" x="455.412146" y="62.4826444" width="1.2" height="5.07752734"></rect>
                            <rect id="Rectangle" fill="#FF6F00" x="455.412146" y="83.178958" width="1.2" height="5.07644275"></rect>
                            <rect id="Rectangle" fill="#FF6F00" x="455.412146" y="95.0162689" width="1.2" height="5.07644275"></rect>
                            <rect id="Rectangle" fill="#FF6F00" x="455.412146" y="91.1572661" width="1.2" height="5.07644275"></rect>
                            <rect id="Rectangle" fill="#FF6F00" x="455.412146" y="129.45553" width="1.2" height="2.53740793"></rect>
                            <path d="M364.232327,72.6162609 C366.309928,72.6162609 367.992254,70.9291145 367.992254,68.8515142 C367.992254,66.7787343 366.309928,65.0915879 364.232327,65.0915879 C362.154727,65.0915879 360.472401,66.7787343 360.472401,68.8515142 C360.472401,70.9291145 362.154727,72.6162609 364.232327,72.6162609" id="Path" fill="#FF6F00" fill-rule="nonzero"></path>
                            <rect id="Rectangle" fill="#FF6F00" x="364" y="73.2114959" width="1" height="2.53903482"></rect>
                            <rect id="Rectangle" fill="#FF6F00" x="364" y="98.0704986" width="1" height="5.07644275"></rect>
                            <rect id="Rectangle" fill="#FF6F00" x="364" y="85.3524931" width="1" height="5.07752734"></rect>
                            <rect id="Rectangle" fill="#FF6F00" x="364" y="92.2114959" width="1" height="5.07644275"></rect>
                            <rect id="Rectangle" fill="#FF6F00" x="364" y="124.34707" width="1" height="5.07644275"></rect>
                            <rect id="Rectangle" fill="#FF6F00" x="364" y="77.0704986" width="1" height="5.07644275"></rect>
                            <rect id="Rectangle" fill="#FF6F00" x="364" y="115.488067" width="1" height="5.07644275"></rect>
                            <rect id="Rectangle" fill="#FF6F00" x="364" y="105.34707" width="1" height="5.07752734"></rect>
                            <rect id="Rectangle" fill="#FF6F00" x="364" y="111.206073" width="1" height="5.07752734"></rect>
                            <rect id="Rectangle" fill="#FF6F00" x="364" y="129.45553" width="1" height="2.53740793"></rect>
                            <g id="Group" transform="translate(327.000000, 133.000000)" fill="#E1BEE7">
                                <rect id="Rectangle" x="0.10378077" y="0.0216918823" width="182.351709" height="1"></rect>
                            </g>
                            <g id="Group" transform="translate(554.000000, 217.000000)" fill="#6A1B9A" fill-rule="nonzero">
                                <path d="M22.1254657,0.140065162 C10.0702021,0.140065162 0.27530049,9.93496682 0.27530049,21.9902304 C0.27530049,34.045494 10.0702021,43.8452255 22.1254657,43.8452255 C34.1855591,43.8452255 43.9804608,34.045494 43.9804608,21.9902304 C43.9804608,9.93496682 34.1855591,0.140065162 22.1254657,0.140065162 Z M22.1254657,43.0869417 C10.4469291,43.0869417 1.02875446,33.668767 1.02875446,21.9902304 C1.02875446,10.3116938 10.4469291,0.888689302 22.1254657,0.888689302 C33.8088321,0.888689302 43.2270068,10.3116938 43.2270068,21.9902304 C43.2270068,33.668767 33.8088321,43.0869417 22.1254657,43.0869417" id="Shape"></path>
                            </g>
                            <g id="Group" transform="translate(547.000000, 211.000000)" fill="#E1BEE7" fill-rule="nonzero">
                                <path d="M28.6355442,0.181460938 C12.9089295,0.181460938 0.327637805,12.7677932 0.327637805,28.4944079 C0.327637805,44.2210225 12.9089295,56.8073548 28.6355442,56.8073548 C44.3671994,56.8073548 56.9484911,44.2210225 56.9484911,28.4944079 C56.5553258,12.7677932 43.974034,0.181460938 28.6355442,0.181460938 Z M28.6355442,53.6620319 C14.8747564,53.6620319 3.47296074,42.2551957 3.47296074,28.4944079 C3.47296074,14.7336201 14.8747564,3.32678387 28.6355442,3.32678387 C42.4013726,3.32678387 53.8031682,14.7336201 53.8031682,28.4944079 C53.4100028,42.2551957 42.4013726,53.6620319 28.6355442,53.6620319" id="Shape"></path>
                            </g>
                            <g id="Group" transform="translate(551.000000, 207.000000)" fill="#6A1B9A" fill-rule="nonzero">
                                <path d="M23.5949626,0.107606585 C14.5521591,0.107606585 6.29568644,3.5412349 0.00504058162,9.64546301 L2.36403278,11.9345486 C8.26151327,6.2118347 15.7316552,3.15972064 23.5949626,3.15972064 C40.1129485,3.15972064 53.8737363,16.1360966 53.8737363,32.5412096 C53.8737363,48.9463227 40.5061139,61.9226986 23.5949626,61.9226986 L23.5949626,64.9748127 C42.0787754,64.9748127 57.0190593,50.4723797 57.0190593,32.5412096 C56.6258939,14.6100396 41.68561,0.107606585 23.5949626,0.107606585" id="Path"></path>
                            </g>
                            <g id="Group" transform="translate(42.000000, 62.000000)" fill="#9C27B0" fill-rule="nonzero">
                                <path d="M30.9541268,0.321777043 C13.8008295,0.321777043 0.0733046894,14.397085 0.0733046894,31.1294912 C0.0733046894,47.8667728 14.1820139,61.9372053 30.9541268,61.9372053 C48.1123111,61.9372053 61.834949,47.8667728 61.834949,31.1294912 C61.834949,14.397085 48.1123111,0.321777043 30.9541268,0.321777043 Z M30.9541268,56.9935398 C16.8503046,56.9935398 5.03358867,45.5850811 5.03358867,31.1294912 C5.03358867,16.6787767 16.4691202,5.27031793 30.9541268,5.27031793 C45.4440204,5.27031793 56.879552,16.6787767 56.879552,31.1294912 C56.879552,45.5850811 45.0628361,56.9935398 30.9541268,56.9935398" id="Shape"></path>
                            </g>
                            <g id="Group" transform="translate(88.500000, 79.500000) scale(-1, 1) rotate(90.000000) translate(-88.500000, -79.500000) translate(72.000000, 63.000000)" fill="#6A1B9A" fill-rule="nonzero">
                                <path d="M0.174137611,0.035851861 L5.76702792,0.035851861 C5.76702792,14.817062 17.7569146,27.2064408 32.9376169,27.2064408 L32.9376169,32.7993311 C14.5558556,32.3998389 0.174137611,18.018121 0.174137611,0.035851861" id="Path"></path>
                            </g>
                            <g id="Group" transform="translate(47.000000, 69.000000)" fill="#6A1B9A" fill-rule="nonzero">
                                <path d="M24.1323196,0.0203991337 C11.0109443,0.0203991337 0.275273608,10.7656428 0.275273608,23.8924854 C0.275273608,37.019328 11.0109443,47.7594719 24.1323196,47.7594719 C37.2587926,47.7594719 47.9944633,37.019328 47.9944633,23.8924854 C47.9944633,10.7656428 37.2587926,0.0203991337 24.1323196,0.0203991337 Z M24.1323196,46.9690054 C11.4085618,46.9690054 1.46812591,36.6215448 1.46812591,24.2902685 C1.46812591,11.9538924 11.8061792,1.61153157 24.1323196,1.61153157 C36.8611752,1.61153157 46.801611,11.9538924 46.801611,24.2902685 C46.801611,36.6215448 36.4635578,46.9690054 24.1323196,46.9690054" id="Shape"></path>
                            </g>
                            <g id="Group" transform="translate(128.000000, 62.000000)" fill="#9C27B0" fill-opacity="0.3" fill-rule="nonzero" opacity="0.3">
                                <g id="Shape">
                                    <g transform="translate(0.336081, 0.301484)">
                                        <path d="M31.2298058,0 C13.8801333,0 0,14.2656377 0,31.2298058 C0,48.1949624 14.2646492,62.4596116 31.2298058,62.4596116 C48.5799725,62.4596116 62.4596116,48.1949624 62.4596116,31.2298058 C62.4596116,14.2656377 48.5799725,0 31.2298058,0 Z M31.2298058,57.4475609 C16.9641681,57.4475609 5.01205071,45.8814421 5.01205071,31.2298058 C5.01205071,16.5796522 16.5781695,5.01303919 31.2298058,5.01303919 C45.494455,5.01303919 57.4465724,16.5796522 57.4465724,31.2298058 C57.4465724,45.8814421 45.494455,57.4475609 31.2298058,57.4475609"></path>
                                    </g>
                                </g>
                            </g>
                            <g id="Group" transform="translate(157.000000, 62.000000)" fill="#6A1B9A" fill-rule="nonzero">
                                <path d="M0.445587415,0.427058932 L0.445587415,5.72647205 C15.2267975,5.72647205 27.6110547,17.0872102 27.6110547,31.4713315 C27.6110547,45.8603058 15.6262897,57.2161911 0.445587415,57.2161911 L0.445587415,62.1370747 C18.4227349,62.1370747 32.8095745,48.1266299 32.8095745,31.4713315 C32.8095745,14.8160332 18.4227349,0.427058932 0.445587415,0.427058932" id="Path"></path>
                            </g>
                            <g id="Group" transform="translate(135.000000, 69.000000)" fill="#6A1B9A" fill-rule="nonzero">
                                <path d="M23.902685,0.0203991337 C10.7707426,0.0203991337 0.0305987006,10.7656428 0.0305987006,23.8924854 C0.0305987006,37.019328 10.7707426,47.7594719 23.902685,47.7594719 C37.0295275,47.7594719 47.7696714,37.019328 47.7696714,23.8924854 C47.7696714,10.7656428 37.0295275,0.0203991337 23.902685,0.0203991337 Z M23.902685,46.9690054 C11.1685257,46.9690054 1.22394802,36.6215448 1.22394802,24.2902685 C1.22394802,11.9538924 11.5663088,1.61153157 23.902685,1.61153157 C36.6317444,1.61153157 46.5763221,11.9538924 46.5763221,24.2902685 C46.5763221,36.6215448 36.6317444,46.9690054 23.902685,46.9690054" id="Shape"></path>
                            </g>
                            <g id="Group" transform="translate(40.000000, 149.000000)" fill="#FFFFFF" fill-rule="nonzero">
                                <path d="M31.4428248,0.234575006 C22.6755839,0.234575006 14.2895275,4.04641885 8.19057729,10.5265534 C3.23518029,16.2443192 0.185705213,23.4917095 0.185705213,31.1153972 C0.185705213,48.2686945 14.2895275,61.9962193 31.0616404,61.9962193 C48.2198247,61.9962193 61.9424625,47.8875101 61.9424625,31.1153972 C62.3236469,14.3383972 48.6010091,0.234575006 31.4428248,0.234575006 Z M31.4428248,57.4171197 C17.3390025,57.4171197 5.5222866,45.9815882 5.5222866,31.4965815 C5.5222866,25.016447 7.80939291,18.9126099 12.0024211,14.3383972 C16.9578181,9.00181586 23.8191371,5.57115639 31.4428248,5.57115639 C45.551534,5.57115639 57.3682499,17.0066879 57.3682499,31.4965815 C57.3682499,45.6004038 45.551534,57.4171197 31.4428248,57.4171197" id="Shape"></path>
                            </g>
                            <g id="Group" transform="translate(40.000000, 149.000000)" fill="#9C27B0" fill-rule="nonzero">
                                <path d="M31.4428248,0.234575006 L31.4428248,5.18997201 C45.551534,5.18997201 57.3682499,16.6255036 57.3682499,31.1153972 C57.3682499,45.2192194 45.9327184,57.0359353 31.4428248,57.0359353 C16.9578181,57.0359353 5.5222866,45.6004038 5.5222866,31.1153972 L0.185705213,31.1153972 C0.185705213,48.2686945 14.2895275,61.9962193 31.0616404,61.9962193 C48.2198247,61.9962193 61.9424625,47.8875101 61.9424625,31.1153972 C62.3236469,14.3383972 48.6010091,0.234575006 31.4428248,0.234575006" id="Path"></path>
                            </g>
                            <g id="Group" transform="translate(47.000000, 155.000000)" fill="#6A1B9A" fill-rule="nonzero">
                                <path d="M24.1323196,0.438581375 C11.0109443,0.438581375 0.275273608,11.1787253 0.275273608,24.3106676 C0.275273608,37.4375102 11.0109443,48.1776541 24.1323196,48.1776541 C37.2587926,48.1776541 47.9944633,37.4375102 47.9944633,24.3106676 C47.9944633,11.5765084 37.2587926,0.438581375 24.1323196,0.438581375 Z M24.1323196,47.3820879 C11.4085618,47.3820879 1.46812591,37.0397271 1.46812591,24.7084507 C1.46812591,11.9742915 11.8061792,2.02971381 24.1323196,2.02971381 C36.8611752,2.02971381 46.801611,12.3720746 46.801611,24.7084507 C46.801611,37.0397271 36.4635578,47.3820879 24.1323196,47.3820879" id="Shape"></path>
                            </g>
                            <g id="Group" transform="translate(128.000000, 149.000000)" fill="#9C27B0" fill-rule="nonzero">
                                <path d="M31.139242,0.234575006 C14.0216784,0.234575006 0.331527862,14.3383972 0.331527862,31.1153972 C0.331527862,48.2686945 14.4019604,61.9962193 31.139242,61.9962193 C48.2519302,61.9962193 61.9469561,47.8875101 61.9469561,31.1153972 C61.9469561,14.3383972 48.2519302,0.234575006 31.139242,0.234575006 Z M31.139242,57.4171197 C17.0639341,57.4171197 5.27519334,45.9815882 5.27519334,31.4965815 C5.27519334,17.3878723 16.6836521,5.57115639 31.139242,5.57115639 C45.2096745,5.57115639 56.9984153,17.0066879 56.9984153,31.4965815 C56.9984153,45.6004038 45.2096745,57.4171197 31.139242,57.4171197" id="Shape"></path>
                            </g>
                            <g id="Group" transform="translate(135.000000, 155.000000)" fill="#6A1B9A" fill-rule="nonzero">
                                <path d="M23.902685,0.438581375 C10.7707426,0.438581375 0.0305987006,11.1787253 0.0305987006,24.3106676 C0.0305987006,37.4375102 10.7707426,48.1776541 23.902685,48.1776541 C37.0295275,48.1776541 47.7696714,37.4375102 47.7696714,24.3106676 C47.7696714,11.5765084 37.0295275,0.438581375 23.902685,0.438581375 Z M23.902685,47.3820879 C11.1685257,47.3820879 1.22394802,37.0397271 1.22394802,24.7084507 C1.22394802,11.9742915 11.5663088,2.02971381 23.902685,2.02971381 C36.6317444,2.02971381 46.5763221,12.3720746 46.5763221,24.7084507 C46.5763221,37.0397271 36.6317444,47.3820879 23.902685,47.3820879" id="Shape"></path>
                            </g>
                            <g id="Group" transform="translate(278.000000, 93.000000)" fill="#6A1B9A">
                                <rect id="Rectangle" x="0.450407833" y="0.025307196" width="11.4570045" height="5.92188386"></rect>
                            </g>
                            <g id="Group" transform="translate(278.000000, 105.000000)" fill="#6A1B9A">
                                <rect id="Rectangle" x="0.450407833" y="0.151843176" width="11.4570045" height="5.52810389"></rect>
                            </g>
                            <g id="Group" transform="translate(212.000000, 105.000000)" fill="#6A1B9A">
                                <rect id="Rectangle" x="0.0880435222" y="0.151843176" width="23.6572944" height="5.52810389"></rect>
                            </g>
                            <g id="Group" transform="translate(237.000000, 105.000000)" fill="#6A1B9A">
                                <rect id="Rectangle" x="0.474509925" y="0.151843176" width="18.3051329" height="5.52810389"></rect>
                            </g>
                            <g id="Group" transform="translate(260.000000, 105.000000)" fill="#6A1B9A">
                                <rect id="Rectangle" x="0.288848502" y="0.151843176" width="11.8393616" height="5.52810389"></rect>
                            </g>
                            <g id="Group" transform="translate(212.000000, 93.000000)" fill="#6A1B9A">
                                <rect id="Rectangle" x="0.469565452" y="0.025307196" width="23.2762616" height="5.92188386"></rect>
                            </g>
                            <g id="Group" transform="translate(237.000000, 93.000000)" fill="#6A1B9A">
                                <rect id="Rectangle" x="0.474509925" y="0.025307196" width="18.3051329" height="5.92188386"></rect>
                            </g>
                            <g id="Group" transform="translate(261.000000, 93.000000)" fill="#6A1B9A">
                                <rect id="Rectangle" x="0.170304708" y="0.025307196" width="10.7729235" height="5.92188386"></rect>
                            </g>
                            <g id="Group" transform="translate(212.000000, 78.000000)" fill="#6A1B9A">
                                <rect id="Rectangle" x="0.0867675291" y="0.288502034" width="7.89632719" height="5.52810389"></rect>
                            </g>
                            <g id="Group" transform="translate(223.000000, 78.000000)" fill="#6A1B9A">
                                <rect id="Rectangle" x="0.428753611" y="0.288502034" width="10.179636" height="5.52810389"></rect>
                            </g>
                            <g id="Group" transform="translate(238.000000, 78.000000)" fill="#6A1B9A">
                                <rect id="Rectangle" x="0.176888315" y="0.288502034" width="17.741898" height="5.52810389"></rect>
                            </g>
                            <g id="Group" transform="translate(285.500000, 177.500000) scale(-1, 1) rotate(90.000000) translate(-285.500000, -177.500000) translate(282.000000, 172.000000)" fill="#6A1B9A" fill-rule="nonzero">
                                <polygon id="Path" points="0.389730818 0.0186414613 5.91682242 0.0186414613 6.31161468 10.9238963 0.389730818 10.9238963"></polygon>
                            </g>
                            <g id="Group" transform="translate(278.000000, 186.000000)" fill="#6A1B9A">
                                <rect id="Rectangle" x="0.450407833" y="0.0708601488" width="11.4570045" height="5.92289615"></rect>
                            </g>
                            <g id="Group" transform="translate(212.000000, 186.000000)" fill="#6A1B9A">
                                <rect id="Rectangle" x="0.0880435222" y="0.0708601488" width="23.6572944" height="5.92289615"></rect>
                            </g>
                            <g id="Group" transform="translate(237.000000, 186.000000)" fill="#6A1B9A">
                                <rect id="Rectangle" x="0.474509925" y="0.0708601488" width="18.3051329" height="5.92289615"></rect>
                            </g>
                            <g id="Group" transform="translate(260.000000, 186.000000)" fill="#6A1B9A">
                                <rect id="Rectangle" x="0.288848502" y="0.0708601488" width="11.8393616" height="5.92289615"></rect>
                            </g>
                            <g id="Group" transform="translate(212.000000, 174.000000)" fill="#6A1B9A">
                                <rect id="Rectangle" x="0.469565452" y="0.339116426" width="23.2762616" height="5.52810389"></rect>
                            </g>
                            <g id="Group" transform="translate(237.000000, 174.000000)" fill="#6A1B9A">
                                <rect id="Rectangle" x="0.474509925" y="0.339116426" width="18.3051329" height="5.52810389"></rect>
                            </g>
                            <g id="Group" transform="translate(261.000000, 174.000000)" fill="#6A1B9A">
                                <rect id="Rectangle" x="0.170304708" y="0.339116426" width="10.7729235" height="5.52810389"></rect>
                            </g>
                            <g id="Group" transform="translate(212.000000, 162.000000)" fill="#6A1B9A">
                                <rect id="Rectangle" x="0.0867675291" y="0.207519007" width="7.89632719" height="5.92188386"></rect>
                            </g>
                            <g id="Group" transform="translate(223.000000, 162.000000)" fill="#6A1B9A">
                                <rect id="Rectangle" x="0.428753611" y="0.207519007" width="10.179636" height="5.92188386"></rect>
                            </g>
                            <g id="Group" transform="translate(238.000000, 162.000000)" fill="#6A1B9A">
                                <rect id="Rectangle" x="0.176888315" y="0.207519007" width="17.741898" height="5.92188386"></rect>
                            </g>
                        </g>
                        <g id="Group-36" transform="translate(137.000000, 193.000000)" fill-rule="nonzero">
                            <g id="Group" transform="translate(74.000000, 0.000000)" fill="#6A1B9A">
                                <path d="M42.8414514,44.6909758 C42.8414514,44.6909758 40.1503345,34.0833901 35.7435522,33.5901611 C31.3399064,33.0969321 28.4041426,33.8367756 28.4041426,33.8367756 C28.4041426,33.8367756 31.8292004,27.6714128 27.4255546,21.9992791 C23.0219088,16.3271453 10.5449125,8.67893376 0.267229787,0.294040379 C0.511249474,1.03388391 6.87520766,15.8339163 6.62742417,33.0969321 C6.38277718,51.8427967 34.0341598,40.4985291 27.1809076,86.8683807 C24.2451438,106.597542 13.9699703,112.026223 12.9913824,123.123876 C12.7467354,125.590021 12.9913824,128.549395 13.7253233,131.755383 C13.7253233,131.755383 42.3521574,101.665251 43.8200393,55.7886288 L37.7038646,57.2683159 L42.8414514,44.6909758 Z" id="Path"></path>
                            </g>
                            <g id="Group" transform="translate(120.524310, 107.484477) scale(-1, 1) rotate(50.528334) translate(-120.524310, -107.484477) translate(94.524310, 91.984477)" fill="#558B2F">
                                <path d="M16.1588174,0.144609324 C23.2733443,-0.369202202 59.6911444,5.71773066 49.2148773,18.4337779 C45.616617,22.802752 28.4137161,22.0210019 16.1588174,21.8066511 C5.48071977,21.617518 0.0186804841,30.1820942 0.0186804841,30.1820942 C0.0186804841,30.1820942 1.20128137,0.894837197 16.1588174,0.144609324" id="Path"></path>
                            </g>
                            <g id="Group" transform="translate(15.000000, 8.000000)" fill="#6A1B9A">
                                <path d="M66.6422043,25.8829021 C66.8881854,27.8552032 62.5147032,33.5164964 62.5147032,33.5164964 C62.5147032,33.5164964 60.8140083,24.1598999 59.5993597,21.698468 C58.3847111,19.2370362 37.9816661,12.5911704 37.2530638,12.3450272 C40.8960755,18.9908931 40.6538308,23.9137567 40.6538308,23.9137567 C40.6538308,23.9137567 35.3095015,11.8527408 24.3789096,10.3758818 C13.4483177,8.89902267 0.0896741337,0.28085568 0.0896741337,0.28085568 C16.1207937,28.3474896 19.7644282,29.0827635 30.9369534,38.9316464 C42.3535915,48.7773736 55.9563481,52.9649633 62.2715244,59.8569724 C82.9174368,82.2591575 74.9028111,106.138202 73.202739,109.338063 L76.3600158,114.753213 C99.1926693,62.5645473 66.6422043,24.1598999 66.6422043,25.8829021" id="Path"></path>
                            </g>
                            <g id="Group" transform="translate(0.000000, 99.000000)" fill="#6A1B9A">
                                <path d="M30.5251259,3.14437778 C23.2099488,5.42089435 7.11543364,13.2510751 0.0440748646,27.9010906 C0.0440748646,27.9010906 16.6259142,6.93317491 40.5232433,6.93317491 C61.006177,6.93317491 89.5376186,21.0812558 92.219621,32.7034719 L100.509447,25.1226394 C100.265628,24.8700529 70.2728391,-9.99011891 30.5251259,3.14437778" id="Path"></path>
                            </g>
                            <g id="Group" transform="translate(74.000000, 0.000000)" fill="#9C27B0">
                                <path d="M13.9415937,31.2900101 C10.3994298,17.0012529 0.782065667,0.991529234 0.276366631,0.00315773641 C0.528729588,0.745225794 7.11027765,15.5234322 6.85402221,32.7678308 C6.6010105,51.49005 35.1978206,40.156934 28.1102491,86.4682962 C25.0741087,106.175729 18.2427927,111.348101 16.9777341,122.431756 C22.7970033,113.564832 33.173727,90.1628478 33.9327621,70.4554149 C34.9415652,45.8219131 18.2427927,48.0386441 13.9415937,31.2900101" id="Path"></path>
                            </g>
                            <g id="Group" transform="translate(22.000000, 111.000000)" fill="#558B2F">
                                <path d="M13.9086419,2.47218763 C7.33949391,4.64969794 -1.66263723,10.2144465 0.283499765,19.6534264 C0.0402326399,17.4759161 0.283499765,9.24976601 19.0175634,7.31109943 C36.2917125,5.6174803 60.8635634,15.0564602 66.9483603,24.9762294 L69.8675658,24.9762294 L74.7329083,19.4114808 C74.7329083,19.1695352 47.9704057,-8.17341832 13.9086419,2.47218763" id="Path"></path>
                            </g>
                            <g id="Group" transform="translate(21.000000, 132.000000)" fill="#4AF6D1">
                                <polyline id="Path" points="0.547866331 0.890382843 0.547866331 0.0903828428 0.547866331 0.890382843"></polyline>
                            </g>
                            <g id="Group" transform="translate(76.357559, 95.473544) scale(-1, 1) rotate(50.645198) translate(-76.357559, -95.473544) translate(59.357559, 55.473544)" fill="#9C27B0">
                                <path d="M32.3653902,0.0469715169 C32.3653902,0.0469715169 23.4943078,9.31133893 26.8718155,22.2574964 C30.8012036,37.2431387 36.3546967,70.4170763 32.3653902,76.0532413 C19.8676656,92.8387998 1.82496262,37.6623837 0.277174777,29.0788952 C-3.14606016,10.370484 32.3653902,0.0469715169 32.3653902,0.0469715169" id="Path"></path>
                            </g>
                            <g id="Group" transform="translate(95.000000, 119.000000)" fill="#558B2F">
                                <path d="M0.295842412,17.4869109 L23.8656703,17.4869109 C20.4288627,14.5651499 17.4830277,7.0253228 25.5840741,0.458376587 C25.8295604,0.458376587 3.2416775,-4.16280778 0.295842412,17.4869109" id="Path"></path>
                            </g>
                            <g id="Group" transform="translate(90.000000, 112.000000)" fill="#DCEDC8">
                                <path d="M63.7962778,3.79393875 C54.2069767,-2.23554826 44.371796,1.14096447 40.6804509,0.899784985 C5.0247686,-2.47672774 2.07421439,18.5089791 0.107178251,23.5737482 L5.27064811,23.5737482 C6.74592522,13.1999385 28.8782341,-3.20026618 38.224808,14.8881949 C39.9428124,18.2677996 42.1588803,21.1619534 44.371796,23.8149277 L73.8804904,23.8149277 C74.6181289,15.6148253 71.1758157,8.37634888 63.7962778,3.79393875" id="Path"></path>
                            </g>
                            <g id="Group" transform="translate(132.000000, 112.000000)" fill="#DCEDC8">
                                <path d="M23.8404046,4.19589795 C13.9572606,-1.9237737 3.56728867,0.279308091 0.0162444839,1.25845555 C8.8889816,1.99281615 19.0255396,7.13334034 22.5765837,12.2738645 C25.8709651,16.924815 27.8982767,20.8445431 29.1653464,24.761133 L34.4870393,24.761133 C34.9938672,16.1935927 31.446072,8.8468484 23.8404046,4.19589795" id="Path"></path>
                            </g>
                            <g id="Group" transform="translate(112.000000, 81.000000)" fill="#558B2F">
                                <path d="M34.7791119,1.88621084 C25.0121606,-2.72660182 19.8845111,2.61454969 19.8845111,2.61454969 C8.40521291,-1.51270375 0.103304293,10.6262769 0.103304293,10.6262769 C0.103304293,10.6262769 13.7770361,6.4990235 19.8845111,15.9674284 C25.9888557,25.4389459 38.4417186,28.5950809 38.4417186,28.5950809 C45.0375412,19.3694556 44.5491936,6.4990235 34.7791119,1.88621084" id="Path"></path>
                            </g>
                            <g id="Group" transform="translate(132.000000, 81.000000)" fill="#558B2F">
                                <path d="M15.226835,1.88621084 C5.34996904,-2.72660182 0.164614432,2.61454969 0.164614432,2.61454969 C0.164614432,2.61454969 11.7699319,2.61454969 18.9306597,28.5950809 C25.6007099,19.3694556 25.1068666,6.4990235 15.226835,1.88621084" id="Path"></path>
                            </g>
                            <g id="Group" transform="translate(24.000000, 63.000000)" fill="#9C27B0">
                                <path d="M30.9122202,4.02907594 C30.9122202,4.02907594 24.3813198,-3.24769888 11.5706703,2.27338922 C-1.49048651,7.79126177 -2.74656513,24.5956918 5.29156521,36.8887144 C5.29156521,36.8887144 21.8694846,33.6281534 30.4092736,21.5859432 C38.9500286,9.54694849 56.5325532,15.8172582 56.5325532,15.8172582 C56.5325532,15.8172582 45.7320803,-2.24444933 30.9122202,4.02907594" id="Path"></path>
                            </g>
                            <g id="Group" transform="translate(26.000000, 63.000000)" fill="#9C27B0">
                                <path d="M11.3423867,2.27338922 C-1.7451563,7.79126177 -3.00377244,24.5956918 5.0502739,36.8887144 C15.6215525,3.27342323 30.7226878,4.02907594 30.7226878,4.02907594 C30.7226878,4.02907594 24.430575,-3.24769888 11.3423867,2.27338922" id="Path"></path>
                            </g>
                            <g id="Group" transform="translate(15.000000, 9.000000)" fill="#9C27B0">
                                <path d="M36.3364836,28.668586 C16.9681156,23.5748509 1.23116133,1.49888908 0.262556714,0.0435361974 C16.2422052,27.6983508 19.8733087,28.4291369 31.0102445,38.1314895 C42.3892538,47.8338421 55.7048517,51.9573419 62.2414587,58.7520984 C71.2006634,68.454451 74.8317669,78.4024721 75.8000612,86.8920306 C77.010429,34.9782249 54.2524103,33.522872 36.3364836,28.668586" id="Path"></path>
                            </g>
                        </g>
                        <g id="Group-35" transform="translate(773.000000, 255.000000)" fill-rule="nonzero">
                            <g id="Group" transform="translate(67.995838, 65.930047) scale(-1, 1) rotate(-8.797208) translate(-67.995838, -65.930047) translate(56.495838, 48.930047)" fill="#558B2F">
                                <path d="M7.88402592,0.394105668 C17.0024158,4.53962762 19.7780082,19.4150268 22.67729,28.4580031 C22.67729,28.4580031 18.6796454,34.0876021 7.88402592,33.1971559 C7.88402592,33.1971559 -0.462541486,13.9387824 0.244962449,9.36287811 C0.952466385,4.7869738 6.03363101,-0.283622862 7.88402592,0.394105668" id="Path"></path>
                            </g>
                            <g id="Group" transform="translate(59.000000, 50.000000)" fill="#346790">
                                <path d="M15.1965193,0.199746083 C14.8087769,0.199746083 14.0332921,0.599238248 13.6455497,0.599238248 C14.0332921,0.993608719 14.0332921,1.79771474 14.0332921,2.59669907 C14.0332921,12.5840032 7.44167136,22.5713073 0.069594789,30.5611506 C2.40102022,32.1591193 5.50295939,33.3575958 10.1558681,33.757088 C10.1558681,33.757088 21.4003976,15.3804484 21.4003976,10.5865424 C21.4003976,5.7926364 17.1352313,-0.199746083 15.1965193,0.199746083" id="Path"></path>
                            </g>
                            <g id="Group" transform="translate(58.000000, 47.000000)" fill="#558B2F">
                                <path d="M12.5937456,5.90812838 C9.54427056,7.8282701 12.2125613,41.2436595 9.54427056,46.6200563 C5.35124233,55.0686799 0.00977395858,65.0534169 0.00977395858,65.0534169 C11.4501925,71.9659271 55.2912837,71.9659271 55.2912837,71.9659271 C55.2912837,71.9659271 57.57839,63.9013318 59.4843119,50.8443681 C61.7714183,35.4832343 62.533787,2.45187328 61.3902339,2.45187328 C43.0933834,-2.92452355 17.5491426,2.45187328 12.5937456,5.90812838" id="Path"></path>
                            </g>
                            <g id="Group" transform="translate(86.000000, 29.000000)" fill="#FFD8D8">
                                <path d="M16.2434915,0.275249232 L1.17441206,9.64373217 C1.57096679,10.4294436 2.36407623,15.894392 1.17441206,18.6268662 C0.381302618,20.9689869 -0.808361551,24.482168 4.74340457,25.6532284 C9.89861597,26.8242887 19.0193746,22.1400473 17.8347945,18.2365127 C15.4503821,11.205146 16.2434915,0.275249232 16.2434915,0.275249232" id="Path"></path>
                            </g>
                            <g id="Group" transform="translate(86.000000, 29.000000)" fill="#FFD8D8">
                                <path d="M15.735088,0.174316493 L0.666008573,9.49775864 C1.0625633,10.2747122 1.85567274,15.7183672 0.666008573,18.4377045 C0.666008573,18.8261813 0.26945385,19.214658 0.26945385,19.6031348 C0.26945385,19.6031348 3.04533691,19.214658 5.42466525,17.660751 C8.20054831,15.7183672 10.9764314,16.8837975 13.3557597,19.214658 C14.1539532,19.9916115 14.5454239,21.5455186 14.5454239,22.7109488 C16.5281975,21.1570418 17.7229457,19.6031348 17.326391,18.0492278 C14.9419786,11.0516657 15.735088,0.174316493 15.735088,0.174316493" id="Path"></path>
                            </g>
                            <g id="Group" transform="translate(81.000000, 48.000000)" fill="#558B2F">
                                <path d="M37.2768452,0.416462005 C31.5336389,-0.356967433 21.5738392,8.53747111 21.1958675,23.2326304 C21.1958675,27.0997776 20.0472262,32.127069 16.5963937,37.9327476 C14.6819916,41.4131801 7.40726355,44.1201831 4.34422017,45.2803273 C1.2811768,46.4404715 0.898296375,47.6006156 2.42981806,48.7607598 C4.34422017,49.9209039 18.5107958,52.2411922 16.9792741,54.1747658 C15.064872,56.4950542 -2.54762742,60.3622013 0.898296375,68.1014536 C2.42981806,71.9636429 28.8534759,69.2566399 33.8309214,68.1014536 C35.3624431,65.002778 35.7453235,58.041913 36.5110844,53.4013364 C38.8083669,44.1201831 38.042606,24.0060599 39.1912473,13.1780477 C40.3398886,5.83046807 43.402932,1.18989144 37.2768452,0.416462005" id="Path"></path>
                            </g>
                            <g id="Group" transform="translate(29.000000, 125.000000)" fill="#558B2F">
                                <path d="M29.0504803,0.401638758 C28.252615,0.401638758 16.2846355,-0.391470688 11.4974436,0.401638758 C6.7102518,0.798193481 4.71558853,1.1947482 1.92305997,4.36718599 C-0.869468601,7.53962377 -0.0716032966,12.6948352 1.52412731,16.6603824 C3.11985792,20.6259296 5.11452119,20.6259296 8.70491506,19.4362655 C12.2953089,18.2466013 16.2846355,15.4707182 20.273962,15.0741635 C24.2632885,14.6776088 25.0611538,15.4707182 27.4547497,14.6776088 C30.2472783,13.8844993 30.6462109,14.6776088 30.2472783,12.6948352 C30.2472783,10.7120616 29.0504803,0.401638758 29.0504803,0.401638758" id="Path"></path>
                            </g>
                            <g id="Group" transform="translate(29.000000, 125.000000)" fill="#558B2F">
                                <path d="M29.0504803,0.751260696 C28.252615,0.751260696 16.2846355,-0.0352941266 11.4974436,0.751260696 C6.7102518,1.14453811 4.71558853,1.53781552 1.92305997,4.68403481 C0.327329356,6.25714445 -0.0716032966,8.61680892 0.327329356,10.9764734 C3.11985792,11.7630282 5.51345384,11.3697508 8.3059824,10.9764734 C10.6995783,10.583196 13.4921069,9.40336374 15.8857028,9.79664115 C18.6782314,10.1899186 21.8696926,12.1563056 22.6675579,14.9092475 C24.6622212,14.9092475 25.4600865,14.9092475 27.4547497,14.5159701 C30.2472783,13.7294153 30.6462109,14.5159701 30.2472783,12.549583 C30.2472783,10.9764734 29.0504803,0.751260696 29.0504803,0.751260696" id="Path"></path>
                            </g>
                            <g id="Group" transform="translate(29.000000, 125.000000)" fill="#558B2F">
                                <path d="M6.47790781,2.09970642 C7.9319418,0.910042249 10.8400098,0.116932803 10.4765013,0.116932803 C6.11439932,0.513487526 4.29685684,0.910042249 1.75229737,4.08248003 C-0.792262107,7.25491782 -0.0652451147,12.4101292 1.38878887,16.3756764 C2.47931436,19.9446689 4.29685684,20.3412237 6.84141631,19.5481142 C2.84282285,15.1860123 1.02528037,6.06525365 6.47790781,2.09970642" id="Path"></path>
                            </g>
                            <g id="Group" transform="translate(94.000000, 123.000000)" fill="#558B2F">
                                <path d="M26.4011584,1.30659697 C23.6086298,0.910042249 14.4331788,0.910042249 7.64620917,0.116932803 C7.64620917,0.116932803 0.465421428,10.4273556 0.0664887754,10.8239103 C0.0664887754,11.220465 5.65154591,13.9963481 8.04514182,15.9791217 C10.4387377,17.9618953 19.6193033,21.1343331 22.4118318,20.3463077 C24.8054277,19.9446689 29.5926196,9.63424615 30.7894175,6.06525365 C31.5872828,2.09970642 29.1936869,1.70315169 26.4011584,1.30659697" id="Path"></path>
                            </g>
                            <g id="Group" transform="translate(94.000000, 123.000000)" fill="#558B2F">
                                <path d="M26.4011584,1.59130293 C23.6086298,1.1947482 14.4331788,1.1947482 7.64620917,0.401638758 C7.64620917,0.401638758 1.26328673,9.52239738 0.0664887754,10.7120616 C3.25795,10.7120616 6.44941121,9.12584266 9.64598696,9.52239738 C11.2417176,9.91895211 13.2363808,11.9017257 18.0235727,11.505171 C20.8161012,11.1086163 20.4171686,15.867273 18.0235727,18.2466013 C17.62464,18.643156 16.8267747,19.0397107 16.427842,19.4362655 C18.821438,20.2293749 21.2150339,20.6259296 22.4118318,20.2293749 C24.8054277,19.8328202 29.5926196,9.52239738 30.7894175,5.95340488 C31.5872828,2.38441237 29.1936869,1.98785765 26.4011584,1.59130293" id="Path"></path>
                            </g>
                            <g id="Group" transform="translate(26.000000, 101.000000)" fill="#FF6F00">
                                <path d="M9.10645877,0.637622711 C2.60044351,1.79424065 0.304202825,6.80625173 0.304202825,12.2038021 C0.304202825,15.2881166 2.98315029,19.1484526 6.81021809,19.9195312 C10.2545791,21.0761492 66.1346755,33.7989465 67.6655026,34.1844858 C69.1963298,34.5700251 75.7072515,18.3724312 75.7072515,18.3724312 C73.4061043,17.9868918 20.970369,-1.67561317 9.10645877,0.637622711" id="Path"></path>
                            </g>
                            <g id="Group" transform="translate(26.000000, 110.000000)" fill="#FF6F00">
                                <path d="M25.9455571,7.05138486 C14.4643537,7.44173831 10.6372859,5.88032449 0.686909605,0.415376113 C0.686909605,1.19608302 0.304202825,2.36714339 0.304202825,3.53820376 C0.304202825,6.6610314 2.98315029,10.564566 6.81021809,11.3452729 C10.2545791,12.5163332 66.1346755,25.4030018 67.6655026,25.7933553 C69.1963298,26.1837087 75.7072515,9.78385905 75.7072515,9.78385905 C74.9369315,9.39350559 59.2459535,3.92855721 49.2955772,0.415376113 C41.2587348,4.31891067 34.3651063,6.6610314 25.9455571,7.05138486" id="Path"></path>
                            </g>
                            <g id="Group" transform="translate(71.051373, 18.172257) scale(-1, 1) rotate(1.685261) translate(-71.051373, -18.172257) translate(67.551373, 11.172257)" fill="#212121">
                                <path d="M3.32387669,0.305158515 C3.32387669,0.305158515 6.08955689,2.54115423 6.16871768,5.2421579 C6.64862999,8.31417856 3.32387669,13.434213 3.32387669,13.434213 C3.32387669,13.434213 -0.0157192679,5.03933528 0.305871454,2.71429549 C0.676937671,2.31359714 3.32387669,0.305158515 3.32387669,0.305158515" id="Path"></path>
                            </g>
                            <g id="Group" transform="translate(83.000000, 49.000000)" fill="#8BC34A">
                                <path d="M3.25378234,1.51368666 L3.62977497,0.403333436 C3.62977497,0.403333436 0.997826585,0.0332156947 0.245841332,3.36427537 C-0.50614392,8.91604149 2.50179709,13.3574544 2.50179709,13.3574544 C2.87778972,10.3965125 7.38970123,6.3252173 7.38970123,6.3252173 C3.62977497,4.47462859 3.25378234,1.51368666 3.25378234,1.51368666" id="Path"></path>
                            </g>
                            <g id="Group" transform="translate(71.000000, 8.000000)" fill="#FFD8D8">
                                <path d="M36.2113645,14.9303766 C34.6658179,12.22567 31.9561577,14.5439899 31.9561577,14.5439899 C31.9561577,14.5439899 31.569771,7.58903016 26.5467445,2.95239032 C21.523718,-1.68424951 16.5006916,0.247683752 7.61379854,2.95239032 C-1.27309449,5.6570969 0.272452127,8.36180347 0.272452127,8.36180347 C0.272452127,8.36180347 0.65883878,15.7031499 1.81799874,23.0444963 C2.20438539,26.1355895 5.68186527,30.3858427 9.5457318,35.0224825 C13.0232117,39.2776894 18.0462382,36.9593695 24.6148113,33.0905493 C31.1833844,29.2266827 30.8019514,25.3628162 30.8019514,24.5900429 C30.8019514,24.5900429 31.9561577,24.9764295 33.8880909,23.4308829 C36.2113645,22.271723 37.7569112,18.4078564 36.2113645,14.9303766" id="Path"></path>
                            </g>
                            <g id="Group" transform="translate(70.000000, 0.000000)" fill="#212121">
                                <path d="M0.994119709,9.32413509 C-0.174845175,11.675264 -1.34880564,19.5123603 5.28032428,21.4766581 C12.2941136,23.4309084 25.1527273,14.4182477 27.880312,19.5123603 C30.2182418,23.827787 27.4906571,26.5707707 29.4389319,28.5300448 C30.6078968,29.3137544 31.7768616,28.9218996 32.5611671,27.7463352 C32.5611671,27.3544804 32.5611671,24.2196418 34.119787,21.8685129 C34.119787,21.8685129 35.2887519,21.0797795 36.4577168,21.0797795 C36.4577168,21.0797795 38.0163366,15.9856669 35.6734113,11.2834092 C28.659622,-4.78263826 6.0596342,-0.864090105 0.994119709,9.32413509" id="Path"></path>
                            </g>
                            <g id="Group" transform="translate(89.000000, 0.000000)" fill="#212121">
                                <path d="M0.391470688,0.351664578 C5.15012736,3.4865031 -0.798193481,11.3235994 3.56390847,14.8502927 C7.5294557,17.9851313 9.51222931,19.1606957 9.51222931,21.9087032 C9.51222931,23.4761224 8.71911987,27.3946706 8.71911987,28.1783802 L9.11567459,28.570235 C10.3053388,29.3539447 11.4950029,28.9620899 12.2931964,27.7865254 C12.2931964,27.3946706 12.2931964,24.2598321 13.8794153,21.9087032 C13.8794153,21.9087032 15.0690795,21.1249936 16.2587436,21.1249936 C16.2587436,21.1249936 17.8449625,16.0258572 15.4605502,11.3235994 C12.2931964,4.27021273 6.33979153,0.743519393 0.391470688,0.351664578" id="Path"></path>
                            </g>
                            <g id="Group" transform="translate(52.000000, 104.000000)" fill="#FF6F00">
                                <path d="M69.5644958,1.49319988 C63.0206166,-2.32547523 51.4725945,2.2569349 38.764835,6.45747752 C28.7565492,9.51241761 0.651426891,19.0591054 0.651426891,19.0591054 C0.651426891,19.0591054 -2.04311161,30.901894 5.65556982,38.1573767 C5.65556982,38.1573767 44.153912,28.9925564 69.1795618,18.3002661 C71.1042321,17.5316353 73.7987706,16.3860328 74.5686388,12.5673577 C74.9535728,8.36681508 73.0289025,3.40253744 69.5644958,1.49319988" id="Path"></path>
                            </g>
                            <g id="Group" transform="translate(52.000000, 105.000000)" fill="#FF6F00">
                                <path d="M70.334364,0.0146420205 C71.1042321,2.29879722 71.1042321,4.96364496 69.9494299,8.00918523 C68.0247595,12.1968031 63.4055507,14.4809583 59.1712759,13.7195732 C57.2466055,13.3437614 55.7068692,12.1968031 54.167133,11.8161106 C51.0827253,11.435418 49.542989,12.5823763 47.2333846,14.8665315 C43.768978,17.9120718 40.6895054,20.5769195 36.0702965,21.3383046 C33.375758,21.7189971 31.0661536,21.3383046 28.3716151,21.3383046 C24.9072085,21.7189971 22.597604,23.6224598 19.5181315,24.3838449 C12.5843831,26.2873075 6.42543797,24.7645374 0.266492819,22.4803822 C0.266492819,26.6680001 1.42129503,31.9976955 5.65556982,35.8046209 C5.65556982,35.8046209 44.153912,26.6680001 69.1795618,16.0086091 C71.1042321,15.2423434 73.7987706,14.1002658 74.5686388,10.2933404 C74.9535728,6.86710763 73.4138365,2.29879722 70.334364,0.0146420205" id="Path"></path>
                            </g>
                            <g id="Group" transform="translate(104.000000, 24.000000)" fill="#FFD8D8">
                                <path d="M0.626654377,1.57145636 C0.245841332,2.32344161 0.245841332,2.69943424 0.626654377,3.45141949 C1.002647,4.20340474 1.002647,3.82741212 1.002647,4.57939737 C1.002647,5.33138262 0.245841332,4.95539 0.245841332,5.70737525 C-0.130151294,6.4593605 0.245841332,6.83535313 1.002647,7.21134575 C1.75463226,7.58733838 2.88261013,6.83535313 3.25860276,4.95539 C3.62977497,3.07542687 4.01058801,1.19546373 3.62977497,0.443478482 C2.50661751,-0.30850677 1.002647,0.443478482 0.626654377,1.57145636" id="Path"></path>
                            </g>
                            <g id="Group" transform="translate(117.765932, 135.516133) scale(-1, 1) rotate(-14.321007) translate(-117.765932, -135.516133) translate(113.265932, 125.516133)" fill="#558B2F">
                                <path d="M4.62658643,0.311395446 C2.37543652,1.33046216 4.45342105,16.5966752 8.46096263,19.609353 C6.87278875,19.6044061 5.27966728,19.5945122 4.62658643,19.0305627 C2.47933575,18.0856999 0.470617376,7.21730387 0.213343102,3.56647263 C-0.0538263369,-0.0893055444 2.28638004,0.113518414 4.62658643,0.311395446" id="Path"></path>
                            </g>
                            <g id="Group" transform="translate(70.000000, 52.000000)" fill="#FFD8D8">
                                <path d="M43.7421971,4.83949283 C42.5837912,12.7555894 54.553985,33.0988467 54.553985,33.0988467 C54.553985,33.0988467 25.202753,26.3177609 22.1136707,25.9410339 C17.4800473,25.5643069 11.688018,21.4203101 10.1434769,21.7970371 C9.75734161,21.7970371 5.89598877,23.303945 5.89598877,23.303945 C5.50985348,23.303945 -0.282175785,28.2013958 0.1039595,29.3315768 C0.1039595,29.7083038 1.64850064,29.3315768 2.03463592,28.9548498 C3.19304177,28.2013958 5.50985348,25.9410339 6.28212405,25.5643069 C7.82666519,24.810853 10.9157475,24.434126 10.9157475,24.434126 C10.9157475,24.434126 8.21280047,25.5643069 7.4405299,26.3177609 C5.89598877,27.4479419 3.19304177,29.7083038 2.42077121,31.2152117 C2.03463592,31.5919387 2.03463592,32.3453927 2.03463592,32.3453927 C2.42077121,32.3453927 3.19304177,32.3453927 3.96531234,31.9686657 C5.1237182,31.5919387 6.66825933,29.7083038 7.05439462,29.3315768 C7.4405299,28.9548498 10.1434769,27.8246689 10.1434769,27.8246689 C10.1434769,27.8246689 7.05439462,30.8384847 6.66825933,31.5919387 C5.89598877,32.7221197 4.35144763,35.3592086 4.73758291,35.3592086 C5.1237182,35.3592086 5.50985348,34.9824816 6.28212405,34.6057546 C7.82666519,33.4755737 8.59893576,31.9686657 9.37120632,31.5919387 C10.1434769,31.2152117 12.0741533,30.0850308 12.8464239,29.7083038 C12.8464239,29.7083038 11.3018827,30.8384847 11.3018827,31.5919387 C10.9157475,32.3453927 10.1434769,34.2290276 10.1434769,34.2290276 C10.1434769,34.2290276 9.75734161,36.8661165 10.5296122,36.8661165 C11.3018827,36.4893896 12.0741533,33.8523006 12.0741533,33.8523006 C12.0741533,33.8523006 12.4602886,33.4755737 13.2325592,32.7221197 C13.2325592,32.7221197 16.7077767,33.8523006 19.796859,33.8523006 C22.8859413,33.8523006 24.4304824,32.7221197 24.4304824,32.7221197 C24.8166177,33.8523006 58.4153379,43.6472023 61.5044202,44.0239293 C64.9796377,44.7773833 67.6825847,42.5170213 67.6825847,41.3868404 C68.845941,35.7359356 61.5044202,18.0297672 56.4846615,5.59777664 C51.8510381,-5.33213581 44.1283324,2.9558579 43.7421971,4.83949283" id="Path"></path>
                            </g>
                            <g id="Group" transform="translate(80.000000, 52.000000)" fill="#FFD8D8">
                                <path d="M34.6751517,4.83949283 C33.5053153,11.6254084 42.4740612,27.4479419 44.8137341,31.9686657 C45.9835705,31.9686657 47.9332979,31.9686657 49.8830253,30.8384847 C54.1724256,28.9548498 59.6316623,35.3592086 53.3925346,39.1264785 C49.1031344,41.7683972 42.4740612,39.5032054 15.1728785,30.8384847 C12.4432602,30.0850308 9.71364183,31.9686657 8.15385992,31.9686657 C7.37396897,31.9686657 5.0342961,30.8384847 3.86445967,31.5919387 C1.91473228,32.7221197 1.5247868,34.2290276 0.744895848,36.4893896 C0.744895848,36.8661165 0.744895848,36.8661165 0.354950371,36.8661165 C0.354950371,36.8661165 0.354950371,37.2428435 0.744895848,36.8661165 C1.5247868,36.4893896 2.30467776,33.8523006 2.30467776,33.8523006 C2.30467776,33.8523006 2.69462324,33.4755737 3.47451419,32.7221197 C3.47451419,32.7221197 6.98402349,33.8523006 10.1035873,33.8523006 C13.2231511,33.8523006 14.782933,32.7221197 14.782933,32.7221197 C15.1728785,33.8523006 49.1031344,43.6472023 52.2226982,44.0239293 C55.7322075,44.7773833 58.4618258,42.5170213 58.4618258,41.3868404 C59.6316623,35.7359356 52.2226982,18.0297672 47.153407,5.59777664 C42.8640067,-5.33213581 35.0650972,2.9558579 34.6751517,4.83949283" id="Path"></path>
                            </g>
                            <g id="Group" transform="translate(110.000000, 48.000000)" fill="#558B2F">
                                <path d="M6.44794372,0.244033676 C-2.05765263,2.14749635 -2.7972697,12.811768 11.6252632,34.8919349 C11.6252632,34.8919349 20.5006681,34.1305499 25.3081791,29.5622395 C25.3081791,29.5622395 15.6931571,-2.03524085 6.44794372,0.244033676" id="Path"></path>
                            </g>
                            <g id="Group" transform="translate(115.000000, 49.000000)" fill="#558B2F">
                                <path d="M3.23118663,0.0195226941 C3.61892903,0.405095902 4.00667142,0.785788436 4.00667142,1.54229283 C5.55764101,8.78033165 4.00667142,17.1555674 0.129247465,23.6273405 C2.06795944,27.0535733 4.00667142,30.8604986 7.10861059,35.0529972 C7.10861059,35.0529972 16.4144281,34.2867314 21.4550792,29.718421 C21.0673368,29.3377285 12.5370041,1.92298536 3.23118663,0.0195226941" id="Path"></path>
                            </g>
                            <g id="Group" transform="translate(90.000000, 41.000000)" fill="#8BC34A">
                                <path d="M11.2601205,0.0365007634 L11.6302383,2.88356031 C11.6302383,2.88356031 6.07847214,12.2433989 0.156588275,11.424739 C0.156588275,11.424739 4.59800117,15.9039041 6.07847214,19.1576864 C6.07847214,19.1576864 13.1154543,12.2433989 13.8556898,5.73061986 C14.5959253,1.25666914 11.2601205,0.0365007634 11.2601205,0.0365007634" id="Path"></path>
                            </g>
                            <g id="Group" transform="translate(101.616799, 102.816675) scale(-1, 1) rotate(87.693598) translate(-101.616799, -102.816675) translate(98.616799, 72.316675)" fill="#6A1B9A">
                                <path d="M2.79642067,0.270527594 C3.95415063,0.315049762 5.06240494,1.51714829 5.01787687,2.67472465 L2.79642067,57.8179027 C2.7518926,58.9705322 1.54468701,60.0835864 0.386957052,60.0390642 L2.79642067,0.270527594 Z" id="Path"></path>
                            </g>
                            <g id="Group" transform="translate(26.000000, 48.000000)" fill="#6A1B9A">
                                <path d="M39.5004425,3.5126388 C39.1024274,1.53867752 37.1072494,0.354300744 35.1222769,0.354300744 L0.484761922,0.354300744 L0.484761922,54.8406937 L48.6547887,55.6302782 C51.440894,55.6302782 51.8389091,53.2615247 51.440894,52.4719402 L39.5004425,3.5126388 Z" id="Path"></path>
                            </g>
                            <g id="Group" transform="translate(0.000000, 48.000000)" fill="#E1BEE7">
                                <path d="M62.0434763,1.31555456 C62.0434763,0.526221823 61.2736081,0.131555456 60.8886741,0.131555456 L1.60389197,0.131555456 C0.834023822,0.131555456 0.0641556786,0.92088819 0.44908975,1.71022092 L11.6121778,49.8645775 C12.382046,53.0269683 15.0765845,54.9952403 18.156057,54.9952403 L73.5964335,54.9952403 C74.3663016,54.9952403 75.1361698,54.2059076 74.7512357,53.4165748 L62.0434763,1.31555456 Z" id="Path"></path>
                            </g>
                        </g>
                        <g id="Group-34" transform="translate(109.000000, 77.000000)" fill-rule="nonzero">
                            <g id="Group" transform="translate(16.000000, 3.000000)" fill="#212121">
                                <path d="M8.61286354,17.1382817 C13.2128983,17.1382817 16.9410211,13.4116841 16.9410211,8.8106325 C16.9410211,4.2095809 13.2128983,0.482983316 8.61286354,0.482983316 C4.01333716,0.482983316 0.284197551,4.2095809 0.284197551,8.8106325 C0.284197551,13.4116841 4.01333716,17.1382817 8.61286354,17.1382817" id="Path"></path>
                            </g>
                            <g id="Group" transform="translate(16.000000, 3.000000)" fill="#212121">
                                <path d="M9.12126703,0.482983316 C8.32866599,0.482983316 7.13798501,0.482983316 6.34538397,0.879538039 L7.53504814,0.879538039 C16.2602688,0.879538039 16.2602688,14.3623986 7.53504814,14.3623986 C1.98226521,14.3623986 -0.00101680698,8.8106325 1.58520208,4.84508527 C0.792601042,6.03474944 0.396046319,7.62096833 0.396046319,8.8106325 C0.396046319,13.5692892 3.96554723,17.1382817 8.7242039,17.1382817 C13.4843858,17.1382817 17.0538867,13.5692892 17.0538867,8.8106325 C17.4494246,4.05197582 13.4843858,0.482983316 9.12126703,0.482983316" id="Path"></path>
                            </g>
                            <g id="Group" transform="translate(16.000000, 0.000000)" fill="#212121">
                                <path d="M4.81105613,1.74484078 C0.369643231,4.45903755 -1.48141999,10.6629159 1.47952195,15.703567 C2.95999291,18.4177638 5.55224063,19.9687334 8.51318256,20.7442182 C6.66211934,19.9687334 4.81105613,18.4177638 3.70117741,16.4790518 C1.1094042,11.8261431 2.59082419,5.62226474 7.0327116,2.52032557 C8.8833003,1.35709839 11.1040068,0.969355989 13.3251877,1.35709839 C10.3637713,-0.193871198 7.40282934,-0.193871198 4.81105613,1.74484078" id="Path"></path>
                            </g>
                            <g id="Group" transform="translate(28.267544, 30.765223) scale(-1, 1) rotate(9.659226) translate(-28.267544, -30.765223) translate(10.267544, 11.765223)" fill="#212121">
                                <path d="M19.0295585,0.140690317 C36.7988078,1.03608428 35.2695095,17.3461058 35.155715,21.2789136 C34.9934343,29.5254425 28.542279,35.3182952 19.0295585,36.9408876 C6.47258939,39.0779605 -3.48442416,21.9813774 1.93169645,10.0988563 C5.8986696,1.20427983 14.2694876,-0.220435426 19.0295585,0.140690317" id="Path"></path>
                            </g>
                            <g id="Group" transform="translate(13.000000, 12.000000)" fill="#212121">
                                <path d="M12.6561378,0.713329206 C12.2667105,0.713329206 12.2667105,0.713329206 12.6561378,0.713329206 C12.2667105,0.713329206 12.6561378,0.713329206 12.6561378,0.713329206 C14.2118525,1.09971586 15.7675672,1.87248916 16.9338546,3.03164912 C20.4352099,4.57719574 22.3798532,7.28190231 23.9360665,10.3729955 C25.1023539,13.4640888 25.4917812,16.555182 24.7144225,20.0326619 C23.9360665,23.5150954 21.2135658,26.6061886 17.7127092,28.5381219 C14.5997839,30.4700552 10.3220672,31.2428285 6.43178323,30.0836685 C4.09771258,29.3108952 2.1525706,28.1517352 0.596855921,26.6061886 L0.208425877,26.219802 C2.5419979,33.1747617 9.5432126,37.4250149 18.4900679,37.4250149 C31.3267085,37.4250149 38.3284219,18.8784556 30.9372812,8.05467561 C25.8807099,-0.445830754 17.3232819,-0.445830754 12.6561378,0.713329206" id="Path"></path>
                            </g>
                            <g id="Group" transform="translate(12.000000, 143.000000)" fill="#FFD8D8">
                                <path d="M12.9588139,59.0607204 C12.573418,62.1470523 11.8001493,64.4618012 11.8001493,66.7765502 C11.8001493,69.4770906 12.186536,71.7918396 12.186536,75.263963 C12.573418,78.7410324 11.0263853,81.4415729 10.2546027,84.5279048 C7.16301411,100.345356 10.2546027,104.203271 7.16301411,116.167753 C6.00286341,120.025668 4.84419882,121.568834 4.4573168,123.112 C3.68503886,125.426749 4.4573168,128.127289 3.68503886,132.756787 C2.52538354,138.54366 -0.179323036,144.330532 0.592954902,147.802655 C1.36622358,150.888987 8.70856072,153.980265 11.4132673,153.980265 C14.5043605,153.980265 12.9588139,150.12235 12.9588139,148.188447 C12.573418,144.716323 14.1189646,124.269374 15.2776292,119.639876 C18.7556044,106.51802 26.4838329,93.0153176 28.0303702,80.6699899 C29.5764122,69.0912991 28.4162615,66.7765502 31.1219588,53.273848 C31.5088408,51.7306821 36.9177586,15.0755444 37.3046406,0.0296762685 L13.3456959,11.9892125 C14.1189646,26.2634976 14.5043605,44.4006437 12.9588139,59.0607204" id="Path"></path>
                            </g>
                            <g id="Group" transform="translate(16.000000, 143.000000)" fill="#FFD8D8">
                                <path d="M19.3518102,48.2585586 C22.5477475,60.6038863 19.3518102,72.949214 15.7558686,85.2994878 C11.3604304,98.8021899 7.76448875,104.974854 6.96601659,119.254085 C6.56652442,123.883583 3.37007493,127.355706 2.1705741,131.599413 C0.173113272,138.157868 4.56855143,144.330532 0.173113272,152.046362 C2.57057843,153.208682 4.96855576,153.980265 6.56652442,153.980265 C9.76246175,153.980265 8.16449309,150.12235 8.16449309,148.188447 C7.76448875,144.716323 9.36245741,124.269374 10.5619582,119.639876 C14.1578999,106.51802 22.1482554,93.0153176 23.746224,80.6699899 C25.345217,69.0912991 24.1462284,66.7765502 26.9436979,53.273848 C27.3421657,51.7306821 32.9360804,15.0755444 33.3355725,0.0296762685 L16.5543407,8.13129757 C18.5523137,21.2482083 16.1558729,35.1367019 19.3518102,48.2585586" id="Path"></path>
                            </g>
                            <g id="Group" transform="translate(13.000000, 279.000000)" fill="#558B2F">
                                <path d="M12.4263605,7.96159867 C12.0440034,10.340927 7.07923616,11.9271459 4.78754152,8.35815339 C3.26007148,6.37537978 2.49584689,3.20294199 2.1134898,0.823613655 L2.1134898,0.427058932 C0.967887268,4.78916088 -0.559582776,8.75470811 0.20464182,11.1340365 C0.967887268,14.3064742 8.2248387,17.478912 10.8974217,17.478912 C13.9538305,17.478912 12.4263605,13.5133648 12.4263605,11.5305912 L12.4263605,7.96159867" id="Path"></path>
                            </g>
                            <g id="Group" transform="translate(2.000000, 48.000000)" fill="#FFD8D8">
                                <path d="M37.0893898,12.1245956 C30.3210928,14.0305175 31.9146838,6.78801424 30.7196181,0.302992716 L21.5637411,3.35735477 C22.7588068,9.45630493 23.5543266,13.6493332 18.3796207,15.5552551 C15.5935153,16.6988082 10.8163142,17.8423614 8.0302088,18.6047302 C3.65102268,19.7482833 1.26344265,50.2479211 0.466902272,58.6339775 L8.42873413,61.6834526 C10.0207943,55.9656869 13.6034401,46.0548929 13.6034401,39.1886869 L43.8561559,35.3768431 L41.4675553,25.4660491 L51.8169672,22.0353896 C49.0308619,11.7434112 45.0502011,10.2186737 37.0893898,12.1245956" id="Path"></path>
                            </g>
                            <g id="Group" transform="translate(52.991795, 84.880165) scale(-1, 1) rotate(30.865893) translate(-52.991795, -84.880165) translate(42.991795, 64.880165)" fill="#FFD8D8">
                                <path d="M10.4052482,0.449600938 C10.4052482,0.449600938 18.4327054,28.9241238 19.277753,37.8582775 L10.4052482,39.564968 C8.29955592,32.2830886 1.31504972,13.0741636 0.074195324,3.47712144 L10.4052482,0.449600938 Z" id="Path"></path>
                            </g>
                            <g id="Group" transform="translate(23.000000, 47.000000)" fill="#FFD8D8">
                                <path d="M15.3564049,12.7914318 C8.7183943,14.8342895 10.2813095,7.07143037 9.1092482,0.125714318 L0.129617365,3.39428658 C0.520471274,4.62000118 0.520471274,5.84571578 0.911325183,7.07143037 C3.25394637,11.1571457 8.32904175,16.8771472 12.6229298,16.4685756 C14.9655509,16.0600041 16.9178187,13.2000034 19.6502929,13.2000034 C21.2117067,12.7914318 23.5543279,13.2000034 25.5065956,13.6085749 C22.7731205,11.5657172 19.6502929,11.5657172 15.3564049,12.7914318" id="Path"></path>
                            </g>
                            <g id="Group" transform="translate(5.000000, 89.000000)" fill="#FFD8D8">
                                <path d="M5.60735157,0.418359584 C5.60735157,1.97226661 5.20450233,3.52617363 5.20450233,5.08008066 C5.20450233,9.74678221 1.5778262,17.1278406 0.369794946,21.4010849 L3.9959546,22.9549919 C5.60735157,18.2932708 9.23351122,9.74678221 9.23351122,3.91963086 C8.42729627,3.13769688 6.01071728,0.80683634 5.60735157,0.418359584" id="Path"></path>
                            </g>
                            <g id="Group" transform="translate(16.000000, 21.000000)" fill="#FFD8D8">
                                <path d="M17.2004513,1.65341657 C15.270268,0.480993911 12.5682094,0.0901863584 9.48021306,0.871801464 C1.76096442,2.43503168 -0.168724043,9.07876008 0.21721365,16.113296 C0.602656551,20.0263819 0.602656551,23.147832 2.53234501,26.2742924 C3.30471519,27.842533 8.70883247,33.7046463 12.1827665,33.7046463 C16.0416486,33.7046463 21.0608178,26.6701103 21.8321984,24.7160726 C22.6045686,22.7570244 22.9895167,20.0263819 22.9895167,16.113296 L22.9895167,15.3316809 C22.9895167,9.46956763 21.4457659,3.99826189 17.2004513,1.65341657" id="Path"></path>
                            </g>
                            <g id="Group" transform="translate(20.000000, 23.000000)" fill="#D7CCC8">
                                <path d="M11.5727887,0.664313895 C8.7958888,-0.075921588 5.22638789,-0.075921588 0.467731212,1.40454938 C0.467731212,1.40454938 4.03723212,13.2530622 17.5211095,13.6231799 C17.5211095,8.07141382 15.9348906,2.88502034 11.5727887,0.664313895" id="Path"></path>
                            </g>
                            <g id="Group" transform="translate(9.000000, 134.000000)" fill="#FFD8D8">
                                <path d="M33.4794128,136.961528 C32.7061441,135.425346 31.9328754,134.273208 30.7742108,130.432751 C27.2962356,118.527335 30.3873288,114.297908 27.2962356,98.5520348 C26.5239576,95.4796692 24.9769249,92.7913493 25.3638069,89.334938 C25.3638069,85.8785267 26.1370756,83.5742525 25.750689,80.8859326 C25.750689,78.5816584 24.591529,75.8933385 24.591529,73.200095 C23.8182603,63.5989525 23.8182603,60.1425412 23.8182603,46.3168961 C24.204647,25.5735046 25.750689,15.5883165 18.0224605,0.221564826 L2.17813091,0.221564826 L0.246197649,14.4361794 C0.632584303,30.5660987 2.5640222,47.8530788 6.04199745,66.2872724 C8.74769475,79.7288719 9.51997269,84.7263896 11.838788,95.8637149 C14.5429992,107.769132 24.591529,137.345574 24.9769249,142.338168 C24.9769249,143.490305 25.3638069,160.009194 25.750689,162.313468 C26.1370756,164.617742 25.750689,169.994382 28.8417822,169.994382 C31.5474795,169.994382 36.5710013,164.233697 36.9578834,162.313468 C38.116548,159.241103 35.0254547,153.091448 33.865304,147.330762 C33.4794128,141.954122 34.2521861,139.265803 33.4794128,136.961528" id="Path"></path>
                            </g>
                            <g id="Group" transform="translate(35.000000, 287.000000)" fill="#558B2F">
                                <path d="M3.15383398,10.9919442 C2.00872102,10.9919442 1.24547557,9.77177581 0.481250979,8.95311583 L0.481250979,10.9919442 C0.863118489,13.4322809 0.481250979,19.1264 3.53619107,19.1264 C6.21024279,19.1264 11.17501,13.0255582 11.5573671,10.9919442 C12.320123,8.54639304 10.7926529,4.48437951 9.64753996,0.00521439478 C10.0294075,0.81865998 8.50095828,10.9919442 3.15383398,10.9919442" id="Path"></path>
                            </g>
                            <g id="Group" transform="translate(0.000000, 116.000000)" fill="#558B2F">
                                <path d="M53.5586844,0.842518733 C48.883513,2.01602697 19.6586964,6.71005991 9.13856167,0.451349321 C8.35986591,5.14538226 0.177316867,11.4040929 0.177316867,26.2685305 C0.177316867,47.7878631 9.13856167,91.2126829 9.13856167,91.2126829 C9.13856167,91.2126829 29.4006349,96.6890546 43.8182444,91.9950217 C49.6622087,63.825809 57.4556596,34.8792726 55.1170749,13.7511093 C55.1170749,12.9687705 53.5586844,1.62485756 53.5586844,0.842518733" id="Path"></path>
                            </g>
                            <g id="Group" transform="translate(13.000000, 117.000000)" fill="#558B2F">
                                <path d="M41.3731078,0.230689653 C31.2908113,10.7922638 15.3908876,11.1834332 18.1050844,16.659805 C20.0442934,20.5714991 30.5148294,28.0087329 33.2300204,30.3557494 C39.0461564,35.4409517 22.7594844,42.4820011 23.9227116,54.9994223 C24.310454,60.8669635 21.595263,71.0423832 20.0442934,76.5187549 C17.7183362,85.124482 5.69683058,84.3421432 0.267442832,90.9920232 C6.47181827,92.1655314 20.8202753,94.9037173 31.6790508,90.9920232 C37.4951868,62.8278255 45.251526,33.8762741 42.9240774,12.7481108 C42.9240774,11.965772 41.7613473,1.7953673 41.3731078,0.230689653" id="Path"></path>
                            </g>
                            <g id="Group" transform="translate(3.000000, 59.000000)" fill="#558B2F">
                                <path d="M52.196391,4.40805532 C47.0686776,-0.928526066 36.4183445,0.596211474 36.4183445,0.596211474 C32.4738329,4.02687094 24.5853153,9.36345232 24.5853153,9.36345232 L13.1456753,5.93279286 C13.1456753,5.93279286 1.70704669,6.31397725 0.128433015,16.6108426 C-0.264956299,20.0415021 7.22865507,19.6603177 7.22865507,24.6157147 C7.22865507,28.0463742 9.20116371,30.7146649 11.5680729,32.6205868 C12.3573798,38.3383525 12.7512747,44.4373027 12.3573798,47.4867778 C11.9629792,53.9669123 8.01796191,53.5906149 8.41286815,57.3975718 C9.5955643,63.8825933 47.8579844,62.3578558 51.4080954,58.5460119 C54.9582065,54.7341681 51.4080954,31.0958492 49.8294818,18.8979489 C48.64628,12.031743 54.9582065,7.07634602 52.196391,4.40805532" id="Path"></path>
                            </g>
                            <g id="Group" transform="translate(10.000000, 59.000000)" fill="#558B2F">
                                <path d="M44.061602,4.29036057 C39.1636682,-1.03358686 28.9905906,0.487540974 28.9905906,0.487540974 C25.2228377,3.91007861 17.687815,9.23402605 17.687815,9.23402605 L6.76080046,5.81148841 C6.76080046,5.81148841 3.74698457,5.81148841 0.355958704,7.71289821 C1.10892969,8.09318017 3.3697746,8.85374409 4.87716553,9.61430801 C19.5719329,17.2248226 17.687815,27.8727175 13.1656422,30.1544092 C10.1518263,31.6755371 20.3249039,41.94315 20.3249039,51.0747924 C20.3249039,54.877612 29.3678006,51.0747924 32.3816164,48.7882253 C35.0187054,46.5065335 36.9028233,48.7882253 34.2657344,50.6945105 C28.9905906,54.4973301 24.0926568,58.6804316 14.6739991,58.6804316 C12.4131542,58.6804316 9.02164537,59.4409955 6.76080046,60.5818414 C17.310605,63.2438151 40.2938491,61.7226873 42.554694,58.6804316 C45.9457199,54.877612 42.554694,31.2952551 41.0477861,19.1262324 C40.6705761,11.8959998 46.6996569,6.95233429 44.061602,4.29036057 Z M37.6567602,22.54877 C36.5265793,24.4501798 35.3959153,27.1121536 36.1498523,29.0135634 C36.9028233,32.436101 34.2657344,33.5769469 31.6286455,31.6755371 C30.1207715,30.5346912 23.3387198,34.7177928 19.5719329,33.9572288 C16.1809071,33.1966649 18.440786,31.6755371 19.5719329,31.6755371 C23.3387198,32.055819 31.6286455,22.929052 33.1360364,19.1262324 C33.8885244,17.2248226 37.2800332,16.4642587 38.4097312,17.6051046 C39.1636682,18.7459504 38.7869412,21.4079242 37.6567602,22.54877" id="Shape"></path>
                            </g>
                            <g id="Group" transform="translate(24.000000, 43.000000)" fill="#D7CCC8">
                                <path d="M0.510301531,1.14966976 C0.0867675291,1.57266147 0.933293235,1.99565317 1.35682724,1.99565317 L4.31722687,1.99565317 C4.74076087,1.99565317 5.58620198,1.99565317 5.16429487,1.14966976 C5.16429487,1.14966976 3.89423517,0.303686352 2.62526005,0.303686352 C1.77873435,0.303686352 0.933293235,0.726678056 0.510301531,1.14966976" id="Path"></path>
                            </g>
                            <g id="Group" transform="translate(19.000000, 20.000000)" fill="#212121">
                                <path d="M0.289833443,1.62904803 C0.289833443,1.62904803 5.35742128,17.9719093 24.84922,15.9290517 C24.84922,15.5204801 22.5095646,-5.32190612 0.289833443,1.62904803" id="Path"></path>
                            </g>
                            <g id="Group" transform="translate(50.000000, 96.000000)" fill="#FFD8D8">
                                <path d="M5.88133483,9.30205562 C5.88133483,18.8593817 7.92471631,35.1864804 4.2470487,38.3722558 C1.7950957,40.3633654 1.38704797,41.5631365 0.569381097,43.9524681 C-0.248285778,46.3417996 2.61276257,44.35069 2.20366723,47.1382434 C1.7950957,48.7311311 0.569381097,53.5097941 1.38704797,53.9080161 C2.61276257,54.7044599 3.0213341,53.1115722 3.42938183,51.5186845 C4.2470487,51.9169065 5.47223949,51.9169065 5.47223949,50.7222407 C6.69900171,51.1204626 7.51562096,50.3240188 7.92471631,49.5275749 C9.14990709,49.9257969 9.96809778,49.129353 10.3766693,47.1382434 C10.7857647,45.1471338 11.6023839,41.9562531 12.4200508,36.7793681 C13.23667,29.6113735 19.3662906,12.487831 14.0543369,1.33251181 C12.8280985,-0.658597791 5.88133483,-1.45504163 5.88133483,9.30205562" id="Path"></path>
                            </g>
                            <g id="Group" transform="translate(48.000000, 137.000000)" fill="#FFD8D8">
                                <path d="M2.57428413,4.87034404 C2.15129242,5.68120726 2.15129242,6.88975499 0.459325607,9.30685044 C1.72830072,9.30685044 2.99673354,8.49598723 3.42026754,6.48174101 C4.68978495,5.68120726 5.53522606,4.87034404 5.95876006,4.06981029 L5.53522606,0.439002379 L2.57428413,4.87034404 Z" id="Path"></path>
                            </g>
                            <g id="Group" transform="translate(2.000000, 106.000000)" fill="#FFD8D8">
                                <path d="M44.6516757,6.66211934 C43.4576306,6.66211934 41.0700505,6.66211934 42.2640957,5.18164838 C43.8561559,3.33105967 36.6908644,4.4414129 34.3022638,6.2920016 C33.1082187,7.03223709 31.9146838,6.66211934 30.7196181,6.66211934 C25.5449122,6.66211934 18.3796207,3.33105967 8.82572863,1.85058871 C5.64109794,1.48047097 3.65102268,0.740235483 0.466902272,0 C0.0683769447,2.96094193 0.864917323,6.2920016 2.45697753,7.77247257 C7.63168347,12.2186306 13.2049147,11.47365 18.3796207,11.8437677 C23.5543266,12.2186306 24.7493923,11.47365 31.9146838,12.5840032 C37.0893898,13.3242387 40.2735102,13.6991015 42.2640957,13.6991015 C44.2546812,13.6991015 45.0502011,13.6991015 45.0502011,12.2186306 C46.2447565,12.2186306 47.0407866,11.47365 47.0407866,10.3632968 C48.2343215,10.3632968 48.6328468,9.25294353 48.2343215,8.88282579 C49.8274022,8.88282579 51.4194624,8.88282579 51.0214474,7.77247257 C51.0214474,7.03223709 46.2447565,6.66211934 44.6516757,6.66211934" id="Path"></path>
                            </g>
                            <g id="Group" transform="translate(39.000000, 72.000000)" fill="#FF6F00">
                                <path d="M56.5250823,0.248149323 L10.9118511,0.248149323 C10.5186857,0.248149323 10.1250163,0.635262267 9.73185093,1.02237521 L0.294874025,39.7386326 C0.294874025,40.5128585 0.687535333,40.8999714 1.47437012,40.8999714 L43.9437906,40.8999714 C46.3027828,40.8999714 48.2686096,39.3515196 49.0549403,37.028842 L57.7045784,1.02237521 C57.7045784,1.02237521 57.311413,0.248149323 56.5250823,0.248149323" id="Path"></path>
                            </g>
                        </g>
                    </g>
                </g>
            </g>
        </g>
    </g>
</svg>