<?xml version="1.0" encoding="UTF-8"?>
<svg width="577px" height="361px" viewBox="0 0 577 361" version="1.1" xmlns="http://www.w3.org/2000/svg" xmlns:xlink="http://www.w3.org/1999/xlink">
    <!-- Generator: Sketch 64 (93537) - https://sketch.com -->
    <title>Feature1</title>
    <desc>Created with Sketch.</desc>
    <defs>
        <path d="M12.7714513,6.41097856 L6.00756231,6.41097856 L12.7714513,6.41097856 Z M5.26707851,6.22689986 C2.31340917,5.84581274 0.0120543875,3.23057141 0.0120543875,0.0842142384 C0.0120543875,3.23057141 2.31340917,5.84581274 5.26707851,6.22689986 Z" id="path-1"></path>
        <rect id="path-3" x="0.0120543875" y="0.0842142384" width="12.759397" height="6.18868499"></rect>
    </defs>
    <g id="Landing" stroke="none" stroke-width="1" fill="none" fill-rule="evenodd">
        <g transform="translate(-67.000000, -1311.000000)" id="Feature">
            <g transform="translate(-66.000000, 1216.000000)">
                <g id="Feature-1" transform="translate(133.000000, 90.000000)">
                    <g id="Feature1" transform="translate(0.000000, 5.000000)">
                        <g id="Group" transform="translate(288.500000, 238.500000) scale(1, -1) translate(-288.500000, -238.500000) translate(0.000000, 116.000000)" fill="#DCEDC8">
                            <path d="M293,53 C205,134 105.203777,-1.27170332 30,99 C-27,175 -5,300 134,217 C273,134 471,193 550,143 C602.666667,109.666667 576,67.3333333 470,16 C410.666667,-13.3333333 351.666667,-1 293,53 Z" id="Path"></path>
                        </g>
                        <g id="Group-28" transform="translate(93.000000, 3.000000)" fill-rule="nonzero">
                            <g id="Group" transform="translate(0.000000, 73.000000)" fill="#558B2F">
                                <path d="M38.8910781,3.64791068 C22.8035376,-5.46304399 8.02016298,3.53542976 0.164271806,24.0400402 C16.3042487,29.3222325 37.4211174,24.0113685 38.8910781,3.64791068" id="Path"></path>
                            </g>
                            <g id="Group" transform="translate(57.000000, 0.000000)" fill="#558B2F">
                                <path d="M15.3479863,26.7616374 C21.9222556,15.9744964 15.8737169,5.82033633 1.72140663,0.207317777 C-2.18637901,11.0848846 1.20186648,25.4846481 15.3479863,26.7616374" id="Path"></path>
                            </g>
                            <g id="Group" transform="translate(26.000000, 6.000000)" fill="#8BC34A">
                                <path d="M49.8188535,46.605548 C22.0362824,53.4726332 3.56336166,33.9737713 0.137285567,0.25272268 C26.4434955,-0.904137173 55.8938481,15.7363441 49.8188535,46.605548" id="Path"></path>
                            </g>
                            <g id="Group" transform="translate(29.000000, 9.000000)" fill="#558B2F">
                                <path d="M47.3759164,43.1335727 C45.2445492,40.926547 42.0293067,38.0532903 38.2107977,34.7416666 C32.4844504,29.7764013 25.4082153,23.8389161 18.6831777,17.8016048 C11.9587936,11.7664636 5.58517122,5.62498594 1.28779634,0.297308285 C1.03834163,-0.0108506673 0.5840944,-0.060763737 0.273855525,0.188801611 C-0.0368190801,0.436196826 -0.0858385654,0.88975472 0.163616149,1.19791367 C6.01850347,8.45049971 15.4696781,17.007336 24.5149714,24.8567087 C29.0365287,28.78031 33.4554719,32.5237902 37.264177,35.8245632 C41.0711392,39.1253362 44.2720026,41.9899124 46.3362676,44.1274938 C46.6123018,44.4139515 47.0687276,44.422632 47.355655,44.147025 C47.6425824,43.8735882 47.6519506,43.4178602 47.3759164,43.1335727" id="Path"></path>
                            </g>
                            <g id="Group" transform="translate(349.000000, 125.000000)" fill="#558B2F">
                                <path d="M0.923454481,0.491631144 C17.456549,-2.21234015 27.3146971,10.082828 27.7383998,29.9938893 C12.3438704,29.4210513 -4.05885405,18.2781436 0.923454481,0.491631144" id="Path"></path>
                            </g>
                            <g id="Group" transform="translate(346.000000, 92.000000)" fill="#8BC34A">
                                <path d="M0.0950614907,31.7562992 C22.0456239,41.4008842 40.1634798,28.2382833 47.9369172,1.30962636 C26.3709217,-3.47307774 -0.399690359,5.76278395 0.0950614907,31.7562992" id="Path"></path>
                            </g>
                            <g id="Group" transform="translate(346.000000, 95.000000)" fill="#558B2F">
                                <path d="M1.18466782,30.3547742 C3.22212064,28.8807744 6.32115891,26.965012 9.99384894,24.7780686 C15.5061808,21.4910927 22.3152734,17.5808379 28.862816,13.5262448 C35.4169522,9.46727792 41.6941532,5.27053356 46.1888576,1.3712135 C46.4943656,1.1087803 46.5229383,0.651709129 46.2613883,0.349910942 C45.9932445,0.0502996979 45.5338835,0.0174955471 45.2371671,0.282115697 C39.3951503,5.35145047 30.2518885,11.0812421 21.537217,16.2730457 C17.1875739,18.8711345 12.9324405,21.3401936 9.25095892,23.5358847 C5.56288359,25.7315759 2.44406422,27.6538991 0.327487023,29.1847595 C0.00659369844,29.4187624 -0.0659369844,29.8714597 0.167040361,30.1951273 C0.406611404,30.518795 0.857180798,30.5909641 1.18466782,30.3547742 Z" id="Path"></path>
                            </g>
                            <g id="Group" transform="translate(24.000000, 40.000000)" fill="#FF6F00">
                                <path d="M13.5642885,48.7889516 C13.0893799,49.4069229 12.2599961,49.7192074 11.6617918,49.5102847 C10.9768401,49.2639758 10.3044382,48.9868783 9.65207185,48.6723947 C9.45259702,48.5756305 9.26236936,48.4722687 9.06861898,48.3711061 L10.7852914,47.379273 C11.4204845,47.0186065 12.1230498,47.0493951 12.4836897,47.4606429 C12.847412,47.8784884 13.2443802,48.2765411 13.6715117,48.652602 L13.5642885,48.7889516 Z M59.9807165,25.6337173 C58.836048,24.0898885 57.69204,22.5460596 56.5495732,21.0044299 L58.4577944,19.9026374 C58.7026244,19.7640887 58.9117868,19.579357 59.0698695,19.3726335 C59.3585135,18.9987718 59.4824697,18.5567353 59.3659993,18.1828736 C58.9461334,16.8611626 58.3754505,15.6098255 57.6548311,14.4420575 L57.6099163,14.3738827 L53.0301415,8.19636793 L53.0752765,8.26234352 C53.7952353,9.43011153 54.3678998,10.6814486 54.7877657,12.0053589 C54.9042361,12.3770214 54.7787387,12.8190579 54.4911955,13.1929196 C54.3322322,13.3996431 54.1243908,13.5843747 53.8782398,13.7251227 L51.8174402,14.9148826 C51.5756926,15.0534313 51.3715941,15.2359638 51.2150526,15.4382889 C50.9594342,15.7703661 50.8339368,16.1574229 50.8907409,16.5026952 C50.9818917,17.1294633 51.0472824,17.7694266 51.0743634,18.411589 C51.0829501,18.6139142 51.145919,18.7898491 51.2478581,18.930597 L54.8998327,23.8545755 C54.8247545,24.1448681 54.7520981,24.4351607 54.6666717,24.7254533 C54.6098677,24.9167826 54.5145337,25.099315 54.3846328,25.264254 C54.0647245,25.6820994 53.5517263,25.9899856 53.0336642,26.042766 L50.8755491,26.2626847 C50.363872,26.3154651 49.8574789,26.6233513 49.5347084,27.0433959 C49.4393744,27.1643511 49.3605532,27.2963023 49.3022079,27.4348511 C49.0166463,28.1122005 48.6973985,28.7873507 48.3462259,29.462501 C48.1146061,29.9045374 48.1212112,30.3531715 48.3477671,30.6588584 L50.4653707,33.5178008 C50.0243684,34.1841543 49.5529826,34.8439102 49.0494517,35.4970686 C48.4955017,36.2140034 47.9177733,36.9111455 47.3160463,37.5818974 C46.7904983,38.1734785 45.9619953,38.4131898 45.4032015,38.1426899 L43.725059,37.3355885 C43.2114003,37.0892796 42.4674428,37.2740113 41.931767,37.777625 C41.3351039,38.3362183 40.7223683,38.8684214 40.0898173,39.3786327 C39.9614577,39.4841937 39.8509319,39.5985514 39.7560383,39.7217058 C39.4332677,40.1395512 39.3225218,40.632169 39.4938147,41.021425 L40.2384327,42.637827 C40.4156703,43.0248839 40.3040436,43.5262984 39.9825941,43.9419446 C39.8544546,44.1090828 39.6935097,44.2608266 39.5039426,44.3883795 C37.9607648,45.4197979 36.358361,46.3368587 34.7209501,47.1373625 C34.4382506,47.2759113 34.1570924,47.3220942 33.8997126,47.3066999 C33.3329928,46.5435822 32.7660527,45.7782653 32.2004337,45.0151476 C31.9227982,44.6390867 31.3503538,44.5357249 30.7600757,44.7556436 C30.0189804,45.0371395 29.2706196,45.2834483 28.5288638,45.5011678 C28.1092181,45.6243222 27.7309645,45.8904238 27.4753461,46.2247001 C27.3192449,46.4248261 27.2078385,46.6535415 27.1605017,46.8866553 L26.7690379,48.8791182 C26.724123,49.1166303 26.6109552,49.3475449 26.4528725,49.5542684 C26.1651091,49.925931 25.725648,50.2140244 25.2542621,50.2997927 C24.2678965,50.4867235 23.2861545,50.6164755 22.3103571,50.7022438 C21.3675853,49.431114 20.4248135,48.157785 19.4811611,46.8844561 C19.3281423,46.6777326 19.0811106,46.541383 18.7669267,46.5105944 C18.080654,46.4402204 17.404289,46.3368587 16.7499411,46.1983099 C16.1510763,46.0795538 15.4172467,46.3874399 14.9817487,46.9526309 L13.696391,48.6196142 C12.2309335,46.6425456 10.7656962,44.6632778 9.30023876,42.6884083 L9.17848425,42.5564571 C8.71810691,42.1562052 8.29251657,41.729563 7.9050158,41.2831282 C7.54437587,40.8696811 6.84181055,40.8388925 6.20639735,41.2017583 L4.13987333,42.3959165 C3.4789203,42.7741766 2.74376969,42.7191969 2.41439403,42.2749613 C3.94017833,44.3333998 5.46684331,46.3918383 6.99262761,48.452476 C7.28259268,48.8439312 7.88586093,48.9143052 8.47679961,48.6723947 C9.61948655,50.2140244 10.7619533,51.7578533 11.9059613,53.3016822 C11.9744344,53.3918488 12.0662457,53.5172024 12.134939,53.6095683 C12.1965869,53.6909382 12.2738669,53.7635113 12.3678798,53.8250885 C12.9572773,54.1923527 13.5790399,54.537625 14.2316265,54.8499094 C14.8824516,55.1643931 15.5557342,55.4436898 16.240906,55.6877995 C16.8395507,55.8989214 17.6698151,55.5844377 18.1440632,54.9686655 L19.5604226,53.1323448 C19.8796704,52.7188978 20.3561202,52.4483978 20.8233229,52.3758247 L23.9711061,56.6224537 C24.1481235,56.862165 24.4512989,57.0051122 24.8352769,56.9987335 C26.4790728,56.9699252 28.1492892,56.7961894 29.8331562,56.4773074 C30.3054228,56.3937383 30.743783,56.1056449 31.031106,55.7317832 C31.1907299,55.5272589 31.3027969,55.2941451 31.3488126,55.0588321 L31.7387353,53.06417 C31.7873931,52.8310563 31.898139,52.6045401 32.05402,52.4022149 C32.3113998,52.0701377 32.6881122,51.801837 33.1079781,51.6808817 C33.8488532,51.4631623 34.5978745,51.2146542 35.3376487,50.9353575 C35.5736719,50.8473901 35.8008883,50.8253982 36.0122524,50.8363941 L37.7055867,53.1213489 C38.0109637,53.5347959 38.6666327,53.6271618 39.2991837,53.3170765 C40.9379156,52.5165726 42.5396589,51.5973127 44.0834972,50.5658942 C44.2730643,50.4383414 44.4340093,50.2865975 44.5608277,50.1216585 C44.8822772,49.7038131 44.9943442,49.2045978 44.8179873,48.817541 L44.0727088,47.1989397 C43.8998747,46.8118829 44.0112811,46.317066 44.3342718,45.8992206 C44.4296058,45.7760661 44.5403518,45.6617084 44.6687114,45.5561475 C45.2990607,45.0481354 45.9124568,44.5137331 46.5115418,43.9551397 C47.0456764,43.4537252 47.7909549,43.2667944 48.3048338,43.5153024 L49.9812149,44.3224039 C50.5424306,44.5907046 51.3687319,44.3531925 51.8956009,43.7594121 C52.4960069,43.0908594 53.0752765,42.3937173 53.6274651,41.6767826 C54.1811949,40.9598478 54.6981562,40.2341162 55.1790094,39.5039863 C55.4929731,39.0267629 55.5090456,38.5165516 55.2582709,38.1800761 C54.5413945,37.2102349 53.8234172,36.2425928 53.1065408,35.2749508 C53.3857175,34.7207558 53.6472805,34.16876 53.879781,33.6123658 C53.9394473,33.4738171 54.018929,33.3440651 54.1129419,33.2209106 C54.4357125,32.800866 54.9427661,32.4951791 55.4535625,32.4423986 L57.6140995,32.22248 C58.1308406,32.1675003 58.6414169,31.8618134 58.9644076,31.443968 C59.091226,31.279029 59.1894223,31.0942973 59.2462264,30.9051673 C59.6988977,29.3481433 59.9945872,27.8021152 60.1454043,26.2846765 C60.1709441,26.0295709 60.1075349,25.8074531 59.9807165,25.6337173 Z M22.7645696,38.4703687 C20.6826337,35.6620076 21.0351273,31.2988217 24.0199841,27.4260543 C27.8949918,22.4031124 34.7467101,20.1115602 39.3234025,22.3129458 C40.3769202,22.8209579 41.2184133,23.5224983 41.8421575,24.3625876 L37.2617222,18.1850728 C36.6397394,17.3427844 35.7986866,16.6412439 34.7436277,16.1332319 C30.1684765,13.9318462 23.315217,16.2233985 19.44109,21.2463404 C16.4571139,25.1191077 16.1030791,29.4822936 18.1854554,32.2906548 L22.7645696,38.4703687 Z M50.7247321,13.9560373 C50.4455554,13.5799764 50.4994972,13.0125863 50.8834753,12.5111718 L52.3044582,10.6704527 C52.6926195,10.166839 52.7436992,9.59285133 52.4689259,9.223388 L47.8922335,3.04587324 C48.1641445,3.41313738 48.1152666,3.98712505 47.7268852,4.49073875 L46.3052417,6.333657 C45.9197225,6.83287232 45.8673218,7.40246162 46.1442968,7.77632331 L50.7247321,13.9560373 Z M5.62712772,37.5709014 L7.78766471,37.353182 C8.22316274,37.3047999 8.57961942,37.4499462 8.77997493,37.7226453 L4.20108084,31.5429314 C4.00072532,31.2724314 3.64426865,31.1250859 3.20788993,31.173468 L1.04801346,31.3933867 C0.608112011,31.4373704 0.246591402,31.2922241 0.0468964005,31.0217242 L4.62512998,37.1992389 C4.8254855,37.4697389 5.18634559,37.6170844 5.62712772,37.5709014 Z M40.5438097,9.76438787 C40.3914515,9.56206272 40.3331062,9.29156278 40.3899103,8.99027424 L40.7857775,6.99121375 C40.8439026,6.68332764 40.7842363,6.41062852 40.6327588,6.20610418 L36.0545252,0.0285894239 C36.2062229,0.233113764 36.2663296,0.505812885 36.2066633,0.811499803 L35.8103557,2.81056029 C35.7535516,3.11404802 35.8132179,3.38234877 35.9633744,3.58687311 L40.5438097,9.76438787 Z M9.67981338,24.9233801 L11.3493693,25.7282824 C11.4869761,25.794258 11.5970615,25.8844246 11.6778642,25.9943839 L7.09897015,19.8168692 C7.01794726,19.7069098 6.90808199,19.614544 6.77113569,19.5507676 L5.09959826,18.7458654 C4.96177128,18.6776906 4.84970429,18.5853248 4.76714021,18.4753654 L9.34537379,24.6528802 C9.42837822,24.7650387 9.54066537,24.8574045 9.67981338,24.9233801 Z M23.1571343,5.30443774 L23.2447624,5.45398241 L27.824317,11.6336964 L27.7353679,11.4841517 L26.9914105,9.86555045 L26.9011404,9.7116074 C25.3744754,7.65316887 23.8486911,5.59473035 22.3229068,3.53409264 L22.4125164,3.68803569 L23.1571343,5.30443774 Z" id="Shape"></path>
                            </g>
                            <g id="Group" transform="translate(24.000000, 40.000000)" fill="#FFC107">
                                <path d="M35.4713007,29.1742657 C39.265138,24.2285207 38.7115826,18.4555976 34.2314057,16.2880447 C29.752091,14.1183265 23.042388,16.3768256 19.249413,21.3225706 C15.4527734,26.2748118 16.0069755,32.0455695 20.4856435,34.2131224 C24.9658204,36.3828407 31.6737989,34.1265069 35.4713007,29.1742657 Z M43.0846268,1.35336718 C43.7588951,1.58722903 44.4180743,1.86223324 45.0565599,2.17188366 C45.6943988,2.47936868 46.3033528,2.81933452 46.8747995,3.18745039 C47.3779141,3.50576235 47.4072301,4.21600945 46.9427006,4.82231795 L45.5508365,6.63691266 C45.1235987,7.19341725 45.1149764,7.83870272 45.5202272,8.19382627 C45.9619074,8.59009218 46.3770739,9.01017736 46.7629244,9.45408179 C47.1147166,9.8503477 47.803643,9.88932468 48.4214349,9.53203574 L50.4498445,8.35839572 C51.1260529,7.96646059 51.8794313,8.03575299 52.1790583,8.5359575 C52.883936,9.68794364 53.4446048,10.9178837 53.8556757,12.221447 C53.9697063,12.5873975 53.8468378,13.0226404 53.5653178,13.3907563 C53.4096842,13.5943027 53.2061966,13.7761952 52.9652017,13.9169454 L50.9475701,15.0862547 C50.7108864,15.2248395 50.5110632,15.4024012 50.3578008,15.6037823 C50.1075369,15.9285904 49.9846683,16.3096986 50.0402825,16.6496644 C50.1295239,17.2667999 50.1935449,17.8969276 50.2200587,18.5313862 C50.2435546,19.1073792 50.7145509,19.4733297 51.3599343,19.4062027 L53.4760764,19.189664 C54.1831097,19.1160408 54.6816975,19.5556144 54.6174609,20.1965691 C54.4726053,21.6906865 54.1787985,23.2129539 53.7371183,24.7460483 C53.681504,24.934437 53.588167,25.1141641 53.4609873,25.2787336 C53.1477801,25.6879918 52.6455278,25.9911461 52.1383176,26.0452808 L50.0254089,26.2596541 C49.52445,26.3116234 49.0286644,26.6147777 48.712655,27.0283667 C48.619318,27.1496284 48.5421479,27.2773862 48.4850248,27.4138057 C48.2054448,28.080745 47.8928844,28.745519 47.5490679,29.4102929 C47.2380163,30.0014437 47.3621783,30.6055868 47.8665862,30.8502756 L49.5080675,31.6428074 C50.0575272,31.9091501 50.1659534,32.5890818 49.755098,33.2148787 C49.2847484,33.931622 48.7781849,34.6461999 48.2375631,35.3521162 C47.6952168,36.0601979 47.1295902,36.7444604 46.5404676,37.4049035 C46.0259284,37.9873928 45.2147802,38.22342 44.6676916,37.9570774 L43.0247014,37.1645455 C42.5218024,36.9198567 41.7934287,37.1017493 41.2689738,37.597623 C40.6848091,38.1476315 40.0849086,38.6716552 39.4656078,39.1740251 C39.3399369,39.2779637 39.2317263,39.3905639 39.1388204,39.5118256 C38.822811,39.9232492 38.7143849,40.408296 38.8820897,40.7915696 L39.6111101,42.3831294 C39.784635,42.7642376 39.6753466,43.2579459 39.3606306,43.6672042 C39.2351753,43.8317736 39.0776017,43.9811854 38.8920055,44.1067778 C37.3811529,45.1223446 35.8123149,46.0274765 34.2092031,46.8135122 C33.5181212,47.153478 32.8003099,47.0040663 32.5584528,46.4692156 L31.8300792,44.8776558 C31.611718,44.3861128 30.9831481,44.2258741 30.3312979,44.4683975 C29.6057265,44.7455671 28.8730417,44.9880905 28.1468236,45.2046293 C27.7359683,45.3237256 27.365638,45.5879029 27.1153741,45.9148764 C26.9625428,46.1119267 26.85347,46.337127 26.8071248,46.566658 L26.423861,48.5284991 C26.379887,48.7623609 26.2690897,48.991892 26.1143184,49.1932731 C25.8325829,49.5592235 25.4023272,49.8428893 24.9408156,49.9273394 C23.2920053,50.2413206 21.6569907,50.4102208 20.0476277,50.4407858 C19.3550369,50.4535286 18.9269368,49.9576548 19.053901,49.299377 L19.4363026,47.3310398 C19.5546444,46.7312275 19.20005,46.2570076 18.5893715,46.1963768 C17.9174743,46.1270844 17.2552773,46.0274765 16.6146361,45.8888917 C16.0283158,45.7719608 15.3098579,46.0751151 14.8834823,46.6316197 L13.4957139,48.4397182 C13.0307532,49.0481921 12.2187427,49.3556771 11.6330691,49.1499653 C10.9624652,48.9096073 10.3041483,48.6346031 9.66544713,48.3249527 C9.02696156,48.0174676 8.41779201,47.6775018 7.84203409,47.3158821 C7.33482391,46.9932394 7.31413025,46.2808269 7.77930644,45.6745184 L9.16685931,43.8642544 C9.59345044,43.3077499 9.60336615,42.6624644 9.20177986,42.3030101 C8.75104612,41.9089095 8.3343707,41.4888244 7.95498697,41.0492507 C7.60190143,40.6421578 6.91405287,40.6118424 6.29194978,40.9691314 L4.26871361,42.1449368 C3.5931519,42.5347065 2.83761783,42.458918 2.53863759,41.9652096 C1.83375987,40.8132235 1.27330663,39.5832834 0.867193599,38.2753893 C0.748851743,37.9094388 0.868702512,37.4720306 1.15194695,37.1039147 C1.30650271,36.9025336 1.50869699,36.7228065 1.74688962,36.5842217 L3.76581461,35.4149124 C4.00551615,35.2741623 4.20727931,35.0944351 4.36226619,34.8930541 C4.61188343,34.5682459 4.73518315,34.1893031 4.68107785,33.8450065 C4.58407633,33.2322018 4.52415095,32.6064049 4.5013017,31.9654502 C4.47414127,31.3937879 4.00616282,31.0235066 3.35625263,31.0949644 L1.24161947,31.3115031 C0.536095074,31.3851263 0.0359983423,30.947718 0.0989415516,30.304598 C0.245952746,28.8104806 0.536957309,27.2882132 0.979930923,25.7551188 C1.03554513,25.5667301 1.13189997,25.3848376 1.25821751,25.2202681 C1.57207132,24.8110099 2.06936578,24.5078556 2.57786931,24.4580517 L4.68754462,24.2393476 C5.19259921,24.1852129 5.68558249,23.8885548 5.9994363,23.4792966 C6.09277332,23.3558695 6.1705901,23.2237809 6.22857545,23.0873614 C6.50664648,22.4204221 6.82394923,21.7578135 7.16949021,21.0930396 C7.47773949,20.4932272 7.34840413,19.8934149 6.84485845,19.6508915 L5.20833501,18.8583597 C4.65973752,18.5941824 4.54764687,17.9120853 4.9621667,17.2797922 C5.43574969,16.5630489 5.9438221,15.8484711 6.48444391,15.1425547 C7.02614352,14.4366384 7.59241684,13.752376 8.17593488,13.087602 C8.68680956,12.5116089 9.50140678,12.2777471 10.0506509,12.5440897 L11.6867433,13.3366216 C12.1909356,13.5813104 12.9236204,13.3907563 13.4480753,12.9035441 C14.0328867,12.355701 14.6286916,11.8273465 15.2473458,11.3249766 C15.3756033,11.221038 15.487694,11.1062724 15.581031,10.9828454 C15.8963937,10.5714217 16.0048199,10.0863749 15.8293549,9.70959752 L15.1059391,8.11803771 C14.9304741,7.73692951 15.039547,7.24755194 15.3534008,6.8382937 C15.4797183,6.67372425 15.6388008,6.52214713 15.8250437,6.39438927 C17.3361119,5.38098792 18.9053809,4.47585595 20.5084927,3.6876549 C21.1982813,3.34768906 21.9173859,3.49926619 22.1585964,4.03195151 L22.8876167,5.62567671 C23.1102891,6.1107235 23.7336855,6.27745834 24.3907092,6.02627339 C25.1119694,5.75559996 25.8405586,5.51091117 26.5751834,5.29220703 C26.9812965,5.17527611 27.3483933,4.917595 27.5975794,4.59278687 C27.7517041,4.39140584 27.8601302,4.16620554 27.9049665,3.93234369 L28.2882303,1.97050262 C28.3330665,1.73880616 28.4414927,1.51360586 28.596264,1.31222482 C28.8795084,0.944108947 29.3147219,0.65611241 29.7805448,0.567331523 C31.4256906,0.259846499 33.0600584,0.0909462747 34.6700681,0.0627962373 C35.3622279,0.0411423624 35.7903279,0.543512261 35.6637948,1.19962467 L35.2757887,3.1679619 C35.1630514,3.76993962 35.5167836,4.23766332 36.1274621,4.30695572 C36.7952637,4.37191735 37.4559518,4.47152517 38.1065087,4.6057792 C38.6893801,4.72920628 39.4069758,4.42605203 39.8344291,3.86954745 L41.2247843,2.05711812 C41.6899604,1.44864423 42.4939953,1.14115921 43.0846268,1.35336718" id="Shape"></path>
                            </g>
                        </g>
                        <g id="Group" transform="translate(526.500000, 213.500000) scale(-1, 1) rotate(90.000000) translate(-526.500000, -213.500000) translate(520.000000, 167.000000)" fill="#F5F5F5" fill-rule="nonzero">
                            <path d="M6.08957913,0.137646962 C2.78570732,0.137646962 0.110052635,20.9001582 0.110052635,46.5064073 C0.110052635,72.1113517 2.78570732,92.8671219 6.08957913,92.8671219 C9.39115818,92.8671219 12.0691056,72.1113517 12.0691056,46.5064073 C12.0691056,20.9001582 9.39115818,0.137646962 6.08957913,0.137646962" id="Path"></path>
                        </g>
                        <g id="Group" transform="translate(94.500000, 330.000000) scale(-1, 1) rotate(90.000000) translate(-94.500000, -330.000000) translate(89.000000, 287.000000)" fill="#F5F5F5" fill-rule="nonzero">
                            <path d="M5.30377642,0.105161407 C2.44400183,0.105161407 0.124840958,19.2848349 0.124840958,42.945505 C0.124840958,66.6059595 2.44400183,85.7858485 5.30377642,85.7858485 C8.16376927,85.7858485 10.4829301,66.6059595 10.4829301,42.945505 C10.4829301,19.2848349 8.16376927,0.105161407 5.30377642,0.105161407" id="Path"></path>
                        </g>
                        <g id="Group" transform="translate(160.500000, 315.000000) scale(-1, 1) rotate(90.000000) translate(-160.500000, -315.000000) translate(155.000000, 272.000000)" fill="#F5F5F5" fill-rule="nonzero">
                            <path d="M5.23524485,0.176705642 C2.37568851,0.176705642 0.056309383,19.3572411 0.056309383,43.0170492 C0.056309383,66.6783657 2.37568851,85.8573927 5.23524485,85.8573927 C8.09501944,85.8573927 10.4143986,66.6783657 10.4143986,43.0170492 C10.4143986,19.3572411 8.09501944,0.176705642 5.23524485,0.176705642" id="Path"></path>
                        </g>
                        <g id="Group-27" transform="translate(75.000000, 0.000000)">
                            <g id="Group" transform="translate(358.500000, 320.000000) scale(-1, 1) rotate(-90.000000) translate(-358.500000, -320.000000) translate(353.000000, 272.000000)" fill="#F5F5F5" fill-rule="nonzero">
                                <path d="M5.21407427,0.0623211246 C8.07101157,0.0623211246 10.3866804,21.5357486 10.3866804,48.0252667 C10.3866804,74.5126132 8.07101157,95.9866922 5.21407427,95.9866922 C2.35713696,95.9866922 0.0414681503,74.5126132 0.0414681503,48.0252667 C0.0414681503,21.5357486 2.35713696,0.0623211246 5.21407427,0.0623211246" id="Path"></path>
                            </g>
                            <g id="Group" transform="translate(0.000000, 244.000000)" fill="#6A1B9A" fill-rule="nonzero">
                                <path d="M0.0803816094,0.186130687 L6.67341627,6.6000316 C12.0703116,11.7647934 19.3898305,14.6653473 27.022598,14.6653473 L429.847736,14.6653473 C437.474186,14.6653473 444.793487,11.7647934 450.191472,6.60086533 L456.896474,0.186130687 L0.0803816094,0.186130687 Z" id="Path"></path>
                            </g>
                            <g id="Group" transform="translate(415.000000, 244.000000)" fill="#6A1B9A" fill-rule="nonzero">
                                <path d="M27.5661694,0.186130687 L20.7416967,6.60086533 C15.2453134,11.7647934 7.79781371,14.6653473 0.0288233091,14.6653473 L16.4647611,14.6653473 C24.2270999,14.6653473 31.6768168,11.7647934 37.1709829,6.60086533 L43.9954556,0.186130687 L27.5661694,0.186130687 Z" id="Path"></path>
                            </g>
                            <g id="Group" transform="translate(88.000000, 0.000000)" fill="#6A1B9A" fill-rule="nonzero">
                                <path d="M15.5648238,0.0739885503 L266.097922,0.0739885503 C274.576746,0.0739885503 281.456781,6.92663399 281.456781,15.3809139 L281.456781,186.20742 L0.202688022,186.20742 L0.202688022,15.3809139 C0.202688022,6.92663399 7.08010229,0.0739885503 15.5648238,0.0739885503" id="Path"></path>
                            </g>
                            <g id="Group" transform="translate(99.000000, 14.000000)" fill="#FAFAFA">
                                <rect id="Rectangle" x="0.0368523132" y="0.128915717" width="262.81587" height="162.513775"></rect>
                            </g>
                            <g id="Group" transform="translate(0.000000, 186.000000)" fill="#FAFAFA" fill-rule="nonzero">
                                <path d="M370.084142,0.156995301 L88.8670159,0.156995301 L0.889045782,56.6902976 C-0.535698674,57.6053685 0.104339181,59.8302036 1.79447045,59.8302036 L457.163021,59.8302036 C458.849409,59.8302036 459.488822,57.6053685 458.064952,56.6902976 L370.084142,0.156995301 Z" id="Path"></path>
                            </g>
                            <g id="Group" transform="translate(227.500000, 227.000000) scale(-1, 1) translate(-227.500000, -227.000000) translate(179.000000, 213.000000)" fill="#000000" fill-opacity="0.38" fill-rule="nonzero">
                                <polygon id="Path" points="0.0780996437 27.5624002 96.6157676 27.5624002 87.2633352 0.0814812778 9.43270141 0.0814812778"></polygon>
                            </g>
                            <g id="Group" transform="translate(70.000000, 188.000000)" fill="#000000" fill-opacity="0.54" fill-rule="nonzero">
                                <path d="M271.27422,9.09025505 L288.212812,9.09025505 L290.488698,10.7524731 L296.537418,15.1655755 L312.531713,15.1655755 L297.494769,5.38922264 L266.833415,5.38922264 L271.27422,9.09025505 Z M135.143204,5.38922264 L120.678495,5.38922264 L119.410004,9.09025505 L134.510046,9.09025505 L135.143204,5.38922264 Z M134.225017,10.7524731 L118.84212,10.7524731 L117.32994,15.1655755 L133.470015,15.1655755 L134.225017,10.7524731 Z M71.5454804,3.72916892 L74.6603537,0.093066897 L61.6645262,0.093066897 L57.9273745,3.72916892 L71.5454804,3.72916892 Z M120.730714,0.093066897 L107.264696,0.093066897 L105.395685,3.72916892 L119.486157,3.72916892 L120.730714,0.093066897 Z M87.5410816,3.72916892 L90.032371,0.093066897 L76.8535588,0.093066897 L73.7380327,3.72916892 L87.5410816,3.72916892 Z M103.522322,3.72916892 L105.391333,0.093066897 L92.0515121,0.093066897 L89.5602227,3.72916892 L103.522322,3.72916892 Z M118.918273,5.38922264 L104.542772,5.38922264 L102.638948,9.09025505 L117.647607,9.09025505 L118.918273,5.38922264 Z M35.6924533,9.09025505 L50.0272673,9.09025505 L53.8333918,5.38922264 L40.1332582,5.38922264 L35.6924533,9.09025505 Z M117.079724,10.7524731 L101.786035,10.7524731 L99.5166772,15.1655755 L115.565368,15.1655755 L117.079724,10.7524731 Z M28.4080971,15.1655755 L43.7827253,15.1655755 L48.3197005,10.7524731 L33.7013799,10.7524731 L28.4080971,15.1655755 Z M52.4141184,9.09025505 L66.9512817,9.09025505 L70.1233785,5.38922264 L56.220678,5.38922264 L52.4141184,9.09025505 Z M99.9104967,10.7524731 L84.7473561,10.7524731 L81.7208203,15.1655755 L97.6433145,15.1655755 L99.9104967,10.7524731 Z M102.669409,5.38922264 L88.42228,5.38922264 L85.8852988,9.09025505 L100.765586,9.09025505 L102.669409,5.38922264 Z M65.528527,10.7524731 L50.7069868,10.7524731 L46.1695763,15.1655755 L61.7472065,15.1655755 L65.528527,10.7524731 Z M82.7260392,10.7524731 L67.7219495,10.7524731 L63.9406291,15.1655755 L79.7016791,15.1655755 L82.7260392,10.7524731 Z M225.80438,16.8256292 L229.239967,21.8360912 L246.143746,21.8360912 L241.848719,16.8256292 L225.80438,16.8256292 Z M244.041924,16.8256292 L248.334775,21.8360912 L265.057963,21.8360912 L259.905672,16.8256292 L244.041924,16.8256292 Z M280.551825,16.8256292 L286.565733,21.8360912 L302.860289,21.8360912 L295.991292,16.8256292 L280.551825,16.8256292 Z M55.5400882,3.72916892 L59.2765872,0.093066897 L46.4850671,0.093066897 L42.125637,3.72916892 L55.5400882,3.72916892 Z M80.5828776,16.8256292 L77.1494674,21.8360912 L227.21865,21.8360912 L223.783064,16.8256292 L80.5828776,16.8256292 Z M262.292523,16.8256292 L267.444814,21.8360912 L283.965653,21.8360912 L277.951746,16.8256292 L262.292523,16.8256292 Z M315.086101,16.8256292 L298.813303,16.8256292 L305.682299,21.8360912 L322.79278,21.8360912 L315.086101,16.8256292 Z M62.5176568,16.8256292 L58.2237183,21.8360912 L75.1281505,21.8360912 L78.5637365,16.8256292 L62.5176568,16.8256292 Z M37.5342668,5.38922264 L22.6409253,5.38922264 L17.5665277,9.09025505 L33.0934618,9.09025505 L37.5342668,5.38922264 Z M43.8854229,0.093066897 L29.9000422,0.093066897 L24.9176809,3.72916892 L39.5259928,3.72916892 L43.8854229,0.093066897 Z M31.1017358,10.7524731 L15.2895545,10.7524731 L9.23996399,15.1655755 L25.8084529,15.1655755 L31.1017358,10.7524731 Z M44.4624447,16.8256292 L39.3101536,21.8360912 L56.031166,21.8360912 L60.3244518,16.8256292 L44.4624447,16.8256292 Z M6.96386105,16.8256292 L0.0933417607,21.8360912 L17.8063007,21.8360912 L23.8167268,16.8256292 L6.96386105,16.8256292 Z M26.4161534,16.8256292 L20.404857,21.8360912 L36.9224322,21.8360912 L42.0760288,16.8256292 L26.4161534,16.8256292 Z M246.439655,3.72916892 L242.703808,0.093066897 L229.705587,0.093066897 L232.821331,3.72916892 L246.439655,3.72916892 Z M222.645121,15.1655755 L219.620761,10.7524731 L204.455444,10.7524731 L206.724802,15.1655755 L222.645121,15.1655755 Z M204.85144,15.1655755 L202.582082,10.7524731 L187.288393,10.7524731 L188.800573,15.1655755 L204.85144,15.1655755 Z M240.427923,15.1655755 L236.646385,10.7524731 L221.639902,10.7524731 L224.666438,15.1655755 L240.427923,15.1655755 Z M258.19767,15.1655755 L253.66113,10.7524731 L238.837414,10.7524731 L242.618952,15.1655755 L258.19767,15.1655755 Z M294.946909,3.72916892 L289.357282,0.093066897 L275.87821,0.093066897 L280.860789,3.72916892 L294.946909,3.72916892 Z M275.958714,15.1655755 L270.664996,10.7524731 L256.047981,10.7524731 L260.584521,15.1655755 L275.958714,15.1655755 Z M293.715407,15.1655755 L287.666687,10.7524731 L273.265076,10.7524731 L278.556618,15.1655755 L293.715407,15.1655755 Z M169.222737,5.38922264 L169.858071,9.09025505 L184.955937,9.09025505 L183.687447,5.38922264 L169.222737,5.38922264 Z M199.825345,5.38922264 L185.449844,5.38922264 L186.718334,9.09025505 L201.726993,9.09025505 L199.825345,5.38922264 Z M187.036001,15.1655755 L185.523821,10.7524731 L170.140924,10.7524731 L170.898102,15.1655755 L187.036001,15.1655755 Z M268.674141,9.09025505 L264.233336,5.38922264 L250.534508,5.38922264 L254.339979,9.09025505 L268.674141,9.09025505 Z M217.964978,5.38922264 L220.501959,9.09025505 L235.223413,9.09025505 L232.051098,5.38922264 L217.964978,5.38922264 Z M234.244303,5.38922264 L237.414442,9.09025505 L251.953128,9.09025505 L248.147656,5.38922264 L234.244303,5.38922264 Z M201.698708,5.38922264 L203.602531,9.09025505 L218.482818,9.09025505 L215.945837,5.38922264 L201.698708,5.38922264 Z M168.450329,10.7524731 L153.017389,10.7524731 L153.017389,15.1655755 L169.205331,15.1655755 L168.450329,10.7524731 Z M69.1447043,9.09025505 L83.8639819,9.09025505 L86.4031389,5.38922264 L72.3159307,5.38922264 L69.1447043,9.09025505 Z M151.348552,0.093066897 L137.745459,0.093066897 L137.12318,3.72916892 L151.348552,3.72916892 L151.348552,0.093066897 Z M136.052688,0.093066897 L122.493111,0.093066897 L121.248554,3.72916892 L135.428233,3.72916892 L136.052688,0.093066897 Z M167.529966,5.38922264 L153.017389,5.38922264 L153.017389,9.09025505 L168.165299,9.09025505 L167.529966,5.38922264 Z M151.348552,5.38922264 L136.835975,5.38922264 L136.202818,9.09025505 L151.348552,9.09025505 L151.348552,5.38922264 Z M135.162786,15.1655755 L151.348552,15.1655755 L151.348552,10.7524731 L135.917788,10.7524731 L135.162786,15.1655755 Z M198.970256,3.72916892 L197.103421,0.093066897 L183.635227,0.093066897 L184.88196,3.72916892 L198.970256,3.72916892 Z M230.628126,3.72916892 L227.514558,0.093066897 L214.335746,0.093066897 L216.827035,3.72916892 L230.628126,3.72916892 Z M262.24248,3.72916892 L257.882179,0.093066897 L245.090659,0.093066897 L248.826506,3.72916892 L262.24248,3.72916892 Z M166.622658,0.093066897 L153.017389,0.093066897 L153.017389,3.72916892 L167.244937,3.72916892 L166.622658,0.093066897 Z M214.807894,3.72916892 L212.316605,0.093066897 L198.976784,0.093066897 L200.845795,3.72916892 L214.807894,3.72916892 Z M183.117387,3.72916892 L181.872831,0.093066897 L168.315429,0.093066897 L168.937708,3.72916892 L183.117387,3.72916892 Z M278.038778,3.72916892 L273.056199,0.093066897 L260.482259,0.093066897 L264.840383,3.72916892 L278.038778,3.72916892 Z" id="Shape"></path>
                            </g>
                            <g id="Group" transform="translate(110.000000, 110.000000)" fill="#9C27B0">
                                <rect id="Rectangle" x="0.138200713" y="0.17471914" width="23.0202599" height="56.2889778"></rect>
                            </g>
                            <g id="Group" transform="translate(110.000000, 107.000000)" fill="#6A1B9A">
                                <rect id="Rectangle" x="0.138200713" y="0.0529099206" width="23.0202599" height="3.99311171"></rect>
                            </g>
                            <g id="Group" transform="translate(146.000000, 99.000000)" fill="#9C27B0">
                                <rect id="Rectangle" x="0.120634619" y="0.172261875" width="23.0202599" height="66.9749809"></rect>
                            </g>
                            <g id="Group" transform="translate(146.000000, 91.000000)" fill="#6A1B9A">
                                <rect id="Rectangle" x="0.120634619" y="0.223808964" width="23.0202599" height="8.5823595"></rect>
                            </g>
                            <g id="Group" transform="translate(182.000000, 120.000000)" fill="#9C27B0">
                                <rect id="Rectangle" x="0.103703444" y="0.173634059" width="23.0194134" height="45.7440027"></rect>
                            </g>
                            <g id="Group" transform="translate(182.000000, 111.000000)" fill="#6A1B9A">
                                <rect id="Rectangle" x="0.103703444" y="0.212409281" width="23.0194134" height="11.4654836"></rect>
                            </g>
                            <g id="Group" transform="translate(218.000000, 90.000000)" fill="#9C27B0">
                                <rect id="Rectangle" x="0.084655873" y="0.17327518" width="23.019625" height="77.032881"></rect>
                            </g>
                            <g id="Group" transform="translate(218.000000, 70.000000)" fill="#6A1B9A">
                                <rect id="Rectangle" x="0.084655873" y="0" width="23.019625" height="20.0723325"></rect>
                            </g>
                            <g id="Group" transform="translate(254.000000, 72.000000)" fill="#9C27B0">
                                <rect id="Rectangle" x="0.0677246984" y="0.172862107" width="23.019625" height="94.1892799"></rect>
                            </g>
                            <g id="Group" transform="translate(254.000000, 39.000000)" fill="#6A1B9A">
                                <rect id="Rectangle" x="0.0677246984" y="0.0282774131" width="23.019625" height="36.2936247"></rect>
                            </g>
                            <g id="Group" transform="translate(289.000000, 86.000000)" fill="#9C27B0">
                                <rect id="Rectangle" x="0.048677127" y="0.17362594" width="23.019625" height="80.0202395"></rect>
                            </g>
                            <g id="Group" transform="translate(289.000000, 65.000000)" fill="#6A1B9A">
                                <rect id="Rectangle" x="0.048677127" y="0.186242921" width="23.019625" height="23.0786725"></rect>
                            </g>
                            <g id="Group" transform="translate(326.000000, 75.000000)" fill="#9C27B0">
                                <rect id="Rectangle" x="0.0296295556" y="0.170910801" width="23.0223763" height="91.0160593"></rect>
                            </g>
                            <g id="Group" transform="translate(326.000000, 51.000000)" fill="#6A1B9A">
                                <rect id="Rectangle" x="0.0296295556" y="0.105819841" width="23.0223763" height="23.3942272"></rect>
                            </g>
                            <g id="Group" transform="translate(146.965315, 46.483883) scale(-1, 1) rotate(-23.972251) translate(-146.965315, -46.483883) translate(135.465315, 25.983883)" fill="#8BC34A" fill-rule="nonzero">
                                <path d="M9.10877037,0.119706896 C20.3676503,5.12196299 25.4360546,18.3000198 20.4308963,29.5534613 C18.0951558,34.8020158 13.9776226,38.7035576 9.10877037,40.8657528 L0.0440907226,20.4927299 L9.10877037,0.119706896 Z" id="Path"></path>
                            </g>
                            <g id="Group" transform="translate(158.000000, 28.000000)" fill="#558B2F" fill-rule="nonzero">
                                <path d="M0.199382218,0.107748849 L0.199382218,22.1531633 L20.9645155,16.5329834 C18.544645,7.07909937 10.1663943,0.107748849 0.199382218,0.107748849" id="Path"></path>
                            </g>
                            <g id="Group" transform="translate(140.000000, 51.000000)" fill="#6A1B9A" fill-rule="nonzero">
                                <path d="M-0.000229276323,14.8090018 C4.29205276,19.278424 10.5031483,22.088514 17.4135367,22.088514 L17.4135367,0.0430995395 L-0.000229276323,14.8090018 Z" id="Path"></path>
                            </g>
                            <g id="Group" transform="translate(169.000000, 59.500000) scale(-1, 1) rotate(90.000000) translate(-169.000000, -59.500000) translate(155.000000, 48.000000)" fill="#FFC107" fill-rule="nonzero">
                                <path d="M5.8021833,0.0517194474 L27.7838622,0.0517194474 C27.7838622,12.2273394 17.9416401,22.0971339 5.8021833,22.0971339 C3.86382428,22.0971339 1.98563606,21.8428466 0.197704023,21.3709067 L5.8021833,0.0517194474 Z" id="Path"></path>
                            </g>
                            <g id="Group" transform="translate(182.452674, 32.735829) scale(-1, 1) rotate(-152.240707) translate(-182.452674, -32.735829) translate(177.452674, 31.735829)" fill="#9C27B0">
                                <rect id="Rectangle" x="0.113953828" y="0.197504227" width="9.4480837" height="1.44291694"></rect>
                            </g>
                            <g id="Group" transform="translate(182.574215, 69.296761) scale(-1, 1) rotate(152.241297) translate(-182.574215, -69.296761) translate(177.574215, 68.296761)" fill="#9C27B0">
                                <rect id="Rectangle" x="0.112861767" y="0.103289458" width="9.44852208" height="1.44291727"></rect>
                            </g>
                            <g id="Group" transform="translate(132.254813, 32.834589) scale(-1, 1) rotate(-27.758960) translate(-132.254813, -32.834589) translate(127.254813, 31.834589)" fill="#9C27B0">
                                <rect id="Rectangle" x="0.0154769416" y="0.195698417" width="9.44852296" height="1.44291741"></rect>
                            </g>
                            <g id="Group" transform="translate(132.656828, 69.505562) scale(-1, 1) rotate(27.759755) translate(-132.656828, -69.505562) translate(127.656828, 68.505562)" fill="#9C27B0">
                                <rect id="Rectangle" x="0.332339903" y="0.100864137" width="9.44808106" height="1.44291653"></rect>
                            </g>
                            <g id="Group" transform="translate(192.000000, 32.000000)" fill="#6A1B9A" fill-rule="nonzero">
                                <path d="M1.23258951,2.12697881 L12.5356065,2.12697881 C13.1219425,2.12697881 13.597003,1.65502232 13.597003,1.07512959 C13.597003,0.495236857 13.1219425,0.0253967619 12.5356065,0.0253967619 L1.23258951,0.0253967619 C0.646253528,0.0253967619 0.171192988,0.495236857 0.171192988,1.07512959 C0.171192988,1.65502232 0.646253528,2.12697881 1.23258951,2.12697881" id="Path"></path>
                            </g>
                            <g id="Group" transform="translate(192.000000, 27.000000)" fill="#6A1B9A" fill-rule="nonzero">
                                <path d="M1.30611918,2.12486241 L7.84125024,2.12486241 C8.46483145,2.12486241 8.96823155,1.65290592 8.96823155,1.07301319 C8.96823155,0.49312046 8.46483145,0.0232803651 7.84125024,0.0232803651 L1.30611918,0.0232803651 C0.684805544,0.0232803651 0.181405442,0.49312046 0.181405442,1.07301319 C0.181405442,1.65290592 0.684805544,2.12486241 1.30611918,2.12486241" id="Path"></path>
                            </g>
                            <g id="Group" transform="translate(192.000000, 76.000000)" fill="#6A1B9A" fill-rule="nonzero">
                                <path d="M1.23258951,2.12274602 L12.5356065,2.12274602 C13.1219425,2.12274602 13.597003,1.65078952 13.597003,1.07089679 C13.597003,0.491004063 13.1219425,0.0211639683 12.5356065,0.0211639683 L1.23258951,0.0211639683 C0.646253528,0.0211639683 0.171192988,0.491004063 0.171192988,1.07089679 C0.171192988,1.65078952 0.646253528,2.12274602 1.23258951,2.12274602" id="Path"></path>
                            </g>
                            <g id="Group" transform="translate(192.000000, 71.000000)" fill="#6A1B9A" fill-rule="nonzero">
                                <path d="M1.30611918,2.12062962 L7.84125024,2.12062962 C8.46483145,2.12062962 8.96823155,1.65078952 8.96823155,1.07089679 C8.96823155,0.491004063 8.46483145,0.0190475714 7.84125024,0.0190475714 L1.30611918,0.0190475714 C0.684805544,0.0190475714 0.181405442,0.491004063 0.181405442,1.07089679 C0.181405442,1.65078952 0.684805544,2.12062962 1.30611918,2.12062962" id="Path"></path>
                            </g>
                            <g id="Group" transform="translate(108.000000, 32.000000)" fill="#6A1B9A" fill-rule="nonzero">
                                <path d="M1.25398863,2.12697881 L12.5555077,2.12697881 C13.1426997,2.12697881 13.6177602,1.65502232 13.6177602,1.07512959 C13.6177602,0.495236857 13.1426997,0.0253967619 12.5555077,0.0253967619 L1.25398863,0.0253967619 C0.666796687,0.0253967619 0.191522155,0.495236857 0.191522155,1.07512959 C0.191522155,1.65502232 0.666796687,2.12697881 1.25398863,2.12697881" id="Path"></path>
                            </g>
                            <g id="Group" transform="translate(114.000000, 27.000000)" fill="#6A1B9A" fill-rule="nonzero">
                                <path d="M1.32743432,2.12486241 L7.86233862,2.12486241 C8.48455929,2.12486241 8.98795939,1.65290592 8.98795939,1.07301319 C8.98795939,0.49312046 8.48455929,0.0232803651 7.86233862,0.0232803651 L1.32743432,0.0232803651 C0.705440413,0.0232803651 0.201813554,0.49312046 0.201813554,1.07301319 C0.201813554,1.65290592 0.705440413,2.12486241 1.32743432,2.12486241" id="Path"></path>
                            </g>
                            <g id="Group" transform="translate(108.000000, 76.000000)" fill="#6A1B9A" fill-rule="nonzero">
                                <path d="M1.25398863,2.12274602 L12.5555077,2.12274602 C13.1426997,2.12274602 13.6177602,1.65078952 13.6177602,1.07089679 C13.6177602,0.491004063 13.1426997,0.0211639683 12.5555077,0.0211639683 L1.25398863,0.0211639683 C0.666796687,0.0211639683 0.191522155,0.491004063 0.191522155,1.07089679 C0.191522155,1.65078952 0.666796687,2.12274602 1.25398863,2.12274602" id="Path"></path>
                            </g>
                            <g id="Group" transform="translate(114.000000, 71.000000)" fill="#6A1B9A" fill-rule="nonzero">
                                <path d="M1.32743432,2.12062962 L7.86233862,2.12062962 C8.48455929,2.12062962 8.98795939,1.65078952 8.98795939,1.07089679 C8.98795939,0.491004063 8.48455929,0.0190475714 7.86233862,0.0190475714 L1.32743432,0.0190475714 C0.705440413,0.0190475714 0.201813554,0.491004063 0.201813554,1.07089679 C0.201813554,1.65078952 0.705440413,2.12062962 1.32743432,2.12062962" id="Path"></path>
                            </g>
                            <g id="Group" transform="translate(120.000000, 109.000000)" fill="#FFC107" fill-rule="nonzero">
                                <path d="M1.12466857,29.8710364 L37.1746474,17.9581444 L73.2367432,34.8013945 C73.5121272,34.9297892 73.8359789,34.8805712 74.0562862,34.6772796 L110.041274,1.35456451 C110.33208,1.08493556 110.343095,0.635553967 110.065508,0.353085537 C109.787921,0.0706171074 109.327479,0.0599175457 109.03447,0.329546501 L73.415192,33.3120155 L37.5381544,16.5565018 C37.3641117,16.4751851 37.1680382,16.4644856 36.9873862,16.5244031 L0.65497349,28.5314513 C0.27362162,28.6555662 0.0702780166,29.0578697 0.200038994,29.4280746 C0.329359357,29.7982794 0.744197931,29.9972913 1.12466857,29.8710364 Z" id="Path"></path>
                            </g>
                            <path d="M121.059276,134.064047 C118.853805,134.064047 117.066428,135.852138 117.066428,138.056895 C117.066428,140.261651 118.853805,142.049742 121.059276,142.049742 C123.265461,142.049742 125.052599,140.261651 125.052599,138.056895 C125.052599,135.852138 123.265461,134.064047 121.059276,134.064047" id="Path" fill="#FFC107" fill-rule="nonzero" transform="translate(121.059514, 138.056895) scale(-1, 1) rotate(90.000000) translate(-121.059514, -138.056895) "></path>
                            <path d="M157.083323,124.042857 C154.876186,124.042857 153.090476,125.830948 153.090476,128.035704 C153.090476,130.240461 154.876186,132.028551 157.083323,132.028551 C159.29046,132.028551 161.07617,130.240461 161.07617,128.035704 C161.07617,125.830948 159.29046,124.042857 157.083323,124.042857" id="Path" fill="#FFC107" fill-rule="nonzero" transform="translate(157.083323, 128.035704) scale(-1, 1) rotate(90.000000) translate(-157.083323, -128.035704) "></path>
                            <path d="M194.013085,140.022619 C191.805948,140.022619 190.020238,141.813091 190.020238,144.015466 C190.020238,146.220223 191.805948,148.010694 194.013085,148.010694 C196.217842,148.010694 198.005932,146.220223 198.005932,144.015466 C198.005932,141.813091 196.217842,140.022619 194.013085,140.022619" id="Path" fill="#FFC107" fill-rule="nonzero" transform="translate(194.013085, 144.016657) scale(-1, 1) rotate(90.000000) translate(-194.013085, -144.016657) "></path>
                            <g id="Group" transform="translate(254.000000, 73.000000)" fill="#FFECB3" fill-rule="nonzero">
                                <path d="M23.0856566,84.6310767 L0.0677246984,84.6310767 L0.0677246984,56.9142358 C2.01904257,54.2927844 3.94708008,51.7867291 5.88569957,49.4853386 C9.08992437,45.6816213 12.3258951,42.4439982 15.7290612,40.1730897 C18.0846109,38.6032671 20.512118,37.4928516 23.0856566,36.9572394 L23.0856566,84.6310767 Z M0.0677246984,54.5540586 L0.0677246984,0.130637114 L0.0677246984,1.34338498 L23.0856566,1.34338498 L23.0856566,7.52905231 L19.1533913,7.52905231 L19.1533913,11.6114621 L23.0856566,11.6114621 L23.0856566,35.4897492 C20.2094733,36.0427796 17.5174165,37.2598821 14.9671583,38.9646964 C9.64230394,42.5202032 4.88887667,48.1767902 0.0677246984,54.5540586 Z M2.16719035,7.52905231 L2.16719035,11.6114621 L13.0243061,11.6114621 L13.0243061,7.52905231 L2.16719035,7.52905231 Z" id="Shape"></path>
                            </g>
                            <g id="Group" transform="translate(289.000000, 89.000000)" fill="#FFECB3" fill-rule="nonzero">
                                <path d="M23.0687254,71.1846337 L0.048677127,71.1846337 L0.048677127,25.8343166 C3.12380171,27.5023693 5.88569957,29.8480009 8.84653873,31.876422 C12.0507635,34.0688431 15.5385855,35.89658 19.9131777,35.8944221 C20.9607942,35.8922642 22.0168762,35.7261063 23.0687254,35.426159 L23.0687254,60.1167913 L17.2994277,60.1167913 C16.912127,60.1167913 16.5989003,60.4361597 16.5989003,60.8310545 C16.5989003,61.2237913 16.912127,61.5453177 17.2994277,61.5453177 L23.0687254,61.5453177 L23.0687254,63.0925282 L14.5269478,63.0925282 C14.1396472,63.0925282 13.8264205,63.4118967 13.8264205,63.8067914 C13.8264205,64.2016862 14.1396472,64.5210546 14.5269478,64.5210546 L23.0687254,64.5210546 L23.0687254,66.0682652 L14.5269478,66.0682652 C14.1396472,66.0682652 13.8264205,66.3876336 13.8264205,66.7825283 C13.8264205,67.1774231 14.1396472,67.4967915 14.5269478,67.4967915 L23.0687254,67.4967915 L23.0687254,71.1846337 Z M19.9195269,34.4658958 L19.9131777,34.4658958 C17.2592161,34.4637379 14.9713911,33.7365273 12.8020844,32.6187378 C9.54918248,30.9420536 6.6010417,28.3633693 3.31216103,26.1623166 C2.2687774,25.4653166 1.18941502,24.8050008 0.048677127,24.2310007 L0.048677127,0.129473688 L23.0687254,0.129473688 L23.0687254,33.9350537 C21.9914794,34.2803168 20.9353974,34.4658958 19.9195269,34.4658958" id="Shape"></path>
                            </g>
                            <g id="Group" transform="translate(228.000000, 153.000000)">
                                <g id="Clipped">
                                    <mask id="mask-2" fill="white">
                                        <use xlink:href="#path-1"></use>
                                    </mask>
                                    <g id="Shape"></g>
                                    <g mask="url(#mask-2)">
                                        <mask id="mask-4" fill="white">
                                            <use xlink:href="#path-3"></use>
                                        </mask>
                                        <g id="Rectangle"></g>
                                    </g>
                                </g>
                            </g>
                            <g id="Group" transform="translate(336.000000, 95.000000)" fill="#558B2F" fill-rule="nonzero">
                                <path d="M1.89064783,3.53109053 C1.82104189,3.53109053 1.75143595,3.52732804 1.68371125,3.51792183 C2.01669102,2.93097445 2.2781836,2.42680169 2.4587828,2.02609723 C2.59987592,1.71192988 2.46066404,1.34320652 2.14649669,1.2021134 C2.06372206,1.16448856 1.97718495,1.14755739 1.89064783,1.14755739 C1.65361139,1.14755739 1.42786239,1.28488803 1.32251286,1.51439951 C1.16072608,1.8755979 0.908639704,2.36283948 0.577541178,2.9422619 C0.299117418,2.63185703 0.129805672,2.22174636 0.129805672,1.77024837 C0.129805672,0.797646448 0.918045912,0.00940620811 1.89064783,0.00940620811 C2.86324975,0.00940620811 3.65148999,0.797646448 3.65148999,1.77024837 C3.65148999,2.74285029 2.86324975,3.53109053 1.89064783,3.53109053" id="Path"></path>
                            </g>
                            <g id="Group" transform="translate(241.000000, 110.000000)" fill="#558B2F" fill-rule="nonzero">
                                <path d="M0.0370138488,38.0035219 L0.0370138488,35.7060742 C4.30884746,30.3834706 8.25844286,24.8454125 12.1666698,19.7602485 C12.1971518,19.7184767 12.2298111,19.6767049 12.2624704,19.6349331 L12.2624704,22.0181229 C8.37383898,27.1384632 4.38940702,32.6919108 0.0370138488,38.0035219 Z M71.8504125,13.5714301 L71.8504125,12.0522566 C72.8389,11.7400675 73.8448057,11.2959676 74.8572434,10.7441404 C77.0084012,9.5723322 79.1791545,7.91025523 81.2562846,5.9975476 C82.2186447,5.11154625 83.1614092,4.17278055 84.0736917,3.20323565 L84.0736917,5.28742741 C82.0923622,7.29247265 79.9825728,9.14142335 77.8183513,10.6232221 C75.8653264,11.9577204 73.8600467,13.0020148 71.8504125,13.5714301 Z M48.1680811,3.8012316 C47.9024523,3.65612964 47.6324689,3.51982174 47.3624855,3.38571235 C45.0327903,2.24468332 42.5223805,1.4993869 39.5830454,1.4993869 C38.335461,1.4993869 37.1248904,1.62470223 35.9426245,1.86653882 L35.9426245,0.38474004 C37.1227131,0.16049156 38.3332837,0.0417717758 39.5765136,0.0417717758 L39.5917546,0.0417717758 C42.8533278,0.0417717758 45.6489621,0.90578798 48.1680811,2.1655368 L48.1680811,3.8012316 Z" id="Shape"></path>
                            </g>
                            <g id="Group" transform="translate(254.000000, 112.000000)" fill="#558B2F" fill-rule="nonzero">
                                <path d="M0.0677246984,20.8406886 L0.0677246984,18.5677314 C4.88887667,12.418364 9.64230394,6.96788381 14.9671583,3.53850967 C17.5174165,1.89727921 20.2094733,0.724072264 23.0856566,0.188888417 L23.0856566,1.60345278 C20.512118,2.12184655 18.0846109,3.19221424 15.7290612,4.70542034 C12.3258951,6.89442721 9.08992437,10.0152836 5.88569957,13.6818176 C3.94708008,15.9002072 2.01904257,18.3158801 0.0677246984,20.8406886" id="Path"></path>
                            </g>
                            <g id="Group" transform="translate(289.000000, 112.000000)" fill="#558B2F" fill-rule="nonzero">
                                <path d="M19.9131777,12.4267767 C15.5385855,12.4267767 12.0507635,10.487099 8.84653873,8.1553588 C5.88569957,6.00016137 3.12380171,3.5102205 0.048677127,1.73791453 L0.048677127,0.0320986852 C1.18941502,0.644266467 2.2687774,1.34355925 3.31216103,2.08412177 C6.6010417,4.42503303 9.54918248,7.16488509 12.8020844,8.94636211 C14.9713911,10.1340135 17.2592161,10.9066747 19.9131777,10.9089674 L19.9195269,10.9089674 C20.9353974,10.9089674 21.9914794,10.7117898 23.0687254,10.3449477 L23.0687254,11.9269543 C22.0168762,12.2479412 20.9607942,12.4244839 19.9131777,12.4267767" id="Path"></path>
                            </g>
                            <g id="Group" transform="translate(326.000000, 96.000000)" fill="#558B2F" fill-rule="nonzero" stroke="#558B2F" stroke-width="0.5">
                                <path d="M0.030909845,18.4794365 L0.030909845,16.3593947 C3.10864727,13.0888562 5.85520778,9.48545542 7.91512816,6.4472502 C9.03450612,4.79410912 9.95738578,3.3018142 10.6131161,2.13344558 C11.001697,1.44314748 11.2975483,0.864548103 11.4874231,0.435625013 C11.6110625,0.163080133 11.876004,0 12.1541926,0 C12.2557535,0 12.3573145,0.0201057698 12.4544597,0.0647852584 C12.82317,0.23233334 12.9865506,0.670192328 12.8209621,1.04326606 C12.6090089,1.51910261 12.3021183,2.11780776 11.9113296,2.81480778 C11.4962545,3.55872126 10.9818264,4.41433347 10.3835001,5.35930465 C9.22217304,7.18669573 7.74070832,9.33131118 6.02962762,11.5541157 C4.24568799,13.8685132 2.21446961,16.2678018 0.030909845,18.4794365 Z" id="Path"></path>
                            </g>
                            <g id="Group" transform="translate(241.000000, 82.000000)" fill="#558B2F">
                                <rect id="Rectangle" x="0.0404760893" y="0.182480437" width="8.83712076" height="3.52770429"></rect>
                            </g>
                            <g id="Group" transform="translate(238.000000, 82.000000)" fill="#558B2F">
                                <rect id="Rectangle" x="0.186242921" y="0.182480437" width="2.66797687" height="3.52770429"></rect>
                            </g>
                            <g id="Group" transform="translate(255.000000, 82.000000)" fill="#558B2F">
                                <rect id="Rectangle" x="0.0554111169" y="0.182480437" width="11.8434336" height="3.52770429"></rect>
                            </g>
                            <g id="Group" transform="translate(276.000000, 82.000000)" fill="#558B2F">
                                <rect id="Rectangle" x="0.0193499138" y="0.182480437" width="7.91266351" height="3.52770429"></rect>
                            </g>
                            <g id="Group" transform="translate(274.000000, 82.000000)" fill="#558B2F">
                                <rect id="Rectangle" x="0.0940620811" y="0.182480437" width="3.49609943" height="3.52770429"></rect>
                            </g>
                            <g id="Group" transform="translate(313.000000, 148.000000)" fill="#8BC34A">
                                <rect id="Rectangle" x="0" y="0.0395060741" width="12.8727191" height="1"></rect>
                            </g>
                            <g id="Group" transform="translate(307.000000, 148.000000)" fill="#8BC34A" fill-rule="nonzero">
                                <path d="M6.88887167,0.97354254 L0.831109033,0.97354254 C0.424443383,0.97354254 0.0955553167,0.76472472 0.0955553167,0.506524307 C0.0955553167,0.249734825 0.424443383,0.0395060741 0.831109033,0.0395060741 L6.88887167,0.0395060741 L6.88887167,0.97354254 Z" id="Path"></path>
                            </g>
                            <g id="Group" transform="translate(326.000000, 148.000000)" fill="#8BC34A" fill-rule="nonzero">
                                <path d="M2.10699062,0.97354254 L0.0263373827,0.97354254 L0.0263373827,0.0395060741 L2.10699062,0.0395060741 C2.44937659,0.0395060741 2.72968159,0.249734825 2.72968159,0.506524307 C2.72968159,0.76472472 2.44937659,0.97354254 2.10699062,0.97354254" id="Path"></path>
                            </g>
                            <g id="Group" transform="translate(313.000000, 151.000000)" fill="#8BC34A">
                                <rect id="Rectangle" x="0" y="0.0691356296" width="12.8727191" height="1"></rect>
                            </g>
                            <g id="Group" transform="translate(303.000000, 151.000000)" fill="#8BC34A" fill-rule="nonzero">
                                <path d="M9.97729932,1.0031721 L0.825394762,1.0031721 C0.410429813,1.0031721 0.0748297449,0.794354275 0.0748297449,0.536153862 C0.0748297449,0.279364381 0.410429813,0.0691356296 0.825394762,0.0691356296 L9.97729932,0.0691356296 L9.97729932,1.0031721 Z" id="Path"></path>
                            </g>
                            <g id="Group" transform="translate(326.000000, 151.000000)" fill="#8BC34A" fill-rule="nonzero">
                                <path d="M2.10699062,1.0031721 L0.0263373827,1.0031721 L0.0263373827,0.0691356296 L2.10699062,0.0691356296 C2.44937659,0.0691356296 2.72968159,0.279364381 2.72968159,0.536153862 C2.72968159,0.794354275 2.44937659,1.0031721 2.10699062,1.0031721" id="Path"></path>
                            </g>
                            <g id="Group" transform="translate(313.000000, 154.000000)" fill="#8BC34A" fill-rule="nonzero">
                                <path d="M11.2964444,1.54920248 L0,1.54920248 L0,0.148147778 L11.2964444,0.148147778 C11.7160201,0.148147778 12.0553491,0.461374508 12.0553491,0.848675127 C12.0553491,1.23597575 11.7160201,1.54920248 11.2964444,1.54920248" id="Path"></path>
                            </g>
                            <g id="Group" transform="translate(303.000000, 154.000000)" fill="#8BC34A" fill-rule="nonzero">
                                <path d="M9.97729932,1.54920248 L0.825394762,1.54920248 C0.410429813,1.54920248 0.0748297449,1.23597575 0.0748297449,0.848675127 C0.0748297449,0.461374508 0.410429813,0.148147778 0.825394762,0.148147778 L9.97729932,0.148147778 L9.97729932,1.54920248 Z" id="Path"></path>
                            </g>
                        </g>
                        <g id="Group-32" transform="translate(452.000000, 47.000000)">
                            <g id="Group" transform="translate(73.612812, 116.278868) scale(-1, 1) rotate(2.785868) translate(-73.612812, -116.278868) translate(59.612812, 73.778868)" fill="#9C27B0" fill-rule="nonzero">
                                <path d="M23.4863219,0.137972812 C24.0293653,11.3260277 26.437076,61.481557 27.5515145,84.3894973 C26.160102,84.4570659 23.4863219,84.5878439 23.4863219,84.5878439 C20.9237675,79.0188822 2.39050216,11.9929954 0.323011507,1.26484295 C3.40680031,1.11444829 23.4863219,0.137972812 23.4863219,0.137972812" id="Path"></path>
                            </g>
                            <g id="Group" transform="translate(64.500000, 160.000000) scale(-1, 1) rotate(-90.000000) translate(-64.500000, -160.000000) translate(63.000000, 158.000000)" fill="#FFD8D8" fill-rule="nonzero">
                                <path d="M1.29311846,0.084655873 L2.73861749,0.084655873 L2.73861749,3.59693398 C1.39047271,3.64020254 0.668781397,3.86407029 0.110052635,3.99575721 C-0.283597175,3.08523626 0.734389698,1.74767347 1.29311846,0.084655873" id="Path"></path>
                            </g>
                            <g id="Group" transform="translate(50.000000, 161.000000)" fill="#6A1B9A" fill-rule="nonzero">
                                <path d="M15.6343524,0.124444133 C13.6075498,0.711109333 11.9773951,1.77999555 10.8699905,1.36666325 C10.2784575,1.77999555 1.59576321,4.80665465 0.708463837,5.39109763 C-0.194884874,5.99331835 -0.0573190807,6.92442713 0.898763185,6.92442713 C2.29505599,6.92442713 13.8207767,6.43109503 13.8207767,6.43109503 C14.0569313,6.67776108 14.2449379,6.92442713 14.2449379,6.92442713 L16.8793229,6.92442713 C17.6680334,5.60443043 17.4548065,1.64221812 15.6343524,0.124444133" id="Path"></path>
                            </g>
                            <g id="Group" transform="translate(93.500000, 160.000000) scale(-1, 1) rotate(-90.000000) translate(-93.500000, -160.000000) translate(92.000000, 158.000000)" fill="#FFD8D8" fill-rule="nonzero">
                                <path d="M1.35661037,0.0827746314 L2.8021094,0.0827746314 L2.8021094,3.5931715 C1.45396462,3.63644006 0.730156905,3.86218905 0.171428143,3.99763845 C-0.222221667,3.08335502 0.797881603,1.75143595 1.35661037,0.0827746314" id="Path"></path>
                            </g>
                            <g id="Group" transform="translate(80.000000, 161.000000)" fill="#6A1B9A" fill-rule="nonzero">
                                <path d="M15.7054281,0.124444133 C13.6717471,0.711109333 12.0484708,1.77999555 10.9318951,1.36666325 C10.3403622,1.77999555 1.65996058,4.80665465 0.779539497,5.39109763 C-0.121516451,5.99331835 0.00687828968,6.92442713 0.962960556,6.92442713 C2.36613165,6.92442713 13.8918524,6.43109503 13.8918524,6.43109503 C14.128007,6.67776108 14.3183064,6.92442713 14.3183064,6.92442713 L16.9503985,6.92442713 C17.7391091,5.60443043 17.5190038,1.64221812 15.7054281,0.124444133" id="Path"></path>
                            </g>
                            <g id="Group" transform="translate(82.292086, 116.713226) scale(-1, 1) rotate(-0.034334) translate(-82.292086, -116.713226) translate(68.292086, 74.213226)" fill="#9C27B0" fill-rule="nonzero">
                                <path d="M4.20490099,0.209089775 C3.9715449,4.45937507 0.148430625,61.6202632 0.135345237,84.5565464 C1.52893909,84.5565464 4.20490099,84.558726 4.20490099,84.558726 C6.49702484,78.8742419 25.8459523,11.0396886 27.3965708,0.224347209 C24.3062383,0.222167575 4.20490099,0.209089775 4.20490099,0.209089775" id="Path"></path>
                            </g>
                            <g id="Group" transform="translate(36.000000, 27.000000)" fill="#9C27B0">
                                <path d="M34.3070277,0.0831038487 C29.4106849,4.00429334 21.9541485,18.2150515 18.9436916,19.6912382 C15.9854392,21.1411817 6.22320608,15.1533307 2.45795976,12.1637791 C1.4225714,13.4846929 0.0478540838,14.5716038 0.0478540838,14.5716038 C1.98376929,16.8197816 15.4525187,31.5707147 20.6577379,30.2323054 C25.8694827,28.896083 31.1247311,21.8803686 35.2923868,17.7907844 C39.4600424,13.6990134 34.3070277,0.0831038487 34.3070277,0.0831038487" id="Path"></path>
                            </g>
                            <g id="Group" transform="translate(25.000000, 32.000000)" fill="#FFD8D8" fill-rule="nonzero">
                                <path d="M12.908257,8.04482116 C10.5948589,7.01684754 10.7851582,4.65316297 8.84089501,3.1755873 C6.90580284,1.69801163 6.64213507,1.4601154 6.42890809,1.9642808 C6.20880282,2.47062874 8.53137197,4.45891742 8.02925682,4.47856023 C7.18093443,4.50911571 3.26489484,-0.205158217 2.43032902,0.128769519 C1.86172374,0.357935613 4.47088829,3.20177771 5.83049689,4.37161606 C4.25078302,4.33887804 1.36877965,-0.602379446 0.784125024,0.0785712321 C0.396648038,0.53690342 3.23508891,4.62697256 4.99363831,5.31010577 C3.51480603,5.31010577 0.843736868,1.13055273 0.146736847,1.53868663 C-0.414990144,1.8682493 2.33861849,5.5349068 3.92521065,6.20930987 C2.58852968,5.96268351 1.07989148,4.04423592 0.738269759,4.45891742 C0.320986852,4.97181297 3.34743431,7.69125061 6.21568111,9.33688142 C8.48551671,10.6376718 8.80421079,9.84104683 10.3678753,10.4477913 C11.9292471,9.53549203 12.908257,8.04482116 12.908257,8.04482116" id="Path"></path>
                            </g>
                            <g id="Group" transform="translate(38.889409, 42.022404) scale(-1, 1) rotate(106.350352) translate(-38.889409, -42.022404) translate(35.889409, 38.522404)" fill="#9C27B0" fill-rule="nonzero">
                                <path d="M2.59317677,0.0417621972 C2.59317677,0.0417621972 0.379566272,4.15690832 0.194190024,4.40538642 C0.868087209,5.08761139 2.58009139,6.17960726 2.59317677,6.25807403 C3.11441116,5.55623237 5.82526618,1.47814 5.79909542,1.32774536 C5.41089574,1.06400983 2.59317677,0.0417621972 2.59317677,0.0417621972" id="Path"></path>
                            </g>
                            <g id="Group" transform="translate(76.500000, 48.500000) scale(-1, 1) translate(-76.500000, -48.500000) translate(61.000000, 24.000000)" fill="#E1BEE7" fill-rule="nonzero">
                                <path d="M0.404584526,48.8327997 L30.5209819,48.8327997 C29.7402431,38.1803161 29.4996793,11.082606 24.5068876,5.12295016 C18.5999535,-1.93234085 14.3594703,-1.11917416 8.56844419,4.54945365 C0.758869355,12.1910806 -0.796047393,39.9500236 0.404584526,48.8327997" id="Path"></path>
                            </g>
                            <g id="Group" transform="translate(65.000000, 26.000000)" fill="#9C27B0" fill-rule="nonzero">
                                <path d="M6.91381491,0.179320539 C6.41721752,0.90524465 5.84805794,1.959563 5.22447673,3.32067071 C3.37867636,7.38887042 1.14285429,14.0777426 0.961448844,20.5548869 C0.80498665,26.4573413 0.376416293,31.5928223 0.00907027211,48.2847558 L3.01133034,48.3452495 C3.37867636,31.6814023 3.79817645,26.6301803 3.96370891,20.626183 C4.06121434,16.7005755 5.03626859,12.5027465 6.19953099,9.02436016 C6.78456354,7.28300648 7.40814474,5.72097335 7.97957189,4.45924811 C8.54873146,3.20184385 9.08841265,2.23178454 9.41947759,1.75215611 L6.91381491,0.179320539 Z" id="Path"></path>
                            </g>
                            <g id="Group" transform="translate(67.000000, 5.000000)" fill="#FFD8D8" fill-rule="nonzero">
                                <path d="M12.7281986,11.4802182 C12.5527258,12.8758937 12.4885284,18.185757 13.6911592,19.7073581 C12.8202149,20.3537763 8.23224279,21.266737 4.80410322,19.9172342 C5.54023306,19.0252611 6.70220547,18.4250157 5.76064403,16.8425505 C4.73990585,15.1173696 3.00443693,17.4364996 1.63061321,14.6094696 C0.0235390358,11.3165149 -0.457941242,4.81875339 1.12773381,3.00752335 C2.9124207,0.982219767 6.45397563,-1.49641601 11.2559389,1.26555239 C15.1655588,3.51752207 13.0834241,8.64269444 12.7281986,11.4802182" id="Path"></path>
                            </g>
                            <g id="Group" transform="translate(63.000000, 3.000000)" fill="#212121" fill-rule="nonzero">
                                <path d="M12.3355701,11.9244531 C11.2519245,11.9411278 11.8044552,9.16063126 11.0034998,8.49781425 C10.0611993,7.7141061 6.89378473,7.26180644 3.83130813,7.59113061 C0.762406761,7.92045479 -1.15217651,4.02692596 0.811663378,2.40948572 C2.76907849,0.792045479 4.55302465,3.02019447 6.01359041,2.54496718 C7.72258084,1.99261968 7.41847478,-0.0312649531 9.94769496,0.181336728 C12.2863135,0.377263767 11.2305086,2.49285893 12.7124903,2.87012269 C14.2437286,3.25572378 16.4966834,1.27977875 18.3684348,3.61631291 C19.7497617,5.34839131 17.6659926,6.36137579 17.8865766,8.28938123 C18.0279217,9.49412409 21.1118142,13.0479071 17.7859218,14.5548778 C14.4621709,16.0597642 15.2288609,12.7561009 15.4044714,11.3908646 C15.5822236,10.0256283 14.9440292,9.12519765 14.2437286,9.09810135 C13.5412864,9.06892073 13.8967907,11.9036098 12.3355701,11.9244531" id="Path"></path>
                            </g>
                            <g id="Group" transform="translate(75.553907, 26.094993) scale(-1, 1) rotate(-79.798180) translate(-75.553907, -26.094993) translate(73.553907, 21.094993)" fill="#9C27B0" fill-rule="nonzero">
                                <path d="M1.98837977,0.400389272 C1.72667205,1.28314069 1.75066193,6.54259543 3.08537131,8.10539239 C2.7189805,8.55221718 2.37439867,8.89223995 1.98837977,9.14507739 C1.03750838,8.06397936 -0.563270526,3.62406667 0.507550241,0.125755498 C1.09857352,0.232557521 1.98837977,0.400389272 1.98837977,0.400389272" id="Path"></path>
                            </g>
                            <g id="Group" transform="translate(58.000000, 19.000000)" fill="#FFC107" fill-rule="nonzero">
                                <path d="M2.6487882,0.479716614 C2.9968179,0.536153862 3.12850482,1.37213061 2.94790562,2.34567315 C2.76730643,3.31745202 2.3365021,4.05995458 1.9884724,4.00351733 L0.015049933,3.67900315 L0.675365743,0.155202434 L2.6487882,0.479716614 Z" id="Path"></path>
                            </g>
                            <g id="Group" transform="translate(43.000000, 13.000000)" fill="#FFECB3" fill-rule="nonzero">
                                <path d="M3.02644746,0.0813166691 L13.9066511,2.03719655 C14.8987923,2.21694919 15.2843934,4.8362019 14.7674795,7.88771691 C14.2443126,10.9392319 13.0166421,13.2674565 12.0161636,13.0877039 L1.14429728,11.131824 C0.143818784,10.9520714 -0.241782304,8.33067876 0.281384578,5.27916376 C0.798298469,2.22978866 2.02596896,-0.0984359679 3.02644746,0.0813166691" id="Path"></path>
                            </g>
                            <g id="Group" transform="translate(25.000000, 4.000000)" fill="#FFC107" fill-rule="nonzero">
                                <path d="M19.0499687,10.2490705 C19.7209057,10.3697492 19.9783092,12.1303654 19.6280716,14.1797485 C19.279944,16.2291316 18.4486573,17.7936449 17.7713907,17.6729662 L0.0569663479,22.2285875 L3.65217586,0.0969739639 L19.0499687,10.2490705 Z" id="Path"></path>
                            </g>
                            <g id="Group" transform="translate(26.732372, 15.132585) scale(-1, 1) rotate(-99.948330) translate(-26.732372, -15.132585) translate(15.232372, 11.132585)" fill="#FF6F00" fill-rule="nonzero">
                                <path d="M11.4968082,0.0816139011 C17.8039646,0.0816139011 22.9181698,1.79264457 22.9181698,3.90906841 C22.9159889,6.02549225 17.8017837,7.74304321 11.4968082,7.73652292 C5.18747099,7.73652292 0.075446634,6.01895335 0.075446634,3.91124805 C0.075446634,1.79264457 5.18965189,0.0750936105 11.4968082,0.0816139011" id="Path"></path>
                            </g>
                            <g id="Group" transform="translate(28.718903, 15.524196) scale(-1, 1) rotate(-9.898311) translate(-28.718903, -15.524196) translate(26.718903, 12.024196)" fill="#FFFFFF" fill-rule="nonzero">
                                <path d="M0.264160847,0.146412673 C0.152935111,1.19699541 0.0984126911,2.30860784 0.102774485,3.46163329 C0.0984126911,4.61465874 0.161658698,5.7284508 0.264160847,6.7768539 C2.02196366,6.68748898 3.42646119,5.23803355 3.42210953,3.45945366 C3.42428029,1.67869413 2.02196366,0.23141833 0.264160847,0.146412673" id="Path"></path>
                            </g>
                            <g id="Group" transform="translate(55.793115, 16.497180) scale(-1, 1) rotate(-177.795477) translate(-55.793115, -16.497180) translate(54.793115, 13.497180)" fill="#FF6F00" fill-rule="nonzero">
                                <path d="M0.863775933,0.276593664 C1.33266898,3.03382985 1.0011725,5.30936707 0.0481201136,5.5142526 L0.863775933,5.3377023 C1.81682832,5.1349964 2.1483248,2.85727955 1.68161265,0.102222996 L0.863775933,0.276593664 Z" id="Path"></path>
                            </g>
                            <g id="Group" transform="translate(54.051751, 16.277635) scale(-1, 1) rotate(-177.793268) translate(-54.051751, -16.277635) translate(53.051751, 13.277635)" fill="#FF6F00" fill-rule="nonzero">
                                <path d="M0.833236503,0.370318265 C1.29340572,3.12755303 0.970633001,5.40308907 0.0175811057,5.6079745 L0.833236503,5.43142429 C1.7862884,5.22653886 2.11124202,2.95100282 1.6510728,0.193768055 L0.833236503,0.370318265 Z" id="Path"></path>
                            </g>
                            <g id="Group" transform="translate(52.584184, 15.824757) scale(-1, 1) rotate(-177.876850) translate(-52.584184, -15.824757) translate(51.084184, 12.824757)" fill="#FF6F00" fill-rule="nonzero">
                                <path d="M1.01889703,0.240074347 C1.48124756,2.99731157 1.14757006,5.27284965 0.201060008,5.47555563 L1.01889703,5.30118489 C1.96322619,5.09847891 2.29908459,2.82294084 1.83455316,0.0657036133 L1.01889703,0.240074347 Z" id="Path"></path>
                            </g>
                            <g id="Group" transform="translate(50.842929, 15.606459) scale(-1, 1) rotate(-177.793488) translate(-50.842929, -15.606459) translate(49.342929, 12.606459)" fill="#FF6F00" fill-rule="nonzero">
                                <path d="M0.983757318,0.334388629 C1.45046963,3.09162574 1.11897303,5.36716373 0.165920326,5.5698697 L0.983757318,5.39549897 C1.93681003,5.19061336 2.26612572,2.91507538 1.79941341,0.157838268 L0.983757318,0.334388629 Z" id="Path"></path>
                            </g>
                            <g id="Group" transform="translate(45.000000, 24.000000)" fill="#FFC107" fill-rule="nonzero">
                                <path d="M8.13093205,1.01569411 C7.73569495,3.17547707 5.44284354,10.6200793 3.3642773,12.5482931 C2.22142302,12.3534083 1.19523511,12.181451 0.761902857,12.1103754 C0.321427768,12.0347142 -0.03333325,11.7825102 0.352380071,11.1726352 C0.740474339,10.565053 2.52856511,4.67952975 3.11903982,0.169664479 C3.79760955,0.28430264 8.13093205,1.01569411 8.13093205,1.01569411" id="Path"></path>
                            </g>
                            <g id="Group" transform="translate(47.000000, 26.000000)" fill="#FFD8D8" fill-rule="nonzero">
                                <path d="M5.46988344,8.88216474 C5.46988344,8.88216474 0.861059968,8.04530617 0.346576637,5.56453635 C-0.236791491,2.7559014 0.0193738493,0.314108562 0.404698185,0.0756611865 C1.3238797,-0.488358567 4.27946804,4.13843763 5.15559656,3.32450668 C5.269687,2.87741785 5.53446294,2.19875994 5.64855339,1.72874347 C6.23837947,2.08182901 7.49983232,2.59770074 8.08320045,5.10827647 C8.36304494,6.33031927 10.3994518,8.36400025 12.9288154,14.0454675 L10.7697075,17.2048953 C6.91646419,13.5708655 5.46988344,8.88216474 5.46988344,8.88216474" id="Path"></path>
                            </g>
                            <g id="Group" transform="translate(53.000000, 29.000000)" fill="#9C27B0" fill-rule="nonzero">
                                <path d="M4.46117881,3.07269465 C6.25080033,6.71383781 13.4307447,17.3497509 14.3963678,18.1881575 C17.7696112,12.7143715 24.1384322,3.74210313 27.015989,0.805484955 C29.7647962,-2.00822543 41.5325233,2.35500097 26.0503659,19.612571 C22.2779983,23.8177731 16.1366352,31.5543793 11.7977687,29.6119973 C9.44593994,27.8759248 1.02356051,9.05128053 0.186687136,5.48256517 L4.46117881,3.07269465 Z" id="Path"></path>
                            </g>
                            <g id="Group" transform="translate(55.944583, 36.747145) scale(-1, 1) rotate(90.021784) translate(-55.944583, -36.747145) translate(52.444583, 32.747145)" fill="#9C27B0" fill-rule="nonzero">
                                <path d="M2.95072478,0.113343891 C2.95072478,0.113343891 0.235507006,5.15701524 0.0108745315,5.45998426 C0.837434803,6.30350233 2.9354585,7.63743788 2.95072478,7.73770101 C3.58972784,6.8789255 6.91777791,1.87230793 6.88724534,1.69139837 C6.40744782,1.36663301 2.95072478,0.113343891 2.95072478,0.113343891" id="Path"></path>
                            </g>
                            <g id="Group" transform="translate(0.000000, 10.000000)" fill="#FF6F00" fill-rule="nonzero">
                                <path d="M18.1205363,2.67324435 L1.00157146,0.103468289 C0.601821447,0.0432685573 0.224035721,0.270898794 0.158142862,0.609522286 C0.0856607169,0.948145778 0.355821439,1.2698381 0.748982166,1.33003783 L17.8745363,3.89981388 C18.267697,3.96001362 18.6454827,3.73426462 18.7091791,3.39564113 C18.7838577,3.05701764 18.513697,2.73344408 18.1205363,2.67324435" id="Path"></path>
                            </g>
                            <g id="Group" transform="translate(4.000000, 0.000000)" fill="#FF6F00" fill-rule="nonzero">
                                <path d="M17.3126551,8.43031402 L1.33897372,0.154320602 C0.967546082,-0.0374778604 0.5112862,0.0970015212 0.314108562,0.449734325 C0.110052635,0.80467171 0.254496718,1.24779229 0.619046071,1.43959076 L16.5904347,9.71558418 C16.9618624,9.90738264 17.4250005,9.77290326 17.6221782,9.42017045 C17.8193558,9.06523307 17.6840828,8.62211248 17.3126551,8.43031402" id="Path"></path>
                            </g>
                            <g id="Group" transform="translate(0.000000, 19.000000)" fill="#FF6F00" fill-rule="nonzero">
                                <path d="M18.1488082,0.109112014 L0.663490405,2.29323354 C0.256907059,2.34402706 -0.0245737187,2.66007565 0.0357435908,3.00058039 C0.100528849,3.34108512 0.471368604,3.57624032 0.87795195,3.5254468 L18.3699717,1.34132528 C18.7698531,1.29053175 19.0513339,0.97448316 18.9910166,0.633978427 C18.9329333,0.293473693 18.5553916,0.0601997319 18.1488082,0.109112014" id="Path"></path>
                            </g>
                        </g>
                        <g id="Group-31" transform="translate(404.000000, 142.000000)">
                            <g id="Group" transform="translate(44.000000, 172.000000)" fill="#9C27B0" fill-rule="nonzero">
                                <path d="M14.5944801,6.36287301 C14.5944801,6.36287301 14.5194442,4.86709894 14.429818,2.81732629 C14.3735411,1.56132943 14.0984095,1.64732922 13.7878443,1.97310618 C13.091678,2.57754911 9.87764085,2.99399251 9.64836453,1.97310618 C9.53164204,1.43332975 9.22941416,0.0328888067 8.94594525,0.14399964 C8.64163304,0.261110458 7.55152834,1.81710657 6.04872626,2.37977183 C3.10982067,3.48221352 0.0125059812,4.41110008 0.0125059812,5.156876 C0.0125059812,6.36576186 0.90251498,6.36287301 1.50280208,6.36287301 L14.5944801,6.36287301" id="Path"></path>
                            </g>
                            <g id="Group" transform="translate(57.283322, 173.458392) scale(-1, 1) rotate(70.318580) translate(-57.283322, -173.458392) translate(55.283322, 170.958392)" fill="#FFD8D8" fill-rule="nonzero">
                                <path d="M2.08254628,0.390361875 C0.933212984,0.248031806 -0.791877408,2.74894332 0.706399582,3.45340088 C1.11858932,3.64629844 1.63982397,3.92529154 2.08254628,4.12124059 C2.88511678,3.63496435 4.40302185,0.607453375 3.53938621,0.045761814 C3.22533688,0.484740007 2.5187259,0.546205673 2.08254628,0.390361875" id="Path"></path>
                            </g>
                            <g id="Group" transform="translate(33.000000, 81.000000)" fill="#558B2F" fill-rule="nonzero">
                                <path d="M5.38805671,0.212664959 L12.8779628,0.212664959 C16.3295832,6.02428124 18.1469221,12.2696648 18.3013076,19.7983938 C18.4909813,29.3233176 17.9572483,45.5765022 17.9572483,47.3169799 C24.0885613,59.5632797 25.4824426,78.4991147 26.2940696,91.7951097 L22.5777882,91.7951097 C20.6435574,88.154277 5.17632791,46.2093048 0.549171559,16.7676477 C-1.59017146,3.14367703 5.38805671,0.212664959 5.38805671,0.212664959" id="Path"></path>
                            </g>
                            <g id="Group" transform="translate(0.000000, 172.000000)" fill="#9C27B0" fill-rule="nonzero">
                                <path d="M14.7299616,6.36287301 C14.7299616,6.36287301 14.6549257,4.86709894 14.5715525,2.81732629 C14.5173599,1.56132943 14.233891,1.64732922 13.9233258,1.97310618 C13.2292438,2.57754911 10.011038,2.99399251 9.78801465,1.97310618 C9.66920783,1.43332975 9.36697995,0.0328888067 9.07934238,0.14399964 C8.7771145,0.261110458 7.68492547,1.81710657 6.18420772,2.37977183 C3.24947079,3.48221352 0.147987445,4.41110008 0.147987445,5.156876 C0.147987445,6.36576186 1.03591211,6.36287301 1.64036787,6.36287301 L14.7299616,6.36287301" id="Path"></path>
                            </g>
                            <g id="Group" transform="translate(10.000000, 171.000000)" fill="#FFD8D8" fill-rule="nonzero">
                                <path d="M0.878539838,1.1452999 C1.10052635,0.17175736 3.63267757,-0.503796507 3.77000821,0.918798408 C3.80763304,1.30915605 3.88288271,1.81464567 3.92050754,2.2298357 L3.91298257,2.2298357 C3.28652911,2.74172154 0.381892049,3.0940781 0.180599196,2.2298357 C0.622690977,2.10172314 0.878539838,1.54506374 0.878539838,1.1452999" id="Path"></path>
                            </g>
                            <g id="Group" transform="translate(9.000000, 81.000000)" fill="#558B2F" fill-rule="nonzero">
                                <path d="M0.0886871051,91.7951097 C0.0886871051,87.7367354 -0.221717763,69.4776205 2.19722303,48.2342733 C4.11508167,31.3710021 8.06165785,15.2262053 13.0658278,0.212664959 L28.4752123,0.212664959 C34.3307784,12.0844754 20.3669937,36.8706521 13.5513897,49.532979 C12.8973223,62.195955 4.46539574,88.787945 3.66056026,91.7951097 L0.0886871051,91.7951097 Z" id="Path"></path>
                            </g>
                            <g id="Group" transform="translate(44.000000, 0.000000)" fill="#FFD8D8" fill-rule="nonzero">
                                <path d="M13.6473498,0.14450605 L13.6473498,0.155453478 C12.5527023,-0.0240843417 11.531776,0.426949693 11.096151,1.32025982 C10.0305452,3.52945079 11.3686959,4.77964707 12.7291863,5.41021893 C12.2488818,13.3273989 10.3343657,22.3962482 9.50556119,25.7264559 C8.83983681,28.4348495 1.9569616,41.7359746 0.174250005,43.3934152 C0.174250005,43.3934152 0.884653873,51.5383016 3.45819241,52.7337608 C7.53296177,46.6338539 13.1648113,37.4511513 14.9542248,30.2477436 C15.5305902,27.9159415 17.4473403,14.4965842 17.0765005,6.50496173 C17.4317025,5.89847422 18.1264685,5.02049049 17.9723243,3.74620987 C17.7198852,1.62240883 15.635587,0.367833582 13.6473498,0.14450605" id="Path"></path>
                            </g>
                            <g id="Group" transform="translate(23.000000, 41.000000)" fill="#9C27B0">
                                <path d="M0.856363573,38.8856387 C0.856363573,33.9509571 -1.81078404,5.0304161 2.60831348,1.30547131 C4.85272692,-0.586591774 23.1632183,-0.586591774 25.2463826,2.89597052 C28.8374441,8.89461117 25.3553347,14.7822868 24.6122813,20.1956411 C23.8692279,25.6068197 22.9322398,33.313452 23.4007339,38.8856387 L0.856363573,38.8856387" id="Path"></path>
                            </g>
                            <g id="Group" transform="translate(5.000000, 1.000000)" fill="#FFD8D8">
                                <path d="M18.7349872,42.1673033 C16.8263752,40.3237564 11.427976,35.5331619 8.7417015,28.0407421 C8.29147587,26.7795984 6.02096,13.9601602 6.11574435,6.68449955 C7.40179555,5.46276658 7.51165923,4.98764821 7.75723684,4.52128777 C8.00712284,3.35648143 8.24839208,0.52328706 6.5616616,0.146695536 C5.8550874,-0.010947428 4.88785626,-0.0131369136 3.63627209,0.494823747 C1.09863671,1.52826095 -0.112017861,2.49601359 0.221881531,4.28482333 C0.454534011,5.53283012 1.66734277,6.32542391 1.66734277,6.32542391 C1.4950076,7.29317655 1.64364668,27.3160224 2.95123979,30.8936419 C5.61166398,38.1780605 10.3530353,45.7668176 16.3416825,52.6965395 C18.8146922,47.4746164 18.7349872,42.1673033 18.7349872,42.1673033" id="Path"></path>
                            </g>
                            <g id="Group" transform="translate(19.000000, 19.000000)" fill="#FF6F00" fill-rule="nonzero">
                                <path d="M15.9834083,0.0648146528 C21.1288553,0.0648146528 27.5364338,5.8614051 25.5420077,17.1369942 C23.5454277,28.4125833 25.0358628,37.33324 30.6443785,41.0406381 C26.3475318,45.7440214 22.5977523,48.43599 15.2403446,48.43599 C9.25275865,48.43599 4.42176758,45.9211815 0.00861523152,42.5443381 C2.56733899,40.1569984 6.16635196,36.2810821 6.75864913,31.5733779 C7.61371086,24.7786418 5.56113195,19.2477914 5.94666356,11.2367003 C6.36665609,2.38517922 11.5702559,0.0648146528 15.9834083,0.0648146528" id="Path"></path>
                            </g>
                        </g>
                        <g id="Group-29" transform="translate(46.000000, 157.000000)">
                            <g id="Group" transform="translate(60.000000, 110.000000)" fill="#FFD8D8" fill-rule="nonzero">
                                <path d="M10.5952757,0.0534155043 C11.9746855,4.10470898 14.442324,8.86217722 14.442324,15.4146244 C14.442324,21.9661996 11.9073616,56.391293 11.9073616,58.2638879 L8.77482174,58.2638879 C8.77482174,56.0788668 4.87253872,27.4189414 7.48274544,17.0445604 C4.13927136,8.84102904 0.152781404,2.52971468 0.152781404,2.52971468 L10.5952757,0.0534155043 Z" id="Path"></path>
                            </g>
                            <g id="Group" transform="translate(68.000000, 168.000000)" fill="#F7D3C9" fill-rule="nonzero">
                                <path d="M3.65713371,1.00646427 C3.39590988,0.0543678829 0.0782310969,-0.659751437 0.249205726,1.00646427 C0.288888167,1.38929694 0.233559507,1.76046591 0.0757367721,2.06748454 L0.0782310969,2.06748454 C0.820406112,2.56789481 7.75236157,4.3460444 8.89521586,3.11194989 C8.09725867,2.75714772 3.65713371,2.0157504 3.65713371,1.00646427" id="Path"></path>
                            </g>
                            <g id="Group" transform="translate(67.000000, 169.000000)" fill="#8BC34A" fill-rule="nonzero">
                                <path d="M2.63765596,2.86795285 C2.15467774,2.86795285 1.55400435,3.33882763 1.4769675,3.83867357 L0.595965588,3.83867357 C0.595965588,3.83867357 -0.267275052,2.55397363 0.187884304,0.903184103 C0.475702514,-0.136578142 0.779356076,0.112498249 1.08664749,0.383208919 C1.7870408,0.883995438 4.64553571,1.0487922 4.86979853,0.204679089 C5.60785429,0.302503653 13.2034732,2.22306323 13.2034732,2.84011048 C13.2034732,3.84130727 12.3111297,3.83867357 11.7033946,3.83867357 C4.51799694,3.83867357 5.46982995,3.45019714 2.63765596,2.86795285" id="Path"></path>
                            </g>
                            <g id="Group" transform="translate(5.000000, 110.000000)" fill="#FFD8D8" fill-rule="nonzero">
                                <path d="M31.0316181,8.21829515 L31.0274054,8.21483053 L30.8152215,0.195751029 L43.745358,2.28751535 C43.745358,2.28751535 39.6214076,10.4672666 38.0290307,12.7842312 C37.9727143,12.8665159 37.5241793,13.5529438 36.6568194,14.118543 C31.1169794,17.7353897 3.51067905,32.6077041 1.92916625,33.641027 C1.31212572,32.7404424 0.0764926281,30.9373242 0.0764926281,30.9373242 C1.90078638,29.7463611 21.8806608,12.2359551 31.0316181,8.21829515" id="Path"></path>
                            </g>
                            <g id="Group" transform="translate(0.000000, 141.000000)" fill="#8BC34A" fill-rule="nonzero">
                                <path d="M2.40244297,3.64013101 C2.11361716,3.23478703 1.27790497,3.03265321 0.72550839,3.28752696 C0.322575724,2.72202582 0.214208648,2.5709098 0.200433172,2.55024436 C0.200433172,2.55024436 0.987472021,1.0115302 2.93371716,0.341840807 C4.15904572,-0.080078577 4.08764284,0.333876002 3.99741348,0.762038071 C3.90695452,1.66615104 5.44567516,4.1604265 6.43636146,3.81191248 C6.77753408,4.49021247 9.36020619,12.0638807 8.73342204,12.456524 C7.71908785,13.0932779 7.18850244,12.345232 6.82620742,11.8365608 C2.53996814,5.82937598 3.50103717,6.37808645 2.40244297,3.64013101" id="Path"></path>
                            </g>
                            <g id="Group" transform="translate(4.000000, 140.000000)" fill="#F7D3C9" fill-rule="nonzero">
                                <path d="M2.57748915,3.29228202 C3.24815179,2.43763563 2.31054096,-0.799090973 1.00552365,0.46099658 C0.705465608,0.749884747 0.371168972,0.952605328 0.0436448056,1.02743507 L0.0442091781,1.02924913 C-0.0293473693,1.98140094 1.69104809,8.93512505 3.2443893,9.058254 C3.17045651,8.15689571 1.73845538,3.96937783 2.57748915,3.29228202" id="Path"></path>
                            </g>
                            <g id="Group" transform="translate(27.000000, 77.000000)" fill="#8BC34A">
                                <path d="M13.3153056,0.182330826 L28.403389,0.182330826 C33.561206,4.15292181 38.25684,20.5772739 50.8818833,28.6731542 C40.8745865,34.9006875 33.6373759,37.4689847 24.1692926,38.1698052 C15.417292,38.8168838 10.6984198,37.8577976 0.0744484875,31.3195621 C3.57718527,29.4127037 8.15662793,23.7996122 9.00417877,16.0631717 C9.89497859,7.9326964 11.2367727,0.182330826 13.3153056,0.182330826" id="Path"></path>
                            </g>
                            <g id="Group" transform="translate(55.869069, 36.616827) scale(-1, 1) rotate(-12.468632) translate(-55.869069, -36.616827) translate(49.369069, 26.116827)" fill="#FF6F00" fill-rule="nonzero">
                                <path d="M9.73322178,1.0460748 C9.63704422,2.79196027 4.59764585,14.3069577 0.083843626,19.5402548 C1.69160079,20.3445392 7.44415243,21.6719352 9.73322178,20.4731375 C11.7385564,17.1906112 12.6950978,3.47854445 12.3415744,0.259227545 C10.5133286,-0.14400443 9.73322178,1.0460748 9.73322178,1.0460748" id="Path"></path>
                            </g>
                            <g id="Group" transform="translate(57.000000, 4.000000)" fill="#FFD8D8" fill-rule="nonzero">
                                <path d="M26.1189522,2.49320364 C25.6875548,2.06974791 24.6225149,6.33455206 24.6458933,5.94782464 C24.8633564,2.40030264 24.751096,0.0929010023 24.4736431,0.0929010023 C24.0883408,0.0929010023 23.5810739,4.63424767 23.5810739,5.83331875 C23.5810739,4.63640816 23.5188785,1.38487308 22.8051761,0.615739201 C22.5605852,0.349999125 22.3583401,4.76171649 22.3583401,5.99967636 C22.3583401,4.6472106 22.0950024,0.786417787 21.4373198,0.859874394 C20.7796373,0.931170512 21.1023031,4.96912338 21.3583626,6.29350278 C21.3583626,6.29350278 19.344513,3.82838549 19.344513,4.78116089 C19.344513,5.38393716 20.5590864,6.53979847 20.5590864,8.97682941 C20.5590864,10.6749733 21.0780425,10.828368 21.0897317,11.4700331 C19.9073588,17.821869 15.8767924,25.1804926 14.2899292,27.7536343 C11.0037219,33.0857198 2.62367264,39.8394066 0.643346763,40.5631702 C0.643346763,40.5631702 -1.32154056,46.100502 2.77386775,48.8140755 C9.34032753,43.7974214 14.7819781,37.2424995 18.2276437,31.2082553 C22.1203658,24.3940748 25.1961676,13.8854591 25.2473354,11.288552 L25.3174705,11.2561447 C25.5722067,9.13670555 26.4488963,2.81727691 26.1189522,2.49320364" id="Path"></path>
                            </g>
                            <g id="Group" transform="translate(38.000000, 41.000000)" fill="#FFECB3" fill-rule="nonzero">
                                <path d="M18.8752967,36.8389438 C19.9104264,36.8389438 20.7580433,36.9912068 20.2822773,32.4102658 C19.8054531,27.8293249 19.312121,26.3393227 20.0693678,23.84656 C20.8266146,21.3581477 22.8458688,19.0219983 23.401423,15.8571032 C22.9971912,12.6421789 20.3224889,6.778966 19.6147658,3.92512246 C18.9081009,1.07171396 11.6897062,0.138124287 7.24760093,0.138124287 C2.80528399,0.138124287 1.44295936,4.80716023 0.887405189,9.52818312 C0.332274302,14.249641 -0.878939602,37.2761561 2.34708408,36.9216008 C6.73141174,36.4365344 18.8752967,36.8389438 18.8752967,36.8389438" id="Path"></path>
                            </g>
                            <g id="Group" transform="translate(26.000000, 0.000000)" fill="#FFD8D8" fill-rule="nonzero">
                                <path d="M17.5127213,42.5285684 C12.6982209,39.4523411 9.71445021,35.7674368 6.98913793,31.6687198 C4.74930552,28.3034804 4.07246091,15.735833 4.07246091,11.479473 C4.07246091,11.3699987 4.07056204,11.2714719 4.06824118,11.1707556 L4.06908513,11.1685661 C4.68622057,9.10388114 6.57243964,3.69804119 6.31967785,3.31488121 C5.98779612,2.81567849 4.28408035,6.13712815 4.38176708,5.75834714 C5.14005247,2.82443643 6.24203482,1.21297502 5.54936623,0.700635393 C5.24828853,0.479497347 3.61377632,4.25636002 3.40089097,5.45181916 C3.61314336,4.2585495 4.63811565,0.836383501 3.93911746,0.10947428 C3.75619219,-0.197053704 2.43984758,4.16440162 2.22084362,5.39489253 C2.46094623,4.04835888 3.2116361,0.284633129 2.57973161,0.107284795 C1.9685038,-0.0634950825 1.22773029,4.01770608 1.22773029,5.50874578 C0.932349227,5.50874578 1.4100226,3.95202152 0.843734908,3.36304989 C0.376610855,2.87917357 -0.288207523,4.98326924 0.23271808,7.79675824 C0.548986804,9.50455701 0.715244146,10.5073414 0.597935666,11.1663766 C-0.157606896,19.4426322 0.519870671,32.6342829 1.79549489,35.0996437 C4.55920671,41.2323929 10.8476586,48.6459912 13.1218818,50.6844023 C19.2542036,56.1778216 22.5987612,45.777765 17.5127213,42.5285684" id="Path"></path>
                            </g>
                            <g id="Group" transform="translate(43.000000, 22.000000)" fill="#FFD8D8" fill-rule="nonzero">
                                <path d="M9.11648515,19.8227899 C8.4632769,20.4188378 2.85196818,20.4671093 1.79110663,19.0945202 C1.79110663,17.4197095 1.66064841,15.9211948 1.21676944,14.0868784 C0.803154959,12.3805863 -0.424390473,10.5210848 0.272838824,6.5418355 C0.970068122,2.56258619 3.75738038,-0.881479278 8.53091342,0.308517747 C12.7413438,1.3599966 12.2412921,8.64269444 12.0652079,10.8400964 C11.798101,14.1624337 11.2648043,16.0009477 7.81901043,15.7763803 C7.81901043,18.02835 9.11648515,19.8227899 9.11648515,19.8227899" id="Path"></path>
                            </g>
                            <g id="Group" transform="translate(38.000000, 19.000000)" fill="#FF6F00" fill-rule="nonzero">
                                <path d="M12.5290222,6.5869368 C12.5290222,9.27991458 11.039408,15.058958 6.34716814,15.3304276 C7.16055823,18.7118521 7.69537171,25.7439989 13.5034818,32.6328099 C9.98631248,33.7708101 3.7479389,31.998657 0.586418287,27.2555413 C-0.45684777,25.6918768 0.550227901,15.6670498 1.16903882,10.9803997 C1.96813147,4.91902797 6.30986077,-0.779660504 12.8107264,0.360511542 C19.3109217,1.49851183 19.7110266,6.65426124 18.3512063,7.56205536 C16.3868726,8.86945265 13.9706059,7.9877196 12.5290222,6.5869368" id="Path"></path>
                            </g>
                        </g>
                        <path d="M305.144037,106.129762 C302.9369,106.129762 301.15119,107.920233 301.15119,110.12499 C301.15119,112.329746 302.9369,114.117837 305.144037,114.117837 C307.348794,114.117837 309.136884,112.329746 309.136884,110.12499 C309.136884,107.920233 307.348794,106.129762 305.144037,106.129762" id="Path" fill="#FFC107" fill-rule="nonzero" transform="translate(305.144037, 110.123799) scale(-1, 1) rotate(90.000000) translate(-305.144037, -110.123799) "></path>
                    </g>
                </g>
            </g>
        </g>
    </g>
</svg>