<?xml version="1.0" encoding="UTF-8"?>
<svg width="583px" height="425px" viewBox="0 0 583 425" version="1.1" xmlns="http://www.w3.org/2000/svg" xmlns:xlink="http://www.w3.org/1999/xlink">
    <!-- Generator: Sketch 64 (93537) - https://sketch.com -->
    <title>Feature2</title>
    <desc>Created with Sketch.</desc>
    <g id="Landing" stroke="none" stroke-width="1" fill="none" fill-rule="evenodd">
        <g transform="translate(-751.000000, -1832.000000)" id="Feature">
            <g transform="translate(-66.000000, 1216.000000)">
                <g id="Feature-2" transform="translate(178.000000, 616.000000)">
                    <g id="Feature2" transform="translate(639.000000, 0.000000)">
                        <g id="Group" transform="translate(417.500000, 403.500000) scale(-1, 1) rotate(-90.000000) translate(-417.500000, -403.500000) translate(396.000000, 308.000000)" fill="#DCEDC8">
                            <path d="M21.4717161,0.195327635 C33.3225586,0.195327635 42.9275606,42.8209177 42.9275606,95.4021707 C42.9275606,147.983687 33.3225586,190.608751 21.4717161,190.608751 C9.62351895,190.608751 0.015871664,147.983687 0.015871664,95.4021707 C0.015871664,42.8209177 9.62351895,0.195327635 21.4717161,0.195327635" id="Path"></path>
                        </g>
                        <g id="Group" transform="translate(0.000000, 97.000000)" fill="#DCEDC8">
                            <path d="M310.304868,41.4887868 C275.324437,41.7570163 241.712292,33.8258392 209.575904,24.9866265 C177.436896,16.1474137 145.561846,6.20740834 111.288362,2.15004323 C89.2272302,-0.464142161 64.1204809,-0.0525940126 46.7809864,10.0862168 C30.0941803,19.8379356 25.1549801,35.8244117 22.7174901,50.5770322 C20.8831472,61.6769986 19.9882563,73.3239426 26.4454159,83.4219931 C30.9049295,90.4301452 38.608226,96.1865599 44.0467722,102.86074 C62.9634661,126.091515 51.2308014,155.985952 32.4721681,179.997749 C23.6766014,191.263386 13.387715,202.071456 6.71299252,213.965592 C0.0380079623,225.859728 -2.77012514,239.310646 3.85033765,250.968109 C10.4162787,262.515125 25.3775233,270.8092 41.4708809,276.486724 C74.1671649,287.946959 112.277093,290.22691 149.383612,290.952707 C231.526158,292.564714 313.882859,287.662952 396.016755,282.769079 C426.410019,280.951956 456.939587,279.126944 486.732587,274.261997 C503.277846,271.558665 520.313277,267.595706 532.093124,259.078106 C547.047291,248.264777 550.226854,230.750971 539.508608,218.241485 C521.52691,197.264363 473.749591,193.59856 460.895036,170.856909 C453.820313,158.336905 460.119149,143.8867 469.301349,131.711186 C489.047141,105.600888 522.871606,82.1097724 523.686811,53.0305429 C524.229408,33.0658557 506.876807,13.7073145 480.829557,5.20075893 C453.513628,-3.72760064 416.163596,-1.14339383 396.85293,15.9194187 C376.960349,33.4892375 341.193546,41.2547435 310.304868,41.4887868" id="Path"></path>
                        </g>
                        <g id="Group-11" transform="translate(414.000000, 0.000000)" fill-rule="nonzero">
                            <g id="Group" transform="translate(0.000000, 43.000000)" fill="#8BC34A">
                                <path d="M32.3241389,43.427518 C40.4876948,22.4875026 27.0401016,6.20846591 0.925847068,0.243365515 C-2.60310625,20.5961293 7.51143752,45.1363672 32.3241389,43.427518" id="Path"></path>
                            </g>
                            <g id="Group" transform="translate(20.000000, 0.000000)" fill="#558B2F">
                                <path d="M27.0631136,99.5516468 C-9.28861103,77.3907119 -7.85118314,38.1436857 24.4416078,0.196091331 C53.1794983,26.6265882 66.2603588,74.4859456 27.0631136,99.5516468" id="Path"></path>
                            </g>
                            <g id="Group" transform="translate(43.000000, 7.000000)" fill="#8BC34A">
                                <path d="M5.2946376,92.5484378 C5.32281556,91.7367919 5.33126894,90.8653132 5.33126894,89.9366031 C5.33126894,82.4600961 4.49156591,71.3181758 3.66313405,58.9717938 C2.82343102,46.6280132 1.99218137,33.0901768 1.99218137,20.8842719 C1.99218137,13.6470965 2.29086768,6.87557682 3.03758347,1.11601304 C3.10239276,0.642552961 2.73889715,0.213317177 2.22605839,0.158687168 C1.71321962,0.101455731 1.25673676,0.43704007 1.19192746,0.907898718 C0.425487109,6.77412109 0.126800794,13.6028722 0.126800794,20.8842719 C0.126800794,33.1604153 0.966503831,46.7268675 1.79775348,59.0784524 C2.63745652,71.4274358 3.46588837,82.5693562 3.46588837,89.9366031 C3.46588837,90.8497046 3.45743499,91.7055748 3.42925703,92.4938077 C3.41235026,92.9698693 3.81247721,93.3678879 4.33376936,93.3838274 C4.84660813,93.3965036 5.27491303,93.0244993 5.2946376,92.5484378" id="Path"></path>
                            </g>
                            <g id="Group" transform="translate(39.000000, 41.000000)" fill="#8BC34A">
                                <path d="M5.14408682,75.2432924 C-1.28209692,67.2556593 -1.66149295,50.3823127 5.26444694,43.3587954 C12.2008529,36.335278 20.5580316,41.0105791 23.2242699,36.1477377 C25.9009743,31.2822549 22.4445456,19.7762596 28.619543,15.3915139 C39.5906295,7.59934537 49.4627758,27.8853977 58.1574861,22.982935 C66.8495799,18.077831 60.6431842,7.10804254 68.0113167,1.24146414 C75.3899153,-4.62511427 82.5670415,12.5652019 93.7212847,9.49323853 C104.865062,6.42127515 129.821471,4.22361948 129.685966,18.7513913 C129.570284,30.2336139 116.218161,24.0157275 113.16991,27.8721906 C109.697782,32.2701433 114.868034,37.4525958 109.948969,41.4411295 C103.004713,47.0752635 93.5041132,39.5842161 88.5955136,45.1655219 C83.6842974,50.7468277 89.7807991,58.697481 80.2645001,61.3230456 C68.4796746,64.5693422 63.8379604,45.6964459 52.173495,56.5817091 C40.50118,67.4643309 59.758799,75.7847821 53.5236215,83.5373294 C46.7258914,91.9977754 32.5338634,77.8662156 29.4071169,84.5806876 C25.1657309,93.7120525 15.1182775,87.634161 5.14408682,75.2432924" id="Path"></path>
                            </g>
                            <g id="Group" transform="translate(42.000000, 59.000000)" fill="#558B2F">
                                <path d="M1.63288792,55.3355699 C2.21306192,54.713348 2.68297661,53.8722937 3.20539573,52.9073224 C3.97721092,51.4651384 4.83828365,49.748755 5.91462456,48.306571 C6.99359069,46.859114 8.26944845,45.7254045 9.84195627,45.2956495 C12.1784036,44.6523353 14.7511209,44.4704144 17.392094,44.1197554 C20.033067,43.7664599 22.7527967,43.2365166 25.3517663,41.8022423 C31.0064939,38.6779498 33.7708524,34.2353905 35.8710297,30.2225862 C36.9237437,28.2135475 37.8268199,26.304697 38.8270294,24.6937749 C39.8351146,23.0775797 40.929832,21.7777686 42.3710787,20.8839837 C43.3082829,20.3065828 44.0748477,20.124662 44.8466628,20.1193889 C45.9335046,20.1141158 47.0886022,20.5385978 48.4694688,21.0263565 C49.8503355,21.5062056 51.4595964,22.0282393 53.4127614,22.0282393 C54.3867186,22.0282393 55.4394325,21.8990492 56.5866544,21.5853017 C58.4006826,21.0896333 59.6529134,20.4094076 60.5743662,19.6263571 C61.2674248,19.0410466 61.7714673,18.4135516 62.2230055,17.8150584 C62.9029379,16.9133639 63.448984,16.0934019 64.3783125,15.3288071 C65.3155167,14.5668489 66.6465041,13.8233463 68.930447,13.1958513 C70.1643012,12.8557385 71.1907629,12.7291849 72.0859635,12.7291849 C73.8054838,12.7291849 75.0813415,13.1984879 76.5514657,13.7284311 C78.0005881,14.2531013 79.6361012,14.8331388 81.8150353,14.8305022 C82.8152447,14.8305022 83.9178379,14.7144948 85.1779443,14.4323856 C91.2605831,13.0772073 94.8571368,10.0320108 97.3510975,7.29001577 C98.600703,5.91901823 99.5930368,4.62975323 100.477737,3.67269149 C100.929275,3.19284235 101.346685,2.79999882 101.737843,2.51525318 C102.136877,2.23050754 102.501783,2.05385978 102.877189,1.97212723 C103.344479,1.86930242 103.769765,1.82711788 104.153047,1.82711788 C105.274017,1.82975441 106.072084,2.1804134 106.61288,2.52843585 C106.880652,2.69981054 107.080169,2.87382177 107.203555,2.99773885 L107.342691,3.13747514 L107.368944,3.16647701 L107.368944,3.17175008 L107.741725,2.87118523 L107.358443,3.16384048 L107.368944,3.17175008 L107.741725,2.87118523 L107.358443,3.16384048 C107.655093,3.54613787 108.201139,3.61996081 108.584421,3.32730557 C108.957203,3.03201379 109.035959,2.48625131 108.741935,2.10395392 C108.697306,2.04595017 108.314023,1.5555549 107.55796,1.06252309 C106.801896,0.569491286 105.646798,0.0817325457 104.153047,0.0817325457 C103.641129,0.0817325457 103.092457,0.139736288 102.501783,0.268926441 C101.850728,0.411299262 101.260053,0.711864107 100.729758,1.09679803 C99.7925537,1.77702373 98.9839854,2.70772014 98.1071613,3.74915096 C96.7866748,5.30997893 95.3165506,7.13446028 93.2505011,8.77702079 C91.1818264,10.4195813 88.5329777,11.8907671 84.7972872,12.7291849 C83.6500653,12.9849286 82.676108,13.0851169 81.8150353,13.0851169 C79.9380017,13.0851169 78.591263,12.6105408 77.1342649,12.0858706 C75.690393,11.5638369 74.1362617,10.981163 72.0859635,10.9837995 C71.0253739,10.981163 69.8335233,11.1367185 68.4710332,11.5111063 C66.2973496,12.1095994 64.7957228,12.8478289 63.6826288,13.6677909 C62.8504335,14.2847398 62.241382,14.9412367 61.7373395,15.5687317 C60.9891513,16.5126108 60.4693574,17.3563015 59.7211692,18.0576195 C58.9651053,18.7589375 57.9675211,19.3943421 56.1246154,19.9031931 C55.1244059,20.1773926 54.2397062,20.282854 53.4127614,20.282854 C51.7719978,20.282854 50.3990068,19.8504625 49.0443924,19.3758864 C47.6976536,18.9118564 46.3666662,18.3819132 44.8466628,18.3766401 C43.7703219,18.371367 42.6231,18.6692953 41.4601268,19.3969787 C39.6959778,20.4885036 38.4358714,22.0361489 37.3490296,23.7683516 C35.7345182,26.3732469 34.500664,29.4289895 32.665634,32.3581785 C30.8332292,35.290004 28.4442775,38.0926393 24.5090701,40.2730527 C22.2146263,41.543862 19.7390422,42.0474399 17.1663249,42.3901893 C14.6041085,42.7329387 11.9526345,42.9095865 9.38254247,43.6109044 C7.98329929,43.9958384 6.81770084,44.7788889 5.8463688,45.728041 C4.39462118,47.1544058 3.35240815,48.9577948 2.48345976,50.5634439 C2.04767295,51.3649501 1.6670158,52.1189988 1.30998564,52.7464938 C0.963456376,53.3713523 0.632678437,53.8696572 0.372781486,54.1333106 C0.0420035477,54.481333 0.0603800998,55.0350051 0.406909368,55.3672083 C0.753438637,55.6994116 1.30210998,55.6862289 1.63288792,55.3355699" id="Path"></path>
                            </g>
                            <g id="Group" transform="translate(88.000000, 16.000000)" fill="#FFC107">
                                <path d="M8.35510398,39.857515 C8.26906502,39.7005236 8.20310182,39.5304495 8.12853472,39.3708415 C8.28053688,39.5696973 8.42967108,39.7790193 8.59314511,39.9726421 C8.67918407,40.07207 8.74514727,40.1845806 8.79103472,40.3023241 C8.6103529,40.1924301 8.45835073,40.0537543 8.35510398,39.857515 Z M13.1661994,46.4537728 C12.71817,46.0220463 12.6648331,45.2737204 13.0435247,44.7242503 L14.1822663,43.0836895 C14.5262889,42.5787003 14.5182884,41.9088701 14.1475973,41.4588279 C13.7502379,40.9616883 13.3715463,40.4488495 13.0168563,39.9046124 C12.8595126,39.6638922 12.6194968,39.4990512 12.36348,39.4310215 L7.58983261,38.1593907 C7.5444963,38.0468802 7.49115945,37.9396027 7.44848998,37.8244756 C7.17380524,37.118014 6.92578893,36.408936 6.7337763,35.6920083 C6.54709735,35.0640425 6.84845051,34.3654305 7.42982209,34.0802293 L9.13393419,33.2272424 C9.67263629,32.9629734 9.97132261,32.3585563 9.86731576,31.7567557 C9.75264155,31.0921585 9.68063682,30.4275614 9.62729997,29.7551146 C9.59263103,29.2213436 9.25660892,28.7870006 8.78991156,28.664024 L5.91238893,27.8973823 C5.79771472,27.6932934 5.72570999,27.4578062 5.73637735,27.1935373 C5.79771472,25.6497879 6.00039472,24.1086551 6.32574946,22.5936875 C6.41642209,22.1698106 6.68843998,21.8270459 7.03246261,21.6543553 C7.22714209,21.5601604 7.43782261,21.5156795 7.65116998,21.5366117 L9.48595734,21.6988362 C9.69930471,21.7197684 9.90998524,21.6752875 10.0966642,21.5810926 C10.403351,21.4293342 10.6593679,21.1415165 10.7767089,20.7804362 C10.99539,20.1315381 11.2434063,19.4878732 11.5154242,18.8599073 C11.75544,18.2999711 11.6220979,17.64584 11.1714015,17.3004588 L9.71530576,16.1622707 C9.2299405,15.7881078 9.10726577,15.0476314 9.43528734,14.471996 C10.1740026,13.1846661 11.0220584,11.9653657 11.9501194,10.8245611 C13.139531,11.1411606 14.3316094,11.45776 15.5236879,11.7743595 C15.7877052,11.8450056 16.06239,11.8136073 16.3184068,11.6853976 C16.433081,11.6304506 16.5397547,11.5519549 16.635761,11.45776 C17.1211263,10.9972517 17.6251594,10.5576756 18.1451936,10.1468813 C18.6225584,9.77010182 18.8065705,9.11335422 18.5852226,8.55341801 L17.8971773,6.75324928 C17.6678289,6.14883216 17.8971773,5.42405492 18.4545473,5.08913981 C19.0705878,4.69927768 19.7239642,4.34343038 20.3960084,4.00851526 C21.0573852,3.67621667 21.7294294,3.3779329 22.4174747,3.11628047 C22.6468231,3.02731864 22.884172,3.01685254 23.0975194,3.07441608 C21.2333968,2.57989298 19.371941,2.08536989 17.5104852,1.58823026 C17.2971378,1.53066673 17.0597889,1.54113283 16.8304405,1.63009465 C16.1423952,1.89174709 15.470351,2.19003086 14.8089742,2.52232945 C14.13693,2.85462804 13.4862205,3.21309187 12.8675131,3.60295399 C12.3101431,3.93786911 12.0807947,4.66264634 12.3101431,5.26706346 L13.0088558,7.0672322 C13.2195363,7.6271684 13.0355242,8.28391601 12.5581594,8.65807898 C12.126131,8.99561062 11.7287715,9.36192403 11.3314121,9.73347048 C10.1126652,9.41163799 8.90458577,9.08718897 7.6965063,8.76535648 C7.42982209,8.69471032 7.14713682,8.72610862 6.89111998,8.84908526 C6.74177682,8.92758099 6.60043419,9.04270806 6.47775946,9.18923342 C5.49636156,10.3719024 4.61363683,11.6435332 3.84825315,12.9831937 C3.52023157,13.5614456 3.64290631,14.3019219 4.12827157,14.6760849 L5.5870342,15.8116565 C6.03506367,16.1596542 6.16840577,16.8137853 5.93105683,17.3737215 C5.65637209,18.0016873 5.40835578,18.6453523 5.19767525,19.2968669 C5.07500051,19.6553307 4.8269842,19.9405319 4.51763051,20.0949068 C4.32295104,20.1864852 4.12027104,20.2335826 3.89892315,20.2100339 L2.07213631,20.0504259 C1.85345526,20.0294937 1.64010789,20.0739746 1.45609579,20.1681695 C1.10140579,20.3408601 0.829387893,20.6810082 0.741382103,21.1075017 C0.413360525,22.6224693 0.218681052,24.1636021 0.149343158,25.7047349 C0.122674737,26.303919 0.485365262,26.8062917 0.997398945,26.942351 L3.8642542,27.7063761 C3.96292736,27.8738336 4.03226525,28.0596068 4.05093315,28.2663123 C4.09360262,28.938759 4.17360788,29.6059727 4.28828209,30.2705699 C4.38428841,30.869754 4.08560209,31.4794041 3.54689999,31.7410566 L1.84278789,32.5940435 C1.26941684,32.8792446 0.960063155,33.5752401 1.1467421,34.2032059 C1.3494221,34.9227501 1.58677105,35.6292117 1.86145578,36.3382898 C2.12547315,37.0369018 2.42682631,37.7171981 2.75218105,38.3713292 C2.9015242,38.6853121 3.16820841,38.8920175 3.46689473,38.9705133 L8.78191103,40.3860529 C8.90458577,40.7785316 8.85124892,41.2311903 8.59523208,41.6001202 L7.45649051,43.2354479 C7.07779893,43.784918 7.1204684,44.5358605 7.58983261,44.967587 C8.62990103,45.9592497 9.76064208,46.8384019 10.960721,47.5867279 C11.0487268,47.6469079 11.1554005,47.6887723 11.2514068,47.7149376 C13.1155294,48.2120772 14.9769852,48.7066003 16.838441,49.2037399 C16.7424347,49.1749581 16.635761,49.1330937 16.5477552,49.0729137 C15.3476763,48.3245877 14.2089347,47.4480521 13.1661994,46.4537728 Z M22.5401494,4.32249818 C22.4254752,4.38006172 22.3028005,4.42192611 22.1694584,4.43762525 C21.5427505,4.53182013 20.9240431,4.6469472 20.3000021,4.80655518 C20.1053226,4.85365262 19.9186436,4.85103609 19.7426321,4.80393866 L25.3296662,6.29012447 C25.5056778,6.33722191 25.6923568,6.33983843 25.8843694,6.29535752 C26.5110773,6.13313301 27.1297847,6.01800594 27.7564926,5.92642759 C27.8898347,5.90811192 28.0125094,5.86886406 28.1271836,5.808684 C28.5165426,5.61767772 28.7992278,5.21996602 28.8605652,4.7437586 L29.116582,2.76304968 C29.1779194,2.28684226 29.4686052,1.88651404 29.8472968,1.69289124 C30.0073073,1.61701203 30.1753183,1.57253112 30.3593304,1.57253112 C31.7887578,1.55421545 33.2101847,1.68504166 34.588942,1.95454367 L34.6662804,1.97024282 C32.8048247,1.47571972 30.9433689,0.978580097 29.0792462,0.484057 L29.0019078,0.465741329 C27.6231505,0.196239324 26.2043905,0.0680296324 24.7722963,0.0863453027 C24.5962847,0.0863453027 24.4202731,0.130826216 24.2602626,0.209321946 C23.881571,0.400328221 23.5908852,0.800656443 23.5295478,1.27424735 L23.273531,3.25757278 C23.2121936,3.73378021 22.9295084,4.12887538 22.5401494,4.32249818 Z M32.698151,35.8856311 C37.375792,33.5569244 39.6266067,27.6802108 37.7198146,22.755912 C36.6450773,19.950998 34.4475994,18.0592509 31.8954315,17.3789546 L26.3083973,15.8927687 C28.8605652,16.5730651 31.0580431,18.4648121 32.1434478,21.2697262 C34.0395725,26.194025 31.7887578,32.0681221 27.1111168,34.3968287 C25.0923173,35.4015741 22.9561768,35.5821143 21.0147157,35.0692755 L26.5990831,36.5554613 C28.543211,37.0683001 30.6766847,36.8903764 32.698151,35.8856311 Z M23.0095136,50.6035804 L23.2548631,48.6150219 C23.3348684,48.0027552 23.0095136,47.4480521 22.478812,47.2727449 C21.8867731,47.0738891 21.3054015,46.8462515 20.740031,46.5924486 L20.5533521,46.524419 L14.9663179,45.0382332 L15.1529968,45.1036463 C15.7183673,45.3600657 16.2997389,45.5877033 16.8917779,45.7839426 C17.4224794,45.9618663 17.7558347,46.5165694 17.6678289,47.1314526 L17.4224794,49.1173946 C17.3424742,49.758443 17.7024978,50.3393114 18.2598678,50.4858368 L23.846902,51.9720226 C23.289532,51.8254973 22.918841,51.2446289 23.0095136,50.6035804 Z M33.1568478,5.84008229 C32.900831,5.96567546 32.6208125,5.99969027 32.3541283,5.92642759 C34.218251,6.42356721 36.0797067,6.91809031 37.9411625,7.41522993 C38.2051799,7.48587609 38.4878652,7.45186127 38.743882,7.3262681 C38.930561,7.23207323 39.1065725,7.08554787 39.2399146,6.89192507 L40.3679888,5.25659736 C40.5093315,5.06035804 40.6773425,4.91121615 40.872022,4.81702128 C41.1280388,4.69142811 41.4000567,4.65741329 41.6667409,4.72805945 C39.8052852,4.23353635 37.9411625,3.73639673 36.0797067,3.24187364 C35.8156894,3.17122748 35.5410046,3.2052423 35.2849878,3.33083546 C35.1009757,3.42764686 34.9222973,3.57417223 34.791622,3.76779502 L33.6528804,5.40312273 C33.5195383,5.59936205 33.3515273,5.74588741 33.1568478,5.84008229 Z M34.6502794,50.1483052 L33.9515668,48.3481364 C33.8102241,47.9870561 33.5275389,47.7411028 33.1941836,47.652141 C31.330061,47.1550013 29.4686052,46.6604782 27.6071494,46.1633386 C27.9431715,46.254917 28.2231899,46.5008703 28.3645326,46.8619506 L29.0632452,48.6595028 C29.2045878,49.0310493 29.4952736,49.2822356 29.8312957,49.373814 L35.4183299,50.8599998 C35.0743073,50.771038 34.791622,50.5172351 34.6502794,50.1483052 Z M40.5546678,13.0172085 L46.141702,14.5033943 C46.3977188,14.571424 46.6804041,14.5478752 46.9364209,14.417049 L48.6565341,13.5614456 C48.9125509,13.4332359 49.1952362,13.4070706 49.451253,13.4777168 C47.5897972,12.9805772 45.7256746,12.4860541 43.8642188,11.991531 C43.608202,11.9208848 43.3335173,11.9444335 43.0694999,12.0752598 L41.3573873,12.9308632 C41.0933699,13.0616894 40.8106846,13.0852381 40.5546678,13.0172085 Z M43.3788536,42.3562957 C43.2561788,42.2647174 43.1228367,42.2019208 42.9894946,42.1652895 C41.1280388,41.6707664 39.2665831,41.1736267 37.4024604,40.6791036 C37.5438031,40.715735 37.6664778,40.7785316 37.7918194,40.8701099 L39.2479152,42.008298 C39.3625894,42.0998764 39.4959315,42.1626729 39.6372741,42.1993043 C39.8052852,42.2437852 40.0239662,42.3039653 40.1919773,42.3458296 C40.9413599,42.5446855 41.682742,42.7435413 42.4241241,42.9423972 C42.5121299,42.9633294 42.6188036,42.9947277 42.7068094,43.0156599 C43.5468646,43.2380644 44.384253,43.460469 45.2243083,43.6854901 C45.0829657,43.6488588 44.9496236,43.5860622 44.8349494,43.4944838 L43.3788536,42.3562957 Z M46.3257141,24.0144602 L46.1497025,23.9804454 L44.3229157,23.8208374 L44.1389036,23.7894391 C46.0003594,24.2839622 47.8618151,24.7784853 49.7232709,25.275625 L49.9099499,25.3070233 L51.7367367,25.4692478 L51.9127483,25.5006461 L46.3257141,24.0144602 Z" id="Shape"></path>
                            </g>
                            <g id="Group" transform="translate(94.000000, 17.000000)" fill="#FF6F00">
                                <path d="M26.5332454,35.1783141 C31.1134356,32.8048247 33.3173584,26.8177641 31.4502911,21.7987673 C29.593669,16.7771036 24.3737145,14.6276289 19.7935243,16.9984515 C15.2133341,19.371941 13.0015775,25.3723357 14.8660335,30.3913326 C16.7252669,35.4156631 21.9530552,37.5518036 26.5332454,35.1783141 Z M43.6449822,12.9501852 C43.9557249,13.6195626 44.2507998,14.3076079 44.5171507,15.0303221 C44.7861128,15.7423689 45.0106831,16.4704168 45.2169745,17.1957978 C45.3919304,17.8411736 45.0890216,18.5532205 44.5354297,18.8385726 L42.8511522,19.7106299 C42.3393407,19.9773142 42.0468771,20.6013552 42.1408832,21.2067284 C42.2453346,21.8894399 42.323673,22.564151 42.3758987,23.2468626 C42.4176792,23.8682368 42.8328732,24.3429347 43.3864652,24.3989384 L45.175194,24.5616157 C45.7705665,24.6229531 46.2118733,25.1803231 46.1857604,25.8657015 C46.1178671,27.4418052 45.9272434,29.0099083 45.6165008,30.5460094 C45.5303284,30.9780378 45.2535324,31.3273941 44.916677,31.5034057 C44.7260533,31.599412 44.5171507,31.6474152 44.3030255,31.6260804 L42.5221305,31.4607362 C42.3053941,31.4394015 42.0991027,31.4847378 41.9163129,31.5807441 C41.6160154,31.7380878 41.3653322,32.0314404 41.2504358,32.4021315 C41.0363106,33.0608415 40.7934613,33.711551 40.5349443,34.3515931 C40.292095,34.927631 40.4226591,35.5916746 40.8639659,35.9463646 L42.2897264,37.106441 C42.7649799,37.4931331 42.8929327,38.2451825 42.5665224,38.8345546 C41.8118616,40.1919773 40.9579721,41.4880625 39.9996313,42.7014757 C39.876901,42.848152 39.738503,42.9628262 39.5844373,43.0401646 C39.20319,43.2375109 38.7540493,43.2081757 38.4171938,42.9334909 L36.9914334,41.7760815 C36.646744,41.5040636 36.2132711,41.4747283 35.8241899,41.6720746 C35.7197386,41.7280783 35.6074535,41.8080836 35.5056134,41.9067567 C35.0381938,42.3761209 34.5446613,42.8188167 34.0354612,43.2428446 C33.5784867,43.624203 33.3956969,44.2935804 33.6019882,44.8562841 L34.2861443,46.6910715 C34.5107146,47.307112 34.2783105,48.0458272 33.7429975,48.3925167 C33.1189009,48.7872093 32.4869704,49.1605672 31.8393723,49.4965893 C31.1839402,49.8379451 30.525897,50.1339646 29.8626311,50.4033157 C29.2829263,50.6326641 28.6692748,50.3339778 28.4447045,49.7179372 L27.7605484,47.8831499 C27.5464232,47.3204462 27.0084989,47.0270936 26.4575182,47.171103 C25.8438667,47.3257799 25.2380491,47.4511215 24.6243976,47.5444609 C24.4938335,47.5631288 24.3737145,47.6031315 24.2614293,47.661802 C23.8906271,47.8591483 23.603386,48.2618415 23.5433265,48.7392062 L23.2926434,50.768673 C23.2325839,51.2513714 22.947954,51.6593983 22.5667067,51.8540778 C22.4204749,51.934083 22.2559641,51.9794193 22.0836194,51.9794193 C20.6839718,51.9900867 19.292158,51.8567446 17.9342909,51.5927272 C17.3467522,51.4753862 16.9576711,50.8620125 17.0464547,50.1819678 L17.2866927,48.1551678 C17.3650312,47.5311267 17.0464547,46.9657562 16.5268094,46.7844109 C15.9471046,46.5843978 15.3778449,46.3523825 14.824253,46.0936988 C14.5135103,45.9416888 14.1662097,45.955023 13.8659121,46.1123667 C13.6752885,46.208373 13.5107777,46.3550494 13.3802135,46.5497288 L12.2651957,48.2218388 C12.1372429,48.4191851 11.972732,48.5685283 11.7821084,48.6645346 C11.4452529,48.8405462 11.0483379,48.8378793 10.7193163,48.6218651 C9.54423896,47.8591483 8.42922116,46.9657562 7.40820955,45.9523562 C6.96951403,45.5123272 6.91728837,44.7496104 7.28809054,44.1895736 L8.40310833,42.5174636 C8.73996383,42.002763 8.73212998,41.3200515 8.36916166,40.8613546 C7.98008051,40.3546546 7.60927834,39.8319536 7.26197771,39.2772504 C6.95123505,38.7838846 6.3636964,38.6132067 5.83621725,38.8852246 L4.16760749,39.7519483 C3.59834782,40.0426341 2.95858351,39.8212862 2.68178753,39.2292473 C2.36321101,38.5625367 2.06813605,37.8718246 1.80961904,37.157111 C1.5406569,36.4343967 1.2978076,35.7143494 1.10979523,34.9836346 C0.927005425,34.3435925 1.22208039,33.6315457 1.79134006,33.3408599 L3.45994983,32.4714694 C3.98742897,32.2021183 4.27989265,31.5860778 4.17805262,30.9727041 C4.06576746,30.2953262 3.99526282,29.6152815 3.94303716,28.9325699 C3.90909048,28.3191962 3.4938965,27.833831 2.94030453,27.7858278 L1.1437419,27.6151499 C0.548369406,27.5618131 0.0992287497,27.0017762 0.133175427,26.3217315 C0.193234934,24.7482947 0.391692433,23.1775247 0.710268946,21.6334231 C0.799052564,21.2013947 1.06540342,20.8520384 1.40225891,20.6760268 C1.59288256,20.5800205 1.79917391,20.5346842 2.00807654,20.5560189 L3.80463917,20.7213631 C4.0135418,20.7426978 4.21983315,20.6973615 4.40262295,20.6013552 C4.70292048,20.4466784 4.95360364,20.1533257 5.06850009,19.7853015 C5.28262528,19.1212578 5.52547459,18.4678815 5.79182545,17.8278394 C6.02684091,17.2571352 5.89627676,16.5904247 5.45496995,16.2384015 L4.0292095,15.0783252 C3.55395601,14.6969668 3.433837,13.9422505 3.75502479,13.3555452 C4.50446298,11.9874552 5.36879762,10.69137 6.32974972,9.48595734 C6.44986873,9.33661419 6.58826673,9.21927313 6.73449857,9.14193471 C7.11574587,8.94725524 7.56488653,8.9765905 7.90174202,9.25394208 L9.33533632,10.403351 C9.67219182,10.6833694 10.1134986,10.7127047 10.4947459,10.5153584 C10.6070311,10.4593547 10.7114824,10.3793494 10.8054886,10.2833431 C11.2807421,9.81397892 11.7742745,9.36594945 12.2834747,8.94725524 C12.7508943,8.56322998 12.9310729,7.89385261 12.7143364,7.3231484 L12.0406254,5.48836104 C11.8160551,4.87232051 12.0406254,4.13360525 12.5863835,3.79224946 C13.1895899,3.39488999 13.8293542,3.03219947 14.4873975,2.69084368 C15.1349956,2.35215473 15.7930389,2.04813473 16.4667499,1.78145052 C17.0360096,1.54676842 17.6574949,1.84545473 17.8846765,2.46149526 L18.5662213,4.29628262 C18.7725127,4.86698683 19.3182708,5.16033946 19.8614176,5.01899683 C20.4750691,4.85631946 21.0808868,4.73897841 21.6945382,4.64563894 C21.8251024,4.62697104 21.9452214,4.58430157 22.0575066,4.52563104 C22.4387539,4.33095157 22.7155498,3.92559157 22.7756093,3.44022631 L23.0262925,1.41876 C23.086352,0.936061577 23.3709818,0.528034735 23.741784,0.33068842 C23.898461,0.253349999 24.0629718,0.208013684 24.2431503,0.208013684 C25.642798,0.189345789 27.0346117,0.320021052 28.384645,0.594705788 C28.9800175,0.71204684 29.3612648,1.32808736 29.2724812,2.00013157 L29.0322431,4.02693157 C28.9460708,4.65097262 29.2724812,5.21634314 29.7999603,5.39235472 C30.3718313,5.59770156 30.9410909,5.83238367 31.4946829,6.09906788 C31.8054256,6.24307735 32.1501149,6.22974314 32.4530237,6.07239946 C32.6358135,5.97639314 32.8081582,5.82704998 32.9387223,5.62970367 L34.043295,3.96292736 C34.181693,3.7629142 34.3462038,3.6109042 34.5368275,3.51489789 C34.8815168,3.33888631 35.2810431,3.33888631 35.6074535,3.55756736 C36.7746969,4.33095157 37.8818809,5.22701051 38.9107263,6.23507683 C39.3494218,6.66977209 39.3938136,7.43515577 39.0308453,7.98985893 L37.9236614,9.66730261 C37.578972,10.1766694 37.5946397,10.8673816 37.9497742,11.3180779 C38.3493005,11.8247779 38.7096575,12.3501458 39.064792,12.9021821 C39.3755347,13.4035484 39.9630733,13.5662258 40.4748848,13.2995415 L42.1591622,12.4274842 C42.7127542,12.1421321 43.3603524,12.3608131 43.6449822,12.9501852" id="Shape"></path>
                            </g>
                        </g>
                        <g id="Group-10" transform="translate(88.000000, 74.000000)">
                            <g id="Group" transform="translate(0.000000, 1.000000)" fill="#FAFAFA">
                                <path d="M380.468447,15.4924405 L380.468447,271.344038 C380.468447,278.955508 373.117944,285.16452 364.046385,285.16452 L16.4802163,285.16452 C7.40839581,285.16452 0.0610358977,278.973823 0.0610358977,271.344038 L0.0610358977,15.4924405 C0.0610358977,7.86788864 7.40865776,0.0983813145 16.4802163,0.0983813145 L364.001853,0.942210409 C373.057694,0.942472061 380.468447,7.86788864 380.468447,15.4924405" id="Path"></path>
                            </g>
                            <g id="Group" fill="#6A1B9A">
                                <path d="M380.468447,15.8290866 L380.468447,27.8589798 L0.0610358977,27.8589798 L0.0610358977,15.8317433 L0.0610358977,15.8317433 C0.0610358977,7.1573614 6.99424235,0.122211813 15.5458169,0.119555034 L364.973712,0.119555034 C373.529216,0.119555034 380.468447,7.15470462 380.468447,15.8290866 Z" id="Path"></path>
                            </g>
                            <g id="Group" transform="translate(18.000000, 14.000000) scale(-1, 1) rotate(-90.000000) translate(-18.000000, -14.000000) translate(12.000000, 8.000000)" fill="#FF6F00">
                                <path d="M5.64384296,0.198855849 C8.66409699,0.198855849 11.1121171,2.64792261 11.1121171,5.66739168 C11.1121171,8.68947728 8.66409699,11.1359275 5.64384296,11.1359275 C2.62358894,11.1359275 0.175568782,8.68947728 0.175568782,5.66739168 C0.175568782,2.64792261 2.62358894,0.198855849 5.64384296,0.198855849" id="Path"></path>
                            </g>
                            <g id="Group" transform="translate(34.500000, 15.000000) scale(-1, 1) rotate(-90.000000) translate(-34.500000, -15.000000) translate(29.000000, 9.000000)" fill="#FFC107">
                                <path d="M5.55086368,0.198855849 C8.54988389,0.198855849 10.9811637,2.64792261 10.9811637,5.66739168 C10.9811637,8.68947728 8.54988389,11.1359275 5.55086368,11.1359275 C2.55158364,11.1359275 0.120303791,8.68947728 0.120303791,5.66739168 C0.120303791,2.64792261 2.55158364,0.198855849 5.55086368,0.198855849" id="Path"></path>
                            </g>
                            <g id="Group" transform="translate(49.500000, 15.000000) scale(-1, 1) rotate(-90.000000) translate(-49.500000, -15.000000) translate(44.000000, 9.000000)" fill="#FFECB3">
                                <path d="M5.49681792,0.198855849 C8.49609796,0.198855849 10.9273778,2.64792261 10.9273778,5.66739168 C10.9273778,8.68947728 8.49609796,11.1359275 5.49681792,11.1359275 C2.49779771,11.1359275 0.0665178628,8.68947728 0.0665178628,5.66739168 C0.0665178628,2.64792261 2.49779771,0.198855849 5.49681792,0.198855849" id="Path"></path>
                            </g>
                            <path d="M142.433331,85.0590395 L169.197021,85.0590395 C171.590805,85.0590395 173.533742,87.0019766 173.533742,89.3957609 L173.533742,97.5351642 C173.533742,99.9316321 171.590805,101.874569 169.197021,101.874569 L142.433331,101.874569 C140.036864,101.874569 138.09661,99.9316321 138.09661,97.5351642 L138.09661,89.3957609 C138.09661,87.0019766 140.036864,85.0590395 142.433331,85.0590395" id="Path" fill="#558B2F"></path>
                            <path d="M212.578247,85.0590395 L239.341936,85.0590395 C241.73572,85.0590395 243.678657,87.0019766 243.678657,89.3957609 L243.678657,97.5351642 C243.678657,99.9316321 241.73572,101.874569 239.341936,101.874569 L212.578247,101.874569 C210.181779,101.874569 208.241525,99.9316321 208.241525,97.5351642 L208.241525,89.3957609 C208.241525,87.0019766 210.181779,85.0590395 212.578247,85.0590395" id="Path" fill="#558B2F"></path>
                            <g id="Group" transform="translate(155.000000, 101.000000)" stroke="#6A1B9A" stroke-width="0.5">
                                <polyline id="Path" points="0.00263431344 0.21737279 34.8256236 44.8823056 70.6970697 0.00776331392"></polyline>
                            </g>
                            <g id="Group" transform="translate(163.000000, 146.000000)" fill="#E1BEE7">
                                <path d="M4.3237424,0.196239324 L48.9997791,0.196239324 C51.35004,0.196239324 53.2576509,2.09060293 53.2576509,4.42454263 L53.2576509,21.034239 C53.2576509,23.3681787 51.35004,25.2625423 48.9997791,25.2625423 L4.3237424,25.2625423 C1.97348145,25.2625423 0.0658705424,23.3681787 0.0658705424,21.034239 L0.0658705424,4.42454263 C0.0658705424,2.09060293 1.97348145,0.196239324 4.32637722,0.196239324" id="Path"></path>
                            </g>
                            <g id="Group" transform="translate(164.000000, 146.000000)" fill="#FFC107">
                                <path d="M4.40828999,0.17530713 L47.4351204,0.17530713 C49.8166104,0.17530713 51.7474041,2.06967074 51.7474041,4.40622696 L51.7474041,19.9954789 C51.7474041,22.3320351 49.8166104,24.2263987 47.4351204,24.2263987 L4.40828999,24.2263987 C2.02679999,24.2263987 0.0960063155,22.3320351 0.0960063155,19.9954789 L0.0960063155,4.40622696 C0.0960063155,2.06967074 2.02679999,0.17530713 4.40828999,0.17530713" id="Path"></path>
                            </g>
                            <g id="Group" transform="translate(155.239146, 77.114853) scale(-1, 1) rotate(-88.388463) translate(-155.239146, -77.114853) translate(146.739146, 76.614853)" stroke="#6A1B9A" stroke-width="0.5">
                                <line x1="0.142338733" y1="0.625972531" x2="16.1395427" y2="0.625972531" id="Path"></line>
                            </g>
                            <g id="Group" transform="translate(203.000000, 69.000000)" stroke="#6A1B9A" stroke-width="0.5">
                                <polyline id="Path" points="42.3165016 0.236158093 21.7891494 15.8118578 0.1983958 0.236158093"></polyline>
                            </g>
                            <g id="Group" transform="translate(137.000000, 53.000000)" fill="#9C27B0">
                                <path d="M4.50310545,0.250784577 L31.2667948,0.250784577 C33.6632627,0.250784577 35.6035161,2.17969149 35.6035161,4.56214497 L35.6035161,12.6539495 C35.6035161,15.036403 33.6632627,16.9679778 31.2667948,16.9679778 L4.50310545,16.9679778 C2.10932115,16.9679778 0.166384111,15.036403 0.166384111,12.6539495 L0.166384111,4.56214497 C0.166384111,2.17969149 2.10932115,0.250784577 4.50578906,0.250784577" id="Path"></path>
                            </g>
                            <g id="Group" transform="translate(228.000000, 53.000000)" fill="#9C27B0">
                                <path d="M4.58629751,0.250784577 L31.3499868,0.250784577 C33.7464547,0.250784577 35.6867081,2.17969149 35.6867081,4.56214497 L35.6867081,12.6539495 C35.6867081,15.036403 33.7464547,16.9679778 31.3499868,16.9679778 L4.58629751,16.9679778 C2.1925132,16.9679778 0.249576166,15.036403 0.249576166,12.6539495 L0.249576166,4.56214497 C0.249576166,2.17969149 2.1925132,0.250784577 4.58629751,0.250784577" id="Path"></path>
                            </g>
                            <g id="Group" transform="translate(186.000000, 53.000000)" fill="#9C27B0">
                                <path d="M4.53530883,0.250784577 L31.2963145,0.250784577 C33.6927824,0.250784577 35.6357195,2.17969149 35.6357195,4.56214497 L35.6357195,12.6539495 C35.6357195,15.036403 33.6927824,16.9679778 31.2963145,16.9679778 L4.53530883,16.9679778 C2.13884091,16.9679778 0.195903872,15.036403 0.195903872,12.6539495 L0.195903872,4.56214497 C0.195903872,2.17969149 2.13884091,0.250784577 4.53530883,0.250784577" id="Path"></path>
                            </g>
                            <g id="Group" transform="translate(189.894396, 191.841773) scale(-1, 1) rotate(89.825261) translate(-189.894396, -191.841773) translate(167.894396, 191.341773)" stroke="#6A1B9A" stroke-width="0.5">
                                <line x1="0.12407892" y1="0.581768733" x2="43.8728083" y2="0.581768733" id="Path"></line>
                            </g>
                            <g id="Group" transform="translate(139.000000, 229.000000)" stroke="#6A1B9A" stroke-width="0.5">
                                <polyline id="Path" points="0.153130073 15.7045132 49.4530932 0.198587487 98.9537094 15.5918013"></polyline>
                            </g>
                            <path d="M176.519207,213.026836 L203.280213,213.026836 C205.676681,213.026836 207.619618,214.969773 207.619618,217.366241 L207.619618,225.505644 C207.619618,227.899429 205.676681,229.842366 203.280213,229.842366 L176.519207,229.845049 C174.122739,229.842366 172.179802,227.899429 172.179802,225.505644 L172.179802,217.366241 C172.179802,214.969773 174.122739,213.026836 176.519207,213.026836" id="Path" fill="#558B2F"></path>
                            <g id="Group" transform="translate(323.000000, 114.000000)" fill="#9C27B0">
                                <path d="M16.8182133,4.5487269 L16.8182133,31.3097326 C16.8182133,33.7062005 14.8752762,35.6491375 12.4788083,35.6491375 L4.33940495,35.6491375 C1.94562065,35.6491375 0.00268361469,33.7062005 0.00268361469,31.3097326 L0.00268361469,4.5487269 C0.00268361469,2.15225898 1.94562065,0.209321946 4.33940495,0.209321946 L12.4788083,0.209321946 C14.8752762,0.209321946 16.8182133,2.15225898 16.8182133,4.5487269" id="Path"></path>
                            </g>
                            <g id="Group" transform="translate(323.000000, 169.000000)" fill="#9C27B0">
                                <path d="M0.00268361469,31.1004106 L0.00268361469,4.33672134 C0.00268361469,1.94293704 1.94562065,0 4.33940495,0 L12.4788083,0 C14.8752762,0 16.8182133,1.94293704 16.8182133,4.33672134 L16.8182133,31.1004106 C16.8182133,33.4941949 14.8752762,35.437132 12.4788083,35.437132 L4.33940495,35.437132 C1.94562065,35.437132 0.00268361469,33.4941949 0.00268361469,31.1004106" id="Path"></path>
                            </g>
                            <g id="Group" transform="translate(220.000000, 244.000000)" fill="#9C27B0">
                                <path d="M4.5487269,0.248116656 L31.3124162,0.248116656 C33.7062005,0.248116656 35.6491375,2.17969149 35.6491375,4.56214497 L35.6491375,12.6539495 C35.6491375,15.033735 33.7062005,16.9653099 31.3124162,16.9653099 L4.5487269,16.9653099 C2.1549426,16.9653099 0.212005561,15.033735 0.212005561,12.6539495 L0.212005561,4.56214497 C0.212005561,2.17969149 2.1549426,0.248116656 4.5487269,0.248116656" id="Path"></path>
                            </g>
                            <g id="Group" transform="translate(123.000000, 244.000000)" fill="#9C27B0">
                                <path d="M31.2506931,16.959974 L4.48968738,16.959974 C2.09321946,16.959974 0.150282423,15.0283992 0.150282423,12.6486136 L0.150282423,4.55680913 C0.150282423,2.17435565 2.09321946,0.242780814 4.48968738,0.242780814 L31.2506931,0.242780814 C33.647161,0.242780814 35.590098,2.17435565 35.590098,4.55680913 L35.590098,12.6486136 C35.590098,15.0283992 33.647161,16.959974 31.2506931,16.959974" id="Path"></path>
                            </g>
                            <g id="Group" transform="translate(172.000000, 244.000000)" fill="#9C27B0">
                                <path d="M31.3580377,16.959974 L4.59434835,16.959974 C2.19788043,16.959974 0.25762701,15.0283992 0.25762701,12.6486136 L0.25762701,4.55680913 C0.25762701,2.17435565 2.19788043,0.242780814 4.59434835,0.242780814 L31.3580377,0.242780814 C33.751822,0.242780814 35.694759,2.17435565 35.694759,4.55680913 L35.694759,12.6486136 C35.694759,15.0283992 33.751822,16.959974 31.355354,16.959974" id="Path"></path>
                            </g>
                            <g id="Group" transform="translate(316.083912, 173.290382) scale(-1, 1) rotate(119.762990) translate(-316.083912, -173.290382) translate(300.083912, 172.790382)" stroke="#6A1B9A" stroke-width="0.5">
                                <line x1="0.103279304" y1="0.528711237" x2="31.1332126" y2="0.528711237" id="Path"></line>
                            </g>
                            <g id="Group" transform="translate(275.000000, 159.000000)" stroke="#6A1B9A" stroke-width="0.5">
                                <line x1="0.249576166" y1="0.400720318" x2="16.8074788" y2="0.400720318" id="Path"></line>
                            </g>
                            <g id="Group" transform="translate(237.678752, 158.488030) scale(-1, 1) rotate(178.312806) translate(-237.678752, -158.488030) translate(215.178752, 157.988030)" stroke="#6A1B9A" stroke-width="0.5">
                                <line x1="0.0937700713" y1="0.562360416" x2="44.2486995" y2="0.562360416" id="Path"></line>
                            </g>
                            <g id="Group" transform="translate(315.691246, 146.231376) scale(-1, 1) rotate(60.396865) translate(-315.691246, -146.231376) translate(299.691246, 145.731376)" stroke="#6A1B9A" stroke-width="0.5">
                                <line x1="0.140705655" y1="0.617206448" x2="31.170648" y2="0.617206448" id="Path"></line>
                            </g>
                            <path d="M275.933609,145.350139 L275.933609,172.111145 C275.933609,174.507613 273.990672,176.45055 271.596887,176.45055 L263.457484,176.45055 C261.061016,176.45055 259.118079,174.507613 259.118079,172.111145 L259.118079,145.350139 C259.118079,142.953671 261.061016,141.010734 263.457484,141.010734 L271.596887,141.010734 C273.990672,141.010734 275.933609,142.953671 275.933609,145.350139" id="Path" fill="#558B2F"></path>
                            <g id="Group" transform="translate(291.000000, 141.000000)" fill="#9C27B0">
                                <path d="M16.9631285,4.44406593 L16.9631285,31.2077552 C16.9658121,33.6042231 15.022875,35.5444766 12.6264071,35.5444766 L4.48700376,35.5444766 C2.09053584,35.5444766 0.147598808,33.6042231 0.147598808,31.2077552 L0.147598808,4.44406593 C0.147598808,2.05028162 2.09053584,0.107344588 4.48700376,0.107344588 L12.6264071,0.107344588 C15.022875,0.107344588 16.9658121,2.05028162 16.9658121,4.44674954" id="Path"></path>
                            </g>
                            <g id="Group" transform="translate(40.000000, 114.000000)" fill="#9C27B0">
                                <path d="M16.9127518,4.55409413 L16.9127518,31.3150998 C16.9130186,33.7115677 14.9817106,35.6545048 12.6003243,35.6545048 L4.50825297,35.6518212 C2.12713344,35.6545048 0.195825404,33.7115677 0.195825404,31.3150998 L0.195825404,4.55409413 C0.195825404,2.15762621 2.12713344,0.214689175 4.50851976,0.214689175 L12.6000575,0.214689175 C14.9817106,0.214689175 16.9130186,2.15762621 16.9130186,4.55409413" id="Path"></path>
                            </g>
                            <g id="Group" transform="translate(40.000000, 169.000000)" fill="#9C27B0">
                                <path d="M0.195825404,31.1004106 L0.195825404,4.33672134 C0.195558612,1.94293704 2.12686665,0 4.50825297,0 L12.6000575,0 C14.9817106,0 16.9127518,1.94293704 16.9127518,4.33672134 L16.9127518,31.1004106 C16.9127518,33.4941949 14.9817106,35.437132 12.6000575,35.437132 L4.50825297,35.437132 C2.12686665,35.437132 0.195558612,33.4941949 0.195558612,31.097727" id="Path"></path>
                            </g>
                            <g id="Group" transform="translate(63.927113, 173.354089) scale(-1, 1) rotate(60.228914) translate(-63.927113, -173.354089) translate(47.927113, 172.854089)" stroke="#6A1B9A" stroke-width="0.5">
                                <line x1="0.153104131" y1="0.52444231" x2="31.1840874" y2="0.52444231" id="Path"></line>
                            </g>
                            <g id="Group" transform="translate(96.500000, 159.500000) scale(-1, 1) translate(-96.500000, -159.500000) translate(88.000000, 159.000000)" stroke="#6A1B9A" stroke-width="0.5">
                                <line x1="0.206638331" y1="0.400720318" x2="16.7591737" y2="0.400720318" id="Path"></line>
                            </g>
                            <g id="Group" transform="translate(142.272249, 158.636146) scale(-1, 1) rotate(1.687199) translate(-142.272249, -158.636146) translate(119.772249, 158.136146)" stroke="#6A1B9A" stroke-width="0.5">
                                <line x1="0.239698086" y1="0.56355575" x2="44.3946276" y2="0.56355575" id="Path"></line>
                            </g>
                            <g id="Group" transform="translate(64.160954, 146.231282) scale(-1, 1) rotate(119.603135) translate(-64.160954, -146.231282) translate(48.160954, 145.731282)" stroke="#6A1B9A" stroke-width="0.5">
                                <line x1="0.1130332" y1="0.618855211" x2="31.1440239" y2="0.618855211" id="Path"></line>
                            </g>
                            <path d="M120.896038,145.344772 L120.896038,172.105778 C120.896038,174.502246 118.953101,176.445183 116.559317,176.445183 L108.41723,176.445183 C106.023445,176.445183 104.080508,174.502246 104.080508,172.105778 L104.080508,145.344772 C104.080508,142.948304 106.023445,141.005367 108.419913,141.005367 L116.559317,141.005367 C118.953101,141.005367 120.896038,142.948304 120.896038,145.344772" id="Path" fill="#558B2F"></path>
                            <g id="Group" transform="translate(71.000000, 141.000000)" fill="#9C27B0">
                                <path d="M16.8665183,4.44406593 L16.8665183,31.2077552 C16.8665183,33.6042231 14.9235813,35.5444766 12.5271134,35.5444766 L4.38771002,35.5444766 C1.99285227,35.5444766 0.0504519562,33.6042231 0.0504519562,31.2077552 L0.0501835947,4.44406593 C0.0504519562,2.05028162 1.99285227,0.107344588 4.38771002,0.107344588 L12.5271134,0.107344588 C14.9235813,0.107344588 16.8665183,2.05028162 16.8665183,4.44406593" id="Path"></path>
                            </g>
                        </g>
                        <g id="Group-9" transform="translate(42.000000, 295.000000)">
                            <g id="Group" transform="translate(0.000000, 18.000000)" fill="#558B2F">
                                <path d="M0.158766,0.0654830374 C0.158766,33.1537227 20.9375273,59.9339369 46.614272,59.9339369" id="Shape"></path>
                            </g>
                            <g id="Group" transform="translate(45.000000, 17.000000)" fill="#558B2F">
                                <path d="M0.134593216,60.7293724 C0.134593216,27.2005272 23.5269468,0.0718830001 52.4320911,0.0718830001" id="Shape"></path>
                            </g>
                            <g id="Group" transform="translate(16.000000, 21.000000)" fill="#8BC34A">
                                <path d="M0.0213399309,0.0728123796 C0.0213399309,31.8554161 13.0677509,57.5745425 29.1842838,57.5745425" id="Shape"></path>
                            </g>
                            <g id="Group" transform="translate(45.000000, 0.000000)" fill="#8BC34A">
                                <path d="M0.133314072,76.6576549 C0.133314072,34.3252098 26.9130066,0.0710319263 60.001768,0.0710319263" id="Shape"></path>
                            </g>
                            <g id="Group" transform="translate(44.500000, 88.000000) scale(-1, 1) rotate(-90.000000) translate(-44.500000, -88.000000) translate(42.000000, 76.000000)" fill="#D7CCC8">
                                <path d="M2.19365374,0.181063483 C3.35655791,0.181063483 4.29911048,5.36230495 4.29911048,11.7539506 C4.29911048,18.1453345 3.35655791,23.326576 2.19365374,23.326576 C1.03103135,23.326576 0.0881969968,18.1453345 0.0881969968,11.7539506 C0.0881969968,5.36230495 1.03103135,0.181063483 2.19365374,0.181063483" id="Path"></path>
                            </g>
                            <g id="Group" transform="translate(36.000000, 75.000000)" fill="#558B2F">
                                <path d="M0.0253802859,3.49656209 C0.0253802859,3.49656209 6.63079594,3.30744776 8.61255146,2.00272797 C10.594307,0.698008181 18.7649275,-0.869249634 19.2604972,1.22839779 C19.7560669,3.32604521 29.1690132,11.6608426 21.7244781,11.7159103 C14.2799431,11.7707366 4.4049187,10.6425718 2.42342483,9.52672481 C0.441930958,8.41087782 0.0253802859,3.49656209 0.0253802859,3.49656209" id="Path"></path>
                            </g>
                            <g id="Group" transform="translate(36.000000, 78.000000)" fill="#8BC34A" fill-opacity="0.2">
                                <path d="M21.8634156,8.14745641 C14.4123393,8.20625756 4.55039745,7.00329481 2.56210062,5.79981398 C1.04948791,4.89059794 0.448210617,1.62104671 0.243598414,0.110349297 L0.0253802859,0.110608333 C0.0253802859,0.110608333 0.441407653,5.38121195 2.42970449,6.57795785 C4.41800132,7.77470374 14.2799431,8.98466047 21.7310195,8.92585932 C23.8841573,8.92585932 24.6243721,8.14745641 24.5846009,7.02945743 C24.2873637,7.71590259 23.4683916,8.13450462 21.8634156,8.14745641" id="Path"></path>
                            </g>
                        </g>
                        <g id="Group-14" transform="translate(352.000000, 287.000000)">
                            <g id="Group" transform="translate(26.000000, 88.000000)" fill="#65617D">
                                <path d="M80.8824983,23.9521281 C80.8824983,23.9521281 79.1016524,34.629942 70.0711588,36.2132058 C61.0406652,37.7962082 30.9030698,37.4756332 30.9030698,37.4756332 C30.9030698,37.4756332 13.6706889,35.0096115 7.43904336,20.5387629 C1.20739777,6.06791429 -2.7962175,0.317437213 2.54368986,0.0559568068 C7.88096673,-0.205262118 36.6901615,9.72785553 38.3421132,9.85624241 C39.9940648,9.98436781 82.4713181,-12.1410582 80.8824983,23.9521281" id="Path"></path>
                            </g>
                            <g id="Group" transform="translate(26.000000, 88.000000)" fill="#6A1B9A">
                                <path d="M80.8824983,23.9521281 C80.8824983,23.9521281 79.1016524,34.629942 70.0711588,36.2132058 C61.0406652,37.7962082 30.9030698,37.4756332 30.9030698,37.4756332 C30.9030698,37.4756332 13.6706889,35.0096115 7.43904336,20.5387629 C1.20739777,6.06791429 -2.7962175,0.317437213 2.54368986,0.0559568068 C7.88096673,-0.205262118 36.6901615,9.72785553 38.3421132,9.85624241 C39.9940648,9.98436781 82.4713181,-12.1410582 80.8824983,23.9521281" id="Path"></path>
                            </g>
                            <g id="Group" transform="translate(26.000000, 108.000000)" fill="#558B2F">
                                <path d="M0.318080521,16.7041596 C0.318080521,16.7041596 1.19280195,19.1188761 3.60662268,19.2959947 C3.70666413,19.3029721 3.80670559,19.3067292 3.90674704,19.3067292 C4.16069842,19.3067292 4.41464981,19.2823083 4.66603603,19.2345399 C7.89301421,18.647365 15.4576872,17.2859673 18.1228942,17.8071253 C19.7286878,18.1160093 22.6940191,17.6552327 24.8102806,17.2403459 C26.210861,16.962055 27.2292317,16.7036229 27.2292317,16.7036229 C27.2292317,16.7036229 24.7512818,8.09861241 24.4357665,7.81495434 C24.1228163,7.53156463 13.2798617,0.728333027 13.2798617,0.728333027 L4.67116636,0.101440635 C3.52197222,0.286341687 2.48051503,0.929067406 1.76739902,1.8930218 C0.86446077,3.04214561 0.0846504612,4.93006855 0.0307819859,8.01783561 C-0.117997613,15.6006573 0.318080521,16.7041596 0.318080521,16.7041596" id="Path"></path>
                            </g>
                            <g id="Group" transform="translate(26.000000, 108.000000)" fill="#000000" fill-opacity="0.05">
                                <path d="M0.349406633,16.6955721 C0.349406633,16.6955721 1.31027487,19.1100202 3.96182037,19.2871388 C3.04321906,18.1562635 2.17815586,16.9684957 1.40044433,15.7439623 L1.44834685,9.45222766 C1.40607992,9.06739731 1.38353755,8.67773646 1.38353755,8.29075922 C1.38353755,5.18071816 2.75862172,2.21022506 5.16783681,0.112175094 L5.13120547,0.112980178 C5.13120547,0.112980178 0.163432135,0.436892472 0.0253601588,8.02964351 C-0.112711817,15.6226629 0.349406633,16.6955721 0.349406633,16.6955721" id="Path"></path>
                            </g>
                            <g id="Group" transform="translate(58.000000, 91.000000)" fill="#000000" fill-opacity="0.1">
                                <path d="M5.17274782,19.7726047 L13.4565833,13.2227063 L26.4880821,0.249039443 C26.4880821,0.249039443 25.0773327,0.178192015 22.9545666,0.086949116 C22.4524355,0.426158013 20.9486988,1.4939683 20.8902497,2.7949847 C20.8291438,4.38448968 17.3806452,2.90635471 15.5687223,3.80751252 C13.7541425,4.70840197 4.99474366,16.0976627 3.45115533,16.0168859 C1.90491022,15.9358408 0.688105643,15.2270981 0.0478220138,16.3306005 L0.00265677854,16.4011795 L5.17274782,19.7726047 Z" id="Path"></path>
                            </g>
                            <g id="Group" transform="translate(10.000000, 78.000000)" fill="#6A1B9A">
                                <path d="M0.536116035,12.8363709 C1.35990409,14.8565528 8.25095654,22.6224841 8.25095654,22.6224841 C8.25095654,22.6224841 12.6104952,28.3089316 18.8059044,30.9600121 C25.0013136,33.6110927 32.6481589,39.1695318 33.2208878,40.1797533 C33.5844006,40.8302451 38.5218985,43.8013467 42.0001147,45.8416442 L42.7794444,46.2948985 L44.5054765,47.2803021 L45.4181814,47.8074878 C45.4181814,47.8074878 47.5364935,46.1075882 49.64696,44.3977614 C51.7574266,42.6879347 53.7946675,41.0175554 53.8286651,40.9483263 C53.8888147,40.7612773 54.7126028,38.6128258 54.519078,38.4845561 C54.4223156,38.4205519 53.9881923,37.5433023 53.1931715,36.5137489 C52.3432314,35.3867523 51.2396169,34.4734514 49.9712449,33.8519575 C47.0605271,32.5264172 45.8000006,29.505941 45.8000006,29.505941 C45.8000006,29.505941 45.5227894,29.3089648 45.1043573,29.0427595 C44.2439565,28.4481734 43.2763324,28.0186921 42.2564044,27.7770436 C40.8677331,27.6046241 38.2760697,24.7612697 38.2760697,24.7612697 C38.2760697,24.7612697 36.5055792,23.6230397 35.8099359,22.1741934 C35.1142927,20.725347 25.3439049,14.0634231 24.4338152,13.437488 L48.2007543,28.6885158 L53.8888147,32.3398907 L62.0482393,25.9635039 L74.8731809,13.3340363 C74.8731809,13.3340363 73.1471488,13.2501778 70.641787,13.1420237 C64.4019194,12.8708548 53.3265467,12.4471208 51.9247994,12.7627008 C51.1350089,12.9473987 50.3242969,13.0404007 49.5135848,13.0404007 C49.1657632,13.0404007 48.8179416,13.022375 48.4727352,12.9886748 C48.1275287,12.9552359 45.3161886,13.131574 43.2292588,12.0327915 C41.1423291,10.9337478 37.8524073,10.4164893 37.4732032,9.60350521 C37.091384,8.79025988 25.9035577,4.86797737 25.9035577,4.86797737 C25.9035577,4.86797737 10.6726319,-3.2132726 5.23040034,1.58625945 C-0.209216014,6.3857915 -0.285056819,10.8159278 0.536116035,12.8363709" id="Path"></path>
                            </g>
                            <g id="Group" transform="translate(59.000000, 25.000000)" fill="#FFD8D8">
                                <path d="M0.23025414,19.3827028 L2.20311348,25.8048694 L4.73590902,40.2915418 L14.0271869,40.916457 L16.7222069,36.5317209 L19.4067609,32.1469848 C19.4067609,32.1469848 21.0813365,26.3032522 22.2849377,20.6325334 C23.3472465,15.6254643 24.0406255,10.765586 22.8867383,10.2387979 C21.8610607,9.7507442 21.1833809,8.08258192 20.7464214,6.26981115 C20.6914743,6.04515153 20.6365273,5.81532731 20.5920464,5.59324998 C20.2859131,4.05936702 20.0765911,2.49707882 19.9745467,0.937372919 C19.8725022,-0.622332985 0.494523097,-0.061975069 3.1947762,7.86825147 C3.6788332,9.21879152 3.93001953,10.6416358 3.93001953,12.0773916 L3.93001953,12.0799739 C3.92740301,12.4363305 3.90123777,12.7978518 3.8619899,13.1516261 C3.5820218,15.6357935 2.26329354,17.8953012 0.23025414,19.3827028 L0.23025414,19.3827028 Z" id="Path"></path>
                            </g>
                            <g id="Group" transform="translate(55.000000, 38.000000)" fill="#558B2F">
                                <path d="M0.100271964,5.34188099 L0.789320335,16.4915185 L2.33967917,25.9909495 L4.0828687,30.3860512 L5.63322754,54.4470581 C5.63322754,54.4470581 20.6200296,56.2214453 24.2658154,54.4154197 C24.5280651,54.3020487 24.7543198,54.1174914 24.9240108,53.8828399 C29.3231219,47.0700367 27.8833193,27.3276721 27.8833193,27.3276721 L29.562232,14.5813498 L28.4412428,7.96707763 L25.741613,7.66862201 L23.6590414,7.4447803 C23.6590414,7.4447803 23.1756792,8.03668212 22.5097705,8.93679473 C20.666309,11.4233097 17.2776308,16.336754 17.5064565,18.3856043 C17.8149857,21.1906126 17.1310795,24.0557338 16.0512275,24.5039445 C14.9688045,24.9495187 14.1100651,25.71675 13.9403741,24.9495187 C13.7706831,24.1849239 13.5675681,23.9950935 13.7526856,22.9114781 C13.935232,21.8278628 12.9427966,18.5097851 12.9427966,18.5097851 C12.9427966,18.5097851 11.263884,14.6259072 11.3898667,12.964891 C11.5158494,11.3038747 11.2047492,9.39924275 10.7059605,8.95155932 C10.2071718,8.50413955 9.52840769,8.06146553 10.0863312,6.02237035 C10.6416836,3.98353881 7.63609575,0.0308474446 7.63609575,0.0308474446 L0.100271964,5.34188099 Z" id="Path"></path>
                            </g>
                            <g id="Group" transform="translate(75.000000, 31.000000)" fill="#8BC34A" fill-opacity="0.1">
                                <path d="M0.0994279243,40.0200264 L0.737859859,58.8830684 L4.39052781,60.9029902 C4.65479677,60.7881626 4.88505091,60.6080921 5.06035804,60.3810466 C9.53723116,53.6323157 8.07197754,34.0881372 8.07197754,34.0881372 L9.78056792,21.4727601 L8.63976331,14.9254995 L5.88979625,14.6300794 C6.95210513,9.5698361 7.6481006,4.65704187 6.49159685,4.1254423 C5.46591931,3.63324947 4.79085604,1.94476189 4.35127995,0.113522735 L4.35127995,0.113522735 L2.37580409,13.4590989 C2.37580409,13.4590989 2.53802859,14.6650496 2.59820865,15.920324 C2.62175737,16.1559816 2.63483999,16.3934659 2.63483999,16.6309502 C2.63483999,17.1818617 2.56942689,17.7319903 2.44121719,18.2677654 C1.99640806,19.4048196 2.3130075,21.4231755 2.3130075,21.4231755 C1.1722029,23.427439 0.59918407,27.138458 0.337531638,30.7216009 C-0.0366313405,35.4765072 0.0994279243,40.0200264 0.0994279243,40.0200264" id="Path"></path>
                            </g>
                            <g id="Group" transform="translate(76.000000, 31.000000)" fill="#8BC34A">
                                <path d="M4.09441905,0.000260084636 C4.09441905,0.000260084636 7.2473545,0.392727801 8.24574095,1.71707877 C9.24671389,3.04142974 14.872337,4.20426815 14.7999152,4.47891752 C14.7249069,4.7535669 22.5516359,7.93752302 22.5516359,8.37914673 C22.5516359,8.82077044 29.0152829,16.6157671 28.8264689,19.9469311 C28.6350684,23.277835 29.0152829,39.4371536 29.0152829,39.4371536 L29.0747723,44.34287 C29.0747723,44.34287 33.9727286,55.6388659 43.7686413,78.2308578 C43.7686413,78.2308578 43.9600418,81.8122232 39.7052601,81.7550046 C35.4504785,81.6951851 31.8655986,90.5796763 31.5138355,89.687586 C31.1103426,88.5796254 0.827677887,58.6360813 0.827677887,58.6360813 L0.191400511,39.8150566 C0.191400511,39.8150566 -0.245716873,25.9221155 2.37698743,21.2663405 C2.37698743,21.2663405 2.06660822,19.255106 2.50372561,18.1216571 C2.94342949,16.9884684 2.44164977,13.3436423 2.44164977,13.3436423 L4.09441905,0.000260084636 Z" id="Path"></path>
                            </g>
                            <g id="Group" transform="translate(40.000000, 37.000000)" fill="#000000" fill-opacity="0.1">
                                <path d="M23.1588568,0.985009002 C23.1588568,0.985009002 16.7980862,-0.337739971 15.0894958,0.557363231 C13.3835219,1.45273009 10.0317543,2.14877499 9.52414854,2.66105349 C9.01392629,3.17306834 7.75537809,2.78523423 6.61719001,5.78429135 C5.47638541,8.78308482 5.35340876,11.8364545 3.89600472,13.2438362 C2.44121719,14.6512179 1.67980862,15.601161 1.61701203,16.620445 C1.55159892,17.6399926 1.80801831,17.8936271 1.24284905,18.2168662 C0.675063275,18.5401052 -0.149141886,19.8741913 0.102044449,20.3804057 C0.353230784,20.8866202 13.2553122,32.1077078 13.2553122,32.1077078 C13.2553122,32.1077078 13.8911276,36.3788924 14.4589134,37.4625078 C15.0266992,38.5461231 13.8257145,53.4557214 12.5645498,54.481333 C11.3007686,55.5043081 21.1022687,55.4041198 21.1022687,55.4041198 C21.1022687,55.4041198 21.5418448,45.6173066 21.9212408,45.1110921 C22.3006368,44.6048777 21.6700544,34.1694771 21.6700544,34.1694771 C21.6700544,34.1694771 21.6046413,25.247447 22.4288465,22.8903858 C23.2530517,20.5333247 23.1588568,12.6964918 23.1588568,12.6964918 C23.1588568,12.6964918 23.8862505,7.99186104 24.7680192,6.89295379 C25.6524045,5.79378287 23.1588568,0.985009002 23.1588568,0.985009002" id="Path"></path>
                            </g>
                            <g id="Group" transform="translate(40.000000, 37.000000)" fill="#8BC34A">
                                <path d="M23.3046062,0.920150272 C23.3046062,0.920150272 16.9227699,-0.397589287 15.2071094,0.492504501 C13.491449,1.38286194 10.1415761,2.07890685 9.63712464,2.57615711 C9.13267319,3.07340737 7.8584078,2.70534726 6.71288262,5.69913131 C5.56735745,8.69291536 5.44387194,11.7563039 3.9830646,13.1589398 C2.51962992,14.5615758 1.76295274,15.516001 1.69726895,16.5355486 C1.63421252,17.5550962 1.88643825,17.8087307 1.31630301,18.127224 C0.746167775,18.4454536 -0.0814478909,19.7819126 0.170777836,20.2960367 C0.425630914,20.8075242 13.394237,32.0417944 13.394237,32.0417944 C13.394237,32.0417944 14.0274287,36.307706 14.6028186,37.3939579 C15.1782086,38.4775733 13.9643723,53.389808 12.6953616,54.4101466 C11.4263509,55.4304852 21.2684089,55.3355699 21.2684089,55.3355699 C21.2684089,55.3355699 21.7150587,45.5540298 22.0960246,45.0399057 C22.4769905,44.5284182 21.8385442,34.1009273 21.8385442,34.1009273 C21.8385442,34.1009273 21.7781151,25.1788971 22.6031034,22.821836 C23.4254644,20.4647748 23.3046062,12.6018403 23.3046062,12.6018403 C23.3046062,12.6018403 24.0323825,7.89720948 24.9204273,6.80331164 C25.808472,5.70941379 23.3046062,0.920150272 23.3046062,0.920150272" id="Path"></path>
                            </g>
                            <g id="Group" transform="translate(62.000000, 25.000000)" fill="#000000" fill-opacity="0.1">
                                <path d="M0.330084607,7.23609865 C0.826553325,8.49927609 1.08418033,9.83249586 1.08418033,11.1753767 L1.08418033,11.1777919 C2.46087467,11.5449104 3.88855769,11.7333001 5.32429155,11.7333001 C10.6029616,11.7333001 15.4871404,9.21177579 18.1519698,5.11067582 C17.8406705,3.6760154 17.6259813,2.21237195 17.5213203,0.755974258 C17.4139757,-0.702838687 -2.45819106,-0.178728738 0.330084607,7.23609865" id="Path"></path>
                            </g>
                            <g id="Group" transform="translate(53.000000, 8.000000)" fill="#FFD8D8">
                                <path d="M0.125842744,14.3614821 C0.125842744,22.2125284 6.49245829,28.5765757 14.3435046,28.5765757 C22.1945508,28.5765757 28.5611664,22.2099601 28.5611664,14.3589139 C28.5611664,6.5078676 22.1945508,0.141252059 14.3435046,0.141252059 C7.6276112,0.141252059 1.82857211,4.8410933 0.436597274,11.4054617 C0.231139733,12.3736804 0.125842744,13.3675812 0.125842744,14.3589139 L0.125842744,14.3614821 Z" id="Path"></path>
                            </g>
                            <g id="Group" transform="translate(31.000000, 56.000000)" fill="#8BC34A">
                                <path d="M12.2510219,0.00767714114 L8.94737556,1.09624281 C8.94737556,1.09624281 9.25271258,2.37435444 8.28164077,3.01367499 C7.74604961,3.41473943 7.42819879,4.06597279 7.42819879,4.75929805 C7.42819879,4.81833262 7.43070155,4.87736719 7.43570708,4.9358723 C7.4407126,4.99437741 7.07280653,6.34396587 6.22687284,6.66349378 C5.38344191,6.98328642 4.83533695,9.09529442 4.83533695,9.09529442 L2.0497624,12.4846199 C2.0497624,12.4846199 1.02613258,13.3794039 1.20382871,13.8294432 C1.3840276,14.2794825 0.11512707,14.4039052 0.11512707,14.4039052 L0.745823194,25.7978415 L6.49717118,26.9467654 L10.0661104,26.5629083 L12.9693147,25.4139845 L15.5096186,23.8097267 L16.6608893,20.6753353 L21.7389942,12.4872672 L12.2510219,0.00767714114 Z" id="Path"></path>
                            </g>
                            <g id="Group" transform="translate(24.413314, 74.314168) scale(-1, 1) rotate(-41.849039) translate(-24.413314, -74.314168) translate(13.413314, 66.814168)" fill="#EE8E9E">
                                <path d="M7.77956315,0.618449722 C7.77956315,0.618449722 20.980396,-2.53230338 21.2555771,5.80161689 C21.5333791,14.1373727 8.98511866,15.9938417 7.77956315,14.4887383 C6.57400764,12.9810127 0.166218032,6.55679073 0.166218032,6.55679073 L7.77956315,0.618449722 Z" id="Path"></path>
                            </g>
                            <g id="Group" transform="translate(0.000000, 48.000000)" fill="#FF6F00">
                                <path d="M14.8767956,0.287372096 L49.4699209,17.9125996 C49.8438017,18.1026149 49.9902166,18.5596436 49.7993544,18.932366 L36.2455216,45.4444646 C36.0546593,45.817709 35.5971129,45.9664848 35.2232321,45.7759474 L0.632721361,28.1499369 C0.258840557,27.9593995 0.109811145,27.5026319 0.300673374,27.1293875 L13.8571207,0.617549844 C14.0479829,0.244566443 14.5055294,0.0965737288 14.8767956,0.286850075" id="Path"></path>
                            </g>
                            <g id="Group" transform="translate(25.866555, 71.936613) scale(-1, 1) rotate(152.959974) translate(-25.866555, -71.936613) translate(8.366555, 58.936613)" fill="#FFC107">
                                <rect id="Rectangle" x="0.0364127579" y="0.1446654" width="34.0001945" height="25.6346378"></rect>
                            </g>
                            <g id="Group" transform="translate(9.000000, 63.000000) scale(-1, 1) rotate(-90.000000) translate(-9.000000, -63.000000) translate(8.000000, 62.000000)" fill="#E6E8EC">
                                <path d="M0.805889491,0.0281779542 C1.13838935,0.0281779542 1.40607992,0.298686315 1.40607992,0.62836838 C1.40607992,0.96086824 1.13838935,1.22855881 0.805889491,1.22855881 C0.473389631,1.22855881 0.205699066,0.96086824 0.205699066,0.62836838 C0.205699066,0.298686315 0.473389631,0.0281779542 0.805889491,0.0281779542" id="Path"></path>
                            </g>
                            <g id="Group" transform="translate(42.500000, 80.500000) scale(-1, 1) rotate(-90.000000) translate(-42.500000, -80.500000) translate(41.000000, 79.000000)" fill="#E6E8EC">
                                <path d="M1.1073936,0.182874923 C1.65404591,0.182874923 2.0964398,0.625268805 2.0964398,1.17135756 C2.0964398,1.71744631 1.65404591,2.15984019 1.1073936,2.15984019 C0.563559085,2.15984019 0.118347408,1.71744631 0.118347408,1.17135756 C0.118347408,0.625268805 0.563559085,0.182874923 1.1073936,0.182874923" id="Path"></path>
                            </g>
                            <g id="Group" transform="translate(27.000000, 69.000000)" fill="#FFD8D8">
                                <path d="M0.169917109,4.14242764 C0.109894022,12.7069156 17.3737215,14.5183555 17.3737215,14.5183555 L21.787798,15.2375642 L23.7606574,15.5622816 L24.5848625,7.18967212 C24.5848625,7.18967212 23.6821616,7.05307613 22.5518231,6.7844463 C20.8798641,6.38485607 18.713382,5.69114167 18.2581067,4.7242353 C17.5019312,3.10467384 0.232870665,-4.42232865 0.169917109,4.14242764" id="Path"></path>
                            </g>
                            <g id="Group" transform="translate(53.000000, 8.000000)" fill="#000000" fill-opacity="0.1">
                                <path d="M0.177207129,11.1167793 C0.572712895,11.1467504 0.942536468,11.314089 1.21990415,11.5863265 C1.70529759,12.0808496 1.70529759,12.9575042 2.3473524,13.2597127 C2.50915022,13.3296453 2.68378913,13.3646116 2.85842803,13.3646116 C2.93547461,13.3646116 3.01252119,13.3596164 3.08956777,13.3446308 C4.74093275,13.1198476 5.69631032,11.3040987 7.2809016,10.8045804 C7.61990654,10.7196623 7.97175258,10.6772032 8.32359862,10.6772032 C8.9219937,10.6772032 9.51268413,10.8020828 10.0545784,11.0418516 C10.4115609,11.1442528 10.7300201,11.3415625 10.9765691,11.6113024 C11.5081905,12.2806569 11.1357987,13.2647079 11.3823478,14.0714299 C11.7213527,15.1903509 13.0979182,15.6399173 14.289572,15.7847776 C15.4812257,15.9321355 16.8244044,16.0120585 17.6231206,16.8862154 C18.0391721,17.4057145 18.2651754,18.0450979 18.2651754,18.704462 C18.2651754,18.8842886 18.2471978,19.0666127 18.213811,19.2439417 C18.1778559,19.3838068 18.1598784,19.5286671 18.1598784,19.6735275 C18.1598784,19.8183878 18.1778559,19.9632481 18.213811,20.1056108 C18.542543,21.014734 20.1502483,20.8773665 20.5714363,20.1630554 C20.8821908,19.6435564 20.7897349,19.2189658 21.5114045,19.0691103 C21.598724,19.0616176 21.6834752,19.05912 21.7707947,19.05912 C22.2073919,19.05912 22.6362845,19.1490333 23.0317903,19.3238647 C24.2003301,19.7109913 25.4253707,19.9107986 26.6606841,19.9107986 C26.7608447,19.9107986 26.8635734,19.908301 26.9611658,19.908301 C27.8523379,18.0675762 28.3146173,16.0545175 28.3146173,14.0214781 C28.3146173,6.38634121 21.9480018,0.194812129 14.0969555,0.194812129 C7.38106215,0.194812129 1.57945484,4.76540439 0.187480006,11.1542432 L0.177207129,11.1167793 Z" id="Path"></path>
                            </g>
                            <g id="Group" transform="translate(49.000000, 0.000000)" fill="#212121">
                                <path d="M21.9017773,27.9037022 C21.8678332,27.7573137 21.8495556,27.608357 21.8495556,27.4568321 C21.8495556,27.3078754 21.8678332,27.1589187 21.9017773,27.0125302 C21.9357214,26.8301866 21.953999,26.6427066 21.953999,26.4577948 C21.953999,25.7823531 21.7242236,25.1223208 21.3012279,24.5906994 C20.4891806,23.6892544 19.1235833,23.6224807 17.9120401,23.4555465 C16.7004969,23.2911805 15.3035666,22.8468785 14.9589035,21.6937481 C14.7056283,20.8642133 15.0868466,19.8523349 14.543741,19.1691885 C14.2930769,18.8918209 13.9693024,18.6863633 13.6089727,18.5784981 C13.0554228,18.3319491 12.4548734,18.2035381 11.8464907,18.2035381 C11.4887721,18.2035381 11.1310535,18.2497661 10.7863903,18.3370855 C9.17535116,18.8507294 8.2040277,20.7152565 6.52510032,20.9489645 C6.44937887,20.9618056 6.36843525,20.9695102 6.29010271,20.9695102 C6.11254896,20.9695102 5.93499521,20.930987 5.77310797,20.8590768 C5.13600334,20.5508905 5.11250358,19.6494455 4.62423076,19.1409381 C3.8565719,18.3422219 2.4021978,18.858434 1.46220736,18.2626071 C0.851213568,17.8773743 0.616215957,17.1197496 0.443884376,16.4263304 C0.112276636,15.075447 -0.156665074,13.6603582 0.167109412,12.3094749 C0.71543717,9.99807757 2.81213807,8.43403204 4.15162446,6.44366212 C5.40233396,4.60738535 6.1229933,2.28314692 7.97947443,1.06067455 C9.83595555,-0.159229594 12.2642642,0.123274524 14.3818538,0.742215366 C15.3583994,1.07865209 16.3610559,1.34061045 17.3793789,1.51268114 C19.0844171,1.7207069 20.7972885,1.26613209 22.5153822,1.20706305 C22.6302699,1.20449483 22.7503798,1.20192661 22.8652675,1.20192661 C25.1708552,1.20192661 27.4242212,1.91332335 29.2989799,3.23081983 C29.7428643,3.51846038 30.1214715,3.89598862 30.4086908,4.33772233 C30.693299,4.95923139 30.8604085,5.62953661 30.8995747,6.31268294 C31.1006282,7.59679257 31.557568,8.83210603 32.2338389,9.94671319 C32.761278,10.8173395 33.4323267,11.608351 33.9101552,12.5123642 C34.2783181,13.1236004 34.4715384,13.8247243 34.4715384,14.5335528 C34.4715384,14.8443073 34.4349832,15.1524936 34.3618729,15.4529753 C34.1999856,15.9614827 33.870989,16.4237622 33.7561012,16.9502471 C33.4767152,18.1624466 34.2887625,19.3207135 34.8449235,20.4378889 C35.3358074,21.3701524 35.5916937,22.4051448 35.5916937,23.4529783 C35.5916937,23.5505706 35.5890826,23.6507312 35.5838604,23.7483235 C35.5211944,24.9014539 34.9702556,25.980106 34.0668203,26.7223214 C33.1555518,27.3515351 32.0667295,27.69054 30.9517964,27.69054 C30.9256856,27.69054 30.8969636,27.69054 30.8708528,27.69054 C30.7559651,27.6931083 30.6384663,27.6956765 30.5235785,27.6956765 C29.2572025,27.6956765 27.9934376,27.4850825 26.7975609,27.0741674 C26.3954539,26.8969603 25.9567916,26.8019362 25.5129073,26.8019362 C25.4267415,26.8019362 25.3379646,26.8070726 25.2517988,26.8122091 C24.518084,26.9585976 24.6120831,27.4054677 24.2961419,27.9370891 C23.8731462,28.6947138 22.2359961,28.8333976 21.9017773,27.9037022" id="Path"></path>
                            </g>
                            <g id="Group" transform="translate(48.000000, 45.000000)" fill="#8BC34A">
                                <path d="M56.5235881,15.3790362 C55.0704108,32.0543535 44.0858669,42.5954551 44.0858669,42.5954551 C44.0858669,42.5954551 31.4608941,48.0893675 25.787964,47.2063707 C20.1176713,46.3233738 12.2082722,44.7193499 10.2118017,44.6148532 C7.02325099,44.4920697 0.332305529,42.5301447 0.203075601,41.9005522 C0.0738456732,41.2683474 1.8619659,31.9838183 1.09449837,31.2915278 C1.09449837,31.2915278 10.0192754,31.6546538 10.9133356,32.2764089 C11.810033,32.8955517 13.0838709,32.4540533 14.0385899,32.2764089 C14.993309,32.0987646 17.9286745,29.5647204 23.7281972,31.7826622 C23.7281972,31.7826622 25.719393,31.9707562 26.4710365,31.4665597 C27.22268,30.9649757 28.459595,31.3385513 28.459595,31.3385513 C28.9501412,31.1739691 29.4169514,30.9388516 29.8442014,30.6436485 C30.0314529,30.3928565 31.5637506,30.6436485 31.5637506,30.6436485 C31.6560577,30.690672 31.7589142,30.7141837 31.8617706,30.7141837 C32.1756148,30.7141837 32.444624,30.502578 32.5184697,30.20215 C32.7241826,29.6848915 33.0274773,29.2120441 33.4151671,28.8123443 C33.8028569,28.4126446 35.1373537,19.2117128 38.3892007,15.6157211 C38.3892007,15.6157211 39.3491944,14.7928098 39.0907346,13.7825883 C38.8322747,12.7723667 44.3944363,-1.61107741 52.0453755,0.409104463 C52.0453755,0.409104463 57.9741282,-1.29575871 56.5235881,15.3790362 Z" id="Path"></path>
                            </g>
                            <g id="Group" transform="translate(46.000000, 87.000000)" fill="#6A1B9A">
                                <path d="M0.0554166434,23.1653981 L4.19055379,36.2540377 L4.83972019,38.3072243 L6.82944157,37.7739767 L11.170412,36.5894761 L30.5029038,31.3234593 C32.9306806,31.21906 35.3135963,30.5892626 37.4722065,29.4829961 C40.6203996,27.7385593 44.1749814,26.818066 47.782341,26.818066 C48.3497019,26.818066 48.9223405,26.843708 49.4870625,26.8871423 C52.0415059,27.1239377 54.883588,26.0333704 57.2427537,21.7098256 C57.2427537,21.7098256 62.597057,6.02533221 49.0727571,1.53406821 C35.5510962,-2.95693414 34.9072075,3.92295492 34.9072075,3.92295492 L34.7251243,4.03651207 C34.2263745,4.36724075 32.732764,5.40861743 32.6720696,6.67684677 C32.6140141,8.22661412 29.1887377,6.78543253 27.3863774,7.66406139 C25.584017,8.54269026 16.836104,19.6464345 15.3029102,19.5676771 C13.7670775,19.4886581 12.5584669,18.797634 11.922495,19.8735488 L11.8776339,19.9426251 C11.405273,20.5891682 9.98027358,20.7370019 9.04610731,20.7668302 L8.15944101,20.7668302 L8.04069106,20.8013684 L7.04319148,21.0925875 L0.0554166434,23.1653981 Z" id="Path"></path>
                            </g>
                            <g id="Group" transform="translate(49.532373, 80.224065) scale(-1, 1) rotate(170.910853) translate(-49.532373, -80.224065) translate(48.032373, 75.724065)" fill="#000000" fill-opacity="0.1">
                                <path d="M0.710632294,0.0203715456 L2.71289993,0.0203715456 L2.23591994,8.22868017 C2.23591994,8.22868017 1.32127151,8.21740502 0.16289154,8.29737991 C0.634629988,7.22099648 0.663458449,2.75734846 0.710632294,0.0203715456" id="Path"></path>
                            </g>
                            <g id="Group" transform="translate(54.000000, 108.000000)" fill="#6A1B9A" fill-opacity="0.1">
                                <path d="M0.196239324,0.526183041 L8.54556844,10.6338165 C8.58219978,10.6042498 8.60051545,10.5843642 8.60051545,10.5746831 C8.66592856,10.3870783 9.48490067,8.23524865 9.29651092,8.10703896 C9.11073769,7.97856762 7.65333364,4.81492806 4.74114207,3.48756527 C3.26542235,2.76383464 2.02518983,1.63297283 1.16696985,0.23025414 L0.196239324,0.526183041 Z" id="Path"></path>
                            </g>
                            <g id="Group" transform="translate(54.000000, 115.000000)" fill="#000000" fill-opacity="0.1">
                                <path d="M0.30874987,11.2332622 L1.22191686,11.7612768 C1.22191686,11.7612768 3.34130156,10.0587045 5.45283669,8.34618929 C7.56437182,6.63341246 9.60264426,4.96066846 9.63665908,4.89133057 C9.69683914,4.70398743 10.5210443,2.55215782 10.3274215,2.42368648 C10.2306101,2.35958163 9.79626706,1.48095277 9.00084367,0.449518879 C3.33606851,-1.13949634 6.94425555,2.79392467 7.42046298,2.97158667 C7.42046298,2.97158667 0.512838767,1.39225259 0.146525362,8.89382783 C0.136059265,9.07750783 0.128209692,9.26615924 0.128209692,9.45167081 C0.128209692,10.049285 0.191006276,10.6479457 0.30874987,11.2324773 L0.30874987,11.2332622 Z" id="Path"></path>
                            </g>
                            <g id="Group" transform="translate(54.000000, 114.000000)" fill="#558B2F">
                                <path d="M19.8281382,15.7772391 C21.1702399,16.6271399 22.6023292,17.3471537 24.0755558,17.909371 C27.3240944,7.10136003 28.8590268,1.32988882 28.6803529,0.594957377 C28.4772379,-0.199660933 15.3184709,2.22095952 13.8889526,2.48422212 C12.4568633,2.74721636 6.86477295,2.80303554 7.36099062,2.99545072 C7.36099062,2.99545072 0.570778874,1.37535253 0.215970385,9.06954421 C-0.136267029,16.7637359 6.65137364,14.7394853 6.65137364,14.7394853 L19.8281382,15.7772391 Z" id="Path"></path>
                            </g>
                            <g id="Group" transform="translate(78.000000, 114.000000)" fill="#565387">
                                <path d="M0.092987249,8.81513753 C0.23387702,12.085122 2.90796488,16.1448943 4.50283709,18.290981 C5.51160785,18.290981 6.28931939,18.2252324 6.28931939,18.2252324 C6.28931939,18.2252324 5.6665866,2.43215999 5.22701051,0.771807585 C5.00158688,-0.0228107249 3.89701107,0.154307845 2.81215983,0.549067566 C1.46807142,2.90286601 -0.0253601588,6.18277988 0.092987249,8.81513753" id="Path"></path>
                            </g>
                            <g id="Group" transform="translate(78.000000, 114.000000)" fill="#000000" fill-opacity="0.1">
                                <path d="M0.092987249,8.81513753 C0.23387702,12.085122 2.90796488,16.1448943 4.50283709,18.290981 C5.51160785,18.290981 6.28931939,18.2252324 6.28931939,18.2252324 C6.28931939,18.2252324 5.6665866,2.43215999 5.22701051,0.771807585 C5.00158688,-0.0228107249 3.89701107,0.154307845 2.81215983,0.549067566 C1.46807142,2.90286601 -0.0253601588,6.18277988 0.092987249,8.81513753" id="Path"></path>
                            </g>
                            <g id="Group" transform="translate(76.000000, 114.000000)" fill="#558B2F">
                                <path d="M0.353230784,9.22868256 C1.19051857,12.3821982 1.18266899,15.9205441 2.52494597,18.0615319 C2.72380182,18.1259387 2.92789072,18.173707 3.13459614,18.2032268 C3.88030557,18.2603878 4.63124805,18.2928595 5.37957401,18.2928595 C5.76420308,18.2928595 6.15668173,18.2818567 6.53607776,18.2676336 C7.47540999,18.2676336 8.19495418,18.2016166 8.19495418,18.2016166 C8.19495418,18.2016166 7.61931883,2.40854418 7.20852451,0.748460137 C7.00181909,-0.0464265341 5.97352503,0.130692035 4.96877969,0.525720118 C4.20998764,0.841313205 3.47736083,1.22319158 2.78136536,1.66062077 C2.08536989,2.09804996 -0.724777237,5.18930573 0.353230784,9.22868256" id="Path"></path>
                            </g>
                            <g id="Group" transform="translate(83.735699, 16.147534) scale(-1, 1) rotate(-20.338555) translate(-83.735699, -16.147534) translate(83.235699, 15.647534)" fill="#000000" fill-opacity="0.01">
                                <path d="M0.582691281,0.0876846754 C0.538736699,0.140768834 0.494782118,0.187954753 0.538736699,0.246937152 C0.524085172,0.459273788 0.546062463,0.677508663 0.582691281,0.889845299 C0.648623152,0.624424504 0.641297389,0.35310547 0.582691281,0.0876846754 L0.582691281,0.0876846754 Z" id="Path"></path>
                            </g>
                            <g id="Group" transform="translate(49.000000, 11.000000)" fill="#000000" fill-opacity="0.01">
                                <path d="M0.154053989,1.43305024 C0.266330625,0.979519362 0.433440038,0.539406553 0.644937887,0.123446276 C0.610993788,0.233474478 0.582271858,0.346186295 0.550938843,0.461581727 C0.229775442,1.87584667 0.496106067,3.35183475 0.832935976,4.76073246 C1.00526756,5.48799204 1.24026517,6.27965837 1.85125896,6.68220058 C2.7912494,7.29943196 4.2456235,6.76539263 5.01328236,7.5999968 C5.50677734,8.10451636 5.50677734,9.07330127 6.16215957,9.39533503 C6.32404681,9.47047624 6.50160056,9.51073046 6.67915431,9.51073046 C6.75748685,9.51073046 6.83843047,9.50267962 6.91415192,9.48657793 C8.59046821,9.24505261 9.56440276,7.29674834 11.1754419,6.7600254 C11.5201051,6.6687825 11.8778237,6.62047744 12.2355423,6.62047744 C12.843925,6.62047744 13.4444744,6.75465818 13.9980243,7.01228519 C14.358354,7.124997 14.6821285,7.33968618 14.9327926,7.62951656 C15.470676,8.34335807 15.0946799,9.40070226 15.3427329,10.2675098 C15.6926182,11.4724528 17.0895485,11.9474526 18.2958695,12.1084695 C19.5021906,12.27217 20.87301,12.3526784 21.6850573,13.2946272 C22.108053,13.8501354 22.3378284,14.5398244 22.3378284,15.2456151 C22.3378284,15.4388353 22.3195508,15.6347392 22.2856067,15.8252758 C22.2490516,15.9755583 22.230774,16.1312079 22.230774,16.2868576 C22.230774,16.4451908 22.2490516,16.6008405 22.2856067,16.7511229 C22.6198256,17.7225914 24.2569756,17.5803598 24.6851935,16.812846 C25.0011347,16.2546542 24.9019135,15.8011233 25.6408504,15.6320556 C25.7191829,15.6266883 25.8027377,15.6240047 25.8836813,15.6240047 C26.3327878,15.6240047 26.7766722,15.7206149 27.1866125,15.9111515 C28.377267,16.3297954 29.6331987,16.5444846 30.8943526,16.5444846 C31.0170735,16.5444846 31.1424056,16.5418009 31.2651266,16.5391173 C31.2912374,16.5391173 31.3173483,16.5391173 31.3460702,16.5391173 C32.4610033,16.5391173 33.5498256,16.1848802 34.4610941,15.5273946 C34.8684233,15.1946264 35.2052532,14.7759825 35.4454729,14.3009827 C35.231364,15.1651066 34.7535355,15.935304 34.0824868,16.4988631 C33.1686072,17.1563487 32.082396,17.5105859 30.9648518,17.5105859 C30.938741,17.5105859 30.9100191,17.5105859 30.8865193,17.5105859 C30.7872981,17.5105859 30.6880769,17.5132695 30.5914667,17.5132695 C29.2989799,17.5132695 28.0143263,17.2851622 26.7975609,16.8423658 C26.3954539,16.6545128 25.9567916,16.5579026 25.5129073,16.5579026 C25.4267415,16.5579026 25.3379646,16.5605863 25.2517988,16.5686371 C24.518084,16.7216031 24.6120831,17.1858685 24.2961419,17.7440603 C23.867924,18.5115741 22.230774,18.6591729 21.8965551,17.6877044 C21.862611,17.5347384 21.8443335,17.3790887 21.8443335,17.2207555 C21.8443335,17.0651058 21.862611,16.9094562 21.8965551,16.7564901 C21.9304992,16.5659535 21.9487768,16.3700496 21.9487768,16.1768294 C21.9487768,15.4710387 21.7190014,14.7813497 21.2960057,14.2258415 C20.4839584,13.2838927 19.1183612,13.2141187 17.9068179,13.0396838 C16.6952747,12.8679324 15.2983445,12.4036671 14.9536813,11.1987241 C14.7030172,10.3319166 15.0816244,9.27457237 14.5385188,8.56073086 C14.2878547,8.27090047 13.9640802,8.0562113 13.6037506,7.94349948 C13.0502006,7.68587247 12.4496512,7.55169174 11.8412685,7.55169174 C11.4835499,7.55169174 11.1284424,7.5999968 10.7811682,7.6912397 C9.17012899,8.22796264 8.19619444,10.1762669 6.51987815,10.4177922 C6.4441567,10.4338939 6.36582417,10.4419448 6.28488054,10.4419448 C6.10732679,10.4419448 5.92977304,10.4016905 5.7678858,10.3265493 C5.13078117,10.0045156 5.10728141,9.06256681 4.61900859,8.5312111 C3.85134973,7.69392332 2.39958671,8.23601348 1.45698519,7.61341488 C0.848602483,7.21087267 0.610993788,6.41920634 0.438662207,5.69731399 C0.0992212134,4.32598688 -0.167109412,2.84731519 0.154053989,1.43305024" id="Path"></path>
                            </g>
                        </g>
                    </g>
                </g>
            </g>
        </g>
    </g>
</svg>