<?xml version="1.0" encoding="UTF-8"?>
<svg width="318px" height="226px" viewBox="0 0 318 226" version="1.1" xmlns="http://www.w3.org/2000/svg" xmlns:xlink="http://www.w3.org/1999/xlink">
    <!-- Generator: Sketch 64 (93537) - https://sketch.com -->
    <title>Integration2</title>
    <desc>Created with Sketch.</desc>
    <g id="Landing" stroke="none" stroke-width="1" fill="none" fill-rule="evenodd">
        <g transform="translate(-859.000000, -3297.000000)" id="Integration">
            <g transform="translate(-475.000000, 3264.000000)">
                <g id="Right" transform="translate(1242.000000, 33.000000)">
                    <g id="Integration2" transform="translate(92.000000, 0.000000)">
                        <g id="Group" transform="translate(20.000000, 22.000000)" fill="#DCEDC8">
                            <path d="M272.607088,118.971141 C262.414696,132.907042 265.77928,152.797492 271.670009,168.64393 C273.64401,173.948849 275.885061,179.559407 274.862574,185.330574 C273.612734,192.38662 267.738847,197.67356 261.633997,200.552551 C250.504526,205.799939 237.357748,204.96213 227.402332,198.350758 C218.811035,192.643116 212.763926,183.159944 204.005422,177.725578 C189.348971,168.633143 170.319885,172.695134 154.008209,179.637314 C142.467337,184.5479 129.824585,190.871613 118.57843,186.337382 C110.664379,183.146759 105.334214,175.025175 102.531397,166.342655 C101.176902,162.151217 100.228996,157.601404 97.5323973,154.31969 C95.9287766,152.369599 93.8095819,151.010408 91.6304815,149.874153 C71.7432278,139.498038 46.1624052,145.982361 26.8816668,134.406466 C13.8648047,126.588123 5.76309813,111.415287 2.39683004,95.4645726 C-0.969438056,79.5138578 -0.136291515,62.6770321 1.20448979,46.1273864 C2.15732747,34.3663112 3.66459374,21.7983514 10.7614962,12.5559741 C18.2670326,2.7819063 30.8466312,-1.10401288 42.0959139,0.429091967 C53.3451966,1.96219681 63.4281222,8.19541685 72.253509,15.6142731 C83.2840998,24.8878135 93.4399228,36.526993 107.167474,40.0444685 C116.516614,42.4412707 126.447971,40.7447993 136.16641,39.9950869 C152.411926,38.7448472 168.599701,40.1844627 184.688836,41.810937 C200.089898,43.3672943 215.599222,45.1052366 230.185903,50.2077155 C240.508211,53.8185603 248.690513,60.64328 258.408953,65.3073179 C264.742358,68.3473986 271.712111,69.0526436 277.673812,72.9803932 C285.030908,77.8178658 291.67948,86.3889179 289.52143,96.6739407 C287.483674,106.448368 278.017849,111.575897 272.607088,118.971141" id="Path"></path>
                        </g>
                        <g id="Group" transform="translate(98.000000, 0.000000)" fill="#FFECB3">
                            <path d="M140.356133,118.907455 C154.651658,108.940143 168.562534,98.4463422 182.087562,87.4260523 C186.716532,83.6578783 191.370666,79.74459 194.562894,74.696772 C200.254742,65.6996869 200.536338,54.0473703 197.377663,43.880976 C195.391668,37.4865032 185.761055,12.2935091 166,9 C142,5 143.41516,22.5546446 123,25 C102.58484,27.4453554 61,-24 16,15 C-29,54 35.1528134,32.8666825 36.2636224,40.6380917 C37.2282408,47.410491 41.4689669,53.2882188 43.0554946,59.9418882 C45.1285254,68.633154 42.5078789,77.802937 43.6989729,86.6609043 C45.4149152,99.5664805 55.1773328,110.255766 66.589787,116.489683 C75.9459863,121.605861 86.5831509,124.428993 97.023797,126.344262 C105.667018,127.928526 114.468412,131.015502 123.191917,128.313499 C129.450553,126.376643 134.978236,122.654042 140.356133,118.907455 Z" id="Path"></path>
                        </g>
                        <g id="Group-8" transform="translate(0.000000, 72.000000)">
                            <g id="Group-3">
                                <g id="Group" transform="translate(19.000000, 0.000000)" fill="#9C27B0">
                                    <path d="M9.77175688,32.3130303 C9.70779466,32.3130303 9.64453791,32.2824748 9.60456153,32.2250305 C9.43807164,31.9854756 9.18716104,31.602921 8.87264096,31.0847001 C8.88910182,31.0847001 8.90509238,31.0847001 8.9207302,31.0847001 L8.92931336,31.0847001 L8.97599167,31.0847001 C8.97975415,31.0859223 8.98304633,31.0859223 8.98622092,31.0847001 C9.0949802,31.0847001 9.18539738,30.9954781 9.19045321,30.8818117 C9.19574421,30.7644786 9.10814889,30.6642567 8.99492166,30.6593678 L8.92802001,30.6581456 C8.832547,30.6581456 8.73366423,30.6679233 8.63231234,30.6850344 C8.47275954,30.4161462 8.30086108,30.1179247 8.11814549,29.7940366 C8.14742231,29.79037 8.17611125,29.7891477 8.20432987,29.7891477 L8.21138453,29.7891477 L8.23101999,29.79037 C8.23231334,29.79037 8.23384185,29.7891477 8.2351352,29.7891477 C8.34671635,29.7891477 8.43748625,29.6962591 8.43924992,29.5801483 C8.43995538,29.5422595 8.43078433,29.5055929 8.41420589,29.4738152 C9.10838405,30.7168121 9.65476716,31.5686989 9.93683583,31.9756978 C10.0031496,32.0710309 9.98269109,32.2042528 9.89098056,32.2726971 C9.85453151,32.2995859 9.81326177,32.3130303 9.77175688,32.3130303 Z M8.4089149,29.4652597 C8.37352404,29.4041487 8.31026729,29.3650377 8.23772191,29.3638155 L8.21009117,29.3625933 C8.10591742,29.3638155 8.00139093,29.3760377 7.89768749,29.3968154 C7.51003413,28.6915949 7.08181651,27.8751525 6.63208219,26.9548215 C6.64184113,26.9731548 6.65465708,26.9914881 6.67064764,27.0073769 C6.71062402,27.0464879 6.76153512,27.0660434 6.81279896,27.0660434 C6.86653192,27.0660434 6.92061762,27.0440435 6.96071158,26.9988214 C6.98363921,26.974377 7.01914765,26.9401549 7.06582596,26.9010439 C7.19375039,27.1601543 7.32002873,27.4119315 7.44383795,27.6551531 C7.40515491,27.6502642 7.37199803,27.6453753 7.34448487,27.6404865 C7.33343258,27.6392642 7.32190997,27.638042 7.31085768,27.638042 C7.21244523,27.638042 7.12567296,27.7125974 7.10956482,27.8177082 C7.0913403,27.9338191 7.16764816,28.0425966 7.2792293,28.0621521 C7.36541369,28.0768187 7.49886426,28.0939298 7.67064514,28.095152 C7.9301389,28.5938174 8.17763976,29.0509274 8.4089149,29.4652597 Z M6.62667362,26.9438215 C6.38563953,26.4512672 6.13884415,25.9293796 5.88781597,25.3781588 C6.0146822,25.2864923 6.08840336,25.2314925 6.0892264,25.2302703 C6.16776824,25.1716037 6.19410562,25.0664929 6.15906749,24.9772709 C6.4021004,25.5162695 6.64160597,26.0271572 6.87593813,26.5123782 C6.78834282,26.5832669 6.71685564,26.6480445 6.66324025,26.7054888 C6.60304052,26.7714886 6.59151791,26.8668217 6.62667362,26.9438215 Z M5.71109683,24.9870486 C5.59293134,24.7230493 5.4745307,24.4541611 5.35554217,24.1791618 C5.39857557,24.180384 5.44125624,24.1816062 5.48311386,24.1828284 C5.4860533,24.1828284 5.48852243,24.1840507 5.4913443,24.1840507 C5.60080904,24.1828284 5.69169653,24.0923842 5.69545901,23.9774956 C5.69663479,23.9481624 5.69157895,23.9200513 5.68205517,23.8943847 C5.83902126,24.258606 5.99551705,24.6142718 6.15036675,24.9577154 C6.14613396,24.9491598 6.14131328,24.9418265 6.13555197,24.933271 C6.09510528,24.8758267 6.03231884,24.844049 5.96835663,24.844049 C5.92720446,24.8452712 5.88546442,24.8574934 5.84901536,24.8856045 C5.84901536,24.8856045 5.79951519,24.922271 5.71109683,24.9870486 Z M5.67288411,23.8723848 C5.64043269,23.8063849 5.57458924,23.7599406 5.49792864,23.7574962 C5.39199122,23.7526073 5.28287921,23.7489406 5.17094533,23.7464962 C5.0577181,23.4800524 4.94496118,23.2074975 4.83173395,22.9300538 C4.8655963,23.0070536 4.93955261,23.0547201 5.01879992,23.0547201 C5.03972873,23.0547201 5.06148059,23.0510535 5.0824094,23.0437202 C5.08264455,23.0437202 5.16024577,23.0168313 5.29416666,22.970387 C5.42056258,23.2783862 5.5469585,23.5790522 5.67288411,23.8723848 Z M4.827266,22.9190538 C4.68840686,22.5780547 4.54954771,22.2297222 4.41104129,21.8740564 C4.36353994,21.7506123 4.31556828,21.6271682 4.26806693,21.5012796 C4.28005985,21.5293906 4.29734375,21.5550572 4.3207417,21.5758349 C4.35977746,21.6125015 4.40833701,21.6296126 4.45619109,21.6296126 C4.51333381,21.6283904 4.56988863,21.603946 4.60986502,21.5562794 C4.6304411,21.5318351 4.65936519,21.5012796 4.69628456,21.4670574 C4.72803051,21.5501683 4.75989404,21.632057 4.79175757,21.7139457 C4.90533753,22.0072783 5.0193878,22.2944998 5.13343808,22.5768324 C5.01950538,22.6159435 4.95448497,22.6391656 4.95401466,22.6391656 C4.84666631,22.6758322 4.78799508,22.7956097 4.82350352,22.9080538 C4.82432656,22.9117205 4.82561992,22.9153872 4.827266,22.9190538 Z M4.26265836,21.4878352 C4.13661517,21.1566138 4.01127745,20.8205035 3.88688035,20.4782821 C3.96530461,20.4000601 4.04231794,20.3181714 4.11709729,20.2338383 C4.16977206,20.1739496 4.18399895,20.0920609 4.15989554,20.0199499 C4.28488053,20.3682824 4.41057098,20.711726 4.53708448,21.0478363 C4.43973023,21.1309472 4.36071808,21.2067248 4.3018117,21.275169 C4.25125333,21.3350578 4.23867253,21.4169465 4.26265836,21.4878352 Z M3.72979667,20.0395055 C3.55225449,19.54084 3.37682871,19.0287302 3.20504784,18.5056204 C3.24502422,18.5117315 3.28558849,18.5178426 3.32662308,18.5251759 C3.3380281,18.5263981 3.34919798,18.5276203 3.36025027,18.5276203 C3.45866272,18.5263981 3.54531742,18.4518428 3.56189586,18.3479541 C3.56671654,18.3161764 3.56460014,18.285621 3.55672244,18.2562877 C3.75295946,18.8563973 3.95354685,19.4418403 4.15660337,20.0101722 C4.14555107,19.9820612 4.12826716,19.9551723 4.10510438,19.9331724 C4.06524557,19.8952836 4.01562782,19.8757281 3.96553976,19.8769503 C3.91051345,19.8769503 3.85560471,19.9001725 3.81515801,19.9453946 C3.78693939,19.9771723 3.75836803,20.00895 3.72979667,20.0395055 Z M3.55002052,18.23551 C3.52450618,18.1682879 3.46607011,18.1157325 3.39223138,18.1035103 L3.39176107,18.1035103 C3.27653502,18.0839548 3.16565934,18.0680659 3.05866372,18.0546215 C2.85701814,17.4251787 2.66019323,16.7798469 2.47007025,16.1186264 C2.49076391,16.183404 2.54002892,16.2359594 2.60693058,16.2567371 C2.72356756,16.2921815 2.84255609,16.3190703 2.96248525,16.339848 C3.1527258,16.9876242 3.34931555,17.6195115 3.55002052,18.23551 Z M2.46630777,16.1064042 C2.20481518,15.1970731 1.9559034,14.259631 1.72345248,13.2928557 C1.76037185,13.3026334 1.79693848,13.3136334 1.83385785,13.3258556 C1.85384604,13.3319667 1.87477485,13.3344111 1.8949982,13.3344111 C1.98235836,13.3344111 2.06301659,13.2757446 2.09017702,13.1840782 C2.100759,13.1486338 2.10193478,13.1119672 2.09476255,13.0777451 C2.20022966,13.5201884 2.30945925,13.9565207 2.4215107,14.3867418 C2.31768968,14.4942971 2.22809555,14.6018524 2.15613805,14.7106299 C2.09288131,14.8084074 2.11710229,14.9404071 2.21128195,15.0064069 C2.24655523,15.0320735 2.28676677,15.0442957 2.32662558,15.0442957 C2.39176357,15.0430735 2.45607852,15.0100736 2.49570217,14.9501848 C2.51204545,14.9245182 2.53003483,14.8988516 2.55002302,14.8719628 C2.64126324,15.2105175 2.73367923,15.5454056 2.82868193,15.876627 C2.79293834,15.8680714 2.75719475,15.8582937 2.72227421,15.8472937 C2.70263875,15.8411826 2.68335602,15.8387382 2.66395572,15.8387382 C2.57541978,15.8387382 2.4939385,15.8998491 2.46760112,15.9927378 C2.45701914,16.0306266 2.45713671,16.0697376 2.46630777,16.1064042 Z M2.09147037,13.0630785 C2.07324585,12.9970786 2.02339294,12.9396343 1.9548452,12.9176344 C1.84079493,12.8809678 1.72697981,12.8516345 1.61422289,12.8296346 C1.53062522,12.4715244 1.44996698,12.1109697 1.37189545,11.7455262 C1.40963786,11.7577484 1.44326506,11.7699706 1.47207157,11.7821928 C1.4971156,11.7919705 1.52251236,11.7968594 1.54755639,11.7968594 C1.62915525,11.7968594 1.70616857,11.744304 1.73791453,11.6611931 C1.75296446,11.6208598 1.75578632,11.5793044 1.74790862,11.5401934 C1.85760852,12.0547476 1.97236426,12.5631908 2.09147037,13.0630785 Z M1.74661527,11.5340823 C1.73203565,11.4693047 1.687121,11.4118604 1.62186543,11.3849715 C1.52321783,11.3446383 1.40622811,11.3104162 1.27371816,11.2810829 C1.09476505,10.416974 0.930626715,9.53575394 0.783537136,8.63375619 C0.801056198,8.73275595 0.885006606,8.80731131 0.985417877,8.80853353 C1.06219605,8.80731131 1.14379491,8.80975575 1.22950898,8.81342241 C1.38482899,9.74108676 1.55813837,10.6479734 1.74661527,11.5340823 Z M0.782243782,8.6276451 C0.723807714,8.26831266 0.668193509,7.90531357 0.615048433,7.54109226 C0.620457003,7.57164774 0.632097185,7.59975878 0.650674446,7.6266476 C0.690885986,7.6840919 0.753790003,7.7158696 0.817752218,7.71464738 C0.858786801,7.71464738 0.900644427,7.70120297 0.936975906,7.67431415 C0.96860428,7.65109198 1.00246663,7.62542538 1.03891569,7.600981 C1.07748114,7.86375812 1.1175751,8.12531302 1.15931515,8.38442348 C1.09946815,8.38197904 1.04161997,8.38197904 0.985065145,8.38197904 L0.984712412,8.38197904 C0.871485182,8.38197904 0.780244963,8.47731214 0.780127385,8.59464518 C0.780244963,8.60564515 0.781068006,8.61664512 0.782243782,8.6276451 Z M0.613049614,7.52642563 C0.562608823,7.17931538 0.514872317,6.82853848 0.47007525,6.47531714 C0.56225609,6.45576164 0.644207678,6.43253947 0.713931196,6.40687287 C0.819986192,6.36653964 0.874659777,6.24431772 0.835624013,6.13309578 C0.805053837,6.04631822 0.726159266,5.99376279 0.642444014,5.99376279 C0.619046071,5.99376279 0.595765706,5.99742945 0.572838074,6.00598499 C0.534272621,6.02187383 0.481480278,6.03654046 0.417518063,6.05120709 C0.393884965,5.85320759 0.370839755,5.65520808 0.348970321,5.45720858 C0.372720996,5.47431965 0.394472853,5.49143072 0.4146962,5.50854178 C0.452556188,5.54031948 0.49852903,5.55620833 0.543678829,5.55620833 C0.603525828,5.55620833 0.662432206,5.52809729 0.702878901,5.47676409 C0.736858828,5.4327642 0.751438451,5.37898655 0.747675967,5.32643113 C0.81422489,5.93876293 0.889474555,6.5425392 0.972837074,7.14020437 C0.870426983,7.20498199 0.777893411,7.26853738 0.696882444,7.32964834 C0.634213582,7.37609267 0.604819182,7.45187026 0.613049614,7.52642563 Z M0.745912303,5.3117645 C0.738387337,5.26043129 0.71322573,5.21154253 0.671720837,5.17732039 C0.569781056,5.09176505 0.44021054,5.00009861 0.291004563,4.90965439 C0.212933036,4.1384341 0.148735666,3.35621383 0.100058539,2.56299359 C0.109347169,2.65710447 0.178130066,2.7353265 0.271251526,2.75243756 C0.354614046,2.76588197 0.439152341,2.77565973 0.524748835,2.7805486 C0.581538817,3.63610202 0.655730283,4.48065547 0.745912303,5.3117645 Z M0.0987651852,2.54710474 C0.0523220326,1.78688442 0.0196354594,1.01933078 0.00270428483,0.241999395 C-0.000235155203,0.124666355 0.0898292875,0.0268888217 0.202586207,0.0244443833 L0.207054156,0.0244443833 C0.318282567,0.0244443833 0.409993096,0.116110821 0.412697381,0.232221642 C0.418576261,0.507220954 0.426689116,0.780998048 0.436565634,1.05355292 C0.31569586,1.1415527 0.210581484,1.22344139 0.12745412,1.28455234 C0.0357435908,1.35421884 0.0149323554,1.48744073 0.0812461226,1.58277382 C0.121457662,1.64021812 0.184361679,1.67199582 0.248323894,1.6707736 C0.289828787,1.6707736 0.331686414,1.65855141 0.36766516,1.63044037 C0.395531051,1.60966264 0.425278184,1.5876627 0.457376869,1.56321831 C0.46913463,1.82721765 0.483008787,2.08999477 0.49805872,2.35032746 C0.443267557,2.3466608 0.388946705,2.33932749 0.336859828,2.33077195 C0.325337223,2.32832751 0.314284929,2.32832751 0.303232634,2.32832751 C0.204349871,2.32832751 0.117577601,2.40288288 0.10146947,2.50677151 C0.0995882284,2.52021592 0.0987651852,2.53366033 0.0987651852,2.54710474" id="Shape"></path>
                                </g>
                                <g id="Group" transform="translate(19.000000, 2.000000)" fill="#9C27B0">
                                    <path d="M0.637352904,2.28253398 C0.582009127,2.28359217 0.52698281,2.28147578 0.472273952,2.27830118 C0.395237107,2.27406839 0.319152641,2.2656028 0.244126374,2.25396262 C0.16031706,2.23914784 0.0984124524,2.17142314 0.0900526849,2.08994187 C0.0896294056,2.08570907 0.0892061262,2.08041808 0.0888886667,2.07618529 C0.0888886667,2.0645451 0.0896294056,2.05290492 0.091322523,2.04126474 C0.105819841,1.95131787 0.183914884,1.88676777 0.272909371,1.88676777 C0.282856436,1.88676777 0.292803501,1.88676777 0.303173845,1.88888417 C0.350052035,1.89629156 0.398940802,1.90264075 0.448252848,1.90581534 C0.509628356,1.91110633 0.572379521,1.91428093 0.636294706,1.91428093 L0.638199463,1.91428093 C0.955553167,1.91322273 1.29798617,1.84549803 1.59449337,1.7312126 C1.8917413,1.61798537 2.14147613,1.45290642 2.2794652,1.27936188 C2.37205756,1.16401825 2.41607862,1.04973283 2.41607862,0.934389198 C2.41586698,0.865606302 2.40009982,0.791532413 2.36041738,0.708992937 C2.30951804,0.605289492 2.25237532,0.546030381 2.18994162,0.507935238 C2.12697881,0.470898294 2.0527991,0.452908921 1.95904272,0.452908921 C1.95650305,0.452908921 1.95417501,0.452908921 1.95163533,0.452908921 C1.7226412,0.453967119 1.39978486,0.587300119 1.10052635,0.762961056 C0.838093143,0.915341627 0.592062012,1.09311896 0.411639183,1.22433556 C0.382750366,1.24549953 0.355977946,1.2645471 0.330898644,1.28253648 C0.298517772,1.30687504 0.260845909,1.31745702 0.223491505,1.31745702 C0.165925511,1.31851522 0.109311896,1.29100206 0.0731215103,1.24126674 C0.0134391198,1.15872726 0.0321692317,1.04338363 0.114708708,0.983066325 C0.189523336,0.930156405 0.284126274,0.859257111 0.392909071,0.783066825 C0.544972183,0.676188786 0.724442633,0.554495968 0.915024167,0.443385135 C1.24401805,0.255025817 1.60348805,0.0878304683 1.9578787,0.0835976746 L1.95936018,0.0835976746 C2.10295771,0.0835976746 2.24888327,0.114285429 2.37872421,0.191533913 C2.5093059,0.268782397 2.61745377,0.391533413 2.69290332,0.549204976 C2.75417301,0.675130587 2.78528404,0.80634719 2.78518778,0.933331 C2.78623642,1.14920348 2.69935833,1.34708658 2.56729517,1.51110733 C2.43459709,1.67618629 2.2559732,1.81269388 2.0517409,1.92592111 C1.64295886,2.15025917 1.12793369,2.28041758 0.637352904,2.28253398" id="Path"></path>
                                </g>
                                <g id="Group" transform="translate(16.000000, 5.000000)" fill="#9C27B0">
                                    <path d="M2.21978986,1.83985431 C1.87800589,1.84079493 1.50800328,1.81539817 1.16960554,1.74673285 C0.832223669,1.67806753 0.520690056,1.56895551 0.304986892,1.37706887 C0.161184782,1.24914444 0.0696435649,1.07701083 0.0700931805,0.882302321 C0.0699821884,0.837152522 0.0749486662,0.790121481 0.084204375,0.74214982 C0.125064943,0.519222688 0.254419117,0.341445354 0.441565034,0.234214582 C0.627356456,0.12698381 0.850509338,0.0893589771 1.07930594,0.0884183563 C1.47312506,0.0884183563 1.90306403,0.195649129 2.29259392,0.331098526 C2.50524947,0.40634819 2.70402146,0.490063443 2.87547782,0.573778695 C3.01871556,0.644325256 3.14310325,0.713931196 3.24096544,0.779774653 C3.28081014,0.806112035 3.30496528,0.843736868 3.31218925,0.883242942 C3.31297937,0.887005425 3.31343087,0.890767908 3.31388237,0.894530392 C3.31749435,0.934977086 3.30349791,0.976364402 3.27087718,1.01022675 C3.23204836,1.04973283 3.17549823,1.0713671 3.11804511,1.0713671 C3.07470131,1.0713671 3.03056738,1.06007965 2.99422179,1.03562351 C2.97480738,1.02245482 2.9539256,1.00834551 2.93112495,0.995176818 C2.7498485,0.884183563 2.45750356,0.744971683 2.13976185,0.633978427 C1.78330418,0.507935238 1.38948506,0.416695019 1.08517542,0.416695019 C1.08359517,0.416695019 1.08201493,0.416695019 1.08043469,0.416695019 L1.07851582,0.416695019 C0.900851363,0.41763564 0.760886987,0.448676127 0.666523907,0.504172755 C0.572612325,0.559669383 0.504661878,0.638681531 0.472718395,0.794824586 C0.466397423,0.825865072 0.46380131,0.855024317 0.463914184,0.8813617 C0.465945925,0.995176818 0.50872536,1.07512959 0.594397103,1.15414174 C0.680294596,1.23221326 0.815066745,1.30275982 0.98584586,1.35731583 C1.32413073,1.46736847 1.79086678,1.51345889 2.21155003,1.51157764 C2.21380752,1.51157764 2.21617788,1.51157764 2.21854825,1.51157764 C2.22374047,1.51157764 2.22836833,1.51157764 2.23356055,1.51157764 C2.53279085,1.51157764 2.81305822,1.48524026 2.99693078,1.45231853 C3.05833451,1.4419717 3.10901516,1.42974363 3.14603799,1.41845618 C3.16804852,1.41187184 3.19039767,1.40810935 3.21285969,1.40810935 C3.29322633,1.40810935 3.36896512,1.44855605 3.39831249,1.51534013 C3.43578682,1.60093662 3.38330018,1.6949987 3.28148739,1.72603919 C3.21455281,1.74579223 3.13587929,1.76366402 3.04738568,1.77871395 C2.8233298,1.81633879 2.53628996,1.83797307 2.21978986,1.83985431" id="Path"></path>
                                </g>
                                <g id="Group" transform="translate(19.000000, 7.000000)" fill="#9C27B0">
                                    <path d="M2.42894631,2.26772928 C1.82371325,2.2687774 1.14104829,2.18623792 0.615956132,2.16401575 C0.533670623,2.16084116 0.455335722,2.15978296 0.381628676,2.15978296 C0.285233855,2.15978296 0.204641464,2.09417466 0.187823164,2.00846059 C0.187371666,2.00634419 0.187033042,2.00528599 0.186581544,2.0031696 C0.185452799,1.99364581 0.184662678,1.98412202 0.184549803,1.97459824 C0.184662678,1.87301119 0.272253288,1.79047171 0.380951429,1.79047171 L0.381290052,1.79047171 C0.435582685,1.79047171 0.491116938,1.79152991 0.548570057,1.79258811 C1.11576441,1.81057748 1.8252935,1.90052435 2.42262534,1.89840795 C2.42420558,1.89840795 2.42612445,1.89840795 2.42770469,1.89840795 L2.43289692,1.89840795 C2.69826486,1.89734975 2.93959053,1.87830218 3.12459184,1.83174145 C3.31297937,1.78412252 3.43409371,1.71322323 3.49640043,1.62750916 C3.53838974,1.57036644 3.56457663,1.49946715 3.56502812,1.39153091 C3.56480238,1.31428243 3.54899995,1.21798637 3.51118699,1.10264275 C3.42291913,0.833860349 3.28622812,0.674072389 3.11691637,0.570368944 C2.9468145,0.467723698 2.73246583,0.421162968 2.48515781,0.421162968 C2.48086858,0.421162968 2.47646647,0.421162968 2.47217724,0.421162968 C1.78939941,0.423279365 0.909316951,0.813754579 0.432986572,1.11428293 C0.397995478,1.1365051 0.365487622,1.15766906 0.335124383,1.17883303 C0.300246163,1.2021134 0.260062842,1.21375358 0.220669642,1.21375358 C0.159265916,1.21375358 0.0988780597,1.18729862 0.0602749816,1.1365051 C0.042440811,1.11428293 0.0312662358,1.08888617 0.0260740089,1.06243121 C0.0252838874,1.05819841 0.0249452639,1.05396562 0.0241551424,1.04973283 C0.0162539276,0.986240921 0.044472552,0.919574421 0.104634659,0.879362881 C0.182405188,0.827511159 0.271237417,0.771426643 0.369551104,0.715342127 C0.911574441,0.404231794 1.73115617,0.0592591111 2.48402906,0.05183732 C2.78325936,0.0507935238 3.07808754,0.107936238 3.3301363,0.26031681 C3.58263655,0.411639183 3.78039267,0.659257611 3.88818781,0.994706508 C3.93435348,1.13756329 3.95828287,1.2687799 3.95875032,1.39047271 C3.95975024,1.55978446 3.91223008,1.71533963 3.81967299,1.83809064 C3.72790602,1.96295806 3.59855185,2.05078852 3.45474974,2.11216403 C3.16567815,2.23385685 2.81136511,2.2656028 2.42894631,2.26772928" id="Path"></path>
                                </g>
                                <g id="Group" transform="translate(15.000000, 12.000000)" fill="#9C27B0">
                                    <path d="M1.21118367,2.37461653 C0.976203153,2.37565544 0.745213556,2.3333275 0.547723498,2.21375108 C0.349024071,2.09417466 0.201118167,1.90475714 0.104126724,1.65396412 C0.0605894177,1.54073689 0.0378532689,1.43068425 0.0374540363,1.32486441 C0.0349507819,1.07407139 0.165441763,0.855024317 0.362327137,0.695236357 C0.55921251,0.534390198 0.81789667,0.42010477 1.11165255,0.332274302 C1.6988015,0.158729762 2.43530759,0.0931214603 3.12924388,0.0910050635 C3.52797304,0.0899468651 3.91206883,0.111110833 4.24331517,0.147089579 C4.40875693,0.165078952 4.56077469,0.187301119 4.69634502,0.212697881 C4.83264098,0.238094643 4.95297326,0.268782397 5.05443937,0.302644746 C5.12155938,0.325925111 5.1677573,0.375660437 5.18275348,0.432803151 C5.18323723,0.434919548 5.18360004,0.435977746 5.18408379,0.437035944 C5.19218657,0.470898294 5.18928408,0.507935238 5.17380415,0.541797587 C5.14115117,0.614813278 5.06193746,0.659257611 4.97800721,0.659257611 C4.95224763,0.659257611 4.92612525,0.655024817 4.90036568,0.64655923 C4.87073612,0.635977246 4.83614815,0.625395262 4.79732739,0.615871476 C4.64857492,0.576718135 4.43669337,0.53968119 4.19094946,0.51322623 C3.88074616,0.479363881 3.51370248,0.459258111 3.13359761,0.46031631 L3.12803451,0.46031631 C2.63146734,0.461374508 2.11168028,0.499469651 1.66566477,0.583067325 C1.2178352,0.665606802 0.847042478,0.801056198 0.651003663,0.965076952 C0.520149871,1.07512959 0.460648886,1.18200763 0.459439517,1.32380621 C0.45968139,1.38518172 0.472621645,1.45502282 0.503581507,1.5343877 C0.582432406,1.7354454 0.67978666,1.84443983 0.78766243,1.91004813 C0.89590101,1.97565644 1.03050385,2.00528599 1.21275585,2.00528599 C1.21529553,2.00528599 1.21795614,2.00528599 1.22049581,2.00528599 C1.5554912,2.00422779 2.01904257,1.88570957 2.54693241,1.75766756 C3.08026441,1.62962556 3.68398172,1.49735075 4.32809198,1.49523436 C4.56283062,1.49523436 4.80337423,1.51216553 5.04657846,1.55343527 C5.16255701,1.57354104 5.27962399,1.5989378 5.39693284,1.63068375 C5.46743909,1.64973133 5.51871636,1.69840845 5.53745404,1.75660937 C5.5387919,1.75978396 5.54000127,1.76401675 5.54084783,1.76930775 C5.54822498,1.7978791 5.54701561,1.82962506 5.53613128,1.86137101 C5.50819485,1.93967769 5.42523209,1.99047121 5.33537593,1.99152941 C5.31457477,1.99152941 5.29304799,1.98835482 5.27248871,1.98306383 C5.2345145,1.97248184 5.19690311,1.96401625 5.1589289,1.95449247 C4.88065295,1.88994237 4.60382825,1.8645456 4.32942228,1.8645456 C4.32857572,1.8645456 4.32821291,1.8645456 4.32772917,1.8645456 C3.75025517,1.866662 3.18366551,1.98729662 2.65831535,2.11322223 C2.13090926,2.23808964 1.65115233,2.37142264 1.21408616,2.37461653 L1.21118367,2.37461653" id="Path"></path>
                                </g>
                                <g id="Group" transform="translate(20.000000, 13.000000)" fill="#9C27B0">
                                    <path d="M1.46394696,3.60069647 C1.27012028,3.60182521 1.07752817,3.58940902 0.888392841,3.56119039 C0.76246723,3.54200173 0.63752927,3.51716934 0.515060441,3.48443573 C0.444813703,3.46524707 0.393085437,3.41671103 0.371357096,3.3580163 C0.369999075,3.35350132 0.368641054,3.35011508 0.367406489,3.3456001 C0.357776883,3.31173775 0.357653427,3.27561791 0.36876451,3.24062682 C0.396418762,3.1548422 0.481974104,3.09840495 0.574936834,3.09840495 C0.595307154,3.09840495 0.615554017,3.10179119 0.636171249,3.10630617 C0.672837824,3.11646487 0.710368594,3.12549483 0.747899365,3.13339605 C0.97542966,3.18418957 1.21542906,3.20789321 1.46258894,3.20676447 L1.46777411,3.20676447 C2.37394468,3.20450698 3.37986809,2.8737847 4.21369317,2.43921789 C5.04912318,2.00803731 5.71652892,1.460596 5.93726911,1.10504133 C6.00109611,1.00571177 6.02368864,0.925570878 6.02220717,0.890579784 L6.01652817,0.86236116 C5.92998517,0.725783018 5.79825711,0.627582205 5.60813413,0.557600017 C5.41961608,0.488746574 5.1752957,0.453755479 4.89480258,0.454884224 L4.89183962,0.454884224 C4.88974086,0.454884224 4.88751865,0.454884224 4.88541989,0.454884224 C4.13381683,0.457141714 3.14320202,0.714495568 2.27863628,1.07569396 C1.46703337,1.41205996 0.759133905,1.8522705 0.455307504,2.20556768 C0.434319902,2.23040007 0.41543106,2.25410371 0.398270609,2.27780736 C0.356665775,2.33311586 0.28913508,2.36359197 0.220740189,2.36472072 C0.178888442,2.36472072 0.136666325,2.35343327 0.0996293806,2.33085837 C0.000740738889,2.26990614 -0.0246912963,2.14687294 0.0417282907,2.05657334 C0.117283657,1.95724378 0.211357496,1.85678548 0.320369569,1.75858467 C0.736911738,1.38158385 1.37876199,1.0215142 2.09999475,0.717881803 C3.01060976,0.338623492 4.03863188,0.0654672085 4.89060506,0.0609522286 C5.21060426,0.0609522286 5.5075171,0.0982008127 5.76702262,0.191886646 C6.0257874,0.285572478 6.24986092,0.441339285 6.39010748,0.665959534 C6.43381108,0.735941723 6.45307029,0.814953871 6.45294742,0.889451039 C6.45208264,1.0339304 6.39492228,1.1671223 6.3094904,1.3025717 C6.22393506,1.4380211 6.10504647,1.57572798 5.95899745,1.71907859 C5.66764015,2.00352233 5.26541894,2.30263975 4.79295098,2.57918226 C3.8485089,3.13113856 2.62814158,3.59618149 1.46394696,3.60069647" id="Path"></path>
                                </g>
                                <g id="Group" transform="translate(16.000000, 19.000000)" fill="#9C27B0">
                                    <path d="M1.94183328,3.98675756 C1.53031167,3.98785599 1.16564866,3.95737988 0.873084237,3.90884384 C0.578434768,3.85917906 0.364224055,3.80048433 0.217393147,3.71582845 C0.174814378,3.68986732 0.13454013,3.66277744 0.0958022296,3.60972643 C0.0549792864,3.55216043 0.0402742477,3.48330699 0.0408082029,3.42799848 C0.0434566815,3.3004503 0.0906444922,3.20450698 0.151659429,3.09501872 C0.213771756,2.9866592 0.297173468,2.87265596 0.398023696,2.74849401 C0.599285196,2.50242761 0.868804412,2.2236276 1.16246623,1.94708508 C1.75198465,1.39174255 2.42336843,0.8533312 2.84279125,0.63322593 C3.44438096,0.316048593 4.00602565,0.0270898794 4.92948013,0.0237036444 C4.9327723,0.0237036444 4.93672291,0.0237036444 4.94001508,0.0237036444 C5.1713451,0.0237036444 5.4248424,0.0395060741 5.70796927,0.0756259132 C5.80783185,0.0891708529 5.91131581,0.103844538 6.01886012,0.121904457 L6.01929908,0.121904457 C6.08821523,0.133191907 6.14275556,0.181727941 6.16656895,0.243808914 C6.16887347,0.249452639 6.17084877,0.256225109 6.17282407,0.262997579 C6.18017659,0.288958713 6.1821519,0.318306083 6.17765259,0.347653452 C6.16217938,0.443596775 6.08130167,0.512450218 5.98945005,0.513578963 C5.97913457,0.513578963 5.96870936,0.512450218 5.95806467,0.510192728 C5.91976572,0.504549003 5.88190573,0.497776533 5.84459444,0.492132808 C5.49759942,0.439081795 5.20130387,0.416506895 4.94122221,0.41763564 C4.08865919,0.423279365 3.6272063,0.665959534 3.01606928,0.984265617 C2.7154939,1.14003242 2.16822503,1.55879681 1.66265702,2.01480978 C1.15588188,2.46743651 0.676541519,2.97198552 0.496788881,3.26884544 C0.466281413,3.31738148 0.44608942,3.36027379 0.435005771,3.38849241 C0.450040027,3.39639363 0.469573586,3.40429484 0.491740883,3.41219606 C0.56844851,3.44154342 0.682577169,3.47314828 0.823262688,3.50023816 C1.10474347,3.55441792 1.49354908,3.59505274 1.94062615,3.59279525 C1.94293067,3.59279525 1.94567415,3.59279525 1.94786893,3.59279525 C3.27560224,3.58940902 5.10385555,3.22030941 6.33436002,1.9098365 C6.36102662,1.88161787 6.38769322,1.8522705 6.4140306,1.82292313 C6.45178085,1.78115957 6.50302901,1.75971341 6.55438691,1.75858467 C6.60113576,1.75858467 6.64744566,1.77664459 6.68464721,1.81163568 C6.70626581,1.83195309 6.72239746,1.85565674 6.73271293,1.88274662 C6.73392007,1.88613285 6.73501746,1.88839034 6.73578563,1.89177658 C6.75828214,1.95724378 6.74500371,2.03399844 6.6958406,2.08930695 C6.62604653,2.16719035 6.55416743,2.24281626 6.48097145,2.31505594 C5.14292267,3.63230132 3.28679562,3.98221227 1.94183328,3.98675756 Z" id="Shape"></path>
                                </g>
                                <g id="Group" transform="translate(23.000000, 19.000000)" fill="#9C27B0">
                                    <path d="M0.754566015,4.44913644 C0.678488604,4.44913644 0.607490545,4.40328117 0.57498269,4.32920728 C0.573515321,4.32567996 0.571822204,4.32215263 0.570693459,4.3186253 C0.569113216,4.31509797 0.567871596,4.31157064 0.567081475,4.30804332 C0.532993377,4.2010477 0.589317751,4.08464587 0.692372167,4.04937259 C0.692823665,4.04937259 0.755243262,4.02703285 0.86461865,3.98940802 C1.10978206,3.90475214 1.59006304,3.73779195 2.13614986,3.54496468 C2.92525547,3.26512999 3.85116498,2.92885805 4.38619009,2.71016371 C5.02607562,2.44914144 5.99724779,1.9412062 6.56218465,1.49323554 C6.75045931,1.34626354 6.89211681,1.20281886 6.95521365,1.10052635 C6.99291373,1.04291332 7.00025058,1.00293694 6.99900896,0.99705806 L6.99742871,0.99117918 C6.88319972,0.827746314 6.73397964,0.713696041 6.54243162,0.636094824 C6.35122222,0.559669383 6.11791063,0.52204455 5.85367143,0.523220326 C5.85175257,0.523220326 5.8502852,0.523220326 5.84825346,0.523220326 C5.15588129,0.525571878 4.26507576,0.792473034 3.40858407,1.16401825 C2.54881902,1.53556347 1.71896572,2.00704966 1.13246983,2.39975884 C0.824435329,2.60551965 0.579949167,2.79599536 0.444951269,2.9218034 C0.409508676,2.9559009 0.38174155,2.98411952 0.361988513,3.00763504 C0.323611184,3.05466608 0.269318551,3.0781816 0.214461545,3.0781816 C0.168521625,3.0781816 0.121904457,3.06172074 0.084430124,3.02762324 C0.061968099,3.00645927 0.0453755479,2.98176797 0.0338623492,2.9559009 C0.0318306083,2.9511978 0.0302503653,2.94649469 0.0286701223,2.94179159 C0.00564372487,2.87359658 0.0177212961,2.79599536 0.0662573299,2.73720656 C0.122807453,2.6713631 0.198659115,2.59846499 0.292119199,2.51851222 C0.451610864,2.38329798 0.663363421,2.22809555 0.91958853,2.05525647 C1.32446935,1.78365221 1.83466208,1.480302 2.39271359,1.19458843 C3.51050974,0.623161287 4.80777634,0.118753377 5.85242981,0.112850049 C6.15222448,0.111698721 6.43305623,0.152850882 6.68420198,0.253967619 C6.93500912,0.35390858 7.15556589,0.518517222 7.31686354,0.751320873 C7.36630257,0.821867434 7.39339245,0.911226411 7.39283672,0.994706508 C7.39237658,1.12169032 7.34553366,1.22868593 7.28435569,1.32627534 C7.22159747,1.42386475 7.1399892,1.51675106 7.04303001,1.61081314 C6.84899875,1.79658575 6.59243502,1.98470991 6.30584667,2.16813097 C5.73323434,2.53497309 5.04266817,2.88182701 4.53010508,3.09229092 C3.61841776,3.46501191 1.65462726,4.14813778 1.01891809,4.36918367 C0.890354035,4.41268738 0.815856867,4.43855445 0.815631118,4.43855445 C0.795539457,4.44560911 0.774657675,4.44913644 0.754566015,4.44913644" id="Path"></path>
                                </g>
                                <g id="Group" transform="translate(17.000000, 24.000000)" fill="#9C27B0">
                                    <path d="M0.990247965,3.76662198 C0.842946746,3.76662198 0.710319212,3.762107 0.595638723,3.75194829 C0.48061961,3.74066084 0.385240659,3.72598716 0.299343167,3.69663979 C0.243357416,3.67406489 0.183759682,3.65261873 0.126080814,3.57699282 L0.126532312,3.57812157 C0.0877034844,3.52507055 0.0746100428,3.46298958 0.0747221947,3.41445354 C0.0776576542,3.30270779 0.118292473,3.22821062 0.166941382,3.14129726 C0.217057658,3.05777013 0.283427863,2.96859928 0.364133128,2.87152721 C0.525092162,2.67964057 0.743278565,2.45614906 0.993408451,2.22137011 C1.49321673,1.7518122 2.11752557,1.23597575 2.63731263,0.861232415 C3.53522926,0.216719035 4.72571658,0.104973283 5.76517783,0.100458303 C5.95537135,0.0993295577 6.14048553,0.102715793 6.31860149,0.108359517 C6.42605801,0.110617007 6.53080554,0.115131987 6.63250546,0.118518222 C6.70609964,0.120775712 6.76930936,0.163668021 6.80046272,0.22462025 C6.8040747,0.23139272 6.80689656,0.238165189 6.80926693,0.244937659 C6.81840976,0.268641304 6.82326337,0.294602438 6.82213462,0.321692317 C6.81852264,0.427794345 6.73127065,0.511321473 6.62618449,0.512450218 C6.6234755,0.512450218 6.62110514,0.511321473 6.61828328,0.511321473 C6.57809996,0.510192728 6.53712651,0.509063983 6.49581445,0.507935238 C6.26385736,0.500034023 6.0184682,0.493261553 5.76641945,0.494390298 C5.75863111,0.494390298 5.75072989,0.494390298 5.7431673,0.494390298 C4.73666541,0.496647788 3.6328657,0.62419597 2.86791523,1.18066724 C2.44192688,1.48768588 1.93365301,1.90080654 1.4933296,2.29699602 C1.05357056,2.69092802 0.67713411,3.07921629 0.530397263,3.30270779 C0.52102868,3.31738148 0.512450218,3.33092642 0.505451999,3.34334261 C0.516852323,3.34447136 0.529381393,3.34672885 0.542813458,3.34898634 C0.648351113,3.36478877 0.802424802,3.37268998 0.985168613,3.37268998 L0.98911922,3.37268998 C0.993747075,3.37268998 0.998487804,3.37268998 1.00322853,3.37268998 C1.86084896,3.36930375 3.33386115,3.17628836 4.07138312,2.8862009 C4.88080614,2.57128105 6.11565314,1.75519843 6.67212441,1.36916765 C6.73646288,1.32401785 6.79199713,1.28564052 6.83714693,1.25403567 C6.92202855,1.19421218 6.96954871,1.16034983 6.96954871,1.16034983 C7.00453981,1.13551744 7.04461025,1.12310125 7.08411633,1.1219725 C7.14552006,1.1219725 7.20579504,1.15131987 7.24462386,1.20437089 C7.25015471,1.2122721 7.25478257,1.21904457 7.25884605,1.22694579 C7.26200654,1.23258951 7.26471552,1.23936198 7.26719876,1.24500571 C7.30083536,1.32740409 7.27555148,1.42447616 7.20015131,1.47865592 C7.19936119,1.47978466 7.12858888,1.53057818 7.0067973,1.6163628 C6.81818401,1.74729722 6.50732765,1.96063002 6.14342027,2.19540897 C5.54281507,2.58031101 4.80461585,3.02165029 4.21428223,3.25304301 C3.37912383,3.57473533 1.90035504,3.76097825 0.990247965,3.76662198" id="Path"></path>
                                </g>
                                <g id="Group" transform="translate(25.000000, 25.000000)" fill="#9C27B0">
                                    <path d="M1.17851557,3.37607622 L1.17678718,3.37607622 C1.16468845,3.37607622 1.15271317,3.37607622 1.14061443,3.37494747 C0.960244513,3.37381873 0.820121406,3.3580163 0.729627806,3.34447136 C0.612467605,3.32641144 0.532344348,3.22595313 0.551480103,3.11872236 C0.568393641,3.02277904 0.659504524,2.9539256 0.762837599,2.95279685 C0.774442508,2.95279685 0.786541244,2.9539256 0.798146153,2.95618309 C0.827034969,2.95956932 0.861849697,2.9640843 0.90246688,2.96859928 C0.975182747,2.9765005 1.06654054,2.98214422 1.17555262,2.98214422 C1.53690974,2.98101548 2.09061206,2.91103329 2.78419057,2.58143975 C3.4266581,2.27667861 4.55085282,1.75971341 5.22294991,1.29467048 C5.44640614,1.14228991 5.61726991,0.992166832 5.6952944,0.881549824 C5.74122021,0.818340106 5.75270167,0.773190307 5.75183747,0.757387877 L5.74010911,0.726911763 C5.67208459,0.641127145 5.58319592,0.581303661 5.46122091,0.538411352 C5.33998665,0.496647788 5.18529568,0.474072889 5.0048023,0.474072889 L5.00356774,0.474072889 C5.00097515,0.474072889 4.99875294,0.474072889 4.99665418,0.474072889 C4.46418637,0.475201634 3.72887957,0.679504474 3.01098013,0.962819462 C2.28875971,1.24613445 1.57802075,1.60733284 1.06987387,1.90645026 C0.828269534,2.04754338 0.629751512,2.1784778 0.505554292,2.27216363 C0.456542069,2.30941222 0.419258211,2.33988833 0.395184197,2.36359197 C0.353085537,2.40422679 0.296295556,2.4245442 0.239875944,2.4245442 C0.186048918,2.42567295 0.132592261,2.40761303 0.0906170574,2.37036444 C0.0738269759,2.35569076 0.0603702194,2.33988833 0.0501233315,2.32295716 C0.0479011148,2.31844218 0.0461727241,2.31618469 0.0444443333,2.31166971 C0.00753084537,2.24055877 0.0196295806,2.15364541 0.0828392991,2.09269318 C0.139135455,2.03851342 0.214196995,1.97868994 0.306172074,1.91322273 C0.445430985,1.81389317 0.624319427,1.70101868 0.837034944,1.57459924 C1.18900937,1.36803891 1.62937864,1.13551744 2.10592066,0.915412174 C3.06135037,0.477459124 4.14764395,0.086913363 5.00220972,0.0801408931 C5.22146843,0.0801408931 5.42788766,0.106102028 5.61504769,0.170440491 C5.80171389,0.235907699 5.96924434,0.343138472 6.08949095,0.496647788 C6.1494908,0.572273702 6.18307096,0.665959534 6.18246204,0.755130387 C6.18208331,0.883807314 6.127639,0.996681812 6.05517005,1.09826886 C5.98109616,1.19985591 5.88405936,1.29692797 5.76887447,1.3928713 C5.53949232,1.58588669 5.23739431,1.77777333 4.90640749,1.96627374 C4.2456684,2.34214582 3.46986787,2.69882923 2.98307896,2.93022195 C2.22875986,3.2902916 1.60073674,3.37494747 1.17851557,3.37607622" id="Path"></path>
                                </g>
                                <g id="Group" transform="translate(25.000000, 29.000000)" fill="#9C27B0">
                                    <path d="M0.254496718,2.36401525 C0.178835532,2.36401525 0.108147878,2.31745452 0.0809521786,2.24338063 C0.0399999,2.1322698 0.0211639683,2.01798437 0.0208465087,1.90475714 C0.0234920048,1.44549903 0.297988673,1.00528849 0.667194099,0.666665 C0.965817691,0.396824405 1.33248344,0.187301119 1.71110683,0.11322723 C1.80443993,0.0941796587 1.89851377,0.084655873 1.99227015,0.0835976746 L2.01713781,0.0835976746 C2.08242866,0.084655873 2.13935973,0.119576421 2.1712115,0.171428143 C2.17301044,0.17354454 2.17449192,0.176719135 2.1759734,0.17989373 C2.19089399,0.207406889 2.19914794,0.238094643 2.19851302,0.271956992 C2.19692572,0.372485841 2.11523281,0.452908921 2.01480978,0.452908921 C2.01364576,0.452908921 2.0122701,0.452908921 2.01110608,0.452908921 L1.99343417,0.452908921 L1.98708498,0.452908921 C1.96168822,0.452908921 1.93586818,0.453967119 1.90951904,0.456083516 C1.58412302,0.483596675 1.20772185,0.671955992 0.915659087,0.93968019 C0.595130787,1.22856836 0.385395862,1.60528699 0.390051935,1.90369894 C0.390051935,1.91533913 0.390475214,1.92803751 0.391215953,1.94073589 C0.623596325,1.85396362 0.954283329,1.70581584 1.29788035,1.56613365 C1.65629216,1.42116047 2.03025947,1.28253648 2.3722692,1.22751016 C2.4634859,1.21375358 2.55248039,1.20528799 2.6384061,1.20422979 L2.69861759,1.20528799 C2.8005221,1.21057898 2.87935788,1.29735125 2.87459599,1.3989383 C2.87004573,1.49735075 2.78867028,1.57459924 2.69078692,1.57459924 C2.68792979,1.57459924 2.68496683,1.57459924 2.6815806,1.57459924 L2.63957012,1.57354104 L2.63184527,1.57354104 C2.61777123,1.57354104 2.60337973,1.57354104 2.58856496,1.57459924 C2.28962391,1.58941402 1.85078902,1.73756179 1.43703344,1.90793174 C0.993859949,2.08676727 0.580950929,2.28359217 0.300634169,2.35766606 C0.285078652,2.36189886 0.269946415,2.36401525 0.254496718,2.36401525" id="Path"></path>
                                </g>
                                <g id="Group" transform="translate(0.000000, 38.000000)" fill="#8BC34A" fill-rule="nonzero">
                                    <path d="M41.4963668,11.5787256 C32.8004007,-3.33670309 16.3737751,-3.37329234 0.00929107783,8.98206953 C10.6083596,20.9101634 30.4081291,26.8978164 41.4963668,11.5787256" id="Path"></path>
                                </g>
                            </g>
                            <g id="Group" transform="translate(3.000000, 47.000000)" fill="#6A1B9A" fill-rule="nonzero">
                                <path d="M38.4427133,2.4369604 C35.2718934,2.41777173 29.6736104,1.82630937 23.4704917,1.24161947 C17.2636712,0.656929575 10.4410288,0.0801408931 4.75437891,0.0970720677 C3.20628608,0.101587048 1.74154473,0.150123081 0.395023998,0.253967619 C0.165508845,0.272027539 -0.00513483431,0.462785439 0.0139715259,0.679504474 C0.0324808124,0.896223509 0.233933498,1.05763404 0.463329236,1.03957412 C1.78166809,0.936858328 3.22539244,0.888322294 4.75688662,0.883807314 C10.384068,0.868004885 17.1886787,1.44140733 23.3879761,2.02496848 C29.5907366,2.60852963 35.1776751,3.20337823 38.4373396,3.22482982 C38.6673324,3.22595313 38.8550524,3.05099766 38.8564982,2.83427863 C38.8582766,2.61643085 38.6727061,2.43921789 38.4427133,2.4369604" id="Path"></path>
                            </g>
                            <g id="Group" transform="translate(26.000000, 22.000000)" fill="#FF6F00" fill-rule="nonzero">
                                <path d="M6.25106662,15.8281086 C10.6616761,10.5564181 8.5463567,4.42784078 1.83849468,0.00711109333 C-1.21546594,5.58102308 -0.87307141,13.7765582 6.25106662,15.8281086" id="Path"></path>
                            </g>
                            <g id="Group" transform="translate(19.000000, 27.000000)" fill="#558B2F" fill-rule="nonzero">
                                <path d="M15.0112685,15.1335918 C17.1603158,6.63465008 10.8979377,1.02162708 0.113153713,0.0284443733 C-0.212334752,8.0663502 5.15554267,17.0369944 15.0112685,15.1335918" id="Path"></path>
                            </g>
                            <g id="Group" transform="translate(31.000000, 14.000000)" fill="#FFC107" fill-rule="nonzero">
                                <path d="M9.74904088,33.8561755 C20.6958142,24.9701273 18.7473253,11.7325813 6.84363721,0.105654659 C-1.47009156,10.1477614 -3.90093557,26.853483 9.74904088,33.8561755" id="Path"></path>
                            </g>
                            <g id="Group" transform="translate(38.000000, 18.000000)" fill="#6A1B9A" fill-rule="nonzero">
                                <path d="M2.61830033,29.3698397 C2.24835417,26.4840934 2.06020649,21.5319208 1.83438695,16.1700883 C1.60740339,10.8034219 1.34147813,5.01863661 0.804548253,0.408451523 C0.777775833,0.177640159 0.592273652,0.015709674 0.390051935,0.0459205854 C0.187936038,0.0761314969 0.0459258111,0.288816314 0.0728040508,0.519627677 C0.604019654,5.07785 0.870685654,10.8493425 1.09692847,16.2099667 C1.32380621,21.5754245 1.50867348,26.521555 1.88761433,29.4918918 C1.91703224,29.7214947 2.10465082,29.8822168 2.3061318,29.8483805 C2.50793024,29.8145443 2.64761243,29.6006511 2.61830033,29.3698397" id="Path"></path>
                            </g>
                            <g id="Group" transform="translate(40.000000, 34.000000)" fill="#E1BEE7" fill-rule="nonzero">
                                <path d="M0.560739339,15.5294427 C9.56590201,16.8165506 14.845395,10.3976036 14.9390985,0.104296036 C6.56986012,0.502517262 -2.27221654,6.37035444 0.560739339,15.5294427" id="Path"></path>
                            </g>
                        </g>
                        <g id="Group-49" transform="translate(104.000000, 116.000000)">
                            <g id="Group" transform="translate(198.000000, 29.000000)" fill="#558B2F" fill-rule="nonzero">
                                <path d="M0.0877034844,1.52725164 C6.55287251,-2.33907976 12.494191,1.47904935 15.6515164,10.180832 C9.16501412,12.4222386 0.677924231,10.1681471 0.0877034844,1.52725164" id="Path"></path>
                            </g>
                            <g id="Group" transform="translate(184.000000, 0.000000)" fill="#558B2F" fill-rule="nonzero">
                                <path d="M0.95034056,10.4819151 C-1.37173868,6.230962 0.76488149,2.22971854 5.76239986,0.0176681342 C7.14291767,4.30395749 5.94566415,9.97778433 0.95034056,10.4819151" id="Path"></path>
                            </g>
                            <g id="Group" transform="translate(182.000000, 2.000000)" fill="#8BC34A" fill-rule="nonzero">
                                <path d="M0.331663803,19.2668047 C11.5043668,22.115612 18.9331639,14.0284776 20.3117522,0.0416420672 C9.7315589,-0.439691239 -2.11155353,6.46309378 0.331663803,19.2668047" id="Path"></path>
                            </g>
                            <g id="Group" transform="translate(182.000000, 3.000000)" fill="#558B2F" fill-rule="nonzero">
                                <path d="M0.128600502,17.8268731 C1.01288205,16.9162857 2.34542819,15.7300938 3.93027628,14.3629986 C6.30509888,12.3135699 9.23963984,9.86226862 12.0296583,7.37090149 C14.8184521,4.87953436 17.4614986,2.34445903 19.2447589,0.145693984 C19.3476393,0.018211748 19.5362533,-0.00242823307 19.6648538,0.099557556 C19.7934543,0.202757462 19.8142754,0.389731408 19.7101702,0.517213644 C17.2826826,3.51122502 13.3622045,7.04309003 9.61074415,10.2823529 C7.73562636,11.9019844 5.90215064,13.4475548 4.32220162,14.8097935 C2.74347737,16.1720323 1.41583028,17.3545818 0.559718373,18.2372445 C0.444590305,18.3550138 0.255976236,18.3586561 0.137173868,18.2457433 C0.0171467335,18.1328305 0.0134724335,17.9446424 0.128600502,17.8268731" id="Path"></path>
                            </g>
                            <g id="Group" transform="translate(179.000000, 16.000000)" fill="#FF6F00" fill-rule="nonzero">
                                <path d="M18.9468221,19.6920916 C19.1408252,19.9405685 19.4779054,20.0666075 19.7204093,19.9813811 C19.9992886,19.8829507 20.2721054,19.7701158 20.5376471,19.6440768 C20.6176733,19.6056649 20.6952745,19.5636519 20.7740883,19.5228393 L20.0768898,19.124316 C19.8186233,18.9778707 19.5336813,18.9910748 19.3869665,19.156726 C19.2390392,19.324778 19.0777742,19.4856278 18.904384,19.6368746 L18.9468221,19.6920916 Z M0.087301369,10.3664068 C0.552908671,9.74461445 1.01730345,9.12402247 1.48169824,8.50223012 L0.705686066,8.0592931 C0.606259507,8.00167528 0.521383176,7.92845263 0.457119668,7.84442663 C0.340717843,7.69438022 0.289792044,7.51672526 0.337080286,7.36547847 C0.508045467,6.83371397 0.739636599,6.32955802 1.03185368,5.85901246 L1.05125399,5.83260429 L2.91125815,3.34423452 L2.89307037,3.37064269 C2.60085329,3.84118825 2.36804964,4.34534421 2.19708445,4.87830908 C2.14979621,5.0283555 2.20072201,5.20601045 2.31833636,5.35605687 C2.38259986,5.44008286 2.46747619,5.51330551 2.56690275,5.57092334 L3.40475339,6.0498715 C3.50296743,6.10628895 3.58541873,6.1795116 3.64968223,6.26113685 C3.75274635,6.39437807 3.80367215,6.55042634 3.78063429,6.68966941 C3.74425872,6.94174739 3.7175833,7.19862686 3.70667063,7.45790707 C3.70303307,7.53953232 3.67757017,7.61035422 3.63634452,7.66677168 L2.15222125,9.64978511 C2.18253423,9.7674215 2.21163468,9.88385752 2.24679773,10.0002935 C2.2698356,10.0771173 2.3086362,10.1515403 2.36077452,10.2175607 C2.49172657,10.3856127 2.69906733,10.5104514 2.91004563,10.532058 L3.78669688,10.6196851 C3.99525015,10.6412918 4.20016587,10.7649301 4.33233044,10.9341824 C4.37113105,10.9833977 4.40265654,11.036214 4.42690692,11.0914311 C4.54209623,11.3639154 4.67183576,11.6363997 4.81491301,11.9076836 C4.90948949,12.0865389 4.90585193,12.2665946 4.81370049,12.3902329 L3.95402451,13.5425893 C4.13347732,13.8090718 4.32384281,14.0755542 4.52875852,14.3384355 C4.75428706,14.627725 4.98830323,14.9074115 5.23323207,15.1774951 C5.44663541,15.416369 5.7837157,15.5123987 6.01045676,15.4043653 L6.69310496,15.0790646 C6.90165823,14.9794338 7.20357547,15.0538568 7.42061637,15.2567196 C7.66312017,15.481189 7.91289909,15.6960555 8.16995312,15.901319 C8.22209144,15.9445324 8.26695464,15.9901465 8.30454273,16.0393617 C8.4367073,16.2086141 8.48157051,16.4066753 8.4112444,16.5627236 L8.10932717,17.2145252 C8.03657603,17.3705735 8.08265175,17.5722359 8.2136038,17.7390875 C8.26574212,17.8063083 8.33000563,17.8675272 8.40760685,17.9191432 C9.03447918,18.3344717 9.68560189,18.704186 10.3512748,19.0270859 C10.4664641,19.082303 10.5804409,19.1003086 10.6847176,19.0943067 C10.9150962,18.7870117 11.1454748,18.4785162 11.3746409,18.1712212 C11.4874051,18.0199744 11.7202088,17.9791618 11.9602876,18.0667889 C12.2609923,18.1808241 12.5653345,18.2792546 12.8672518,18.3680821 C13.038217,18.4172973 13.1909944,18.5241303 13.295271,18.6585719 C13.358322,18.7389968 13.4043977,18.8314254 13.4225855,18.9250544 L13.5814255,19.7281028 C13.6008258,19.8229321 13.6469015,19.9165611 13.711165,19.9993867 C13.8275668,20.1494331 14.0058071,20.2658691 14.1973851,20.2994795 C14.5987289,20.3751029 14.9976477,20.4267189 15.3941414,20.4615297 C15.7772974,19.9489711 16.1604534,19.4376129 16.5436094,18.9250544 C16.6054479,18.8410284 16.706087,18.7858113 16.8334015,18.7738076 C17.1122809,18.7449987 17.3875227,18.704186 17.6530643,18.6477686 C17.8967807,18.5997537 18.1950603,18.7245924 18.3720881,18.9514625 L18.8934713,19.6224701 C19.4888181,18.8266239 20.084165,18.0307777 20.6795118,17.2337312 L20.7292251,17.1809148 C20.9171655,17.0200651 21.0893432,16.848412 21.2469707,16.6683563 C21.3936855,16.502705 21.6786275,16.4895009 21.936894,16.6359462 L22.7771697,17.1160948 C23.0451364,17.2697423 23.3446286,17.2469353 23.4780057,17.0680799 C22.8584085,17.8975365 22.2375987,18.7269931 21.6180015,19.5564497 C21.5003872,19.7136983 21.2542458,19.7425072 21.014167,19.6440768 C20.5509848,20.2658691 20.08659,20.8864611 19.6209827,21.5082535 C19.5930948,21.545465 19.5555067,21.5958806 19.5288312,21.6330921 C19.5033683,21.6655021 19.4718429,21.6955114 19.4342548,21.7195188 C19.194176,21.8683649 18.941972,22.0064076 18.6764304,22.1324466 C18.4121012,22.2584855 18.1380719,22.3713205 17.8604051,22.4697509 C17.6166888,22.5549773 17.2796085,22.4277379 17.086818,22.1804614 L16.5108714,21.4398323 C16.3811319,21.2741811 16.1883414,21.1649473 15.9979759,21.1361384 L14.7187683,22.8454671 C14.6472297,22.9426972 14.5235528,23.000315 14.3671378,22.9979865 C13.7002523,22.9859106 13.0212417,22.916289 12.337381,22.7878493 C12.1445904,22.7542389 11.9675627,22.6378029 11.8499483,22.4877565 C11.7856848,22.4049309 11.7396091,22.3113019 11.7214213,22.2164726 L11.5625813,21.4134241 C11.543181,21.3197952 11.4983178,21.2273666 11.4340543,21.1469417 C11.3297777,21.0125001 11.1770003,20.9044667 11.0060351,20.8564518 C10.7053304,20.7676244 10.4009881,20.6679935 10.1002834,20.556359 C10.0044944,20.5203479 9.91234294,20.5107449 9.82625409,20.5155464 L9.13875581,21.4362312 C9.01386635,21.6018824 8.74711217,21.6390939 8.49127066,21.5142553 C7.8243852,21.1925558 7.17447501,20.8228414 6.54639016,20.407513 C6.47000146,20.355897 6.40452543,20.2946781 6.35238712,20.2286576 C6.22264758,20.0594053 6.17657186,19.8577429 6.24811048,19.702895 L6.55124024,19.0510934 C6.62156634,18.8950451 6.57670313,18.6957834 6.44453856,18.5277315 C6.40573795,18.4785162 6.36087475,18.4317018 6.30873643,18.3896888 C6.05289492,18.1844253 5.80432852,17.9695588 5.5606122,17.7450894 C5.3435713,17.543427 5.04044154,17.4678036 4.83188827,17.5674344 L4.15045259,17.892735 C3.92249901,18.0007684 3.58663125,17.9047387 3.3732279,17.6658648 C3.12829906,17.3957813 2.89307037,17.1160948 2.66875435,16.8268053 C2.44443833,16.5387162 2.23346002,16.2458256 2.03824446,15.9517346 C1.91092997,15.7596752 1.90486737,15.5544117 2.00671897,15.4187697 C2.29772353,15.028649 2.5887281,14.6385284 2.88094518,14.2484077 C2.76696839,14.026339 2.66147924,13.8030699 2.56690275,13.5798008 C2.54265237,13.5245838 2.50991436,13.4705671 2.47232627,13.4213518 C2.3401617,13.2520995 2.13403347,13.1296616 1.92669271,13.1080549 L1.04882895,13.0204278 C0.839063158,12.9976207 0.631722407,12.8739825 0.500770353,12.7059305 C0.448632035,12.6399101 0.408618908,12.5654871 0.385581047,12.4886633 C0.202490675,11.8620695 0.082451293,11.2390768 0.0206128232,10.6280877 C0.00970015212,10.5260562 0.0363755704,10.4360283 0.087301369,10.3664068 Z M15.208626,15.5352057 C16.0549643,14.4044559 15.911887,12.6471123 14.699368,11.0890303 C13.1243058,9.06520427 10.3403622,8.14211872 8.48157051,9.02919313 C8.05233878,9.23325626 7.71162093,9.51654389 7.45699194,9.85504861 L9.31820863,7.36667884 C9.5716251,7.02817413 9.91355546,6.7448865 10.3415747,6.54082337 C12.2003663,5.65374896 14.9855225,6.57683451 16.5593722,8.5994602 C17.7718912,10.1587426 17.916181,11.9160862 17.0698427,13.0480363 L15.208626,15.5352057 Z M3.84853535,5.66335193 C3.96129962,5.51210514 3.93947428,5.28403459 3.78427184,5.08237221 L3.20711279,4.34054272 C3.0482728,4.13767997 3.02765998,3.90720867 3.13921173,3.75716226 L4.9992159,1.26999287 C4.88887667,1.41883891 4.90827697,1.64931021 5.06590444,1.85217296 L5.64427601,2.59400244 C5.80069097,2.79566482 5.82251631,3.02493575 5.70975204,3.17498216 L3.84853535,5.66335193 Z M22.1721227,15.173894 L21.2942589,15.0862669 C21.1172312,15.0658605 20.9729414,15.1258791 20.8917026,15.2339125 L22.7517068,12.7467431 C22.8329456,12.6375093 22.9784478,12.5786912 23.1554756,12.5966967 L24.0333394,12.6855242 C24.2115797,12.7035298 24.3582945,12.6447116 24.4395333,12.5354778 L22.5795291,15.0238475 C22.4982903,15.1330813 22.3515755,15.1918995 22.1721227,15.173894 Z M7.98565023,3.97562984 C8.0474887,3.89400459 8.07052656,3.78597117 8.0474887,3.6635333 L7.88743619,2.8592845 C7.86318581,2.73564626 7.88743619,2.6252121 7.94927466,2.54238647 L9.80927883,0.0552170811 C9.74744036,0.136842331 9.72318998,0.247276494 9.74744036,0.370914741 L9.90870539,1.17516353 C9.93174325,1.29760141 9.90749287,1.40563483 9.8456544,1.48726008 L7.98565023,3.97562984 Z M20.5255219,10.0807184 L19.8477237,10.4048187 C19.7919479,10.4312268 19.7470847,10.4684384 19.7143467,10.5116517 L21.5743508,8.02448233 C21.6070888,7.98006859 21.651952,7.94285708 21.7077279,7.91644891 L22.3867386,7.59234865 C22.4425144,7.56594048 22.4885902,7.52872897 22.5213282,7.48311486 L20.661324,9.97148463 C20.6273735,10.0158984 20.5825103,10.0543102 20.5255219,10.0807184 Z M15.049786,2.17987433 L15.014623,2.2398929 L13.1534063,4.72826266 L13.1897818,4.6682441 L13.4916991,4.01644247 L13.5280746,3.95522353 C14.1488844,3.12576694 14.7684816,2.29631035 15.3880788,1.46685376 L15.3517032,1.5280727 L15.049786,2.17987433 Z" id="Shape"></path>
                            </g>
                            <g id="Group" transform="translate(181.000000, 17.000000)" fill="#FFC107" fill-rule="nonzero">
                                <path d="M7.92845263,11.7357053 C6.36917027,9.74572248 6.59724082,7.42407586 8.43741007,6.55301577 C10.2775793,5.68077538 13.0348323,6.58842472 14.5929142,8.57722723 C16.153397,10.5683903 15.9253264,12.890037 14.0851572,13.7622774 C12.2449879,14.6345177 9.48893535,13.7268684 7.92845263,11.7357053 Z M4.80028494,0.54647808 C4.52299917,0.640901939 4.25291562,0.750669674 3.9900343,0.875781286 C3.72835335,0.9997126 3.47747574,1.1366272 3.24340333,1.28416447 C3.03693946,1.41281698 3.02493575,1.69726885 3.21459442,1.94159059 L3.78717154,2.67101489 C3.96242576,2.89527156 3.96602687,3.15493717 3.79917526,3.29775325 C3.61791918,3.45709351 3.44746646,3.62587616 3.28901744,3.80410119 C3.14497288,3.96462175 2.86168525,3.97996563 2.60720653,3.83596925 L1.77414882,3.36384995 C1.49686305,3.20568999 1.18716724,3.23401715 1.063529,3.43584815 C0.774239507,3.89852505 0.543768212,4.39307001 0.374515855,4.91712242 C0.327701373,5.0646597 0.378116969,5.23934384 0.494552987,5.38806142 C0.558172668,5.469502 0.642198661,5.54268049 0.74062911,5.5981545 L1.5700857,6.0690935 C1.66731578,6.12456751 1.74894103,6.19656571 1.81256071,6.27682598 C1.91459227,6.40783909 1.96500787,6.56127786 1.94220081,6.69819245 C1.90618967,6.94723538 1.8797815,7.1998192 1.86897816,7.45476362 C1.85937519,7.68610207 1.6661154,7.83363935 1.39963297,7.80649249 L0.530564127,7.72033072 C0.240074266,7.68964297 0.0360111399,7.8666877 0.0624193091,8.12517301 C0.121237504,8.72594481 0.242475008,9.33851959 0.423731079,9.95463527 C0.446538134,10.0301744 0.484950017,10.1021725 0.536565984,10.1682692 C0.666206087,10.333511 0.871469585,10.4550817 1.0803342,10.4763271 L1.94820267,10.5636692 C2.15466653,10.5837342 2.35752929,10.7053049 2.48836976,10.871727 C2.52678165,10.9201192 2.5579913,10.9720523 2.58199873,11.0263461 C2.696034,11.2954541 2.82447374,11.5622015 2.96611755,11.8301292 C3.09335691,12.0673691 3.04294132,12.3105105 2.83527708,12.4084753 L2.16066839,12.7283361 C1.93499858,12.8345629 1.89058484,13.1083921 2.0598372,13.3597957 C2.25309698,13.6489687 2.46076122,13.9357812 2.68282992,14.2202331 C2.90609899,14.5035046 3.13777065,14.7796944 3.38024566,15.0452615 C3.59151102,15.2789606 3.92521424,15.3745647 4.14968368,15.2671576 L4.82549274,14.9484771 C5.03195661,14.8505123 5.33084907,14.9236908 5.54571554,15.1231612 C5.7857898,15.343877 6.0330663,15.5551504 6.28754502,15.7569814 C6.33916099,15.7982918 6.38357473,15.8443234 6.42078624,15.8927157 C6.55162671,16.0579574 6.59604045,16.2527066 6.52641891,16.4073257 L6.22752645,17.0470473 C6.15550417,17.2004861 6.20111828,17.3987762 6.33075839,17.564018 C6.38237435,17.6301147 6.44599404,17.6903099 6.5228178,17.7398824 C7.14340978,18.1494459 7.78800918,18.5117974 8.44701304,18.8292977 C8.73030067,18.965032 9.02559202,18.9048367 9.12522284,18.6912028 L9.4241153,18.0503008 C9.51414315,17.853191 9.77222299,17.7882746 10.0399058,17.8862394 C10.3375979,17.9971874 10.6388911,18.0951522 10.9377835,18.1813139 C11.1070359,18.2297062 11.2582827,18.335933 11.3615146,18.4669461 C11.4239339,18.5472064 11.469548,18.636909 11.4875536,18.7301526 L11.6448023,19.5185918 C11.6640082,19.6130157 11.7096223,19.7050789 11.773242,19.7853392 C11.8884776,19.9328765 12.0649322,20.0473654 12.2545909,20.0804138 C12.9328007,20.207886 13.6038083,20.275163 14.2652129,20.2870936 C14.5497009,20.2928675 14.7261555,20.0933971 14.6733391,19.8290103 L14.5160905,19.0370301 C14.4680756,18.7962493 14.6133206,18.605041 14.8641982,18.5802547 C15.1402836,18.5531079 15.4127679,18.5117974 15.6756492,18.4575037 C15.9169238,18.4102918 16.2122152,18.5318625 16.3874694,18.7561192 L16.9564454,19.4831829 C17.1485048,19.7275046 17.482208,19.8514359 17.7222823,19.768815 C17.9983677,19.6708503 18.2684513,19.5610826 18.5313326,19.4371512 C18.7930135,19.3132199 19.0438911,19.1763053 19.2803643,19.0299484 C19.4880285,18.9012958 19.4964311,18.6144834 19.3055721,18.3701616 L18.7353957,17.6430979 C18.5601415,17.4188413 18.5565404,17.1591757 18.7209912,17.0151793 C18.9070488,16.8570193 19.0775015,16.6870564 19.2335498,16.5100116 C19.3787947,16.3471305 19.660882,16.3353275 19.9165611,16.4781436 L20.7484184,16.9514432 C21.0257042,17.1084228 21.3354,17.0777351 21.4590382,16.879445 C21.7483277,16.4167681 21.978799,15.9210428 22.1456506,15.3946298 C22.1936655,15.2482728 22.1456506,15.0724084 22.0280143,14.9236908 C21.9655949,14.8434305 21.881569,14.770252 21.7843389,14.714778 L20.9548823,14.2450193 C20.8564518,14.188365 20.7736262,14.1151865 20.7100065,14.0349262 C20.6067746,13.9050934 20.556359,13.7516547 20.5791661,13.6135598 C20.6187783,13.3668774 20.6427857,13.1154739 20.6523887,12.8581689 C20.6631921,12.6280108 20.8552515,12.4792932 21.1229343,12.5076203 L21.9920031,12.5949624 C22.2812926,12.6244699 22.4865561,12.4486054 22.4613483,12.1889398 C22.4013297,11.588168 22.2812926,10.9767735 22.0988362,10.3606579 C22.0760291,10.2839385 22.0364169,10.21076 21.9848009,10.1446633 C21.8563612,9.98060183 21.652298,9.85903111 21.442233,9.83778574 L20.5755649,9.75044367 C20.3679007,9.72919831 20.1662383,9.60998818 20.0365982,9.44474643 C19.9981863,9.39517391 19.9669767,9.34206049 19.9429693,9.28658647 C19.828934,9.01865877 19.6980935,8.75191137 19.5564497,8.48516397 C19.4292103,8.24438313 19.483227,8.002422 19.6896909,7.90445724 L20.3618988,7.58695702 C20.5875687,7.47954988 20.6331828,7.20572069 20.46273,6.95195657 C20.2682699,6.6639638 20.0594053,6.37597104 19.8373366,6.09269946 C19.6152679,5.80824759 19.3823958,5.5332381 19.1423216,5.2664907 C18.9322566,5.03397195 18.5985534,4.94072839 18.3728836,5.04695523 L17.7006756,5.36563575 C17.4930114,5.4636005 17.1917182,5.38806142 16.9768517,5.19213191 C16.7367774,4.97141614 16.4919017,4.75896246 16.237423,4.55713146 C16.1846066,4.51464073 16.1389925,4.4686091 16.1005806,4.41903657 C15.9709405,4.25379482 15.9265268,4.05786531 15.9985491,3.90678714 L16.2950408,3.2670655 C16.3682634,3.11362673 16.3226493,2.91651693 16.1942096,2.75245547 C16.1413933,2.68635877 16.0765732,2.62498326 15.9997494,2.57423044 C15.3791575,2.16584725 14.7345581,1.8023154 14.0755542,1.48481517 C13.7922666,1.34908088 13.4969752,1.40927609 13.3973444,1.62409036 L13.0984519,2.2649923 C13.0072237,2.45974151 12.7503443,2.52583821 12.4802607,2.42669316 C12.1849694,2.31692542 11.8848765,2.21896067 11.5835833,2.1316186 C11.4167317,2.08440667 11.2654849,1.98054043 11.1634534,1.84952733 C11.0998337,1.76808675 11.0554199,1.67720378 11.0374144,1.58396022 L10.8789654,0.794340708 C10.8609598,0.701097148 10.816546,0.611394483 10.7529264,0.529953905 C10.6364903,0.381236328 10.457635,0.2667474 10.266776,0.231338453 C9.58976654,0.107407139 8.91875897,0.0389498416 8.25735437,0.0271468593 C7.97286637,0.0188847717 7.79761215,0.220715769 7.84922812,0.485102572 L8.00887751,1.27708268 C8.05449162,1.51904382 7.90924668,1.70671124 7.65836908,1.7338581 C7.38468441,1.76100496 7.11340049,1.8011351 6.84571769,1.85542882 C6.60564342,1.90500134 6.31155245,1.78225033 6.13509786,1.55917396 L5.56492148,0.829749655 C5.37286207,0.585427922 5.04275995,0.461496608 4.80028494,0.54647808" id="Shape"></path>
                            </g>
                            <g id="Group" transform="translate(0.000000, 21.000000)" fill="#9C27B0">
                                <rect id="Rectangle" x="0.0131043564" y="0.0536153862" width="178.700141" height="1"></rect>
                            </g>
                        </g>
                        <g id="Group-48" transform="translate(29.000000, 31.000000)">
                            <g id="Group" transform="translate(7.000000, 0.000000)" fill="#FAFAFA">
                                <path d="M159.720436,1.34740633 L96.5025816,1.34740633 L96.5025816,0.0431937914 L67.8361599,0.0431937914 L67.8361599,1.34740633 L4.35671997,1.34740633 L4.35671997,1.34740633 C1.99538206,1.34740633 0.080404838,3.26473074 0.080404838,5.62959082 L0.080404838,92.3075319 L0.080404838,92.3075319 C0.080404838,94.6711922 1.99550189,96.5885166 4.3568398,96.5885166 L159.720436,96.5885166 C162.082253,96.5885166 163.997111,94.6711922 163.997111,92.3075319 L163.997111,5.62959082 L163.997111,5.62959082 C163.997111,3.26473074 162.082253,1.34740633 159.720436,1.34740633 L159.720436,1.34740633 Z" id="Path"></path>
                            </g>
                            <g id="Group" transform="translate(13.000000, 10.000000)" fill="#DCEDC8">
                                <rect id="Rectangle" x="0.0622879101" y="0.0493052883" width="153.575912" height="86.3051792"></rect>
                            </g>
                            <g id="Group" transform="translate(89.500000, 5.500000) scale(-1, 1) rotate(-90.000000) translate(-89.500000, -5.500000) translate(88.000000, 4.000000)" fill="#E1BEE7">
                                <path d="M1.43375303,0.0687828968 C2.1968199,0.0687828968 2.81480778,0.687828968 2.81480778,1.44973183 C2.81480778,2.21269288 2.1968199,2.83068075 1.43375303,2.83068075 C0.671109433,2.83068075 0.0529099206,2.21269288 0.0529099206,1.44973183 C0.0529099206,0.687828968 0.671109433,0.0687828968 1.43375303,0.0687828968" id="Path"></path>
                            </g>
                            <g id="Group" transform="translate(13.000000, 10.000000)" fill="#FFECB3">
                                <polygon id="Path" points="109.261215 86.3540035 0.0620283269 86.3540035 0.0620283269 0.0493052883"></polygon>
                            </g>
                            <g id="Group" transform="translate(125.000000, 56.000000)" fill="#9C27B0">
                                <rect id="Rectangle" x="0.0493825926" y="0.0211639683" width="14.6716917" height="2.62782412"></rect>
                            </g>
                            <g id="Group" transform="translate(108.000000, 32.000000)" fill="#9C27B0">
                                <rect id="Rectangle" x="0.0857281807" y="0.102997979" width="48.3636722" height="1.501513"></rect>
                            </g>
                            <g id="Group" transform="translate(108.000000, 36.000000)" fill="#9C27B0">
                                <rect id="Rectangle" x="0.0857281807" y="0.00423279365" width="48.3636722" height="1.501513"></rect>
                            </g>
                            <g id="Group" transform="translate(108.000000, 41.000000)" fill="#9C27B0">
                                <rect id="Rectangle" x="0.0857281807" y="0.0465607302" width="48.3636722" height="1.501513"></rect>
                            </g>
                            <g id="Group" transform="translate(108.000000, 45.000000)" fill="#9C27B0">
                                <rect id="Rectangle" x="0.0857281807" y="0.0888886667" width="48.3636722" height="1.50165409"></rect>
                            </g>
                            <g id="Group" transform="translate(108.000000, 49.000000)" fill="#9C27B0">
                                <rect id="Rectangle" x="0.0857281807" y="0.129805672" width="48.3636722" height="1.50165409"></rect>
                            </g>
                            <g id="Group" transform="translate(151.000000, 11.000000)" fill="#8BC34A">
                                <rect id="Rectangle" x="0.0308641204" y="0.106172574" width="6.13146615" height="6.13146615"></rect>
                            </g>
                            <g id="Group" transform="translate(153.000000, 13.000000)" fill="#558B2F">
                                <path d="M6.6907926,6.70615607 L0.0724278025,6.70615607 L0.0724278025,0.0877912757 L6.6907926,0.0877912757 L6.6907926,6.70615607 Z M0.361041621,6.41754226 L6.40327617,6.41754226 L6.40327617,0.375307704 L0.361041621,0.375307704 L0.361041621,6.41754226 Z" id="Shape"></path>
                            </g>
                            <g id="Group" transform="translate(0.000000, 92.000000)" fill="#FAFAFA">
                                <path d="M175.671532,1.33209544 L160.715022,1.33209544 L160.715022,0.227159926 C160.715022,0.106172574 160.619857,0.0086419537 160.501805,0.0086419537 L155.373756,0.0086419537 L155.373756,0.0086419537 C155.255703,0.0086419537 155.159334,0.106172574 155.159334,0.227159926 L155.159334,1.33209544 L151.955056,1.33209544 L151.955056,0.227159926 C151.955056,0.106172574 151.858687,0.0086419537 151.740634,0.0086419537 L146.612585,0.0086419537 L146.612585,0.0086419537 C146.494532,0.0086419537 146.399368,0.106172574 146.399368,0.227159926 L146.399368,1.33209544 L143.193885,1.33209544 L143.193885,0.227159926 L143.193885,0.227159926 C143.193885,0.106172574 143.09872,0.0086419537 142.980668,0.0086419537 L137.852619,0.0086419537 L137.852619,0.0086419537 C137.734566,0.0086419537 137.639402,0.106172574 137.639402,0.227159926 L137.639402,1.33209544 L134.433919,1.33209544 L134.433919,0.227159926 C134.433919,0.106172574 134.338754,0.0086419537 134.220702,0.0086419537 L129.092653,0.0086419537 L129.092653,0.0086419537 C128.9746,0.0086419537 128.878231,0.106172574 128.878231,0.227159926 L128.878231,1.33209544 L125.673953,1.33209544 L125.673953,0.227159926 L125.673953,0.227159926 C125.673953,0.106172574 125.577584,0.0086419537 125.459531,0.0086419537 L120.331482,0.0086419537 L120.331482,0.0086419537 C120.213429,0.0086419537 120.118265,0.106172574 120.118265,0.227159926 L120.118265,1.33209544 L116.912782,1.33209544 L116.912782,0.227159926 L116.912782,0.227159926 C116.912782,0.106172574 116.817618,0.0086419537 116.699565,0.0086419537 L111.571516,0.0086419537 L111.571516,0.0086419537 C111.453463,0.0086419537 111.358299,0.106172574 111.358299,0.227159926 L111.358299,1.33209544 L108.152816,1.33209544 L108.152816,0.227159926 L108.152816,0.227159926 C108.152816,0.106172574 108.057651,0.0086419537 107.939599,0.0086419537 L67.7692759,0.0086419537 L67.7693963,0.0086419537 C67.6514644,0.0086419537 67.5558179,0.106172574 67.5558179,0.227159926 L67.5558179,1.33209544 L64.3505762,1.33209544 L64.3505762,0.227159926 L64.3506967,0.227159926 C64.3506967,0.106172574 64.2550502,0.0086419537 64.1369978,0.0086419537 L59.0088279,0.0086419537 L59.0090688,0.0086419537 C58.8910165,0.0086419537 58.79537,0.106172574 58.79537,0.227159926 L58.79537,1.33209544 L55.5901282,1.33209544 L55.5901282,0.227159926 L55.5902487,0.227159926 C55.5902487,0.106172574 55.4946022,0.0086419537 55.3766703,0.0086419537 L50.2485004,0.0086419537 L50.2486208,0.0086419537 C50.1305685,0.0086419537 50.034922,0.106172574 50.034922,0.227159926 L50.034922,1.33209544 L46.8296803,1.33209544 L46.8296803,0.227159926 L46.8299212,0.227159926 C46.8299212,0.106172574 46.7342747,0.0086419537 46.6162223,0.0086419537 L41.487932,0.0086419537 L41.4881729,0.0086419537 C41.3701205,0.0086419537 41.274474,0.106172574 41.274474,0.227159926 L41.274474,1.33209544 L38.0693528,1.33209544 L38.0693528,0.227159926 L38.0694732,0.227159926 C38.0694732,0.106172574 37.9738267,0.0086419537 37.8558948,0.0086419537 L32.7276044,0.0086419537 L32.7277249,0.0086419537 C32.609793,0.0086419537 32.5141465,0.106172574 32.5141465,0.227159926 L32.5141465,1.33209544 L29.3089048,1.33209544 L29.3089048,0.227159926 L29.3090253,0.227159926 C29.3090253,0.106172574 29.2134992,0.0086419537 29.0954469,0.0086419537 L23.9671565,0.0086419537 L23.9673974,0.0086419537 C23.8493451,0.0086419537 23.7536986,0.106172574 23.7536986,0.227159926 L23.7536986,1.33209544 L20.5484568,1.33209544 L20.5484568,0.227159926 L20.5485773,0.227159926 C20.5485773,0.106172574 20.4529308,0.0086419537 20.3349989,0.0086419537 L15.206829,0.0086419537 L15.206829,0.0086419537 C15.0888971,0.0086419537 14.9932506,0.106172574 14.9932506,0.227159926 L14.9932506,1.33209544 L5.16430841,1.33209544 C2.33285896,1.33209544 0.0363793973,3.68517597 0.0363793973,6.58763785 L0.0363793973,8.96417512 C0.0363793973,11.8654024 2.33285896,14.218483 5.16442887,14.218483 L175.671532,14.2197175 L175.671532,14.218483 C178.503584,14.218483 180.799581,11.8654024 180.799581,8.96417512 L180.799581,6.58763785 C180.799581,3.68517597 178.503584,1.33209544 175.671532,1.33209544 L175.671532,1.33209544 Z" id="Path"></path>
                            </g>
                            <g id="Group" transform="translate(144.000000, 5.000000)" fill="#558B2F">
                                <rect id="Rectangle" x="0.114859963" y="0.129805672" width="61.8682422" height="1"></rect>
                            </g>
                            <g id="Group" transform="translate(100.000000, 134.000000)" fill="#FF6F00">
                                <rect id="Rectangle" x="0.114212281" y="0.0327336042" width="178.700141" height="1"></rect>
                            </g>
                            <g id="Group" transform="translate(48.000000, 156.000000)" fill="#FF6F00">
                                <rect id="Rectangle" x="0.000717874768" y="0.0949556709" width="61.8682422" height="1"></rect>
                            </g>
                            <g id="Group" transform="translate(116.000000, 132.000000)" fill="#FF6F00">
                                <rect id="Rectangle" x="0.0449930288" y="0.0975580551" width="6.23087606" height="6.23087606"></rect>
                            </g>
                            <g id="Group" transform="translate(118.000000, 126.000000)" fill="#FF6F00">
                                <path d="M7.86283749,7.81994518 L0.0801408931,7.81994518 L0.0801408931,0.0378129566 L7.86283749,0.0378129566 L7.86283749,7.81994518 Z M0.418764385,7.48132168 L7.52421399,7.48132168 L7.52421399,0.376097825 L0.418764385,0.376097825 L0.418764385,7.48132168 Z" id="Shape"></path>
                            </g>
                            <g id="Group" transform="translate(196.000000, 3.000000)" fill="#558B2F">
                                <rect id="Rectangle" x="0.0493825926" y="0.0636486749" width="6.23087606" height="6.23087606"></rect>
                            </g>
                        </g>
                        <g id="Group-51" transform="translate(227.000000, 28.000000)">
                            <g id="Group" fill="#558B2F">
                                <path d="M7.86735247,7.78495408 L0.085784618,7.78495408 L0.085784618,0.00338623492 L7.86735247,0.00338623492 L7.86735247,7.78495408 Z M0.42440811,7.44633059 L7.52985772,7.44633059 L7.52985772,0.340880982 L0.42440811,0.340880982 L0.42440811,7.44633059 Z" id="Shape"></path>
                            </g>
                            <g id="Group" transform="translate(66.000000, 135.000000)" fill="#FF6F00">
                                <rect id="Rectangle" x="0.0329217284" y="0.0975580551" width="6.23087606" height="6.23087606"></rect>
                            </g>
                            <g id="Group" transform="translate(69.000000, 129.000000)" fill="#FF6F00">
                                <path d="M7.85042129,7.81994518 L0.0688534434,7.81994518 L0.0688534434,0.0378129566 L7.85042129,0.0378129566 L7.85042129,7.81994518 Z M0.40634819,7.48132168 L7.5117978,7.48132168 L7.5117978,0.376097825 L0.40634819,0.376097825 L0.40634819,7.48132168 Z" id="Shape"></path>
                            </g>
                            <g id="Group" transform="translate(8.000000, 31.000000)" fill="#558B2F">
                                <path d="M52.7836354,25.2030547 L52.202854,25.2030547 L52.202854,9.26660936 L52.202854,9.26660936 C52.202854,4.17304982 48.0759318,0.0423347636 42.9874669,0.0423347636 L9.25515006,0.0423347636 L9.25515006,0.0423347636 C4.16668519,0.0423347636 0.0409679862,4.17304982 0.0409679862,9.26660936 L0.0409679862,96.6993543 L0.0409679862,96.6993543 C0.0409679862,101.792793 4.16668519,105.922543 9.25515006,105.922543 L42.9874669,105.92375 L42.9874669,105.922543 C48.0759318,105.922543 52.202854,101.792793 52.202854,96.6993543 L52.202854,36.5478065 L52.7836354,36.5478065 L52.7836354,25.2030547 Z" id="Path"></path>
                            </g>
                            <g id="Group" transform="translate(10.000000, 35.000000)" fill="#FFFFFF">
                                <path d="M47.8849899,6.93582211 L47.8849899,94.4478352 C47.8849899,98.2609053 44.7926318,101.353433 40.9794894,101.353433 L6.95992213,101.353433 C3.14677974,101.353433 0.053212263,98.2609053 0.053212263,94.4478352 L0.053212263,6.93582211 C0.053212263,3.12323564 3.14557037,0.0322793185 6.95992213,0.0322793185 L11.0875006,0.0322793185 C10.9266545,0.425192372 10.8444173,0.846153372 10.8444173,1.27062037 C10.8444173,3.0817682 12.3138014,4.55053764 14.1254371,4.55053764 L33.521307,4.55053764 C33.521307,4.55065853 33.521307,4.55065853 33.521307,4.55065853 C35.334152,4.55065853 36.8035361,3.0817682 36.8035361,1.27062037 C36.8035361,0.846153372 36.7200896,0.425313268 36.5604528,0.0322793185 L40.9794894,0.0322793185 C44.7938412,0.0322793185 47.8849899,3.12335653 47.8849899,6.93582211" id="Path"></path>
                            </g>
                            <g id="Group" transform="translate(29.000000, 92.000000)" fill="#8BC34A">
                                <rect id="Rectangle" x="0.0352732804" y="0.0253967619" width="9.85265027" height="2.62782412"></rect>
                            </g>
                            <g id="Group" transform="translate(17.000000, 68.000000)" fill="#8BC34A">
                                <rect id="Rectangle" x="0.118862752" y="0.108641704" width="34.3874744" height="1.501513"></rect>
                            </g>
                            <g id="Group" transform="translate(17.000000, 73.000000)" fill="#8BC34A">
                                <rect id="Rectangle" x="0.118862752" y="0.0084655873" width="34.3874744" height="1.501513"></rect>
                            </g>
                            <g id="Group" transform="translate(17.000000, 76.000000)" fill="#8BC34A">
                                <rect id="Rectangle" x="0.118862752" y="0.0507935238" width="34.3874744" height="1.50165409"></rect>
                            </g>
                            <g id="Group" transform="translate(17.000000, 80.000000)" fill="#8BC34A">
                                <rect id="Rectangle" x="0.118862752" y="0.0931214603" width="34.3874744" height="1.50165409"></rect>
                            </g>
                            <g id="Group" transform="translate(17.000000, 85.000000)" fill="#8BC34A">
                                <rect id="Rectangle" x="0.118862752" y="0.135449397" width="34.3874744" height="1.50165409"></rect>
                            </g>
                            <g id="Group" transform="translate(29.000000, 52.000000)" fill="#558B2F">
                                <rect id="Rectangle" x="0.0666665" y="0.00987651852" width="6.13146615" height="6.13146615"></rect>
                            </g>
                            <g id="Group" transform="translate(32.000000, 54.000000)" fill="#8BC34A">
                                <path d="M0.0603565021,0.00109739095 L0.0603565021,6.61946219 L6.6787213,6.61946219 L6.6787213,0.00109739095 L0.0603565021,0.00109739095 Z M6.39120487,6.33194576 L0.34787293,6.33194576 L0.34787293,0.288613819 L6.39120487,0.288613819 L6.39120487,6.33194576 Z" id="Shape"></path>
                            </g>
                            <g id="Group" transform="translate(36.000000, 103.000000)" fill="#FF6F00" fill-rule="nonzero">
                                <path d="M6.7789954,0.10246888 C3.02344923,0.10246888 0.0370369444,3.18394266 0.0370369444,6.84319277 C0.0370369444,10.5036774 3.11974529,13.5851512 6.7789954,13.5851512 C10.5357761,13.5851512 13.5209539,10.5036774 13.5209539,6.84319277 C13.5209539,3.18394266 10.5357761,0.10246888 6.7789954,0.10246888 Z M6.7789954,13.4888552 C3.11974529,13.4888552 0.23086362,10.5036774 0.23086362,6.93948882 C0.23086362,3.37653477 3.21604134,0.390122481 6.7789954,0.390122481 C10.4382455,0.390122481 13.3283617,3.37653477 13.3283617,6.93948882 C13.3283617,10.5036774 10.4382455,13.4888552 6.7789954,13.4888552" id="Shape"></path>
                            </g>
                            <g id="Group" transform="translate(47.500000, 117.500000) scale(-1, 1) rotate(90.000000) translate(-47.500000, -117.500000) translate(44.000000, 113.000000)" fill="#FFC107" fill-rule="nonzero">
                                <path d="M3.27530045,0.0334775498 L6.83825451,0.0334775498 C6.83825451,3.45511402 5.00862945,6.51773262 2.21604384,8.31859392 L0,5.70619064 C1.92715568,4.5356308 3.27530045,2.4646403 3.27530045,0.0334775498" id="Path"></path>
                            </g>
                            <g id="Group" transform="translate(37.675493, 116.224518) scale(-1, 1) rotate(18.926510) translate(-37.675493, -116.224518) translate(33.175493, 110.724518)" fill="#558B2F" fill-rule="nonzero">
                                <path d="M4.79698339,0.0610180364 L8.2687088,0.0610180364 C8.54408986,4.62636562 5.70489911,9.0702752 1.17975097,10.6213151 L0.0541759822,7.33888186 C3.16033002,6.27359401 5.00261729,3.26289336 4.79698339,0.0610180364" id="Path"></path>
                            </g>
                            <g id="Group" transform="translate(32.000000, 103.000000)" fill="#FFC107" fill-rule="nonzero">
                                <path d="M2.51790754,0.0293944004 C1.00861426,1.86360498 0.0653059592,4.15636821 0.0653059592,6.63372827 C0.0653059592,7.64254409 0.253967619,8.55964938 0.442629279,9.47675467 L3.7454177,8.37622832 C3.55554667,7.82596515 3.55554667,7.27570198 3.55554667,6.63372827 C3.55554667,4.89005244 4.21707185,3.23926292 5.3490418,2.04702604 L2.51790754,0.0293944004 Z" id="Path"></path>
                            </g>
                            <g id="Group" transform="translate(48.000000, 105.000000)" fill="#8BC34A" fill-rule="nonzero">
                                <path d="M0.557317831,1.16049093 C0.924159947,1.98588569 1.10758101,2.99470151 1.10758101,3.9118068 C1.10758101,5.28746474 0.64902836,6.66312267 0.00705465608,7.7648248 L2.66666,9.78245644 C3.85889688,8.13049114 4.50087058,6.1128595 4.50087058,3.9118068 C4.50087058,2.53614886 4.22573899,1.25220146 3.76718635,0.0599645767 L0.557317831,1.16049093 Z" id="Path"></path>
                            </g>
                            <g id="Group" transform="translate(47.000000, 103.000000) scale(-1, 1) rotate(90.000000) translate(-47.000000, -103.000000) translate(43.000000, 98.000000)" fill="#FF6F00" fill-rule="nonzero">
                                <path d="M0.0936858328,0.0693707848 L3.35237257,0.0693707848 C3.35237257,2.91357296 5.02517262,5.29804672 7.31426743,6.39857307 L6.25776213,9.60961736 C2.64803571,8.04936259 0.0936858328,4.38094143 0.0936858328,0.0693707848" id="Path"></path>
                            </g>
                            <g id="Group" transform="translate(39.848139, 101.249299) scale(-1, 1) rotate(142.814241) translate(-39.848139, -101.249299) translate(36.348139, 96.749299)" fill="#558B2F" fill-rule="nonzero">
                                <path d="M0.00777604191,0.1051513 L3.42298287,0.1051513 C3.5612747,2.09505169 4.48963374,3.97553761 6.20806,5.28009466 L4.11083439,8.04431278 C1.62639167,6.04238883 0.217017587,3.0894007 0.00777604191,0.1051513" id="Path"></path>
                            </g>
                        </g>
                        <g id="Group-50" transform="translate(47.000000, 59.059711)">
                            <g id="Group" transform="translate(21.000000, 4.940289)" fill="#6A1B9A" fill-rule="nonzero">
                                <path d="M8.36889619,0.0587652852 C3.76397648,0.0587652852 0.0225466808,3.80055487 0.0225466808,8.40583436 C0.0225466808,13.0099146 3.76397648,16.7517042 8.36889619,16.7517042 C12.9739358,16.7517042 16.7153656,13.0099146 16.7153656,8.40583436 C16.7153656,3.80055487 12.9739358,0.0587652852 8.36889619,0.0587652852 Z M8.36889619,16.4638742 C3.90801139,16.4638742 0.310136791,12.8659996 0.310136791,8.40583436 C0.310136791,3.94446986 3.90801139,0.346595253 8.36889619,0.346595253 C12.8299009,0.346595253 16.4277755,3.94446986 16.4277755,8.40583436 C16.4277755,12.8659996 12.8299009,16.4638742 8.36889619,16.4638742" id="Shape"></path>
                            </g>
                            <g id="Group" transform="translate(20.000000, 2.940289)" fill="#9C27B0" fill-rule="nonzero">
                                <path d="M10.2428641,0.0814405778 C4.57802274,0.0814405778 0.0459136011,4.61378578 0.0459136011,10.2792173 C0.0459136011,15.9434685 4.57802274,20.4758137 10.2428641,20.4758137 C15.9078235,20.4758137 20.4399326,15.9434685 20.4399326,10.2792173 C20.2981788,4.61378578 15.7661877,0.0814405778 10.2428641,0.0814405778 Z M10.2428641,19.3427274 C5.28620168,19.3427274 1.17888187,15.2352895 1.17888187,10.2792173 C1.17888187,5.32196472 5.28620168,1.21452688 10.2428641,1.21452688 C15.1997626,1.21452688 19.3069643,5.32196472 19.3069643,10.2792173 C19.1653286,15.2352895 15.1997626,19.3427274 10.2428641,19.3427274" id="Shape"></path>
                            </g>
                            <g id="Group" transform="translate(21.000000, 0.940289)" fill="#6A1B9A" fill-rule="nonzero">
                                <path d="M8.59044657,0.0109126711 C5.33305952,0.0109126711 2.35906207,1.32043321 0.0928894707,3.64846971 L0.942822226,4.52148341 C3.06724101,2.33894918 5.75784885,1.17493093 8.59044657,1.17493093 C14.5389136,1.17493093 19.495694,6.1220085 19.495694,12.3786066 C19.495694,18.6339922 14.6801953,23.5810698 8.59044657,23.5810698 L8.59044657,24.745088 C15.2470925,24.745088 20.6285443,19.2160013 20.6285443,12.3786066 C20.4869085,5.53999938 15.1053387,0.0109126711 8.59044657,0.0109126711" id="Path"></path>
                            </g>
                            <path d="M29.9463349,5.32907052e-15 C22.2085086,5.32907052e-15 16.0469328,6.30428505 16.0469328,13.8995215 L17.1931448,13.8995215 C17.1931448,6.87751044 22.924921,1.00314443 30.0897606,1.00314443 C37.2546003,1.00314443 42.9863765,6.7342041 42.9863765,13.8995215 C42.9863765,20.9203382 37.2546003,26.7958985 30.0897606,26.7958985 L30.0897606,27.9423493 C37.8277063,27.9423493 43.9892821,21.63687 43.9892821,14.0428278 C43.8458563,6.16097871 37.5409741,5.32907052e-15 29.9463349,5.32907052e-15" id="Path" fill="#FFC107" fill-rule="nonzero"></path>
                            <path d="M40.0472638,0.952231218 L39.3366285,1.81087508 C42.7493607,4.67700202 44.5981265,8.68957974 44.5981265,13.1320765 C44.5981265,21.1560377 38.0567502,27.7481297 30.0926812,27.7481297 L30.0926812,28.8945805 C38.7673855,28.8945805 45.7361384,21.8725695 45.7361384,13.1320765 C45.7361384,8.40296705 43.6028104,3.96047029 40.0472638,0.952231218" id="Path" fill="#FFC107" fill-rule="nonzero"></path>
                            <g id="Group" transform="translate(39.000000, 21.940289) scale(-1, 1) rotate(90.000000) translate(-39.000000, -21.940289) translate(30.000000, 12.940289)" fill="#FFC107" fill-rule="nonzero">
                                <path d="M16.6870675,0.0601249098 L17.8417062,0.0601249098 C17.8417062,9.87130769 9.90581939,17.8077958 0.0940353589,17.8077958 L0.0940353589,16.652195 C9.32862026,16.652195 16.6870675,9.14980878 16.6870675,0.0601249098" id="Path"></path>
                            </g>
                            <g id="Group" transform="translate(0.000000, 19.940289)" fill="#9C27B0" fill-rule="nonzero">
                                <path d="M14.7876369,0.106342408 C6.59709632,0.106342408 0.044712149,6.84095879 0.044712149,14.8492672 C0.044712149,22.8575756 6.77872432,29.592192 14.7876369,29.592192 C22.9781776,29.592192 29.5305617,22.8575756 29.5305617,14.8492672 C29.5305617,6.84095879 22.9781776,0.106342408 14.7876369,0.106342408 Z M14.7876369,27.2260734 C8.05314141,27.2260734 2.41083074,21.7651491 2.41083074,14.8492672 C2.41083074,7.93217692 7.87103003,2.472461 14.7876369,2.472461 C21.5216491,2.472461 27.1639598,7.93217692 27.1639598,14.8492672 C27.1639598,21.7651491 21.5216491,27.2260734 14.7876369,27.2260734" id="Shape"></path>
                            </g>
                            <path d="M14.0461597,19.9850012 L14.0461597,22.5323852 C20.9981891,22.5323852 26.8231726,27.9933096 26.8231726,34.9103999 C26.8231726,41.8262817 21.1861965,47.2872061 14.0461597,47.2872061 L14.0461597,49.6533247 C22.5018735,49.6533247 29.2663946,42.9187083 29.2663946,34.9103999 C29.2663946,26.9020915 22.5018735,19.9850012 14.0461597,19.9850012" id="Path" fill="#FFC107" fill-rule="nonzero"></path>
                            <path d="M13.7604147,23.9998243 C7.842008,23.9998243 2.99976186,28.8424277 2.99976186,34.760239 C2.99976186,40.679241 7.842008,45.5206537 13.7604147,45.5206537 C19.6783451,45.5206537 24.5205912,40.679241 24.5205912,34.760239 C24.5205912,28.8424277 19.6783451,23.9998243 13.7604147,23.9998243 Z M13.7604147,45.162251 C8.02144747,45.162251 3.53760399,40.4994444 3.53760399,34.9400357 C3.53760399,29.380627 8.20041065,24.7178204 13.7604147,24.7178204 C19.4989056,24.7178204 23.9827491,29.380627 23.9827491,34.9400357 C23.9827491,40.4994444 19.4989056,45.162251 13.7604147,45.162251" id="Shape" fill="#FFC107" fill-rule="nonzero"></path>
                            <g id="Group" transform="translate(21.000000, 81.940289)" fill="#9C27B0" fill-rule="nonzero">
                                <path d="M20.1351437,0.00875833153 C8.98864302,0.00875833153 0.0714666056,9.1327802 0.0714666056,19.9825533 C0.0714666056,31.0788795 9.23582347,39.9559884 20.1351437,39.9559884 C31.2816443,39.9559884 40.1988207,30.8329263 40.1988207,19.9825533 C40.1988207,9.1327802 31.2816443,0.00875833153 20.1351437,0.00875833153 Z M20.1351437,36.997352 C10.9700637,36.997352 3.29144092,29.5995613 3.29144092,20.2293463 C3.29144092,11.1053244 10.7221601,3.46110066 20.1351437,3.46110066 C29.2995005,3.46110066 36.9781233,10.8585314 36.9781233,20.2293463 C36.9781233,29.3536081 29.2995005,36.997352 20.1351437,36.997352" id="Shape"></path>
                            </g>
                            <g id="Group" transform="translate(26.000000, 86.940289)" fill="#6A1B9A" fill-rule="nonzero">
                                <path d="M14.9934337,0.0281565695 C6.79697171,0.0281565695 0.0908744217,6.73413301 0.0908744217,14.930595 C0.0908744217,23.127057 6.79697171,29.8326709 14.9934337,29.8326709 C23.1891706,29.8326709 29.8952679,23.127057 29.8952679,14.930595 C29.8952679,6.98258755 23.1891706,0.0281565695 14.9934337,0.0281565695 Z M14.9934337,29.3360035 C7.04542624,29.3360035 0.835754655,22.878119 0.835754655,15.1791704 C0.835754655,7.23116293 7.29327656,1.0222164 14.9934337,1.0222164 C22.940716,1.0222164 29.1503876,7.47973831 29.1503876,15.1791704 C29.1503876,22.878119 22.940716,29.3360035 14.9934337,29.3360035" id="Shape"></path>
                            </g>
                            <g id="Group" transform="translate(61.000000, 102.940289)" fill="#8BC34A">
                                <path d="M3.97745037,11.9249891 C3.97745037,11.92511 3.97745037,11.927045 3.97745037,11.927045 C3.97745037,16.1407306 7.25799244,19.6128308 11.4304476,19.8172143 L11.4304476,23.7533495 C5.09758867,23.5542873 0.0628428764,18.3154191 0.0628428764,11.9249891 C0.0628428764,5.5345591 5.09758867,0.295690871 11.4304476,0.0962658213 L11.4304476,4.03240111 C7.25799244,4.23714738 3.97745037,7.70924754 3.97745037,11.9229332 L3.97745037,11.9248681 L3.97745037,11.9249891 Z" id="Path"></path>
                            </g>
                            <g id="Group" transform="translate(72.000000, 102.940289)" fill="#558B2F">
                                <path d="M12.3471748,11.5979645 C12.3471748,11.6012693 12.3471748,11.6068167 12.3471748,11.6096494 C12.3471748,15.0318061 10.7759155,18.2795147 8.06214365,20.4675516 L5.50427967,17.5340384 C7.32645324,16.0705866 8.38248566,13.8925823 8.38248566,11.5979645 C8.38248566,7.3399206 4.82096458,3.88613192 0.426310663,3.88518768 C0.297199433,3.88518768 0.170524265,3.88518768 0.0426310663,3.89510219 L0.0426310663,0.0535855396 L0.426310663,0.0535855396 C7.00611123,0.0535855396 12.3435207,5.22211149 12.3471748,11.5979645 L12.3471748,11.5979645 Z" id="Path"></path>
                            </g>
                            <g id="Group" transform="translate(72.000000, 120.940289)" fill="#FFC107">
                                <path d="M7.47116298,3.09501872 C5.49360179,4.86795457 2.99117418,5.8421018 0.411991915,5.8421018 L0.393931996,5.8421018 C0.275413774,5.8421018 0.156895551,5.8421018 0.0395060741,5.83472464 L0.0395060741,1.89871029 C0.156895551,1.89871029 0.275413774,1.90741776 0.395060741,1.90741776 L0.404090701,1.90741776 C2.11865432,1.90741776 3.78129566,1.26246094 5.10079854,0.0887677297 L7.47116298,3.09501872 Z" id="Path"></path>
                            </g>
                        </g>
                    </g>
                </g>
            </g>
        </g>
    </g>
</svg>