<?xml version="1.0" encoding="UTF-8"?>
<svg width="350px" height="334px" viewBox="0 0 350 334" version="1.1" xmlns="http://www.w3.org/2000/svg" xmlns:xlink="http://www.w3.org/1999/xlink">
    <!-- Generator: Sketch 64 (93537) - https://sketch.com -->
    <title>Artwork</title>
    <desc>Created with Sketch.</desc>
    <g id="Forms" stroke="none" stroke-width="1" fill="none" fill-rule="evenodd">
        <g id="Login" transform="translate(-906.000000, -427.000000)">
            <g id="Right-Side" transform="translate(835.000000, 216.000000)">
                <g id="Artwork" transform="translate(11.000000, 135.000000)">
                    <g id="Group" transform="translate(251.044366, 217.663092) rotate(140.000000) translate(-251.044366, -217.663092) translate(86.544366, 72.663092)" fill="#E1BEE7">
                        <path d="M78.9628293,32.3183634 C137.872105,9.25557719 327.719079,-37.002112 328.80987,56.5970877 C330.147423,171.370661 262.109719,129.864337 294.450588,183.109695 C326.791458,236.355053 306.835735,308.00344 267.214978,285.575404 C237.421269,268.710144 227.152674,168.413073 147.774975,209.072652 C52.6237885,257.811873 -90.3729818,98.6127723 78.9628293,32.3183634 Z" id="Path"></path>
                    </g>
                    <g id="Group" transform="translate(219.691712, 230.645344) rotate(247.000000) translate(-219.691712, -230.645344) translate(68.191712, 56.645344)" fill="#DCEDC8">
                        <path d="M115.935349,106.20936 C157.609756,120.640015 174.01149,-32.2265379 259.432571,105.511783 C323.514253,208.841115 320.444862,284.066097 249.963047,258.564847 C132.774068,216.164329 200.692086,351.854013 73.9919585,277.518803 C-14.4009257,225.658526 -53.7257066,47.460589 115.935349,106.20936 Z" id="Path" transform="translate(151.729797, 173.881406) rotate(80.000000) translate(-151.729797, -173.881406) "></path>
                    </g>
                    <g id="Group-3" transform="translate(106.000000, 76.000000)">
                        <g id="Group" transform="translate(43.000000, 0.000000)" fill="#9C27B0">
                            <path d="M1.98565003,51.5961858 C0.729567015,49.5630241 0,47.1651169 0,44.6001327 C0,37.9782378 4.83780846,32.4882305 11.1796111,31.4363516 C13.9042723,23.6496245 21.3321618,18.0607829 30.0727996,18.0607829 C35.4087914,18.0607829 40.2513219,20.145715 43.8377695,23.5343179 C60.0369905,14.6815928 78.2974154,9.97284664 97.2850463,9.97284664 C103.496991,9.97284664 109.626298,10.4834903 115.63283,11.4694796 C118.841509,4.72521851 125.719271,0.0541235188 133.706732,0.0541235188 C144.756485,0.0541235188 153.716701,8.98215093 153.716701,19.9974636 C153.716701,20.5763499 153.683646,21.1434703 153.634064,21.7105906 C157.893413,22.3365409 161.194172,25.8616292 161.458611,30.2103363 C166.617523,33.8507312 171.504914,37.9499995 176.064118,42.4963751 C184.707952,51.1114273 191.75335,60.8936651 197.058648,71.4854024 C196.933512,71.5324663 196.810737,71.5818834 196.692684,71.6383601 C188.485645,55.2883511 176.326195,41.2444745 161.482222,30.7280395 C161.482222,30.7421587 161.484583,30.7562779 161.484583,30.7727502 L161.484583,30.8315802 C161.465694,33.751897 158.988944,36.0674423 156.058871,36.0674423 L145.556883,36.0674423 L110.181147,36.0674423 C108.33716,36.0674423 106.587616,35.1544021 105.619582,33.5918796 C104.361138,31.5563647 103.633932,29.1608107 103.633932,26.5934733 C103.633932,19.9739316 108.469379,14.4839243 114.811182,13.4296923 C115.00715,12.8719847 115.23145,12.3307495 115.474639,11.7989271 C109.553105,10.8223506 103.480463,10.2975878 97.2850463,10.2975878 C78.0447822,10.2975878 59.9378261,15.2087088 44.142346,23.8237611 C47.8114306,27.4382708 50.0851298,32.4576389 50.0851298,38.0064762 C50.0851298,38.5830093 50.052075,39.1524829 50.0048538,39.71725 C54.4436434,40.3714386 57.8530116,44.1718509 57.8530116,48.7794096 L57.8530116,48.8382395 C57.8341231,51.7585564 55.3550119,54.0741017 52.4272996,54.0741017 L41.9253123,54.0741017 L8.87994028,54.0741017 C8.41481179,54.6812264 7.9496833,55.2883511 7.49636011,55.9072417 C7.39955672,55.8225267 7.29567015,55.742518 7.18942253,55.6695689 C7.58135821,55.1306869 8.00162659,54.6059241 8.40536756,54.0741017 L6.54957573,54.0741017 C4.7055892,54.0741017 2.95368394,53.1610615 1.98565003,51.5961858" id="Path"></path>
                        </g>
                        <g id="Group" transform="translate(0.000000, 271.000000)" fill="#558B2F">
                            <path d="M267.505398,2.48401054 C267.505398,3.82494635 266.574254,4.90959972 265.425686,4.90959972 L2.25436121,4.90959972 C1.10508366,4.90959972 0.1739396,3.82301734 0.1739396,2.48401054 C0.1739396,1.14445261 1.10626531,0.0581457982 2.25436121,0.0581457982 L108.114333,0.0581457982 L108.123786,0.299822884 L109.208545,0.299547311 L109.243995,0.0578702257 L117.692827,0.0581457982 L117.903162,0.299822884 L124.643322,0.299547311 L124.373904,0.0578702257 L129.034351,0.0581457982 L132.685665,0.691135838 L132.13265,0.0581457982 L265.423322,0.0581457982 C266.574254,0.0581457982 267.505398,1.14445261 267.505398,2.48401054" id="Path"></path>
                        </g>
                        <g id="Group" transform="translate(61.000000, 30.000000)" fill="#FFFFFF">
                            <path d="M7.69849927,15.07095 L14.590087,10.3420729 L7.69849927,5.61554152 L7.69849927,15.07095 Z M2.00320487,10.3420729 C2.00320487,5.74924489 5.73986219,2.01258756 10.3326902,2.01258756 C14.9255182,2.01258756 18.6621756,5.74924489 18.6621756,10.3420729 C18.6621756,14.9349009 14.9255182,18.6715583 10.3326902,18.6715583 C5.73986219,18.6715583 2.00320487,14.9349009 2.00320487,10.3420729 Z M0.0703701944,10.3420729 C0.0703701944,16.0021822 4.67258091,20.6067386 10.3326902,20.6067386 C15.9904539,20.6067386 20.5950102,16.0021822 20.5950102,10.3420729 C20.5950102,4.68430928 15.9904539,0.079752887 10.3326902,0.079752887 C4.67258091,0.079752887 0.0703701944,4.68430928 0.0703701944,10.3420729" id="Shape"></path>
                        </g>
                        <g id="Group" transform="translate(167.000000, 13.000000)" fill="#FFFFFF">
                            <path d="M0.0681950088,10.9488262 C0.0681950088,16.5713871 4.25630917,19.9858407 9.01820203,19.9858407 C11.0546461,19.9858407 12.5478816,19.72717 14.2668662,18.9535093 L13.7518763,17.2886105 C12.6043189,17.8906078 11.0546461,18.2057158 9.59198072,18.2057158 C5.31685914,18.2057158 2.24808374,15.4826186 2.24808374,10.6901555 C2.24808374,5.21103929 6.09287131,1.76836713 10.4808674,1.76836713 C14.9276523,1.76836713 17.3379931,4.66783078 17.3379931,8.39504074 C17.3379931,11.6942682 15.7883203,13.2721596 14.5537555,13.243941 C13.7518763,13.2157224 13.5496428,12.4397102 13.8365321,10.7465928 L14.6972002,5.43913984 C13.9799768,5.039376 12.5478816,4.72426802 11.2850982,4.72426802 C7.15106972,4.72426802 4.57141714,7.90826947 4.57141714,11.4073789 C4.57141714,13.7589309 5.91885646,15.1369404 7.78363721,15.1369404 C9.30509138,15.1369404 10.5960934,14.3914984 11.4849801,12.9264815 L11.5437689,12.9288331 C11.6872136,14.4479357 12.6607561,15.1369404 14.010547,15.1369404 C17.107541,15.1369404 19.4614446,12.4961475 19.4614446,8.30803332 C19.4614446,3.48970321 15.8447576,0.0188124162 10.7983269,0.0188124162 C4.31274642,0.0188124162 0.0681950088,5.09581325 0.0681950088,10.9488262 Z M7.44031062,11.0640523 C7.44031062,12.1551724 7.92708189,12.8418256 8.87475735,12.8418256 C9.93765887,12.8418256 11.0546461,11.4943863 11.3133168,9.82948748 L11.7130807,7.10639023 C11.4849801,7.04760143 11.1980908,6.99116418 10.824194,6.99116418 C8.93354616,6.99116418 7.44031062,8.85359339 7.44031062,11.0640523" id="Shape"></path>
                        </g>
                        <g id="Group" transform="translate(183.000000, 65.000000)" fill="#9C27B0">
                            <path d="M58.1721379,31.4686267 L58.1721379,31.5309693 C58.1531986,34.5066296 55.6697795,36.8660573 52.7318167,36.8660573 L6.73293017,36.8660573 C4.88397853,36.8660573 3.12972352,35.9357138 2.15908309,34.3435797 C0.894883124,32.2694893 0.165719097,29.8285367 0.165719097,27.2125453 C0.165719097,20.4675554 5.0141864,14.8711081 11.3754323,13.7992949 C14.10743,5.86500007 21.5553197,0.170243256 30.3194925,0.170243256 C41.4013653,0.170243256 50.3857078,9.2698652 50.3857078,20.4939311 C50.3857078,21.0813903 50.3525639,21.661656 50.3028482,22.2371262 C54.7535897,22.9037125 58.1721379,26.7761471 58.1721379,31.4686267" id="Path"></path>
                        </g>
                        <g id="Group" transform="translate(201.000000, 84.000000)" fill="#FFFFFF">
                            <path d="M22.5775968,0.170534553 L0.18814664,0.170534553 L0.18814664,13.7810355 L22.5775968,13.7810355 L22.5775968,0.170534553 Z M18.0711448,2.07176437 L4.6945987,2.07176437 L11.3817383,5.88805112 L18.0711448,2.07176437 Z M20.7074646,2.7446845 L11.3817383,8.06582346 L2.05374525,2.7446845 L2.05374525,11.8821102 L20.7074646,11.8821102 L20.7074646,2.7446845 Z" id="Shape"></path>
                        </g>
                    </g>
                    <g id="Group-2" transform="translate(171.000000, 121.000000)">
                        <g id="Group" transform="translate(30.000000, 34.000000)" fill="#FFF3E0">
                            <path d="M21.41166,184.551907 L22.0137795,186.217423 L20.9382193,186.476556 L21.41166,184.551907 Z M18.8186616,186.94535 L18.9449124,179.366899 L18.9521961,179.378677 C18.9449124,179.001757 19.0104658,178.622481 19.1318608,178.254984 L18.2529606,175.82856 L19.3552277,170.32317 L12.865448,170.32317 L12.9674199,176.349181 L12.1030871,177.479942 L12.3628725,183.020669 L18.8186616,186.94535 Z M66.8449736,53.9514146 C66.8401178,53.9443474 66.8376899,53.9396359 66.8304062,53.9325686 C67.8452689,52.1633994 68.4959464,50.2316834 68.7654434,48.2457852 C69.2825864,46.940699 69.3141491,45.3953262 69.0349404,43.9394719 C68.8674153,43.0701997 68.5930624,42.233908 68.2434447,41.4965579 C68.1001985,41.192666 67.6000509,41.3363668 67.6413252,41.6308357 C67.8307015,42.9406334 67.9690919,44.2622098 67.8598363,45.5649403 C67.8598363,45.5884978 67.8549805,45.6120553 67.8525526,45.6356128 C67.7772877,45.586142 67.7020227,45.5366712 67.6267578,45.4895562 C67.8161341,43.7580791 67.4058188,41.8687666 66.7041554,40.3846433 C66.5584813,40.0807514 66.0607616,40.2244522 66.1020359,40.5189211 C66.2914122,41.8287188 66.4298025,43.1502952 66.320547,44.4530257 C66.3084075,44.6155725 66.2865564,44.7781193 66.2622774,44.9359547 C66.2598495,44.9359547 66.2574216,44.9359547 66.2525658,44.9359547 C66.2865564,43.4047164 65.8980922,41.8098728 65.288689,40.5212769 C65.1454429,40.217385 64.6452952,40.3610858 64.6865695,40.6579104 C64.8759458,41.9653524 65.0143362,43.2869288 64.9075085,44.592015 C64.9002248,44.6626875 64.8905132,44.7333601 64.8808016,44.8040326 C64.8079646,44.8040326 64.7326997,44.8063884 64.6550068,44.8110999 C64.6040209,43.4353411 64.2374078,42.0383807 63.693558,40.8887741 C63.5503118,40.5848822 63.0501642,40.728583 63.0938664,41.0230519 C63.2783869,42.3328496 63.4192052,43.654426 63.3123775,44.9571564 C62.6762674,45.9347932 62.2780916,46.9524777 62.1032827,47.9890083 C61.8896275,49.2469794 62.0280178,50.5355753 62.5378771,51.8335943 C58.1530876,54.156365 54.8462863,55.6687573 51.3015507,57.0186027 C52.4620874,59.004501 53.3895456,61.1034754 54.3971246,63.1647577 C58.9178765,60.017474 63.2929543,57.0657178 66.8449736,53.9514146 Z M22.3464019,174.217226 L21.4237995,175.253757 L21.3533904,180.973521 L27.5639614,185.963002 L30.7202329,185.630841 L27.6076636,174.441023 L29.1129623,168.603471 L22.6256105,167.402038 L22.3464019,174.217226 Z M19.5543156,30.2572688 L20.4356437,30.3467873 L20.7512709,25.7994807 L20.9964889,22.2759836 C21.4237995,22.3341707 21.8583938,22.374454 22.3002718,22.374454 L24.6820428,22.374454 C26.935135,22.374454 29.9772951,19.45026 29.9772951,15.833004 L31.4316079,0.171734265 C29.7660677,3.42337768 26.8428748,6.17725087 23.6768917,8.26326858 C20.9042286,10.0882691 17.849929,11.3071347 14.6766623,11.9443655 L12.9358572,13.288086 C12.9358572,13.9521722 13.01355,14.5974125 13.1543683,15.2207443 L13.0693917,15.2122636 L12.6178021,21.7270936 C14.4824302,23.2642213 16.6214111,24.5047599 18.8963544,25.3733253 C19.1148655,27.001385 19.3333766,28.6299158 19.5543156,30.2572688 Z M21.9676493,75.2497615 C23.3151345,75.2898093 24.652908,75.5701437 25.9736862,75.8952373 C26.272318,75.9682656 26.4738338,75.5018269 26.1800578,75.329857 C25.0607954,74.6773139 23.6720359,74.1708274 22.2662812,73.9705886 C22.2808486,73.8952045 22.2905602,73.8221762 22.3002718,73.7515037 C22.3731088,73.7515037 22.4459459,73.749148 22.5187829,73.7515037 C23.8686959,73.7915515 25.2064694,74.0695301 26.5272476,74.3946238 C26.8234516,74.4676521 27.0249674,74.0012133 26.7311913,73.8315992 C25.4783944,73.1013164 23.8881191,72.5524263 22.3172671,72.413437 C22.3148392,72.4110813 22.3148392,72.4087255 22.3148392,72.404014 C22.4823644,72.3993025 22.6498895,72.3969467 22.8174147,72.4016582 C24.1648998,72.441706 25.5026734,72.7196847 26.8234516,73.0447783 C27.1196555,73.1178066 27.3211713,72.6537236 27.0273953,72.4817538 C25.585222,71.6407506 23.693887,71.0376783 21.8996681,71.0282553 C21.8632496,70.9505155 21.8195474,70.8727757 21.7758451,70.7950359 C21.8001242,70.7950359 21.8244032,70.7926802 21.8486822,70.7950359 C23.1961673,70.8350837 24.5339408,71.1130623 25.854719,71.438156 C26.1533509,71.51354 26.3548667,71.0447455 26.0610906,70.8751315 C24.1406208,69.7561496 21.4286553,69.0588473 19.2046979,69.6265833 C17.4566091,69.6595638 15.7230877,69.979946 14.0624033,70.5453263 C11.7728925,69.5464878 9.81357633,68.6301005 8.0145016,67.7184248 C6.37324044,66.8844889 4.86065804,66.0529087 3.34807564,65.160079 C2.42304532,67.2614091 1.26250858,69.2473074 0.182092584,71.2732534 C2.23366903,71.883393 4.24882696,72.4958883 6.22028267,73.0659801 C9.17989413,73.9234735 12.0399617,74.6796697 14.7834899,75.2050022 C17.1239866,76.3993681 19.5858783,76.3734548 21.9676493,75.2497615" id="Shape"></path>
                        </g>
                        <g id="Group" transform="translate(90.000000, 67.000000)" fill="#FFC107">
                            <path d="M2.79129226,7.79122631 C2.74896432,7.5106434 3.23338404,7.37371894 3.37212561,7.66103584 C3.90122481,8.7586762 4.25630917,10.0875169 4.30334021,11.4006449 C4.37858988,11.3961556 4.45148799,11.3939109 4.5243861,11.3939109 C4.53144076,11.326571 4.54084697,11.2592311 4.54790162,11.1896465 C4.65136991,9.94834774 4.51733145,8.68909163 4.33626194,7.44105884 C4.293934,7.16047593 4.77835372,7.02579613 4.91709529,7.31311303 C5.50733485,8.54094386 5.88358317,10.0583362 5.853013,11.5173674 C5.85536455,11.5196121 5.8577161,11.5196121 5.86006765,11.5196121 C5.88593473,11.3669749 5.90474714,11.2143378 5.91885646,11.0594561 C6.02232474,9.81591261 5.88828628,8.5566565 5.70721677,7.31086837 C5.66488884,7.03028545 6.14930855,6.89336099 6.28805012,7.18292256 C6.96764866,8.59481577 7.36506095,10.3972804 7.18163989,12.0471079 C7.25453801,12.0897565 7.32743612,12.1368945 7.40033423,12.1862771 C7.40268578,12.1638304 7.40738889,12.1413838 7.40974044,12.1189372 C7.51320873,10.8753937 7.37917026,9.61613758 7.19574921,8.37034944 C7.15577282,8.08976653 7.64019254,7.95284207 7.77893411,8.24015897 C8.11520605,8.94273859 8.38328298,9.74183872 8.54554007,10.5678748 L11.8283067,0.574633805 C11.8353614,0.558921162 11.8306583,0.547697845 11.8353614,0.531985202 C11.9176657,0.206509024 11.7224869,-0.0157126431 11.3697541,0.0336699495 L5.09346169,0.855216717 C4.75718975,0.814812778 4.38799608,1.06845973 4.27277004,1.42087187 L0.131686914,14.0291456 C0.0517341446,14.2670799 0.131686914,14.4488977 0.30099866,14.5274609 C0.331568836,14.5409289 0.364490564,14.5521522 0.399763845,14.5588862 C0.413873157,14.5611308 0.430334021,14.5588862 0.444443333,14.5611308 C0.491474374,14.5656202 0.536153862,14.5768435 0.590239559,14.5678648 L1.83185903,14.4286957 C2.00117078,13.4387992 2.38917686,12.4691046 3.00293194,11.539814 C3.10640023,10.2962706 2.97236176,9.03925911 2.79129226,7.79122631" id="Path"></path>
                        </g>
                        <g id="Group" fill="#212121">
                            <path d="M142.741028,114.940515 C142.622939,114.873956 142.582789,114.726575 142.648919,114.610096 C142.965397,114.04672 143.274789,113.478591 143.579459,112.908084 C143.643227,112.789228 143.787295,112.744063 143.905384,112.808245 C144.023472,112.87005 144.068346,113.017431 144.004578,113.136286 C143.699909,113.711548 143.388155,114.284432 143.069315,114.850184 C143.024441,114.928629 142.944141,114.973794 142.859117,114.973794 C142.818967,114.971417 142.778816,114.961909 142.741028,114.940515 Z M140.074583,119.53785 C140.152521,119.53785 140.23046,119.497439 140.275334,119.428503 C140.634324,118.886521 140.986228,118.337408 141.328686,117.785918 C141.399539,117.671817 141.366474,117.522059 141.253109,117.450745 C141.139744,117.379432 140.990952,117.412712 140.920099,117.526813 C140.580003,118.078303 140.23046,118.620285 139.876194,119.159889 C139.802978,119.271613 139.833682,119.423749 139.942323,119.497439 C139.982473,119.523587 140.027347,119.53785 140.074583,119.53785 Z M122.016442,138.8091 C122.536033,138.421631 123.0509,138.02703 123.558682,137.627675 C123.6626,137.544476 123.681494,137.392341 123.598832,137.285371 C123.51617,137.178401 123.365016,137.161761 123.261098,137.24496 C122.755678,137.641938 122.245534,138.034161 121.728305,138.419254 C121.622026,138.500075 121.598408,138.649834 121.678708,138.759181 C121.725944,138.823363 121.799159,138.856642 121.872374,138.856642 C121.924333,138.856642 121.97393,138.840003 122.016442,138.8091 Z M126.184977,135.464503 C126.676227,135.043754 127.160391,134.613497 127.639831,134.178485 C127.739026,134.088155 127.748473,133.93602 127.658725,133.836181 C127.568978,133.736342 127.415462,133.726834 127.31863,133.817164 C126.841551,134.249799 126.357387,134.675302 125.870861,135.098428 C125.769304,135.184004 125.757496,135.338516 125.844881,135.438355 C125.889755,135.495405 125.960608,135.523931 126.026738,135.523931 C126.083421,135.523931 126.137742,135.504914 126.184977,135.464503 Z M133.780449,127.943319 C134.210292,127.456011 134.63305,126.963949 135.048723,126.464756 C135.133747,126.36254 135.121938,126.208027 135.01802,126.122451 C134.916464,126.036875 134.76531,126.051138 134.680286,126.153354 C134.266975,126.647793 133.846579,127.137478 133.421459,127.622409 C133.334074,127.722248 133.341159,127.87676 133.442715,127.964713 C133.487589,128.005124 133.544272,128.026518 133.600954,128.026518 C133.667084,128.026518 133.733214,127.997993 133.780449,127.943319 Z M130.112611,131.83703 C130.573157,131.380624 131.02898,130.919464 131.477717,130.451173 C131.569827,130.353711 131.567465,130.201576 131.470632,130.108869 C131.376161,130.016161 131.222646,130.016161 131.130536,130.116 C130.684161,130.579537 130.2307,131.03832 129.774877,131.492348 C129.678044,131.587433 129.678044,131.739568 129.770153,131.834652 C129.817389,131.884572 129.881157,131.905966 129.942563,131.905966 C130.003969,131.905966 130.065375,131.884572 130.112611,131.83703 Z M38.3316272,143.627507 C38.3694156,143.651278 38.4119276,143.660786 38.4520778,143.660786 C38.5347399,143.660786 38.6174021,143.617998 38.6599141,143.539554 C38.7284056,143.423075 38.6882554,143.275694 38.5725284,143.206758 C38.0151492,142.883471 37.4624936,142.550675 36.9145615,142.213125 C36.8011962,142.144189 36.6524043,142.179845 36.5815511,142.293947 C36.5130595,142.408048 36.5484862,142.557806 36.6618514,142.626743 C37.2145071,142.969047 37.7718862,143.301842 38.3316272,143.627507 Z M137.176683,123.800013 C137.568738,123.284179 137.956069,122.761214 138.338677,122.235873 C138.416616,122.128903 138.392998,121.976767 138.284356,121.895946 C138.178076,121.817501 138.026923,121.841272 137.948984,121.950619 C137.568738,122.473584 137.183769,122.991794 136.794076,123.505251 C136.711413,123.609844 136.732669,123.764356 136.836588,123.845178 C136.881461,123.878457 136.93342,123.895097 136.985379,123.895097 C137.056233,123.895097 137.129448,123.864195 137.176683,123.800013 Z M151.916528,65.9458515 C151.784269,65.9648684 151.69216,66.0884783 151.711054,66.2192195 C151.800801,66.8586627 151.883464,67.500483 151.956679,68.1446805 C151.970849,68.2682903 152.074767,68.3586206 152.195218,68.3586206 C152.204665,68.3586206 152.214112,68.3586206 152.223559,68.3562435 C152.355819,68.3419808 152.452652,68.2207481 152.436119,68.0876298 C152.360542,67.4410552 152.27788,66.7944807 152.188133,66.1526603 C152.169238,66.019542 152.048788,65.9244575 151.916528,65.9458515 Z M145.317726,110.217192 C145.407473,110.217192 145.494859,110.167273 145.535009,110.07932 C145.813699,109.492173 146.087665,108.900272 146.352184,108.303617 C146.404143,108.180007 146.349822,108.03738 146.229371,107.982707 C146.106559,107.928033 145.964852,107.982707 145.910532,108.106317 C145.648374,108.698218 145.379132,109.287742 145.100442,109.870134 C145.04376,109.993744 145.095719,110.136371 145.213808,110.195798 C145.246873,110.210061 145.282299,110.217192 145.317726,110.217192 Z M151.640201,89.8358309 C151.654371,89.838208 151.66618,89.8405852 151.680351,89.8405852 C151.796078,89.8405852 151.897634,89.7550091 151.91889,89.6361535 C152.022808,88.9943331 152.122003,88.3501357 152.21175,87.7059382 C152.228283,87.5728199 152.136174,87.4492101 152.006276,87.4325703 C151.87874,87.4183076 151.751204,87.5062608 151.734672,87.637002 C151.644924,88.2811994 151.548091,88.9206427 151.444173,89.5577088 C151.420555,89.68845 151.507941,89.8144369 151.640201,89.8358309 Z M152.287789,82.3360414 C152.240788,82.9826159 152.186366,83.6268134 152.122049,84.2686337 C152.109681,84.401752 152.211103,84.5206077 152.349632,84.5324932 C152.359527,84.5348703 152.364474,84.5348703 152.374369,84.5348703 C152.503003,84.5348703 152.614321,84.4397858 152.624216,84.316176 C152.688532,83.6696014 152.745428,83.0206497 152.789955,82.369321 C152.79985,82.2338255 152.69348,82.1197242 152.554951,82.1102157 C152.416423,82.1030844 152.29521,82.2029231 152.287789,82.3360414 Z M152.520599,71.2634519 C152.371998,71.2729604 152.257894,71.3894389 152.268508,71.5225572 C152.318926,72.1667546 152.361384,72.8109521 152.393227,73.4599038 C152.401187,73.5906449 152.520599,73.6928608 152.663892,73.6928608 L152.67716,73.6928608 C152.828414,73.6857294 152.942518,73.571628 152.937211,73.4385098 C152.902715,72.787181 152.860257,72.1358522 152.809839,71.4892776 C152.799225,71.3537822 152.658585,71.2515664 152.520599,71.2634519 Z M153.076616,78.9581647 C153.095383,78.309213 153.107895,77.6578842 153.107895,77.0065554 L153.107895,76.8544202 C153.107895,76.7189248 152.964013,76.6119548 152.788852,76.6119548 C152.610563,76.6119548 152.469809,76.7189248 152.469809,76.8544202 L152.469809,77.0065554 C152.469809,77.6555071 152.457297,78.3020817 152.43853,78.9462791 C152.432274,79.0793974 152.573029,79.1911217 152.748189,79.1958759 L152.754445,79.1958759 C152.929606,79.1934988 153.07036,79.0889059 153.076616,78.9581647 Z M147.443324,105.298947 C147.537795,105.298947 147.627543,105.241896 147.665331,105.146812 C147.903871,104.538271 148.132963,103.92973 148.35497,103.314058 C148.399844,103.190448 148.336076,103.050199 148.210902,103.002656 C148.085727,102.957491 147.946383,103.02405 147.901509,103.14766 C147.681864,103.758578 147.452771,104.364742 147.216594,104.968528 C147.166997,105.092138 147.228403,105.234765 147.353577,105.282307 C147.381918,105.294193 147.410259,105.298947 147.443324,105.298947 Z M149.217018,100.240452 C149.318575,100.240452 149.415407,100.173893 149.446111,100.071677 C149.639776,99.4512505 149.826357,98.828447 150.00349,98.2008894 C150.041278,98.0725253 149.965701,97.939407 149.838165,97.9013732 C149.708268,97.8609623 149.576008,97.939407 149.540582,98.0677711 C149.363448,98.6905745 149.176868,99.3110009 148.985564,99.926673 C148.945414,100.055037 149.016267,100.190532 149.143803,100.230943 C149.169783,100.238075 149.1934,100.240452 149.217018,100.240452 Z M150.971818,60.6805476 C150.84192,60.709073 150.759258,60.837437 150.785238,60.9705553 C150.919859,61.6004901 151.047395,62.2351791 151.165484,62.8722452 C151.18674,62.9887237 151.288296,63.0695456 151.401661,63.0695456 C151.415832,63.0695456 151.430003,63.0695456 151.446535,63.0647913 C151.576433,63.0410202 151.663818,62.9126562 151.640201,62.781915 C151.51975,62.1424717 151.392214,61.5030285 151.257593,60.8683395 C151.229252,60.7375983 151.104077,60.6520223 150.971818,60.6805476 Z M120.648974,14.742851 C120.724551,14.742851 120.797766,14.7095714 120.845001,14.6430122 C120.92294,14.531288 120.89696,14.3815299 120.788319,14.3030852 C120.261642,13.9251243 119.730243,13.5542948 119.191758,13.1905966 C119.083116,13.1169061 118.934324,13.1454314 118.858747,13.2571557 C118.783171,13.3665029 118.813874,13.5186381 118.924877,13.5923286 C119.456277,13.9536496 119.987676,14.3244792 120.509629,14.6976858 C120.552141,14.7285883 120.601738,14.742851 120.648974,14.742851 Z M93.1059401,152.092404 C93.1224725,152.092404 93.1413667,152.092404 93.1578991,152.08765 C93.7908552,151.945023 94.4214494,151.797642 95.0473201,151.640753 C95.1772178,151.607473 95.2551564,151.476732 95.2220915,151.345991 C95.1890267,151.21525 95.0614907,151.136805 94.9292313,151.167707 C94.3080841,151.324597 93.6822135,151.471978 93.053981,151.612227 C92.9240833,151.640753 92.8437829,151.771494 92.8721242,151.902235 C92.895742,152.018714 92.9949366,152.092404 93.1059401,152.092404 Z M82.6172921,153.682637 C83.2644188,153.632005 83.9091837,153.57173 84.549225,153.50181 C84.6814845,153.487344 84.7783173,153.366793 84.7641467,153.231776 C84.749976,153.096758 84.6295254,152.995495 84.4996277,153.012372 C83.8619482,153.082292 83.2242686,153.140157 82.5795037,153.193199 C82.4472442,153.202843 82.3480496,153.320983 82.3598585,153.456001 C82.3693056,153.583785 82.4755855,153.682637 82.5983979,153.682637 C82.6054832,153.685048 82.6125686,153.685048 82.6172921,153.682637 Z M87.9147561,153.064643 C88.5571592,152.969559 89.1948387,152.864966 89.8301565,152.753241 C89.962416,152.72947 90.0498017,152.603483 90.026184,152.470365 C90.0025662,152.339624 89.8726685,152.246916 89.7474944,152.273065 C89.1145384,152.384789 88.4815823,152.489382 87.8439028,152.584466 C87.7140051,152.60586 87.6218958,152.72947 87.64079,152.862588 C87.6596842,152.981444 87.7636024,153.06702 87.8793294,153.06702 C87.8911383,153.06702 87.9029472,153.06702 87.9147561,153.064643 Z M77.2938486,154.054712 C77.9409753,154.048641 78.5857402,154.030427 79.2305051,154.003106 C79.3627646,153.993999 79.4666827,153.851324 79.4619592,153.678292 C79.4572356,153.508296 79.3415086,153.380799 79.2116109,153.380799 C78.5715695,153.411155 77.9315282,153.429369 77.2867633,153.435441 C77.1545038,153.438476 77.0482239,153.578116 77.0482239,153.748112 C77.0505857,153.918108 77.1568656,154.054712 77.2891251,154.054712 L77.2938486,154.054712 Z M150.572678,95.0773637 C150.591572,95.0821179 150.612828,95.0844951 150.62936,95.0844951 C150.738002,95.0844951 150.837197,95.0084275 150.863176,94.8990803 C151.01433,94.2643913 151.156036,93.6297023 151.288296,92.9926362 C151.316637,92.861895 151.233975,92.7335309 151.104077,92.7050056 C150.971818,92.6812344 150.844282,92.7620563 150.818303,92.8927974 C150.686043,93.5274864 150.544336,94.1574212 150.395545,94.7849789 C150.364841,94.9157201 150.445142,95.0464613 150.572678,95.0773637 Z M21.7425114,130.510601 C21.8039176,130.510601 21.862962,130.48683 21.9101975,130.441665 C22.0046686,130.348957 22.0070303,130.194445 21.9172828,130.09936 C21.4709071,129.633446 21.029255,129.165155 20.5946882,128.687356 C20.5049407,128.587517 20.3514252,128.582763 20.2545924,128.673093 C20.1577596,128.763423 20.1506743,128.917936 20.2404218,129.015397 C20.6773503,129.495574 21.1213643,129.968619 21.5701017,130.43691 C21.6173373,130.484453 21.6811052,130.510601 21.7425114,130.510601 Z M29.6379291,137.668086 C29.7111442,137.668086 29.7819975,137.637184 29.829233,137.575379 C29.9095334,137.468409 29.893001,137.316274 29.786721,137.235452 C29.2813009,136.836097 28.7782426,136.429611 28.2822696,136.01837 C28.1807132,135.932794 28.0295596,135.949434 27.9445356,136.05165 C27.8595117,136.156243 27.8736823,136.308378 27.9776005,136.393954 C28.4759353,136.807571 28.9789936,137.216435 29.4891372,137.61579 C29.534011,137.651446 29.58597,137.668086 29.6379291,137.668086 Z M25.566227,134.226027 C25.6323567,134.226027 25.6984865,134.199879 25.745722,134.147583 C25.8354695,134.047744 25.8260224,133.893232 25.7291896,133.802901 C25.2521108,133.370267 24.7773938,132.930501 24.3121239,132.485981 C24.215291,132.395651 24.0617756,132.398028 23.9720281,132.49549 C23.8799188,132.592951 23.8846424,132.747464 23.9814752,132.840171 C24.4514687,133.287068 24.9261857,133.726834 25.4056262,134.161845 C25.4505,134.207011 25.5095444,134.226027 25.566227,134.226027 Z M33.9387235,140.81776 C34.0166621,140.81776 34.092239,140.782103 34.1418363,140.713167 C34.2150513,140.601443 34.18671,140.451685 34.0757065,140.375617 C33.5419451,140.011919 33.0129073,139.643467 32.4909547,139.267883 C32.382313,139.191815 32.2311594,139.215586 32.1532207,139.324933 C32.0752821,139.434281 32.1012617,139.586416 32.2099034,139.664861 C32.7389412,140.040444 33.2679791,140.413651 33.8041023,140.777349 C33.8466143,140.805875 33.8938498,140.81776 33.9387235,140.81776 Z M116.08366,11.7571978 C116.121449,11.7809689 116.166323,11.7928545 116.208835,11.7928545 C116.289135,11.7928545 116.369435,11.7500665 116.414309,11.676376 C116.482801,11.5598975 116.447374,11.4125165 116.334009,11.3412031 C115.781353,11.0012761 115.226336,10.6684803 114.664233,10.3428159 C114.550868,10.2762568 114.402076,10.3166677 114.335946,10.4307691 C114.267455,10.5472476 114.307605,10.6970057 114.423332,10.7635648 C114.980711,11.0868521 115.533367,11.4196479 116.08366,11.7571978 Z M111.461664,9.13048864 C111.497091,9.14950554 111.53488,9.15901399 111.572668,9.15901399 C111.660054,9.15901399 111.742716,9.11147174 111.785228,9.02827281 C111.848996,8.90941719 111.80176,8.76203622 111.683671,8.7002313 C111.107398,8.40071514 110.531125,8.10833032 109.947766,7.82069972 C109.829677,7.76364902 109.683247,7.81356838 109.624203,7.93480111 C109.565158,8.05365673 109.617117,8.2010377 109.735206,8.2580884 C110.316203,8.54096477 110.890115,8.83334959 111.461664,9.13048864 Z M112.722853,144.483267 C112.765365,144.564089 112.848027,144.609254 112.933051,144.609254 C112.973201,144.609254 113.013351,144.599746 113.048778,144.578352 C113.615604,144.26695 114.177707,143.950794 114.737448,143.62513 C114.853175,143.558571 114.890963,143.408813 114.824834,143.294711 C114.758704,143.178233 114.609912,143.137822 114.496547,143.204381 C113.941529,143.527668 113.381788,143.843824 112.819686,144.152849 C112.701597,144.217031 112.659085,144.364412 112.722853,144.483267 Z M117.297613,141.778113 C117.344849,141.849427 117.422787,141.889838 117.503088,141.889838 C117.5456,141.889838 117.590474,141.877952 117.632986,141.851804 C118.176194,141.502368 118.714679,141.145802 119.250802,140.779726 C119.359444,140.706036 119.390147,140.553901 119.31457,140.442176 C119.238993,140.332829 119.090201,140.301927 118.979198,140.377994 C118.447798,140.739315 117.911675,141.093505 117.370828,141.440564 C117.259825,141.516631 117.22676,141.664012 117.297613,141.778113 Z M103.06555,148.892811 C103.100977,148.990272 103.193086,149.0497 103.292281,149.0497 C103.320622,149.0497 103.348963,149.044946 103.374943,149.03306 C103.981919,148.804858 104.584172,148.569524 105.184063,148.324681 C105.306876,148.274762 105.36592,148.134512 105.316323,148.008525 C105.266726,147.884915 105.125019,147.827864 105.002207,147.875407 C104.407039,148.117872 103.80951,148.353206 103.207257,148.581409 C103.082083,148.626574 103.018315,148.766824 103.06555,148.892811 Z M98.2522503,150.751713 C98.2758681,150.751713 98.2971241,150.749336 98.3207419,150.742204 C98.941889,150.556789 99.5583126,150.364243 100.172374,150.162189 C100.297549,150.121778 100.368402,149.983905 100.32589,149.855541 C100.28574,149.729554 100.151118,149.660618 100.023582,149.701029 C99.4142442,149.900706 98.8001824,150.093253 98.1813971,150.27629 C98.0538611,150.316701 97.9830079,150.449819 98.0207963,150.578183 C98.0514994,150.682776 98.1483322,150.751713 98.2522503,150.751713 Z M107.970959,146.855625 C108.013471,146.945956 108.100857,146.998252 108.190604,146.998252 C108.226031,146.998252 108.259096,146.991121 108.292161,146.976858 C108.880243,146.705867 109.46124,146.427745 110.039875,146.144869 C110.160326,146.085441 110.207561,145.940437 110.150879,145.819205 C110.091834,145.697972 109.945404,145.65043 109.827315,145.709857 C109.253404,145.990357 108.674769,146.266102 108.09141,146.534715 C107.970959,146.589389 107.916638,146.734393 107.970959,146.855625 Z M106.664897,6.83895231 C106.697962,6.85083787 106.731027,6.85796921 106.76173,6.85796921 C106.856201,6.85796921 106.943587,6.80329562 106.983737,6.71058824 C107.035696,6.58935551 106.979013,6.44435165 106.858563,6.39205518 C106.263395,6.13294993 105.663504,5.88097602 105.063613,5.63613344 C104.9408,5.58621408 104.799094,5.64801901 104.749497,5.77162885 C104.699899,5.89523869 104.758944,6.03786544 104.881756,6.0877848 C105.481647,6.33025026 106.074453,6.57984706 106.664897,6.83895231 Z M43.0457324,146.156754 C43.0811591,146.171017 43.1165857,146.180526 43.1520124,146.180526 C43.2417599,146.180526 43.3267838,146.130606 43.366934,146.04503 C43.4259784,145.923797 43.3787429,145.778794 43.2559305,145.719366 C42.6772953,145.434112 42.1033837,145.144105 41.5318339,144.844588 C41.4137451,144.782784 41.2696768,144.827949 41.2082706,144.946804 C41.1445026,145.06566 41.1917381,145.213041 41.3098269,145.274846 C41.8837386,145.574362 42.4647355,145.869124 43.0457324,146.156754 Z M13.0771546,34.5774766 C12.9661512,34.501409 12.8173593,34.5323115 12.7417824,34.6464129 C12.3851542,35.1907716 12.0356113,35.7375075 11.6931538,36.2889975 C11.6223005,36.4030989 11.6553654,36.552857 11.7687306,36.6241704 C11.8088808,36.6503186 11.8537546,36.6622042 11.8962666,36.6622042 C11.9765669,36.6622042 12.0568673,36.6217933 12.0993793,36.5481028 C12.4418369,35.9989898 12.7890179,35.4546311 13.1432844,34.9150266 C13.2188612,34.8009252 13.1881581,34.6511671 13.0771546,34.5774766 Z M16.8111228,124.601099 C16.7072046,124.684298 16.6906722,124.836434 16.7733343,124.941027 C17.1748363,125.449729 17.5834236,125.953676 18.0014579,126.450493 C18.0486935,126.507544 18.117185,126.538446 18.1856765,126.538446 C18.2399973,126.538446 18.29668,126.519429 18.3415537,126.481395 C18.4431101,126.393442 18.454919,126.241307 18.369895,126.139091 C17.9565842,125.644652 17.5503587,125.145458 17.1512185,124.639133 C17.0661946,124.532163 16.9150409,124.5179 16.8111228,124.601099 Z M16.1781667,30.2249839 C16.0718868,30.144162 15.9207331,30.1655561 15.838071,30.270149 C15.4460161,30.7883595 15.0586848,31.3089471 14.6784389,31.8366661 C14.6005003,31.9460132 14.624118,32.0957713 14.730398,32.1765931 C14.7729099,32.2074956 14.824869,32.2217583 14.8721045,32.2217583 C14.9476814,32.2217583 15.0208964,32.1884787 15.0681319,32.1219195 C15.4460161,31.5989548 15.8309857,31.0807443 16.2230405,30.5649109 C16.3033409,30.460318 16.2820849,30.3058057 16.1781667,30.2249839 Z M13.6581516,120.298526 C13.5471481,120.374594 13.5211686,120.526729 13.5967454,120.636076 C13.9628207,121.170926 14.3359813,121.703399 14.7162273,122.226364 C14.7634628,122.292923 14.8390397,122.326203 14.9122547,122.326203 C14.961852,122.326203 15.0114493,122.31194 15.0539613,122.281038 C15.162603,122.202593 15.1862208,122.050458 15.1082821,121.941111 C14.730398,121.420523 14.3595991,120.892804 13.9935238,120.360331 C13.917947,120.248607 13.7667933,120.222458 13.6581516,120.298526 Z M10.2855352,39.1367782 C10.1698082,39.0725961 10.0210163,39.113007 9.95488655,39.2294855 C9.63840854,39.7976154 9.32665409,40.3681224 9.02198496,40.9433836 C8.958217,41.0622392 9.00309075,41.2096202 9.12117956,41.2714251 C9.1566062,41.290442 9.19439462,41.2999504 9.23454481,41.2999504 C9.31956876,41.2999504 9.4045927,41.2547853 9.44710467,41.1715864 C9.74941202,40.5987023 10.0588047,40.0305724 10.3752827,39.4671968 C10.4414124,39.3507183 10.4012622,39.2033373 10.2855352,39.1367782 Z M10.8122113,115.789144 C10.6964843,115.855703 10.6586958,116.007838 10.7271874,116.12194 C11.0554742,116.680561 11.3908465,117.234428 11.733304,117.785918 C11.7805395,117.859609 11.8584781,117.90002 11.9387785,117.90002 C11.9812905,117.90002 12.0261642,117.888134 12.0663144,117.861986 C12.1796797,117.790672 12.2127446,117.640914 12.1418913,117.526813 C11.8017955,116.982454 11.4664233,116.430964 11.1404982,115.87472 C11.0720067,115.760619 10.9255766,115.720208 10.8122113,115.789144 Z M22.8950582,22.2260007 C22.4345118,22.6824063 21.9810508,23.1459432 21.5299515,23.6142343 C21.4378423,23.711696 21.4425658,23.8638311 21.5370369,23.9565385 C21.5842724,24.0017037 21.6433168,24.0254748 21.704723,24.0254748 C21.7684909,24.0254748 21.8298971,23.9993266 21.8771326,23.9494072 C22.3258701,23.4858703 22.7769694,23.0247105 23.2327922,22.570682 C23.329625,22.4779746 23.329625,22.3234623 23.2351539,22.2283778 C23.1430447,22.1332933 22.9895292,22.1332933 22.8950582,22.2260007 Z M35.3652363,12.1993407 C34.8220278,12.5487762 34.2835428,12.9077202 33.7474197,13.2714184 C33.638778,13.347486 33.6104366,13.4972441 33.6836517,13.6089684 C33.7308872,13.6779046 33.8064641,13.7159384 33.8844027,13.7159384 C33.9292764,13.7159384 33.9788737,13.7016757 34.0190239,13.6731504 C34.5504236,13.3118293 35.0865467,12.9552625 35.6273935,12.608204 C35.738397,12.5345136 35.7714618,12.3871326 35.6982468,12.2730312 C35.6273935,12.1613069 35.4762398,12.1280273 35.3652363,12.1993407 Z M30.9841415,15.2467988 C30.4645508,15.6342681 29.9520454,16.0288688 29.4442635,16.4306007 C29.3379836,16.5137997 29.3190893,16.6659349 29.4017515,16.7705278 C29.448987,16.8323327 29.5198403,16.8632352 29.5930554,16.8632352 C29.6450145,16.8632352 29.6969735,16.8465954 29.7418473,16.8133158 C30.2472674,16.413961 30.7550493,16.0217374 31.2722782,15.6366452 C31.3785582,15.5582005 31.3998141,15.4060653 31.3218755,15.2967181 C31.2415751,15.1897481 31.0904215,15.165977 30.9841415,15.2467988 Z M44.7013375,7.06715509 C44.1132553,7.33814591 43.5298965,7.61626805 42.9536232,7.90152154 C42.8331726,7.95857224 42.7835753,8.1059532 42.8426197,8.22480882 C42.8851316,8.31038487 42.9701556,8.36030423 43.0599031,8.36030423 C43.0953297,8.36030423 43.1307564,8.35317289 43.166183,8.3365331 C43.7400946,8.05365673 44.3187298,7.77553458 44.9020885,7.50692088 C45.0225391,7.4522473 45.0768599,7.30724344 45.0201773,7.18601071 C44.9634947,7.06477798 44.8217881,7.01248151 44.7013375,7.06715509 Z M8.28274902,111.094347 C8.16466021,111.153775 8.11742469,111.298779 8.17646909,111.417634 C8.46460578,112.000027 8.76218958,112.575288 9.06449693,113.148172 C9.10937068,113.231371 9.19203284,113.276536 9.27705679,113.276536 C9.31720698,113.276536 9.3549954,113.267028 9.39042204,113.248011 C9.50851085,113.186206 9.5533846,113.038825 9.48961664,112.919969 C9.18967107,112.351839 8.89444905,111.778955 8.60631235,111.201317 C8.54726795,111.082461 8.40556138,111.034919 8.28274902,111.094347 Z M26.8203302,18.5961501 C26.3290807,19.0192761 25.8449166,19.4471564 25.365476,19.884545 C25.2662814,19.9748753 25.2568343,20.1270105 25.3489436,20.2268492 C25.3938174,20.2791457 25.4599471,20.307671 25.5260768,20.307671 C25.5851212,20.307671 25.6418039,20.286277 25.6890394,20.243489 C26.1661182,19.8108545 26.6479205,19.3853514 27.1344464,18.9646025 C27.2360028,18.8766494 27.2478116,18.7245142 27.1604259,18.6222984 C27.0730402,18.5200825 26.9218865,18.508197 26.8203302,18.5961501 Z M19.5696773,26.103071 C19.4704827,26.0151178 19.3169673,26.0246263 19.2295816,26.124465 C18.8021001,26.6117731 18.3793421,27.1062124 17.9636695,27.605406 C17.8786456,27.7076219 17.8928162,27.8597571 17.9943726,27.9477102 C18.0392464,27.9833669 18.0935672,28.0047609 18.1478881,28.0047609 C18.2163796,28.0047609 18.2848711,27.9738584 18.3344684,27.9168077 C18.7477792,27.4199913 19.1658136,26.9303061 19.5909333,26.4453752 C19.678319,26.3455365 19.6688719,26.1910242 19.5696773,26.103071 Z M39.9447203,9.4680386 C39.377894,9.77944032 38.8181531,10.0979734 38.2584121,10.4236378 C38.1426851,10.4901969 38.1048967,10.639955 38.1710264,10.7564335 C38.2159002,10.8348782 38.2962006,10.8776662 38.3788627,10.8776662 C38.4213747,10.8776662 38.4615249,10.8657807 38.4993133,10.8443867 C39.0543307,10.5210994 39.6140717,10.2049434 40.1761744,9.89354171 C40.2919014,9.83173679 40.3344134,9.68197871 40.2706454,9.5655002 C40.2092393,9.4490217 40.0628091,9.40385656 39.9447203,9.4680386 Z M2.02404218,93.2612499 C2.04057461,93.2612499 2.05710704,93.2588727 2.07363948,93.2564956 C2.20589894,93.2279703 2.28856111,93.0996062 2.26021979,92.968865 C2.12559855,92.3365531 2.00278619,91.7018641 1.88469738,91.064798 C1.85871784,90.9340568 1.73354371,90.8461037 1.60364602,90.8722519 C1.47138655,90.896023 1.38400083,91.02201 1.40998037,91.1551283 C1.52806918,91.7945715 1.65560509,92.4340148 1.78786456,93.0687038 C1.81148232,93.1828052 1.9130387,93.2612499 2.02404218,93.2612499 Z M2.4680561,59.0070605 C2.34052018,58.9761581 2.21062249,59.0569799 2.1799194,59.1877211 C2.0311275,59.820033 1.88942093,60.454722 1.75479969,61.0941652 C1.72882015,61.2249064 1.81148232,61.3532704 1.94138001,61.3794187 C1.95791244,61.3841729 1.97680665,61.38655 1.99097731,61.38655 C2.10434257,61.38655 2.20353716,61.3081053 2.22715493,61.1916268 C2.35941439,60.5593149 2.50112096,59.927003 2.64755108,59.2994453 C2.68061595,59.1710813 2.60031556,59.037963 2.4680561,59.0070605 Z M1.4076186,64.2509704 C1.27535913,64.2248222 1.15254677,64.3175296 1.13129078,64.4506479 C1.02737263,65.0924682 0.928178034,65.7342885 0.840792316,66.3808631 C0.821898106,66.5139814 0.914007377,66.6352141 1.04626684,66.654231 C1.05807572,66.6566081 1.06752283,66.6566081 1.07933171,66.6566081 C1.19978229,66.6566081 1.30133867,66.568655 1.3178711,66.4474223 C1.40525682,65.8056019 1.50208964,65.1661587 1.60600779,64.5290926 C1.62962556,64.3959743 1.53987806,64.2723644 1.4076186,64.2509704 Z M3.07975612,98.276957 C3.11045921,98.3815499 3.20493026,98.4528633 3.31121019,98.4528633 C3.33246617,98.4528633 3.35608393,98.4504862 3.37733992,98.4409777 C3.50487583,98.405321 3.58045267,98.2698256 3.54266425,98.1414616 C3.36553104,97.5210352 3.19548315,96.8982318 3.03488238,96.2706741 C2.99945573,96.1399329 2.86955804,96.0638654 2.73966035,96.0971449 C2.61212444,96.1304245 2.53418583,96.2635428 2.56725069,96.3919069 C2.73021325,97.0242188 2.90026113,97.6517764 3.07975612,98.276957 Z M1.10058769,87.9935688 C1.11239657,87.9935688 1.12420546,87.9911917 1.13601434,87.9888146 C1.2682738,87.9721748 1.36038307,87.848565 1.34148886,87.7154467 C1.25174137,87.0783806 1.17144098,86.4365602 1.09586414,85.7923628 C1.08405526,85.6592445 0.9612429,85.5617829 0.831345211,85.5784227 C0.699085746,85.5926853 0.602252923,85.7139181 0.618785356,85.8470364 C0.692000417,86.495988 0.774662583,87.1401855 0.864410077,87.7843829 C0.88094251,87.9056157 0.982498886,87.9935688 1.10058769,87.9935688 Z M3.8945689,53.8534809 C3.76703299,53.81307 3.63241175,53.8843833 3.59226155,54.0127474 C3.3985959,54.6331737 3.21437736,55.2559772 3.03724415,55.8835349 C2.99945573,56.0118989 3.07503257,56.1450172 3.20256848,56.183051 C3.22382447,56.1878052 3.24744223,56.1925595 3.26869822,56.1925595 C3.37261637,56.1925595 3.46944919,56.1236232 3.50015228,56.014276 C3.67728549,55.3914726 3.86150403,54.7734234 4.0528079,54.1577513 C4.09059632,54.0293872 4.01974304,53.8938918 3.8945689,53.8534809 Z M6.09102074,106.235529 C5.97057015,106.287826 5.90916397,106.430452 5.96112305,106.551685 C6.20910954,107.150717 6.46418137,107.747373 6.7287003,108.339274 C6.7688505,108.429604 6.85623621,108.4819 6.94834548,108.4819 C6.98141035,108.4819 7.01447522,108.477146 7.04517831,108.462884 C7.16799067,108.40821 7.22231152,108.263206 7.16799067,108.141973 C6.90819529,107.552449 6.65312346,106.960548 6.40749874,106.36627 C6.35553967,106.242661 6.2138331,106.18561 6.09102074,106.235529 Z M5.68007168,48.79974 C5.55489755,48.7498206 5.41555275,48.8116255 5.36831723,48.9352354 C5.13213961,49.541399 4.90304732,50.1523169 4.68104036,50.767989 C4.63380484,50.893976 4.69993457,51.0318485 4.82510871,51.0793907 C4.85345002,51.0888992 4.87942956,51.0936534 4.90777088,51.0936534 C5.00696548,51.0936534 5.09907475,51.0318485 5.13450139,50.9320098 C5.35414657,50.323469 5.58087708,49.7149282 5.8170547,49.1135188 C5.866652,48.989909 5.80288404,48.8472822 5.68007168,48.79974 Z M7.81511734,43.8862487 C7.69230498,43.829198 7.55059841,43.8791174 7.49391578,44.0003501 C7.21522619,44.589874 6.94362193,45.1817749 6.68146478,45.7784301 C6.62714393,45.8996629 6.68146478,46.0446667 6.80191536,46.0969632 C6.83498023,46.113603 6.8680451,46.1183572 6.90110996,46.1183572 C6.99321923,46.1183572 7.08060495,46.0660607 7.12075514,45.9733534 C7.3829123,45.3814524 7.65215478,44.7919285 7.92848259,44.2071589 C7.98516522,44.0859261 7.93556792,43.9432994 7.81511734,43.8862487 Z M4.24175,101.229331 C4.11421408,101.272119 4.04572257,101.409991 4.08823455,101.535978 C4.29607085,102.154027 4.5086307,102.769699 4.73063766,103.37824 C4.76606431,103.475702 4.85817358,103.539884 4.95736818,103.539884 C4.98570949,103.539884 5.01168903,103.532752 5.04003034,103.525621 C5.16520448,103.478079 5.22897243,103.337829 5.18409869,103.211842 C4.9644535,102.605679 4.75189365,101.997138 4.54641912,101.381466 C4.50390715,101.255479 4.36692413,101.186543 4.24175,101.229331 Z M0.550757954,71.9789628 C0.682284596,71.9789628 0.791476525,71.8815011 0.801403064,71.7531371 C0.848554125,71.1065625 0.900668454,70.4599879 0.965190958,69.8181676 C0.977599132,69.6850493 0.875852107,69.5661937 0.734398926,69.5543081 C0.597909014,69.5424226 0.473827277,69.6398842 0.458937468,69.7753796 C0.396896599,70.4219541 0.342300635,71.0685287 0.297631209,71.7198575 C0.285223035,71.8553529 0.39193333,71.9694543 0.533386511,71.9789628 C0.53834978,71.9789628 0.54331305,71.9789628 0.550757954,71.9789628 Z M0.149514326,75.1310138 C0.127516464,75.7538172 0.118088808,76.3789978 0.118088808,77.0065554 L0.118088808,77.082623 C0.118088808,77.2157413 0.26264619,77.3250885 0.438629088,77.3250885 C0.614611987,77.3250885 0.759169368,77.2157413 0.759169368,77.082623 L0.759169368,77.0065554 C0.759169368,76.383752 0.768597024,75.7609485 0.787452334,75.1428993 C0.793737438,75.009781 0.652322608,74.8980568 0.476339709,74.8933025 C0.297214259,74.8861712 0.152656878,74.9955184 0.149514326,75.1310138 Z M0.593173533,82.6712142 C0.59850408,82.6712142 0.606499901,82.6712142 0.611830449,82.6712142 C0.761085772,82.6617058 0.873027264,82.5452273 0.865031443,82.412109 C0.814391244,81.7702886 0.771746866,81.1237141 0.739763583,80.4747624 C0.734433035,80.3416441 0.603834628,80.2322969 0.454579305,80.2441825 C0.305323982,80.2513138 0.190717216,80.3654152 0.196047763,80.4985335 C0.228031046,81.1498623 0.270675424,81.798814 0.321315623,82.4477657 C0.331976718,82.5737526 0.451914031,82.6712142 0.593173533,82.6712142 Z M100.035391,3.8033798 C99.9102172,3.76296889 99.7732342,3.83190515 99.733084,3.96026922 C99.6929338,4.08625617 99.7614253,4.22412869 99.8865995,4.2645396 C100.500661,4.46659416 101.112361,4.67340293 101.719338,4.88734305 C101.747679,4.8968515 101.773659,4.90160572 101.799638,4.90160572 C101.898833,4.90160572 101.993304,4.8398008 102.026369,4.73996208 C102.071242,4.61397512 102.007474,4.47372549 101.879939,4.43093747 C101.268239,4.21462024 100.654177,4.00543435 100.035391,3.8033798 Z M84.4051567,0.499193599 C84.275259,0.48968515 84.1548084,0.582392532 84.1406377,0.717887938 C84.1288289,0.851006231 84.2232999,0.96986185 84.3579211,0.981747411 C84.9956007,1.04830656 85.6356421,1.12199704 86.2709598,1.20519597 C86.2827687,1.20519597 86.2922158,1.20757309 86.3040247,1.20757309 C86.4221135,1.20757309 86.5260317,1.11724282 86.5402023,0.996010086 C86.5590965,0.862891793 86.4669873,0.741659061 86.3347278,0.722642162 C85.6923247,0.641820342 85.0499216,0.565752746 84.4051567,0.499193599 Z M79.0864367,0.137872518 L79.0769896,0.137872518 C78.9494537,0.137872518 78.840812,0.260402162 78.8384502,0.413564217 C78.8337267,0.569511037 78.9376448,0.70317974 79.0699043,0.705964505 C79.7146692,0.731027387 80.3570723,0.767229327 80.9947519,0.809000797 C80.9994754,0.809000797 81.0065608,0.811785561 81.0089225,0.811785561 C81.1364585,0.811785561 81.2427384,0.694825446 81.2498237,0.544448156 C81.2592708,0.385716571 81.1553527,0.252047868 81.0230932,0.243693574 C80.3806901,0.19913734 79.7335634,0.1629354 79.0864367,0.137872518 Z M89.68845,1.23372132 C89.5585523,1.2099502 89.4310164,1.29790336 89.4097604,1.43102165 C89.3861426,1.56176283 89.4735283,1.68774979 89.6057878,1.71152091 C90.2387438,1.82086808 90.8716998,1.9397237 91.4999323,2.06571066 C91.5141029,2.07046488 91.5329971,2.07046488 91.5471678,2.07046488 C91.6605331,2.07046488 91.7597277,1.99202017 91.7833454,1.87554166 C91.809325,1.74480048 91.724301,1.61643642 91.5920416,1.59028818 C90.9614473,1.46430122 90.3261295,1.34306849 89.68845,1.23372132 Z M73.7559079,0.159893075 C73.6236485,0.165964363 73.5197303,0.308639647 73.5244539,0.47863573 C73.5291774,0.645596169 73.6354573,0.776128876 73.765355,0.776128876 L73.7748021,0.776128876 C74.4124817,0.748808077 75.0548848,0.730594211 75.6996497,0.718451633 C75.8319092,0.718451633 75.9381891,0.578811994 75.9381891,0.405780266 C75.9358273,0.235784183 75.834271,0.126500987 75.6949262,0.102215832 C75.0454377,0.111322765 74.4006728,0.129536631 73.7559079,0.159893075 Z M94.9056135,2.33432435 C94.773354,2.30342189 94.6458181,2.3818666 94.615115,2.51260778 C94.5820502,2.64334896 94.6623506,2.77409014 94.7898865,2.8049926 C95.4157572,2.96188202 96.0369043,3.12352566 96.6556897,3.29467775 C96.6769456,3.30180909 96.6982016,3.3041862 96.7194576,3.3041862 C96.8257375,3.3041862 96.9225704,3.23287283 96.9509117,3.12590277 C96.9863383,2.99516159 96.9107615,2.8620433 96.7832256,2.82638662 C96.1597167,2.65523452 95.533846,2.49121377 94.9056135,2.33432435 Z M73.8999763,153.983399 L73.9094234,153.983399 C74.0369593,153.983399 74.145601,153.857754 74.1479628,153.700698 C74.1550481,153.540786 74.05113,153.403719 73.9165087,153.400864 C73.3685766,153.378019 72.8253681,153.343752 72.2821596,153.309486 L72.4592928,153.900587 C72.9387334,153.931998 73.4181739,153.96341 73.8999763,153.983399 Z M132.592476,25.3447722 C132.65152,25.3447722 132.710565,25.3233781 132.7578,25.2829672 C132.854633,25.1902599 132.861718,25.0381247 132.769609,24.9382859 C132.33268,24.4604864 131.888667,23.987441 131.439929,23.5191499 C131.345458,23.4240654 131.194304,23.4216882 131.099833,23.5143956 C131.003,23.607103 131.000639,23.7616153 131.092748,23.8566998 C131.539124,24.3226138 131.980776,24.790905 132.415343,25.2663274 C132.462578,25.3186239 132.528708,25.3447722 132.592476,25.3447722 Z M150.010575,57.6663691 C150.038916,57.7757163 150.135749,57.8470297 150.242029,57.8470297 C150.260923,57.8470297 150.282179,57.8446526 150.303435,57.8398983 C150.430971,57.8066188 150.50891,57.6735005 150.475845,57.5451364 C150.374289,57.1529129 150.265647,56.7678207 150.159367,56.3779742 L149.65867,56.3779742 C149.776759,56.8082316 149.89721,57.2361118 150.010575,57.6663691 Z M49.613832,5.00382155 C49.0092173,5.23440145 48.4069643,5.46973558 47.809435,5.71457815 C47.6866226,5.76687463 47.6252164,5.90712426 47.6748137,6.0307341 C47.7149639,6.12581859 47.8047114,6.18286929 47.8991825,6.18286929 C47.9298855,6.18286929 47.9605886,6.17811507 47.9889299,6.1662295 C48.5840975,5.92138693 49.1816269,5.6860528 49.7862416,5.45785002 C49.909054,5.41268488 49.9728219,5.27243525 49.9255864,5.14644829 C49.8783509,5.02046134 49.7413679,4.9562793 49.613832,5.00382155 Z M68.437188,0.525592822 C68.3049285,0.540064618 68.2080957,0.660662914 68.2222664,0.795733007 C68.236437,0.923567201 68.3403552,1.01763387 68.4631675,1.01763387 C68.4702529,1.01763387 68.4797,1.01763387 68.4891471,1.01522191 C69.1244649,0.947686861 69.7645062,0.887387712 70.4069093,0.834324462 C70.5391688,0.824676598 70.6383634,0.706490267 70.6289163,0.569008209 C70.6171074,0.433938117 70.5037422,0.332635547 70.3691209,0.344695377 C69.7219942,0.395346662 69.0772293,0.458057776 68.437188,0.525592822 Z M128.860869,21.5366381 C128.924637,21.5366381 128.988405,21.5104899 129.035641,21.4605705 C129.12775,21.3631089 129.123027,21.2109737 129.026194,21.1182664 C128.5562,20.6713692 128.079122,20.2292263 127.599681,19.7942148 C127.502848,19.7062616 127.349333,19.7133929 127.259585,19.8132317 C127.169838,19.9130704 127.179285,20.0652056 127.278479,20.1555358 C127.755558,20.5881703 128.227913,21.025559 128.695545,21.470079 C128.742781,21.5152441 128.801825,21.5366381 128.860869,21.5366381 Z M59.8285139,1.9397237 C59.1979196,2.08235044 58.5696872,2.23210852 57.9414547,2.38899794 C57.8139188,2.42227751 57.7336184,2.55301869 57.7666833,2.68375987 C57.7926628,2.79310704 57.8918574,2.86679753 58.0004991,2.86679753 C58.0193933,2.86679753 58.0382875,2.86442041 58.0595435,2.85966619 C58.6806907,2.70277677 59.3065613,2.5553958 59.9347938,2.41276906 C60.0646915,2.38424371 60.1449919,2.25350253 60.1166506,2.12276135 C60.0883093,1.99202017 59.9607733,1.91119835 59.8285139,1.9397237 Z M54.6680329,3.29230064 C54.0468858,3.47771541 53.4304622,3.67026151 52.8164004,3.87231606 C52.6912263,3.91510408 52.6227348,4.05059949 52.662885,4.17896356 C52.6959498,4.28117939 52.7904209,4.34536142 52.8919773,4.34536142 C52.915595,4.34536142 52.9415746,4.34298431 52.9651923,4.33347586 C53.5768924,4.13379842 54.1885924,3.94125232 54.805016,3.75583755 C54.9349137,3.71780376 55.0057669,3.58230835 54.9679785,3.45394428 C54.9301901,3.32558021 54.7955689,3.25188973 54.6680329,3.29230064 Z M124.874191,17.9971178 C124.942683,17.9971178 125.011174,17.9662153 125.05841,17.9091646 C125.143434,17.8045717 125.129263,17.6524365 125.025345,17.5668605 C124.524648,17.1532429 124.02159,16.7467567 123.511446,16.3450247 C123.405167,16.2642029 123.254013,16.2808427 123.171351,16.3878127 C123.09105,16.4924057 123.109945,16.6445409 123.213863,16.7277398 C123.721645,17.1270947 124.222341,17.5312038 124.718314,17.9400671 C124.76555,17.9781009 124.81987,17.9971178 124.874191,17.9971178 Z M63.1562565,1.27175512 C63.0263588,1.29552625 62.9389731,1.41913609 62.9602291,1.55225438 C62.9814851,1.66873289 63.0830414,1.75193182 63.1987685,1.75193182 C63.2129391,1.75193182 63.2271098,1.75193182 63.2389187,1.74955471 C63.8718747,1.63545331 64.5048307,1.53086037 65.1425103,1.43577588 C65.2747697,1.41675898 65.3645172,1.29077202 65.345623,1.16003084 C65.324367,1.02691255 65.2039164,0.938959389 65.0692952,0.955599175 C64.4292538,1.05306078 63.7915743,1.15765373 63.1562565,1.27175512 Z M36.8366229,59.0023063 C37.679777,57.5427593 38.8323237,56.3114151 40.36984,55.6862345 C40.9602841,55.4437691 41.5790694,55.3130279 42.2073019,55.2488459 C42.9300054,55.1775325 43.6692413,55.2084349 44.4037537,55.2963881 C44.6281225,54.6569449 44.8619383,54.0008619 45.0485186,53.4351091 C45.1429897,53.5206852 45.244546,53.5991299 45.3390171,53.6823288 L45.7783075,47.107236 L45.8609696,47.1167444 C45.7239866,46.4868096 45.6507715,45.8354808 45.6507715,45.1651352 L47.3418033,43.8101811 C50.4310065,43.1659836 53.3997591,41.9370165 56.0969075,40.0947545 C59.1766637,37.99101 62.0226039,35.2121656 63.6404206,31.9293734 L62.2257167,47.7347936 C62.2257167,51.3836611 59.2664111,54.3336576 57.0746829,54.3336576 L54.7577804,54.3336576 C54.3279372,54.3336576 53.9051792,54.2932467 53.4895066,54.2338189 L53.2509672,57.789979 L54.4342171,58.3533546 L54.1059302,59.2423946 C55.4096307,60.0458586 56.6967987,60.9182589 57.8989427,61.8072989 C59.8757494,63.2716001 61.6258255,64.7786894 62.8468638,66.0908554 C62.8752051,66.124135 62.9011847,66.1550374 62.929526,66.188317 L62.9413349,66.1764314 L62.9625908,66.2239737 C65.9596848,69.5020117 67.0602725,72.5589782 67.2019791,75.5113517 L67.8184026,76.8615516 C69.4952637,75.2379838 70.8556468,73.3315397 71.7200569,71.1184481 C75.8838683,60.4404593 67.1004227,48.6380963 68.8859255,37.3087787 C69.8259124,31.3469809 72.5254226,24.1799871 65.5062238,20.9162118 C59.7434899,18.234829 52.1267618,18.6104128 46.5387994,21.4320452 C40.2186864,24.6245071 35.6462877,31.0902528 34.7157479,38.1431452 C34.0143004,43.4678769 35.2684035,48.885316 34.7535363,54.2290646 C34.29299,58.9880436 32.4602516,63.796942 32.1697532,68.4679678 L36.149346,60.3976713 C36.350097,59.9174946 36.5791893,59.4492034 36.8366229,59.0023063 Z M37.5743575,79.9708146 L37.1979746,80.3310517 C37.4158805,80.4388778 37.6417102,80.5418027 37.8675399,80.6447276 C37.7724537,80.4266248 37.6734056,80.1987197 37.5743575,79.9708146" id="Shape"></path>
                        </g>
                        <g id="Group" transform="translate(41.000000, 55.000000)" fill="#DCEDC8">
                            <path d="M12.0521214,5.12029256 L10.9017856,4.54132818 L10.6032952,9.25854428 L9.76752227,9.16327166 C9.55857904,7.47523628 9.35193188,5.7872009 9.14528472,4.09916551 C6.99385821,3.19773996 4.97101216,1.91278105 3.20762309,0.317575397 C3.11348383,0.234517217 3.01704849,0.151459036 2.92520531,0.0659579671 C2.74381503,0.647365233 2.51650315,1.32160223 2.2983756,1.97873901 C1.58429487,1.88835217 0.865621979,1.85659463 0.163021646,1.92988126 C8.42431575,9.86193753 14.2540617,20.2002382 14.8579306,31.7819686 C16.8486315,24.3629188 17.6499633,16.1108442 15.42047,8.66980835 C14.2494695,7.75616836 13.0004022,6.85962858 11.7329663,6.03393255 L12.0521214,5.12029256 Z" id="Path"></path>
                        </g>
                        <g id="Group" transform="translate(90.000000, 66.000000)" fill="#FF6F00">
                            <path d="M0.357863463,14.2895266 L4.42596296,1.68125281 C4.53909399,1.32884067 4.89926625,1.07743838 5.23173295,1.11559766 L11.3939109,0.296295556 C11.7402304,0.2446683 11.9318605,0.466889966 11.8487438,0.792366145 L11.8672142,0.738494226 C11.9803452,0.388326751 11.5393651,0.0336699495 11.176884,0.0852972054 L5.04010284,0.830525421 C4.70763614,0.792366145 4.34746388,1.0460131 4.23433285,1.39618057 L0.143145385,14.0807729 C0.0554111169,14.3523771 0.260894009,14.680098 0.52640561,14.7878418 C0.357863463,14.7092786 0.281673177,14.5274609 0.357863463,14.2895266" id="Path"></path>
                        </g>
                        <g id="Group" transform="translate(33.000000, 115.000000)" fill="#6A1B9A">
                            <path d="M16.489048,90.9140134 L10.0753074,90.9140134 L10.6199835,71.3239352 L10.6295813,70.9513367 L10.8839234,61.7940142 C10.9847005,58.1444604 11.7765203,54.5474527 13.2185922,51.1940669 L14.1135885,49.1065604 L8.10535566,27.3668759 C3.59918102,22.277086 0.894996347,15.7804983 0.453496809,8.91298402 L0.0671847124,5.58396049 L0.223149223,5.55028332 C0.959781606,5.93554053 1.74200361,6.29118094 2.54822016,6.62986335 L4.85649492,0.0678320192 L5.39157317,7.68770846 C11.6805421,9.74106012 19.2916103,10.5275772 26.0700679,9.74750893 C28.4791197,9.46997088 30.784995,9.00255095 32.8821178,8.3149158 L30.2571151,21.2572173 L37.2035345,40.3552745 L37.385893,40.8520724 L37.9137729,42.3114162 L26.1324537,89.1680554 L19.7211125,87.9499452 L20.2969815,73.5834102 L20.3113782,73.2299194 L20.4073564,70.8462449 L19.956259,73.1582658 L19.8866749,73.5045913 L16.489048,90.9140134 Z" id="Path"></path>
                        </g>
                        <g id="Group" transform="translate(18.000000, 56.000000)" fill="#558B2F">
                            <path d="M21.0901766,58.5548359 L21.6171946,66.1891975 C27.8090663,68.247364 35.3078482,69.0347323 41.9841984,68.2545437 C44.3569614,67.9745373 46.6281021,67.50786 48.6936349,66.8186136 C49.3742681,66.591258 50.0336315,66.3447566 50.6669986,66.0719299 C47.6254189,55.3192068 46.0207315,49.5371949 44.7799939,39.7297924 C44.5460262,37.8750494 44.7020046,36.0777435 45.0446846,34.3091563 L50.151797,44.6741783 C50.18961,44.8536696 50.2439661,45.0211948 50.3243186,45.1767539 C50.4306676,45.3729977 50.5441064,45.5453093 50.6599086,45.7056548 L50.6669986,45.7176209 C50.7355345,45.8540342 50.8064338,45.9354036 50.8820597,45.9784815 C51.562693,46.7443109 52.4394809,47.0506426 53.562053,47.1583374 C56.2964025,47.4215913 59.0047555,46.5049892 61.1813638,44.8105917 C63.0011123,43.3938073 64.8421307,42.0416398 66.6595159,40.7205842 C65.6787423,38.6265194 64.775958,36.4941633 63.6462959,34.4766815 C61.1955437,35.4483275 58.6242626,36.3409974 55.4810606,37.3820467 L48.4856636,21.9625507 L47.8688398,20.6032036 C47.7294045,17.6284351 46.6257388,14.5531515 43.6266987,11.2529055 L43.6054289,11.2026479 L43.5936124,11.2170072 C43.5652526,11.1835022 43.5392562,11.1523904 43.5108965,11.1188853 C42.2914287,9.79543644 40.5378528,8.27813697 38.5597625,6.80630863 C40.8545363,14.0936538 40.0321045,22.1803335 37.9807516,29.4485329 C37.3592011,18.102292 31.3587576,7.97180522 22.855569,0.20342343 C22.2269286,0.265647067 21.6077414,0.399667209 21.0169139,0.641382107 C19.4783993,1.27319135 18.3251041,2.51048444 17.4814025,3.97991957 C17.2238017,4.42984433 16.9945607,4.90130804 16.7936794,5.38473784 L12.8091391,13.5097089 L0.78461885,38.047361 C0.664090051,38.1885608 0.55774111,38.3369402 0.486841816,38.499679 C0.394672735,38.7031024 0.328500061,38.8969529 0.274143935,39.0884103 L0.267054006,39.1027696 C0.200881332,39.239183 0.181974854,39.3468777 0.191428093,39.4330335 C0.00472661958,40.4453642 0.295413724,41.3380341 0.88860448,42.3072869 C2.33731338,44.6693919 4.69825986,46.2967794 7.34989344,47.0243173 C9.56431471,47.6345876 11.740923,48.2975086 13.8797184,48.9628229 C14.9313912,46.9046564 16.0610533,44.8847814 16.9638377,42.750032 C14.7257833,41.3739324 12.4759124,39.84706 9.76992267,37.9564187 L17.8429889,25.442288 L18.0675033,25.0928783 C18.1265861,25.3130543 18.1856688,25.5380167 18.2423883,25.751013 C19.568205,30.6092431 20.879842,33.5409337 22.0662235,38.7342142 C22.5270689,40.7588756 22.2056588,42.8649064 21.5061191,45.3490655 C23.2573316,46.2752404 25.1645226,47.2062017 27.3931238,48.2209257 C29.0096277,47.6465536 30.6946675,47.3210761 32.3986139,47.2875711 C34.5610423,46.7108059 37.2032227,47.4168048 39.0726007,48.555976 C39.3585612,48.7282876 39.1624065,49.2045378 38.8717194,49.1303481 C37.5860789,48.8000841 36.2838952,48.5128981 34.9722582,48.4746067 C34.9486252,48.4746067 34.9249921,48.4746067 34.901359,48.4746067 C34.9438985,48.5535828 34.9840748,48.632559 35.0218878,48.7115351 C36.770737,48.721108 38.609392,49.3313783 40.013198,50.1881499 C40.2991585,50.3628547 40.1030038,50.8343184 39.81468,50.7625219 C38.5290395,50.432258 37.2268558,50.1474652 35.9152189,50.1067805 C35.7521505,50.1019941 35.5890821,50.1043873 35.4260137,50.1091737 C35.4260137,50.1139602 35.4260137,50.1163534 35.4260137,50.1187466 C36.9574385,50.2599464 38.5054064,50.8175659 39.7248742,51.5594631 C40.0108347,51.734168 39.81468,52.2056317 39.5239929,52.131442 C38.2383524,51.801178 36.938532,51.5163852 35.6245317,51.4780938 C35.5536325,51.4757005 35.4827332,51.4780938 35.4094706,51.4780938 C35.4023806,51.5498903 35.3905641,51.6264732 35.3787475,51.7006629 C36.7471039,51.9040864 38.0989171,52.418628 39.1884029,53.081549 C39.4743634,53.2562539 39.2782087,53.7301108 38.9875216,53.6559211 C37.7042444,53.3256571 36.3996974,53.0408643 35.0880604,53.0001797 C32.7696535,54.1441373 30.3732574,54.1680695 28.0903001,52.9571018 C25.4221234,52.4234144 22.6381445,51.6551918 19.7549065,50.7840609 C18.5897948,54.2973032 17.2734312,58.5476562 16.3682836,63.975472 C16.4179131,64.0017974 16.4746325,64.0257295 16.524262,64.0520549 C17.2497981,64.4397561 18.0202371,64.7963454 18.8143092,65.1337889 L21.0901766,58.5548359 Z" id="Path"></path>
                        </g>
                        <g id="Group" transform="translate(41.000000, 210.000000)" fill="#8BC34A">
                            <path d="M1.71829866,17.0800713 L1.75702089,16.8804136 L3.0687362,10.1264704 L10.4065975,16.8804136 L10.62441,17.0800713 L17.5242262,17.0800713 L17.2483304,16.8804136 L14.6176393,14.9886805 L12.2652643,10.726127 L11.1907226,10.9777503 L11.6626497,9.11564673 L11.878042,8.2689252 L18.930327,16.4475942 L22.0208444,16.8797299 L25.7599591,17.4030334 L25.1936466,16.8797299 L23.0082611,14.8558033 L20.9390423,10.158835 L17.7952818,10.4788342 L11.6045663,5.65263544 L11.6723302,0.119201981 L10.0774586,1.85549394 C9.75558016,2.20808565 9.53050723,2.60580545 9.38771904,3.02153091 C9.26671209,3.37549014 9.20136833,3.74289663 9.20862875,4.10802392 L9.20136833,4.09685585 L9.07552111,11.4288033 L2.63795147,7.63166183 L2.3789966,2.27030771 L0.883350721,4.16637135 C0.321878482,4.8777086 0.0847048637,5.69799145 0.145208338,6.46266191 L0.137947921,6.4533172 L0.595354185,16.8790461 L0.602614602,17.0789317 L1.71829866,17.0800713 Z" id="Path"></path>
                        </g>
                        <g id="Group" transform="translate(71.000000, 35.000000)" fill="#6A1B9A">
                            <path d="M4.24901464,153.60398 C2.83346154,153.60398 1.42497442,153.575461 0.0211979666,153.523175 C0.018842637,153.630123 0.0164873074,153.737072 0.00706598887,153.841643 C1.41790843,153.896306 2.83110621,153.929579 4.24901464,153.929579 C33.9355892,153.929579 61.8462452,142.265078 82.8369428,121.082174 C103.82764,99.9040231 115.387598,71.7409564 115.387598,41.7859105 C115.387598,27.2837136 112.671903,13.2045569 107.492533,0.133091286 C107.381833,0.190130408 107.266422,0.242416271 107.148655,0.289948873 C112.250299,13.1261281 115.064918,27.1292327 115.064918,41.7859105 C115.064918,103.442825 65.353331,153.60398 4.24901464,153.60398" id="Path"></path>
                        </g>
                    </g>
                    <g id="Group-4" transform="translate(123.000000, 307.000000)">
                        <g id="Group" transform="translate(213.000000, 21.000000)" fill="#FFC107">
                            <path d="M11.0012299,10.5671693 C11.0222469,9.06241121 10.8727927,7.55530151 10.5295151,6.07946746 C10.5131686,6.01174276 10.4921516,5.94519384 10.475805,5.87723398 C8.67067856,7.95318411 7.10374473,10.1833961 6.19300823,12.7693978 C5.9221225,13.5369444 4.7008015,13.2044349 4.97402245,12.4321853 C6.04355403,9.40150501 7.9350837,6.85289292 10.0741469,4.47711991 C9.56740374,2.96530711 8.86450197,1.52733304 8.00046991,0.19118118 C6.13229246,4.01974304 4.50697809,7.91767568 2.9774078,11.8960314 C2.00829075,14.4098405 1.07887247,16.9377589 0.172806414,19.4736727 L3.68264479,19.4736727 C5.92679294,16.3656263 8.46984949,13.4278324 11.0012299,10.5671693" id="Path"></path>
                        </g>
                        <g id="Group" transform="translate(205.000000, 17.000000)" fill="#FFC107">
                            <path d="M5.13660847,18.9943375 C7.12394289,14.6997712 9.08671198,10.3990229 11.2828516,6.19861276 C11.7913537,5.23042131 12.3195081,4.27292942 12.8525756,3.31924182 C12.5577917,3.02060516 12.2531818,2.73124146 11.9387457,2.4497241 C10.9782416,3.95075373 10.0152811,5.45059451 8.99582029,6.91334348 C8.51925308,7.59645106 7.36713956,6.95257521 7.8461633,6.26447451 C8.91721127,4.73396164 9.91947634,3.16564366 10.9241979,1.59661238 C10.2904127,1.09397074 9.62714902,0.624378869 8.93932006,0.193780951 C7.9075766,2.53127854 6.92987686,4.89207739 6.01604694,7.27760412 C3.72410256,13.244393 1.43952777,19.4572719 0.0638698328,25.791888 L1.9406603,25.791888 C2.98959948,23.4467818 4.13188687,21.1649219 5.13660847,18.9943375" id="Path"></path>
                        </g>
                        <g id="Group" transform="translate(202.000000, 11.000000)" fill="#FFC107">
                            <path d="M8.29157245,10.1802315 C9.20867774,7.6410391 10.1892749,5.12772717 11.2239578,2.64053762 C10.2057358,2.05302586 9.13577963,1.56274742 8.03525328,1.17066979 C6.75365743,5.080078 5.627264,9.03471664 4.94296236,13.1180322 C4.80186924,13.9474179 3.57671063,13.5947657 3.7154522,12.771185 C4.4021054,8.67384075 5.53555347,4.70468967 6.82420399,0.783429636 C5.80127885,0.495599668 4.7548382,0.29411869 3.69663979,0.196401625 C1.85537455,9.89385282 -0.110522945,19.6271013 0.232803651,29.3630105 L2.52321533,29.3630105 C3.84243601,22.7992778 6.05759802,16.3661571 8.29157245,10.1802315" id="Path"></path>
                        </g>
                        <g id="Group" transform="translate(210.000000, 20.000000)" fill="#FFC107">
                            <path d="M5.02446324,13.991184 C6.44003877,10.4242448 7.84850086,6.83247608 9.57943911,3.39635146 C9.99439006,2.57444958 10.4188256,1.7527776 10.8385189,0.927197282 C10.6417135,0.675683812 10.4377948,0.429458101 10.2291337,0.187370638 C9.65057356,1.23664621 9.08149797,2.29281887 8.53139157,3.35818763 C6.64158637,7.02168594 4.92724616,10.7596727 3.21053479,14.5013379 C2.26681777,16.5541384 1.18083185,18.7149932 0.170722677,20.9363123 L2.36877715,20.9365423 C3.22950398,18.6133762 4.11157114,16.2966475 5.02446324,13.991184" id="Path"></path>
                        </g>
                        <g id="Group" transform="translate(196.000000, 11.000000)" fill="#FFC107">
                            <path d="M10.8738705,0.16834425 C10.7841441,0.166893007 10.6944177,0.161531634 10.6046913,0.161531634 C9.04539185,0.158185546 7.50064262,0.369099606 6.00196912,0.760935361 C5.62608823,5.92252488 5.41753496,11.0862913 5.9049676,16.2643282 C5.98256882,17.1036307 4.66819821,17.0956489 4.59059699,16.2643282 C4.12013961,11.2205313 4.30201746,6.19148868 4.66092309,1.16438106 C3.0991986,1.69795494 1.6005251,2.42962356 0.208553271,3.32939455 C1.10096727,12.1028874 2.38381238,20.8272798 4.35779334,29.4009847 L7.29208935,29.4009847 C6.96470922,19.6333901 8.9847659,9.88949909 10.8738705,0.16834425" id="Path"></path>
                        </g>
                        <g id="Group" transform="translate(186.000000, 20.000000)" fill="#FFC107">
                            <path d="M2.72864019,0.191172362 C2.19450195,0.913639691 1.71579314,1.67035385 1.29755282,2.45451238 C2.25245091,4.13213782 3.20230996,5.81187436 4.07658341,7.52562316 C4.45199189,8.26099169 3.27789556,8.90417527 2.89996755,8.1662265 C2.17182627,6.73419304 1.38825554,5.32678915 0.597126247,3.92313834 C0.420759845,4.34793975 0.262030083,4.77977817 0.120936961,5.21724622 C2.98563124,9.85604943 5.63112727,14.6055684 8.3018185,19.3442973 C8.44543114,19.6002103 8.59408282,19.8554195 8.74021498,20.109925 L9.73794492,20.1096905 C7.55100153,13.4210035 5.34390198,6.74052636 2.72864019,0.191172362" id="Path"></path>
                        </g>
                        <g id="Group" transform="translate(190.000000, 15.000000)" fill="#FFC107">
                            <path d="M3.61433547,0.197725353 C2.97471332,0.697242035 2.36330979,1.23620698 1.78482799,1.81026394 C2.21986511,3.17014003 2.65490224,4.52783798 3.12991575,5.87222518 C3.40975044,6.6667568 2.17988873,7.00606028 1.90240559,6.21999915 C1.51204795,5.11375363 1.14990894,3.99710151 0.792473034,2.88093342 C0.573778695,3.13093378 0.357435908,3.38311226 0.152850882,3.64424525 C2.76777674,10.8013222 4.94766547,18.111836 7.11344489,25.427674 L7.53202115,25.427674 C5.69075591,17.1280495 4.47030041,8.68708881 3.61433547,0.197725353" id="Path"></path>
                        </g>
                        <g id="Group" transform="translate(186.000000, 26.000000)" fill="#FFC107">
                            <path d="M6.95353935,13.0384859 C4.80657235,8.73553372 2.66666,4.42789016 0.390357637,0.201234065 C0.192827266,1.36123116 0.117577601,2.53431465 0.145796226,3.70492901 C1.03233134,5.57949222 2.11874838,7.3676359 2.97001021,9.2513349 C3.67547582,10.8135532 4.35037125,12.3920678 5.00880582,13.9774959 L7.42384975,13.9774959 C7.26629577,13.6646572 7.10874178,13.3520654 6.95353935,13.0384859" id="Path"></path>
                        </g>
                        <g id="Group" transform="translate(39.000000, 13.000000)" fill="#FF6F00">
                            <path d="M14.9045643,14.966007 C14.9359896,12.8234346 14.7317252,10.6761215 14.2648353,8.57526745 C14.2423886,8.47903065 14.2154527,8.38445311 14.1952507,8.28797928 C11.7395891,11.2433497 9.61389291,14.4186899 8.37708343,18.1015251 C8.00895865,19.1942631 6.3546418,18.7209013 6.72276658,17.6201041 C8.17281907,13.3050927 10.7407139,9.67772395 13.6453082,6.29402871 C12.9606859,4.14102668 12.0044593,2.09350588 10.8305004,0.19199952 C8.29403089,5.64360071 6.08752687,11.1926239 4.00896865,16.8575579 C2.66666,20.5110006 1.37822327,24.1853025 0.123456481,27.8719303 L4.79684547,27.8719303 C7.88774684,23.3601786 11.4073789,19.109167 14.9045643,14.966007" id="Path"></path>
                        </g>
                        <g id="Group" transform="translate(30.000000, 4.000000)" fill="#FF6F00">
                            <path d="M6.78240364,26.9773219 C9.37948483,20.8586354 11.9424836,14.7327555 14.8122242,8.74978404 C15.4756955,7.36961476 16.1641606,6.0067096 16.8639865,4.6476409 C16.477719,4.22203276 16.0800906,3.81033181 15.6688293,3.40918115 C14.4145959,5.5470528 13.1580903,7.683246 11.822059,9.76764689 C11.1994866,10.7399517 9.69758752,9.82231655 10.3247042,8.8425786 C11.7198117,6.66346492 13.0331214,4.42896224 14.3441589,2.19374021 C13.5148197,1.47751964 12.6468538,0.808295799 11.7470777,0.196379193 C10.4019577,3.52571386 9.12500269,6.88813806 7.9275733,10.2858098 C4.91014213,18.8564788 1.89725529,27.7846585 0.102247291,36.8852396 L2.51073904,36.8876374 C3.90811868,33.4669468 5.43955589,30.1392906 6.78240364,26.9773219" id="Path"></path>
                        </g>
                        <g id="Group" transform="translate(23.000000, 0.000000)" fill="#FF6F00">
                            <path d="M10.9730653,13.8987163 C12.1940183,10.4136341 13.496959,6.96240603 14.8774557,3.547618 C13.5213337,2.74076412 12.0987352,2.06862099 10.6340348,1.52907273 C8.92558706,6.89657879 7.42543253,12.3266207 6.51248768,17.9322803 C6.32856917,19.0710916 4.6976774,18.5853806 4.8815959,17.4550329 C5.79454075,11.8296251 7.30355882,6.38101045 9.01643836,0.996577382 C7.65588463,0.601849044 6.26430849,0.325609737 4.85278939,0.191134091 C2.39094052,13.5787489 -0.241531527,27.0166744 0.250395069,40.4578914 L3.24627235,40.4578914 C4.99903783,31.3711463 7.97497215,22.4616646 10.9730653,13.8987163" id="Path"></path>
                        </g>
                        <g id="Group" transform="translate(34.000000, 9.000000)" fill="#FF6F00">
                            <path d="M6.64644803,20.4273236 C8.53869919,15.1986999 10.4219717,9.93405116 12.7362196,4.89700363 C13.2906514,3.69362809 13.8607959,2.48929825 14.419717,1.27804971 C14.1570914,0.908973197 13.8854872,0.548485401 13.6049043,0.193961997 C12.8327401,1.73301346 12.0717992,3.27993793 11.3377943,4.84189266 C8.80805879,10.2115146 6.5140129,15.6918357 4.219967,21.175974 C2.92928561,24.2538384 1.43882918,27.4984671 0.0606059091,30.8347089 L3.01907214,30.8347089 C4.19303104,27.3524588 5.39617057,23.8811832 6.64644803,20.4273236" id="Path"></path>
                        </g>
                        <g id="Group" transform="translate(12.000000, 0.000000)" fill="#FF6F00">
                            <path d="M13.9511511,0.206650512 C13.8349473,0.204534636 13.7165089,0.197716815 13.6025399,0.196954897 C11.5734441,0.192309577 9.56222575,0.480538846 7.61134398,1.01914672 C7.11971284,8.10591921 6.84931571,15.1955129 7.47949745,22.3050898 C7.58229305,23.4565963 5.87499217,23.446252 5.77443126,22.3050898 C5.15989233,15.3810046 5.39676915,8.47502195 5.86381874,1.57350611 C3.83025355,2.30583415 1.87981872,3.31087503 0.0699457037,4.54654635 C1.23645233,16.6683974 2.91917165,28.7220701 5.51520756,40.5660362 L9.29406331,40.5660362 C8.8314831,27.0794454 11.4773525,13.6278842 13.9511511,0.206650512" id="Path"></path>
                        </g>
                        <g id="Group" transform="translate(1.000000, 11.000000)" fill="#FF6F00">
                            <path d="M3.69455866,0.198336617 C2.95456051,1.25048818 2.29308069,2.3522239 1.71308214,3.49386882 C3.03456031,5.93727919 4.34986567,8.38407579 5.56072684,10.881424 C6.08023171,11.9507487 4.45233455,12.8875264 3.93258276,11.8143318 C2.92098035,9.72768543 1.83974849,7.67707831 0.744936409,5.63348554 C0.49999875,6.25292465 0.278270909,6.88082936 0.0846911463,7.51816715 C4.04912568,14.2744314 7.71035109,21.1925094 11.4073789,28.0936561 C11.6483659,28.5435416 11.8945382,28.9907665 12.1394758,29.4379914 L13.4663861,29.4379914 C10.4177517,19.6208126 7.34220387,9.81258318 3.69455866,0.198336617" id="Path"></path>
                        </g>
                        <g id="Group" transform="translate(4.000000, 5.000000)" fill="#FF6F00">
                            <path d="M5.12992545,0.19773274 C4.1958008,0.904960881 3.30556934,1.6679909 2.46408114,2.48124261 C3.09556104,4.40640738 3.73140602,6.32866075 4.42157184,8.23441617 C4.82873572,9.35967316 3.03833015,9.83956931 2.6338338,8.72644316 C2.0663749,7.15986611 1.53723161,5.57945989 1.01487842,3.99784059 C0.69695593,4.35230382 0.382428497,4.70919322 0.0834213082,5.07845608 C3.9217715,15.2875309 7.11506158,25.7186001 10.2938014,36.1547642 L10.8830857,36.1547642 C8.17601572,24.3271924 6.38367011,12.2963076 5.12992545,0.19773274" id="Path"></path>
                        </g>
                        <g id="Group" transform="translate(0.000000, 21.000000)" fill="#FF6F00">
                            <path d="M9.98727662,17.4180305 C6.85994758,11.6436869 3.74450122,5.86441744 0.42850422,0.191172362 C0.141379717,1.7482302 0.0315254944,3.32264601 0.0727511409,4.89260505 C1.3645689,7.40787037 2.94642121,9.80843227 4.18561564,12.3358951 C5.25093484,14.5058773 6.26508575,16.698378 7.25644129,18.9002614 L10.7967543,18.9002614 C10.5270901,18.4067318 10.2557283,17.9122639 9.98727662,17.4180305" id="Path"></path>
                        </g>
                    </g>
                    <g id="Group-5" transform="translate(135.000000, 140.000000)">
                        <g id="Group" transform="translate(90.298130, 167.870058) scale(-1, 1) rotate(-56.765151) translate(-90.298130, -167.870058) translate(89.798130, 167.370058)" fill="#000000">
                            <path d="M0.519079679,0.165062269 C0.627758866,0.285486274 0.739543173,0.402565167 0.84822236,0.526334282 L0.519079679,0.870880739 C0.391769774,0.733731178 0.267564989,0.593236507 0.143360203,0.452741835 L0.519079679,0.165062269 Z" id="Path"></path>
                        </g>
                        <g id="Group" transform="translate(11.000000, 108.000000)" fill="#6A1B9A">
                            <path d="M0.517857027,0.0710224702 C0.406718761,0.139677525 0.293215851,0.203597748 0.172619009,0.26278314 C5.50725578,11.0534638 12.6201048,21.0179163 21.3716521,29.7820892 C35.060576,43.4870585 51.684023,53.1816257 69.8184775,58.2999784 L69.8279361,57.9306615 C39.437532,49.2611853 14.3155545,27.9544443 0.517857027,0.0710224702" id="Path"></path>
                        </g>
                        <g id="Group" fill="#6A1B9A">
                            <path d="M7.25814372,99.9295078 C2.52290179,86.9484979 0.0390671177,72.9824921 0.0390671177,58.6025025 C0.0390671177,37.6582522 5.30039827,17.5943123 15.1330212,0.171303649 C15.2317863,0.245059387 15.3327463,0.31405669 15.4402906,0.378295558 C5.86445722,17.3516321 0.34063015,37.2894735 0.34063015,58.6025025 C0.34063015,73.1466581 2.91488983,87.0531835 7.59175057,99.8129261 C7.47762191,99.8462352 7.36568803,99.8866818 7.25814372,99.9295078" id="Path"></path>
                        </g>
                    </g>
                </g>
            </g>
        </g>
    </g>
</svg>