<?xml version="1.0" encoding="UTF-8"?>
<svg width="408px" height="289px" viewBox="0 0 408 289" version="1.1" xmlns="http://www.w3.org/2000/svg" xmlns:xlink="http://www.w3.org/1999/xlink">
    <!-- Generator: Sketch 64 (93537) - https://sketch.com -->
    <title>Register</title>
    <desc>Created with Sketch.</desc>
    <g id="Forms" stroke="none" stroke-width="1" fill="none" fill-rule="evenodd">
        <g id="Register" transform="translate(-877.000000, -443.000000)">
            <g id="Right-Side" transform="translate(835.000000, 216.000000)">
                <g id="Register" transform="translate(42.000000, 226.500000)">
                    <g id="Group" transform="translate(0.000000, 71.500000)" fill="#E1BEE7">
                        <path d="M363.272817,92.3814726 C353.914242,112.630751 363.214735,137.011636 374.687883,155.624266 C378.528602,161.854953 382.788605,168.405171 382.957408,175.985435 C383.166143,185.250403 377.07835,193.438176 370.086644,198.63374 C357.339306,208.100002 340.495323,210.35776 326.225129,204.483963 C313.907965,199.415341 303.852398,188.913593 291.395473,184.231239 C270.549228,176.400717 247.508546,186.358428 228.633483,199.282959 C215.279907,208.424612 200.893547,219.63905 185.516152,216.728446 C174.694618,214.679236 165.893274,205.724369 160.144901,195.418475 C157.367822,190.444153 155.015473,184.911286 150.771805,181.431256 C148.247023,179.362098 145.223092,178.172468 142.17738,177.282059 C114.388256,169.141436 83.6737597,183.82865 56.3471187,174.01239 C37.8975113,167.38238 23.8001134,150.183704 15.495739,130.801622 C7.1913646,111.419359 3.9739459,89.8518769 1.47167047,68.5210509 C-0.306386256,53.3621555 -1.58783588,37.0399253 5.04502723,23.5243875 C12.0599656,9.23105663 26.9874017,1.12543342 41.6064549,0.229221374 C56.2256896,-0.66717202 70.5615896,4.69323509 83.6076906,11.8749003 C99.9135018,20.8522538 115.713086,33.0510382 133.971383,34.0460838 C146.404712,34.7255873 158.538551,30.0655386 170.641535,26.6604043 C190.874281,20.9719422 211.716896,18.7101946 232.481462,16.7103107 C252.360267,14.794934 272.418765,13.0832089 292.165069,15.8715853 C306.139404,17.8449927 318.220606,24.4354699 331.697608,27.8971842 C340.480802,30.1538541 349.47636,29.2890149 358.014518,32.7648741 C368.547453,37.0435522 379.133025,46.2354381 379.011415,59.8265972 C378.9134,72.7391594 368.238888,81.6347259 363.272817,92.3814726" id="Path"></path>
                    </g>
                    <g id="Group" transform="translate(156.000000, 0.500000)" fill="#DCEDC8">
                        <path d="M201.354599,21.6934833 C207.291999,34.5570686 197.227625,51.4257577 204.86298,63.3507965 C209.26569,70.2413697 217.750023,73.0307774 225.272906,76.2301207 C237.223897,81.298416 249.327268,90.0447349 251.246537,102.854772 C253.310931,116.670652 242.998032,129.533152 231.464274,137.458695 C188.195448,167.174507 32.4643179,240.317085 2.67573027,166.785557 C-3.01314439,152.730878 1.55645869,136.121791 7.97821135,122.381892 C13.0884027,111.458717 44.0924068,60.2438968 57.3259338,48.72608 C116.279074,-2.59095249 183.868928,-16.1702065 201.354599,21.6934833" id="Path"></path>
                    </g>
                    <g id="Group-5" transform="translate(91.000000, 15.500000)">
                        <g id="Group" transform="translate(161.321887, 158.849046) scale(-1, 1) rotate(-44.224291) translate(-161.321887, -158.849046) translate(160.821887, 152.349046)" fill="#6A1B9A">
                            <path d="M0.489646516,0.0417674004 C0.586526268,0.0584527931 0.685467291,0.0713295635 0.786469585,0.079128171 C0.32268354,4.10012645 0.219619974,8.18024905 0.489646516,12.2864879 C0.398950578,12.3432545 0.312377183,12.4009279 0.221681245,12.4576946 C-0.0668967385,8.3068404 0.0196766567,4.15689305 0.489646516,0.0417674004" id="Path"></path>
                        </g>
                        <g id="Group" transform="translate(37.000000, 141.000000)" fill="#6A1B9A">
                            <path d="M1.63207551,2.68599148 C1.14373228,1.82854105 0.674850701,0.965128572 0.223088162,0.0964767236 C0.1587566,0.132068324 0.0935240358,0.166395248 0.0268498677,0.19819282 C0.481135213,1.07045803 0.947493989,1.93820654 1.43655802,2.79746365 C11.6733854,20.7824232 28.2842633,33.6936827 48.2090275,39.1527476 C63.45759,43.3308763 79.2467538,42.755268 93.8592086,37.6566358 C93.8538026,37.5746125 93.8465946,37.4929505 93.8393866,37.4109272 C59.4715559,49.3677176 20.3031852,35.4850061 1.63207551,2.68599148" id="Path"></path>
                        </g>
                        <g id="Group" transform="translate(166.000000, 66.000000)" fill="#558B2F">
                            <path d="M13.8239193,113.640186 C33.6723545,93.7576699 44.6048668,67.3234089 44.6048668,39.2062254 C44.6048668,25.594516 42.0363307,12.3799148 37.1391568,0.108942817 C37.0345394,0.162420551 36.9263146,0.211381585 36.8126785,0.256187255 C41.6377025,12.3056603 44.2982298,25.4498009 44.2982298,39.2062254 C44.2982298,74.5291723 26.7874511,105.831714 0.00180374729,124.863283 C0.0216449675,125.000591 0.0396824405,125.137899 0.0577199134,125.275206 C4.92062262,121.829867 9.52558946,117.943698 13.8239193,113.640186" id="Path"></path>
                        </g>
                        <g id="Group" transform="translate(11.000000, 153.000000)" fill="#558B2F">
                            <path d="M0.487653102,0.00273672003 C0.386595153,0.0684180008 0.280069847,0.127713602 0.170546311,0.184090034 C5.08199788,10.4533583 11.6327752,19.9360932 19.6937779,28.2743318 C19.9911317,28.5819391 20.2939528,28.8833432 20.5943048,29.1867543 C20.6995955,29.1241746 20.8047099,29.0628721 20.9107061,29.001752 C12.6158415,20.6428968 5.68093818,10.8458039 0.487653102,0.00273672003" id="Path"></path>
                        </g>
                        <g id="Group" transform="translate(62.732406, 199.449833) scale(-1, 1) rotate(-114.555146) translate(-62.732406, -199.449833) translate(59.732406, 167.449833)" fill="#558B2F">
                            <path d="M5.14826412,0.16952311 C5.24613899,0.207790706 5.34401387,0.242793768 5.44370124,0.274532296 C-1.38216509,21.4229107 -1.11210293,43.5390422 5.14826412,63.7294612 C4.97426434,63.5821945 4.79663956,63.4378295 4.62082729,63.2929204 C-1.70841467,42.539732 -1.50178993,20.6775087 5.14826412,0.16952311" id="Path"></path>
                        </g>
                        <g id="Group" transform="translate(146.000000, 10.000000)" fill="#558B2F">
                            <path d="M53.3936394,49.8720993 C53.5053607,49.8181096 53.6225766,49.7695189 53.7434554,49.7263271 C48.6610505,39.7238326 41.9138146,30.4861924 33.6336155,22.3499423 C23.8351052,12.7217765 12.4633388,5.20280886 0.0897433654,0.010797943 C0.631866552,0.314940004 1.13919129,0.662273837 1.59340261,1.05639876 C24.0530534,10.9635114 42.4083189,28.3014086 53.3936394,49.8720993" id="Path"></path>
                        </g>
                        <g id="Group" transform="translate(111.000000, 0.000000)" fill="#558B2F">
                            <path d="M30.6045862,6.76541519 C31.0374555,6.82185243 31.468506,6.88887167 31.8977377,6.97352754 C32.141454,7.02291013 32.3869891,7.08287471 32.6288867,7.14813028 C22.3164125,3.18870455 11.3437216,0.814812778 0.0327380134,0.160493426 L0.0563821342,0.470898294 C10.7417059,1.10052635 21.0050731,3.2698331 30.6045862,6.76541519" id="Path"></path>
                        </g>
                        <g id="Group" transform="translate(0.000000, 79.000000)" fill="#558B2F">
                            <path d="M3.40016787,0.0945323915 L3.47371266,1.12202677 C1.40775662,9.46978232 0.300881082,18.2085747 0.300881082,27.2107853 C0.300881082,40.9325255 2.85501932,54.0525307 7.49610119,66.0908672 C7.38252123,66.1235899 7.27229222,66.1599486 7.16523782,66.201761 C2.4661314,53.9543625 0.00176366402,40.7780014 0.00176366402,27.2107853 C0.00229276323,17.929886 1.16789831,8.83714247 3.40016787,0.0945323915" id="Path"></path>
                        </g>
                    </g>
                    <g id="Group-3" transform="translate(103.000000, 8.500000)">
                        <g id="Group" transform="translate(0.000000, 47.000000)" fill="#8BC34A">
                            <path d="M19.1878935,0.0597954583 C30.4954736,0.0597954583 40.4284293,9.34802331 41.2603866,20.7019124 L43.7255787,54.3341397 C44.557536,65.6862169 35.9871132,74.9762567 24.6786307,74.9762567 C13.3706897,74.9762567 3.43809485,65.6862169 2.60595715,54.3341397 L0.141125934,20.7019124 C-0.691011767,9.34802331 7.87995241,0.0597954583 19.1878935,0.0597954583" id="Path"></path>
                        </g>
                        <g id="Group" transform="translate(18.000000, 21.000000)" fill="#558B2F">
                            <path d="M24.5737646,0.12375668 C39.0199642,0.12375668 51.7089757,12.1336145 52.7729611,26.8115206 L55.9219281,70.2901541 C56.9841223,84.9680603 46.0361779,96.9779181 31.5881871,96.9779181 C17.1419876,96.9779181 4.4531552,84.9680603 3.39006538,70.2901541 L0.241098383,26.8115206 C-0.821991441,12.1336145 10.1279233,0.12375668 24.5737646,0.12375668" id="Path"></path>
                        </g>
                        <g id="Group" transform="translate(40.000000, 0.000000)" fill="#8BC34A">
                            <path d="M27.9176257,0.139609666 C44.3596775,0.139609666 58.8040298,13.7524587 60.0133994,30.3913925 L63.5967168,79.680857 C64.8078781,96.3197908 52.3451002,109.934453 35.9012568,109.934453 C19.459205,109.934453 5.01664433,96.3197908 3.80727471,79.680857 L0.222165677,30.3913925 C-0.987203937,13.7524587 11.4755739,0.139609666 27.9176257,0.139609666" id="Path"></path>
                        </g>
                    </g>
                    <g id="Group-2" transform="translate(181.000000, 21.500000)">
                        <g id="Group" transform="translate(35.000000, 0.000000)" fill="#212121">
                            <path d="M18.5854915,1.72588748 C18.8218224,1.77686306 19.0599171,1.83876197 19.2944844,1.90612256 C20.1533888,2.15007712 21.0017112,2.50326506 21.779487,2.96204528 C22.2997679,3.26789875 22.7883028,3.61926614 23.2274552,4.01796799 C24.2591986,4.95555455 25.0140468,6.13891621 25.2415595,7.54984743 C25.4531992,8.86610971 25.1833586,10.2096803 25.2186318,11.5423276 C25.2539051,12.8422049 25.5766556,14.1147738 25.7459674,15.4037278 C26.467306,20.8999876 24.3720731,26.2888345 22.1022375,31.3681869 L21.9558534,30.3650603 L13.8200713,31.1897724 L11.6684012,26.3143223 C11.9770424,26.463608 12.3191932,26.5564563 12.682508,26.561918 C14.0616932,26.5892264 15.2010202,25.4568403 15.2274752,24.0331652 L15.2556938,22.5202828 C15.2821487,21.0966077 14.1851497,19.9205282 12.8059645,19.8932199 C12.0564072,19.8786554 11.3844513,20.2136378 10.9170803,20.7452403 L10.5731658,20.7142908 L10.1005038,15.0104876 L7.87299619,13.4120391 L7.92766978,10.2187831 L5.20457253,9.92203243 L4.49910692,16.8219412 C4.41621471,16.7381956 4.33508616,16.6526295 4.24866663,16.572525 C3.32803401,15.7168635 2.24161697,15.0596426 1.37213061,14.1475439 C0.50440791,13.2372656 -0.14462045,11.9501323 0.130511138,10.7030511 C0.509698902,8.98990755 2.46912963,7.94672873 2.65607802,6.20081513 C2.78482549,4.99378623 2.00352233,3.82680957 2.15343377,2.62524234 C2.33156384,1.18700278 3.80598696,0.251236784 5.20633619,0.132900618 C6.60668542,0.0145644513 7.97881603,0.487909118 9.3580013,0.768274805 C11.9770424,1.30169783 14.6895576,1.14695054 17.3315263,1.51106182 C17.7512784,1.56749907 18.1692667,1.63668021 18.5854915,1.72588748" id="Path"></path>
                        </g>
                        <g id="Group" transform="translate(0.000000, 9.000000)" fill="#FFD8D8">
                            <path d="M71.3801287,43.1158836 L72.9700073,41.9555746 L81.7956401,53.9978921 C83.2211108,55.9454304 83.6077404,58.4728505 82.8236412,60.7605765 C82.1623962,62.6944854 80.7315055,64.2640373 78.8724315,65.0932449 L74.5345923,67.028971 C74.084729,58.899539 73.0928615,50.8340738 71.4469759,43.396284 C71.4252957,43.3019692 71.4018088,43.2107436 71.3801287,43.1158836 Z M65.5608117,199.849371 L67.7143745,201.434006 C68.4551134,201.979179 69.3259333,202.297196 70.2021732,202.344445 L73.9347745,202.544341 L73.8607006,198.146616 L65.248256,198.166605 L65.5608117,199.849371 Z M45.6566158,202.402596 L49.3494701,202.600676 L50.0956291,198.20295 L41.4831845,198.22294 L41.4831845,199.905706 L43.338645,201.490341 C43.9782098,202.037331 44.7894093,202.355348 45.6566158,202.402596 Z M47.7632049,21.2431955 L45.5572483,16.3766214 C45.8734174,16.5270891 46.2239133,16.6183146 46.5960895,16.6250384 C48.0107201,16.652297 49.1760288,15.5221542 49.203129,14.1012527 L49.2320359,12.590216 C49.2591361,11.1693145 48.135381,9.99537615 46.7225571,9.96829925 C45.954718,9.95357959 45.2681795,10.2877704 44.7894093,10.8178599 L44.4352999,10.7882388 L43.9511096,5.09391104 L41.6710792,3.49964464 L41.7270863,0.311293554 L38.937572,0.0147196602 L38.2130933,6.90206683 L37.2645862,15.9333961 L37.2356793,16.2096169 L37.1887056,16.6633822 C36.8111094,20.2567965 39.4000822,23.4773128 42.971889,23.8569347 L44.4804669,23.9452526 L45.197719,28.7438618 C48.9176736,26.6238673 53.1362719,25.738507 56.9429471,26.0879627 L56.841773,25.4154014 L56.7875726,25.0504992 L56.2455685,21.4225573 L56.0956141,20.4207118 L47.7632049,21.2431955 Z M25.067688,40.3589458 L19.3802587,43.7101217 L10.9918424,22.1518165 L8.43538993,12.9767434 L0.0433603252,9.42094596 L0.0433603252,10.4584094 L3.91326935,12.9767434 L0.422763171,14.5284863 L0.0433603252,17.4815046 L2.48599198,19.3178276 L3.59529363,18.8382574 L3.59529363,20.3547459 L6.09573905,22.5414332 L8.8491197,49.4273468 C9.05688793,51.4617492 10.0975357,53.3166081 11.7217412,54.5485165 C13.6404356,56.0052176 16.1499145,56.4206392 18.4317516,55.6586696 L26.005355,53.1323398 L32.5491508,50.9487418 L28.4967671,38.3381727 L25.067688,40.3589458 Z" id="Shape"></path>
                        </g>
                        <g id="Group" transform="translate(38.000000, 111.000000)" fill="#6A1B9A">
                            <path d="M0.551946672,0.0291192187 C0.151514773,8.9787291 -0.104617343,18.0337142 0.061327408,26.9889659 C0.169552246,32.8597644 0.454544318,38.688704 1.00468724,44.4126324 C1.01550973,44.5163696 1.02633221,44.6193789 1.03715469,44.7231161 C1.28246433,47.2317368 1.57647514,49.720338 1.92820586,52.1836419 C2.39176891,55.4207891 2.74710713,58.6521124 3.02127672,61.8848916 C3.02849171,61.9676994 3.03390295,62.0497792 3.04111794,62.132405 C3.43433485,66.8155033 3.65799951,71.5015136 3.7680281,76.2115472 C3.77163559,76.3376699 3.77524309,76.4634285 3.77885058,76.5900971 C3.88346792,81.2688276 3.88166418,85.9721274 3.84017799,90.71856 C3.83837424,90.8346729 3.83837424,90.9502398 3.83837424,91.0663527 C3.82394426,92.7720109 3.8022993,94.482765 3.78065433,96.2007989 L4.61939682,96.198979 L13.2178602,96.1789595 L14.2243512,96.1771396 C15.3047958,93.1332712 16.1868282,89.9791139 16.8830747,86.7734519 C16.9137384,86.6309497 16.9425983,86.4877195 16.973262,86.3450354 C17.8841544,82.0201034 18.4469236,77.6052659 18.5948309,73.2259174 C18.6002421,73.0865091 18.6092608,72.9469188 18.6146721,72.8080566 C18.7788131,66.9230625 18.2070252,61.1212401 16.8199435,55.7172591 C16.8001023,55.6406392 16.7820648,55.5640192 16.7604199,55.4875813 C16.7008962,55.2589954 16.6485875,55.0264056 16.5872601,54.7990937 C15.7701626,51.843675 15.4617218,48.8320198 15.510423,45.7777778 C16.1291083,47.9158564 16.7766536,50.0426514 17.4692925,52.1468789 C17.7380509,52.9605791 17.994183,53.7730053 18.2485114,54.5861595 C18.2719601,54.6607775 18.2972126,54.7350315 18.3206613,54.8096495 C20.5392704,61.9209267 22.2798866,69.0152783 23.7788006,76.1642285 C23.804053,76.2901691 23.832913,76.4161098 23.8581655,76.5425964 C24.2802423,78.5645621 24.6788705,80.5939897 25.0684799,82.6265111 C25.0919286,82.7542717 25.1153773,82.8822143 25.1406298,83.0099748 C25.9685498,87.3558362 26.7441611,91.726995 27.5071462,96.1443804 L28.3458887,96.1425605 L36.9443521,96.122541 L37.9508431,96.1207211 C39.0854001,89.415475 39.2080549,82.184991 38.2971626,75.0091055 C38.2791251,74.8707892 38.2610876,74.7317449 38.2412464,74.5934287 C38.179919,74.1224253 38.1276103,73.650148 38.0554604,73.1796906 C38.0338154,73.0402823 38.0193855,72.9006921 37.9959368,72.7616478 C37.0146982,66.5463326 35.2380071,60.419285 32.6207698,54.7608748 C31.2950156,51.8991835 30.4382356,48.9845317 29.9133451,46.030205 C29.8971114,45.9344756 29.8808777,45.8387461 29.864644,45.7430167 C29.6247456,44.3336465 29.4533896,42.9153586 29.3541835,41.4885169 C29.3469685,41.3825957 29.336146,41.2768565 29.328931,41.1700254 C28.5587309,28.8979127 32.4909,16.0332238 33.4649236,3.29574958 C22.8588895,5.1657494 9.94586258,5.40470899 0.551946672,0.0291192187" id="Path"></path>
                        </g>
                        <g id="Group" transform="translate(23.000000, 209.000000)" fill="#6A1B9A">
                            <path d="M45.5358084,1.94831964 L43.3560195,0.410580984 L42.7721802,-0.000352732804 L40.6198445,3.40704616 C39.4722982,5.18869955 36.9264659,5.88040858 34.7338654,6.31709179 L30.5042331,7.15959409 C30.0228859,7.25589015 29.568992,7.41144532 29.1443816,7.61426668 C28.5825048,5.1774121 27.7790394,3.12521265 27.7790394,3.12521265 L26.933479,3.08147378 L23.1906844,2.88835257 C22.3121801,2.84285004 21.4922427,2.53350337 20.8443457,2.00387506 L18.9628823,0.465783668 L18.4595725,0.0546735847 L15.6446982,3.46383614 C14.1512408,5.246195 11.4718025,5.93843313 9.19501212,6.3758218 L4.80432062,7.21867684 C2.9063852,7.58322619 1.21892478,8.7574737 0.232437607,10.4012086 L0.0640576083,10.6798675 L25.6852707,10.6218429 L54.6173471,10.5567637 C55.054769,7.08410927 52.6937886,3.07018633 52.6937886,3.07018633 L51.8390771,3.02644746 L48.057848,2.83314988 C47.1683623,2.78641279 46.2880278,2.47777158 45.5358084,1.94831964" id="Path"></path>
                        </g>
                        <g id="Group" transform="translate(54.806927, 166.188819) scale(-1, 1) rotate(-51.892692) translate(-54.806927, -166.188819) translate(54.306927, 165.188819)" fill="#F99B1D">
                            <path d="M0.307711605,0.125393266 C0.395367384,0.702127245 0.492762693,1.27886122 0.597462652,1.85650202 C0.500067342,1.88733371 0.402672032,1.92034175 0.307711605,1.95189889 C0.200576764,1.36990539 0.100746571,0.788274616 0.0130907922,0.207006565 C0.108051219,0.179076681 0.207881412,0.152960425 0.307711605,0.125393266" id="Path"></path>
                        </g>
                        <g id="Group" transform="translate(29.000000, 34.000000)" fill="#E1BEE7">
                            <path d="M29.4369522,1.19007057 C29.0750372,1.13203604 28.7095388,1.09159322 28.3404571,1.05713522 C24.5654323,0.708202615 20.3819092,1.59177832 16.692884,3.70749963 C15.6680552,4.29636875 14.6826429,4.98172027 13.7545637,5.75811345 L0.130791084,13.2824715 L4.14948152,25.8678033 L9.05145969,24.2219803 C11.8034474,40.0891647 10.1121216,61.8720626 7.82954847,76.3226603 C8.20221347,76.5638664 8.58383678,76.7905637 8.96904339,77.0118204 C18.3000018,82.3691329 31.1264864,82.1297404 41.6614395,80.2671948 C42.4873941,80.1221084 43.3008072,79.9661406 44.094512,79.8029185 C45.7983794,68.6475938 46.5150429,55.1962781 45.7858378,41.9154388 C45.3397148,33.8032997 44.3543025,25.7539105 42.7221014,18.3311129 C42.7006015,18.236444 42.67731,18.145221 42.6576017,18.0505522 L44.2342614,16.8927633 L41.1400668,12.6444544 C40.8157766,11.7215241 40.4646115,10.8417569 40.0811965,10.0100495 C44.9885497,14.892567 49.3207804,20.5275384 52.8969311,26.8687176 C67.7623232,53.2357992 65.6212911,84.7975152 50.0123606,108.486485 C50.0858186,108.537265 50.157485,108.593486 50.2291513,108.655147 C54.7835477,101.756293 58.2575739,94.0848535 60.4810223,85.8475775 C65.8936232,65.794834 63.2706349,44.8099109 53.0904302,26.7566384 C49.4193216,20.2462523 44.9222583,14.4021752 39.7461563,9.32832515 C37.9329977,5.69046696 35.469467,3.04608736 31.9864826,1.81938249 C31.3809019,1.60646831 30.7466547,1.44832422 30.099866,1.31557024 C29.4692021,0.873782382 28.82958,0.443782791 28.1863745,0.0210375169 L28.2401242,0.385204188 C28.6414558,0.649261297 29.039204,0.91803371 29.4369522,1.19007057" id="Path"></path>
                        </g>
                        <g id="Group" transform="translate(23.000000, 22.000000)" fill="#6A1B9A">
                            <path d="M11.7777483,2.36330979 C12.5167236,2.56613115 13.2486441,2.78129816 13.978801,3.00528349 L13.9505824,3.27336042 C9.44794816,1.89241149 4.82185743,0.922396283 0.132274802,0.398588069 C0.148147778,0.312168532 0.160493426,0.223985331 0.169311746,0.13580213 C4.05466358,0.574954471 7.93296077,1.31216603 11.7777483,2.36330979" id="Path"></path>
                        </g>
                        <g id="Group" transform="translate(58.047058, 196.015950) scale(-1, 1) rotate(-63.335786) translate(-58.047058, -196.015950) translate(57.547058, 191.015950)" fill="#558B2F">
                            <path d="M0.534172096,0.0269145076 C0.517681923,2.99981661 0.647542033,5.98124278 0.921691154,8.96339439 C0.793892316,9.05407589 0.661970934,9.14457602 0.534172096,9.2358016 C0.243532801,6.20957878 0.0971825187,3.17319963 0.109550148,0.132830493 C0.249716616,0.097827436 0.391944356,0.0619175644 0.534172096,0.0269145076" id="Path"></path>
                        </g>
                        <g id="Group" transform="translate(11.000000, 202.000000)" fill="#558B2F">
                            <path d="M4.12785564,3.27847505 C2.77559565,3.27847505 1.42880301,3.25272555 0.0893001883,3.20351933 C0.0874777354,3.30175541 0.0838328298,3.39910967 0.0765430185,3.49681665 C1.42333565,3.54514105 2.77377319,3.5774161 4.12785564,3.5774161 C13.1380624,3.5774161 21.9769586,2.49470276 30.4859908,0.400528099 C30.4878133,0.288182701 30.4878133,0.176190036 30.4878133,0.0636682712 C22.058969,2.16137026 13.2255401,3.27847505 4.12785564,3.27847505" id="Path"></path>
                        </g>
                    </g>
                    <g id="Group" transform="translate(69.000000, 242.500000)" fill="#6A1B9A">
                        <path d="M253.35777,1.99523311 C253.35777,3.05413699 252.474567,3.91215953 251.386432,3.91215953 L2.02229925,3.91215953 C0.933438635,3.91215953 0.0511423538,3.05360789 0.0511423538,1.99523311 C0.0511423538,0.936681962 0.933982702,0.0781303161 2.02229925,0.0781303161 L26.1634852,0.0783066825 L251.386432,0.0783066825 C252.474567,0.0783066825 253.35777,0.936329229 253.35777,1.99523311" id="Path"></path>
                    </g>
                    <g id="Group-4" transform="translate(75.000000, 186.500000)">
                        <g id="Group" transform="translate(211.000000, 25.000000)" fill="#FF6F00">
                            <path d="M16.5052497,19.5715031 C16.2916259,19.8787686 16.0780021,20.1847585 15.8606305,20.4909305 C15.1766596,21.4564661 13.6269501,20.4369859 14.3090471,19.4714504 C14.9030712,18.6316642 15.4877258,17.7885975 16.0367765,16.9242081 C15.7838009,15.8391197 15.4614913,14.7689754 15.0586043,13.7272614 C14.8693411,13.2406665 14.6594651,12.7633661 14.4402196,12.2904396 C13.9248991,13.2864101 13.400209,14.2774599 12.7724548,15.2147474 C12.1147184,16.1975962 10.5650089,15.1757469 11.2227453,14.1952673 C12.0547538,12.9525367 12.7049947,11.6146741 13.3964612,10.2972229 C12.5475877,8.84509253 11.5544244,7.47315004 10.4319625,6.20927901 C10.1433829,6.7465381 9.83793837,7.27832983 9.52312434,7.81121504 C8.92160468,8.8288727 7.37564294,7.80192053 7.97154092,6.79173493 C8.35756288,6.13947907 8.74920652,5.48230258 9.09212895,4.80471462 C7.08144173,2.8603397 4.74844492,1.23252484 2.19620262,0.0324396602 C1.22177825,2.54942925 0.552798442,5.19727096 0.271714488,7.8669821 C1.14682253,8.01223159 2.02193057,8.15693434 2.89703861,8.30218383 C4.07571732,8.49736853 3.93892313,10.3132605 2.75087496,10.1160711 C1.88138859,9.97191511 1.01190223,9.82794133 0.14241587,9.68378531 C0.0712079349,11.6115759 0.211749912,13.5368151 0.60151966,15.4194088 C1.9600921,15.6902253 3.31116897,15.9918413 4.66786752,16.273228 C5.84467234,16.5167077 5.21691817,18.2329115 4.05323061,17.99253 C3.06943677,17.7885975 2.08564293,17.5720901 1.0999752,17.3668819 C1.22927382,17.7871395 1.36794191,18.2052102 1.52534892,18.6194537 C2.10063408,20.1428421 2.86893022,21.5763834 3.7871378,22.9198957 C4.6734892,23.0622292 5.5579667,23.2134928 6.43682253,23.4015699 C6.9296564,23.5072722 7.16389302,24.134196 7.01210769,24.5595565 C6.83034007,25.0694788 6.31689338,25.2265742 5.82218562,25.120143 C5.69101311,25.0924417 5.5598406,25.0727592 5.43054198,25.0466981 C7.13578463,27.0264286 9.17270635,28.7648664 11.3707829,30.2629226 L15.4221396,30.2629226 C16.5633404,26.829057 16.9324974,23.1560856 16.5052497,19.5715031" id="Path"></path>
                        </g>
                        <g id="Group" transform="translate(228.000000, 19.000000)" fill="#FFC107">
                            <path d="M13.2453024,27.8722848 C12.8427097,27.9872071 12.4401169,28.100498 12.0375241,28.2123388 C10.7632304,28.5647189 10.218855,26.5200444 11.4931487,26.1676643 C12.601154,25.8613257 13.7039081,25.5448362 14.792659,25.1844804 C15.3755434,24.03707 15.8884116,22.8521377 16.31551,21.6320398 C16.515056,21.0625037 16.6883459,20.4851732 16.8511334,19.9040361 C15.6941168,20.406504 14.5353497,20.8984584 13.3275714,21.2662461 C12.0602794,21.6517977 11.5194047,19.6065794 12.783196,19.2215716 C14.3830647,18.7339675 15.9041652,18.0286635 17.4410194,17.3701261 C17.7963513,15.4601318 17.9748924,13.5133407 17.9626396,11.5663683 C17.330744,11.8308346 16.6883459,12.075543 16.0354455,12.3160823 C14.792659,12.7746839 14.2570356,10.7269279 15.49107,10.2714078 C16.2892539,9.97757647 17.0961899,9.68483273 17.8751194,9.33607797 C17.6248117,6.13420473 16.8738887,2.97474761 15.6293519,0.031721457 C12.9792411,1.543838 10.4866667,3.39709615 8.30041287,5.55361143 C8.92180608,6.32670866 9.54494968,7.09962462 10.1663429,7.87254058 C11.0047861,8.91372943 9.56420412,10.4214956 8.71875928,9.37178727 C8.10086689,8.60376548 7.48297449,7.83574369 6.86508209,7.06826569 C5.39649365,8.72249436 4.10644635,10.5315237 3.05270351,12.485203 C3.98566852,13.7254213 4.88887667,14.9879353 5.81308966,16.2361293 C6.61302401,17.3190092 4.83461416,18.3761494 4.04518223,17.3061394 C3.37477773,16.3996308 2.71487566,15.4840589 2.04622156,14.5777315 C1.84492517,15.0450339 1.6541312,15.5174117 1.48259167,15.9988528 C0.848945644,17.7716291 0.439351251,19.6071232 0.220550827,21.4734325 C0.854196854,22.2517864 1.47734046,23.0372097 2.07072721,23.8507291 C2.40505426,24.3082432 2.14074335,25.0362053 1.7048929,25.3013967 C1.17977188,25.6193363 0.637146834,25.3795221 0.302819786,24.9214642 C0.215299617,24.8007414 0.120777834,24.6865442 0.031507261,24.5670903 C-0.00525121017,28.5186775 0.721166196,32.5241005 1.93069494,36.2960537 L4.9063807,36.2960537 C8.20414069,34.1192367 11.0642998,31.2340342 13.2453024,27.8722848" id="Path"></path>
                        </g>
                        <g id="Group" transform="translate(28.000000, 9.000000)" fill="#FF6F00">
                            <path d="M16.9447695,37.7072857 C16.7498479,37.7464077 16.5534566,37.7763351 16.3596372,37.8187022 C15.6209192,37.978255 14.8539091,37.742802 14.5820109,36.9740639 C14.3553066,36.3331484 14.7054674,35.3888122 15.4427157,35.2298002 C16.7540733,34.9465715 18.0740656,34.7185101 19.3977322,34.5043307 C20.767695,32.480444 21.9151789,30.3209824 22.774414,28.0268474 C23.0080994,27.4035999 23.2144114,26.7736818 23.4071284,26.1406989 C21.9368573,26.4495282 20.4697093,26.775665 18.9990707,27.0832323 C17.2631476,27.4457868 16.3252825,24.8612116 18.0821491,24.4943303 C20.1070558,24.0711999 22.1251651,23.6159786 24.1530113,23.2087133 C24.733367,20.3733608 24.9451904,17.4738266 24.8373497,14.5705064 C23.5392195,14.7877506 22.2410893,15.0046343 20.9433265,15.2211573 C19.169007,15.5179075 18.9658183,12.7833347 20.7259917,12.4891085 C22.0322054,12.2709629 23.338419,12.0524566 24.6453675,11.8341307 C24.3980872,9.4714872 23.9461482,7.12056225 23.3253753,4.813627 C23.2660353,4.59403907 23.2076139,4.37445114 23.1453346,4.1563055 C22.7483264,2.76233681 22.2914272,1.38495441 21.7740858,0.0340739889 C21.0917683,0.357506455 20.4235968,0.709243769 19.7629576,1.07306022 C19.6527286,1.1336362 19.5428671,1.19421218 19.4331892,1.25586988 C16.5328805,2.89250306 13.8535809,4.90485154 11.4796156,7.22080107 C11.9899759,8.24157846 12.5763942,9.23116642 13.1517896,10.2140838 C14.041705,11.7349736 11.7344283,13.2818245 10.8377154,11.7492162 C10.3677724,10.9462239 9.90958722,10.1455753 9.48098012,9.3357321 C7.80255986,11.239188 6.32053094,13.3056222 5.05473457,15.4921267 C6.08555945,17.4767112 7.05722809,19.4919442 8.29914151,21.3634896 C9.27962848,22.84057 6.96812632,24.3793081 5.98525106,22.898622 C5.04848826,21.4877064 4.2664135,19.9947609 3.49664764,18.4944237 C3.16834893,19.2069126 2.85401256,19.9262524 2.57292861,20.6589333 C1.97089454,22.2288608 1.48864266,23.8398934 1.11092462,25.4740026 C1.93157953,26.7754847 2.80367465,28.0457774 3.69046696,29.3099404 C4.70935037,30.763764 2.39601106,32.299978 1.3763928,30.8450728 C1.05360554,30.3844429 0.733206574,29.9227314 0.414828475,29.460479 C-0.223948588,34.8638203 0.329400999,40.4000323 2.03464365,45.5744109 L8.06251659,45.5744109 C11.3493617,43.3168739 14.3933356,40.6937176 16.9447695,37.7072857" id="Path"></path>
                        </g>
                        <g id="Group" fill="#FFC107">
                            <path d="M28.600256,37.0472162 C28.4583252,37.2270282 28.3070784,37.3994754 28.1677048,37.5816227 C27.6366971,38.2733872 26.7759787,38.6348077 25.9424773,38.155728 C25.2472536,37.7560458 24.8294983,36.6572341 25.3586794,35.9674455 C26.3012318,34.740017 27.2940172,33.5555207 28.3008678,32.3805448 C27.9525252,29.565884 27.3031504,26.796311 26.2942905,24.1210449 C26.0204754,23.3940724 25.7174338,22.6816501 25.3995964,21.9771317 C24.3361196,23.345392 23.2889,24.7267655 22.2237792,26.0943074 C20.9664946,27.7079456 18.1424905,26.1129891 19.4153017,24.4799506 C20.8813726,22.5975821 22.3173037,20.6920412 23.7983532,18.8206303 C22.12514,15.8735804 20.0765497,13.1429876 17.7422711,10.6475336 C16.7606283,11.8059833 15.7786202,12.9649718 14.7969774,14.1234215 C13.4547535,15.7072408 11.1657758,13.4323755 12.4968571,11.8614897 C13.4850759,10.6951362 14.4727466,9.52932166 15.461148,8.36296818 C11.9874039,5.10946531 8.02703965,2.31366591 3.81825072,0.0314356782 C1.83834259,4.47141086 0.64608682,9.23867636 0.247694014,14.0697114 C1.48707741,14.5956752 2.76993513,15.0368525 4.03635297,15.4805446 C5.99762925,16.1672795 5.1475054,19.2569575 3.17198124,18.565193 C2.1364522,18.2026947 1.11334441,17.8333704 0.109416456,17.4342271 C0.0915152663,20.3715769 0.373550338,23.3080285 0.939812465,26.1904107 C3.38314221,27.184317 5.79761085,28.2489986 8.3406758,28.9844138 C10.347801,29.5651655 9.48836126,32.6510713 7.47630406,32.0692418 C5.55831944,31.5145368 3.71467955,30.7717566 1.87688495,30.0144262 C2.13517355,30.8912122 2.41227666,31.7626092 2.72901812,32.6217912 C3.40688869,34.4621256 4.22175815,36.2507259 5.14878405,37.9820234 C6.87935418,38.5255912 8.63129613,39.0032339 10.3905447,39.4652485 C12.4144751,39.9966013 11.5506514,43.0814293 9.5254423,42.5498969 C8.88483543,42.3817609 8.2445939,42.2105712 7.60636168,42.0374055 C11.0771832,47.1148963 15.6255467,51.4731387 20.8722393,54.7571791 L25.5775123,54.7571791 C27.5040822,49.0619323 28.6596222,43.0129893 28.600256,37.0472162" id="Path"></path>
                        </g>
                    </g>
                </g>
            </g>
        </g>
    </g>
</svg>