<?xml version="1.0" encoding="UTF-8"?>
<svg width="312px" height="237px" viewBox="0 0 312 237" version="1.1" xmlns="http://www.w3.org/2000/svg" xmlns:xlink="http://www.w3.org/1999/xlink">
    <!-- Generator: Sketch 64 (93537) - https://sketch.com -->
    <title>Artwork</title>
    <desc>Created with Sketch.</desc>
    <defs>
        <linearGradient x1="87.1668164%" y1="0%" x2="18.9665936%" y2="100%" id="linearGradient-1">
            <stop stop-color="#B3E5FC" offset="0%"></stop>
            <stop stop-color="#C8E6C9" offset="100%"></stop>
        </linearGradient>
        <linearGradient x1="50%" y1="212.710149%" x2="50%" y2="0%" id="linearGradient-2">
            <stop stop-color="#03ACF2" offset="0%"></stop>
            <stop stop-color="#B3E5FC" offset="100%"></stop>
        </linearGradient>
    </defs>
    <g id="Utilities" stroke="none" stroke-width="1" fill="none" fill-rule="evenodd">
        <g id="404" transform="translate(-225.000000, -268.000000)">
            <g id="Container" transform="translate(224.000000, 210.000000)">
                <g id="Artwork" transform="translate(0.000000, 58.000000)">
                    <g id="Group-8" transform="translate(24.000000, 198.000000)">
                        <g id="Group" transform="translate(73.811733, 0.000000)" fill="#00BCD4">
                            <rect id="Rectangle" x="0.0368167936" y="0.0258693536" width="214.951287" height="1"></rect>
                        </g>
                        <g id="Group" transform="translate(0.000000, 37.973271)" fill="#03ACF2">
                            <rect id="Rectangle" x="0.0112825658" y="0.0293969927" width="214.951287" height="1"></rect>
                        </g>
                    </g>
                    <g id="Group-3" transform="translate(0.000000, 24.000000)" fill-rule="nonzero">
                        <g id="Group" transform="translate(129.526987, 111.457271) rotate(90.000000) translate(-129.526987, -111.457271) translate(28.026987, -17.542729)" fill="url(#linearGradient-1)">
                            <path d="M122.96374,6.00406224 C155.563667,-23.4255688 202.543678,61.8867944 202.543678,130.822016 C202.543678,199.756645 166.142604,247.448731 122.96374,255.639377 C18.2703343,275.498922 -48.272603,86.4326391 43.383208,130.822016 C176.982318,195.524623 97.2907036,29.1811421 122.96374,6.00406224 Z" id="Path"></path>
                        </g>
                        <g id="Group" transform="translate(52.449423, 0.147110)" fill="#4CAF50">
                            <path d="M213.022226,122.774889 C189.807252,97.143758 23.1918065,176.704699 88.0001997,43.3242551 C116.888677,-16.1310246 47.0619862,-8.90942582 0.058214155,32.1126 C45.5751491,0.909149289 100.517431,0.00948883799 74.3275955,53.9096469 C9.51920239,187.290684 176.134648,107.729743 199.34784,133.36028 C210.1531,145.286564 205.519728,159.14086 191.919001,171.908685 C215.29733,156.611492 226.90452,138.101141 213.022226,122.774889" id="Path"></path>
                        </g>
                    </g>
                    <g id="Group-7" transform="translate(20.000000, 51.000000)" fill-rule="nonzero">
                        <g id="Group" transform="translate(69.920875, 0.000000)" fill="#C8E6C9">
                            <path d="M2.5115768,5.04180636 C3.8963541,5.04180636 5.01840919,3.92265304 5.01840919,2.54277781 C5.01840919,1.16231136 3.8963541,0.0431580516 2.5115768,0.0431580516 C1.12679951,0.0431580516 0.00415136662,1.16231136 0.00415136662,2.54277781 C0.00415136662,3.92265304 1.12679951,5.04180636 2.5115768,5.04180636" id="Path"></path>
                        </g>
                        <g id="Group" transform="translate(35.938974, 149.673897)" fill="#00838F">
                            <path d="M2.50742544,5.05126565 C3.89220273,5.05126565 5.01425782,3.93270355 5.01425782,2.55223711 C5.01425782,1.17177066 3.89220273,0.0526173506 2.50742544,0.0526173506 C1.12264814,0.0526173506 0,1.17177066 0,2.55223711 C0,3.93270355 1.12264814,5.05126565 2.50742544,5.05126565" id="Path"></path>
                        </g>
                        <g id="Group" transform="translate(75.732788, 38.078467)" fill="#B2EBF2">
                            <path d="M1.15704518,2.23180335 C1.77204049,2.23180335 2.27079754,1.73459895 2.27079754,1.12092693 C2.27079754,0.507846114 1.77204049,0.0100505052 1.15704518,0.0100505052 C0.541456818,0.0100505052 0.0426997709,0.507846114 0.0426997709,1.12092693 C0.0426997709,1.73459895 0.541456818,2.23180335 1.15704518,2.23180335" id="Path"></path>
                        </g>
                        <g id="Group" transform="translate(17.257824, 95.843568)" fill="#4CAF50">
                            <path d="M1.13095088,2.23002973 C1.74653924,2.23002973 2.24529629,1.73223413 2.24529629,1.11915331 C2.24529629,0.505481289 1.74653924,0.00827688661 1.13095088,0.00827688661 C0.515955565,0.00827688661 0.0166054665,0.505481289 0.0166054665,1.11915331 C0.0166054665,1.73223413 0.515955565,2.23002973 1.13095088,2.23002973" id="Path"></path>
                        </g>
                        <g id="Group" transform="translate(163.801066, 137.475539)" fill="#C8E6C9">
                            <path d="M1.11790373,2.25367798 C1.73349209,2.25367798 2.23224914,1.75647358 2.23224914,1.14280156 C2.23224914,0.529720743 1.73349209,0.0325163402 1.11790373,0.0325163402 C0.502315361,0.0325163402 0.00355831424,0.529720743 0.00355831424,1.14280156 C0.00355831424,1.75647358 0.502315361,2.25367798 1.11790373,2.25367798" id="Path"></path>
                        </g>
                        <g id="Group" transform="translate(13.640205, 39.176751)" fill="#4CAF50">
                            <path d="M1.12739256,2.24421868 C1.74298093,2.24421868 2.24173797,1.74701428 2.24173797,1.13393346 C2.24173797,0.520261444 1.74298093,0.0230570413 1.12739256,0.0230570413 C0.511804199,0.0230570413 0.0130471522,0.520261444 0.0130471522,1.13393346 C0.0130471522,1.74701428 0.511804199,2.24421868 1.12739256,2.24421868" id="Path"></path>
                        </g>
                        <g id="Group" transform="translate(81.010954, 10.259201)" fill="#C8E6C9">
                            <polygon id="Path" points="1.45001305 0.614263227 0.893136875 0.614263227 0.893136875 0.0585294124 0.61440226 0.0585294124 0.61440226 0.614263227 0.0569330279 0.614263227 0.0569330279 0.892130135 0.61440226 0.892130135 0.61440226 1.44727274 0.893136875 1.44727274 0.893136875 0.892130135 1.45001305 0.892130135"></polygon>
                        </g>
                        <g id="Group" transform="translate(38.429794, 19.424079)" fill="#C8E6C9">
                            <polygon id="Path" points="1.40909244 0.613672021 0.852216262 0.613672021 0.852216262 0.0585294124 0.573481646 0.0585294124 0.573481646 0.613672021 0.0166054665 0.613672021 0.0166054665 0.891538929 0.573481646 0.891538929 0.573481646 1.44668154 0.852216262 1.44668154 0.852216262 0.891538929 1.40909244 0.891538929"></polygon>
                        </g>
                        <g id="Group" transform="translate(10.556332, 71.638405)" fill="#4CAF50">
                            <polygon id="Path" points="1.42569791 0.608351166 0.868228676 0.608351166 0.868228676 0.0526173506 0.58949406 0.0526173506 0.58949406 0.608351166 0.0326178806 0.608351166 0.0326178806 0.885626867 0.58949406 0.885626867 0.58949406 1.44136068 0.868228676 1.44136068 0.868228676 0.885626867 1.42569791 0.885626867"></polygon>
                        </g>
                        <g id="Group" transform="translate(89.135772, 161.356131)" fill="#C8E6C9">
                            <path d="M1.12502035,2.25604281 C1.74060872,2.25604281 2.23936576,1.7582472 2.23936576,1.14516638 C2.23936576,0.531494361 1.74060872,0.0342899588 1.12502035,0.0342899588 C0.510025042,0.0342899588 0.0112679951,0.531494361 0.0112679951,1.14516638 C0.0112679951,1.7582472 0.510025042,2.25604281 1.12502035,2.25604281" id="Path"></path>
                        </g>
                        <g id="Group" transform="translate(85.518152, 104.689609)" fill="#B2EBF2">
                            <path d="M1.12146204,2.27023175 C1.7370504,2.27023175 2.23580745,1.77302735 2.23580745,1.15935533 C2.23580745,0.546274516 1.7370504,0.0484789073 1.12146204,0.0484789073 C0.505873675,0.0484789073 0.00711662849,0.546274516 0.00711662849,1.15935533 C0.00711662849,1.77302735 0.505873675,2.27023175 1.12146204,2.27023175" id="Path"></path>
                        </g>
                        <g id="Group" transform="translate(217.235085, 125.275408)" fill="#4CAF50">
                            <path d="M1.17009233,2.23475938 C1.78508765,2.23475938 2.28443774,1.73755498 2.28443774,1.12388296 C2.28443774,0.510802145 1.78508765,0.0135977423 1.17009233,0.0135977423 C0.55450397,0.0135977423 0.0557469232,0.510802145 0.0557469232,1.12388296 C0.0557469232,1.73755498 0.55450397,2.23475938 1.17009233,2.23475938" id="Path"></path>
                        </g>
                        <g id="Group" transform="translate(82.434280, 137.210088)" fill="#4CAF50">
                            <polygon id="Path" points="1.41976738 0.575243619 0.862298152 0.575243619 0.862298152 0.0195098041 0.584156588 0.0195098041 0.584156588 0.575243619 0.0266873568 0.575243619 0.0266873568 0.853110527 0.584156588 0.853110527 0.584156588 1.40825314 0.862298152 1.40825314 0.862298152 0.853110527 1.41976738 0.853110527"></polygon>
                        </g>
                        <g id="Group" transform="translate(136.461351, 156.898436)" fill="#C8E6C9">
                            <polygon id="Path" points="1.4357798 0.604212722 0.878903618 0.604212722 0.878903618 0.0490701134 0.600169003 0.0490701134 0.600169003 0.604212722 0.0426997709 0.604212722 0.0426997709 0.88207963 0.600169003 0.88207963 0.600169003 1.43722224 0.878903618 1.43722224 0.878903618 0.88207963 1.4357798 0.88207963"></polygon>
                        </g>
                        <g id="Group" transform="translate(0.000000, 107.459410)" fill="#4CAF50">
                            <polygon id="Path" points="1.39604529 0.611307196 0.839169109 0.611307196 0.839169109 0.0561645877 0.560434493 0.0561645877 0.560434493 0.611307196 0.00296526187 0.611307196 0.00296526187 0.889174104 0.560434493 0.889174104 0.560434493 1.44431671 0.839169109 1.44431671 0.839169109 0.889174104 1.39604529 0.889174104"></polygon>
                        </g>
                        <g id="Group" transform="translate(77.393335, 67.504732)" fill="#B2EBF2">
                            <polygon id="Path" points="1.44645474 0.576426031 0.888985509 0.576426031 0.888985509 0.0206922165 0.610250893 0.0206922165 0.610250893 0.576426031 0.0533747137 0.576426031 0.0533747137 0.854292939 0.610250893 0.854292939 0.610250893 1.40943555 0.888985509 1.40943555 0.888985509 0.854292939 1.44645474 0.854292939"></polygon>
                        </g>
                        <g id="Group" transform="translate(43.174213, 34.718583)" fill="#D0CDE1">
                            <polygon id="Path" points="1.40078971 0.592979805 0.843913528 0.592979805 0.843913528 0.0372459897 0.565178912 0.0372459897 0.565178912 0.592979805 0.00770968086 0.592979805 0.00770968086 0.870846712 0.565178912 0.870846712 0.565178912 1.42598932 0.843913528 1.42598932 0.843913528 0.870846712 1.40078971 0.870846712"></polygon>
                        </g>
                        <g id="Group" transform="translate(66.006729, 89.448668)" fill="#B3E5FC">
                            <polygon id="Path" points="1.41146465 0.571105176 0.853995419 0.571105176 0.853995419 0.015962567 0.575260803 0.015962567 0.575260803 0.571105176 0.0183846236 0.571105176 0.0183846236 0.848972083 0.575260803 0.848972083 0.575260803 1.40411469 0.853995419 1.40411469 0.853995419 0.848972083 1.41146465 0.848972083"></polygon>
                        </g>
                        <g id="Group" transform="translate(32.558575, 123.852375)" fill="#4CAF50">
                            <polygon id="Path" points="1.43044233 0.60303031 0.873566147 0.60303031 0.873566147 0.0472964949 0.594831531 0.0472964949 0.594831531 0.60303031 0.0379553519 0.60303031 0.0379553519 0.880306011 0.594831531 0.880306011 0.594831531 1.43603983 0.873566147 1.43603983 0.873566147 0.880306011 1.43044233 0.880306011"></polygon>
                        </g>
                    </g>
                    <g id="Group-4" transform="translate(49.000000, 84.000000)" fill-rule="nonzero">
                        <g id="Group" transform="translate(2.000000, 37.526143)" fill="#4CAF50">
                            <path d="M16.5734365,5.57778539 C9.91266593,5.57778539 0.00352763912,4.84227263 0.00352763912,2.8162319 C0.00352763912,0.789603223 9.91266593,0.0540904665 16.5734365,0.0540904665 C23.2342071,0.0540904665 33.1439334,0.789603223 33.1439334,2.8162319 C33.1439334,4.84227263 23.2342071,5.57778539 16.5734365,5.57778539 Z M16.5734365,0.606753929 C12.2350284,0.606753929 8.15766547,0.863683645 5.09391089,1.33168377 C1.50395015,1.87905577 0.555603162,2.54166399 0.555603162,2.8162319 C0.555603162,3.09021187 1.50395015,3.75282009 5.09391089,4.30019209 C8.15766547,4.76819221 12.2350284,5.02512193 16.5734365,5.02512193 C20.9124327,5.02512193 24.9897955,4.76819221 28.0535501,4.30019209 C31.6435109,3.75282009 32.5918578,3.09021187 32.5918578,2.8162319 C32.5918578,2.54166399 31.6435109,1.87905577 28.0535501,1.33168377 C24.9897955,0.863683645 20.9124327,0.606753929 16.5734365,0.606753929" id="Shape"></path>
                        </g>
                        <g id="Group" transform="translate(8.055780, 0.000000)" fill="#03ACF2">
                            <path d="M10.517656,0.0205778949 C4.72174496,0.0205778949 0.0235175941,1.40517625 0.0235175941,7.20108733 C0.0235175941,12.9975863 4.72174496,36.1994568 10.517656,36.1994568 C16.3141551,36.1994568 21.0123824,12.9975863 21.0123824,7.20108733 C21.0123824,1.40517625 16.3141551,0.0205778949 10.517656,0.0205778949 Z M10.517656,14.9342602 C8.07770565,14.9342602 6.09928804,12.9558426 6.09928804,10.5153043 C6.09928804,8.07476595 8.07770565,6.09634834 10.518244,6.09634834 C12.9581944,6.09634834 14.936612,8.07476595 14.936612,10.5153043 C14.936612,11.6870684 14.4709636,12.8112094 13.6425564,13.6396167 C12.8135612,14.4686119 11.6900081,14.9342602 10.517656,14.9342602 Z" id="Shape"></path>
                        </g>
                        <g id="Group" transform="translate(0.588944, 39.746322)" fill="#C8E6C9">
                            <path d="M16.3276777,5.01453901 C25.3266851,5.01453901 32.6218428,3.90156887 32.6218428,2.52872931 C32.6218428,1.15647769 25.3266851,0.0435075492 16.3276777,0.0435075492 C7.32867028,0.0435075492 0.0335125717,1.15647769 0.0335125717,2.52872931 C0.0335125717,3.90156887 7.32867028,5.01453901 16.3276777,5.01453901" id="Path"></path>
                        </g>
                    </g>
                    <g id="Group-6" transform="translate(101.000000, 211.000000)" fill="#4CAF50" fill-rule="nonzero">
                        <g id="Group" transform="translate(12.986162, 0.000000)">
                            <path d="M14.1787575,25.2578961 L13.8236418,25.1250217 C13.7454458,25.0950368 5.97523273,22.1182973 2.33470916,15.3675719 C-1.30522647,8.61625855 0.476819221,0.487990078 0.495633297,0.406854379 L0.579120756,0.0370402108 L0.934824367,0.169914618 C1.01243243,0.19931161 8.78323347,3.17663903 12.4231691,9.92736443 C16.0636927,16.6786778 14.281059,24.8063583 14.2628329,24.887494 L14.1787575,25.2578961 Z M2.91794549,15.0530241 C5.99522269,20.7607442 12.1356665,23.6869208 13.6919433,24.3548205 C13.9876771,22.6874231 14.9154461,15.9437529 11.8405207,10.2419122 C8.76618322,4.54007155 2.62279969,1.60977932 1.06652289,0.940115826 C0.770201208,2.60868913 -0.156979941,9.35118337 2.91794549,15.0530241 Z" id="Shape"></path>
                        </g>
                        <g id="Group" transform="translate(15.174839, 17.921236) scale(-1, 1) rotate(-31.032697) translate(-15.174839, -17.921236) translate(1.174839, 12.421236)">
                            <path d="M13.8565976,0.0563543254 C6.22220084,0.0563543254 0.0335477162,5.45599239 0.0335477162,5.45599239 C0.0335477162,5.45599239 6.22220084,10.8556305 13.8565976,10.8556305 C21.4909945,10.8556305 27.6802355,5.45599239 27.6802355,5.45599239 C27.6802355,5.45599239 21.4909945,0.0563543254 13.8565976,0.0563543254" id="Path"></path>
                        </g>
                    </g>
                    <g id="Group-2" transform="translate(202.000000, 0.000000)" fill-rule="nonzero">
                        <g id="Group" transform="translate(0.000000, 79.862253)" fill="#FFF3E0">
                            <path d="M10.3574947,0.014838482 C10.3574947,0.014838482 -4.79858217,14.8444174 1.56702956,16.6600541 C7.93264129,18.4756907 15.207796,3.04129527 15.207796,3.04129527 L10.3574947,0.014838482 Z" id="Path"></path>
                        </g>
                        <g id="Group" transform="translate(31.647151, 134.603529) scale(-1, 1) rotate(77.904074) translate(-31.647151, -134.603529) translate(26.147151, 127.603529)" fill="#FFF3E0">
                            <polygon id="Path" points="2.08593806 0.011431299 10.7658301 0.011431299 8.50029561 13.4550941 0.0534368115 9.48134916"></polygon>
                        </g>
                        <g id="Group" transform="translate(74.797633, 186.530027) scale(-1, 1) rotate(77.906007) translate(-74.797633, -186.530027) translate(68.797633, 179.530027)" fill="#FFF3E0">
                            <polygon id="Path" points="3.02880075 -0.0031250471 11.7080977 -0.0031250471 9.44315786 13.4405368 0.995705172 9.46619861"></polygon>
                        </g>
                        <g id="Group" transform="translate(13.910657, 73.169742)" fill="#03ACF2">
                            <path d="M30.6985609,0.048670221 L31.9112848,4.89135721 C31.9112848,4.89135721 -1.73407634,-1.76696644 0.0844150976,15.1809542 C1.90290653,32.1294683 9.78442318,48.4719789 9.78442318,48.4719789 C9.78442318,48.4719789 9.17806122,53.920076 10.3901907,54.8275975 C11.6029146,55.7357126 10.3901907,58.7621694 10.3901907,58.7621694 C10.3901907,58.7621694 21.6061037,60.275101 21.9092847,57.5513493 C22.0715757,55.7303708 21.9693264,53.8957409 21.6061037,52.1038458 C21.6061037,52.1038458 22.2124657,52.1038458 21.6061037,49.077389 C20.9997417,46.0509322 18.5511094,21.6434099 16.7320235,18.314248 C16.7320235,18.314248 32.8208278,30.6159432 41.3098953,29.1030116 C41.3098953,29.1030116 40.0971714,41.2088387 44.9480671,57.2486442 C49.7989629,73.2890433 49.7989629,75.1052735 49.7989629,75.1052735 C49.7989629,75.1052735 55.5534569,105.672546 54.0375519,109.30382 L53.734371,110.817345 L64.9520674,110.817345 C64.9520674,110.817345 64.0425244,94.7769459 64.9520674,92.6586042 C65.8616103,90.5402625 65.8616103,72.3809282 60.7075336,63.3021514 C57.0574723,56.8723403 57.7411157,38.2292715 59.7325987,30.8604814 C61.4090112,24.6722408 61.8370314,19.9096816 60.850207,13.5748369 C59.8039354,6.80017954 56.6651205,3.25912419 52.824828,0.048670221 L30.6985609,0.048670221 Z" id="Path"></path>
                        </g>
                        <g id="Group" transform="translate(42.623680, 5.828556)" fill="#FFF3E0">
                            <path d="M10.9264049,21.841652 C16.9543562,21.841652 21.8409203,16.9639462 21.8409203,10.946645 C21.8409203,4.92934373 16.9543562,0.0510443781 10.9264049,0.0510443781 C4.90439828,0.0510443781 0.016050758,4.92934373 0.016050758,10.946645 C0.016050758,16.9639462 4.90439828,21.841652 10.9264049,21.841652" id="Path"></path>
                        </g>
                        <g id="Group" transform="translate(57.120060, 28.292887) scale(-1, 1) rotate(58.240576) translate(-57.120060, -28.292887) translate(48.120060, 20.792887)" fill="#FFF3E0">
                            <path d="M9.15489991,0.0311091244 C9.15489991,0.0311091244 15.6465424,7.95901649 17.3526792,8.6576125 C19.0588161,9.35561497 9.15489991,14.980589 9.15489991,14.980589 C9.15489991,14.980589 2.97832796,6.53748934 0.0237983552,6.13328892 L9.15489991,0.0311091244 Z" id="Path"></path>
                        </g>
                        <g id="Group" transform="translate(39.591870, 28.980149)" fill="#B3E5FC">
                            <path d="M23.2082071,0.0522314567 L12.5968727,4.28950838 L13.2032346,7.9207817 C13.2032346,7.9207817 12.2936917,9.13160183 12.5968727,9.7370119 C12.9000537,10.342422 8.65551987,12.7634687 9.26188184,13.6715838 C9.86824381,14.5791054 5.62371003,18.2109722 5.92689101,19.1190873 C6.230072,20.0266089 -3.77192813,25.4747059 1.68414065,36.0670079 C1.68414065,36.0670079 4.51204642,39.7386419 4.15833527,44.0809753 C4.14585135,44.2335149 4.12980059,44.3872416 4.10899405,44.5409682 C3.50263208,49.0809502 27.1436152,43.9355582 27.1436152,43.9355582 L27.1436152,38.7907597 C27.1436152,38.7907597 29.2658821,37.8832381 28.9627011,33.9486662 C28.6595201,30.0140944 26.8404342,31.8303245 28.9627011,29.7113893 C31.084968,27.5930476 31.084968,27.8957527 30.781787,26.080116 C30.6628925,25.354811 30.6391136,22.7473929 30.6510031,19.8764434 C30.6807267,13.8110655 28.7011332,7.90653676 25.027293,3.07868825 L23.2082071,0.0522314567 Z" id="Path"></path>
                        </g>
                        <g id="Group" transform="translate(8.500957, 35.620073)" fill="#B3E5FC">
                            <path d="M48.5386811,1.28085777 L28.834295,21.8606453 L0.0380462412,44.559368 L6.40365797,49.7041665 L59.4472519,14.2948 C59.4472519,14.2948 63.9949666,-5.07476085 48.5386811,1.28085777" id="Path"></path>
                        </g>
                        <g id="Group" transform="translate(3.626282, 131.681556)" fill="#00838F">
                            <path d="M22.7968321,2.6715203 C22.7968321,2.6715203 20.6745653,-0.960346556 19.1592548,0.250473576 L8.55029824,8.72443389 C8.55029824,8.72443389 -10.243356,14.1719374 7.94393627,18.4092143 C7.94393627,18.4092143 17.9471253,19.922146 20.0687978,18.4092143 C22.1904702,16.8956892 25.5248665,17.1983942 26.4344095,17.8038043 C27.343358,18.4092143 38.862452,17.5010992 38.862452,15.0800525 C38.862452,12.6590058 32.5093242,2.07738748 32.5093242,2.07738748 C32.5093242,2.07738748 28.8592629,6.30338716 22.7968321,2.6715203" id="Path"></path>
                        </g>
                        <g id="Group" transform="translate(46.666093, 183.987680)" fill="#00838F">
                            <path d="M22.7980211,2.72315822 C22.7980211,2.72315822 20.6757542,-0.9081151 19.1598493,0.302111494 L8.55445954,8.77607181 C8.55445954,8.77607181 -10.2397891,14.2235753 7.94809757,18.4608523 C7.94809757,18.4608523 17.9530701,19.9743774 20.0693922,18.4608523 C22.1916591,16.9473271 25.52665,17.2506257 26.4361929,17.8554422 C27.3457359,18.4608523 38.8666133,17.5527372 38.8666133,15.1316904 C38.8666133,12.7106437 32.511702,2.1290254 32.511702,2.1290254 C32.511702,2.1290254 28.8616408,6.35502508 22.7980211,2.72315822" id="Path"></path>
                        </g>
                        <g id="Group" transform="translate(40.424131, 0.000000)" fill="#212121">
                            <path d="M0.0505301641,12.4548283 C0.0505301641,12.4548283 1.46299687,0.0563862317 12.3888073,0.0367826842 C13.9463253,0.0344252783 15.7059639,0.284305315 17.673668,0.858851339 C17.673668,0.858851339 28.8378619,-1.40846871 32.7851594,12.5129951 L36.7859595,27.108126 L34.9549841,26.1572761 L34.1405567,28.0186153 L31.2216967,28.8175192 L29.9138571,26.3501764 L29.3669424,29.3873169 L9.17271096,33.4631511 C9.17271096,33.4631511 16.0032002,25.6735416 15.9556424,14.2651231 L13.9403806,16.4701215 L0.0505301641,12.4548283 Z" id="Path"></path>
                        </g>
                    </g>
                    <g id="Group-5" transform="translate(140.000000, 89.000000)">
                        <g id="Group" transform="translate(0.000000, 58.601628)" fill="#B2EBF2" fill-rule="nonzero">
                            <path d="M29.8152139,7.85364912 C46.2524346,7.85364912 59.577229,6.10052271 59.577229,3.9384327 C59.577229,1.77693797 46.2524346,0.0238115641 29.8152139,0.0238115641 C13.3779932,0.0238115641 0.0531987578,1.77693797 0.0531987578,3.9384327 C0.0531987578,6.10052271 13.3779932,7.85364912 29.8152139,7.85364912" id="Path"></path>
                        </g>
                        <g id="Group" transform="translate(13.987089, 0.000000)" fill="#00838F" fill-rule="nonzero">
                            <path d="M31.9969607,15.2048742 L31.6442948,15.2048742 L31.6442948,5.59214582 C31.6442948,4.11701943 31.0561198,2.70142194 30.0082835,1.65847544 C28.9604473,0.614933642 27.5396221,0.029169166 26.0584252,0.029169166 L5.60918138,0.029169166 C4.12738677,0.029169166 2.70656152,0.614933642 1.65932305,1.65847544 C0.611486845,2.70142194 0.0227140763,4.11701943 0.0227140763,5.59214582 L0.0227140763,58.3270215 C0.0227140763,59.8021479 0.611486845,61.2171501 1.65932305,62.2606919 C2.70656152,63.3042337 4.12738677,63.8899981 5.60918138,63.8899981 L26.0584252,63.8899981 C27.5396221,63.8899981 28.9604473,63.3042337 30.0082835,62.2606919 C31.0561198,61.2171501 31.6442948,59.8021479 31.6442948,58.3270215 L31.6442948,22.0471272 L31.9969607,22.0471272 L31.9969607,15.2048742 Z" id="Path"></path>
                        </g>
                        <g id="Group" transform="translate(15.361888, 1.572754)" fill="url(#linearGradient-2)" fill-rule="nonzero">
                            <path d="M24.7768731,0.035122057 L22.1073714,0.035122057 C22.3566285,0.643507519 22.2854976,1.33582874 21.9172905,1.88170885 C21.5490833,2.42699367 20.9322168,2.75440267 20.2723131,2.75440267 L8.55722939,2.75440267 C7.8973257,2.75440267 7.28045921,2.42699367 6.91225207,1.88170885 C6.54404494,1.33582874 6.47291402,0.643507519 6.72217112,0.035122057 L4.22900237,0.035122057 C3.12258776,0.035122057 2.0616013,0.472659547 1.27916114,1.25189298 C0.496720985,2.03112642 0.0573829297,3.08776457 0.0573829297,4.1896447 L0.0573829297,56.8471328 C0.0573829297,57.9490129 0.496720985,59.0056511 1.27916114,59.7848845 C2.0616013,60.5641179 3.12258776,61.0016554 4.22900237,61.0016554 L24.7768731,61.0016554 C25.8832877,61.0016554 26.9442742,60.5641179 27.7267144,59.7848845 C28.5091545,59.0056511 28.9484926,57.9490129 28.9484926,56.8471328 L28.9484926,4.1896447 C28.9484926,3.08776457 28.5091545,2.03112642 27.7267144,1.25189298 C26.9442742,0.472659547 25.8832877,0.035122057 24.7768731,0.035122057 Z" id="Path"></path>
                        </g>
                        <g id="Group" transform="translate(19.426513, 14.396353)" fill="#B3E5FC" fill-rule="nonzero">
                            <path d="M5.89609603,11.7926771 C9.15257729,11.7926771 11.7927898,9.16388043 11.7927898,5.92074541 C11.7927898,2.67761038 9.15257729,0.0482184172 5.89609603,0.0482184172 C2.63961477,0.0482184172 0,2.67761038 0,5.92074541 C0,9.16388043 2.63961477,11.7926771 5.89609603,11.7926771" id="Path"></path>
                        </g>
                        <g id="Group" transform="translate(21.638146, 11.728148)" fill="#03ACF2" fill-rule="nonzero">
                            <path d="M19.0110842,17.1109899 L11.8794619,10.0080004 C13.6941971,7.25359771 13.1227587,3.57828279 10.5566659,1.49893796 C7.99057296,-0.580406874 4.26068253,-0.389914362 1.92173041,1.93945189 C-0.417819457,4.26941344 -0.60849815,7.98342214 1.47880592,10.5389983 C3.56670772,13.0945744 7.25714739,13.6636708 10.0234828,11.856373 L17.155105,18.9593626 L19.0110842,17.1109899 Z M3.2355604,9.7174993 C1.44174611,7.9310367 1.44174611,5.03435993 3.2355604,3.24789734 C5.02937469,1.46143474 7.9373742,1.46143474 9.7311885,3.24789734 C11.5250028,5.03435993 11.5250028,7.9310367 9.7311885,9.7174993 C8.86984681,10.5753109 7.7018651,11.0568998 6.48367332,11.0568998 C5.26548154,11.0568998 4.09690209,10.5753109 3.2355604,9.7174993" id="Shape"></path>
                        </g>
                        <g id="Group" transform="translate(18.290809, 35.688415)" fill="#03ACF2">
                            <rect id="Rectangle" x="0.0125525159" y="0.00773875832" width="23.0235855" height="2.79631103"></rect>
                        </g>
                    </g>
                </g>
            </g>
        </g>
    </g>
</svg>