<?xml version="1.0" encoding="UTF-8"?>
<svg width="430px" height="368px" viewBox="0 0 430 368" version="1.1" xmlns="http://www.w3.org/2000/svg" xmlns:xlink="http://www.w3.org/1999/xlink">
    <!-- Generator: Sketch 64 (93537) - https://sketch.com -->
    <title>Artwork</title>
    <desc>Created with Sketch.</desc>
    <defs>
        <linearGradient x1="12.8937713%" y1="17.9102153%" x2="87.1060183%" y2="82.0898074%" id="linearGradient-1">
            <stop stop-color="#03ACF2" offset="0%"></stop>
            <stop stop-color="#B3E5FC" offset="100%"></stop>
        </linearGradient>
        <linearGradient x1="35.4113015%" y1="39.3061009%" x2="64.5883956%" y2="60.6935469%" id="linearGradient-2">
            <stop stop-color="#4CAF50" offset="0%"></stop>
            <stop stop-color="#03ACF2" offset="100%"></stop>
        </linearGradient>
    </defs>
    <g id="Pricing" stroke="none" stroke-width="1" fill="none" fill-rule="evenodd">
        <g transform="translate(-142.000000, -1442.000000)" id="Faq">
            <g transform="translate(109.000000, 1101.000000)">
                <g id="Artwork" transform="translate(33.000000, 341.000000)">
                    <g id="Group-5" transform="translate(269.000000, 46.000000)">
                        <g id="Group" transform="translate(53.745966, 21.447613)" fill="#03ACF2">
                            <path d="M2.56735855,5.08720838 C1.17346439,5.08720838 0.0427893091,3.95664556 0.0427893091,2.56079289 C0.0427893091,1.16558886 1.17281606,0.0350260426 2.56735855,0.0350260426 C3.96125271,0.0350260426 5.09257611,1.16558886 5.09257611,2.56079289 C5.09257611,3.95664556 3.96125271,5.08720838 2.56735855,5.08720838" id="Path"></path>
                        </g>
                        <g id="Group" transform="translate(42.983806, 21.447613)" fill="#03ACF2">
                            <path d="M2.54272228,5.08720838 C1.14882812,5.08720838 0.0175047174,3.95664556 0.0175047174,2.56079289 C0.0175047174,1.16558886 1.14753147,0.0350260426 2.54272228,0.0350260426 C3.93661644,0.0350260426 5.06729152,1.16558886 5.06729152,2.56079289 C5.06729152,3.95664556 3.93726476,5.08720838 2.54272228,5.08720838" id="Path"></path>
                        </g>
                        <g id="Group" transform="translate(32.156814, 21.447613)" fill="#03ACF2">
                            <path d="M2.5829183,5.08720838 C1.18967246,5.08720838 0.0583490579,3.95664556 0.0583490579,2.56079289 C0.0583490579,1.16558886 1.18837581,0.0350260426 2.5829183,0.0350260426 C3.9781091,0.0350260426 5.10813586,1.16558886 5.10813586,2.56079289 C5.10813586,3.95664556 3.97681246,5.08720838 2.5829183,5.08720838" id="Path"></path>
                        </g>
                        <g id="Group" transform="translate(21.394655, 21.447613)" fill="#03ACF2">
                            <path d="M2.55828203,5.08720838 C1.16438787,5.08720838 0.033712789,3.95664556 0.033712789,2.56079289 C0.033712789,1.16558886 1.16309122,0.0350260426 2.55828203,0.0350260426 C3.95217619,0.0350260426 5.08285127,1.16558886 5.08285127,2.56079289 C5.08285127,3.95664556 3.95282451,5.08720838 2.55828203,5.08720838" id="Path"></path>
                        </g>
                        <g id="Group" transform="translate(10.632495, 21.447613)" fill="#03ACF2">
                            <path d="M2.53429408,5.08720838 C1.14039992,5.08720838 0.00972484298,3.95664556 0.00972484298,2.56079289 C0.00972484298,1.16558886 1.13910327,0.0350260426 2.53429408,0.0350260426 C3.92818824,0.0350260426 5.05886332,1.16558886 5.05886332,2.56079289 C5.05886332,3.95664556 3.92818824,5.08720838 2.53429408,5.08720838" id="Path"></path>
                        </g>
                        <g id="Group" fill="#C8E6C9">
                            <path d="M58.9189337,0.0454041293 L4.51232714,0.0454041293 C2.02860225,0.0454041293 0.014263103,2.06005021 0.014263103,4.54560198 L0.014263103,40.4875108 C0.014263103,42.9724139 2.02860225,44.9877086 4.51232714,44.9877086 L30.5048875,44.9877086 L52.0454147,44.9877086 L66.1172625,56.7506213 L62.3556932,44.9877086 L62.6273405,44.9877086 C65.1110654,44.9877086 67.1254045,42.9724139 67.1254045,40.4875108 L67.1254045,4.54560198 C67.1254045,2.06069884 65.112362,0.0454041293 62.6273405,0.0454041293 L58.9189337,0.0454041293 Z" id="Path"></path>
                        </g>
                        <g id="Group" transform="translate(55.880683, 24.449559) scale(-1, 1) translate(-55.880683, -24.449559) translate(52.880683, 21.449559)" fill="#03ACF2">
                            <path d="M2.56735855,0.0343774122 C3.96125271,0.0343774122 5.09257611,1.1642916 5.09257611,2.56014426 C5.09257611,3.9553483 3.96254935,5.08591112 2.56735855,5.08591112 C1.17346439,5.08591112 0.0427893091,3.9553483 0.0427893091,2.56014426 C0.0427893091,1.1642916 1.17346439,0.0343774122 2.56735855,0.0343774122" id="Path"></path>
                        </g>
                        <g id="Group" transform="translate(45.066657, 24.449559) scale(-1, 1) translate(-45.066657, -24.449559) translate(42.066657, 21.449559)" fill="#03ACF2">
                            <path d="M2.54272228,0.0343774122 C3.93661644,0.0343774122 5.06729152,1.1642916 5.06729152,2.56014426 C5.06729152,3.9553483 3.93726476,5.08591112 2.54272228,5.08591112 C1.14882812,5.08591112 0.0175047174,3.9553483 0.0175047174,2.56014426 C0.0175047174,1.1642916 1.14753147,0.0343774122 2.54272228,0.0343774122" id="Path"></path>
                        </g>
                        <g id="Group" transform="translate(34.323947, 24.449559) scale(-1, 1) translate(-34.323947, -24.449559) translate(31.323947, 21.449559)" fill="#03ACF2">
                            <path d="M2.5829183,0.0343774122 C1.18837581,0.0343774122 0.0583490579,1.1642916 0.0583490579,2.56014426 C0.0583490579,3.9553483 1.18837581,5.08591112 2.5829183,5.08591112 C3.9781091,5.08591112 5.10813586,3.9553483 5.10813586,2.56014426 C5.10813586,1.1642916 3.9781091,0.0343774122 2.5829183,0.0343774122" id="Path"></path>
                        </g>
                        <g id="Group" transform="translate(23.509922, 24.449559) scale(-1, 1) translate(-23.509922, -24.449559) translate(20.509922, 21.449559)" fill="#03ACF2">
                            <path d="M2.55828203,0.0343774122 C3.95217619,0.0343774122 5.08285127,1.1642916 5.08285127,2.56014426 C5.08285127,3.9553483 3.95282451,5.08591112 2.55828203,5.08591112 C1.16438787,5.08591112 0.033712789,3.9553483 0.033712789,2.56014426 C0.033712789,1.1642916 1.16309122,0.0343774122 2.55828203,0.0343774122" id="Path"></path>
                        </g>
                        <g id="Group" transform="translate(12.702380, 24.449559) scale(-1, 1) translate(-12.702380, -24.449559) translate(9.702380, 21.449559)" fill="#03ACF2">
                            <path d="M2.53429408,0.0343774122 C3.92818824,0.0343774122 5.05886332,1.1642916 5.05886332,2.56014426 C5.05886332,3.9553483 3.92883657,5.08591112 2.53429408,5.08591112 C1.14039992,5.08591112 0.00972484298,3.9553483 0.00972484298,2.56014426 C0.00972484298,1.1642916 1.14039992,0.0343774122 2.53429408,0.0343774122" id="Path"></path>
                        </g>
                    </g>
                    <g id="Group-6" transform="translate(94.000000, 34.000000)">
                        <g id="Group" fill="#B3E5FC">
                            <path d="M0.0551074436,40.4991861 C0.0551074436,42.9847379 2.06814994,45.0000326 4.55317149,45.0000326 L4.82481877,45.0000326 L1.0632495,56.7622966 L15.1350973,45.0000326 L62.6668882,45.0000326 C65.1512614,45.0000326 67.1656006,42.9847379 67.1656006,40.4991861 L67.1656006,31.7076494 L67.1656006,4.55857459 C67.1656006,2.07367145 65.1512614,0.0583767377 62.6668882,0.0583767377 L4.55317149,0.0583767377 C2.06944659,0.0583767377 0.0551074436,2.07237419 0.0551074436,4.55857459 L0.0551074436,40.4991861 Z" id="Path"></path>
                        </g>
                        <g id="Group" transform="translate(11.742862, 23.297592) scale(-1, 1) translate(-11.742862, -23.297592) translate(8.742862, 20.297592)" fill="#B3E5FC">
                            <path d="M2.54012899,0.0389178251 C1.14623483,0.0389178251 0.0149114259,1.16948065 0.0149114259,2.56468468 C0.0149114259,3.95988871 1.14493818,5.09045153 2.54012899,5.09045153 C3.93467147,5.09045153 5.06469823,3.95988871 5.06469823,2.56468468 C5.06469823,1.16948065 3.93402315,0.0389178251 2.54012899,0.0389178251" id="Path"></path>
                        </g>
                        <g id="Group" transform="translate(22.550404, 23.297592) scale(-1, 1) translate(-22.550404, -23.297592) translate(19.550404, 20.297592)" fill="#B3E5FC">
                            <path d="M2.56476526,0.0389178251 C1.1708711,0.0389178251 0.0401960177,1.16948065 0.0401960177,2.56468468 C0.0401960177,3.95988871 1.17022277,5.09045153 2.56476526,5.09045153 C3.95865942,5.09045153 5.08998282,3.95988871 5.08998282,2.56468468 C5.08998282,1.16948065 3.95865942,0.0389178251 2.56476526,0.0389178251" id="Path"></path>
                        </g>
                        <g id="Group" transform="translate(33.299597, 23.297592) scale(-1, 1) translate(-33.299597, -23.297592) translate(30.299597, 20.297592)" fill="#B3E5FC">
                            <path d="M2.52521756,0.0389178251 C1.1313234,0.0389178251 0.000648322866,1.16948065 0.000648322866,2.56468468 C0.000648322866,3.95988871 1.13002675,5.09045153 2.52521756,5.09045153 C3.91911172,5.09045153 5.0497868,3.95988871 5.0497868,2.56468468 C5.0497868,1.16948065 3.91976005,0.0389178251 2.52521756,0.0389178251" id="Path"></path>
                        </g>
                        <g id="Group" transform="translate(44.107139, 23.297592) scale(-1, 1) translate(-44.107139, -23.297592) translate(41.107139, 20.297592)" fill="#B3E5FC">
                            <path d="M2.54920551,0.0389178251 C1.15531135,0.0389178251 0.0246362689,1.16948065 0.0246362689,2.56468468 C0.0246362689,3.95988871 1.1540147,5.09045153 2.54920551,5.09045153 C3.94374799,5.09045153 5.07377475,3.95988871 5.07377475,2.56468468 C5.07377475,1.16948065 3.94309967,0.0389178251 2.54920551,0.0389178251" id="Path"></path>
                        </g>
                        <g id="Group" transform="translate(54.921165, 23.297592) scale(-1, 1) translate(-54.921165, -23.297592) translate(51.921165, 20.297592)" fill="#B3E5FC">
                            <path d="M2.57384178,0.0389178251 C1.17994762,0.0389178251 0.0492725378,1.16948065 0.0492725378,2.56468468 C0.0492725378,3.95988871 1.17929929,5.09045153 2.57384178,5.09045153 C3.96773594,5.09045153 5.09905934,3.95988871 5.09905934,2.56468468 C5.09905934,1.16948065 3.96903258,0.0389178251 2.57384178,0.0389178251" id="Path"></path>
                        </g>
                        <g id="Group" transform="translate(52.773481, 20.297592)" fill="#4CAF50">
                            <path d="M2.57384178,5.09045153 C3.96773594,5.09045153 5.09905934,3.95988871 5.09905934,2.56468468 C5.09905934,1.16948065 3.96903258,0.0389178251 2.57384178,0.0389178251 C1.17994762,0.0389178251 0.0492725378,1.16948065 0.0492725378,2.56468468 C0.0492725378,3.95988871 1.17929929,5.09045153 2.57384178,5.09045153" id="Path"></path>
                        </g>
                        <g id="Group" transform="translate(44.107139, 23.297592) scale(-1, 1) translate(-44.107139, -23.297592) translate(41.107139, 20.297592)" fill="#4CAF50">
                            <path d="M2.54920551,0.0389178251 C1.1540147,0.0389178251 0.0246362689,1.16948065 0.0246362689,2.56468468 C0.0246362689,3.95988871 1.1540147,5.09045153 2.54920551,5.09045153 C3.94374799,5.09045153 5.07377475,3.95988871 5.07377475,2.56468468 C5.07377475,1.16948065 3.94374799,0.0389178251 2.54920551,0.0389178251" id="Path"></path>
                        </g>
                        <g id="Group" transform="translate(31.249162, 20.297592)" fill="#4CAF50">
                            <path d="M2.52521756,5.09045153 C3.91911172,5.09045153 5.0497868,3.95988871 5.0497868,2.56468468 C5.0497868,1.16948065 3.91976005,0.0389178251 2.52521756,0.0389178251 C1.1313234,0.0389178251 0.000648322866,1.16948065 0.000648322866,2.56468468 C0.000648322866,3.95988871 1.13002675,5.09045153 2.52521756,5.09045153" id="Path"></path>
                        </g>
                        <g id="Group" transform="translate(20.422170, 20.297592)" fill="#4CAF50">
                            <path d="M2.56476526,5.09045153 C3.95865942,5.09045153 5.08998282,3.95988871 5.08998282,2.56468468 C5.08998282,1.16948065 3.95995606,0.0389178251 2.56476526,0.0389178251 C1.1708711,0.0389178251 0.0401960177,1.16948065 0.0401960177,2.56468468 C0.0401960177,3.95988871 1.1708711,5.09045153 2.56476526,5.09045153" id="Path"></path>
                        </g>
                        <g id="Group" transform="translate(11.742862, 23.297592) scale(-1, 1) translate(-11.742862, -23.297592) translate(8.742862, 20.297592)" fill="#4CAF50">
                            <path d="M2.54012899,0.0389178251 C1.14493818,0.0389178251 0.0149114259,1.16948065 0.0149114259,2.56468468 C0.0149114259,3.95988871 1.14493818,5.09045153 2.54012899,5.09045153 C3.93467147,5.09045153 5.06469823,3.95988871 5.06469823,2.56468468 C5.06469823,1.16948065 3.93467147,0.0389178251 2.54012899,0.0389178251" id="Path"></path>
                        </g>
                    </g>
                    <g id="Group" transform="translate(0.000000, 362.000000)" fill="#B2EBF2">
                        <path d="M426.472493,0.0477743127 L400.014897,0.0477743127 L397.820948,1.08792391 L398.400359,0.0477743127 L366.910351,0.0477743127 L366.877799,0.322930164 L365.321853,0.322930164 L365.295812,0.0477743127 L353.193285,0.0477743127 L352.867773,0.322930164 L343.211141,0.322930164 L343.625192,0.0477743127 L3.00903075,0.0477743127 C1.36324327,0.0477743127 0.0292960588,1.28748749 0.0292960588,2.81566076 C0.0292960588,4.34383402 1.36389429,5.5835472 3.00903075,5.5835472 L426.472493,5.5835472 C428.119583,5.5835472 429.447671,4.34383402 429.447671,2.81566076 C429.447671,1.28748749 428.113073,0.0477743127 426.472493,0.0477743127" id="Path"></path>
                    </g>
                    <g id="Group-2" transform="translate(7.000000, 57.000000)">
                        <g id="Group" transform="translate(44.748102, 0.000000)" fill="#424242">
                            <path d="M5.03481191,33.8618037 C4.04033737,33.3461351 3.35675808,32.3082952 3.35675808,31.1163399 L3.35675808,28.9593756 C3.35675808,27.2582545 4.74863219,25.8679652 6.44879991,25.8679652 C8.14896763,25.8679652 9.54084174,27.2595551 9.54084174,28.9593756 L9.54084174,30.1818938 L11.2637738,30.1818938 L13.2696335,20.026539 L15.8003728,18.7246872 L16.6537087,13.8599751 L30.2713107,13.8599751 L30.2713107,21.0461713 C33.2586368,19.1792299 35.5031964,16.096273 36.1971822,12.632905 C36.5197848,11.0247733 36.4592968,9.38607866 36.0983201,7.80785967 C36.045637,7.57896265 35.9890515,7.35136617 35.9233602,7.12572052 C35.1194554,4.33928938 33.3633525,1.79280995 31.0199308,0.0286121284 C30.4768398,1.05019517 29.3087062,1.6152847 28.1581336,1.74468956 C27.0082114,1.87344413 25.8524356,1.63869463 24.7148712,1.42475394 C20.0527433,0.54948292 15.123948,0.0526723273 10.6549914,1.64324656 C6.18603489,3.23382078 3.51740897,7.26878116 3.74114948,12.0066895 C1.9518758,12.7193916 0.757725859,14.5076496 0.309594428,16.3810938 C-0.137886594,18.2551882 0.0559351278,20.2190206 0.352521387,22.1210769 C1.20065402,27.5742885 2.88651276,32.8935432 5.3105851,37.8512448 L5.39578861,36.8322628 C5.16814565,35.8783085 5.03481191,34.8859878 5.03481191,33.8618037" id="Path"></path>
                        </g>
                        <g id="Group" transform="translate(45.268429, 287.788591)" fill="#03ACF2">
                            <path d="M38.4072702,15.1735319 L37.6391378,13.6401819 C36.5542564,11.4702121 34.5288845,9.92320635 32.1490399,9.44785485 L26.6426819,8.34693818 C23.7873887,7.77534589 20.4462404,6.86886164 18.7304629,4.51746491 L15.5031361,0.0208088206 L14.8195568,0.565739811 L12.2608499,2.60500424 C11.3795465,3.30730193 10.3011692,3.71762586 9.1759626,3.7807026 L4.38765549,4.04731562 L3.30602622,4.10779125 C3.30602622,4.10779125 0.521627587,10.1826663 0.0279675639,14.9498371 C-0.0318700147,15.5350852 0.324553823,16.0533549 0.847482227,16.2289293 L38.0183259,16.2289293 C38.4079206,16.0598576 38.6147505,15.5897083 38.4072702,15.1735319" id="Path"></path>
                        </g>
                        <g id="Group" transform="translate(9.691086, 270.844358)" fill="#03ACF2">
                            <path d="M14.651101,3.63309003 L10.8455611,0.717254037 L9.98572113,0.0585248081 C9.98572113,0.0585248081 3.91480854,2.85275926 0.433172036,6.14770595 C-0.0917075933,6.64516682 -0.0832522833,7.48077102 0.46569246,7.95222087 L28.1438246,31.7197957 C28.5808991,32.0950047 29.2605759,31.8791132 29.4004138,31.3198762 L29.8186264,29.6564711 C30.4098477,27.3031235 29.8810656,24.8099667 28.3857766,22.9001071 L24.9269043,18.4782327 C23.1337282,16.1853608 21.1890069,13.3202463 21.4205523,10.4187164 L21.9031554,4.90372864 L21.0290064,4.87121486 L17.7594031,4.75156414 C16.6315948,4.70864595 15.5454127,4.31848056 14.651101,3.63309003" id="Path"></path>
                        </g>
                        <g id="Group" transform="translate(39.414753, 147.011717)" fill="#00838F">
                            <path d="M21.9285213,139.184349 C22.8521013,125.241138 23.8647873,111.641924 25.9532489,98.0810756 C26.7389423,92.9868162 27.6696768,87.897759 28.8137453,82.7976471 C34.4944128,57.4479516 34.908723,26.377131 35.5532778,0.0253607502 C26.3077215,4.98826448 10.1723884,6.75571368 0.0526830855,3.1213231 C0.0513822686,3.13042696 0.0507318601,3.13888054 0.0507318601,3.1479844 C0.19447213,3.54010061 0.341464443,3.93676876 0.476749403,4.31783028 C0.466993276,4.32238221 0.456586741,4.32498332 0.445529797,4.33018552 C1.74894836,6.85975778 2.55480444,9.59741825 2.83643131,12.3981555 C3.87123117,15.3575599 3.19220474,19.1259073 1.83155023,21.8616169 C1.80033063,21.9246937 1.75545244,21.9689124 1.70732222,22.0053278 C6.09107526,43.7720045 16.679725,65.755223 9.7138504,85.8214288 C9.67092344,85.9449812 9.63840301,86.0698341 9.59482565,86.1933865 C6.16652264,95.7595915 4.74668096,106.364287 5.07058438,116.891599 C5.30473142,124.504376 6.44619828,132.076836 8.42669205,139.184349 L9.72880979,139.184349 L21.9285213,139.184349 L21.9285213,139.184349 Z" id="Path"></path>
                        </g>
                        <g id="Group" transform="translate(22.829337, 232.822091)" fill="#00838F">
                            <path d="M26.1802415,0.381711804 C26.2244692,0.258159431 26.2563392,0.133956783 26.2992662,0.0104044103 C15.1480131,8.73125109 5.91286334,20.6618584 0.0052032677,33.2785064 L0.992523315,34.1264659 L9.42506904,41.3679355 L10.2471853,42.0734845 C13.3938615,38.866325 17.3847678,35.049207 21.6553498,31.081225 C21.3320968,20.5532623 22.7525889,9.94726655 26.1802415,0.381711804" id="Path"></path>
                        </g>
                        <g id="Group" transform="translate(65.366051, 142.887018)" fill="#00838F">
                            <path d="M10.9392199,79.8271879 L12.4000373,50.4932536 L12.4462163,49.5536053 L14.9125652,0.0305629553 C13.6663826,1.56911513 11.8322308,2.95160115 9.60132973,4.14940889 C8.95742535,30.5018294 8.54311516,61.5739506 2.86114683,86.9223455 C1.71837916,92.0224574 0.786343832,97.1115146 0.00130081693,102.205774 C0.0832522833,102.132943 0.171057426,102.056211 0.253008892,101.98468 C6.66408511,96.3467904 10.5145032,88.3523017 10.9392199,79.8271879" id="Path"></path>
                        </g>
                        <g id="Group" transform="translate(0.000000, 46.769775)" fill="url(#linearGradient-1)">
                            <path d="M21.3542107,59.067138 C23.9174704,55.276031 26.5054457,51.322355 29.1005755,47.3309631 C29.8316346,62.2964068 31.7327785,77.1604075 34.8670969,91.8124184 C36.5906793,95.9403682 38.1711719,99.8634811 39.453127,103.358062 C39.4576798,103.360013 39.4622327,103.361964 39.4674359,103.363265 C49.5864908,106.998306 65.7211736,105.230206 74.9680307,100.266652 C77.2002325,99.0694946 79.0330836,97.6870085 80.2792662,96.1478061 C77.111777,79.7029853 74.9114451,63.1918364 74.2024999,46.5857472 L80.1205665,54.0222995 C82.5205737,57.0376277 86.3781463,58.8089785 90.4750693,58.7868692 C90.530354,58.7868692 90.5862891,58.7855686 90.6422242,58.7855686 C94.0041856,58.7641095 97.1053331,57.5383399 99.383714,55.5270374 C99.6263163,55.3124464 99.8585121,55.0881013 100.082253,54.8559529 C101.539168,53.3447123 102.573317,51.4784212 102.983074,49.3884353 C103.264701,47.9519764 103.47023,46.516818 103.559336,45.0901132 C103.600962,44.4203293 103.400637,43.796715 103.046164,43.2829972 C99.2497298,47.5351497 94.7072771,48.4611422 90.7892165,47.5741662 C87.4077429,46.8087918 85.2282242,43.5014898 85.8597708,40.0933952 C86.3475771,37.4604291 86.917335,34.8437199 87.5378246,32.2387157 C83.1410634,25.6455709 78.592757,18.9594367 74.4724194,12.5392653 C72.4262344,9.35291461 69.2268752,7.45410972 65.8532065,5.39988896 C65.0525537,4.91218222 64.2024698,4.47584727 63.3224671,4.09738684 L62.7338475,11.0741942 L60.9380697,10.92268 C57.4889536,7.23561711 53.6476413,3.96928254 49.1513676,1.84093035 L49.2912054,0.185978835 C44.7793219,-0.203536277 40.2219098,0.190530764 35.8446608,1.45401634 C35.0719756,1.67641061 34.3519734,2.03146112 33.6918088,2.48470324 C31.327574,3.11221924 29.185779,4.67938354 27.9233361,7.00867091 L0.0396749162,58.4857915 C2.25886859,63.5995592 4.7726973,68.5813209 7.53693327,73.4206723 C13.4842683,72.3496683 19.795832,71.2461505 24.9665793,68.3862382 C23.6046239,65.0542258 22.3623438,61.8919354 21.3542107,59.067138 Z" id="Path"></path>
                        </g>
                        <path d="M20.5366472,271.560416 L24.3421871,274.476902 C25.2371492,275.162293 26.3226809,275.552458 27.448538,275.594076 L30.7181413,275.713726 L32.2550565,274.18883 L23.8231612,266.94736 L20.5366472,271.560416 Z M57.529279,290.392398 L60.0879859,288.353134 L60.2596937,286.194219 L49.1442131,286.194219 L49.6573853,291.83406 L54.445042,291.567447 C55.5695983,291.50567 56.6473251,291.094696 57.529279,290.392398 Z M351.110001,279.976283 L344.560387,294.885803 L348.840075,295.976315 L358.407584,290.296158 L359.467749,282.343286 L358.401079,280.720198 L359.305147,272.074133 L350.26447,272.074133 L351.110001,279.976283 Z M392.976793,276.764572 L393.932894,293.021463 L398.238598,292.044099 L404.176827,282.63396 L401.497144,275.069953 L399.812586,274.108846 L396.365421,265.181212 L388.352389,269.686972 L392.976793,276.764572 Z M330.417906,68.4572223 L331.027338,68.2686424 C331.587991,67.2620157 331.877422,66.2748973 331.973032,65.2994838 L322.359995,65.2994838 C322.73398,67.0571789 323.288779,68.779759 324.07057,70.4204045 L324.144066,70.3976449 C323.22699,78.7458836 323.22699,88.1469186 322.471866,97.735233 C322.163572,101.651843 323.187965,105.60747 325.632851,108.683274 C326.933668,110.319367 328.300176,111.217398 330.50441,111.039873 C331.638722,110.948834 332.694335,110.044301 333.574988,108.755454 L344.235183,99.511786 C342.563633,94.9897692 340.449806,91.0451971 341.627045,86.1141569 L334.209787,93.0259368 C332.203927,84.9267536 331.163274,78.7744957 330.417906,68.4572223 Z M330.432865,52.2146373 C330.518069,51.79651 329.836441,51.5461539 329.609448,51.9675325 C329.249772,52.6334148 328.942129,53.3727782 328.676762,54.1401034 L330.081645,54.1401034 C330.18636,53.4963306 330.301483,52.8538582 330.432865,52.2146373 Z M326.294316,51.2262183 C326.37952,50.808091 325.697892,50.5583852 325.470899,50.9791135 C324.959028,51.928516 324.531709,53.0086238 324.222115,54.1401034 L325.796103,54.1401034 C325.919681,53.1653403 326.096592,52.1931782 326.294316,51.2262183 Z M328.248143,51.5481047 C328.333997,51.1306278 327.651719,50.8802716 327.425376,51.301 C326.961635,52.1606644 326.566187,53.126974 326.266349,54.1401034 L327.794158,54.1401034 C327.913833,53.273286 328.071882,52.4084194 328.248143,51.5481047 Z M324.053009,52.6808849 C324.138862,52.2627577 323.456584,52.0130518 323.230242,52.4337802 C322.944062,52.9644051 322.693004,53.5431504 322.464061,54.1401034 L323.775284,54.1401034 C323.859837,53.6523967 323.953496,53.1653403 324.053009,52.6808849 Z M361.69865,71.1643198 L363.162069,71.0102045 C365.978338,67.2457588 369.113307,63.9111453 372.788115,61.7392246 L372.755594,61.2495671 L371.955592,49.4405614 L371.838518,49.4529166 C372.033641,48.5581373 372.14421,47.6321448 372.14421,46.6788407 L369.718187,44.7501231 C365.301913,43.8351853 361.048242,42.0859438 357.184816,39.4659832 C352.775046,36.4721142 348.696985,32.5190885 346.381531,27.8520602 L348.404301,50.331439 C348.404301,55.5232397 352.644965,59.720769 355.786437,59.720769 L359.103521,59.720769 C359.721409,59.720769 360.319784,59.6628945 360.91816,59.5790089 L361.145803,62.9773495 L361.34743,65.925049 L361.69865,71.1643198 Z M373.191368,82.8036036 C373.926329,94.984567 374.91495,103.066843 375.649912,115.248457 C368.105174,118.321659 355.83847,125.630107 347.253078,129.631253 C345.900229,129.138344 344.501851,128.77419 343.08396,128.542692 C342.576642,128.460107 342.075827,128.37362 341.562004,128.3255 C338.537605,127.285059 334.691089,127.998411 331.90539,129.401056 C331.478072,129.615647 331.708316,130.304939 332.12913,130.230808 C333.997754,129.901768 335.887191,129.641008 337.763619,129.723593 C337.79744,129.725543 337.830611,129.728795 337.864432,129.730746 C337.796139,129.838041 337.728497,129.945337 337.668009,130.051982 C335.174343,129.878358 332.482302,130.545541 330.389288,131.598987 C329.961969,131.813578 330.192214,132.502871 330.613028,132.428739 C332.481652,132.0997 334.370438,131.838939 336.247517,131.921524 C336.480363,131.931278 336.711908,131.952087 336.942153,131.978098 C336.941503,131.982 336.940202,131.985251 336.940202,131.989803 C334.742472,132.025568 332.473847,132.645281 330.656606,133.560219 C330.229287,133.77481 330.459532,134.464102 330.880346,134.38932 C332.74897,134.060931 334.638406,133.79952 336.514835,133.882105 C336.616949,133.887307 336.718413,133.898362 336.820527,133.905515 C336.82638,134.009559 336.832884,134.114904 336.84199,134.221549 C334.869301,134.362009 332.885555,134.944005 331.261486,135.761402 C330.834167,135.975993 331.064412,136.665285 331.485226,136.591154 C333.35385,136.262114 335.243286,136.001354 337.119715,136.083939 C338.511589,136.892882 339.870942,137.609485 341.243304,138.053624 C342.628674,138.501013 344.020548,138.671385 345.457951,138.378761 C346.661207,138.133607 347.643323,137.270041 348.040073,136.109299 L348.079097,135.99225 C360.287264,132.390373 370.036887,130.846619 379.630412,126.855877 C382.362127,125.718545 385.087339,124.393933 387.851575,122.752638 C386.836937,106.762359 388.222308,95.7356354 387.311736,79.9599482 C387.285719,79.6120507 387.272711,79.275208 387.253199,78.9221083 C382.58977,76.0368353 377.97187,77.5805896 373.191368,82.8036036 Z M102.872505,53.2973462 L102.891367,53.2901932 C103.402588,52.1840743 103.61332,51.1228245 103.603564,50.090837 L93.9378439,50.090837 C94.3040239,51.5819191 94.8347572,53.0307332 95.5007754,54.4255745 C92.2025541,62.3940522 89.5326274,70.62199 87.5358734,79.0092452 C86.9153837,81.6142495 86.3469267,84.2309587 85.8578196,86.8639247 C85.226273,90.2720194 87.4057917,93.5793213 90.7872653,94.3446958 C94.7053259,95.2316717 99.2490794,94.305029 103.044863,90.0535268 C103.080636,90.0132097 103.11901,89.9767943 103.155433,89.9351766 C103.426653,77.9837605 103.113156,63.8227078 102.872505,53.2973462 Z M95.0078519,38.7478328 C95.0639106,38.1603917 94.3365323,37.8860071 94.1330602,38.4918632 C94.0507024,38.735863 93.9808021,39.0019609 93.9046731,39.2570097 L94.9621745,39.2570097 C94.9794765,39.087591 94.991934,38.9163308 95.0078519,38.7478328 Z M101.139817,37.6517142 C101.1925,37.2368383 100.508921,37.0437065 100.317701,37.4709376 C100.110871,37.9313327 99.9320083,38.4248919 99.7700566,38.9321069 L100.990873,38.9321069 C101.034451,38.5048758 101.085183,38.0776447 101.139817,37.6517142 Z M97.0246825,36.9877827 C97.0773656,36.5722566 96.3937863,36.3791247 96.2025662,36.8063558 C95.9079311,37.4663856 95.6594751,38.1849402 95.4578485,38.9308064 L96.8191534,38.9308064 C96.8750885,38.2824816 96.9420806,37.6341567 97.0246825,36.9877827 Z M98.9563956,37.1607561 C99.0090787,36.7452299 98.3254994,36.5520981 98.1342793,36.9793292 C97.8617582,37.5879872 97.6282615,38.2473667 97.436391,38.9321069 L98.7651755,38.9321069 C98.818509,38.3403561 98.8809482,37.7492555 98.9563956,37.1607561 Z M60.9380697,57.6945101 L62.7338475,57.8460243 L63.3224671,50.8692169 L63.678891,46.6359225 L65.8089787,46.6359225 C70.8958233,46.6359225 75.0194129,42.5131749 75.0194129,37.4273691 L75.0194129,21.0469256 L75.0194129,13.8600791 L61.401811,13.8600791 L60.5484751,18.7254415 L58.0177357,20.0266431 L56.011876,30.1819978 L54.288944,30.1819978 L54.288944,28.9594796 C54.288944,27.2583585 52.8970699,25.8680692 51.1969022,25.8680692 C49.4967344,25.8680692 48.1048603,27.2596591 48.1048603,28.9594796 L48.1048603,31.1164439 C48.1048603,32.3083992 48.78909,33.3455889 49.7822638,33.8619077 C49.7822638,34.8867421 49.9162479,35.8784125 50.1438909,36.8336674 L50.0586874,37.8526494 L49.2912054,46.9584592 L49.1513676,48.6134107 C53.6476413,50.7404624 57.4889536,54.0074472 60.9380697,57.6945101 Z M42.2518346,159.408676 C41.9702077,156.607939 41.1637012,153.870278 39.8609331,151.340706 C39.8713396,151.336154 39.8817461,151.332902 39.8928031,151.328351 C39.7568677,150.94859 39.609225,150.550621 39.4661351,150.158505 C39.4622327,150.14745 39.4589806,150.137696 39.4544278,150.127291 C38.1718223,146.63271 36.5913297,142.709597 34.8677473,138.580997 C31.6677377,130.917499 28.0020356,122.585517 24.9678801,115.158068 C19.795832,118.01733 13.4842683,119.120848 7.53758368,120.192502 C14.5203689,132.414433 23.1551917,143.696716 33.0596118,153.70966 C31.2839967,157.264717 32.7018871,160.460171 34.6719743,163.801288 C34.7630315,165.638967 34.5165267,167.490301 34.2036803,169.321478 C34.1327857,169.733752 34.8092105,169.956147 35.0173412,169.536069 C35.8101892,167.942243 36.3701908,165.995968 36.4983213,164.063349 C36.6023867,164.071802 36.7058016,164.077655 36.8079157,164.082857 C36.8163711,164.182349 36.827428,164.281841 36.8319809,164.381984 C36.923038,166.219663 36.6765332,168.070347 36.3636868,169.902174 C36.2934426,170.314449 36.969217,170.536843 37.1779982,170.116765 C38.0651553,168.332408 38.660279,166.108466 38.6836937,163.954753 C38.6875962,163.954102 38.6914986,163.952802 38.6947507,163.952802 C38.720767,164.179098 38.7422305,164.405394 38.7532875,164.634291 C38.8443446,166.47132 38.5984902,168.322654 38.2849934,170.15383 C38.2147492,170.566105 38.891174,170.7885 39.0993048,170.368421 C39.7874369,168.983985 40.2947555,167.334235 40.5022358,165.658475 C40.6023987,164.846931 40.6381712,164.028884 40.5783336,163.232297 C40.6836998,163.171821 40.7877651,163.106143 40.8924809,163.037864 C40.8944321,163.070378 40.898985,163.104192 40.9009362,163.136706 C40.9620746,164.37223 40.8638629,165.612956 40.703212,166.851731 C40.6238622,167.454536 40.5354066,168.057342 40.4332925,168.657546 C40.3741053,169.007395 40.8489035,169.215483 41.1227255,169.015848 C41.1721565,168.980733 41.2157339,168.935864 41.2476039,168.872137 C42.6069576,166.136428 43.285984,162.36808 42.2518346,159.408676" id="Shape" fill="#FFF3E0"></path>
                        <g id="Group-" transform="translate(314.992819, 12.489194)">
                            <g id="Group" transform="translate(23.479746, 0.000000)" fill="#212121">
                                <path d="M1.19675157,12.5958392 C-0.908620623,18.6700641 -0.188618454,25.6618278 3.10895245,31.1807172 C4.93009615,34.2266083 7.57725859,37.0767665 7.72685254,40.6227196 C7.87644649,44.1146998 5.56099236,47.1501865 3.80488951,50.173318 C3.77887317,50.2214384 3.75285683,50.2695588 3.72684049,50.3183294 C3.69432007,50.3749034 3.66830373,50.4314774 3.63578331,50.4880514 L22.673239,50.4880514 L22.4455961,47.0897109 C21.8472203,47.1735964 21.2423404,47.2314709 20.6244524,47.2314709 L17.3073692,47.2314709 C14.1724004,47.2314709 9.93173723,43.0339417 9.93173723,37.8421409 L7.90896691,15.3634124 C10.224421,20.0304407 14.295978,23.9828161 18.7122515,26.9766851 C22.5756778,29.5966457 26.8293491,31.3458872 31.2456226,32.260825 L33.6716461,34.1895426 C33.6716461,35.1428467 33.5610767,36.0688392 33.3659542,36.9636185 L33.4830277,36.9512633 L34.2830301,48.760269 C36.6179965,48.3499451 39.0505241,48.2699612 41.2293925,49.1523852 C42.0554112,49.4859766 42.7968769,49.9437707 43.4733017,50.4880514 L51.492838,50.4880514 C51.79853,47.2477278 52.5725161,43.9983004 52.9172326,40.7482228 C54.5887823,25.2053343 50.3611273,4.17476964 32.3903415,0.806992076 C23.9350314,-0.77642912 12.682965,-0.285471008 5.93172518,5.58001531 C5.78213124,5.70942017 5.63253729,5.83492337 5.48944743,5.96953042 C3.62277514,7.7083675 2.13333976,9.89134284 1.19675157,12.5958392" id="Path"></path>
                            </g>
                            <g id="Group" transform="translate(0.000000, 41.628696)" fill="#00BCD4">
                                <polygon id="Path" points="21.5759999 11.1814897 21.5759999 0.0221093719 0.0149593947 0.0221093719 0.0149593947 11.1814897"></polygon>
                            </g>
                            <g id="Group" transform="translate(22.243969, 48.429929)" fill="url(#linearGradient-2)">
                                <path d="M10.8032846,75.1920231 C10.4065354,76.3521149 9.41791454,77.2163312 8.22116297,77.4614851 C6.78376027,77.7554097 5.39188616,77.5843872 4.00651613,77.1363473 C2.88781358,82.40358 1.59350073,87.7481956 0.0390245078,93.1695436 C4.63741234,95.1294744 10.1788924,96.2154348 16.0065523,96.5548786 C27.5968311,97.2279139 40.3318288,94.8849708 49.112343,90.2016856 C47.2911993,79.3843502 44.2863122,71.8769179 42.3936236,65.9386007 C32.7935947,69.9286921 23.0504759,71.473747 10.8423091,75.0749735 L10.8032846,75.1920231 Z M35.5188062,0.329689752 L35.5513266,0.819347313 C31.8830229,2.99126797 28.74155,6.32588148 25.9252813,10.0903272 L24.4618623,10.2444425 L24.1106417,5.00517164 C18.7122515,8.14145108 13.3398776,12.253144 10.2829578,15.5240305 C6.79026435,19.2605143 5.06017784,22.3863894 4.39025713,25.1936293 C3.21952189,30.123369 5.32684531,34.0685913 7.00489915,38.5912584 C8.17563438,41.7613522 9.13173482,45.2162667 8.58539171,49.496381 C7.82441381,55.4021844 6.9398583,61.4549501 5.84717208,67.6228146 C7.27156662,67.8543128 8.66344073,68.2184671 10.0162903,68.7120263 C18.601682,64.7108803 30.8683857,57.4024323 38.4196279,54.3285793 C37.6781623,42.1469657 36.6895414,34.06534 35.9545798,21.8837263 C40.735082,16.6607123 45.3529821,15.1169579 50.0164108,18.0041818 C50.0359231,18.3572815 50.0554353,18.693474 50.0749476,19.0420217 C50.335111,15.815354 50.1919348,12.6498121 49.3334819,9.71967007 C48.4814468,6.82399262 47.0050196,3.91010746 44.7155818,2.05682187 C44.039157,1.5112406 43.2976914,1.05344655 42.4716726,0.721155691 C40.2863002,-0.160618084 37.8537725,-0.08063418 35.5188062,0.329689752 Z" id="Shape"></path>
                            </g>
                            <g id="Group" transform="translate(75.902668, 262.572852)" fill="#4CAF50">
                                <path d="M13.2813408,7.57180961 L7.34961563,16.9825988 L3.03740752,17.959963 L2.49106441,25.3373402 L0.624392125,28.9548237 L0.0455285924,30.0732978 L2.23740511,28.9548237 L8.6309203,25.685888 L14.13988,11.2868344 L19.7138805,20.0245882 L21.0992505,19.3190391 L15.7333807,4.35684682 L15.7268766,4.37440427 C15.3756561,3.27999035 14.6211822,2.29937468 13.528496,1.67380951 L10.6016579,0.00845358339 L13.2813408,7.57180961 Z" id="Path"></path>
                            </g>
                            <g id="Group" transform="translate(21.333398, 269.802617)" fill="#4CAF50">
                                <path d="M25.7171506,6.27060805 C25.9057691,5.13652732 25.6781261,3.91921131 24.9886932,2.86381394 L23.1415331,0.051371776 L22.0813673,8.00424292 L12.5138588,13.6844007 L8.23417114,12.5938884 L4.39025713,18.9165185 L0.470245319,21.7237585 L0.0565855363,22.0202842 L9.70409427,22.0202842 L10.0292985,21.7237585 L21.1577873,11.7043113 L22.1203918,21.7237585 L22.1464082,22.0202842 L23.7008844,22.0202842 L23.7399089,21.7237585 L25.7301588,6.25695226 L25.7171506,6.27060805 Z" id="Path"></path>
                            </g>
                            <g id="Group" transform="translate(22.243969, 141.563707)" fill="#357A38">
                                <path d="M4.25367135,36.894039 L5.86668434,50.9751078 L13.0276815,118.021128 L22.0683592,118.021128 L26.2699978,77.6149502 L14.5041087,59.6133695 L16.0065523,3.42044989 C10.1788924,3.08230656 4.63741234,1.99634623 0.0403253247,0.0351148848 L4.15611008,36.0194183 L4.25367135,36.894039 Z" id="Path"></path>
                            </g>
                            <g id="Group" transform="translate(36.748078, 138.611456)" fill="#357A38">
                                <path d="M1.50244355,6.37205105 L0,62.5649707 L11.7658891,80.5665514 L36.6114924,118.584917 L44.6180206,114.079807 L27.434229,69.6139587 L18.0358267,60.4912416 L32.2667639,31.3023187 C36.73507,22.135383 37.7432031,11.6613931 35.0960407,1.81166795 L34.6147384,0.0175574424 C25.8277201,4.70279347 13.0992264,7.04508634 1.50244355,6.37205105" id="Path"></path>
                            </g>
                        </g>
                        <g id="Group" transform="translate(86.504326, 38.917047)" fill="#4CAF50">
                            <polygon id="Path" points="21.5929106 11.1736864 21.5929106 0.0149563398 0.0318700147 0.0149563398 0.0318700147 11.1736864"></polygon>
                        </g>
                    </g>
                    <g id="Group-4" transform="translate(138.000000, 302.000000)">
                        <g id="Group" transform="translate(137.143134, 32.956255)" fill="#357A38">
                            <path d="M14.2507908,7.99904999 C14.2293317,7.90775896 14.2020201,7.81777209 14.1799107,7.72648107 C11.7218688,10.5375925 9.59156577,13.5586734 8.35279066,17.0622925 C7.98473465,18.101706 6.3252312,17.6511196 6.69523804,16.6038811 C8.14795384,12.4983933 10.7210946,9.04694053 13.6310781,5.82762776 C12.9437367,3.78010049 11.986531,1.8316892 10.8108326,0.0221706774 C8.26955538,5.20815295 6.05991874,10.4880346 3.97643557,15.8774654 C2.60435396,19.4260779 1.2868955,22.9949049 0.00390165387,26.5761214 L4.61045433,26.5761214 C7.74413266,22.2032813 11.3291023,18.0867082 14.8926128,14.0777281 C14.9218752,12.039982 14.7176887,9.99832342 14.2507908,7.99904999" id="Path"></path>
                        </g>
                        <g id="Group" transform="translate(128.104302, 24.782448)" fill="#357A38">
                            <path d="M14.6637158,8.06751825 C15.3198439,6.76988155 16.0026334,5.48789473 16.6925758,4.20982039 C16.310864,3.80879196 15.916797,3.42145718 15.5123255,3.04520775 C14.270299,5.05556652 13.0250212,7.06462114 11.7043113,9.02476985 C11.0871998,9.93963634 9.60001935,9.07628408 10.2203823,8.15489681 C11.6022181,6.10541331 12.9008185,4.0037635 14.1987687,1.90146163 C13.3774706,1.22786428 12.519757,0.599260368 11.6301799,0.0221706774 C10.2958143,3.15345282 9.03362926,6.31603474 7.84882704,9.5112206 C4.8354497,17.6406863 1.82467346,26.1118413 0.0559237055,34.7492764 L2.39041327,34.7492764 C3.80086115,31.4543225 5.35632049,28.2506596 6.71539659,25.2087123 C9.28528594,19.4554215 11.821361,13.6936537 14.6637158,8.06751825" id="Path"></path>
                        </g>
                        <g id="Group" transform="translate(123.292262, 20.665874)" fill="#357A38">
                            <path d="M14.966094,3.24213553 C13.5888102,2.46746598 12.1451982,1.82321218 10.6593184,1.30611373 C8.92633378,6.45362336 7.4040385,11.6630805 6.47869625,17.0401218 C6.29141687,18.1317016 4.63581508,17.6654653 4.82244419,16.5817105 C5.75168808,11.1857588 7.2811364,5.95934767 9.02127403,0.793579835 C7.63878801,0.415374162 6.22703958,0.149978112 4.79578288,0.0215185986 C2.28181724,12.9365903 -0.408373105,25.8999157 0.129404853,38.8665016 L3.11677117,38.8665016 C4.88682147,30.0738718 7.93466342,21.4533908 11.0046147,13.1713386 C12.2440401,9.82682671 13.5667008,6.51687499 14.966094,3.24213553" id="Path"></path>
                        </g>
                        <g id="Group" transform="translate(132.331094, 30.327073)" fill="#357A38">
                            <path d="M12.8097799,4.46739149 C13.3631645,3.33016616 13.9347568,2.19228875 14.4959447,1.04723847 C14.2319328,0.699028416 13.9594673,0.357991232 13.6791985,0.0221706774 C12.9047202,1.47761044 12.1438977,2.93891891 11.4071354,4.41587727 C8.87431173,9.49165824 6.57558733,14.6698156 4.27556237,19.8538416 C2.95420226,22.8318852 1.41890146,25.9722965 0.0104044103,29.2046508 L2.99256852,29.2046508 C4.19427791,25.8392724 5.42720054,22.4849793 6.70759328,19.1476403 C8.60314679,14.2061876 10.490897,9.22952258 12.8097799,4.46739149" id="Path"></path>
                        </g>
                        <g id="Group" transform="translate(112.432659, 20.562846)" fill="#357A38">
                            <path d="M13.9718225,0.0365164098 C13.8547729,0.0345601736 13.7377233,0.0280393861 13.6206737,0.0266798617 C11.5788081,0.0221706774 9.55450006,0.299956223 7.59196816,0.816402591 C7.09645812,7.61236729 6.82659372,14.4135486 7.46061248,21.2329882 C7.56400631,22.3382616 5.8446775,22.3271763 5.74193395,21.2329882 C5.12417209,14.5915661 5.3641238,7.96775021 5.83427309,1.34784677 C3.78655508,2.05143974 1.82402319,3.01456005 0.00195082694,4.19938713 C1.18350167,15.9015923 2.88917469,27.5385896 5.53124464,38.968878 L9.29048814,38.968878 C8.78847535,25.9605591 11.4702121,12.9828878 13.9718225,0.0365164098" id="Path"></path>
                        </g>
                        <g id="Group" transform="translate(101.638083, 32.027042)" fill="#357A38">
                            <path d="M1.49433343,3.09476573 C2.69799365,5.37247679 3.89515112,7.65344825 4.99866889,9.98267353 C5.470769,10.980354 3.98944108,11.8528354 3.51539014,10.8525466 C2.59394955,8.90739568 1.60943222,6.99615287 0.612559658,5.09077878 C0.389515112,5.66721639 0.187929661,6.25343518 0.011054686,6.84747892 C3.62138507,13.1472117 6.95599858,19.5969226 10.3237761,26.0303315 C10.5819356,26.5239551 10.8465978,27.0136662 11.1080086,27.5046815 L12.2654992,27.5046815 C9.46606257,18.2771152 6.64711765,9.05737379 3.29819807,0.0221706774 C2.6245125,1.00354919 2.02170698,2.03057322 1.49433343,3.09476573" id="Path"></path>
                        </g>
                        <g id="Group" transform="translate(106.124985, 25.869463)" fill="#357A38">
                            <path d="M2.22849464,2.14338284 C2.81374272,3.93203484 3.404193,5.72003477 4.04406424,7.48977648 C4.42187439,8.53571079 2.76107039,8.98173266 2.38651162,7.94818784 C1.85978835,6.492096 1.36948051,5.02296259 0.885675429,3.55317709 C0.591100562,3.88247686 0.299126797,4.21438494 0.0214590963,4.55737836 C3.60772928,14.1181569 6.58664201,23.8882528 9.55775143,33.6629132 L10.085125,33.6629132 C7.54514831,22.598441 5.8713388,11.3416056 4.70084264,0.0215185986 C3.83532576,0.678161897 3.00882541,1.38697149 2.22849464,2.14338284" id="Path"></path>
                        </g>
                        <g id="Group" transform="translate(100.727697, 41.304167)" fill="#357A38">
                            <path d="M0.341394714,0.0215185986 C0.0754319749,1.5186914 -0.0273115771,3.03216617 0.011054686,4.54107639 C1.2095127,6.95963646 2.67588428,9.26734315 3.82492135,11.6963365 C4.84650438,13.8547171 5.81996703,16.0365726 6.76936947,18.2282093 L10.0721195,18.2282093 C9.78339708,17.6798111 9.49272387,17.1320649 9.20530204,16.5823625 C6.30507266,11.0312162 3.41719852,5.47485316 0.341394714,0.0215185986" id="Path"></path>
                        </g>
                        <g id="Group" transform="translate(54.753209, 19.437358)" fill="#4CAF50">
                            <path d="M21.4805554,12.0125947 C21.4480416,11.874354 21.4083748,11.7393737 21.3745605,11.601133 C17.6796942,15.8285595 14.4764364,20.37094 12.6127464,25.6390842 C12.0600121,27.202117 9.56490447,26.5246072 10.1215404,24.9504891 C12.305166,18.7779117 16.1743061,13.588669 20.5500109,8.74894054 C19.5160727,5.67047678 18.0770127,2.74068697 16.3082629,0.0208665199 C12.4872432,7.81842417 9.16433467,15.7561788 6.03195689,23.8595613 C3.95042455,29.2450797 1.95017666,34.6605937 0.00455192952,40.0963221 L6.86886164,40.0963221 C11.60677,33.4640292 17.0456755,27.2301564 22.4449142,21.1540866 C22.4897832,18.0886644 22.1828531,15.0186777 21.4805554,12.0125947" id="Path"></path>
                        </g>
                        <g id="Group" transform="translate(41.227476, 7.146978)" fill="#4CAF50">
                            <path d="M22.0378416,12.1169273 C23.0236595,10.1652556 24.0504447,8.23771081 25.0889349,6.31668682 C24.5147416,5.71481814 23.9223404,5.13185974 23.3136824,4.56520331 C21.4454405,7.58824038 19.5745975,10.6093212 17.5886557,13.5567171 C16.6613626,14.9319512 14.4244144,13.6343145 15.3582102,12.2486472 C17.4338901,9.1675751 19.3866678,6.00760149 21.3394456,2.84697581 C20.1052224,1.83429751 18.8157258,0.888783332 17.4768082,0.0221706774 C16.3342739,2.70351848 15.2372589,5.40508073 14.1662549,8.11642416 C14.1038285,8.27422722 14.0453037,8.43398651 13.9828772,8.59178957 C13.2389619,10.4854262 12.4982979,12.3803671 11.7914483,14.2890016 C7.24342041,26.5604715 2.69734338,39.3470837 0.0409673657,52.3853982 L3.51929179,52.3853982 C5.65674784,47.3774334 8.02375119,42.5116218 10.0870758,37.8903397 C13.9503634,29.239211 17.7642301,20.5769969 22.0378416,12.1169273" id="Path"></path>
                        </g>
                        <g id="Group" transform="translate(34.009416, 0.955490)" fill="#4CAF50">
                            <path d="M18.5907304,14.4044195 C18.6499055,14.2518331 18.70778,14.0979425 18.7669551,13.9453561 C19.9634623,10.9008004 21.1892319,7.86863424 22.4735263,4.86255121 C20.4043492,3.69924273 18.2330788,2.72960163 15.9987317,1.95167169 C14.7827162,5.56484002 13.6414825,9.20083112 12.6212,12.8713824 C12.576331,13.0324458 12.5295111,13.1935093 12.4846421,13.3558769 C11.3785232,17.3883319 10.4258694,21.4657803 9.71251704,25.6090886 C9.43029741,27.2510229 6.94039196,26.5506903 7.22131104,24.9204935 C7.92360874,20.8384805 8.85610401,16.8216754 9.94141407,12.8479075 C9.98563281,12.6855399 10.0331029,12.5257806 10.077972,12.363413 C11.1171124,8.60483114 12.2876086,4.88341773 13.5335367,1.18287085 C11.4552558,0.613606101 9.33145551,0.215185986 7.18034368,0.0215185986 C6.45463606,3.74880071 5.71982458,7.47869115 5.01037385,11.2111899 C4.97786006,11.3794262 4.94664683,11.5483146 4.9154336,11.717203 C1.9625319,27.3110141 -0.500712247,42.9419938 0.168421392,58.5768859 L4.62476039,58.577538 C7.28178668,45.303823 11.8837874,32.2928958 16.5163511,19.7925462 C17.1867853,17.9869401 17.8903836,16.196984 18.5907304,14.4044195" id="Path"></path>
                        </g>
                        <g id="Group" transform="translate(47.470122, 15.483153)" fill="#4CAF50">
                            <path d="M19.3619573,6.70532575 C20.1949604,4.9949232 21.0533243,3.28386857 21.8967318,1.56238068 C21.5000637,1.03876144 21.0916906,0.52557547 20.6696617,0.0215185986 C19.505018,2.20859072 18.3605328,4.40740025 17.2531134,6.6270763 C13.4450992,14.2583539 9.98823391,22.0461303 6.53071831,29.8404276 C4.52331739,34.36455 2.18622672,39.1371143 0.0520220516,44.0498756 L4.54867814,44.0498756 C6.37205105,38.9395344 8.24484491,33.8454953 10.1885188,28.7781913 C13.0380267,21.3471019 15.8751793,13.8644983 19.3619573,6.70532575" id="Path"></path>
                        </g>
                        <g id="Group" transform="translate(17.622470, 0.802252)" fill="#4CAF50">
                            <path d="M18.877502,11.2561833 C18.9100158,11.0846866 18.9425295,10.9131899 18.9750433,10.7416932 C19.65133,7.17351829 20.3490758,3.60729963 21.038368,0.0417330398 C20.8621433,0.0391247248 20.6865688,0.0286914649 20.5109944,0.0279640014 C17.4403928,0.0215185986 14.3971028,0.438196918 11.4461519,1.21482271 C11.2705775,3.62164536 11.1171124,6.02977217 10.9929098,8.43855106 C10.9831556,8.61982895 10.972101,8.80110684 10.9629971,8.98173266 C10.5838864,16.6162706 10.5377168,24.2573294 11.2491184,31.9133859 C11.4032337,33.5755347 8.8190383,33.5598848 8.66557325,31.9133859 C7.92816067,23.9815001 8.00879485,16.0652641 8.42627181,8.15685304 C8.43602595,7.96644605 8.44643036,7.77538698 8.45748504,7.58563206 C8.55892804,5.72916387 8.67337656,3.87139152 8.80473224,2.01492333 C6.39351014,2.84306334 4.06422278,3.91899327 1.84873366,5.19967593 C1.65104986,5.31444179 1.457918,5.43898883 1.26153475,5.55701508 C0.851861095,5.80350085 0.436985234,6.04085751 0.0357651605,6.30299317 C1.81752043,23.9488961 4.39066116,41.4963352 8.38335362,58.7307765 L14.0062871,58.7307765 C13.3716181,42.8741776 15.8940373,27.0495306 18.877502,11.2561833" id="Path"></path>
                        </g>
                        <g id="Group" transform="translate(1.430606, 18.039953)" fill="#4CAF50">
                            <path d="M2.23824877,4.64019236 C4.04796589,8.06556202 5.84922943,11.4954962 7.50743233,14.9958549 C8.21818361,16.4956361 5.98968897,17.8082706 5.27698686,16.3039249 C3.89189974,13.3800038 2.41122209,10.5049886 0.911686455,7.64040668 C0.576144222,8.50767141 0.273115771,9.38928187 0.00845358339,10.2826298 C5.43630439,19.7534215 10.4512302,29.4517887 15.5136261,39.1247248 C15.9285019,39.9163484 16.3537822,40.7027554 16.7725597,41.4930748 L18.4801836,41.4930748 C14.2572935,27.5679332 10.0051411,13.655181 4.95184904,0.0215185986 C3.93806931,1.49521657 3.03223533,3.0406432 2.23824877,4.64019236" id="Path"></path>
                        </g>
                        <g id="Group" transform="translate(8.193473, 8.778479)" fill="#4CAF50">
                            <path d="M3.32811075,3.21279199 C4.20858398,5.90196474 5.09490968,8.58983333 6.05731764,11.2522709 C6.62565855,12.8244327 4.12860007,13.4960738 3.56546136,11.940866 C2.7740759,9.75118558 2.03666332,7.54259486 1.3083546,5.33204791 C0.86616716,5.82762776 0.426580823,6.32581592 0.00975413468,6.84226229 C5.41874695,21.2668962 9.91020083,36.0077884 14.3925509,50.7538972 L15.1741822,50.7538972 C11.3362553,34.0704624 8.80993444,17.0935923 7.04443607,0.0215185986 C5.74258422,1.00876582 4.49990747,2.07621873 3.32811075,3.21279199" id="Path"></path>
                        </g>
                        <g id="Group" transform="translate(0.000000, 31.985309)" fill="#4CAF50">
                            <path d="M0.567690638,0.0221706774 C0.167771116,2.27314651 0.0143060642,4.54890134 0.0721805966,6.81813538 C1.87279386,10.4541265 4.0772283,13.9225333 5.80631124,17.5761305 C7.36632251,20.8710844 8.85155208,24.2012506 10.2997159,27.5464146 L15.2782263,27.5464146 C14.8171809,26.671977 14.3535343,25.7981915 13.8963905,24.9224497 C9.53499179,16.5764938 5.19245103,8.22206092 0.567690638,0.0221706774" id="Path"></path>
                        </g>
                        <g id="Group" transform="translate(38.187677, 11.829315) scale(-1, 1) rotate(-115.782435) translate(-38.187677, -11.829315) translate(37.187677, 9.829315)" fill="#4CAF50">
                            <path d="M0.615958701,0.96504988 C0.798736919,1.00939123 0.981515136,1.05438465 1.16429335,1.09937808 C0.972160346,1.91838884 0.793699724,2.73805169 0.615958701,3.55836661 C0.429582487,3.51337318 0.243925872,3.46772768 0.0582692574,3.42273425 C0.238169078,2.60241933 0.420947296,1.78275649 0.615958701,0.96504988" id="Path"></path>
                        </g>
                        <g id="Group" transform="translate(54.376673, 14.963047) scale(-1, 1) rotate(-108.951696) translate(-54.376673, -14.963047) translate(53.376673, 12.963047)" fill="#4CAF50">
                            <path d="M0.59170261,0.958498264 C0.779762733,0.950673316 0.96710232,0.947412922 1.15444191,0.938935895 C0.964220172,1.80489673 0.764631459,2.67085757 0.59170261,3.5368184 C0.410127319,3.54464335 0.229272564,3.54855582 0.0484178097,3.55507661 C0.222067196,2.68911578 0.400760339,1.82315494 0.59170261,0.958498264" id="Path"></path>
                        </g>
                        <g id="Group" transform="translate(45.304655, 13.334668) scale(-1, 1) rotate(-112.371231) translate(-45.304655, -13.334668) translate(44.304655, 11.834668)" fill="#4CAF50">
                            <path d="M0.607400782,0.0257921522 C0.791978466,0.0460065878 0.975835145,0.0629606305 1.16041283,0.0831750661 C0.969346086,0.932833438 0.781884374,1.78379597 0.607400782,2.6347585 C0.422823097,2.61454406 0.238966418,2.5982421 0.0543887334,2.5767235 C0.230314339,1.72576097 0.415613031,0.874798445 0.607400782,0.0257921522" id="Path"></path>
                        </g>
                        <g id="Group" transform="translate(27.569253, 8.707311) scale(-1, 1) rotate(-119.065233) translate(-27.569253, -8.707311) translate(26.569253, 7.207311)" fill="#4CAF50">
                            <path d="M0.593355556,0.0588290998 C0.772904922,0.138382692 0.953172486,0.217284205 1.13272185,0.296837797 C0.938090339,1.17453562 0.772186725,2.05484176 0.593355556,2.93319167 C0.40518782,2.8497256 0.216301887,2.7675637 0.0266977559,2.68344555 C0.207683517,1.80770396 0.396569451,0.932614454 0.593355556,0.0588290998" id="Path"></path>
                        </g>
                    </g>
                    <g id="Group" transform="translate(47.000000, 220.000000)" fill="#FBC02D">
                        <path d="M1.19804288,0.154510594 C1.1924283,0.117823147 1.17932763,0.0825467554 1.17371305,0.0472703642 C0.872397515,0.11993973 0.569210451,0.192609096 0.269766438,0.258223184 C0.441946746,1.12249477 0.339012866,2.00934324 0.0507980034,2.8905475 C0.243565087,3.32233052 0.419488445,3.75340803 0.625356204,4.18448553 C1.09136595,2.84186608 1.37396624,1.49571899 1.19804288,0.154510594" id="Path"></path>
                    </g>
                    <g id="Group-3" transform="translate(83.000000, 0.000000)">
                        <g id="Group" transform="translate(22.500685, 51.515660)" fill="#357A38">
                            <path d="M121.008442,1.37595556 C121.928029,1.4789316 122.843702,1.59477964 123.758071,1.72349968 C123.772419,1.72564502 123.787419,1.72636013 123.80242,1.72636013 C123.973946,1.72636013 124.122645,1.5861983 124.145471,1.39526357 C124.169602,1.18788127 124.035251,0.996946533 123.846116,0.970487412 C122.927834,0.840337143 122.006291,0.725204213 121.080183,0.620797953 C120.893657,0.605780615 120.720175,0.750948222 120.700609,0.959760742 C120.679739,1.16857326 120.817351,1.35450222 121.008442,1.37595556 Z M128.54579,2.34422294 C129.456246,2.50102497 130.363441,2.67149026 131.26607,2.85041374 C131.288897,2.85561879 131.311723,2.85692005 131.33455,2.85692005 C131.495641,2.85692005 131.639774,2.74371028 131.672384,2.57910068 C131.710863,2.39236962 131.588904,2.21019299 131.400421,2.17310703 C130.491922,1.99158102 129.580162,1.82176637 128.66188,1.66301244 C128.478615,1.62917964 128.295349,1.75605266 128.26274,1.94343434 C128.230783,2.13211728 128.356655,2.3116914 128.54579,2.34422294 Z M113.417615,1.04241229 C114.341767,1.08392189 115.264614,1.14132878 116.182244,1.2128666 C116.188766,1.2128666 116.19594,1.21463296 116.202462,1.21463296 C116.385075,1.21463296 116.537035,1.02209908 116.548122,0.773041485 C116.559209,0.51426888 116.414423,0.291706775 116.223332,0.278459031 C115.29918,0.205154846 114.371115,0.147747953 113.441094,0.108004721 L113.430007,0.108004721 C113.243481,0.108004721 113.089564,0.308487251 113.084347,0.560194393 C113.077825,0.818083816 113.227828,1.03534682 113.417615,1.04241229 Z M100.922979,0.397704576 C99.9949143,0.485198 99.0707626,0.584864423 98.1498718,0.698225468 C97.9600848,0.721049839 97.8218208,0.919621871 97.8413864,1.14177909 C97.8602999,1.34872005 98.0103034,1.50316497 98.1857422,1.50316497 C98.1974816,1.50316497 98.2098732,1.50240416 98.2216126,1.50088253 C99.1366337,1.38904311 100.055568,1.2901375 100.977763,1.2041657 C101.16755,1.18742783 101.310379,0.99265986 101.295379,0.769741831 C101.279727,0.546062991 101.117332,0.380966704 100.922979,0.397704576 Z M93.3164995,1.26938078 C92.3969131,1.40796515 91.4812398,1.55695962 90.5681752,1.71766544 C90.3796926,1.75084761 90.2538202,1.92977109 90.287734,2.11715277 C90.3170825,2.2843649 90.4625206,2.40277972 90.6275244,2.40277972 C90.6470901,2.40277972 90.667308,2.40082782 90.688178,2.39692404 C91.5947207,2.23751948 92.5051764,2.08852502 93.4188932,1.95189254 C93.6080279,1.92391541 93.7384657,1.74759445 93.7097694,1.55891151 C93.6817253,1.37218046 93.508243,1.24530744 93.3164995,1.26938078 Z M32.7581466,31.5425834 C32.0974792,32.191913 31.4439859,32.8503514 30.7996232,33.5165974 C30.6659245,33.6545312 30.671142,33.8724925 30.8081017,34.0045706 C30.8746249,34.0696337 30.9613661,34.1015146 31.0481072,34.1015146 C31.1387615,34.1015146 31.2287635,34.0663805 31.2972434,33.9954617 C31.9370407,33.3337702 32.5866209,32.6792355 33.2433752,32.0331591 C33.3796827,31.8991291 33.3809871,31.6811678 33.2472883,31.545186 C33.1129374,31.4098548 32.8931497,31.4085535 32.7581466,31.5425834 Z M105.799396,1.16128123 L105.811135,1.16128123 C106.73007,1.11354058 107.651613,1.08203176 108.575764,1.06675475 C108.766856,1.06389031 108.92012,0.834735195 108.917544,0.555929805 C108.915555,0.276169602 108.768812,0.0957099492 108.56859,0.0546529911 C107.637264,0.0699299988 106.711156,0.101438827 105.787004,0.150134289 C105.595913,0.159682419 105.44591,0.394566411 105.453736,0.674326614 C105.460258,0.9454935 105.614174,1.16128123 105.799396,1.16128123 Z M85.790239,2.66953836 C84.882392,2.87123393 83.9791103,3.08399021 83.0797417,3.30910849 C82.8945201,3.35530328 82.7816914,3.54203433 82.8279968,3.72746412 C82.8671281,3.88426615 83.0080009,3.98836709 83.1638741,3.98836709 C83.191266,3.98836709 83.2193101,3.9844633 83.2473543,3.977957 C84.1408531,3.75609188 85.0389173,3.54398622 85.9408946,3.34359192 C86.1274207,3.30130092 86.2448147,3.11717239 86.2030746,2.93174259 C86.1619867,2.74501154 85.9774172,2.62854862 85.790239,2.66953836 Z M78.3800681,4.59280315 C77.4885258,4.8576099 76.6028532,5.13347738 75.7210938,5.42040558 C75.5397853,5.47896236 75.4406525,5.67415161 75.4993495,5.85567762 C75.5469593,6.00141893 75.6832668,6.09380851 75.828705,6.09380851 C75.8639232,6.09380851 75.9004457,6.08795283 75.9356639,6.07689211 C76.8102493,5.79126517 77.6920088,5.51800021 78.5770292,5.25449472 C78.7602943,5.20049236 78.8646445,5.00790563 78.8098607,4.82507836 C78.755729,4.64290172 78.5639854,4.53749952 78.3800681,4.59280315 Z M27.4936774,37.0905127 C26.8799676,37.7847358 26.2740841,38.4867665 25.676679,39.1966047 C25.5540675,39.342346 25.5736331,39.5603074 25.7197235,39.682626 C25.7849424,39.7366283 25.863205,39.7639548 25.9414677,39.7639548 C26.0406004,39.7639548 26.1384288,39.7216638 26.2069086,39.640335 C26.8004006,38.9344005 27.402371,38.2362736 28.0128198,37.5472555 C28.1393445,37.4041167 28.1256485,37.1861554 27.9821669,37.059933 C27.8393376,36.9337106 27.6208543,36.9473739 27.4936774,37.0905127 Z M71.1244661,7.03136756 C70.2537938,7.35863488 69.3896434,7.69501102 68.5307106,8.04374916 C68.3533152,8.11531855 68.2678784,8.31701411 68.3396192,8.49333507 C68.3944031,8.62736503 68.5241887,8.70934451 68.659844,8.70934451 C68.7035407,8.70934451 68.7472373,8.70088631 68.7902818,8.68396991 C69.6439971,8.33848493 70.50293,8.00275941 71.3683847,7.67809462 C71.5470845,7.61173027 71.6377388,7.41263724 71.5705633,7.23371375 C71.5027356,7.05348901 71.3031658,6.96370195 71.1244661,7.03136756 Z M64.0677816,9.96571268 C63.2251535,10.3515368 62.3883951,10.7471203 61.5588107,11.1524633 C61.387285,11.2363947 61.3161964,11.443946 61.4003288,11.6144112 C61.4609824,11.7367298 61.5835939,11.8082992 61.7114229,11.8082992 C61.7622937,11.8082992 61.8144688,11.7965879 61.8633829,11.7725145 C62.6877498,11.3691234 63.5186385,10.9761424 64.3567013,10.5929208 C64.5295314,10.5135439 64.6058375,10.3085951 64.5269226,10.1348767 C64.4467034,9.96311015 64.2419161,9.88763698 64.0677816,9.96571268 Z M143.309391,5.97994811 C144.191151,6.26427379 145.068345,6.56031083 145.940322,6.86610732 C145.978801,6.87977057 146.017932,6.88562625 146.055107,6.88562625 C146.197936,6.88562625 146.331635,6.79714045 146.381201,6.65530293 C146.444464,6.47572882 146.350548,6.27793704 146.169892,6.21547648 C145.292046,5.90772809 144.408982,5.61038979 143.520701,5.32476285 C143.340044,5.26750733 143.144388,5.36575259 143.085691,5.5472786 C143.026994,5.72620208 143.126778,5.92139134 143.309391,5.97994811 Z M135.989875,3.90313445 C136.887287,4.12434894 137.779481,4.35532289 138.667763,4.59865882 C138.698415,4.60711703 138.729068,4.61102081 138.759721,4.61102081 C138.911681,4.61102081 139.05125,4.51082366 139.093642,4.35727478 C139.143861,4.17314625 139.035597,3.98381267 138.851028,3.93241284 C137.955572,3.68842627 137.057508,3.4548498 136.155531,3.23298468 C135.965744,3.18744052 135.783131,3.30065028 135.736825,3.48542945 C135.691824,3.67020861 135.804653,3.85759029 135.989875,3.90313445 Z M36.2780104,28.6954229 C36.3458381,28.770896 36.4397533,28.8099339 36.5349728,28.8099339 C36.6178008,28.8099339 36.7006288,28.7800049 36.7671521,28.7207975 C37.2204234,28.3128519 37.6828254,27.9140152 38.143923,27.512576 L37.0958553,27.512576 C36.832371,27.7448512 36.5649735,27.972572 36.3027936,28.2074497 C36.1612686,28.335624 36.1501814,28.554236 36.2780104,28.6954229 Z M57.7089393,13.5227115 C57.6176329,13.3554994 57.4069758,13.2930388 57.2393633,13.3854284 C56.7639175,13.6443795 56.2962981,13.91309 55.8260698,14.179198 L55.8260698,14.9710158 C56.4052136,14.6411459 56.9850096,14.3099748 57.5706753,13.9905151 C57.7382878,13.8994268 57.800898,13.689273 57.7089393,13.5227115 Z M157.450804,11.6619073 C158.282997,12.0665997 159.109321,12.4810515 159.929122,12.9046122 C159.979993,12.9306374 160.034125,12.9436501 160.088256,12.9436501 C160.213477,12.9436501 160.33348,12.8759845 160.394785,12.7582203 C160.483483,12.5890563 160.417612,12.3808544 160.247391,12.2923686 C159.422372,11.8649041 158.590831,11.4485004 157.75342,11.0412055 C157.583851,10.9585753 157.37515,11.0288435 157.29167,11.2012607 C157.206886,11.3710753 157.278626,11.5786265 157.450804,11.6619073 Z M22.6263913,42.9897826 C22.0622478,43.7262967 21.5059307,44.4686665 20.9600485,45.2188438 C20.8472198,45.3730434 20.8817858,45.5890528 21.0363546,45.7009613 C21.0976604,45.7458548 21.168749,45.7673256 21.2391854,45.7673256 C21.3467966,45.7673256 21.451799,45.7178777 21.5196266,45.6248375 C22.0629,44.8792145 22.6153041,44.1413992 23.1761866,43.4100901 C23.2929284,43.2584931 23.2635799,43.041833 23.112272,42.9260207 C22.960312,42.8108591 22.7431331,42.8394868 22.6263913,42.9897826 Z M150.481513,8.57336267 C151.340446,8.91819701 152.194161,9.27409209 153.042007,9.64039725 C153.08766,9.65991618 153.133966,9.66837438 153.179619,9.66837438 C153.31397,9.66837438 153.440495,9.59029868 153.497235,9.46017251 C153.572889,9.28515281 153.49267,9.08215599 153.317883,9.00538155 C152.463515,8.63647386 151.604583,8.27862689 150.73978,7.93119002 C150.564341,7.86027126 150.360206,7.94485327 150.28977,8.12247549 C150.218029,8.30139897 150.303466,8.50179327 150.481513,8.57336267 Z M8.03888101,69.3592001 C7.86083343,69.2902333 7.66061142,69.3767672 7.5908272,69.5543894 C7.25103676,70.4177765 6.92168134,71.28767 6.60406532,72.1614672 C6.53884642,72.3410413 6.63210944,72.5388331 6.81211359,72.6038962 C6.85124493,72.6175594 6.89102846,72.6240657 6.93015979,72.6240657 C7.0716848,72.6240657 7.20538353,72.5368812 7.25560208,72.3963449 C7.57126153,71.5284034 7.89866039,70.6643656 8.23584207,69.8061835 C8.30432191,69.6285613 8.21692859,69.4288176 8.03888101,69.3592001 Z M6.40971301,144.196712 C6.34905944,144.015837 6.15340275,143.919543 5.97144204,143.978751 C5.7907857,144.039259 5.69295735,144.23575 5.75361093,144.415975 C6.04970471,145.294977 6.35753789,146.169425 6.67515391,147.038017 C6.72602465,147.177252 6.85841901,147.264436 6.99994401,147.264436 C7.03907535,147.264436 7.07951106,147.25793 7.1186424,147.244267 C7.29799436,147.179204 7.39060519,146.980111 7.3253863,146.800537 C7.00842247,145.938451 6.70385023,145.069859 6.40971301,144.196712 Z M9.08173114,151.289239 C9.00868598,151.112918 8.80585522,151.03289 8.62911201,151.103158 C8.45302099,151.17668 8.36888862,151.379026 8.44258597,151.555347 C8.79802895,152.408324 9.16455914,153.256096 9.54217654,154.098012 C9.59956917,154.226187 9.72544164,154.30231 9.85848818,154.30231 C9.90544579,154.30231 9.95370777,154.293201 9.999361,154.273032 C10.1734954,154.194956 10.2517581,153.990008 10.1747998,153.816289 C9.79979118,152.978927 9.43586974,152.137011 9.08173114,151.289239 Z M1.27210788,117.198785 C1.18795024,116.283347 1.11994406,115.364006 1.06553912,114.442062 C1.05448811,114.251427 0.839418576,114.096577 0.594596334,114.112843 C0.345523707,114.121301 0.153406254,114.283308 0.164457258,114.473943 C0.2188622,115.401092 0.288568533,116.326289 0.371876101,117.247582 C0.388877646,117.429759 0.586945639,117.568994 0.821566954,117.568994 C0.832617958,117.568994 0.841968807,117.568994 0.853019811,117.567693 C1.10209244,117.554029 1.28995951,117.388769 1.27210788,117.198785 Z M1.09433338,121.705054 C0.891753852,121.726525 0.747450626,121.898292 0.771038653,122.086975 C0.884122431,123.008918 1.00900022,123.927609 1.14567203,124.843047 C1.17134135,125.015464 1.32882612,125.140385 1.50920515,125.140385 C1.52585553,125.140385 1.54319966,125.139735 1.5605438,125.136481 C1.76242956,125.110456 1.9025702,124.936087 1.87412581,124.747404 C1.73814777,123.838473 1.61465751,122.925638 1.5022675,122.008248 C1.47937324,121.819565 1.29621914,121.681632 1.09433338,121.705054 Z M5.47382187,76.5532254 C5.29055677,76.4953193 5.09750884,76.5968177 5.0407684,76.7789943 C4.76424029,77.6619004 4.49749501,78.5493609 4.24314132,79.4407251 C4.1909662,79.624203 4.297273,79.8154885 4.48053809,79.8675389 C4.51249535,79.8759971 4.5451048,79.8805516 4.57575768,79.8805516 C4.72576114,79.8805516 4.86467739,79.7823063 4.90837405,79.6300587 C5.16207555,78.7432488 5.42555988,77.861644 5.70143581,76.9845937 C5.75817625,76.8043689 5.65643477,76.6104809 5.47382187,76.5532254 Z M2.58658138,129.513275 C2.55201537,129.325893 2.37135903,129.202924 2.18352861,129.237408 C1.995046,129.271891 1.8711301,129.452116 1.9063483,129.640148 C2.07722181,130.551682 2.25853034,131.459963 2.45092608,132.364339 C2.48549209,132.526997 2.62962585,132.638255 2.78875995,132.638255 C2.81223876,132.638255 2.83767413,132.635653 2.86180512,132.631098 C3.04898335,132.590759 3.16833392,132.407932 3.12789821,132.221851 C2.93615466,131.32333 2.75615051,130.419604 2.58658138,129.513275 Z M4.23857599,136.921358 C4.19031401,136.736579 4.0018314,136.627923 3.81660974,136.674118 C3.63204027,136.722265 3.52116815,136.910948 3.56877794,137.095076 C3.80291377,137.992947 4.04748463,138.886263 4.30379489,139.775025 C4.34749155,139.926622 4.48575561,140.024867 4.63641125,140.024867 C4.66836851,140.024867 4.70097796,140.020963 4.73228303,140.011204 C4.91620031,139.957852 5.02250711,139.766567 4.96902762,139.58439 C4.71467393,138.702135 4.47140745,137.813373 4.23857599,136.921358 Z M34.7916718,188.463683 C34.6527555,188.334207 34.4342722,188.338762 34.3025301,188.477346 C34.1714401,188.615931 34.1766576,188.834543 34.3155738,188.965319 C34.989285,189.602938 35.6714747,190.230146 36.3608384,190.850197 C36.4267095,190.910706 36.5101897,190.939333 36.5930177,190.939333 C36.6875851,190.939333 36.7821525,190.901597 36.8499801,190.825473 C36.9778091,190.684286 36.9667219,190.465674 36.8245447,190.3375 C36.1397463,189.722003 35.4614698,189.097397 34.7916718,188.463683 Z M29.4548096,183.056941 C29.3256762,182.915754 29.1058885,182.907295 28.9656679,183.03547 C28.8254473,183.164295 28.8156644,183.382907 28.9447978,183.523443 C29.5722036,184.205304 30.20874,184.880659 30.8537549,185.545604 C30.9215825,185.615872 31.0115846,185.651006 31.1022389,185.651006 C31.18898,185.651006 31.2757211,185.618474 31.3428966,185.554062 C31.4798563,185.421984 31.4831172,185.204022 31.3507229,185.066089 C30.7109255,184.403746 30.0789544,183.734898 29.4548096,183.056941 Z M40.494412,193.491758 C40.3476695,193.37009 40.128534,193.392212 40.0072268,193.538604 C39.8852675,193.684995 39.9067897,193.902957 40.0541844,194.024625 C40.7702879,194.613446 41.4942176,195.194459 42.2266258,195.764412 C42.2898882,195.81451 42.3655421,195.837933 42.4398916,195.837933 C42.5435897,195.837933 42.6453311,195.792389 42.7131588,195.705204 C42.8305528,195.555559 42.8044652,195.337598 42.6531574,195.220484 C41.9266189,194.653785 41.2066023,194.077326 40.494412,193.491758 Z M15.8801488,164.82171 C15.7836248,164.657751 15.5710112,164.603749 15.4060074,164.699391 C15.2416558,164.796986 15.1868719,165.009092 15.2847003,165.1724 C15.7575372,165.969423 16.2401571,166.758638 16.7306032,167.541347 C16.7971264,167.644797 16.9099551,167.702703 17.0240882,167.702703 C17.0880027,167.702703 17.151265,167.685787 17.2080055,167.650002 C17.3697483,167.548504 17.4186625,167.335747 17.3175732,167.17374 C16.8284315,166.397538 16.3497248,165.612226 15.8801488,164.82171 Z M0.054559273,109.611779 C0.054559273,109.802414 0.294430595,109.956613 0.590980373,109.956613 C0.887530151,109.956613 1.12740147,109.802414 1.12740147,109.611779 L1.12740147,109.503123 C1.12740147,108.90129 1.14663166,108.302709 1.16080128,107.704129 C0.81263362,107.937055 0.452320579,108.160872 0.0737894634,108.37558 C0.0677167717,108.750994 0.0515229271,109.126408 0.0515229271,109.503123 L0.0515229271,109.611779 L0.054559273,109.611779 Z M11.1035169,62.3668704 C10.9300346,62.2855416 10.7239429,62.3584122 10.6424193,62.5301788 C10.2432797,63.3675407 9.85392286,64.2114089 9.47500108,65.0604821 C9.3973906,65.2342006 9.47565327,65.4384987 9.6510921,65.5159237 C9.69674532,65.5360933 9.74370293,65.5452021 9.79131272,65.5452021 C9.92501146,65.5452021 10.0508839,65.4690783 10.1082766,65.3402534 C10.4845896,64.4957346 10.8713376,63.6583727 11.2685207,62.8255652 C11.3493921,62.6544493 11.2756948,62.4481993 11.1035169,62.3668704 Z M14.6501204,55.6094185 C14.4844644,55.5163783 14.2718508,55.5742844 14.1785878,55.7401953 C13.7214033,56.5482788 13.2740017,57.3615673 12.8370351,58.1813622 C12.7476852,58.349225 12.8109476,58.5587281 12.9798645,58.6478645 C13.0320396,58.6758416 13.0868235,58.6888543 13.1422596,58.6888543 C13.2655233,58.6888543 13.3861782,58.6224899 13.447484,58.5053764 C13.8818418,57.6907865 14.3259825,56.882703 14.7805582,56.0804752 C14.8757778,55.9132631 14.8170808,55.7031093 14.6501204,55.6094185 Z M12.242891,158.172263 C12.1581064,158.001147 11.9500581,157.93218 11.7791846,158.017412 C11.6083111,158.103296 11.5385269,158.311498 11.6252681,158.480662 C12.0400602,159.306963 12.4652874,160.127408 12.9009496,160.942649 C12.9629076,161.059112 13.0822582,161.125476 13.2061741,161.125476 C13.2609579,161.125476 13.3170462,161.113114 13.3685691,161.085137 C13.5368339,160.99535 13.6014006,160.786497 13.5107463,160.617333 C13.078345,159.808599 12.6557266,158.993359 12.242891,158.172263 Z M19.9752432,171.2057 C19.8663276,171.048898 19.6498009,171.00986 19.4932756,171.117865 C19.336098,171.22652 19.2969667,171.441228 19.4045779,171.59803 C19.9315465,172.360569 20.4676458,173.115301 21.013528,173.861575 C21.0820078,173.954615 21.1870103,174.003412 21.2939693,174.003412 C21.3650578,174.003412 21.4361464,173.982592 21.4974522,173.937699 C21.652021,173.82514 21.6859348,173.609781 21.5737583,173.454931 C21.0317893,172.712561 20.4989509,171.964335 19.9752432,171.2057 Z M24.5079564,177.293653 C24.3886058,177.144007 24.1701225,177.119934 24.0214234,177.239 C23.8720722,177.358065 23.8479412,177.574725 23.9666396,177.72437 C24.5451312,178.448522 25.1327534,179.164216 25.7301585,179.872103 C25.7992905,179.954082 25.8971189,179.995722 25.9955994,179.995722 C26.0738621,179.995722 26.1534291,179.969697 26.218648,179.915044 C26.3647383,179.792726 26.3829996,179.574764 26.2603881,179.429023 C25.6668962,178.72439 25.0825349,178.01325 24.5079564,177.293653 Z M214.036674,142.555821 C214.070588,142.566882 214.105154,142.571436 214.13972,142.571436 C214.287115,142.571436 214.424075,142.477095 214.469728,142.330052 C214.748212,141.447146 215.014958,140.560336 215.269964,139.668972 C215.323443,139.486145 215.217136,139.294209 215.032567,139.242158 C214.846041,139.185553 214.656906,139.29551 214.604731,139.479638 C214.350377,140.365147 214.085588,141.246101 213.809713,142.123802 C213.752972,142.305979 213.854061,142.499867 214.036674,142.555821 Z M180.842213,192.786474 C180.92178,192.786474 181.001347,192.759148 181.067218,192.703844 C181.772887,192.10136 182.469425,191.490418 183.158788,190.872318 C183.301618,190.745445 183.312705,190.526833 183.184876,190.384345 C183.056395,190.241206 182.836607,190.230146 182.695734,190.358971 C182.010284,190.973817 181.318311,191.580855 180.616556,192.179436 C180.471118,192.303056 180.454161,192.521668 180.578077,192.666758 C180.647861,192.744834 180.745037,192.786474 180.842213,192.786474 Z M216.087809,135.224513 C216.115201,135.230368 216.14194,135.233621 216.168028,135.233621 C216.324553,135.233621 216.467383,135.126918 216.504557,134.968815 C216.71978,134.067691 216.92261,133.164615 217.115658,132.257636 C217.15479,132.070254 217.035439,131.887427 216.848261,131.848389 C216.66043,131.813255 216.477818,131.928417 216.438686,132.115148 C216.247595,133.017573 216.045416,133.914793 215.831498,134.80876 C215.787149,134.992888 215.902587,135.179619 216.087809,135.224513 Z M215.277138,81.9794867 C215.318226,82.1349874 215.458446,82.2377871 215.611711,82.2377871 C215.639755,82.2377871 215.669755,82.2338833 215.699756,82.2267264 C215.884978,82.1785797 215.99585,81.9898968 215.947588,81.8057682 C215.7128,80.9078977 215.467577,80.0145815 215.210614,79.1258198 C215.157135,78.9429925 214.963435,78.8375903 214.782126,78.8896408 C214.598209,78.9429925 214.493207,79.134278 214.545382,79.3177559 C214.800388,80.2006619 215.044306,81.0881224 215.277138,81.9794867 Z M213.098827,74.7073857 C213.147741,74.8511751 213.282744,74.9422634 213.426878,74.9422634 C213.4634,74.9422634 213.501879,74.9370584 213.53775,74.9240458 C213.718406,74.8622358 213.816234,74.6670466 213.754929,74.4861712 C213.457531,73.6065183 213.149697,72.7340223 212.830777,71.8647795 C212.765558,71.6865067 212.567293,71.5947677 212.386636,71.6591802 C212.206632,71.7255445 212.114021,71.9233363 212.180545,72.1029104 C212.497508,72.9656469 212.802733,73.8335885 213.098827,74.7073857 Z M211.463137,149.747894 C211.504877,149.764811 211.547921,149.771968 211.589661,149.771968 C211.727925,149.771968 211.858363,149.689338 211.911191,149.554006 C212.252285,148.689318 212.582293,147.820075 212.900561,146.946929 C212.96578,146.767354 212.873821,146.569563 212.693817,146.5045 C212.513161,146.440087 212.315548,146.531826 212.250329,146.71075 C211.933365,147.578691 211.606618,148.442078 211.26748,149.30026 C211.198348,149.477883 211.286394,149.678277 211.463137,149.747894 Z M174.877945,197.529573 C174.949686,197.529573 175.022731,197.507452 175.084037,197.461908 C175.828185,196.910173 176.567115,196.349979 177.296914,195.780027 C177.44757,195.662913 177.474962,195.445603 177.356263,195.295957 C177.238217,195.14371 177.020386,195.118335 176.871035,195.23675 C176.145148,195.802799 175.412088,196.359088 174.671201,196.90757 C174.517285,197.02078 174.484675,197.23744 174.599461,197.390338 C174.667288,197.481426 174.772943,197.529573 174.877945,197.529573 Z M203.608173,54.0914967 C203.672088,54.200152 203.787525,54.2606607 203.904919,54.2606607 C203.965573,54.2606607 204.026226,54.2450456 204.08101,54.212514 C204.245362,54.1149194 204.300145,53.9028138 204.202317,53.7395054 C203.728828,52.9437839 203.246208,52.1545687 202.754458,51.373161 C202.652064,51.2111539 202.438798,51.1636579 202.277708,51.263855 C202.115312,51.3653534 202.067051,51.5781097 202.167488,51.7401168 C202.657282,52.51697 203.138597,53.3016308 203.608173,54.0914967 Z M201.013113,170.034564 C201.124637,170.034564 201.234857,169.979911 201.302033,169.880365 C201.815306,169.107415 202.319448,168.327309 202.812502,167.541997 C202.913592,167.37999 202.864678,167.167234 202.702283,167.066386 C202.541192,166.964888 202.326622,167.013035 202.225532,167.175692 C201.734434,167.9571 201.234205,168.732001 200.724193,169.499095 C200.619191,169.6585 200.662888,169.873208 200.82137,169.977959 C200.880719,170.016347 200.947242,170.034564 201.013113,170.034564 Z M199.506557,47.71076 C199.573732,47.8070533 199.681996,47.8597544 199.790911,47.8597544 C199.858739,47.8597544 199.927871,47.8395849 199.98722,47.7979445 C200.14505,47.6899398 200.184181,47.474581 200.075265,47.317779 C199.547645,46.5565409 199.010241,45.8024597 198.464359,45.0548849 C198.350226,44.9019866 198.133047,44.8675032 197.980435,44.9800623 C197.826518,45.0926215 197.792604,45.3079803 197.904781,45.4621798 C198.449358,46.2058508 198.982197,46.9553776 199.506557,47.71076 Z M208.391979,156.738923 C208.440893,156.761695 208.491764,156.772105 208.54133,156.772105 C208.671116,156.772105 208.793727,156.699885 208.853077,156.576265 C209.254173,155.738253 209.644182,154.895686 210.024408,154.046612 C210.102018,153.872243 210.023756,153.668596 209.849621,153.59052 C209.674835,153.514396 209.470047,153.591171 209.391785,153.76554 C209.014819,154.609408 208.628071,155.44677 208.228932,156.278276 C208.146104,156.450693 208.219801,156.656293 208.391979,156.738923 Z M210.420287,67.6174614 C210.476375,67.7501901 210.604204,67.8302177 210.739207,67.8302177 C210.783556,67.8302177 210.828557,67.8217595 210.872254,67.8028912 C211.048345,67.7293699 211.132477,67.5283249 211.05878,67.3513534 C210.702684,66.4990269 210.33485,65.6512549 209.95658,64.8099893 C209.878318,64.6356202 209.67353,64.5581951 209.500048,64.6356202 C209.325914,64.7136959 209.247651,64.917994 209.325914,65.0917124 C209.70027,65.9284237 210.065496,66.7696894 210.420287,67.6174614 Z M207.252605,60.7370402 C207.313258,60.8580575 207.435218,60.927675 207.562395,60.927675 C207.615222,60.927675 207.667397,60.9159636 207.717616,60.890589 C207.889141,60.8053564 207.956969,60.5971545 207.871532,60.4266893 C207.456088,59.6003881 207.028904,58.7805932 206.593242,57.966654 C206.501935,57.79749 206.290626,57.7363307 206.124318,57.8254671 C205.956053,57.9146036 205.891487,58.1247573 205.982141,58.2926201 C206.415194,59.1013542 206.839117,59.9165947 207.252605,60.7370402 Z M204.839506,163.492471 C204.893637,163.523051 204.951682,163.536714 205.010379,163.536714 C205.130382,163.536714 205.247776,163.474904 205.312343,163.361044 C205.769527,162.554261 206.217581,161.740973 206.655852,160.922479 C206.745202,160.753966 206.68194,160.545113 206.513023,160.454676 C206.344106,160.36619 206.134753,160.42865 206.044099,160.597164 C205.609089,161.411103 205.163644,162.219186 204.708416,163.020764 C204.613848,163.187325 204.673198,163.397479 204.839506,163.492471 Z M133.57221,216.36924 C133.596341,216.36924 133.622429,216.365987 133.647864,216.360782 C134.555059,216.159737 135.458993,215.946981 136.359014,215.723814 C136.544235,215.67827 136.657064,215.490888 136.611411,215.304808 C136.565105,215.118727 136.377927,215.00747 136.191401,215.053014 C135.298554,215.274879 134.399838,215.485683 133.497861,215.684776 C133.311335,215.725766 133.193941,215.910545 133.235029,216.096626 C133.269595,216.259283 133.413076,216.36924 133.57221,216.36924 Z M219.029382,116.767417 C218.79926,116.759609 218.599873,116.898844 218.584112,117.088178 C218.506879,118.00882 218.417037,118.92621 218.311433,119.839696 C218.290155,120.029029 218.458806,120.198193 218.688927,120.21576 C218.702325,120.217062 218.714146,120.217712 218.72912,120.217712 C218.941904,120.217712 219.123952,120.084333 219.144443,119.905409 C219.250047,118.985417 219.341465,118.062172 219.417909,117.135674 C219.433671,116.94634 219.259504,116.780429 219.029382,116.767417 Z M216.936959,89.3875695 C216.967611,89.5534804 217.11305,89.668642 217.276097,89.668642 C217.297619,89.668642 217.319141,89.6673408 217.340011,89.6621357 C217.528494,89.6270016 217.651758,89.4467769 217.617192,89.2600459 C217.445666,88.3478614 217.263705,87.4402314 217.070005,86.5358545 C217.028917,86.3497741 216.847609,86.2287567 216.659126,86.2710477 C216.4726,86.3100856 216.352597,86.4935635 216.392381,86.6809452 C216.584777,87.5775145 216.766085,88.4799395 216.936959,89.3875695 Z M118.483167,218.781093 C118.49295,218.781093 118.50208,218.779568 118.511211,218.779568 C119.44058,218.694906 120.364732,218.595754 121.28497,218.482109 C121.474757,218.459228 121.613674,218.26016 121.593456,218.03821 C121.57389,217.815497 121.399756,217.649988 121.21323,217.677446 C120.298209,217.78804 119.379927,217.887192 118.457079,217.972616 C118.26664,217.990159 118.123811,218.183888 118.139463,218.407363 C118.153811,218.619398 118.305771,218.781093 118.483167,218.781093 Z M126.06682,217.755734 C126.083125,217.755734 126.100734,217.755084 126.117691,217.75183 C127.038581,217.615198 127.954255,217.466854 128.867319,217.306799 C129.05515,217.273617 129.181022,217.094693 129.148413,216.907312 C129.115803,216.718629 128.926016,216.588503 128.748621,216.626239 C127.841426,216.785644 126.93097,216.932036 126.017253,217.068668 C125.828119,217.096645 125.697681,217.272316 125.725725,217.460999 C125.750508,217.632765 125.898555,217.755734 126.06682,217.755734 Z M218.141552,124.342712 C217.957634,124.321241 217.776326,124.448114 217.75089,124.636797 C217.623714,125.550283 217.484797,126.459865 217.333489,127.366193 C217.302837,127.554226 217.429361,127.732498 217.617844,127.763078 C217.63741,127.766982 217.656323,127.768283 217.675889,127.768283 C217.841545,127.768283 217.987635,127.647916 218.016331,127.480054 C218.168291,126.567219 218.308512,125.651781 218.436993,124.73244 C218.463081,124.543757 218.330686,124.368737 218.141552,124.342712 Z M218.457933,97.1970915 C218.471756,97.1970915 218.486962,97.1957903 218.501477,97.1938384 C218.703302,97.1717169 218.847067,97.000601 218.823567,96.8112675 C218.710214,95.8886729 218.584419,94.9706328 218.447565,94.0558458 C218.419918,93.8665122 218.236064,93.7324823 218.032856,93.7624113 C217.832414,93.7890872 217.692104,93.9641069 217.720443,94.1527898 C217.856605,95.0617211 217.981018,95.9745562 218.09368,96.8912951 C218.116489,97.067616 218.27477,97.1970915 218.457933,97.1970915 Z M186.464734,187.639984 C186.552128,187.639984 186.640825,187.606151 186.706696,187.540438 C187.368668,186.890458 188.022814,186.23267 188.667176,185.567074 C188.800223,185.429791 188.796962,185.211179 188.658698,185.079101 C188.521086,184.947023 188.301298,184.950276 188.169556,185.087559 C187.528454,185.749251 186.879526,186.402484 186.221468,187.048561 C186.084508,187.182591 186.083856,187.401203 186.217555,187.536534 C186.286034,187.605501 186.375384,187.639984 186.464734,187.639984 Z M218.522071,101.700108 C218.606811,102.615545 218.677145,103.533585 218.731379,104.45618 C218.742395,104.640959 218.940687,104.78605 219.180501,104.78605 L219.200839,104.78605 C219.449127,104.777592 219.640639,104.615584 219.629623,104.42495 C219.575389,103.497801 219.505055,102.572604 219.420315,101.65066 C219.401672,101.460025 219.169485,101.314284 218.939839,101.3312 C218.691551,101.344863 218.503429,101.510774 218.522071,101.700108 Z M218.816608,109.286463 L218.816608,109.503123 C218.816608,110.425718 218.799668,111.346361 218.763793,112.263099 C218.756817,112.453734 218.98801,112.613139 219.278993,112.617693 L219.291948,112.617693 C219.577948,112.617693 219.813126,112.468699 219.820102,112.281317 C219.855977,111.358072 219.872918,110.432224 219.872918,109.503774 L219.872918,109.287114 C219.872918,109.096479 219.636743,108.94228 219.344763,108.94228 C219.052783,108.94228 218.816608,109.095178 218.816608,109.286463 Z M191.717464,182.115478 C191.812684,182.115478 191.908555,182.075789 191.976383,181.999015 C192.592702,181.304792 193.199237,180.604062 193.79599,179.893573 C193.919254,179.747832 193.90034,179.530521 193.753598,179.407552 C193.606855,179.285234 193.389024,179.304753 193.265761,179.450494 C192.672921,180.155127 192.07095,180.851953 191.458545,181.541621 C191.33202,181.68411 191.345064,181.902071 191.488546,182.028944 C191.553765,182.086199 191.63594,182.115478 191.717464,182.115478 Z M110.862339,219.308676 L110.8656,219.308676 C111.795621,219.295262 112.723686,219.265561 113.647186,219.218615 C113.838277,219.209034 113.986976,218.973343 113.980454,218.691663 C113.97328,218.410941 113.810233,218.199202 113.623055,218.202076 C112.70412,218.248065 111.783882,218.278724 110.858426,218.292137 C110.667334,218.295011 110.513418,218.524954 110.515356,218.805676 C110.517983,219.084481 110.673204,219.308676 110.862339,219.308676 Z M98.4270521,217.717383 C97.5068135,217.614053 96.5911402,217.497897 95.6774235,217.3682 C95.4922018,217.343259 95.3148064,217.488633 95.2893711,217.695292 C95.2652401,217.902664 95.3989388,218.09222 95.5887258,218.118587 C96.50766,218.248283 97.4298552,218.365152 98.3546591,218.469907 C98.3670507,218.47062 98.3794423,218.472045 98.3905295,218.472045 C98.5653162,218.472045 98.7153196,218.327384 98.7342331,218.132839 C98.7557553,217.924042 98.6168391,217.738762 98.4270521,217.717383 Z M90.8910088,216.643806 C89.9812052,216.485052 89.0746626,216.315238 88.1713809,216.133712 C87.9842026,216.094674 87.8015897,216.217643 87.7637628,216.404374 C87.7259358,216.591105 87.8472429,216.773282 88.0344212,216.810368 C88.9429204,216.992544 89.8553327,217.16366 90.7716582,217.322414 C90.7912239,217.326318 90.8120939,217.32827 90.8316596,217.32827 C90.9966634,217.32827 91.1427537,217.209855 91.1727544,217.041992 C91.2053639,216.855912 91.0794914,216.676338 90.8910088,216.643806 Z M106.005488,219.180812 C106.190709,219.180812 106.343974,218.983334 106.351148,218.73144 C106.35767,218.474279 106.208318,218.258369 106.016575,218.249592 C105.092423,218.208341 104.17088,218.150414 103.251946,218.077567 C103.06542,218.055625 102.897155,218.258369 102.886068,218.51553 C102.874981,218.772691 103.019767,218.992989 103.210858,219.007909 C104.13501,219.080757 105.062422,219.139561 105.993096,219.182568 C105.997009,219.180812 106.001575,219.180812 106.005488,219.180812 Z M83.4462719,215.077087 C82.5495121,214.854571 81.6573176,214.622296 80.7690363,214.37831 C80.5857712,214.328862 80.3946798,214.435565 80.3431569,214.619694 C80.2929383,214.803822 80.4012017,214.994457 80.5844668,215.044556 C81.4779656,215.289843 82.3760298,215.52407 83.2793115,215.747237 C83.3073557,215.753743 83.3353998,215.757647 83.3627917,215.757647 C83.5186649,215.757647 83.6595377,215.652245 83.698669,215.495443 C83.7449744,215.310664 83.6321458,215.122631 83.4462719,215.077087 Z M68.9611553,210.391244 C68.1015703,210.045759 67.2485071,209.689213 66.4006615,209.321607 C66.226527,209.245483 66.0223919,209.326161 65.9447814,209.501181 C65.8697797,209.676851 65.9493467,209.879197 66.1247856,209.955321 C66.9785009,210.324879 67.8361294,210.683377 68.7002797,211.032115 C68.742672,211.048381 68.7863687,211.056839 68.8294131,211.056839 C68.9663728,211.056839 69.0961584,210.97551 69.1502901,210.84148 C69.2233353,210.665159 69.1378985,210.462813 68.9611553,210.391244 Z M76.1313206,212.992466 C75.2495612,212.706839 74.3730192,212.411453 73.5010426,212.104355 C73.3203863,212.039292 73.122773,212.134934 73.0595107,212.314509 C72.9962483,212.494733 73.0901636,212.691874 73.2708199,212.754986 C74.1486662,213.064035 75.0310779,213.362024 75.9180548,213.648302 C75.953273,213.659362 75.9897956,213.665218 76.0250138,213.665218 C76.1711042,213.665218 76.3061073,213.572178 76.3537171,213.426437 C76.4124141,213.246212 76.3126292,213.051023 76.1313206,212.992466 Z M46.5356382,198.11384 C46.3804173,198.004534 46.1651949,198.040969 46.0530184,198.195169 C45.9421463,198.350019 45.9786689,198.566028 46.134542,198.676635 C46.8910812,199.214056 47.6541423,199.74367 48.4243774,200.262223 C48.4837266,200.303212 48.5509021,200.32143 48.6180775,200.32143 C48.7289497,200.32143 48.8378652,200.268729 48.9050407,200.170484 C49.0119997,200.011079 48.9702596,199.797672 48.8117777,199.690318 C48.0461078,199.174368 47.2869599,198.649309 46.5356382,198.11384 Z M55.2684483,203.723579 C54.4682124,203.261631 53.6744985,202.789273 52.886002,202.307806 C52.7229548,202.20826 52.509689,202.259659 52.4099041,202.422317 C52.3101192,202.584975 52.3616421,202.79708 52.5246894,202.897278 C53.3177511,203.381347 54.1160304,203.856307 54.9221359,204.320207 C54.9769198,204.352088 55.0369212,204.367053 55.0956182,204.367053 C55.2143166,204.367053 55.3310584,204.304592 55.3956251,204.193985 C55.4914969,204.030026 55.4347565,203.818571 55.2684483,203.723579 Z M61.9964295,207.297494 C61.1642364,206.892151 60.3392174,206.476398 59.520068,206.050885 C59.3491945,205.9624 59.1404941,206.027463 59.0531008,206.197928 C58.9644031,206.365791 59.0309263,206.575294 59.2004955,206.66378 C60.0248623,207.091895 60.855751,207.5096 61.6925094,207.917545 C61.7420758,207.940317 61.7935987,207.952679 61.8444695,207.952679 C61.9722985,207.952679 62.09491,207.88111 62.1555636,207.759442 C62.2383916,207.588326 62.1679552,207.380775 61.9964295,207.297494 Z M162.042867,205.71516 C162.098955,205.71516 162.155695,205.701497 162.209175,205.673519 C163.022455,205.23044 163.829864,204.778251 164.631405,204.315653 C164.797061,204.220661 164.853801,204.009206 164.757929,203.844596 C164.662058,203.678685 164.448792,203.62208 164.285745,203.717723 C163.48877,204.177719 162.687229,204.627956 161.878515,205.066481 C161.71025,205.15887 161.648292,205.367723 161.739599,205.534935 C161.801557,205.650097 161.920255,205.71516 162.042867,205.71516 Z M196.57562,176.237028 C196.678665,176.237028 196.781711,176.190833 196.850191,176.102347 C197.415639,175.366484 197.971956,174.624765 198.519795,173.875238 C198.631971,173.72234 198.598057,173.50568 198.443489,173.393121 C198.289572,173.281212 198.073045,173.315045 197.960217,173.469244 C197.416943,174.213566 196.863235,174.951382 196.3017,175.681389 C196.184958,175.832986 196.214307,176.049646 196.364963,176.165459 C196.427573,176.214256 196.501922,176.237028 196.57562,176.237028 Z M168.601279,201.847159 C168.665846,201.847159 168.72976,201.828942 168.787805,201.793157 C169.569127,201.294774 170.343276,200.787282 171.111554,200.268729 C171.269384,200.162026 171.311776,199.947968 171.203513,199.789214 C171.096554,199.631111 170.881331,199.58947 170.72285,199.696824 C169.960441,200.210823 169.190858,200.715712 168.414753,201.210192 C168.253662,201.313642 168.206052,201.526398 168.308446,201.687104 C168.375621,201.789904 168.487798,201.847159 168.601279,201.847159 Z M155.232058,209.116007 C155.280972,209.116007 155.329234,209.106248 155.376843,209.085428 C156.220124,208.700905 157.056882,208.305972 157.886467,207.900629 C158.057992,207.816697 158.129081,207.609797 158.046253,207.438681 C157.961468,207.266914 157.752768,207.197948 157.583199,207.280578 C156.757528,207.683318 155.926639,208.074998 155.089228,208.457569 C154.915746,208.536946 154.83944,208.741895 154.917702,208.915613 C154.976399,209.041185 155.10162,209.116007 155.232058,209.116007 Z M140.960859,214.458988 C140.993468,214.458988 141.026078,214.454433 141.059339,214.444674 C141.950882,214.181168 142.837207,213.905952 143.718314,213.619674 C143.900275,213.560467 144.000059,213.365928 143.941362,213.184402 C143.881361,213.003527 143.687009,212.904631 143.505048,212.962537 C142.629158,213.246863 141.748703,213.520127 140.861726,213.782332 C140.678461,213.836985 140.574763,214.02827 140.628895,214.211748 C140.672591,214.362044 140.810855,214.458988 140.960859,214.458988 Z M148.194939,212.036039 C148.236027,212.036039 148.277115,212.029532 148.31755,212.013266 C149.18757,211.687951 150.052373,211.351575 150.911958,211.004789 C151.089353,210.933219 151.17479,210.731524 151.103049,210.555203 C151.030656,210.378231 150.828478,210.293649 150.652387,210.364568 C149.798019,210.709402 148.937782,211.043826 148.072979,211.368491 C147.89428,211.435506 147.803625,211.633949 147.870801,211.812872 C147.92428,211.950155 148.05537,212.036039 148.194939,212.036039 Z M18.6604303,49.1187251 C18.5012962,49.0126723 18.2860738,49.0562646 18.1804192,49.2163198 C17.6677987,49.9905705 17.164961,50.7706769 16.6719062,51.5566389 C16.5708169,51.718646 16.619731,51.9314023 16.7821261,52.0329007 C16.8388665,52.0680348 16.9034332,52.0856018 16.9653912,52.0856018 C17.0808286,52.0856018 17.1936573,52.0283463 17.2588762,51.9242453 C17.7493223,51.1421871 18.248899,50.3672857 18.7582586,49.5982401 C18.863261,49.4388355 18.8195644,49.224778 18.6604303,49.1187251 Z M194.967322,41.6273616 C195.035149,41.7125942 195.136239,41.7574877 195.237328,41.7574877 C195.312982,41.7574877 195.389288,41.7334144 195.453855,41.6820146 C195.602554,41.5629491 195.627337,41.3456384 195.507986,41.1966439 C195.014279,40.5804965 194.510137,39.9721567 194.003386,39.36707 L193.145758,39.36707 C193.158802,39.4126142 193.180324,39.4568571 193.212933,39.4952443 C193.80773,40.1979256 194.391439,40.9090651 194.967322,41.6273616" id="Shape"></path>
                        </g>
                        <path d="M10.8167198,56.770805 L10.8167198,55.9080685 C8.36448939,58.7539278 6.03617483,61.6817667 3.80373205,64.6681622 C3.86895095,64.8939311 3.92569139,65.1216519 3.97917088,65.350674 C6.16009073,62.4117745 8.44275206,59.5516013 10.8167198,56.770805 Z M267.815037,76.0060554 C267.958519,75.8713748 268.115044,75.745803 268.265047,75.6163275 C263.627984,68.2030396 258.364819,61.1319836 252.484683,54.4727769 L252.484683,55.3400678 C258.129379,61.7949764 263.262758,68.7020735 267.815037,76.0060554 Z M132.272564,0.67146153 C175.464429,0.67146153 214.690986,17.8923588 243.444692,45.8011689 L244.229928,45.8011689 C214.145756,16.3907028 174.458754,0.206911106 132.272564,0.206911106 C96.1471656,0.206911106 61.8492009,12.070514 33.8481205,33.9473256 L34.7761853,33.9473256 C61.7559379,13.1004626 95.58237,0.67146153 132.272564,0.67146153 Z M19.1223461,272.721039 C35.0638007,288.62571 53.7809714,300.751517 74.1794852,308.66579 C74.3757941,308.548026 74.5701464,308.424406 74.7684118,308.309895 C44.6940227,296.676616 19.0173437,276.192154 0.938013802,250.084941 L0.891056197,251.024452 C6.26444096,258.699293 12.3474073,265.962285 19.1223461,272.721039 Z M132.272564,319.013423 C130.234473,319.013423 128.204861,318.973735 126.185032,318.897611 C126.183076,319.049859 126.177858,319.201456 126.166119,319.353053 C128.195731,319.428526 130.23056,319.478624 132.272564,319.478624 C175.015071,319.478624 215.199693,302.873224 245.422781,272.721039 C252.911867,265.250495 259.564195,257.167708 265.336719,248.589141 L265.238891,247.714693 C236.631274,290.651774 187.712538,319.013423 132.272564,319.013423" id="Shape" fill="#B3E5FC"></path>
                    </g>
                </g>
            </g>
        </g>
    </g>
</svg>