<?xml version="1.0" encoding="UTF-8"?>
<svg width="474px" height="267px" viewBox="0 0 474 267" version="1.1" xmlns="http://www.w3.org/2000/svg" xmlns:xlink="http://www.w3.org/1999/xlink">
    <!-- Generator: Sketch 64 (93537) - https://sketch.com -->
    <title>Artwork</title>
    <desc>Created with Sketch.</desc>
    <defs>
        <linearGradient x1="-1.94352985%" y1="-7.68476283%" x2="83.7003738%" y2="78.8011309%" id="linearGradient-1">
            <stop stop-color="#03ACF2" offset="0%"></stop>
            <stop stop-color="#B3E5FC" offset="100%"></stop>
        </linearGradient>
        <linearGradient x1="109.881948%" y1="30.7683859%" x2="0%" y2="69.2316141%" id="linearGradient-2">
            <stop stop-color="#B3E5FC" offset="0%"></stop>
            <stop stop-color="#C8E6C9" offset="100%"></stop>
        </linearGradient>
        <linearGradient x1="5.2851727e-05%" y1="49.9998469%" x2="100.000044%" y2="49.9998469%" id="linearGradient-3">
            <stop stop-color="#03ACF2" offset="0%"></stop>
            <stop stop-color="#4CAF50" offset="100%"></stop>
        </linearGradient>
        <linearGradient x1="0%" y1="49.998783%" x2="100.001171%" y2="49.998783%" id="linearGradient-4">
            <stop stop-color="#03ACF2" offset="0%"></stop>
            <stop stop-color="#B3E5FC" offset="100%"></stop>
        </linearGradient>
    </defs>
    <g id="Forms" stroke="none" stroke-width="1" fill="none" fill-rule="evenodd">
        <g id="Login" transform="translate(-846.000000, -441.000000)">
            <g id="Right-Side" transform="translate(835.000000, 216.000000)">
                <g id="Artwork" transform="translate(11.000000, 225.000000)">
                    <g id="Group-7" transform="translate(95.000000, 73.000000)">
                        <g id="Group" fill="url(#linearGradient-1)">
                            <path d="M67.8725018,93.9399547 C65.47016,97.2648218 63.2599765,100.495786 60.7894728,103.838712 C59.1970965,105.994133 55.4764759,113.641399 51.6536126,109.147809 C47.748085,104.555981 52.5861244,100.053001 54.5562913,97.6404314 L69.8803752,78.5406845 C71.1167147,76.3924866 68.0646602,71.0479958 71.3770349,64.8504378 C72.9723117,61.8665086 77.4572149,56.934466 81.2945807,61.2973157 C81.0262842,65.6912254 75.250657,64.560785 77.7682939,73.7971689 C78.3940775,74.8062585 81.6839733,75.2187067 82.7926907,75.3248886 C83.3184069,74.0723752 85.964391,70.1689249 87.4704773,69.5144974 C90.5094797,72.4803684 88.1999539,78.9784141 86.2044077,81.3324749 C81.0777681,87.3805114 77.1512118,84.1589369 75.2499319,83.950907 L67.8725018,93.9399547 Z M130.990354,2.81201553 C129.735886,3.49533603 126.719363,5.12490372 124.541085,4.97899385 C123.366381,6.30518458 123.446145,5.92740802 122.105387,5.45283977 L122.080733,6.44242654 L121.169975,6.51538147 C118.600854,7.67688185 108.480273,11.456092 105.591372,11.8288123 C104.245538,13.092883 58.6162707,28.7290762 52.8710989,30.7429214 C43.898392,33.8872069 35.3411822,36.9115863 26.4750688,40.1035454 L6.48262483,47.1303338 C4.51245797,47.8851645 1.1935571,48.2376597 0.0348060393,49.9936344 L0.0377065426,166.657246 L126.430763,169.474318 L126.229903,168.335932 L125.665755,165.200314 L125.517104,162.286451 C125.635299,158.898019 131.132478,160.145476 134.417298,159.951893 C129.881636,155.502364 131.244148,157.786359 127.893341,156.230469 C125.825282,155.270497 127.087726,153.177196 127.525702,151.624195 C126.004389,151.249308 126.164641,151.557741 125.473596,150.019909 C127.188519,150.105866 126.103731,150.076973 127.622144,150.685894 C127.500323,148.619319 127.750491,149.118446 128.263155,148.633043 L128.526376,149.975847 C129.926594,148.709609 130.503794,147.134216 131.979425,145.990052 C131.022259,152.876709 136.0104,155.296501 137.991443,160.027737 L139.143668,160.029904 L139.047227,0.309877899 L138.304698,0.0317823487 C137.802911,1.30018699 138.733972,0.447842186 136.701445,1.20339529 C135.425223,1.67868587 131.888059,3.3812085 130.990354,2.81201553 Z" id="Shape"></path>
                        </g>
                        <g id="Group" transform="translate(51.000000, 59.000000)" fill="#FFFFFF">
                            <path d="M5.07399443,44.3864722 C5.50324932,45.6003328 5.51837407,46.2397057 5.16114181,47.5220966 C2.12538787,47.4623148 2.33281305,44.4375054 5.07399443,44.3864722 Z M24.9738477,24.671626 C26.8622811,24.8815911 30.7623066,28.1331337 35.8543067,22.0288364 C37.8363695,19.6528773 40.1302904,13.0936557 37.1118219,10.1009243 C35.6159118,10.7614394 32.9878059,14.7012009 32.4656419,15.9653656 C31.3644158,15.8574669 28.096749,15.441182 27.4751937,14.4227055 C24.9745679,5.10113079 30.7111705,6.24208687 30.9776543,1.80730359 C27.1662166,-2.59613074 22.7116168,2.38106234 21.1271189,5.39347801 C17.8371251,11.6486877 20.8685576,17.0421657 19.6405718,19.2110758 L4.42002893,38.4884948 C2.46317402,40.9227774 -2.34217599,45.4683756 1.53696297,50.1021883 C5.33399613,54.6383089 9.02947738,46.919176 10.6110944,44.7444335 C13.0649055,41.3704113 15.2601553,38.1093912 17.6462651,34.7535951 L24.9738477,24.671626 Z" id="Shape"></path>
                        </g>
                    </g>
                    <g id="Group" transform="translate(38.000000, 0.000000)" fill="url(#linearGradient-2)">
                        <path d="M181.635434,30.935596 C181.033872,36.8937608 180.836971,41.1445307 182.047333,47.2155094 C183.005054,43.8831604 181.605754,41.0910164 184.622249,38.985157 C187.36511,37.0709365 190.982443,38.536794 192.131274,40.9919427 C194.565753,46.1907832 186.871409,50.8342322 183.416954,53.1107588 C185.574903,60.516702 190.789161,66.0749561 194.872687,69.6177464 C196.321212,67.1821233 196.288637,62.8257711 197.732095,59.9106889 C201.725133,51.8473878 212.955732,61.9724352 204.606259,66.7684723 C202.18119,68.1620132 197.450498,69.3125703 195.750054,70.5231503 L197.005299,72.2262062 C198.43066,73.6392726 203.130225,75.0111186 205.278763,75.7371773 C225.194725,82.4705761 245.968511,90.3292212 266.080651,97.2636602 C277.709396,101.272169 289.139068,105.412295 300.819933,109.563268 L326.899189,118.774233 C328.817526,119.474258 334.225066,120.668928 335.079269,122.298221 L335.079269,235.437545 L351.424953,233.733766 L351.091958,239.399049 L351.685557,238.362029 L351.73623,121.864322 C350.867549,124.005616 351.453909,150.827121 351.453909,155.594231 C348.81167,154.442228 345.336946,150.631866 343.831232,148.4103 C341.818787,145.431579 340.327551,142.364632 339.987318,137.961997 C338.981095,124.944286 351.106436,108.957978 359.916311,100.068821 L373.634234,84.6017463 C382.530976,74.921446 392.991345,59.9649264 392.028557,45.3331083 C390.957183,29.0105281 378.252722,17.8101327 367.66929,11.8910189 C354.762136,4.67599148 336.17236,1.58879575 319.073819,4.44168569 C297.173644,8.09512043 296.417892,16.1468509 281.173262,24.4357798 C260.280756,35.7945485 230.995344,37.8324303 206.662861,35.1625014 C196.432693,34.0401477 188.977961,31.876435 181.635434,30.935596 Z M19.5286758,129.258694 L41.3477742,121.894695 L41.2551148,237.024172 C52.7101234,238.516063 62.8881707,240.348566 74.9027547,241.270602 C97.262607,242.985952 124.243843,243.215919 146.906286,243.202069 C158.888294,243.194224 171.974976,242.328594 183.711582,242.795036 L183.622542,241.917836 L57.4429878,239.097489 L57.4400922,122.298221 C58.5968859,120.540205 61.9101805,120.186577 63.8770194,119.431591 L83.8356923,112.396632 C92.6868292,109.200962 101.229584,106.173066 110.187135,103.024401 C115.922602,101.008937 161.474793,85.3545622 162.818353,84.0890216 C163.081853,74.7413777 167.583793,77.0005483 173.277274,77.3144024 L175.011016,77.1198707 C172.986989,76.3800719 170.349818,74.5446765 168.87668,73.3731475 C167.626503,72.3787943 167.511403,72.5711564 166.310451,71.145073 C165.556146,70.2490703 165.109499,69.9424479 164.130061,68.9162754 C163.15931,68.2733808 162.259501,66.8971958 161.284407,65.7415765 C158.292524,66.3222789 155.370136,67.8423738 152.042363,68.2104653 C142.610658,69.2532707 144.939447,55.7503148 152.606282,58.2770569 C154.667228,58.9561098 157.903065,61.9962997 159.484789,63.0282576 C158.242575,60.4176283 156.851237,58.1794295 155.583687,55.2281889 C153.271547,53.9583094 148.806526,53.4296751 145.86966,51.95297 C137.429699,47.710155 148.754405,36.3036574 153.053653,45.6375612 C153.994,47.6783357 155.332493,53.8136762 156.505213,55.0206403 C157.570795,58.1360395 159.4942,61.3013372 161.190299,63.582926 C160.984712,60.5586457 158.078973,58.4216901 160.459883,54.8897472 C161.792585,52.9133345 165.326669,51.8083368 167.928369,53.8505577 C173.020289,57.8474963 166.378498,64.6561043 165.21736,68.7759812 C167.239216,70.7191283 168.835417,72.3932576 171.51747,74.1946641 C172.900845,75.1239325 177.271759,77.6485051 179.304473,77.7056352 C180.642966,78.1807552 180.563337,78.5589711 181.736056,77.2312383 L181.253938,72.7418236 C180.191251,70.8652078 180.720423,72.1719688 178.487913,71.1617059 C175.388893,69.7594869 174.515868,65.5622314 176.950347,63.0781561 C180.588673,59.3661449 184.583158,63.3761005 188.351787,64.4001036 C187.716202,63.1323935 186.852588,62.2667638 186.097559,60.9469858 C185.465594,59.8427113 184.777888,58.6133291 184.116966,57.2443758 C182.921806,54.7718712 181.849709,51.7483141 181.303887,48.8491415 C178.240338,48.6567793 173.730436,48.267716 171.002053,47.305182 C168.187526,46.3122751 166.289458,42.7687616 168.565402,39.4718477 C170.347646,36.8894218 174.312452,36.659455 176.60577,39.090016 C177.589551,40.1328214 180.367159,44.7885643 180.553202,46.0823083 L180.18908,36.4887879 C178.417694,35.7916558 176.726662,34.0285771 175.238321,32.6357593 C173.552356,31.0578111 172.567127,30.3534474 171.573935,28.1593617 C168.07315,28.0776439 157.467277,24.5247292 153.582824,23.3640478 C117.164816,12.4818455 59.2621508,-9.51107949 25.2945468,4.71504245 C14.8081177,9.10682969 8.05774142,16.8483219 4.04877798,28.3314752 C0.428549359,38.6995064 -2.17459844,56.2095252 2.86085653,66.4141209 C7.59154921,76.0011329 16.8458989,80.6814633 21.8422632,92.2998486 C28.0323402,106.696638 23.2343247,117.546298 19.5286758,129.258694 Z M190.886164,69.9742673 C190.535072,72.5711564 188.92584,73.1807854 188.174431,75.0617402 C189.07062,75.631595 192.601809,73.9270927 193.875875,73.4512495 C195.904969,72.6948178 194.97548,73.5481537 195.47642,72.2782742 C195.259974,71.4046896 195.713859,72.0750645 194.841559,70.9346317 C194.586746,70.600529 194.096665,70.1413186 193.774529,69.8216792 C192.842144,68.8981962 192.413595,68.4035507 191.329915,67.7657182 L190.886164,69.9742673 Z" id="Shape"></path>
                    </g>
                    <g id="Group-8" transform="translate(234.000000, 73.000000)">
                        <g id="Group" fill="url(#linearGradient-3)">
                            <path d="M0.0406070459,0.378498879 L0.13704878,160.098525 L1.75480448,160.084079 C3.71191907,155.157092 8.83420786,153.183697 7.78060004,146.081065 C9.22505067,147.173944 10.1249318,148.6446 11.2684552,150.120312 C11.307612,147.876767 11.3126879,149.276635 11.7463131,148.771007 C12.3365656,149.77504 12.1676113,149.100388 12.0936484,150.737901 C12.2292469,150.687338 12.915216,150.337732 13.0225346,150.320397 C14.1435791,150.134759 13.6367162,150.218549 14.2704761,150.489421 C13.7483855,151.065115 14.3263108,150.740068 13.4184533,151.320818 C13.1588582,151.486953 12.7411858,151.609749 12.2974088,151.759993 C12.7817928,154.073603 14.2052148,155.681501 10.9008164,156.640028 C7.79582768,157.540046 8.13228607,157.063311 5.3499783,160.038572 C8.55140879,160.167868 14.0659906,159.024426 14.2501726,162.314622 L14.148655,165.268935 L13.4924161,168.437058 L13.3408648,169.670068 L104.245538,167.901814 C103.561019,164.725024 103.025151,165.061628 102.949738,160.914031 C102.898254,158.055065 102.338457,155.663443 102.18473,153.050789 C101.89323,148.083353 103.85107,141.544134 102.98672,137.157448 C100.2791,132.562732 104.499332,128.116814 102.724949,117.702317 C94.6071657,115.559175 95.6941293,114.154973 94.1648389,113.094598 C92.4600681,113.652956 46.3043595,113.631287 43.7163854,113.002141 C37.9016015,111.589271 33.5907285,104.821075 33.2861756,97.4569605 C32.948267,89.2816737 37.1112143,82.6348288 42.5866394,80.3486667 C43.7403146,72.0130234 47.4819638,65.4846401 56.646829,68.2020309 C69.4670535,47.8259338 92.3527495,56.6029183 95.3170638,80.2959369 C100.168881,82.5727088 100.578577,82.5849883 103.117242,86.4306525 C105.326701,89.7771894 105.945958,93.3895422 105.959735,97.9676451 C107.650004,96.9224392 108.43749,95.0378904 110.842733,94.9649355 C113.366171,94.8890912 114.888935,96.2290061 115.679322,97.8332924 C117.811192,102.166527 118.181006,105.136732 117.782187,110.463164 L118.855373,110.734037 C121.871896,121.867249 124.054525,119.560862 119.391966,127.296252 C118.848122,128.19627 118.4348,128.785688 117.803941,129.620697 C117.499388,130.028089 117.310855,130.316297 117.064312,130.623286 L115.867855,131.85413 C114.91794,130.754027 114.482864,130.816869 114.780166,128.713456 C113.70698,130.734524 115.070216,130.877545 115.817096,134.044945 C119.935811,139.832222 117.709674,142.487492 116.977297,149.246298 C116.324684,155.273387 118.021478,161.436995 117.840197,167.61794 L139.100886,166.950511 L139.137142,163.070175 L139.137142,50.0622554 C138.281494,48.4348547 132.864804,47.241572 130.94322,46.541638 L104.819838,37.3420927 C93.1192075,33.1959408 81.6701959,29.0606239 70.0217748,25.056048 C49.8756041,18.1303853 29.0666685,10.2808675 9.11700693,3.55528909 C6.9648335,2.83007368 2.25731668,1.45982106 0.829543937,0.0483958491 C0.585176536,0.591585081 1.71709794,0.702823301 0.0406070459,0.378498879 Z" id="Path"></path>
                        </g>
                        <g id="Group" transform="translate(55.000000, 73.000000)" fill="#357A38">
                            <path d="M9.734089,21.6276027 L8.72906461,20.6718869 C6.93510334,18.6205059 4.64298062,14.6953999 2.75112736,14.0130565 C1.77293263,14.961521 0.68161827,16.3697154 0.0166778938,17.4704564 C0.399544327,18.9294095 8.39405649,29.0717444 9.734089,29.0666704 C11.0929748,29.0615926 19.1621749,18.3957169 20.4311451,16.8272698 C22.1141621,14.7476089 29.8519797,5.47397481 30.4719623,3.65753463 C29.9099898,2.73662484 28.5358764,0.84984746 27.6280188,0.0587351914 C26.2829105,0.631584589 24.1858466,3.84389197 23.127888,5.1143124 L9.734089,21.6276027 Z" id="Path"></path>
                        </g>
                    </g>
                    <g id="Group-4" transform="translate(0.000000, 122.000000)">
                        <g id="Group" fill="#4CAF50">
                            <path d="M45.5166572,48.2568685 C46.6384297,48.5085303 47.1881198,47.1149894 47.1194989,52.6566106 C47.0154839,61.0489522 48.2665527,73.9162452 44.8983461,79.7254379 C42.011931,84.7029896 34.946137,85.3075564 32.5198436,75.801539 C31.4999192,71.8060468 31.6754444,44.7979654 32.1059508,41.6124191 C33.1663255,33.7776385 39.8297838,30.7605898 42.6735817,38.7161392 C43.8307481,41.9544766 43.9629338,69.115146 43.1228685,72.3028618 C42.2459646,75.6258097 39.1666884,77.7316692 36.9267552,74.4868232 C35.0920469,71.8291881 35.6323468,67.3961804 35.6337915,63.9799441 C35.6345138,60.9057654 34.7243829,54.8282781 36.549701,53.0058998 C40.4220912,55.2007086 34.7951708,70.251963 39.5928608,72.7743661 C42.5493416,70.8955808 41.4239575,62.2291592 41.4239575,58.3218932 C41.4239575,53.8281395 41.8616871,46.3918233 41.3011621,42.2401272 C40.4733764,36.1098489 35.3737541,36.319567 34.2433137,41.5878315 C33.7319068,43.9742793 33.7376854,71.1551974 34.250537,73.6631371 C35.1686134,78.1525518 39.243255,82.6267799 42.9198949,78.1858174 C47.5167782,72.6326255 43.1337034,54.418243 45.5166572,48.2568685 Z M57.2638467,7.39364939 C53.6124882,9.23049108 47.401206,10.8959424 43.3301761,12.4355629 L14.4515784,22.6893339 C10.1920214,24.3063331 4.28845009,26.5937072 0.0310600226,27.7312474 L0.0310600226,117.473258 C2.21681882,117.473258 8.83260362,116.990183 10.2714772,117.833394 C10.8861767,117.230997 14.5057529,111.287296 14.6791111,110.830255 C15.8500017,107.743059 15.6607523,103.848087 15.6080225,100.348686 C14.8373005,99.736888 14.8734168,99.4100169 14.4689142,99.1843891 L12.6002566,98.800388 C12.6522641,93.5509258 13.888164,86.8753803 14.6704432,81.8652861 L13.0567667,81.3098946 C15.0518314,79.1678769 13.5652843,79.6842174 13.6750778,77.0764807 C13.7422542,75.4768375 15.020049,74.5576935 15.556015,72.9609429 C16.2162211,70.9939313 16.0558647,69.864346 17.8010046,69.1353947 C22.8587319,67.0244731 22.8804017,72.503902 23.890936,74.5143035 C25.4728301,77.661522 23.4163677,76.0734495 23.1108238,79.425324 C23.2877937,80.6720622 26.0210756,86.7061595 26.7564036,88.6232726 C27.8413374,91.4537444 26.8365818,90.8347143 26.6292742,93.6181803 C26.4970885,95.3913834 27.0785611,98.3093582 27.2829793,100.104256 C27.8543393,103.178435 27.7604369,107.385815 27.446225,110.552559 L28.0211966,121.428253 L27.9280166,117.473258 L79.0174197,117.468196 L78.9430201,115.158403 L79.0354779,0.0296498068 L57.2638467,7.39364939 Z" id="Shape"></path>
                        </g>
                        <g id="Group" transform="translate(32.000000, 34.000000)" fill="#FFFFFF">
                            <path d="M14.047353,14.1754944 C11.622836,20.3125429 16.0823598,38.452163 11.4052982,43.982781 C7.66453092,48.406411 3.51882002,43.9496505 2.58473058,39.4784855 C2.06293396,36.9807407 2.05705456,9.91031417 2.57738133,7.53428754 C3.72753867,2.28743879 8.91610788,2.07857316 9.75833172,8.18393168 C10.3286334,12.3180308 9.88326894,19.724118 9.88326894,24.2003246 C9.88326894,28.0917074 11.0282818,36.7228996 8.02023453,38.5933274 C3.13886389,36.081178 8.86392822,21.0911076 4.92399627,18.9059409 C3.06684126,20.720191 3.99284653,26.7736932 3.99211161,29.8353753 C3.99064176,33.2370042 3.44091799,37.6519916 5.30762703,40.2988233 C7.58662889,43.5304788 10.7196134,41.4331798 11.6118121,38.1237398 C12.4665297,34.9497024 12.3320384,7.89872206 11.1546889,4.67426882 C8.26128987,-3.24894093 1.48160843,-0.244876949 0.4027388,7.55877524 C-0.0352763912,10.730652 -0.213863122,37.6289443 0.82385072,41.6081948 C3.29246318,51.07629 10.4814977,50.4741808 13.4182573,45.5161428 C16.8452117,39.7305648 15.5723219,26.9155778 15.6781511,18.5573514 C15.747969,13.0382571 15.1886912,14.4268534 14.047353,14.1754944" id="Path"></path>
                        </g>
                    </g>
                    <g id="Group-10" transform="translate(390.000000, 122.000000)">
                        <g id="Group" fill="#03ACF2">
                            <path d="M24.8624646,70.8449591 C27.7373225,70.4819298 30.5977338,62.9978847 33.0536426,61.0822179 C34.115462,61.8704688 34.9533603,63.3927333 36.0874122,64.4427704 C37.6042971,65.8449893 38.6083304,66.0576001 40.8764343,66.0576001 C45.6510099,66.0576001 44.5964138,64.4514484 46.9656434,62.3904252 L52.5781172,70.1268553 C53.3943457,71.3728703 53.3798992,72.0099796 55.1134819,72.124963 C56.4786782,69.7790124 53.9577601,67.5263503 52.8526012,65.9303229 C51.3862792,63.8128928 50.0788689,62.1315318 48.7497889,60.0806329 C49.0676124,59.1896924 51.6535398,55.2723021 52.404759,54.6691816 C54.203351,53.2308044 56.6159202,54.4023333 58.5156378,51.9898515 L58.602317,71.8328039 C58.602317,74.4665746 58.270047,75.2179441 57.0059763,76.5659255 C55.698566,77.2724587 31.5367578,75.8174487 26.5093681,75.6330414 C22.2909836,75.4782838 21.3447364,75.0154576 21.3447364,70.5267661 L21.3664062,45.318645 C22.5726908,46.2529755 25.1441717,49.9816195 26.31434,51.5928334 C27.3978292,53.0934029 29.9187473,56.9789739 31.3056134,58.1403785 C29.5720308,63.1497495 22.8399515,67.5234576 24.8624646,70.8449591 Z M53.1054153,40.8299535 C58.2339307,38.4868956 60.9498768,49.2815948 55.7996917,51.5479971 C50.2811202,53.9756654 47.4568252,43.410933 53.1054153,40.8299535 Z M48.8220215,42.3464326 C48.3308397,48.820938 47.8829976,47.383284 50.5122646,52.6811982 C49.7104826,54.1383778 48.2586071,55.7922584 47.1967878,57.2617318 C44.0402227,61.6397789 43.2962268,64.3509283 38.7022328,62.7035561 C35.7190259,61.6325472 22.8110584,42.1591326 22.7966119,41.5437183 C25.6064605,40.5103141 44.3147066,42.1641948 48.8220215,42.3464326 Z M0.0144465221,116.51434 C1.60356395,115.47732 2.91819747,114.792481 5.23686427,115.277726 L4.47842186,117.539789 L78.6468664,118.038774 C78.8780108,118.397464 79.022476,118.639725 79.1669412,118.856674 C79.217504,116.442746 80.2721001,120.51851 79.5281043,117.682253 C79.0296992,115.760801 78.7335455,119.979028 79.1236016,116.178067 C81.2616869,115.495399 78.856341,116.784081 83.0458324,115.789004 L82.3668459,116.936669 C83.6381398,116.076824 83.1397348,116.560622 83.5297909,115.064392 L79.9614999,115.303037 L79.9831697,28.1470678 L0.0650093495,0.0166328185 L0.0144465221,116.51434 Z" id="Shape"></path>
                        </g>
                        <g id="Group" transform="translate(21.000000, 45.000000)" fill="#FFFFFF">
                            <path d="M3.5435135,25.6128942 C1.5268798,22.2823913 8.23938911,17.8975555 9.96793228,12.8738838 C8.58509774,11.7100569 6.07150788,7.8132307 4.9911684,6.30931975 C3.82440176,4.6930143 1.26039606,0.954990704 0.0576181057,0.0174030197 L0.036011316,25.2938388 C0.036011316,29.7954199 0.979507796,30.2587753 5.18562951,30.4139522 C10.1984047,30.5995845 34.2899751,32.0578125 35.5935848,31.3500897 C36.8539808,29.9984552 37.1852849,29.2450494 37.1852849,26.6034161 L37.0988578,6.70741383 C35.2046626,9.12570844 32.7991066,7.95100461 31.0057431,9.39327987 C30.2567077,9.9980348 27.6782975,13.9260414 27.3613979,14.8193964 C28.6866144,16.8765783 29.990224,18.5617707 31.4522834,20.6856643 C32.5542297,22.2860169 35.0678196,24.5447839 33.7065918,26.897092 C31.9780486,26.7810719 31.9924532,26.142236 31.1785974,24.8935694 L25.5824389,17.1361734 C23.2200966,19.202782 24.271627,20.8125613 19.510931,20.8125613 C17.2494204,20.8125613 16.2483058,20.6000994 14.7358305,19.1940804 C13.6050752,18.1411978 12.7696127,16.6140828 11.71088,15.8236956 C9.26211048,17.7445539 6.41001425,25.248881 3.5435135,25.6128942" id="Path"></path>
                        </g>
                        <g id="Group" transform="translate(23.000000, 41.000000)" fill="#FFFFFF">
                            <path d="M27.8665852,11.7014729 C25.2271273,6.31741373 25.6767053,7.77844426 26.1697908,1.19866238 C21.6450057,1.01346132 2.86424699,-0.667311734 0.0435075492,0.383630754 C0.0580100656,1.00831685 13.0160085,20.7983723 16.0107781,21.886796 C20.6225783,23.5609547 21.3694579,20.8057216 24.5382577,16.3564867 C25.6041927,14.8631195 27.0616956,13.1823464 27.8665852,11.7014729" id="Path"></path>
                        </g>
                        <g id="Group" transform="translate(50.000000, 41.000000)" fill="#FFFFFF">
                            <path d="M3.0478802,0.337947828 C-2.46934739,2.85597663 0.289266408,13.1637381 5.67949899,10.7952812 C10.7099124,8.58415704 8.05712775,-1.94796232 3.0478802,0.337947828" id="Path"></path>
                        </g>
                    </g>
                    <g id="Group" transform="translate(267.000000, 129.000000)" fill="#FDFDFF">
                        <path d="M44.3015619,21.6147386 C45.3595205,20.33818 47.4565844,17.1077798 48.8016928,16.5318339 C49.7095503,17.3279515 51.0836637,19.2241986 51.6456362,20.1500863 C51.0256537,21.9763451 43.287836,31.300107 41.604819,33.3910092 C40.3358488,34.9686635 32.2666487,45.6914635 30.9077629,45.6965687 C29.5677304,45.7016701 21.5732183,35.5052409 21.1903518,34.0384015 C21.8552922,32.9309816 22.9466066,31.5151753 23.9248013,30.5615839 C25.8166545,31.2476157 28.1087773,35.1939385 29.9027385,37.256408 L30.9077629,38.2172899 L44.3015619,21.6147386 Z M60.9540764,56.8495036 C60.2688325,55.2645589 59.2797609,55.0626133 58.8918186,52.4956444 L56.6359521,49.8346286 C56.9202014,49.1959848 57.2950915,49.0552791 57.4894252,47.6329115 L57.5307574,47.2632854 C59.0165402,48.3058204 59.7844484,49.2521213 60.6857798,51.1840917 C62.3774984,51.7017139 61.2796579,51.6142285 62.8611573,52.7930949 C64.3215607,53.8815597 63.8864852,53.1423077 65.0329091,54.7469367 C67.7383535,54.6536188 70.2755688,50.8239433 71.0594298,48.1016877 C70.5547422,45.0797944 71.7903566,44.0095557 72.748973,41.5818345 C72.7351956,36.9611446 72.1159381,33.3151885 69.9064797,29.9375211 C67.3678143,26.0553542 66.9581182,26.0429604 62.1063013,23.7450093 C59.141987,-0.167680446 36.256291,-9.02704037 23.4360665,11.5386018 C14.2712013,8.79593297 10.529552,15.3850455 9.37587685,23.7982296 C3.90045178,26.1056583 -0.262495547,32.8150633 0.0754130852,41.0663994 C0.379965929,48.4982884 4.69083893,55.3294439 10.5056229,56.7554568 C13.0935969,57.3904553 59.2493056,57.4123267 60.9540764,56.8495036" id="Shape"></path>
                    </g>
                    <g id="Group-9" transform="translate(322.000000, 167.000000)">
                        <g id="Group" transform="translate(12.000000, 39.000000)" fill="#01579B">
                            <path d="M3.47325469,3.20998698 C4.34928507,7.6374798 2.36498806,14.237528 2.66042784,19.2511733 C2.8162319,21.8881306 3.38359386,24.302 3.43577352,27.1875617 C3.5122057,31.3737405 4.05531514,31.0332763 4.74908417,34.2403471 C5.34437327,37.6136403 5.86543496,37.1528836 5.69640226,41.2420993 C5.60012711,43.54807 6.46807331,46.8579362 5.99845636,48.700234 C5.91908448,50.2275841 6.2306926,50.5046214 5.28337451,51.42978 L4.7145427,51.7695152 C6.20423531,53.3311305 5.23780917,53.5104756 4.53301627,55.8609181 L0.0249874438,56.1518072 C0.893668577,57.9853564 3.08888901,59.0679888 6.11971895,58.9411349 C9.38498991,58.8040744 7.06924181,58.1821987 9.35412307,57.5814652 C11.642679,56.9800028 12.3687847,58.6983628 12.8170888,58.9834196 C13.1037095,55.3761029 13.1992497,59.7722467 14.2281445,55.7216704 C15.0659587,52.4285722 14.2501922,54.6047728 16.5284591,53.5243275 C16.7268888,51.9342794 16.6313486,50.6744889 17.3221779,49.6428897 L18.5274546,33.9538323 C18.7111858,27.7153906 16.9914618,21.4944461 17.6528941,15.4112911 C18.3951682,8.58961312 20.6513874,5.90964216 16.4770144,0.0685302693 C12.9493753,1.12783326 7.4153914,3.15749571 3.47325469,3.20998698" id="Path"></path>
                        </g>
                        <g id="Group" transform="translate(16.000000, 0.000000)" fill="#212121">
                            <path d="M1.85642009,3.06438171 C0.88484948,5.47905069 -0.367462409,6.54426052 0.144045264,9.54990704 C3.05581739,12.1415067 1.13545884,13.3734955 1.06931561,16.4676074 C8.28260269,21.7661017 4.39852503,27.9376476 4.4066092,28.9165674 C7.95923577,29.9447958 7.77550456,28.2523522 9.43643465,26.8187784 L12.0601162,28.1312562 L12.7362471,28.4967196 C13.4711719,28.1095024 15.3819764,27.8317792 16.0948535,27.51925 C17.3074794,22.1605702 12.8244381,21.2737413 13.8386343,15.6083333 C14.242843,10.2612555 13.8680313,7.2795381 11.7073523,2.92950831 C10.9062843,1.31900387 9.36294217,-0.0261045295 6.80540381,0.0507588074 C4.36765819,0.123271389 3.56952984,2.01584978 1.85642009,3.06438171" id="Path"></path>
                        </g>
                        <g id="Group" transform="translate(0.000000, 88.000000)" fill="#F0EFFF">
                            <path d="M28.7154234,0.955284674 C28.0384107,1.95290102 28.1320401,3.1720531 27.937579,4.71151481 C25.7048774,5.75640152 26.5043286,3.65110649 25.6832706,6.83727015 C24.6749537,10.7571827 24.5813243,6.50284996 24.3004361,9.99450716 C23.861098,9.71794025 23.1495144,8.05501117 20.9067296,8.63707163 C18.667546,9.21842655 20.9369791,9.82024179 17.7370136,9.95288102 C14.7668003,10.0756429 12.6154842,9.02863957 11.7641767,7.25353156 L16.182045,6.97202596 C16.872742,4.69810978 17.8198396,4.52384441 16.3599409,3.01260381 L16.917396,2.68382784 C17.8457678,1.78851303 17.5403918,1.52041246 17.6181763,0.0423316695 C17.5317491,0.155216121 17.4611669,0.316076465 17.4028286,0.409911666 L16.0336784,2.2414619 C12.7782554,4.97326563 0.930532406,2.97803295 0.0136843001,8.53265351 C3.86041308,13.3210709 24.2644247,11.1565115 31.1930019,9.38352006 C33.8794461,8.69774702 37.9415226,7.93507144 38.3808606,5.17575212 C36.8827899,3.17840285 32.4173867,2.73815349 29.0179185,2.51802881 L28.7154234,0.955284674 Z" id="Path"></path>
                        </g>
                        <g id="Group" transform="translate(4.000000, 13.000000)" fill="url(#linearGradient-4)">
                            <path d="M24.6035191,15.9404409 C24.0814285,18.1201691 23.900147,19.7553278 22.6891869,21.3730835 C22.3918853,23.4846499 22.8269608,23.421564 23.7768756,24.5266557 L24.9733332,23.2903162 C25.219876,22.9828628 25.4084087,22.6935376 25.7129616,22.2838416 C26.343821,21.4455961 26.7571427,20.8546186 27.3009871,19.9511118 C31.9635461,12.1857394 29.7809174,14.500341 26.764394,3.32470188 L25.6912078,3.0527797 C24.6905342,8.7174626 29.1138017,9.60429148 27.917344,14.9629713 C27.213972,15.2762256 25.3286449,15.5532237 24.6035191,15.9404409 Z M0.0116020131,1.36396167 C0.399544327,3.91712968 1.38861594,4.11798953 2.07385984,5.69441306 C3.6031502,6.75817264 2.51618659,8.16781723 10.6339701,10.3192655 C12.408353,20.7748547 8.18812075,25.237279 10.8957406,29.8498044 C14.7853155,29.7975953 20.2455129,27.7795701 23.7261168,26.7252372 C22.9792372,23.5462856 21.6160007,23.4027107 22.6891869,21.3730835 C22.1525938,18.056358 22.8559658,18.6654637 23.9364033,15.5749775 L21.3477041,14.2632249 C19.7089198,15.6960735 19.8902012,17.3885172 16.384943,16.3602887 C16.3769666,15.382094 20.2092566,9.21054816 13.0921467,3.91132867 C8.77402242,4.3391529 11.0559934,5.10561089 6.15269258,3.6031502 C5.00626866,2.00714827 5.44134415,2.74242585 3.98094075,1.659813 C2.39944134,0.487284551 3.49728183,0.574299649 1.80556329,0.0594603172 C0.350960897,0.24799303 0.452478511,-0.015952768 0.0116020131,1.36396167 Z" id="Shape"></path>
                        </g>
                    </g>
                    <g id="Group" transform="translate(206.000000, 218.000000)">
                        <g id="Group-2" transform="translate(0.058010, 0.021313)">
                            <path d="M15.2008599,24.1582415 L15.2900503,25.0504402 L16.9991719,38.9912291 C17.3581092,41.5884534 18.1804018,42.2711986 20.8213101,42.7393457 C23.0271428,43.1295907 26.2894839,42.931161 28.612787,42.9326309 C40.8318822,42.9363055 37.2744149,41.9948668 39.6927095,38.5664425 C39.2931652,35.1578612 40.5512585,27.9945491 41.1175818,24.2883232 L41.2691331,23.0338065 L15,23 L15.2008599,24.1582415 Z" id="Path" fill="#B3E5FC"></path>
                            <g id="Group" transform="translate(0.941990, 38.978687)" fill="#F0EFFF">
                                <path d="M15.9930693,0.462120725 C12.856716,0.637091625 1.29988798,1.30734306 0.0393684526,4.13157094 C3.43307488,9.622694 51.1527427,9.5669573 54.3576264,4.13157094 C54.0747568,3.50647329 54.5515525,4.0899448 53.8472946,3.41616573 L51.1833626,2.18290309 C49.920656,1.81885073 48.6025419,1.59802052 47.1721548,1.36307976 C45.5755453,1.10062341 39.6863164,0.979978148 38.8092748,0.0543256425 C36.3779083,3.34631847 39.9546051,4.25009961 27.6694608,4.24586645 C25.3335992,4.24445539 22.0536239,4.43565343 19.8358677,4.06031263 C17.1806843,3.6108914 16.3539468,2.95545606 15.9930693,0.462120725" id="Path"></path>
                            </g>
                            <g id="Group" transform="translate(14.941990, 19.978687)" fill="#00BCD4">
                                <path d="M0.577925278,0.990561065 L1.81125861,2.19056107 C0.184111103,1.6024816 1.41929768,2.10087327 0.577925278,0.990561065 Z M0.565598139,3.11490534 L26.8347312,3.1466541 L27.4909701,0.052209059 L0.00145025164,0.052209059 L0.565598139,3.11490534 Z" id="Shape"></path>
                            </g>
                            <g id="Group" transform="translate(14.941990, 16.978687)" fill="#01579B">
                                <path d="M0.218987997,2.92794047 L27.7085078,2.92794047 L27.8100254,0.0423316695 C25.4439399,0.630036347 2.66338713,0.613809207 0.0703372045,0.0818412276 L0.218987997,2.92794047 Z" id="Path"></path>
                            </g>
                            <g id="Group" transform="translate(14.941990, 14.978687)" fill="#B3E5FC">
                                <path d="M0.0703372045,2.40443883 C2.66338713,2.9364068 25.4439399,2.95263394 27.8100254,2.36563479 C27.6258435,-0.848749973 22.1112616,0.268100573 18.9098311,0.141811093 L15.3146573,0.186259346 L13.6969016,0.200369902 L12.5446767,0.198253319 L8.97053151,0.124172897 C5.68571155,0.313254354 0.188532713,-0.905192199 0.0703372045,2.40443883" id="Path"></path>
                            </g>
                            <g id="Group" transform="translate(15.941990, 0.978687)" fill="#00BCD4">
                                <path d="M1.79697937,4.07074856 C1.51829588,5.55088714 1.77793012,5.3245303 0.823350971,5.74784699 C0.397212165,7.32867028 -0.831111777,9.45774747 1.18105358,10.4351975 C4.44129765,12.0182255 3.11561087,9.69439326 7.52868741,14.2215301 L11.0062341,14.2986972 C9.07873204,9.48420476 4.22540614,7.02220663 5.15670287,0.0154334212 C3.72095375,1.17955433 3.1593536,2.78316028 1.79697937,4.07074856" id="Path"></path>
                            </g>
                            <g id="Group" transform="translate(29.941990, 0.978687)" fill="#00BCD4">
                                <path d="M0.0141105565,14.2751796 L3.51211751,14.2288794 C6.21922777,11.202459 5.89186286,11.6867744 8.912933,10.7703232 C12.1280233,9.79581289 10.7430722,8.15987024 10.2717796,5.80590605 C9.34259945,5.29586823 9.54367488,5.70522135 9.27063561,4.13762672 C8.15801823,2.63617532 7.2824582,1.13986839 5.87704678,0.027927143 C6.90217871,7.25444287 1.91833015,9.26225747 0.0141105565,14.2751796" id="Path"></path>
                            </g>
                        </g>
                    </g>
                    <g id="Group-6" transform="translate(1.000000, 191.000000)">
                        <g id="Group-5">
                            <g id="Group" transform="translate(8.000000, 31.000000)" fill="#00838F">
                                <path d="M16.61812,1.23126364 L16.7761288,2.18117846 L16.7026363,5.14476769 C15.0659587,4.86921988 14.4287789,4.13829305 13.851863,2.74460123 C12.8281127,2.5248881 10.9106938,2.06588346 9.96043604,1.6569125 C8.5170437,1.03330429 8.78749604,0.646087105 6.62020275,0.321955864 C6.67385226,3.8308397 6.86640257,7.73636737 5.67508944,10.8319295 C5.49870748,11.290209 1.81599922,17.2500181 1.1905782,17.8533228 C1.24937219,19.5138609 0.450508913,21.8908234 0.0316017671,23.6485283 L0.184466129,24.5795899 L3.78633266,24.9581056 L4.41322353,23.0220196 C4.47348736,21.0279236 5.50311703,18.8220909 6.52025298,17.4378257 C8.0224393,14.1675083 8.95799859,15.8041172 10.293357,11.9196182 C10.9834514,9.91029457 11.4222015,6.50655398 12.5003362,4.864144 C14.1127613,8.28021173 14.0635213,13.0776442 14.2075666,17.5901021 C14.3729246,18.9359356 14.6955566,19.600876 14.8565052,20.7429492 C14.9880567,21.6718354 14.9241183,22.3389511 15.0431761,23.2120026 L15.4356259,25.4961489 C18.0100676,25.4910731 19.1521407,25.9246983 19.0955515,23.3889333 L19.2498857,21.4586484 L18.6648856,10.5534812 C18.9845779,7.37743009 19.0801181,3.1593732 18.4987926,0.076138211 C17.0399668,-0.0137773906 18.6141758,0.121096012 16.61812,1.23126364" id="Path"></path>
                            </g>
                            <g id="Group" transform="translate(12.000000, 11.000000)" fill="#357A38">
                                <path d="M2.05308597,2.21873802 C1.28899934,7.31029715 0.0818412276,14.0943881 0.0310432243,19.4292074 L1.85624371,19.8194525 C2.25133929,20.0494839 2.2160629,20.380935 2.96886108,21.0026814 C5.04946264,21.3319277 4.7898284,21.7243776 6.17548505,22.355678 C7.08773252,22.7709105 8.92845462,23.235383 9.91125488,23.4588002 C7.82218699,13.3381505 4.01163121,12.1585962 8.18412276,0.327041544 L5.49041753,0.0352763912 C4.54359919,1.47940366 4.52737205,2.3157481 2.05308597,2.21873802" id="Path"></path>
                            </g>
                            <g id="Group" transform="translate(12.000000, 54.000000)" fill="#B2EBF2">
                                <path d="M0.182731706,1.94443468 C-0.052209059,3.29552047 -0.076138211,3.99752065 0.872326361,4.90341838 C2.17392721,6.14585288 1.9237588,4.85120932 2.73952535,6.7624842 L1.09639024,7.23800995 C3.25871543,8.74925055 23.640552,8.94891492 25.8449345,4.9140013 C24.0966561,1.90492513 19.0780603,2.43759863 15.6416891,1.09427366 C16.8599004,3.32233052 17.237691,1.95007891 19.6675876,2.79106807 C19.3550584,5.21032298 16.3486867,5.11860437 11.7267348,5.34155116 L11.6767011,2.4672308 L11.2894839,0.244818155 C9.47521908,1.39271193 8.86828877,0.923535922 6.54426052,0.807829359 C5.09038325,0.735159993 3.63795624,0.761264522 2.17972821,0.761264522 C-0.0797638401,0.899547976 1.6119547,0.975039453 0.80126403,0.0606753929 L0.182731706,1.94443468 Z" id="Path"></path>
                            </g>
                            <g id="Group" transform="translate(12.000000, 0.000000)" fill="#212121">
                                <path d="M1.62976927,13.4777862 C4.10405535,13.5747963 4.12028249,12.7391868 5.06710083,11.2943246 L7.76080607,11.5868247 L9.33201653,11.8065672 L9.8738619,10.9988848 C10.1723002,7.59250828 12.1809379,9.20566826 10.635832,6.00727545 C9.64879853,3.96418446 9.62763269,-1.60434088 4.68752686,0.54163959 C2.98297164,1.28170888 3.13959882,2.43039637 2.49474639,4.42865695 C1.97124474,6.05137094 0.72316602,6.98546039 0.657551932,8.61111408 C0.550311703,11.261253 2.00228797,10.7365167 0.0536201146,12.9140989 L1.62976927,13.4777862 Z" id="Path"></path>
                            </g>
                            <g id="Group" transform="translate(22.000000, 10.000000)" fill="#4CAF50">
                                <path d="M0.0190492513,0.833404742 C0.851572084,4.04135157 0.241996044,9.13364563 0.27233374,12.6576101 C0.307610131,16.8297783 3.09797268,18.7677751 2.83057763,22.2116327 C4.7467912,21.0857279 3.2355506,20.9497668 4.63602333,21.0408975 C4.43635896,19.2168141 3.86840906,16.2513925 3.99752065,14.4493568 C4.20000714,11.6206312 5.18139634,12.2497268 4.12169355,9.37323112 C3.40346622,7.42494543 0.733748937,1.29273275 0.56089462,0.0257223686 L0.0190492513,0.833404742 Z" id="Path"></path>
                            </g>
                            <g id="Group" transform="translate(0.000000, 55.000000)" fill="#B2EBF2">
                                <path d="M11.5565458,6.92898876 L11.0245778,6.45557959 C9.61916636,5.3655391 8.22081021,4.9344616 6.61079571,4.43000921 C7.0566893,2.63091326 7.20837778,1.90492513 8.50231581,0.967278647 L8.35556602,0.0613809207 C4.91611788,1.50841849 2.63867406,0.461415197 0.040215086,3.03165306 C0.999027399,6.0576619 8.01056292,6.78223898 11.5565458,6.92898876" id="Path"></path>
                            </g>
                            <g id="Group" transform="translate(6.000000, 56.000000)" fill="#357A38">
                                <path d="M4.995137,6.02309104 L6.28766397,5.72394724 L7.88639002,5.24842149 C7.09267122,3.33714661 7.33607832,4.63179017 6.06965587,3.38935567 C5.14682548,2.48345794 5.1701079,1.78145776 5.39869891,0.430371973 L1.94090704,0.0613809207 C0.646969015,0.999027399 0.495280533,1.72572106 0.0493869477,3.52411148 C1.65940144,4.02856388 3.05775759,4.45964138 4.46316902,5.54968187 L4.995137,6.02309104 Z" id="Path"></path>
                            </g>
                            <g id="Group" transform="translate(24.000000, 55.000000)" fill="#357A38">
                                <path d="M0.00211658347,2.12011111 L0.0507980034,4.99443147 C4.54783236,4.77077915 7.47295072,4.86249777 7.77703321,2.44324286 C5.41280947,1.60225369 5.04522947,2.97450531 3.85994273,0.747153966 L3.51564515,0.0698472546 C3.56997079,2.53707806 2.47358055,2.11517242 0.00211658347,2.12011111" id="Path"></path>
                            </g>
                            <g id="Group" transform="translate(22.000000, 34.000000)" fill="#FFF3E0">
                                <path d="M0.0338653356,0.576416232 C0.587704678,1.93173518 1.1993973,2.64361276 2.77060777,2.9110078 L2.84116055,0.0275155851 L0.0338653356,0.576416232 Z" id="Path"></path>
                            </g>
                        </g>
                        <g id="Group" transform="translate(18.000000, 11.000000)" fill="#357A38">
                            <path d="M3.63205724,23.167035 L6.43935245,22.5952635 L6.28766397,21.6332469 C6.55505902,18.1886543 3.76469647,16.2513925 3.72942008,12.0792243 C3.69908238,8.55525979 4.30865842,3.46296574 3.47613559,0.255018912 L1.90492513,0.0352763912 C-2.26756643,11.866831 1.54298935,13.0463854 3.63205724,23.167035" id="Path"></path>
                        </g>
                    </g>
                    <g id="Group-3" transform="translate(181.000000, 21.000000)">
                        <g id="Group" transform="translate(0.000000, 21.000000)" fill="#00838F">
                            <path d="M18.4682295,21.4713871 C18.2057339,22.6950516 18.7974366,21.6636875 17.9852957,22.3983183 C17.7365775,21.9935512 17.8206921,22.0432468 17.4936604,21.6312773 C16.609732,20.5170872 17.5639976,21.6478425 16.7598331,20.9189735 C15.1754331,19.8912105 11.9341207,16.8633791 9.86968753,16.1870866 C2.18987997,13.671336 -0.142849786,27.1186817 9.30481452,26.0801153 C12.6382179,25.7142403 15.5655508,24.1996044 18.5624959,23.6212626 C19.5392403,24.7721843 20.4405717,26.142775 21.4129654,26.7837764 L22.5021044,26.6440525 C23.6652062,22.5409232 30.3182356,15.7592721 25.2177006,11.7785812 C22.6115984,9.74538234 19.0715342,10.8458882 17.7365775,12.8135465 C15.3516387,16.331852 18.2622938,18.4601208 18.4682295,21.4713871 Z M12.85213,13.1513326 L13.7752152,12.9439074 C12.6005114,11.7425699 11.2597537,5.63216983 10.3178153,3.59897092 C6.01129304,-5.69626997 -5.33257528,5.66313956 3.12166665,9.88942761 C6.0635021,11.3601298 10.5360782,11.8866152 12.85213,13.1513326 Z M20.0990375,41.8941246 C22.9879387,41.5224878 33.1085198,37.7542637 35.6776406,36.5961398 C35.1504741,36.0084351 35.7472526,36.3728696 34.9459886,35.9486563 C34.7509298,35.8449438 34.331807,35.7613975 33.9503909,35.6360781 C33.2985028,35.4236114 32.9417409,35.3566303 32.3123316,34.9540238 L30.5756553,35.1477647 C24.8725407,34.8351865 20.3629833,32.5851994 20.0990375,41.8941246 Z M32.3123316,34.9540238 C32.9417409,35.3566303 33.2985028,35.4236114 33.9503909,35.6360781 C34.331807,35.7613975 34.7509298,35.8449438 34.9459886,35.9486563 C35.7472526,36.3728696 35.1504741,36.0084351 35.6776406,36.5961398 L36.5883986,36.5241172 L36.6130529,35.5366869 C34.5768996,35.4805092 30.1985899,32.9654789 28.8128744,32.0407083 C26.1262833,30.2466246 24.5273808,28.5785804 22.5021044,26.6440525 L21.4129654,26.7837764 C22.3940607,27.8050573 22.8414633,28.1111535 23.5970444,29.0027937 C24.8000282,30.4238002 24.9153232,30.2314998 26.1676154,31.221811 C27.6432465,32.3892979 30.2848798,34.216512 32.3123316,34.9540238 Z M16.7598331,20.9189735 C17.5639976,21.6478425 16.609732,20.5170872 17.4936604,21.6312773 C17.8206921,22.0432468 17.7365775,21.9935512 17.9852957,22.3983183 C18.7974366,21.6636875 18.2057339,22.6950516 18.4682295,21.4713871 C16.7692597,19.1997933 14.8426004,16.0466424 13.7752152,12.9439074 L12.85213,13.1513326 C14.1218253,16.0905762 15.5155172,18.3189565 16.7598331,20.9189735" id="Shape"></path>
                        </g>
                        <g id="Group" transform="translate(25.000000, 0.000000)" fill="#B2EBF2">
                            <path d="M13.7231923,27.4908446 C13.8067386,27.3865911 14.005521,27.1409028 14.037211,27.2415111 C14.0710616,27.351597 14.1171561,27.5958272 14.4952749,26.7486764 C14.7286283,28.1878121 14.9173276,30.8174789 15.8255329,31.7871093 C19.2624529,29.4920743 26.9177385,24.8108737 24.4956174,19.5697662 C23.3526182,17.094657 19.7536473,15.6168819 17.0247098,17.5466651 C14.0235267,19.6696454 15.4157242,22.4844898 14.4628647,25.843931 L13.7361564,26.2551127 C13.6943833,26.244906 13.5633021,26.2026214 13.5244098,26.1763758 C12.7033518,25.6157398 13.0829111,25.8293501 12.9763176,24.7015169 C12.7912195,23.3972546 10.0277111,18.7036602 9.04892349,17.6523767 C6.76724651,15.2020551 2.82256695,15.4338915 1.04936975,18.0373127 C-1.2150218,21.3610308 0.67341161,24.9333533 3.47365154,25.9343327 C6.18818455,26.9046921 10.6751945,27.2976476 13.7231923,27.4908446 Z M4.04263034,6.63285522 C5.03078085,8.84477902 6.01100887,9.55486925 7.68841597,11.1456464 C9.16920129,12.5497878 10.85165,14.3272006 12.6140438,15.0300003 L12.9763176,24.7015169 C13.0829111,25.8293501 12.7033518,25.6157398 13.5244098,26.1763758 C13.5633021,26.2026214 13.6943833,26.244906 13.7361564,26.2551127 L14.4628647,25.843931 C13.2586463,19.7243238 13.4545479,15.4382658 14.053056,9.43166058 C14.3605926,5.19226147 14.2424755,0.957236634 10.2092081,0.197571308 C5.95627167,-0.603649606 3.58096527,2.53051665 4.04263034,6.63285522 Z M13.6734967,51.5777762 L13.8708387,50.4273425 C16.0221547,49.9454435 22.005795,47.818818 22.8506205,46.8579362 L23.2568281,48.7877194 L23.6983269,46.5612147 C23.5355557,45.6360561 23.8416519,46.2586608 23.1754425,45.5092022 C23.100539,45.4246329 22.4573769,44.9215915 22.2002561,44.6912132 C21.7141033,44.255244 21.092548,43.6187874 20.7353158,43.1682373 C16.9858175,42.135909 13.0116087,38.0933522 9.39175122,41.8355423 C6.96963011,44.3398133 7.83822305,48.5711929 10.9215119,49.984812 C13.1426899,51.0032884 12.6162045,49.6859034 13.6734967,51.5777762 Z M27.2231145,48.4283 L28.0960288,49.3410649 C29.7878404,48.1206428 34.4945194,46.9607316 36.9072776,45.5558611 C45.214368,40.7208318 34.0407768,30.5134669 30.0680084,38.6415943 C28.6318772,41.5811054 28.6642873,45.972875 27.2231145,48.4283 Z M13.6734967,51.5777762 L14.1531674,56.1036902 C16.3167273,56.2509574 19.3128688,54.6062309 20.5588603,53.9165539 C21.3064552,52.0203068 22.9075184,51.4057215 23.2568281,48.7877194 L22.8506205,46.8579362 C22.005795,47.818818 16.0221547,49.9454435 13.8708387,50.4273425 L13.6734967,51.5777762 Z M13.7231923,27.4908446 C14.266243,30.4135877 15.3328981,33.4617266 16.5219918,35.9543329 C17.1795584,37.3344159 17.8637734,38.5737931 18.492531,39.6870454 C19.2437271,41.0175533 20.1029571,41.8902207 20.7353158,43.1682373 C21.092548,43.6187874 21.7141033,44.255244 22.2002561,44.6912132 C22.4573769,44.9215915 23.100539,45.4246329 23.1754425,45.5092022 C23.8416519,46.2586608 23.5355557,45.6360561 23.6983269,46.5612147 C24.7765057,47.2042328 25.2028796,47.7028998 26.1305311,48.6338908 C26.4510319,48.9561289 26.9386251,49.4190727 27.1921447,49.7558917 C28.0600175,50.9055963 27.6084355,50.2297712 27.8237832,51.1104581 L28.561295,51.3911406 C30.2264582,51.719211 29.1021849,51.606938 29.3449012,51.0579668 L28.0960288,49.3410649 L27.2231145,48.4283 C23.1603178,44.8567065 17.9725276,39.2532634 15.8255329,31.7871093 C14.9173276,30.8174789 14.7286283,28.1878121 14.4952749,26.7486764 C14.1171561,27.5958272 14.0710616,27.351597 14.037211,27.2415111 C14.005521,27.1409028 13.8067386,27.3865911 13.7231923,27.4908446" id="Shape"></path>
                        </g>
                    </g>
                    <g id="Group" transform="translate(14.000000, 240.000000)" fill="#FDFDFF">
                        <path d="M0.00352763912,5.50100045 C0.792307747,6.41536451 -0.853688667,6.33987303 1.34473603,6.20158958 C2.76355249,6.20158958 4.17672472,6.17548505 5.59130801,6.24815441 C7.85252468,6.36386098 8.44305147,6.83374251 10.2082821,5.68584874 C10.0939866,4.83639324 10.1553675,4.18730764 10.029078,3.28282097 C9.87456743,2.17232017 9.56484071,1.52464563 9.40609695,0.215185986 L2.02627591,0.0677306711 C1.0498254,1.41458329 0.0613809207,3.56079893 0.00352763912,5.50100045" id="Path"></path>
                    </g>
                    <g id="Group" transform="translate(19.157516, 233.280819) scale(-1, 1) rotate(178.851595) translate(-19.157516, -233.280819) translate(14.657516, 226.780819)" fill="#E1DEFE">
                        <path d="M1.03063851,0.0550446571 L8.61177794,0.0550446571 C8.37916985,4.55761304 8.33206853,9.34915116 6.67410189,12.7284312 C5.64366982,11.0670363 5.27990266,7.65951113 4.63932464,5.63889575 C3.40092211,1.73382116 2.44585217,3.34958923 1.03063851,0.0550446571" id="Path"></path>
                    </g>
                    <g id="Group" transform="translate(333.000000, 177.000000)" fill="#357A38">
                        <path d="M0.0599698651,6.43229717 C4.83074901,7.89415083 2.61045295,7.14840792 6.81187114,6.7321465 C6.87536865,3.72165927 8.71891285,2.52367303 5.92361161,0.00141105565 C5.16093603,2.63585195 2.69229418,6.34198961 0.0599698651,6.43229717" id="Path"></path>
                    </g>
                    <g id="Group" transform="translate(390.000000, 237.000000)" fill="#03ACF2">
                        <path d="M0.578532816,1.37295715 L0,2.38468405 C0.0211658347,2.48345794 0.23987946,3.54104415 0.268100573,3.60383613 C0.606753929,4.46810771 0.331598077,3.93190656 0.76197005,4.47939616 C1.16412091,4.89706863 0.275155851,4.70728164 1.4604426,4.83780429 C1.89081457,4.88436913 2.0742518,4.8279269 2.45523683,4.71433692 C3.30187022,4.45964138 3.23131744,4.31712476 3.74635275,3.90368545 C4.24022222,3.5092954 3.93684526,3.90015781 4.42365946,3.2404893 C4.48715696,3.15794254 4.82581032,2.55471625 4.93869477,2.37410113 L5.67949899,0.167210094 C3.41475467,-0.306199076 2.13069403,0.361935774 0.578532816,1.37295715" id="Path"></path>
                    </g>
                    <g id="Group" transform="translate(324.000000, 176.000000)" fill="#FFF3E0">
                        <path d="M2.1984247,5.10731592 C2.62738562,3.76469647 2.52861172,4.02221413 3.94390054,3.83807136 C3.06692945,1.96842263 2.31977549,1.05264751 0.874148974,0.0437427251 L0.833933888,0.401445332 C0.644852431,1.77793012 0.280094546,1.91409699 0.00352763912,2.53213936 L2.1984247,5.10731592 Z" id="Path"></path>
                    </g>
                    <g id="Group" transform="translate(469.000000, 238.000000)" fill="#03ACF2">
                        <path d="M0.28221113,3.01330934 C0.980683676,3.33714661 1.38988981,3.48319087 2.3352971,3.00060984 C3.42180995,2.44677049 3.3089255,2.29931518 3.40769939,1.14013296 L4.07089555,0.0204603069 C-0.0211658347,0.991266593 2.32824182,-0.26598399 0.23987946,0.400034276 C-0.141105565,4.10828852 0.148160843,-0.00705527824 0.634975042,1.86753215 C1.3616687,4.63461228 0.331598077,0.658962988 0.28221113,3.01330934" id="Path"></path>
                    </g>
                    <g id="Group" transform="translate(148.000000, 176.000000)" fill="#4CAF50">
                        <path d="M2.14833223,0 C-0.536906674,0.0493869477 -0.740098688,2.97662189 2.23370109,3.03447517 C2.58364289,1.79345173 2.56882681,1.17470383 2.14833223,0" id="Path"></path>
                    </g>
                    <g id="Group" transform="translate(349.000000, 196.000000)" fill="#357A38">
                        <path d="M0.204603069,5.6900819 C1.38283454,4.1153438 1.55921649,2.52437856 2.06719653,0.404267443 L1.41811093,0.0479758921 C0.366874469,3.05564101 -0.317487521,2.46299763 0.204603069,5.6900819" id="Path"></path>
                    </g>
                    <g id="Group" transform="translate(221.000000, 222.000000)" fill="#B2EBF2">
                        <path d="M2.02274827,2.97450531 C2.97732742,2.56812128 2.71769318,2.78471832 2.99637667,1.36378528 L2.74027007,0.0529145868 C2.2414619,0.526323757 1.9980548,0.0388040303 2.11658347,2.05802466 C0.639208209,1.46326471 1.69467783,1.49148582 0.0261045295,1.40752801 C0.698472546,2.90889122 0.542550897,2.60763084 2.02274827,2.97450531" id="Path"></path>
                    </g>
                    <g id="Group" transform="translate(246.000000, 222.000000)" fill="#B2EBF2">
                        <path d="M0.028221113,1.31722045 C0.301260381,2.82281683 0.100184951,2.42983783 1.0293651,2.91947414 C1.46114812,2.77272435 1.86753215,2.65278462 2.12011111,2.49051322 C3.00343195,1.92326885 2.44112627,2.24075637 2.94910631,1.67845069 C2.33247499,1.41387776 2.82563894,1.33203653 1.73489292,1.51265166 C1.6304748,1.53028985 0.96304548,1.87176532 0.831111777,1.92115227 C0.903075615,0.32101516 1.0674636,0.980683676 0.493163949,0 C0.0712583103,0.493869477 0.0663196155,-0.873443447 0.028221113,1.31722045" id="Path"></path>
                    </g>
                    <g id="Group" transform="translate(222.000000, 239.000000)" fill="#5A586A">
                        <path d="M0.068436199,0.0515035312 C0.887068806,1.16181574 -0.31473435,0.663424061 1.2684362,1.25150353 L0.068436199,0.0515035312 Z" id="Path"></path>
                    </g>
                </g>
            </g>
        </g>
    </g>
</svg>