<?xml version="1.0" encoding="UTF-8"?>
<svg width="578px" height="399px" viewBox="0 0 578 399" version="1.1" xmlns="http://www.w3.org/2000/svg" xmlns:xlink="http://www.w3.org/1999/xlink">
    <!-- Generator: Sketch 64 (93537) - https://sketch.com -->
    <title>2D</title>
    <desc>Created with Sketch.</desc>
    <g id="Landing" stroke="none" stroke-width="1" fill="none" fill-rule="evenodd">
        <g transform="translate(-44.000000, -1256.000000)" id="Feature">
            <g transform="translate(-66.000000, 1216.000000)">
                <g id="Image" transform="translate(110.000000, 40.000000)">
                    <g id="2D">
                        <g id="Plant-Right" transform="translate(409.000000, 0.000000)" fill-rule="nonzero">
                            <g id="Group" transform="translate(0.000000, 43.000000)" fill="#8BC34A">
                                <path d="M32.3241389,43.427518 C40.4876948,22.4875026 27.0401016,6.20846591 0.925847068,0.243365515 C-2.60310625,20.5961293 7.51143752,45.1363672 32.3241389,43.427518" id="Path"></path>
                            </g>
                            <g id="Group" transform="translate(20.000000, 0.000000)" fill="#558B2F">
                                <path d="M27.0631136,99.5516468 C-9.28861103,77.3907119 -7.85118314,38.1436857 24.4416078,0.196091331 C53.1794983,26.6265882 66.2603588,74.4859456 27.0631136,99.5516468" id="Path"></path>
                            </g>
                            <g id="Group" transform="translate(43.000000, 7.000000)" fill="#8BC34A">
                                <path d="M5.2946376,92.5484378 C5.32281556,91.7367919 5.33126894,90.8653132 5.33126894,89.9366031 C5.33126894,82.4600961 4.49156591,71.3181758 3.66313405,58.9717938 C2.82343102,46.6280132 1.99218137,33.0901768 1.99218137,20.8842719 C1.99218137,13.6470965 2.29086768,6.87557682 3.03758347,1.11601304 C3.10239276,0.642552961 2.73889715,0.213317177 2.22605839,0.158687168 C1.71321962,0.101455731 1.25673676,0.43704007 1.19192746,0.907898718 C0.425487109,6.77412109 0.126800794,13.6028722 0.126800794,20.8842719 C0.126800794,33.1604153 0.966503831,46.7268675 1.79775348,59.0784524 C2.63745652,71.4274358 3.46588837,82.5693562 3.46588837,89.9366031 C3.46588837,90.8497046 3.45743499,91.7055748 3.42925703,92.4938077 C3.41235026,92.9698693 3.81247721,93.3678879 4.33376936,93.3838274 C4.84660813,93.3965036 5.27491303,93.0244993 5.2946376,92.5484378" id="Path"></path>
                            </g>
                            <g id="Group" transform="translate(39.000000, 41.000000)" fill="#8BC34A">
                                <path d="M5.14408682,75.2432924 C-1.28209692,67.2556593 -1.66149295,50.3823127 5.26444694,43.3587954 C12.2008529,36.335278 20.5580316,41.0105791 23.2242699,36.1477377 C25.9009743,31.2822549 22.4445456,19.7762596 28.619543,15.3915139 C39.5906295,7.59934537 49.4627758,27.8853977 58.1574861,22.982935 C66.8495799,18.077831 60.6431842,7.10804254 68.0113167,1.24146414 C75.3899153,-4.62511427 82.5670415,12.5652019 93.7212847,9.49323853 C104.865062,6.42127515 129.821471,4.22361948 129.685966,18.7513913 C129.570284,30.2336139 116.218161,24.0157275 113.16991,27.8721906 C109.697782,32.2701433 114.868034,37.4525958 109.948969,41.4411295 C103.004713,47.0752635 93.5041132,39.5842161 88.5955136,45.1655219 C83.6842974,50.7468277 89.7807991,58.697481 80.2645001,61.3230456 C68.4796746,64.5693422 63.8379604,45.6964459 52.173495,56.5817091 C40.50118,67.4643309 59.758799,75.7847821 53.5236215,83.5373294 C46.7258914,91.9977754 32.5338634,77.8662156 29.4071169,84.5806876 C25.1657309,93.7120525 15.1182775,87.634161 5.14408682,75.2432924" id="Path"></path>
                            </g>
                            <g id="Group" transform="translate(42.000000, 59.000000)" fill="#558B2F">
                                <path d="M1.63288792,55.3355699 C2.21306192,54.713348 2.68297661,53.8722937 3.20539573,52.9073224 C3.97721092,51.4651384 4.83828365,49.748755 5.91462456,48.306571 C6.99359069,46.859114 8.26944845,45.7254045 9.84195627,45.2956495 C12.1784036,44.6523353 14.7511209,44.4704144 17.392094,44.1197554 C20.033067,43.7664599 22.7527967,43.2365166 25.3517663,41.8022423 C31.0064939,38.6779498 33.7708524,34.2353905 35.8710297,30.2225862 C36.9237437,28.2135475 37.8268199,26.304697 38.8270294,24.6937749 C39.8351146,23.0775797 40.929832,21.7777686 42.3710787,20.8839837 C43.3082829,20.3065828 44.0748477,20.124662 44.8466628,20.1193889 C45.9335046,20.1141158 47.0886022,20.5385978 48.4694688,21.0263565 C49.8503355,21.5062056 51.4595964,22.0282393 53.4127614,22.0282393 C54.3867186,22.0282393 55.4394325,21.8990492 56.5866544,21.5853017 C58.4006826,21.0896333 59.6529134,20.4094076 60.5743662,19.6263571 C61.2674248,19.0410466 61.7714673,18.4135516 62.2230055,17.8150584 C62.9029379,16.9133639 63.448984,16.0934019 64.3783125,15.3288071 C65.3155167,14.5668489 66.6465041,13.8233463 68.930447,13.1958513 C70.1643012,12.8557385 71.1907629,12.7291849 72.0859635,12.7291849 C73.8054838,12.7291849 75.0813415,13.1984879 76.5514657,13.7284311 C78.0005881,14.2531013 79.6361012,14.8331388 81.8150353,14.8305022 C82.8152447,14.8305022 83.9178379,14.7144948 85.1779443,14.4323856 C91.2605831,13.0772073 94.8571368,10.0320108 97.3510975,7.29001577 C98.600703,5.91901823 99.5930368,4.62975323 100.477737,3.67269149 C100.929275,3.19284235 101.346685,2.79999882 101.737843,2.51525318 C102.136877,2.23050754 102.501783,2.05385978 102.877189,1.97212723 C103.344479,1.86930242 103.769765,1.82711788 104.153047,1.82711788 C105.274017,1.82975441 106.072084,2.1804134 106.61288,2.52843585 C106.880652,2.69981054 107.080169,2.87382177 107.203555,2.99773885 L107.342691,3.13747514 L107.368944,3.16647701 L107.368944,3.17175008 L107.741725,2.87118523 L107.358443,3.16384048 L107.368944,3.17175008 L107.741725,2.87118523 L107.358443,3.16384048 C107.655093,3.54613787 108.201139,3.61996081 108.584421,3.32730557 C108.957203,3.03201379 109.035959,2.48625131 108.741935,2.10395392 C108.697306,2.04595017 108.314023,1.5555549 107.55796,1.06252309 C106.801896,0.569491286 105.646798,0.0817325457 104.153047,0.0817325457 C103.641129,0.0817325457 103.092457,0.139736288 102.501783,0.268926441 C101.850728,0.411299262 101.260053,0.711864107 100.729758,1.09679803 C99.7925537,1.77702373 98.9839854,2.70772014 98.1071613,3.74915096 C96.7866748,5.30997893 95.3165506,7.13446028 93.2505011,8.77702079 C91.1818264,10.4195813 88.5329777,11.8907671 84.7972872,12.7291849 C83.6500653,12.9849286 82.676108,13.0851169 81.8150353,13.0851169 C79.9380017,13.0851169 78.591263,12.6105408 77.1342649,12.0858706 C75.690393,11.5638369 74.1362617,10.981163 72.0859635,10.9837995 C71.0253739,10.981163 69.8335233,11.1367185 68.4710332,11.5111063 C66.2973496,12.1095994 64.7957228,12.8478289 63.6826288,13.6677909 C62.8504335,14.2847398 62.241382,14.9412367 61.7373395,15.5687317 C60.9891513,16.5126108 60.4693574,17.3563015 59.7211692,18.0576195 C58.9651053,18.7589375 57.9675211,19.3943421 56.1246154,19.9031931 C55.1244059,20.1773926 54.2397062,20.282854 53.4127614,20.282854 C51.7719978,20.282854 50.3990068,19.8504625 49.0443924,19.3758864 C47.6976536,18.9118564 46.3666662,18.3819132 44.8466628,18.3766401 C43.7703219,18.371367 42.6231,18.6692953 41.4601268,19.3969787 C39.6959778,20.4885036 38.4358714,22.0361489 37.3490296,23.7683516 C35.7345182,26.3732469 34.500664,29.4289895 32.665634,32.3581785 C30.8332292,35.290004 28.4442775,38.0926393 24.5090701,40.2730527 C22.2146263,41.543862 19.7390422,42.0474399 17.1663249,42.3901893 C14.6041085,42.7329387 11.9526345,42.9095865 9.38254247,43.6109044 C7.98329929,43.9958384 6.81770084,44.7788889 5.8463688,45.728041 C4.39462118,47.1544058 3.35240815,48.9577948 2.48345976,50.5634439 C2.04767295,51.3649501 1.6670158,52.1189988 1.30998564,52.7464938 C0.963456376,53.3713523 0.632678437,53.8696572 0.372781486,54.1333106 C0.0420035477,54.481333 0.0603800998,55.0350051 0.406909368,55.3672083 C0.753438637,55.6994116 1.30210998,55.6862289 1.63288792,55.3355699" id="Path"></path>
                            </g>
                        </g>
                        <g id="Plant-Left" transform="translate(0.000000, 243.000000)">
                            <g id="Group-3">
                                <g id="Group" transform="translate(50.308739, 0.000000)" fill="#357A38">
                                    <path d="M25.873935,85.3240943 C25.704574,85.3240943 25.537081,85.2434111 25.4312304,85.0917267 C24.9903938,84.4591704 24.3260256,83.4490168 23.4932304,82.0806298 C23.5368159,82.0806298 23.5791562,82.0806298 23.6205624,82.0806298 L23.6432892,82.0806298 L23.7668853,82.0806298 C23.7768477,82.0838571 23.7855648,82.0838571 23.7939706,82.0806298 C24.0819465,82.0806298 24.3213557,81.8450348 24.3347427,81.5448934 C24.3487523,81.2350699 24.116815,80.970429 23.8170087,80.9575197 L23.6398646,80.9542924 C23.3870684,80.9542924 23.1252439,80.980111 22.8568814,81.0252936 C22.434413,80.3152814 21.9792554,79.5278134 21.4954559,78.6725715 C21.5729759,78.6628896 21.6489393,78.6596622 21.7236573,78.6596622 L21.7423368,78.6596622 L21.7943282,78.6628896 C21.7977527,78.6628896 21.8018,78.6596622 21.8052246,78.6596622 C22.1006723,78.6596622 22.3410154,78.4143853 22.3456853,78.1077892 C22.3475532,78.007742 22.3232699,77.9109222 22.279373,77.8270116 C24.1174376,81.1092041 25.5641663,83.3586516 26.3110357,84.4333518 C26.4866232,84.6850834 26.4324526,85.0368621 26.1896189,85.2175925 C26.093108,85.2885937 25.9838328,85.3240943 25.873935,85.3240943 Z M22.2653634,77.8044204 C22.1716544,77.643054 22.0041614,77.5397795 21.8120737,77.5365521 L21.7389123,77.5333248 C21.463078,77.5365521 21.1863098,77.5688254 20.9117209,77.62369 C19.8852814,75.7615218 18.7514346,73.6056668 17.5606153,71.1754889 C17.5864553,71.2238988 17.6203898,71.2723087 17.66273,71.314264 C17.7685806,71.4175385 17.9033845,71.4691757 18.0391223,71.4691757 C18.181398,71.4691757 18.3246076,71.4110838 18.4307695,71.2916727 C18.491478,71.2271261 18.5854982,71.136761 18.7090944,71.0334865 C19.0478163,71.71768 19.3821797,72.3825095 19.7100052,73.0247478 C19.6075792,73.0118385 19.5197855,72.9989291 19.4469353,72.9860198 C19.4176708,72.9827925 19.3871609,72.9795652 19.3578963,72.9795652 C19.097317,72.9795652 18.867559,73.1764322 18.8249074,73.4539824 C18.776652,73.7605785 18.9787021,74.0478107 19.2741498,74.099448 C19.5023513,74.1381759 19.8557055,74.1833585 20.3105518,74.1865858 C20.9976467,75.5033356 21.6529865,76.7103562 22.2653634,77.8044204 Z M17.5462943,71.146443 C16.9080775,69.8458298 16.2546056,68.4677608 15.5899261,67.0122359 C15.9258461,66.7701864 16.1210471,66.6249566 16.1232264,66.6217293 C16.3311917,66.4668175 16.4009285,66.1892673 16.3081536,65.9536724 C16.951663,67.376924 17.5858327,68.725947 18.206304,70.0071962 C17.9743666,70.1943812 17.7850809,70.3654296 17.6431165,70.517114 C17.483718,70.6913897 17.4532081,70.9431213 17.5462943,71.146443 Z M15.1220042,65.979491 C14.8091222,65.2823882 14.4956177,64.5723761 14.1805564,63.8462273 C14.2945015,63.8494546 14.4075126,63.852682 14.5183444,63.8559093 C14.5261275,63.8559093 14.5326654,63.8591366 14.5401372,63.8591366 C14.829981,63.8559093 15.0706355,63.617087 15.0805979,63.3137182 C15.0837112,63.2362623 15.0703242,63.1620338 15.0451068,63.0942599 C15.4607261,64.0560036 15.8751001,64.995156 16.2851155,65.9020352 C16.2739078,65.8794439 16.2611435,65.8600799 16.2458885,65.8374886 C16.1387926,65.6858042 15.9725449,65.6018937 15.8031839,65.6018937 C15.6942201,65.605121 15.5836996,65.6373943 15.4871888,65.7116228 C15.4871888,65.7116228 15.3561208,65.8084426 15.1220042,65.979491 Z M15.0208234,63.036168 C14.9348977,62.8618923 14.7605555,62.7392538 14.5575714,62.7327992 C14.2770673,62.7198899 13.9881574,62.7102079 13.6917757,62.7037532 C13.3919694,62.0001958 13.0934085,61.2805016 12.7936022,60.5478982 C12.8832639,60.7512199 13.0790875,60.8770857 13.2889208,60.8770857 C13.3443367,60.8770857 13.4019318,60.8674037 13.4573478,60.8480397 C13.4579704,60.8480397 13.6634451,60.7770385 14.0180446,60.6544 C14.3527193,61.4676867 14.687394,62.2616093 15.0208234,63.036168 Z M12.7817718,60.5188523 C12.4140966,59.6184278 12.0464215,58.6986393 11.6796802,57.7594869 C11.5539048,57.4335268 11.4268841,57.1075667 11.3011087,56.7751519 C11.3328639,56.8493805 11.3786287,56.9171544 11.4405824,56.9720189 C11.5439424,57.0688388 11.6725198,57.1140214 11.7992292,57.1140214 C11.9505333,57.110794 12.1002807,57.0462475 12.2061313,56.9203817 C12.2606133,56.8558351 12.3371993,56.7751519 12.4349554,56.6847868 C12.5190133,56.904245 12.6033824,57.120476 12.6877516,57.336707 C12.9884918,58.1112657 13.2904774,58.8696877 13.5924629,59.6152005 C13.2907887,59.718475 13.1186258,59.7797942 13.1173805,59.7797942 C12.8331405,59.876614 12.6777892,60.1928922 12.7718094,60.4898063 C12.7739887,60.4994883 12.7774133,60.5091703 12.7817718,60.5188523 Z M11.2867877,56.7396513 C10.953047,55.8650455 10.6211742,54.9775303 10.291792,54.0738785 C10.499446,53.8673295 10.7033641,53.6510986 10.901367,53.4284129 C11.0408407,53.2702739 11.0785111,53.0540429 11.0146894,52.8636306 C11.3456282,53.783419 11.6784349,54.6902981 12.013421,55.5778133 C11.7556436,55.7972716 11.546433,55.9973659 11.390459,56.1780963 C11.2565892,56.3362353 11.2232773,56.5524663 11.2867877,56.7396513 Z M9.87586141,52.9152678 C9.4057602,51.598518 8.94126284,50.2462676 8.48641656,48.8649713 C8.59226717,48.881108 8.6996744,48.8972446 8.80832693,48.9166086 C8.83852549,48.9198359 8.86810139,48.9230632 8.89736597,48.9230632 C9.15794525,48.9198359 9.38739201,48.7229689 9.43128887,48.448646 C9.44405321,48.3647355 9.43844936,48.2840523 9.41759056,48.2065964 C9.9371925,49.7912144 10.4683135,51.3371045 11.0059723,52.8378119 C10.9767077,52.7635834 10.9309429,52.6925822 10.8696118,52.6344903 C10.7640725,52.5344431 10.6326932,52.4828059 10.5000687,52.4860332 C10.3543684,52.4860332 10.2089795,52.5473524 10.1018836,52.6667636 C10.0271655,52.7506741 9.95151346,52.8345846 9.87586141,52.9152678 Z M9.39984502,48.1517319 C9.33228743,47.9742288 9.17755875,47.8354537 8.98204645,47.8031804 L8.98080115,47.8031804 C8.67570235,47.7515432 8.38212259,47.7095879 8.09881656,47.6740873 C7.56489365,46.0120135 7.04373509,44.3079844 6.54032207,42.562 C6.59511532,42.7330484 6.72556062,42.8718235 6.90270472,42.926688 C7.21153943,43.0202805 7.52660064,43.0912818 7.84415245,43.1461463 C8.3478768,44.8566301 8.86841272,46.5251586 9.39984502,48.1517319 Z M6.53035966,42.5297267 C5.83797217,40.1285948 5.17889649,37.6532343 4.56340636,35.1004179 C4.66116251,35.1262366 4.75798468,35.1552825 4.85574083,35.1875558 C4.90866613,35.2036924 4.96408203,35.2101471 5.01762999,35.2101471 C5.24894469,35.2101471 5.46251385,35.0552354 5.53443,34.8131858 C5.56244927,34.7195933 5.56556253,34.6227734 5.54657168,34.5324082 C5.82583048,35.7007009 6.1150517,36.852857 6.41174471,37.9888764 C6.13684447,38.2728812 5.89961458,38.5568861 5.70908349,38.8441183 C5.54159048,39.1023045 5.60572349,39.4508559 5.85509506,39.6251316 C5.94849266,39.6929055 6.05496591,39.7251788 6.16050519,39.7251788 C6.33297941,39.7219515 6.50327435,39.6348136 6.60819098,39.4766745 C6.6514652,39.4089007 6.69909797,39.3411268 6.75202327,39.2701256 C6.99361171,40.1640954 7.23831341,41.0483832 7.48986425,41.9229891 C7.39522136,41.9003978 7.30057847,41.8745791 7.20811485,41.8455332 C7.15612352,41.8293966 7.10506617,41.8229419 7.0536975,41.8229419 C6.81926954,41.8229419 6.6035211,41.9843083 6.53378423,42.2295852 C6.50576496,42.3296324 6.50607628,42.4329069 6.53035966,42.5297267 Z M5.53785457,34.4936803 C5.48959915,34.3194046 5.35759722,34.1677202 5.17609457,34.1096283 C4.87410902,34.0128084 4.57274612,33.9353526 4.27418515,33.8772607 C4.05283286,32.9316536 3.8392637,31.9795919 3.63254369,31.0146209 C3.73247911,31.0468941 3.82151815,31.0791674 3.89779285,31.1114407 C3.96410514,31.1372593 4.03135141,31.1501686 4.0976637,31.1501686 C4.31372346,31.1501686 4.51764154,31.0113935 4.60169937,30.7919352 C4.64154901,30.6854334 4.64902082,30.5757043 4.62816203,30.4724298 C4.91862854,31.8311348 5.22248204,33.1737032 5.53785457,34.4936803 Z M4.62473745,30.4562931 C4.58613311,30.2852448 4.46720684,30.1335603 4.2944213,30.0625591 C4.03321936,29.9560573 3.72345068,29.8656921 3.37258706,29.7882363 C2.89874994,27.5065155 2.46413981,25.1796121 2.07467185,22.7978441 C2.12105932,23.0592576 2.34334559,23.2561246 2.6092174,23.259352 C2.81251283,23.2561246 3.02857259,23.2625793 3.25552874,23.2722613 C3.66678947,25.7218031 4.12568298,28.1164804 4.62473745,30.4562931 Z M2.07124727,22.7817075 C1.91651859,21.8328731 1.76926172,20.8743567 1.62854268,19.912613 C1.64286365,19.9932962 1.67368485,20.0675247 1.72287425,20.1385259 C1.82934751,20.2902103 1.99590655,20.3741209 2.16526752,20.3708935 C2.27392005,20.3708935 2.38475186,20.3353929 2.48095138,20.2643917 C2.56469789,20.2030725 2.65435957,20.1352986 2.75087042,20.070752 C2.85298512,20.7646275 2.95914705,21.4552757 3.06966753,22.1394692 C2.91120295,22.1330145 2.7580309,22.1330145 2.60828343,22.1330145 L2.60734945,22.1330145 C2.30754318,22.1330145 2.06595474,22.3847461 2.06564342,22.6945696 C2.06595474,22.7236156 2.06813402,22.7526615 2.07124727,22.7817075 Z M1.62325015,19.873885 C1.4896916,18.9573239 1.36329352,18.0310808 1.24467858,17.0983831 C1.48875762,17.0467458 1.70575136,16.9854266 1.89036727,16.9176527 C2.1711827,16.8111509 2.31594896,16.4884181 2.21258896,16.1947313 C2.13164438,15.965591 1.9227451,15.8268159 1.70108148,15.8268159 C1.63912775,15.8268159 1.57748533,15.8364979 1.5167769,15.8590892 C1.4146622,15.9010444 1.27487714,15.9397724 1.10551617,15.9785003 C1.04293978,15.4556732 0.981920021,14.9328461 0.924013513,14.410019 C0.986901226,14.4552015 1.04449641,14.5003841 1.09804436,14.5455667 C1.19829111,14.6294772 1.3200193,14.6714325 1.43956822,14.6714325 C1.5980328,14.6714325 1.75400678,14.597204 1.86110269,14.4616562 C1.9510757,14.3454724 1.98968004,14.20347 1.97971763,14.0646949 C2.15592776,15.6815861 2.35517595,17.2758861 2.5759056,18.8540494 C2.30474125,19.0250978 2.05972824,19.1929189 1.8452251,19.3542853 C1.67928871,19.4769237 1.60145738,19.677018 1.62325015,19.873885 Z M1.97504775,14.0259669 C1.95512293,13.8904192 1.88849932,13.761326 1.77860148,13.6709609 C1.50868244,13.4450479 1.16560195,13.2029983 0.770530137,12.9641761 C0.563810132,10.9277322 0.393826514,8.86224234 0.264937837,6.76770655 C0.289532536,7.01621079 0.471657841,7.22275978 0.718227485,7.26794237 C0.938957128,7.30344298 1.16280002,7.3292616 1.38944485,7.34217091 C1.53981497,9.60130042 1.73626124,11.831384 1.97504775,14.0259669 Z M0.261513259,6.72575129 C0.138539762,4.71835335 0.0519913264,2.69159145 0.00716048208,0.639010919 C-0.000622650616,0.329187443 0.237852535,0.0710012132 0.536413505,0.0645465575 L0.548243867,0.0645465575 C0.842757608,0.0645465575 1.08559135,0.306596148 1.09275183,0.613192296 C1.1083181,1.33934107 1.12979954,2.06226251 1.15595087,2.78195663 C0.835908451,3.01432423 0.557583626,3.2305552 0.337476634,3.39192159 C0.0946428936,3.57587928 0.0395383141,3.92765802 0.215125788,4.17938959 C0.321599043,4.331074 0.488158083,4.41498453 0.65751905,4.4117572 C0.767416884,4.4117572 0.878248693,4.37948392 0.973514237,4.30525538 C1.04729834,4.25039081 1.12606364,4.19229891 1.21105545,4.12775235 C1.24218798,4.82485517 1.27892436,5.51873066 1.318774,6.2061515 C1.17369641,6.19646952 1.02986412,6.17710555 0.891947007,6.15451425 C0.861437127,6.1480596 0.832172548,6.1480596 0.802907969,6.1480596 C0.541083385,6.1480596 0.311325308,6.3449266 0.268673741,6.61924947 C0.263692536,6.65475007 0.261513259,6.69025068 0.261513259,6.72575129" id="Shape"></path>
                                </g>
                                <path d="M51.99634,11.3082348 C51.8497992,11.311029 51.7040989,11.3054405 51.5592392,11.2970579 C51.3552589,11.285881 51.1538003,11.2635272 50.9551436,11.2327907 C50.7332309,11.1936716 50.5693182,11.0148413 50.5471829,10.7996861 C50.5460622,10.7885092 50.5449414,10.7745381 50.5441008,10.7633612 C50.5441008,10.7326248 50.5460622,10.7018883 50.5505452,10.6711519 C50.5889317,10.4336429 50.7957139,10.2631953 51.0313561,10.2631953 C51.0576942,10.2631953 51.0840323,10.2631953 51.1114912,10.2687837 C51.2356166,10.2883433 51.3650656,10.3051086 51.4956355,10.3134913 C51.6581473,10.3274624 51.8243016,10.3358451 51.993538,10.3358451 L51.9985815,10.3358451 C52.8388797,10.3330508 53.7455835,10.1542206 54.5306836,9.85244444 C55.3177452,9.55346255 55.9790001,9.11756372 56.3443715,8.6593111 C56.5895402,8.35474077 56.7061004,8.05296466 56.7061004,7.74839432 C56.70554,7.56676981 56.6637913,7.37117418 56.558719,7.15322476 C56.4239462,6.87939088 56.2726421,6.72291438 56.1073284,6.62232234 C55.9406137,6.52452453 55.7441986,6.47702273 55.4959478,6.47702273 C55.4892231,6.47702273 55.4830589,6.47702273 55.4763343,6.47702273 C54.8699971,6.47981696 54.0151289,6.83188909 53.2227438,7.29573015 C52.5278657,7.6980983 51.8764175,8.16752781 51.3986888,8.5140115 C51.3221962,8.56989596 51.2513074,8.62019198 51.1849017,8.66769377 C51.0991627,8.73196091 50.9994141,8.75990314 50.900506,8.75990314 C50.7480812,8.76269737 50.598178,8.69004756 50.5023521,8.55871907 C50.3443234,8.34076965 50.3939175,8.03619932 50.6124679,7.87692859 C50.8105641,7.73721743 51.0610565,7.55000447 51.3490947,7.34882039 C51.7517317,7.06660384 52.2269386,6.74526817 52.7315658,6.45187472 C53.6026852,5.95450298 54.5545,5.51301571 55.4928656,5.50183881 L55.4967883,5.50183881 C55.8770099,5.50183881 56.2633958,5.58287129 56.6071923,5.78684959 C56.9529502,5.99082789 57.2393072,6.31495778 57.4390847,6.73129705 C57.6013163,7.06380962 57.683693,7.4102933 57.6834381,7.7456001 C57.6862147,8.31562164 57.4561764,8.83814139 57.1064958,9.271246 C56.7551341,9.70714483 56.2821687,10.0675996 55.7413966,10.3665815 C54.6590119,10.9589569 53.2953137,11.3026463 51.99634,11.3082348" id="Path" fill="#357A38"></path>
                                <path d="M48.2428764,18.0609608 C47.337891,18.0634445 46.3581877,17.9963832 45.4621685,17.8150691 C44.5688392,17.6337551 43.7439517,17.3456396 43.1728067,16.8389538 C42.7920434,16.5011633 42.549658,16.0466363 42.5508485,15.5324992 C42.5505546,15.413279 42.563705,15.2890913 42.5882125,15.1624199 C42.6964043,14.5737702 43.0389119,14.1043406 43.5344422,13.8211927 C44.026386,13.5380447 44.6172565,13.4386946 45.2230707,13.4362108 C46.2658361,13.4362108 47.4042407,13.7193588 48.435649,14.0770194 C48.9987244,14.2757197 49.5250385,14.4967738 49.9790255,14.7178279 C50.3582945,14.9041094 50.6876517,15.0879072 50.946774,15.26177 C51.0522759,15.3313151 51.1162346,15.4306653 51.1353624,15.534983 C51.1374545,15.544918 51.13865,15.554853 51.1398455,15.564788 C51.1494094,15.6715894 51.1123493,15.7808746 51.0259752,15.8702898 C50.9231631,15.9746074 50.7734281,16.0317338 50.6213021,16.0317338 C50.5065351,16.0317338 50.3896761,16.0019287 50.2934392,15.9373511 C50.2420331,15.9025786 50.1867418,15.8653222 50.1263696,15.8305497 C49.6463807,15.5374667 48.8723014,15.1698711 48.0309759,14.8767881 C47.0871372,14.5439651 46.0443718,14.303041 45.238612,14.303041 C45.2344278,14.303041 45.2302436,14.303041 45.2260594,14.303041 L45.2209786,14.303041 C44.7505536,14.3055247 44.3799519,14.3874886 44.1300947,14.5340301 C43.8814329,14.6805716 43.7015118,14.8892069 43.616931,15.3015101 C43.6001941,15.383474 43.5933201,15.4604703 43.5936189,15.5300155 C43.5989986,15.8305497 43.7122712,16.0416688 43.9391153,16.2503041 C44.1665571,16.4564557 44.5234106,16.6427373 44.9756044,16.786795 C45.8713247,17.0773942 47.1071616,17.1990981 48.2210587,17.1941306 C48.2270361,17.1941306 48.2333124,17.1941306 48.2395888,17.1941306 C48.2533369,17.1941306 48.2655907,17.1941306 48.2793388,17.1941306 C49.0716492,17.1941306 49.8137491,17.1245855 50.3006121,17.0376541 C50.4631986,17.0103328 50.5973923,16.978044 50.6954224,16.948239 C50.7537025,16.9308527 50.8128792,16.9209177 50.8723548,16.9209177 C51.0851519,16.9209177 51.2856952,17.0277191 51.363402,17.2040657 C51.4626276,17.4300873 51.323652,17.6784627 51.0540692,17.7604266 C50.8768379,17.8125854 50.6685239,17.8597767 50.434208,17.8995168 C49.8409465,17.9988669 49.0809143,18.0559933 48.2428764,18.0609608" id="Path" fill="#357A38"></path>
                                <path d="M56.7401718,24.4718802 C55.1376186,24.4746478 53.3300389,24.2566984 51.939685,24.1980197 C51.7218071,24.189637 51.5143897,24.1868428 51.3192261,24.1868428 C51.0639892,24.1868428 50.8505944,24.013601 50.8060624,23.7872689 C50.8048669,23.7816804 50.8039703,23.7788862 50.8027748,23.7732978 C50.7997861,23.7481497 50.797694,23.7230017 50.7973951,23.6978537 C50.797694,23.4296083 51.0296189,23.2116589 51.3174329,23.2116589 L51.3183295,23.2116589 C51.4620871,23.2116589 51.6091322,23.2144531 51.7612582,23.2172473 C53.2630915,23.2647491 55.1418028,23.5022581 56.723435,23.4966697 C56.7276192,23.4966697 56.7327,23.4966697 56.7368842,23.4966697 L56.7506323,23.4966697 C57.4532811,23.4938754 58.0922701,23.4435794 58.5821218,23.3206336 C59.0809396,23.1948935 59.4016296,23.0076806 59.5666071,22.7813485 C59.6777876,22.6304604 59.747126,22.4432475 59.7483215,22.1582367 C59.7477237,21.9542584 59.7058816,21.6999841 59.6057594,21.3954138 C59.3720412,20.685681 59.0101069,20.2637533 58.5617984,19.9899195 C58.1113979,19.7188798 57.5438394,19.595934 56.8890102,19.595934 C56.8776531,19.595934 56.865997,19.595934 56.8546399,19.595934 C55.0467614,19.6015224 52.7164541,20.6325908 51.455213,21.4261502 C51.3625626,21.4848289 51.2764874,21.5407134 51.1960907,21.5965978 C51.1037392,21.6580707 50.9973406,21.6888072 50.8930342,21.6888072 C50.7304477,21.6888072 50.570551,21.6189516 50.4683367,21.4848289 C50.4211149,21.4261502 50.3915265,21.3590889 50.3777784,21.2892333 C50.3756863,21.2780564 50.3747897,21.2668795 50.3726976,21.2557026 C50.3517765,21.0880492 50.4264946,20.9120131 50.5857935,20.8058327 C50.7917165,20.6689157 51.026929,20.5208219 51.2872468,20.372728 C52.7224315,19.5512264 54.8925433,18.6403096 56.8860215,18.620712 C57.6783319,18.6179558 58.4589864,18.7688439 59.1263682,19.171212 C59.7949455,19.570786 60.3185698,20.2246342 60.6039928,21.110403 C60.7262316,21.4876231 60.7895925,21.8341068 60.7908303,22.1554425 C60.7934779,22.6025182 60.6676526,23.013269 60.4225774,23.3373989 C60.1795942,23.6671173 59.8370865,23.8990378 59.4563232,24.0611028 C58.6909113,24.3824384 57.7527511,24.4662651 56.7401718,24.4718802" id="Path" fill="#357A38"></path>
                                <path d="M42.9244319,37.956859 C42.3022438,37.9596023 41.690623,37.8478334 41.1677032,37.5320861 C40.6415813,37.2163389 40.2499518,36.7161729 39.9931351,36.053942 C39.8778558,35.7549601 39.8176544,35.4643609 39.8165973,35.1849386 C39.8099691,34.5227077 40.1554868,33.9443035 40.6768055,33.5223757 C41.1981242,33.0976538 41.8830754,32.7958777 42.6608906,32.5639572 C44.2155602,32.1057045 46.1657019,31.9324627 48.0031261,31.9268743 C49.0588925,31.92408 50.0759122,31.9799645 50.9529957,32.0749681 C51.3910571,32.1224699 51.793574,32.1811486 52.152541,32.2482099 C52.5134293,32.3152713 52.8320485,32.3963038 53.1007133,32.4857189 C53.2784356,32.5471918 53.4007598,32.6785203 53.4404671,32.8294084 C53.441748,32.8349968 53.4427086,32.837791 53.4439895,32.8405853 C53.4654443,32.9300004 53.457759,33.0277982 53.4167708,33.1172134 C53.3303113,33.3100148 53.120567,33.4273722 52.8983341,33.4273722 C52.8301272,33.4273722 52.7609596,33.4161953 52.6927527,33.3938415 C52.6142987,33.3658992 52.5227157,33.337957 52.4199249,33.312809 C52.026054,33.2094227 51.465028,33.1116249 50.8143403,33.0417693 C49.9929752,32.9523542 49.0211065,32.899264 48.0146541,32.9020582 L47.9999239,32.9020582 C46.6850993,32.9048524 45.3087924,33.0054444 44.1278199,33.2261881 C42.942044,33.4441375 41.9602485,33.8017981 41.4411714,34.2349027 C41.094693,34.5255019 40.9371446,34.8077184 40.9339424,35.1821444 C40.9345829,35.3442093 40.9688464,35.528628 41.0508228,35.7381948 C41.2596065,36.2690972 41.5173838,36.5569022 41.8030204,36.7301441 C42.0896175,36.9033859 42.4460227,36.9816241 42.9285948,36.9816241 C42.9353194,36.9816241 42.9423642,36.9816241 42.9490889,36.9816241 C43.8360991,36.9788299 45.0635036,36.6658769 46.4612653,36.3277759 C47.8734369,35.9896749 49.4719767,35.640397 51.1774701,35.6348085 C51.7990178,35.6348085 52.435936,35.6795161 53.079899,35.7884908 C53.3869903,35.8415811 53.6969636,35.9086424 54.0075773,35.9924691 C54.1942657,36.0427651 54.3300391,36.1712994 54.3796733,36.3249817 C54.3831957,36.3333643 54.3863979,36.3445412 54.3886395,36.3585124 C54.4081729,36.4339564 54.4049707,36.5177831 54.3761509,36.6016098 C54.30218,36.8083823 54.0825088,36.942505 53.8445851,36.9452992 C53.7895072,36.9452992 53.732508,36.9369166 53.6780706,36.9229455 C53.5775214,36.8950032 53.4779329,36.8726494 53.3773837,36.8475014 C52.6405567,36.6770538 51.9075724,36.6099925 51.1809925,36.6099925 C51.178751,36.6099925 51.1777903,36.6099925 51.1765095,36.6099925 C49.6474574,36.6155809 48.1472253,36.9341224 46.7561882,37.2666349 C45.3597074,37.5963533 44.0893934,37.9484254 42.9321172,37.956859 L42.9244319,37.956859" id="Path" fill="#357A38"></path>
                                <path d="M56.8328475,43.834929 C56.3196277,43.8379095 55.8096769,43.805124 55.308879,43.7306113 C54.9754496,43.6799428 54.6446353,43.6143717 54.3203589,43.527937 C54.1343576,43.4772684 53.99739,43.3491067 53.9398571,43.1941205 C53.9362613,43.1821985 53.9326655,43.1732569 53.9293966,43.1613349 C53.903899,43.0719198 53.9035721,42.9765436 53.9329924,42.884148 C54.0062161,42.6576296 54.2327519,42.5086044 54.4789013,42.5086044 C54.5328384,42.5086044 54.5864486,42.5175459 54.6410395,42.5294679 C54.7381263,42.5562924 54.8375014,42.5801365 54.9368764,42.601 C55.5393376,42.7351227 56.1748148,42.7977133 56.8292517,42.7947328 L56.8429812,42.7947328 C59.2423653,42.7887718 61.9058778,41.9154839 64.1137035,40.7679896 C66.3257788,39.6294367 68.0929546,38.1838919 68.6774368,37.2450329 C68.8464397,36.9827484 68.9062609,36.7711326 68.9023382,36.6787369 L68.8873012,36.6042243 C68.6581502,36.2435832 68.3093569,35.9842793 67.8059438,35.799488 C67.3067804,35.6176772 66.659862,35.5252816 65.9171643,35.5282621 L65.9093189,35.5282621 C65.9037618,35.5282621 65.8978777,35.5282621 65.8923206,35.5282621 C63.9022047,35.5342231 61.2792267,36.2137782 58.990005,37.1675397 C56.8410198,38.0557302 54.9666235,39.218127 54.1621434,40.1510251 C54.1065718,40.2165962 54.0565574,40.2791868 54.0111195,40.3417774 C53.900957,40.4878221 53.7221473,40.5682957 53.5410494,40.5712762 C53.4302331,40.5712762 53.3184362,40.5414712 53.2203687,40.4818611 C52.9585286,40.3209138 52.8911889,39.9960388 53.0670566,39.7575984 C53.2671142,39.495314 53.5162056,39.2300491 53.8048509,38.9707451 C54.907783,37.9752565 56.6072923,37.0244755 58.5169929,36.2227197 C60.9281451,35.2212701 63.6501713,34.4999879 65.90605,34.4880659 C66.753353,34.4880659 67.5395272,34.5864226 68.2266533,34.8338045 C68.911818,35.0811864 69.5051262,35.492496 69.8764751,36.0856165 C69.9921947,36.2704078 70.0431898,36.4790431 70.0428644,36.6757564 C70.0405746,37.0572611 69.8892238,37.4089606 69.6630149,37.7666212 C69.436479,38.1242818 69.1216824,38.4879034 68.7349697,38.8664275 C67.9635056,39.6175147 66.8984928,40.4073485 65.6474788,41.1375722 C63.1467583,42.595039 59.9154351,43.823007 56.8328475,43.834929" id="Path" fill="#357A38"></path>
                                <path d="M47.506895,60.6976272 C46.4172564,60.7005277 45.4516914,60.6200541 44.677031,60.4918924 C43.8968498,60.3607501 43.3296566,60.2057639 42.9408735,59.982226 C42.8281323,59.9136744 42.721493,59.8421423 42.6189217,59.7020586 C42.5108295,59.5500528 42.4718931,59.368242 42.4733069,59.2221973 C42.4803196,58.8854003 42.6052649,58.6320573 42.7668219,58.3429484 C42.9312847,58.0568199 43.1521181,57.7557889 43.4191522,57.4279334 C43.9520581,56.7781834 44.6656988,56.0419987 45.4432648,55.311775 C47.0042084,53.8453666 48.7819174,52.4236658 49.8924771,51.8424674 C51.4853834,51.0049455 52.9725221,50.2419363 55.4176711,50.2329948 C55.4263882,50.2329948 55.4368487,50.2329948 55.4455658,50.2329948 C56.058088,50.2329948 56.7293054,50.2747218 57.4789767,50.370098 C57.7433957,50.4058641 58.0174035,50.4446106 58.3021623,50.4922987 L58.3033246,50.4922987 C58.4858028,50.5221037 58.6302162,50.6502654 58.6932699,50.8141932 C58.6993719,50.8290957 58.7046022,50.8469788 58.7098325,50.8648618 C58.7293007,50.9334134 58.7345309,51.0109065 58.7226175,51.0883997 C58.6816471,51.3417426 58.4674968,51.5235534 58.2242895,51.5265339 C58.1969759,51.5265339 58.1693717,51.5235534 58.1411864,51.5175923 C58.0397774,51.5026898 57.9395306,51.4848068 57.8407367,51.4699043 C56.9219535,51.3298205 56.1374137,51.2702104 55.4487621,51.273191 C53.1913216,51.2880935 51.9694735,51.928902 50.3512876,52.7694044 C49.5554156,53.180714 48.1063415,54.2864813 46.7676842,55.4906053 C45.4258306,56.6857877 44.1566196,58.0180734 43.6806655,58.8019461 C43.5998869,58.9301078 43.546422,59.043367 43.5170744,59.1178796 C43.5568825,59.1387432 43.6086041,59.1596067 43.6672993,59.1804702 C43.8704079,59.2579634 44.172601,59.3414175 44.5451121,59.4129496 C45.2904249,59.5560138 46.3199154,59.663312 47.5036988,59.657351 C47.5098007,59.657351 47.517065,59.657351 47.5228764,59.657351 C51.0384863,59.6484095 55.8793873,58.6737844 59.1375519,55.2134183 C59.2081605,55.1389057 59.2787691,55.0614126 59.3485059,54.9839195 C59.4484621,54.8736408 59.5841584,54.8170112 59.7201453,54.8140307 C59.8439283,54.8140307 59.9665489,54.8617188 60.0650523,54.9541144 C60.1222946,55.0077635 60.1650085,55.0703541 60.1923221,55.1418862 C60.1955183,55.1508277 60.198424,55.1567887 60.200458,55.1657302 C60.2600249,55.3385995 60.2248659,55.5412739 60.0946904,55.6873186 C59.9098877,55.8929734 59.7195642,56.0926672 59.5257538,56.2834196 C55.9828303,59.7616687 51.0681245,60.6856252 47.506895,60.6976272 Z" id="Shape" fill="#357A38"></path>
                                <path d="M62.8980136,61.9185607 C62.6965737,61.9185607 62.508583,61.7974777 62.4225078,61.601882 C62.4186225,61.5925679 62.4141394,61.5832539 62.4111507,61.5739398 C62.4069664,61.5646257 62.4036788,61.5553116 62.4015867,61.5459976 C62.3113273,61.2634705 62.4604646,60.956106 62.733335,60.8629652 C62.7345305,60.8629652 62.8998069,60.803976 63.1894141,60.7046259 C63.8385647,60.481088 65.1102664,60.0402217 66.5562105,59.5310521 C68.6456267,58.7921353 71.0972762,57.9041932 72.5139309,57.3267204 C74.2082379,56.6374787 76.7797351,55.2962515 78.275591,54.1133637 C78.77411,53.7252771 79.1491947,53.3465046 79.3162643,53.0763964 C79.4160876,52.9242664 79.4355143,52.8187069 79.4322268,52.8031834 L79.4280425,52.78766 C79.1255838,52.3561077 78.7304746,52.0549525 78.2232883,51.8500428 C77.7169986,51.6482378 77.0992296,51.5488877 76.3995696,51.5519923 C76.3944887,51.5519923 76.3906034,51.5519923 76.3852237,51.5519923 C74.551941,51.5582017 72.1932409,52.2629669 69.9253979,53.2440498 C67.6488876,54.2251326 65.4515785,55.4701143 63.8986381,56.5070816 C63.0830156,57.0504028 62.4356582,57.553363 62.0782069,57.8855651 C61.984361,57.9756012 61.9108384,58.0501138 61.8585358,58.1122076 C61.7569192,58.2363953 61.6131616,58.2984892 61.4679097,58.2984892 C61.3462687,58.2984892 61.2228344,58.2550235 61.1236088,58.1649874 C61.0641332,58.1091029 61.020199,58.0439044 60.989714,57.9756012 C60.9843343,57.9631824 60.9801501,57.9507636 60.9759659,57.9383449 C60.9149959,57.7582727 60.9469753,57.553363 61.0754904,57.3981284 C61.2252254,57.2242656 61.4260676,57.0317746 61.6735338,56.8206555 C62.0958404,56.4636159 62.6565248,56.0537965 63.3349649,55.5974067 C64.4070198,54.8802227 65.7579226,54.0792121 67.2355472,53.3247718 C70.1952796,51.8158912 73.6302189,50.4839781 76.396282,50.4683901 C77.1900868,50.46535 77.9336811,50.5740142 78.5986719,50.8410178 C79.2627662,51.1049166 79.8467626,51.5395736 80.2738511,52.1543027 C80.4047572,52.3405842 80.4764866,52.5765409 80.4750151,52.796974 C80.4737967,53.1322808 80.3497647,53.4148079 80.1877759,53.6724973 C80.0216029,53.9301868 79.8055182,54.1754575 79.5487869,54.4238329 C79.0350255,54.9143743 78.3556887,55.4111251 77.596852,55.8954572 C76.0806728,56.8641212 74.2521721,57.7800055 72.894993,58.3357455 C70.4810015,59.319933 65.2812213,61.1237594 63.5979725,61.7074416 C63.257557,61.8223152 63.0603013,61.8906184 63.0597035,61.8906184 C63.0065043,61.9092466 62.9512129,61.9185607 62.8980136,61.9185607" id="Path" fill="#357A38"></path>
                                <path d="M47.6350888,73.3190867 C47.2450605,73.3190867 46.8938855,73.3071647 46.5902313,73.2803401 C46.2856804,73.2505351 46.0331333,73.2117885 45.8056915,73.1342954 C45.6574508,73.0746853 45.4996463,73.0180557 45.3469225,72.8183619 L45.348118,72.8213424 C45.2453059,72.6812587 45.2106367,72.5173309 45.2109337,72.3891692 C45.2187063,72.0940992 45.3263003,71.8973859 45.4551143,71.667887 C45.5878136,71.4473297 45.7635505,71.2118698 45.9772442,70.9555464 C46.4034361,70.4488605 46.9811562,69.8587206 47.6434572,69.2387756 C48.9668638,67.9988856 50.6199264,66.6367949 51.9962333,65.6472673 C54.3737624,63.945399 57.5259685,63.6503291 60.2782835,63.638407 C60.7818833,63.6354265 61.2720339,63.6443681 61.7436544,63.6592706 C62.0281808,63.6652316 62.3055343,63.6771536 62.5748182,63.6860951 C62.769683,63.6920561 62.9370515,63.8053153 63.0195402,63.9662626 C63.0291041,63.9841456 63.0365759,64.0020286 63.0428523,64.0199117 C63.0670609,64.0825023 63.0799124,64.1510539 63.0769237,64.222586 C63.0673598,64.5027534 62.8363315,64.7233108 62.5580814,64.7262913 C62.5509085,64.7262913 62.5446321,64.7233108 62.5371603,64.7233108 C62.4307618,64.7203303 62.3222711,64.7173498 62.2128839,64.7143693 C61.5987013,64.6935057 60.9489529,64.6756227 60.2815711,64.6786032 C60.2609489,64.6786032 60.2400279,64.6786032 60.2200034,64.6786032 C57.5549592,64.6845642 54.632287,65.0213613 52.6068294,66.4907502 C51.4788854,67.3014475 50.1330634,68.3923122 48.9671626,69.4384694 C47.8027562,70.4786656 46.8060171,71.5039593 46.4174831,72.0940992 C46.3926767,72.1328458 46.3699624,72.1686118 46.3514323,72.2013974 C46.3816184,72.2043779 46.4147932,72.2103389 46.450359,72.2162999 C46.7298046,72.258027 47.1377653,72.2788905 47.6216396,72.2788905 L47.6321001,72.2788905 C47.6443538,72.2788905 47.6569065,72.2788905 47.6694591,72.2788905 C49.9402908,72.269949 53.8405743,71.7602827 55.7934059,70.9942929 C57.9366191,70.1627321 61.206282,68.0078271 62.6797224,66.9884945 C62.8500796,66.8692743 62.9971248,66.7679371 63.1166737,66.684483 C63.3414257,66.5265162 63.4672509,66.4371011 63.4672509,66.4371011 C63.5599013,66.37153 63.666001,66.3387444 63.7706063,66.3357639 C63.9331928,66.3357639 64.0927906,66.413257 64.1956027,66.5533408 C64.2102474,66.5742043 64.2225012,66.5920873 64.2332606,66.6129508 C64.241629,66.6278534 64.248802,66.6457364 64.2553772,66.6606389 C64.3444411,66.8782158 64.2774937,67.1345392 64.077847,67.2776034 C64.0757549,67.2805839 63.888362,67.4147066 63.5658788,67.641225 C63.0664632,67.9869636 62.2433689,68.550279 61.2798046,69.170224 C59.6895051,70.1865761 57.7348803,71.3519535 56.1717782,71.962957 C53.9604221,72.8124009 50.0448961,73.3041842 47.6350888,73.3190867" id="Path" fill="#357A38"></path>
                                <g id="Group" transform="translate(66.195709, 66.013690)" fill="#9C27B0">
                                    <path d="M3.12050696,8.91468991 L3.11593048,8.91468991 C3.0838951,8.91468991 3.05218662,8.91468991 3.02015124,8.9117094 C2.54256266,8.9087289 2.17154072,8.86700183 1.9319292,8.83123577 C1.62170909,8.7835477 1.40955646,8.51828277 1.46022466,8.23513481 C1.5050088,7.9817919 1.74625478,7.79998111 2.01986303,7.7970006 C2.05059084,7.7970006 2.08262621,7.79998111 2.11335402,7.80594212 C2.18984665,7.81488363 2.28203007,7.82680565 2.3895774,7.83872767 C2.58211654,7.8595912 2.8240163,7.87449373 3.11266156,7.87449373 C4.06947319,7.87151322 5.5355819,7.68672192 7.37205876,6.81641452 C9.0732025,6.01167822 12.0498772,4.64660701 13.8294749,3.41863903 C14.4211486,3.01627088 14.8735666,2.61986373 15.0801621,2.32777426 C15.2017657,2.16086599 15.2321666,2.0416458 15.2298784,1.99991873 L15.1988237,1.9194451 C15.0187064,1.69292674 14.7833445,1.53495998 14.4603756,1.4217008 C14.1393681,1.31142212 13.729773,1.25181202 13.2518575,1.25181202 L13.2485886,1.25181202 C13.2417238,1.25181202 13.2358398,1.25181202 13.2302826,1.25181202 C11.8203993,1.25479253 9.87343308,1.7942639 7.97255858,2.54237061 C6.06024287,3.29047732 4.17832809,4.24423886 2.83284237,5.03407264 C2.19311556,5.40663574 1.66747391,5.7523743 1.33862099,5.9997562 C1.20884504,6.09811286 1.11012378,6.17858649 1.04637993,6.24117709 C0.934909899,6.34847526 0.784539776,6.40212435 0.635150327,6.40212435 C0.492625601,6.40510485 0.35108155,6.35741678 0.239938415,6.25906012 C0.195481161,6.22031355 0.159849979,6.17858649 0.132717979,6.13387891 C0.12683393,6.12195689 0.122257448,6.11599589 0.117680966,6.10407387 C0.019940386,5.91630206 0.0519757601,5.68680319 0.219344246,5.52585593 C0.368406803,5.3827917 0.567156879,5.22482494 0.810691101,5.05195567 C1.1794248,4.78967124 1.65309069,4.49162076 2.21632487,4.15780422 C3.14829274,3.61237184 4.31431498,2.99838785 5.57611645,2.41718941 C8.10593034,1.26075354 10.9822493,0.229498871 13.2449928,0.211615842 C13.8255522,0.211615842 14.3721149,0.280167453 14.8676825,0.450056227 C15.3619426,0.622925507 15.8055345,0.906073464 16.1239268,1.31142212 C16.2827962,1.51111594 16.3717107,1.75849784 16.3700983,1.99395772 C16.3690955,2.33373527 16.2249363,2.63178575 16.033051,2.90003119 C15.836916,3.16827662 15.5799793,3.42460004 15.2749894,3.67794294 C14.6676249,4.18760927 13.8677212,4.69429509 12.9913249,5.19203939 C11.2418012,6.1845475 9.18761456,7.12638702 7.89868108,7.73739051 C5.90137357,8.68817154 4.23847614,8.9117094 3.12050696,8.91468991" id="Path"></path>
                                </g>
                                <g id="Group" transform="translate(66.195709, 76.575880)" fill="#9C27B0">
                                    <path d="M0.673863629,6.24229478 C0.473525793,6.24229478 0.286357018,6.11934895 0.214347474,5.92375332 C0.10591287,5.63035988 0.0560385554,5.32858377 0.0551979771,5.02960188 C0.0622027965,3.81690898 0.78902286,2.6545121 1.76661546,1.76036066 C2.55731948,1.04783372 3.52818745,0.494577518 4.5307172,0.298981889 C4.77784723,0.248685871 5.02693861,0.223537861 5.27518941,0.220743638 L5.34103471,0.220743638 C5.51391366,0.223537861 5.66465737,0.315747229 5.7489954,0.452664169 C5.75375868,0.458252616 5.75768137,0.466635285 5.76160407,0.475017955 C5.80111125,0.54766776 5.82296629,0.628700235 5.82128513,0.718115379 C5.81708224,0.98356659 5.60077342,1.19592756 5.33487047,1.19592756 C5.33178835,1.19592756 5.32814585,1.19592756 5.32506373,1.19592756 L5.27827153,1.19592756 L5.26145997,1.19592756 C5.1942137,1.19592756 5.12584666,1.19872178 5.05607866,1.20431023 C4.19448587,1.27696003 3.19784016,1.77433177 2.4245081,2.48127026 C1.57580418,3.24409321 1.02046209,4.23883669 1.03279058,5.02680766 C1.03279058,5.05754411 1.03391135,5.09107479 1.0358727,5.12460547 C1.65117603,4.89547916 2.52677846,4.50428791 3.43656441,4.13545043 C4.38557735,3.75264185 5.37577862,3.3865986 6.28136167,3.24129899 C6.52288785,3.20497409 6.75852997,3.1826203 6.98604651,3.17982608 L7.1454762,3.1826203 C7.41530184,3.19659142 7.62404546,3.42571772 7.61143679,3.69396316 C7.5993885,3.95382592 7.38392025,4.15780422 7.12474193,4.15780422 C7.11717673,4.15780422 7.10933133,4.15780422 7.10036516,4.15780422 L6.98912863,4.15501 L6.96867456,4.15501 C6.93140892,4.15501 6.8933027,4.15501 6.85407571,4.15780422 C6.06253112,4.19692335 4.90057167,4.5881146 3.80501791,5.03798455 C2.63157056,5.51020828 1.53825835,6.02993381 0.796027679,6.22552944 C0.754839341,6.23670633 0.714771774,6.24229478 0.673863629,6.24229478" id="Path"></path>
                                </g>
                                <g id="Group" transform="translate(0.000000, 100.340808)" fill="#4CAF50" fill-rule="nonzero">
                                    <path d="M109.875257,30.574176 C86.8498311,-8.81072331 43.354946,-8.90733895 0.0246011794,23.717582 C28.0891154,55.2142816 80.5155067,71.0249641 109.875257,30.574176" id="Path"></path>
                                </g>
                            </g>
                            <g id="Group" transform="translate(8.000000, 124.000000)" fill="#357A38" fill-rule="nonzero">
                                <path d="M101.528191,6.85395112 C93.1539748,6.799983 78.368766,5.1364951 61.9861705,3.49205476 C45.5937983,1.84761443 27.5750248,0.225396262 12.5564366,0.27301519 C8.46788374,0.285713571 4.5994643,0.422221167 1.04326851,0.714283929 C0.437113105,0.765077452 -0.0135612291,1.30158405 0.0368991582,1.91110633 C0.0857826584,2.52062862 0.617824367,2.97459574 1.22366439,2.92380221 C4.70543111,2.63491405 8.51834413,2.49840645 12.5630595,2.48570807 C27.4245897,2.44126374 45.3957413,4.05395812 61.7682447,5.69522386 C78.149894,7.3364896 92.905142,9.00950129 101.513999,9.06983387 C102.121416,9.07299319 102.61719,8.58093093 102.621008,7.97140864 C102.625705,7.35871176 102.135608,6.86030031 101.528191,6.85395112" id="Path"></path>
                            </g>
                            <g id="Group" transform="translate(69.000000, 58.000000)" fill="#00BCD4" fill-rule="nonzero">
                                <path d="M16.669511,41.548785 C28.4311362,27.7105974 22.7902845,11.6230821 4.90265249,0.01866662 C-3.2412425,14.6501856 -2.32819043,36.1634651 16.669511,41.548785" id="Path"></path>
                            </g>
                            <g id="Group" transform="translate(50.000000, 71.000000)" fill="#C8E6C9" fill-rule="nonzero">
                                <path d="M39.5977396,39.9204122 C45.2666418,17.5013288 28.7473172,2.69491701 0.298484519,0.0750324922 C-0.560110972,21.2779642 13.5996392,44.9413364 39.5977396,39.9204122" id="Path"></path>
                            </g>
                            <g id="Group" transform="translate(82.000000, 38.000000)" fill="#03ACF2" fill-rule="nonzero">
                                <path d="M25.8062847,88.6235183 C54.7830376,65.3629802 49.6252728,30.711757 18.1155103,0.276566608 C-3.89141884,26.5632579 -10.3260059,70.2929408 25.8062847,88.6235183" id="Path"></path>
                            </g>
                            <g id="Group" transform="translate(101.000000, 47.000000)" fill="#00579B" fill-rule="nonzero">
                                <path d="M6.98213422,78.3195725 C5.99561111,70.6242492 5.49388397,57.4184555 4.89169853,43.1202354 C4.28640904,28.8091252 3.57727501,13.383031 2.14546201,1.08920406 C2.07406889,0.473707092 1.5793964,0.0418924639 1.04013849,0.122454895 C0.501162768,0.203017325 0.12246883,0.770176837 0.194144135,1.38567381 C1.61071908,13.5409333 2.32182841,28.9315801 2.9251426,43.2265778 C3.5301499,57.5344654 4.02312927,70.7241466 5.03363821,78.6450447 C5.11208599,79.2573192 5.61240219,79.6859114 6.1496848,79.5956814 C6.68781397,79.5054515 7.06029981,78.9350695 6.98213422,78.3195725" id="Path"></path>
                            </g>
                            <g id="Group" transform="translate(105.000000, 90.000000)" fill="#00BCD4" fill-rule="nonzero">
                                <path d="M1.4953049,40.764787 C25.509072,44.1434452 39.58772,27.2937095 39.8375959,0.273777093 C17.519627,1.31910781 -6.05924411,16.7221804 1.4953049,40.764787" id="Path"></path>
                            </g>
                        </g>
                    </g>
                </g>
            </g>
        </g>
    </g>
</svg>