<?xml version="1.0" encoding="UTF-8"?>
<svg width="1364px" height="637px" viewBox="0 0 1364 637" version="1.1" xmlns="http://www.w3.org/2000/svg" xmlns:xlink="http://www.w3.org/1999/xlink">
    <!-- Generator: Sketch 64 (93537) - https://sketch.com -->
    <title>Plant3</title>
    <desc>Created with Sketch.</desc>
    <g id="Landing" stroke="none" stroke-width="1" fill="none" fill-rule="evenodd">
        <g transform="translate(-48.000000, -2579.000000)" id="Feature">
            <g transform="translate(-66.000000, 1216.000000)">
                <g id="Feature-3" transform="translate(99.000000, 1100.000000)">
                    <g id="Image" transform="translate(0.000000, 191.000000)">
                        <g id="Plant3">
                            <g id="Plant-Left">
                                <g id="Plant-Bottom" transform="translate(201.264983, 180.676607) scale(-1, -1) rotate(40.000000) translate(-201.264983, -180.676607) translate(86.764983, 41.676607)" fill-rule="nonzero">
                                    <g id="Group" transform="translate(62.717598, 80.832493) rotate(-70.000000) translate(-62.717598, -80.832493) translate(-0.282402, 37.332493)" fill="#8BC34A">
                                        <path d="M4.80162261,73.0305459 C-1.43528976,65.2766393 -1.80351138,48.8970244 4.91843774,42.0790225 C11.6505447,35.2610207 19.7615781,39.7995176 22.3492873,35.078968 C24.9471543,30.3558542 21.5925284,19.1865364 27.5856527,14.9300929 C38.2336061,7.3659314 47.8149865,27.0583926 56.2536102,22.2993812 C64.6896945,17.5378056 58.6660967,6.8890046 65.8172144,1.19408841 C72.97849,-4.50082779 79.9442273,12.1864818 90.7699428,9.20440727 C101.585501,6.22233274 125.806865,4.08898277 125.675351,18.1916568 C125.563077,29.3378976 112.604215,23.3019531 109.645745,27.045572 C106.275882,31.3148361 111.293854,36.3456445 106.51967,40.2174696 C99.7799449,45.686743 90.5591677,38.4148914 85.7951418,43.8328824 C81.0285765,49.2508733 86.9455169,56.9688822 77.709503,59.51762 C66.2717777,62.6689267 61.7667766,44.348271 50.4458665,54.9150201 C39.1173379,65.479205 57.8077594,73.556191 51.7562276,81.0818907 C45.1587119,89.2947753 31.384684,75.5767196 28.3500299,82.0947191 C24.2335662,90.9588908 14.482042,85.0588448 4.80162261,73.0305459" id="Path"></path>
                                    </g>
                                    <g id="Group" transform="translate(55.664808, 82.275363) rotate(-70.000000) translate(-55.664808, -82.275363) translate(2.164808, 55.275363)" fill="#558B2F">
                                        <path d="M1.46948431,53.7087913 C2.0388369,53.1039683 2.49998673,52.2864322 3.01266168,51.3484441 C3.77008095,49.9465875 4.61509293,48.2781987 5.67135791,46.8763421 C6.73019914,45.4693599 7.98225957,44.3673519 9.52543694,43.9496141 C11.8183048,43.3242886 14.3430357,43.1474548 16.9347493,42.8066012 C19.5264629,42.4631848 22.1954641,41.9480601 24.7459576,40.5538919 C30.2952131,37.5169631 33.0080107,33.1986297 35.0690155,29.2980342 C36.1020942,27.3451736 36.9883263,25.4896998 37.9698798,23.9238234 C38.9591622,22.3528214 40.0334609,21.0893565 41.4478255,20.2205642 C42.3675489,19.659309 43.1198157,19.4824751 43.8772349,19.4773495 C44.9438049,19.4722239 46.0773576,19.8848362 47.4324683,20.3589559 C48.7875789,20.8253871 50.3668239,21.3328233 52.2835584,21.3328233 C53.2393494,21.3328233 54.272428,21.2072457 55.3982519,20.9022714 C57.1784449,20.4204633 58.407319,19.7592585 59.3115849,18.9981042 C59.9917164,18.4291606 60.4863576,17.819212 60.9294736,17.2374543 C61.596724,16.3609736 62.1325852,15.5639399 63.0445798,14.8207253 C63.9643033,14.0800735 65.2704651,13.3573613 67.5118078,12.7474127 C68.7226482,12.4168103 69.7299643,12.2937955 70.6084676,12.2937955 C72.2959153,12.2937955 73.5479757,12.7499755 74.9906791,13.2651001 C76.4127724,13.7750992 78.0177799,14.3389172 80.1560724,14.3363544 C81.137626,14.3363544 82.2196535,14.2235908 83.4562564,13.9493702 C89.4254417,12.6320863 92.9549124,9.67204172 95.4023557,7.00672021 C96.6286535,5.67405945 97.6024783,4.42084578 98.4706766,3.49054606 C98.9137927,3.02411479 99.3234174,2.64225623 99.7072795,2.36547284 C100.09887,2.08868945 100.45697,1.91698124 100.825375,1.83753416 C101.283948,1.7375846 101.701302,1.69657966 102.077435,1.69657966 C103.177496,1.69914246 103.960678,2.03999608 104.491387,2.37828689 C104.754165,2.54486948 104.949961,2.71401489 105.071045,2.83446692 L105.207586,2.9702958 L105.233349,2.9984867 L105.233349,3.00361232 L105.599177,2.71145208 L105.223044,2.99592389 L105.233349,3.00361232 L105.599177,2.71145208 L105.223044,2.99592389 C105.514161,3.36753122 106.050022,3.43928987 106.426155,3.15481806 C106.791984,2.86778344 106.869271,2.33728194 106.580731,1.96567462 C106.536934,1.90929281 106.160801,1.43261031 105.418839,0.953365003 C104.676877,0.474119692 103.543325,0 102.077435,0 C101.575065,0 101.036628,0.0563818012 100.45697,0.181959449 C99.8180585,0.320351143 99.2384009,0.612511386 98.7179972,0.986681521 C97.7982738,1.64788628 97.0047869,2.55255791 96.1443174,3.56486752 C94.8484606,5.08205054 93.4057572,6.85551447 91.3782437,8.45214457 C89.348154,10.0487747 86.7487116,11.4788222 83.0826993,12.2937955 C81.9568754,12.542388 81.0010844,12.6397747 80.1560724,12.6397747 C78.3140494,12.6397747 76.99243,12.1784691 75.5626079,11.66847 C74.1456671,11.1610338 72.6205235,10.594653 70.6084676,10.5972158 C69.5676601,10.594653 68.3980399,10.7458588 67.060963,11.1097777 C64.927823,11.6915353 63.4542046,12.4091219 62.361872,13.2061555 C61.5451988,13.8058529 60.9475074,14.4439924 60.4528663,15.0539409 C59.7186333,15.9714266 59.2085346,16.7915255 58.4743016,17.4732328 C57.7323399,18.15494 56.7533626,18.772577 54.9448309,19.2671992 C53.9632773,19.5337313 53.095079,19.6362437 52.2835584,19.6362437 C50.6733984,19.6362437 49.3260165,19.215943 47.9966683,18.7546373 C46.675049,18.3035829 45.3688872,17.7884583 43.8772349,17.7833327 C42.82097,17.7782071 41.6951461,18.0678045 40.5538646,18.7751398 C38.8226206,19.8361428 37.5860177,21.3405118 36.5194477,23.0242774 C34.9350502,25.5563328 33.7242099,28.5266286 31.9234069,31.3739096 C30.1251802,34.2237533 27.7807872,36.9480195 23.9189794,39.0674626 C21.6673316,40.3027366 19.2379222,40.7922332 16.7131913,41.1253984 C14.1987654,41.4585636 11.5967468,41.6302718 9.07459213,42.311979 C7.70144766,42.6861491 6.55758998,43.4473035 5.60437525,44.3699148 C4.17970566,45.7563945 3.15693202,47.509356 2.30419127,49.0701067 C1.87653276,49.8492007 1.50297564,50.5821641 1.15260482,51.1921127 C0.812539022,51.7994985 0.487930761,52.2838694 0.232881413,52.5401503 C-0.0917268474,52.8784411 -0.0736930551,53.416631 0.266372742,53.739545 C0.606438539,54.0624589 1.14487605,54.0496449 1.46948431,53.7087913" id="Path"></path>
                                    </g>
                                    <g id="Group" transform="translate(134.766886, 74.408030) rotate(40.000000) translate(-134.766886, -74.408030) translate(99.766886, 6.908030)" fill="#558B2F">
                                        <path d="M36.5716805,134.328395 C-12.5521446,104.425898 -10.6096795,51.4685615 33.0291143,0.264592646 C71.864001,35.9281534 89.5407937,100.506399 36.5716805,134.328395" id="Path"></path>
                                    </g>
                                    <g id="Group" transform="translate(134.797986, 79.894247) rotate(40.000000) translate(-134.797986, -79.894247) translate(130.797986, 16.394247)" fill="#8BC34A">
                                        <path d="M7.15489717,124.878728 C7.19297539,123.783547 7.20439885,122.607632 7.20439885,121.354492 C7.20439885,111.266189 6.06966796,96.2320198 4.95016834,79.5726302 C3.81543745,62.9167508 2.69213002,44.6496915 2.69213002,28.1798525 C2.69213002,18.4144875 3.09575913,9.27744769 4.1048319,1.50587403 C4.19241181,0.86701838 3.70120279,0.287836062 3.00817923,0.214121948 C2.31515566,0.136897639 1.69828852,0.589712907 1.61070862,1.22505836 C0.574981092,9.14055005 0.171351981,18.3548142 0.171351981,28.1798525 C0.171351981,44.7444668 1.30608288,63.0501383 2.42939031,79.7165483 C3.56412121,96.3794481 4.68362082,111.413617 4.68362082,121.354492 C4.68362082,122.58657 4.67219735,123.741425 4.63411914,124.805014 C4.6112722,125.44738 5.1519829,125.98444 5.85642993,126.005948 C6.5494535,126.023052 7.12824242,125.521094 7.15489717,124.878728" id="Path"></path>
                                    </g>
                                    <g id="Group-4" transform="translate(134.926115, 185.602791) rotate(-10.000000) translate(-134.926115, -185.602791) translate(53.426115, 106.602791)">
                                        <g id="Group" transform="translate(81.427506, 79.089215) scale(1, -1) rotate(200.000000) translate(-81.427506, -79.089215) translate(16.927506, 18.589215)" fill="#C8E6C9">
                                            <path d="M16.5371583,88.3839999 C11.8095227,81.739245 12.1492658,67.2379241 17.8343906,60.9522827 C23.527706,54.6662728 29.8914827,58.3937093 32.1615149,54.1167279 C34.4398373,49.8371058 32.169032,40.0612197 37.1669184,36.0719322 C46.0467061,28.9826256 53.0070573,46.0852889 59.9963608,41.5619155 C66.9837164,37.0363621 62.5406034,27.8185762 68.5281277,22.5125764 C74.5238426,17.206208 79.4919242,31.7407896 88.3369481,28.7054173 C97.1737814,25.6704136 116.787149,22.9010512 116.132521,35.40283 C115.609187,45.2840486 105.394658,40.4055702 102.863641,43.8303048 C99.9804746,47.7357642 103.831083,52.0116955 99.8310162,55.6159251 C94.183981,60.707045 87.0316245,54.597734 82.9796512,59.5717192 C78.9256302,64.5457964 83.3966577,71.1703514 75.8503033,73.7640407 C66.505219,76.9715845 63.5847921,60.900333 54.045672,70.6747811 C44.5005086,80.4472334 59.2572427,86.9263883 54.0851892,93.814824 C48.446182,101.332016 37.8729508,89.6756672 35.1726687,95.5616644 C31.508897,103.565961 23.8752625,98.691525 16.5371583,88.3839999" id="Path" transform="translate(64.702679, 60.444432) rotate(-210.000000) translate(-64.702679, -60.444432) "></path>
                                        </g>
                                        <g id="Group" transform="translate(78.346711, 75.951666) scale(1, -1) rotate(200.000000) translate(-78.346711, -75.951666) translate(25.846711, 28.951666)" fill="#357A38">
                                            <path d="M10.2339207,75.0815954 C10.723533,74.4847096 11.1441662,73.6980648 11.6139358,72.7965926 C12.3091489,71.4498851 13.0924309,69.8508186 14.0213143,68.4845757 C14.9525886,67.1134215 16.0125395,66.0118417 17.2498514,65.5244149 C19.0886028,64.7958919 21.0757041,64.4672197 23.1272286,63.9823947 C25.1789413,63.4951982 27.3036997,62.8440608 29.4003698,61.3872552 C33.9624769,58.2143081 36.4008619,54.0410429 38.2989172,50.2969352 C39.2501475,48.4223414 40.079403,46.6474629 40.9619176,45.1343296 C41.850852,43.6159481 42.7836699,42.3765859 43.9533962,41.4802004 C44.7137662,40.900726 45.3149609,40.6879191 45.9075707,40.6336639 C46.7419085,40.5591998 47.5979338,40.8669069 48.6226792,41.2170463 C49.6479893,41.5600712 50.84554,41.9263882 52.3442529,41.8010921 C53.091595,41.7386124 53.9085939,41.5548784 54.8112896,41.1990785 C56.2386328,40.6368713 57.248073,39.9447005 58.0110412,39.1812617 C58.5846369,38.610335 59.016208,38.0135901 59.4054203,37.4462996 C59.9915356,36.5916382 60.4690803,35.8190813 61.2367738,35.0717377 C62.0103223,34.3262603 63.0847127,33.5721218 64.8820465,32.8611958 C65.8531,32.4761238 66.6497667,32.2964453 67.3366768,32.2390179 C68.6561082,32.1287102 69.6015955,32.4689856 70.6918182,32.8513426 C71.7663022,33.2303039 72.9798551,33.6471092 74.6519946,33.5049584 C75.4194807,33.4407947 76.2738119,33.2657182 77.2608676,32.9311345 C82.0249975,31.3219946 85.0021678,28.3522242 87.1116403,25.7259047 C88.1683909,24.4125766 89.0218942,23.1892681 89.7690861,22.27167 C90.1498266,21.8110957 90.4981672,21.4309693 90.8186451,21.1497574 C91.1451661,20.8680403 91.4377812,20.6857428 91.7316764,20.5881448 C92.0975817,20.4656806 92.4269266,20.4004548 92.7210289,20.3758671 C93.5809891,20.306328 94.1683274,20.5705376 94.558443,20.8488797 C94.7516746,20.9858477 94.8923436,21.1295658 94.978172,21.2331098 L95.0749572,21.3498722 L95.0930304,21.3742743 L95.0926538,21.3790172 L95.4001605,21.0847554 L95.085161,21.3725765 L95.0926538,21.3790172 L95.4001605,21.0847554 L95.085161,21.3725765 C95.28549,21.6974097 95.6992137,21.7287819 96.0142131,21.4409608 C96.3213432,21.1514419 96.4207456,20.6554949 96.222431,20.3304932 C96.192328,20.2811837 95.9332426,19.8646776 95.3883008,19.469714 C94.843359,19.0747504 93.9918519,18.7101279 92.8456588,18.8059525 C92.452851,18.8387922 92.0276998,18.926162 91.5652351,19.0802561 C91.0554979,19.250081 90.5807962,19.5583208 90.1464012,19.9385743 C89.3786889,20.6105361 88.6917972,21.4995357 87.9446241,22.4925158 C86.8199298,23.9811369 85.5615884,25.7165047 83.8589686,27.3264696 C82.1543344,28.9366029 80.016755,30.4298088 77.0903975,31.4235827 C76.1918436,31.7272101 75.4373475,31.8798057 74.7766246,31.9350438 C73.3363292,32.0554561 72.3368297,31.7149847 71.2563025,31.3365286 C70.185659,30.9596019 69.0347407,30.5352046 67.4613067,30.6691033 C66.6476778,30.7347689 65.722033,30.9511434 64.6498266,31.3752966 C62.9391684,32.0530633 61.7342185,32.8134053 60.8215636,33.6223385 C60.1389456,34.2306486 59.6247275,34.860216 59.1931564,35.4569609 C58.5516546,36.3539444 58.0925594,37.1461605 57.4683778,37.8249686 C56.8381529,38.5042819 56.0273099,39.1398021 54.576867,39.7157192 C53.7898016,40.026516 53.1034186,40.1781287 52.4688829,40.2311774 C51.2098834,40.3364329 50.1872277,40.0355892 49.1816851,39.6956232 C48.1814326,39.3646377 47.197973,38.9733551 46.0320124,39.0661208 C45.2064853,39.1304254 44.3049192,39.4719964 43.3605798,40.2011279 C41.9289628,41.2960881 40.851541,42.7689785 39.8938911,44.396757 C38.469032,46.8433429 37.3040679,49.6710314 35.686843,52.4234548 C34.0714442,55.1780812 32.0382177,57.8522082 28.86294,60.0658605 C27.0116125,61.3560994 25.0760759,61.9678601 23.0774906,62.441192 C21.0869629,62.9138504 19.0398062,63.2428319 17.0176315,64.0385157 C15.9164704,64.4745125 14.9661631,65.2536132 14.1530609,66.1696545 C12.937248,67.545751 12.0087598,69.2346963 11.2273417,70.7346662 C10.8357195,71.4835496 10.4897885,72.18621 10.1710237,72.773524 C9.86050471,73.3577928 9.57110875,73.8272206 9.35285696,74.0810403 C9.07419199,74.4152941 9.0487576,74.9121244 9.29093718,75.1887 C9.53311676,75.4652755 9.9550675,75.4182207 10.2339207,75.0815954" id="Path" transform="translate(52.725160, 47.079597) rotate(-210.000000) translate(-52.725160, -47.079597) "></path>
                                        </g>
                                    </g>
                                </g>
                                <g id="Plant-Top" transform="translate(153.085561, 181.473881) scale(-1, 1) rotate(110.000000) translate(-153.085561, -181.473881) translate(49.085561, 56.973881)">
                                    <g id="Group-3" transform="translate(0.000000, -0.000000)">
                                        <g id="Group" transform="translate(42.660345, 0.000000)" fill="#357A38">
                                            <path d="M34.9646866,115.130678 C34.735821,115.130678 34.5094797,115.02181 34.3664387,114.817137 C33.770715,113.963607 32.8729225,112.600573 31.7475265,110.754162 C31.8064257,110.754162 31.8636421,110.754162 31.9195964,110.754162 L31.9503081,110.754162 L32.1173295,110.754162 C32.1307922,110.758517 32.142572,110.758517 32.1539312,110.754162 C32.5430868,110.754162 32.8666119,110.436266 32.8847023,110.031275 C32.9036342,109.61322 32.5902062,109.256131 32.1850636,109.238712 L31.9456803,109.234357 C31.6040648,109.234357 31.2502487,109.269195 30.8875977,109.330161 C30.3166959,108.372118 29.7016197,107.309561 29.0478382,106.155554 C29.1525947,106.14249 29.2552476,106.138135 29.3562177,106.138135 L29.3814603,106.138135 L29.4517186,106.14249 C29.4563464,106.14249 29.4618156,106.138135 29.4664434,106.138135 C29.8656961,106.138135 30.1904833,105.807175 30.1967939,105.393474 C30.1993181,105.258477 30.1665029,105.127835 30.1071829,105.014612 C32.5910476,109.443385 34.5460813,112.47864 35.5553617,113.928769 C35.7926415,114.268439 35.7194381,114.743106 35.3912853,114.986972 C35.2608656,115.082776 35.1131968,115.130678 34.9646866,115.130678 Z M30.088251,104.984128 C29.9616177,104.766391 29.7352764,104.62704 29.475699,104.622685 L29.3768325,104.61833 C29.0040845,104.622685 28.6300744,104.666232 28.2590092,104.740263 C26.8719323,102.227577 25.3397109,99.3186086 23.7304998,96.0394876 C23.7654187,96.1048088 23.8112759,96.1701299 23.8684923,96.2267416 C24.0115333,96.3660933 24.1937002,96.4357692 24.3771292,96.4357692 C24.5693932,96.4357692 24.7629192,96.3573838 24.9063809,96.1962584 C24.9884191,96.1091635 25.1154732,95.9872307 25.2824946,95.847879 C25.7402257,96.7710844 26.1920669,97.6681613 26.6350733,98.534755 C26.4966601,98.517336 26.3780202,98.4999171 26.2795744,98.4824981 C26.2400278,98.4781433 26.1987983,98.4737886 26.1592517,98.4737886 C25.8071184,98.4737886 25.4966353,98.7394279 25.4389982,99.1139357 C25.3737884,99.5276363 25.6468284,99.9152083 26.046081,99.9848842 C26.3544605,100.037141 26.831965,100.098108 27.4466206,100.102462 C28.3751248,101.879197 29.2607168,103.507871 30.088251,104.984128 Z M23.7111472,96.000295 C22.8486942,94.2453338 21.9656265,92.3858588 21.0674132,90.42187 C21.521358,90.0952643 21.7851424,89.8993009 21.7880874,89.8949462 C22.0691208,89.6859186 22.1633596,89.3114107 22.0379884,88.9935145 C22.9075934,90.9139559 23.7645772,92.7342382 24.6030499,94.4630709 C24.2896218,94.715646 24.0338309,94.9464473 23.8419877,95.1511202 C23.6265848,95.3862763 23.5853553,95.7259462 23.7111472,96.000295 Z M20.4350879,89.0283525 C20.0122756,88.0877281 19.5886218,87.1296848 19.1628645,86.1498678 C19.316844,86.1542225 19.4695612,86.1585773 19.6193336,86.162932 C19.6298513,86.162932 19.6386862,86.1672867 19.6487832,86.1672867 C20.0404631,86.162932 20.365671,85.8406811 20.3791336,85.4313353 C20.3833407,85.3268215 20.3652503,85.2266624 20.3311728,85.1352128 C20.8928191,86.432926 21.4527825,87.7001561 22.0068559,88.9238386 C21.9917104,88.8933555 21.9744614,88.867227 21.9538466,88.8367438 C21.8091228,88.6320709 21.5844643,88.5188476 21.3555987,88.5188476 C21.2083507,88.5232024 21.058999,88.5667498 20.9285793,88.6669089 C20.9285793,88.6669089 20.7514609,88.7975511 20.4350879,89.0283525 Z M20.2983576,85.0568274 C20.1822419,84.8216714 19.946645,84.6561912 19.6723429,84.6474817 C19.2932843,84.6300627 18.9028665,84.6169985 18.5023517,84.608289 C18.0972092,83.6589552 17.6937495,82.6878476 17.2886069,81.6993211 C17.409771,81.9736699 17.6743968,82.1435048 17.9579546,82.1435048 C18.0328407,82.1435048 18.1106719,82.1304406 18.185558,82.1043121 C18.1863994,82.1043121 18.4640672,82.0085078 18.9432546,81.8430276 C19.3955165,82.9404227 19.8477784,84.0116893 20.2983576,85.0568274 Z M17.27262,81.6601284 C16.7757629,80.4451553 16.2789058,79.2040537 15.7833109,77.9368237 C15.6133445,77.4969947 15.4416953,77.0571658 15.271729,76.6086273 C15.3146413,76.7087864 15.3764855,76.800236 15.4602065,76.8742666 C15.5998818,77.0049089 15.7736345,77.0658752 15.944863,77.0658752 C16.1493275,77.0615205 16.3516884,76.9744257 16.4947294,76.8045907 C16.5683534,76.7174959 16.6718478,76.6086273 16.8039504,76.4866945 C16.9175417,76.782817 17.0315538,77.0745847 17.1455659,77.3663525 C17.5519706,78.4114906 17.9600581,79.4348551 18.3681456,80.4408006 C17.9604788,80.5801523 17.7278269,80.6628924 17.726144,80.6628924 C17.3420369,80.7935347 17.1321032,81.2202994 17.2591573,81.6209357 C17.2621022,81.634 17.26673,81.6470642 17.27262,81.6601284 Z M15.2523764,76.5607251 C14.8013765,75.38059 14.352901,74.1830358 13.9077911,72.963708 C14.1884038,72.6850045 14.4639681,72.3932367 14.7315389,72.0927595 C14.9200164,71.8793771 14.9709222,71.5876094 14.8846769,71.3306796 C15.3318903,72.5717812 15.781628,73.7954637 16.2343107,74.9930179 C15.8859638,75.2891404 15.6032475,75.5591344 15.3924724,75.803 C15.2115676,76.0163823 15.1665518,76.3081501 15.2523764,76.5607251 Z M13.3457241,71.4003555 C12.7104539,69.6236206 12.0827564,67.7989835 11.4681008,65.9351538 C11.6111418,65.9569275 11.7562863,65.9787012 11.9031137,66.0048297 C11.9439225,66.0091844 11.9838898,66.0135392 12.0234364,66.0135392 C12.3755697,66.0091844 12.6856321,65.7435452 12.744952,65.3733921 C12.7622011,65.2601688 12.7546283,65.1513002 12.7264408,65.0467864 C13.4286038,67.1849649 14.146333,69.2708865 14.872897,71.2958416 C14.8333504,71.1956826 14.7715062,71.0998782 14.6886266,71.0214929 C14.5460063,70.8864959 14.3684672,70.81682 14.1892453,70.8211747 C13.9923535,70.8211747 13.7958825,70.9039148 13.6511587,71.0650403 C13.5501886,71.1782636 13.4479564,71.2914869 13.3457241,71.4003555 Z M12.7024604,64.9727558 C12.6111666,64.7332449 12.4020743,64.545991 12.1378692,64.5024436 L12.1361864,64.5024436 C11.7238918,64.4327677 11.3271634,64.3761561 10.9443184,64.3282539 C10.2228028,62.0855616 9.5185363,59.7862576 8.8382502,57.430342 C8.91229494,57.6611434 9.08857192,57.8483973 9.32795522,57.9224279 C9.74529834,58.0487154 10.1710556,58.1445198 10.6001786,58.2185504 C11.2808854,60.5265638 11.9843105,62.7779656 12.7024604,64.9727558 Z M8.82478752,57.3867946 C7.88913117,54.1468663 6.99849067,50.8067789 6.1667494,47.3621777 C6.29885196,47.3970157 6.42969239,47.4362083 6.56179495,47.4797558 C6.63331544,47.5015295 6.70820161,47.510239 6.78056352,47.510239 C7.09315015,47.510239 7.38175638,47.3012113 7.47894011,46.9746057 C7.5168039,46.8483181 7.52101098,46.7176759 7.49534775,46.5957431 C7.87272353,48.1721598 8.26356199,49.7268028 8.66449747,51.2596721 C8.29301161,51.6428894 7.97243151,52.0261068 7.71495774,52.4136788 C7.48861641,52.7620582 7.57528242,53.2323704 7.91227016,53.4675265 C8.03848279,53.5589761 8.1823652,53.6025235 8.32498548,53.6025235 C8.55805814,53.5981688 8.78818585,53.4805907 8.92996471,53.2672083 C8.98844323,53.1757588 9.05281168,53.0843092 9.12433217,52.9885048 C9.45080219,54.1947685 9.7814793,55.3879679 10.121412,56.568103 C9.99351653,56.5376198 9.86562105,56.5027819 9.74067054,56.4635892 C9.67041218,56.4418155 9.60141594,56.433106 9.53199899,56.433106 C9.21520527,56.433106 8.92365408,56.6508431 8.82941531,56.9818036 C8.79155152,57.1168006 8.79197223,57.2561523 8.82478752,57.3867946 Z M7.4835679,46.5434862 C7.41835804,46.3083301 7.23997751,46.1036572 6.99470429,46.0252718 C6.58661677,45.8946296 6.17937066,45.7901157 5.77591094,45.7117304 C5.47678699,44.4357909 5.18818076,43.1511419 4.90883013,41.8490739 C5.04387765,41.8926213 5.16420036,41.9361688 5.26727401,41.9797162 C5.35688498,42.0145541 5.44775808,42.0319731 5.53736905,42.0319731 C5.82934095,42.0319731 6.10490521,41.8447192 6.21849658,41.5485967 C6.2723473,41.4048902 6.28244432,41.256829 6.25425683,41.1174772 C6.64677813,42.9508237 7.0573899,44.7623965 7.4835679,46.5434862 Z M6.24962903,41.0957035 C6.19746114,40.8649021 6.03675038,40.6602293 5.80325701,40.5644249 C5.45028234,40.4207184 5.03167709,40.2987856 4.55753829,40.1942718 C3.91721952,37.115469 3.32991005,33.9756998 2.80360336,30.7618999 C2.86628897,31.114634 3.16667504,31.3802733 3.52596034,31.3846281 C3.80068318,31.3802733 4.09265508,31.3889828 4.39935179,31.402047 C4.95510809,34.7072965 5.57523284,37.9385153 6.24962903,41.0957035 Z M2.79897556,30.7401262 C2.58988329,29.459832 2.39088804,28.1664735 2.20072766,26.8687603 C2.22008027,26.9776288 2.26173044,27.0777879 2.32820243,27.1735922 C2.47208483,27.3782651 2.69716403,27.4914884 2.92602961,27.4871337 C3.07285698,27.4871337 3.22262931,27.4392315 3.35262832,27.3434272 C3.46579899,27.2606871 3.58696312,27.1692375 3.71738284,27.0821426 C3.85537532,28.0184122 3.99883702,28.9503271 4.14818864,29.8735325 C3.93404787,29.864823 3.72705914,29.864823 3.52469822,29.864823 L3.52343609,29.864823 C3.11829353,29.864823 2.79182351,30.2044929 2.7914028,30.6225482 C2.79182351,30.6617408 2.79476847,30.7009335 2.79897556,30.7401262 Z M2.19357562,26.8165033 C2.01309155,25.5797565 1.84228378,24.3299455 1.68199373,23.0714249 C2.01182942,23.0017491 2.30506344,22.919009 2.55454375,22.8275594 C2.93402308,22.6838529 3.12965267,22.2483786 2.98997735,21.8520971 C2.88059306,21.5429104 2.59829747,21.3556565 2.29875281,21.3556565 C2.21503176,21.3556565 2.13173142,21.3687207 2.04969321,21.3992039 C1.91170073,21.4558155 1.72280248,21.5080724 1.4939369,21.5603293 C1.40937444,20.8548611 1.32691551,20.1493928 1.24866368,19.4439246 C1.33364685,19.504891 1.41147798,19.5658573 1.48383989,19.6268237 C1.61930812,19.740047 1.78380526,19.7966587 1.94535743,19.7966587 C2.1594982,19.7966587 2.37027331,19.6964996 2.51499713,19.5136004 C2.63658197,19.3568297 2.68874986,19.1652211 2.67528718,18.9779671 C2.91340835,21.159693 3.18266197,23.3109358 3.4809445,25.4404048 C3.11450715,25.6712061 2.78340933,25.8976527 2.49354098,26.1153898 C2.2693032,26.28087 2.164126,26.5508641 2.19357562,26.8165033 Z M2.66897654,18.9257102 C2.64205118,18.742811 2.5520195,18.5686214 2.4035093,18.4466886 C2.03875478,18.1418566 1.5751337,17.8152509 1.04125425,17.493 C0.761903613,14.7451576 0.532196616,11.9581225 0.358023178,9.13189469 C0.391259172,9.46720985 0.637373812,9.74591336 0.970575172,9.80687976 C1.2688577,9.85478192 1.57134732,9.88961986 1.87762332,9.90703883 C2.08082566,12.9553585 2.3462929,15.9644854 2.66897654,18.9257102 Z M0.353395381,9.07528304 C0.18721541,6.36663331 0.0702583674,3.63185511 0.0096763021,0.862238984 C-0.000841417574,0.444183719 0.321421513,0.0958043316 0.72488124,0.0870948469 L0.740868174,0.0870948469 C1.13885869,0.0870948469 1.46701154,0.413700523 1.47668784,0.827401045 C1.49772328,1.80721807 1.52675219,2.78268036 1.56209173,3.7537879 C1.12960309,4.06732935 0.753489437,4.35909709 0.456048325,4.5768342 C0.127895471,4.82505452 0.0534300159,5.29972143 0.290709772,5.63939133 C0.434592177,5.84406422 0.659671378,5.95728753 0.888536958,5.95293278 C1.03704716,5.95293278 1.18681949,5.90938536 1.31555638,5.80922629 C1.41526436,5.73519567 1.52170368,5.6568103 1.63655718,5.56971546 C1.67862806,6.5103398 1.7282717,7.44660941 1.78212242,8.37416953 C1.58607213,8.3611053 1.39170467,8.33497684 1.20533067,8.30449365 C1.16410121,8.29578416 1.12455459,8.29578416 1.08500796,8.29578416 C0.731191872,8.29578416 0.420708787,8.56142345 0.363071683,8.93157655 C0.356340343,8.97947871 0.353395381,9.02738088 0.353395381,9.07528304" id="Shape"></path>
                                        </g>
                                        <path d="M44.9408811,15.2585825 C44.7428535,15.2623529 44.5459618,15.2548122 44.350206,15.2435012 C44.0745576,15.2284198 43.8023169,15.1982571 43.5338626,15.1567834 C43.2339814,15.1039986 43.0124782,14.8626969 42.9825659,14.5723807 C42.9810513,14.5572994 42.9795368,14.5384477 42.9784008,14.5233663 C42.9784008,14.4818926 42.9810513,14.4404188 42.9871095,14.3989451 C43.0389829,14.0784662 43.3184177,13.8484755 43.6368522,13.8484755 C43.6724441,13.8484755 43.7080361,13.8484755 43.7451426,13.8560162 C43.9128792,13.8824086 44.0878099,13.9050306 44.2642552,13.9163416 C44.4838652,13.9351933 44.7083974,13.9465043 44.9370947,13.9465043 L44.9439102,13.9465043 C46.0794453,13.942734 47.3047176,13.7014323 48.365661,13.2942356 C49.4292549,12.8908092 50.3228403,12.3026362 50.8165842,11.6843005 C51.1478923,11.2733335 51.3054057,10.8661368 51.3054057,10.4551698 C51.3046484,10.2100977 51.2482314,9.94617392 51.1062422,9.65208742 C50.9241173,9.28259413 50.7196529,9.07145511 50.4962565,8.93572288 C50.270967,8.80376099 50.0055418,8.73966522 49.6700686,8.73966522 C49.6609813,8.73966522 49.6526512,8.73966522 49.6435639,8.73966522 C48.8241915,8.74343556 47.6689672,9.21849836 46.5981792,9.84437475 C45.6591572,10.3873037 44.7788241,11.0207207 44.1332465,11.4882429 C44.0298783,11.5636496 43.9340829,11.6315158 43.8443457,11.6956115 C43.7284825,11.7823293 43.5936874,11.8200327 43.4600283,11.8200327 C43.2540492,11.8238031 43.051478,11.7257743 42.9219838,11.5485683 C42.708432,11.2544818 42.7754509,10.8435148 43.0707885,10.6286054 C43.3384855,10.4400884 43.6769878,10.1874757 44.0662275,9.9160112 C44.6103302,9.53520689 45.2525001,9.10161783 45.934427,8.70573216 C47.1116122,8.0346117 48.3978452,7.43889803 49.6659036,7.42381667 L49.6712045,7.42381667 C50.1850161,7.42381667 50.7071578,7.53315652 51.1717465,7.80839132 C51.6389857,8.08362611 52.0259537,8.52098552 52.2959225,9.08276613 C52.5151538,9.53143655 52.6264734,9.99895868 52.6261289,10.4513994 C52.6298811,11.2205487 52.3190194,11.9256023 51.8464793,12.5100049 C51.3716673,13.0981779 50.7325266,13.5845517 50.0017554,13.9879781 C48.5390772,14.7872901 46.6962465,15.2510419 44.9408811,15.2585825" id="Path" fill="#357A38"></path>
                                        <path d="M39.8686461,24.3702635 C38.6456961,24.3736149 37.3217761,24.2831268 36.1109425,24.0384736 C34.9037439,23.7938205 33.7890339,23.4050566 33.0172184,22.7213683 C32.5026747,22.2655761 32.1751277,21.6522675 32.1767365,20.958525 C32.1763393,20.7976572 32.1941101,20.6300865 32.2272283,20.4591645 C32.373433,19.6648796 32.83628,19.0314625 33.5059137,18.6494014 C34.1707009,18.2673403 34.9691725,18.1332838 35.7878382,18.1299324 C37.196977,18.1299324 38.7353576,18.5119935 40.129149,18.994597 C40.8900597,19.26271 41.6012932,19.5609858 42.2147876,19.8592615 C42.7273118,20.1106175 43.1723881,20.3586221 43.5225524,20.593221 C43.6651222,20.6870606 43.7515526,20.8211171 43.777401,20.9618764 C43.7802281,20.9752821 43.7818436,20.9886877 43.7834592,21.0020934 C43.7963833,21.1462042 43.7463022,21.2936663 43.6295807,21.4143172 C43.4906458,21.5550766 43.2883018,21.6321591 43.0827266,21.6321591 C42.9276365,21.6321591 42.7697193,21.5919421 42.6396698,21.5048054 C42.5702023,21.4578856 42.4954845,21.4076144 42.4139006,21.3606946 C41.7652686,20.9652279 40.7192183,20.4692187 39.5822949,20.073752 C38.3068405,19.6246626 36.8977016,19.2995756 35.80884,19.2995756 C35.8031856,19.2995756 35.7975313,19.2995756 35.791877,19.2995756 L35.785011,19.2995756 C35.1493032,19.302927 34.6484915,19.4135236 34.3108474,19.611257 C33.9748189,19.8089903 33.7316829,20.090509 33.6173847,20.6468436 C33.5947674,20.7574402 33.5854782,20.861334 33.585882,20.9551736 C33.5931519,21.3606946 33.7462226,21.6455647 34.0527678,21.9270834 C34.3601208,22.2052507 34.8423541,22.4566067 35.4534252,22.6509886 C36.6638548,23.0431039 38.3339004,23.2073232 39.8391628,23.2006204 C39.8472404,23.2006204 39.8557219,23.2006204 39.8642034,23.2006204 C39.8827819,23.2006204 39.899341,23.2006204 39.9179195,23.2006204 C40.9886066,23.2006204 41.9914417,23.1067808 42.6493629,22.9894813 C42.8690739,22.9526158 43.0504162,22.9090474 43.182889,22.8688305 C43.2616456,22.8453706 43.341614,22.8319649 43.4219862,22.8319649 C43.709549,22.8319649 43.9805528,22.9760757 44.0855617,23.214026 C44.21965,23.5190046 44.0318456,23.8541459 43.6675455,23.9647425 C43.4280444,24.0351222 43.1465397,24.0987991 42.8298975,24.1524217 C42.0281948,24.2864782 41.0011268,24.3635607 39.8686461,24.3702635" id="Path" fill="#357A38"></path>
                                        <path d="M51.3514481,33.0207333 C49.1858412,33.0244677 46.7431723,32.7303812 44.8643205,32.6512041 C44.5698917,32.6398931 44.2895987,32.6361227 44.0258647,32.6361227 C43.6809509,32.6361227 43.3925802,32.4023617 43.332402,32.0969641 C43.3307865,32.0894235 43.3295749,32.0856531 43.3279594,32.0781124 C43.3239205,32.0441794 43.3210934,32.0102463 43.3206895,31.9763133 C43.3210934,31.6143607 43.6345046,31.3202742 44.0234415,31.3202742 L44.0246531,31.3202742 C44.2189196,31.3202742 44.4176288,31.3240445 44.6232039,31.3278148 C46.6527031,31.3919106 49.1914955,31.7123895 51.3288308,31.7048488 C51.3344851,31.7048488 51.3413511,31.7048488 51.3470054,31.7048488 L51.3655839,31.7048488 C52.3151068,31.7010785 53.1786032,31.6332124 53.8405632,31.4673174 C54.5146397,31.2976521 54.9480034,31.0450394 55.1709454,30.7396419 C55.3211889,30.5360435 55.4148891,30.2834308 55.4165047,29.8988561 C55.4156969,29.6236213 55.3591536,29.2805204 55.2238537,28.8695534 C54.9080192,27.9118871 54.41892,27.3425658 53.8130993,26.9730725 C53.2044515,26.6073496 52.4374826,26.4414546 51.5525805,26.4414546 C51.5372331,26.4414546 51.5214817,26.4414546 51.5061343,26.4414546 C49.0630615,26.4489953 45.9140058,27.8402506 44.2096303,28.9110271 C44.0844274,28.9902042 43.9681098,29.065611 43.859466,29.1410178 C43.734667,29.2239653 43.5908855,29.265439 43.4499312,29.265439 C43.2302203,29.265439 43.0141443,29.1711805 42.8760171,28.9902042 C42.812204,28.9110271 42.7722199,28.820539 42.7536414,28.7262805 C42.7508142,28.7111991 42.7496026,28.6961177 42.7467754,28.6810364 C42.7185038,28.454816 42.8194739,28.2172846 43.0347422,28.0740117 C43.3130158,27.889265 43.6308697,27.689437 43.9826495,27.489609 C45.9220834,26.3811292 48.8546592,25.1519984 51.5485417,25.1255547 C52.6192288,25.1218357 53.6741645,25.3254341 54.5760295,25.868363 C55.47951,26.4075215 56.1871085,27.289781 56.5728144,28.4849787 C56.7380015,28.9939746 56.8236241,29.4614967 56.8252967,29.8950858 C56.8288746,30.4983401 56.6588409,31.05258 56.3276589,31.4899395 C55.9993041,31.9348395 55.5364572,32.2477777 55.0219135,32.4664574 C53.9875757,32.9000465 52.719795,33.0131567 51.3514481,33.0207333" id="Path" fill="#357A38"></path>
                                        <path d="M32.6815776,51.21647 C31.8407851,51.2201716 31.0142726,51.069358 30.3076261,50.6433096 C29.5966523,50.2172612 29.0674247,49.5423704 28.720376,48.6487999 C28.5645935,48.2453736 28.4832405,47.8532582 28.481812,47.4762243 C28.472855,46.5826538 28.9397696,45.8021935 29.6442525,45.2328722 C30.3487354,44.6597805 31.2743428,44.2525838 32.3254416,43.9396456 C34.4263411,43.3213099 37.0616609,43.0875489 39.5446601,43.0800082 C40.9713678,43.0762379 42.3457152,43.1516447 43.53096,43.2798362 C44.1229334,43.343932 44.6668738,43.4231091 45.151963,43.5135973 C45.6396486,43.6040854 46.070214,43.7134253 46.4332737,43.8340761 C46.6734383,43.9170236 46.8387408,44.0942296 46.8923992,44.2978279 C46.8941301,44.3053686 46.8954283,44.3091389 46.8971592,44.3129093 C46.9261521,44.4335601 46.9157666,44.565522 46.8603773,44.6861729 C46.7435404,44.9463263 46.4601029,45.1046806 46.1597889,45.1046806 C46.0676177,45.1046806 45.9741482,45.0895993 45.8819769,45.0594365 C45.7759583,45.0217331 45.6521978,44.9840297 45.5132918,44.9500967 C44.981035,44.8105941 44.2228938,44.6786322 43.3435884,44.5843737 C42.2336384,44.4637229 40.9203058,44.3920864 39.5602384,44.3958568 L39.5403328,44.3958568 C37.7635474,44.3996271 35.903678,44.5353593 34.3077733,44.8332162 C32.7053777,45.1273027 31.3786305,45.6099061 30.6771767,46.1943088 C30.2089639,46.5864241 29.9960612,46.9672284 29.9917339,47.4724539 C29.9925994,47.6911336 30.0389014,47.9399761 30.14968,48.2227515 C30.4318193,48.9391161 30.7801662,49.3274611 31.1661605,49.5612221 C31.553453,49.7949832 32.0350804,49.9005527 32.6872031,49.9005527 C32.6962904,49.9005527 32.7058104,49.9005527 32.7148977,49.9005527 C33.9135572,49.8967824 35.5722076,49.4745043 37.4610698,49.0182932 C39.3694049,48.5620821 41.5295882,48.0907896 43.8343031,48.083249 C44.6742302,48.083249 45.5349282,48.1435744 46.4051463,48.2906177 C46.8201335,48.3622541 47.2390152,48.4527423 47.6587623,48.5658525 C47.9110434,48.6337186 48.0945205,48.8071542 48.1615935,49.0145229 C48.1663535,49.0258339 48.1706808,49.0409153 48.1737099,49.059767 C48.2001064,49.1615661 48.1957791,49.2746763 48.1568335,49.3877865 C48.056873,49.6667916 47.7600209,49.8477679 47.4385033,49.8515383 C47.3640739,49.8515383 47.2870481,49.8402273 47.2134842,49.8213756 C47.0776072,49.7836722 46.9430285,49.7535095 46.8071516,49.7195764 C45.8114421,49.4895857 44.8209253,49.3990975 43.8390631,49.3990975 C43.836034,49.3990975 43.8347358,49.3990975 43.8330049,49.3990975 C41.7667237,49.4066382 39.7393882,49.8364569 37.8596133,50.2851273 C35.9724819,50.7300274 34.2558458,51.2050902 32.6919631,51.21647 L32.6815776,51.21647" id="Path" fill="#357A38"></path>
                                        <path d="M51.4766852,59.1479481 C50.7831468,59.1519698 50.0940258,59.1077311 49.4172736,59.0071887 C48.9666945,58.9388199 48.5196494,58.8503426 48.0814391,58.7337134 C47.8300866,58.6653446 47.6449958,58.4924117 47.5672488,58.2832835 C47.5623896,58.2671967 47.5575304,58.2551317 47.553113,58.2390449 C47.5186569,58.118394 47.5182152,57.9896997 47.5579722,57.8650272 C47.6569229,57.5593783 47.9630516,57.3582935 48.295685,57.3582935 C48.3685728,57.3582935 48.4410189,57.3703586 48.5147902,57.3864454 C48.6459882,57.4226406 48.7802785,57.4548142 48.9145687,57.4829661 C49.7287033,57.6639424 50.5874541,57.748398 51.471826,57.7443763 L51.4903793,57.7443763 C54.7327819,57.7363329 58.3321139,56.5579761 61.3156544,55.0096232 C64.3049375,53.4733355 66.6930068,51.5228131 67.4828455,50.255979 C67.7112273,49.9020697 67.7920665,49.6165294 67.7867655,49.4918568 L67.7664453,49.3913144 C67.4567826,48.9046892 66.9854415,48.5548017 66.3051554,48.3054566 C65.630612,48.0601331 64.7564001,47.9354606 63.7527573,47.9394823 L63.7421554,47.9394823 C63.7346457,47.9394823 63.7266943,47.9394823 63.7191847,47.9394823 C61.0298458,47.9475256 57.4852902,48.8644723 54.3917554,50.1514149 C51.4877288,51.3498802 48.9547674,52.9183415 47.8676349,54.1771322 C47.7925384,54.2656095 47.7249515,54.3500652 47.663549,54.4345208 C47.5146812,54.6315839 47.2730472,54.7401696 47.0283208,54.7441913 C46.8785696,54.7441913 46.727493,54.7039744 46.5949698,54.6235405 C46.2411326,54.4063689 46.1501333,53.9680041 46.3877917,53.6462684 C46.6581392,53.2923592 46.9947483,52.9344283 47.3848084,52.5845408 C48.8752535,51.2412944 51.1718817,49.9583735 53.7525515,48.8765373 C57.0108569,47.5252476 60.689261,46.5519973 63.737738,46.5359105 C64.882739,46.5359105 65.9451339,46.6686264 66.8736802,47.0024272 C67.7995761,47.3362279 68.6013419,47.8912219 69.1031633,48.6915393 C69.2595408,48.9408845 69.3284529,49.2224032 69.3280132,49.4878351 C69.3249189,50.0026121 69.1203914,50.4771722 68.8147043,50.9597757 C68.5085756,51.4423792 68.0831759,51.9330261 67.5605925,52.4437814 C66.5180761,53.4572487 65.0788734,54.5229981 63.3883183,55.5083135 C60.0089749,57.4749227 55.6423333,59.1318613 51.4766852,59.1479481" id="Path" fill="#357A38"></path>
                                        <path d="M38.8740793,81.9013555 C37.4015986,81.9052692 36.0967843,81.7966834 35.0499486,81.6237505 C33.9956524,81.4467959 33.2291771,81.2376677 32.703796,80.9360405 C32.5514433,80.8435415 32.4073365,80.7470208 32.268727,80.5580011 C32.1226569,80.3528947 32.0700402,80.1075712 32.0719508,79.9105081 C32.0814274,79.4560565 32.2502719,79.1142124 32.4685917,78.7241079 C32.6908381,78.3380251 32.9892609,77.9318339 33.3501168,77.4894474 C34.0702581,76.6127177 35.0346348,75.6193589 36.0853971,74.6340434 C38.1947749,72.6553692 40.5970781,70.7370203 42.0978305,69.9527897 C44.250401,68.8226932 46.2600428,67.7931391 49.5642896,67.781074 C49.5760694,67.781074 49.5902052,67.781074 49.6019851,67.781074 C50.4297156,67.781074 51.3367638,67.8373777 52.3498305,67.966072 C52.7071525,68.0143324 53.0774323,68.0666144 53.4622406,68.1309615 L53.4638113,68.1309615 C53.7104027,68.1711785 53.9055555,68.3441114 53.9907631,68.5653047 C53.999009,68.5854131 54.0060769,68.6095433 54.0131448,68.6336735 C54.0394531,68.7261725 54.046521,68.8307366 54.0304219,68.9353007 C53.9750566,69.2771448 53.6856651,69.5224682 53.3570074,69.5264899 C53.3200972,69.5264899 53.2827943,69.5224682 53.2447062,69.5144248 C53.1076673,69.4943164 52.972199,69.4701862 52.8386941,69.4500777 C51.5970984,69.261058 50.5369122,69.1806241 49.6063044,69.1846458 C46.5557169,69.2047543 44.9045752,70.0694188 42.7178431,71.203537 C41.6423431,71.758531 39.6841401,73.2505801 37.8751484,74.8753452 C36.0618374,76.4880451 34.3466918,78.2857431 33.7035122,79.3434491 C33.5943523,79.516382 33.5221026,79.6692064 33.4824438,79.7697488 C33.5362384,79.7979007 33.6061322,79.8260525 33.6854498,79.8542044 C33.9599202,79.9587685 34.3682882,80.071376 34.8716803,80.1678967 C35.8788571,80.3609381 37.2700569,80.5057191 38.86976,80.4976757 C38.8780059,80.4976757 38.8878225,80.4976757 38.8956757,80.4976757 C43.6464876,80.4856106 50.1882288,79.1705161 54.5911426,74.5013275 C54.6865593,74.4007851 54.7819761,74.296221 54.8762148,74.1916569 C55.0112904,74.0428542 55.1946633,73.9664419 55.3784289,73.9624203 C55.5457027,73.9624203 55.7114059,74.0267674 55.8445182,74.1514399 C55.9218725,74.2238305 55.9795937,74.3082861 56.0165039,74.4048068 C56.0208232,74.4168719 56.0247498,74.4249153 56.0274984,74.4369803 C56.1079941,74.6702387 56.060482,74.943714 55.8845696,75.1407771 C55.6348369,75.4182741 55.3776436,75.6877277 55.1157384,75.9451162 C50.3280163,80.6384351 43.6865391,81.8851607 38.8740793,81.9013555 Z" id="Shape" fill="#357A38"></path>
                                        <path d="M59.6728344,83.5488022 C59.400619,83.5488022 59.1465782,83.3854208 59.0302606,83.121497 C59.0250102,83.1089292 59.018952,83.0963614 59.0149132,83.0837936 C59.0092589,83.0712258 59.0048162,83.058658 59.001989,83.0460902 C58.8800171,82.664867 59.0815535,82.2501296 59.4502963,82.1244516 C59.4519118,82.1244516 59.6752577,82.0448556 60.0666178,81.910799 C60.9438461,81.6091719 62.6623574,81.014296 64.6163309,80.3272564 C67.4398591,79.330211 70.7528903,78.1320808 72.6672836,77.3528773 C74.9568817,76.4228601 78.431869,74.6130971 80.4532906,73.0169866 C81.1269632,72.4933283 81.6338331,71.9822378 81.8596023,71.6177717 C81.9944983,71.4124976 82.0207506,71.2700626 82.0163079,71.2491162 L82.0106535,71.2281699 C81.6019265,70.6458619 81.0679966,70.2395031 80.3826115,69.9630115 C79.6984381,69.6907092 78.8636172,69.5566526 77.9181331,69.5608419 C77.9112671,69.5608419 77.9060167,69.5608419 77.8987468,69.5608419 C75.4213442,69.5692204 72.2339198,70.5201839 69.1692751,71.8439921 C66.0929178,73.1678002 63.1235889,74.847696 61.0250261,76.246911 C59.9228364,76.9800326 59.0480314,77.6586937 58.5649904,78.1069452 C58.4381719,78.2284339 58.3388173,78.3289763 58.2681383,78.4127617 C58.1308189,78.5803323 57.9365524,78.6641176 57.7402665,78.6641176 C57.5758872,78.6641176 57.4090846,78.6054679 57.2749963,78.4839792 C57.1946241,78.4085724 57.1352536,78.3205978 57.0940578,78.2284339 C57.086788,78.2116769 57.0811337,78.1949198 57.0754793,78.1781627 C56.9930877,77.9351853 57.0363029,77.6586937 57.2099715,77.4492304 C57.4123156,77.2146315 57.6837233,76.954897 58.0181363,76.6700269 C58.5888193,76.1882612 59.346499,75.6352781 60.2633076,75.0194559 C61.7120267,74.0517354 63.5375663,72.9709047 65.5343512,71.952913 C69.5339791,69.9169295 74.175777,68.1197343 77.9136904,68.0987009 C78.9863968,68.0945987 79.9912514,68.241223 80.8898853,68.6014999 C81.7873077,68.9575876 82.57649,69.5440848 83.1536352,70.3735596 C83.3305348,70.6249156 83.4274661,70.9432998 83.4254776,71.2407377 C83.4238312,71.6931785 83.2562208,72.0744017 83.0373176,72.4221108 C82.8127601,72.7698199 82.5207545,73.100772 82.1738212,73.4359133 C81.4795508,74.0978173 80.5615305,74.7680999 79.5360781,75.4216255 C77.4871927,76.7286766 75.0162522,77.9645102 73.1822311,78.7143888 C69.9200888,80.0423863 62.893377,82.47635 60.6187224,83.2639321 C60.1587026,83.4189349 59.8921415,83.5110988 59.8913337,83.5110988 C59.819443,83.5362344 59.7447251,83.5488022 59.6728344,83.5488022" id="Path" fill="#357A38"></path>
                                        <path d="M39.0473137,98.9319164 C38.5202497,98.9319164 38.0456902,98.9158296 37.6353477,98.8796344 C37.2237935,98.8394174 36.8825146,98.7871354 36.5751616,98.6825713 C36.3748369,98.6021374 36.161588,98.5257252 35.9552051,98.2562716 L35.9568206,98.2602932 C35.8178857,98.0712736 35.7710356,97.8500803 35.7714369,97.6771474 C35.7819404,97.2789995 35.9273373,97.0135676 36.1014098,96.703897 C36.2807327,96.4062915 36.5182144,96.0885776 36.8069889,95.7427118 C37.3829224,95.0590235 38.1636233,94.2627278 39.0586223,93.4262151 C40.8470049,91.7531897 43.0808676,89.9152747 44.940737,88.5800718 C48.1536059,86.2836835 52.4133328,85.8855357 56.1326678,85.8694489 C56.8132063,85.8654272 57.4755702,85.8774923 58.1128935,85.8976008 C58.4973877,85.9056441 58.8721888,85.9217309 59.236085,85.933796 C59.4994151,85.9418394 59.7255881,86.0946638 59.8370591,86.3118354 C59.8499833,86.3359656 59.8600803,86.3600958 59.8685618,86.3842259 C59.9012761,86.4686815 59.918643,86.5611805 59.9146042,86.6577012 C59.90168,87.0357406 59.5894804,87.3333461 59.2134677,87.3373678 C59.2037746,87.3373678 59.1952931,87.3333461 59.1851961,87.3333461 C59.0414147,87.3293244 58.8948061,87.3253027 58.7469858,87.321281 C57.9170115,87.2931292 57.0389755,87.268999 56.1371104,87.2730207 C56.1092427,87.2730207 56.0809711,87.2730207 56.0539111,87.2730207 C52.4525092,87.2810641 48.5029625,87.7355157 45.7658647,89.7182116 C44.24162,90.8121129 42.4229464,92.2840535 40.8474088,93.6956687 C39.2738906,95.0992405 37.9269494,96.4827038 37.4019048,97.2789995 C37.3683827,97.3312815 37.3376878,97.3795419 37.3126472,97.4237805 C37.3534392,97.4278022 37.3982699,97.4358456 37.4463317,97.443889 C37.8239599,97.5001928 38.3752567,97.5283446 39.0291391,97.5283446 L39.0432749,97.5283446 C39.059834,97.5283446 39.076797,97.5283446 39.0937599,97.5283446 C42.1624435,97.5162795 47.4330832,96.8285696 50.0720379,95.7949938 C52.9682645,94.6729407 57.3867165,91.7652547 59.3778471,90.3898348 C59.6080589,90.228967 59.8067681,90.0922293 59.9683203,89.9796219 C60.2720383,89.766472 60.442072,89.6458211 60.442072,89.6458211 C60.5672749,89.5573438 60.7106525,89.5131052 60.8520106,89.5090835 C61.0717216,89.5090835 61.2873938,89.6136476 61.4263286,89.8026673 C61.4461188,89.8308191 61.4626779,89.8549493 61.4772176,89.8831012 C61.4885262,89.9032096 61.4982193,89.9273398 61.5071047,89.9474483 C61.6274611,90.2410321 61.5369919,90.5868979 61.2671997,90.7799393 C61.2643726,90.783961 61.0111395,90.9649373 60.5753526,91.2705862 C59.9004683,91.7371029 58.7881816,92.4972034 57.4860711,93.3337161 C55.3370233,94.7051143 52.6956453,96.2775973 50.5833506,97.1020449 C47.5950392,98.2482282 42.3038016,98.9118079 39.0473137,98.9319164" id="Path" fill="#357A38"></path>
                                        <g id="Group" transform="translate(64.129168, 89.074498)" fill="#9C27B0">
                                            <path d="M4.21689038,12.0288918 L4.21070597,12.0288918 C4.16741503,12.0288918 4.12456584,12.0288918 4.08127491,12.0248701 C3.43588659,12.0208484 2.9345069,11.9645446 2.61070838,11.9162843 C2.19149311,11.8519371 1.9048011,11.4940062 1.97327146,11.1119451 C2.03379042,10.770101 2.35979766,10.5247776 2.72953757,10.5207559 C2.77106153,10.5207559 2.81435247,10.5247776 2.85587642,10.532821 C2.95924457,10.544886 3.08381644,10.5609728 3.22915029,10.5770596 C3.48933764,10.6052115 3.81622837,10.62532 4.20628852,10.62532 C5.49927387,10.6212983 7.48049673,10.3719531 9.96221579,9.197618 C12.2610527,8.11176017 16.2835757,6.26982355 18.6884312,4.61288493 C19.4879883,4.06995602 20.0993623,3.53507049 20.3785446,3.14094432 C20.5428735,2.91572936 20.5839557,2.75486153 20.5808635,2.69855779 L20.5388978,2.58997201 C20.2954967,2.28432314 19.9774409,2.07117327 19.5409976,1.91834883 C19.1072048,1.7695461 18.5536992,1.68911218 17.9078692,1.68911218 L17.9034517,1.68911218 C17.8941751,1.68911218 17.8862237,1.68911218 17.8787141,1.68911218 C15.9734712,1.69313388 13.3424426,2.42106079 10.7736999,3.43050641 C8.18949621,4.43995202 5.6463747,5.72689463 3.82815547,6.79264399 C2.96366201,7.29535595 2.2533373,7.76187264 1.80894261,8.09567338 C1.63357015,8.22838934 1.50016339,8.33697512 1.41402327,8.42143073 C1.26338849,8.56621178 1.06018614,8.6386023 0.858309032,8.6386023 C0.665708549,8.642624 0.474433299,8.57827687 0.324240262,8.44556091 C0.264163047,8.39327886 0.216012927,8.33697512 0.179348156,8.27664969 C0.17139676,8.26056291 0.165212341,8.25251952 0.159027921,8.23643273 C0.0269463978,7.98306591 0.070237332,7.67339534 0.296410376,7.45622377 C0.497845743,7.26318238 0.766426233,7.05003251 1.09552568,6.81677416 C1.59381317,6.46286494 2.23390055,6.06069538 2.99502585,5.61026546 C4.25443864,4.87429515 5.8301403,4.04582584 7.53527301,3.26159519 C10.9539316,1.70117727 14.840839,0.309670567 17.8985926,0.285540393 C18.6831303,0.285540393 19.4217267,0.378039393 20.0914109,0.607276046 C20.7593282,0.840534395 21.3587751,1.22259548 21.789034,1.7695461 C22.0037217,2.0389997 22.1238761,2.37280045 22.1216973,2.6905144 C22.1203421,3.14898771 21.9255329,3.55115728 21.6662291,3.91310989 C21.4011825,4.2750625 21.0539716,4.62092833 20.6418242,4.96277246 C19.8210634,5.65048242 18.7401153,6.33417068 17.555799,7.00579386 C15.1915839,8.34501852 12.4156632,9.61587435 10.6738657,10.440322 C7.97480852,11.7232429 5.72765564,12.0248701 4.21689038,12.0288918" id="Path"></path>
                                        </g>
                                        <g id="Group" transform="translate(64.129168, 103.326418)" fill="#9C27B0">
                                            <path d="M0.910624169,8.42293887 C0.639898065,8.42293887 0.386967942,8.25704392 0.289658,7.99312015 C0.143125129,7.59723448 0.0757275817,7.19003779 0.0745916679,6.78661144 C0.0840576156,5.15028402 1.06624435,3.58182271 2.38731201,2.37531401 C3.45582819,1.41387738 4.76780854,0.667350125 6.12257498,0.403426347 C6.45653361,0.335560233 6.79314271,0.301627175 7.1286159,0.297856836 L7.21759581,0.297856836 C7.4512154,0.301627175 7.65492259,0.426048385 7.7688926,0.61079503 C7.77532945,0.618335709 7.78063038,0.629646728 7.78593131,0.640957747 C7.83931925,0.738986579 7.86885301,0.848326431 7.86658118,0.968977301 C7.86090161,1.32715957 7.56859315,1.61370539 7.20926577,1.61370539 C7.20510076,1.61370539 7.20017846,1.61370539 7.19601345,1.61370539 L7.13278092,1.61370539 L7.11006264,1.61370539 C7.01918954,1.61370539 6.92680189,1.61747573 6.83252105,1.62501641 C5.66820949,1.72304524 4.32139445,2.3941657 3.27635382,3.34806165 C2.1294596,4.37736438 1.37899926,5.71960531 1.39565933,6.7828411 C1.39565933,6.82431484 1.39717388,6.86955892 1.39982435,6.91480299 C2.23131319,6.60563514 3.41455666,6.07778758 4.64399394,5.58010274 C5.92644054,5.06356621 7.26454691,4.56965171 8.48830463,4.37359404 C8.8146905,4.32457963 9.13312499,4.29441691 9.44057897,4.29064657 L9.65602394,4.29441691 C10.0206522,4.31326861 10.3027375,4.62243646 10.2856988,4.98438907 C10.2694173,5.33503066 9.9782448,5.61026546 9.62800473,5.61026546 C9.61778151,5.61026546 9.60717965,5.61026546 9.59506323,5.61026546 L9.44474398,5.60649512 L9.41710342,5.60649512 C9.36674457,5.60649512 9.31524982,5.60649512 9.26224051,5.61026546 C8.19258842,5.66305022 6.62237702,6.19089777 5.14190279,6.79792246 C3.55616723,7.43510987 2.07872212,8.13639305 1.0757103,8.40031683 C1.02005052,8.41539819 0.965905304,8.42293887 0.910624169,8.42293887" id="Path"></path>
                                        </g>
                                        <g id="Group" transform="translate(0.072771, 126.163251)" fill="#4CAF50" fill-rule="nonzero">
                                            <path d="M148.479693,41.2547669 C117.364333,-11.8886061 58.5876133,-12.0189729 0.033244751,32.0029333 C37.9581659,74.5024923 108.804457,95.8363794 148.479693,41.2547669" id="Path"></path>
                                        </g>
                                    </g>
                                    <g id="Group" transform="translate(10.883554, 158.087396)" fill="#357A38" fill-rule="nonzero">
                                        <path d="M137.199904,9.2482674 C125.883424,9.1754464 105.903464,6.93084607 83.7648785,4.71194726 C61.6130815,2.49304846 37.2634506,0.304134778 16.9681137,0.368388604 C11.4430565,0.385522958 6.21547622,0.56971726 1.40981866,0.963807395 C0.590691857,1.03234481 -0.0183259378,1.75627125 0.0498635983,2.57872023 C0.115922211,3.40116921 0.834895633,4.01372235 1.65359625,3.94518494 C6.35867424,3.55537839 11.5112461,3.37118409 16.9770636,3.35404973 C37.0601605,3.2940795 61.3454376,5.47014241 83.470385,7.68475763 C105.607692,9.89937284 125.547164,12.1568239 137.180725,12.2382327 C138.001557,12.2424957 138.671519,11.5785395 138.676679,10.7560905 C138.683026,9.92935796 138.020735,9.25683458 137.199904,9.2482674" id="Path"></path>
                                    </g>
                                    <g id="Group" transform="translate(67.918741, 78.261356)" fill="#00BCD4" fill-rule="nonzero">
                                        <path d="M22.5263079,56.0631769 C38.420355,37.3908436 30.7976021,15.6834166 6.62518892,0.0251874999 C-4.3800461,19.7679895 -3.14619514,48.7965832 22.5263079,56.0631769" id="Path"></path>
                                    </g>
                                    <g id="Group" transform="translate(42.243131, 95.802695)" fill="#B3E5FC" fill-rule="nonzero">
                                        <path d="M53.5103204,53.8659585 C61.1709793,23.6151332 38.8476254,3.63634241 0.403356415,0.101243872 C-0.756904761,28.7110748 18.3778433,60.640861 53.5103204,53.8659585" id="Path"></path>
                                    </g>
                                    <g id="Group" transform="translate(60.081790, 144.555108) scale(-1, -1) rotate(60.000000) translate(-60.081790, -144.555108) translate(33.081790, 116.555108)" fill="#00BCD4" fill-rule="nonzero">
                                        <path d="M2.02067707,55.0053019 C34.4716298,59.5642394 53.4967805,36.8283228 53.8344498,0.369416665 C23.6751103,1.77991666 -8.18814653,22.563802 2.02067707,55.0053019" id="Path"></path>
                                    </g>
                                    <g id="Group" transform="translate(141.926355, 182.365597) scale(-1, -1) rotate(130.000000) translate(-141.926355, -182.365597) translate(90.926355, 139.865597)" fill-rule="nonzero">
                                        <path d="M49.5696372,84.3378374 C82.0205899,88.8967749 101.045741,66.1608583 101.38341,29.7019522 C71.2240705,31.1124522 39.3608136,51.8963376 49.5696372,84.3378374" id="Path" fill="#357A38"></path>
                                        <path d="M29.0266973,63.0436088 C61.47765,67.6025463 80.5028007,44.8666297 80.8404699,8.40772358 C50.6811305,9.81822357 18.8178737,30.6021089 29.0266973,63.0436088" id="Path" fill="#C8E6C9" transform="translate(53.961301, 36.015294) rotate(-20.000000) translate(-53.961301, -36.015294) "></path>
                                        <path d="M2.23246863,74.3282185 C34.6834213,78.887156 53.708572,56.1512394 54.0462413,19.6923333 C23.8869019,21.1028333 -7.97635498,41.8867186 2.23246863,74.3282185" id="Path" fill="#00838F" transform="translate(27.167073, 47.299904) scale(1, -1) translate(-27.167073, -47.299904) "></path>
                                    </g>
                                </g>
                            </g>
                            <g id="Plant-Right" transform="translate(1172.500000, 526.000000) rotate(45.000000) translate(-1172.500000, -526.000000) translate(969.000000, 398.000000)" fill-rule="nonzero">
                                <path d="M228.211222,29.327234 C217.324331,37.571129 222.087346,49.337347 222.087346,49.337347 C222.087346,49.337347 216.643901,46.9841034 207.798302,46.3957925 C198.272272,45.8074816 189.426673,63.4568085 189.426673,63.4568085 L195.550549,87.5775553 L183.974504,82.8710681 C170.36589,162.308124 217.324331,223.5 217.324331,223.5 C220.046054,218.205202 222.087346,212.910404 222.087346,208.792228 C223.448208,189.370425 205.076579,177.015897 206.43744,141.7097 C209.159163,59.3386322 260.880619,87.5775553 267.004495,55.2204559 C272.447941,25.2090577 290.139139,1.6766218 291.5,0.5 C267.004495,11.0895962 239.098113,20.5025705 228.211222,29.327234" id="Path" fill="#4CAF50"></path>
                                <g id="Group" transform="translate(234.200633, 178.496365) scale(-1, 1) rotate(53.129297) translate(-234.200633, -178.496365) translate(178.700633, 152.996365)" fill="#357A38">
                                    <path d="M25.1220363,0.665740931 C41.1780564,-0.837653883 129.752289,17.0771838 107.335956,42.0350189 C99.8579311,50.3518287 67.0628447,43.5310079 25.1220363,35.3252864 C1.59686211,30.7040137 1.59686211,50.9294878 1.59686211,50.9294878 C1.59686211,50.9294878 -8.92382289,3.90211302 25.1220363,0.665740931" id="Path"></path>
                                </g>
                                <g id="Group" transform="translate(203.000000, 42.000000)" fill="#4CAF50">
                                    <path d="M147.349405,8.85916808 C123.617134,7.70651569 108.266747,26.7252802 108.266747,26.7252802 C108.266747,26.7252802 109.662236,18.6567134 119.430665,8.28284189 C118.035175,8.28284189 73.3795028,13.4697777 69.8907784,17.504061 C66.402054,21.5383444 59.4246052,36.5302144 59.4246052,36.5302144 C59.4246052,36.5302144 52.438211,25.5726278 53.8337008,22.6909968 C54.5314457,19.8093658 -21.5316912,62.4648932 6.38704925,158.14982 C6.38704925,159.302472 7.08479412,160.455124 7.08479412,161.607777 C7.08479412,161.031451 6.38704925,159.302472 6.38704925,156.420841 C5.68930437,150.081253 5.68930437,138.554729 10.5735185,125.868164 C16.1554775,111.460009 27.3193955,95.3228753 49.6472315,82.0599839 C65.7043091,72.2624386 95.7073388,69.3808076 122.919389,56.1253051 C150.140385,42.8698025 157.815578,42.8698025 201.782451,0.214275125 C201.782451,0.214275125 171.072731,10.0118205 147.349405,8.85916808" id="Path"></path>
                                </g>
                                <g id="Group" transform="translate(0.500000, 161.500000)" fill="#00838F">
                                    <path d="M64.0170071,4.79526173 C48.9189884,8.79253333 15.2827847,21.355387 0.871039541,45.9173764 C0.871039541,45.9173764 35.1847184,11.0766885 84.6052144,11.0766885 C127.162975,11.0766885 186.182502,34.4966004 191.681489,53.9119196 L208.838329,41.349066 C208.838329,41.349066 146.378635,-16.3331739 64.0170071,4.79526173" id="Path"></path>
                                </g>
                                <g id="Group-15" transform="translate(16.000000, 1.000000)">
                                    <path d="M186.460039,108.91586 C180.746102,142.155508 190.745491,189.139109 199.316396,205.762606 C200.74488,186.847226 191.459733,171.377016 192.888217,137.564397 C195.745186,57.3411481 250.027583,84.8437433 256.464918,53.330353 C262.178855,24.1014997 280.749148,1.18267036 282.177633,0.0367288932 C280.749148,1.18267036 255.027277,25.8204119 242.17092,48.7465871 C227.886079,75.6762116 194.316701,66.5086798 186.460039,108.91586" id="Path" fill="#357A38"></path>
                                    <g id="Group" transform="translate(0.000000, 183.000000)" fill="#00BCD4">
                                        <path d="M52.3583268,8.25077857 C39.3911593,13.3901278 10.746223,28.2371366 0.515888657,53.9412037 C0.515888657,53.9412037 27.1147581,16.2453218 71.454951,12.819089 C106.92011,9.96389498 160.808615,25.9529814 173.767039,43.6625052 L186.734206,33.9548456 C186.734206,33.9548456 123.979411,-19.1590839 52.3583268,8.25077857" id="Path"></path>
                                    </g>
                                    <g id="Group" transform="translate(151.545285, 161.399288) scale(-1, 1) rotate(43.299149) translate(-151.545285, -161.399288) translate(118.545285, 96.899288)" fill="#00579B">
                                        <path d="M62.4166757,0.428760469 C62.4166757,0.428760469 48.8130678,11.1437689 51.9189144,34.1543237 C56.355838,60.8824819 73.0031755,116.164208 62.4166757,124.5047 C31.1807333,149.118053 1.54208336,46.0046481 0.140015489,30.4144593 C-2.13168942,-1.9976992 62.4166757,0.428760469 62.4166757,0.428760469" id="Path"></path>
                                    </g>
                                    <g id="Group" transform="translate(184.738532, 192.000000)" fill="#00838F">
                                        <path d="M56.1037498,4.34718878 C56.1037498,4.34718878 18.0233409,-14.2644462 0.39770662,32.2646413 L53.2746096,32.2646413 C37.7640514,25.2852782 41.2891782,13.0713927 56.1037498,4.34718878" id="Path"></path>
                                    </g>
                                    <g id="Group" transform="translate(172.183486, 180.000000)" fill="#B2EBF2">
                                        <path d="M131.790027,6.66286706 C112.437548,-4.08492653 84.0999895,1.2927951 82.0265096,1.88182009 C26.7248518,-8.85832383 4.60773307,33.5132268 0.451912282,43.0600214 L10.8281727,43.0600214 C13.5928126,23.9664323 55.0624102,-3.48825187 78.5707098,25.7564562 C104.143628,57.387863 144.239767,71.7080549 144.239767,71.7080549 C159.445286,44.8500454 155.298326,20.3863843 131.790027,6.66286706" id="Path"></path>
                                    </g>
                                    <g id="Group" transform="translate(290.990363, 217.025915) scale(-1, 1) rotate(-7.123807) translate(-290.990363, -217.025915) translate(252.990363, 183.525915)" fill="#03ACF2">
                                        <path d="M27.1552447,4.70388382 C47.9289437,-3.6291962 68.7115167,2.03996955 75.3225401,4.4812726 C54.3713639,4.62968008 36.00248,10.877635 27.1552447,18.6987092 C7.66825486,37.0789757 8.44028041,55.2440513 5.43204291,66.0184343 C-5.81113382,38.592732 1.90912171,14.8994777 27.1552447,4.70388382" id="Path"></path>
                                    </g>
                                    <g id="Group" transform="translate(211.642202, 123.000000)" fill="#4CAF50">
                                        <path d="M81.138379,4.11650396 C58.77762,-5.15677572 46.1996931,5.27566392 46.1996931,5.27566392 C13.3483697,-2.84588631 0.0716690992,20.9243234 0.0716690992,20.9243234 C0.0716690992,20.9243234 31.5164864,12.8102037 45.5009194,31.356763 C59.4763937,49.3237424 88.8248898,55.7065527 88.8248898,55.7065527 C104.896685,38.3117228 104.20687,13.3897836 81.138379,4.11650396" id="Path"></path>
                                    </g>
                                    <g id="Group" transform="translate(254.688073, 123.000000)" fill="#357A38">
                                        <path d="M36.2987188,4.11650396 C13.4021805,-5.15677572 0.522877677,5.27566392 0.522877677,5.27566392 C0.522877677,5.27566392 27.7125169,5.27566392 44.1694038,55.7065527 C60.6262907,38.3117228 59.9199472,13.3897836 36.2987188,4.11650396" id="Path"></path>
                                    </g>
                                    <g id="Group" transform="translate(37.665138, 96.000000)" fill="#B3E5FC">
                                        <path d="M61.155222,6.43533633 C61.155222,6.43533633 48.2557004,-5.62539697 22.4566571,3.56373316 C-3.3510903,12.7528633 -6.06677907,41.476258 10.2360577,62.1518008 C10.2360577,62.1518008 41.4664785,55.8342739 59.7973776,36.3073723 C84.2472806,9.88126012 111.404168,26.5365585 111.404168,26.5365585 C111.404168,26.5365585 91.0365026,-3.90243507 61.155222,6.43533633" id="Path"></path>
                                    </g>
                                    <g id="Group" transform="translate(37.665138, 96.000000)" fill="#03ACF2">
                                        <path d="M22.8725211,3.56373316 C-3.41314753,12.7528633 -6.17912683,41.476258 10.4256143,62.1518008 C31.8619538,5.28669506 62.2877261,6.43533633 62.2877261,6.43533633 C62.2877261,6.43533633 49.1493245,-5.62539697 22.8725211,3.56373316" id="Path"></path>
                                    </g>
                                    <g id="Group" transform="translate(202.674312, 37.500000)" fill="#C8E6C9">
                                        <path d="M0.524632533,125.702588 C5.98081087,111.344572 16.8931676,95.2562312 38.7178809,82.0468566 C54.4131375,72.2834058 83.7400961,69.4118027 110.338966,56.2024281 C136.946579,42.9856905 144.448824,42.9856905 187.424972,0.485963613 C184.688139,2.78324615 144.448824,35.5195222 103.518743,38.3911254 C63.9614496,40.1214504 4.61676629,48.7362599 0.524632533,125.702588" id="Path"></path>
                                    </g>
                                </g>
                            </g>
                        </g>
                    </g>
                </g>
            </g>
        </g>
    </g>
</svg>