<?xml version="1.0" encoding="UTF-8"?>
<svg width="572px" height="386px" viewBox="0 0 572 386" version="1.1" xmlns="http://www.w3.org/2000/svg" xmlns:xlink="http://www.w3.org/1999/xlink">
    <!-- Generator: Sketch 64 (93537) - https://sketch.com -->
    <title>About</title>
    <desc>Created with Sketch.</desc>
    <g id="About" stroke="none" stroke-width="1" fill="none" fill-rule="evenodd">
        <g id="Landing" transform="translate(-836.000000, -145.000000)">
            <g id="Banner" transform="translate(119.000000, 145.000000)">
                <g id="About" transform="translate(717.000000, 0.000000)">
                    <g id="Group" transform="translate(546.000000, 157.000000)" fill-rule="nonzero">
                        <path d="M12.5,77 C14.9854348,77 17,79.2384869 17,81.9998188 C17,84.7615131 14.9854348,87 12.5,87 C10.0148913,87 8,84.7615131 8,81.9998188 C8,79.2384869 10.0148913,77 12.5,77 Z" id="Path" fill="#4CAF50"></path>
                        <path d="M13.5001751,74 C20.4035965,74 26,68.5170448 26,61.753567 L26,37 L1,37 L1,61.753567 C1,68.5170448 6.59640351,74 13.5001751,74 Z" id="Path" fill="#2196F3"></path>
                        <path d="M1,37 L26,37 L26,40.999916 C26,47.6273398 20.4035965,53 13.5001751,53 C6.59640351,53 1,47.6273398 1,40.999916 L1,37 Z" id="Path" fill="#BBDEFB"></path>
                        <path d="M13,37 L25,37 L25,40.999916 C25,47.6273398 19.6273774,53 13,53 L13,37 Z" id="Path" fill="#0D47A1"></path>
                        <path d="M13.4998205,39 C15.98508,39 18,41.014561 18,43.4998205 C18,45.98508 15.98508,48 13.4998205,48 C11.014561,48 9,45.98508 9,43.4998205 C9,41.014561 11.014561,39 13.4998205,39 Z" id="Path" fill="#2196F3"></path>
                        <path d="M13.4998399,62 C14.3282101,62 15,62.6714697 15,63.4998399 C15,64.3285303 14.3282101,65 13.4998399,65 C12.6714697,65 12,64.3285303 12,63.4998399 C12,62.6714697 12.6714697,62 13.4998399,62 Z" id="Path" fill="#FFFFFF"></path>
                        <path d="M13.4998399,67 C14.3282101,67 15,67.6715414 15,68.5 C15,69.3284586 14.3282101,70 13.4998399,70 C12.6714697,70 12,69.3284586 12,68.5 C12,67.6715414 12.6714697,67 13.4998399,67 Z" id="Path" fill="#FFFFFF"></path>
                        <path d="M13.4998399,57 C14.3282101,57 15,57.6715414 15,58.5 C15,59.3284586 14.3282101,60 13.4998399,60 C12.6714697,60 12,59.3284586 12,58.5 C12,57.6715414 12.6714697,57 13.4998399,57 Z" id="Path" fill="#FFFFFF"></path>
                        <path d="M13,35 C5.81649701,34.9779322 0,29.1844464 0,22.0406875 L0,22 L13,22 L13,35 Z" id="Path" fill="#FFECB3"></path>
                        <path d="M13,35 C20.1836959,34.9779322 26,29.1844464 26,22.0406875 C26,22.0272399 26,22.0137924 26,22 L13,22 L13,35 Z" id="Path" fill="#4CAF50"></path>
                        <path d="M0,9 C7.18350299,9.02248297 13,14.8341582 13,22 L12.9996508,21.9595307 L0,21.9595307 L0,9 Z" id="Path" fill="#E0E0E0"></path>
                        <path d="M13.5001752,9 C15.9852054,9 18,6.98520537 18,4.4998248 C18,2.01479463 15.9852054,0 13.5001752,0 C11.0147946,0 9,2.01479463 9,4.4998248 C9,6.98520537 11.0147946,9 13.5001752,9 Z" id="Path" fill="#4CAF50"></path>
                        <path d="M0,9 C7.18350299,9.02248297 13,14.8341582 13,22 L12.9996508,21.9595307 L0,21.9595307 L0,9 Z" id="Path" fill="#C8E6C9"></path>
                        <path d="M26,9 C18.8166532,9.02248297 13,14.8341582 13,22 L13,21.9595307 L26,21.9595307 L26,9 Z" id="Path" fill="#FFA000"></path>
                    </g>
                    <g id="Group" transform="translate(168.000000, 0.000000)" fill-rule="nonzero">
                        <path d="M287.539041,0 L55.4582637,0 C24.7150958,0 0,24.5711775 0,55.1353251 L0,285.864675 C0,316.428822 24.7150958,341 55.4582637,341 L287.539041,341 C318.282209,341 343,316.428822 343,285.864675 L343,55.1353251 C343.298708,24.5711775 318.282209,0 287.539041,0 Z" id="Path" fill="#FFA000"></path>
                        <path d="M283.615959,19.4352332 L57.6159999,19.4352332 C36.5787697,19.4352332 19.4484536,36.5539046 19.4484536,57.5768343 L19.4484536,283.423166 C19.4484536,304.446095 36.5787697,321.564767 57.6159999,321.564767 L283.615959,321.564767 C304.653189,321.564767 321.783505,304.446095 321.783505,283.423166 L321.783505,57.5768343 C321.783505,36.5539046 304.653189,19.4352332 283.615959,19.4352332 Z M298.041488,283.423166 C298.041488,291.231682 291.730319,297.838889 283.615959,297.838889 L57.6159999,297.838889 C49.8021715,297.838889 43.1904706,291.53201 43.1904706,283.423166 L43.1904706,57.5768343 C43.1904706,49.7683176 49.5016396,43.1611111 57.6159999,43.1611111 L283.615959,43.1611111 C291.429787,43.1611111 298.041488,49.46799 298.041488,57.5768343 L298.041488,283.423166 Z" id="Shape" fill="#FF6F00"></path>
                        <polygon id="Rectangle" fill="#FFECB3" transform="translate(171.639986, 170.930353) rotate(-135.000000) translate(-171.639986, -170.930353) " points="-13.1098985 159.597515 356.458647 158.526674 356.389869 182.26319 -13.178676 183.334031"></polygon>
                        <polygon id="Rectangle" fill="#FFECB3" transform="translate(171.628535, 170.717011) rotate(-135.000000) translate(-171.628535, -170.717011) " points="160.295697 -14.0328727 184.032213 -14.1016502 182.961373 355.466895 159.224856 355.535673"></polygon>
                        <rect id="Rectangle" fill="#FFECB3" x="159.123711" y="31.8031088" width="22.9845361" height="279.160622"></rect>
                        <rect id="Rectangle" fill="#FFECB3" x="30.056701" y="160.782383" width="281.118557" height="22.9689119"></rect>
                        <path d="M170.615979,98.9430052 C131.202774,98.9430052 99.0103093,131.113587 99.0103093,170.5 C99.0103093,209.886413 131.202774,242.056995 170.615979,242.056995 C210.029184,242.056995 242.221649,209.886413 242.221649,170.5 C242.221649,131.113587 210.330049,98.9430052 170.615979,98.9430052 Z M170.615979,218.304883 C144.139933,218.304883 122.778578,196.958049 122.778578,170.5 C122.778578,144.041951 144.139933,122.695117 170.615979,122.695117 C197.092025,122.695117 218.453381,144.041951 218.453381,170.5 C218.754245,196.958049 197.092025,218.304883 170.615979,218.304883 Z" id="Shape" fill="#FFECB3"></path>
                        <path d="M170.614983,21.2020725 C87.2023761,21.2020725 19.4484536,88.5144293 19.4484536,171.38342 C19.4484536,254.25241 87.2023761,321.564767 170.614983,321.564767 C254.02759,321.564767 321.782512,254.25241 321.782512,171.38342 C322.082641,88.8135954 254.328718,21.2020725 170.614983,21.2020725 Z M170.614983,298.528983 C100.150903,298.528983 42.9364801,241.687437 42.9364801,171.682586 C42.9364801,101.677735 100.150903,44.8361889 170.614983,44.8361889 C241.079062,44.8361889 298.293486,101.677735 298.293486,171.682586 C298.293486,241.687437 241.079062,298.528983 170.614983,298.528983 Z" id="Shape" fill="#FF6F00"></path>
                        <path d="M283.990842,30.0362694 L57.2360766,30.0362694 C41.2546902,30.0362694 28.2886598,42.9132344 28.2886598,58.7848424 L28.2886598,283.981997 C28.2886598,299.853605 41.2546902,312.73057 57.2360766,312.73057 L283.990842,312.73057 C299.972228,312.73057 312.938258,299.853605 312.938258,283.981997 L312.938258,58.7848424 C313.239794,42.9132344 299.972228,30.0362694 283.990842,30.0362694 Z M307.510618,283.981997 C307.510618,296.858962 296.956872,307.340213 283.990842,307.340213 L57.2360766,307.340213 C44.2700462,307.340213 33.7163004,296.858962 33.7163004,283.981997 L33.7163004,58.7848424 C33.7163004,45.9078774 44.2700462,35.4266269 57.2360766,35.4266269 L283.990842,35.4266269 C296.956872,35.4266269 307.510618,45.9078774 307.510618,58.7848424 L307.510618,283.981997 Z" id="Shape" fill="#FFECB3"></path>
                        <polygon id="Rectangle" fill="#FFA000" transform="translate(171.736277, 170.820536) rotate(-135.000000) translate(-171.736277, -170.820536) " points="-13.04016 168.651796 356.528386 167.580956 356.512715 172.989276 -13.0558308 174.060116"></polygon>
                        <polygon id="Rectangle" fill="#FFA000" transform="translate(171.670918, 170.811279) rotate(-134.991897) translate(-171.670918, -170.811279) " points="169.50218 -13.9653119 174.910496 -13.9809828 173.839655 355.587869 168.43134 355.60354"></polygon>
                        <rect id="Rectangle" fill="#FFA000" x="167.963918" y="31.8031088" width="5.30412371" height="279.160622"></rect>
                        <rect id="Rectangle" fill="#FFA000" x="30.056701" y="169.61658" width="281.118557" height="5.30051813"></rect>
                        <path d="M170.615979,107.777202 C135.91392,107.777202 107.850515,135.82153 107.850515,170.5 C107.850515,205.17847 135.91392,233.222798 170.615979,233.222798 C205.016282,233.222798 233.381443,205.17847 233.381443,170.5 C233.381443,135.82153 205.318039,107.777202 170.615979,107.777202 Z M170.615979,227.493312 C139.233247,227.493312 113.583899,201.861399 113.583899,170.5 C113.583899,139.138601 139.233247,113.506688 170.615979,113.506688 C201.998711,113.506688 227.64806,139.138601 227.64806,170.5 C227.949817,201.861399 202.300468,227.493312 170.615979,227.493312 Z" id="Shape" fill="#FFA000"></path>
                        <path d="M170.615979,30.0362694 C92.2153372,30.0362694 28.2886598,93.5227013 28.2886598,171.38342 C28.2886598,249.244138 92.2153372,312.73057 170.615979,312.73057 C249.016622,312.73057 312.943299,249.244138 312.943299,171.38342 C312.943299,93.5227013 249.318162,30.0362694 170.615979,30.0362694 Z M170.615979,307.340213 C95.2307465,307.340213 33.7163966,246.249495 33.7163966,171.38342 C33.7163966,96.5173443 95.2307465,35.4266269 170.615979,35.4266269 C246.001212,35.4266269 307.515562,96.5173443 307.515562,171.38342 C307.515562,246.249495 246.302753,307.340213 170.615979,307.340213 Z" id="Shape" fill="#FFECB3"></path>
                    </g>
                    <g id="Group" transform="translate(441.000000, 150.000000)">
                        <path d="M68.2562233,40.3338964 C61.8474446,36.8206676 34.68643,32.4291317 31.3294507,31.8435935 C26.7517516,31.2580554 25.8362118,38.577282 27.3621115,40.3338964 C29.1931911,42.3832798 34.0760701,45.0182014 42.3159285,47.0675848 C48.7247072,48.5314301 61.2370847,54.0940423 65.5096039,49.4097373 C68.2562233,46.4820467 74.970182,43.8471251 68.2562233,40.3338964 Z" id="Path" fill="#2E7D32" fill-rule="nonzero"></path>
                        <path d="M11.7888453,12.1630749 C10.8735999,10.0407389 9.04310899,7.91840301 7.51769993,6.70563963 C6.60245449,5.79606709 4.77196361,4.58330371 4.16179998,3.67373117 C3.55163636,3.06734947 2.63639092,4.58330371 3.24655454,5.49287624 C2.63639092,5.79606709 2.02622729,7.00883048 2.63639092,7.61521217 C2.02622729,8.22159386 1.72114548,9.43435725 2.3313091,10.0407389 C1.41606366,10.6471206 1.72114548,11.859884 2.63639092,12.7694566 C3.85671817,13.6790291 4.77196361,15.1949833 7.82278174,17.6205101 C8.43294537,17.9237009 9.04310899,19.1364643 9.65327262,19.4396552 C10.2634362,18.2268918 13.3142544,15.1949833 14.2294998,14.5886016 C13.6193362,13.9822199 12.3990089,13.0726474 11.7888453,12.1630749 Z" id="Path" fill="#FFF3E0"></path>
                        <path d="M27.6144417,26.0557108 C23.695383,22.8528335 12.842605,12.3706897 12.842605,12.3706897 C12.842605,12.3706897 10.1294105,14.700055 7.11474991,18.7764442 C7.11474991,18.7764442 20.0777903,33.0438067 24.9012472,37.7025373 C32.1364325,44.9818039 36.3569573,36.8290254 35.4525591,33.9173187 C34.548161,30.7144414 30.3276362,28.0939055 27.6144417,26.0557108 Z" id="Path" fill="#2E7D32" fill-rule="nonzero"></path>
                        <g transform="translate(69.368812, 184.984964)" fill-rule="nonzero" id="Path">
                            <path d="M25.7376078,1.23178486 C25.7376078,0.92882919 18.178186,-1.19186047 18.178186,1.23178486 C18.178186,3.35247451 18.4805629,6.68498683 16.6663017,8.50272082 C14.5496636,10.3204548 6.38548804,14.5618341 2.75696559,15.1677454 C2.45458872,15.7736568 3.05934246,16.0766124 3.6640962,16.3795681 C6.38548804,17.2884351 9.40925675,16.9854794 12.1306486,16.6825238 C15.4567942,16.3795681 18.7829398,16.0766124 22.1090853,16.0766124 C23.6209697,16.0766124 25.4352309,16.0766124 26.0399847,14.5618341 C26.6447384,13.6529671 26.3423615,12.4411445 26.3423615,11.2293218 C26.0399847,7.89680949 26.3423615,4.56429717 25.7376078,1.23178486 Z" fill="#FFF3E0"></path>
                            <path d="M20.597201,14.8647898 C18.178186,14.8647898 10.6187642,15.7736568 9.40925675,16.3795681 C7.59499553,16.9854794 5.47835743,16.9854794 3.96647307,16.3795681 C3.05934246,16.0766124 2.45458872,15.7736568 1.54745811,15.1677454 C0.337950621,16.3795681 1.24508123,18.8032134 2.15221185,18.8032134 L12.7354023,18.8032134 C14.8520404,18.8032134 17.8758091,16.9854794 21.2019547,16.9854794 C24.8304772,16.9854794 25.7376078,16.9854794 26.3423615,16.6825238 C29.0637534,15.4707011 28.7613765,12.7441001 27.551869,10.9263661 C25.7376078,13.3500115 23.3185928,14.5618341 20.597201,14.8647898 Z" fill="#0D47A1"></path>
                            <path d="M19.6900704,18.8032134 L26.3423615,18.8032134 L27.8542459,14.5618341 L19.9924472,16.6825238 C20.2948241,17.5913908 19.6900704,18.8032134 19.6900704,18.8032134 Z" fill="#0D47A1"></path>
                        </g>
                        <g transform="translate(13.643834, 183.793103)" fill-rule="nonzero" id="Path">
                            <path d="M23.1426566,0.60591133 C22.2209731,2.42364532 20.9920617,5.75615764 18.534239,6.36206897 C15.7691885,7.27093596 6.55235338,7.57389163 2.86561934,6.36206897 C2.5583915,6.66502463 2.86561934,7.57389163 3.17284717,7.87684729 C5.32344203,9.99753695 8.08849257,10.9064039 10.8535431,11.8152709 C13.9258215,13.0270936 16.9980998,14.2389163 20.0703782,15.7536946 C21.2992896,16.3596059 23.1426566,16.9655172 24.3715679,16.0566502 C25.2932514,15.4507389 25.6004793,14.2389163 25.9077071,13.3300493 C27.1366185,10.3004926 28.6727576,7.27093596 29.901669,3.93842365 C30.2088968,3.63546798 24.3715679,-1.51477833 23.1426566,0.60591133 Z" fill="#FFF3E0"></path>
                            <path d="M19.4559225,13.9359606 C17.3053277,13.0270936 9.93185959,10.6034483 8.70294824,10.3004926 C6.85958122,9.99753695 5.0162142,9.08866995 3.48007501,7.87684729 C2.86561934,7.27093596 2.25116366,6.66502463 1.94393583,5.75615764 C0.407796641,6.36206897 0.100568804,8.78571429 0.715024478,9.08866995 L10.2390874,13.6330049 C12.0824544,14.5418719 15.7691885,14.2389163 18.8414669,15.7536946 C22.2209731,17.2684729 23.1426566,17.5714286 23.7571123,17.5714286 C26.8293906,17.5714286 27.7510741,15.1477833 27.4438463,13.0270936 C24.9860236,14.8448276 22.2209731,15.1477833 19.4559225,13.9359606 Z" fill="#0D47A1"></path>
                            <path d="M16.690872,16.9655172 L22.8354287,19.6921182 L26.2149349,16.6625616 L18.2270112,15.4507389 C17.9197833,16.3596059 16.690872,16.9655172 16.690872,16.9655172 Z" fill="#0D47A1"></path>
                        </g>
                        <path d="M56.481934,88.362069 C51.1114453,107.10976 36.7901423,173.768218 32.0163746,188.052173 C33.8065375,191.325579 38.2819447,193.111074 42.7573519,192.515909 C45.7409567,187.457008 72.8917604,113.954155 78.262249,95.801629 C78.262249,94.9088818 62.1507831,88.6596514 56.481934,88.362069 Z" id="Path" fill="#0D47A1" fill-rule="nonzero"></path>
                        <path d="M92.4642307,96.8067042 C87.9831143,95.9072969 68.2662021,93.8086798 66.1750145,97.7061115 C62.8888625,103.70216 82.9045157,185.248422 84.9957033,191.844075 C88.8793375,193.343088 93.9579361,192.44368 96.0491238,191.244471 C95.4516416,174.155732 92.1654896,160.664622 91.8667485,145.974303 C90.9705252,128.585762 92.7629717,110.297814 92.4642307,96.8067042 Z" id="Path" fill="#0D47A1" fill-rule="nonzero"></path>
                        <path d="M92.1274563,55.3304557 C92.1274563,46.6935558 86.9970301,35.3762387 73.7182799,35.3762387 C67.9842741,35.3762387 58.0252114,34.4827663 54.7055239,42.2261938 C53.196575,45.8000834 51.0840466,98.8127792 51.6876261,100.3019 C52.8947852,103.280141 91.8256665,102.982317 92.4292461,100.897548 C92.7310359,98.514955 91.8256665,64.8608279 92.1274563,55.3304557 Z" id="Path" fill="#4CAF50" fill-rule="nonzero"></path>
                        <path d="M58.7845112,75.0930598 C57.8800153,79.5948111 64.2114865,79.8949278 66.3219769,79.2946943 C69.0354645,78.3943441 73.5579439,75.0930598 78.3819219,67.8902578 C86.8238835,55.585471 88.9343739,51.98407 88.9343739,51.98407 L77.1759274,44.1810345 C76.8744288,44.1810345 59.3875085,70.5913085 58.7845112,75.0930598 Z" id="Path" fill="#2E7D32" fill-rule="nonzero"></path>
                        <path d="M72.3332907,29.3097818 C72.0170796,32.1650334 67.5901241,33.307134 67.5901241,36.4479107 C67.5901241,39.3031622 81.1872017,40.1597377 81.1872017,36.1623855 C81.5034128,32.1650334 81.819624,24.7413793 81.819624,24.7413793 C81.819624,24.7413793 72.6495018,26.4545302 72.3332907,29.3097818 Z" id="Path" fill="#FFF3E0" fill-rule="nonzero"></path>
                        <path d="M79.6224218,9.95042958 C78.0529916,8.42004999 76.1696755,7.50182223 73.9724733,7.19574631 C71.7752711,6.8896704 69.578069,7.19574631 67.6947528,7.50182223 C66.1253227,7.80789815 64.8697786,8.42004999 63.9281205,9.95042958 C61.7309183,14.2354924 61.4170323,18.8266312 60.7892602,23.41777 C60.4753742,25.5603015 60.1614882,28.0089088 61.1031463,30.1514402 C62.3586904,33.5182753 66.7530947,36.2729586 70.205841,35.0486549 C78.3668777,32.6000476 81.5057379,24.9481496 81.5057379,24.0299219 C81.5057379,21.5813145 81.819624,19.1327072 81.819624,16.6840998 C81.819624,14.2354924 81.1918519,11.7868851 79.6224218,9.95042958 Z" id="Path" fill="#FFF3E0" fill-rule="nonzero"></path>
                        <path d="M69.2897588,35.3448276 C69.2897588,35.3448276 69.6454963,35.3448276 69.2897588,35.3448276 C69.6454963,35.3448276 69.2897588,35.3448276 69.2897588,35.3448276 Z" id="Path" fill="#E8D7B9" fill-rule="nonzero"></path>
                        <path d="M73.0075843,5.41727327 C65.4882583,4.49057373 62.3552057,9.4329713 60.4753742,9.74187115 C66.1148688,13.7575692 74.8874158,11.5952702 74.8874158,13.1397695 C73.9475001,22.0978651 77.0805526,22.4067649 77.7071631,23.9512642 C78.3337736,25.8046633 80.5269104,27.9669622 81.1535209,28.2758621 C86.7930154,13.7575692 82.0934366,6.65287267 73.0075843,5.41727327 Z" id="Path" fill="#424242" fill-rule="nonzero"></path>
                        <path d="M77.2095842,18.0379706 C73.8916787,18.8727603 70.5737731,22.7684457 75.2188409,24.4380251 C76.5460031,24.9945516 78.2049559,24.7162883 79.5321181,24.1597619 C80.5274898,23.6032354 81.1910709,22.7684457 81.5228615,21.9336559 C81.854652,20.820603 82.1864426,19.4292868 80.8592803,18.5944971 C79.8639087,17.4814441 78.2049559,17.4814441 77.2095842,18.0379706 Z" id="Path" fill="#FFF3E0" fill-rule="nonzero"></path>
                        <path d="M69.1804711,26.4113277 C69.1804711,25.2424328 68.2409769,23.7813141 66.3619884,23.1968667 C64.7961646,22.9046429 61.0381875,22.0279718 60.0986933,22.6124192 C58.5328695,24.0735379 59.4723638,25.5346565 58.8460343,26.7035514 C57.90654,29.333565 56.653881,30.5024599 56.9670457,32.2558023 C57.90654,37.2236057 65.1093293,41.0225142 71.6857892,37.5158295 C77.9490842,34.0091447 75.1306015,26.9957752 74.8174367,24.9502091 C73.8779424,20.5668531 78.262249,16.7679446 78.262249,16.7679446 L76.0700957,14.137931 C75.756931,14.137931 72.3121187,25.5346565 69.1804711,26.4113277 Z" id="Path" fill="#424242" fill-rule="nonzero"></path>
                        <g transform="translate(58.696687, 30.043103)" fill="#FFF3E0" id="Path">
                            <path d="M8.00409365,0.88362069 C7.41119782,-1.21125332e-13 5.92895826,0.58908046 5.92895826,2.06178161 C5.33606243,1.76724138 4.15027078,2.35632184 4.15027078,3.23994253 C3.26092704,3.23994253 2.07513539,4.12356322 2.07513539,4.71264368 C0.889343739,4.71264368 0.296447913,5.59626437 0.296447913,7.06896552 C0.592895826,8.8362069 0.296447913,10.6034483 0.592895826,15.0215517 C0.592895826,15.9051724 0.296447913,22.6795977 0.296447913,23.2686782 C1.77868748,22.9741379 6.52185408,22.0905172 8.00409365,22.3850575 C8.00409365,21.5014368 7.70764573,15.0215517 8.00409365,13.8433908 C8.89343739,11.487069 8.89343739,8.24712644 8.89343739,6.18534483 C8.59698947,4.71264368 8.59698947,1.76724138 8.00409365,0.88362069 Z"></path>
                        </g>
                        <path d="M65.5423915,46.2268978 C62.5828947,45.5757256 59.892443,46.2268978 59.0853075,46.5524839 C59.0853075,46.5524839 58.8162624,46.5524839 58.8162624,46.87807 C58.5472172,47.8548282 58.8162624,48.8315865 58.8162624,49.1571725 C58.8162624,49.4827586 59.0853075,49.4827586 59.0853075,49.4827586 C62.0448044,48.5060004 64.735256,49.1571725 65.5423915,49.1571725 C65.8114367,49.1571725 65.8114367,49.1571725 65.8114367,48.8315865 C65.8114367,47.8548282 65.8114367,46.87807 65.5423915,46.2268978 C65.8114367,46.2268978 65.8114367,46.2268978 65.5423915,46.2268978 Z" id="Path" fill="#0D47A1"></path>
                        <path d="M0.901869707,0.108654213 C0.601246471,-0.168309516 0,0.108654213 0,0.662581672 C0,1.77043659 3.60747883,5.09400134 3.60747883,5.09400134 C3.90810206,5.37096507 4.50934853,5.37096507 5.110595,5.09400134 C5.41121824,4.81703761 5.41121824,4.26311015 5.110595,3.70918269 L0.901869707,0.108654213 Z" id="Path" fill="#FFF3E0"></path>
                        <path d="M5.12234192,5.53911477 C4.85017375,5.22259393 4.30583741,5.22259393 3.76150108,5.53911477 C3.48933291,5.85563562 3.48933291,6.4886773 3.76150108,7.12171899 C3.76150108,7.12171899 7.02751909,10.6034483 8.38835993,10.6034483 C8.66052809,10.6034483 9.20486443,9.97040659 8.66052809,9.65388574 L5.12234192,5.53911477 Z" id="Path" fill="#FFF3E0"></path>
                        <path d="M58.3843589,49.9915276 C58.3843589,49.9915276 57.269284,61.7497437 56.9905153,66.87512 C56.7117465,70.1915399 57.269284,73.5079599 58.1055902,76.8243798 C58.9418964,80.1407998 67.8624958,82.2512488 67.583727,71.6990036 C67.3049583,64.764671 65.9111147,49.6900349 65.9111147,49.6900349 C61.1720462,49.0870494 58.3843589,49.9915276 58.3843589,49.9915276 Z" id="Path" fill="#2E7D32" fill-rule="nonzero"></path>
                        <path d="M67.4448732,49.4827586 C66.3520708,49.4827586 65.532469,49.4827586 64.7128672,49.4827586 C64.9860678,50.0835253 65.2592684,50.684292 65.532469,51.5854421 C66.6252714,59.3954092 69.9036787,68.7072931 65.2592684,76.2168769 C64.4396665,77.4184103 63.3468641,78.3195604 62.2540617,78.9203271 C64.9860678,80.4222438 69.6304781,79.5210938 69.3572775,71.7111266 C68.8108762,64.5019262 67.4448732,49.4827586 67.4448732,49.4827586 Z" id="Path" fill="#2E7D32" fill-rule="nonzero"></path>
                        <ellipse id="Oval" fill="#FFECB3" cx="63.1434054" cy="46.8318966" rx="2.66803122" ry="2.65086207"></ellipse>
                        <ellipse id="Oval" fill="#FFA000" cx="64.0327492" cy="45.9482759" rx="1.77868748" ry="1.76724138"></ellipse>
                    </g>
                    <g id="Group" transform="translate(127.000000, 171.000000)">
                        <path d="M32.2835808,10.5535714 L11.4696684,10.5535714 C12.0909793,14.1138124 7.74180355,18.2674269 5.8778711,21.2342943 C3.70328324,24.2011618 3.39262783,35.1785714 21.7212969,35.1785714 C40.049966,35.1785714 39.4286552,24.4978485 37.8753782,21.2342943 C36.3221011,18.2674269 31.66227,14.1138124 32.2835808,10.5535714 Z" id="Path" fill="#424242" fill-rule="nonzero"></path>
                        <path d="M30.6610469,171.087485 C30.3519281,169.89121 29.4245717,168.994005 28.8063342,166.601456 C26.6425027,158.825674 28.8063342,152.844303 26.6425027,142.675973 C26.3333839,140.582493 25.0969088,138.788082 25.4060275,136.694602 C25.4060275,134.601122 25.7151463,132.806711 25.7151463,131.311368 C25.7151463,129.816025 25.0969088,128.021614 24.78779,126.227203 C23.8604336,116.657009 24.1695524,104.993336 24.4786712,95.7222108 L8.40449438,87.9464286 C8.71361317,97.5166221 12.4230386,121.442106 12.7321574,122.339311 C14.5868701,131.311368 13.9686325,132.507642 14.8959889,140.283424 C15.8233452,148.358275 21.0783646,160.620085 23.5513148,169.293073 C24.4786712,172.283759 25.0969088,185.442775 25.0969088,187.835323 C25.0969088,189.330666 23.8604336,191.723214 26.0242651,191.723214 C27.8789778,191.723214 32.5157596,189.928803 33.1339972,187.835323 C33.7522347,185.741843 31.897522,181.853952 31.2792844,178.26513 C30.6610469,174.377239 31.2792844,172.582827 30.6610469,171.087485 Z" id="Path" fill="#FFF3E0"></path>
                        <path d="M31.9250037,181.379316 C31.6107128,182.77714 31.2964219,184.454529 30.0392584,185.852353 C30.0392584,186.131918 29.7249675,186.131918 29.4106766,186.411483 C29.4106766,186.411483 29.4106766,186.691048 29.4106766,186.970613 C28.467804,189.766261 25.3248951,190.604955 24.3820225,190.604955 C24.3820225,191.164085 24.6963134,191.723214 25.639186,191.723214 C27.5249313,191.723214 32.2392946,190.045825 32.8678763,188.088872 C33.810749,186.131918 32.8678763,183.615835 31.9250037,181.379316 C32.2392946,181.099752 31.9250037,181.099752 31.9250037,181.379316 Z" id="Path" fill="#2196F3"></path>
                        <path d="M28.3063276,31.1951155 C23.6345358,32.384979 24.5688941,27.3280593 23.9459886,22.8660714 L17.40548,24.9483325 C18.3398384,29.1128545 18.9627439,32.0875131 15.2253105,33.2773766 C13.0451409,34.1697742 9.93061305,35.0621717 8.06189631,35.3596376 C4.94736842,35.9545693 3.70155726,55.2898503 3.07865169,61.2391675 L8.68480189,63.3214286 C9.93061305,59.1569065 12.1107826,54.6949186 12.1107826,49.6379989 L38.5842697,37.7393645 C36.7155529,30.6001838 34.2239306,29.7077862 28.3063276,31.1951155 Z" id="Path" fill="#FFF3E0"></path>
                        <path d="M33.258427,36.4597663 C33.258427,36.4597663 40.7943132,54.7005071 43.4028892,58.0446429 L47.4606742,54.0924824 C46.0114653,50.7483466 43.692731,39.4998898 40.2146297,33.4196429 L33.258427,36.4597663 Z" id="Path" fill="#E8D7B9"></path>
                        <path d="M42.7954011,54.4342105 C41.0614058,51.1246476 41.350405,45.7089991 41.6394042,45.1072603 C42.2174027,43.9037829 43.3733995,41.1959586 43.0844003,39.9924812 C42.2174027,36.3820489 37.304416,37.8863957 36.7264176,35.4794408 C36.7264176,35.4794408 36.7264176,35.1785714 36.7264176,35.1785714 L33.258427,36.6829182 C33.258427,36.6829182 40.7724066,54.7350799 43.3733995,58.0446429 L45.6853933,55.9385573 C45.396394,55.3368186 43.3733995,55.0359492 42.7954011,54.4342105 Z" id="Path" fill="#F0BF97"></path>
                        <path d="M76.3527478,57.2766734 C74.2563709,56.9585284 76.0532654,55.3678034 74.2563709,55.6859484 C72.4594765,55.6859484 70.662582,56.3222384 69.1651699,57.9129634 C67.6677579,59.1855435 53.5920845,54.7315134 46.703989,52.8226433 C44.3081297,52.1863533 41.0138231,57.2766734 42.5112352,58.5492535 C49.3993307,64.2758636 62.2770744,62.3669935 67.3682754,63.0032836 C71.2615468,63.3214286 73.3579237,63.0032836 74.8553358,63.3214286 C76.0532654,63.3214286 76.9517126,63.0032836 76.9517126,62.0488485 C77.5506775,62.0488485 78.1496423,61.4125585 78.1496423,60.4581235 C79.0480895,60.4581235 79.3475719,59.5036885 79.0480895,59.1855435 C80.2460192,59.1855435 81.4439488,59.1855435 81.1444664,58.2311085 C81.1444664,57.2766734 77.5506775,57.5948184 76.3527478,57.2766734 Z" id="Path" fill="#FFF3E0"></path>
                        <path d="M76.3532051,57.9742857 C76.053751,57.9742857 75.7542968,57.9742857 75.1553886,58.2557143 C74.2570263,58.5371429 73.0592099,58.8185714 72.4603016,59.6628571 C71.2624852,60.7885714 69.7652147,61.9142857 68.5673982,61.6328571 C65.273403,61.3514286 60.1826831,59.9442857 56.8886879,59.9442857 C53.5946927,59.6628571 50.3006975,58.5371429 47.0067023,57.4114286 C46.7072482,57.4114286 44.0121612,56.2857143 43.1137989,56.2857143 C42.5148907,56.8485714 41.6165283,58.2557143 42.5148907,59.1 C49.4023352,64.1657143 62.2788619,62.4771429 67.3695818,63.04 C68.8668523,63.04 73.9575722,63.3214286 74.8559345,63.3214286 C76.053751,63.3214286 76.9521133,63.04 76.9521133,62.1957143 C77.5510215,62.1957143 78.1499297,61.6328571 78.1499297,60.7885714 C79.0482921,60.7885714 79.3477462,59.9442857 79.0482921,59.6628571 C80.2461085,59.6628571 81.4439249,59.6628571 81.1444708,58.8185714 C81.1444708,57.9742857 77.5510215,58.2557143 76.3532051,57.9742857 Z" id="Path" fill="#FFF3E0"></path>
                        <path d="M72.3146067,57.0852273 L74.7845628,58.0446429 C75.4020518,58.0446429 76.3282853,57.4050325 76.9457743,56.4456169 C78.4894968,56.4456169 79.1069858,55.8060065 79.4157303,54.5267857 C77.5632633,55.1663961 76.6370298,55.1663961 76.0195408,55.1663961 L72.3146067,57.0852273 Z" id="Path" fill="#FFF3E0"></path>
                        <path d="M25.5655431,6.12969826 C24.0861423,5.52659801 22.6067416,4.92349777 20.2397004,5.52659801 C15.2097378,6.12969826 13.7303371,10.6529501 13.7303371,14.8746518 C13.7303371,15.1762019 13.7303371,15.477752 13.7303371,15.7793022 L13.7303371,15.7793022 C13.7303371,16.9855026 13.7303371,17.890153 14.0262172,18.7948034 C14.3220974,20.302554 14.6179775,21.5087545 15.2097378,22.714955 C15.8014981,23.6196053 19.0561798,28.1428571 21.7191011,28.1428571 C24.3820225,28.1428571 27.9325843,23.6196053 28.5243446,22.4134048 C28.8202247,21.5087545 29.1161049,20.302554 29.411985,18.7948034 C29.411985,18.1917031 29.411985,17.2870528 29.7078652,16.6839525 C29.7078652,16.3824024 29.7078652,16.3824024 29.7078652,16.0808523 C29.7078652,16.0808523 29.7078652,15.7793022 29.7078652,15.7793022 C29.7078652,15.7793022 29.7078652,15.477752 29.7078652,15.477752 C29.411985,10.9545002 28.2284644,7.63744887 25.5655431,6.12969826 Z" id="Path" fill="#FFF3E0"></path>
                        <path d="M23.3358285,81.210794 C18.4104057,91.413503 19.3339225,97.7151762 19.6417614,111.518841 C19.6417614,120.521232 19.6417614,122.921869 19.0260835,129.223542 C18.7182446,131.02402 18.4104057,132.824499 18.1025667,134.324897 C18.1025667,136.125375 18.4104057,137.625773 18.4104057,139.726331 C18.7182446,142.126969 17.4868889,143.927447 17.17905,145.727925 C15.0241775,155.930634 17.4868889,163.132546 15.0241775,170.934618 C14.4084996,173.335255 13.4849828,173.335255 12.8693049,174.235494 C12.2536271,175.735892 12.8693049,177.53637 12.2536271,180.537167 C11.6379492,184.438203 9.48307672,188.039159 10.4065935,190.139717 C10.7144324,191.340036 14.1006607,195.241071 15.9476942,195.241071 C18.1025667,195.241071 17.7947278,191.640115 18.1025667,190.139717 C18.4104057,188.639319 18.4104057,178.13653 18.4104057,177.236291 C18.7182446,174.235494 27.0298957,151.729518 28.2612514,143.627367 C29.1847682,136.125375 28.8769293,132.524419 30.4161239,123.522028 C32.8788354,111.518841 34.7258689,100.715973 35.0337079,90.2131843 L33.8023521,80.9107143 L23.3358285,81.210794 Z" id="Path" fill="#FFF3E0"></path>
                        <path d="M16.9796319,190.8663 C12.8265362,190.8663 11.7882623,183.289377 11.7882623,182.928571 C10.7499884,186.175824 9.71171448,189.062271 10.4038971,190.8663 C10.7499884,192.309524 14.5569928,197 16.6335406,197 C19.0561798,197 18.7100885,192.67033 19.0561798,190.8663 C19.0561798,190.505495 19.0561798,190.144689 19.0561798,189.423077 C18.3639972,190.144689 17.6718145,190.8663 16.9796319,190.8663 Z" id="Path" fill="#2196F3"></path>
                        <path d="M39.4007184,70.4090603 C36.39665,71.3144834 17.7714264,72.8235217 10.8620692,68.5982143 C10.2612556,71.616291 4.85393258,77.3506369 4.85393258,86.7066748 C4.85393258,100.589828 10.5616624,128.356134 10.5616624,128.356134 C10.5616624,128.356134 23.4791562,131.977826 32.791768,128.959749 C36.39665,110.851289 41.803973,92.139213 40.001532,78.5578676 C40.3019389,78.2560599 39.4007184,70.710868 39.4007184,70.4090603 Z" id="Path" fill="#0D47A1"></path>
                        <path d="M42.07906,33.953987 C35.1202249,24.9036903 28.1613899,29.1271621 28.1613899,29.1271621 C25.4383675,31.5405746 21.5051129,34.8590167 21.5051129,34.8590167 L13.6386037,32.4456042 C13.6386037,32.4456042 5.77209453,32.7472808 4.86442039,39.9875181 C4.56186235,42.4009306 10.9155813,42.4009306 9.70534912,45.7193727 C7.89000085,50.2445211 11.2181393,52.0545804 13.0334876,53.5629632 C13.6386037,57.4847584 13.9411618,59.8981709 13.3360457,62.0099068 C12.7309296,65.0266723 10.3104652,66.2333786 10.6130233,68.9484676 C11.2181393,73.4736159 37.8432474,72.5685863 39.9611537,69.8534973 C42.381618,67.1384082 39.9611537,50.5461976 39.0534795,41.7975775 C38.1458054,36.9707526 42.6841761,35.1606932 42.07906,33.953987 Z" id="Path" fill="#4CAF50"></path>
                        <path d="M27.807623,3.94242611 C27.807623,3.94242611 26.0462267,0 21.3491699,0 C15.4778488,0 11.9550562,4.85221675 11.9550562,9.0979064 C11.9550562,12.737069 12.8357543,14.5566502 12.2486222,17.5892857 C18.4135093,10.007697 22.5234341,7.58158867 22.5234341,7.58158867 C22.229868,8.79464286 20.1749056,12.1305419 20.1749056,12.1305419 C23.4041322,10.9174877 25.7526606,8.49137931 25.7526606,8.49137931 C28.6883212,10.9174877 28.9818872,15.4664409 28.9818872,15.4664409 C30.7432835,13.3435961 31.9175477,10.6142241 31.3304156,7.88485222 C31.0368496,4.85221675 27.807623,3.94242611 27.807623,3.94242611 Z" id="Path" fill="#424242" fill-rule="nonzero"></path>
                        <g transform="translate(11.955056, 15.092154)" fill="#FF6F00" fill-rule="nonzero">
                            <path d="M4.86934189,0.151893659 C3.34767255,0.151893659 1.52166934,0.151893659 1.52166934,2.20397699 C1.52166934,3.96290556 3.04333868,5.13552461 4.86934189,5.42867937 C6.6953451,5.42867937 8.21701445,4.25606033 8.52134831,2.49713175 C8.21701445,0.445048421 6.08667737,0.151893659 4.86934189,0.151893659 Z M4.56500803,4.84236985 C2.73900482,4.84236985 1.52166934,3.6697508 1.52166934,2.20397699 C1.52166934,1.03135794 2.43467095,0.445048421 4.56500803,0.445048421 C6.6953451,0.445048421 7.60834671,1.03135794 7.60834671,2.20397699 C7.60834671,3.6697508 6.39101124,4.84236985 4.56500803,4.84236985 Z" id="Shape"></path>
                            <path d="M1.21733547,0.445048421 C0.913001605,0.445048421 0.913001605,0.445048421 0.913001605,0.445048421 C0.913001605,0.445048421 0.913001605,1.03135794 0.913001605,1.03135794 C0.913001605,1.03135794 0.913001605,1.03135794 0.913001605,1.32451271 C0.913001605,1.32451271 1.21733547,1.32451271 1.21733547,1.61766747 C1.21733547,1.91082223 1.21733547,2.49713175 1.52166934,3.08344128 C1.52166934,3.08344128 1.52166934,1.61766747 1.82600321,1.32451271 C2.43467095,0.738203183 3.04333868,0.445048421 3.04333868,0.445048421 C2.43467095,0.445048421 1.52166934,0.445048421 1.21733547,0.445048421 Z" id="Path"></path>
                            <path d="M13.9993579,0.445048421 C12.4776886,0.445048421 10.6516854,0.445048421 10.6516854,2.49713175 C10.6516854,4.25606033 12.1733547,5.42867937 13.9993579,5.72183414 C15.8253612,5.72183414 17.3470305,4.54921509 17.6513644,2.79028652 C17.3470305,0.738203183 15.5210273,0.445048421 13.9993579,0.445048421 Z M13.9993579,5.13552461 C12.1733547,5.13552461 10.9560193,3.96290556 10.9560193,2.49713175 C10.9560193,1.32451271 11.8690209,0.738203183 13.9993579,0.738203183 C16.129695,0.738203183 17.0426966,1.32451271 17.0426966,2.49713175 C17.0426966,3.96290556 15.5210273,5.13552461 13.9993579,5.13552461 Z" id="Shape"></path>
                            <path d="M17.6513644,0.738203183 C17.3470305,0.738203183 16.4340289,0.738203183 16.129695,0.445048421 C16.129695,0.445048421 16.7383628,0.738203183 17.0426966,1.32451271 C17.3470305,1.91082223 17.3470305,3.08344128 17.3470305,3.08344128 C17.6513644,2.49713175 17.6513644,1.91082223 17.6513644,1.61766747 C17.6513644,1.32451271 17.6513644,1.32451271 17.9556982,1.32451271 C18.2600321,1.32451271 17.9556982,1.32451271 17.9556982,1.32451271 C17.9556982,1.32451271 17.9556982,1.03135794 17.9556982,0.738203183 C17.9556982,0.738203183 17.9556982,0.738203183 17.6513644,0.738203183 Z" id="Path"></path>
                            <path d="M9.43434992,1.61766747 C9.13001605,1.61766747 8.82568218,1.61766747 8.52134831,1.61766747 C8.52134831,1.61766747 7.91268058,1.61766747 7.91268058,1.32451271 L8.21701445,2.79028652 C8.52134831,2.49713175 9.13001605,2.20397699 9.43434992,2.20397699 C9.73868379,2.20397699 10.3473515,2.49713175 10.6516854,2.79028652 L10.9560193,1.61766747 C10.9560193,1.91082223 10.3473515,1.91082223 10.3473515,1.91082223 C10.0430177,1.61766747 9.73868379,1.61766747 9.43434992,1.61766747 Z" id="Path"></path>
                        </g>
                        <path d="M33.6134831,65.9246429 C31.7494382,65.6432143 33.6134831,64.5175 31.7494382,64.5175 C29.8853933,64.5175 28.3320225,64.5175 26.4679775,65.6432143 C25.8466292,66.2060714 24.9146067,65.9246429 23.9825843,65.9246429 C20.2544944,65.6432143 15.594382,62.8289286 8.75955056,61.9846429 C6.58483146,61.7032143 5.34213483,60.8589286 2.85674157,60.5775 C2.23539326,63.3917857 2.23539326,66.4875 3.16741573,67.0503571 C5.96348315,69.0203571 11.2449438,69.3017857 14.9730337,69.5832143 C18.3904494,69.8646429 19.6331461,69.3017857 24.2932584,70.1460714 C28.0213483,70.7089286 30.1960674,70.7089286 31.7494382,70.9903571 C32.9921348,71.2717857 33.6134831,70.9903571 33.9241573,70.1460714 C34.5455056,70.1460714 35.1668539,69.5832143 35.1668539,69.0203571 C35.7882022,69.0203571 36.4095506,68.4575 36.0988764,67.8946429 C37.341573,67.8946429 38.2735955,67.8946429 38.2735955,67.0503571 C38.2735955,66.4875 34.8561798,66.2060714 33.6134831,65.9246429 Z" id="Path" fill="#FFF3E0"></path>
                        <path d="M32.9921348,63.3917857 L29.2640449,64.5175 L32.6814607,65.3617857 C32.9921348,65.0803571 33.302809,64.5175 33.9241573,64.2360714 C35.1668539,64.2360714 36.0988764,63.6732143 36.4095506,62.8289286 C34.5455056,63.3917857 33.6134831,63.3917857 32.9921348,63.3917857 Z" id="Path" fill="#E8D7B9"></path>
                        <g transform="translate(0.725060, 38.124247)" fill-rule="nonzero" id="Path">
                            <path d="M0.0161389173,27.6756718 C0.0161389173,27.6756718 0.0161389173,27.6756718 0.0161389173,27.6756718 C0.0161389173,28.2833017 0.622693224,28.8909316 1.22924753,28.8909316 L30.6471314,28.8909316 C31.2536857,28.8909316 31.86024,28.2833017 31.86024,27.6756718 C31.86024,27.6756718 31.86024,27.6756718 31.86024,27.6756718 L0.0161389173,27.6756718 Z" fill="#BBDEFB"></path>
                            <path d="M35.1962887,1.85140236 L29.1307457,27.3718569 C29.1307457,27.6756718 29.1307457,28.8909316 30.6471314,28.8909316 L55.515858,28.5871166 L55.515858,0.0285127523 L37.622506,0.0285127523 C36.4093973,0.0285127523 35.4995659,0.939957558 35.1962887,1.85140236 Z" fill="#BBDEFB"></path>
                            <path d="M68.8600528,0.0285127523 L37.0159517,0.0285127523 C36.7126745,0.0285127523 36.4093973,0.332327687 36.4093973,0.636142622 L29.7373,27.9794868 C29.7373,28.5871166 30.0405771,28.8909316 30.3438543,28.8909316 L60.0650153,28.8909316 C61.5814011,28.8909316 63.0977869,27.6756718 63.401064,26.1565972 L69.4666071,0.939957558 C69.7698842,0.636142622 69.4666071,0.0285127523 68.8600528,0.0285127523 Z" fill="#FAFAFA"></path>
                        </g>
                        <path d="M68.882343,62.6159097 C69.1838892,63.2057332 70.0885279,63.500645 70.6916204,63.2057332 L125.573034,33.4196429 L69.4854354,60.846439 C68.882343,61.1413507 68.5807968,62.0260861 68.882343,62.6159097 Z" id="Path" fill="#0D47A1" fill-rule="nonzero"></path>
                        <g transform="translate(73.511576, 56.285714)" fill="#FFF3E0" id="Path">
                            <path d="M8.12325502,1.17261905 C6.56988424,1.17261905 6.25921008,1.17261905 5.01651345,1.17261905 C3.77381682,1.17261905 3.77381682,1.75892857 4.70583929,2.05208333 C5.94853592,2.05208333 6.88055839,2.3452381 8.12325502,2.05208333 C8.74460334,2.05208333 9.05527749,1.75892857 9.05527749,1.46577381 C9.05527749,1.46577381 8.74460334,1.17261905 8.12325502,1.17261905 Z"></path>
                            <path d="M6.25921008,2.63839286 C4.70583929,2.63839286 3.46314266,2.63839286 1.90977188,2.63839286 C0.667075247,2.63839286 0.667075247,3.22470238 1.59909772,3.51785714 C2.84179435,3.8110119 4.39516513,3.8110119 5.63786176,3.8110119 C6.25921008,3.8110119 6.56988424,3.51785714 6.56988424,3.22470238 C6.88055839,2.93154762 6.88055839,2.63839286 6.25921008,2.63839286 Z"></path>
                            <path d="M5.32718761,3.8110119 C4.08449098,3.8110119 2.84179435,3.51785714 1.59909772,3.51785714 C0.35640109,3.51785714 0.35640109,4.10416667 1.28842356,4.39732143 C2.53112019,4.69047619 3.77381682,4.98363095 5.01651345,4.98363095 C5.63786176,4.98363095 5.94853592,4.69047619 5.94853592,4.39732143 C5.94853592,4.10416667 5.94853592,3.8110119 5.32718761,3.8110119 Z"></path>
                            <path d="M4.39516513,4.98363095 C3.15246851,4.98363095 2.53112019,4.98363095 1.28842356,4.69047619 C0.0457269322,4.69047619 0.35640109,5.27678571 0.977749404,5.56994048 C2.22044603,5.86309524 2.84179435,5.86309524 4.08449098,6.15625 C4.70583929,6.15625 5.01651345,5.86309524 5.01651345,5.56994048 C5.01651345,5.27678571 4.70583929,5.27678571 4.39516513,4.98363095 Z"></path>
                        </g>
                    </g>
                    <g id="Group" transform="translate(0.000000, 102.000000)">
                        <path d="M84.5142092,24.2416765 C84.003054,24.2416765 83.6654987,24.6654382 83.6654987,25.0891999 L83.6654987,31.3636693 C83.6654987,31.8722798 84.003054,32.2111928 84.5142092,32.2111928 C85.0205422,32.2111928 85.3629197,31.8722798 85.3629197,31.3636693 L85.3629197,25.0891999 C85.3629197,24.5805895 84.9385645,24.2416765 84.5142092,24.2416765 Z" id="Path" fill="#4CAF50"></path>
                        <path d="M78.2356801,21.6132933 C77.9849247,21.6132933 77.8113249,21.6981421 77.6425472,21.8678396 L73.2350391,26.2766005 C72.8926615,26.6155134 72.8926615,27.1241239 73.1482391,27.4630368 C73.4857945,27.8024319 73.9969497,27.8024319 74.334505,27.5478856 L74.4213049,27.4630368 L78.8288131,23.0547581 C79.1711906,22.715363 79.1711906,22.2067526 78.8288131,21.8678396 C78.6600354,21.6981421 78.4912577,21.6132933 78.2356801,21.6132933 Z" id="Path" fill="#4CAF50"></path>
                        <path d="M90.787916,21.6132933 C90.281583,21.6132933 89.9392055,21.9522063 89.9392055,22.4612988 C89.9392055,22.715363 90.0260054,22.8850605 90.1947831,23.0547581 L94.6022912,27.4635189 C94.9446688,27.8024319 95.4510017,27.8872806 95.7933793,27.5483677 C96.1309346,27.2089727 96.2177346,26.7003622 95.875357,26.3614492 L91.381049,21.8678396 C91.2122713,21.6981421 91.0434936,21.6132933 90.787916,21.6132933 Z" id="Path" fill="#4CAF50"></path>
                        <path d="M93.4160254,15.339306 C92.9096924,15.339306 92.5673148,15.6787011 92.5673148,16.1873115 C92.5673148,16.695922 92.9096924,17.035317 93.4160254,17.035317 L99.6945544,17.035317 C100.200887,17.035317 100.543265,16.695922 100.543265,16.1873115 C100.543265,15.6787011 100.200887,15.339306 99.6945544,15.339306 L93.4160254,15.339306 Z" id="Path" fill="#4CAF50"></path>
                        <path d="M69.4158417,15.339306 C68.9095087,15.339306 68.5671311,15.6787011 68.5671311,16.1873115 C68.5671311,16.695922 68.9095087,17.035317 69.4158417,17.035317 L75.6943707,17.035317 C76.2007037,17.035317 76.5430813,16.695922 76.5430813,16.1873115 C76.5430813,15.6787011 76.2007037,15.339306 75.6943707,15.339306 L69.4158417,15.339306 Z" id="Path" fill="#4CAF50"></path>
                        <path d="M95.2002464,4.65655782 C94.9446688,4.65655782 94.7758911,4.74140658 94.6022912,4.9111041 L90.1947831,9.31986497 C89.8572278,9.65926002 89.7704278,10.1678705 90.1079832,10.5067834 C90.4503607,10.8456964 90.9566937,10.9305451 91.2990712,10.5916322 L91.381049,10.5067834 L95.7933793,6.09802256 C96.1309346,5.75862752 96.1309346,5.25001705 95.7933793,4.9111041 C95.6246016,4.74140658 95.4510017,4.65655782 95.2002464,4.65655782 Z" id="Path" fill="#4CAF50"></path>
                        <path d="M73.828172,4.65655782 C73.3170168,4.65655782 72.9794615,5.08080162 72.9794615,5.50456333 C72.9794615,5.75910961 73.0662614,5.92832504 73.2350391,6.09802256 L77.6425472,10.5067834 C77.9849247,10.8461785 78.4912577,10.8461785 78.8288131,10.5916322 C79.1711906,10.2527192 79.1711906,9.74362668 78.915613,9.40471374 L74.4213049,4.9111041 C74.2525273,4.74140658 73.9969497,4.65655782 73.828172,4.65655782 Z" id="Path" fill="#4CAF50"></path>
                        <path d="M84.5142092,0.248279043 C84.003054,0.248279043 83.6654987,0.67204075 83.6654987,1.09580246 L83.6654987,7.36978977 C83.6654987,7.87840024 84.003054,8.21779528 84.5142092,8.21779528 C85.0205422,8.21779528 85.3629197,7.87840024 85.3629197,7.36978977 L85.3629197,1.09580246 C85.3629197,0.587191989 84.9385645,0.248279043 84.5142092,0.248279043 Z" id="Path" fill="#4CAF50"></path>
                        <path d="M63.4700457,73.5595364 C75.4966598,73.5595364 85.2471865,83.2703806 85.2471865,95.2494829 L41.692905,95.2494829 C41.692905,83.2703806 51.4386095,73.5595364 63.4700457,73.5595364 Z" id="Path" fill="#4CAF50" fill-rule="nonzero"></path>
                        <path d="M63.6291789,81.4909671 C73.1530614,81.4909671 80.8734339,89.1726725 80.8734339,98.6487363 L46.384924,98.6487363 C46.384924,89.1726725 54.1052965,81.4909671 63.6291789,81.4909671 Z" id="Path" fill="#C8E6C9" fill-rule="nonzero"></path>
                        <path d="M63.7111567,90.0698517 C70.7757074,90.0698517 76.4996813,95.7952147 76.4996813,102.857428 C76.4996813,102.911422 76.4996813,102.965417 76.4996813,103.019412 L50.922632,103.019412 L50.9178098,102.857428 C50.9178098,95.8656006 56.5308727,90.1845904 63.498979,90.071298 L63.7111567,90.0698517 Z" id="Path" fill="#2E7D32" fill-rule="nonzero"></path>
                        <path d="M63.388068,133.450227 C49.2493221,133.406356 37.8061965,121.936828 37.8061965,107.794565 C37.8061965,107.767568 37.8061965,107.740088 37.8061965,107.713091 L63.388068,107.713091 L63.388068,133.450227 Z" id="Path" fill="#FFECB3" fill-rule="nonzero"></path>
                        <path d="M63.388068,133.450227 C77.6136139,133.406838 89.1290727,121.936828 89.1290727,107.794565 C89.1290727,107.767568 89.1290727,107.740088 89.1290727,107.713091 L63.388068,107.713091 L63.388068,133.450227 Z" id="Path" fill="#FFA000" fill-rule="nonzero"></path>
                        <path d="M61.0444696,203.487575 L61.0444696,159.309333 C61.0444696,158.006229 62.1005355,156.949477 63.4025347,156.949477 C64.7045338,156.949477 65.7605997,158.006229 65.7605997,159.309333 L65.7605997,203.487575 C65.7605997,204.789232 64.7045338,205.845021 63.4025347,205.845021 C62.1005355,205.845021 61.0444696,204.789232 61.0444696,203.487575 Z" id="Path" fill="#4CAF50" fill-rule="nonzero"></path>
                        <path d="M61.0444696,203.487575 L61.0444696,159.309333 C61.0444696,158.006229 62.1005355,156.949477 63.4025347,156.949477 L63.4025347,205.845021 C62.1005355,205.845021 61.0444696,204.789232 61.0444696,203.487575 Z" id="Path" fill="#2E7D32" fill-rule="nonzero"></path>
                        <line x1="63.4587019" y1="205.845021" x2="63.4587019" y2="156.949959" id="Path" stroke="#A8A8A8" stroke-width="0.5"></line>
                        <path d="M62.7804684,205.845021 C53.3289193,205.816095 45.6760578,198.14596 45.6760578,188.692073 L45.6760578,188.637596 L62.7804684,188.638078 L62.7804684,205.845021 Z" id="Path" fill="#4CAF50" fill-rule="nonzero"></path>
                        <path d="M62.7804684,205.845021 C72.2898842,205.816095 79.9909678,198.14596 79.9909678,188.692073 L79.9909678,188.637596 L62.7804684,188.638078 L62.7804684,205.845021 Z" id="Path" fill="#2E7D32" fill-rule="nonzero"></path>
                        <path d="M0.0144666568,131.842439 C7.07901741,125.122514 18.2906764,125.417074 25.0851829,132.511587 L25.0466052,132.471573 L12.2918361,144.672439 L0.0144666568,131.842439 Z" id="Path" fill="#E0E0E0" fill-rule="nonzero"></path>
                        <path d="M12.7644135,119.562509 C15.1948119,117.238328 15.2816118,113.385423 12.9573023,110.956145 C10.6281705,108.52735 6.77521761,108.442983 4.34481927,110.767164 C1.91924314,113.091827 1.8324432,116.944732 4.15675273,119.373528 C6.48106226,121.802324 10.3340152,121.886691 12.7644135,119.562509 Z" id="Path" fill="#FF6F00" fill-rule="nonzero"></path>
                        <path d="M0.0144666568,131.842439 C7.07901741,125.122514 18.2906764,125.417074 25.0851829,132.511587 L25.0466052,132.471573 L12.2918361,144.672439 L0.0144666568,131.842439 Z" id="Path" fill="#2E7D32" fill-rule="nonzero"></path>
                        <path d="M25.5143604,107.440707 C18.4932096,114.204503 18.2906764,125.417074 25.0851829,132.511587 L25.0466052,132.471091 L37.7965521,120.270707 L25.5143604,107.440707 Z" id="Path" fill="#FFA000" fill-rule="nonzero"></path>
                        <path d="M37.2516413,145.220582 C30.1822684,151.940507 18.9706093,151.645465 12.1761028,144.550951 C12.1664584,144.537935 12.1519917,144.524436 12.1375251,144.510938 L24.8922942,132.310072 L37.2516413,145.220582 Z" id="Path" fill="#4CAF50" fill-rule="nonzero"></path>
                        <path d="M37.2516413,145.220582 C44.2776143,138.456786 44.4753253,127.244215 37.6808188,120.149701 C37.6711744,120.136203 37.6567077,120.122704 37.6422411,120.109205 L24.8922942,132.310072 L37.2516413,145.220582 Z" id="Path" fill="#FFECB3" fill-rule="nonzero"></path>
                        <path d="M41.3360608,148.518113 C41.6543272,148.158952 41.6157495,147.612256 41.2589053,147.296966 C40.9020611,146.981194 40.3523281,147.016386 40.0388839,147.375065 C39.7206174,147.733744 39.754373,148.28044 40.1160394,148.59573 C40.4728836,148.911503 41.0226165,148.876792 41.3360608,148.518113 Z" id="Path" fill="#4CAF50" fill-rule="nonzero"></path>
                        <path d="M39.3685954,146.787873 C39.6868619,146.429195 39.6531064,145.882499 39.2914399,145.566726 C38.9345957,145.251436 38.3848628,145.286147 38.0714186,145.644826 C37.7531521,146.003504 37.7917299,146.5502 38.1485741,146.865973 C38.5054183,147.181745 39.0551512,147.146552 39.3685954,146.787873 Z" id="Path" fill="#4CAF50" fill-rule="nonzero"></path>
                        <path d="M43.3372816,150.278725 C43.6555481,149.920046 43.6169703,149.37335 43.2601261,149.05806 C42.9032819,148.741805 42.353549,148.776998 42.0401047,149.135677 C41.7218383,149.494356 41.760416,150.041052 42.1172602,150.356824 C42.4741044,150.672597 43.0238374,150.637404 43.3372816,150.278725 Z" id="Path" fill="#4CAF50" fill-rule="nonzero"></path>
                        <path d="M57.1674056,161.291226 L45.3336803,150.88038 C44.9816583,150.573285 44.4512142,150.607032 44.1425922,150.956069 C43.8387924,151.305106 43.8725479,151.837339 44.2197477,152.144433 L56.053473,162.554798 C56.405495,162.861892 56.9359391,162.828146 57.2445611,162.479109 C57.5531831,162.130072 57.5146053,161.598321 57.1674056,161.291226 Z" id="Path" fill="#4CAF50" fill-rule="nonzero"></path>
                        <path d="M57.1674056,161.291226 L45.3336803,150.88038 C44.9816583,150.573285 44.4512142,150.607032 44.1425922,150.956069 L57.2445611,162.479109 C57.5531831,162.130072 57.5146053,161.598321 57.1674056,161.291226 Z" id="Path" fill="#2E7D32" fill-rule="nonzero"></path>
                        <line x1="57.2445611" y1="162.490679" x2="44.1474144" y2="150.967157" id="Path" stroke="#A8A8A8" stroke-width="0.5"></line>
                        <path d="M126.920803,131.842439 C119.856252,125.122514 108.644593,125.417074 101.850086,132.511587 L101.888664,132.471573 L114.643433,144.672439 L126.920803,131.842439 Z" id="Path" fill="#E0E0E0" fill-rule="nonzero"></path>
                        <path d="M114.170856,119.562509 C111.740457,117.238328 111.653657,113.385423 113.982789,110.956145 C116.307099,108.52735 120.160052,108.442983 122.59045,110.767164 C125.016026,113.091827 125.102826,116.944732 122.778516,119.373528 C120.454207,121.802324 116.601254,121.886691 114.170856,119.562509 Z" id="Path" fill="#FF6F00" fill-rule="nonzero"></path>
                        <path d="M126.920803,131.842439 C119.856252,125.122514 108.644593,125.417074 101.850086,132.511587 L101.888664,132.471573 L114.643433,144.672439 L126.920803,131.842439 Z" id="Path" fill="#4CAF50" fill-rule="nonzero"></path>
                        <path d="M101.420909,107.440707 C108.44206,114.204503 108.644593,125.417074 101.850086,132.511587 L101.888664,132.471091 L89.1387172,120.270707 L101.420909,107.440707 Z" id="Path" fill="#FFECB3" fill-rule="nonzero"></path>
                        <path d="M89.6884501,145.220582 C96.7530009,151.940507 107.96466,151.645465 114.759166,144.550951 C114.768811,144.537935 114.783277,144.524436 114.797744,144.510938 L102.042975,132.310072 L89.6884501,145.220582 Z" id="Path" fill="#C8E6C9" fill-rule="nonzero"></path>
                        <path d="M89.6836279,145.220582 C82.6576549,138.456786 82.4647661,127.244215 89.2544504,120.149701 C89.2640948,120.136203 89.2785615,120.122704 89.2930282,120.109205 L102.042975,132.310072 L89.6836279,145.220582 Z" id="Path" fill="#2E7D32" fill-rule="nonzero"></path>
                        <path d="M85.7245861,148.517631 C85.4111419,148.158952 85.4448974,147.612256 85.8017416,147.296484 C86.1585858,146.981194 86.7083188,147.015904 87.021763,147.374583 C87.3400295,147.733262 87.306274,148.279958 86.9446075,148.59573 C86.5877633,148.911503 86.0380304,148.87631 85.7245861,148.517631 Z" id="Path" fill="#4CAF50" fill-rule="nonzero"></path>
                        <path d="M87.6920515,146.787873 C87.373785,146.429195 87.4123628,145.882499 87.769207,145.566726 C88.1260512,145.250954 88.6757841,145.286147 88.9892284,145.644826 C89.3074948,146.003504 89.2689171,146.5502 88.9120729,146.865973 C88.5552287,147.181263 88.0054957,147.146552 87.6920515,146.787873 Z" id="Path" fill="#4CAF50" fill-rule="nonzero"></path>
                        <path d="M83.7233653,150.278725 C83.4050988,149.920046 83.4436766,149.37335 83.8005208,149.057578 C84.157365,148.741805 84.7070979,148.776516 85.0205422,149.135677 C85.3388086,149.494356 85.3002309,150.04057 84.9433867,150.356824 C84.5865425,150.672115 84.0368095,150.637404 83.7233653,150.278725 Z" id="Path" fill="#4CAF50" fill-rule="nonzero"></path>
                        <path d="M69.8932414,161.290744 L81.7269666,150.88038 C82.0789886,150.572803 82.6094327,150.607032 82.9180547,150.956069 C83.2266767,151.305106 83.188099,151.836857 82.8408992,152.143951 L71.0071739,162.554798 C70.6551519,162.861892 70.1247079,162.828146 69.8160859,162.479109 C69.5122861,162.12959 69.5460416,161.597839 69.8932414,161.290744 Z" id="Path" fill="#4CAF50" fill-rule="nonzero"></path>
                        <path d="M69.8932414,161.290744 L81.7269666,150.88038 C82.0789886,150.572803 82.6094327,150.607032 82.9180547,150.956069 L69.8160859,162.479109 C69.5122861,162.12959 69.5460416,161.597839 69.8932414,161.290744 Z" id="Path" fill="#2E7D32" fill-rule="nonzero"></path>
                        <line x1="69.8112636" y1="162.469949" x2="82.9084103" y2="150.946909" id="Path" stroke="#A8A8A8" stroke-width="0.5"></line>
                        <path d="M63.4700457,146.528024 C62.1294689,146.528024 61.0444696,145.442346 61.0444696,144.103085 C61.0444696,142.763824 62.1294689,141.678146 63.4700457,141.678146 C64.8058004,141.678146 65.8907996,142.763824 65.8907996,144.103085 C65.8907996,145.442346 64.8058004,146.528024 63.4700457,146.528024 Z" id="Path" fill="#4CAF50" fill-rule="nonzero"></path>
                        <path d="M63.4700457,139.18716 C62.1294689,139.18716 61.0444696,138.101482 61.0444696,136.762221 C61.0444696,135.42296 62.1294689,134.3368 63.4700457,134.3368 C64.8058004,134.3368 65.8907996,135.42296 65.8907996,136.762221 C65.8907996,138.101482 64.8058004,139.18716 63.4700457,139.18716 Z" id="Path" fill="#4CAF50" fill-rule="nonzero"></path>
                        <path d="M63.4700457,154.000018 C62.1294689,154.000018 61.0444696,152.91434 61.0444696,151.575079 C61.0444696,150.235818 62.1294689,149.15014 63.4700457,149.15014 C64.8058004,149.15014 65.8907996,150.235818 65.8907996,151.575079 C65.8907996,152.91434 64.8058004,154.000018 63.4700457,154.000018 Z" id="Path" fill="#4CAF50" fill-rule="nonzero"></path>
                    </g>
                    <g id="Group" transform="translate(368.000000, 285.000000)">
                        <g transform="translate(16.800957, 0.000000)" id="Path">
                            <path d="M34.614303,34.500516 C27.9343498,36.3141383 24.290739,46.2890609 21.2543966,52.3344685 C21.2543966,52.3344685 23.3798363,56.5662539 30.9706922,57.1707946 C30.9706922,57.1707946 38.8651823,44.4754386 38.8651823,41.4527348 C39.1688166,38.1277606 36.1324742,33.8959752 34.614303,34.500516 Z" fill="#3A7CFF"></path>
                            <path d="M34.614303,34.500516 C34.3106688,34.500516 33.7034003,34.8027864 33.3997661,34.8027864 C33.7034003,35.1050568 33.7034003,35.7095975 33.7034003,36.0118679 C33.7034003,42.6618163 29.1488868,49.6140351 23.6834705,55.054902 C25.2016417,55.9617131 27.3270813,56.8685243 30.6670579,57.1707946 C30.6670579,57.1707946 38.5615481,44.4754386 38.5615481,41.4527348 C39.1688166,38.1277606 36.1324742,33.8959752 34.614303,34.500516 Z" fill="#346790"></path>
                            <path d="M31.8815949,35.7095975 C29.7561552,37.2209494 31.5779607,60.7980392 29.7561552,64.4252838 C26.7198129,70.1684211 22.7725678,77.4229102 22.7725678,77.4229102 C30.9706922,82.2592363 62.2450186,82.2592363 62.2450186,82.2592363 C62.2450186,82.2592363 64.066824,76.8183695 65.281361,67.4479876 C66.7995322,56.5662539 67.4068006,33.2914345 66.7995322,33.2914345 C53.4396257,29.3619195 35.5252057,33.2914345 31.8815949,35.7095975 Z" fill="#2196F3"></path>
                            <g transform="translate(42.508793, 18.136223)" fill="#FFF3E0">
                                <path d="M11.2344668,0.64623323 L0.910902711,6.99391125 C1.21453695,7.29618163 1.82180542,11.527967 0.910902711,13.3415893 C0.303634237,14.8529412 -0.303634237,17.5733746 3.33997661,18.1779154 C6.67995322,18.7824561 13.0562722,15.7597523 12.1453695,13.0393189 C10.6271983,8.20299278 11.2344668,0.64623323 11.2344668,0.64623323 Z"></path>
                            </g>
                            <path d="M23.076202,87.3978328 C22.4689335,87.3978328 14.2708091,86.7932921 11.2344668,87.3978328 C7.89449016,87.7001032 6.67995322,87.7001032 4.85814779,90.1182663 C3.6851159,91.6752835 3.51914642,93.6082528 3.79286165,95.5137248 C3.94424644,96.5675919 4.23012679,97.6130479 4.55451356,98.5818369 C5.46541627,101.30227 6.98358745,101.30227 9.41266135,100.395459 C11.8417352,99.7909185 14.5744434,97.6750258 17.3071515,97.3727554 C19.7362254,97.070485 20.3434939,97.6750258 22.1652993,97.070485 C23.9871047,96.4659443 24.290739,97.070485 23.9871047,95.8614035 C23.9871047,94.3500516 23.076202,87.3978328 23.076202,87.3978328 Z" fill="#0D47A1"></path>
                            <path d="M23.076202,87.3978328 C22.4689335,87.3978328 14.2708091,86.7932921 11.2344668,87.3978328 C7.89449016,87.7001032 6.67995322,87.7001032 4.85814779,90.1182663 C3.94724508,91.3273478 3.64361085,92.8386997 3.64361085,94.652322 C5.46541627,95.2568627 7.28722169,94.9545924 9.10902711,94.652322 C10.6271983,94.3500516 12.4490037,93.7455108 14.2708091,94.0477812 C16.0926146,94.3500516 18.2180542,95.8614035 19.1289569,97.6750258 C20.3434939,97.6750258 20.9507624,97.6750258 22.4689335,97.3727554 C24.290739,96.7682147 24.5943732,97.3727554 24.290739,96.1636739 C23.9871047,94.3500516 23.076202,87.3978328 23.076202,87.3978328 Z" fill="#0D47A1"></path>
                            <path d="M66.4958979,87.7001032 C64.6740925,87.3978328 58.2977735,87.3978328 53.74326,86.7932921 C53.74326,86.7932921 48.5814779,93.7455108 48.5814779,94.0477812 C48.5814779,94.3500516 52.2250888,96.4659443 54.0468942,97.6750258 C55.5650654,98.8841073 61.9413844,101 63.7631898,100.69773 C65.5849952,100.395459 68.9249718,93.4432405 69.5322403,90.722807 C70.1395088,88.304644 68.3177033,88.0023736 66.4958979,87.7001032 Z" fill="#0D47A1"></path>
                            <path d="M66.4958979,87.7001032 C64.6740925,87.3978328 58.2977735,87.3978328 53.74326,86.7932921 C53.74326,86.7932921 49.4923806,93.1409701 48.5814779,94.0477812 C50.7069176,94.0477812 52.8323573,92.8386997 55.2614312,93.1409701 C56.4759681,93.4432405 57.6905051,94.652322 61.0304817,94.3500516 C63.1559213,94.0477812 62.5486528,97.3727554 61.0304817,99.1863777 C60.7268474,99.4886481 60.4232132,99.7909185 59.8159447,100.093189 C61.6377501,100.69773 63.1559213,101 63.7631898,100.69773 C65.5849952,100.395459 68.9249718,93.4432405 69.5322403,90.722807 C70.1395088,88.304644 68.3177033,88.0023736 66.4958979,87.7001032 Z" fill="#0D47A1"></path>
                            <path d="M7.28722169,71.679773 C2.73270813,72.5865841 0.910902711,76.2138287 0.910902711,79.8410733 C0.910902711,82.2592363 3.03634237,84.6773994 5.46541627,85.2819401 C7.89449016,85.8864809 47.6705752,94.9545924 48.5814779,95.2568627 C49.7960149,95.5591331 54.3505284,84.0728586 54.3505284,84.0728586 C53.1359915,83.7705882 15.7889803,69.8661507 7.28722169,71.679773 Z" fill="#FFECB3"></path>
                            <path d="M19.1289569,82.2592363 C10.9308325,82.5615067 8.1981244,81.3524252 0.910902711,77.7251806 C0.910902711,78.3297214 0.607268474,79.2365325 0.607268474,79.8410733 C0.607268474,82.2592363 2.73270813,84.6773994 5.16178203,85.2819401 C7.59085593,85.8864809 47.366941,94.9545924 48.2778437,95.2568627 C49.4923806,95.5591331 54.0468942,84.0728586 54.0468942,84.0728586 C53.4396257,83.7705882 42.205159,79.8410733 35.2215715,77.7251806 C30.0597895,80.445614 25.5052759,82.2592363 19.1289569,82.2592363 Z" fill="#FF6F00"></path>
                            <path d="M43.1160617,32.9891641 L43.4196959,32.0823529 C43.4196959,32.0823529 41.2942562,31.7800826 40.990622,34.500516 C40.3833535,38.7323013 42.5087932,41.7550052 42.5087932,41.7550052 C42.8124274,39.6391125 46.152404,36.6164087 46.152404,36.6164087 C43.1160617,35.4073271 43.1160617,32.9891641 43.1160617,32.9891641 Z" fill="#FFFFFF"></path>
                            <path d="M54.3505284,15.1552116 C54.3505284,15.1552116 54.0468942,10.3188854 50.4032834,6.99391125 C46.7596725,3.66893705 43.4196959,5.18028896 37.0433769,6.99391125 C30.6670579,8.80753354 31.8815949,10.9234262 31.8815949,10.9234262 C31.8815949,10.9234262 32.1852291,16.0620227 33.0961318,21.2006192 C33.3997661,23.3165119 35.82884,26.3392157 38.5615481,29.6641899 C40.990622,32.6868937 44.6342329,31.1755418 49.1887464,28.4551084 C53.74326,25.7346749 53.4396257,23.0142415 53.4396257,22.7119711 C53.4396257,22.7119711 54.3505284,23.0142415 55.5650654,22.1074303 C57.3868708,20.5960784 58.6014078,17.875645 57.3868708,15.4574819 C56.1723339,13.6438596 54.3505284,15.1552116 54.3505284,15.1552116 Z" fill="#FFF3E0"></path>
                            <path d="M31.5779607,6.0871001 C30.6670579,7.90072239 30.0597895,13.3415893 34.614303,14.5506708 C39.4724508,16.0620227 48.5814779,9.71434469 50.4032834,13.3415893 C51.9214545,16.3642931 50.0996491,18.1779154 51.6178203,19.3869969 C52.2250888,19.9915377 53.4396257,19.6892673 53.74326,19.0847265 C53.74326,18.7824561 53.74326,16.6665635 54.6541627,15.1552116 C54.6541627,15.1552116 55.5650654,14.5506708 56.1723339,14.5506708 C56.1723339,14.5506708 57.0832366,10.9234262 55.8686996,7.59845201 C50.7069176,-3.58555212 34.9179373,-0.865118679 31.5779607,6.0871001 Z" fill="#424242"></path>
                            <path d="M67.4068006,72.5865841 C62.8522871,69.8661507 54.6541627,73.1911249 45.5451356,75.9115583 C38.5615481,78.027451 18.5216885,84.9796698 18.5216885,84.9796698 C18.5216885,84.9796698 16.3962488,93.4432405 21.8616651,98.5818369 C21.8616651,98.5818369 49.1887464,91.9318885 66.7995322,84.6773994 C68.0140691,84.0728586 70.1395088,83.4683179 70.443143,80.445614 C71.3540457,77.4229102 70.1395088,74.097936 67.4068006,72.5865841 Z" fill="#FFECB3"></path>
                            <path d="M68.0140691,72.8888545 C68.6213376,74.4002064 68.6213376,76.5160991 67.7104349,78.6319917 C66.4958979,81.6546956 63.1559213,83.1660475 60.1195789,82.8637771 C58.6014078,82.5615067 57.6905051,81.6546956 56.4759681,81.3524252 C54.3505284,81.0501548 53.4396257,81.9569659 51.6178203,83.4683179 C49.1887464,85.5842105 47.0633068,87.3978328 43.7233301,88.304644 C41.9015247,88.6069143 40.0797193,88.304644 38.2579139,88.304644 C35.82884,88.6069143 34.3106688,89.8159959 31.8815949,90.4205366 C27.0234471,91.9318885 22.4689335,90.722807 18.2180542,88.9091847 C18.2180542,91.6296182 19.1289569,95.5591331 21.8616651,98.2795666 C21.8616651,98.2795666 49.1887464,91.6296182 66.7995322,84.375129 C68.0140691,83.7705882 70.1395088,83.1660475 70.443143,80.1433437 C71.3540457,77.7251806 70.1395088,74.7024768 68.0140691,72.8888545 Z" fill="#FF6F00"></path>
                            <path d="M61.9413844,38.7323013 C61.0304817,44.4754386 69.5322403,58.9844169 69.5322403,58.9844169 C69.5322403,58.9844169 48.8851122,54.1480908 46.7596725,53.8458204 C43.4196959,53.5435501 39.4724508,50.5208462 38.2579139,50.8231166 C37.9542796,50.8231166 35.2215715,51.7299278 35.2215715,52.0321981 C35.2215715,52.0321981 30.9706922,55.6594427 31.2743264,56.2639835 C31.2743264,56.5662539 32.1852291,56.2639835 32.4888634,55.9617131 C33.0961318,55.3571723 34.9179373,53.8458204 35.5252057,53.5435501 C36.7397427,52.9390093 38.5615481,52.6367389 38.5615481,52.6367389 C38.5615481,52.6367389 36.7397427,53.5435501 36.1324742,53.8458204 C35.2215715,54.4503612 33.0961318,56.2639835 32.4888634,57.473065 C32.1852291,57.7753354 32.1852291,58.0776058 32.1852291,58.3798762 C32.4888634,58.3798762 32.7924976,58.3798762 33.3997661,58.0776058 C34.3106688,57.7753354 35.2215715,56.2639835 35.5252057,56.2639835 C35.82884,55.9617131 37.6506454,55.054902 37.6506454,55.054902 C37.6506454,55.054902 35.5252057,57.1707946 35.2215715,57.7753354 C34.614303,58.3798762 33.3997661,60.4957688 34.0070346,60.4957688 C34.3106688,60.4957688 34.614303,60.1934985 35.2215715,59.8912281 C36.1324742,58.9844169 37.0433769,57.7753354 37.3470112,57.473065 C37.6506454,57.1707946 39.4724508,56.2639835 39.7760851,56.2639835 C39.7760851,56.2639835 38.8651823,57.1707946 38.5615481,57.7753354 C38.2579139,58.0776058 37.6506454,59.5889577 37.6506454,59.5889577 C37.6506454,59.5889577 37.3470112,61.7048504 37.9542796,61.40258 C38.5615481,61.1003096 39.1688166,59.2866873 39.1688166,59.2866873 C39.1688166,59.2866873 39.4724508,58.9844169 39.7760851,58.3798762 C39.7760851,58.3798762 42.205159,59.2866873 44.3305986,59.2866873 C46.4560383,59.2866873 47.6705752,58.3798762 47.6705752,58.3798762 C47.9742095,58.9844169 71.65768,66.2389061 73.7831196,66.5411765 C76.2121935,67.1457172 78.0339989,65.3320949 78.3376332,64.7275542 C79.2485359,60.4957688 74.0867539,47.8004128 70.443143,39.0345717 C67.7104349,31.1755418 62.2450186,37.2209494 61.9413844,38.7323013 Z" fill="#FFF3E0"></path>
                            <path d="M61.9413844,38.7323013 C61.3341159,43.5686275 67.4068006,55.054902 69.2286061,58.0776058 C70.1395088,58.0776058 71.3540457,58.0776058 72.8722169,57.473065 C75.9085593,55.9617131 79.8558044,60.7980392 75.3012908,63.5184727 C72.2649484,65.3320949 67.7104349,63.820743 48.5814779,57.473065 C46.7596725,56.8685243 44.9378671,58.0776058 43.7233301,58.0776058 C43.1160617,58.0776058 41.5978905,57.1707946 40.6869878,57.7753354 C39.1688166,58.6821465 39.1688166,59.5889577 38.5615481,61.1003096 C38.5615481,61.1003096 38.5615481,61.40258 38.2579139,61.40258 C38.2579139,61.40258 38.2579139,61.40258 38.5615481,61.40258 C39.1688166,61.1003096 39.7760851,59.2866873 39.7760851,59.2866873 C39.7760851,59.2866873 40.0797193,58.9844169 40.3833535,58.3798762 C40.3833535,58.3798762 42.8124274,59.2866873 44.9378671,59.2866873 C47.0633068,59.2866873 48.2778437,58.3798762 48.2778437,58.3798762 L48.2778437,58.3798762 C48.5814779,58.9844169 72.2649484,66.2389061 74.3903881,66.5411765 C76.819462,67.1457172 78.6412674,65.3320949 78.9449016,64.7275542 C79.8558044,60.4957688 74.6940223,47.8004128 71.0504115,39.0345717 C67.7104349,31.1755418 62.2450186,37.2209494 61.9413844,38.7323013 Z" fill="#FFF3E0"></path>
                            <path d="M64.066824,32.6868937 C57.9941393,33.8959752 57.3868708,41.7550052 68.0140691,57.473065 C68.0140691,57.473065 74.6940223,56.8685243 78.0339989,53.8458204 C78.3376332,53.5435501 71.0504115,31.1755418 64.066824,32.6868937 Z" fill="#2196F3"></path>
                            <path d="M54.0468942,28.7573787 L54.3505284,30.571001 C54.3505284,30.571001 50.0996491,36.9186791 45.8487698,36.3141383 C45.8487698,36.3141383 49.1887464,39.0345717 50.0996491,41.4527348 C50.0996491,41.4527348 55.2614312,36.9186791 55.8686996,32.3846233 C56.4759681,29.9664603 54.0468942,28.7573787 54.0468942,28.7573787 Z" fill="#FFFFFF"></path>
                        </g>
                        <path d="M50.1683581,70.7759398 C50.1683581,70.7759398 50.1683581,70.7759398 50.1683581,70.7759398 C50.1683581,71.687218 50.7777558,72.2947368 51.6918524,72.2947368 L90.6933082,72.2947368 C91.6074048,72.2947368 92.2168026,71.687218 92.2168026,70.7759398 C92.2168026,70.7759398 92.2168026,70.7759398 92.2168026,70.7759398 L50.1683581,70.7759398 Z" id="Path" fill="#4CAF50" fill-rule="nonzero"></path>
                        <path d="M45.9025739,36.7548872 C45.597875,35.5398496 44.3790795,34.6285714 42.8555851,34.6285714 L19.089073,34.6285714 L19.089073,72.2947368 L51.9965513,72.5984962 C54.1294434,72.5984962 54.1294434,71.0796992 54.1294434,70.4721805 L45.9025739,36.7548872 Z" id="Path" fill="#4CAF50" fill-rule="nonzero"></path>
                        <path d="M44.0743806,35.2360902 C44.0743806,34.9323308 43.4649829,34.6285714 43.160284,34.6285714 L1.11183948,34.6285714 C0.502441735,34.6285714 -0.106956012,35.2360902 0.197742862,35.843609 L8.11991357,69.2571429 C8.72931131,71.3834586 10.5575046,72.9022556 12.6903967,72.9022556 L51.9965513,72.9022556 C52.6059491,72.9022556 53.2153468,72.2947368 52.9106479,71.687218 L44.0743806,35.2360902 Z" id="Path" fill="#2E7D32" fill-rule="nonzero"></path>
                    </g>
                </g>
            </g>
        </g>
    </g>
</svg>