<?xml version="1.0" encoding="UTF-8"?>
<svg width="398px" height="320px" viewBox="0 0 398 320" version="1.1" xmlns="http://www.w3.org/2000/svg" xmlns:xlink="http://www.w3.org/1999/xlink">
    <!-- Generator: Sketch 64 (93537) - https://sketch.com -->
    <title>Banner 2 Foreground</title>
    <desc>Created with Sketch.</desc>
    <g id="Landing" stroke="none" stroke-width="1" fill="none" fill-rule="evenodd">
        <g transform="translate(-624.000000, -141.000000)" id="Banner">
            <g transform="translate(0.000000, 111.000000)">
                <g id="Artwork">
                    <g id="Banner-2-Foreground" transform="translate(624.000000, 29.000000)">
                        <g id="Group" transform="translate(165.000000, 0.000000)">
                            <g transform="translate(0.015312, 281.410769)" fill="#F5F5F5" id="Path">
                                <path d="M116.303472,0.0222799577 C180.368566,0.0222799577 232.29454,5.4688535 232.29454,12.1879701 C232.29454,18.9059694 180.368566,24.352543 116.303472,24.352543 C52.2495356,24.352543 0.3124038,18.9059694 0.3124038,12.1879701 C0.3124038,5.4688535 52.2495356,0.0222799577 116.303472,0.0222799577 Z"></path>
                            </g>
                            <g transform="translate(88.157813, 97.182449)" fill="#FFA000" id="Path">
                                <polygon points="0.937211401 0.993231565 52.907815 196.896706 58.073635 196.896706 6.10303138 0.993231565"></polygon>
                            </g>
                            <g transform="translate(149.407118, 97.182449)" fill="#FFA000" id="Path">
                                <polygon points="0.0599414654 0.993231565 52.0305451 196.896706 57.1963651 196.896706 5.22576145 0.993231565"></polygon>
                            </g>
                            <g transform="translate(99.315092, 126.230841)" fill="#FFA000" id="Path">
                                <polygon points="0.435133865 0.394387787 1.08225602 4.59634945 60.796011 4.59634945 60.1600461 0.394387787"></polygon>
                            </g>
                            <g transform="translate(108.240915, 161.865462)" fill="#FFA000" id="Path">
                                <polygon points="0.870267729 -0.00453394286 1.51738989 4.19854497 61.2311449 4.19854497 60.59518 -0.00453394286"></polygon>
                            </g>
                            <g transform="translate(118.282465, 196.617330)" fill="#FFA000" id="Path">
                                <polygon points="0.189673736 0.480415718 0.836795894 4.68349463 60.5617081 4.68349463 59.914586 0.480415718"></polygon>
                            </g>
                            <g transform="translate(127.208288, 232.251951)" fill="#FFA000" id="Path">
                                <polygon points="0.624807601 0.0837284797 1.27192976 4.2845729 60.996842 4.2845729 60.3497199 0.0837284797"></polygon>
                            </g>
                            <g transform="translate(137.134111, 267.003819)" fill="#FFA000" id="Path">
                                <polygon points="0.0599414654 0.567560895 0.707063623 4.7706398 60.4319759 4.7706398 59.7848537 0.567560895"></polygon>
                            </g>
                            <g transform="translate(26.792781, 97.182449)" fill="#FFA000" id="Path">
                                <polygon points="0.3124038 196.896706 5.47822378 196.896706 57.4599847 0.993231565 52.2941647 0.993231565"></polygon>
                            </g>
                            <g transform="translate(84.810630, 97.182449)" fill="#FFA000" id="Path">
                                <polygon points="0.736380386 196.896706 5.90220037 196.896706 57.872804 0.993231565 52.706984 0.993231565"></polygon>
                            </g>
                            <g transform="translate(44.644427, 233.603689)" fill="#FFA000" id="Path">
                                <polygon points="0.223145572 5.19637543 58.0066914 5.19637543 58.6538135 0.994413771 0.870267729 0.994413771"></polygon>
                            </g>
                            <g transform="translate(53.570250, 198.851821)" fill="#FFA000" id="Path">
                                <polygon points="0.658279436 4.71142577 58.4418252 4.71142577 59.0889474 0.50946411 1.30540159 0.50946411"></polygon>
                            </g>
                            <g transform="translate(63.496072, 164.099954)" fill="#FFA000" id="Path">
                                <polygon points="0.0934133011 4.22647611 57.553398 4.22647611 58.2005202 0.0233972035 0.740535459 0.0233972035"></polygon>
                            </g>
                            <g transform="translate(72.537623, 128.465332)" fill="#FFA000" id="Path">
                                <polygon points="0.0892582287 4.6242806 57.8839613 4.6242806 58.5199262 0.422318933 0.736380386 0.422318933"></polygon>
                            </g>
                            <g transform="translate(108.240915, 87.127236)" fill="#FF6F00" id="Path">
                                <polygon points="0.546706651 11.3724456 55.42936 11.3724456 55.42936 0.704982135 0.546706651 0.704982135"></polygon>
                            </g>
                            <g transform="translate(71.421895, 87.127236)" fill="#FF6F00" id="Path">
                                <polygon points="0.881425008 11.3724456 76.1037972 11.3724456 76.1037972 0.704982135 0.881425008 0.704982135"></polygon>
                            </g>
                            <g transform="translate(102.662275, 32.382189)" fill="#2E7D32" id="Path">
                                <path d="M13.2213751,0.81670672 C7.09602918,2.43336147 3.53685731,12.1321727 0.635964879,17.6279051 C0.635964879,17.6279051 2.57733135,21.5058655 9.67336053,22.1538681 C9.67336053,22.1538681 17.1041081,10.1915167 17.1041081,7.28220849 C17.1041081,4.37290028 14.1920584,0.493822668 13.2213751,0.81670672 Z"></path>
                            </g>
                            <g transform="translate(106.009459, 32.382189)" fill="#346790" id="Path">
                                <path d="M9.87419155,0.81670672 C9.56178775,0.81670672 9.23822667,1.14070802 8.91466559,1.14070802 C9.23822667,1.46359207 9.23822667,1.78647612 9.23822667,2.43336147 C9.23822667,8.89886324 5.03193264,15.041481 0.189673736,20.213212 C1.48391805,21.1829814 3.7488456,21.8298668 6.64973804,22.1538681 C6.64973804,22.1538681 14.0804856,10.1915167 14.0804856,7.28220849 C13.7569245,4.37290028 10.8448748,0.493822668 9.87419155,0.81670672 Z"></path>
                            </g>
                            <g transform="translate(103.778003, 30.147697)" fill="#2E7D32" id="Path">
                                <path d="M9.20475483,4.34385189 C7.26338836,5.63762259 8.88119375,27.9434361 7.26338836,31.1756283 C4.36249593,36.672478 0.814481337,43.1368625 0.814481337,43.1368625 C8.23407159,47.6639427 37.6111861,47.6639427 37.6111861,47.6639427 C37.6111861,47.6639427 39.2289915,42.4899771 40.5232358,33.7631697 C41.8063229,23.7403572 42.453445,1.75854498 41.8063229,1.75854498 C29.5444737,-1.47476453 12.7527694,2.08142903 9.20475483,4.34385189 Z"></path>
                            </g>
                            <g transform="translate(122.745377, 17.857993)" fill="#FFD8D8" id="Path">
                                <path d="M10.9006612,0.794361803 L1.21614337,6.93586227 C1.53970444,7.25986357 1.86326552,11.1389412 1.21614337,12.7555959 C0.569021208,14.3711334 -0.0781009501,16.6346735 3.46991364,17.2815589 C6.70552443,17.927327 12.5073093,15.0180188 11.8713444,12.4315946 C10.253539,7.90563167 10.9006612,0.794361803 10.9006612,0.794361803 Z"></path>
                            </g>
                            <g transform="translate(122.745377, 17.857993)" fill="#FFD8D8" id="Path">
                                <path d="M10.9006612,0.794361803 L1.21614337,6.93586227 C1.53970444,7.25986357 1.86326552,11.1389412 1.21614337,12.7555959 C1.21614337,13.07848 0.892582287,13.401364 0.892582287,13.401364 C0.892582287,13.401364 2.51038768,13.07848 4.1170358,12.1075933 C5.73484119,10.8149399 7.67620767,11.4618252 8.9592947,13.07848 C9.60641686,13.7242481 9.60641686,14.3711334 9.60641686,15.3409028 C10.9006612,14.3711334 11.5477833,13.401364 11.2242223,12.1075933 C10.253539,7.90563167 10.9006612,0.794361803 10.9006612,0.794361803 Z"></path>
                            </g>
                            <g transform="translate(119.398193, 31.264943)" fill="#2E7D32" id="Path">
                                <path d="M24.5794847,0.317297823 C20.707909,-0.328470281 14.2478448,5.81303019 13.9242837,15.1878402 C13.9242837,17.7742643 13.2771615,21.0075738 11.0233912,24.8866514 C9.72914692,27.1501915 4.88688802,29.0886131 2.94552155,29.7354984 C1.00415507,30.3812665 0.691751272,31.3510359 1.65127723,31.9979213 C2.94552155,32.6459239 12.3064783,34.2625786 11.335795,35.5552321 C10.052708,37.1707696 -1.57317628,39.7560765 0.691751272,44.6060408 C1.65127723,47.1924649 19.4136647,45.2518089 22.6381182,44.6060408 C23.6088015,42.666502 23.9323626,37.817655 24.5794847,34.9083468 C25.8625718,28.7668463 25.5390107,15.5118415 26.5096939,8.39945434 C26.833255,3.87460863 28.7746215,0.964183173 24.5794847,0.317297823 Z"></path>
                            </g>
                            <g transform="translate(85.926357, 82.658252)" fill="#4CAF50" id="Path">
                                <path d="M18.9896881,0.325118544 C18.342566,0.325118544 10.9118185,0.00111724586 8.01092602,0.325118544 C5.09887631,0.649119842 3.81578928,0.649119842 1.8744228,2.9115427 C-0.0669436715,4.8510815 0.580178486,8.40727506 1.55086172,10.6696979 C2.52154496,13.2550048 3.81578928,13.2550048 6.06955955,12.6092367 C8.3344871,11.9623514 10.9118185,10.0216953 13.5003071,9.69992852 C15.7540774,9.37592722 16.4011995,10.0216953 18.0190049,9.37592722 C19.6368103,8.73015911 19.9492141,9.37592722 19.9492141,8.08327376 C19.9492141,6.79062031 18.9896881,0.325118544 18.9896881,0.325118544 Z"></path>
                            </g>
                            <g transform="translate(85.926357, 82.658252)" fill="#4CAF50" id="Path">
                                <path d="M18.9896881,0.325118544 C18.342566,0.325118544 10.9118185,0.00111724586 8.01092602,0.325118544 C5.09887631,0.649119842 3.81578928,0.649119842 1.8744228,2.9115427 C0.903739565,3.88019486 0.580178486,5.49684961 0.903739565,7.11350436 C2.84510604,7.43750566 4.13935035,7.43750566 6.06955955,7.11350436 C7.68736494,6.79062031 9.30517034,6.14261771 10.9118185,6.46661901 C12.5296238,6.79062031 14.7945514,8.08327376 15.4305163,9.69992852 C16.7247606,9.69992852 17.3718828,9.69992852 18.342566,9.37592722 C19.9492141,8.73015911 20.2727752,9.37592722 20.2727752,8.08327376 C19.9492141,6.79062031 18.9896881,0.325118544 18.9896881,0.325118544 Z"></path>
                            </g>
                            <g transform="translate(85.926357, 82.658252)" fill="#2E7D32" id="Path">
                                <path d="M4.78647251,1.29488795 C5.74599847,0.649119842 7.68736494,0.325118544 9.30517034,0.00111724586 L8.01092602,0.00111724586 C5.09887631,0.325118544 3.81578928,0.325118544 1.8744228,2.5875414 C-0.0669436715,4.52819745 0.580178486,8.08327376 1.55086172,10.3456966 C2.52154496,12.6092367 3.4922282,12.933238 5.42243739,12.2863527 C2.52154496,9.69992852 0.580178486,3.88019486 4.78647251,1.29488795 Z"></path>
                            </g>
                            <g transform="translate(128.324016, 81.541007)" fill="#4CAF50" id="Path">
                                <path d="M17.26031,1.4423644 C15.6536619,1.1183631 9.84071971,1.1183631 5.32202188,0.471477751 L0.479762979,7.25986357 C0.479762979,7.25986357 4.02777757,9.52452092 5.32202188,10.4931731 C6.92867,11.7869438 12.7416121,13.7264826 14.3594175,13.4035985 C15.9772229,13.0795972 19.2016764,6.61409546 19.5252375,4.02878855 C20.4959208,2.0881325 18.8781154,1.7663657 17.26031,1.4423644 Z"></path>
                            </g>
                            <g transform="translate(128.324016, 81.541007)" fill="#4CAF50" id="Path">
                                <path d="M17.26031,1.4423644 C15.6536619,1.1183631 9.84071971,1.1183631 5.32202188,0.471477751 C5.32202188,0.471477751 1.12688514,6.29121141 0.479762979,7.25986357 C2.40997217,7.25986357 4.35133865,6.29121141 6.6162662,6.61409546 C7.57579216,6.93809676 8.87003647,8.23075022 11.7820862,7.90786616 C13.7122954,7.58386487 13.3887343,10.8171744 11.7820862,12.4338291 C11.4585251,12.7555959 11.134964,13.0795972 10.8114029,13.0795972 C12.4180511,13.4035985 13.7122954,13.7264826 14.6829786,13.7264826 C16.300784,13.4035985 19.5252375,6.93809676 19.8487986,4.35055536 C20.4959208,2.0881325 18.8781154,1.7663657 17.26031,1.4423644 Z"></path>
                            </g>
                            <g transform="translate(83.694902, 67.016810)" fill="#FFA000" id="Path">
                                <path d="M6.37080607,1.09490094 C2.16451205,2.06578759 0.557863929,5.29909709 0.557863929,8.8541734 C0.557863929,11.1165963 2.48807312,13.3790191 4.75300068,14.0259045 C7.01792823,14.6739071 43.814633,23.0789476 45.1088773,23.4007144 C46.4031216,23.7247157 50.5982584,13.0572523 50.5982584,13.0572523 C49.3040141,12.410367 14.4375185,-0.520636569 6.37080607,1.09490094 Z"></path>
                            </g>
                            <g transform="translate(83.694902, 73.720286)" fill="#FFA000" id="Path">
                                <path d="M17.661972,4.41312113 C9.91882066,4.73712243 7.33033203,3.76735302 0.881425008,0.211159467 C0.881425008,0.858044817 0.557863929,1.50381292 0.557863929,2.15069827 C0.557863929,4.41312113 2.48807312,6.67554399 4.75300068,7.32242934 C7.01792823,7.97043193 43.814633,16.3754725 45.1088773,16.6972393 C46.0795605,17.0212406 50.5982584,6.35377718 50.5982584,6.35377718 C49.9511362,6.02977588 39.6194962,2.47469957 33.1594319,0.211159467 C27.993612,2.79646638 23.4749141,4.41312113 17.661972,4.41312113 Z"></path>
                            </g>
                            <g transform="translate(111.588098, 6.685534)" fill="#424242" id="Path">
                                <path d="M2.04178198,0.975355632 C2.04178198,0.975355632 0.423976586,2.26800909 0.100415507,4.53043194 C-0.223145572,6.47108799 2.04178198,9.70328025 2.04178198,9.70328025 C2.04178198,9.70328025 4.29555225,4.20754789 3.98314845,2.59201038 C3.98314845,2.26800909 2.04178198,0.975355632 2.04178198,0.975355632 Z"></path>
                            </g>
                            <g transform="translate(121.513921, 30.147697)" fill="#4CAF50" id="Path">
                                <path d="M2.124038,1.75854498 L2.44759908,0.788775574 C2.44759908,0.788775574 0.506232609,0.464774276 0.18267153,3.05119843 C-0.464450628,6.93027604 1.47691585,9.83958425 1.47691585,9.83958425 C1.80047692,7.90004544 4.70136936,4.99185448 4.70136936,4.99185448 C2.124038,4.02096783 2.124038,1.75854498 2.124038,1.75854498 Z"></path>
                            </g>
                            <g transform="translate(112.703826, 5.568288)" fill="#FFD8D8" id="Path">
                                <path d="M24.1666654,9.85075671 C23.1959822,7.9112179 21.5893341,9.52675541 21.5893341,9.52675541 C21.5893341,9.52675541 21.265773,5.00190969 18.0301622,1.76860019 C14.8057087,-1.14070802 11.5812552,0.153062682 5.44475195,1.76860019 C-0.368190193,3.38525494 0.602493043,5.32479375 0.602493043,5.32479375 C0.602493043,5.32479375 0.926054122,10.174758 1.57317628,15.0224878 C1.89673736,16.9631438 4.15050763,19.872452 6.73899626,22.7817602 C8.99276654,25.6910684 12.5519384,24.0755309 16.7470752,21.4891068 C20.9422119,18.9015654 20.6186508,16.3162585 20.6186508,15.9933744 C20.6186508,15.9933744 21.265773,16.3162585 22.54886,15.3464891 C24.1666654,14.6996037 25.4609097,12.1131796 24.1666654,9.85075671 Z"></path>
                            </g>
                            <g transform="translate(119.398193, 6.685534)" fill="#FFD8D8" id="Path">
                                <path d="M17.4722983,8.73351085 C16.501615,6.79397205 14.8949669,8.40950955 14.8949669,8.40950955 C14.8949669,8.40950955 14.5714058,3.88466384 11.335795,0.651354334 C10.6998302,0.00446898342 6.81709721,1.29823968 7.14065829,3.23777849 C7.78778045,5.50020135 9.40558585,6.79397205 9.72914692,9.05751215 C10.052708,11.319935 10.6998302,15.845898 9.40558585,18.1083208 C7.14065829,21.017629 3.5926437,23.2800519 0.0446291143,21.9873984 C2.29839939,24.8967066 5.85757126,23.2800519 10.052708,20.694745 C14.2478448,18.1083208 13.9242837,15.5218967 13.9242837,15.1990126 C13.9242837,15.1990126 14.5714058,15.5218967 15.8544929,14.5532445 C17.4722983,13.5823579 18.7665426,10.9959337 17.4722983,8.73351085 Z"></path>
                            </g>
                            <g transform="translate(111.588098, 0.982059)" fill="#424242" id="Path">
                                <path d="M1.39465982,5.70794412 C0.747537665,7.32459887 -0.223145572,12.4974472 3.98314845,13.4672166 C8.50184628,14.7609873 16.8921198,8.94125362 18.8334862,12.1745631 C20.4401344,15.0838713 18.5099252,16.6994088 19.7930122,17.9920623 C20.4401344,18.6400649 21.4108176,18.3160636 21.7343787,17.6702955 C21.7343787,17.3462942 21.7343787,15.4067554 22.7050619,14.1129847 C22.7050619,14.1129847 23.3521841,13.4672166 24.31171,13.4672166 C24.31171,13.4672166 25.2823933,10.2339071 23.988149,7.00171482 C19.14589,-3.34286456 4.61911333,-0.756440404 1.39465982,5.70794412 Z"></path>
                            </g>
                            <g transform="translate(124.976832, 1.099305)" fill="#424242" id="Path">
                                <path d="M0.602493043,0.0949658977 C3.50338548,2.358506 -0.368190193,7.20735301 2.85626332,9.47089312 C5.44475195,11.733316 6.72783899,12.3802013 6.72783899,13.9957388 C6.72783899,14.9666255 6.40427791,17.5530496 6.08071683,17.8748164 L6.40427791,18.1988177 C7.05140006,18.8457031 8.0220833,18.522819 8.34564438,17.8748164 C8.34564438,17.5530496 8.34564438,15.6123936 9.31632762,14.3197401 C9.31632762,14.3197401 9.96344977,13.6728548 10.9229757,13.6728548 C10.9229757,13.6728548 11.893659,10.4406625 10.5994147,7.20735301 C8.34564438,2.6825073 4.79762979,0.418967196 0.602493043,0.0949658977 Z"></path>
                            </g>
                            <g transform="translate(100.315092, 68.134056)" fill="#FFA000" id="Path">
                                <path d="M45.9163564,0.948541731 C41.7212197,-1.63788242 33.9780684,1.59430984 25.5766376,4.18185124 C18.8041695,6.44427409 0.405817101,12.5857746 0.405817101,12.5857746 C0.405817101,12.5857746 -1.53554937,20.345047 3.63027061,25.193894 C3.63027061,25.193894 29.1358095,19.0523936 45.2692343,11.9400065 C46.5634786,11.2931211 48.181284,10.6462358 48.8284062,8.06092885 C49.7990894,5.47338745 48.5048451,2.24119519 45.9163564,0.948541731 Z"></path>
                            </g>
                            <g transform="translate(100.315092, 69.251302)" fill="#FFA000" id="Path">
                                <path d="M46.5634786,0.155297174 C47.2106008,1.76971743 47.2106008,3.38637219 46.2399175,5.64991229 C44.9456732,8.56033774 42.0447808,9.8529912 39.1438883,9.5289899 C37.849644,9.20610585 36.8789608,8.56033774 35.9082776,8.23633645 C33.9780684,7.91233515 33.0073851,8.88210455 31.3895797,10.1758753 C29.1358095,12.1154141 27.194443,14.0560701 23.9699895,14.7018382 C22.3521841,15.0247223 20.7343787,14.7018382 18.8041695,14.7018382 C16.5392419,15.0247223 14.9325938,15.9944917 12.9912273,16.6402598 C8.47252952,17.9351477 4.27739277,16.9642611 0.0822560225,15.3487236 C0.0822560225,17.9351477 0.72937818,21.490224 3.63027061,24.0766482 C3.63027061,24.0766482 29.1358095,17.9351477 45.2692343,10.8227606 C46.5634786,10.1758753 48.181284,9.5289899 48.8284062,6.94368299 C49.7990894,4.68014289 48.5048451,1.76971743 46.5634786,0.155297174 Z"></path>
                            </g>
                            <g transform="translate(133.902655, 15.623501)" fill="#FFD8D8" id="Path">
                                <path d="M0.39050475,1.08819746 C0.0669436715,1.73620006 0.0669436715,1.73620006 0.39050475,2.38196816 C0.714065829,3.02885351 0.714065829,2.70485222 0.714065829,3.02885351 C0.714065829,3.67462162 0.39050475,3.35062032 0.0669436715,3.67462162 C0.0669436715,4.32150697 0.0669436715,4.64439102 0.714065829,4.64439102 C1.35003071,4.64439102 1.99715287,4.32150697 2.32071395,3.35062032 C2.64427502,2.38196816 2.9678361,0.765313411 2.32071395,0.119545307 C1.99715287,-0.204455992 0.714065829,0.442429359 0.39050475,1.08819746 Z"></path>
                            </g>
                            <g transform="translate(139.481295, 82.658252)" fill="#2E7D32" id="Path">
                                <path d="M6.42659246,0.649119842 C7.72083678,1.617772 4.17282219,10.992582 0.94836868,12.2863527 C1.90789464,12.6092367 2.87857787,12.6092367 3.52570003,12.6092367 C5.14350543,12.2863527 8.36795894,5.82085091 8.69152002,3.23330951 C9.33864217,1.29488795 8.04439786,0.649119842 6.42659246,0.649119842 Z"></path>
                            </g>
                            <g transform="translate(112.588098, 33.499435)" fill="#FFD8D8" id="Path">
                                <path d="M28.8010911,3.90253977 C28.1539689,9.07427084 35.9082776,22.9750438 35.9082776,22.9750438 C35.9082776,22.9750438 16.5392419,18.4490808 14.5978755,18.1261968 C11.3734219,17.8033127 7.81425008,15.2168886 6.53116304,15.2168886 C6.20760196,15.2168886 3.94267441,16.186658 3.61911333,16.186658 C3.61911333,16.186658 -0.576023414,19.4199675 0.071098744,20.3886196 C0.071098744,20.7126209 1.04178198,20.3886196 1.36534306,20.0657356 C2.01246522,19.7417343 3.61911333,18.1261968 4.26623549,17.8033127 C5.23691873,17.1564274 7.1782852,17.1564274 7.1782852,17.1564274 C7.1782852,17.1564274 5.23691873,18.1261968 4.91335765,18.4490808 C3.94267441,19.0959662 2.3360263,20.7126209 1.36534306,21.6823903 C1.04178198,22.0052744 1.04178198,22.3281584 1.36534306,22.3281584 C1.68890414,22.3281584 2.01246522,22.3281584 2.65958738,22.0052744 C3.29555225,21.6823903 4.58979657,20.3886196 4.58979657,20.3886196 C4.91335765,20.0657356 6.53116304,19.0959662 6.53116304,19.0959662 C6.53116304,19.0959662 4.58979657,21.0366222 4.26623549,21.6823903 C3.94267441,22.3281584 2.65958738,24.2676972 2.98314845,24.2676972 C3.29555225,24.2676972 3.61911333,23.9448132 3.94267441,23.6219291 C4.91335765,22.9750438 5.56047981,21.6823903 5.88404089,21.358389 C6.20760196,21.0366222 7.81425008,20.3886196 8.13781116,20.0657356 C8.13781116,20.0657356 7.1782852,20.7126209 6.85472412,21.358389 C6.53116304,21.6823903 6.20760196,22.9750438 6.20760196,22.9750438 C6.20760196,22.9750438 5.88404089,24.9156998 6.53116304,24.5916985 C7.1782852,24.5916985 7.50184628,22.6521597 7.50184628,22.6521597 C7.50184628,22.6521597 7.81425008,22.3281584 8.13781116,22.0052744 C8.13781116,22.0052744 10.4027387,22.6521597 12.3441052,22.9750438 C14.2743144,22.9750438 15.2449976,22.3281584 15.2449976,22.3281584 C15.5685587,22.9750438 37.5260829,29.4405455 39.7798532,30.0874309 C42.0447808,30.4114322 43.6514289,29.1165442 43.97499,28.1467748 C44.9456732,24.2676972 39.7798532,12.3075803 36.8789608,3.90253977 C33.9669111,-3.20984734 28.8010911,2.60876907 28.8010911,3.90253977 Z"></path>
                            </g>
                            <g transform="translate(118.282465, 33.499435)" fill="#FFD8D8" id="Path">
                                <path d="M23.1067239,3.90253977 C22.4596018,8.42850273 28.2725439,19.0959662 29.8903493,22.0052744 C30.8610326,22.0052744 31.8317158,22.0052744 33.1148028,21.358389 C36.0268525,20.0657356 39.5748671,24.2676972 35.3797304,26.8541214 C32.4676807,28.4707761 28.2725439,27.1781227 10.5213137,21.358389 C8.90350831,20.7126209 6.97329911,22.0052744 6.00261588,22.0052744 C5.35549372,22.0052744 4.0612494,21.358389 3.09056617,21.6823903 C1.80747913,22.6521597 1.48391805,23.2990451 1.16035697,24.9156998 C1.16035697,24.9156998 1.16035697,25.2374666 0.836795894,25.2374666 L1.16035697,25.2374666 C1.80747913,25.2374666 2.11988293,23.2990451 2.11988293,23.2990451 C2.11988293,23.2990451 2.44344401,22.9750438 2.76700509,22.6521597 C2.76700509,22.6521597 5.03193264,23.2990451 6.97329911,23.6219291 C8.90350831,23.6219291 9.87419155,22.9750438 9.87419155,22.9750438 C10.1977526,23.6219291 32.1441196,30.0874309 34.4090471,30.733199 C36.6739747,31.0572003 38.2806228,29.7634296 38.6041839,28.7947774 C39.5748671,24.9156998 34.4090471,12.9533484 31.5081547,4.54830788 C28.2725439,-3.20984734 23.1067239,2.60876907 23.1067239,3.90253977 Z"></path>
                            </g>
                            <g transform="translate(138.365567, 31.264943)" fill="#2E7D32" id="Path">
                                <path d="M4.96498897,0.317297823 C-0.847953172,1.61106852 -1.49507533,8.72233839 8.51300356,23.5928807 C8.51300356,23.5928807 14.6495068,23.2711139 17.8739603,20.0378044 C17.8739603,20.0378044 11.4250533,-0.975355632 4.96498897,0.317297823 Z"></path>
                            </g>
                            <g transform="translate(141.712750, 31.264943)" fill="#2E7D32" id="Path">
                                <path d="M2.91204971,0.317297823 C3.22445351,0.641299121 3.22445351,0.964183173 3.54801459,1.28706723 C4.51869783,6.13703148 3.54801459,11.6327638 0.970683237,15.8347255 C2.26492755,18.0971484 3.54801459,20.6835725 5.48938106,23.2711139 C5.48938106,23.2711139 11.6258843,22.9471126 14.8503378,19.7138031 C14.5267767,20.0378044 8.71383457,1.61106852 2.91204971,0.317297823 Z"></path>
                            </g>
                            <g transform="translate(126.092560, 27.913205)" fill="#4CAF50" id="Path">
                                <path d="M7.87703868,0.113959077 L8.20059976,1.73061383 C8.20059976,1.73061383 4.32902409,7.548113 0.446291143,7.22634619 C0.446291143,7.22634619 3.68190193,9.8116531 4.32902409,12.074076 C4.32902409,12.074076 9.16012572,7.8721143 9.80724787,3.66903539 C10.130809,1.08372848 7.87703868,0.113959077 7.87703868,0.113959077 Z"></path>
                            </g>
                            <g transform="translate(113.819554, 65.899565)" fill="#4CAF50" id="Path">
                                <path d="M0.133887343,0.920610585 C0.133887343,1.89037999 0.781009501,2.53614809 1.75169274,2.53614809 L37.9012753,2.53614809 C38.8719586,2.53614809 39.5190807,1.89037999 39.5190807,0.920610585 L0.133887343,0.920610585 Z"></path>
                            </g>
                            <g transform="translate(84.810630, 32.382189)" fill="#4CAF50" id="Path">
                                <path d="M25.271236,2.75736277 C24.9476749,1.46359207 23.6534306,0.81670672 22.3591863,0.81670672 L0.0892582287,0.81670672 L0.0892582287,36.0535238 L30.7606171,36.3764078 C32.6908262,36.3764078 32.6908262,35.0837544 32.6908262,34.4379862 L25.271236,2.75736277 Z"></path>
                            </g>
                            <g transform="translate(66.958984, 32.382189)" fill="#C8E6C9" id="Path">
                                <path d="M41.5050763,1.14070802 C41.5050763,0.81670672 41.1815152,0.493822668 40.5343931,0.493822668 L1.47276077,0.493822668 C0.825638615,0.493822668 0.502077536,1.14070802 0.502077536,1.78647612 L7.93282507,32.8213315 C8.56878995,34.7597531 10.1865953,36.0535238 12.1279618,36.0535238 L48.6122628,36.0535238 C49.2482277,36.0535238 49.5717887,35.4077556 49.5717887,34.7597531 L41.5050763,1.14070802 Z"></path>
                            </g>
                        </g>
                        <g id="Group" transform="translate(97.000000, 80.000000)">
                            <g transform="translate(56.177471, 190.796609)" fill="#4AF6D1" id="Path">
                                <path d="M0.930211916,0.354101977 L0.930211916,0.846807399 L0.930211916,0.354101977 Z"></path>
                            </g>
                            <g transform="translate(14.710192, 40.085664)" fill="#D4EEFF" id="Path">
                                <polygon points="0.325013802 11.6361156 6.26492122 11.6361156 6.26492122 0.777603115 0.325013802 0.777603115"></polygon>
                            </g>
                            <g transform="translate(14.710192, 3.216551)" fill="#D4EEFF" id="Path">
                                <polygon points="0.325013802 11.7355505 6.26492122 11.7355505 6.26492122 0.877037996 0.325013802 0.877037996"></polygon>
                            </g>
                            <g transform="translate(14.710192, 22.209730)" fill="#D4EEFF" id="Path">
                                <polygon points="0.325013802 11.0037544 6.26492122 11.0037544 6.26492122 0.145241961 0.325013802 0.145241961"></polygon>
                            </g>
                            <g transform="translate(53.935996, 14.389009)" fill="#424242" fill-rule="nonzero" id="Path">
                                <path d="M32.6358687,0.316180577 L8.12534505,0.316180577 C8.61846944,4.7583501 3.17168641,9.69434229 1.44575105,13.6426891 C-0.537953879,17.591036 -1.03107827,30.9164273 20.7560538,30.9164273 C42.5319786,30.9164273 42.0388542,17.3441247 39.5620249,13.6426891 C37.0964029,10.188165 32.1427443,4.7583501 32.6358687,0.316180577 Z"></path>
                            </g>
                            <g transform="translate(53.935996, 14.389009)" fill="#424242" fill-rule="nonzero" id="Path">
                                <path d="M38.5757761,12.4092497 C39.0689005,15.6168626 38.8223383,19.8121208 35.3592602,22.0332055 C28.1753344,26.7211691 20.2629295,22.5259109 16.0489574,16.850302 C15.0627086,15.6168626 12.3393171,21.5393828 12.3393171,21.5393828 C12.3393171,21.5393828 6.89253408,9.44743095 11.8461927,0.316180577 L7.87878286,0.316180577 C8.37190725,4.7583501 2.92512422,9.69434229 1.19918886,13.6426891 C-0.784516074,17.591036 -1.27764046,30.9164273 20.5094917,30.9164273 C42.2854164,30.9164273 41.792292,17.3441247 39.3154627,13.6426891 C39.0689005,13.3957778 38.8223383,12.9030724 38.5757761,12.4092497 Z"></path>
                            </g>
                            <g transform="translate(60.660420, 108.237661)" fill="#FFD8D8" id="Path">
                                <path d="M10.5573449,47.3768105 C10.3107827,49.8448066 9.8176583,51.5720687 9.5710961,53.5462421 C9.32453391,55.5204155 9.8176583,57.7415003 9.8176583,60.2094964 C10.0642205,62.9244038 8.83140952,65.1443713 8.33828513,67.6123674 C5.86145581,79.9512307 8.58484732,87.601013 5.86145581,97.2260861 C4.86399966,100.433699 4.12431308,101.420227 3.63118869,102.654784 C2.8915021,104.382046 3.63118869,106.603131 2.8915021,110.304566 C2.14060814,114.993647 -0.325013802,119.682728 0.661234977,122.149607 C1.40092156,124.617603 7.09426678,127.084482 9.32453391,127.084482 C11.8013632,127.084482 10.5573449,124.12378 10.5573449,122.396518 C10.3107827,119.434699 11.3082388,103.148606 12.2944876,99.6929649 C15.0178791,89.3282751 21.2043487,74.0287104 22.4483671,64.1578432 C23.6811781,54.7807988 22.9414915,53.0524194 24.9251964,42.1950242 C25.1717586,40.9604675 29.6210855,11.5936602 30.1142099,-0.00446898342 L11.0616766,9.62060406 C11.3082388,20.971822 11.554801,35.5317699 10.5573449,47.3768105 Z"></path>
                            </g>
                            <g transform="translate(64.022631, 108.237661)" fill="#FFD8D8" id="Path">
                                <path d="M16.1162016,38.4924715 C18.593031,48.3633386 16.3627638,58.235323 13.1462479,67.8592788 C9.67196246,78.716674 8.19258929,91.7962712 5.96232216,98.2126142 C2.99236845,106.356219 5.46919777,107.83657 1.25522572,115.239441 C-2.70097677,122.396518 4.72951119,127.084482 5.71575997,127.084482 C8.19258929,127.084482 6.94857094,124.12378 6.94857094,122.396518 C6.70200875,119.434699 7.6994649,103.148606 8.68571368,99.6929649 C11.4091052,89.3282751 17.5955748,74.0287104 18.8395932,64.1578432 C20.0724041,54.7807988 19.3327175,53.0524194 21.3164225,42.1950242 C21.5629847,40.9604675 26.0123115,11.5936602 26.5054359,-0.00446898342 L13.3928101,6.6587853 C15.3653077,17.2703864 13.3928101,28.1288989 16.1162016,38.4924715 Z"></path>
                            </g>
                            <g transform="translate(60.660420, 222.196738)" fill="#2E7D32" id="Path">
                                <path d="M10.3107827,5.72365052 C9.8176583,7.69782394 6.10801801,8.68435203 4.12431308,6.21635594 C2.8915021,4.48909385 2.38717034,2.26800909 2.14060814,0.540746994 L2.14060814,0.29383566 C1.15435937,3.74835984 0.168110587,6.71017861 0.661234977,8.68435203 C1.40092156,11.1523481 7.09426678,13.6203442 9.32453391,13.6203442 C11.8013632,13.6203442 10.5573449,10.6585255 10.5573449,8.93126337 C10.3107827,8.19052937 10.3107827,6.95708994 10.3107827,5.72365052 Z"></path>
                            </g>
                            <g transform="translate(60.660420, 222.196738)" fill="#2E7D32" id="Path">
                                <path d="M4.86399966,7.45091261 L4.86399966,6.95708994 C4.61743746,6.71017861 4.37087527,6.71017861 4.37087527,6.46326727 C3.1380643,4.73600518 2.64493991,2.51492042 2.38717034,0.787658328 L2.38717034,0.540746994 C1.40092156,3.99527118 0.414672782,6.95708994 0.907797171,8.93126337 C1.64748376,11.3981422 7.34082898,13.8661383 9.5710961,13.8661383 C10.8039071,13.8661383 11.0616766,13.3734329 11.0616766,12.3857876 C9.8176583,12.1388762 5.86145581,11.1523481 4.86399966,7.45091261 Z"></path>
                            </g>
                            <g transform="translate(52.815259, 27.795960)" fill="#FFD8D8" id="Path">
                                <path d="M36.4799974,16.2760376 C34.4962925,15.782215 30.54009,14.5487755 28.0632607,13.8091588 C23.8492887,12.0807794 24.6001826,8.62625525 25.5864314,3.44335173 L17.9093812,0.729561544 C17.1696946,6.15825915 18.4025056,12.5746021 12.7091604,10.84734 C6.0295664,8.87316658 2.5664883,10.3535173 0.582783369,19.2367391 L32.0194632,34.0435985 C32.0194632,40.2130301 34.4962925,45.888639 35.9868731,51.0715425 L42.6664671,48.3566351 C41.6802183,41.1995582 40.1896377,17.263683 36.4799974,16.2760376 Z"></path>
                            </g>
                            <g transform="translate(42.728624, 42.320156)" fill="#FFD8D8" id="Path">
                                <path d="M0.022414745,25.9368625 L5.22263558,30.8706202 C8.68571368,26.429568 18.3464688,4.46674893 18.3464688,4.46674893 L9.43660763,0.764196165 C4.97607338,8.41509578 1.75955748,21.9873984 0.022414745,25.9368625 Z"></path>
                            </g>
                            <g transform="translate(44.970098, 44.554647)" fill="#F0BF97" id="Path">
                                <path d="M11.8910222,0.998817795 C10.9047734,4.2053134 4.96486601,2.23225722 3.72084767,6.67330949 C3.22772328,8.40057159 4.96486601,11.6093017 5.7045526,13.0896524 C5.95111479,13.8303864 6.44423918,20.2467294 4.22517943,24.4408703 C3.72084767,25.4296329 0.997456151,25.675427 0.257769567,26.1681324 L3.22772328,28.8841571 C6.70200875,24.4408703 16.3515565,2.47805131 16.3515565,2.47805131 L11.8910222,0.750789215 L11.8910222,0.998817795 Z"></path>
                            </g>
                            <g transform="translate(56.177471, 27.795960)" fill="#FFD8D8" id="Path">
                                <path d="M9.34694865,10.84734 C5.63730836,9.85969467 2.91391685,9.85969467 0.930211916,11.3411627 C2.42079246,10.84734 4.40449739,10.6004287 5.88387056,10.84734 C8.11413768,11.0931341 10.0978426,13.3142189 11.823778,13.5611302 C15.5446256,14.0549529 19.7473903,9.11896067 21.7310953,5.91134782 C21.9776574,4.92481973 21.9776574,4.18408573 22.2242196,2.9506463 L14.5471695,0.235738875 C13.5609207,6.15825915 15.0402939,12.3276908 9.34694865,10.84734 Z"></path>
                            </g>
                            <g transform="translate(84.195902, 62.430581)" fill="#FFD8D8" id="Path">
                                <path d="M3.85533614,0.149710945 C3.60877394,0.396622279 1.63627638,2.61770704 0.638820232,2.86461837 C0.885382426,7.55369923 3.36221175,12.2416628 4.60623009,16.1900097 L7.08305941,15.696187 C6.08560326,12.2416628 4.3596679,7.79949332 4.1131057,3.85114646 C4.1131057,2.61770704 3.85533614,1.38315037 3.85533614,0.149710945 Z"></path>
                            </g>
                            <g transform="translate(65.022631, 7.568288)" fill="#FFD8D8" id="Path">
                                <path d="M11.395354,0.227853195 C8.67196246,-0.265969473 6.44169533,0.227853195 4.71575997,1.21438129 C1.25268187,3.18967196 0.00866352381,7.38493014 0.00866352381,11.8259824 L0.00866352381,13.5532445 C0.00866352381,14.5397726 0.255225719,15.5285352 0.255225719,16.2681519 C0.501787913,18.2423254 0.75955748,19.7237934 1.25268187,20.9572328 C1.99236845,22.4375836 6.19513314,28.1131925 9.66941861,28.1131925 C12.8859345,28.1131925 17.0886992,22.6844949 17.8395932,21.4510555 C18.5792797,19.9695875 19.0724041,18.4892367 19.3189663,16.7619746 C19.5655285,15.5285352 19.5655285,14.2939785 19.5655285,12.8125105 L19.5655285,11.8259824 C19.5655285,6.39728481 17.8395932,1.21438129 11.395354,0.227853195 Z"></path>
                            </g>
                            <g transform="translate(56.177471, 100.416940)" fill="#FFD8D8" id="Path">
                                <path d="M27.1778783,114.916557 C26.6847539,113.683118 25.6872977,113.930029 24.701049,110.721299 C21.9776574,101.344254 24.701049,92.2141212 22.2242196,79.8752579 C21.7310953,77.4072618 20.4870769,75.1861771 20.7448465,72.4723869 C20.7448465,69.7574795 21.2379709,67.783306 20.9914087,65.5622213 C20.7448465,63.5880479 20.2405147,61.6138744 19.9939525,59.3927897 C19.5008281,51.7430073 19.2542659,48.7811885 19.5008281,37.676882 C19.7473903,20.8958492 20.9914087,12.9991555 15.0402939,0.660292301 L2.42079246,0.660292301 L0.930211916,12.0115102 C1.43454368,24.8441961 3.6648108,38.1707046 6.37699494,52.9764467 C8.60726207,63.8338419 7.86757549,68.2771287 9.10038646,77.4072618 C10.3444048,87.278129 20.4870769,114.916557 20.7448465,118.61911 C20.7448465,119.605638 20.9914087,132.685235 21.2379709,134.412497 C21.4845331,136.139759 21.2379709,140.581929 23.7035928,140.581929 C25.9338599,140.581929 29.9012698,135.892848 30.3943942,134.412497 C31.1340808,131.944501 28.9038136,127.009626 28.1641271,122.567457 C27.1778783,118.866021 27.6710027,116.891848 27.1778783,114.916557 Z"></path>
                            </g>
                            <g transform="translate(76.350741, 226.665722)" fill="#2E7D32" id="Path">
                                <path d="M2.79063575,8.16371547 C1.80438697,8.16371547 1.31126258,7.17718737 0.818138192,6.68336471 L0.818138192,8.16371547 C1.06470039,9.89097756 0.818138192,14.3331471 3.28376014,14.3331471 C5.51402726,14.3331471 9.48143712,9.64406622 9.97456151,8.16371547 C10.4676859,6.18954204 9.48143712,3.22884052 8.48398097,0.0201104254 C8.23741878,0.513933093 7.25117,8.16371547 2.79063575,8.16371547 Z"></path>
                            </g>
                            <g transform="translate(76.350741, 233.251951)" fill="#2E7D32" id="Path">
                                <path d="M4.28121629,2.81092561 L4.28121629,1.33057485 C3.7880919,1.57748619 3.28376014,1.57748619 2.79063575,1.57748619 C1.80438697,1.57748619 1.31126258,0.590958098 0.818138192,0.09713543 L0.818138192,1.57748619 C1.06470039,3.30474828 0.818138192,7.7469178 3.28376014,7.7469178 C4.77434068,7.7469178 6.75804561,5.77274438 8.23741878,4.04548228 C7.74429439,4.29239362 7.49773219,4.29239362 7.0046078,4.53818771 C6.00715165,4.78509904 4.52777848,4.29239362 4.28121629,2.81092561 Z"></path>
                            </g>
                            <g transform="translate(50.573784, 85.775498)" fill="#4CAF50" id="Path">
                                <path d="M2.08457128,1.97634296 C2.08457128,2.46904838 0.840552937,11.5991815 0.840552937,12.0941214 C-1.13194462,28.6282428 5.30108719,51.57759 9.76162144,73.7873203 C21.1483119,77.4887558 37.2308914,73.0477036 37.2308914,73.0477036 C37.2308914,73.0477036 44.4148172,38.9918154 44.4148172,22.2107826 C44.4148172,10.6126534 37.7352232,3.70360505 37.2308914,0.00105228642 C28.8141547,4.93704448 5.79421158,2.96287105 2.08457128,1.97634296 Z"></path>
                            </g>
                            <g transform="translate(50.573784, 87.009990)" fill="#4CAF50" id="Path">
                                <path d="M18.9180448,60.9546994 C17.6740264,56.5125299 15.4549667,48.6158362 15.948091,43.9267553 C16.9343398,34.3027995 4.05706884,28.8729846 8.51760309,24.6777265 C10.501308,22.7046703 16.6877776,19.9897628 18.1783582,16.78215 C19.4111691,14.3141539 14.4575105,2.46911334 14.4575105,2.46911334 C14.4575105,2.46911334 2.08457128,0.987645336 1.83800909,0.741851248 C1.83800909,0.741851248 0.593990742,10.1188957 0.593990742,10.6116011 C-1.37850682,27.1457225 5.05452499,50.0961869 9.51505924,72.3059173 C18.1783582,75.267736 29.3072791,73.2935626 34.2609377,72.3059173 C30.3047352,67.124131 20.8905423,67.6179537 18.9180448,60.9546994 Z"></path>
                            </g>
                            <g transform="translate(48.332310, 36.733926)" fill="#4CAF50" id="Path">
                                <path d="M35.7627256,5.61080869 L26.1131779,8.5715102 C26.1131779,8.5715102 21.1595193,4.62316335 17.9430034,1.4155505 C17.9430034,1.4155505 9.52626661,-3.51932444 1.10952988,7.33807078 C0.112073725,8.5715102 5.80541895,10.7937122 5.06573236,16.9620266 C3.83292139,27.5736277 1.10952988,47.5622733 3.83292139,51.0179147 C6.5563129,54.2255276 38.7326793,55.2131729 39.7189281,49.7833581 C40.2232599,46.574628 37.4998683,44.8473659 36.5024122,41.3928417 C35.7627256,38.9248456 36.0092878,35.9641441 37.006744,31.2750632 C38.9792415,29.5478011 42.9466514,27.3267164 40.9629464,21.6511074 C39.4723659,17.7027606 47.1494161,17.7027606 46.9028539,14.7420591 C45.4234807,6.10351411 35.7627256,5.61080869 35.7627256,5.61080869 Z"></path>
                            </g>
                            <g transform="translate(50.573784, 46.789139)" fill="#4CAF50" id="Shape">
                                <path d="M9.01072748,34.2994478 C6.53389816,32.5721857 8.2710409,30.596895 10.7478702,32.5721857 C13.4712617,34.5452418 21.3948741,38.0008833 21.3948741,34.5452418 C21.3948741,26.6496654 28.8141547,21.7136732 30.7978596,19.4925884 C32.7815645,17.518415 25.5976388,10.3624553 28.8141547,8.38828188 C29.0607169,8.14137055 29.5650486,7.15484246 29.5650486,6.90681388 C29.3072791,3.69920103 32.5350023,3.69920103 30.5512974,1.7250276 C28.5675925,-0.249145826 27.3347815,0.73849951 24.61139,1.47811627 C19.164607,2.95958427 3.56394445,1.23232218 2.82425787,7.40063655 C1.59144689,18.0122377 -1.13194462,38.0008833 1.59144689,41.4554075 C3.81050665,43.9234036 23.8717034,45.1579602 33.0281267,42.9357582 C31.290984,42.1961415 28.0744681,41.4554075 26.0907631,41.4554075 C18.1783582,41.2084961 13.7178239,37.7539719 9.01072748,34.2994478 Z M7.53135431,16.0380643 C8.0244787,14.0638908 7.03822992,11.8428061 6.04077377,10.3624553 C5.30108719,9.12789864 9.01072748,9.37480997 11.2409946,8.14137055 C12.4738056,7.40063655 15.2084045,4.43881778 17.180902,6.90681388 C19.4111691,9.62172131 16.1946532,12.5835401 20.8905423,15.0504189 C24.8579522,17.2715037 22.3811229,20.7271451 19.164607,21.2198505 C15.7015289,21.7136732 13.2246995,17.518415 11.734119,18.5060603 C9.01072748,19.9864111 6.79166773,18.999883 7.53135431,16.0380643 Z"></path>
                            </g>
                            <g transform="translate(71.867792, 26.678714)" fill="#D7CCC8" id="Path">
                                <path d="M2.82425787,0.613367975 C1.82680172,0.613367975 1.08711513,1.1060734 0.840552937,1.1060734 C0.593990742,1.59989606 1.33367733,1.59989606 1.58023952,1.59989606 L3.56394445,1.59989606 C3.81050665,1.59989606 4.55019323,1.35298473 4.30363103,1.1060734 C4.30363103,0.859162063 3.81050665,0.613367975 2.82425787,0.613367975 Z"></path>
                            </g>
                            <g transform="translate(65.022631, 5.451043)" fill="#D7CCC8" fill-rule="nonzero" id="Path">
                                <path d="M11.395354,1.11165963 C8.67196246,0.617836958 6.44169533,1.11165963 4.71575997,2.09818772 C1.25268187,4.07236114 0.00866352381,8.26761933 0.00866352381,12.7097889 C0.501787913,10.9825268 1.74580626,8.761442 3.48294899,7.03417991 C3.48294899,7.03417991 6.6994649,9.99599867 10.6556674,11.7232608 C10.6556674,11.7232608 8.17883807,8.020708 7.68571368,6.2934459 C7.93227587,6.54035724 12.3928101,9.502176 19.3189663,17.3988697 C19.5655285,16.164313 19.5655285,14.9297564 19.5655285,13.4505229 C19.8120907,7.77379666 18.0861553,2.09818772 11.395354,1.11165963 Z"></path>
                            </g>
                            <g transform="translate(61.660420, 0.982059)" fill="#424242" fill-rule="nonzero" id="Path">
                                <path d="M13.0316304,0.891562193 C7.09172294,0.891562193 5.10801801,5.82643714 5.10801801,5.82643714 C5.10801801,5.82643714 0.89404595,6.56717114 0.154359366,10.515518 C-0.338765023,13.7231308 0.89404595,17.1787723 3.12431308,19.6467684 C3.12431308,19.6467684 3.61743746,13.9711594 7.33828513,11.0093407 C7.33828513,11.0093407 10.3082388,13.9711594 14.5110035,15.6984215 C14.5110035,15.6984215 12.0341742,11.9958687 11.5410498,10.2686067 C11.5410498,10.2686067 16.4947085,13.4762195 24.4183208,22.6074699 C23.9251964,18.6602403 24.9114452,16.6849496 24.9114452,12.2427801 C24.9114452,6.81408247 20.4509109,0.891562193 13.0316304,0.891562193 Z"></path>
                            </g>
                            <g transform="translate(70.747055, 8.802780)" fill="#424242" fill-rule="nonzero" id="Path">
                                <path d="M0.717271839,0.967534911 C1.71472799,3.92823643 3.94499512,7.13696652 5.67093048,7.63078919 C5.67093048,7.63078919 3.19410116,3.92823643 2.70097677,2.20097434 C2.70097677,2.20097434 7.65463541,5.40970443 15.5782478,14.5398376 C15.3316856,14.5398376 9.63834034,0.967534911 0.717271839,0.967534911 Z"></path>
                            </g>
                            <g transform="translate(61.781157, 8.802780)" fill="#424242" fill-rule="nonzero" id="Path">
                                <path d="M0.773308702,0.967534911 C0.526746507,1.46024033 0.280184312,1.95518025 0.280184312,2.694797 C-0.212940077,5.90240985 1.0198709,9.35805128 3.25013802,11.8260474 C3.25013802,11.8260474 3.49670022,10.3445794 4.00103198,8.61731728 C0.526746507,7.63078919 -0.459502272,3.68244234 0.773308702,0.967534911 Z"></path>
                            </g>
                            <g transform="translate(65.022631, 18.857993)" fill="#D7CCC8" fill-rule="nonzero" id="Shape">
                                <path d="M15.3627638,6.21188696 C13.3790589,6.21188696 11.6419162,4.7315362 11.6419162,3.00427411 C11.6419162,1.5228061 12.6393723,0.78430659 15.3627638,0.78430659 L16.842137,0.78430659 C16.5955748,0.536278011 16.5955748,0.536278011 16.3490126,0.289366677 L15.3627638,0.289366677 C13.8721833,0.289366677 12.3928101,0.536278011 11.6419162,1.77083468 C11.395354,2.01774601 10.9022296,2.01774601 10.9022296,2.01774601 L8.91852465,2.01774601 C8.67196246,2.01774601 8.17883807,2.01774601 7.93227587,1.77083468 C7.19258929,0.536278011 5.45544655,0.536278011 3.97607338,0.536278011 C3.22517943,0.536278011 2.23893065,0.536278011 1.49924406,1.03010068 C1.00611968,1.03010068 0.501787913,1.27701201 0.00866352381,1.27701201 L0.00866352381,2.51156868 C0.00866352381,3.49809677 0.255225719,4.48462486 0.255225719,5.22535887 C1.00611968,6.45879829 2.48549284,7.19953229 3.97607338,7.19953229 C6.19513314,7.19953229 7.93227587,5.4722702 7.93227587,3.49809677 C8.17883807,3.00427411 8.91852465,2.75736277 9.42285641,2.75736277 C9.9159808,2.75736277 10.6556674,2.75736277 10.9022296,3.49809677 C11.1487918,5.4722702 12.8859345,6.95262096 15.1162016,6.95262096 C17.0886992,6.95262096 18.5792797,5.71918153 19.0724041,3.99191944 C18.8258419,3.74500811 18.8258419,3.74500811 18.5792797,3.49809677 C18.5792797,4.7315362 17.0886992,5.96609287 15.3627638,6.21188696 Z M3.97607338,6.45879829 C1.99236845,6.45879829 0.255225719,4.97844753 0.255225719,3.25006819 C0.255225719,1.77083468 1.25268187,1.03010068 3.97607338,1.03010068 C6.44169533,1.03010068 7.68571368,1.5228061 7.68571368,3.00427411 C7.68571368,4.97844753 5.94857094,6.45879829 3.97607338,6.45879829 Z"></path>
                            </g>
                            <g transform="translate(76.350741, 17.740747)" fill="#FFECB3" id="Shape">
                                <path d="M4.0346541,0.912789864 C2.29751136,0.912789864 -0.17931796,1.40661253 0.0672442349,3.62881454 C0.0672442349,5.60187072 2.05094917,7.32913281 4.28121629,7.32913281 C6.51148341,7.32913281 8.48398097,5.60187072 8.23741878,3.38078596 C8.23741878,0.912789864 5.76058946,0.912789864 4.0346541,0.912789864 Z M4.28121629,6.83642739 C2.29751136,6.83642739 0.571575997,5.35607663 0.571575997,3.62881454 C0.571575997,2.14734653 1.55782478,1.40661253 4.28121629,1.40661253 C6.75804561,1.40661253 7.99085658,1.90155245 7.99085658,3.38078596 C7.99085658,5.35607663 6.26492122,6.83642739 4.28121629,6.83642739 Z"></path>
                            </g>
                            <g transform="translate(81.954427, 18.857993)" fill="#FFECB3" id="Path">
                                <path d="M2.63373253,0.0435725884 L0.661234977,0.0435725884 C0.661234977,0.0435725884 1.40092156,0.289366677 1.89404595,1.03010068 C2.38717034,1.5228061 2.38717034,3.49809677 2.38717034,3.49809677 C2.63373253,3.00427411 2.63373253,2.01774601 2.63373253,1.77083468 C2.63373253,1.5228061 2.63373253,1.27701201 2.88029473,1.27701201 C3.12685692,1.27701201 3.12685692,1.27701201 3.12685692,1.03010068 L3.12685692,0.289366677 C3.12685692,0.0435725884 3.12685692,0.0435725884 2.63373253,0.0435725884 Z"></path>
                            </g>
                            <g transform="translate(64.022631, 18.857993)" fill="#FFECB3" id="Shape">
                                <path d="M4.97607338,0.289366677 C3.23893065,0.289366677 0.762101329,0.78430659 1.00866352,3.00427411 C1.00866352,4.97844753 2.99236845,6.70682687 5.22263558,6.70682687 C7.44169533,6.70682687 9.42540026,4.97844753 9.17883807,2.75736277 C9.17883807,0.289366677 6.94857094,0.0435725884 4.97607338,0.289366677 Z M5.22263558,6.21188696 C3.23893065,6.21188696 1.50178791,4.7315362 1.50178791,3.00427411 C1.50178791,1.5228061 2.49924406,0.78430659 5.22263558,0.78430659 C7.6994649,0.78430659 8.93227587,1.27701201 8.93227587,2.75736277 C8.93227587,4.48462486 7.44169533,5.96609287 5.22263558,6.21188696 Z"></path>
                            </g>
                            <g transform="translate(64.022631, 18.857993)" fill="#FFECB3" id="Path">
                                <path d="M0.26897694,1.03010068 L0.26897694,1.77083468 C0.26897694,1.77083468 0.26897694,2.01774601 0.515539134,2.01774601 C0.762101329,2.01774601 0.762101329,2.01774601 0.762101329,2.51156868 C0.762101329,2.75736277 0.762101329,3.74500811 1.00866352,4.23883078 C1.00866352,4.23883078 0.762101329,2.51156868 1.25522572,1.77083468 C1.75955748,1.03010068 2.49924406,0.78430659 2.49924406,0.78430659 C2.00611968,1.03010068 0.762101329,1.03010068 0.515539134,1.03010068 C0.515539134,0.78430659 0.26897694,0.78430659 0.26897694,1.03010068 Z"></path>
                            </g>
                            <g transform="translate(72.867792, 19.975239)" fill="#FFECB3" id="Path">
                                <path d="M3.05706884,0.405560246 L1.07336391,0.405560246 C0.826801715,0.405560246 0.333677326,0.405560246 0.0871151312,0.159766157 L0.580239521,1.88702825 C0.826801715,1.39432283 1.57769567,1.14629425 2.07082006,1.14629425 C2.56394445,1.14629425 3.30363103,1.14629425 3.55019323,1.88702825 L3.79675542,0.159766157 C3.55019323,0.405560246 3.05706884,0.405560246 3.05706884,0.405560246 Z"></path>
                            </g>
                            <g transform="translate(52.815259, 74.720286)" fill="#FFD8D8" id="Path">
                                <path d="M35.4937487,2.41995452 C27.5701363,3.90030528 21.6302289,7.35482947 17.4162568,7.6017408 C16.4300081,7.6017408 15.4325519,8.09556347 14.4463031,7.35482947 C12.4625982,5.87447871 10.4901006,5.87447871 8.25983352,6.12139004 C6.27612859,6.12139004 8.50639572,7.84865213 6.0295664,8.09556347 C4.55019323,8.3424748 0.582783369,8.58826889 0.336221175,9.08209156 C0.0896589799,10.3166482 1.32246995,10.0697369 2.81305049,10.0697369 C2.5664883,10.8093537 3.05961269,11.5500877 3.79929927,11.5500877 C3.79929927,12.5366157 4.55019323,13.0315557 5.28987981,13.0315557 C5.28987981,14.2649951 6.27612859,14.5119064 7.76670913,14.2649951 C9.4926445,14.0180837 11.9694738,14.0180837 16.4300081,13.2773497 C22.1233533,12.2908217 23.3561643,13.0315557 27.5701363,12.5366157 C31.772901,12.2908217 37.9593706,11.796999 41.4336561,9.32900289 C42.6664671,8.3424748 42.6664671,4.64103928 41.9267805,0.691575184 C39.6965133,1.1865151 38.2171402,2.17304319 35.4937487,2.41995452 Z"></path>
                            </g>
                            <g transform="translate(55.056733, 79.072023)" fill="#E8D7B9" id="Path">
                                <path d="M0.818138192,0.0423903831 C1.06470039,1.27582981 2.05094917,1.76965248 3.54152971,1.76965248 C4.0346541,2.2623579 4.52777848,3.0030919 4.78554805,3.25000323 L8.98831273,2.01656381 L4.52777848,0.535095805 C3.7880919,0.289301717 2.80184312,0.535095805 0.818138192,0.0423903831 Z"></path>
                            </g>
                            <g transform="translate(3.502820, 68.016810)" fill="#FFD8D8" id="Path">
                                <path d="M38.2619697,0.732913281 C31.3358135,5.66778822 16.4748376,16.2793894 14.2445704,15.5397726 C11.7789485,14.5521273 9.79524355,14.7990386 7.56497643,15.291744 C5.5812715,15.7855667 8.30466301,17.0201234 5.82783369,18.0077687 C4.34846052,18.5004741 0.392258037,19.9808249 0.392258037,20.4746475 C0.392258037,21.708087 1.62506901,21.2153815 3.11564955,20.7215589 C3.11564955,21.4622929 3.60877394,22.2019096 4.59502272,21.9549983 C4.84158491,22.9426436 5.82783369,23.189555 6.57872765,22.9426436 C7.07185204,24.1760831 8.05810082,24.1760831 9.54868136,23.4353491 C11.0280545,22.6957323 13.751446,21.9549983 18.2119803,19.9808249 C23.9053255,17.2670347 39.7525502,14.0583046 45.4458954,4.92817147 C46.4321442,3.20090938 40.4922368,-0.994348811 38.2619697,0.732913281 Z"></path>
                            </g>
                            <g transform="translate(3.502820, 69.134056)" fill="#FFD8D8" id="Path">
                                <path d="M43.4621905,0.850224096 C42.4647344,1.34292952 39.9991124,3.56401428 39.4947806,3.81092561 C36.0317025,6.27780446 33.0617488,9.23962322 29.1055463,10.9668853 C25.1381365,12.6952647 20.1956852,16.3955829 16.2282754,18.122845 C14.9954644,18.6177849 12.7651973,17.8770509 10.7814923,17.1363169 C9.54868136,16.6424943 8.30466301,16.3955829 6.82528984,16.6424943 C6.33216546,16.6424943 5.82783369,16.6424943 5.5812715,16.8905228 C4.10189833,17.3832283 0.13448847,18.863579 0.13448847,19.3574017 C0.13448847,20.5908411 1.37850682,20.0981357 2.86908736,19.604313 C2.86908736,20.345047 3.36221175,21.0846638 4.34846052,20.8377524 C4.59502272,21.8253978 5.5812715,22.0723091 6.33216546,21.8253978 C6.82528984,23.0588372 7.81153862,23.0588372 9.30211916,22.3181032 C10.2883679,21.8253978 16.2282754,19.604313 17.9654181,18.863579 C23.6587633,16.1497888 39.4947806,12.9410587 45.1881259,3.81092561 C46.185582,2.57748619 44.6950015,1.34292952 43.4621905,0.850224096 Z"></path>
                            </g>
                            <g transform="translate(5.744294, 81.423761)" fill="#FFD8D8" id="Path">
                                <path d="M0.123281097,1.63899967 C0.627612859,2.62552776 1.86042383,3.11935043 3.5863592,2.62552776 C4.83037754,3.11935043 5.81662632,3.6131731 6.81408247,3.36626176 L9.29091179,1.39208834 L4.33725315,0.898265668 C3.339797,1.145177 2.35354822,1.39208834 0.123281097,1.63899967 Z"></path>
                            </g>
                            <g transform="translate(60.539682, 81.423761)" fill="#0D47A1" id="Path">
                                <path d="M0.0422856413,0.405560246 C0.0422856413,1.145177 0.781972225,1.88479376 1.52165881,1.88479376 L37.1723107,1.88479376 C37.9119973,1.88479376 38.6516839,1.145177 38.6516839,0.405560246 L0.0422856413,0.405560246 Z"></path>
                            </g>
                            <g transform="translate(31.521251, 47.906385)" fill="#0D47A1" id="Path">
                                <path d="M25.093307,2.58195517 C24.8467448,1.34851575 23.6139338,0.607781745 22.3699155,0.607781745 L0.347428547,0.607781745 L0.347428547,35.1563753 L30.54009,35.650198 C32.2772328,35.650198 32.523795,34.16873 32.2772328,33.6749073 L25.093307,2.58195517 Z"></path>
                            </g>
                            <g transform="translate(14.710192, 47.906385)" fill="#BBDEFB" id="Path">
                                <path d="M40.4249926,1.10160441 C40.4249926,0.607781745 39.9206608,0.360870411 39.6740986,0.360870411 L1.06470039,0.360870411 C0.571575997,0.360870411 0.0672442349,0.853575834 0.325013802,1.59430984 L7.49773219,32.1945566 C7.99085658,34.16873 9.72799932,35.4021694 11.7117042,35.4021694 L47.8442731,35.4021694 C48.3373975,35.4021694 48.8417293,34.909464 48.5951671,34.16873 L40.4249926,1.10160441 Z"></path>
                            </g>
                            <g transform="translate(0.019871, 150.693004)" fill="#E0E0E0" fill-rule="nonzero" id="Path">
                                <path d="M24.0260628,5.48120817 C17.2680172,-0.925079568 6.54256168,-0.643533613 0.0534930138,6.11915555 L0.0871151312,6.08116919 L12.2807364,17.7128158 L24.0260628,5.48120817 Z"></path>
                            </g>
                            <g transform="translate(9.106506, 133.934316)" fill="#FF6F00" fill-rule="nonzero" id="Path">
                                <path d="M2.74580626,10.5333939 C0.414672782,8.31789539 0.336221175,4.64439102 2.5664883,2.32834036 C4.78554805,0.0134069503 8.4727736,-0.0681519972 10.7926997,2.14846378 C13.1126258,4.36396231 13.1910774,8.03746668 10.9720177,10.3524001 C8.75295791,12.6684508 5.06573236,12.7488925 2.74580626,10.5333939 Z"></path>
                            </g>
                            <g transform="translate(0.019871, 150.693004)" fill="#4CAF50" fill-rule="nonzero" id="Path">
                                <path d="M24.0260628,5.48120817 C17.2680172,-0.925079568 6.54256168,-0.643533613 0.0534930138,6.11915555 L0.0871151312,6.08116919 L12.2807364,17.7128158 L24.0260628,5.48120817 Z"></path>
                            </g>
                        </g>
                        <g id="Group" transform="translate(0.000000, 161.000000)">
                            <g transform="translate(0.016694, 0.982059)" fill="#D4EEFF" id="Path">
                                <polygon points="0.748554723 5.95045143 6.66995776 5.95045143 6.66995776 0.768665149 0.748554723 0.768665149"></polygon>
                            </g>
                            <g transform="translate(100.568821, 4.333797)" fill="#FFD8D8" id="Path">
                                <path d="M4.58070801,0.871451767 C2.86014939,1.36415719 2.60318284,1.36415719 0.882624226,2.10489119 C0.134069503,2.35180253 -0.111724586,2.84562519 0.134069503,3.09253653 C0.391036049,3.33944786 0.636830138,3.5863592 1.3742124,3.33944786 C2.86014939,2.84562519 3.84332574,2.59871386 5.07229618,1.8590971 C6.31243908,1.36415719 6.31243908,0.624540433 4.58070801,0.871451767 Z"></path>
                            </g>
                            <g transform="translate(102.803312, 4.333797)" fill="#FFD8D8" id="Path">
                                <path d="M5.79850599,1.1183631 C4.07794737,1.61106852 2.83780447,2.35180253 1.11724586,2.84562519 C0.368691132,3.09253653 0.625657679,3.33944786 0.625657679,3.83215328 C0.871451767,4.07906462 1.11724586,4.32597595 1.85462812,4.07906462 C3.32939265,3.5863592 5.06112372,2.59871386 6.29009417,1.8590971 C7.53023707,1.36415719 7.53023707,0.624540433 5.79850599,1.1183631 Z"></path>
                            </g>
                            <g transform="translate(105.037804, 6.451043)" fill="#FFD8D8" id="Path">
                                <path d="M4.55836309,0.23455667 C3.0724261,0.728379338 1.84345566,1.46911334 0.603312762,1.96181876 C0.111724586,2.2087301 0.111724586,2.70255276 0.357518674,2.9494641 C0.603312762,3.19637543 0.84910685,3.44216952 1.59766157,3.19637543 C2.82663201,2.70255276 4.312569,1.71490743 5.54153944,0.975290672 C6.03312762,0.481468004 6.03312762,-0.258148752 4.55836309,0.23455667 Z"></path>
                            </g>
                            <g transform="translate(107.155050, 7.685534)" fill="#FFD8D8" id="Path">
                                <path d="M3.91588176,0.23462163 C2.44111723,0.727327052 1.69256251,1.22114972 0.463592071,1.71497239 C-0.0279961058,1.96188372 -0.0279961058,2.20767781 0.217797982,2.70261772 C0.463592071,2.94841181 0.709386159,3.19532315 1.44676842,2.94841181 C2.68691132,2.45458914 3.67008768,1.96188372 4.65326403,1.22114972 C5.15602466,0.480415718 5.15602466,-0.259201038 3.91588176,0.23462163 Z"></path>
                            </g>
                            <g transform="translate(39.120299, 18.857993)" fill="#4CAF50" fill-rule="nonzero" id="Path">
                                <path d="M21.439948,0.193283533 C32.9028904,0.193283533 42.198376,9.45078269 42.198376,20.8723871 L0.69269243,20.8723871 C0.69269243,9.45078269 9.97700549,0.193283533 21.439948,0.193283533 Z"></path>
                            </g>
                            <g transform="translate(43.589282, 26.561468)" fill="#C8E6C9" fill-rule="nonzero" id="Path">
                                <path d="M17.127379,0.0513283499 C26.2105878,0.0513283499 33.5620655,7.37487493 33.5620655,16.4089249 L0.69269243,16.4089249 C0.69269243,7.37487493 8.05534262,0.0513283499 17.127379,0.0513283499 Z"></path>
                            </g>
                            <g transform="translate(48.058266, 34.499435)" fill="#2E7D32" fill-rule="nonzero" id="Path">
                                <path d="M12.7366028,0.291601168 C19.4735953,0.291601168 24.925755,5.75046442 24.925755,12.4829879 C24.925755,12.5343813 24.925755,12.5868918 24.925755,12.6371679 L0.547450469,12.6371679 L0.547450469,12.4829879 C0.547450469,5.81749917 5.89905812,0.401091262 12.5354985,0.29383566 L12.7366028,0.291601168 Z"></path>
                            </g>
                            <g transform="translate(35.768561, 51.258123)" fill="#FFECB3" fill-rule="nonzero" id="Path">
                                <path d="M24.7134783,24.8900032 C11.2506658,24.8486651 0.335173757,13.9141799 0.335173757,0.4312569 L0.335173757,0.354166936 L24.7134783,0.354166936 L24.7134783,24.8900032 Z"></path>
                            </g>
                            <g transform="translate(60.347970, 51.258123)" fill="#FFA000" fill-rule="nonzero" id="Path">
                                <path d="M0.134069503,24.8900032 C13.6974342,24.8486651 24.6799609,13.9141799 24.6799609,0.4312569 C24.6799609,0.405560246 24.6799609,0.379863591 24.6799609,0.354166936 L0.134069503,0.354166936 L0.134069503,24.8900032 Z"></path>
                            </g>
                            <g transform="translate(58.113478, 98.182449)" fill="#4CAF50" fill-rule="nonzero" id="Path">
                                <path d="M0.134069503,44.734524 L0.134069503,2.61882429 C0.134069503,1.37644689 1.15076323,0.369808378 2.39090613,0.369808378 C3.63104903,0.369808378 4.6365703,1.37644689 4.6365703,2.61882429 L4.6365703,44.734524 C4.6365703,45.9769014 3.63104903,46.98354 2.39090613,46.98354 C1.15076323,46.98354 0.134069503,45.9769014 0.134069503,44.734524 Z"></path>
                            </g>
                            <g transform="translate(58.113478, 98.182449)" fill="#2E7D32" fill-rule="nonzero" id="Path">
                                <path d="M0.134069503,44.734524 L0.134069503,2.61882429 C0.134069503,1.37644689 1.15076323,0.369808378 2.39090613,0.369808378 L2.39090613,46.98354 C1.15076323,46.98354 0.134069503,45.9769014 0.134069503,44.734524 Z"></path>
                            </g>
                            <g transform="translate(59.230724, 98.182449)" id="Path" stroke="#A8A8A8" stroke-width="0.5">
                                <line x1="1.27366028" y1="46.9846572" x2="1.27366028" y2="0.369808378"></line>
                            </g>
                            <g transform="translate(43.589282, 128.348087)" fill="#FFECB3" fill-rule="nonzero" id="Path">
                                <path d="M16.3229619,16.8179019 C7.31796035,16.7899707 0.0223449171,9.47983108 0.0223449171,0.464774276 L0.0223449171,0.413380966 L16.3229619,0.413380966 L16.3229619,16.8179019 Z"></path>
                            </g>
                            <g transform="translate(59.230724, 128.348087)" fill="#FFA000" fill-rule="nonzero" id="Path">
                                <path d="M0.681519972,16.8179019 C9.74238386,16.791088 17.0826891,9.47983108 17.0826891,0.464774276 L17.0826891,0.413380966 L0.681519972,0.413380966 L0.681519972,16.8179019 Z"></path>
                            </g>
                            <g transform="translate(0.016694, 69.134056)" fill="#E0E0E0" fill-rule="nonzero" id="Path">
                                <path d="M0.0670347513,5.48120817 C6.80402726,-0.925079568 17.4960701,-0.643533613 23.9649236,6.11915555 L23.9314062,6.08116919 L11.7757713,17.7128158 L0.0670347513,5.48120817 Z"></path>
                            </g>
                            <g transform="translate(2.251185, 52.375368)" fill="#FF6F00" fill-rule="nonzero" id="Path">
                                <path d="M9.98817795,10.5333939 C12.3008769,8.31789539 12.3902565,4.64439102 10.1669373,2.32834036 C7.95479049,0.0134069503 4.27905163,-0.0681519972 1.96635271,2.14846378 C-0.346346215,4.36396231 -0.435725884,8.03746668 1.78759337,10.3524001 C3.99974016,12.6684508 7.67547903,12.7488925 9.98817795,10.5333939 Z"></path>
                            </g>
                            <g transform="translate(0.016694, 69.134056)" fill="#4CAF50" fill-rule="nonzero" id="Path">
                                <path d="M0.0670347513,5.48120817 C6.80402726,-0.925079568 17.4960701,-0.643533613 23.9649236,6.11915555 L23.9314062,6.08116919 L11.7757713,17.7128158 L0.0670347513,5.48120817 Z"></path>
                            </g>
                            <g transform="translate(19.009873, 51.258123)" fill="#FFA000" fill-rule="nonzero" id="Path">
                                <path d="M5.38512502,0.0938486519 C-1.30717765,6.54259173 -1.49710945,17.2324001 4.97174406,23.9950892 L4.93822668,23.9571029 L17.0938616,12.3254563 L5.38512502,0.0938486519 Z"></path>
                            </g>
                            <g transform="translate(11.189152, 74.720286)" fill="#C8E6C9" fill-rule="nonzero" id="Path">
                                <path d="M24.389477,12.6494576 C17.6524845,19.0557453 6.96044168,18.7753166 0.491588176,12.0115102 C0.480415718,11.9981032 0.469243259,11.9858135 0.458070801,11.9724066 L12.6137057,0.340759986 L24.389477,12.6494576 Z"></path>
                            </g>
                            <g transform="translate(23.478857, 63.430581)" fill="#FFECB3" fill-rule="nonzero" id="Path">
                                <path d="M12.0997726,23.939162 C18.7920753,17.4904189 18.9820071,6.80172781 12.5131536,0.0379213996 C12.4908087,0.0245144494 12.4796362,0.012224745 12.4684637,-0.00118220529 L0.324001298,11.6304644 L12.0997726,23.939162 Z"></path>
                            </g>
                            <g transform="translate(38.003053, 89.127236)" fill="#4CAF50" fill-rule="nonzero" id="Path">
                                <path d="M1.46359207,1.38643715 C1.76524845,1.04344267 1.73173108,0.522806101 1.39655732,0.222266966 C1.0502111,-0.0793894152 0.536278011,-0.0458720395 0.23462163,0.296005192 C-0.0670347513,0.637882424 -0.0335173757,1.15963624 0.301656381,1.46017537 C0.648002596,1.76183175 1.17310815,1.72831438 1.46359207,1.38643715 Z"></path>
                            </g>
                            <g transform="translate(35.768561, 87.009990)" fill="#4CAF50" fill-rule="nonzero" id="Path">
                                <path d="M1.8322832,1.85351087 C2.13393958,1.51163364 2.10042221,0.990997074 1.75407599,0.690457939 C1.40772978,0.388801558 0.893796684,0.422318933 0.592140303,0.764196165 C0.290483922,1.1060734 0.324001298,1.62782721 0.659175055,1.92836635 C1.00552127,2.22890548 1.53062682,2.19538811 1.8322832,1.85351087 Z"></path>
                            </g>
                            <g transform="translate(39.120299, 90.361728)" fill="#4CAF50" fill-rule="nonzero" id="Path">
                                <path d="M2.25683663,1.83004871 C2.55849301,1.48817148 2.52497563,0.967534911 2.17862942,0.66587853 C1.84345566,0.365339395 1.31835011,0.39885677 1.01669373,0.740734002 C0.715037347,1.08261123 0.748554723,1.6032478 1.09490094,1.90490418 C1.44124715,2.20544332 1.95518025,2.17192594 2.25683663,1.83004871 Z"></path>
                            </g>
                            <g transform="translate(41.354790, 92.478973)" fill="#4CAF50" fill-rule="nonzero" id="Path">
                                <path d="M13.205846,10.2115622 L1.92166287,0.287067225 C1.58648911,-0.00676843457 1.08372848,0.0256316952 0.793244557,0.35857096 C0.502760635,0.691510225 0.536278011,1.19873984 0.860279309,1.49145826 L12.1444624,11.4159532 C12.4796362,11.7097889 12.9823968,11.6773887 13.2728808,11.3444495 C13.5745371,11.0115102 13.5410198,10.5042806 13.205846,10.2115622 Z"></path>
                            </g>
                            <g transform="translate(41.354790, 92.478973)" fill="#2E7D32" fill-rule="nonzero" id="Path">
                                <path d="M13.205846,10.2115622 L1.92166287,0.287067225 C1.58648911,-0.00676843457 1.08372848,0.0256316952 0.793244557,0.35857096 L13.2728808,11.3444495 C13.5745371,11.0115102 13.5410198,10.5042806 13.205846,10.2115622 Z"></path>
                            </g>
                            <g transform="translate(41.354790, 92.596219)" id="Path" stroke="#A8A8A8" stroke-width="0.5">
                                <line x1="13.2728808" y1="11.2383761" x2="0.793244557" y2="0.252497563"></line>
                            </g>
                            <g transform="translate(84.927379, 51.258123)" fill="#FFECB3" fill-rule="nonzero" id="Path">
                                <path d="M11.8092887,0.0938486519 C18.5015914,6.54259173 18.6915232,17.2324001 12.2226697,23.9950892 L12.256187,23.9571029 L0.100552127,12.3254563 L11.8092887,0.0938486519 Z"></path>
                            </g>
                            <g transform="translate(84.927379, 74.720286)" fill="#C8E6C9" fill-rule="nonzero" id="Path">
                                <path d="M0.625657679,12.6494576 C7.36265019,19.0557453 18.0435206,18.7753166 24.5235465,12.0115102 C24.534719,11.9981032 24.5458914,11.9858135 24.5570639,11.9724066 L12.401429,0.340759986 L0.625657679,12.6494576 Z"></path>
                            </g>
                            <g transform="translate(80.341149, 63.430581)" fill="#2E7D32" fill-rule="nonzero" id="Path">
                                <path d="M5.21188696,23.939162 C-1.48041572,17.4904189 -1.67034751,6.80172781 4.79850599,0.0379213996 C4.80967845,0.0245144494 4.82085091,0.012224745 4.83202337,-0.00118220529 L16.9876583,11.6304644 L5.21188696,23.939162 Z"></path>
                            </g>
                            <g transform="translate(81.575641, 89.127236)" fill="#4CAF50" fill-rule="nonzero" id="Path">
                                <path d="M0.201104254,1.38643715 C-0.100552127,1.04344267 -0.0670347513,0.522806101 0.279311464,0.222266966 C0.61448522,-0.0793894152 1.13959077,-0.0458720395 1.44124715,0.296005192 C1.74290353,0.637882424 1.70938616,1.15963624 1.36303994,1.46017537 C1.02786619,1.76071451 0.502760635,1.72719713 0.201104254,1.38643715 Z"></path>
                            </g>
                            <g transform="translate(82.692887, 87.009990)" fill="#4CAF50" fill-rule="nonzero" id="Path">
                                <path d="M0.960831436,1.85351087 C0.659175055,1.51163364 0.69269243,0.990997074 1.02786619,0.689340693 C1.3742124,0.388801558 1.89931795,0.422318933 2.20097434,0.764196165 C2.50263072,1.1060734 2.46911334,1.62782721 2.12276713,1.92836635 C1.77642091,2.22890548 1.26248782,2.19538811 0.960831436,1.85351087 Z"></path>
                            </g>
                            <g transform="translate(79.341149, 90.361728)" fill="#4CAF50" fill-rule="nonzero" id="Path">
                                <path d="M0.525105552,1.83004871 C0.223449171,1.48817148 0.256966547,0.967534911 0.603312762,0.66587853 C0.949658977,0.365339395 1.46359207,0.397739525 1.76524845,0.740734002 C2.06690483,1.08261123 2.03338746,1.6032478 1.6982137,1.90490418 C1.35186749,2.20544332 0.826761933,2.17192594 0.525105552,1.83004871 Z"></path>
                            </g>
                            <g transform="translate(65.934199, 92.478973)" fill="#4CAF50" fill-rule="nonzero" id="Path">
                                <path d="M0.759727182,10.2115622 L12.0327379,0.28594998 C12.3679116,-0.00676843457 12.8706723,0.0256316952 13.1723286,0.35857096 C13.4628126,0.691510225 13.4292952,1.19873984 13.0941214,1.49145826 L1.80993829,11.4159532 C1.48593699,11.7086716 0.972003894,11.6762715 0.681519972,11.3444495 C0.391036049,11.0115102 0.424553425,10.5042806 0.759727182,10.2115622 Z"></path>
                            </g>
                            <g transform="translate(65.934199, 92.478973)" fill="#2E7D32" fill-rule="nonzero" id="Path">
                                <path d="M0.759727182,10.2115622 L12.0327379,0.28594998 C12.3679116,-0.00676843457 12.8706723,0.0256316952 13.1723286,0.35857096 L0.681519972,11.3444495 C0.391036049,11.0115102 0.424553425,10.5042806 0.759727182,10.2115622 Z"></path>
                            </g>
                            <g transform="translate(65.934199, 92.596219)" id="Path" stroke="#A8A8A8" stroke-width="0.5">
                                <line x1="0.670347513" y1="11.2182656" x2="13.1611562" y2="0.233504384"></line>
                            </g>
                            <g transform="translate(58.113478, 83.658252)" fill="#4CAF50" fill-rule="nonzero" id="Path">
                                <path d="M2.44676842,4.95833711 C1.17310815,4.95833711 0.134069503,3.9226502 0.134069503,2.64563819 C0.134069503,1.36862617 1.17310815,0.334056511 2.44676842,0.334056511 C3.73160116,0.334056511 4.75946734,1.36862617 4.75946734,2.64563819 C4.75946734,3.9226502 3.73160116,4.95833711 2.44676842,4.95833711 Z"></path>
                            </g>
                            <g transform="translate(58.113478, 76.954777)" fill="#4CAF50" fill-rule="nonzero" id="Path">
                                <path d="M2.44676842,4.6633842 C1.17310815,4.6633842 0.134069503,3.62769729 0.134069503,2.35068528 C0.134069503,1.07367327 1.17310815,0.0391036049 2.44676842,0.0391036049 C3.73160116,0.0391036049 4.75946734,1.07367327 4.75946734,2.35068528 C4.75946734,3.62769729 3.73160116,4.6633842 2.44676842,4.6633842 Z"></path>
                            </g>
                            <g transform="translate(58.113478, 90.361728)" fill="#4CAF50" fill-rule="nonzero" id="Path">
                                <path d="M2.44676842,5.37842155 C1.17310815,5.37842155 0.134069503,4.34273464 0.134069503,3.06572263 C0.134069503,1.78871061 1.17310815,0.754140952 2.44676842,0.754140952 C3.73160116,0.754140952 4.75946734,1.78871061 4.75946734,3.06572263 C4.75946734,4.34273464 3.73160116,5.37842155 2.44676842,5.37842155 Z"></path>
                            </g>
                        </g>
                    </g>
                </g>
            </g>
        </g>
    </g>
</svg>