<?xml version="1.0" encoding="UTF-8"?>
<svg width="347px" height="336px" viewBox="0 0 347 336" version="1.1" xmlns="http://www.w3.org/2000/svg" xmlns:xlink="http://www.w3.org/1999/xlink">
    <!-- Generator: Sketch 64 (93537) - https://sketch.com -->
    <title>Banner 1 Foreground</title>
    <desc>Created with Sketch.</desc>
    <defs>
        <linearGradient x1="-2496.5%" y1="193.112583%" x2="231.48%" y2="193.112583%" id="linearGradient-1">
            <stop stop-color="#A3A9D0" offset="0%"></stop>
            <stop stop-color="#FFFFFF" offset="100%"></stop>
        </linearGradient>
        <linearGradient x1="385.338558%" y1="-1866.46786%" x2="40.0979734%" y2="810.795229%" id="linearGradient-2">
            <stop stop-color="#A3A9D0" offset="0%"></stop>
            <stop stop-color="#FFFFFF" offset="100%"></stop>
        </linearGradient>
    </defs>
    <g id="Landing" stroke="none" stroke-width="1" fill="none" fill-rule="evenodd">
        <g transform="translate(0.000000, -111.000000)" id="Banner">
            <g transform="translate(0.000000, 111.000000)">
                <g id="Artwork">
                    <g id="Banner-1-Foreground">
                        <g id="Group" transform="translate(101.000000, 0.000000)">
                            <path d="M73.119506,6.59067878 C53.1474098,17.9066867 46.1332006,43.3685418 57.4629884,63.5290531 L57.3960802,63.4129571 L93.5822624,43.0503942 L73.119506,6.59067878 Z" id="Path" fill="#E0E0E0" fill-rule="nonzero"></path>
                            <path d="M36.7437506,26.9052405 C29.8522064,30.7844087 21.120687,28.334114 17.2400116,21.4319854 C13.3704877,14.5298569 15.8126368,5.79028639 22.7153323,1.91111824 C29.6068764,-1.96916622 38.3383959,0.481128482 42.2079198,7.38325702 C46.0885952,14.2853856 43.6352947,23.0249561 36.7437506,26.9052405 Z" id="Path" fill="#4CAF50" fill-rule="nonzero"></path>
                            <path d="M73.119506,6.59067878 C53.1474098,17.9066867 46.1332006,43.3685418 57.4629884,63.5290531 L57.3960802,63.4129571 L93.5822624,43.0503942 L73.119506,6.59067878 Z" id="Path" fill="#C8E6C9" fill-rule="nonzero"></path>
                            <path d="M0.735990148,47.3191536 C20.7638433,36.1281721 46.1332006,43.3685418 57.4629884,63.5290531 L57.3960802,63.4140734 L21.1987465,83.7777527 L0.735990148,47.3191536 Z" id="Path" fill="#FFA000" fill-rule="nonzero"></path>
                            <path d="M77.7361715,99.6438295 C97.6971164,88.3289379 104.711326,62.8670828 93.3926892,42.7065715 C93.3703865,42.6686171 93.3480837,42.6306626 93.325781,42.5915918 L57.1395987,62.9552711 L77.7361715,99.6438295 Z" id="Path" fill="#FFECB3" fill-rule="nonzero"></path>
                            <path d="M77.7361715,99.6438295 C57.697167,110.834811 32.3278097,103.594441 21.0091733,83.43393 C20.9868706,83.3959756 20.9645678,83.3580211 20.9422651,83.3189504 L57.1395987,62.9552711 L77.7361715,99.6438295 Z" id="Path" fill="#4CAF50" fill-rule="nonzero"></path>
                            <path d="M25.2801464,329.224722 C25.2801464,326.230786 42.1298603,323.803933 62.9160063,323.803933 C83.7021523,323.803933 100.551866,326.230786 100.551866,329.224722 C100.551866,332.217542 83.7021523,334.644394 62.9160063,334.644394 C42.1298603,334.644394 25.2801464,332.217542 25.2801464,329.224722 Z" id="Path" fill="#F5F5F5" fill-rule="nonzero"></path>
                            <path d="M78.7509458,312.182057 C78.7509458,309.565433 112.494979,307.443332 154.111876,307.443332 C195.728774,307.443332 229.461656,309.565433 229.461656,312.182057 C229.461656,314.799798 195.728774,316.920782 154.111876,316.920782 C112.494979,316.920782 78.7509458,314.799798 78.7509458,312.182057 Z" id="Path" fill="#F5F5F5" fill-rule="nonzero"></path>
                            <path d="M76.5095213,92.814261 C75.4501415,91.2503143 74.4465186,88.5812234 73.7551339,85.6230088 C73.0525979,82.6636779 72.6288459,79.3995952 72.6288459,76.6010125 C72.6288459,76.5195221 72.6288459,76.4369154 72.6288459,76.3565412 C72.6288459,75.9769967 72.3277591,75.6666633 71.9486126,75.6621707 C71.5694662,75.6588491 71.2572279,75.963601 71.2572279,76.3420292 C71.2460766,76.4291012 71.2460766,76.5150569 71.2460766,76.6010125 C71.2572279,79.5357847 71.6921312,82.8802416 72.41697,85.9411564 C73.1418088,89.0043039 74.1565831,91.7682809 75.372082,93.5845131 C75.5839579,93.8981954 76.0077098,93.9808022 76.3310994,93.7675875 C76.6433377,93.5554891 76.7213972,93.1279433 76.5095213,92.814261 Z" id="Path" fill="#2E7D32" fill-rule="nonzero"></path>
                            <path d="M91.2739297,312.169778 C93.1919646,312.857423 88.5529964,282.996201 81.0481272,266.996167 C74.3127022,252.61143 62.7598871,233.678857 53.5265562,224.843284 C57.8755889,235.403552 70.0640318,265.955769 72.7849651,271.714798 C75.5058983,277.471595 89.3447434,311.484365 91.2739297,312.169778 Z" id="Path" fill="#E9EDF7" fill-rule="nonzero"></path>
                            <path d="M91.2850811,312.187639 C92.623245,313.317342 97.8755383,288.01177 96.6823421,272.943853 C95.611811,259.397463 92.0545253,240.761827 87.3151948,230.907066 C87.6274331,240.671406 88.1961527,268.802352 88.6533587,274.233188 C89.0994133,279.664023 89.9580685,311.061285 91.2850811,312.187639 Z" id="Path" fill="#E9EDF7" fill-rule="nonzero"></path>
                            <path d="M215.544751,312.231175 L92.6678504,312.231175 C92.2329472,312.231175 91.8091953,312.211081 91.3854434,312.170894 C91.3296865,312.167545 91.2850811,312.16308 91.2404756,312.157498 C84.2485692,311.431899 78.7509458,305.475282 78.7509458,298.295193 L78.7509458,48.3495053 C78.7509458,40.6838225 85.0180134,34.413524 92.6678504,34.413524 L215.544751,34.413524 C223.194588,34.413524 229.461656,40.6838225 229.461656,48.3495053 L229.461656,298.295193 C229.461656,304.748566 225.023412,310.214007 219.04628,311.781303 C217.931143,312.074892 216.749099,312.231175 215.544751,312.231175 Z M85.7093981,49.7861929 L85.7093981,288.069818 L222.503203,288.069818 L222.503203,49.7861929 L85.7093981,49.7861929 Z" id="Shape" fill="#2E7D32"></path>
                            <polygon id="Path" fill="#FFFFFF" fill-rule="nonzero" points="85.7093981 288.069818 222.503203 288.069818 222.503203 49.7861929 85.7093981 49.7861929"></polygon>
                            <path d="M140.484907,44.3028911 L167.738846,44.3028911 C168.307565,44.3028911 168.764771,43.8418561 168.764771,43.2725394 C168.764771,42.7032226 168.307565,42.2410713 167.738846,42.2410713 L140.484907,42.2410713 C139.916188,42.2410713 139.44783,42.7032226 139.44783,43.2725394 C139.44783,43.8418561 139.916188,44.3028911 140.484907,44.3028911 Z" id="Path" fill="#4CAF50" fill-rule="nonzero"></path>
                            <path d="M145.480719,299.840163 L147.543722,299.840163 C147.543722,298.020582 148.279712,296.384075 149.461757,295.190743 C150.654953,293.999643 152.294204,293.266229 154.111876,293.266229 C155.929549,293.266229 157.557648,293.999643 158.750845,295.190743 C159.944041,296.384075 160.680031,298.020582 160.680031,299.840163 C160.680031,301.657511 159.944041,303.295134 158.750845,304.48735 C157.557648,305.67845 155.929549,306.412981 154.111876,306.412981 C152.294204,306.412981 150.654953,305.67845 149.461757,304.48735 C148.279712,303.295134 147.543722,301.657511 147.543722,299.840163 L145.480719,299.840163 C145.480719,304.607912 149.339092,308.473684 154.111876,308.473684 C158.87351,308.473684 162.731882,304.607912 162.731882,299.840163 C162.731882,295.070181 158.87351,291.204409 154.111876,291.204409 C149.339092,291.204409 145.480719,295.070181 145.480719,299.840163 Z" id="Path" fill="#C8E6C9" fill-rule="nonzero"></path>
                            <path d="M154.111876,119.520799 C154.111876,115.870474 157.089291,112.883235 160.735788,112.883235 L206.857837,112.883235 C210.504334,112.883235 213.481748,115.870474 213.481748,119.520799 L213.481748,165.685691 C213.481748,169.336016 210.504334,172.322138 206.857837,172.322138 L160.735788,172.322138 C157.089291,172.322138 154.111876,169.336016 154.111876,165.685691 L154.111876,119.520799 Z" id="Path" fill="#4CAF50" fill-rule="nonzero"></path>
                            <path d="M154.111876,193.620166 C154.111876,189.968725 157.089291,186.982603 160.735788,186.982603 L206.857837,186.982603 C210.504334,186.982603 213.481748,189.968725 213.481748,193.620166 L213.481748,239.783942 C213.481748,243.434267 210.504334,246.421506 206.857837,246.421506 L160.735788,246.421506 C157.089291,246.421506 154.111876,243.434267 154.111876,239.783942 L154.111876,193.620166 Z" id="Path" fill="#FFECB3" fill-rule="nonzero"></path>
                            <path d="M140.484907,129.778547 L99.1244913,129.778547 C94.4632203,129.778547 90.6940587,125.996498 90.6940587,121.331449 C90.6940587,116.666401 94.4632203,112.883235 99.1244913,112.883235 L140.484907,112.883235 C145.146178,112.883235 148.91534,116.666401 148.91534,121.331449 C148.91534,125.996498 145.146178,129.778547 140.484907,129.778547 Z" id="Path" fill="#C8E6C9" fill-rule="nonzero"></path>
                            <path d="M143.540382,134.014934 L102.804442,134.014934 C102.235722,134.014934 101.778516,134.475969 101.778516,135.045286 C101.778516,135.614602 102.235722,136.076754 102.804442,136.076754 L143.540382,136.076754 C144.109101,136.076754 144.566307,135.614602 144.566307,135.045286 C144.566307,134.475969 144.109101,134.014934 143.540382,134.014934 Z" id="Path" fill="#4CAF50" fill-rule="nonzero"></path>
                            <path d="M143.540382,140.281883 L123.077625,140.281883 C122.508906,140.281883 122.0517,140.744035 122.0517,141.312235 C122.0517,141.881552 122.508906,142.342587 123.077625,142.342587 L143.540382,142.342587 C144.109101,142.342587 144.566307,141.881552 144.566307,141.312235 C144.566307,140.744035 144.109101,140.281883 143.540382,140.281883 Z" id="Path" fill="#4CAF50" fill-rule="nonzero"></path>
                            <path d="M140.540664,168.127055 C140.540664,165.809601 142.414094,163.930855 144.733578,163.930855 C147.04191,163.930855 148.91534,165.809601 148.91534,168.127055 C148.91534,170.444509 147.04191,172.322138 144.733578,172.322138 C142.414094,172.322138 140.540664,170.444509 140.540664,168.127055 Z" id="Path" fill="#2E7D32" fill-rule="nonzero"></path>
                            <path d="M127.861561,168.127055 C127.861561,165.809601 129.734991,163.930855 132.054475,163.930855 C134.373959,163.930855 136.247388,165.809601 136.247388,168.127055 C136.247388,170.444509 134.373959,172.322138 132.054475,172.322138 C129.734991,172.322138 127.861561,170.444509 127.861561,168.127055 Z" id="Path" fill="#2E7D32" fill-rule="nonzero"></path>
                            <path d="M140.484907,120.299981 L110.398522,120.299981 C109.829803,120.299981 109.361445,120.762133 109.361445,121.331449 C109.361445,121.900766 109.829803,122.361801 110.398522,122.361801 L140.484907,122.361801 C141.053627,122.361801 141.510833,121.900766 141.510833,121.331449 C141.510833,120.762133 141.053627,120.299981 140.484907,120.299981 Z" id="Path" fill="#FFFFFF" fill-rule="nonzero"></path>
                            <path d="M104.019941,120.299981 L99.3475186,120.299981 C98.7787989,120.299981 98.3104416,120.762133 98.3104416,121.331449 C98.3104416,121.900766 98.7787989,122.361801 99.3475186,122.361801 L104.019941,122.361801 C104.588661,122.361801 105.045867,121.900766 105.045867,121.331449 C105.045867,120.762133 104.588661,120.299981 104.019941,120.299981 Z" id="Path" fill="#FFFFFF" fill-rule="nonzero"></path>
                            <path d="M140.484907,203.877915 L99.1244913,203.877915 C94.4632203,203.877915 90.6940587,200.095866 90.6940587,195.429701 C90.6940587,190.764652 94.4632203,186.982603 99.1244913,186.982603 L140.484907,186.982603 C145.146178,186.982603 148.91534,190.764652 148.91534,195.429701 C148.91534,200.095866 145.146178,203.877915 140.484907,203.877915 Z" id="Path" fill="#4CAF50" fill-rule="nonzero"></path>
                            <path d="M143.540382,208.113185 L102.804442,208.113185 C102.235722,208.113185 101.778516,208.575336 101.778516,209.144653 C101.778516,209.71397 102.235722,210.175005 102.804442,210.175005 L143.540382,210.175005 C144.109101,210.175005 144.566307,209.71397 144.566307,209.144653 C144.566307,208.575336 144.109101,208.113185 143.540382,208.113185 Z" id="Path" fill="#2E7D32" fill-rule="nonzero"></path>
                            <path d="M143.540382,214.381251 L123.077625,214.381251 C122.508906,214.381251 122.0517,214.842286 122.0517,215.411603 C122.0517,215.98092 122.508906,216.441955 123.077625,216.441955 L143.540382,216.441955 C144.109101,216.441955 144.566307,215.98092 144.566307,215.411603 C144.566307,214.842286 144.109101,214.381251 143.540382,214.381251 Z" id="Path" fill="#2E7D32" fill-rule="nonzero"></path>
                            <path d="M140.540664,242.225306 C140.540664,239.907852 142.414094,238.030223 144.733578,238.030223 C147.04191,238.030223 148.91534,239.907852 148.91534,242.225306 C148.91534,244.54276 147.04191,246.421506 144.733578,246.421506 C142.414094,246.421506 140.540664,244.54276 140.540664,242.225306 Z" id="Path" fill="#4CAF50" fill-rule="nonzero"></path>
                            <path d="M123.568285,242.225306 C123.568285,239.907852 121.694856,238.030223 119.375372,238.030223 C117.067039,238.030223 115.182458,239.907852 115.182458,242.225306 C115.182458,244.54276 117.067039,246.421506 119.375372,246.421506 C121.694856,246.421506 123.568285,244.54276 123.568285,242.225306 Z" id="Path" fill="#4CAF50" fill-rule="nonzero"></path>
                            <path d="M127.861561,242.225306 C127.861561,239.907852 129.734991,238.030223 132.054475,238.030223 C134.373959,238.030223 136.247388,239.907852 136.247388,242.225306 C136.247388,244.54276 134.373959,246.421506 132.054475,246.421506 C129.734991,246.421506 127.861561,244.54276 127.861561,242.225306 Z" id="Path" fill="#4CAF50" fill-rule="nonzero"></path>
                            <path d="M140.484907,194.399349 L110.398522,194.399349 C109.829803,194.399349 109.361445,194.8615 109.361445,195.429701 C109.361445,195.999018 109.829803,196.461169 110.398522,196.461169 L140.484907,196.461169 C141.053627,196.461169 141.510833,195.999018 141.510833,195.429701 C141.510833,194.8615 141.053627,194.399349 140.484907,194.399349 Z" id="Path" fill="#2E7D32" fill-rule="nonzero"></path>
                            <path d="M104.019941,194.399349 L99.3475186,194.399349 C98.7787989,194.399349 98.3104416,194.8615 98.3104416,195.429701 C98.3104416,195.999018 98.7787989,196.461169 99.3475186,196.461169 L104.019941,196.461169 C104.588661,196.461169 105.045867,195.999018 105.045867,195.429701 C105.045867,194.8615 104.588661,194.399349 104.019941,194.399349 Z" id="Path" fill="#2E7D32" fill-rule="nonzero"></path>
                            <polygon id="Path" fill="#4CAF50" fill-rule="nonzero" points="183.796812 102.911261 180.116862 108.230466 187.476763 108.230466"></polygon>
                            <polygon id="Path" fill="#4CAF50" fill-rule="nonzero" points="183.796812 256.393479 187.476763 251.074275 180.116862 251.074275"></polygon>
                            <path d="M191.223622,214.146827 C191.134411,210.667297 193.944555,201.526972 193.944555,201.526972 C192.42797,198.965046 191.547012,195.95883 191.547012,192.738284 L189.751642,192.738284 L189.751642,194.632657 C189.751642,198.393497 187.465612,201.441016 183.796812,201.441016 C180.128013,201.441016 177.841983,198.393497 177.841983,194.632657 L177.841983,192.738284 L176.046613,192.738284 C176.046613,195.95883 175.165655,198.965046 173.649069,201.526972 C173.649069,201.526972 176.459214,210.667297 176.370003,214.146827 C176.370003,218.128695 171.195769,234.498226 168.519441,238.771451 C169.723789,240.332049 171.976365,239.049412 174.273546,239.262626 C177.039085,239.518261 178.06501,240.666197 181.254301,240.666197 C184.443592,240.666197 185.358004,239.405514 188.781473,239.405514 C192.204942,239.405514 195.684168,242.242051 199.497936,239.405514 C196.464764,232.429709 191.223622,218.128695 191.223622,214.146827 Z" id="Path" fill="#C8E6C9" fill-rule="nonzero"></path>
                            <path d="M176.7603,214.834472 L190.833324,214.834472 C191.212471,214.834472 191.513558,214.526371 191.513558,214.146827 C191.513558,213.767282 191.212471,213.460298 190.833324,213.460298 L176.7603,213.460298 C176.381154,213.460298 176.080067,213.767282 176.080067,214.146827 C176.080067,214.526371 176.381154,214.834472 176.7603,214.834472 Z" id="Path" fill="#4CAF50" fill-rule="nonzero"></path>
                            <path d="M188.915289,122.855209 L188.915289,122.858558 C188.714565,125.517602 186.506594,127.614027 183.796812,127.614027 C181.08703,127.614027 178.87906,125.517602 178.678335,122.858558 L178.678335,122.855209 C177.920043,123.222474 164.627614,130.196046 164.627614,130.196046 L167.995327,137.222085 C169.16622,136.641605 171.652975,135.425946 171.652975,137.803681 L171.652975,162.050994 L195.94065,162.050994 L195.94065,137.803681 C195.94065,135.425946 198.438556,136.641605 199.598298,137.222085 L202.977162,130.196046 C202.977162,130.196046 189.673582,123.222474 188.915289,122.855209 Z" id="Path" fill="#C8E6C9" fill-rule="nonzero"></path>
                            <path d="M188.915289,122.855209 L188.915289,122.858558 C188.714565,125.517602 186.506594,127.614027 183.796812,127.614027 C181.08703,127.614027 178.87906,125.517602 178.678335,122.858558 L178.678335,122.855209 C178.566822,122.908792 178.187675,123.105262 177.630107,123.395502 C178.076162,126.410648 180.663279,128.725869 183.796812,128.725869 C186.930346,128.725869 189.517463,126.410648 189.974669,123.395502 C189.405949,123.105262 189.026803,122.908792 188.915289,122.855209 Z" id="Path" fill="#2E7D32" fill-rule="nonzero"></path>
                            <path d="M183.796812,127.614027 C186.506594,127.614027 188.714565,125.517602 188.915289,122.858558 L188.669959,122.858558 C187.197979,123.248149 185.547577,123.466945 183.796812,123.466945 C182.046048,123.466945 180.395646,123.248149 178.923665,122.858558 L178.678335,122.858558 C178.87906,125.517602 181.08703,127.614027 183.796812,127.614027 Z" id="Path" fill="#C8E6C9" fill-rule="nonzero"></path>
                            <polygon id="Path" fill="#C8E6C9" fill-rule="nonzero" points="85.7093981 61.124527 102.815593 61.124527 102.815593 49.7850766 85.7093981 49.7850766"></polygon>
                            <polygon id="Path" fill="#FFECB3" fill-rule="nonzero" points="102.815593 61.124527 119.910637 61.124527 119.910637 49.7850766 102.815593 49.7850766"></polygon>
                            <polygon id="Path" fill="#C8E6C9" fill-rule="nonzero" points="119.910637 61.124527 137.005681 61.124527 137.005681 49.7850766 119.910637 49.7850766"></polygon>
                            <polygon id="Path" fill="#FFECB3" fill-rule="nonzero" points="137.005681 61.124527 154.111876 61.124527 154.111876 49.7850766 137.005681 49.7850766"></polygon>
                            <polygon id="Path" fill="#C8E6C9" fill-rule="nonzero" points="154.111876 61.124527 171.20692 61.124527 171.20692 49.7850766 154.111876 49.7850766"></polygon>
                            <polygon id="Path" fill="#FFECB3" fill-rule="nonzero" points="171.20692 61.124527 188.301964 61.124527 188.301964 49.7850766 171.20692 49.7850766"></polygon>
                            <polygon id="Path" fill="#C8E6C9" fill-rule="nonzero" points="188.301964 61.124527 205.408159 61.124527 205.408159 49.7850766 188.301964 49.7850766"></polygon>
                            <polygon id="Path" fill="#FFECB3" fill-rule="nonzero" points="205.408159 61.124527 222.503203 61.124527 222.503203 49.7850766 205.408159 49.7850766"></polygon>
                            <path d="M69.551069,75.5427531 L69.551069,86.8822035 C69.551069,93.1647815 74.2792481,98.2584921 80.1225638,98.2584921 C85.9547282,98.2584921 90.6940587,93.1647815 90.6940587,86.8822035 L90.6940587,75.5427531 L69.551069,75.5427531 Z" id="Path" fill="#C8E6C9" fill-rule="nonzero"></path>
                            <path d="M90.6940587,75.5427531 L90.6940587,86.8822035 C90.6940587,93.1647815 95.4222378,98.2584921 101.254402,98.2584921 C107.097718,98.2584921 111.825897,93.1647815 111.825897,86.8822035 L111.825897,75.5427531 L90.6940587,75.5427531 Z" id="Path" fill="#FFECB3" fill-rule="nonzero"></path>
                            <path d="M111.825897,75.5427531 L111.825897,86.8822035 C111.825897,93.1647815 116.565227,98.2584921 122.397392,98.2584921 C128.240708,98.2584921 132.968887,93.1647815 132.968887,86.8822035 L132.968887,75.5427531 L111.825897,75.5427531 Z" id="Path" fill="#C8E6C9" fill-rule="nonzero"></path>
                            <path d="M132.968887,75.5427531 L132.968887,86.8822035 C132.968887,93.1647815 137.697066,98.2584921 143.540382,98.2584921 C149.372546,98.2584921 154.111876,93.1647815 154.111876,86.8822035 L154.111876,75.5427531 L132.968887,75.5427531 Z" id="Path" fill="#FFECB3" fill-rule="nonzero"></path>
                            <path d="M154.111876,75.5427531 L154.111876,86.8822035 C154.111876,93.1647815 158.840056,98.2584921 164.683371,98.2584921 C170.515536,98.2584921 175.243715,93.1647815 175.243715,86.8822035 L175.243715,75.5427531 L154.111876,75.5427531 Z" id="Path" fill="#C8E6C9" fill-rule="nonzero"></path>
                            <path d="M175.243715,75.5427531 L175.243715,86.8822035 C175.243715,93.1647815 179.983045,98.2584921 185.81521,98.2584921 C191.658525,98.2584921 196.386704,93.1647815 196.386704,86.8822035 L196.386704,75.5427531 L175.243715,75.5427531 Z" id="Path" fill="#FFECB3" fill-rule="nonzero"></path>
                            <path d="M196.386704,75.5427531 L196.386704,86.8822035 C196.386704,93.1647815 201.126035,98.2584921 206.958199,98.2584921 C212.801515,98.2584921 217.529694,93.1647815 217.529694,86.8822035 L217.529694,75.5427531 L196.386704,75.5427531 Z" id="Path" fill="#C8E6C9" fill-rule="nonzero"></path>
                            <path d="M217.529694,75.5427531 L217.529694,86.8822035 C217.529694,93.1647815 222.257873,98.2584921 228.101189,98.2584921 C233.933353,98.2584921 238.672684,93.1647815 238.672684,86.8822035 L238.672684,75.5427531 L217.529694,75.5427531 Z" id="Path" fill="#FFECB3" fill-rule="nonzero"></path>
                            <polygon id="Path" fill="#C8E6C9" fill-rule="nonzero" points="69.551069 75.5427531 85.7093981 61.124527 102.815593 61.124527 90.6940587 75.5427531"></polygon>
                            <polygon id="Path" fill="#FFECB3" fill-rule="nonzero" points="102.815593 61.124527 119.910637 61.124527 111.825897 75.5427531 90.6940587 75.5427531"></polygon>
                            <polygon id="Path" fill="#C8E6C9" fill-rule="nonzero" points="137.005681 61.124527 119.910637 61.124527 111.825897 75.5427531 132.968887 75.5427531"></polygon>
                            <polygon id="Path" fill="#FFECB3" fill-rule="nonzero" points="154.111876 61.124527 154.111876 75.5427531 132.968887 75.5427531 137.005681 61.124527"></polygon>
                            <polygon id="Path" fill="#FFECB3" fill-rule="nonzero" points="238.672684 75.5427531 222.503203 61.124527 205.408159 61.124527 217.529694 75.5427531"></polygon>
                            <polygon id="Path" fill="#C8E6C9" fill-rule="nonzero" points="205.408159 61.124527 188.301964 61.124527 196.386704 75.5427531 217.529694 75.5427531"></polygon>
                            <polygon id="Path" fill="#FFECB3" fill-rule="nonzero" points="171.20692 61.124527 188.301964 61.124527 196.386704 75.5427531 175.243715 75.5427531"></polygon>
                            <polygon id="Path" fill="#C8E6C9" fill-rule="nonzero" points="154.111876 61.124527 154.111876 75.5427531 175.243715 75.5427531 171.20692 61.124527"></polygon>
                            <path d="M98.812253,146.715163 C99.146794,144.055002 97.5633,145.176891 98.020506,141.725269 C98.3773498,139.106412 99.4032754,139.963736 99.9831464,138.859708 C100.574169,137.75568 101.499732,131.684084 103.328556,131.43738 C103.551584,132.16298 102.414144,136.322341 102.481052,137.427485 C102.559112,138.531513 105.982581,140.742918 105.012412,143.504663 C104.532904,144.885535 104.265271,145.674764 103.808065,146.292082 C103.350859,146.9094 103.005167,146.664929 102.559112,148.165246 C101.934635,147.929705 98.812253,146.715163 98.812253,146.715163 Z" id="Path" fill="#FFD8D8" fill-rule="nonzero"></path>
                            <path d="M46.4900443,247.729818 C46.144352,247.503207 45.3860591,247.332412 44.560858,247.85931 C44.2040143,247.71419 43.735657,247.225247 43.2115428,247.176129 C42.94391,246.767561 41.694957,244.655507 41.9402871,243.841719 C42.1744657,243.026815 42.4755526,242.956488 43.0108182,243.309241 C43.5460837,243.664226 44.4604957,244.939049 45.3860591,244.169914 C44.8173395,243.578271 42.8435477,241.479613 41.9848925,238.99248 C41.9848925,238.99248 42.0518007,239.518261 42.0741034,239.819664 C42.1967685,241.880367 40.6913341,245.679161 40.7247882,245.896841 C40.7470909,246.113405 41.360416,247.498742 41.4830811,247.538929 C41.5945947,247.578 42.2413739,247.799029 42.6651258,247.773354 C43.5795378,247.396042 44.3266794,248.014476 44.3935876,248.293553 C44.2040143,248.319228 42.9996668,248.727797 42.4978554,248.878498 C43.3565105,248.907522 44.4604957,249.058224 44.8730963,248.853939 C44.9288531,248.823799 45.018064,248.780263 45.107275,248.730029 L45.0961236,248.741192 C45.6202378,248.660818 47.4825159,248.412998 47.4825159,248.412998 C47.3598509,247.957545 46.8914935,247.737632 46.4900443,247.729818 Z" id="Path" fill="#E3BDB3" fill-rule="nonzero"></path>
                            <path d="M38.4053041,239.473608 C38.4833636,239.708033 39.1412942,240.548612 39.1524456,241.633663 C39.1747483,242.718714 39.4423811,245.535158 39.5985002,245.933679 C39.7657707,246.333317 40.9589669,248.343787 41.1596914,248.483325 C41.3715674,248.620631 42.2971308,248.915336 42.5536122,248.855056 C42.821245,248.792543 44.192863,248.319228 44.3935876,248.293553 C44.3378307,248.046849 43.6910515,247.332412 42.6651258,247.773354 C42.2971308,247.79568 41.9179843,247.658374 41.8064707,247.623769 C41.7061084,247.589163 41.1596914,246.360109 41.1373887,246.16922 C41.1039346,245.976099 42.4309472,242.607083 42.3305849,240.779688 C42.2190712,238.721217 41.5611406,238.186506 41.6392002,237.271134 L38.3830013,237.294576 C38.3941527,238.326045 38.3160931,239.239184 38.4053041,239.473608 Z" id="Path" fill="#FFD8D8" fill-rule="nonzero"></path>
                            <path d="M38.1265199,237.802496 C37.0225347,230.084347 35.294073,221.672971 33.9113036,214.178083 C34.5134774,200.277824 37.2567134,191.96245 44.4047389,184.793524 L42.4197958,227.980108 C41.6615029,227.976759 41.237751,227.975642 41.237751,227.975642 L41.237751,237.633934 C40.4683068,237.705378 39.2193538,237.802496 38.1265199,237.802496 Z" id="Path" fill="#2196F3"></path>
                            <path d="M64.5998625,329.224722 L70.5658433,329.224722 L70.5658433,327.756778 L72.3500618,329.224722 L86.222361,329.224722 C86.222361,327.861711 85.5421276,326.519909 84.4492938,326.220739 C83.3453086,325.922685 78.0038043,325.607886 77.0559382,325.135688 C76.4426131,324.826471 73.9447071,323.347364 71.8482503,321.819139 L64.5998625,321.819139 L64.5998625,329.224722 Z" id="Path" fill="#2196F3" fill-rule="nonzero"></path>
                            <path d="M41.2823565,329.224722 L47.2594886,329.224722 L47.2594886,327.756778 L49.0325558,329.224722 L62.9160063,329.224722 C62.9160063,327.861711 62.235773,326.519909 61.1317877,326.220739 C60.0389539,325.922685 54.6862983,325.607886 53.7495835,325.135688 C53.1362584,324.826471 50.6272011,323.347364 48.5418957,321.819139 L41.2823565,321.819139 L41.2823565,329.224722 Z" id="Path" fill="#2196F3" fill-rule="nonzero"></path>
                            <path d="M71.8482503,321.819139 L64.6110139,321.819139 C61.566691,304.977409 60.5407653,294.890456 62.7487358,283.9819 C61.4997828,280.950009 58.2101299,267.87805 56.7939064,252.750968 C55.3442288,266.792999 53.1028043,288.170285 52.0768786,295.846015 L52.0768786,295.844899 C51.1067098,305.017596 49.2444317,315.520933 48.5418957,321.819139 L41.237751,321.819139 L41.237751,230.91488 L73.6547716,237.038942 L73.6547716,237.038942 L41.237751,230.91488 L41.8064707,230.908182 L41.237751,230.91488 L41.237751,227.975642 C41.237751,227.975642 41.6615029,227.976759 42.4197958,227.980108 C44.5831608,227.989038 49.467459,228.010248 54.831266,228.040388 C55.4222884,228.043737 56.0021594,228.047086 56.6043332,228.050435 C63.3509095,228.089506 70.465481,228.140856 73.7105284,228.197788 C73.7105284,228.91669 73.7105284,229.694756 73.7105284,230.526405 L73.7105284,230.526405 C73.7105284,231.065581 73.6993771,231.6282 73.6993771,232.213145 L73.6882257,233.654298 L73.6993771,232.212029 C73.6882257,233.274754 73.6770743,234.408922 73.665923,235.604487 L73.6547716,237.038942 L73.6547716,237.038942 C73.6101661,241.5198 73.5321066,246.778724 73.4428957,252.454031 C73.3425334,258.736609 73.208717,265.528223 73.0749006,272.344396 C72.6511487,293.473862 72.1270345,314.818775 71.8482503,321.819139 Z" id="Path" fill="#0D47A1"></path>
                            <path d="M73.6993771,232.212029 C73.6993771,231.6282 73.7105284,231.065581 73.7105284,230.526405 L73.7105284,230.526405 L73.6993771,232.212029 Z" id="Path" fill="url(#linearGradient-1)"></path>
                            <path d="M73.7105284,231.137025 C73.9558585,225.227294 78.115318,190.628463 78.115318,190.628463 C82.7988916,187.521779 97.8643869,179.790234 99.7043623,177.511851 C101.555489,175.234584 103.217043,151.42598 103.016318,148.315948 C102.023846,148.042452 98.5111661,146.599067 98.0316574,146.325572 C97.3402727,149.121922 95.4779946,165.570711 92.1771903,169.01117 C86.8802915,174.525729 77.9257447,176.460289 71.1234116,177.866837 C63.7969642,179.386131 48.3969279,179.118217 43.4457215,185.896436 C40.9143614,189.351407 40.5240636,223.184451 41.237751,230.91488 C44.2263171,230.91488 64.0534456,230.886972 73.7105284,231.137025 Z" id="Path" fill="#2196F3"></path>
                            <path d="M55.7791321,151.843479 C45.6202378,153.439799 46.9026449,163.005437 49.3224913,168.512181 C49.7127891,169.388482 50.1922978,170.370833 51.050953,171.215877 L51.3185858,178.892723 L62.7487358,176.939185 C62.7487358,176.939185 62.2580757,173.797896 62.2580757,172.854617 C63.975386,172.587819 65.7149991,172.171436 65.7149991,171.413464 C65.6926964,167.65374 67.6441854,149.979246 55.7791321,151.843479 Z" id="Path" fill="#FFD8D8" fill-rule="nonzero"></path>
                            <path d="M49.0660099,181.902288 L50.1253896,179.311338 C51.8427,178.562296 58.7565468,176.917975 64.0757483,176.848764 C64.6221652,177.470548 65.3916095,178.892723 65.3916095,178.892723 C65.3916095,178.892723 57.1730528,181.902288 49.0660099,181.902288 Z" id="Path" fill="#0D47A1"></path>
                            <path d="M63.5627855,156.736254 C67.7556991,155.397802 69.4284039,151.264115 69.4284039,151.264115 C67.4992176,152.198465 67.3765526,150.241578 67.3765526,150.241578 C65.9714805,150.58875 64.5106516,150.739451 60.7972468,150.384465 C51.8315486,149.526025 45.7763569,154.17991 46.9695531,162.412677 C49.0660099,176.848764 56.8496632,175.79497 58.1097676,169.305875 C59.9497429,159.87866 61.1875446,161.076457 61.6559019,162.412677 C62.1354107,163.750014 64.3322297,163.415121 63.6631478,160.646679 C62.9940658,157.878237 62.4364975,157.095705 63.5627855,156.736254 Z" id="Path" fill="#424242" fill-rule="nonzero"></path>
                            <path d="M240.044302,318.561754 C240.668778,317.779222 241.616644,317.131764 242.129607,316.351465 L245.787255,318.774969 C245.385806,319.380007 245.352352,320.874743 245.898769,321.515503 C244.582908,322.610601 239.966242,319.79639 240.044302,318.561754 Z" id="Path" fill="#FFF3E0" fill-rule="nonzero"></path>
                        </g>
                        <g id="Group" transform="translate(0.000000, 130.000000)">
                            <path d="M31.0937457,200.072762 C31.0937457,197.025216 48.2393116,194.555498 69.3955363,194.555498 C90.5517609,194.555498 107.697327,197.025216 107.697327,200.072762 C107.697327,203.120308 90.5517609,205.590026 69.3955363,205.590026 C48.2393116,205.590026 31.0937457,203.120308 31.0937457,200.072762 Z" id="Path" fill="#F5F5F5" fill-rule="nonzero"></path>
                            <path d="M49.0971469,0.541017577 L7.54115243,0.541017577 C3.42799912,0.541017577 0.0635020961,3.91094356 0.0635020961,8.02825464 L0.0635020961,28.5579196 C0.0635020961,32.6763461 3.42799912,36.0451566 7.54115243,36.0451566 L41.0758295,36.0451566 C42.6355301,40.5673943 46.3565302,42.6466866 51.2807278,43.3059472 C48.540111,41.0593298 47.1698026,37.6905194 47.2923505,36.0451566 L49.0971469,36.0451566 C53.2080721,36.0451566 56.5725691,32.6763461 56.5725691,28.5579196 L56.5725691,8.02825464 C56.5725691,3.91094356 53.2080721,0.541017577 49.0971469,0.541017577 Z" id="Path" fill="#2E7D32" fill-rule="nonzero"></path>
                            <path d="M7.12337548,14.2014325 L49.5093535,14.2014325 C50.044108,14.2014325 50.4674553,13.771965 50.4674553,13.2421024 C50.4674553,12.7122398 50.044108,12.2838877 49.5093535,12.2838877 L7.12337548,12.2838877 C6.59530542,12.2838877 6.16527368,12.7122398 6.16527368,13.2421024 C6.16527368,13.771965 6.59530542,14.2014325 7.12337548,14.2014325 Z" id="Path" fill="#FFFFFF" fill-rule="nonzero"></path>
                            <path d="M7.12337548,20.9011265 L49.5093535,20.9011265 C50.044108,20.9011265 50.4674553,20.4716589 50.4674553,19.9417963 C50.4674553,19.4119338 50.044108,18.9835817 49.5093535,18.9835817 L7.12337548,18.9835817 C6.59530542,18.9835817 6.16527368,19.4119338 6.16527368,19.9417963 C6.16527368,20.4716589 6.59530542,20.9011265 7.12337548,20.9011265 Z" id="Path" fill="#FFFFFF" fill-rule="nonzero"></path>
                            <path d="M24.0828914,27.5997049 L49.5093535,27.5997049 C50.044108,27.5997049 50.4674553,27.1713529 50.4674553,26.6414903 C50.4674553,26.1116277 50.044108,25.6821602 49.5093535,25.6821602 L24.0828914,25.6821602 C23.5537073,25.6821602 23.1259037,26.1116277 23.1259037,26.6414903 C23.1259037,27.1713529 23.5537073,27.5997049 24.0828914,27.5997049 Z" id="Path" fill="#FFFFFF" fill-rule="nonzero"></path>
                            <path d="M26.8491319,6.92167848 C26.8491319,6.11070987 27.5064343,5.45256478 28.3174786,5.45256478 C29.1285229,5.45256478 29.7858253,6.11070987 29.7858253,6.92167848 C29.7858253,7.7337626 29.1285229,8.39190769 28.3174786,8.39190769 C27.5064343,8.39190769 26.8491319,7.7337626 26.8491319,6.92167848 Z" id="Path" fill="#FFFFFF" fill-rule="nonzero"></path>
                            <path d="M32.928622,6.92167848 C32.928622,6.2992294 33.4321825,5.79502332 34.0538346,5.79502332 C34.6754867,5.79502332 35.1801612,6.2992294 35.1801612,6.92167848 C35.1801612,7.54412757 34.6754867,8.04833365 34.0538346,8.04833365 C33.4321825,8.04833365 32.928622,7.54412757 32.928622,6.92167848 Z" id="Path" fill="#FFFFFF" fill-rule="nonzero"></path>
                            <path d="M23.7052211,6.92167848 C23.7052211,6.2992294 23.2016606,5.79502332 22.5800085,5.79502332 C21.9583564,5.79502332 21.4547959,6.2992294 21.4547959,6.92167848 C21.4547959,7.54412757 21.9583564,8.04833365 22.5800085,8.04833365 C23.2016606,8.04833365 23.7052211,7.54412757 23.7052211,6.92167848 Z" id="Path" fill="#FFFFFF" fill-rule="nonzero"></path>
                            <polygon id="Path" fill="#2196F3" fill-rule="nonzero" points="51.7709194 74.2822711 58.2325362 78.9026727 54.7677727 100.167452 46.8132996 103.521761"></polygon>
                            <polygon id="Path" fill="#2196F3" fill-rule="nonzero" points="46.8132996 103.521761 19.3725956 98.8567396 24.3324435 69.6172494 51.7709194 74.2822711"></polygon>
                            <polygon id="Path" fill="#FFFFFF" fill-rule="nonzero" points="35.6035085 71.5336787 34.6242394 77.304161 35.238093 76.8680004 35.6736951 77.482641 36.2875487 77.045365 36.7231508 77.6611211 37.3325481 77.223845 37.7781768 77.8384856 38.3909163 77.4034405 38.8254044 78.0169656 39.8057876 72.2464833"></polygon>
                            <path d="M53.9990631,107.698194 C53.9990631,103.435868 51.9603116,68.3277312 66.1090243,62.2683344 C74.4311411,58.6998494 81.6837489,70.127033 79.9235153,76.7564504 C77.5839644,85.5867497 74.553689,96.8287603 74.553689,107.698194 L53.9990631,107.698194 Z" id="Path" fill="#4CAF50"></path>
                            <path d="M66.833171,66.714718 C57.686641,64.4535992 55.3805122,81.4872866 51.0244913,88.9722927 C45.6212427,88.5361321 37.7224732,88.7614631 30.7138471,86.1355758 C30.4041352,85.7384577 29.3056603,84.1075965 27.7738115,83.4784544 C26.2419627,82.8515433 25.3841274,82.4611182 23.735301,82.1811277 C23.6283501,83.9659279 24.8683121,83.994931 25.5991432,84.365277 C26.0937911,84.61738 26.370081,85.0568871 26.262016,85.3781511 C25.9812699,86.2058523 20.9534636,84.3686235 20.634839,85.7775002 C20.3151004,87.1852614 21.8335803,86.8160309 21.7310857,87.3068509 C21.5595187,88.1289745 20.355207,87.8545615 20.2482561,88.5082446 C19.9753085,90.1893033 21.8346944,89.5166567 21.7934738,89.8524223 C21.7522531,90.1893033 20.1713851,90.1993428 20.1167956,91.1843295 C20.0599779,92.2273221 21.8837136,91.582563 22.1789426,91.9607176 C22.4730576,92.3388721 19.4784324,92.1827021 19.8505324,93.2892783 C20.2616249,94.5096354 23.1448429,93.8403354 24.3157324,93.7756363 C26.4101875,93.6585088 30.2648762,92.4414982 31.3366133,92.5731272 C32.4094645,92.7047562 39.3824403,96.2587397 43.6827577,97.4277839 C48.0387787,98.6157915 53.2749164,100.080443 56.695117,95.8750076 C56.7842428,95.7589956 56.8622278,95.6485611 56.9179314,95.5492816 C57.7423446,94.2709184 75.9908417,68.9747213 66.833171,66.714718 Z" id="Path" fill="#FFD8D8" fill-rule="nonzero"></path>
                            <path d="M66.833171,66.714718 C61.7307218,65.4519718 58.75615,70.207349 56.3608955,75.9555213 L66.0198985,80.7175915 C69.3064105,74.2119946 71.2337548,67.8012151 66.833171,66.714718 Z" id="Path" fill="#4CAF50"></path>
                            <path d="M56.3608955,75.9555213 C56.0823775,76.6292834 55.8150003,77.317547 55.547623,78.0113881 L64.9949524,82.6741788 C65.3403147,82.0238422 65.685677,81.3712746 66.0198985,80.7175915 L56.3608955,75.9555213 Z" id="Path" fill="#2E7D32" fill-rule="nonzero"></path>
                            <path d="M51.5815272,196.766419 C49.3756649,197.219313 41.2317996,198.604764 41.2317996,199.457006 C41.2317996,200.309248 40.8307337,202.583753 45.5655391,202.583753 C50.3114853,202.583753 58.9901051,202.578175 61.2405302,202.578175 C62.6108386,201.207226 61.6972997,199.212711 61.051138,196.700605 C58.6893057,196.183013 51.5815272,196.766419 51.5815272,196.766419 Z" id="Path" fill="#FF6F00" fill-rule="nonzero"></path>
                            <path d="M92.211728,189.326033 C89.8276142,189.766656 83.499686,193.057381 83.499686,193.057381 C83.065198,193.360798 82.3187698,193.847156 81.4609345,194.419407 C78.2412668,195.037394 74.6093926,195.994493 74.6093926,196.643714 C74.6093926,197.497072 74.197186,199.770461 78.9431321,199.772692 C80.4582698,199.772692 81.2715423,199.772692 83.2434495,199.772692 L83.3102938,199.725841 C86.273725,198.468673 93.6043178,195.115479 94.6626861,194.673741 C95.3868328,192.880017 93.7825693,191.39194 92.211728,189.326033 Z" id="Path" fill="#FF6F00" fill-rule="nonzero"></path>
                            <g transform="translate(61.273952, 110.434516)" fill="#2E7D32" id="Shape">
                                <path d="M21.8692306,82.6395983 C21.8246678,82.6395983 21.7801049,82.6395983 21.7244013,82.6373673 C20.231545,80.1509174 9.54759585,60.4355676 5.04674553,49.251563 C3.93267367,46.5096636 2.64035031,42.8854036 1.28118264,38.7837095 C2.28384732,41.8089459 3.25308984,44.5686933 4.13320661,46.9112437 C3.25308984,44.5664623 2.28384732,41.8022529 1.28118264,38.780363 L1.28118264,38.780363 L1.28118264,38.7658615 L1.27004192,38.753591 L1.27004192,38.7524755 C1.09179042,38.2092269 0.913538926,37.6659784 0.735287429,37.0937268 C1.53741917,33.7628433 2.61806887,30.5156223 3.95495511,27.5606624 C3.95495511,27.5461609 3.95495511,27.5461609 3.95495511,27.5461609 C3.96609583,27.5182734 3.97723655,27.5037719 3.98837726,27.4903859 C3.98837726,27.4769999 3.98837726,27.4769999 3.99951798,27.4624984 C3.99951798,27.4491124 4.0106587,27.4346109 4.0106587,27.4212249 C4.02179942,27.4067234 4.03294014,27.3922219 4.03294014,27.3788359 C4.03294014,27.3654499 4.04408086,27.3509484 4.04408086,27.3375624 C4.05522158,27.3230609 4.06636229,27.3096749 4.06636229,27.2951734 C4.07750301,27.2817874 4.07750301,27.2817874 4.08864373,27.2672859 C4.08864373,27.2538999 4.09978445,27.2260124 4.11092517,27.2115109 C4.11092517,27.2115109 4.11092517,27.1981249 4.12206589,27.1836234 C4.13320661,27.1702374 4.14434732,27.1423499 4.15548804,27.1144624 C4.35602098,26.6827638 4.56769463,26.2499497 4.76822757,25.8316372 C4.76822757,25.8182512 4.76822757,25.8182512 4.76822757,25.8182512 C4.77936829,25.8048652 4.77936829,25.7903637 4.790509,25.7758622 C4.80164972,25.7624762 4.80164972,25.7624762 4.80164972,25.7479747 C4.80164972,25.7479747 4.81279044,25.7345887 4.82393116,25.7200872 C9.36934435,16.3398463 14.9731258,8.4655307 13.9036168,0.0747385106 L13.8924761,0.07027651 L13.9036168,0.0747385106 L21.8692306,82.6395983 Z M4.33373954,47.4466838 C4.46742816,47.7958353 4.60111679,48.1360628 4.73480541,48.4640199 L4.73480541,48.4629044 C4.60111679,48.1349473 4.46742816,47.7958353 4.33373954,47.4466838 Z M14.2378384,4.87473569 C14.2378384,4.63155666 14.2378384,4.38949312 14.2266977,4.14854509 C14.2378384,4.38837762 14.2378384,4.63155666 14.2378384,4.87473569 Z M14.2266977,4.14854509 L14.2266977,3.85963055 L14.2266977,3.85851505 L14.215557,3.57071601 L14.215557,3.57071601 L14.2044162,3.31972847 C14.1821348,2.94492042 14.1598534,7.50285407 14.1487126,7.7047596 L14.1487126,7.85646762 C14.1375719,8.09518465 14.1152905,8.33501719 14.1041498,8.57596522 L14.1041498,8.61723873 L14.093009,8.77006225 L14.0818683,8.92177027 L14.0818683,8.92400127 L14.0707276,9.07794029 L14.0595869,9.23076381 L14.0595869,9.26869082 L14.0484462,9.38581834 L14.0484462,9.38693384 C13.7365061,13.5254394 13.1349072,17.9283186 12.8898114,22.5197172 C12.4887456,30.1263128 14.0261647,38.6297705 16.7333594,46.0433846 C22.4374073,61.6715418 31.3499822,78.7554267 31.3499822,78.7554267 C28.6984912,80.466604 24.2087815,82.6395983 21.8692306,82.6395983 L14.2266977,4.14854509 Z M13.9816019,0.621333588 L13.9816019,0.617987088 L13.9593204,0.484127069 L13.9593204,0.480780568 L13.9481797,0.379270054 L13.937039,0.346920549 L13.9147575,0.21082953 L13.9816019,0.621333588 Z"></path>
                            </g>
                            <g transform="translate(47.905090, 107.088015)" fill="#2E7D32" id="Shape">
                                <path d="M7.45314075,90.1134493 C5.74861081,90.1134493 4.21119164,89.9472398 3.27537127,89.5233497 C2.80746109,86.6609763 0.256236528,64.3710522 0.256236528,52.3136109 C0.256236528,40.2550542 2.72947606,13.4127739 6.09397308,0.610178587 L26.6485989,0.610178587 C26.9493983,1.55389172 27.1499313,2.48756535 27.2613385,3.41454599 L27.2613385,3.41677699 L27.2613385,3.41454599 L27.239057,3.23048846 L27.2279163,3.23048846 C28.4199732,11.6949037 22.7716288,19.6171858 18.1816528,29.0710496 C18.1816528,29.0788581 18.1816528,29.0877821 18.1705121,29.0955906 C18.1705121,29.1056301 18.1593713,29.1145541 18.1593713,29.1234781 C18.1482306,29.1368641 18.1482306,29.1502501 18.1370899,29.1625206 C18.1370899,29.1658672 18.1370899,29.1703292 18.1370899,29.1725602 C17.9254163,29.5975657 17.7248833,30.0270333 17.5243504,30.4587318 C17.5132097,30.4843883 17.5020689,30.5100448 17.4909282,30.5357013 C17.4797875,30.5435098 17.4797875,30.5535493 17.4797875,30.5624733 C17.4686468,30.5792059 17.4575061,30.5948229 17.4575061,30.6126709 C17.4463654,30.6238259 17.4463654,30.6349809 17.4352246,30.6461359 C17.4352246,30.6606374 17.4240839,30.6740234 17.4240839,30.6874094 C17.4129432,30.7019109 17.4018025,30.7152969 17.4018025,30.7286829 C17.3906618,30.7398379 17.3906618,30.7509929 17.3906618,30.7621479 C17.379521,30.7777649 17.3683803,30.7933819 17.3683803,30.8078834 C17.3572396,30.8168074 17.3572396,30.8257314 17.3572396,30.8346554 C17.3460989,30.8525034 17.3349582,30.8714669 17.3238174,30.8893149 C17.3238174,30.8937769 17.3238174,30.8982389 17.3238174,30.9027009 C14.2378384,37.7250999 12.5555899,45.9920715 12.2993534,53.7135636 C11.7645989,70.345671 13.6362396,89.5233497 13.6362396,89.5233497 C11.8982875,89.8591153 9.54759585,90.1134493 7.45314075,90.1134493 Z M18.1816528,29.0710496 L27.2613385,3.41677699 L18.1816528,29.0710496 Z M8.38896112,56.2133995 L9.00170064,54.9283433 L8.38896112,56.2133995 Z"></path>
                            </g>
                            <path d="M62.5439943,149.185876 C62.3657428,148.643743 62.1874913,148.093801 62.0092398,147.534935 C62.1874913,148.093801 62.3657428,148.643743 62.5439943,149.185876 Z" id="Shape" fill="url(#linearGradient-2)"></path>
                            <path d="M75.266695,62.4155804 C74.6762369,61.8076328 75.7568866,55.6333394 76.0242638,54.4252527 C77.3054465,50.7697587 77.8624824,40.4212638 68.3817309,39.4976296 C61.4299224,38.820521 60.0596141,43.7521472 60.8506051,49.006153 L60.8394644,49.008384 C59.3577488,51.8417544 58.4219284,52.8657835 60.4049763,53.0464945 C60.3604135,55.5329444 60.5609464,59.441657 61.686159,59.611213 C62.5105721,59.5967115 65.1954853,59.698222 66.0198985,59.546514 C66.2427129,60.4232971 65.9976171,61.3580862 65.6968177,62.2739119 C67.2008147,62.4200424 71.0555033,60.4322211 75.266695,62.4155804 Z" id="Path" fill="#FFD8D8" fill-rule="nonzero"></path>
                            <path d="M61.3073745,39.5422496 C60.416117,39.9047872 59.5917039,39.8590517 58.8564164,39.4697421 C57.6532188,40.9533573 58.7227278,45.1877959 61.3630781,44.8821489 C61.407641,46.4561196 62.2543356,48.1527954 63.7694734,48.3312754 C63.5355183,49.5516326 63.5912219,50.7418712 64.7832787,51.0341323 C66.0198985,51.3353173 67.3567847,48.6793114 68.9721889,49.5349 C70.5875931,50.3904887 70.1753866,53.0085675 71.345162,53.9578582 C72.5260782,54.9082643 74.553689,55.984722 76.770692,54.4721038 C78.987695,52.960601 80.7256471,43.0928866 71.6682428,38.77367 C66.9000153,36.5013962 63.546659,38.6297705 61.3073745,39.5422496 Z" id="Path" fill="#FF6F00" fill-rule="nonzero"></path>
                            <path d="M64.9615302,62.8405859 C65.4517219,61.7061223 71.2114734,58.8582504 75.7123237,61.5376818 C75.7123237,62.4512764 75.7568866,64.5417237 75.7568866,64.5417237 C73.0051291,62.2080974 67.267659,62.0206933 64.9615302,62.8405859 Z" id="Path" fill="#2E7D32"></path>
                        </g>
                    </g>
                </g>
            </g>
        </g>
    </g>
</svg>