<?xml version="1.0" encoding="UTF-8"?>
<svg width="248px" height="268px" viewBox="0 0 248 268" version="1.1" xmlns="http://www.w3.org/2000/svg" xmlns:xlink="http://www.w3.org/1999/xlink">
    <!-- Generator: Sketch 64 (93537) - https://sketch.com -->
    <title>Error</title>
    <desc>Created with Sketch.</desc>
    <g id="Utilities" stroke="none" stroke-width="1" fill="none" fill-rule="evenodd">
        <g id="Error" transform="translate(-284.000000, -250.000000)">
            <g transform="translate(284.000000, 250.000000)">
                <path d="M44.0513889,253.698009 C41.5452631,254.311463 38.9239676,253.595449 36.3426428,253.565028 C33.7614873,253.534607 30.7501393,254.609187 30.1173836,257.088226 C29.2676121,260.417713 33.1972124,262.928124 36.5615216,263.75749 C49.620181,266.97698 63.4436459,262.798331 76.7897778,264.502694 C82.4138965,265.220889 87.8833266,266.97821 93.5379313,267.397339 C106.481534,268.356666 119.128179,262.259195 132.089283,262.946522 C138.58282,263.290828 144.894005,265.333458 151.388106,265.661268 C166.926414,266.445282 182.255835,257.409996 197.467264,260.647381 C201.762415,261.561579 205.795047,263.425374 210.050679,264.504875 C220.810574,267.23377 232.13785,264.801481 242.970009,262.367906 C245.120407,261.884748 247.713418,260.944154 247.97876,258.77531 C248.270636,256.382166 245.496966,254.881691 243.189057,254.117137 C217.951657,245.756651 190.931385,241.327532 164.607777,245.191848 C158.617261,246.071152 152.644246,247.377972 146.588806,247.291574 C133.186218,247.100436 120.870968,240.175445 107.713962,237.642498 C82.7825524,232.842789 57.8556589,244.040712 34.9684541,254.946503 L44.0513889,253.698009 Z" id="Fill-1" fill="#F5F5F5"></path>
                <path d="M169,180.5 L72,180.5 L72,245.369724 C72,245.369724 121.193143,261.412845 169,245.369724 L169,180.5 Z" id="Fill-2" fill="#2196F3"></path>
                <path d="M167,181.500271 C167,177.634255 145.733233,174.5 119.50028,174.5 C93.2662072,174.5 72,177.634255 72,181.500271 C72,185.366287 93.2662072,188.5 119.50028,188.5 C145.733233,188.5 167,185.366287 167,181.500271 Z" id="Fill-3" fill="#3F3D56"></path>
                <path d="M167,181.500271 C167,177.634255 145.733233,174.5 119.50028,174.5 C93.2662072,174.5 72,177.634255 72,181.500271 C72,185.366287 93.2662072,188.5 119.50028,188.5 C145.733233,188.5 167,185.366287 167,181.500271 Z" id="Fill-4" fill="#BBDEFB"></path>
                <path d="M174.37596,104.506736 C162.375772,148.965409 121.271536,176.5 121.271536,176.5 C121.271536,176.5 99.6232904,131.951937 111.62404,87.493264 C123.624228,43.0345914 164.728464,15.5 164.728464,15.5 C164.728464,15.5 186.37671,60.0475012 174.37596,104.506736 Z" id="Fill-5" fill="#FF6F00"></path>
                <path d="M64.6238665,104.506736 C76.624635,148.965409 117.728936,176.5 117.728936,176.5 C117.728936,176.5 139.376655,131.951937 127.375887,87.493264 C115.375679,43.0345914 74.2713781,15.5 74.2713781,15.5 C74.2713781,15.5 52.6235467,60.0475012 64.6238665,104.506736 Z" id="Fill-6" fill="#4CAF50"></path>
                <path d="M82.1254281,94.2258933 C114.986236,126.258271 119,175.5 119,175.5 C119,175.5 69.7353793,172.806484 36.8746839,140.774107 C4.01359655,108.741729 0,59.5 0,59.5 C0,59.5 49.2643967,62.1935158 82.1254281,94.2258933 Z" id="Fill-7" fill="#FFA000"></path>
                <path d="M157.874572,94.2258933 C125.013764,126.258271 121,175.5 121,175.5 C121,175.5 170.264621,172.806484 203.125428,140.774107 C235.986236,108.741729 240,59.5 240,59.5 C240,59.5 190.735939,62.1935158 157.874572,94.2258933 Z" id="Fill-8" fill="#FFECB3"></path>
                <path d="M134,15.5002774 C134,7.21567268 127.284327,0.5 118.999723,0.5 C110.715673,0.5 104,7.21567268 104,15.5002774 C104,23.7843273 110.715673,30.5 118.999723,30.5 C127.284327,30.5 134,23.7843273 134,15.5002774 Z" id="Fill-9" fill="#2E7D32"></path>
                <path d="M28.3502182,123.281915 C29.5326701,127.148142 33.6410892,129.5 33.6410892,129.5 C33.6410892,129.5 35.8322954,125.583757 34.6497818,121.718085 C33.4672682,117.851858 29.3589108,115.5 29.3589108,115.5 C29.3589108,115.5 27.1677046,119.416243 28.3502182,123.281915 Z" id="Fill-10" fill="#2E7D32"></path>
                <path d="M47.4050036,144.653269 C46.1468829,148.518769 48.221718,152.5 48.221718,152.5 C48.221718,152.5 52.3366318,150.212791 53.5949964,146.346731 C54.8531171,142.481231 52.778282,138.5 52.778282,138.5 C52.778282,138.5 48.6633682,140.787209 47.4050036,144.653269 Z" id="Fill-11" fill="#2E7D32"></path>
                <path d="M195.942588,169.502364 C193.181015,172.264023 193,176.5 193,176.5 C193,176.5 197.295295,176.259295 200.056867,173.497636 C202.81844,170.735977 203,166.5 203,166.5 C203,166.5 198.70416,166.740705 195.942588,169.502364 Z" id="Fill-12" fill="#2E7D32"></path>
                <path d="M13.3502615,160.281915 C14.5327564,164.148142 18.6411107,166.5 18.6411107,166.5 C18.6411107,166.5 20.8322823,162.583757 19.6497873,158.717529 C18.4672924,154.851858 14.3589381,152.5 14.3589381,152.5 C14.3589381,152.5 12.1676431,156.415688 13.3502615,160.281915 Z" id="Fill-13" fill="#2E7D32"></path>
            </g>
        </g>
    </g>
</svg>