<?xml version="1.0" encoding="UTF-8"?>
<svg width="470px" height="282px" viewBox="0 0 470 282" version="1.1" xmlns="http://www.w3.org/2000/svg" xmlns:xlink="http://www.w3.org/1999/xlink">
    <!-- Generator: Sketch 64 (93537) - https://sketch.com -->
    <title>Feature 2</title>
    <desc>Created with Sketch.</desc>
    <g id="Landing" stroke="none" stroke-width="1" fill="none" fill-rule="evenodd">
        <g transform="translate(-162.000000, -1955.000000)" id="More-Feature">
            <g transform="translate(112.000000, 1553.000000)">
                <g id="Feature-2" transform="translate(50.000000, 402.000000)">
                    <g id="Group">
                        <g transform="translate(81.000000, 35.000000)">
                            <path d="M9.30002426,0.642059278 L294.201026,0.642059278 C298.99049,0.642059278 302.90958,4.57497385 302.90958,9.38004708 L302.90958,237.753923 C302.90958,242.559479 298.99049,246.490946 294.201026,246.490946 L9.30002426,246.490946 C4.50575115,246.490946 0.586661303,242.559479 0.586661303,237.753923 L0.586661303,9.38004708 C0.586661303,4.57497385 4.50575115,0.642059278 9.30002426,0.642059278 Z" id="Path" fill="#2E7D32"></path>
                            <polygon id="Path" fill="#FFFFFF" points="14.0317843 13.7914912 289.464457 13.7914912 289.464457 233.342479 14.0317843 233.342479"></polygon>
                            <path d="M45.7403468,234.615021 L196.353615,234.615021 C198.301138,238.771764 200.667018,242.757258 203.287759,246.490946 L35.5939915,246.490946 C36.4403226,245.728772 37.2818449,244.966598 38.0464281,244.117594 C40.9220302,241.23291 43.5427713,238.008142 45.7403468,234.615021 Z" id="Path" fill="#1639A0"></path>
                            <polygon id="Path" fill="#FFA000" points="77.5402746 184.562858 77.5402746 186.259419 100.030561 186.259419 100.030561 184.562375"></polygon>
                            <polygon id="Path" fill="#FFA000" points="77.5402746 175.82487 77.5402746 177.521431 111.532969 177.521431 111.532969 175.82487"></polygon>
                            <path d="M160.076788,175.485751 C162.529224,175.485751 164.558495,177.521431 164.558495,179.981613 C164.558495,182.442277 162.529224,184.477957 160.076788,184.477957 C157.624351,184.477957 155.59508,182.442277 155.59508,179.981613 C155.59508,177.521431 157.624351,175.485751 160.076788,175.485751 Z" id="Path" fill="#1639A0"></path>
                            <path d="M141.217069,175.485751 C143.669506,175.485751 145.698777,177.521431 145.698777,179.981613 C145.698777,182.442277 143.669506,184.477957 141.217069,184.477957 C138.764633,184.477957 136.735362,182.442277 136.735362,179.981613 C136.735362,177.521431 138.678076,175.485751 141.217069,175.485751 Z" id="Path" fill="#1639A0"></path>
                            <polygon id="Path" fill="#FFA000" points="77.5402746 167.086882 77.5402746 168.783443 111.532969 168.783443 111.532969 167.086882"></polygon>
                            <path d="M129.969522,117.798341 C134.787839,117.798341 138.678076,121.700382 138.678076,126.536329 C138.678076,131.371792 134.787839,135.274316 129.969522,135.274316 C125.151205,135.274316 121.260968,131.371792 121.260968,126.536329 C121.260968,121.700382 125.151205,117.798341 129.969522,117.798341 Z" id="Path" fill="#1639A0"></path>
                            <path d="M97.1597674,84.798134 C101.978084,84.798134 105.868322,88.7001757 105.868322,93.5356394 C105.868322,98.3711031 101.978084,102.273627 97.1597674,102.273627 C92.3366421,102.273627 88.4464044,98.3715855 88.4464044,93.5356394 C88.3646565,88.7001757 92.2548942,84.798134 97.1597674,84.798134 C97.0732108,84.798134 97.0732108,84.798134 97.1597674,84.798134 Z" id="Path" fill="#1639A0"></path>
                            <path d="M179.864585,67.8310784 C184.682902,67.8310784 188.573139,71.7336025 188.573139,76.5690662 C188.573139,81.4045299 184.682902,85.307054 179.864585,85.307054 C175.046268,85.307054 171.151222,81.4050123 171.151222,76.5690662 C171.069474,71.7336025 174.959712,67.8310784 179.864585,67.8310784 C179.778028,67.8310784 179.864585,67.8310784 179.864585,67.8310784 Z" id="Path" fill="#1639A0"></path>
                            <polygon id="Path" fill="#1639A0" points="262.655959 55.7848693 259.357191 72.4123233 254.365762 67.4070588 251.153551 64.1832555 246.080373 59.0930906"></polygon>
                            <polygon id="Path" fill="#FFA000" points="47.4330089 34.49127 53.3525176 40.4294742 47.4330089 46.3676783 41.5135002 40.4294742"></polygon>
                            <path d="M47.4330089,32.4551076 C47.1781479,32.4551076 47.0098434,32.540008 46.8415389,32.7098088 L39.7342815,39.8356538 C39.3976726,40.1752554 39.3976726,40.6841754 39.7342815,41.0232946 L46.8415389,48.149622 C47.1781479,48.4887412 47.68787,48.4887412 48.0244789,48.149622 L55.1269277,41.0232946 C55.4683453,40.6841754 55.4683453,40.174773 55.1269277,39.8356538 L48.0244789,32.7098088 C47.8561745,32.540008 47.6013134,32.4551076 47.4330089,32.4551076 Z" id="Path" fill="#FFA000"></path>
                            <polygon id="Path" fill="#1639A0" points="146.035386 31.097666 155.00361 31.097666 155.00361 39.3267338 146.035386 39.3267338"></polygon>
                            <polygon id="Path" fill="#FFA000" points="71.5342093 31.097666 128.195112 31.097666 128.195112 39.3267338 71.5342093 39.3267338"></polygon>
                            <polygon id="Path" fill="#FFA000" points="69.8415472 29.4011051 69.8415472 41.023777 129.882965 41.0232946 129.882965 29.4011051"></polygon>
                            <path d="M210.89993,116.864919 C215.973107,116.864919 220.031649,112.793076 220.031649,107.702911 C220.031649,102.612746 215.973107,98.5409039 210.89993,98.5409039 C205.826752,98.5409039 201.76821,102.612746 201.76821,107.702911 C201.76821,112.793076 205.826752,116.864919 210.89993,116.864919 Z" id="Path" fill="#97C5FF"></path>
                            <path d="M188.996305,76.5690662 C188.996305,71.4789013 184.937763,67.4070588 179.864585,67.4070588 C174.791407,67.4070588 170.732865,71.4789013 170.732865,76.5690662 C170.732865,81.6592311 174.791407,85.7310736 179.864585,85.7310736 C184.851206,85.7310736 188.996305,81.6592311 188.996305,76.5690662 Z" id="Path" fill="#97C5FF"></path>
                            <path d="M165.063409,179.981613 C165.063409,177.26673 162.865833,175.061249 160.158536,175.061249 C157.451238,175.061249 155.253662,177.267212 155.253662,179.981613 C155.253662,182.696496 157.451238,184.901977 160.158536,184.901977 C162.865833,184.986877 165.063409,182.781397 165.063409,179.981613 C165.063409,180.066513 165.063409,180.066513 165.063409,179.981613 Z" id="Path" fill="#97C5FF"></path>
                            <polygon id="Path" fill="#97C5FF" points="155.508524 39.7507534 155.508524 30.6736464 145.698777 30.6736464 145.698777 39.7507534"></polygon>
                            <path d="M146.121943,179.981613 C146.121943,177.26673 143.924367,175.061249 141.217069,175.061249 C138.509772,175.061249 136.312196,177.267212 136.312196,179.981613 C136.312196,182.696496 138.509772,184.901977 141.217069,184.901977 C143.924367,184.986877 146.121943,182.781397 146.121943,179.981613 C146.121943,180.066513 146.121943,180.066513 146.121943,179.981613 Z" id="Path" fill="#97C5FF"></path>
                            <path d="M129.969522,135.698336 C135.0427,135.698336 139.101242,131.626011 139.101242,126.536329 C139.101242,121.446164 135.0427,117.374321 129.969522,117.374321 C124.896344,117.374321 120.837802,121.446164 120.837802,126.536329 C120.837802,131.626011 124.896344,135.698336 129.969522,135.698336 Z" id="Path" fill="#97C5FF"></path>
                            <polygon id="Path" fill="#FFA000" points="128.618278 39.7507534 128.618278 30.6736464 71.1110438 30.6736464 71.1110438 39.7507534"></polygon>
                            <path d="M106.291487,93.5356394 C106.291487,88.4454745 102.232945,84.373632 97.1597674,84.373632 C92.081781,84.373632 88.0232389,88.4454745 88.0232389,93.5356394 C88.0232389,98.6258043 92.081781,102.697647 97.1597674,102.697647 C102.146388,102.782547 106.291487,98.6258043 106.291487,93.5356394 Z" id="Path" fill="#97C5FF"></path>
                            <polygon id="Path" fill="#97C5FF" points="245.234042 58.8383894 254.029153 67.6612776 259.612053 73.2608449 263.160873 55.2759493"></polygon>
                            <polygon id="Path" fill="#FFA000" points="155.508524 39.7507534 145.698777 39.7507534 145.698777 30.6736464 155.508524 30.6736464"></polygon>
                            <polygon id="Path" fill="#FFA000" points="263.160873 55.2754669 259.612053 73.2603625 254.029153 67.6612776 245.234042 58.8383894"></polygon>
                            <path d="M141.217069,175.061249 C143.924367,175.061249 146.121943,177.267212 146.121943,179.981613 C146.121943,182.696496 143.924367,184.901977 141.217069,184.901977 C138.509772,184.901977 136.312196,182.696014 136.312196,179.981613 C136.312196,177.267212 138.509772,175.061249 141.217069,175.061249 Z" id="Path" fill="#FFA000"></path>
                            <path d="M160.076788,175.061249 C162.784085,175.061249 164.981661,177.267212 164.981661,179.981613 C164.981661,182.696496 162.779277,184.901977 160.076788,184.901977 C157.36949,184.901977 155.171915,182.696014 155.171915,179.981613 C155.171915,177.267212 157.36949,175.061249 160.076788,175.061249 Z" id="Path" fill="#FFA000"></path>
                            <polygon id="Path" fill="#FFA000" points="128.618278 39.7507534 71.1110438 39.7507534 71.1110438 30.6736464 128.618278 30.6736464"></polygon>
                            <path d="M179.864585,67.4070588 C184.937763,67.4070588 188.996305,71.4789013 188.996305,76.5690662 C188.996305,81.6592311 184.937763,85.7310736 179.864585,85.7310736 C174.791407,85.7310736 170.732865,81.6592311 170.732865,76.5690662 C170.646309,71.4789013 174.791407,67.4070588 179.864585,67.4070588 Z" id="Path" fill="#FF6F00"></path>
                            <path d="M97.1597674,84.373632 C102.232945,84.373632 106.291487,88.4454745 106.291487,93.5356394 C106.291487,98.6258043 102.232945,102.697647 97.1597674,102.697647 C92.081781,102.697647 88.0232389,98.6258043 88.0232389,93.5356394 C87.941491,88.5303749 92.081781,84.373632 97.1597674,84.373632 C97.0732108,84.373632 97.0732108,84.373632 97.1597674,84.373632 Z" id="Path" fill="#FF6F00"></path>
                            <path d="M210.89993,98.5409039 C215.973107,98.5409039 220.031649,102.612746 220.031649,107.702911 C220.031649,112.793076 215.973107,116.864919 210.89993,116.864919 C205.826752,116.864919 201.76821,112.793076 201.76821,107.702911 C201.681653,102.612746 205.826752,98.5409039 210.89993,98.5409039 Z" id="Path" fill="#FF6F00"></path>
                            <path d="M129.969522,117.374321 C135.0427,117.374321 139.101242,121.446164 139.101242,126.536329 C139.101242,131.626011 135.0427,135.698336 129.969522,135.698336 C124.896344,135.698336 120.837802,131.626011 120.837802,126.536329 C120.837802,121.446164 124.896344,117.374321 129.969522,117.374321 Z" id="Path" fill="#FF6F00"></path>
                            <polygon id="Path" fill="#FFA000" points="47.4330089 33.8974496 53.9439877 40.4294742 47.4330089 46.9619811 40.9220302 40.4294742"></polygon>
                            <path d="M9.46352003,0.218039665 L293.77786,0.218039665 C298.851038,0.218039665 302.90958,4.28988216 302.90958,9.38004708 L302.90958,124.161047 C298.851038,122.379586 294.537635,120.937244 290.224232,119.834503 L290.224232,13.3674716 C290.224232,13.1127704 290.055927,12.9434519 289.801066,12.9434519 L13.4355056,12.9434519 C13.1806445,12.9434519 13.01234,13.1127704 13.01234,13.3674716 L13.01234,186.683438 C9.96843345,179.133574 5.74158685,172.092147 0.326991546,165.984142 L0.326991546,9.46494748 C0.326991546,4.37478256 4.47209026,0.218039665 9.46352003,0.218039665 Z" id="Path" fill="#2E7D32"></path>
                            <path d="M204.13409,246.915449 L34.4927994,246.915449 C35.5939915,245.984438 36.7769315,244.966598 37.791567,243.861928 C40.7537257,240.890414 43.2879102,237.669023 45.5720423,234.191001 L196.608476,234.191001 C198.724303,238.601963 201.258488,242.844088 204.13409,246.915449 Z" id="Path" fill="#2E7D32"></path>
                            <path d="M263.670595,53.8336073 L263.50229,53.8336073 L244.13285,57.735649 C243.714493,57.8205494 243.373075,58.244569 243.459632,58.753489 C243.459632,58.9232898 243.54138,59.0930906 243.714493,59.177991 L249.884054,65.3708963 L250.89869,66.3887364 L217.579213,99.8129627 C213.688975,96.5047415 207.937771,96.5047415 204.13409,99.8129627 L187.726808,83.355792 C191.448741,78.9443479 190.943828,72.3269405 186.543868,68.5942172 C182.148717,64.8614939 175.551182,65.370414 171.829249,69.7818581 C168.530481,73.6843821 168.530481,79.4527855 171.829249,83.3553096 L136.648805,118.64638 C132.758568,115.337676 127.007363,115.337676 123.203682,118.64638 L105.021991,100.406783 C108.743924,95.9953391 108.234202,89.3784141 103.839051,85.6456908 C99.4390908,81.9129675 92.8463642,82.4218876 89.124431,86.8333316 C85.8256634,90.7358557 85.8256634,96.5042591 89.124431,100.406783 L57.3245032,132.304249 L58.5122519,133.49189 L90.307371,101.594424 C94.1976087,104.902645 99.9488129,104.902645 103.752494,101.594424 L121.934186,119.833538 C118.217061,124.244983 118.721975,130.861907 123.121934,134.594631 C127.517085,138.327354 134.114621,137.818434 137.831745,133.40699 C141.130513,129.504948 141.130513,123.736062 137.831745,119.834021 L173.012189,84.5429504 C176.902426,87.8511717 182.65363,87.8511717 186.46212,84.5429504 L202.864593,101.000604 C199.14266,105.412048 199.652382,112.028973 204.052342,115.761696 C208.447493,119.494419 215.045028,118.985499 218.762153,114.574055 C222.06092,110.672013 222.06092,104.903128 218.762153,101.000604 L252.086438,67.5763772 L253.101074,68.5942172 L259.270635,74.7871226 C259.612053,75.1267242 260.116966,75.1267242 260.453575,74.7871226 C260.540131,74.7022222 260.626688,74.5324214 260.708436,74.363103 L264.598674,54.9358653 L264.598674,54.7660645 C264.598674,54.2576269 264.175508,53.8336073 263.670595,53.8336073 Z" id="Path" fill="#FF6F00"></path>
                            <path d="M47.3224088,56.6531689 L47.3224088,210.928291 L226.960985,210.928291 M39.4746118,72.968747 L47.3224088,72.968747 M39.4746118,107.674198 L47.3224088,107.674198 M39.4746118,142.380131 L47.3224088,142.380131 M39.4746118,177.086064 L47.3224088,177.086064 M219.400015,218.817757 L219.400015,210.943728 M79.5822772,218.878056 L79.5822772,211.004026 M114.570373,218.878056 L114.570373,211.004026 M149.558468,218.878056 L149.558468,211.004026 M184.546563,218.878056 L184.546563,211.004026" id="Shape" stroke="#2E7D32" stroke-width="0.5"></path>
                        </g>
                        <g transform="translate(0.000000, 127.000000)">
                            <path d="M41.0735589,24.2043779 C40.5646229,24.2043779 40.2204852,24.6266478 40.2204852,25.0493982 L40.2204852,31.301299 C40.2204852,31.808119 40.5646229,32.1463193 41.0735589,32.1463193 C41.5873419,32.1463193 41.9266325,31.808119 41.9266325,31.301299 L41.9266325,25.0493982 C41.9266325,24.6266478 41.5873419,24.2043779 41.0735589,24.2043779 Z" id="Path" fill="#4CAF50"></path>
                            <path d="M34.7675994,21.6697975 C34.5107079,21.6697975 34.3400932,21.7543476 34.1689938,21.9234477 L29.7368882,26.3166884 C29.3956588,26.6544082 29.3956588,27.1612282 29.6515809,27.4989481 C29.9923256,27.8371483 30.5041699,27.8371483 30.8449146,27.5834981 L35.3637816,23.1061878 C35.7030723,22.7679876 35.7030723,22.2611676 35.3637816,21.9234477 C35.1941363,21.7543476 35.0196439,21.6697975 34.7675994,21.6697975 Z" id="Path" fill="#4CAF50"></path>
                            <path d="M47.3795183,21.6697975 C46.8705823,21.6697975 46.5312916,22.0079978 46.5312916,22.5148178 C46.5312916,22.7679876 46.6136908,22.9370877 46.7833361,23.1061878 L51.2183498,27.4994285 C51.5576405,27.8371483 52.0714235,27.8371483 52.4107142,27.5839785 C52.7500048,27.2457783 52.7500048,26.7389583 52.4979603,26.4012384 L47.9805475,21.9234477 C47.8060551,21.7543476 47.6364098,21.6697975 47.3795183,21.6697975 Z" id="Path" fill="#4CAF50"></path>
                            <path d="M50.0259855,15.4178966 C49.5122025,15.4178966 49.1729118,15.7560969 49.1729118,16.2629169 C49.1729118,16.7697369 49.5122025,17.1079372 50.0259855,17.1079372 L56.3319449,17.1079372 C56.8457279,17.1079372 57.1850186,16.7697369 57.1850186,16.2629169 C57.1850186,15.7560969 56.8457279,15.4178966 56.3319449,15.4178966 L50.0259855,15.4178966 Z" id="Path" fill="#4CAF50"></path>
                            <path d="M25.9009649,15.4178966 C25.3896054,15.4178966 25.0483759,15.7560969 25.0483759,16.2629169 C25.0483759,16.7697369 25.3896054,17.1079372 25.9009649,17.1079372 L32.2083784,17.1079372 C32.7202226,17.1079372 33.0609674,16.7697369 33.0609674,16.2629169 C33.0609674,15.7560969 32.7202226,15.4178966 32.2083784,15.4178966 L25.9009649,15.4178966 Z" id="Path" fill="#4CAF50"></path>
                            <path d="M51.814532,4.77323553 C51.5576405,4.77323553 51.3879952,4.85778559 51.2183498,5.02640533 L46.7833361,9.41964596 C46.4440454,9.75784622 46.5312916,10.2646662 46.8705823,10.6023861 C47.2098729,10.9401059 47.723656,10.9401059 48.0629466,10.6023861 L52.4979603,6.20914545 C52.837251,5.87094519 52.837251,5.36412519 52.4979603,5.02640533 C52.2410688,4.85778559 52.0714235,4.77323553 51.814532,4.77323553 Z" id="Path" fill="#4CAF50"></path>
                            <path d="M30.3335551,4.77323553 C29.8221956,4.77323553 29.4809661,5.19550546 29.4809661,5.61777539 C29.4809661,5.87142559 29.5662735,6.04052572 29.7368882,6.20914545 L34.1689938,10.6023861 C34.5107079,10.9405863 35.0196439,10.9405863 35.3637816,10.6869361 C35.7030723,10.3492163 35.7030723,9.84239629 35.4461808,9.50419602 L30.930222,5.02640533 C30.7596073,4.85778559 30.5894772,4.77323553 30.3335551,4.77323553 Z" id="Path" fill="#4CAF50"></path>
                            <path d="M41.0735589,0.295444832 C40.647022,0.295444832 40.2204852,0.717714762 40.2204852,1.13998469 L40.2204852,7.39188557 C40.2204852,7.89918597 40.5646229,8.23690583 41.0735589,8.23690583 C41.5873419,8.23690583 41.9266325,7.89918597 41.9266325,7.39188557 L41.9266325,1.13998469 C41.9266325,0.71819516 41.5873419,0.295444832 41.0735589,0.295444832 Z" id="Path" fill="#4CAF50"></path>
                            <path d="M57.6067084,106.54173 C60.6991005,106.54173 63.2050044,104.05567 63.2050044,100.988808 C63.2050044,97.9214665 60.6991005,95.4354063 57.6067084,95.4354063 C54.5094693,95.4354063 52.0035654,97.9214665 52.0035654,100.988808 C52.0035654,104.05567 54.5094693,106.54173 57.6067084,106.54173 Z" id="Path" fill="#4CAF50" fill-rule="nonzero"></path>
                            <path d="M58.0671743,110.311894 C66.0744341,110.311894 72.5645799,116.743944 72.5645799,124.67868 L72.5645799,153.717784 L43.5697688,153.717784 L43.5697688,124.67868 C43.5697688,116.743944 50.0599145,110.311894 58.0671743,110.311894 Z" id="Path" fill="#2196F3" fill-rule="nonzero"></path>
                            <path d="M43.5697688,153.717784 L72.5645799,153.717784 L72.5645799,148.928215 C72.5645799,140.994921 66.0744341,134.56239 58.0671743,134.56239 C50.0599145,134.56239 43.5697688,140.994921 43.5697688,148.928215 L43.5697688,153.717784 Z" id="Path" fill="#BBDEFB" fill-rule="nonzero"></path>
                            <path d="M58.0671743,153.717784 L72.5645799,153.717784 L72.5645799,148.928215 C72.5645799,140.994921 66.0744341,134.56239 58.0671743,134.56239 L58.0671743,153.717784 Z" id="Path" fill="#0D47A1" fill-rule="nonzero"></path>
                            <path d="M58.1204914,150.965103 C60.9269099,150.965103 63.2050044,148.707232 63.2050044,145.923325 C63.2050044,143.137977 60.9269099,140.879625 58.1204914,140.879625 C55.3092259,140.879625 53.0311314,143.137977 53.0311314,145.923325 C53.0311314,148.707232 55.3092259,150.965103 58.1204914,150.965103 Z" id="Path" fill="#2196F3" fill-rule="nonzero"></path>
                            <path d="M58.1204914,124.576835 C59.1674455,124.576835 60.0205192,123.732776 60.0205192,122.691753 C60.0205192,121.650731 59.1674455,120.806671 58.1204914,120.806671 C57.0686903,120.806671 56.2156167,121.650731 56.2156167,122.691753 C56.2156167,123.732776 57.0686903,124.576835 58.1204914,124.576835 Z" id="Path" fill="#FFFFFF" fill-rule="nonzero"></path>
                            <path d="M58.1204914,118.870667 C59.1674455,118.870667 60.0205192,118.027088 60.0205192,116.986065 C60.0205192,115.944562 59.1674455,115.100983 58.1204914,115.100983 C57.0686903,115.100983 56.2156167,115.944562 56.2156167,116.986065 C56.2156167,118.027088 57.0686903,118.870667 58.1204914,118.870667 Z" id="Path" fill="#FFFFFF" fill-rule="nonzero"></path>
                            <path d="M58.1204914,130.384849 C59.1674455,130.384849 60.0205192,129.540789 60.0205192,128.499766 C60.0205192,127.458744 59.1674455,126.614684 58.1204914,126.614684 C57.0686903,126.614684 56.2156167,127.458744 56.2156167,128.499766 C56.2156167,129.540789 57.0686903,130.384849 58.1204914,130.384849 Z" id="Path" fill="#FFFFFF" fill-rule="nonzero"></path>
                            <path d="M58.0671743,93.1357406 C45.9690385,93.0987499 36.1732322,83.3053542 36.1732322,71.2295872 L36.1732322,71.1608903 L58.0671743,71.1608903 L58.0671743,93.1357406 Z" id="Path" fill="#FFECB3" fill-rule="nonzero"></path>
                            <path d="M58.0671743,93.1357406 C70.1653101,93.0987499 79.9611164,83.3053542 79.9611164,71.2295872 C79.9611164,71.2065281 79.9611164,71.1839494 79.9611164,71.1608903 L58.0671743,71.1608903 L58.0671743,93.1357406 Z" id="Path" fill="#4CAF50" fill-rule="nonzero"></path>
                            <path d="M36.1732322,49.5982215 C48.271368,49.6352122 58.0671743,59.4290882 58.0671743,71.5043749 L58.0671743,71.435678 L36.1732322,71.435678 L36.1732322,49.5982215 Z" id="Path" fill="#E0E0E0" fill-rule="nonzero"></path>
                            <path d="M58.1350324,49.5295246 C62.3083077,49.5295246 65.6915203,46.177787 65.6915203,42.0439614 C65.6915203,37.9101357 62.3083077,34.5588786 58.1350324,34.5588786 C53.9666042,34.5588786 50.5833916,37.9101357 50.5833916,42.0439614 C50.5833916,46.177787 53.9666042,49.5295246 58.1350324,49.5295246 Z" id="Path" fill="#4CAF50" fill-rule="nonzero"></path>
                            <path d="M36.1732322,49.5982215 C48.271368,49.6352122 58.0671743,59.4290882 58.0671743,71.5043749 L58.0671743,71.435678 L36.1732322,71.435678 L36.1732322,49.5982215 Z" id="Path" fill="#C8E6C9" fill-rule="nonzero"></path>
                            <path d="M79.9611164,49.5982215 C67.8629806,49.6352122 58.0671743,59.4290882 58.0671743,71.5043749 L58.0671743,71.435678 L79.9611164,71.435678 L79.9611164,49.5982215 Z" id="Path" fill="#FFA000" fill-rule="nonzero"></path>
                            <path d="M89.9798851,87.363277 C83.6351496,81.9568768 82.8935572,72.4757399 88.3319019,66.1637892 C88.3415959,66.1517793 88.3512899,66.1397693 88.360984,66.1277594 L99.8774786,75.876478 L89.9798851,87.363277 Z" id="Path" fill="#FFECB3" fill-rule="nonzero"></path>
                            <path d="M89.9798851,87.363277 C96.4021728,92.7648732 105.999252,92.0351485 111.437596,85.7231979 C111.44729,85.7111879 111.456984,85.699178 111.471525,85.6866876 L99.8774786,75.876478 L89.9798851,87.363277 Z" id="Path" fill="#FFA000" fill-rule="nonzero"></path>
                            <path d="M85.7048227,92.3988099 C86.1555946,92.7816872 86.8341759,92.7288434 87.2219367,92.280632 C87.6096975,91.8324205 87.5563804,91.158422 87.1007615,90.7760251 C86.6499896,90.3931478 85.9714082,90.4459916 85.5836475,90.894203 C85.2007337,91.3424145 85.2540508,92.0159326 85.7048227,92.3988099 Z" id="Path" fill="#4CAF50" fill-rule="nonzero"></path>
                            <path d="M87.8229659,89.9425344 C88.2737378,90.3254117 88.9523191,90.2720875 89.3400799,89.8243565 C89.7278406,89.376145 89.6745235,88.7021465 89.2189046,88.3197496 C88.7681328,87.9368723 88.0895514,87.9897161 87.7017907,88.4379275 C87.3140299,88.886139 87.367347,89.5596571 87.8229659,89.9425344 Z" id="Path" fill="#4CAF50" fill-rule="nonzero"></path>
                            <path d="M83.5527505,94.899282 C84.0035224,95.2816789 84.6821037,95.2288351 85.0698645,94.7806237 C85.4527782,94.3324122 85.3994611,93.6588941 84.9486892,93.2760168 C84.4979173,92.8936199 83.814489,92.9464637 83.4315752,93.3946751 C83.0438145,93.8428866 83.0971316,94.5164047 83.5527505,94.899282 Z" id="Path" fill="#4CAF50" fill-rule="nonzero"></path>
                            <path d="M70.102299,112.150378 L82.8402401,97.3685282 C83.2134598,96.9323268 83.1601427,96.2770638 82.7239119,95.9047552 C82.282834,95.5324467 81.6187937,95.5838493 81.2455739,96.0200508 L68.5076329,110.8019 C68.1295661,111.238102 68.1828832,111.893365 68.6239611,112.265673 C69.065039,112.637982 69.7242323,112.586579 70.102299,112.150378 Z" id="Path" fill="#4CAF50" fill-rule="nonzero"></path>
                            <path d="M70.102299,112.150378 L82.8402401,97.3685282 C83.2134598,96.9323268 83.1601427,96.2770638 82.7239119,95.9047552 L68.6239611,112.265673 C69.065039,112.637982 69.7242323,112.586579 70.102299,112.150378 Z" id="Path" fill="#2E7D32" fill-rule="nonzero"></path>
                            <line x1="68.6239611" y1="112.268556" x2="82.7239119" y2="95.9076376" id="Path" stroke="#A8A8A8" stroke-width="0.5"></line>
                            <path d="M113.051651,60.6637114 C118.46576,65.2471896 119.120107,73.2967402 114.515447,78.6435711 L94.9044468,62.0458167 C99.5139529,56.6994662 107.637541,56.0807135 113.051651,60.6637114 Z" id="Path" fill="#4CAF50" fill-rule="nonzero"></path>
                            <path d="M110.075587,64.2657363 C114.360343,67.8946636 114.88382,74.2652228 111.238869,78.4946477 L95.7138974,65.3523968 C99.3588486,61.1229719 105.785983,60.6363287 110.075587,64.2657363 Z" id="Path" fill="#C8E6C9" fill-rule="nonzero"></path>
                            <path d="M106.813549,68.1252547 C109.993188,70.8174056 110.366407,75.5550917 107.652082,78.7069836 C107.632694,78.7310035 107.608459,78.7550234 107.589071,78.7790433 L96.0725761,69.0308051 L96.1355873,68.958265 C98.8208305,65.8375989 103.536971,65.4407901 106.716609,68.0455086 L106.813549,68.1252547 Z" id="Path" fill="#2E7D32" fill-rule="nonzero"></path>
                            <path d="M27.815049,87.363277 C34.1617233,81.9568768 34.9033157,72.4757399 29.4644863,66.1637892 C29.4538229,66.1517793 29.4436442,66.1397693 29.4329807,66.1277594 L17.9164861,75.876478 L27.815049,87.363277 Z" id="Path" fill="#4CAF50" fill-rule="nonzero"></path>
                            <path d="M27.8145643,87.363277 C21.3937307,92.7648732 11.7971365,92.0351485 6.35782242,85.7231979 C6.3476437,85.7111879 6.33698028,85.699178 6.32680156,85.6866876 L17.9164861,75.876478 L27.8145643,87.363277 Z" id="Path" fill="#2E7D32" fill-rule="nonzero"></path>
                            <path d="M32.0910808,92.3988099 C31.6388548,92.7816872 30.959304,92.7288434 30.5729974,92.280632 C30.1866907,91.8324205 30.2404925,91.158422 30.6922338,90.7760251 C31.1444598,90.3931478 31.8244953,90.4459916 32.2103172,90.894203 C32.5966239,91.3424145 32.5433068,92.0159326 32.0910808,92.3988099 Z" id="Path" fill="#4CAF50" fill-rule="nonzero"></path>
                            <path d="M29.9743917,89.9425344 C29.5221657,90.3254117 28.842615,90.2720875 28.4563083,89.8243565 C28.0704864,89.376145 28.1238035,88.7021465 28.5755448,88.3197496 C29.0277707,87.9368723 29.7078062,87.9897161 30.0936281,88.4379275 C30.4799348,88.886139 30.4266177,89.5596571 29.9743917,89.9425344 Z" id="Path" fill="#4CAF50" fill-rule="nonzero"></path>
                            <path d="M34.2455765,94.899282 C33.7933505,95.2816789 33.1137998,95.2288351 32.7274931,94.7806237 C32.3411865,94.3324122 32.3949883,93.6588941 32.8467296,93.2760168 C33.2989556,92.8936199 33.978991,92.9464637 34.364813,93.3946751 C34.7530584,93.8428866 34.6997413,94.5164047 34.2455765,94.899282 Z" id="Path" fill="#4CAF50" fill-rule="nonzero"></path>
                            <path d="M47.6945739,112.150378 L34.9566328,97.3685282 C34.5834131,96.9323268 34.6318832,96.2770638 35.072961,95.9047552 C35.5140389,95.5324467 36.1732322,95.5838493 36.551299,96.0200508 L49.28924,110.8019 C49.6624598,111.238102 49.6139897,111.893365 49.1729118,112.265673 C48.7318339,112.637982 48.0726406,112.586579 47.6945739,112.150378 Z" id="Path" fill="#4CAF50" fill-rule="nonzero"></path>
                            <path d="M47.6945739,112.150378 L34.9566328,97.3685282 C34.5834131,96.9323268 34.6318832,96.2770638 35.072961,95.9047552 L49.1729118,112.265673 C48.7318339,112.637982 48.0726406,112.586579 47.6945739,112.150378 Z" id="Path" fill="#2E7D32" fill-rule="nonzero"></path>
                            <line x1="49.1680648" y1="112.265193" x2="35.072961" y2="95.9042748" id="Path" stroke="#A8A8A8" stroke-width="0.5"></line>
                            <path d="M4.74425294,60.6637114 C-0.67034142,65.2471896 -1.32468771,73.2967402 3.28239486,78.6435711 L22.8900026,62.0458167 C18.28292,56.6994662 10.1588473,56.0807135 4.74425294,60.6637114 Z" id="Path" fill="#FF6F00" fill-rule="nonzero"></path>
                            <path d="M7.7217709,64.2657363 C3.43459096,67.8946636 2.91353744,74.2652228 6.55800391,78.4946477 L22.0834602,65.3523968 C18.4389937,61.1229719 12.0094355,60.6363287 7.7217709,64.2657363 Z" id="Path" fill="#C8E6C9" fill-rule="nonzero"></path>
                            <path d="M10.9847777,68.1252547 C7.80465476,70.8174056 7.42852682,75.5550917 10.1443063,78.7069836 C10.1651484,78.7310035 10.1864753,78.7550234 10.2073174,78.7790433 L21.7228427,69.0308051 L21.6612856,68.958265 C18.9721647,65.8375989 14.2603868,65.4407901 11.0807485,68.0455086 L10.9847777,68.1252547 Z" id="Path" fill="#FFA000" fill-rule="nonzero"></path>
                        </g>
                        <g transform="translate(343.000000, 76.000000)">
                            <path d="M84.5142092,24.2416765 C84.003054,24.2416765 83.6654987,24.6654382 83.6654987,25.0891999 L83.6654987,31.3636693 C83.6654987,31.8722798 84.003054,32.2111928 84.5142092,32.2111928 C85.0205422,32.2111928 85.3629197,31.8722798 85.3629197,31.3636693 L85.3629197,25.0891999 C85.3629197,24.5805895 84.9385645,24.2416765 84.5142092,24.2416765 Z" id="Path" fill="#4CAF50"></path>
                            <path d="M78.2356801,21.6132933 C77.9849247,21.6132933 77.8113249,21.6981421 77.6425472,21.8678396 L73.2350391,26.2766005 C72.8926615,26.6155134 72.8926615,27.1241239 73.1482391,27.4630368 C73.4857945,27.8024319 73.9969497,27.8024319 74.334505,27.5478856 L74.4213049,27.4630368 L78.8288131,23.0547581 C79.1711906,22.715363 79.1711906,22.2067526 78.8288131,21.8678396 C78.6600354,21.6981421 78.4912577,21.6132933 78.2356801,21.6132933 Z" id="Path" fill="#4CAF50"></path>
                            <path d="M90.787916,21.6132933 C90.281583,21.6132933 89.9392055,21.9522063 89.9392055,22.4612988 C89.9392055,22.715363 90.0260054,22.8850605 90.1947831,23.0547581 L94.6022912,27.4635189 C94.9446688,27.8024319 95.4510017,27.8872806 95.7933793,27.5483677 C96.1309346,27.2089727 96.2177346,26.7003622 95.875357,26.3614492 L91.381049,21.8678396 C91.2122713,21.6981421 91.0434936,21.6132933 90.787916,21.6132933 Z" id="Path" fill="#4CAF50"></path>
                            <path d="M93.4160254,15.339306 C92.9096924,15.339306 92.5673148,15.6787011 92.5673148,16.1873115 C92.5673148,16.695922 92.9096924,17.035317 93.4160254,17.035317 L99.6945544,17.035317 C100.200887,17.035317 100.543265,16.695922 100.543265,16.1873115 C100.543265,15.6787011 100.200887,15.339306 99.6945544,15.339306 L93.4160254,15.339306 Z" id="Path" fill="#4CAF50"></path>
                            <path d="M69.4158417,15.339306 C68.9095087,15.339306 68.5671311,15.6787011 68.5671311,16.1873115 C68.5671311,16.695922 68.9095087,17.035317 69.4158417,17.035317 L75.6943707,17.035317 C76.2007037,17.035317 76.5430813,16.695922 76.5430813,16.1873115 C76.5430813,15.6787011 76.2007037,15.339306 75.6943707,15.339306 L69.4158417,15.339306 Z" id="Path" fill="#4CAF50"></path>
                            <path d="M95.2002464,4.65655782 C94.9446688,4.65655782 94.7758911,4.74140658 94.6022912,4.9111041 L90.1947831,9.31986497 C89.8572278,9.65926002 89.7704278,10.1678705 90.1079832,10.5067834 C90.4503607,10.8456964 90.9566937,10.9305451 91.2990712,10.5916322 L91.381049,10.5067834 L95.7933793,6.09802256 C96.1309346,5.75862752 96.1309346,5.25001705 95.7933793,4.9111041 C95.6246016,4.74140658 95.4510017,4.65655782 95.2002464,4.65655782 Z" id="Path" fill="#4CAF50"></path>
                            <path d="M73.828172,4.65655782 C73.3170168,4.65655782 72.9794615,5.08080162 72.9794615,5.50456333 C72.9794615,5.75910961 73.0662614,5.92832504 73.2350391,6.09802256 L77.6425472,10.5067834 C77.9849247,10.8461785 78.4912577,10.8461785 78.8288131,10.5916322 C79.1711906,10.2527192 79.1711906,9.74362668 78.915613,9.40471374 L74.4213049,4.9111041 C74.2525273,4.74140658 73.9969497,4.65655782 73.828172,4.65655782 Z" id="Path" fill="#4CAF50"></path>
                            <path d="M84.5142092,0.248279043 C84.003054,0.248279043 83.6654987,0.67204075 83.6654987,1.09580246 L83.6654987,7.36978977 C83.6654987,7.87840024 84.003054,8.21779528 84.5142092,8.21779528 C85.0205422,8.21779528 85.3629197,7.87840024 85.3629197,7.36978977 L85.3629197,1.09580246 C85.3629197,0.587191989 84.9385645,0.248279043 84.5142092,0.248279043 Z" id="Path" fill="#4CAF50"></path>
                            <path d="M63.4700457,73.5595364 C75.4966598,73.5595364 85.2471865,83.2703806 85.2471865,95.2494829 L41.692905,95.2494829 C41.692905,83.2703806 51.4386095,73.5595364 63.4700457,73.5595364 Z" id="Path" fill="#4CAF50" fill-rule="nonzero"></path>
                            <path d="M63.6291789,81.4909671 C73.1530614,81.4909671 80.8734339,89.1726725 80.8734339,98.6487363 L46.384924,98.6487363 C46.384924,89.1726725 54.1052965,81.4909671 63.6291789,81.4909671 Z" id="Path" fill="#C8E6C9" fill-rule="nonzero"></path>
                            <path d="M63.7111567,90.0698517 C70.7757074,90.0698517 76.4996813,95.7952147 76.4996813,102.857428 C76.4996813,102.911422 76.4996813,102.965417 76.4996813,103.019412 L50.922632,103.019412 L50.9178098,102.857428 C50.9178098,95.8656006 56.5308727,90.1845904 63.498979,90.071298 L63.7111567,90.0698517 Z" id="Path" fill="#2E7D32" fill-rule="nonzero"></path>
                            <path d="M63.388068,133.450227 C49.2493221,133.406356 37.8061965,121.936828 37.8061965,107.794565 C37.8061965,107.767568 37.8061965,107.740088 37.8061965,107.713091 L63.388068,107.713091 L63.388068,133.450227 Z" id="Path" fill="#FFECB3" fill-rule="nonzero"></path>
                            <path d="M63.388068,133.450227 C77.6136139,133.406838 89.1290727,121.936828 89.1290727,107.794565 C89.1290727,107.767568 89.1290727,107.740088 89.1290727,107.713091 L63.388068,107.713091 L63.388068,133.450227 Z" id="Path" fill="#FFA000" fill-rule="nonzero"></path>
                            <path d="M61.0444696,203.487575 L61.0444696,159.309333 C61.0444696,158.006229 62.1005355,156.949477 63.4025347,156.949477 C64.7045338,156.949477 65.7605997,158.006229 65.7605997,159.309333 L65.7605997,203.487575 C65.7605997,204.789232 64.7045338,205.845021 63.4025347,205.845021 C62.1005355,205.845021 61.0444696,204.789232 61.0444696,203.487575 Z" id="Path" fill="#4CAF50" fill-rule="nonzero"></path>
                            <path d="M61.0444696,203.487575 L61.0444696,159.309333 C61.0444696,158.006229 62.1005355,156.949477 63.4025347,156.949477 L63.4025347,205.845021 C62.1005355,205.845021 61.0444696,204.789232 61.0444696,203.487575 Z" id="Path" fill="#2E7D32" fill-rule="nonzero"></path>
                            <line x1="63.4587019" y1="205.845021" x2="63.4587019" y2="156.949959" id="Path" stroke="#A8A8A8" stroke-width="0.5"></line>
                            <path d="M62.7804684,205.845021 C53.3289193,205.816095 45.6760578,198.14596 45.6760578,188.692073 L45.6760578,188.637596 L62.7804684,188.638078 L62.7804684,205.845021 Z" id="Path" fill="#4CAF50" fill-rule="nonzero"></path>
                            <path d="M62.7804684,205.845021 C72.2898842,205.816095 79.9909678,198.14596 79.9909678,188.692073 L79.9909678,188.637596 L62.7804684,188.638078 L62.7804684,205.845021 Z" id="Path" fill="#2E7D32" fill-rule="nonzero"></path>
                            <path d="M0.0144666568,131.842439 C7.07901741,125.122514 18.2906764,125.417074 25.0851829,132.511587 L25.0466052,132.471573 L12.2918361,144.672439 L0.0144666568,131.842439 Z" id="Path" fill="#E0E0E0" fill-rule="nonzero"></path>
                            <path d="M12.7644135,119.562509 C15.1948119,117.238328 15.2816118,113.385423 12.9573023,110.956145 C10.6281705,108.52735 6.77521761,108.442983 4.34481927,110.767164 C1.91924314,113.091827 1.8324432,116.944732 4.15675273,119.373528 C6.48106226,121.802324 10.3340152,121.886691 12.7644135,119.562509 Z" id="Path" fill="#FF6F00" fill-rule="nonzero"></path>
                            <path d="M0.0144666568,131.842439 C7.07901741,125.122514 18.2906764,125.417074 25.0851829,132.511587 L25.0466052,132.471573 L12.2918361,144.672439 L0.0144666568,131.842439 Z" id="Path" fill="#2E7D32" fill-rule="nonzero"></path>
                            <path d="M25.5143604,107.440707 C18.4932096,114.204503 18.2906764,125.417074 25.0851829,132.511587 L25.0466052,132.471091 L37.7965521,120.270707 L25.5143604,107.440707 Z" id="Path" fill="#FFA000" fill-rule="nonzero"></path>
                            <path d="M37.2516413,145.220582 C30.1822684,151.940507 18.9706093,151.645465 12.1761028,144.550951 C12.1664584,144.537935 12.1519917,144.524436 12.1375251,144.510938 L24.8922942,132.310072 L37.2516413,145.220582 Z" id="Path" fill="#4CAF50" fill-rule="nonzero"></path>
                            <path d="M37.2516413,145.220582 C44.2776143,138.456786 44.4753253,127.244215 37.6808188,120.149701 C37.6711744,120.136203 37.6567077,120.122704 37.6422411,120.109205 L24.8922942,132.310072 L37.2516413,145.220582 Z" id="Path" fill="#FFECB3" fill-rule="nonzero"></path>
                            <path d="M41.3360608,148.518113 C41.6543272,148.158952 41.6157495,147.612256 41.2589053,147.296966 C40.9020611,146.981194 40.3523281,147.016386 40.0388839,147.375065 C39.7206174,147.733744 39.754373,148.28044 40.1160394,148.59573 C40.4728836,148.911503 41.0226165,148.876792 41.3360608,148.518113 Z" id="Path" fill="#4CAF50" fill-rule="nonzero"></path>
                            <path d="M39.3685954,146.787873 C39.6868619,146.429195 39.6531064,145.882499 39.2914399,145.566726 C38.9345957,145.251436 38.3848628,145.286147 38.0714186,145.644826 C37.7531521,146.003504 37.7917299,146.5502 38.1485741,146.865973 C38.5054183,147.181745 39.0551512,147.146552 39.3685954,146.787873 Z" id="Path" fill="#4CAF50" fill-rule="nonzero"></path>
                            <path d="M43.3372816,150.278725 C43.6555481,149.920046 43.6169703,149.37335 43.2601261,149.05806 C42.9032819,148.741805 42.353549,148.776998 42.0401047,149.135677 C41.7218383,149.494356 41.760416,150.041052 42.1172602,150.356824 C42.4741044,150.672597 43.0238374,150.637404 43.3372816,150.278725 Z" id="Path" fill="#4CAF50" fill-rule="nonzero"></path>
                            <path d="M57.1674056,161.291226 L45.3336803,150.88038 C44.9816583,150.573285 44.4512142,150.607032 44.1425922,150.956069 C43.8387924,151.305106 43.8725479,151.837339 44.2197477,152.144433 L56.053473,162.554798 C56.405495,162.861892 56.9359391,162.828146 57.2445611,162.479109 C57.5531831,162.130072 57.5146053,161.598321 57.1674056,161.291226 Z" id="Path" fill="#4CAF50" fill-rule="nonzero"></path>
                            <path d="M57.1674056,161.291226 L45.3336803,150.88038 C44.9816583,150.573285 44.4512142,150.607032 44.1425922,150.956069 L57.2445611,162.479109 C57.5531831,162.130072 57.5146053,161.598321 57.1674056,161.291226 Z" id="Path" fill="#2E7D32" fill-rule="nonzero"></path>
                            <line x1="57.2445611" y1="162.490679" x2="44.1474144" y2="150.967157" id="Path" stroke="#A8A8A8" stroke-width="0.5"></line>
                            <path d="M126.920803,131.842439 C119.856252,125.122514 108.644593,125.417074 101.850086,132.511587 L101.888664,132.471573 L114.643433,144.672439 L126.920803,131.842439 Z" id="Path" fill="#E0E0E0" fill-rule="nonzero"></path>
                            <path d="M114.170856,119.562509 C111.740457,117.238328 111.653657,113.385423 113.982789,110.956145 C116.307099,108.52735 120.160052,108.442983 122.59045,110.767164 C125.016026,113.091827 125.102826,116.944732 122.778516,119.373528 C120.454207,121.802324 116.601254,121.886691 114.170856,119.562509 Z" id="Path" fill="#FF6F00" fill-rule="nonzero"></path>
                            <path d="M126.920803,131.842439 C119.856252,125.122514 108.644593,125.417074 101.850086,132.511587 L101.888664,132.471573 L114.643433,144.672439 L126.920803,131.842439 Z" id="Path" fill="#4CAF50" fill-rule="nonzero"></path>
                            <path d="M101.420909,107.440707 C108.44206,114.204503 108.644593,125.417074 101.850086,132.511587 L101.888664,132.471091 L89.1387172,120.270707 L101.420909,107.440707 Z" id="Path" fill="#FFECB3" fill-rule="nonzero"></path>
                            <path d="M89.6884501,145.220582 C96.7530009,151.940507 107.96466,151.645465 114.759166,144.550951 C114.768811,144.537935 114.783277,144.524436 114.797744,144.510938 L102.042975,132.310072 L89.6884501,145.220582 Z" id="Path" fill="#C8E6C9" fill-rule="nonzero"></path>
                            <path d="M89.6836279,145.220582 C82.6576549,138.456786 82.4647661,127.244215 89.2544504,120.149701 C89.2640948,120.136203 89.2785615,120.122704 89.2930282,120.109205 L102.042975,132.310072 L89.6836279,145.220582 Z" id="Path" fill="#2E7D32" fill-rule="nonzero"></path>
                            <path d="M85.7245861,148.517631 C85.4111419,148.158952 85.4448974,147.612256 85.8017416,147.296484 C86.1585858,146.981194 86.7083188,147.015904 87.021763,147.374583 C87.3400295,147.733262 87.306274,148.279958 86.9446075,148.59573 C86.5877633,148.911503 86.0380304,148.87631 85.7245861,148.517631 Z" id="Path" fill="#4CAF50" fill-rule="nonzero"></path>
                            <path d="M87.6920515,146.787873 C87.373785,146.429195 87.4123628,145.882499 87.769207,145.566726 C88.1260512,145.250954 88.6757841,145.286147 88.9892284,145.644826 C89.3074948,146.003504 89.2689171,146.5502 88.9120729,146.865973 C88.5552287,147.181263 88.0054957,147.146552 87.6920515,146.787873 Z" id="Path" fill="#4CAF50" fill-rule="nonzero"></path>
                            <path d="M83.7233653,150.278725 C83.4050988,149.920046 83.4436766,149.37335 83.8005208,149.057578 C84.157365,148.741805 84.7070979,148.776516 85.0205422,149.135677 C85.3388086,149.494356 85.3002309,150.04057 84.9433867,150.356824 C84.5865425,150.672115 84.0368095,150.637404 83.7233653,150.278725 Z" id="Path" fill="#4CAF50" fill-rule="nonzero"></path>
                            <path d="M69.8932414,161.290744 L81.7269666,150.88038 C82.0789886,150.572803 82.6094327,150.607032 82.9180547,150.956069 C83.2266767,151.305106 83.188099,151.836857 82.8408992,152.143951 L71.0071739,162.554798 C70.6551519,162.861892 70.1247079,162.828146 69.8160859,162.479109 C69.5122861,162.12959 69.5460416,161.597839 69.8932414,161.290744 Z" id="Path" fill="#4CAF50" fill-rule="nonzero"></path>
                            <path d="M69.8932414,161.290744 L81.7269666,150.88038 C82.0789886,150.572803 82.6094327,150.607032 82.9180547,150.956069 L69.8160859,162.479109 C69.5122861,162.12959 69.5460416,161.597839 69.8932414,161.290744 Z" id="Path" fill="#2E7D32" fill-rule="nonzero"></path>
                            <line x1="69.8112636" y1="162.469949" x2="82.9084103" y2="150.946909" id="Path" stroke="#A8A8A8" stroke-width="0.5"></line>
                            <path d="M63.4700457,146.528024 C62.1294689,146.528024 61.0444696,145.442346 61.0444696,144.103085 C61.0444696,142.763824 62.1294689,141.678146 63.4700457,141.678146 C64.8058004,141.678146 65.8907996,142.763824 65.8907996,144.103085 C65.8907996,145.442346 64.8058004,146.528024 63.4700457,146.528024 Z" id="Path" fill="#4CAF50" fill-rule="nonzero"></path>
                            <path d="M63.4700457,139.18716 C62.1294689,139.18716 61.0444696,138.101482 61.0444696,136.762221 C61.0444696,135.42296 62.1294689,134.3368 63.4700457,134.3368 C64.8058004,134.3368 65.8907996,135.42296 65.8907996,136.762221 C65.8907996,138.101482 64.8058004,139.18716 63.4700457,139.18716 Z" id="Path" fill="#4CAF50" fill-rule="nonzero"></path>
                            <path d="M63.4700457,154.000018 C62.1294689,154.000018 61.0444696,152.91434 61.0444696,151.575079 C61.0444696,150.235818 62.1294689,149.15014 63.4700457,149.15014 C64.8058004,149.15014 65.8907996,150.235818 65.8907996,151.575079 C65.8907996,152.91434 64.8058004,154.000018 63.4700457,154.000018 Z" id="Path" fill="#4CAF50" fill-rule="nonzero"></path>
                        </g>
                        <g transform="translate(247.000000, 0.000000)" fill="#4CAF50">
                            <path d="M16.319307,24.4916376 C15.8024721,24.4916376 15.461166,24.9202206 15.461166,25.3492911 L15.461166,31.6946589 C15.461166,32.2090559 15.8024721,32.5518248 16.319307,32.5518248 C16.8312662,32.5518248 17.1774481,32.2090559 17.1774481,31.6946589 L17.1774481,25.3492911 C17.2603367,24.9207081 16.8312662,24.4916376 16.319307,24.4916376 Z" id="Path"></path>
                            <path d="M9.9710137,21.9191648 C9.71259623,21.9191648 9.54194318,22.0049789 9.37129014,22.1766071 L4.91480773,26.6355275 C4.56862584,26.9782963 4.56862584,27.4926933 4.82704331,27.8359497 C5.1683494,28.1787186 5.68518434,28.1787186 6.02649043,27.9217638 L10.5707373,23.3770294 C10.9169192,23.033773 10.9169192,22.519376 10.5707373,22.1766071 C10.4878486,22.0049789 10.2294312,21.8333507 9.9710137,21.9191648 Z" id="Path"></path>
                            <path d="M22.6627245,21.9191648 C22.1458896,21.9191648 21.8045835,22.2624213 21.8045835,22.7768183 C21.8045835,23.0342606 21.8923479,23.2054012 22.063001,23.3770294 L26.5194834,27.8359497 C26.8656653,28.1792062 27.3776244,28.1792062 27.7238063,27.9217638 C28.0651124,27.5785074 28.0651124,27.0641104 27.8066949,26.7213416 L23.2624481,22.1766071 C23.1795595,22.0049789 22.921142,21.9191648 22.6627245,21.9191648 Z" id="Path"></path>
                            <path d="M25.3200363,15.5742846 C24.8080771,15.5742846 24.4618952,15.9170534 24.4618952,16.4314505 C24.4618952,16.9458475 24.8080771,17.2891039 25.3200363,17.2891039 L31.6683296,17.2891039 C32.1802887,17.2891039 32.5215948,16.9458475 32.5215948,16.4314505 C32.5215948,15.9170534 32.1802887,15.5742846 31.6683296,15.5742846 L25.3200363,15.5742846 Z" id="Path"></path>
                            <path d="M1.05317309,15.5742846 C0.541213947,15.5742846 0.195032053,15.9170534 0.195032053,16.4314505 C0.195032053,16.9458475 0.541213947,17.2891039 1.05317309,17.2891039 L7.4014664,17.2891039 C7.91342554,17.2891039 8.25473164,16.9458475 8.25473164,16.4314505 C8.25473164,15.9170534 7.91342554,15.5742846 7.4014664,15.5742846 L1.05317309,15.5742846 Z" id="Path"></path>
                            <path d="M27.1192069,4.68418233 C26.8656653,4.68418233 26.6950122,4.76999643 26.5194834,4.94113706 L22.063001,9.40005737 C21.7216949,9.74331378 21.7216949,10.2577108 21.9752366,10.6004797 C22.233654,10.9432485 22.8333776,10.9437361 23.1795595,10.6862938 L27.7238063,6.14155934 C28.0651124,5.79879051 28.0651124,5.28390589 27.7238063,4.94113706 C27.6360419,4.76999643 27.3776244,4.68418233 27.1192069,4.68418233 Z" id="Path"></path>
                            <path d="M5.51453129,4.68418233 C4.99769635,4.68418233 4.65639026,5.02695116 4.65639026,5.5413482 C4.65639026,5.79879051 4.74415469,5.97041872 4.91480773,6.14204692 L9.37129014,10.6004797 C9.71259623,10.9437361 10.2294312,10.9437361 10.5707373,10.6862938 C10.9169192,10.429339 10.9169192,9.82912788 10.6585017,9.48635905 L6.11425486,4.94162464 C6.02649043,4.76999643 5.77294876,4.68418233 5.51453129,4.68418233 Z" id="Path"></path>
                            <path d="M16.319307,0.225262021 C15.8024721,0.225262021 15.461166,0.653844957 15.461166,1.08291547 L15.461166,7.42779573 C15.461166,7.94268035 15.8024721,8.28544918 16.319307,8.28544918 C16.8312662,8.28544918 17.1774481,7.94268035 17.1774481,7.42779573 L17.1774481,1.08291547 C17.2603367,0.654332537 16.8312662,0.225262021 16.319307,0.225262021 Z" id="Path"></path>
                        </g>
                    </g>
                </g>
            </g>
        </g>
    </g>
</svg>