<?xml version="1.0" encoding="UTF-8"?>
<svg width="448px" height="282px" viewBox="0 0 448 282" version="1.1" xmlns="http://www.w3.org/2000/svg" xmlns:xlink="http://www.w3.org/1999/xlink">
    <!-- Generator: Sketch 64 (93537) - https://sketch.com -->
    <title>Feature 1</title>
    <desc>Created with Sketch.</desc>
    <g id="Landing" stroke="none" stroke-width="1" fill="none" fill-rule="evenodd">
        <g transform="translate(-764.000000, -1553.000000)" id="More-Feature">
            <g transform="translate(112.000000, 1553.000000)">
                <g id="Feature-1">
                    <g transform="translate(652.000000, 0.000000)">
                        <path d="M81,175 C68.2905389,174.961021 58,164.710846 58,152.071992 L58,152 L81,152 L81,175 Z" id="Fill-1" fill="#FFECB3"></path>
                        <path d="M81,175 C93.7094611,174.961021 104,164.710846 104,152.071992 C104,152.047929 104,152.024064 104,152 L81,152 L81,175 Z" id="Fill-2" fill="#4CAF50"></path>
                        <path d="M58,129 C70.7092597,129.039102 81,139.321661 81,152 L80.9993958,151.927981 L58,151.927981 L58,129 Z" id="Fill-3" fill="#E0E0E0"></path>
                        <path d="M80.5001904,129 C84.6421917,129 88,125.642149 88,121.500095 C88,117.357851 84.6421917,114 80.5001904,114 C76.3579987,114 73,117.357851 73,121.500095 C73,125.642149 76.3579987,129 80.5001904,129 Z" id="Fill-4" fill="#4CAF50"></path>
                        <path d="M58,129 C70.7092597,129.039102 81,139.321661 81,152 L80.9993958,151.927981 L58,151.927981 L58,129 Z" id="Fill-5" fill="#C8E6C9"></path>
                        <path d="M104,129 C91.2907403,129.039102 81,139.321661 81,152 L81.0004028,151.927981 L104,151.927981 L104,129 Z" id="Fill-6" fill="#FFA000"></path>
                        <path d="M7.45748835,156.595281 C16.1361532,149.515311 28.9150053,150.753928 36,159.36199 L4.57220137,185 C-2.51279337,176.392135 -1.2211765,163.675055 7.45748835,156.595281 Z" id="Fill-7" fill="#4CAF50"></path>
                        <path d="M12.0125628,162.624496 C19.0052981,157.044303 29.2969907,158.015451 35,164.792963 L9.67752261,185 C3.9745133,178.222293 5.01984755,168.204688 12.0125628,162.624496 Z" id="Fill-8" fill="#C8E6C9"></path>
                        <path d="M17.3168822,167.756656 C22.3524807,163.497118 29.7796499,164.258138 33.9060715,169.456529 C33.9376409,169.496159 33.9690153,169.536191 34,169.576224 L15.7660881,185 L15.6705228,184.881713 C11.5854725,179.735425 12.2669995,172.169686 17.1670838,167.885404 L17.3168822,167.756656 Z" id="Fill-9" fill="#2E7D32"></path>
                        <path d="M43,200.613774 C32.6772977,208.956776 17.4917857,207.442903 9.04815057,197.21522 C9.03204064,197.195454 9.01593071,197.175886 9,197.156318 L27.6342321,182 L43,200.613774 Z" id="Fill-10" fill="#FFECB3"></path>
                        <path d="M43.2085146,200 C53.438185,191.506995 54.9644367,176.327619 46.6074992,166.058938 C46.591338,166.039292 46.5753738,166.019646 46.5594097,166 L28,181.31273 L43.2085146,200 Z" id="Fill-11" fill="#FFA000"></path>
                        <path d="M56.0843379,216.433558 C55.0165387,217.30874 53.4416438,217.152489 52.5662664,216.084444 C51.6913248,215.016399 51.8475722,213.441245 52.9153714,212.566281 C53.9831706,211.691317 55.5587192,211.847568 56.4336608,212.915395 C57.3088203,213.98344 57.152355,215.558594 56.0843379,216.433558 Z" id="Fill-12" fill="#4CAF50"></path>
                        <path d="M51.0842858,210.433741 C50.0164717,211.308699 48.4415548,211.152449 47.5663831,210.084412 C46.6912113,209.016376 46.8476788,207.441234 47.915275,206.566277 C48.983307,205.691319 50.5586598,205.847569 51.4338315,206.915388 C52.3087853,207.983642 52.1523179,209.558566 51.0842858,210.433741 Z" id="Fill-13" fill="#4CAF50"></path>
                        <path d="M47.084375,205.433754 C46.0165376,206.308692 44.4413684,206.152445 43.5663954,205.084432 C42.6912046,204.016637 42.8476754,202.441312 43.915295,201.566373 C44.9831324,200.691217 46.5587375,200.847681 47.4337104,201.915259 C48.3089013,202.98349 48.1522125,204.558597 47.084375,205.433754 Z" id="Fill-14" fill="#4CAF50"></path>
                        <path d="M80.000102,200 C85.5228508,200 90,195.522693 90,189.999796 C90,184.477104 85.5228508,180 80.000102,180 C74.4769452,180 70,184.477104 70,189.999796 C70,195.522693 74.4769452,200 80.000102,200 Z" id="Fill-15" fill="#4CAF50"></path>
                        <path d="M80.5,205 C94.5835659,205 106,216.410456 106,230.48595 L106,282 L55,282 L55,230.48595 C55,216.410456 66.4166351,205 80.5,205 Z" id="Fill-16" fill="#2196F3"></path>
                        <path d="M55,282 L106,282 L106,273.750039 C106,260.080916 94.5835659,249 80.5,249 C66.4166351,249 55,260.080916 55,273.750039 L55,282 Z" id="Fill-17" fill="#BBDEFB"></path>
                        <path d="M81,282 L106,282 L106,273.750039 C106,260.080916 94.8074176,249 81,249 L81,282 Z" id="Fill-18" fill="#0D47A1"></path>
                        <path d="M81.0001011,277 C85.9706923,277 90,272.970503 90,268.00004 C90,263.029577 85.9706923,259 81.0001011,259 C76.029712,259 72,263.029577 72,268.00004 C72,272.970503 76.029712,277 81.0001011,277 Z" id="Fill-19" fill="#2196F3"></path>
                        <path d="M80.5001052,231 C82.433134,231 84,229.432971 84,227.5 C84,225.567029 82.433134,224 80.5001052,224 C78.5670763,224 77,225.567029 77,227.5 C77,229.432971 78.5670763,231 80.5001052,231 Z" id="Fill-20" fill="#FFFFFF"></path>
                        <path d="M80.5001052,221 C82.433134,221 84,219.433134 84,217.500105 C84,215.566866 82.433134,214 80.5001052,214 C78.5670763,214 77,215.566866 77,217.500105 C77,219.433134 78.5670763,221 80.5001052,221 Z" id="Fill-21" fill="#FFFFFF"></path>
                        <path d="M80.5001052,241 C82.433134,241 84,239.432924 84,237.500105 C84,235.567076 82.433134,234 80.5001052,234 C78.5670763,234 77,235.567076 77,237.500105 C77,239.432924 78.5670763,241 80.5001052,241 Z" id="Fill-22" fill="#FFFFFF"></path>
                        <path d="M41.4394779,116.753068 L46.7524465,111.44044 C47.0825178,111.111232 47.0825178,110.577799 46.7524465,110.247538 C46.4240613,109.917487 45.8895396,109.917487 45.5605221,110.247538 L40.2475535,115.56122 C39.9174822,115.890638 39.9174822,116.424072 40.2475535,116.753279 C40.5759387,117.082275 41.1104604,117.082275 41.4394779,116.753068 Z" id="Fill-23" fill="#2E7D32"></path>
                        <path d="M31.5600509,124.24667 L26.247693,129.559128 C25.9174357,129.890235 25.9174357,130.423672 26.247693,130.753093 C26.5760534,131.082302 27.1103241,131.082302 27.4405814,130.753093 L32.7529393,125.439371 C33.0823536,125.10995 33.0823536,124.576512 32.7529393,124.247303 C32.4237358,123.918093 31.8894651,123.91725 31.5600509,124.24667 Z" id="Fill-24" fill="#2E7D32"></path>
                        <path d="M45.5603965,130.753096 C45.8898281,131.082301 46.424127,131.082301 46.752294,130.753096 C47.0825687,130.42389 47.0825687,129.890458 46.752294,129.559355 L41.4396561,124.246746 C41.1104353,123.917751 40.5759257,123.917751 40.2475479,124.246746 C39.917484,124.576163 39.917484,125.109595 40.2475479,125.438801 L45.5603965,130.753096 Z" id="Fill-25" fill="#2E7D32"></path>
                        <path d="M31.5599671,116.753107 C31.8893764,117.082298 32.423639,117.082298 32.7536806,116.753107 C33.0822468,116.423705 33.0822468,115.890297 32.7528376,115.561106 L27.4405597,110.247684 C27.1103074,109.917439 26.5760447,109.917439 26.2476892,110.247684 C25.9174369,110.577928 25.9174369,111.111336 26.2476892,111.440527 L31.5599671,116.753107 Z" id="Fill-26" fill="#2E7D32"></path>
                        <path d="M42,120.998876 C42,121.552806 42.3698884,122 42.8247234,122 L50.1752766,122 C50.6309363,122 51,121.551806 51,120.998876 C51,120.447445 50.6301116,120 50.1752766,120 L42.8247234,120 C42.3698884,119.999002 42,120.447445 42,120.998876 Z" id="Fill-27" fill="#2E7D32"></path>
                        <path d="M22.8247423,122 L30.1752577,122 C30.6313402,122 31,121.551806 31,120.998875 C31,120.447444 30.6303093,120 30.1752577,120 L22.8247423,120 C22.368866,120 22,120.448444 22,120.998875 C22,121.551806 22.3698969,122 22.8247423,122 Z" id="Fill-28" fill="#2E7D32"></path>
                        <path d="M37,136 C37.55275,136 38,135.631058 38,135.176119 L38,127.824912 C38,127.36688 37.5515,127 37,127 C36.4485001,127 36,127.368117 36,127.824912 L36,135.176119 C35.9997501,135.631058 36.4485001,136 37,136 Z" id="Fill-29" fill="#2E7D32"></path>
                        <path d="M37,114 C37.55275,114 38,113.631891 38,113.177787 L38,105.824069 C38,105.36914 37.5515,105 37,105 C36.4485001,105 36,105.369965 36,105.824069 L36,113.177787 C35.9997501,113.633129 36.4485001,114 37,114 Z" id="Fill-30" fill="#2E7D32"></path>
                        <path d="M236,126.782609 C235.940628,111.314308 235.996042,111.463254 235.998021,110.838834 L235.998021,12 L93,12 L93,269 L236,269 L236,126.782609 Z" id="Fill-31" fill="#FFFFFF"></path>
                        <path d="M164.350083,55 L164.350083,59.34016 C159.899525,59.8046052 156.562153,61.0197699 154.337372,62.9836523 C152.112391,64.9475346 151,67.6721461 151,71.1574868 C151,73.4376723 151.371925,75.3434991 152.117764,76.8749669 C152.863205,78.4064348 154.054,79.7897608 155.691344,81.0249447 C157.328489,82.2603288 159.480438,83.374797 162.146395,84.3675485 C164.518832,85.2343794 166.402335,85.9718863 167.799092,86.5854744 C169.19565,87.1988623 170.192822,87.7471879 170.790607,88.2326532 C171.388194,88.7189193 171.688082,89.3100859 171.688082,90.0069538 C171.688082,91.0199248 171.27397,91.7440188 170.444751,92.1764333 C169.615334,92.6088477 168.308324,92.8260559 166.523325,92.8260559 C164.361227,92.8260559 161.853273,92.4092564 158.998269,91.5742561 C156.142668,90.7408573 153.498004,89.6996593 151.061888,88.4544658 L151.061888,98.9709457 C155.323599,100.829928 159.754058,101.864319 164.350282,102.075922 L164.350282,108 L170.868813,108 L170.868813,101.885539 C175.151219,101.358234 178.410186,99.9849176 180.646112,97.767192 C182.882037,95.550267 184,92.6673038 184,89.1197034 C184,85.9730874 183.044219,83.4014225 181.134847,81.4053092 C179.224679,79.4093962 176.075359,77.6296903 171.687684,76.0681937 C169.525387,75.3294856 167.835508,74.6808639 166.618047,74.1203267 C165.400586,73.5597894 164.545299,73.0533039 164.051787,72.5988683 C163.558276,72.1444328 163.312117,71.5698821 163.312117,70.8732143 C163.312117,70.0704449 163.652202,69.4638635 164.334959,69.0514682 C165.016722,68.6390729 166.198363,68.4328753 167.877894,68.4328753 C171.404313,68.4328753 175.360365,69.425827 179.748438,71.4097286 L183.495942,62.3830766 C179.255723,60.5453151 175.046746,59.5103231 170.870405,59.2781005 L170.870405,55.0020019 L164.350083,55.0020019 L164.350083,55 Z" id="Fill-32" fill="#2E7D32"></path>
                        <path d="M127,152.5 C127,153.327904 127.824713,154 128.841058,154 L206.159141,154 C207.175883,154 208,153.327904 208,152.5 C208,151.671934 207.175883,151 206.159141,151 L128.840859,151 C127.824713,151 127,151.671287 127,152.5 Z" id="Fill-33" fill="#2E7D32"></path>
                        <path d="M147,134.5 C147,135.328066 147.818076,136 148.826241,136 L187.173759,136 C188.181924,136 189,135.328066 189,134.5 C189,133.672096 188.181924,133 187.173759,133 L148.826241,133 C147.818076,133 147,133.671287 147,134.5 Z" id="Fill-34" fill="#2E7D32"></path>
                        <path d="M244,14.4171535 L244,116.421201 C241.275567,114.490822 238.330555,112.559648 236.293689,111.250842 L236.293689,12.3598341 L92.70651,12.3598341 L92.70651,269.498601 L236.293689,269.498601 L236.293689,111.250842 C239.099597,113.762404 241.806146,115.127318 244,116.421201 L243.998013,267.58219 C243.998013,275.545071 237.549591,282 229.598856,282 L99.4009456,282 C91.4470308,282 85,275.545071 85,267.58219 L85,257.98766 L85,14.4171535 C85,6.45449158 91.4472296,0 99.4011443,0 L229.598856,0 C237.551578,0 244,6.45449158 244,14.4171535 Z" id="Fill-35" fill="#2E7D32"></path>
                        <path d="M369.5,112 C368.118866,112 367,110.880663 367,109.500106 C367,108.119337 368.118866,107 369.5,107 C370.881134,107 372,108.119337 372,109.500106 C372,110.880663 370.881134,112 369.5,112 Z" id="Fill-36" fill="#4CAF50"></path>
                        <path d="M369.5,105 C368.118866,105 367,103.880711 367,102.500212 C367,101.119289 368.118866,100 369.5,100 C370.881134,100 372,101.119289 372,102.500212 C372,103.880711 370.881134,105 369.5,105 Z" id="Fill-37" fill="#4CAF50"></path>
                        <path d="M369.5,120 C368.118866,120 367,118.880663 367,117.499894 C367,116.119125 368.118866,115 369.5,115 C370.881134,115 372,116.119125 372,117.499894 C372,118.880663 370.881134,120 369.5,120 Z" id="Fill-38" fill="#4CAF50"></path>
                        <path d="M367,166.732019 L367,124.267981 C367,123.015552 368.119565,122 369.5,122 C370.880435,122 372,123.015552 372,124.267981 L372,166.732019 C372,167.984842 370.880435,169 369.5,169 C368.119565,169 367,167.984842 367,166.732019 Z" id="Fill-39" fill="#4CAF50"></path>
                        <path d="M368,166.732019 L368,124.267981 C368,123.015552 368.895652,122 370,122 L370,169 C368.895652,169 368,167.984842 368,166.732019 Z" id="Fill-40" fill="#2E7D32"></path>
                        <line x1="371" y1="169" x2="371" y2="122" id="Stroke-41" stroke="#A8A8A8" stroke-width="0.7921"></line>
                        <path d="M345,47 C358.81392,47.0429956 370,58.2179487 370,72 L369.998027,71.9218261 L345,71.9218261 L345,47 Z" id="Fill-42" fill="#E0E0E0"></path>
                        <path d="M370.5,47 C375.194349,47 379,43.1943491 379,38.5 C379,33.8056509 375.194349,30 370.5,30 C365.805651,30 362,33.8056509 362,38.5 C362,43.1943491 365.805651,47 370.5,47 Z" id="Fill-43" fill="#4CAF50"></path>
                        <path d="M345,47 C358.81392,47.0429956 370,58.2179487 370,72 L369.998027,71.9218261 L345,71.9218261 L345,47 Z" id="Fill-44" fill="#C8E6C9"></path>
                        <path d="M395,47 C381.184989,47.0429956 370,58.2179487 370,72 L370,71.9218261 L395,71.9218261 L395,47 Z" id="Fill-45" fill="#FFA000"></path>
                        <path d="M370,98 C356.18608,97.9575277 345,86.8159587 345,73.0779308 C345,73.0526033 345,73.0253275 345,73 L370,73 L370,98 Z" id="Fill-46" fill="#FFECB3"></path>
                        <path d="M370,98 C383.815011,97.9575277 395,86.8159587 395,73.0779308 L395,73 L370,73 L370,98 Z" id="Fill-47" fill="#4CAF50"></path>
                        <path d="M437,124.488207 C429.388066,116.887217 417.313077,117.220568 410,125.245521 L410.041563,125.200007 L423.773127,139 L437,124.488207 Z" id="Fill-48" fill="#E0E0E0"></path>
                        <path d="M424.006017,110.196014 C421.41224,107.714221 421.321987,103.599416 423.80393,101.005983 C426.285872,98.4123533 430.400206,98.321903 432.993983,100.803892 C435.58776,103.286078 435.678013,107.400293 433.19607,109.994119 C430.714128,112.587749 426.599794,112.678003 424.006017,110.196014 Z" id="Fill-49" fill="#FF6F00"></path>
                        <path d="M437,124.488207 C429.388066,116.887217 417.313077,117.220568 410,125.245521 L410.041563,125.200007 L423.773127,139 L437,124.488207 Z" id="Fill-50" fill="#4CAF50"></path>
                        <path d="M409.890844,98 C417.83827,105.284109 418.062785,117.359323 410.381452,125 L410.423029,124.95627 L396,111.817092 L409.890844,98 Z" id="Fill-51" fill="#FFECB3"></path>
                        <path d="M397,138.53664 C404.600234,146.103281 416.656664,145.771239 423.958501,137.782976 C423.972334,137.767873 423.986167,137.752771 424,137.737462 L410.287565,124 L397,138.53664 Z" id="Fill-52" fill="#C8E6C9"></path>
                        <path d="M397.082409,139 C389.169418,131.72751 388.945876,119.671557 396.595997,112.043265 C396.610486,112.028843 396.624975,112.014422 396.639464,112 L411,125.118417 L397.082409,139 Z" id="Fill-53" fill="#2E7D32"></path>
                        <path d="M392.248024,142.660725 C391.8847,142.245956 391.925069,141.613928 392.339386,141.24928 C392.753703,140.88442 393.38474,140.924771 393.750189,141.33954 C394.115638,141.754096 394.075269,142.385911 393.660952,142.750772 C393.246635,143.115632 392.613473,143.075069 392.248024,142.660725 Z" id="Fill-54" fill="#4CAF50"></path>
                        <path d="M395.247982,139.660544 C394.884719,139.245985 394.925082,138.613953 395.339329,138.249302 C395.753576,137.88444 396.386631,137.924791 396.752018,138.33935 C397.115281,138.754121 397.074918,139.385941 396.660671,139.750804 C396.246424,140.115454 395.613369,140.075315 395.247982,139.660544 Z" id="Fill-55" fill="#4CAF50"></path>
                        <path d="M390.249409,143.6605 C389.884249,143.245991 389.924586,142.614036 390.340699,142.24943 C390.754689,141.884399 391.385227,141.924746 391.750387,142.339467 C392.115547,142.754187 392.075209,143.385718 391.66122,143.750749 C391.245107,144.115567 390.614569,144.07522 390.249409,143.6605 Z" id="Fill-56" fill="#4CAF50"></path>
                        <path d="M375.317798,156.415872 L388.447647,145.225617 C388.835079,144.8954 389.426422,144.931937 389.766953,145.307184 C390.107485,145.682431 390.070781,146.253793 389.68335,146.584208 L376.551461,157.774463 C376.16403,158.104482 375.574726,158.068143 375.232155,157.692896 C374.891623,157.317649 374.930366,156.745891 375.317798,156.415872 Z" id="Fill-57" fill="#4CAF50"></path>
                        <path d="M375.301292,155.692078 L387.749215,144.231076 C388.116524,143.892869 388.677154,143.93029 389,144.314616 L375.220098,157 C374.897252,156.615674 374.933983,156.030083 375.301292,155.692078 Z" id="Fill-58" fill="#2E7D32"></path>
                        <line x1="375" y1="157" x2="389" y2="144" id="Stroke-59" stroke="#A8A8A8" stroke-width="0.7626"></line>
                        <path d="M303,124.488207 C310.611934,116.887217 322.686923,117.220568 330,125.245521 L329.958437,125.200007 L316.224894,139 L303,124.488207 Z" id="Fill-60" fill="#E0E0E0"></path>
                        <path d="M316.994587,110.196014 C319.586544,107.714221 319.678764,103.599416 317.196685,101.005983 C314.714607,98.4123533 310.600046,98.321903 308.006127,100.803892 C305.412207,103.286078 305.32195,107.400293 307.804029,109.994119 C310.286107,112.587749 314.400668,112.678003 316.994587,110.196014 Z" id="Fill-61" fill="#FF6F00"></path>
                        <path d="M303,124.488207 C310.611934,116.887217 322.686923,117.220568 330,125.245521 L329.958437,125.200007 L316.224894,139 L303,124.488207 Z" id="Fill-62" fill="#4CAF50"></path>
                        <path d="M330.109156,98 C322.16173,105.284109 321.937215,117.359323 329.618548,125 L329.574892,124.95627 L344,111.817092 L330.109156,98 Z" id="Fill-63" fill="#FFA000"></path>
                        <path d="M343,138.53664 C335.401742,146.103281 323.343336,145.771239 316.041499,137.782976 C316.027666,137.767873 316.013833,137.752771 316,137.737462 L329.712435,124 L343,138.53664 Z" id="Fill-64" fill="#C8E6C9"></path>
                        <path d="M343.917398,139 C351.83028,131.72751 352.053819,119.671557 344.405873,112.043265 C344.391385,112.028843 344.376896,112.014422 344.362407,112 L330,125.118417 L343.917398,139 Z" id="Fill-65" fill="#FFECB3"></path>
                        <path d="M347.750387,142.660736 C348.115547,142.245965 348.075209,141.613932 347.66122,141.249282 C347.24723,140.884419 346.614569,140.924771 346.249409,141.339542 C345.884249,141.754101 345.924586,142.385921 346.340699,142.750783 C346.754689,143.115434 347.385227,143.075295 347.750387,142.660736 Z" id="Fill-66" fill="#4CAF50"></path>
                        <path d="M345.750387,139.660544 C346.115547,139.245985 346.075209,138.614165 345.66122,138.249302 C345.245107,137.88444 344.614569,137.924791 344.249409,138.33935 C343.884249,138.754121 343.924586,139.385941 344.340699,139.750804 C344.754689,140.115454 345.385227,140.075315 345.750387,139.660544 Z" id="Fill-67" fill="#4CAF50"></path>
                        <path d="M349.75028,143.660571 C350.115596,143.246045 350.075241,142.614275 349.661075,142.249441 C349.246908,141.884394 348.613975,141.924743 348.248659,142.339481 C347.885466,142.75422 347.923697,143.385777 348.339988,143.750824 C348.754155,144.115445 349.387087,144.075309 349.75028,143.660571 Z" id="Fill-68" fill="#4CAF50"></path>
                        <path d="M364.683326,156.415811 L351.550432,145.225694 C351.162971,144.895283 350.573622,144.932018 350.233064,145.30726 C349.892506,145.682502 349.929213,146.253858 350.316674,146.584071 L363.449568,157.774386 C363.837029,158.104599 364.426378,158.068062 364.766936,157.69282 C365.107494,157.317578 365.070787,156.745827 364.683326,156.415811 Z" id="Fill-69" fill="#4CAF50"></path>
                        <path d="M364.699772,155.692087 L352.248949,144.231156 C351.881611,143.892749 351.322871,143.930372 351,144.314696 L364.77904,157 C365.101911,156.615677 365.06711,156.030089 364.699772,155.692087 Z" id="Fill-70" fill="#2E7D32"></path>
                        <line x1="365" y1="157" x2="351" y2="144" id="Stroke-71" stroke="#A8A8A8" stroke-width="0.7626"></line>
                        <path d="M297.908896,133.806263 C297.890714,133.769185 297.880613,133.750845 297.880613,133.750845 C297.880613,133.750845 296.971493,131.596902 295.686603,128.46257 C294.262315,124.985562 292.375386,120.30071 290.753112,116 C288.328792,121.941534 286.136803,128.234517 286.005486,131.782693 C285.918614,134.149339 286.8742,138.130895 288.112624,142.20734 C288.130806,142.265748 288.146968,142.324755 288.165151,142.382964 C288.716683,144.190443 289.320743,146.008885 289.914702,147.712902 C291.385456,151.950021 292.765298,155.444173 293.064297,156.192721 L293.064297,156.193718 L293.066317,156.197107 C293.100662,156.276247 293.595627,157.383619 294.282518,158 L294.399693,157.903715 C299.195806,153.964621 302.165598,149.141422 304,144.471123 C302.250449,141.434671 299.349346,136.22155 298.373558,133.417936 C298.215977,133.542926 298.058396,133.670109 297.908896,133.806263 Z" id="Fill-72" fill="#212121"></path>
                        <path d="M414.440991,24.753369 L419.751844,19.441316 C420.082719,19.1103666 420.082719,18.5770534 419.751844,18.248212 C419.423077,17.9172627 418.889884,17.9172627 418.561117,18.248212 L413.248156,23.562373 C412.917281,23.8912143 412.917281,24.4245276 413.248156,24.753369 C413.576923,25.0822103 414.110116,25.0822103 414.440991,24.753369 Z" id="Fill-73" fill="#2E7D32"></path>
                        <path d="M402.560373,33.2466125 L397.246612,38.5603734 C396.917796,38.8912978 396.917796,39.4245709 397.246612,39.7533875 C397.575429,40.0822042 398.11081,40.0822042 398.439627,39.7533875 L403.753388,34.4396266 C404.082204,34.11081 404.082204,33.5775369 403.753388,33.2466125 C403.424571,32.9177958 402.88919,32.9177958 402.560373,33.2466125 Z" id="Fill-74" fill="#2E7D32"></path>
                        <path d="M418.560265,39.7533875 C418.889106,40.0822042 419.424528,40.0822042 419.753369,39.7533875 C420.08221,39.4245709 420.08221,38.8912978 419.753369,38.5582656 L414.439208,33.2466125 C414.110367,32.9177958 413.574945,32.9177958 413.248212,33.2466125 C412.917263,33.5754291 412.917263,34.1087022 413.248212,34.4375188 L418.560265,39.7533875 Z" id="Fill-75" fill="#2E7D32"></path>
                        <path d="M402.560373,24.7533875 C402.88919,25.0822042 403.424571,25.0822042 403.753388,24.7533875 C404.082204,24.4245709 404.082204,23.8912978 403.753388,23.5624812 L398.439627,18.2466125 C398.11081,17.9177958 397.575429,17.9177958 397.246612,18.2466125 C396.917796,18.5775369 396.917796,19.11081 397.246612,19.4396266 L402.560373,24.7533875 Z" id="Fill-76" fill="#2E7D32"></path>
                        <path d="M415,28.9975052 C415,29.5525023 415.369072,30 415.824742,30 L423.175258,30 C423.630928,30 424,29.5500023 424,28.9975052 C424,28.447508 423.628866,28 423.175258,28 L415.824742,28 C415.369072,27.9975104 415,28.447508 415,28.9975052 Z" id="Fill-77" fill="#2E7D32"></path>
                        <path d="M393.82475,30 L401.175259,30 C401.630928,30 402,29.55 402,28.9975 C402,28.4475 401.628866,28 401.175259,28 L393.82475,28 C393.36908,28 393,28.4475 393,28.9975 C392.997947,29.55 393.36908,30 393.82475,30 Z" id="Fill-78" fill="#2E7D32"></path>
                        <path d="M409,44 C409.5525,44 410,43.6308433 410,43.1750687 L410,35.8249313 C410,35.3670944 409.5525,35 409,35 C408.4475,35 408,35.3670944 408,35.8249313 L408,43.1750687 C408,43.6308433 408.4475,44 409,44 Z" id="Fill-79" fill="#2E7D32"></path>
                        <path d="M409,23 C409.5525,23 410,22.6329056 410,22.1771311 L410,14.8228689 C410,14.3691567 409.5525,14 409,14 C408.4475,14 408,14.3691567 408,14.8228689 L408,22.1771311 C408,22.6329056 408.4475,23 409,23 Z" id="Fill-80" fill="#2E7D32"></path>
                        <path d="M308.439627,21.7534432 L313.753388,16.4408821 C314.082204,16.1121397 314.082204,15.578987 313.753388,15.2481373 C313.424571,14.9172876 312.88919,14.9172876 312.560373,15.2481373 L307.246612,20.5606984 C306.917796,20.8894408 306.917796,21.4247008 307.246612,21.7534432 C307.577537,22.0821856 308.11081,22.0821856 308.439627,21.7534432 Z" id="Fill-81" fill="#2E7D32"></path>
                        <path d="M296.559009,30.2473756 L291.248156,35.5584285 C290.917281,35.8893155 290.917281,36.4246359 291.248156,36.7534154 C291.576923,37.0821949 292.110116,37.0821949 292.440991,36.7534154 L297.751844,31.4402549 C298.082719,31.1093679 298.082719,30.576155 297.751844,30.2473756 C297.423077,29.9185961 296.889884,29.9164885 296.559009,30.2473756 Z" id="Fill-82" fill="#2E7D32"></path>
                        <path d="M312.561117,36.7518627 C312.889884,37.0827124 313.423077,37.0827124 313.751844,36.7518627 C314.082719,36.4231203 314.082719,35.8899676 313.751844,35.5591179 L308.440991,30.2465568 C308.110116,29.9178144 307.576923,29.9178144 307.248156,30.2465568 C306.917281,30.5752992 306.917281,31.1105592 307.248156,31.4393016 L312.561117,36.7518627 Z" id="Fill-83" fill="#2E7D32"></path>
                        <path d="M296.5588,21.7534432 C296.889662,22.0821856 297.422835,22.0821856 297.753697,21.7534432 C298.082451,21.4225935 298.082451,20.8894408 297.751589,20.5606984 L292.440936,15.2481373 C292.110074,14.9172876 291.576901,14.9172876 291.248147,15.2481373 C290.917284,15.578987 290.917284,16.1121397 291.248147,16.4408821 L296.5588,21.7534432 Z" id="Fill-84" fill="#2E7D32"></path>
                        <path d="M309,26 C309,26.5525 309.369072,27 309.824742,27 L317.175258,27 C317.630928,27 318,26.5525 318,26 C318,25.4475 317.630928,25 317.175258,25 L309.824742,25 C309.371134,25 309,25.4475 309,26 Z" id="Fill-85" fill="#2E7D32"></path>
                        <path d="M297,26 C297,25.4475 296.630928,25 296.175258,25 L288.824742,25 C288.369072,25 288,25.4475 288,26 C288,26.5525 288.371134,27 288.824742,27 L296.175258,27 C296.630928,27 297,26.5525 297,26 Z" id="Fill-86" fill="#2E7D32"></path>
                        <path d="M302,42 C302.552502,42 303,41.6308433 303,41.1771311 L303,33.8249313 C303,33.3670944 302.552502,33 302,33 C301.447508,33 301,33.3691567 301,33.8249313 L301,41.1771311 C300.99751,41.6308433 301.447508,42 302,42 Z" id="Fill-87" fill="#2E7D32"></path>
                        <path d="M302,20 C302.552502,20 303,19.6309278 303,19.1773196 L303,11.8247423 C303,11.3690722 302.552502,11 302,11 C301.447508,11 301,11.371134 301,11.8247423 L301,19.1773196 C300.99751,19.6329897 301.447508,20 302,20 Z" id="Fill-88" fill="#2E7D32"></path>
                        <polygon id="Fill-89" fill="#FF6F00" points="291.999006 155.998807 292.000994 156.002188 291.999006 155.998807 291.999006 155.997812"></polygon>
                        <path d="M291.296018,160 C292.265436,159.371631 293.163878,158.701547 294,158.000177 L291,158 C291.103866,158.666195 291.202539,159.332214 291.296018,160 Z" id="Fill-90" fill="#C3D8E5"></path>
                        <path d="M423.173999,187 L384.827971,187 C383.819435,187 383,186.328066 383,185.5 C383,184.672096 383.819435,184 384.827971,184 L423.173999,184 C424.182534,184 425,184.672096 425,185.5 C425,186.328066 424.182534,187 423.173999,187 Z" id="Fill-91" fill="#C8E6C9"></path>
                        <path d="M423.112382,241 L384.887618,241 C383.84505,241 383,240.328066 383,239.5 C383,238.672096 383.84505,238 384.887618,238 L423.112382,238.000324 C424.15495,238.000324 425,238.672258 425,239.500162 C425,240.328228 424.15495,241 423.112382,241 Z" id="Fill-92" fill="#C8E6C9"></path>
                        <path d="M423.159136,257 L345.840864,257 C344.824119,257 344,256.328066 344,255.5 C344,254.672096 344.824119,254 345.840864,254 L423.159136,254 C424.175881,254 425,254.672096 425,255.5 C425,256.328066 424.175881,257 423.159136,257 Z" id="Fill-93" fill="#C8E6C9"></path>
                        <path d="M318.786202,268 C316.273951,268 313.941285,267.222214 312.000976,265.892764 C310.058715,267.222214 307.726049,268 305.21575,268 C298.469564,268 293,262.403783 293,255.50007 C293,248.596137 298.469564,243 305.21575,243 C307.726049,243 310.058715,243.777846 312.000976,245.107216 C313.941285,243.777846 316.273951,243 318.786202,243 C325.532388,243 331,248.596137 331,255.50007 C331,262.403783 325.532388,268 318.786202,268 Z" id="Fill-94" fill="#C5CECB"></path>
                        <path d="M436.744478,157 L316.023835,157 C316.186786,157.474553 316.294095,157.975692 316.294095,158.505816 C316.294095,161.064085 314.231377,163.138605 311.687756,163.138605 C309.144135,163.138605 307.081418,161.063885 307.081418,158.505816 C307.081418,157.975692 307.188727,157.474553 307.351678,157 L294.021515,157 C293.059708,157.793187 292.030336,158.551193 290.917502,159.261823 C290.810193,158.507615 290.694936,157.753208 290.575703,157 L286.253535,157 C285.234099,157 284.250434,157.149122 283.310486,157.404989 C278.5253,158.708911 275,163.095228 275,168.322107 L275,270.679732 C275,276.931538 280.039549,282 286.253535,282 L436.744478,282 C442.960451,282 448,276.930139 448,270.679392 L448,168.321108 C448,162.068562 442.960451,157 436.744478,157 Z" id="Fill-95" fill="#FFA000"></path>
                        <path d="M423.112382,238 L384.887618,238 C383.84505,238 383,238.67197 383,239.499919 C383,240.32803 383.84505,241 384.887618,241 L423.112382,240.999838 C424.15495,240.999838 425,240.327868 425,239.499757 C425,238.671808 424.15495,238 423.112382,238 Z" id="Fill-96" fill="#C8E6C9"></path>
                        <path d="M423.159136,254 L345.840864,254 C344.824119,254 344,254.672096 344,255.5 C344,256.328066 344.824119,257 345.840864,257 L423.159136,257 C424.175881,257 425,256.328066 425,255.5 C425,254.672096 424.175881,254 423.159136,254 Z" id="Fill-97" fill="#C8E6C9"></path>
                        <path d="M384.827971,187 L423.173999,187 C424.182534,187 425,186.328066 425,185.5 C425,184.672096 424.182534,184 423.173999,184 L384.827971,184 C383.819435,184 383,184.672096 383,185.5 C383,186.328066 383.819435,187 384.827971,187 Z" id="Fill-98" fill="#C8E6C9"></path>
                        <path d="M311,265.892764 C308.955619,267.222374 306.500308,268 303.858023,268 C296.75714,268 291,262.403783 291,255.50007 C291,248.596137 296.75714,243 303.858023,243 C306.500308,243 308.955619,243.777846 311,245.107216 C307.554346,247.349865 305.286008,251.166784 305.286008,255.50007 C305.286008,259.833356 307.554346,263.650035 311,265.892764 Z" id="Fill-99" fill="#2196F3"></path>
                        <path d="M311.5,245 C308.183387,247.265603 306,251.121932 306,255.49996 C306,259.877987 308.183387,263.734114 311.5,266 C314.814635,263.734296 317,259.877987 317,255.49996 C317,251.121932 314.816613,247.265603 311.5,245 Z" id="Fill-100" fill="#BBDEFB"></path>
                        <path d="M331,255.50007 C331,262.403783 325.244323,268 318.14271,268 C315.498099,268 313.042536,267.222374 311,265.892764 C314.443954,263.650195 316.714579,259.833356 316.714579,255.50007 C316.714579,251.166784 314.443954,247.349865 311,245.107216 C313.042536,243.777846 315.498099,243 318.14271,243 C325.244323,243.000799 331,248.597136 331,255.50007 Z" id="Fill-101" fill="#FFA000"></path>
                        <path d="M306,127.179212 C305.50384,126.284386 305.021517,125.571572 304.566869,125.117729 C302.947924,123.496241 296.685635,126.7317 297.365631,132.049612 C297.403189,132.359428 297.513886,132.763217 297.674001,133.230711 C297.515862,133.354558 297.363654,133.480384 297.217376,133.615112 C297.199585,133.578314 297.189702,133.560113 297.189702,133.560113 C297.189702,133.560113 296.300172,131.422462 295.04297,128.31184 C293.649373,124.861132 291.803104,120.211718 290.215788,115.94354 C287.843708,121.840131 285.698953,128.085512 285.570466,131.606848 C285.485466,133.955593 286.420461,137.907031 287.632198,141.95264 C287.649989,142.010607 287.665803,142.069168 287.683593,142.126937 C288.223241,143.920743 288.814284,145.72543 289.395444,147.416558 C291.022295,152.168452 292.552286,156 292.552286,156 L255.389708,156 C255.389708,156 255.518196,155.535078 255.725753,154.750053 C256.609352,151.405585 258.963641,142.114868 259.362941,136.762335 C259.408406,136.173566 259.43015,135.627134 259.422243,135.147573 C259.357011,131.259245 257.698532,126.426434 255.95703,122.38221 C254.336109,125.882575 252.592631,128.938198 250.86299,131.08119 C252.088564,128.603652 252.464143,125.248105 250.447876,122.35016 C249.690787,121.262441 247.530218,119.512753 245,117.669487 C245.464532,114.80003 245.897437,112.715599 245.897437,112.715599 C245.897437,112.715599 249.012768,99.5377416 251.139732,96.1630041 C253.65809,92.1462791 258.34097,90.4773094 261.181535,91.1651956 L261.199326,91 L263.672219,91.0209709 L268.548819,91.0631106 L272.575424,101.985208 L274.668784,99.5917516 L280.668168,92.7330695 L281.310606,91.997702 L282.018277,91.1905189 L288.733238,91.2550145 C289.452769,91.2550145 290.144626,91.3859839 290.804854,91.6152793 C292.609611,92.2398569 294.157393,93.6512403 295.203085,95.5568254 C298.490392,99.7446812 304.298033,115.800502 306,127.179212 Z" id="Fill-102" fill="#FFA000"></path>
                        <path d="M281.29609,78.1888133 C281.347821,78.1027148 281.395573,78.0126117 281.445315,77.9245108 C281.431387,77.3058029 281.41348,76.6690744 281.385625,76.0303435 C281.363738,75.4917272 281.331904,74.9531109 281.29609,74.4245061 C281.258286,73.8938989 281.212523,73.371301 281.158802,72.8727305 C280.991669,71.3229572 280.738981,69.9794199 280.360942,69.1825081 C280.203758,68.8501278 280.024687,68.6098528 279.82174,68.4917177 C278.962201,67.9931472 278.11261,70.289775 277.664933,71.789491 C277.515707,72.2840569 277.412244,72.6805106 277.366481,72.8707282 C277.346585,72.9468153 277.334647,73.0008771 277.334647,73.0008771 C277.334647,73.0008771 277.324698,72.9468153 277.310771,72.8707282 C277.257049,72.5603731 277.115782,71.7013902 277.06803,70.9124876 C277.058082,70.7462974 277.050123,70.5821095 277.050123,70.4299354 C277.050123,69.3767303 276.996402,67.6207211 274.662513,65.0537839 C274.567009,64.9476625 274.493391,64.8315296 274.413804,64.7153967 L274.383959,64.7153967 C273.156329,64.6953738 271.857072,64.6773532 270.571742,64.6633372 C269.658481,64.6533257 268.751189,64.6453165 267.88767,64.6433143 C267.362396,64.641312 266.853039,59.997999 266.365569,60.0000006 C265.933809,60.0000006 265.515977,64.641312 265.122022,64.6453165 C263.028884,64.6613349 261.588359,64.7194013 261.588359,64.8455457 C261.588359,65.5022971 261.283939,70.4299354 261.283939,70.4299354 C261.283939,70.4299354 261.190424,70.2477269 261.053137,69.9273604 L261.053137,72.6024212 C261.053137,76.7611797 261.383423,80.3773174 263.54222,82.2314389 C264.525119,83.0770064 265.886057,83.5567554 267.7663,83.5567554 L270.293187,83.5567554 L270.293187,90.469465 L268.448758,90.4518449 L272.501726,101.505893 L274.608792,99.0833211 L280.649445,92.1419787 L281.29609,91.3975269 L282.006403,90.5807924 L281.29609,90.5741848 L281.29609,78.1888133 Z M272.046091,68.1953786 C272.41816,68.2354244 272.680797,68.7680338 272.619117,69.3847395 C272.557437,69.9994428 272.211234,70.4679789 271.831206,70.4259308 C271.459137,70.385885 271.198489,69.8532756 271.260169,69.2345677 C271.31787,68.6218666 271.668052,68.1553328 272.046091,68.1953786 Z M263.424829,69.2345677 C263.48253,68.6218666 263.832712,68.1553328 264.21274,68.1953786 C264.586799,68.2354244 264.847447,68.7680338 264.785767,69.3847395 C264.724087,69.9994428 264.375894,70.4679789 263.997855,70.4259308 C263.625786,70.385885 263.365139,69.8532756 263.424829,69.2345677 Z M250.231294,122.116676 C252.260763,125.048431 251.880735,128.444717 250.649126,130.953387 C249.46527,133.363545 247.489522,134.952563 246.09675,134.51266 C245.368529,134.281596 244.499041,133.858512 243.534049,133.285656 C241.339437,131.983566 238.6295,129.883163 235.820079,127.355871 C229.375522,121.559839 222.425587,113.532454 220.053895,107.805902 C218.698926,107.32415 217.176825,106.783131 217.172845,106.783932 C217.105196,106.795946 217.043516,106.809762 216.973878,106.819974 C216.504314,106.888852 215.961133,106.872033 215.374179,106.791341 C213.65709,106.55467 211.092399,104.344741 210.495496,102.495025 C209.765285,100.231435 212.292173,97.496105 212.435429,97.3411277 C212.638376,97.1212761 213.342721,96.9440734 213.131815,96.6405261 C212.204627,95.3142085 208.229256,93.3279357 209.132569,91.9227279 C209.793141,90.8969542 212.395636,93.5411797 214.57234,95.206285 C214.767328,95.1109759 214.956347,95.0709301 215.139397,95.1043684 C215.230922,95.1217883 216.560025,95.0655239 216.659509,95.0987619 C217.174835,95.2685562 221.386977,95.9931854 221.351163,100.24425 C221.388966,100.286898 221.422791,100.328746 221.460595,100.372396 C221.522275,100.347367 221.577986,100.326143 221.615789,100.310125 C221.649614,100.295508 222.367886,101.796025 223.165746,103.445512 C227.318198,105.219943 233.253398,109.669634 233.253398,109.669634 C233.253398,109.669634 234.276091,110.308165 235.818089,111.303904 C237.857506,112.621011 240.806204,114.564635 243.534049,116.507058 C243.943922,116.800193 244.349815,117.091727 244.745761,117.382259 C247.296524,119.24479 249.469249,121.015817 250.231294,122.116676 Z M316,159.35949 C316,161.922223 313.936707,164 311.389923,164 C308.84115,164 306.777857,161.922022 306.777857,159.35949 C306.777857,158.828683 306.885299,158.326508 307.048452,157.851164 C307.346904,156.98177 307.888095,156.234515 308.600399,155.685887 C306.622662,151.919577 304.668801,146.59949 304.668801,146.59949 C304.668801,146.59949 304.111692,145.651806 303.307863,144.229979 C301.584805,141.180289 298.727632,135.943697 297.766619,133.127675 C297.605455,132.655335 297.494033,132.247068 297.45424,131.932308 C296.771781,126.55095 303.075072,123.275803 304.704615,124.91668 C305.160251,125.376006 305.647721,126.09623 306.14713,127.003067 C306.20483,127.108788 306.26452,127.208302 306.322221,127.31963 C309.569371,133.464861 313.302001,147.538765 313.00355,155.027133 C314.282911,155.510486 315.281727,156.546472 315.729404,157.850363 C315.892558,158.326508 316,158.828683 316,159.35949 Z" id="Fill-103" fill="#FFD8D8"></path>
                        <path d="M264,89.941471 L269.087533,89.9828885 L271,90 L271,83.2868601 L268.3799,83.2870546 C266.430298,83.2870546 265.019157,82.821156 264,82 L264,89.941471 Z" id="Fill-104" fill="#212121"></path>
                        <path d="M292.808978,156 C292.808978,156 292.864375,156.144271 292.864375,156.144271 L290.248875,156.144271 L282.451837,156.164596 L255.86356,156.164596 C255.329381,160.534561 254.979197,165.268591 255.00096,170.112019 C255.070205,185.884944 263.640814,213.451993 263.640814,213.451993 L264.034524,213.882214 L272.345957,272.706252 L258.407836,281 L276.540253,281 L274.272959,271.705086 C274.504437,270.389792 274.757677,268.925824 275.026745,267.348033 L275.026745,169.120059 C275.026745,163.909378 278.534522,159.536822 283.300588,158.237191 C284.236391,157.982127 285.213741,157.833472 286.23066,157.833472 L290.53377,157.833672 L293.96241,157.833672 L294,157.802187 C293.32733,157.186048 292.842612,156.07911 292.808978,156 Z" id="Fill-105" fill="#2196F3"></path>
                        <path d="M305.942012,127 C305.88519,126.890129 305.82641,126.791304 305.769588,126.68814 C304.082583,115.343026 298.325994,99.3350052 295.067585,95.1599087 C294.031085,93.2599498 292.49495,91.8529309 290.708017,91.2301973 C290.053592,91.0013816 289.365858,90.8707989 288.654612,90.8707989 L281.99672,90.8066911 L281.297229,90.8003789 L281.297229,78.5977984 C281.348173,78.5110063 281.395197,78.4242142 281.444181,78.3354495 C281.432425,77.7279045 281.412831,77.100634 281.3854,76.4694185 C281.363847,75.9388029 281.334457,75.4101598 281.297229,74.889407 C281.260002,74.364709 281.214936,73.8518464 281.162034,73.3587092 C280.997448,71.8339291 280.74861,70.510349 280.376332,69.7233021 C280.221543,69.3978315 280.045201,69.1611257 279.845346,69.0427728 C278.998905,68.5516082 278.162259,70.816094 277.721404,72.2915604 C277.574453,72.7787799 277.472566,73.1693446 277.427501,73.3587092 C277.407907,73.4336661 277.396151,73.4869249 277.396151,73.4869249 C277.396151,73.4869249 277.386354,73.4316935 277.372639,73.3587092 C277.319736,73.0529642 277.180622,72.2047683 277.133597,71.4295566 C277.123801,71.2638626 277.115963,71.1040861 277.115963,70.9521999 C277.115963,69.9146393 277.063061,68.1847141 274.764736,65.6578793 C274.670687,65.5533342 274.59819,65.4369538 274.519816,65.3245186 L274.490426,65.3245186 C273.281503,65.3047931 272.002043,65.2870401 270.736299,65.2732323 C269.836955,65.2633696 268.943488,65.2554794 268.093128,65.2515343 C267.575858,65.2515343 267.074263,60.677194 266.59422,60.677194 C266.16904,60.677194 265.757575,65.2515343 265.369623,65.2535068 C263.30838,65.2712598 261.889806,65.3264911 261.889806,65.4527342 C261.889806,66.0977576 261.590025,70.9521999 261.590025,70.9521999 C261.590025,70.9521999 261.497935,70.7746705 261.364699,70.4590627 C260.488866,68.4253651 257.669353,60.515445 264.1607,55.3927361 C264.887621,54.820697 266.049519,54.5622931 267.423028,54.5070618 C267.364247,54.4912814 267.330938,54.4814186 267.338776,54.4794461 C270.777446,54.0336501 282.778503,52.1932622 284.853461,60.6476057 C284.853461,60.6476057 285.746927,63.7366169 285.454983,68.0229651 C286.16427,70.8417372 287.772902,74.3686541 291.287987,77.8541476 C292.142266,78.700371 292.941683,79.57421 293.709751,80.4618569 C299.740649,87.4255454 303.20871,95.7185345 304.838894,106.010307 C305.820532,112.229556 306.145785,119.165826 305.942012,127 Z" id="Fill-106" fill="#212121"></path>
                    </g>
                </g>
            </g>
        </g>
    </g>
</svg>