<?xml version="1.0" encoding="UTF-8"?>
<svg width="760px" height="328px" viewBox="0 0 760 328" version="1.1" xmlns="http://www.w3.org/2000/svg" xmlns:xlink="http://www.w3.org/1999/xlink">
    <!-- Generator: Sketch 64 (93537) - https://sketch.com -->
    <title>Feature3</title>
    <desc>Created with Sketch.</desc>
    <g id="Landing" stroke="none" stroke-width="1" fill="none" fill-rule="evenodd">
        <g transform="translate(-340.000000, -2575.000000)" id="More-Feature">
            <g transform="translate(112.000000, 1553.000000)">
                <g id="Feature-3" transform="translate(191.000000, 804.000000)">
                    <g id="Feature3" transform="translate(37.000000, 218.000000)">
                        <g id="Group" transform="translate(8.000000, 290.000000)" fill="#C8E6C9">
                            <path d="M0.227262383,0.0270489331 L699.935675,0.0270489331 L699.935675,9.65080772 C582.018488,28.5502692 464.75598,38 348.148148,38 C231.540317,38 115.566688,28.5502692 0.227262383,9.65080772 L0.227262383,0.0270489331 Z" id="Path"></path>
                        </g>
                        <g id="Group" transform="translate(287.000000, 113.000000)">
                            <path d="M97.1527759,114.858613 C95.3501428,114.858613 93.8806051,113.395171 93.8806051,111.589694 C93.8806051,109.78487 95.3501428,108.321429 97.1527759,108.321429 C98.9619402,108.321429 100.424947,109.78487 100.424947,111.589694 C100.424947,113.395171 98.9619402,114.858613 97.1527759,114.858613 Z" id="Path" fill="#4CAF50" fill-rule="nonzero"></path>
                            <path d="M97.1527759,104.965043 C95.3501428,104.965043 93.8806051,103.501602 93.8806051,101.696125 C93.8806051,99.8913011 95.3501428,98.4278597 97.1527759,98.4278597 C98.9619402,98.4278597 100.424947,99.8913011 100.424947,101.696125 C100.424947,103.501602 98.9619402,104.965043 97.1527759,104.965043 Z" id="Path" fill="#4CAF50" fill-rule="nonzero"></path>
                            <path d="M97.1527759,124.929074 C95.3501428,124.929074 93.8806051,123.465633 93.8806051,121.660156 C93.8806051,119.855332 95.3501428,118.39189 97.1527759,118.39189 C98.9619402,118.39189 100.424947,119.855332 100.424947,121.660156 C100.424947,123.465633 98.9619402,124.929074 97.1527759,124.929074 Z" id="Path" fill="#4CAF50" fill-rule="nonzero"></path>
                            <path d="M93.8806051,191.623361 L93.8806051,132.083749 C93.8806051,130.32788 95.3044239,128.903603 97.0678692,128.903603 C98.8247833,128.903603 100.248602,130.32788 100.248602,132.083749 L100.248602,191.623361 C100.248602,193.379883 98.8247833,194.803507 97.0678692,194.803507 C95.3044239,194.803507 93.8806051,193.379883 93.8806051,191.623361 Z" id="Path" fill="#4CAF50" fill-rule="nonzero"></path>
                            <path d="M93.8806051,191.623361 L93.8806051,132.083749 C93.8806051,130.32788 95.3044239,128.903603 97.0678692,128.903603 L97.0678692,194.803507 C95.3044239,194.803507 93.8806051,193.379883 93.8806051,191.623361 Z" id="Path" fill="#2E7D32" fill-rule="nonzero"></path>
                            <line x1="97.1361888" y1="194.800243" x2="97.1361888" y2="128.899687" id="Path" stroke="#A8A8A8" stroke-width="0.5"></line>
                            <path d="M62.0928699,24.8067031 C81.4646436,24.8667552 97.1527759,40.6813221 97.1527759,60.1806023 L97.1527759,60.0696366 L62.0928699,60.0696366 L62.0928699,24.8067031 Z" id="Path" fill="#E0E0E0" fill-rule="nonzero"></path>
                            <path d="M97.2638076,24.6950847 C103.945306,24.6950847 109.359736,19.2838762 109.359736,12.6083117 C109.359736,5.93274721 103.945306,0.520885936 97.2638076,0.520885936 C90.5823091,0.520885936 85.1678788,5.93274721 85.1678788,12.6083117 C85.1678788,19.2838762 90.5823091,24.6950847 97.2638076,24.6950847 Z" id="Path" fill="#4CAF50" fill-rule="nonzero"></path>
                            <path d="M62.0928699,24.8067031 C81.4646436,24.8667552 97.1527759,40.6813221 97.1527759,60.1806023 L97.1527759,60.0696366 L62.0928699,60.0696366 L62.0928699,24.8067031 Z" id="Path" fill="#C8E6C9" fill-rule="nonzero"></path>
                            <path d="M132.212682,24.8067031 C112.840908,24.8667552 97.1527759,40.6813221 97.1527759,60.1806023 L97.1527759,60.0696366 L132.212682,60.0696366 L132.212682,24.8067031 Z" id="Path" fill="#FFA000" fill-rule="nonzero"></path>
                            <path d="M97.1527759,95.1112915 C77.7810022,95.0512395 62.0928699,79.2366725 62.0928699,59.7373923 C62.0928699,59.7001862 62.0928699,59.6629801 62.0928699,59.6264267 L97.1527759,59.6264267 L97.1527759,95.1112915 Z" id="Path" fill="#FFECB3" fill-rule="nonzero"></path>
                            <path d="M97.1527759,95.1112915 C116.52455,95.0512395 132.212682,79.2366725 132.212682,59.7373923 L132.212682,59.6264267 L97.1527759,59.6264267 L97.1527759,95.1112915 Z" id="Path" fill="#4CAF50" fill-rule="nonzero"></path>
                            <path d="M0.463720813,92.0714847 C11.5277075,81.5591188 29.0772543,82.0206055 39.7036453,93.1191312 L39.6383326,93.0564683 L19.6852751,112.142564 L0.463720813,92.0714847 Z" id="Path" fill="#E0E0E0" fill-rule="nonzero"></path>
                            <path d="M20.4233096,72.8613681 C24.224514,69.2249576 24.3616709,63.1975632 20.7237484,59.3979679 C17.085826,55.5983726 11.0509242,55.4658666 7.24971975,59.1016243 C3.44851534,62.7380347 3.31788976,68.7660819 6.95581219,72.5650244 C10.5937346,76.3646197 16.6221052,76.4971258 20.4233096,72.8613681 Z" id="Path" fill="#FF6F00" fill-rule="nonzero"></path>
                            <path d="M0.463720813,92.0714847 C11.5277075,81.5591188 29.0772543,82.0206055 39.7036453,93.1191312 L39.6383326,93.0564683 L19.6852751,112.142564 L0.463720813,92.0714847 Z" id="Path" fill="#4CAF50" fill-rule="nonzero"></path>
                            <path d="M40.3763671,53.8979868 C29.3842244,64.4795431 29.0772543,82.0206055 39.7036453,93.1191312 L39.6383326,93.0551628 L59.5979213,73.9690666 L40.3763671,53.8979868 Z" id="Path" fill="#FFA000" fill-rule="nonzero"></path>
                            <path d="M58.7357925,113.000264 C47.6783371,123.513283 30.1287903,123.051796 19.5023992,111.95327 C19.4828054,111.932382 19.4632116,111.910842 19.4436177,111.889954 L39.3966752,92.8032054 L58.7357925,113.000264 Z" id="Path" fill="#C8E6C9" fill-rule="nonzero"></path>
                            <path d="M58.7357925,113.000264 C69.7344664,102.418708 70.0414365,84.878298 59.4150455,73.7797722 C59.3954517,73.7588846 59.3758578,73.7379969 59.356264,73.7164565 L39.3966752,92.8032054 L58.7357925,113.000264 Z" id="Path" fill="#FFECB3" fill-rule="nonzero"></path>
                            <path d="M193.280141,92.0721375 C182.216154,81.5591188 164.666607,82.0206055 154.040216,93.1191312 L154.098998,93.0564683 L174.058587,112.143217 L193.280141,92.0721375 Z" id="Path" fill="#E0E0E0" fill-rule="nonzero"></path>
                            <path d="M173.320552,72.8613681 C169.519348,69.2256103 169.382191,63.1975632 173.020113,59.3979679 C176.658036,55.5983726 182.692938,55.4658666 186.494142,59.102277 C190.295346,62.7386875 190.425972,68.7660819 186.78805,72.5656772 C183.150127,76.3652724 177.121757,76.4977785 173.320552,72.8613681 Z" id="Path" fill="#FF6F00" fill-rule="nonzero"></path>
                            <path d="M193.280141,92.0721375 C182.216154,81.5591188 164.666607,82.0206055 154.040216,93.1191312 L154.098998,93.0564683 L174.058587,112.143217 L193.280141,92.0721375 Z" id="Path" fill="#4CAF50" fill-rule="nonzero"></path>
                            <path d="M153.367495,53.8986396 C164.359637,64.4795431 164.666607,82.0206055 154.040216,93.1191312 L154.098998,93.0558155 L134.14594,73.9697193 L153.367495,53.8986396 Z" id="Path" fill="#FFECB3" fill-rule="nonzero"></path>
                            <path d="M135.001538,113.000917 C146.065525,123.513283 163.615071,123.051796 174.241462,111.95327 C174.261056,111.932382 174.28065,111.911495 174.300244,111.889954 L154.347187,92.8038582 L135.001538,113.000917 Z" id="Path" fill="#C8E6C9" fill-rule="nonzero"></path>
                            <path d="M135.001538,113.000917 C124.009395,102.41936 123.695894,84.878298 134.328816,73.7797722 C134.34841,73.7588846 134.368004,73.7379969 134.387598,73.7171092 L154.347187,92.8038582 L135.001538,113.000917 Z" id="Path" fill="#2E7D32" fill-rule="nonzero"></path>
                            <path d="M96.7870242,199.337434 C82.0002085,199.291742 70.0218427,187.294395 70.0218427,172.50267 L70.0218427,172.417814 L96.7870242,172.417814 L96.7870242,199.337434 Z" id="Path" fill="#FFECB3" fill-rule="nonzero"></path>
                            <path d="M96.7870242,199.337434 C111.671809,199.291742 123.722019,187.295047 123.722019,172.50267 C123.722019,172.474602 123.722019,172.445882 123.722019,172.417814 L96.7870242,172.417814 L96.7870242,199.337434 Z" id="Path" fill="#4CAF50" fill-rule="nonzero"></path>
                            <path d="M128.705385,118.354031 C128.215539,117.792676 128.267789,116.937587 128.829479,116.443464 C129.391169,115.949993 130.246767,116.00417 130.736613,116.565526 C131.23299,117.126882 131.18074,117.98197 130.61905,118.476094 C130.05736,118.969564 129.201762,118.914734 128.705385,118.354031 Z" id="Path" fill="#4CAF50" fill-rule="nonzero"></path>
                            <path d="M131.781617,115.647122 C131.291771,115.086419 131.344022,114.23133 131.905712,113.737207 C132.467402,113.243736 133.322999,113.298566 133.819376,113.859269 C134.309222,114.420625 134.256972,115.275713 133.695282,115.769837 C133.133592,116.263307 132.277995,116.208477 131.781617,115.647122 Z" id="Path" fill="#4CAF50" fill-rule="nonzero"></path>
                            <path d="M125.570371,121.108591 C125.080525,120.547235 125.132775,119.692147 125.694465,119.198676 C126.256155,118.704552 127.111753,118.759382 127.60813,119.320085 C128.097976,119.881441 128.045726,120.73653 127.484036,121.230653 C126.922346,121.724124 126.066748,121.669947 125.570371,121.108591 Z" id="Path" fill="#4CAF50" fill-rule="nonzero"></path>
                            <path d="M103.932244,138.335686 L122.454951,122.049841 C122.997047,121.569425 123.833051,121.622297 124.316365,122.16864 C124.793149,122.71433 124.740899,123.546572 124.192271,124.026988 L105.676095,140.312833 C105.127468,140.793902 104.291464,140.740377 103.81468,140.194687 C103.331366,139.648344 103.390147,138.816755 103.932244,138.335686 Z" id="Path" fill="#4CAF50" fill-rule="nonzero"></path>
                            <path d="M103.932244,138.335686 L122.454951,122.049841 C122.997047,121.569425 123.833051,121.622297 124.316365,122.16864 L103.81468,140.194687 C103.331366,139.648344 103.390147,138.816755 103.932244,138.335686 Z" id="Path" fill="#2E7D32" fill-rule="nonzero"></path>
                            <line x1="103.795087" y1="140.164009" x2="124.296772" y2="122.137961" id="Path" stroke="#A8A8A8" stroke-width="0.5"></line>
                            <path d="M65.0384768,118.354031 C65.534854,117.792676 65.4760725,116.937587 64.9143825,116.443464 C64.3526925,115.949993 63.4970949,116.00417 63.0007177,116.565526 C62.5108718,117.126882 62.563122,117.98197 63.124812,118.476094 C63.686502,118.969564 64.5420996,118.914734 65.0384768,118.354031 Z" id="Path" fill="#4CAF50" fill-rule="nonzero"></path>
                            <path d="M61.9622443,115.647122 C62.4520903,115.086419 62.39984,114.23133 61.83815,113.737207 C61.27646,113.243736 60.4208625,113.298566 59.9244853,113.859269 C59.4346394,114.420625 59.4868896,115.275713 60.0485796,115.769837 C60.6102696,116.263307 61.4658671,116.208477 61.9622443,115.647122 Z" id="Path" fill="#4CAF50" fill-rule="nonzero"></path>
                            <path d="M68.1734907,121.108591 C68.6633366,120.547235 68.6110864,119.692147 68.0493964,119.198676 C67.4877064,118.704552 66.6321089,118.759382 66.1357317,119.320085 C65.6393544,119.881441 65.698136,120.73653 66.259826,121.230653 C66.821516,121.724124 67.6771135,121.669947 68.1734907,121.108591 Z" id="Path" fill="#4CAF50" fill-rule="nonzero"></path>
                            <path d="M89.8116182,138.335686 L71.2889108,122.049841 C70.7468147,121.569425 69.9108109,121.622297 69.4274963,122.16864 C68.9507129,122.71433 69.0029632,123.546572 69.5515906,124.026988 L88.0677667,140.312833 C88.6163941,140.793902 89.4458666,140.740377 89.9291812,140.194687 C90.4124959,139.648344 90.3602457,138.816755 89.8116182,138.335686 Z" id="Path" fill="#4CAF50" fill-rule="nonzero"></path>
                            <path d="M89.8116182,138.335686 L71.2889108,122.049841 C70.7468147,121.569425 69.9108109,121.622297 69.4274963,122.16864 L89.9291812,140.194687 C90.4124959,139.648344 90.3602457,138.816755 89.8116182,138.335686 Z" id="Path" fill="#2E7D32" fill-rule="nonzero"></path>
                            <line x1="89.9291812" y1="140.227324" x2="69.4274963" y2="122.200624" id="Path" stroke="#A8A8A8" stroke-width="0.5"></line>
                            <path d="M47.5738366,70.29545 L3.49423429,70.29545 C3.48770301,70.1518474 3.48117173,70.0088975 3.48117173,69.8652948 C3.48117173,57.6949712 13.3564657,47.8294699 25.5307698,47.8294699 C37.7116052,47.8294699 47.5803679,57.6949712 47.5803679,69.8652948 C47.5803679,70.0088975 47.5738366,70.1518474 47.5738366,70.29545 Z" id="Path" fill="#FEBE40"></path>
                            <path d="M47.5803679,69.8652948 C47.5803679,70.0088975 47.5738366,70.1518474 47.5738366,70.29545 L3.49423429,70.29545 C3.48770301,70.1518474 3.48117173,70.0088975 3.48117173,69.8652948 C3.48117173,57.6949712 13.3564657,47.8294699 25.5307698,47.8294699 C37.7116052,47.8294699 47.5803679,57.6949712 47.5803679,69.8652948 Z" id="Path" fill="#2196F3"></path>
                        </g>
                        <g id="Group" transform="translate(554.000000, 98.000000)">
                            <path d="M102.854503,0.615439688 C122.300412,0.615439688 138.065955,16.2863335 138.065955,35.61792 L67.6365262,35.61792 C67.6365262,16.2863335 83.4020686,0.615439688 102.854503,0.615439688 Z" id="Path" fill="#4CAF50" fill-rule="nonzero"></path>
                            <path d="M103.115522,13.414499 C118.515638,13.414499 130.992342,25.8113058 130.992342,41.1027654 L75.2321766,41.1027654 C75.2321766,25.8113058 87.7154062,13.414499 103.115522,13.414499 Z" id="Path" fill="#C8E6C9" fill-rule="nonzero"></path>
                            <path d="M103.246032,27.2586322 C114.665609,27.2586322 123.925255,36.4980509 123.925255,47.8947683 C123.925255,47.9821294 123.925255,48.0694905 123.925255,48.1561997 L82.5668081,48.1555478 L82.5602826,47.8947683 C82.5602826,36.61149 91.6372154,27.4437857 102.900182,27.26124 L103.246032,27.2586322 Z" id="Path" fill="#2E7D32" fill-rule="nonzero"></path>
                            <path d="M102.717468,97.2635928 C79.8652623,97.1931823 61.3590213,78.6837033 61.3590213,55.8615829 C61.3590213,55.8179023 61.3590213,55.7742217 61.3590213,55.7305411 L102.717468,55.7305411 L102.717468,97.2635928 Z" id="Path" fill="#FFECB3" fill-rule="nonzero"></path>
                            <path d="M102.717468,97.2635928 C125.71976,97.1931823 144.349985,78.6843553 144.349985,55.8615829 C144.349985,55.8179023 144.349985,55.7742217 144.34346,55.7305411 L102.717468,55.7305411 L102.717468,97.2635928 Z" id="Path" fill="#FFA000" fill-rule="nonzero"></path>
                            <path d="M98.9261685,210.282833 L98.9261685,138.993533 C98.9261685,136.890346 100.635842,135.1855 102.74357,135.1855 C104.851298,135.1855 106.560972,136.890346 106.560972,138.993533 L106.560972,210.282833 C106.560972,212.385368 104.851298,214.090214 102.74357,214.090214 C100.635842,214.090214 98.9261685,212.385368 98.9261685,210.282833 Z" id="Path" fill="#4CAF50" fill-rule="nonzero"></path>
                            <path d="M98.9261685,210.282833 L98.9261685,138.993533 C98.9261685,136.890346 100.635842,135.1855 102.74357,135.1855 L102.74357,214.090214 C100.635842,214.090214 98.9261685,212.385368 98.9261685,210.282833 Z" id="Path" fill="#2E7D32" fill-rule="nonzero"></path>
                            <line x1="102.798778" y1="214.090214" x2="102.798778" y2="135.1855" id="Path" stroke="#A8A8A8" stroke-width="0.5"></line>
                            <path d="M101.738647,214.090214 C86.4559899,214.043274 74.0836934,201.667981 74.0836934,186.409119 L74.0836934,186.321758 L101.738647,186.321758 L101.738647,214.090214 Z" id="Path" fill="#FFECB3" fill-rule="nonzero"></path>
                            <path d="M101.738647,214.090214 C117.119187,214.043274 129.569789,201.667981 129.569789,186.409119 L129.569789,186.321758 L101.738647,186.321758 L101.738647,214.090214 Z" id="Path" fill="#FFA000" fill-rule="nonzero"></path>
                            <path d="M0.247967969,94.6688365 C11.6740709,83.8243198 29.8018345,84.3002424 40.7842054,95.7491157 L40.7254761,95.6845727 L20.1049819,115.373427 L0.247967969,94.6688365 Z" id="Path" fill="#E0E0E0" fill-rule="nonzero"></path>
                            <path d="M20.8684622,74.8522001 C24.7967969,71.1015385 24.9338318,64.8839026 21.1751594,60.9643863 C17.4164871,57.04487 11.1846605,56.9079607 7.25632582,60.6592742 C3.32799116,64.4099358 3.19095623,70.6275717 6.94962859,74.547088 C10.708301,78.4666044 16.9401275,78.6035136 20.8684622,74.8522001 Z" id="Path" fill="#FF6F00" fill-rule="nonzero"></path>
                            <path d="M0.247967969,94.6688365 C11.6740709,83.8243198 29.8018345,84.3002424 40.7842054,95.7491157 L40.7254761,95.6845727 L20.1049819,115.373427 L0.247967969,94.6688365 Z" id="Path" fill="#4CAF50" fill-rule="nonzero"></path>
                            <path d="M41.4889564,55.2911276 C30.1281082,66.2060548 29.8018345,84.3002424 40.7842054,95.7491157 L40.7254761,95.6839208 L61.3459703,75.9950664 L41.4889564,55.2911276 Z" id="Path" fill="#FFA000" fill-rule="nonzero"></path>
                            <path d="M60.458506,116.258122 C49.0258776,127.101986 30.898114,126.626716 19.9157432,115.177843 C19.8961667,115.155676 19.8765903,115.134162 19.8504884,115.112648 L40.4709827,95.4237932 L60.458506,116.258122 Z" id="Path" fill="#C8E6C9" fill-rule="nonzero"></path>
                            <path d="M60.458506,116.258122 C71.8193543,105.342543 72.1391025,87.248355 61.1567316,75.8001337 C61.1371552,75.7779674 61.1175788,75.7564531 61.0914769,75.7349388 L40.4709827,95.4237932 L60.458506,116.258122 Z" id="Path" fill="#FFECB3" fill-rule="nonzero"></path>
                            <path d="M67.06881,121.578676 C67.5777969,120.999746 67.5190677,120.117659 66.9383006,119.608487 C66.3575335,119.098663 65.4765947,119.155382 64.9676078,119.734313 C64.4520954,120.313243 64.5108247,121.19533 65.0915918,121.704502 C65.6723589,122.214326 66.5532977,122.157607 67.06881,121.578676 Z" id="Path" fill="#4CAF50" fill-rule="nonzero"></path>
                            <path d="M63.8843793,118.787031 C64.3933662,118.208101 64.3411624,117.326014 63.7603953,116.816842 C63.1796282,116.30767 62.2986894,116.363737 61.783177,116.942668 C61.2741901,117.521599 61.3329194,118.403685 61.9136865,118.912857 C62.4944536,119.422681 63.3753924,119.365962 63.8843793,118.787031 Z" id="Path" fill="#4CAF50" fill-rule="nonzero"></path>
                            <path d="M70.3054446,124.420521 C70.8144315,123.84159 70.7557022,122.959504 70.1749351,122.450332 C69.594168,121.940508 68.7132292,121.996575 68.2042423,122.576158 C67.68873,123.155088 67.7474592,124.036523 68.3282263,124.546347 C68.9089934,125.055519 69.7899322,124.999452 70.3054446,124.420521 Z" id="Path" fill="#4CAF50" fill-rule="nonzero"></path>
                            <path d="M92.6617146,142.191342 L73.5290282,125.391273 C72.961312,124.895792 72.0999496,124.950555 71.6040137,125.513839 C71.1080777,126.077123 71.166807,126.935088 71.7279977,127.430569 L90.8672096,144.230638 C91.4284002,144.726771 92.2897626,144.672007 92.7856986,144.108071 C93.2816345,143.544788 93.2294307,142.686823 92.6617146,142.191342 Z" id="Path" fill="#4CAF50" fill-rule="nonzero"></path>
                            <path d="M92.6617146,142.191342 L73.5290282,125.391273 C72.961312,124.895792 72.0999496,124.950555 71.6040137,125.513839 L92.7856986,144.108071 C93.2816345,143.544788 93.2294307,142.686823 92.6617146,142.191342 Z" id="Path" fill="#2E7D32" fill-rule="nonzero"></path>
                            <line x1="92.7922241" y1="144.126978" x2="71.6105392" y2="125.531442" id="Path" stroke="#A8A8A8" stroke-width="0.5"></line>
                            <path d="M205.454513,94.6688365 C194.02841,83.8243198 175.900646,84.3002424 164.918276,95.7491157 L164.977005,95.6845727 L185.597499,115.373427 L205.454513,94.6688365 Z" id="Path" fill="#E0E0E0" fill-rule="nonzero"></path>
                            <path d="M184.834019,74.8522001 C180.905684,71.1015385 180.768649,64.8839026 184.527322,60.9643863 C188.285994,57.04487 194.51782,56.9079607 198.446155,60.6592742 C202.37449,64.4099358 202.511525,70.6275717 198.752852,74.547088 C194.99418,78.4666044 188.762353,78.6035136 184.834019,74.8522001 Z" id="Path" fill="#FF6F00" fill-rule="nonzero"></path>
                            <path d="M205.454513,94.6688365 C194.02841,83.8243198 175.900646,84.3002424 164.918276,95.7491157 L164.977005,95.6845727 L185.597499,115.373427 L205.454513,94.6688365 Z" id="Path" fill="#4CAF50" fill-rule="nonzero"></path>
                            <path d="M164.213524,55.2911276 C175.574373,66.2060548 175.900646,84.3002424 164.918276,95.7491157 L164.977005,95.6839208 L144.356511,75.9950664 L164.213524,55.2911276 Z" id="Path" fill="#FFECB3" fill-rule="nonzero"></path>
                            <path d="M145.243975,116.258122 C156.676603,127.101986 174.804367,126.626716 185.786738,115.177843 C185.806314,115.155676 185.825891,115.134162 185.851993,115.112648 L165.231498,95.4237932 L145.243975,116.258122 Z" id="Path" fill="#C8E6C9" fill-rule="nonzero"></path>
                            <path d="M145.243975,116.258122 C133.883127,105.342543 133.563378,87.248355 144.545749,75.8001337 C144.565326,75.7779674 144.584902,75.7564531 144.611004,75.7349388 L165.231498,95.4237932 L145.243975,116.258122 Z" id="Path" fill="#2E7D32" fill-rule="nonzero"></path>
                            <path d="M138.842486,121.578676 C138.326974,120.999746 138.385703,120.117659 138.96647,119.607835 C139.547237,119.098663 140.428176,119.155382 140.943688,119.734313 C141.452675,120.313243 141.393946,121.19533 140.813179,121.704502 C140.232412,122.213674 139.351473,122.157607 138.842486,121.578676 Z" id="Path" fill="#4CAF50" fill-rule="nonzero"></path>
                            <path d="M142.020391,118.786379 C141.511404,118.208101 141.563608,117.326014 142.144375,116.81619 C142.725142,116.307018 143.612607,116.363737 144.121594,116.942016 C144.63058,117.521599 144.571851,118.403685 143.991084,118.912857 C143.416842,119.422029 142.529378,119.365962 142.020391,118.786379 Z" id="Path" fill="#4CAF50" fill-rule="nonzero"></path>
                            <path d="M135.605851,124.419869 C135.090339,123.840938 135.149068,122.958852 135.729835,122.44968 C136.310603,121.939856 137.191541,121.996575 137.707054,122.575506 C138.216041,123.154436 138.157311,124.036523 137.576544,124.546347 C136.995777,125.055519 136.114838,124.9988 135.605851,124.419869 Z" id="Path" fill="#4CAF50" fill-rule="nonzero"></path>
                            <path d="M113.243056,142.191342 L132.375742,125.391273 C132.943459,124.89514 133.804821,124.949903 134.300757,125.513187 C134.796693,126.077123 134.744489,126.935088 134.176773,127.430569 L115.037561,144.230638 C114.47637,144.726119 113.615008,144.671355 113.119072,144.108071 C112.623136,143.544788 112.67534,142.686823 113.243056,142.191342 Z" id="Path" fill="#4CAF50" fill-rule="nonzero"></path>
                            <path d="M113.243056,142.191342 L132.375742,125.391273 C132.943459,124.89514 133.804821,124.949903 134.300757,125.513187 L113.119072,144.108071 C112.623136,143.544788 112.67534,142.686823 113.243056,142.191342 Z" id="Path" fill="#2E7D32" fill-rule="nonzero"></path>
                            <line x1="113.106021" y1="144.093729" x2="134.287706" y2="125.498192" id="Path" stroke="#A8A8A8" stroke-width="0.5"></line>
                            <path d="M102.847978,118.367828 C100.688046,118.367828 98.9261685,116.616042 98.9261685,114.454179 C98.9261685,112.292969 100.688046,110.541183 102.847978,110.541183 C105.014435,110.541183 106.776312,112.292969 106.776312,114.454179 C106.776312,116.616042 105.014435,118.367828 102.847978,118.367828 Z" id="Path" fill="#4CAF50" fill-rule="nonzero"></path>
                            <path d="M102.847978,106.521266 C100.688046,106.521266 98.9261685,104.76948 98.9261685,102.608269 C98.9261685,100.447059 100.688046,98.6946205 102.847978,98.6946205 C105.014435,98.6946205 106.776312,100.447059 106.776312,102.608269 C106.776312,104.76948 105.014435,106.521266 102.847978,106.521266 Z" id="Path" fill="#4CAF50" fill-rule="nonzero"></path>
                            <path d="M102.847978,130.425622 C100.688046,130.425622 98.9261685,128.673835 98.9261685,126.511973 C98.9261685,124.350762 100.688046,122.598976 102.847978,122.598976 C105.014435,122.598976 106.776312,124.350762 106.776312,126.511973 C106.776312,128.673835 105.014435,130.425622 102.847978,130.425622 Z" id="Path" fill="#4CAF50" fill-rule="nonzero"></path>
                        </g>
                        <g id="Group" transform="translate(226.000000, 105.000000)">
                            <path d="M173.731601,105.024933 C172.357438,151.819437 105.11378,204.893367 88.4173787,209.435116 C88.4173787,209.435116 87.6432024,209.904952 87.1528908,209.774983 C86.6690307,209.904952 85.8948544,209.435116 85.8948544,209.435116 C69.1984534,204.893367 1.95479502,151.819437 0.580632184,105.024933 C-0.212898467,77.8771162 0.516117497,29.581477 0.516117497,29.581477 L85.8948544,0.677135807 L87.1528908,0.250839176 L88.4173787,0.677135807 L173.796116,29.581477 C173.796116,29.581477 174.525132,77.8771162 173.731601,105.024933 Z" id="Path" fill="#2196F3"></path>
                            <path d="M120.952135,79.0812742 L116.281272,79.0812742 C116.287723,78.9383089 116.294175,78.7959934 116.294175,78.6530281 C116.294175,62.4420589 103.249305,49.2996457 87.1528908,49.2996457 C71.0564764,49.2996457 58.0116066,62.4420589 58.0116066,78.6530281 C58.0116066,78.7959934 58.0180581,78.9383089 58.0245096,79.0812742 L53.3536462,79.0812742 C49.9150134,79.0812742 47.1215275,81.8937922 47.1215275,85.3633009 L47.1215275,130.64952 C47.1215275,134.119029 49.9150134,136.931547 53.3536462,136.931547 L120.952135,136.931547 C124.39722,136.931547 127.184254,134.119029 127.184254,130.64952 L127.184254,85.3633009 C127.184254,81.8937922 124.39722,79.0812742 120.952135,79.0812742 Z" id="Path" fill="#FFA000"></path>
                            <path d="M90.2754017,104.022876 L96.0301117,125.236332 L78.2756699,125.236332 L84.0303799,104.022876 C81.1659278,102.797274 79.1530696,99.9379669 79.1530696,96.6036254 C79.1530696,92.1535044 82.7336347,88.5462291 87.1528908,88.5462291 C91.5721469,88.5462291 95.152712,92.1535044 95.152712,96.6036254 C95.152712,99.9366672 93.1398538,102.797274 90.2754017,104.022876 Z" id="Path" fill="#4CAF50"></path>
                            <path d="M78.2756699,125.235033 L84.0303799,104.021577 C81.1659278,102.795974 79.1530696,99.9366672 79.1530696,96.6023257 C79.1530696,92.1522048 82.7336347,88.5449295 87.1528908,88.5449295 C91.5721469,88.5449295 95.152712,92.1522048 95.152712,96.6023257 C95.152712,99.9353675 93.1398538,102.795974 90.2754017,104.021577 L96.0301117,125.235033 L78.2756699,125.235033 Z" id="Path" fill="#C8E6C9"></path>
                        </g>
                        <g id="Group" transform="translate(53.000000, 0.000000)">
                            <path d="M165.613508,63.0665918 C162.536131,47.818861 147.662144,37.9548952 132.405107,41.0327224 C117.141578,44.1111982 107.266705,58.9671466 110.350574,74.2148774 C112.999455,87.3246697 124.36757,96.4472326 137.202958,96.7923125 L150.622658,163.209812 L139.657069,165.41975 C136.839386,165.989261 135.008542,168.737576 135.579869,171.558539 C136.151196,174.379503 138.897463,176.204145 141.721638,175.634633 L152.687227,173.424046 L154.135022,180.601967 L137.092588,184.038496 C134.274906,184.607359 132.444061,187.355674 133.015389,190.177286 C133.586716,192.998249 136.332982,194.822891 139.157157,194.253379 L160.4391,189.961286 C160.614394,189.925611 160.79618,189.878908 160.964981,189.825071 C161.146767,189.807557 161.335045,189.779665 161.523323,189.742692 C164.457868,189.150478 166.360129,186.290596 165.762832,183.355471 L152.894982,119.67526 C151.713374,120.053421 150.499303,120.227907 150.103269,120.001529 C149.330679,119.555909 148.739875,112.467501 149.161878,111.927179 C149.583881,111.386856 150.947276,110.636373 150.947276,110.636373 L150.492811,107.764166 L147.908853,94.9981566 C160.640363,90.2306056 168.392236,76.8107603 165.613508,63.0665918 Z M141.273665,84.9298672 C132.268768,86.7460771 123.497595,80.9251244 121.679735,71.9296962 C119.861875,62.9329706 125.685519,54.1691092 134.690416,52.3528993 C143.695314,50.5366894 152.466487,56.3569935 154.284347,65.3524217 C156.102206,74.3484986 150.278563,83.1136573 141.273665,84.9298672 Z" id="Shape" fill="#4CAF50"></path>
                            <path d="M53.7274916,91.293737 C46.9929708,100.009599 38.7067769,106.977358 38.7067769,106.977358 L28.3436783,155.645946 C28.3436783,155.645946 26.8653689,162.297166 27.3834589,165.771316 C27.9008997,169.244818 25.0812695,177.084358 21.5572187,178.398516 C18.0331679,179.712673 11.9732028,177.694086 11.8316695,174.408692 C11.6914346,171.122649 16.2484192,168.8699 16.8580514,164.880076 C17.4696314,160.890252 19.4134427,159.762905 20.0847523,158.590152 C20.7580096,157.416102 21.227407,154.365518 21.227407,154.365518 C21.227407,154.365518 25.5961133,110.287401 25.8785308,108.316164 C26.1258895,106.586224 37.3654561,82.2788494 40.1201628,76.3385457 L53.6463371,88.4585036 C53.6476356,88.4572063 53.6346509,89.5008784 53.7274916,91.293737 Z M102.29356,298.536261 L103.377784,304.90013 C108.565176,304.848887 109.506568,302.478733 109.506568,302.478733 C109.506568,302.478733 109.51306,302.444355 109.558506,302.407382 L109.389705,298.364369 L102.29356,298.536261 Z M137.982041,110.519616 C137.982041,110.519616 131.872734,109.67443 119.472334,109.205459 C107.065442,108.736487 101.897526,105.731309 100.443239,105.07423 C99.8978809,104.82969 99.4434159,104.403529 99.0863364,103.963098 L97.054229,105.593795 C96.9049048,109.905348 96.7231188,114.21236 96.5218558,118.284562 C97.3398926,119.060343 98.3462078,119.801097 99.4564007,120.190285 C102.436392,121.230714 137.138035,117.373214 137.138035,117.373214 C137.138035,117.373214 140.033625,118.78402 141.825516,119.672017 L139.884301,110.081131 L137.982041,110.519616 Z M155.134845,109.90924 C154.589487,108.970649 153.368924,109.064054 153.368924,108.688487 C153.368924,108.31357 153.420863,107.327627 153.044307,107.304276 C152.66775,107.280925 150.479826,107.703194 150.479826,107.703194 L150.953768,110.636373 C150.953768,110.636373 149.590373,111.387505 149.16837,111.927828 C148.746367,112.46815 149.330679,119.55526 150.103269,120.001529 C150.882352,120.448447 154.849182,119.34445 155.459463,118.1704 C156.069744,116.998296 155.673711,110.84848 155.134845,109.90924 Z M96.4244704,26.9882306 C95.3921858,24.608347 96.6517029,21.0427377 95.1065222,14.4875173 C94.5351948,15.1115151 93.5288797,15.5487028 91.7045277,16.0034039 C86.6275053,17.2708589 84.5174896,18.8204752 84.3032419,21.5661954 C84.0954865,24.3112669 84.9394928,25.578722 83.3878197,26.2844493 C81.8361466,26.9882306 79.7326233,27.4104994 79.9014246,25.3685606 C80.0767182,23.3272703 80.9207244,19.7363639 78.7392928,19.1019877 C76.5513689,18.4682602 74.2985214,22.0591666 75.2139436,25.5099655 C76.1293658,28.9607643 78.7392928,32.2695096 78.1744579,36.564846 C77.6096229,40.8595338 67.9684743,40.6039671 67.9684743,40.6039671 C67.9684743,40.6039671 67.9684743,40.5773726 67.961982,40.5352106 C68.2216762,42.6095818 67.8645966,44.4556294 67.4945324,45.6874089 C75.6489314,47.4718351 81.1284798,50.8318235 83.4267738,52.4599259 C84.1474253,46.7628646 88.0558236,41.6962876 91.4253564,41.6333689 C95.2298769,41.5633151 94.8727974,40.2258063 95.3012928,37.4787888 C95.723296,34.7330686 94.665042,32.3382661 96.4244704,31.423026 C98.1903912,30.5090832 97.5541404,29.5938432 96.4244704,26.9882306 Z M6.3365394,289.581048 C10.1689771,293.073361 12.472465,291.975851 12.472465,291.975851 C12.472465,291.975851 12.5023298,291.958337 12.5614103,291.960932 L16.2945149,287.59165 L9.9664156,284.042257 L6.3365394,289.581048 Z" id="Shape" fill="#FFD8D8"></path>
                            <path d="M118.323187,306.246072 C115.849599,306.621638 112.084033,302.625976 110.818024,302.387274 C109.552014,302.147924 109.500075,302.480679 109.500075,302.480679 C109.500075,302.480679 108.565176,304.850833 103.377784,304.901428 C103.377784,304.901428 102.546762,304.878076 102.332514,305.334723 C102.118267,305.791371 103.163536,313.668532 103.351814,313.874802 C103.546585,314.081071 126.54251,310.662056 127.295623,309.958275 C128.055229,309.253845 127.126822,306.397855 126.393185,305.607155 C125.659549,304.816455 120.796775,305.869208 118.323187,306.246072 Z" id="Path" fill="#FF6F00"></path>
                            <path d="M102.838918,212.571154 C102.838918,211.82067 95.0870451,142.252695 95.0870451,142.252695 L52.9419165,142.252695 C52.9419165,142.252695 45.7146259,152.972874 47.748681,172.960913 C50.0041255,195.116728 43.8026271,219.902804 43.8026271,219.902804 L7.74278369,282.79491 L18.4558202,288.802673 C18.4558202,288.802673 65.8130122,227.778668 66.3778471,226.840077 C66.9426821,225.900837 73.3311603,202.805782 73.3311603,202.805782 L100.650994,298.574531 L111.181595,298.321559 C111.181595,298.322207 102.838918,213.321638 102.838918,212.571154 Z" id="Path" fill="#FF6F00"></path>
                            <path d="M16.3639831,300.734523 C14.296817,299.326961 14.2643552,293.840061 13.497608,292.802226 C12.7308608,291.763744 12.472465,291.975851 12.472465,291.975851 C12.472465,291.975851 10.1689771,293.072063 6.3365394,289.581048 C6.3365394,289.581048 5.74508577,288.999861 5.27568844,289.187969 C4.8062911,289.376725 0.201263034,295.854108 0.201263034,296.134972 C0.201263034,296.417133 19.3705932,309.559357 20.4041762,309.559357 C21.4371101,309.559357 22.7063657,306.837637 22.7063657,305.756992 C22.7063657,304.676347 18.4317985,302.144032 16.3639831,300.734523 Z" id="Path" fill="#FF6F00"></path>
                            <path d="M97.3269079,84.6976518 C97.2035531,78.0405939 96.7945347,72.746342 95.9310514,70.2912154 C92.2693626,59.8700624 84.6538291,53.3920308 84.6538291,53.3920308 C84.6538291,53.3920308 78.4536292,48.0413467 67.3192387,45.6465442 C67.3192387,45.6465442 47.3039546,54.941647 39.9753832,76.2055732 L53.6476356,88.4572063 C53.6476356,88.4572063 53.5074007,100.005707 57.5936895,112.67896 C61.6838738,125.353511 52.943215,142.252695 52.943215,142.252695 L95.0870451,142.252695 C95.0870451,142.252695 96.4309628,123.934921 97.054229,105.593795 L99.4564007,103.666667 L97.3269079,84.6976518 Z" id="Path" fill="#FFA000"></path>
                            <path d="M67.9749667,40.6149941 C67.9749667,40.6149941 67.3581929,35.8020378 64.9949753,32.5451843 C61.924091,28.3062801 62.3201247,24.1834836 60.1322007,19.7467422 C57.9507691,15.3106495 61.8267056,10.8752055 63.3069628,9.39629169 C64.7872199,7.91672926 66.2674771,4.67803781 68.3060768,2.98831395 C70.351169,1.29859009 74.7205245,0.453403831 77.6096229,1.72085889 C80.4987213,2.98831395 84.8680769,0.241945106 87.971423,0.313296209 C91.0747691,0.38335002 96.288131,2.77815251 95.9375437,8.19889045 C95.5869565,13.6215743 96.78155,14.7469758 91.71102,16.0144309 C86.6339977,17.2818859 84.5174896,18.8315022 84.3097342,21.5772224 C84.0954865,24.3222939 84.9394928,25.589749 83.3878197,26.2954763 C81.842639,26.9992576 79.7326233,27.4215264 79.9079169,25.3795875 C80.0767182,23.3382973 80.9207244,19.7473909 78.7392928,19.1130147 C76.5578612,18.4792872 74.2985214,22.0701936 75.2139436,25.5209925 C76.1358581,28.9717913 78.7392928,32.2805365 78.1744579,36.575873 C77.6096229,40.8718581 67.9749667,40.6149941 67.9749667,40.6149941 Z" id="Path" fill="#212121"></path>
                        </g>
                        <g id="Group" transform="translate(484.000000, 139.000000)">
                            <path d="M31.2262883,0.538524215 C45.6719746,0.538524215 57.38504,12.426577 57.38504,27.0915586 L5.06753651,27.0915586 C5.06753651,12.426577 16.7741873,0.538524215 31.2262883,0.538524215 Z" id="Path" fill="#4CAF50" fill-rule="nonzero"></path>
                            <path d="M31.4187263,10.2482988 C42.8623784,10.2482988 52.13148,19.6522125 52.13148,31.2527038 L10.7059727,31.2527038 C10.7059727,19.6522125 19.9814889,10.2482988 31.4187263,10.2482988 Z" id="Path" fill="#C8E6C9" fill-rule="nonzero"></path>
                            <path d="M31.5149454,20.7508281 C40.0014654,20.7508281 46.8843346,27.7594855 46.8843346,36.4052826 C46.8843346,36.471291 46.8843346,36.537953 46.87792,36.6033079 L16.1519708,36.6033079 L16.1519708,36.4052826 C16.1519708,27.8457539 22.8937187,20.8913411 31.2647759,20.7527887 L31.5149454,20.7508281 Z" id="Path" fill="#2E7D32" fill-rule="nonzero"></path>
                            <path d="M31.1300692,73.8575504 C14.1506146,73.8039594 0.397705397,59.7624633 0.397705397,42.4493019 C0.397705397,42.4159709 0.397705397,42.3832935 0.397705397,42.3499625 L31.1300692,42.3499625 L31.1300692,73.8575504 Z" id="Path" fill="#FFECB3" fill-rule="nonzero"></path>
                            <path d="M31.1300692,73.8575504 C48.2185721,73.8039594 62.0548711,59.7624633 62.0548711,42.4493019 C62.0548711,42.4159709 62.0548711,42.3832935 62.0548711,42.3499625 L31.1300692,42.3499625 L31.1300692,73.8575504 Z" id="Path" fill="#FFA000" fill-rule="nonzero"></path>
                            <path d="M31.9832114,100.172039 C30.3795606,100.172039 29.0709816,98.8427212 29.0709816,97.2029672 C29.0709816,95.5632133 30.3795606,94.233895 31.9832114,94.233895 C33.5932768,94.233895 34.9018559,95.5632133 34.9018559,97.2029672 C34.9018559,98.8427212 33.5932768,100.172039 31.9832114,100.172039 Z" id="Path" fill="#4CAF50" fill-rule="nonzero"></path>
                            <path d="M31.9832114,91.1850898 C30.3795606,91.1850898 29.0709816,89.8557716 29.0709816,88.2160176 C29.0709816,86.5762637 30.3795606,85.2475989 31.9832114,85.2475989 C33.5932768,85.2475989 34.9018559,86.5762637 34.9018559,88.2160176 C34.9018559,89.8557716 33.5932768,91.1850898 31.9832114,91.1850898 Z" id="Path" fill="#4CAF50" fill-rule="nonzero"></path>
                            <path d="M31.9832114,109.319108 C30.3795606,109.319108 29.0709816,107.990444 29.0709816,106.350036 C29.0709816,104.710936 30.3795606,103.381618 31.9832114,103.381618 C33.5932768,103.381618 34.9018559,104.710936 34.9018559,106.350036 C34.9018559,107.990444 33.5932768,109.319108 31.9832114,109.319108 Z" id="Path" fill="#4CAF50" fill-rule="nonzero"></path>
                            <path d="M29.0709816,169.900468 L29.0709816,115.818651 C29.0709816,114.223339 30.341073,112.929966 31.9062362,112.929966 C33.4713994,112.929966 34.7414908,114.223339 34.7414908,115.818651 L34.7414908,169.900468 C34.7414908,171.495781 33.4713994,172.788501 31.9062362,172.788501 C30.341073,172.788501 29.0709816,171.495781 29.0709816,169.900468 Z" id="Path" fill="#4CAF50" fill-rule="nonzero"></path>
                            <path d="M29.0709816,169.900468 L29.0709816,115.818651 C29.0709816,114.223339 30.341073,112.929966 31.9062362,112.929966 L31.9062362,172.788501 C30.341073,172.788501 29.0709816,171.495781 29.0709816,169.900468 Z" id="Path" fill="#2E7D32" fill-rule="nonzero"></path>
                            <line x1="31.960506" y1="172.789154" x2="31.960506" y2="112.930619" id="Path" stroke="#A8A8A8" stroke-width="0.5"></line>
                            <path d="M31.1621422,172.788501 C19.8082946,172.753209 10.6161683,163.36498 10.6161683,151.789324 L10.6161683,151.722662 L31.1621422,151.723316 L31.1621422,172.788501 Z" id="Path" fill="#FFECB3" fill-rule="nonzero"></path>
                            <path d="M31.1621422,172.788501 C42.5865505,172.753209 51.8364083,163.36498 51.8364083,151.789324 L51.8364083,151.722662 L31.1621422,151.723316 L31.1621422,172.788501 Z" id="Path" fill="#FFA000" fill-rule="nonzero"></path>
                        </g>
                        <g id="Group" transform="translate(0.000000, 148.000000)" fill-rule="nonzero">
                            <path d="M23.4193663,144.436594 C28.2591909,144.436594 32.182103,148.423999 32.182103,153.342744 C32.182103,158.262135 28.2591909,162.249539 23.4193663,162.249539 C18.5801767,162.249539 14.6566296,158.262135 14.6566296,153.342744 C14.6566296,148.423999 18.5801767,144.436594 23.4193663,144.436594 Z" id="Path" fill="#4CAF50"></path>
                            <path d="M24.1432446,138.389655 C36.6631634,138.389655 46.8126984,128.073262 46.8126984,115.347517 L46.8126984,68.7727227 L1.47315574,68.7727227 L1.47315574,115.347517 C1.47315574,128.073262 11.6226908,138.389655 24.1432446,138.389655 Z" id="Path" fill="#2196F3"></path>
                            <path d="M1.47315574,68.7727227 L46.8126984,68.7727227 L46.8126984,76.4532201 C46.8126984,89.1789652 36.6631634,99.4953577 24.1432446,99.4953577 C11.6226908,99.4953577 1.47315574,89.1789652 1.47315574,76.4532201 L1.47315574,68.7727227 Z" id="Path" fill="#BBDEFB"></path>
                            <path d="M24.1432446,68.7727227 L46.8126984,68.7727227 L46.8126984,76.4532201 C46.8126984,89.1789652 36.6631634,99.4953577 24.1432446,99.4953577 L24.1432446,68.7727227 Z" id="Path" fill="#0D47A1"></path>
                            <path d="M24.2232521,73.1848134 C28.6185901,73.1848134 32.182103,76.8062648 32.182103,81.2738617 C32.182103,85.7414586 28.6185901,89.3635553 24.2232521,89.3635553 C19.8279142,89.3635553 16.2650363,85.7414586 16.2650363,81.2738617 C16.2650363,76.8062648 19.8279142,73.1848134 24.2232521,73.1848134 Z" id="Path" fill="#2196F3"></path>
                            <path d="M24.2232521,115.510808 C25.8659478,115.510808 27.1981378,116.864254 27.1981378,118.533955 C27.1981378,120.204302 25.8659478,121.557748 24.2232521,121.557748 C22.5805565,121.557748 21.2490015,120.204302 21.2490015,118.533955 C21.2490015,116.864254 22.5805565,115.510808 24.2232521,115.510808 Z" id="Path" fill="#FFFFFF"></path>
                            <path d="M24.2232521,124.662863 C25.8659478,124.662863 27.1981378,126.016309 27.1981378,127.68601 C27.1981378,129.355712 25.8659478,130.709157 24.2232521,130.709157 C22.5805565,130.709157 21.2490015,129.355712 21.2490015,127.68601 C21.2490015,126.016309 22.5805565,124.662863 24.2232521,124.662863 Z" id="Path" fill="#FFFFFF"></path>
                            <path d="M24.2232521,106.196108 C25.8659478,106.196108 27.1981378,107.549553 27.1981378,109.219255 C27.1981378,110.888956 25.8659478,112.242402 24.2232521,112.242402 C22.5805565,112.242402 21.2490015,110.888956 21.2490015,109.219255 C21.2490015,107.549553 22.5805565,106.196108 24.2232521,106.196108 Z" id="Path" fill="#FFFFFF"></path>
                            <path d="M24.1432446,65.186124 C11.0797821,65.1448171 0.502269908,54.3004712 0.502269908,40.9286606 L0.502269908,40.8525011 L24.1432446,40.8525011 L24.1432446,65.186124 Z" id="Path" fill="#FFECB3"></path>
                            <path d="M24.1432446,65.186124 C37.206707,65.1448171 47.7835842,54.3004712 47.7835842,40.9286606 C47.7835842,40.9034893 47.7835842,40.8783179 47.7835842,40.8525011 L24.1432446,40.8525011 L24.1432446,65.186124 Z" id="Path" fill="#4CAF50"></path>
                            <path d="M0.502269908,16.9751901 C13.5657324,17.0171424 24.1432446,27.8614884 24.1432446,41.2326534 L24.1426096,41.1571393 L0.502269908,41.1571393 L0.502269908,16.9751901 Z" id="Path" fill="#E0E0E0"></path>
                            <path d="M24.2181723,16.8996759 C28.721457,16.8996759 32.3725973,13.1885112 32.3725973,8.61054754 C32.3725973,4.03322926 28.721457,0.322064555 24.2181723,0.322064555 C19.7142526,0.322064555 16.0631123,4.03322926 16.0631123,8.61054754 C16.0631123,13.1885112 19.7142526,16.8996759 24.2181723,16.8996759 Z" id="Path" fill="#4CAF50"></path>
                            <path d="M0.502269908,16.9751901 C13.5657324,17.0171424 24.1432446,27.8614884 24.1432446,41.2326534 L24.1426096,41.1571393 L0.502269908,41.1571393 L0.502269908,16.9751901 Z" id="Path" fill="#C8E6C9"></path>
                            <path d="M47.7835842,16.9751901 C34.7207567,17.0171424 24.1432446,27.8614884 24.1432446,41.2326534 L24.1432446,41.1571393 L47.7835842,41.1571393 L47.7835842,16.9751901 Z" id="Path" fill="#FFA000"></path>
                        </g>
                    </g>
                </g>
            </g>
        </g>
    </g>
</svg>