<?xml version="1.0" encoding="UTF-8"?>
<svg width="435px" height="252px" viewBox="0 0 435 252" version="1.1" xmlns="http://www.w3.org/2000/svg" xmlns:xlink="http://www.w3.org/1999/xlink">
    <!-- Generator: Sketch 64 (93537) - https://sketch.com -->
    <title>Login</title>
    <desc>Created with Sketch.</desc>
    <defs>
        <path d="M55.0652167,82.5407407 C55.0652167,82.5415984 55.0652167,82.5415984 55.0652167,82.5424561 C55.1215738,82.6612476 55.1692606,82.7843275 55.2169474,82.9095517 C55.2256177,82.9412865 55.234288,82.9734503 55.2472935,83.0060429 C55.2776396,83.1021053 55.3036506,83.1994542 55.3296616,83.2985185 C55.3383319,83.3388304 55.3470022,83.3804288 55.3556725,83.4215984 C55.3773483,83.5180897 55.394689,83.6162963 55.4033593,83.7149318 C55.4120296,83.7556725 55.4163648,83.794269 55.4207,83.8345809 C55.4380406,83.9722417 55.4467109,84.1107602 55.4467109,84.2527096 C55.4467109,84.4161014 55.4337054,84.5760624 55.4163648,84.7334503 C55.4076945,84.7784795 55.4033593,84.8217934 55.394689,84.8655361 C55.3773483,84.9834698 55.3556725,85.0988304 55.3253264,85.2133333 C55.3166561,85.2540741 55.3079858,85.2961014 55.2949803,85.337271 C55.2559638,85.4693567 55.2169474,85.5992982 55.1649254,85.7249513 C55.1605903,85.7412476 55.1562551,85.7575439 55.1475848,85.7734113 C55.0868925,85.925653 55.01753,86.0723197 54.9351619,86.2134113 L119.446695,94.0939571 C119.403343,93.9095517 119.368662,93.7208577 119.346986,93.5321637 L119.346986,93.5107212 L119.342651,93.4892788 L119.338316,93.4549708 L119.333981,93.4206628 C119.31664,93.2405458 119.30797,93.0561404 119.30797,92.8674464 C119.30797,92.7216374 119.312305,92.5758285 119.32531,92.4300195 L119.32531,92.425731 C119.32531,92.3871345 119.329645,92.348538 119.333981,92.3099415 L119.338316,92.2670565 L119.342651,92.22846 C119.412013,91.6023392 119.589755,91.0062378 119.849865,90.4573099 L55.0652167,82.5407407 Z M126.686414,87.5539961 C128.914687,88.2916179 130.527367,90.388694 130.527367,92.8588694 C130.527367,95.9508772 128.017308,98.4553606 124.917668,98.4553606 C124.319416,98.4553606 123.742839,98.3610136 123.205279,98.1894737 L123.200944,98.2066277 C120.942325,97.4861598 119.303634,95.3676413 119.303634,92.8674464 C119.303634,89.7711501 121.813693,87.2610916 124.900327,87.2610916 C125.524591,87.2610916 126.122843,87.3640156 126.686414,87.5539961 Z M49.4555182,68.414425 L69.4882978,65.9776998 L62.1011833,43.0616764 L38.9600931,43.0616764 L47.5740583,67.4280702 C47.9338767,68.1112281 48.6751892,68.5104873 49.4555182,68.414425 Z M55.7284964,11.388538 L64.758637,39.4010136 L85.7624927,39.4005848 L77.1008408,12.1934893 L55.7284964,11.388538 Z M80.9851452,12.3405848 L89.5991103,39.4005848 L110.243148,39.4005848 L101.867616,13.1275244 L80.9851452,12.3405848 Z M105.747586,13.2733333 L114.079765,39.4010136 L123.075225,39.4005848 L123.075225,15.7383626 C123.075225,14.722846 122.28189,13.8960234 121.267462,13.8582846 L105.747586,13.2733333 Z M123.075225,43.0616764 L115.245924,43.0616764 L120.573837,59.7653801 L121.423528,59.6620273 C122.364258,59.5475244 123.075225,58.7442885 123.075225,57.7939571 L123.075225,43.0616764 Z M116.880279,60.214386 L111.413641,43.0616764 L90.7652687,43.0616764 L96.9905601,62.6330994 L116.880279,60.214386 Z M93.301338,63.0816764 L86.9286511,43.0608187 L65.9378009,43.0608187 L73.1861903,65.5282651 L93.301338,63.0816764 Z M24.0428037,0.293333333 L10.6861722,0.293333333 C10.439068,0.52619883 10.1226013,0.751345029 9.73677191,0.954619883 C8.39720712,1.65450292 5.2758911,3.42608187 4.43486984,3.20994152 C3.58951342,2.99423002 3.41610697,1.25781676 3.16466763,0.753489279 C3.02594247,0.471306043 2.41468475,0.413840156 1.73839962,0.331072125 C0.767323521,0.506471735 0.0260109668,1.35645224 0.0260109668,2.38483431 L0.0260109668,5.05356725 C0.0260109668,6.20888889 0.958070611,7.14421053 2.11122347,7.14421053 L24.0384685,7.14463938 C25.1916214,7.14463938 26.1280162,6.20803119 26.1280162,5.05356725 L26.1280162,2.38526316 C26.1280162,1.22908382 25.1959565,0.293333333 24.0428037,0.293333333 Z M47.7257889,85.8613255 C47.9338767,86.342924 48.2330028,86.7739181 48.6058266,87.1354386 L34.5772452,93.0304094 C34.5772452,92.9746589 34.5859155,92.9189084 34.5859155,92.8674464 C34.5859155,91.6109162 34.1697401,90.4573099 33.4717791,89.5224172 L47.4396683,83.6557505 C47.4266628,83.7436647 47.4136573,83.8328655 47.4093222,83.9224951 C47.3963167,84.0305653 47.3919815,84.1403509 47.3919815,84.2509942 C47.3919815,84.3912281 47.3963167,84.5297466 47.4136573,84.6665497 C47.4179925,84.6978558 47.4223277,84.7274464 47.4266628,84.7583236 C47.4396683,84.8633918 47.4526738,84.96846 47.4743496,85.0722417 C47.4786848,85.097115 47.4873551,85.1215595 47.4916902,85.1468616 C47.5177012,85.2540741 47.5437122,85.36 47.5740583,85.4633528 C47.5827286,85.4787914 47.5870638,85.49423 47.5913989,85.5096686 C47.6304154,85.6220273 47.6694318,85.7318129 47.7171186,85.839883 C47.7171186,85.8488889 47.7214538,85.8548928 47.7257889,85.8613255 Z M37.6682151,39.4005848 L60.9176843,39.4005848 L51.8398569,11.2418713 L30.1813918,10.42577 C29.5527935,10.4004678 28.9718819,10.6805068 28.599058,11.1908382 C28.221899,11.7007407 28.1308606,12.3358674 28.3389483,12.9323977 L37.6682151,39.4005848 Z M55.4467109,84.2518519 C55.4467109,86.4801559 53.6432839,88.2873294 51.4193462,88.2873294 C49.1910734,88.2873294 47.3876464,86.4801559 47.3876464,84.2518519 C47.3876464,83.1136842 47.8601789,82.0870175 48.6188321,81.3536842 L44.2013029,68.8587135 C44.1319404,68.7064717 44.0669129,68.5516569 44.0105558,68.3916959 L24.8924952,14.1520468 C24.8924952,14.1511891 24.8924952,14.1503314 24.8924952,14.1503314 L22.3434205,7.14421053 L24.0428037,7.14463938 C24.8144623,7.14463938 25.4907475,6.72179337 25.8505658,6.09567251 L26.5615323,8.05508772 C27.6019709,7.18666667 28.9328654,6.72093567 30.320117,6.76939571 L52.5594936,7.60693957 C52.5681639,7.60436647 52.5768342,7.60050682 52.5855046,7.59793372 C53.0190207,7.45684211 53.4698774,7.48986355 53.8600419,7.65625731 L121.406188,10.2014815 C124.388778,10.3138402 126.729765,12.7467057 126.729765,15.740078 L126.729765,57.7952437 C126.729765,60.5939181 124.635883,62.9594542 121.86138,63.2969591 L49.8977047,72.0502144 C49.6679411,72.0780897 49.4425127,72.0905263 49.2214195,72.091384 L52.1173072,80.2832749 C54.0074374,80.614347 55.4467109,82.2624172 55.4467109,84.2518519 Z M28.9892225,87.2610916 C25.8982526,87.2610916 23.3925295,89.7711501 23.3925295,92.8674464 C23.3925295,95.9637427 25.8982526,98.4725146 28.9892225,98.4725146 C32.0801924,98.4725146 34.5859155,95.9637427 34.5859155,92.8674464 C34.5859155,89.7711501 32.0801924,87.2610916 28.9892225,87.2610916 Z" id="path-1"></path>
    </defs>
    <g id="Forms" stroke="none" stroke-width="1" fill="none" fill-rule="evenodd">
        <g id="Login" transform="translate(-880.000000, -471.000000)">
            <g id="Right-Side" transform="translate(835.000000, 216.000000)">
                <g id="Login" transform="translate(45.000000, 255.000000)">
                    <g id="Group" transform="translate(0.000000, 144.000000)">
                        <path d="M51.8467819,62.1255663 C50.8803951,62.1255663 50.0971852,61.3359223 50.0971852,60.362028 C50.0971852,59.3881338 50.8803951,58.5980583 51.8467819,58.5980583 C52.8127407,58.5980583 53.5959506,59.3881338 53.5959506,60.362028 C53.5959506,61.3359223 52.8127407,62.1255663 51.8467819,62.1255663 Z" id="Path" fill="#4CAF50" fill-rule="nonzero"></path>
                        <path d="M51.8467819,56.787055 C50.8803951,56.787055 50.0971852,55.997411 50.0971852,55.0230852 C50.0971852,54.0491909 50.8803951,53.2595469 51.8467819,53.2595469 C52.8127407,53.2595469 53.5959506,54.0491909 53.5959506,55.0230852 C53.5959506,55.997411 52.8127407,56.787055 51.8467819,56.787055 Z" id="Path" fill="#4CAF50" fill-rule="nonzero"></path>
                        <path d="M51.8467819,67.5598706 C50.8803951,67.5598706 50.0971852,66.7702265 50.0971852,65.7959008 C50.0971852,64.8220065 50.8803951,64.0323625 51.8467819,64.0323625 C52.8127407,64.0323625 53.5959506,64.8220065 53.5959506,65.7959008 C53.5959506,66.7702265 52.8127407,67.5598706 51.8467819,67.5598706 Z" id="Path" fill="#4CAF50" fill-rule="nonzero"></path>
                        <path d="M50.0971852,103.551241 L50.0971852,71.4209277 C50.0971852,70.4733549 50.8594239,69.7048544 51.7992757,69.7048544 C52.7395556,69.7048544 53.5013663,70.4733549 53.5013663,71.4209277 L53.5013663,103.551241 C53.5013663,104.496224 52.7395556,105.264293 51.7992757,105.264293 C50.8594239,105.264293 50.0971852,104.496224 50.0971852,103.551241 Z" id="Path" fill="#4CAF50" fill-rule="nonzero"></path>
                        <path d="M50.0971852,103.551241 L50.0971852,71.4209277 C50.0971852,70.4733549 50.8594239,69.7048544 51.7992757,69.7048544 L51.7992757,105.264293 C50.8594239,105.264293 50.0971852,104.496224 50.0971852,103.551241 Z" id="Path" fill="#2E7D32" fill-rule="nonzero"></path>
                        <line x1="52.1992263" y1="105.264293" x2="52.1992263" y2="69.7035599" id="Path" stroke="#A8A8A8" stroke-width="0.5"></line>
                        <path d="M33.0916872,13.5322546 C43.4548807,13.564617 51.8467819,22.0983819 51.8467819,32.6204962 L51.8459259,32.5609493 L33.0916872,32.5609493 L33.0916872,13.5322546 Z" id="Path" fill="#E0E0E0" fill-rule="nonzero"></path>
                        <path d="M51.9058436,13.4718447 C55.4786502,13.4718447 58.3752428,10.5518878 58.3752428,6.94973031 C58.3752428,3.34757282 55.4786502,0.427184466 51.9058436,0.427184466 C48.333037,0.427184466 45.4364444,3.34757282 45.4364444,6.94973031 C45.4364444,10.5518878 48.333037,13.4718447 51.9058436,13.4718447 Z" id="Path" fill="#4CAF50" fill-rule="nonzero"></path>
                        <path d="M33.0916872,13.5322546 C43.4548807,13.564617 51.8467819,22.0983819 51.8467819,32.6204962 L51.8459259,32.5609493 L33.0916872,32.5609493 L33.0916872,13.5322546 Z" id="Path" fill="#C8E6C9" fill-rule="nonzero"></path>
                        <path d="M70.6001646,13.5322546 C60.2378272,13.564617 51.8467819,22.0983819 51.8467819,32.6204962 L51.8467819,32.5609493 L70.6001646,32.5609493 L70.6001646,13.5322546 Z" id="Path" fill="#FFA000" fill-rule="nonzero"></path>
                        <path d="M51.8463539,51.4696872 C41.4827325,51.4373247 33.0916872,42.9035599 33.0916872,32.3814455 C33.0916872,32.361165 33.0916872,32.3413161 33.0916872,32.3214671 L51.8467819,32.3214671 L51.8463539,51.4696872 Z" id="Path" fill="#FFECB3" fill-rule="nonzero"></path>
                        <path d="M51.8467819,51.4696872 C62.2104033,51.4373247 70.6001646,42.9035599 70.6001646,32.3814455 L70.6001646,32.3214671 L51.8467819,32.3214671 L51.8467819,51.4696872 Z" id="Path" fill="#4CAF50" fill-rule="nonzero"></path>
                        <path d="M0.128395062,49.8295577 C6.04483951,44.1566343 15.4309465,44.4056095 21.1154239,50.394822 L21.0828971,50.3607335 L10.4085597,60.6601942 L0.128395062,49.8295577 Z" id="Path" fill="#E0E0E0" fill-rule="nonzero"></path>
                        <path d="M10.8044444,39.4632147 C12.8382222,37.5011866 12.9092675,34.2485437 10.9627984,32.1980583 C9.01718519,30.1480043 5.79061728,30.0763754 3.75726749,32.0384035 C1.72348971,34.0004315 1.65244444,37.2530744 3.59891358,39.3035599 C5.54495473,41.3540453 8.77109465,41.4252427 10.8044444,39.4632147 Z" id="Path" fill="#FF6F00" fill-rule="nonzero"></path>
                        <path d="M0.128395062,49.8295577 C6.04483951,44.1566343 15.4309465,44.4056095 21.1154239,50.394822 L21.0828971,50.3607335 L10.4085597,60.6601942 L0.128395062,49.8295577 Z" id="Path" fill="#4CAF50" fill-rule="nonzero"></path>
                        <path d="M21.4779259,29.2306365 C15.5965761,34.9402373 15.4309465,44.4056095 21.1154239,50.394822 L21.0837531,50.360302 L31.7580905,40.0612729 L21.4779259,29.2306365 Z" id="Path" fill="#FFA000" fill-rule="nonzero"></path>
                        <path d="M31.2988642,61.1227616 C25.3828477,66.795685 15.9958848,66.5467098 10.3114074,60.5579288 C10.3007078,60.5467098 10.2900082,60.5350593 10.2793086,60.5238403 L20.9540741,50.2243797 L31.2988642,61.1227616 Z" id="Path" fill="#C8E6C9" fill-rule="nonzero"></path>
                        <path d="M31.2988642,61.1227616 C37.179786,55.4131607 37.3458436,45.9477886 31.6609383,39.9590076 C31.6502387,39.9477886 31.6395391,39.9361381 31.6288395,39.9249191 L20.9540741,50.2243797 L31.2988642,61.1227616 Z" id="Path" fill="#FFECB3" fill-rule="nonzero"></path>
                        <path d="M103.263868,49.8295577 C97.3491358,44.1570658 87.959177,44.406041 82.2755556,50.394822 L82.3097942,50.361165 L92.9837037,60.6601942 L103.263868,49.8295577 Z" id="Path" fill="#E0E0E0" fill-rule="nonzero"></path>
                        <path d="M92.585679,39.4632147 C90.5527572,37.5016181 90.4842798,34.2485437 92.4273251,32.1984898 C94.3746502,30.1480043 97.6016461,30.0763754 99.6345679,32.038835 C101.66749,34.000863 101.740247,37.2535059 99.7929218,39.3035599 C97.8455967,41.3540453 94.6228807,41.4256742 92.585679,39.4632147 Z" id="Path" fill="#FF6F00" fill-rule="nonzero"></path>
                        <path d="M103.263868,49.8295577 C97.3491358,44.1570658 87.959177,44.406041 82.2755556,50.394822 L82.3097942,50.361165 L92.9837037,60.6601942 L103.263868,49.8295577 Z" id="Path" fill="#4CAF50" fill-rule="nonzero"></path>
                        <path d="M81.9117695,29.2306365 C87.7965432,34.9402373 87.959177,44.406041 82.2755556,50.394822 L82.3097942,50.360302 L71.6358848,40.0612729 L81.9117695,29.2306365 Z" id="Path" fill="#FFECB3" fill-rule="nonzero"></path>
                        <path d="M72.0938272,61.1231931 C78.0085597,66.7961165 87.3942387,66.5471413 93.0821399,60.5579288 C93.0906996,60.5467098 93.1035391,60.5354908 93.1120988,60.5238403 L82.4381893,50.2243797 L72.0938272,61.1231931 Z" id="Path" fill="#C8E6C9" fill-rule="nonzero"></path>
                        <path d="M72.0938272,61.1231931 C66.2133333,55.4131607 66.0464198,45.9482201 71.7300412,39.9590076 C71.7428807,39.9477886 71.7514403,39.9361381 71.7642798,39.9249191 L82.4381893,50.2243797 L72.0938272,61.1231931 Z" id="Path" fill="#2E7D32" fill-rule="nonzero"></path>
                        <path d="M51.6503374,107.710895 C43.7394897,107.68932 37.3334321,101.212513 37.3334321,93.2314995 L37.3334321,93.1857605 L51.6507654,93.1857605 L51.6503374,107.710895 Z" id="Path" fill="#FFECB3" fill-rule="nonzero"></path>
                        <path d="M51.6507654,107.710895 C59.6121152,107.68932 66.0592593,101.212513 66.0592593,93.2314995 C66.0592593,93.2159655 66.0592593,93.200863 66.0592593,93.1857605 L51.6507654,93.1857605 L51.6507654,107.710895 Z" id="Path" fill="#4CAF50" fill-rule="nonzero"></path>
                        <path d="M68.7255967,64.012082 C68.4602469,63.7087379 68.4902058,63.2474649 68.7897942,62.9812298 C69.0893827,62.7145631 69.5473251,62.7443366 69.8126749,63.0468177 C70.0780247,63.3497303 70.0480658,63.8110032 69.7484774,64.0776699 C69.4446091,64.3443366 68.9909465,64.3145631 68.7255967,64.012082 Z" id="Path" fill="#4CAF50" fill-rule="nonzero"></path>
                        <path d="M70.3690535,62.5514563 C70.1079835,62.2485437 70.1379424,61.7872708 70.4375309,61.5206041 C70.7371193,61.2543689 71.1950617,61.2837109 71.4604115,61.5866235 C71.7214815,61.8895361 71.6915226,62.3508091 71.3919342,62.6174757 C71.0923457,62.8837109 70.6344033,62.8543689 70.3690535,62.5514563 Z" id="Path" fill="#4CAF50" fill-rule="nonzero"></path>
                        <path d="M67.0479012,65.4981661 C66.7825514,65.195685 66.8125103,64.7339806 67.1163786,64.4677454 C67.4159671,64.2010787 67.8739095,64.2304207 68.1349794,64.5333333 C68.4003292,64.836246 68.3703704,65.2975189 68.0707819,65.5641855 C67.7711934,65.8304207 67.313251,65.8010787 67.0479012,65.4981661 Z" id="Path" fill="#4CAF50" fill-rule="nonzero"></path>
                        <path d="M55.4730864,74.7943905 L65.3787654,66.006041 C65.6740741,65.7467098 66.119177,65.7756203 66.3759671,66.0703344 C66.6327572,66.3650485 66.6027984,66.813808 66.3117695,67.0731392 L56.4039506,75.8614887 C56.1120658,76.1208198 55.666535,76.0919094 55.4093169,75.7976268 C55.1520988,75.5024811 55.1807737,75.0537217 55.4730864,74.7943905 Z" id="Path" fill="#4CAF50" fill-rule="nonzero"></path>
                        <path d="M55.4730864,74.7943905 L65.3787654,66.006041 C65.6740741,65.7467098 66.119177,65.7756203 66.3759671,66.0703344 L55.4093169,75.7976268 C55.1520988,75.5024811 55.1807737,75.0537217 55.4730864,74.7943905 Z" id="Path" fill="#2E7D32" fill-rule="nonzero"></path>
                        <line x1="55.3994733" y1="75.7820928" x2="66.3631276" y2="66.0543689" id="Path" stroke="#A8A8A8" stroke-width="0.5"></line>
                        <path d="M34.6675226,64.012082 C34.9320165,63.7087379 34.9029136,63.2474649 34.6024691,62.9812298 C34.3024527,62.7145631 33.8445103,62.7443366 33.5800165,63.0468177 C33.3159506,63.3497303 33.3450535,63.8110032 33.6454979,64.0776699 C33.9459424,64.3443366 34.4034568,64.3145631 34.6675226,64.012082 Z" id="Path" fill="#4CAF50" fill-rule="nonzero"></path>
                        <path d="M33.0214979,62.5514563 C33.2859918,62.2485437 33.2564609,61.7872708 32.9564444,61.5206041 C32.656,61.2543689 32.1980576,61.2837109 31.9339918,61.5866235 C31.6694979,61.8895361 31.6990288,62.3508091 31.9990453,62.6174757 C32.2994897,62.8837109 32.7574321,62.8543689 33.0214979,62.5514563 Z" id="Path" fill="#4CAF50" fill-rule="nonzero"></path>
                        <path d="M36.3435062,65.4981661 C36.608,65.195685 36.5784691,64.7339806 36.2780247,64.4677454 C35.9780082,64.2010787 35.5200658,64.2304207 35.255572,64.5333333 C34.9915062,64.836246 35.0206091,65.2975189 35.3210535,65.5641855 C35.6214979,65.8304207 36.0790123,65.8010787 36.3435062,65.4981661 Z" id="Path" fill="#4CAF50" fill-rule="nonzero"></path>
                        <path d="M47.919177,74.7943905 L38.012642,66.006041 C37.7203292,65.7467098 37.2747984,65.7756203 37.0175802,66.0703344 C36.7607901,66.3650485 36.789037,66.813808 37.0813498,67.0731392 L46.9883128,75.8614887 C47.2801975,76.1208198 47.7257284,76.0919094 47.9829465,75.7976268 C48.2397366,75.5024811 48.2114897,75.0537217 47.919177,74.7943905 Z" id="Path" fill="#4CAF50" fill-rule="nonzero"></path>
                        <path d="M47.919177,74.7943905 L38.012642,66.006041 C37.7203292,65.7467098 37.2747984,65.7756203 37.0175802,66.0703344 L47.9829465,75.7976268 C48.2397366,75.5024811 48.2114897,75.0537217 47.919177,74.7943905 Z" id="Path" fill="#2E7D32" fill-rule="nonzero"></path>
                        <line x1="47.9803786" y1="75.8161812" x2="37.0158683" y2="66.0888889" id="Path" stroke="#A8A8A8" stroke-width="0.5"></line>
                    </g>
                    <g id="Group" transform="translate(301.000000, 0.000000)">
                        <path d="M117.603266,0.814847607 L16.4613555,0.814847607 C7.59092078,0.814847607 0.404963992,8.80743217 0.404963992,18.6658631 L0.404963992,26.656532 C0.327417695,27.4706847 0.288644547,28.2972891 0.288644547,29.1339506 L0.288644547,186.863577 L0.288644547,221.030691 C0.288644547,236.324309 11.5285494,248.814848 25.2844007,248.814848 L108.780221,248.814848 C122.540381,248.814848 133.775977,236.324309 133.775977,221.030691 L133.775977,29.1339506 C133.775977,28.3035149 133.737204,27.4836153 133.663966,26.6747307 L133.663966,18.6658631 C133.663966,8.80647435 126.473701,0.814847607 117.603266,0.814847607 Z" id="Path" fill="#2E7D32"></path>
                        <g transform="translate(5.600566, 10.490809)">
                            <path d="M122.755787,18.2126112 L122.755787,210.518246 C122.755787,222.512272 113.945666,232.324039 103.179655,232.324039 L19.6838349,232.324039 C8.91782407,232.324039 0.107703189,222.512272 0.107703189,210.518246 L0.107703189,176.361358 L0.107703189,176.353679 L0.107703189,18.2126112 C0.107703189,8.33221397 7.29796811,0.324038549 16.1684028,0.324038549 L36.7354038,0.324038549 L39.9191101,8.30629755 L81.5657793,8.30629755 L85.7705118,0.324038549 L106.695087,0.324038549 C115.565522,0.324038549 122.755787,8.33221397 122.755787,18.2126112 Z" id="Path" fill="#FFFFFF"></path>
                            <path d="M44.3564815,99.402321 L78.5070087,99.402321 C78.5070087,89.9581031 70.8643904,82.30204 61.4338992,82.30204 C51.9990998,82.30204 44.3564815,89.9581031 44.3564815,99.402321 Z M37.7650463,140.216683 L26.3097351,99.402321 L41.1469264,99.402321 C41.1469264,88.1833219 50.2284594,79.0894012 61.4338992,79.0894012 C72.6350309,79.0894012 81.7165638,88.1841847 81.7165638,99.402321 L96.5537551,99.402321 L83.4053498,140.216683 L37.7650463,140.216683 Z" id="Shape" fill="#4CAF50"></path>
                            <polygon id="Path" fill="#4CAF50" points="92.8186085 161.891533 86.2788709 161.891533 86.2788709 163.401866 88.613876 163.402298 88.613876 170.12783 90.4749871 170.12783 90.4749871 163.402298 92.8186085 163.402298"></polygon>
                            <path d="M85.2535365,161.891533 L83.4010417,161.891533 L83.4010417,166.740043 C83.4010417,168.027341 82.8883745,168.669697 81.8716564,168.669697 C80.8290895,168.669697 80.3078061,168.003614 80.3078061,166.67145 L80.3078061,161.892828 L78.4510031,161.892828 L78.4510031,166.649017 C78.4510031,169.065291 79.5668081,170.273643 81.8027263,170.273643 C84.1032665,170.273643 85.2535365,169.036387 85.2535365,166.562737 L85.2535365,161.891533 Z" id="Path" fill="#4CAF50"></path>
                            <path d="M77.1844136,165.952737 C77.1844136,164.692616 76.8225309,163.678394 76.0944573,162.907913 C75.3706919,162.138726 74.4229038,161.753054 73.246785,161.753054 C72.0060442,161.753054 71.0065586,162.155119 70.2526363,162.959681 C69.498714,163.764243 69.1239069,164.81686 69.1239069,166.117963 C69.1239069,167.351768 69.4944059,168.351755 70.2354038,169.119216 C70.9807099,169.886677 71.9371142,170.270192 73.1175412,170.270192 C74.3238169,170.270192 75.30607,169.873735 76.0556842,169.081253 C76.8096065,168.290496 77.1844136,167.246938 77.1844136,165.952737 Z" id="Path" fill="#4CAF50"></path>
                            <path d="M68.856803,170.128693 L65.7420267,165.820728 L68.6069316,161.891965 L66.4011703,161.891533 L64.130787,165.327206 C64.0230838,165.526513 63.9455376,165.679229 63.8981481,165.787079 L63.8722994,165.787079 L63.8722994,161.892828 L62.0154964,161.892828 L62.0154964,170.129556 L63.8722994,170.129556 L63.8722994,166.097687 L63.8981481,166.097687 C63.9972351,166.331075 64.0704733,166.482065 64.1178627,166.551089 L66.5174897,170.129556 L68.856803,170.129556 L68.856803,170.128693 Z" id="Path" fill="#4CAF50"></path>
                            <path d="M60.5808899,162.058485 C60.0337577,161.854864 59.3573817,161.753485 58.5517618,161.753485 C57.2550154,161.753485 56.1995242,162.163316 55.3895962,162.982545 C54.5753601,163.801343 54.1703961,164.870353 54.1703961,166.186987 C54.1703961,167.424244 54.5322788,168.413445 55.2517361,169.156748 C55.9755015,169.899619 56.970679,170.271918 58.2286523,170.271918 C59.197981,170.271918 59.9820602,170.126104 60.5808899,169.834478 L60.5808899,168.140368 C59.9820602,168.493254 59.3186085,168.668834 58.5991512,168.668834 C57.8409208,168.668834 57.2377829,168.432426 56.7897377,167.95918 C56.3416924,167.486797 56.1176698,166.851344 56.1176698,166.054979 C56.1176698,165.224102 56.3546168,164.565353 56.8285108,164.079165 C57.306713,163.592114 57.9270833,163.349667 58.7025463,163.349667 C59.4047711,163.349667 60.0294496,163.514462 60.5808899,163.844052 L60.5808899,162.058485 L60.5808899,162.058485 Z" id="Path" fill="#4CAF50"></path>
                            <polygon id="Path" fill="#4CAF50" points="53.3690844 168.623537 50.2887731 168.623537 50.2887731 166.73918 52.9770448 166.73918 52.9770448 165.234024 50.2887731 165.234024 50.2887731 163.402298 53.1795267 163.402298 53.1795267 161.891965 48.4319702 161.891533 48.4319702 170.128693 53.3690844 170.128693"></polygon>
                            <polygon id="Path" fill="#4CAF50" points="46.5536265 161.891533 44.6968236 161.891533 44.6968236 165.177079 41.2890947 165.177079 41.2890947 161.891533 39.4365998 161.891533 39.4365998 170.128693 41.2890947 170.128693 41.2890947 166.774555 44.6968236 166.774555 44.6968236 170.128693 46.5536265 170.128693"></polygon>
                            <path d="M38.0019933,162.058485 C37.450553,161.854864 36.774177,161.753485 35.9685571,161.753485 C34.6718107,161.753485 33.6206276,162.163316 32.8063915,162.982545 C31.9921553,163.801343 31.5871914,164.870353 31.5871914,166.186987 C31.5871914,167.424244 31.9490741,168.413445 32.6685314,169.156748 C33.3922968,169.899619 34.3874743,170.271918 35.6497557,170.271918 C36.6147762,170.271918 37.3988555,170.126104 37.9976852,169.834478 L37.9976852,168.140368 C37.3988555,168.493254 36.7354038,168.668834 36.0159465,168.668834 C35.257716,168.668834 34.6545782,168.432426 34.2065329,167.95918 C33.7584877,167.486797 33.534465,166.851344 33.534465,166.054979 C33.534465,165.224102 33.771412,164.565353 34.2496142,164.079165 C34.7235082,163.592114 35.3438786,163.349667 36.1193416,163.349667 C36.8215664,163.349667 37.4462449,163.514462 37.9976852,163.844052 L37.9976852,162.058485 L38.0019933,162.058485 Z" id="Path" fill="#4CAF50"></path>
                            <path d="M100.620628,165.843161 C100.620628,170.284428 97.023341,173.883602 92.5902778,173.883602 L30.2775206,173.883602 C25.8401492,173.883602 22.2471708,170.283566 22.2471708,165.843161 C22.2471708,161.401894 25.8444573,157.80272 30.2775206,157.80272 L92.5902778,157.80272 C97.023341,157.80272 100.620628,161.401894 100.620628,165.843161 Z" id="Path" fill="#4CAF50"></path>
                        </g>
                        <path d="M55.889339,177.229989 L58.5776106,177.229989 L58.5776106,175.724833 L55.889339,175.724833 L55.889339,173.893107 L58.7800926,173.893107 L58.7800926,172.382774 L54.032536,172.382342 L54.032536,180.619502 L58.9696502,180.619502 L58.9696502,179.114346 L55.889339,179.114346 L55.889339,177.229989 Z M50.2973894,175.667888 L46.8896605,175.667888 L46.8896605,172.382342 L45.0371656,172.382342 L45.0371656,180.619502 L46.8896605,180.619502 L46.8896605,177.265364 L50.2973894,177.265364 L50.2973894,180.619502 L52.1541924,180.619502 L52.1541924,172.382774 L50.2973894,172.382342 L50.2973894,175.667888 Z M38.4069573,173.474217 C37.5970293,174.293015 37.1877572,175.362025 37.1877572,176.678659 C37.1877572,177.915916 37.5496399,178.905117 38.2734053,179.64842 C38.9971708,180.391291 39.9880401,180.76359 41.2503215,180.76359 C42.2153421,180.76359 42.9994213,180.617776 43.598251,180.32615 L43.598251,178.631609 C42.9994213,178.984926 42.3402778,179.160506 41.6165123,179.160506 C40.8582819,179.160506 40.255144,178.924098 39.8070988,178.450852 C39.3633616,177.978469 39.139339,177.343016 39.139339,176.546651 C39.139339,175.715773 39.376286,175.057025 39.85018,174.570837 C40.3240741,174.083786 40.9444444,173.841339 41.7199074,173.841339 C42.4221322,173.841339 43.0511188,174.006134 43.598251,174.335724 L43.598251,172.549726 C43.0511188,172.346105 42.3747428,172.244726 41.5691229,172.244726 C40.2723765,172.245157 39.2211934,172.654988 38.4069573,173.474217 Z M60.990162,173.474217 C60.1759259,174.293015 59.7709619,175.362025 59.7709619,176.678659 C59.7709619,177.915916 60.1328447,178.905117 60.852302,179.64842 C61.5760674,180.391291 62.5712449,180.76359 63.8292181,180.76359 C64.7985468,180.76359 65.582626,180.617776 66.1814558,180.32615 L66.1814558,178.631609 C65.582626,178.984926 64.9191744,179.160506 64.1997171,179.160506 C63.4414866,179.160506 62.8383488,178.924098 62.3903035,178.450852 C61.9422582,177.978469 61.7182356,177.343016 61.7182356,176.546651 C61.7182356,175.715773 61.9551826,175.057025 62.4290766,174.570837 C62.9072788,174.083786 63.5276492,173.841339 64.3031121,173.841339 C65.0053369,173.841339 65.6300154,174.006134 66.1814558,174.335724 L66.1814558,172.549726 C65.6343236,172.346105 64.9536394,172.244726 64.1523277,172.244726 C62.8555813,172.245157 61.80009,172.654988 60.990162,173.474217 Z M74.2074974,172.382342 L72.0017361,172.382342 L69.7313529,175.818015 C69.6236497,176.017322 69.5461034,176.170038 69.498714,176.277888 L69.4728652,176.277888 L69.4728652,172.383637 L67.6160622,172.383637 L67.6160622,180.620365 L69.4728652,180.620365 L69.4728652,176.588496 L69.498714,176.588496 C69.5978009,176.821884 69.6710391,176.972874 69.7184285,177.041898 L72.1180556,180.620365 L74.4573688,180.620365 L71.3425926,176.3124 L74.2074974,172.382342 Z M91.8794367,173.893107 L94.2144419,173.893107 L94.2144419,180.618639 L96.075553,180.618639 L96.075553,173.893107 L98.4191744,173.893107 L98.4191744,172.382774 L91.8794367,172.382342 L91.8794367,173.893107 Z M80.8333976,176.546651 C80.8333976,175.692046 80.6524563,175.028121 80.2905736,174.553581 C79.9243827,174.078609 79.428948,173.841339 78.7956533,173.841339 C78.1494342,173.841339 77.6324588,174.085511 77.2490355,174.573425 C76.8656121,175.061339 76.6760545,175.70844 76.6760545,176.512139 C76.6760545,177.327485 76.8656121,177.97286 77.2490355,178.448264 C77.6324588,178.923236 78.1322016,179.160506 78.752572,179.160506 C79.3901749,179.160506 79.898534,178.930569 80.273341,178.468108 C80.64384,178.00651 80.8333976,177.366743 80.8333976,176.546651 Z M81.6950231,173.398722 C82.4230967,174.169203 82.7849794,175.183425 82.7849794,176.443546 C82.7849794,177.737747 82.4101723,178.781305 81.65625,179.574219 C80.9066358,180.36627 79.9243827,180.76359 78.718107,180.76359 C77.53768,180.76359 76.5812757,180.379643 75.8402778,179.612182 C75.0949717,178.843858 74.7244727,177.843872 74.7244727,176.610929 C74.7244727,175.309394 75.103588,174.256346 75.8575103,173.452647 C76.6114326,172.648948 77.6066101,172.246018 78.851659,172.246018 C80.0234697,172.245157 80.9712577,172.629535 81.6950231,173.398722 Z M89.0016075,177.229989 C89.0016075,178.517288 88.4889403,179.159643 87.4722222,179.159643 C86.4296553,179.159643 85.9083719,178.493561 85.9083719,177.161396 L85.9083719,172.382774 L84.0515689,172.382342 L84.0515689,177.138532 C84.0515689,179.555237 85.167374,180.76359 87.4032922,180.76359 C89.7038323,180.76359 90.8541024,179.525902 90.8541024,177.052683 L90.8541024,172.382774 L89.0016075,172.382342 L89.0016075,177.229989 Z" id="Shape" fill="#FFECB3"></path>
                    </g>
                    <path d="M206.827758,235.93503 C206.827758,235.935895 206.827758,235.935895 206.827758,235.93676 C206.883899,236.056544 206.931402,236.180653 206.978906,236.306924 C206.987543,236.338924 206.99618,236.371357 207.009135,236.404222 C207.039365,236.501088 207.065276,236.59925 207.091187,236.699143 C207.099824,236.739792 207.108461,236.781738 207.117098,236.823252 C207.13869,236.92055 207.155965,237.019578 207.164602,237.119038 C207.173239,237.160119 207.177557,237.199038 207.181876,237.239687 C207.19915,237.378499 207.207787,237.518175 207.207787,237.661311 C207.207787,237.826069 207.194831,237.987368 207.177557,238.146071 C207.16892,238.191477 207.164602,238.235153 207.155965,238.279261 C207.13869,238.398181 207.117098,238.514506 207.086868,238.629966 C207.078231,238.671048 207.069594,238.713426 207.056639,238.75494 C207.017772,238.88813 206.978906,239.019158 206.927084,239.145862 C206.922765,239.162294 206.918447,239.178727 206.90981,239.194727 C206.849351,239.348241 206.780254,239.496134 206.698203,239.638405 L270.961897,247.584836 C270.918712,247.398889 270.884164,247.208617 270.862572,247.018346 L270.862572,246.996724 L270.858253,246.975102 L270.853935,246.940507 L270.849616,246.905913 C270.832342,246.72429 270.823705,246.538343 270.823705,246.348071 C270.823705,246.201043 270.828024,246.054015 270.840979,245.906987 L270.840979,245.902663 C270.840979,245.863744 270.845298,245.824824 270.849616,245.785905 L270.853935,245.742662 L270.858253,245.703743 C270.927349,245.072387 271.104408,244.471302 271.363519,243.917785 L206.827758,235.93503 Z M278.173803,240.990198 C280.393516,241.733987 282,243.848595 282,246.339422 C282,249.457281 279.499585,251.982703 276.411853,251.982703 C275.815899,251.982703 275.241537,251.887567 274.706043,251.714593 L274.701724,251.73189 C272.451782,251.005399 270.819387,248.869169 270.819387,246.348071 C270.819387,243.225888 273.319802,240.694845 276.394579,240.694845 C277.016444,240.694845 277.612397,240.798629 278.173803,240.990198 Z M201.239611,221.690612 L221.195429,219.233515 L213.836694,196.125904 L190.784507,196.125904 L199.365379,220.696011 C199.723815,221.38488 200.46228,221.787478 201.239611,221.690612 Z M207.48849,164.187965 L216.483938,192.434637 L237.407102,192.434204 L228.778726,164.999646 L207.48849,164.187965 Z M232.648108,165.147971 L241.228981,192.434204 L261.793708,192.434204 L253.450354,165.94149 L232.648108,165.147971 Z M257.315417,166.088518 L265.615586,192.434637 L274.576487,192.434204 L274.576487,168.574156 C274.576487,167.550149 273.786201,166.716414 272.77567,166.67836 L257.315417,166.088518 Z M274.576487,196.125904 L266.777265,196.125904 L272.084709,212.969258 L272.931136,212.865041 C273.868252,212.749581 274.576487,211.939629 274.576487,210.981353 L274.576487,196.125904 Z M268.405342,213.422018 L262.959705,196.125904 L242.390659,196.125904 L248.592034,215.860952 L268.405342,213.422018 Z M244.916985,216.31328 L238.568781,196.125039 L217.658572,196.125039 L224.879115,218.780323 L244.916985,216.31328 Z M175.924526,153 L162.619207,153 C162.373053,153.234812 162.057802,153.461841 161.673454,153.666815 C160.339036,154.37255 157.229711,156.15894 156.391921,155.940992 C155.549812,155.723477 155.377072,153.972547 155.126599,153.464003 C154.988406,153.179461 154.379497,153.121514 153.70581,153.038054 C152.738465,153.21492 152,154.072007 152,155.108987 L152,157.800031 C152,158.965012 152.928479,159.908153 154.077202,159.908153 L175.920207,159.908586 C177.06893,159.908586 178.001727,158.964147 178.001727,157.800031 L178.001727,155.109419 C178.001727,153.943574 177.073249,153 175.924526,153 Z M199.516527,239.283376 C199.723815,239.769001 200.021792,240.203598 200.393183,240.568141 L186.418496,246.512396 C186.418496,246.45618 186.427134,246.399963 186.427134,246.348071 C186.427134,245.081036 186.012557,243.917785 185.317277,242.975076 L199.231505,237.059362 C199.21855,237.148011 199.205594,237.237957 199.201276,237.328336 C199.18832,237.43731 199.184002,237.548013 199.184002,237.659582 C199.184002,237.800988 199.18832,237.940665 199.205594,238.078611 C199.209913,238.110179 199.214231,238.140017 199.21855,238.171153 C199.231505,238.277099 199.244461,238.383046 199.266053,238.487695 C199.270372,238.512776 199.279009,238.537425 199.283327,238.562939 C199.309238,238.671048 199.335149,238.777859 199.365379,238.882076 C199.374016,238.897644 199.378334,238.913212 199.382653,238.928779 C199.421519,239.042077 199.460386,239.152781 199.50789,239.261754 C199.50789,239.270836 199.512208,239.27689 199.516527,239.283376 Z M189.497592,192.434204 L212.657742,192.434204 L203.614789,164.040072 L182.039531,163.217148 C181.413348,163.191634 180.834668,163.474015 180.463276,163.988613 C180.087566,164.502778 179.996877,165.143215 180.204166,165.744732 L189.497592,192.434204 Z M207.207787,237.660447 C207.207787,239.90738 205.411288,241.729662 203.195894,241.729662 C200.976182,241.729662 199.179683,239.90738 199.179683,237.660447 C199.179683,236.512763 199.6504,235.477513 200.406139,234.738049 L196.005581,222.138615 C195.936485,221.985101 195.871707,221.828992 195.815567,221.667693 L176.770953,166.974578 C176.770953,166.973713 176.770953,166.972848 176.770953,166.972848 L174.231671,159.908153 L175.924526,159.908586 C176.69322,159.908586 177.366907,159.482205 177.725343,158.850849 L178.433578,160.826646 C179.47002,159.950964 180.795801,159.48134 182.177723,159.530205 L204.331661,160.374751 C204.340298,160.372156 204.348935,160.368264 204.357572,160.36567 C204.789423,160.223399 205.238548,160.256696 205.627213,160.424481 L272.913862,162.990984 C275.884995,163.104282 278.216988,165.557488 278.216988,168.575886 L278.216988,210.98265 C278.216988,213.804723 276.13115,216.190036 273.367306,216.530362 L201.680098,225.356798 C201.451217,225.384907 201.226655,225.397447 201.006411,225.398312 L203.891174,233.658691 C205.774042,233.992531 207.207787,235.654379 207.207787,237.660447 Z M180.851942,240.694845 C177.772847,240.694845 175.27675,243.225888 175.27675,246.348071 C175.27675,249.470254 177.772847,252 180.851942,252 C183.931037,252 186.427134,249.470254 186.427134,246.348071 C186.427134,243.225888 183.931037,240.694845 180.851942,240.694845 Z" id="Shape" fill="#FF6F00"></path>
                    <g id="Clipped" transform="translate(151.000000, 153.000000)">
                        <mask id="mask-2" fill="white">
                            <use xlink:href="#path-1"></use>
                        </mask>
                        <g id="Shape"></g>
                        <path d="M24.0428037,0.283040936 L10.6861722,0.283040936 C10.439068,0.516335283 10.1226013,0.741052632 9.73677191,0.944327485 C8.39720712,1.64421053 5.2758911,3.41578947 4.43486984,3.20007797 C3.58951342,2.98393762 3.41610697,1.24752437 3.16466763,0.743625731 C3.02594247,0.461013645 2.41468475,0.403547758 1.73839962,0.320779727 C0.76298836,0.496179337 0.0260109668,1.34658869 0.0260109668,2.37497076 L0.0260109668,5.04327485 C0.0260109668,6.19859649 0.958070611,7.13434698 2.11122347,7.13434698 L24.0384685,7.13434698 C25.1916214,7.13434698 26.1280162,6.19773879 26.1280162,5.0437037 L26.1280162,2.37497076 C26.1280162,1.21879142 25.1959565,0.283040936 24.0428037,0.283040936 Z" id="Path" fill="#2196F3" mask="url(#mask-2)"></path>
                    </g>
                    <g id="Group" transform="translate(67.000000, 62.000000)">
                        <path d="M70.4673333,17.5258816 L72.118675,18.5760056 L69.8405151,22.2578954 C69.8189006,22.2652119 69.8016091,22.2695157 69.7843176,22.2802751 C69.209374,22.6082237 68.2713081,24.2742197 68.1589132,24.7028769 C68.0465182,25.1319644 65.9412736,28.0120587 65.9412736,28.0120587 C65.9412736,28.0120587 65.7813269,27.7469454 65.8937219,27.2029468 C66.0061169,26.6593785 66.412468,25.8786715 66.1012203,25.3501664 C66.0407,25.2447237 65.9499194,25.1216353 65.8461702,24.9963951 L70.4673333,17.5258816 Z" id="Path" fill="#FFFFFF"></path>
                        <path d="M48.6843204,23.7659424 C48.6454145,24.1270302 48.3039066,28.2603872 46.7130853,29.0630435 C44.4954458,30.1798763 43.6481605,30.1071423 43.0040507,30.5482804 C42.5760852,30.8400772 42.5890539,33.1064514 42.6495743,34.614068 L34.7386964,32.2362257 C34.6824989,31.2282788 34.5571353,29.5209665 34.2804707,28.0133499 L34.2847936,28.0150714 C34.2847936,28.0150714 38.6249692,24.3727764 38.3612733,23.3730067 C38.0932544,22.3745281 37.4232074,22.5742238 36.619151,20.6013678 C35.8194174,18.6285118 36.8223265,17.5792486 38.1580977,17.9795007 C39.4981918,18.3784618 39.191267,19.6442056 39.191267,19.6442056 C39.191267,19.6442056 45.4508031,19.5103578 47.0545931,17.8465137 C48.4292703,16.4245425 48.6021856,15.363659 48.6238,15.0830521 C48.6324458,15.1678367 48.6454145,15.2487479 48.6540602,15.3356844 L48.701612,15.9145437 C48.7578094,16.7675543 48.7621323,17.6778053 48.6843204,18.6693978 C48.6843204,18.6693978 49.7780101,21.8817445 49.816916,22.4821227 C49.8385305,22.9081977 48.7275493,23.4044243 48.6843204,23.7659424 Z M25.6130881,180.509436 L28.8768656,180.509436 L29.2529565,176.330459 L25.3321007,176.330889 L25.6130881,180.509436 Z M65.3922674,35.7700652 L65.3706529,35.7554324 L66.5032486,34.0636137 C66.5032486,34.0636137 68.1372987,32.9756163 68.7338567,32.432048 C69.3260919,31.8884797 71.4659195,28.8693731 71.1979007,28.0034511 C70.925559,27.1375292 71.0293082,24.6193834 70.9774336,23.9436888 C70.925559,23.2692854 70.3549383,21.9518962 69.7799947,22.2798448 C69.209374,22.6077933 68.2713081,24.2733589 68.1589132,24.7024465 C68.0465182,25.1311037 65.9412736,28.0116283 65.9412736,28.0116283 C65.9412736,28.0116283 65.7813269,27.7460847 65.8937219,27.2025164 C66.0061169,26.6589481 66.412468,25.8778107 66.1012203,25.3497361 C65.7899727,24.8216614 64.8562297,23.8817143 64.5060761,24.0603215 C64.1559225,24.2397894 64.549305,24.9025726 64.3893583,25.8605956 C64.2294115,26.8186186 63.356189,28.0223878 62.9498379,29.2971695 C62.5434868,30.5719513 63.3086372,31.9384036 63.3086372,31.9384036 L61.415214,34.7582449 L50.7809192,46.9702406 L54.8314616,53.2976683 L65.3922674,35.7700652 Z M96.0890672,89.4391504 C95.4017286,88.7828229 92.8555499,85.7409062 91.8915467,85.0617686 C91.0701987,84.4846308 88.5715718,85.3290338 87.2314777,85.5412105 L59.7076748,64.6385776 L55.4669255,57.87948 L49.0387969,64.1475155 L54.2392265,71.2057262 L83.976346,88.9485187 C84.2486877,89.5110237 84.7760795,90.4384898 85.4028977,90.7716029 C86.323672,91.2618042 88.0701172,91.0509187 88.3208445,91.5561833 C88.5672489,92.0618782 88.7444871,93.804912 89.5831266,94.0213925 C90.426089,94.2383033 93.5385655,92.4604089 94.8700138,91.7576005 C96.2014621,91.0552224 96.7807286,90.0946172 96.0890672,89.4391504 Z M47.8889097,172.628772 L50.7809192,173.554947 L52.3847092,169.772779 L49.0387969,168.027593 L47.8889097,172.628772 Z" id="Shape" fill="#FFD8D8"></path>
                        <path d="M51.83138,143.292438 L40.3325084,118.057613 L38.2445554,118.057613 L30.8697152,176.33175 L24.0741414,176.33175 L22.9156085,96.4655131 L50.2621731,96.4655131 L63.8533206,144.594333 L53.6296998,170.421359 L48.0056276,167.486607 L51.83138,143.292438 Z M39.0226745,187.942076 C38.1753892,187.494482 35.8669691,187.825874 33.5326117,187.240559 C31.1982543,186.65094 30.1391477,183.720061 30.091596,180.509436 L24.4372637,180.509436 L24.4372637,189.512959 L26.4517276,189.512959 L26.4517276,185.540563 C26.4517276,185.540563 29.5987872,189.267643 31.0815365,189.512959 C32.5686086,189.762578 39.7056902,189.512959 39.7056902,189.512959 C39.7056902,189.512959 39.8699598,188.38967 39.0226745,187.942076 Z M53.1930885,181.383105 C51.1483643,180.117791 51.0359694,177.004432 51.9697123,173.928946 L46.5833988,172.218621 L43.8340445,180.802094 L45.753405,181.408928 L46.9681354,177.622025 C46.9681354,177.622025 48.8269756,182.12766 50.1670697,182.807658 C51.5028408,183.491961 58.3805494,185.415753 58.3805494,185.415753 C58.3805494,185.415753 58.8820039,184.395756 58.207634,183.715757 C57.537587,183.031455 55.2378127,182.648418 53.1930885,181.383105 Z" id="Shape" fill="#2E7D32"></path>
                        <path d="M22.375248,96.4646524 C22.375248,96.4646524 26.2312605,78.7115308 25.8551696,71.9959015 C25.6347025,68.0510503 25.9632417,62.3851147 25.4747558,56.0546743 C24.4502323,42.7232636 30.3812293,34.5365999 30.3812293,34.5365999 C32.2011635,32.9175152 33.895734,31.983163 33.895734,31.983163 L43.7302953,34.9402951 C43.7302953,34.9402951 45.1914301,36.9553282 45.7577279,39.1197027 L56.8761857,56.4996859 L48.4163016,64.7547798 L46.8903235,62.8550882 C45.8052796,65.7752077 46.4839724,68.0342656 46.4191292,71.5801557 C46.2937655,78.4193037 50.193007,96.4633612 50.193007,96.4633612 L22.375248,96.4637916 L22.375248,96.4646524 Z" id="Path" fill="#FFA000"></path>
                        <path d="M10.4657023,23.8399676 C13.6776052,18.6452966 11.00174,9.45542013 16.4874799,2.66275304 C21.9732197,-4.12991405 30.2688343,6.13978259 30.2688343,6.13978259 C30.2688343,6.13978259 34.3409911,4.26117955 39.1955899,4.19447085 C44.0458658,4.12733177 47.2750602,7.08704612 48.4119787,10.0170643 C49.1900979,12.0325278 48.7318721,16.2579859 48.7318721,16.2579859 L48.6281229,15.0021409 C48.6281229,15.0021409 48.662706,16.1813785 47.058916,17.8465137 C45.4508031,19.5112186 39.1955899,19.6442056 39.1955899,19.6442056 C39.1955899,19.6442056 39.4981918,18.3793226 38.1580977,17.9790704 C36.8223265,17.5792486 35.8194174,18.6285118 36.619151,20.6013678 C37.4232074,22.5737934 38.0932544,22.3745281 38.3612733,23.3730067 C38.6292921,24.3714853 34.2847936,28.0137802 34.2847936,28.0137802 C34.2847936,28.0137802 32.8755334,25.5709507 30.0008155,23.9058155 C27.1260976,22.2411107 26.1188656,16.7800353 26.5900599,13.8500171 C27.0569314,10.9204292 28.2630161,8.38937208 28.2630161,8.38937208 C28.2630161,8.38937208 23.9790379,7.45200726 22.1072291,13.6477391 C20.2354203,19.8434709 22.375248,22.5075151 16.8895081,26.9025424 C11.4037682,31.2988609 0.0345830726,30.766052 0.0345830726,30.766052 C0.0345830726,30.766052 7.25812236,29.0342081 10.4657023,23.8399676 Z" id="Path" fill="#212121"></path>
                    </g>
                </g>
            </g>
        </g>
    </g>
</svg>