<?xml version="1.0" encoding="UTF-8"?>
<svg width="285px" height="105px" viewBox="0 0 285 105" version="1.1" xmlns="http://www.w3.org/2000/svg" xmlns:xlink="http://www.w3.org/1999/xlink">
    <!-- Generator: Sketch 64 (93537) - https://sketch.com -->
    <title>Plant</title>
    <desc>Created with Sketch.</desc>
    <defs>
        <rect id="path-1" x="0" y="0" width="398" height="115"></rect>
    </defs>
    <g id="Landing" stroke="none" stroke-width="1" fill="none" fill-rule="evenodd">
        <g transform="translate(-110.000000, -6993.000000)" id="Footer">
            <g transform="translate(1.000000, 6438.000000)">
                <g id="Deco">
                    <g id="Plant" transform="translate(68.000000, 545.000000)">
                        <g id="Illustrations">
                            <mask id="mask-2" fill="white">
                                <use xlink:href="#path-1"></use>
                            </mask>
                            <g id="Rectangle"></g>
                            <g id="Group-4" mask="url(#mask-2)">
                                <g transform="translate(41.350649, 10.337079)">
                                    <path d="M28.3530416,0 C41.6420875,0 52.4134739,10.6522879 52.4134739,23.7924627 L4.29260938,23.7924627 C4.29260938,10.6522879 15.0660938,0 28.3530416,0 Z" id="Fill-53" stroke="none" fill="#4CAF50" fill-rule="evenodd"></path>
                                    <path d="M28.5313759,8.70021181 C39.0551924,8.70021181 47.5837638,17.1265832 47.5837638,27.5210654 L9.48108593,27.5210654 C9.48108593,17.1265832 18.0117554,8.70021181 28.5313759,8.70021181 Z" id="Fill-54" stroke="none" fill="#C8E6C9" fill-rule="evenodd"></path>
                                    <path d="M28.621592,18.1105345 C36.4263363,18.1105345 42.7540538,24.3905385 42.7540538,32.1376191 C42.7540538,32.1967603 42.7540538,32.2561097 42.7519557,32.3152509 L14.4912283,32.3150427 L14.4891302,32.1376191 C14.4891302,24.4680051 20.6909647,18.2365219 28.3887085,18.1124087 L28.621592,18.1105345 Z" id="Fill-55" stroke="none" fill="#2E7D32" fill-rule="evenodd"></path>
                                    <path d="M28.2649236,65.6954599 C12.6449446,65.6473556 0,53.0658985 0,37.5529954 C0,37.5234248 0,37.493646 0,37.4640754 L28.2649236,37.4640754 L28.2649236,65.6954599 Z" id="Fill-56" stroke="none" fill="#FFECB3" fill-rule="evenodd"></path>
                                    <path d="M28.2649236,65.6954599 C43.9814128,65.6475639 56.7081813,53.0661067 56.7081813,37.5529954 C56.7081813,37.5234248 56.7081813,37.493646 56.7060833,37.4640754 L28.2649236,37.4640754 L28.2649236,65.6954599 Z" id="Fill-57" stroke="none" fill="#FFA000" fill-rule="evenodd"></path>
                                    <path d="M29.0537902,89.2734316 C27.5725672,89.2734316 26.3724829,88.0826944 26.3724829,86.6133271 C26.3724829,85.1441681 27.5725672,83.9532227 29.0537902,83.9532227 C30.5329151,83.9532227 31.7329995,85.1441681 31.7329995,86.6133271 C31.7329995,88.0826944 30.5329151,89.2734316 29.0537902,89.2734316 Z" id="Fill-58" stroke="none" fill="#4CAF50" fill-rule="evenodd"></path>
                                    <path d="M29.0537902,81.2210659 C27.5725672,81.2210659 26.3724829,80.0303286 26.3724829,78.5609614 C26.3724829,77.0918024 27.5725672,75.9008569 29.0537902,75.9008569 C30.5329151,75.9008569 31.7329995,77.0918024 31.7329995,78.5609614 C31.7329995,80.0303286 30.5329151,81.2210659 29.0537902,81.2210659 Z" id="Fill-59" stroke="none" fill="#4CAF50" fill-rule="evenodd"></path>
                                    <path d="M29.0537902,97.4696938 C27.5725672,97.4696938 26.3724829,96.2787483 26.3724829,94.8095893 C26.3724829,93.3404303 27.5725672,92.1492766 29.0537902,92.1492766 C30.5329151,92.1492766 31.7329995,93.3404303 31.7329995,94.8095893 C31.7329995,96.2787483 30.5329151,97.4696938 29.0537902,97.4696938 Z" id="Fill-60" stroke="none" fill="#4CAF50" fill-rule="evenodd"></path>
                                    <path d="M26.3724829,151.751465 L26.3724829,103.293436 C26.3724829,101.863843 27.5410965,100.704967 28.9803585,100.704967 C30.4196205,100.704967 31.5882341,101.863843 31.5882341,103.293436 L31.5882341,151.751465 C31.5882341,153.180828 30.4196205,154.3396 28.9803585,154.3396 C27.5410965,154.3396 26.3724829,153.180828 26.3724829,151.751465 Z" id="Fill-61" stroke="none" fill="#4CAF50" fill-rule="evenodd"></path>
                                    <path d="M26.3724829,151.751465 L26.3724829,103.293436 C26.3724829,101.863843 27.5410965,100.704967 28.9803585,100.704967 L28.9803585,154.3396 C27.5410965,154.3396 26.3724829,153.180828 26.3724829,151.751465 Z" id="Fill-62" stroke="none" fill="#2E7D32" fill-rule="evenodd"></path>
                                    <line x1="28.9782604" y1="154.340017" x2="28.9782604" y2="100.705384" id="Stroke-63" stroke="#A8A8A8" stroke-width="0.7378" fill="none"></line>
                                </g>
                            </g>
                            <g id="Group-6" mask="url(#mask-2)">
                                <g transform="translate(120.233766, 27.134831)">
                                    <path d="M68.0207032,80.1870025 C66.7516914,80.1870025 65.7210113,79.1607852 65.7210113,77.8946242 C65.7210113,76.6288798 66.7516914,75.6024541 68.0207032,75.6024541 C69.2918056,75.6024541 70.3224856,76.6288798 70.3224856,77.8946242 C70.3224856,79.1607852 69.2918056,80.1870025 68.0207032,80.1870025 Z" id="Fill-79" stroke="none" fill="#4CAF50" fill-rule="evenodd"></path>
                                    <path d="M68.0207032,73.2484236 C66.7516914,73.2484236 65.7210113,72.221998 65.7210113,70.9562536 C65.7210113,69.6900926 66.7516914,68.6638752 68.0207032,68.6638752 C69.2918056,68.6638752 70.3224856,69.6900926 70.3224856,70.9562536 C70.3224856,72.221998 69.2918056,73.2484236 68.0207032,73.2484236 Z" id="Fill-80" stroke="none" fill="#4CAF50" fill-rule="evenodd"></path>
                                    <path d="M68.0207032,87.2497189 C66.7516914,87.2497189 65.7210113,86.2232933 65.7210113,84.9573406 C65.7210113,83.6913879 66.7516914,82.6649623 68.0207032,82.6649623 C69.2918056,82.6649623 70.3224856,83.6913879 70.3224856,84.9573406 C70.3224856,86.2232933 69.2918056,87.2497189 68.0207032,87.2497189 Z" id="Fill-81" stroke="none" fill="#4CAF50" fill-rule="evenodd"></path>
                                    <path d="M43.3533723,17.0320419 C56.984273,17.0741154 68.0207032,28.1650525 68.0207032,41.8403827 L68.0207032,41.7626926 L43.3533723,41.7626926 L43.3533723,17.0320419 Z" id="Fill-85" stroke="none" fill="#E0E0E0" fill-rule="evenodd"></path>
                                    <path d="M68.1001471,16.9539353 C72.7977903,16.9539353 76.6090069,13.1587848 76.6090069,8.47717592 C76.6090069,3.795567 72.7977903,0 68.1001471,0 C63.4004132,0 59.5912873,3.795567 59.5912873,8.47717592 C59.5912873,13.1587848 63.4004132,16.9539353 68.1001471,16.9539353 Z" id="Fill-86" stroke="none" fill="#4CAF50" fill-rule="evenodd"></path>
                                    <path d="M43.3533723,17.0320419 C56.984273,17.0741154 68.0207032,28.1650525 68.0207032,41.8403827 L68.0207032,41.7626926 L43.3533723,41.7626926 L43.3533723,17.0320419 Z" id="Fill-87" stroke="none" fill="#C8E6C9" fill-rule="evenodd"></path>
                                    <path d="M92.688034,17.0320419 C79.0571334,17.0741154 68.0207032,28.1650525 68.0207032,41.8403827 L68.0227938,41.7626926 L92.688034,41.7626926 L92.688034,17.0320419 Z" id="Fill-88" stroke="none" fill="#FFA000" fill-rule="evenodd"></path>
                                    <path d="M68.0207032,66.3381714 C54.3898025,66.2956814 43.3533723,55.2047443 43.3533723,41.5294141 C43.3533723,41.5033785 43.3533723,41.4773429 43.3533723,41.4515157 L68.0207032,41.4515157 L68.0207032,66.3381714 Z" id="Fill-89" stroke="none" fill="#FFECB3" fill-rule="evenodd"></path>
                                    <path d="M68.0207032,66.3381714 C81.6516039,66.2956814 92.688034,55.2047443 92.688034,41.5294141 L92.688034,41.4515157 L68.0207032,41.4515157 L68.0207032,66.3381714 Z" id="Fill-90" stroke="none" fill="#4CAF50" fill-rule="evenodd"></path>
                                    <path d="M0,64.2061721 C7.78132091,56.8335284 20.1264848,57.1569941 27.6025739,64.9407912 L27.5607613,64.8968432 L13.5200974,78.2822415 L0,64.2061721 Z" id="Fill-91" stroke="none" fill="#E0E0E0" fill-rule="evenodd"></path>
                                    <path d="M14.040664,50.7335026 C16.716669,48.1836847 16.8086567,43.9561358 14.2497269,41.2915532 C11.690797,38.6267624 7.44682028,38.5338675 4.77290587,41.0838937 C2.09690083,43.6341281 2.00491315,47.8612604 4.56384298,50.5260513 C7.12486343,53.1906339 11.3667495,53.283737 14.040664,50.7335026 Z" id="Fill-92" stroke="none" fill="#FF6F00" fill-rule="evenodd"></path>
                                    <path d="M0,64.2061721 C7.78132091,56.8335284 20.1264848,57.1569941 27.6025739,64.9407912 L27.5607613,64.8968432 L13.5200974,78.2822415 L0,64.2061721 Z" id="Fill-93" stroke="none" fill="#4CAF50" fill-rule="evenodd"></path>
                                    <path d="M28.0792373,37.4345423 C20.3439102,44.8552997 20.1264848,57.1569941 27.6025739,64.9407912 L27.5607613,64.8962183 L41.6014253,51.5106118 L28.0792373,37.4345423 Z" id="Fill-94" stroke="none" fill="#FFA000" fill-rule="evenodd"></path>
                                    <path d="M40.9972335,78.8839752 C33.2159126,86.2566188 20.8686581,85.9331531 13.392569,78.149356 C13.3779346,78.1347761 13.3653908,78.1199879 13.3507564,78.1049914 L27.3914204,64.7193849 L40.9972335,78.8839752 Z" id="Fill-95" stroke="none" fill="#C8E6C9" fill-rule="evenodd"></path>
                                    <path d="M40.9972335,78.8839752 C48.73047,71.4630096 48.949986,59.1615234 41.4718063,51.3777263 C41.4592625,51.3629381 41.4446281,51.3481499 41.4299937,51.33357 L27.3914204,64.7193849 L40.9972335,78.8839752 Z" id="Fill-96" stroke="none" fill="#FFECB3" fill-rule="evenodd"></path>
                                    <path d="M135.646277,64.2063803 C127.864957,56.8337367 115.519793,57.1572024 108.043704,64.9409995 L108.085516,64.8970515 L122.12618,78.2824498 L135.646277,64.2063803 Z" id="Fill-97" stroke="none" fill="#E0E0E0" fill-rule="evenodd"></path>
                                    <path d="M121.605614,50.7337109 C118.929608,48.183893 118.837621,43.9563441 121.396551,41.2917615 C123.95548,38.6269707 128.199457,38.5340758 130.873372,41.084102 C133.549377,43.6343364 133.641364,47.8614687 131.082435,50.5262596 C128.523505,53.1908422 124.279528,53.2839453 121.605614,50.7337109 Z" id="Fill-98" stroke="none" fill="#FF6F00" fill-rule="evenodd"></path>
                                    <path d="M135.646277,64.2063803 C127.864957,56.8337367 115.519793,57.1572024 108.043704,64.9409995 L108.085516,64.8970515 L122.12618,78.2824498 L135.646277,64.2063803 Z" id="Fill-99" stroke="none" fill="#4CAF50" fill-rule="evenodd"></path>
                                    <path d="M107.56704,37.4347506 C115.302367,44.855508 115.519793,57.1572024 108.043704,64.9409995 L108.085516,64.8964266 L94.0469428,51.5108201 L107.56704,37.4347506 Z" id="Fill-100" stroke="none" fill="#FFECB3" fill-rule="evenodd"></path>
                                    <path d="M94.6511346,78.8841835 C102.430365,86.2568271 114.777619,85.9333614 122.253709,78.1495643 C122.268343,78.1349844 122.280887,78.1201962 122.295521,78.1051997 L108.256948,64.7195932 L94.6511346,78.8841835 Z" id="Fill-101" stroke="none" fill="#C8E6C9" fill-rule="evenodd"></path>
                                    <path d="M94.6511346,78.8841835 C86.9158075,71.4632178 86.6962915,59.1615234 94.1744712,51.3779346 C94.187015,51.3631464 94.2016494,51.3483582 94.2162838,51.3337783 L108.256948,64.7195932 L94.6511346,78.8841835 Z" id="Fill-102" stroke="none" fill="#2E7D32" fill-rule="evenodd"></path>
                                    <path d="M90.2190013,82.6385101 C89.8719569,82.2448526 89.9095882,81.6449935 90.304717,81.2988248 C90.6998459,80.9524478 91.3019471,80.9907721 91.6510821,81.3844296 C91.9981265,81.7778789 91.9584045,82.3777381 91.5632757,82.7239068 C91.1681468,83.0702837 90.5681363,83.0319594 90.2190013,82.6385101 Z" id="Fill-105" stroke="none" fill="#4CAF50" fill-rule="evenodd"></path>
                                    <path d="M92.3848928,80.7402059 C92.0378484,80.3467567 92.0754798,79.7471058 92.4706086,79.4007288 C92.8657375,79.0545601 93.4678386,79.0928845 93.814883,79.4863337 C94.1640181,79.8799913 94.1242961,80.4796421 93.7291673,80.8260191 C93.3340384,81.1721878 92.7319372,81.1338635 92.3848928,80.7402059 Z" id="Fill-106" stroke="none" fill="#4CAF50" fill-rule="evenodd"></path>
                                    <path d="M88.0154784,84.5701399 C87.668434,84.1766906 87.7060653,83.5770397 88.1011941,83.2306628 C88.496323,82.8842858 89.0984241,82.9226101 89.4454686,83.3162677 C89.7946036,83.7099252 89.7548816,84.3095761 89.3597528,84.655953 C88.9646239,85.0021218 88.3625228,84.9640057 88.0154784,84.5701399 Z" id="Fill-107" stroke="none" fill="#4CAF50" fill-rule="evenodd"></path>
                                    <path d="M72.7915184,96.6520942 L85.820318,85.2304015 C86.2049937,84.8933973 86.7903698,84.9306802 87.1290517,85.313507 C87.4677336,85.696542 87.4301023,86.2799467 87.0454265,86.6169509 L74.0145363,98.0388519 C73.6319513,98.3758561 73.0465752,98.3385732 72.7078933,97.9555382 C72.3692114,97.5727114 72.4068427,96.9890984 72.7915184,96.6520942 Z" id="Fill-108" stroke="none" fill="#4CAF50" fill-rule="evenodd"></path>
                                    <path d="M72.7915184,96.6520942 L85.820318,85.2304015 C86.2049937,84.8933973 86.7903698,84.9306802 87.1290517,85.313507 L72.7078933,97.9555382 C72.3692114,97.5727114 72.4068427,96.9890984 72.7915184,96.6520942 Z" id="Fill-109" stroke="none" fill="#2E7D32" fill-rule="evenodd"></path>
                                    <line x1="72.6953495" y1="97.9351263" x2="87.1165079" y2="85.2926785" id="Stroke-110" stroke="#A8A8A8" stroke-width="0.7378" fill="none"></line>
                                    <path d="M45.4272762,82.6385101 C45.7743206,82.2448526 45.7366893,81.6449935 45.3415604,81.2988248 C44.9464316,80.9524478 44.3443304,80.9907721 43.997286,81.3844296 C43.648151,81.7778789 43.687873,82.3777381 44.0830018,82.7239068 C44.4781307,83.0702837 45.0802318,83.0319594 45.4272762,82.6385101 Z" id="Fill-111" stroke="none" fill="#4CAF50" fill-rule="evenodd"></path>
                                    <path d="M43.2613846,80.7402059 C43.6105197,80.3467567 43.5707977,79.7471058 43.1756689,79.4007288 C42.78054,79.0545601 42.1784389,79.0928845 41.8313945,79.4863337 C41.48435,79.8799913 41.5219814,80.4796421 41.9171102,80.8260191 C42.3122391,81.1721878 42.9143402,81.1338635 43.2613846,80.7402059 Z" id="Fill-112" stroke="none" fill="#4CAF50" fill-rule="evenodd"></path>
                                    <path d="M47.6307991,84.5701399 C47.9778435,84.1766906 47.9402122,83.5770397 47.5450833,83.2306628 C47.1499545,82.8842858 46.5478533,82.9226101 46.2008089,83.3162677 C45.8537645,83.7099252 45.8913959,84.3095761 46.2865247,84.655953 C46.6816536,85.0021218 47.2837547,84.9640057 47.6307991,84.5701399 Z" id="Fill-113" stroke="none" fill="#4CAF50" fill-rule="evenodd"></path>
                                    <path d="M62.8568497,96.6520942 L49.8259595,85.2304015 C49.4412838,84.8933973 48.8559077,84.9306802 48.5172258,85.313507 C48.1806345,85.696542 48.2161752,86.2799467 48.600851,86.6169509 L61.6317411,98.0388519 C62.0164169,98.3758561 62.601793,98.3385732 62.9404749,97.9555382 C63.2770661,97.5727114 63.2394348,96.9890984 62.8568497,96.6520942 Z" id="Fill-114" stroke="none" fill="#4CAF50" fill-rule="evenodd"></path>
                                    <path d="M62.8568497,96.6520942 L49.8259595,85.2304015 C49.4412838,84.8933973 48.8559077,84.9306802 48.5172258,85.313507 L62.9404749,97.9555382 C63.2770661,97.5727114 63.2394348,96.9890984 62.8568497,96.6520942 Z" id="Fill-115" stroke="none" fill="#2E7D32" fill-rule="evenodd"></path>
                                    <line x1="62.9362936" y1="97.9794909" x2="48.5151352" y2="85.3370431" id="Stroke-116" stroke="#A8A8A8" stroke-width="0.7378" fill="none"></line>
                                </g>
                            </g>
                            <g id="Group-7" mask="url(#mask-2)">
                                <g transform="translate(269.000000, 52.977528)">
                                    <path d="M27.4746349,21.6572947 C33.5330794,21.6572947 38.4459577,16.8092238 38.4459577,10.8286474 C38.4459577,4.84807099 33.5330794,0 27.4746349,0 C21.4161905,0 16.505418,4.84807099 16.505418,10.8286474 C16.505418,16.8092238 21.4161905,21.6572947 27.4746349,21.6572947 Z" id="Fill-117" fill="#4CAF50"></path>
                                    <path d="M28.3801376,29.0090175 C44.0558624,29.0090175 56.762381,41.5520136 56.762381,57.0248062 L56.762381,113.652279 L0,113.652279 L0,57.0248062 C0,41.5520136 12.7065185,29.0090175 28.3801376,29.0090175 Z" id="Fill-118" fill="#2196F3"></path>
                                    <path d="M28.4812169,56.8260773 C30.5386032,56.8260773 32.2064127,55.1803274 32.2064127,53.1502159 C32.2064127,51.1201043 30.5386032,49.4743545 28.4812169,49.4743545 C26.4259365,49.4743545 24.758127,51.1201043 24.758127,53.1502159 C24.758127,55.1803274 26.4259365,56.8260773 28.4812169,56.8260773 Z" id="Fill-122" fill="#FFFFFF"></path>
                                    <path d="M28.4812169,45.6991286 C30.5386032,45.6991286 32.2064127,44.0535867 32.2064127,42.0234751 C32.2064127,39.9931557 30.5386032,38.3476137 28.4812169,38.3476137 C26.4259365,38.3476137 24.758127,39.9931557 24.758127,42.0234751 C24.758127,44.0535867 26.4259365,45.6991286 28.4812169,45.6991286 Z" id="Fill-123" fill="#FFFFFF"></path>
                                    <path d="M28.4812169,68.1515469 C30.5386032,68.1515469 32.2064127,66.5057971 32.2064127,64.4756856 C32.2064127,62.445574 30.5386032,60.7998242 28.4812169,60.7998242 C26.4259365,60.7998242 24.758127,62.445574 24.758127,64.4756856 C24.758127,66.5057971 26.4259365,68.1515469 28.4812169,68.1515469 Z" id="Fill-124" fill="#FFFFFF"></path>
                                </g>
                            </g>
                        </g>
                    </g>
                </g>
            </g>
        </g>
    </g>
</svg>