<?xml version="1.0" encoding="UTF-8"?>
<svg width="434px" height="289px" viewBox="0 0 434 289" version="1.1" xmlns="http://www.w3.org/2000/svg" xmlns:xlink="http://www.w3.org/1999/xlink">
    <!-- Generator: Sketch 64 (93537) - https://sketch.com -->
    <title>register</title>
    <desc>Created with Sketch.</desc>
    <g id="Forms" stroke="none" stroke-width="1" fill="none" fill-rule="evenodd">
        <g id="Register" transform="translate(-835.000000, -426.000000)">
            <g id="register" transform="translate(835.000000, 427.000000)">
                <g id="Group" transform="translate(137.000000, 0.000000)">
                    <path d="M294.331717,0.341837702 L158.038845,0.341837702 C158.038845,0.341837702 131.31331,24.3591851 135.325253,77.7276782 C139.054266,127.346692 154.32115,155.056451 155.373648,187.656468 L175.863413,214.136177 C175.869072,214.135047 175.874731,214.134482 175.886048,214.133352 L176.231222,214.613054 C178.505976,217.772087 181.380542,233.254227 181.261711,233.957678 C181.261711,233.957678 167.041667,226.012918 164.761254,222.853321 L153.472361,208.257133 C149.347246,225.821941 139.331537,245.416304 130.407935,260.5244 C120.228126,260.698427 112.775759,261.106937 109.935146,261.85333 C84.5506973,268.525098 88.5569812,285.869547 88.5569812,285.869547 L250.23996,285.869547 C250.23996,285.869547 262.434228,269.221204 273.598632,248.247059 C282.675016,231.199246 291.061051,211.294121 291.660861,195.141866 C292.996289,159.117822 275.624409,131.098431 271.618125,77.7299382 C267.606182,24.3620102 294.331717,0.341837702 294.331717,0.341837702 Z M262.264471,173.346746 L179.41701,173.346746 L179.41701,171.567495 L262.264471,171.567495 L262.264471,173.346746 Z M162.050788,43.4811906 L244.898249,43.4811906 L244.898249,45.2604418 L162.050788,45.2604418 L162.050788,43.4811906 Z M156.703417,71.5005818 L239.550878,71.5005818 L239.550878,73.2798329 L156.703417,73.2798329 L156.703417,71.5005818 Z M160.71536,104.856596 L243.557162,104.856596 L243.557162,106.635282 L160.71536,106.635282 L160.71536,104.856596 Z M167.3925,142.659891 L167.3925,140.88064 L250.23996,140.88064 L250.23996,142.659891 L167.3925,142.659891 Z M179.41701,206.703326 L179.41701,204.924074 L262.264471,204.924074 L262.264471,206.703326 L179.41701,206.703326 Z M168.727928,238.280089 L251.575388,238.280089 L251.575388,240.05934 L250.092837,240.058775 L168.727928,240.058775 L168.727928,238.280089 Z M210.216732,283.80609 C210.216732,283.80609 206.878162,273.814824 221.890409,265.488675 C222.925932,264.914614 223.916185,264.452426 224.872488,264.074427 L131.31331,264.074427 L131.31331,262.295741 L231.532652,262.295741 L231.532652,262.833641 C239.884735,263.239326 243.981556,271.718031 245.237764,275.479941 C246.90139,280.475857 250.23996,285.471207 250.23996,285.471207 L210.216732,283.80609 Z" id="Shape" stroke="#4CAF50" fill="#EFEFEF"></path>
                    <path d="M108.605376,51.0439967 C111.932629,50.4919712 114.473337,47.6041488 114.473337,44.1224895 C114.473337,47.6041488 117.014046,50.4919712 120.341298,51.0439967 C117.07629,51.5847218 114.575192,54.3736654 114.478996,57.7654864 L114.467679,57.7654864 C114.371483,54.3747954 111.870385,51.5858518 108.605376,51.0439967 Z M6.23576954,145.824573 L6.24708672,145.824573 C6.33762421,142.432752 8.84438093,139.644939 12.1093891,139.103084 C8.78213641,138.551058 6.24142813,135.663236 6.24142813,132.181577 C6.24142813,135.663236 3.70071985,138.551058 0.373467141,139.103084 C3.63847533,139.644939 6.13957346,142.433882 6.23576954,145.824573 Z M114.614802,227.183077 L114.631778,227.183077 C114.790219,221.459979 119.011529,216.753919 124.522999,215.84141 C118.904016,214.909125 114.620461,210.036384 114.620461,204.160731 C114.620461,210.036384 110.336906,214.909125 104.717923,215.84141 C110.229393,216.753919 114.450703,221.459979 114.614802,227.183077 Z M290.331092,62.8020836 C290.331092,66.2837429 287.796042,69.1710002 284.463131,69.7235907 C287.728139,70.2643158 290.234896,73.0532595 290.331092,76.4450805 L290.336751,76.4450805 C290.432947,73.0532595 292.934045,70.2654459 296.204712,69.7235907 C292.8718,69.1710002 290.331092,66.2837429 290.331092,62.8020836 Z" id="Shape" fill="#FFA000"></path>
                    <path d="M231.532652,262.833641 L231.532652,262.295741 L187.831338,262.295741 L131.318969,262.295741 L131.318969,264.074427 L224.872488,264.074427 C223.916185,264.452426 222.925932,264.914614 221.890409,265.488675 C206.88382,273.814824 210.216732,283.80609 210.216732,283.80609 L250.23996,285.471207 C250.23996,285.471207 246.907049,280.475857 245.237764,275.479941 C243.981556,271.718031 239.884735,263.239326 231.532652,262.833641 Z" id="Path" fill="#2E7D32"></path>
                    <polygon id="Path" fill="#2E7D32" points="244.898249 43.4811906 162.050788 43.4811906 162.050788 45.2604418 244.898249 45.2604418"></polygon>
                    <polygon id="Path" fill="#2E7D32" points="239.550878 71.5005818 156.703417 71.5005818 156.703417 73.2798329 239.550878 73.2798329"></polygon>
                    <polygon id="Path" fill="#2E7D32" points="243.557162 104.856596 160.71536 104.856596 160.71536 106.635282 243.557162 106.635282"></polygon>
                    <polygon id="Path" fill="#2E7D32" points="250.23996 140.88064 167.3925 140.88064 167.3925 142.659891 250.23996 142.659891"></polygon>
                    <polygon id="Path" fill="#2E7D32" points="179.41701 171.567495 179.41701 173.346746 262.264471 173.346746 262.264471 171.567495"></polygon>
                    <polygon id="Path" fill="#2E7D32" points="179.41701 206.703326 262.264471 206.703326 262.264471 204.924074 179.41701 204.924074"></polygon>
                    <polygon id="Path" fill="#2E7D32" points="168.727928 238.280089 251.575388 238.280089 251.575388 240.05934 250.092837 240.058775 168.727928 240.058775"></polygon>
                </g>
                <g id="Group" transform="translate(157.000000, 76.000000)">
                    <path d="M145.19706,147.954512 L144.85698,147.476823 C145.882888,145.202707 147.424583,143.247239 149.465061,141.779647 C151.499872,140.315451 153.840754,139.480628 156.317669,139.223106 L135.793854,112.698355 L91.1470477,54.9908205 L99.7057221,66.8673888 C98.5664548,65.2837709 96.8887279,64.3119796 95.1033091,64.0216308 C93.3178903,63.73015 91.4191115,64.1201117 89.8320726,65.2599996 C87.3381542,67.0530309 86.3689269,70.1664984 87.1737824,72.9556582 L91.9632392,79.1458044 C92.6660707,79.3721972 93.3632343,79.6155695 94.0377258,79.8702615 C95.3867089,77.9691276 97.5972275,76.723967 100.10815,76.723967 C104.217447,76.723967 107.544561,80.0485458 107.544561,84.1490861 C107.544561,84.5073528 107.510553,84.8576957 107.465209,85.2023788 C107.034441,88.2094417 104.806919,90.6312791 101.893569,91.3495104 C101.757537,91.3846012 101.621505,91.4174282 101.479805,91.4434634 L102.052273,92.1888618 L105.589102,96.7563373 L133.883739,133.331232 L145.19706,147.954512 Z" id="Path" fill="#2196F3"></path>
                    <path d="M107.544561,84.1513501 C107.544561,84.5096167 107.510553,84.8593937 107.465209,85.2040768 C107.034441,88.2117056 104.806919,90.633543 101.899237,91.3512083 C101.757537,91.3862992 101.621505,91.4191262 101.479805,91.4451613 L102.057941,92.1911257 L105.589102,96.7586013 C105.061979,97.0121612 104.495179,97.2244045 103.900039,97.3766537 C99.6433741,98.4610754 95.4320529,96.3437364 94.4854975,92.6490052 C94.4118136,92.3648822 94.3664696,92.0796273 94.3381296,91.7949383 C87.0830944,92.1435832 79.9130792,89.9996431 75.1519623,87.0361608 C68.1519869,86.4950819 61.6848032,85.2040768 59.0605209,83.5938577 C58.1876495,83.0567407 57.9099177,81.6214101 58.1933175,79.9676104 C58.7091052,76.9650754 61.1236716,73.2324235 65.4426847,72.7694501 C66.2418722,72.6839868 67.5908553,72.8384999 69.2062342,73.1322446 C69.55765,73.1967666 69.9204018,73.2658164 70.2944895,73.341658 C72.9471118,73.879907 76.1155217,74.7028449 78.8531639,75.460695 C79.4142955,75.396739 79.9924311,75.3905132 80.5989067,75.4572991 C81.4717781,75.553516 82.7017333,76.0827093 84.1073964,76.8535769 C84.2717683,76.945266 84.4361402,77.0307293 84.6061801,77.1286442 C85.0199438,77.2554242 85.2579996,77.3284359 85.2579996,77.3284359 C85.2579996,77.3284359 88.6021174,78.0625147 91.9632392,79.1480683 C92.6660707,79.3744612 93.3689023,79.6172675 94.0377258,79.8725254 C95.3867089,77.9708256 97.6028955,76.7262309 100.10815,76.7262309 C104.217447,76.725099 107.544561,80.0496778 107.544561,84.1513501 Z" id="Path" fill="#FFD8D8"></path>
                    <path d="M161.724937,159.078324 C161.724937,159.078324 147.481262,151.12005 145.19706,147.955078 L144.85698,147.477955 C145.882888,145.203839 147.424583,143.247805 149.465061,141.780213 C151.499872,140.316017 153.840754,139.481194 156.317669,139.223672 C156.323337,139.223106 156.329005,139.221974 156.340341,139.220842 L156.686088,139.701361 C158.964623,142.865767 161.843965,158.373676 161.724937,159.078324 Z" id="Path" fill="#BBDEFB"></path>
                    <path d="M62.7843945,15.6352554 C62.6200226,16.2097272 62.2005909,16.5940291 61.8548431,16.5000761 C61.4977593,16.4032931 61.3503914,15.8616483 61.5034273,15.2894404 C61.6677992,14.7172325 62.0872309,14.3340626 62.4386467,14.4274496 C62.7957305,14.5242326 62.9487664,15.0653114 62.7843945,15.6352554 Z" id="Path" fill="#F5A7A6"></path>
                    <path d="M69.8863938,17.7316531 C69.9147338,17.9286149 69.9147338,18.1533098 69.8467178,18.3893243 C69.6823459,18.9632301 69.2629142,19.3464 68.9171664,19.2547109 C68.5600827,19.156796 68.4070468,18.6145852 68.5714187,18.0429433 C68.7301226,17.4713013 69.1495543,17.0853015 69.50097,17.1809525 C69.523642,17.1871783 69.534978,17.2086856 69.55765,17.2183073 C69.7276899,17.2969788 69.8410498,17.4843189 69.8863938,17.7316531 Z" id="Path" fill="#F5A7A6"></path>
                    <path d="M65.2896488,37.5048036 L65.1592849,36.6173437 L56.8896784,33.2803132 L58.6467572,28.7886793 L60.9252917,29.6761393 C66.3438961,31.7906484 68.6904466,27.6516213 70.8102772,22.2357386 L71.7398286,19.8495581 L72.7997439,17.1441637 C72.624036,17.3931958 72.5106761,17.5312954 72.5106761,17.5312954 C72.5106761,17.5312954 72.8620918,13.1681395 69.8807258,10.1667364 C69.3309302,9.60981001 68.6564386,9.06703318 67.9366031,8.55198948 C67.5851873,8.30522128 67.2281035,8.06807478 66.8596838,7.83658811 C65.7204165,7.11213102 64.5301373,6.46521349 63.492894,5.94507594 C63.3398581,7.75112481 62.8070665,9.90015883 61.1803515,10.6976276 C59.5933126,11.4775509 58.6637612,12.2795476 58.0799576,13.0011747 C57.5641699,13.6435644 57.3204461,14.2236961 57.1447382,14.6662941 C56.8386664,15.4507452 56.2491948,16.4451758 56.0564829,16.7598618 C56.016807,16.8221199 55.988467,16.8685304 55.988467,16.8685304 C55.988467,16.8685304 55.994135,16.8147621 56.005471,16.7400525 C56.1018269,15.9799385 56.5892746,11.7673338 55.3253114,11.9586357 C53.0297729,12.3061487 50.4961786,19.2999895 50.4961786,19.2999895 C50.5188506,19.5631712 50.5755306,19.820127 50.6152065,20.0799128 L47.4127886,28.2775975 L45.8597577,28.8288641 L46.1658295,31.4663406 L46.3245334,32.8365833 L47.2597527,40.9844615 C47.6168365,41.5102589 47.9795883,42.0530357 48.359344,42.6105281 L48.7107598,42.7520236 L53.1771408,44.5546766 L56.9633623,46.0839602 L58.6184172,46.7512531 L54.7811838,52.0726168 L58.907485,46.3511038 L65.2896488,37.5048036 Z" id="Path" fill="#FFD8D8"></path>
                    <path d="M91.1470477,54.9925184 C90.0077805,53.4083345 88.3300536,52.4359773 86.5446348,52.1467605 C84.759216,51.8564116 82.8604372,52.2458073 81.2733983,53.3862612 C80.8199586,53.709437 80.4231988,54.0812873 80.077451,54.4814366 C77.9632884,56.8976142 77.7025606,60.5306532 79.6636873,63.2473673 L82.2823016,66.8843683 L88.2223617,75.1250676 C87.740582,74.449285 87.3948342,73.7152062 87.1794504,72.9584881 C86.3689269,70.1687624 87.3438222,67.0552949 89.8377406,65.2628296 C91.4191115,64.1229416 93.3178903,63.7329799 95.1089771,64.0238947 C96.8943959,64.3148095 98.5664548,65.2866008 99.7113901,66.8702187 L91.1470477,54.9925184 Z" id="Path" fill="#0D47A1"></path>
                    <path d="M53.1771408,44.5558086 L48.7050918,42.7531556 L48.359344,42.6116601 C48.365012,42.6275076 48.376348,42.6439211 48.387684,42.6609005 C50.3148027,45.5185441 52.5196533,48.7599236 54.7811838,52.0737488 L58.6184172,46.7523851 L56.9633623,46.0850922 L53.1771408,44.5558086 Z" id="Path" fill="#4CAF50"></path>
                    <path d="M15.5643177,84.7009187 C12.9967154,88.988799 11.1489486,95.6164494 13.631531,105.235315 C15.2072339,111.354714 16.2728172,129.590091 15.9780814,143.428353 C14.3627025,144.535414 12.5999557,145.78397 10.633161,147.214773 C6.56353966,148.677271 4.06962131,153.260594 0.0963559363,160.011062 C0.357083764,159.571294 0.617811591,159.14511 0.884207415,158.733641 L13.3141232,166.278748 L23.1707687,156.082015 C32.5966464,141.067076 32.3075786,134.094176 32.3075786,134.075499 C33.6622297,130.461703 34.6484611,126.488509 35.6063525,121.997441 C37.4654552,132.852977 38.7860984,146.527671 39.4265819,153.851479 C37.6865071,157.16304 36.5585758,161.748627 36.7682917,168.056498 L48.410356,168.056498 L51.4937459,146.389571 L51.8791697,145.974706 C51.8791697,145.974706 54.5657999,132.739215 54.6338159,117.516561 C54.6734918,108.770439 53.4492047,100.390508 52.1512335,94.0045324 L15.5643177,84.7009187 Z" id="Path" fill="#2E7D32"></path>
                    <path d="M30.5901758,31.8404548 C35.5326685,29.4684238 45.8597577,28.82943 45.8597577,28.82943 L47.4127886,28.2781635 L50.6152065,20.0804788 C50.5755306,19.820127 50.5188506,19.5648691 50.4961786,19.3011215 C50.4961786,19.3011215 53.0297729,12.3061487 55.3253114,11.9592017 C56.5892746,11.7690317 56.1018269,15.9816365 56.005471,16.7406184 C55.994135,16.8153281 55.988467,16.8690964 55.988467,16.8690964 C55.988467,16.8690964 56.016807,16.8238178 56.0564829,16.7604278 C56.2491948,16.4457418 56.8386664,15.4513112 57.1447382,14.667426 C57.3204461,14.224262 57.5641699,13.6441304 58.0799576,13.0017407 C58.6580932,12.2801135 59.5876446,11.4792489 61.1803515,10.6981936 C62.8013985,9.90015883 63.3398581,7.75169079 63.492894,5.94564192 C64.5301373,6.46577947 65.7204165,7.11269701 66.8596838,7.83715409 C67.2281035,8.06864077 67.5851873,8.30578726 67.9366031,8.55255546 C68.6564386,9.06703318 69.3309302,9.60981001 69.8807258,10.1673024 C72.8620918,13.1675735 72.5106761,17.5318614 72.5106761,17.5318614 C72.5106761,17.5318614 72.618368,17.3937618 72.7997439,17.1452956 C73.9390111,15.5339446 77.8215885,9.13042318 72.1876003,3.3036375 C70.6062293,1.67021317 65.6580686,1.16875303 61.4750873,1.04933081 C59.6273206,0.212243286 57.7568818,-0.16187088 55.6030432,1.09008152 L55.5973752,1.09008152 L55.5520313,0.857462876 C55.5520313,0.857462876 55.5350273,0.945756083 55.5010193,1.09460937 C55.1949475,1.10819294 55.0192396,1.11781464 55.0192396,1.11781464 L55.2856354,1.28591132 C54.7811838,1.61418094 54.2597281,2.02282001 53.7212685,2.5480514 C53.7212685,2.5480514 52.6330132,3.95961075 51.5560939,6.35994082 C50.3488107,7.1540137 48.7844437,7.83885203 46.7553011,8.24013334 C42.4929679,9.08174872 30.8565716,6.30221064 26.0047668,13.4720718 C24.225016,16.0959648 22.2468853,21.3052641 30.5334958,31.770839 C30.5504998,31.7940443 30.5675038,31.8166835 30.5901758,31.8404548 Z" id="Path" fill="#212121"></path>
                    <path d="M76.9260451,42.4226221 C73.2418476,38.4805568 65.1479489,36.5624434 65.1479489,36.5624434 L65.1592849,36.6167777 L56.8896784,33.2797473 L58.6467572,28.7881134 L60.9252917,29.6755733 C66.3438961,31.7900824 68.6904466,27.6510553 70.8102772,22.2351726 L71.7398286,19.8489921 C75.5147141,23.5142922 82.5430294,28.9392306 81.2904022,36.0819246 C80.9729945,37.8738239 80.105791,40.3233945 76.9260451,42.4226221 Z" id="Path" fill="#212121"></path>
                    <path d="M48.5690599,206.81099 C46.868661,206.907207 45.2192741,204.39368 43.7399271,200.833653 L48.410356,168.056498 L48.410356,168.056498 L36.7569557,168.056498 C36.7682917,168.460043 36.7852957,168.871512 36.8136357,169.289207 C36.9610036,171.772736 37.3124193,174.947896 37.760191,178.407744 L39.267878,203.493769 L38.5197025,211.517697 L54.7131678,211.414688 C54.7131678,211.414688 58.3746934,211.477512 58.3010094,209.674859 C58.1763135,206.900415 51.2840301,206.656477 48.5690599,206.81099 Z" id="Path" fill="#FFA000"></path>
                    <path d="M82.2823016,66.8843683 L79.6636873,63.2473673 C77.7025606,60.5295213 77.9632884,56.8976142 80.077451,54.4814366 C79.3972915,50.5614446 78.8701678,47.3727015 78.677456,45.8253064 C78.5187521,44.5580725 77.8612645,43.4266743 76.9260451,42.423754 C73.2418476,38.4816887 65.1479489,36.5630094 65.1479489,36.5630094 L65.1592849,36.6173437 L56.8896784,33.2803132 L65.1592849,36.6173437 L65.2896488,37.5048036 L58.907485,46.3528017 L54.7811838,52.0743147 C52.5196533,48.7604896 50.3204707,45.5179781 48.393352,42.6614665 C48.382016,42.644487 48.37068,42.6286395 48.359344,42.612792 C47.9795883,42.0547337 47.6168365,41.5119569 47.2597527,40.9861595 L46.3245334,32.8388472 L46.1658295,31.4686046 L45.8597577,28.831128 C45.8597577,28.831128 35.5326685,29.4695558 30.5901758,31.8415868 C29.1391687,32.5383107 28.1472694,33.38219 28.0225735,34.4060516 C26.8096223,44.3984656 31.2363273,62.9553205 30.4258039,65.1768003 C29.1221647,68.7798423 23.5618604,75.4131525 19.5489191,79.917238 C18.3756438,81.2280525 17.3440685,82.3532249 16.578889,83.1755969 C15.7400256,84.0749425 15.2242379,84.6137574 15.2242379,84.6137574 L15.5643177,84.7020506 L52.1512335,94.0062303 L53.1147929,94.2507346 C53.1147929,94.2507346 50.2524548,83.0182539 52.7577091,77.89272 C53.2394888,76.9062132 53.8459644,75.9672489 54.5374599,75.0520559 L57.6548579,80.1408009 L58.1933175,79.9676104 C58.7147732,76.9650754 61.1236716,73.2324235 65.4426847,72.7700161 C66.2475402,72.6845528 67.5908553,72.8384999 69.2062342,73.1328106 C67.9479391,71.3007266 66.1341803,68.6598541 64.0256857,65.5865713 C65.6127246,64.0686073 67.1827596,62.4487666 68.6451026,60.6630931 L70.3001575,73.342224 C72.9527798,73.879907 76.1211897,74.7028449 78.8588319,75.4612609 C79.4142955,75.396739 79.9980991,75.3905132 80.5989067,75.4572991 C81.4717781,75.553516 82.7017333,76.0827093 84.1073964,76.8535769 C83.5632687,73.91047 82.9284532,70.4404338 82.2823016,66.8843683 Z" id="Path" fill="#FFA000"></path>
                    <path d="M68.9114984,19.2547109 C69.2629142,19.347532 69.6823459,18.9632301 69.8467178,18.3893243 C69.9147338,18.1527438 69.9147338,17.9286149 69.8807258,17.7322191 C69.8410498,17.4843189 69.7276899,17.2969788 69.55765,17.2183073 C69.534978,17.2086856 69.523642,17.1877443 69.50097,17.1809525 C69.1495543,17.0858675 68.7301226,17.4718673 68.5657507,18.0429433 C68.4070468,18.6145852 68.5600827,19.156796 68.9114984,19.2547109 Z" id="Path" fill="#D7CCC8"></path>
                    <path d="M61.8548431,16.500642 C62.2005909,16.5940291 62.6200226,16.2102932 62.7843945,15.6352554 C62.9487664,15.0641795 62.7957305,14.5242326 62.4386467,14.4280156 C62.0872309,14.3340626 61.6677992,14.7177984 61.5034273,15.2894404 C61.3503914,15.8616483 61.4977593,16.4032931 61.8548431,16.500642 Z" id="Path" fill="#D7CCC8"></path>
                </g>
                <g id="Group" transform="translate(0.000000, 110.000000)">
                    <path d="M173.57907,48.688591 C174.349928,47.8655783 175.381517,46.7383965 176.54914,45.4276936 C175.653585,46.2127559 174.599323,47.2895261 173.57907,48.688591 Z" id="Path" fill="#ED1C24"></path>
                    <path d="M149.404738,153.514236 C146.638719,158.428522 143.833022,163.364332 144.671897,163.675865 C147.216862,164.626323 154.999126,171.757589 153.995878,174.349541 C153.338381,176.032383 150.005554,174.500209 150.005554,174.500209 L135.143866,168.086035 L139.060505,161.035767 L145.000646,150.913221 C148.75291,142.280934 153.672797,131.429968 157.10765,125.585615 C157.368381,125.145505 157.629112,124.718988 157.889844,124.307199 L170.325596,131.858184 L149.404738,153.514236 Z" id="Path" fill="#FFA000"></path>
                    <path d="M85.4008571,100.762692 C83.8137966,100.762692 82.521476,99.4746464 82.521476,97.8852634 C82.521476,96.2964468 83.8137966,95.0078344 85.4008571,95.0078344 C86.9935856,95.0078344 88.2802382,96.2964468 88.2802382,97.8852634 C88.2802382,99.4746464 86.9935856,100.762692 85.4008571,100.762692 Z" id="Path" fill="#4CAF50" fill-rule="nonzero"></path>
                    <path d="M85.4008571,92.0528055 C83.8137966,92.0528055 82.521476,90.7641931 82.521476,89.17481 C82.521476,87.585427 83.8137966,86.297381 85.4008571,86.297381 C86.9935856,86.297381 88.2802382,87.585427 88.2802382,89.17481 C88.2802382,90.7641931 86.9935856,92.0528055 85.4008571,92.0528055 Z" id="Path" fill="#4CAF50" fill-rule="nonzero"></path>
                    <path d="M85.4008571,109.629479 C83.8137966,109.629479 82.521476,108.340866 82.521476,106.751483 C82.521476,105.1621 83.8137966,103.874054 85.4008571,103.874054 C86.9935856,103.874054 88.2802382,105.1621 88.2802382,106.751483 C88.2802382,108.340866 86.9935856,109.629479 85.4008571,109.629479 Z" id="Path" fill="#4CAF50" fill-rule="nonzero"></path>
                    <path d="M82.521476,168.347722 L82.521476,115.928669 C82.521476,114.382334 83.7741201,113.12884 85.3215041,113.12884 C86.868888,113.12884 88.1272003,114.382334 88.1272003,115.928669 L88.1272003,168.347722 C88.1272003,169.894057 86.868888,171.147551 85.3215041,171.147551 C83.7741201,171.147551 82.521476,169.894057 82.521476,168.347722 Z" id="Path" fill="#4CAF50" fill-rule="nonzero"></path>
                    <path d="M82.521476,168.347722 L82.521476,115.928669 C82.521476,114.382334 83.7741201,113.12884 85.3215041,113.12884 L85.3215041,171.147551 C83.7741201,171.147551 82.521476,169.894057 82.521476,168.347722 Z" id="Path" fill="#2E7D32" fill-rule="nonzero"></path>
                    <line x1="85.3420088" y1="171.144719" x2="85.3420088" y2="113.124875" id="Path" stroke="#A8A8A8" stroke-width="0.5"></line>
                    <path d="M54.526863,21.4804606 C71.587763,21.533138 85.4008571,35.4563825 85.4008571,52.6240982 L85.4008571,52.5266734 L54.526863,52.5266734 L54.526863,21.4804606 Z" id="Path" fill="#E0E0E0" fill-rule="nonzero"></path>
                    <path d="M85.4972143,21.3824695 C91.3806742,21.3824695 96.1475237,16.6182853 96.1475237,10.74108 C96.1475237,4.86387458 91.3806742,0.0991240306 85.4972143,0.0991240306 C79.6194226,0.0991240306 74.8525731,4.86387458 74.8525731,10.74108 C74.8525731,16.6182853 79.6194226,21.3824695 85.4972143,21.3824695 Z" id="Path" fill="#4CAF50" fill-rule="nonzero"></path>
                    <path d="M54.526863,21.4804606 C71.587763,21.533138 85.4008571,35.4563825 85.4008571,52.6240982 L85.4008571,52.5266734 L54.526863,52.5266734 L54.526863,21.4804606 Z" id="Path" fill="#C8E6C9" fill-rule="nonzero"></path>
                    <path d="M116.274851,21.4804606 C99.2139512,21.533138 85.4008571,35.4563825 85.4008571,52.6240982 L85.4008571,52.5266734 L116.274851,52.5266734 L116.274851,21.4804606 Z" id="Path" fill="#FFA000" fill-rule="nonzero"></path>
                    <path d="M85.4008571,83.3774703 C68.3399571,83.324793 54.526863,69.4015484 54.526863,52.2338327 C54.526863,52.2009802 54.526863,52.1681277 54.526863,52.1358415 L85.4008571,52.1358415 L85.4008571,83.3774703 Z" id="Path" fill="#FFECB3" fill-rule="nonzero"></path>
                    <path d="M85.4008571,83.3774703 C102.461757,83.324793 116.274851,69.4015484 116.274851,52.2338327 L116.274851,52.1358415 L85.4008571,52.1358415 L85.4008571,83.3774703 Z" id="Path" fill="#4CAF50" fill-rule="nonzero"></path>
                    <path d="M0.269800279,80.7011215 C10.0098171,71.4457691 25.4609843,71.8518944 34.8133049,81.6232582 L34.7622922,81.5683151 L17.1912657,98.3718208 L0.269800279,80.7011215 Z" id="Path" fill="#E0E0E0" fill-rule="nonzero"></path>
                    <path d="M17.8430941,63.7882962 C21.1929252,60.5874396 21.3062867,55.2800558 18.1038254,51.9353278 C14.9013641,48.5900334 9.59094646,48.4727838 6.2433825,51.6742068 C2.89581854,54.8756298 2.77905623,60.1824471 5.98265114,63.5277416 C9.18624604,66.873036 14.4989309,66.9897191 17.8430941,63.7882962 Z" id="Path" fill="#FF6F00" fill-rule="nonzero"></path>
                    <path d="M0.269800279,80.7011215 C10.0098171,71.4457691 25.4609843,71.8518944 34.8133049,81.6232582 L34.7622922,81.5683151 L17.1912657,98.3718208 L0.269800279,80.7011215 Z" id="Path" fill="#4CAF50" fill-rule="nonzero"></path>
                    <path d="M35.4141206,47.0929773 C25.7330518,56.4089369 25.4609843,71.8518944 34.8133049,81.6232582 L34.7622922,81.5677487 L52.3333188,64.7636766 L35.4141206,47.0929773 Z" id="Path" fill="#FFA000" fill-rule="nonzero"></path>
                    <path d="M51.579465,99.1274291 C41.8417155,108.382781 26.3905483,107.976656 17.0325596,98.2052924 C17.0155554,98.1866005 16.9985512,98.1684749 16.9815469,98.1492165 L34.5525735,81.3457109 L51.579465,99.1274291 Z" id="Path" fill="#C8E6C9" fill-rule="nonzero"></path>
                    <path d="M51.579465,99.1274291 C61.2605339,89.8114695 61.5326014,74.368512 52.1746127,64.5971483 C52.1576085,64.5784563 52.1406043,64.5597643 52.1236,64.5410724 L34.5525735,81.3457109 L51.579465,99.1274291 Z" id="Path" fill="#FFECB3" fill-rule="nonzero"></path>
                    <path d="M170.036524,80.7016879 C160.298775,71.4463356 144.847608,71.8524609 135.489619,81.6238246 L135.5463,81.5683151 L153.117326,98.3723872 L170.036524,80.7016879 Z" id="Path" fill="#E0E0E0" fill-rule="nonzero"></path>
                    <path d="M152.465498,63.7882962 C149.115667,60.5874396 149.002305,55.2800558 152.204766,51.9353278 C155.407228,48.5900334 160.718212,48.4733502 164.062375,51.6747732 C167.412207,54.8761962 167.531236,60.1830136 164.323107,63.528308 C161.120645,66.873036 155.809661,66.9897191 152.465498,63.7882962 Z" id="Path" fill="#FF6F00" fill-rule="nonzero"></path>
                    <path d="M170.036524,80.7016879 C160.298775,71.4463356 144.847608,71.8524609 135.489619,81.6238246 L135.5463,81.5683151 L153.117326,98.3723872 L170.036524,80.7016879 Z" id="Path" fill="#4CAF50" fill-rule="nonzero"></path>
                    <path d="M134.894471,47.0935437 C144.57554,56.4089369 144.847608,71.8524609 135.489619,81.6238246 L135.5463,81.5677487 L117.969605,64.7636766 L134.894471,47.0935437 Z" id="Path" fill="#FFECB3" fill-rule="nonzero"></path>
                    <path d="M118.729127,99.1274291 C128.466876,108.382781 143.918044,107.976656 153.276032,98.2052924 C153.293036,98.1866005 153.310041,98.1684749 153.327045,98.149783 L135.756018,81.3457109 L118.729127,99.1274291 Z" id="Path" fill="#C8E6C9" fill-rule="nonzero"></path>
                    <path d="M118.729127,99.1274291 C109.048058,89.8114695 108.77599,74.368512 118.133979,64.5971483 C118.150983,64.5784563 118.167988,64.5603308 118.184992,64.5416388 L135.756018,81.3457109 L118.729127,99.1274291 Z" id="Path" fill="#2E7D32" fill-rule="nonzero"></path>
                    <path d="M85.0777769,175.139134 C72.0582131,175.098918 61.5099291,164.536262 61.5099291,151.51363 L61.5099291,151.438862 L85.0777769,151.438862 L85.0777769,175.139134 Z" id="Path" fill="#FFECB3" fill-rule="nonzero"></path>
                    <path d="M85.0777769,175.139134 C98.1823619,175.098918 108.792995,164.536828 108.792995,151.51363 C108.792995,151.488707 108.792995,151.463784 108.792995,151.438862 L85.0777769,151.438862 L85.0777769,175.139134 Z" id="Path" fill="#4CAF50" fill-rule="nonzero"></path>
                    <path d="M113.185751,103.840635 C112.74931,103.346148 112.794654,102.593372 113.293445,102.158925 C113.786567,101.723912 114.540421,101.772058 114.976862,102.265979 C115.407636,102.760466 115.362291,103.513243 114.863501,103.947689 C114.370379,104.382702 113.616525,104.334556 113.185751,103.840635 Z" id="Path" fill="#4CAF50" fill-rule="nonzero"></path>
                    <path d="M115.89509,101.457693 C115.458649,100.963773 115.509661,100.210996 116.002784,99.7759835 C116.495906,99.341537 117.24976,99.389683 117.686201,99.8836039 C118.116975,100.377525 118.07163,101.130301 117.578508,101.565314 C117.079718,101.99976 116.325864,101.951614 115.89509,101.457693 Z" id="Path" fill="#4CAF50" fill-rule="nonzero"></path>
                    <path d="M110.4254,106.265492 C109.988958,105.771571 110.039971,105.018795 110.533093,104.584349 C111.026216,104.149336 111.780069,104.196915 112.216511,104.691403 C112.652952,105.185323 112.60194,105.9381 112.108817,106.373113 C111.615695,106.808125 110.861841,106.759979 110.4254,106.265492 Z" id="Path" fill="#4CAF50" fill-rule="nonzero"></path>
                    <path d="M91.3693381,121.432602 L107.676384,107.094169 C108.158171,106.671051 108.89502,106.718064 109.314457,107.198957 C109.739563,107.679284 109.694218,108.412235 109.212432,108.835353 L92.9053859,123.173786 C92.4235997,123.596904 91.6924182,123.549891 91.2673127,123.068998 C90.8422073,122.588671 90.8932199,121.85572 91.3693381,121.432602 Z" id="Path" fill="#4CAF50" fill-rule="nonzero"></path>
                    <path d="M91.3693381,121.432602 L107.676384,107.094169 C108.158171,106.671051 108.89502,106.718064 109.314457,107.198957 L91.2673127,123.068998 C90.8422073,122.588671 90.8932199,121.85572 91.3693381,121.432602 Z" id="Path" fill="#2E7D32" fill-rule="nonzero"></path>
                    <line x1="91.2503085" y1="123.042376" x2="109.297453" y2="107.171769" id="Path" stroke="#A8A8A8" stroke-width="0.5"></line>
                    <path d="M57.1228405,103.840635 C57.5592821,103.346148 57.5082695,102.593372 57.0151471,102.158925 C56.5220248,101.723912 55.768171,101.772058 55.3317294,102.265979 C54.9009559,102.760466 54.9463004,103.513243 55.4394228,103.947689 C55.9382132,104.382702 56.692067,104.334556 57.1228405,103.840635 Z" id="Path" fill="#4CAF50" fill-rule="nonzero"></path>
                    <path d="M54.4135016,101.457693 C54.8499432,100.963773 54.7989305,100.210996 54.3058082,99.7759835 C53.8126858,99.341537 53.0588321,99.389683 52.6223905,99.8836039 C52.1916169,100.377525 52.2369615,101.130301 52.7300839,101.565314 C53.2232062,101.99976 53.9770599,101.951614 54.4135016,101.457693 Z" id="Path" fill="#4CAF50" fill-rule="nonzero"></path>
                    <path d="M59.8831921,106.265492 C60.3196337,105.771571 60.2686211,105.018795 59.7754987,104.584349 C59.2823763,104.149336 58.5285226,104.196915 58.092081,104.691403 C57.6556394,105.185323 57.706652,105.9381 58.1997744,106.373113 C58.6928967,106.808125 59.4467505,106.759979 59.8831921,106.265492 Z" id="Path" fill="#4CAF50" fill-rule="nonzero"></path>
                    <path d="M78.9392538,121.432602 L62.6322075,107.094169 C62.1504213,106.671051 61.4135718,106.718064 60.9941344,107.198957 C60.5690289,107.679284 60.6143735,108.412235 61.0961597,108.835353 L77.403206,123.173786 C77.8849922,123.596904 78.6161736,123.549891 79.0412791,123.068998 C79.4663846,122.588671 79.4153719,121.85572 78.9392538,121.432602 Z" id="Path" fill="#4CAF50" fill-rule="nonzero"></path>
                    <path d="M78.9392538,121.432602 L62.6322075,107.094169 C62.1504213,106.671051 61.4135718,106.718064 60.9941344,107.198957 L79.0412791,123.068998 C79.4663846,122.588671 79.4153719,121.85572 78.9392538,121.432602 Z" id="Path" fill="#2E7D32" fill-rule="nonzero"></path>
                    <line x1="79.0412791" y1="123.098452" x2="60.9884663" y2="107.227278" id="Path" stroke="#A8A8A8" stroke-width="0.5"></line>
                </g>
            </g>
        </g>
    </g>
</svg>